<?xml version="1.0" encoding="UTF-8" standalone="no"?>
<!DOCTYPE svg PUBLIC "-//W3C//DTD SVG 1.1//EN"
 "http://www.w3.org/Graphics/SVG/1.1/DTD/svg11.dtd">
<!-- Generated by graphviz version 2.43.0 (0)
 -->
<!-- Title: include/medusa/bits/integrators/AdamsBashforth.hpp Pages: 1 -->
<svg width="388pt" height="214pt"
 viewBox="0.00 0.00 388.00 214.00" xmlns="http://www.w3.org/2000/svg" xmlns:xlink="http://www.w3.org/1999/xlink">

<svg id="main" version="1.1" xmlns="http://www.w3.org/2000/svg" xmlns:xlink="http://www.w3.org/1999/xlink" xml:space="preserve" onload="init(evt)">
<style type="text/css"><![CDATA[
.node, .edge {opacity: 0.7;}
.node.selected, .edge.selected {opacity: 1;}
.edge:hover path { stroke: red; }
.edge:hover polygon { stroke: red; fill: red; }
]]></style>
<script type="application/ecmascript" xlink:href="svg.min.js"/>
<svg id="graph" class="graph">
<g id="graph0" class="graph" transform="scale(1 1) rotate(0) translate(4 210)">
<title>include/medusa/bits/integrators/AdamsBashforth.hpp</title>
<!-- Node1 -->
<g id="Node000001" class="node">
<title>Node1</title>
<g id="a_Node000001"><a xlink:title="Adams&#45;Bashforth integrator implementation.">
<polygon fill="#999999" stroke="#666666" points="273.5,-206 95.5,-206 95.5,-176 273.5,-176 273.5,-206"/>
<text text-anchor="start" x="103.5" y="-194" font-family="Helvetica,sans-Serif" font-size="10.00">include/medusa/bits</text>
<text text-anchor="middle" x="184.5" y="-183" font-family="Helvetica,sans-Serif" font-size="10.00">/integrators/AdamsBashforth.hpp</text>
</a>
</g>
</g>
<!-- Node2 -->
<g id="Node000002" class="node">
<title>Node2</title>
<g id="a_Node000002"><a xlink:href="Integrators_8hpp.html" target="_top" xlink:title="Header for Integrators module.">
<polygon fill="white" stroke="#666666" points="171,-140 0,-140 0,-121 171,-121 171,-140"/>
<text text-anchor="middle" x="85.5" y="-128" font-family="Helvetica,sans-Serif" font-size="10.00">include/medusa/Integrators.hpp</text>
</a>
</g>
</g>
<!-- Node1&#45;&gt;Node2 -->
<g id="edge1_Node000001_Node000002" class="edge">
<title>Node1&#45;&gt;Node2</title>
<g id="a_edge1_Node000001_Node000002"><a xlink:title=" ">
<path fill="none" stroke="#63b8ff" d="M151.98,-170.78C134.46,-160.43 113.72,-148.18 100.12,-140.14"/>
<polygon fill="#63b8ff" stroke="#63b8ff" points="150.4,-173.91 160.79,-175.99 153.96,-167.89 150.4,-173.91"/>
</a>
</g>
</g>
<!-- Node5 -->
<g id="Node000005" class="node">
<title>Node5</title>
<g id="a_Node000005"><a xlink:href="AdamsBashforth_8cpp.html" target="_top" xlink:title="Adams&#45;Bashforth integrator implementation.">
<polygon fill="white" stroke="#666666" points="380,-140 189,-140 189,-121 380,-121 380,-140"/>
<text text-anchor="middle" x="284.5" y="-128" font-family="Helvetica,sans-Serif" font-size="10.00">src/integrators/AdamsBashforth.cpp</text>
</a>
</g>
</g>
<!-- Node1&#45;&gt;Node5 -->
<g id="edge5_Node000001_Node000005" class="edge">
<title>Node1&#45;&gt;Node5</title>
<g id="a_edge5_Node000001_Node000005"><a xlink:title=" ">
<path fill="none" stroke="#63b8ff" d="M217.35,-170.78C235.04,-160.43 255.99,-148.18 269.73,-140.14"/>
<polygon fill="#63b8ff" stroke="#63b8ff" points="215.32,-167.92 208.45,-175.99 218.85,-173.96 215.32,-167.92"/>
</a>
</g>
</g>
<!-- Node3 -->
<g id="Node000003" class="node">
<title>Node3</title>
<g id="a_Node000003"><a xlink:href="Medusa_8hpp.html" target="_top" xlink:title="Main header file that includes most other components.">
<polygon fill="white" stroke="#666666" points="163.5,-19 7.5,-19 7.5,0 163.5,0 163.5,-19"/>
<text text-anchor="middle" x="85.5" y="-7" font-family="Helvetica,sans-Serif" font-size="10.00">include/medusa/Medusa.hpp</text>
</a>
</g>
</g>
<!-- Node2&#45;&gt;Node3 -->
<g id="edge2_Node000002_Node000003" class="edge">
<title>Node2&#45;&gt;Node3</title>
<g id="a_edge2_Node000002_Node000003"><a xlink:title=" ">
<path fill="none" stroke="#63b8ff" d="M71.29,-112.78C65.5,-104.89 59.48,-95.02 56.5,-85 52.7,-72.22 52.7,-67.78 56.5,-55 60.6,-41.21 70.47,-27.7 77.56,-19.25"/>
<polygon fill="#63b8ff" stroke="#63b8ff" points="68.63,-115.05 77.56,-120.75 74.13,-110.72 68.63,-115.05"/>
</a>
</g>
</g>
<!-- Node4 -->
<g id="Node000004" class="node">
<title>Node4</title>
<g id="a_Node000004"><a xlink:href="Medusa__fwd_8hpp.html" target="_top" xlink:title="Main header file that includes only declarations for some heavy classes such as mm::WLS to reduce com...">
<polygon fill="white" stroke="#666666" points="201,-85 66,-85 66,-55 201,-55 201,-85"/>
<text text-anchor="start" x="74" y="-73" font-family="Helvetica,sans-Serif" font-size="10.00">include/medusa/Medusa</text>
<text text-anchor="middle" x="133.5" y="-62" font-family="Helvetica,sans-Serif" font-size="10.00">_fwd.hpp</text>
</a>
</g>
</g>
<!-- Node2&#45;&gt;Node4 -->
<g id="edge3_Node000002_Node000004" class="edge">
<title>Node2&#45;&gt;Node4</title>
<g id="a_edge3_Node000002_Node000004"><a xlink:title=" ">
<path fill="none" stroke="#63b8ff" d="M99.14,-112.88C106.33,-104.11 115.06,-93.48 121.92,-85.11"/>
<polygon fill="#63b8ff" stroke="#63b8ff" points="96.22,-110.92 92.58,-120.87 101.63,-115.36 96.22,-110.92"/>
</a>
</g>
</g>
<!-- Node4&#45;&gt;Node3 -->
<g id="edge4_Node000004_Node000003" class="edge">
<title>Node4&#45;&gt;Node3</title>
<g id="a_edge4_Node000004_Node000003"><a xlink:title=" ">
<path fill="none" stroke="#63b8ff" d="M115.52,-47.09C107.59,-37.42 98.72,-26.61 92.69,-19.27"/>
<polygon fill="#63b8ff" stroke="#63b8ff" points="112.83,-49.33 121.88,-54.84 118.24,-44.89 112.83,-49.33"/>
</a>
</g>
</g>
</g>
</svg>
</svg>

<style type='text/css'>
<![CDATA[
[data-mouse-over-selected='false'] { opacity: 0.7; }
[data-mouse-over-selected='true']  { opacity: 1.0; }
]]>
</style>
<script type="application/ecmascript"><![CDATA[
document.addEventListener('DOMContentLoaded', (event) => {
  highlightEdges();
  highlightAdjacentNodes();
});
]]></script>
</svg>
