<?xml version="1.0" encoding="UTF-8" standalone="no"?>
<!DOCTYPE svg PUBLIC "-//W3C//DTD SVG 1.1//EN"
 "http://www.w3.org/Graphics/SVG/1.1/DTD/svg11.dtd">
<!-- Generated by graphviz version 2.43.0 (0)
 -->
<!-- Title: include/medusa/bits/integrators/AdamsBashforth.hpp Pages: 1 -->
<!--zoomable 478 -->

<svg id="main" version="1.1" xmlns="http://www.w3.org/2000/svg" xmlns:xlink="http://www.w3.org/1999/xlink" xml:space="preserve" onload="init(evt)">
<style type="text/css"><![CDATA[
.node, .edge {opacity: 0.7;}
.node.selected, .edge.selected {opacity: 1;}
.edge:hover path { stroke: red; }
.edge:hover polygon { stroke: red; fill: red; }
]]></style>

<defs>
  <circle id="rim" cx="0" cy="0" r="7"/>
  <circle id="rim2" cx="0" cy="0" r="3.5"/>
  <g id="zoomPlus">
    <use xlink:href="#rim" fill="#404040"><set attributeName="fill" to="#808080" begin="zoomplus.mouseover" end="zoomplus.mouseout"/></use>
    <path d="M-4,0h8M0,-4v8" fill="none" stroke="white" stroke-width="1.5" pointer-events="none"/>
  </g>
  <g id="zoomMin">
    <use xlink:href="#rim" fill="#404040"><set attributeName="fill" to="#808080" begin="zoomminus.mouseover" end="zoomminus.mouseout"/></use>
    <path d="M-4,0h8" fill="none" stroke="white" stroke-width="1.5" pointer-events="none"/>
  </g>
  <g id="arrowUp" transform="translate(30 24)">
    <use xlink:href="#rim"/>
    <path pointer-events="none" fill="none" stroke="white" stroke-width="1.5" d="M0,-3.0v7 M-2.5,-0.5L0,-3.0L2.5,-0.5"/>
  </g>
  <g id="arrowRight" transform="rotate(90) translate(36 -43)">
    <use xlink:href="#rim"/>
    <path pointer-events="none" fill="none" stroke="white" stroke-width="1.5" d="M0,-3.0v7 M-2.5,-0.5L0,-3.0L2.5,-0.5"/>
  </g>
  <g id="arrowDown" transform="rotate(180) translate(-30 -48)">
    <use xlink:href="#rim"/>
    <path pointer-events="none" fill="none" stroke="white" stroke-width="1.5" d="M0,-3.0v7 M-2.5,-0.5L0,-3.0L2.5,-0.5"/>
  </g>
  <g id="arrowLeft" transform="rotate(270) translate(-36 17)">
    <use xlink:href="#rim"/>
    <path pointer-events="none" fill="none" stroke="white" stroke-width="1.5" d="M0,-3.0v7 M-2.5,-0.5L0,-3.0L2.5,-0.5"/>
  </g>
  <g id="resetDef">
    <use xlink:href="#rim2" fill="#404040"><set attributeName="fill" to="#808080" begin="reset.mouseover" end="reset.mouseout"/></use>
  </g>
</defs>
<script type="application/ecmascript">
var viewWidth = 832;
var viewHeight = 478;
var sectionId = 'dynsection-0';
</script>
<script type="application/ecmascript" xlink:href="svg.min.js"/>
<svg id="graph" class="graph">
<g id="viewport">
<title>include/medusa/bits/integrators/AdamsBashforth.hpp</title>
<!-- Node1 -->
<g id="Node000001" class="node">
<title>Node1</title>
<g id="a_Node000001"><a xlink:title="Adams&#45;Bashforth integrator implementation.">
<polygon fill="#999999" stroke="#666666" points="340,-470 162,-470 162,-440 340,-440 340,-470"/>
<text text-anchor="start" x="170" y="-458" font-family="Helvetica,sans-Serif" font-size="10.00">include/medusa/bits</text>
<text text-anchor="middle" x="251" y="-447" font-family="Helvetica,sans-Serif" font-size="10.00">/integrators/AdamsBashforth.hpp</text>
</a>
</g>
</g>
<!-- Node2 -->
<g id="Node000002" class="node">
<title>Node2</title>
<g id="a_Node000002"><a xlink:href="AdamsBashforth__fwd_8hpp.html" target="_top" xlink:title="Adams&#45;Bashforth integrator declarations.">
<polygon fill="white" stroke="#666666" points="387.5,-404 246.5,-404 246.5,-385 387.5,-385 387.5,-404"/>
<text text-anchor="middle" x="317" y="-392" font-family="Helvetica,sans-Serif" font-size="10.00">AdamsBashforth_fwd.hpp</text>
</a>
</g>
</g>
<!-- Node1&#45;&gt;Node2 -->
<g id="edge1_Node000001_Node000002" class="edge">
<title>Node1&#45;&gt;Node2</title>
<g id="a_edge1_Node000001_Node000002"><a xlink:title=" ">
<path fill="none" stroke="#63b8ff" d="M266.98,-439.84C276.75,-431.17 289.27,-420.08 299.34,-411.15"/>
<polygon fill="#63b8ff" stroke="#63b8ff" points="301.95,-413.52 307.11,-404.27 297.31,-408.28 301.95,-413.52"/>
</a>
</g>
</g>
<!-- Node24 -->
<g id="Node000024" class="node">
<title>Node24</title>
<g id="a_Node000024"><a xlink:href="RKExplicit_8hpp.html" target="_top" xlink:title="Runge&#45;Kutta integrator implementation.">
<polygon fill="white" stroke="#666666" points="228.5,-404 141.5,-404 141.5,-385 228.5,-385 228.5,-404"/>
<text text-anchor="middle" x="185" y="-392" font-family="Helvetica,sans-Serif" font-size="10.00">RKExplicit.hpp</text>
</a>
</g>
</g>
<!-- Node1&#45;&gt;Node24 -->
<g id="edge36_Node000001_Node000024" class="edge">
<title>Node1&#45;&gt;Node24</title>
<g id="a_edge36_Node000001_Node000024"><a xlink:title=" ">
<path fill="none" stroke="#63b8ff" d="M235.02,-439.84C225.25,-431.17 212.73,-420.08 202.66,-411.15"/>
<polygon fill="#63b8ff" stroke="#63b8ff" points="204.69,-408.28 194.89,-404.27 200.05,-413.52 204.69,-408.28"/>
</a>
</g>
</g>
<!-- Node3 -->
<g id="Node000003" class="node">
<title>Node3</title>
<g id="a_Node000003"><a xlink:href="Config_8hpp.html" target="_top" xlink:title="Contains compile time settings for the project, such as Eigen plugins.">
<polygon fill="white" stroke="#666666" points="327,-129 217,-129 217,-110 327,-110 327,-129"/>
<text text-anchor="middle" x="272" y="-117" font-family="Helvetica,sans-Serif" font-size="10.00">medusa/Config.hpp</text>
</a>
</g>
</g>
<!-- Node2&#45;&gt;Node3 -->
<g id="edge2_Node000002_Node000003" class="edge">
<title>Node2&#45;&gt;Node3</title>
<g id="a_edge2_Node000002_Node000003"><a xlink:title=" ">
<path fill="none" stroke="#63b8ff" d="M323.22,-384.97C341.1,-359.35 389.76,-281.12 365,-220 350.26,-183.63 315.55,-152.6 292.95,-135.27"/>
<polygon fill="#63b8ff" stroke="#63b8ff" points="294.78,-132.27 284.67,-129.11 290.6,-137.89 294.78,-132.27"/>
</a>
</g>
</g>
<!-- Node5 -->
<g id="Node000005" class="node">
<title>Node5</title>
<g id="a_Node000005"><a xlink:title=" ">
<polygon fill="#e0e0e0" stroke="#999999" points="72.5,-129 3.5,-129 3.5,-110 72.5,-110 72.5,-129"/>
<text text-anchor="middle" x="38" y="-117" font-family="Helvetica,sans-Serif" font-size="10.00">Eigen/Core</text>
</a>
</g>
</g>
<!-- Node2&#45;&gt;Node5 -->
<g id="edge4_Node000002_Node000005" class="edge">
<title>Node2&#45;&gt;Node5</title>
<g id="a_edge4_Node000002_Node000005"><a xlink:title=" ">
<path fill="none" stroke="#63b8ff" d="M253.23,-384.97C160.66,-370.76 0,-338.48 0,-285.5 0,-285.5 0,-285.5 0,-228.5 0,-195.02 16.45,-158.84 27.7,-138.01"/>
<polygon fill="#63b8ff" stroke="#63b8ff" points="30.87,-139.53 32.72,-129.1 24.76,-136.1 30.87,-139.53"/>
</a>
</g>
</g>
<!-- Node6 -->
<g id="Node000006" class="node">
<title>Node6</title>
<g id="a_Node000006"><a xlink:href="numutils_8hpp.html" target="_top" xlink:title="Declaration of numerical utilities.">
<polygon fill="white" stroke="#666666" points="356.5,-294 189.5,-294 189.5,-275 356.5,-275 356.5,-294"/>
<text text-anchor="middle" x="273" y="-282" font-family="Helvetica,sans-Serif" font-size="10.00">medusa/bits/utils/numutils.hpp</text>
</a>
</g>
</g>
<!-- Node2&#45;&gt;Node6 -->
<g id="edge5_Node000002_Node000006" class="edge">
<title>Node2&#45;&gt;Node6</title>
<g id="a_edge5_Node000002_Node000006"><a xlink:title=" ">
<path fill="none" stroke="#63b8ff" d="M313.4,-384.66C306.21,-367.01 289.94,-327.09 280.39,-303.64"/>
<polygon fill="#63b8ff" stroke="#63b8ff" points="283.54,-302.1 276.53,-294.16 277.06,-304.74 283.54,-302.1"/>
</a>
</g>
</g>
<!-- Node7 -->
<g id="Node000007" class="node">
<title>Node7</title>
<g id="a_Node000007"><a xlink:href="assert_8hpp.html" target="_top" xlink:title="Implementation of custom assert and debug utilities.">
<polygon fill="white" stroke="#666666" points="761.5,-129 606.5,-129 606.5,-110 761.5,-110 761.5,-129"/>
<text text-anchor="middle" x="684" y="-117" font-family="Helvetica,sans-Serif" font-size="10.00">medusa/bits/utils/assert.hpp</text>
</a>
</g>
</g>
<!-- Node2&#45;&gt;Node7 -->
<g id="edge35_Node000002_Node000007" class="edge">
<title>Node2&#45;&gt;Node7</title>
<g id="a_edge35_Node000002_Node000007"><a xlink:title=" ">
<path fill="none" stroke="#63b8ff" d="M387.76,-387.18C494.41,-375.66 684,-346.6 684,-285.5 684,-285.5 684,-285.5 684,-228.5 684,-197.19 684,-160.77 684,-139.23"/>
<polygon fill="#63b8ff" stroke="#63b8ff" points="687.5,-139.18 684,-129.18 680.5,-139.18 687.5,-139.18"/>
</a>
</g>
</g>
<!-- Node23 -->
<g id="Node000023" class="node">
<title>Node23</title>
<g id="a_Node000023"><a xlink:href="RKExplicit__fwd_8hpp.html" target="_top" xlink:title="Runge&#45;Kutta integrator declarations.">
<polygon fill="white" stroke="#666666" points="248,-349 138,-349 138,-330 248,-330 248,-349"/>
<text text-anchor="middle" x="193" y="-337" font-family="Helvetica,sans-Serif" font-size="10.00">RKExplicit_fwd.hpp</text>
</a>
</g>
</g>
<!-- Node2&#45;&gt;Node23 -->
<g id="edge29_Node000002_Node000023" class="edge">
<title>Node2&#45;&gt;Node23</title>
<g id="a_edge29_Node000002_Node000023"><a xlink:title=" ">
<path fill="none" stroke="#63b8ff" d="M297.08,-384.98C276.95,-376.38 245.62,-362.99 222.59,-353.15"/>
<polygon fill="#63b8ff" stroke="#63b8ff" points="223.86,-349.88 213.29,-349.17 221.1,-356.32 223.86,-349.88"/>
</a>
</g>
</g>
<!-- Node4 -->
<g id="Node000004" class="node">
<title>Node4</title>
<g id="a_Node000004"><a xlink:title=" ">
<polygon fill="#e0e0e0" stroke="#999999" points="520.5,-19 473.5,-19 473.5,0 520.5,0 520.5,-19"/>
<text text-anchor="middle" x="497" y="-7" font-family="Helvetica,sans-Serif" font-size="10.00">vector</text>
</a>
</g>
</g>
<!-- Node3&#45;&gt;Node4 -->
<g id="edge3_Node000003_Node000004" class="edge">
<title>Node3&#45;&gt;Node4</title>
<g id="a_edge3_Node000003_Node000004"><a xlink:title=" ">
<path fill="none" stroke="#63b8ff" d="M290.03,-109.84C329.46,-90.92 423.53,-45.77 470.03,-23.45"/>
<polygon fill="#63b8ff" stroke="#63b8ff" points="471.69,-26.53 479.19,-19.05 468.66,-20.22 471.69,-26.53"/>
</a>
</g>
</g>
<!-- Node6&#45;&gt;Node3 -->
<g id="edge6_Node000006_Node000003" class="edge">
<title>Node6&#45;&gt;Node3</title>
<g id="a_edge6_Node000006_Node000003"><a xlink:title=" ">
<path fill="none" stroke="#63b8ff" d="M272.95,-274.74C272.79,-249.31 272.33,-175.08 272.12,-139.69"/>
<polygon fill="#63b8ff" stroke="#63b8ff" points="275.62,-139.29 272.05,-129.31 268.62,-139.33 275.62,-139.29"/>
</a>
</g>
</g>
<!-- Node6&#45;&gt;Node7 -->
<g id="edge7_Node000006_Node000007" class="edge">
<title>Node6&#45;&gt;Node7</title>
<g id="a_edge7_Node000006_Node000007"><a xlink:title=" ">
<path fill="none" stroke="#63b8ff" d="M356.69,-279.16C435.39,-273.72 546.42,-262.15 583,-239 616.33,-217.91 605.87,-194.55 632,-165 641.59,-154.15 653.84,-143.55 664.03,-135.41"/>
<polygon fill="#63b8ff" stroke="#63b8ff" points="666.27,-138.11 672.02,-129.21 661.97,-132.58 666.27,-138.11"/>
</a>
</g>
</g>
<!-- Node14 -->
<g id="Node000014" class="node">
<title>Node14</title>
<g id="a_Node000014"><a xlink:href="Vec_8hpp.html" target="_top" xlink:title="Implemetations for Vec.">
<polygon fill="white" stroke="#666666" points="252,-239 104,-239 104,-220 252,-220 252,-239"/>
<text text-anchor="middle" x="178" y="-227" font-family="Helvetica,sans-Serif" font-size="10.00">medusa/bits/types/Vec.hpp</text>
</a>
</g>
</g>
<!-- Node6&#45;&gt;Node14 -->
<g id="edge15_Node000006_Node000014" class="edge">
<title>Node6&#45;&gt;Node14</title>
<g id="a_edge15_Node000006_Node000014"><a xlink:title=" ">
<path fill="none" stroke="#63b8ff" d="M257.74,-274.98C242.87,-266.69 220.02,-253.94 202.58,-244.22"/>
<polygon fill="#63b8ff" stroke="#63b8ff" points="203.98,-240.99 193.54,-239.17 200.57,-247.1 203.98,-240.99"/>
</a>
</g>
</g>
<!-- Node16 -->
<g id="Node000016" class="node">
<title>Node16</title>
<g id="a_Node000016"><a xlink:href="Range_8hpp.html" target="_top" xlink:title="Implementation of Range.">
<polygon fill="white" stroke="#666666" points="573.5,-239 412.5,-239 412.5,-220 573.5,-220 573.5,-239"/>
<text text-anchor="middle" x="493" y="-227" font-family="Helvetica,sans-Serif" font-size="10.00">medusa/bits/types/Range.hpp</text>
</a>
</g>
</g>
<!-- Node6&#45;&gt;Node16 -->
<g id="edge19_Node000006_Node000016" class="edge">
<title>Node6&#45;&gt;Node16</title>
<g id="a_edge19_Node000006_Node000016"><a xlink:title=" ">
<path fill="none" stroke="#63b8ff" d="M308.35,-274.98C346.16,-265.87 406.26,-251.4 447.57,-241.45"/>
<polygon fill="#63b8ff" stroke="#63b8ff" points="448.47,-244.83 457.38,-239.08 446.83,-238.02 448.47,-244.83"/>
</a>
</g>
</g>
<!-- Node22 -->
<g id="Node000022" class="node">
<title>Node22</title>
<g id="a_Node000022"><a xlink:title=" ">
<polygon fill="#e0e0e0" stroke="#999999" points="355.5,-239 308.5,-239 308.5,-220 355.5,-220 355.5,-239"/>
<text text-anchor="middle" x="332" y="-227" font-family="Helvetica,sans-Serif" font-size="10.00">cmath</text>
</a>
</g>
</g>
<!-- Node6&#45;&gt;Node22 -->
<g id="edge28_Node000006_Node000022" class="edge">
<title>Node6&#45;&gt;Node22</title>
<g id="a_edge28_Node000006_Node000022"><a xlink:title=" ">
<path fill="none" stroke="#63b8ff" d="M282.48,-274.98C291.2,-267.15 304.34,-255.34 314.9,-245.86"/>
<polygon fill="#63b8ff" stroke="#63b8ff" points="317.25,-248.46 322.35,-239.17 312.57,-243.25 317.25,-248.46"/>
</a>
</g>
</g>
<!-- Node8 -->
<g id="Node000008" class="node">
<title>Node8</title>
<g id="a_Node000008"><a xlink:title=" ">
<polygon fill="#e0e0e0" stroke="#999999" points="657,-74 525,-74 525,-55 657,-55 657,-74"/>
<text text-anchor="middle" x="591" y="-62" font-family="Helvetica,sans-Serif" font-size="10.00">tinyformat/tinyformat.h</text>
</a>
</g>
</g>
<!-- Node7&#45;&gt;Node8 -->
<g id="edge8_Node000007_Node000008" class="edge">
<title>Node7&#45;&gt;Node8</title>
<g id="a_edge8_Node000007_Node000008"><a xlink:title=" ">
<path fill="none" stroke="#63b8ff" d="M669.06,-109.98C654.5,-101.69 632.13,-88.94 615.07,-79.22"/>
<polygon fill="#63b8ff" stroke="#63b8ff" points="616.64,-76.08 606.21,-74.17 613.17,-82.16 616.64,-76.08"/>
</a>
</g>
</g>
<!-- Node9 -->
<g id="Node000009" class="node">
<title>Node9</title>
<g id="a_Node000009"><a xlink:href="print_8hpp.html" target="_top" xlink:title="Printing helpers for std types.">
<polygon fill="white" stroke="#666666" points="735,-74 675,-74 675,-55 735,-55 735,-74"/>
<text text-anchor="middle" x="705" y="-62" font-family="Helvetica,sans-Serif" font-size="10.00">print.hpp</text>
</a>
</g>
</g>
<!-- Node7&#45;&gt;Node9 -->
<g id="edge9_Node000007_Node000009" class="edge">
<title>Node7&#45;&gt;Node9</title>
<g id="a_edge9_Node000007_Node000009"><a xlink:title=" ">
<path fill="none" stroke="#63b8ff" d="M687.47,-109.75C690.28,-102.65 694.34,-92.4 697.85,-83.56"/>
<polygon fill="#63b8ff" stroke="#63b8ff" points="701.17,-84.68 701.6,-74.09 694.66,-82.1 701.17,-84.68"/>
</a>
</g>
</g>
<!-- Node9&#45;&gt;Node4 -->
<g id="edge11_Node000009_Node000004" class="edge">
<title>Node9&#45;&gt;Node4</title>
<g id="a_edge11_Node000009_Node000004"><a xlink:title=" ">
<path fill="none" stroke="#63b8ff" d="M674.76,-55.79C636.3,-45.99 570.13,-29.13 530.28,-18.98"/>
<polygon fill="#63b8ff" stroke="#63b8ff" points="531.06,-15.57 520.51,-16.49 529.33,-22.35 531.06,-15.57"/>
</a>
</g>
</g>
<!-- Node10 -->
<g id="Node000010" class="node">
<title>Node10</title>
<g id="a_Node000010"><a xlink:title=" ">
<polygon fill="#e0e0e0" stroke="#999999" points="700,-19 640,-19 640,0 700,0 700,-19"/>
<text text-anchor="middle" x="670" y="-7" font-family="Helvetica,sans-Serif" font-size="10.00">iostream</text>
</a>
</g>
</g>
<!-- Node9&#45;&gt;Node10 -->
<g id="edge10_Node000009_Node000010" class="edge">
<title>Node9&#45;&gt;Node10</title>
<g id="a_edge10_Node000009_Node000010"><a xlink:title=" ">
<path fill="none" stroke="#63b8ff" d="M699.22,-54.75C694.38,-47.42 687.32,-36.73 681.36,-27.7"/>
<polygon fill="#63b8ff" stroke="#63b8ff" points="684.1,-25.5 675.67,-19.09 678.26,-29.36 684.1,-25.5"/>
</a>
</g>
</g>
<!-- Node11 -->
<g id="Node000011" class="node">
<title>Node11</title>
<g id="a_Node000011"><a xlink:title=" ">
<polygon fill="#e0e0e0" stroke="#999999" points="760,-19 718,-19 718,0 760,0 760,-19"/>
<text text-anchor="middle" x="739" y="-7" font-family="Helvetica,sans-Serif" font-size="10.00">array</text>
</a>
</g>
</g>
<!-- Node9&#45;&gt;Node11 -->
<g id="edge12_Node000009_Node000011" class="edge">
<title>Node9&#45;&gt;Node11</title>
<g id="a_edge12_Node000009_Node000011"><a xlink:title=" ">
<path fill="none" stroke="#63b8ff" d="M710.61,-54.75C715.32,-47.42 722.17,-36.73 727.97,-27.7"/>
<polygon fill="#63b8ff" stroke="#63b8ff" points="731.04,-29.4 733.49,-19.09 725.14,-25.62 731.04,-29.4"/>
</a>
</g>
</g>
<!-- Node12 -->
<g id="Node000012" class="node">
<title>Node12</title>
<g id="a_Node000012"><a xlink:title=" ">
<polygon fill="#e0e0e0" stroke="#999999" points="823.5,-19 778.5,-19 778.5,0 823.5,0 823.5,-19"/>
<text text-anchor="middle" x="801" y="-7" font-family="Helvetica,sans-Serif" font-size="10.00">utility</text>
</a>
</g>
</g>
<!-- Node9&#45;&gt;Node12 -->
<g id="edge13_Node000009_Node000012" class="edge">
<title>Node9&#45;&gt;Node12</title>
<g id="a_edge13_Node000009_Node000012"><a xlink:title=" ">
<path fill="none" stroke="#63b8ff" d="M720.42,-54.98C735.45,-46.69 758.54,-33.94 776.16,-24.22"/>
<polygon fill="#63b8ff" stroke="#63b8ff" points="778.23,-27.07 785.3,-19.17 774.85,-20.94 778.23,-27.07"/>
</a>
</g>
</g>
<!-- Node13 -->
<g id="Node000013" class="node">
<title>Node13</title>
<g id="a_Node000013"><a xlink:title=" ">
<polygon fill="#e0e0e0" stroke="#999999" points="621.5,-19 580.5,-19 580.5,0 621.5,0 621.5,-19"/>
<text text-anchor="middle" x="601" y="-7" font-family="Helvetica,sans-Serif" font-size="10.00">tuple</text>
</a>
</g>
</g>
<!-- Node9&#45;&gt;Node13 -->
<g id="edge14_Node000009_Node000013" class="edge">
<title>Node9&#45;&gt;Node13</title>
<g id="a_edge14_Node000009_Node000013"><a xlink:title=" ">
<path fill="none" stroke="#63b8ff" d="M688.29,-54.98C671.79,-46.57 646.3,-33.59 627.12,-23.81"/>
<polygon fill="#63b8ff" stroke="#63b8ff" points="628.51,-20.59 618.01,-19.17 625.33,-26.83 628.51,-20.59"/>
</a>
</g>
</g>
<!-- Node15 -->
<g id="Node000015" class="node">
<title>Node15</title>
<g id="a_Node000015"><a xlink:href="Vec__fwd_8hpp.html" target="_top" xlink:title="Declaration of Vec.">
<polygon fill="white" stroke="#666666" points="143.5,-184 66.5,-184 66.5,-165 143.5,-165 143.5,-184"/>
<text text-anchor="middle" x="105" y="-172" font-family="Helvetica,sans-Serif" font-size="10.00">Vec_fwd.hpp</text>
</a>
</g>
</g>
<!-- Node14&#45;&gt;Node15 -->
<g id="edge16_Node000014_Node000015" class="edge">
<title>Node14&#45;&gt;Node15</title>
<g id="a_edge16_Node000014_Node000015"><a xlink:title=" ">
<path fill="none" stroke="#63b8ff" d="M166.27,-219.98C155.27,-212 138.58,-199.88 125.4,-190.31"/>
<polygon fill="#63b8ff" stroke="#63b8ff" points="127.09,-187.21 116.94,-184.17 122.98,-192.88 127.09,-187.21"/>
</a>
</g>
</g>
<!-- Node15&#45;&gt;Node3 -->
<g id="edge17_Node000015_Node000003" class="edge">
<title>Node15&#45;&gt;Node3</title>
<g id="a_edge17_Node000015_Node000003"><a xlink:title=" ">
<path fill="none" stroke="#63b8ff" d="M131.83,-164.98C159.87,-156.09 204.05,-142.07 235.3,-132.15"/>
<polygon fill="#63b8ff" stroke="#63b8ff" points="236.49,-135.44 244.96,-129.08 234.37,-128.77 236.49,-135.44"/>
</a>
</g>
</g>
<!-- Node15&#45;&gt;Node5 -->
<g id="edge18_Node000015_Node000005" class="edge">
<title>Node15&#45;&gt;Node5</title>
<g id="a_edge18_Node000015_Node000005"><a xlink:title=" ">
<path fill="none" stroke="#63b8ff" d="M94.24,-164.98C84.23,-157.07 69.11,-145.11 57.07,-135.58"/>
<polygon fill="#63b8ff" stroke="#63b8ff" points="58.97,-132.63 48.96,-129.17 54.63,-138.12 58.97,-132.63"/>
</a>
</g>
</g>
<!-- Node17 -->
<g id="Node000017" class="node">
<title>Node17</title>
<g id="a_Node000017"><a xlink:href="Range__fwd_8hpp.html" target="_top" xlink:title="Declaration of Range.">
<polygon fill="white" stroke="#666666" points="579.5,-184 488.5,-184 488.5,-165 579.5,-165 579.5,-184"/>
<text text-anchor="middle" x="534" y="-172" font-family="Helvetica,sans-Serif" font-size="10.00">Range_fwd.hpp</text>
</a>
</g>
</g>
<!-- Node16&#45;&gt;Node17 -->
<g id="edge20_Node000016_Node000017" class="edge">
<title>Node16&#45;&gt;Node17</title>
<g id="a_edge20_Node000016_Node000017"><a xlink:title=" ">
<path fill="none" stroke="#63b8ff" d="M499.77,-219.75C505.56,-212.26 514.06,-201.28 521.14,-192.13"/>
<polygon fill="#63b8ff" stroke="#63b8ff" points="524.01,-194.14 527.36,-184.09 518.47,-189.86 524.01,-194.14"/>
</a>
</g>
</g>
<!-- Node21 -->
<g id="Node000021" class="node">
<title>Node21</title>
<g id="a_Node000021"><a xlink:title=" ">
<polygon fill="#e0e0e0" stroke="#999999" points="470,-184 406,-184 406,-165 470,-165 470,-184"/>
<text text-anchor="middle" x="438" y="-172" font-family="Helvetica,sans-Serif" font-size="10.00">algorithm</text>
</a>
</g>
</g>
<!-- Node16&#45;&gt;Node21 -->
<g id="edge27_Node000016_Node000021" class="edge">
<title>Node16&#45;&gt;Node21</title>
<g id="a_edge27_Node000016_Node000021"><a xlink:title=" ">
<path fill="none" stroke="#63b8ff" d="M483.92,-219.75C475.91,-212.03 464.04,-200.6 454.38,-191.28"/>
<polygon fill="#63b8ff" stroke="#63b8ff" points="456.54,-188.51 446.91,-184.09 451.69,-193.55 456.54,-188.51"/>
</a>
</g>
</g>
<!-- Node17&#45;&gt;Node3 -->
<g id="edge21_Node000017_Node000003" class="edge">
<title>Node17&#45;&gt;Node3</title>
<g id="a_edge21_Node000017_Node000003"><a xlink:title=" ">
<path fill="none" stroke="#63b8ff" d="M491.91,-164.98C446.3,-155.76 373.48,-141.03 324.25,-131.07"/>
<polygon fill="#63b8ff" stroke="#63b8ff" points="324.92,-127.63 314.42,-129.08 323.53,-134.5 324.92,-127.63"/>
</a>
</g>
</g>
<!-- Node17&#45;&gt;Node4 -->
<g id="edge25_Node000017_Node000004" class="edge">
<title>Node17&#45;&gt;Node4</title>
<g id="a_edge25_Node000017_Node000004"><a xlink:title=" ">
<path fill="none" stroke="#63b8ff" d="M530.09,-164.81C526.25,-155.96 520.48,-141.77 517,-129 507.57,-94.4 501.79,-52.85 499.01,-29.27"/>
<polygon fill="#63b8ff" stroke="#63b8ff" points="502.47,-28.8 497.88,-19.25 495.52,-29.58 502.47,-28.8"/>
</a>
</g>
</g>
<!-- Node17&#45;&gt;Node7 -->
<g id="edge22_Node000017_Node000007" class="edge">
<title>Node17&#45;&gt;Node7</title>
<g id="a_edge22_Node000017_Node000007"><a xlink:title=" ">
<path fill="none" stroke="#63b8ff" d="M558.1,-164.98C582.88,-156.23 621.7,-142.51 649.69,-132.62"/>
<polygon fill="#63b8ff" stroke="#63b8ff" points="651.2,-135.8 659.46,-129.17 648.87,-129.2 651.2,-135.8"/>
</a>
</g>
</g>
<!-- Node18 -->
<g id="Node000018" class="node">
<title>Node18</title>
<g id="a_Node000018"><a xlink:href="traits_8hpp.html" target="_top" xlink:title="Type traits definition for vector and scalar fields.">
<polygon fill="white" stroke="#666666" points="588.5,-129 525.5,-129 525.5,-110 588.5,-110 588.5,-129"/>
<text text-anchor="middle" x="557" y="-117" font-family="Helvetica,sans-Serif" font-size="10.00">traits.hpp</text>
</a>
</g>
</g>
<!-- Node17&#45;&gt;Node18 -->
<g id="edge23_Node000017_Node000018" class="edge">
<title>Node17&#45;&gt;Node18</title>
<g id="a_edge23_Node000017_Node000018"><a xlink:title=" ">
<path fill="none" stroke="#63b8ff" d="M537.8,-164.75C540.91,-157.57 545.42,-147.18 549.29,-138.27"/>
<polygon fill="#63b8ff" stroke="#63b8ff" points="552.5,-139.66 553.27,-129.09 546.08,-136.87 552.5,-139.66"/>
</a>
</g>
</g>
<!-- Node19 -->
<g id="Node000019" class="node">
<title>Node19</title>
<g id="a_Node000019"><a xlink:title=" ">
<polygon fill="#e0e0e0" stroke="#999999" points="403,-129 345,-129 345,-110 403,-110 403,-129"/>
<text text-anchor="middle" x="374" y="-117" font-family="Helvetica,sans-Serif" font-size="10.00">memory</text>
</a>
</g>
</g>
<!-- Node17&#45;&gt;Node19 -->
<g id="edge24_Node000017_Node000019" class="edge">
<title>Node17&#45;&gt;Node19</title>
<g id="a_edge24_Node000017_Node000019"><a xlink:title=" ">
<path fill="none" stroke="#63b8ff" d="M508.29,-164.98C481.55,-156.13 439.47,-142.19 409.55,-132.28"/>
<polygon fill="#63b8ff" stroke="#63b8ff" points="410.5,-128.9 399.91,-129.08 408.3,-135.55 410.5,-128.9"/>
</a>
</g>
</g>
<!-- Node20 -->
<g id="Node000020" class="node">
<title>Node20</title>
<g id="a_Node000020"><a xlink:title=" ">
<polygon fill="#e0e0e0" stroke="#999999" points="469,-129 421,-129 421,-110 469,-110 469,-129"/>
<text text-anchor="middle" x="445" y="-117" font-family="Helvetica,sans-Serif" font-size="10.00">iosfwd</text>
</a>
</g>
</g>
<!-- Node17&#45;&gt;Node20 -->
<g id="edge26_Node000017_Node000020" class="edge">
<title>Node17&#45;&gt;Node20</title>
<g id="a_edge26_Node000017_Node000020"><a xlink:title=" ">
<path fill="none" stroke="#63b8ff" d="M519.7,-164.98C505.9,-156.77 484.76,-144.18 468.49,-134.49"/>
<polygon fill="#63b8ff" stroke="#63b8ff" points="469.94,-131.28 459.56,-129.17 466.36,-137.29 469.94,-131.28"/>
</a>
</g>
</g>
<!-- Node23&#45;&gt;Node3 -->
<g id="edge30_Node000023_Node000003" class="edge">
<title>Node23&#45;&gt;Node3</title>
<g id="a_edge30_Node000023_Node000003"><a xlink:title=" ">
<path fill="none" stroke="#63b8ff" d="M175.82,-329.89C141.16,-311.33 68.38,-265.51 95,-220 99.32,-212.62 198.87,-159.22 246.74,-133.83"/>
<polygon fill="#63b8ff" stroke="#63b8ff" points="248.65,-136.78 255.85,-129.01 245.37,-130.6 248.65,-136.78"/>
</a>
</g>
</g>
<!-- Node23&#45;&gt;Node5 -->
<g id="edge31_Node000023_Node000005" class="edge">
<title>Node23&#45;&gt;Node5</title>
<g id="a_edge31_Node000023_Node000005"><a xlink:title=" ">
<path fill="none" stroke="#63b8ff" d="M161.33,-329.94C141.41,-323.11 116.45,-311.7 100,-294 58.34,-249.15 44.32,-174.4 39.89,-139.52"/>
<polygon fill="#63b8ff" stroke="#63b8ff" points="43.34,-138.86 38.74,-129.32 36.39,-139.65 43.34,-138.86"/>
</a>
</g>
</g>
<!-- Node23&#45;&gt;Node6 -->
<g id="edge32_Node000023_Node000006" class="edge">
<title>Node23&#45;&gt;Node6</title>
<g id="a_edge32_Node000023_Node000006"><a xlink:title=" ">
<path fill="none" stroke="#63b8ff" d="M205.85,-329.98C218.14,-321.84 236.91,-309.41 251.48,-299.76"/>
<polygon fill="#63b8ff" stroke="#63b8ff" points="253.51,-302.61 259.91,-294.17 249.64,-296.78 253.51,-302.61"/>
</a>
</g>
</g>
<!-- Node23&#45;&gt;Node7 -->
<g id="edge34_Node000023_Node000007" class="edge">
<title>Node23&#45;&gt;Node7</title>
<g id="a_edge34_Node000023_Node000007"><a xlink:title=" ">
<path fill="none" stroke="#63b8ff" d="M248,-337.76C332.42,-334.05 495.72,-316.49 606,-239 642.31,-213.49 666.15,-165.19 677.08,-138.81"/>
<polygon fill="#63b8ff" stroke="#63b8ff" points="680.43,-139.86 680.87,-129.28 673.92,-137.28 680.43,-139.86"/>
</a>
</g>
</g>
<!-- Node23&#45;&gt;Node23 -->
<g id="edge33_Node000023_Node000023" class="edge">
<title>Node23&#45;&gt;Node23</title>
<g id="a_edge33_Node000023_Node000023"><a xlink:title=" ">
<path fill="none" stroke="#63b8ff" d="M227.17,-349.03C247.23,-351.06 266,-347.88 266,-339.5 266,-332.56 253.13,-329.18 237.31,-329.38"/>
<polygon fill="#63b8ff" stroke="#63b8ff" points="236.95,-325.9 227.17,-329.97 237.35,-332.89 236.95,-325.9"/>
</a>
</g>
</g>
<!-- Node24&#45;&gt;Node23 -->
<g id="edge37_Node000024_Node000023" class="edge">
<title>Node24&#45;&gt;Node23</title>
<g id="a_edge37_Node000024_Node000023"><a xlink:title=" ">
<path fill="none" stroke="#63b8ff" d="M186.32,-384.75C187.37,-377.8 188.87,-367.85 190.19,-359.13"/>
<polygon fill="#63b8ff" stroke="#63b8ff" points="193.67,-359.5 191.7,-349.09 186.75,-358.45 193.67,-359.5"/>
</a>
</g>
</g>
</g>
</svg>

<g id="navigator" transform="translate(0 0)" fill="#404254">
  <rect fill="#f2f5e9" fill-opacity="0.5" stroke="#606060" stroke-width=".5" x="0" y="0" width="60" height="60"/>
  <use id="zoomplus" xlink:href="#zoomPlus" x="17" y="9" onmousedown="handleZoom(evt,'in')"/>
  <use id="zoomminus" xlink:href="#zoomMin" x="42" y="9" onmousedown="handleZoom(evt,'out')"/>
  <use id="reset" xlink:href="#resetDef" x="30" y="36" onmousedown="handleReset()"/>
   <use id="arrowup" xlink:href="#arrowUp" x="0" y="0" onmousedown="handlePan(0,-1)"/>
  <use id="arrowright" xlink:href="#arrowRight" x="0" y="0" onmousedown="handlePan(1,0)"/>
  <use id="arrowdown" xlink:href="#arrowDown" x="0" y="0" onmousedown="handlePan(0,1)"/>
  <use id="arrowleft" xlink:href="#arrowLeft" x="0" y="0" onmousedown="handlePan(-1,0)"/>
</g>
<svg viewBox="0 0 15 15" width="100%" height="30px" preserveAspectRatio="xMaxYMin meet">
 <g id="arrow_out" transform="scale(0.3 0.3)">
  <a xlink:href="AdamsBashforth_8hpp__incl_org.svg" target="_base">
   <rect id="button" ry="5" rx="5" y="6" x="6" height="38" width="38"
        fill="#f2f5e9" fill-opacity="0.5" stroke="#606060" stroke-width="1.0"/>
   <path id="arrow"
     d="M 11.500037,31.436501 C 11.940474,20.09759 22.043105,11.32322 32.158766,21.979434 L 37.068811,17.246167 C 37.068811,17.246167 37.088388,32 37.088388,32 L 22.160133,31.978069 C 22.160133,31.978069 26.997745,27.140456 26.997745,27.140456 C 18.528582,18.264221 13.291696,25.230495 11.500037,31.436501 z"
     style="fill:#404040;"/>
  </a>
 </g>
</svg>

<style type='text/css'>
<![CDATA[
[data-mouse-over-selected='false'] { opacity: 0.7; }
[data-mouse-over-selected='true']  { opacity: 1.0; }
]]>
</style>
<script type="application/ecmascript"><![CDATA[
document.addEventListener('DOMContentLoaded', (event) => {
  highlightEdges();
  highlightAdjacentNodes();
});
]]></script>
</svg>
