<?xml version="1.0" encoding="UTF-8" standalone="no"?>
<!DOCTYPE svg PUBLIC "-//W3C//DTD SVG 1.1//EN"
 "http://www.w3.org/Graphics/SVG/1.1/DTD/svg11.dtd">
<!-- Generated by graphviz version 2.43.0 (0)
 -->
<!-- Title: include/medusa/bits/integrators/AdamsBashforth_fwd.hpp Pages: 1 -->
<svg width="690pt" height="434pt"
 viewBox="0.00 0.00 689.50 434.00" xmlns="http://www.w3.org/2000/svg" xmlns:xlink="http://www.w3.org/1999/xlink">
<g id="graph0" class="graph" transform="scale(1 1) rotate(0) translate(4 430)">
<title>include/medusa/bits/integrators/AdamsBashforth_fwd.hpp</title>
<!-- Node1 -->
<g id="Node000001" class="node">
<title>Node1</title>
<g id="a_Node000001"><a xlink:title="Adams&#45;Bashforth integrator declarations.">
<polygon fill="#999999" stroke="#666666" points="220,-426 63,-426 63,-385 220,-385 220,-426"/>
<text text-anchor="start" x="71" y="-414" font-family="Helvetica,sans-Serif" font-size="10.00">include/medusa/bits</text>
<text text-anchor="start" x="71" y="-403" font-family="Helvetica,sans-Serif" font-size="10.00">/integrators/AdamsBashforth</text>
<text text-anchor="middle" x="141.5" y="-392" font-family="Helvetica,sans-Serif" font-size="10.00">_fwd.hpp</text>
</a>
</g>
</g>
<!-- Node2 -->
<g id="Node000002" class="node">
<title>Node2</title>
<g id="a_Node000002"><a xlink:href="Config_8hpp.html" target="_top" xlink:title="Contains compile time settings for the project, such as Eigen plugins.">
<polygon fill="white" stroke="#666666" points="655.5,-129 545.5,-129 545.5,-110 655.5,-110 655.5,-129"/>
<text text-anchor="middle" x="600.5" y="-117" font-family="Helvetica,sans-Serif" font-size="10.00">medusa/Config.hpp</text>
</a>
</g>
</g>
<!-- Node1&#45;&gt;Node2 -->
<g id="edge1_Node000001_Node000002" class="edge">
<title>Node1&#45;&gt;Node2</title>
<g id="a_edge1_Node000001_Node000002"><a xlink:title=" ">
<path fill="none" stroke="#63b8ff" d="M220.02,-403.36C369.79,-399.05 681.5,-378.86 681.5,-285.5 681.5,-285.5 681.5,-285.5 681.5,-228.5 681.5,-188.63 645.73,-154.06 621.74,-135.35"/>
<polygon fill="#63b8ff" stroke="#63b8ff" points="623.62,-132.39 613.51,-129.19 619.42,-137.99 623.62,-132.39"/>
</a>
</g>
</g>
<!-- Node4 -->
<g id="Node000004" class="node">
<title>Node4</title>
<g id="a_Node000004"><a xlink:title=" ">
<polygon fill="#e0e0e0" stroke="#999999" points="69,-129 0,-129 0,-110 69,-110 69,-129"/>
<text text-anchor="middle" x="34.5" y="-117" font-family="Helvetica,sans-Serif" font-size="10.00">Eigen/Core</text>
</a>
</g>
</g>
<!-- Node1&#45;&gt;Node4 -->
<g id="edge3_Node000001_Node000004" class="edge">
<title>Node1&#45;&gt;Node4</title>
<g id="a_edge3_Node000001_Node000004"><a xlink:title=" ">
<path fill="none" stroke="#63b8ff" d="M91.26,-384.87C52.16,-365.93 4.5,-333.07 4.5,-285.5 4.5,-285.5 4.5,-285.5 4.5,-228.5 4.5,-195.87 17.37,-159.65 26.25,-138.55"/>
<polygon fill="#63b8ff" stroke="#63b8ff" points="29.52,-139.8 30.33,-129.23 23.11,-136.99 29.52,-139.8"/>
</a>
</g>
</g>
<!-- Node5 -->
<g id="Node000005" class="node">
<title>Node5</title>
<g id="a_Node000005"><a xlink:href="numutils_8hpp.html" target="_top" xlink:title="Declaration of numerical utilities.">
<polygon fill="white" stroke="#666666" points="342,-294 175,-294 175,-275 342,-275 342,-294"/>
<text text-anchor="middle" x="258.5" y="-282" font-family="Helvetica,sans-Serif" font-size="10.00">medusa/bits/utils/numutils.hpp</text>
</a>
</g>
</g>
<!-- Node1&#45;&gt;Node5 -->
<g id="edge4_Node000001_Node000005" class="edge">
<title>Node1&#45;&gt;Node5</title>
<g id="a_edge4_Node000001_Node000005"><a xlink:title=" ">
<path fill="none" stroke="#63b8ff" d="M178.24,-384.82C193.51,-375.4 210.64,-363.09 223.5,-349 235.81,-335.52 245.4,-316.93 251.41,-303.35"/>
<polygon fill="#63b8ff" stroke="#63b8ff" points="254.65,-304.68 255.29,-294.11 248.19,-301.97 254.65,-304.68"/>
</a>
</g>
</g>
<!-- Node6 -->
<g id="Node000006" class="node">
<title>Node6</title>
<g id="a_Node000006"><a xlink:href="assert_8hpp.html" target="_top" xlink:title="Implementation of custom assert and debug utilities.">
<polygon fill="white" stroke="#666666" points="242,-129 87,-129 87,-110 242,-110 242,-129"/>
<text text-anchor="middle" x="164.5" y="-117" font-family="Helvetica,sans-Serif" font-size="10.00">medusa/bits/utils/assert.hpp</text>
</a>
</g>
</g>
<!-- Node1&#45;&gt;Node6 -->
<g id="edge34_Node000001_Node000006" class="edge">
<title>Node1&#45;&gt;Node6</title>
<g id="a_edge34_Node000001_Node000006"><a xlink:title=" ">
<path fill="none" stroke="#63b8ff" d="M108.67,-384.79C96.52,-375.59 84.1,-363.45 77.5,-349 73.99,-341.32 75.85,-338.28 77.5,-330 92.43,-255.12 134.64,-173.51 154.25,-138.3"/>
<polygon fill="#63b8ff" stroke="#63b8ff" points="157.47,-139.71 159.35,-129.28 151.38,-136.27 157.47,-139.71"/>
</a>
</g>
</g>
<!-- Node22 -->
<g id="Node000022" class="node">
<title>Node22</title>
<g id="a_Node000022"><a xlink:href="RKExplicit__fwd_8hpp.html" target="_top" xlink:title="Runge&#45;Kutta integrator declarations.">
<polygon fill="white" stroke="#666666" points="196.5,-349 86.5,-349 86.5,-330 196.5,-330 196.5,-349"/>
<text text-anchor="middle" x="141.5" y="-337" font-family="Helvetica,sans-Serif" font-size="10.00">RKExplicit_fwd.hpp</text>
</a>
</g>
</g>
<!-- Node1&#45;&gt;Node22 -->
<g id="edge28_Node000001_Node000022" class="edge">
<title>Node1&#45;&gt;Node22</title>
<g id="a_edge28_Node000001_Node000022"><a xlink:title=" ">
<path fill="none" stroke="#63b8ff" d="M141.5,-384.95C141.5,-376.85 141.5,-367.5 141.5,-359.47"/>
<polygon fill="#63b8ff" stroke="#63b8ff" points="145,-359.26 141.5,-349.26 138,-359.26 145,-359.26"/>
</a>
</g>
</g>
<!-- Node3 -->
<g id="Node000003" class="node">
<title>Node3</title>
<g id="a_Node000003"><a xlink:title=" ">
<polygon fill="#e0e0e0" stroke="#999999" points="535,-19 488,-19 488,0 535,0 535,-19"/>
<text text-anchor="middle" x="511.5" y="-7" font-family="Helvetica,sans-Serif" font-size="10.00">vector</text>
</a>
</g>
</g>
<!-- Node2&#45;&gt;Node3 -->
<g id="edge2_Node000002_Node000003" class="edge">
<title>Node2&#45;&gt;Node3</title>
<g id="a_edge2_Node000002_Node000003"><a xlink:title=" ">
<path fill="none" stroke="#63b8ff" d="M593.22,-109.66C578.34,-91.61 544.28,-50.28 525.16,-27.08"/>
<polygon fill="#63b8ff" stroke="#63b8ff" points="527.7,-24.65 518.64,-19.16 522.29,-29.1 527.7,-24.65"/>
</a>
</g>
</g>
<!-- Node5&#45;&gt;Node2 -->
<g id="edge5_Node000005_Node000002" class="edge">
<title>Node5&#45;&gt;Node2</title>
<g id="a_edge5_Node000005_Node000002"><a xlink:title=" ">
<path fill="none" stroke="#63b8ff" d="M342.34,-283.41C428.15,-281.42 553.47,-272.61 586.5,-239 612.43,-212.62 609,-165.38 604.55,-139.22"/>
<polygon fill="#63b8ff" stroke="#63b8ff" points="607.93,-138.28 602.6,-129.13 601.06,-139.61 607.93,-138.28"/>
</a>
</g>
</g>
<!-- Node5&#45;&gt;Node6 -->
<g id="edge6_Node000005_Node000006" class="edge">
<title>Node5&#45;&gt;Node6</title>
<g id="a_edge6_Node000005_Node000006"><a xlink:title=" ">
<path fill="none" stroke="#63b8ff" d="M227.34,-274.95C209.12,-268.26 187.43,-256.99 175.5,-239 155.4,-208.69 157.74,-164.03 161.17,-139.09"/>
<polygon fill="#63b8ff" stroke="#63b8ff" points="164.63,-139.56 162.74,-129.14 157.72,-138.47 164.63,-139.56"/>
</a>
</g>
</g>
<!-- Node13 -->
<g id="Node000013" class="node">
<title>Node13</title>
<g id="a_Node000013"><a xlink:href="Vec_8hpp.html" target="_top" xlink:title="Implemetations for Vec.">
<polygon fill="white" stroke="#666666" points="332.5,-239 184.5,-239 184.5,-220 332.5,-220 332.5,-239"/>
<text text-anchor="middle" x="258.5" y="-227" font-family="Helvetica,sans-Serif" font-size="10.00">medusa/bits/types/Vec.hpp</text>
</a>
</g>
</g>
<!-- Node5&#45;&gt;Node13 -->
<g id="edge14_Node000005_Node000013" class="edge">
<title>Node5&#45;&gt;Node13</title>
<g id="a_edge14_Node000005_Node000013"><a xlink:title=" ">
<path fill="none" stroke="#63b8ff" d="M258.5,-274.75C258.5,-267.8 258.5,-257.85 258.5,-249.13"/>
<polygon fill="#63b8ff" stroke="#63b8ff" points="262,-249.09 258.5,-239.09 255,-249.09 262,-249.09"/>
</a>
</g>
</g>
<!-- Node15 -->
<g id="Node000015" class="node">
<title>Node15</title>
<g id="a_Node000015"><a xlink:href="Range_8hpp.html" target="_top" xlink:title="Implementation of Range.">
<polygon fill="white" stroke="#666666" points="512,-239 351,-239 351,-220 512,-220 512,-239"/>
<text text-anchor="middle" x="431.5" y="-227" font-family="Helvetica,sans-Serif" font-size="10.00">medusa/bits/types/Range.hpp</text>
</a>
</g>
</g>
<!-- Node5&#45;&gt;Node15 -->
<g id="edge18_Node000005_Node000015" class="edge">
<title>Node5&#45;&gt;Node15</title>
<g id="a_edge18_Node000005_Node000015"><a xlink:title=" ">
<path fill="none" stroke="#63b8ff" d="M286.3,-274.98C315.47,-266.05 361.5,-251.94 393.9,-242.02"/>
<polygon fill="#63b8ff" stroke="#63b8ff" points="394.95,-245.36 403.49,-239.08 392.9,-238.66 394.95,-245.36"/>
</a>
</g>
</g>
<!-- Node21 -->
<g id="Node000021" class="node">
<title>Node21</title>
<g id="a_Node000021"><a xlink:title=" ">
<polygon fill="#e0e0e0" stroke="#999999" points="577,-239 530,-239 530,-220 577,-220 577,-239"/>
<text text-anchor="middle" x="553.5" y="-227" font-family="Helvetica,sans-Serif" font-size="10.00">cmath</text>
</a>
</g>
</g>
<!-- Node5&#45;&gt;Node21 -->
<g id="edge27_Node000005_Node000021" class="edge">
<title>Node5&#45;&gt;Node21</title>
<g id="a_edge27_Node000005_Node000021"><a xlink:title=" ">
<path fill="none" stroke="#63b8ff" d="M318.34,-274.98C369.54,-267.33 445.4,-255.13 519.78,-239.22"/>
<polygon fill="#63b8ff" stroke="#63b8ff" points="520.76,-242.59 529.79,-237.06 519.28,-235.75 520.76,-242.59"/>
</a>
</g>
</g>
<!-- Node7 -->
<g id="Node000007" class="node">
<title>Node7</title>
<g id="a_Node000007"><a xlink:title=" ">
<polygon fill="#e0e0e0" stroke="#999999" points="230.5,-74 98.5,-74 98.5,-55 230.5,-55 230.5,-74"/>
<text text-anchor="middle" x="164.5" y="-62" font-family="Helvetica,sans-Serif" font-size="10.00">tinyformat/tinyformat.h</text>
</a>
</g>
</g>
<!-- Node6&#45;&gt;Node7 -->
<g id="edge7_Node000006_Node000007" class="edge">
<title>Node6&#45;&gt;Node7</title>
<g id="a_edge7_Node000006_Node000007"><a xlink:title=" ">
<path fill="none" stroke="#63b8ff" d="M164.5,-109.75C164.5,-102.8 164.5,-92.85 164.5,-84.13"/>
<polygon fill="#63b8ff" stroke="#63b8ff" points="168,-84.09 164.5,-74.09 161,-84.09 168,-84.09"/>
</a>
</g>
</g>
<!-- Node8 -->
<g id="Node000008" class="node">
<title>Node8</title>
<g id="a_Node000008"><a xlink:href="print_8hpp.html" target="_top" xlink:title="Printing helpers for std types.">
<polygon fill="white" stroke="#666666" points="336.5,-74 276.5,-74 276.5,-55 336.5,-55 336.5,-74"/>
<text text-anchor="middle" x="306.5" y="-62" font-family="Helvetica,sans-Serif" font-size="10.00">print.hpp</text>
</a>
</g>
</g>
<!-- Node6&#45;&gt;Node8 -->
<g id="edge8_Node000006_Node000008" class="edge">
<title>Node6&#45;&gt;Node8</title>
<g id="a_edge8_Node000006_Node000008"><a xlink:title=" ">
<path fill="none" stroke="#63b8ff" d="M187.31,-109.98C210.67,-101.27 247.2,-87.63 273.67,-77.75"/>
<polygon fill="#63b8ff" stroke="#63b8ff" points="275.13,-80.95 283.27,-74.17 272.68,-74.39 275.13,-80.95"/>
</a>
</g>
</g>
<!-- Node8&#45;&gt;Node3 -->
<g id="edge10_Node000008_Node000003" class="edge">
<title>Node8&#45;&gt;Node3</title>
<g id="a_edge10_Node000008_Node000003"><a xlink:title=" ">
<path fill="none" stroke="#63b8ff" d="M336.75,-55.68C374.47,-45.93 438.77,-29.3 477.97,-19.17"/>
<polygon fill="#63b8ff" stroke="#63b8ff" points="479.03,-22.51 487.84,-16.62 477.28,-15.73 479.03,-22.51"/>
</a>
</g>
</g>
<!-- Node9 -->
<g id="Node000009" class="node">
<title>Node9</title>
<g id="a_Node000009"><a xlink:title=" ">
<polygon fill="#e0e0e0" stroke="#999999" points="232.5,-19 172.5,-19 172.5,0 232.5,0 232.5,-19"/>
<text text-anchor="middle" x="202.5" y="-7" font-family="Helvetica,sans-Serif" font-size="10.00">iostream</text>
</a>
</g>
</g>
<!-- Node8&#45;&gt;Node9 -->
<g id="edge9_Node000008_Node000009" class="edge">
<title>Node8&#45;&gt;Node9</title>
<g id="a_edge9_Node000008_Node000009"><a xlink:title=" ">
<path fill="none" stroke="#63b8ff" d="M289.79,-54.98C273.29,-46.57 247.8,-33.59 228.62,-23.81"/>
<polygon fill="#63b8ff" stroke="#63b8ff" points="230.01,-20.59 219.51,-19.17 226.83,-26.83 230.01,-20.59"/>
</a>
</g>
</g>
<!-- Node10 -->
<g id="Node000010" class="node">
<title>Node10</title>
<g id="a_Node000010"><a xlink:title=" ">
<polygon fill="#e0e0e0" stroke="#999999" points="292.5,-19 250.5,-19 250.5,0 292.5,0 292.5,-19"/>
<text text-anchor="middle" x="271.5" y="-7" font-family="Helvetica,sans-Serif" font-size="10.00">array</text>
</a>
</g>
</g>
<!-- Node8&#45;&gt;Node10 -->
<g id="edge11_Node000008_Node000010" class="edge">
<title>Node8&#45;&gt;Node10</title>
<g id="a_edge11_Node000008_Node000010"><a xlink:title=" ">
<path fill="none" stroke="#63b8ff" d="M300.72,-54.75C295.88,-47.42 288.82,-36.73 282.86,-27.7"/>
<polygon fill="#63b8ff" stroke="#63b8ff" points="285.6,-25.5 277.17,-19.09 279.76,-29.36 285.6,-25.5"/>
</a>
</g>
</g>
<!-- Node11 -->
<g id="Node000011" class="node">
<title>Node11</title>
<g id="a_Node000011"><a xlink:title=" ">
<polygon fill="#e0e0e0" stroke="#999999" points="356,-19 311,-19 311,0 356,0 356,-19"/>
<text text-anchor="middle" x="333.5" y="-7" font-family="Helvetica,sans-Serif" font-size="10.00">utility</text>
</a>
</g>
</g>
<!-- Node8&#45;&gt;Node11 -->
<g id="edge12_Node000008_Node000011" class="edge">
<title>Node8&#45;&gt;Node11</title>
<g id="a_edge12_Node000008_Node000011"><a xlink:title=" ">
<path fill="none" stroke="#63b8ff" d="M310.96,-54.75C314.62,-47.57 319.91,-37.18 324.45,-28.27"/>
<polygon fill="#63b8ff" stroke="#63b8ff" points="327.7,-29.59 329.12,-19.09 321.47,-26.41 327.7,-29.59"/>
</a>
</g>
</g>
<!-- Node12 -->
<g id="Node000012" class="node">
<title>Node12</title>
<g id="a_Node000012"><a xlink:title=" ">
<polygon fill="#e0e0e0" stroke="#999999" points="415,-19 374,-19 374,0 415,0 415,-19"/>
<text text-anchor="middle" x="394.5" y="-7" font-family="Helvetica,sans-Serif" font-size="10.00">tuple</text>
</a>
</g>
</g>
<!-- Node8&#45;&gt;Node12 -->
<g id="edge13_Node000008_Node000012" class="edge">
<title>Node8&#45;&gt;Node12</title>
<g id="a_edge13_Node000008_Node000012"><a xlink:title=" ">
<path fill="none" stroke="#63b8ff" d="M320.64,-54.98C334.29,-46.77 355.19,-34.18 371.28,-24.49"/>
<polygon fill="#63b8ff" stroke="#63b8ff" points="373.34,-27.33 380.1,-19.17 369.73,-21.33 373.34,-27.33"/>
</a>
</g>
</g>
<!-- Node14 -->
<g id="Node000014" class="node">
<title>Node14</title>
<g id="a_Node000014"><a xlink:href="Vec__fwd_8hpp.html" target="_top" xlink:title="Declaration of Vec.">
<polygon fill="white" stroke="#666666" points="297,-184 220,-184 220,-165 297,-165 297,-184"/>
<text text-anchor="middle" x="258.5" y="-172" font-family="Helvetica,sans-Serif" font-size="10.00">Vec_fwd.hpp</text>
</a>
</g>
</g>
<!-- Node13&#45;&gt;Node14 -->
<g id="edge15_Node000013_Node000014" class="edge">
<title>Node13&#45;&gt;Node14</title>
<g id="a_edge15_Node000013_Node000014"><a xlink:title=" ">
<path fill="none" stroke="#63b8ff" d="M258.5,-219.75C258.5,-212.8 258.5,-202.85 258.5,-194.13"/>
<polygon fill="#63b8ff" stroke="#63b8ff" points="262,-194.09 258.5,-184.09 255,-194.09 262,-194.09"/>
</a>
</g>
</g>
<!-- Node14&#45;&gt;Node2 -->
<g id="edge16_Node000014_Node000002" class="edge">
<title>Node14&#45;&gt;Node2</title>
<g id="a_edge16_Node000014_Node000002"><a xlink:title=" ">
<path fill="none" stroke="#63b8ff" d="M297.07,-167.52C354.93,-158.56 464.91,-141.51 535.36,-130.59"/>
<polygon fill="#63b8ff" stroke="#63b8ff" points="536.11,-134.02 545.46,-129.03 535.04,-127.1 536.11,-134.02"/>
</a>
</g>
</g>
<!-- Node14&#45;&gt;Node4 -->
<g id="edge17_Node000014_Node000004" class="edge">
<title>Node14&#45;&gt;Node4</title>
<g id="a_edge17_Node000014_Node000004"><a xlink:title=" ">
<path fill="none" stroke="#63b8ff" d="M222.51,-164.98C183.55,-155.77 121.36,-141.05 79.27,-131.09"/>
<polygon fill="#63b8ff" stroke="#63b8ff" points="79.83,-127.63 69.29,-128.73 78.22,-134.44 79.83,-127.63"/>
</a>
</g>
</g>
<!-- Node16 -->
<g id="Node000016" class="node">
<title>Node16</title>
<g id="a_Node000016"><a xlink:href="Range__fwd_8hpp.html" target="_top" xlink:title="Declaration of Range.">
<polygon fill="white" stroke="#666666" points="452,-184 361,-184 361,-165 452,-165 452,-184"/>
<text text-anchor="middle" x="406.5" y="-172" font-family="Helvetica,sans-Serif" font-size="10.00">Range_fwd.hpp</text>
</a>
</g>
</g>
<!-- Node15&#45;&gt;Node16 -->
<g id="edge19_Node000015_Node000016" class="edge">
<title>Node15&#45;&gt;Node16</title>
<g id="a_edge19_Node000015_Node000016"><a xlink:title=" ">
<path fill="none" stroke="#63b8ff" d="M427.37,-219.75C423.99,-212.57 419.08,-202.18 414.88,-193.27"/>
<polygon fill="#63b8ff" stroke="#63b8ff" points="417.98,-191.64 410.55,-184.09 411.65,-194.63 417.98,-191.64"/>
</a>
</g>
</g>
<!-- Node20 -->
<g id="Node000020" class="node">
<title>Node20</title>
<g id="a_Node000020"><a xlink:title=" ">
<polygon fill="#e0e0e0" stroke="#999999" points="534.5,-184 470.5,-184 470.5,-165 534.5,-165 534.5,-184"/>
<text text-anchor="middle" x="502.5" y="-172" font-family="Helvetica,sans-Serif" font-size="10.00">algorithm</text>
</a>
</g>
</g>
<!-- Node15&#45;&gt;Node20 -->
<g id="edge26_Node000015_Node000020" class="edge">
<title>Node15&#45;&gt;Node20</title>
<g id="a_edge26_Node000015_Node000020"><a xlink:title=" ">
<path fill="none" stroke="#63b8ff" d="M442.91,-219.98C453.61,-212 469.84,-199.88 482.66,-190.31"/>
<polygon fill="#63b8ff" stroke="#63b8ff" points="484.97,-192.96 490.89,-184.17 480.78,-187.35 484.97,-192.96"/>
</a>
</g>
</g>
<!-- Node16&#45;&gt;Node2 -->
<g id="edge20_Node000016_Node000002" class="edge">
<title>Node16&#45;&gt;Node2</title>
<g id="a_edge20_Node000016_Node000002"><a xlink:title=" ">
<path fill="none" stroke="#63b8ff" d="M437.67,-164.98C470.66,-155.97 522.9,-141.7 559.27,-131.76"/>
<polygon fill="#63b8ff" stroke="#63b8ff" points="560.36,-135.09 569.09,-129.08 558.52,-128.34 560.36,-135.09"/>
</a>
</g>
</g>
<!-- Node16&#45;&gt;Node3 -->
<g id="edge24_Node000016_Node000003" class="edge">
<title>Node16&#45;&gt;Node3</title>
<g id="a_edge24_Node000016_Node000003"><a xlink:title=" ">
<path fill="none" stroke="#63b8ff" d="M438.33,-164.95C457.04,-158.25 479.5,-146.98 492.5,-129 513.99,-99.28 514.91,-54.4 513.39,-29.26"/>
<polygon fill="#63b8ff" stroke="#63b8ff" points="516.87,-28.91 512.58,-19.23 509.89,-29.48 516.87,-28.91"/>
</a>
</g>
</g>
<!-- Node16&#45;&gt;Node6 -->
<g id="edge21_Node000016_Node000006" class="edge">
<title>Node16&#45;&gt;Node6</title>
<g id="a_edge21_Node000016_Node000006"><a xlink:title=" ">
<path fill="none" stroke="#63b8ff" d="M367.62,-164.98C325.76,-155.82 259.07,-141.21 213.62,-131.26"/>
<polygon fill="#63b8ff" stroke="#63b8ff" points="214.2,-127.8 203.69,-129.08 212.71,-134.64 214.2,-127.8"/>
</a>
</g>
</g>
<!-- Node17 -->
<g id="Node000017" class="node">
<title>Node17</title>
<g id="a_Node000017"><a xlink:href="traits_8hpp.html" target="_top" xlink:title="Type traits definition for vector and scalar fields.">
<polygon fill="white" stroke="#666666" points="341,-129 278,-129 278,-110 341,-110 341,-129"/>
<text text-anchor="middle" x="309.5" y="-117" font-family="Helvetica,sans-Serif" font-size="10.00">traits.hpp</text>
</a>
</g>
</g>
<!-- Node16&#45;&gt;Node17 -->
<g id="edge22_Node000016_Node000017" class="edge">
<title>Node16&#45;&gt;Node17</title>
<g id="a_edge22_Node000016_Node000017"><a xlink:title=" ">
<path fill="none" stroke="#63b8ff" d="M390.92,-164.98C375.73,-156.69 352.4,-143.94 334.6,-134.22"/>
<polygon fill="#63b8ff" stroke="#63b8ff" points="335.82,-130.89 325.37,-129.17 332.47,-137.04 335.82,-130.89"/>
</a>
</g>
</g>
<!-- Node18 -->
<g id="Node000018" class="node">
<title>Node18</title>
<g id="a_Node000018"><a xlink:title=" ">
<polygon fill="#e0e0e0" stroke="#999999" points="417.5,-129 359.5,-129 359.5,-110 417.5,-110 417.5,-129"/>
<text text-anchor="middle" x="388.5" y="-117" font-family="Helvetica,sans-Serif" font-size="10.00">memory</text>
</a>
</g>
</g>
<!-- Node16&#45;&gt;Node18 -->
<g id="edge23_Node000016_Node000018" class="edge">
<title>Node16&#45;&gt;Node18</title>
<g id="a_edge23_Node000016_Node000018"><a xlink:title=" ">
<path fill="none" stroke="#63b8ff" d="M403.53,-164.75C401.14,-157.72 397.71,-147.62 394.73,-138.84"/>
<polygon fill="#63b8ff" stroke="#63b8ff" points="397.95,-137.43 391.42,-129.09 391.32,-139.68 397.95,-137.43"/>
</a>
</g>
</g>
<!-- Node19 -->
<g id="Node000019" class="node">
<title>Node19</title>
<g id="a_Node000019"><a xlink:title=" ">
<polygon fill="#e0e0e0" stroke="#999999" points="483.5,-129 435.5,-129 435.5,-110 483.5,-110 483.5,-129"/>
<text text-anchor="middle" x="459.5" y="-117" font-family="Helvetica,sans-Serif" font-size="10.00">iosfwd</text>
</a>
</g>
</g>
<!-- Node16&#45;&gt;Node19 -->
<g id="edge25_Node000016_Node000019" class="edge">
<title>Node16&#45;&gt;Node19</title>
<g id="a_edge25_Node000016_Node000019"><a xlink:title=" ">
<path fill="none" stroke="#63b8ff" d="M415.25,-164.75C422.97,-157.03 434.4,-145.6 443.72,-136.28"/>
<polygon fill="#63b8ff" stroke="#63b8ff" points="446.31,-138.64 450.91,-129.09 441.36,-133.69 446.31,-138.64"/>
</a>
</g>
</g>
<!-- Node22&#45;&gt;Node2 -->
<g id="edge29_Node000022_Node000002" class="edge">
<title>Node22&#45;&gt;Node2</title>
<g id="a_edge29_Node000022_Node000002"><a xlink:title=" ">
<path fill="none" stroke="#63b8ff" d="M196.9,-333.8C307.01,-323.34 547.85,-294.58 606.5,-239 630.86,-215.92 628.84,-197.75 621.5,-165 619.42,-155.74 615.2,-146.14 611.07,-138.23"/>
<polygon fill="#63b8ff" stroke="#63b8ff" points="614.01,-136.31 606.08,-129.28 607.9,-139.72 614.01,-136.31"/>
</a>
</g>
</g>
<!-- Node22&#45;&gt;Node4 -->
<g id="edge30_Node000022_Node000004" class="edge">
<title>Node22&#45;&gt;Node4</title>
<g id="a_edge30_Node000022_Node000004"><a xlink:title=" ">
<path fill="none" stroke="#63b8ff" d="M137.31,-329.95C121.46,-297.67 65.05,-182.75 43.22,-138.26"/>
<polygon fill="#63b8ff" stroke="#63b8ff" points="46.33,-136.66 38.78,-129.22 40.05,-139.74 46.33,-136.66"/>
</a>
</g>
</g>
<!-- Node22&#45;&gt;Node5 -->
<g id="edge31_Node000022_Node000005" class="edge">
<title>Node22&#45;&gt;Node5</title>
<g id="a_edge31_Node000022_Node000005"><a xlink:title=" ">
<path fill="none" stroke="#63b8ff" d="M160.3,-329.98C179.12,-321.46 208.32,-308.23 230,-298.41"/>
<polygon fill="#63b8ff" stroke="#63b8ff" points="231.7,-301.48 239.36,-294.17 228.81,-295.11 231.7,-301.48"/>
</a>
</g>
</g>
<!-- Node22&#45;&gt;Node6 -->
<g id="edge33_Node000022_Node000006" class="edge">
<title>Node22&#45;&gt;Node6</title>
<g id="a_edge33_Node000022_Node000006"><a xlink:title=" ">
<path fill="none" stroke="#63b8ff" d="M141.84,-329.79C142.9,-304.33 146.64,-227.84 155.5,-165 156.7,-156.51 158.5,-147.21 160.18,-139.31"/>
<polygon fill="#63b8ff" stroke="#63b8ff" points="163.65,-139.83 162.39,-129.31 156.81,-138.32 163.65,-139.83"/>
</a>
</g>
</g>
<!-- Node22&#45;&gt;Node22 -->
<g id="edge32_Node000022_Node000022" class="edge">
<title>Node22&#45;&gt;Node22</title>
<g id="a_edge32_Node000022_Node000022"><a xlink:title=" ">
<path fill="none" stroke="#63b8ff" d="M175.67,-349.03C195.73,-351.06 214.5,-347.88 214.5,-339.5 214.5,-332.56 201.63,-329.18 185.81,-329.38"/>
<polygon fill="#63b8ff" stroke="#63b8ff" points="185.45,-325.9 175.67,-329.97 185.85,-332.89 185.45,-325.9"/>
</a>
</g>
</g>
</g>
</svg>
