<?xml version="1.0" encoding="UTF-8" standalone="no"?>
<!DOCTYPE svg PUBLIC "-//W3C//DTD SVG 1.1//EN"
 "http://www.w3.org/Graphics/SVG/1.1/DTD/svg11.dtd">
<!-- Generated by graphviz version 2.43.0 (0)
 -->
<!-- Title: include/medusa/bits/domains/BallShape_fwd.hpp Pages: 1 -->
<svg width="484pt" height="225pt"
 viewBox="0.00 0.00 483.50 225.00" xmlns="http://www.w3.org/2000/svg" xmlns:xlink="http://www.w3.org/1999/xlink">
<g id="graph0" class="graph" transform="scale(1 1) rotate(0) translate(4 221)">
<title>include/medusa/bits/domains/BallShape_fwd.hpp</title>
<!-- Node1 -->
<g id="Node000001" class="node">
<title>Node1</title>
<g id="a_Node000001"><a xlink:title="Declaration of class for ball shaped domains.">
<polygon fill="#999999" stroke="#666666" points="309,-217 152,-217 152,-187 309,-187 309,-217"/>
<text text-anchor="start" x="160" y="-205" font-family="Helvetica,sans-Serif" font-size="10.00">include/medusa/bits</text>
<text text-anchor="middle" x="230.5" y="-194" font-family="Helvetica,sans-Serif" font-size="10.00">/domains/BallShape_fwd.hpp</text>
</a>
</g>
</g>
<!-- Node2 -->
<g id="Node000002" class="node">
<title>Node2</title>
<g id="a_Node000002"><a xlink:href="Domain__fwd_8hpp.html" target="_top" xlink:title="Header for Domain module, declarations only.">
<polygon fill="white" stroke="#666666" points="222,-151 87,-151 87,-121 222,-121 222,-151"/>
<text text-anchor="start" x="95" y="-139" font-family="Helvetica,sans-Serif" font-size="10.00">include/medusa/Domain</text>
<text text-anchor="middle" x="154.5" y="-128" font-family="Helvetica,sans-Serif" font-size="10.00">_fwd.hpp</text>
</a>
</g>
</g>
<!-- Node1&#45;&gt;Node2 -->
<g id="edge1_Node000001_Node000002" class="edge">
<title>Node1&#45;&gt;Node2</title>
<g id="a_edge1_Node000001_Node000002"><a xlink:title=" ">
<path fill="none" stroke="#63b8ff" d="M205.8,-180.2C194.52,-170.7 181.45,-159.69 171.32,-151.16"/>
<polygon fill="#63b8ff" stroke="#63b8ff" points="203.73,-183.03 213.63,-186.8 208.24,-177.68 203.73,-183.03"/>
</a>
</g>
</g>
<!-- Node6 -->
<g id="Node000006" class="node">
<title>Node6</title>
<g id="a_Node000006"><a xlink:href="BallShape_8hpp.html" target="_top" xlink:title="Implementation of class for ball shaped domains.">
<polygon fill="white" stroke="#666666" points="374.5,-151 240.5,-151 240.5,-121 374.5,-121 374.5,-151"/>
<text text-anchor="start" x="248.5" y="-139" font-family="Helvetica,sans-Serif" font-size="10.00">include/medusa/bits</text>
<text text-anchor="middle" x="307.5" y="-128" font-family="Helvetica,sans-Serif" font-size="10.00">/domains/BallShape.hpp</text>
</a>
</g>
</g>
<!-- Node1&#45;&gt;Node6 -->
<g id="edge6_Node000001_Node000006" class="edge">
<title>Node1&#45;&gt;Node6</title>
<g id="a_edge6_Node000001_Node000006"><a xlink:title=" ">
<path fill="none" stroke="#63b8ff" d="M255.52,-180.2C266.95,-170.7 280.2,-159.69 290.46,-151.16"/>
<polygon fill="#63b8ff" stroke="#63b8ff" points="253.04,-177.71 247.59,-186.8 257.52,-183.1 253.04,-177.71"/>
</a>
</g>
</g>
<!-- Node3 -->
<g id="Node000003" class="node">
<title>Node3</title>
<g id="a_Node000003"><a xlink:href="Domain_8hpp.html" target="_top" xlink:title="Header for Domain module.">
<polygon fill="white" stroke="#666666" points="309.5,-79.5 153.5,-79.5 153.5,-60.5 309.5,-60.5 309.5,-79.5"/>
<text text-anchor="middle" x="231.5" y="-67.5" font-family="Helvetica,sans-Serif" font-size="10.00">include/medusa/Domain.hpp</text>
</a>
</g>
</g>
<!-- Node2&#45;&gt;Node3 -->
<g id="edge2_Node000002_Node000003" class="edge">
<title>Node2&#45;&gt;Node3</title>
<g id="a_edge2_Node000002_Node000003"><a xlink:title=" ">
<path fill="none" stroke="#63b8ff" d="M179.45,-114.26C193.46,-102.61 210.22,-88.69 220.86,-79.84"/>
<polygon fill="#63b8ff" stroke="#63b8ff" points="177.04,-111.71 171.59,-120.8 181.52,-117.1 177.04,-111.71"/>
</a>
</g>
</g>
<!-- Node5 -->
<g id="Node000005" class="node">
<title>Node5</title>
<g id="a_Node000005"><a xlink:href="Medusa__fwd_8hpp.html" target="_top" xlink:title="Main header file that includes only declarations for some heavy classes such as mm::WLS to reduce com...">
<polygon fill="white" stroke="#666666" points="135,-85 0,-85 0,-55 135,-55 135,-85"/>
<text text-anchor="start" x="8" y="-73" font-family="Helvetica,sans-Serif" font-size="10.00">include/medusa/Medusa</text>
<text text-anchor="middle" x="67.5" y="-62" font-family="Helvetica,sans-Serif" font-size="10.00">_fwd.hpp</text>
</a>
</g>
</g>
<!-- Node2&#45;&gt;Node5 -->
<g id="edge4_Node000002_Node000005" class="edge">
<title>Node2&#45;&gt;Node5</title>
<g id="a_edge4_Node000002_Node000005"><a xlink:title=" ">
<path fill="none" stroke="#63b8ff" d="M126.98,-114.75C113.89,-105.13 98.57,-93.86 86.75,-85.16"/>
<polygon fill="#63b8ff" stroke="#63b8ff" points="125.06,-117.69 135.19,-120.8 129.21,-112.05 125.06,-117.69"/>
</a>
</g>
</g>
<!-- Node4 -->
<g id="Node000004" class="node">
<title>Node4</title>
<g id="a_Node000004"><a xlink:href="Medusa_8hpp.html" target="_top" xlink:title="Main header file that includes most other components.">
<polygon fill="white" stroke="#666666" points="227.5,-19 71.5,-19 71.5,0 227.5,0 227.5,-19"/>
<text text-anchor="middle" x="149.5" y="-7" font-family="Helvetica,sans-Serif" font-size="10.00">include/medusa/Medusa.hpp</text>
</a>
</g>
</g>
<!-- Node3&#45;&gt;Node4 -->
<g id="edge3_Node000003_Node000004" class="edge">
<title>Node3&#45;&gt;Node4</title>
<g id="a_edge3_Node000003_Node000004"><a xlink:title=" ">
<path fill="none" stroke="#63b8ff" d="M210.96,-54.35C195.43,-43.27 174.63,-28.43 161.65,-19.17"/>
<polygon fill="#63b8ff" stroke="#63b8ff" points="209.23,-57.41 219.4,-60.37 213.29,-51.71 209.23,-57.41"/>
</a>
</g>
</g>
<!-- Node5&#45;&gt;Node4 -->
<g id="edge5_Node000005_Node000004" class="edge">
<title>Node5&#45;&gt;Node4</title>
<g id="a_edge5_Node000005_Node000004"><a xlink:title=" ">
<path fill="none" stroke="#63b8ff" d="M95.79,-48.82C109.93,-38.73 126.3,-27.05 137.21,-19.27"/>
<polygon fill="#63b8ff" stroke="#63b8ff" points="93.46,-46.18 87.35,-54.84 97.52,-51.88 93.46,-46.18"/>
</a>
</g>
</g>
<!-- Node6&#45;&gt;Node3 -->
<g id="edge7_Node000006_Node000003" class="edge">
<title>Node6&#45;&gt;Node3</title>
<g id="a_edge7_Node000006_Node000003"><a xlink:title=" ">
<path fill="none" stroke="#63b8ff" d="M282.87,-114.26C269.04,-102.61 252.51,-88.69 242,-79.84"/>
<polygon fill="#63b8ff" stroke="#63b8ff" points="280.73,-117.03 290.63,-120.8 285.24,-111.68 280.73,-117.03"/>
</a>
</g>
</g>
<!-- Node7 -->
<g id="Node000007" class="node">
<title>Node7</title>
<g id="a_Node000007"><a xlink:href="BallShape_8cpp.html" target="_top" xlink:title="Instantiation of class for ball shaped domains.">
<polygon fill="white" stroke="#666666" points="475.5,-79.5 327.5,-79.5 327.5,-60.5 475.5,-60.5 475.5,-79.5"/>
<text text-anchor="middle" x="401.5" y="-67.5" font-family="Helvetica,sans-Serif" font-size="10.00">src/domains/BallShape.cpp</text>
</a>
</g>
</g>
<!-- Node6&#45;&gt;Node7 -->
<g id="edge8_Node000006_Node000007" class="edge">
<title>Node6&#45;&gt;Node7</title>
<g id="a_edge8_Node000006_Node000007"><a xlink:title=" ">
<path fill="none" stroke="#63b8ff" d="M337.06,-114.87C354.46,-103.03 375.58,-88.65 388.78,-79.66"/>
<polygon fill="#63b8ff" stroke="#63b8ff" points="334.66,-112.28 328.36,-120.8 338.6,-118.06 334.66,-112.28"/>
</a>
</g>
</g>
</g>
</svg>
