<?xml version="1.0" encoding="UTF-8" standalone="no"?>
<!DOCTYPE svg PUBLIC "-//W3C//DTD SVG 1.1//EN"
 "http://www.w3.org/Graphics/SVG/1.1/DTD/svg11.dtd">
<!-- Generated by graphviz version 2.43.0 (0)
 -->
<!-- Title: src/domains/BasicRelax.cpp Pages: 1 -->
<!--zoomable 445 -->

<svg id="main" version="1.1" xmlns="http://www.w3.org/2000/svg" xmlns:xlink="http://www.w3.org/1999/xlink" xml:space="preserve" onload="init(evt)">
<style type="text/css"><![CDATA[
.node, .edge {opacity: 0.7;}
.node.selected, .edge.selected {opacity: 1;}
.edge:hover path { stroke: red; }
.edge:hover polygon { stroke: red; fill: red; }
]]></style>

<defs>
  <circle id="rim" cx="0" cy="0" r="7"/>
  <circle id="rim2" cx="0" cy="0" r="3.5"/>
  <g id="zoomPlus">
    <use xlink:href="#rim" fill="#404040"><set attributeName="fill" to="#808080" begin="zoomplus.mouseover" end="zoomplus.mouseout"/></use>
    <path d="M-4,0h8M0,-4v8" fill="none" stroke="white" stroke-width="1.5" pointer-events="none"/>
  </g>
  <g id="zoomMin">
    <use xlink:href="#rim" fill="#404040"><set attributeName="fill" to="#808080" begin="zoomminus.mouseover" end="zoomminus.mouseout"/></use>
    <path d="M-4,0h8" fill="none" stroke="white" stroke-width="1.5" pointer-events="none"/>
  </g>
  <g id="arrowUp" transform="translate(30 24)">
    <use xlink:href="#rim"/>
    <path pointer-events="none" fill="none" stroke="white" stroke-width="1.5" d="M0,-3.0v7 M-2.5,-0.5L0,-3.0L2.5,-0.5"/>
  </g>
  <g id="arrowRight" transform="rotate(90) translate(36 -43)">
    <use xlink:href="#rim"/>
    <path pointer-events="none" fill="none" stroke="white" stroke-width="1.5" d="M0,-3.0v7 M-2.5,-0.5L0,-3.0L2.5,-0.5"/>
  </g>
  <g id="arrowDown" transform="rotate(180) translate(-30 -48)">
    <use xlink:href="#rim"/>
    <path pointer-events="none" fill="none" stroke="white" stroke-width="1.5" d="M0,-3.0v7 M-2.5,-0.5L0,-3.0L2.5,-0.5"/>
  </g>
  <g id="arrowLeft" transform="rotate(270) translate(-36 17)">
    <use xlink:href="#rim"/>
    <path pointer-events="none" fill="none" stroke="white" stroke-width="1.5" d="M0,-3.0v7 M-2.5,-0.5L0,-3.0L2.5,-0.5"/>
  </g>
  <g id="resetDef">
    <use xlink:href="#rim2" fill="#404040"><set attributeName="fill" to="#808080" begin="reset.mouseover" end="reset.mouseout"/></use>
  </g>
</defs>
<script type="application/ecmascript">
var viewWidth = 1010;
var viewHeight = 445;
var sectionId = 'dynsection-0';
</script>
<script type="application/ecmascript" xlink:href="svg.min.js"/>
<svg id="graph" class="graph">
<g id="viewport">
<title>src/domains/BasicRelax.cpp</title>
<!-- Node1 -->
<g id="Node000001" class="node">
<title>Node1</title>
<g id="a_Node000001"><a xlink:title="Instantiation of class for node relaxation.">
<polygon fill="#999999" stroke="#666666" points="625.53,-437 472.53,-437 472.53,-418 625.53,-418 625.53,-437"/>
<text text-anchor="middle" x="549.03" y="-425" font-family="Helvetica,sans-Serif" font-size="10.00">src/domains/BasicRelax.cpp</text>
</a>
</g>
</g>
<!-- Node2 -->
<g id="Node000002" class="node">
<title>Node2</title>
<g id="a_Node000002"><a xlink:href="BasicRelax_8hpp.html" target="_top" xlink:title="Implementation of class for box shaped domains.">
<polygon fill="white" stroke="#666666" points="610.03,-382 488.03,-382 488.03,-352 610.03,-352 610.03,-382"/>
<text text-anchor="start" x="496.03" y="-370" font-family="Helvetica,sans-Serif" font-size="10.00">medusa/bits/domains</text>
<text text-anchor="middle" x="549.03" y="-359" font-family="Helvetica,sans-Serif" font-size="10.00">/BasicRelax.hpp</text>
</a>
</g>
</g>
<!-- Node1&#45;&gt;Node2 -->
<g id="edge1_Node000001_Node000002" class="edge">
<title>Node1&#45;&gt;Node2</title>
<g id="a_edge1_Node000001_Node000002"><a xlink:title=" ">
<path fill="none" stroke="#63b8ff" d="M549.03,-417.87C549.03,-411.11 549.03,-401.35 549.03,-392.26"/>
<polygon fill="#63b8ff" stroke="#63b8ff" points="552.53,-392.11 549.03,-382.11 545.53,-392.11 552.53,-392.11"/>
</a>
</g>
</g>
<!-- Node3 -->
<g id="Node000003" class="node">
<title>Node3</title>
<g id="a_Node000003"><a xlink:href="BasicRelax__fwd_8hpp.html" target="_top" xlink:title="Declaration of class for domain relaxation.">
<polygon fill="white" stroke="#666666" points="316.03,-250 202.03,-250 202.03,-231 316.03,-231 316.03,-250"/>
<text text-anchor="middle" x="259.03" y="-238" font-family="Helvetica,sans-Serif" font-size="10.00">BasicRelax_fwd.hpp</text>
</a>
</g>
</g>
<!-- Node2&#45;&gt;Node3 -->
<g id="edge2_Node000002_Node000003" class="edge">
<title>Node2&#45;&gt;Node3</title>
<g id="a_edge2_Node000002_Node000003"><a xlink:title=" ">
<path fill="none" stroke="#63b8ff" d="M487.83,-359.18C425.21,-351.22 333.08,-336.49 304.03,-316 284.4,-302.15 271.8,-276.77 265.06,-259.52"/>
<polygon fill="#63b8ff" stroke="#63b8ff" points="268.31,-258.22 261.62,-250 261.73,-260.6 268.31,-258.22"/>
</a>
</g>
</g>
<!-- Node7 -->
<g id="Node000007" class="node">
<title>Node7</title>
<g id="a_Node000007"><a xlink:href="assert_8hpp.html" target="_top" xlink:title="Implementation of custom assert and debug utilities.">
<polygon fill="white" stroke="#666666" points="861.53,-129 706.53,-129 706.53,-110 861.53,-110 861.53,-129"/>
<text text-anchor="middle" x="784.03" y="-117" font-family="Helvetica,sans-Serif" font-size="10.00">medusa/bits/utils/assert.hpp</text>
</a>
</g>
</g>
<!-- Node2&#45;&gt;Node7 -->
<g id="edge19_Node000002_Node000007" class="edge">
<title>Node2&#45;&gt;Node7</title>
<g id="a_edge19_Node000002_Node000007"><a xlink:title=" ">
<path fill="none" stroke="#63b8ff" d="M595.39,-351.98C644.54,-335 721.62,-302.02 770.03,-250 796.77,-221.26 798.36,-204.02 794.03,-165 793.07,-156.34 791.09,-146.91 789.14,-138.97"/>
<polygon fill="#63b8ff" stroke="#63b8ff" points="792.52,-138.06 786.61,-129.27 785.75,-139.83 792.52,-138.06"/>
</a>
</g>
</g>
<!-- Node17 -->
<g id="Node000017" class="node">
<title>Node17</title>
<g id="a_Node000017"><a xlink:href="Range_8hpp.html" target="_top" xlink:title="Implementation of Range.">
<polygon fill="white" stroke="#666666" points="474.53,-310.5 313.53,-310.5 313.53,-291.5 474.53,-291.5 474.53,-310.5"/>
<text text-anchor="middle" x="394.03" y="-298.5" font-family="Helvetica,sans-Serif" font-size="10.00">medusa/bits/types/Range.hpp</text>
</a>
</g>
</g>
<!-- Node2&#45;&gt;Node17 -->
<g id="edge20_Node000002_Node000017" class="edge">
<title>Node2&#45;&gt;Node17</title>
<g id="a_edge20_Node000002_Node000017"><a xlink:title=" ">
<path fill="none" stroke="#63b8ff" d="M515.02,-351.95C487.83,-340.73 450.1,-325.15 424.03,-314.39"/>
<polygon fill="#63b8ff" stroke="#63b8ff" points="425.24,-311.1 414.66,-310.52 422.57,-317.57 425.24,-311.1"/>
</a>
</g>
</g>
<!-- Node19 -->
<g id="Node000019" class="node">
<title>Node19</title>
<g id="a_Node000019"><a xlink:href="KDTree_8hpp.html" target="_top" xlink:title="Implementation of KDTree.">
<polygon fill="white" stroke="#666666" points="605.53,-316 492.53,-316 492.53,-286 605.53,-286 605.53,-316"/>
<text text-anchor="start" x="500.53" y="-304" font-family="Helvetica,sans-Serif" font-size="10.00">medusa/bits/spatial</text>
<text text-anchor="middle" x="549.03" y="-293" font-family="Helvetica,sans-Serif" font-size="10.00">_search/KDTree.hpp</text>
</a>
</g>
</g>
<!-- Node2&#45;&gt;Node19 -->
<g id="edge23_Node000002_Node000019" class="edge">
<title>Node2&#45;&gt;Node19</title>
<g id="a_edge23_Node000002_Node000019"><a xlink:title=" ">
<path fill="none" stroke="#63b8ff" d="M549.03,-351.8C549.03,-344.34 549.03,-334.99 549.03,-326.41"/>
<polygon fill="#63b8ff" stroke="#63b8ff" points="552.53,-326.16 549.03,-316.16 545.53,-326.16 552.53,-326.16"/>
</a>
</g>
</g>
<!-- Node24 -->
<g id="Node000024" class="node">
<title>Node24</title>
<g id="a_Node000024"><a xlink:href="KDTreeMutable_8hpp.html" target="_top" xlink:title="Implementation of KDTreeMutable.">
<polygon fill="white" stroke="#666666" points="1002.03,-316 850.03,-316 850.03,-286 1002.03,-286 1002.03,-316"/>
<text text-anchor="start" x="858.03" y="-304" font-family="Helvetica,sans-Serif" font-size="10.00">medusa/bits/spatial</text>
<text text-anchor="middle" x="926.03" y="-293" font-family="Helvetica,sans-Serif" font-size="10.00">_search/KDTreeMutable.hpp</text>
</a>
</g>
</g>
<!-- Node2&#45;&gt;Node24 -->
<g id="edge37_Node000002_Node000024" class="edge">
<title>Node2&#45;&gt;Node24</title>
<g id="a_edge37_Node000002_Node000024"><a xlink:title=" ">
<path fill="none" stroke="#63b8ff" d="M610.44,-355.57C672.79,-344.99 769.85,-328.51 839.87,-316.63"/>
<polygon fill="#63b8ff" stroke="#63b8ff" points="840.73,-320.03 850,-314.91 839.56,-313.13 840.73,-320.03"/>
</a>
</g>
</g>
<!-- Node4 -->
<g id="Node000004" class="node">
<title>Node4</title>
<g id="a_Node000004"><a xlink:href="Config_8hpp.html" target="_top" xlink:title="Contains compile time settings for the project, such as Eigen plugins.">
<polygon fill="white" stroke="#666666" points="163.03,-129 53.03,-129 53.03,-110 163.03,-110 163.03,-129"/>
<text text-anchor="middle" x="108.03" y="-117" font-family="Helvetica,sans-Serif" font-size="10.00">medusa/Config.hpp</text>
</a>
</g>
</g>
<!-- Node3&#45;&gt;Node4 -->
<g id="edge3_Node000003_Node000004" class="edge">
<title>Node3&#45;&gt;Node4</title>
<g id="a_edge3_Node000003_Node000004"><a xlink:title=" ">
<path fill="none" stroke="#63b8ff" d="M201.99,-237.7C135.2,-234.25 30.55,-224.2 6.03,-195 -2.54,-184.79 -1.27,-176.15 6.03,-165 16.39,-149.18 33.74,-138.95 51.22,-132.35"/>
<polygon fill="#63b8ff" stroke="#63b8ff" points="52.56,-135.59 60.9,-129.05 50.3,-128.97 52.56,-135.59"/>
</a>
</g>
</g>
<!-- Node6 -->
<g id="Node000006" class="node">
<title>Node6</title>
<g id="a_Node000006"><a xlink:href="Range__fwd_8hpp.html" target="_top" xlink:title="Declaration of Range.">
<polygon fill="white" stroke="#666666" points="416.03,-195 276.03,-195 276.03,-165 416.03,-165 416.03,-195"/>
<text text-anchor="start" x="284.03" y="-183" font-family="Helvetica,sans-Serif" font-size="10.00">medusa/bits/types/Range</text>
<text text-anchor="middle" x="346.03" y="-172" font-family="Helvetica,sans-Serif" font-size="10.00">_fwd.hpp</text>
</a>
</g>
</g>
<!-- Node3&#45;&gt;Node6 -->
<g id="edge5_Node000003_Node000006" class="edge">
<title>Node3&#45;&gt;Node6</title>
<g id="a_edge5_Node000003_Node000006"><a xlink:title=" ">
<path fill="none" stroke="#63b8ff" d="M271.87,-230.87C283.57,-223 301.28,-211.09 316.46,-200.89"/>
<polygon fill="#63b8ff" stroke="#63b8ff" points="318.7,-203.6 325.04,-195.11 314.79,-197.79 318.7,-203.6"/>
</a>
</g>
</g>
<!-- Node5 -->
<g id="Node000005" class="node">
<title>Node5</title>
<g id="a_Node000005"><a xlink:title=" ">
<polygon fill="#e0e0e0" stroke="#999999" points="493.53,-19 446.53,-19 446.53,0 493.53,0 493.53,-19"/>
<text text-anchor="middle" x="470.03" y="-7" font-family="Helvetica,sans-Serif" font-size="10.00">vector</text>
</a>
</g>
</g>
<!-- Node4&#45;&gt;Node5 -->
<g id="edge4_Node000004_Node000005" class="edge">
<title>Node4&#45;&gt;Node5</title>
<g id="a_edge4_Node000004_Node000005"><a xlink:title=" ">
<path fill="none" stroke="#63b8ff" d="M136.74,-109.94C202.89,-90.2 365.75,-41.61 436.42,-20.53"/>
<polygon fill="#63b8ff" stroke="#63b8ff" points="437.57,-23.84 446.15,-17.63 435.57,-17.13 437.57,-23.84"/>
</a>
</g>
</g>
<!-- Node6&#45;&gt;Node4 -->
<g id="edge6_Node000006_Node000004" class="edge">
<title>Node6&#45;&gt;Node4</title>
<g id="a_edge6_Node000006_Node000004"><a xlink:title=" ">
<path fill="none" stroke="#63b8ff" d="M289.03,-164.99C247.24,-154.72 191.31,-140.97 152.73,-131.49"/>
<polygon fill="#63b8ff" stroke="#63b8ff" points="153.38,-128.04 142.83,-129.05 151.71,-134.84 153.38,-128.04"/>
</a>
</g>
</g>
<!-- Node6&#45;&gt;Node5 -->
<g id="edge17_Node000006_Node000005" class="edge">
<title>Node6&#45;&gt;Node5</title>
<g id="a_edge17_Node000006_Node000005"><a xlink:title=" ">
<path fill="none" stroke="#63b8ff" d="M356.39,-164.92C379.06,-134.12 432.98,-60.85 457.5,-27.53"/>
<polygon fill="#63b8ff" stroke="#63b8ff" points="460.48,-29.38 463.59,-19.25 454.84,-25.23 460.48,-29.38"/>
</a>
</g>
</g>
<!-- Node6&#45;&gt;Node7 -->
<g id="edge7_Node000006_Node000007" class="edge">
<title>Node6&#45;&gt;Node7</title>
<g id="a_edge7_Node000006_Node000007"><a xlink:title=" ">
<path fill="none" stroke="#63b8ff" d="M416.41,-169.6C496.96,-158.84 628.3,-141.3 710.26,-130.35"/>
<polygon fill="#63b8ff" stroke="#63b8ff" points="710.8,-133.81 720.25,-129.02 709.87,-126.87 710.8,-133.81"/>
</a>
</g>
</g>
<!-- Node14 -->
<g id="Node000014" class="node">
<title>Node14</title>
<g id="a_Node000014"><a xlink:href="traits_8hpp.html" target="_top" xlink:title="Type traits definition for vector and scalar fields.">
<polygon fill="white" stroke="#666666" points="370.53,-129 307.53,-129 307.53,-110 370.53,-110 370.53,-129"/>
<text text-anchor="middle" x="339.03" y="-117" font-family="Helvetica,sans-Serif" font-size="10.00">traits.hpp</text>
</a>
</g>
</g>
<!-- Node6&#45;&gt;Node14 -->
<g id="edge15_Node000006_Node000014" class="edge">
<title>Node6&#45;&gt;Node14</title>
<g id="a_edge15_Node000006_Node000014"><a xlink:title=" ">
<path fill="none" stroke="#63b8ff" d="M344.34,-164.84C343.43,-157.21 342.29,-147.7 341.3,-139.45"/>
<polygon fill="#63b8ff" stroke="#63b8ff" points="344.75,-138.78 340.08,-129.27 337.79,-139.61 344.75,-138.78"/>
</a>
</g>
</g>
<!-- Node15 -->
<g id="Node000015" class="node">
<title>Node15</title>
<g id="a_Node000015"><a xlink:title=" ">
<polygon fill="#e0e0e0" stroke="#999999" points="245.03,-129 187.03,-129 187.03,-110 245.03,-110 245.03,-129"/>
<text text-anchor="middle" x="216.03" y="-117" font-family="Helvetica,sans-Serif" font-size="10.00">memory</text>
</a>
</g>
</g>
<!-- Node6&#45;&gt;Node15 -->
<g id="edge16_Node000006_Node000015" class="edge">
<title>Node6&#45;&gt;Node15</title>
<g id="a_edge16_Node000006_Node000015"><a xlink:title=" ">
<path fill="none" stroke="#63b8ff" d="M314.89,-164.99C293.5,-155.36 265.3,-142.67 244.5,-133.31"/>
<polygon fill="#63b8ff" stroke="#63b8ff" points="245.79,-130.05 235.23,-129.14 242.91,-136.43 245.79,-130.05"/>
</a>
</g>
</g>
<!-- Node16 -->
<g id="Node000016" class="node">
<title>Node16</title>
<g id="a_Node000016"><a xlink:title=" ">
<polygon fill="#e0e0e0" stroke="#999999" points="475.03,-129 427.03,-129 427.03,-110 475.03,-110 475.03,-129"/>
<text text-anchor="middle" x="451.03" y="-117" font-family="Helvetica,sans-Serif" font-size="10.00">iosfwd</text>
</a>
</g>
</g>
<!-- Node6&#45;&gt;Node16 -->
<g id="edge18_Node000006_Node000016" class="edge">
<title>Node6&#45;&gt;Node16</title>
<g id="a_edge18_Node000006_Node000016"><a xlink:title=" ">
<path fill="none" stroke="#63b8ff" d="M371.18,-164.99C387.92,-155.66 409.8,-143.47 426.42,-134.21"/>
<polygon fill="#63b8ff" stroke="#63b8ff" points="428.49,-137.06 435.53,-129.14 425.09,-130.95 428.49,-137.06"/>
</a>
</g>
</g>
<!-- Node8 -->
<g id="Node000008" class="node">
<title>Node8</title>
<g id="a_Node000008"><a xlink:title=" ">
<polygon fill="#e0e0e0" stroke="#999999" points="748.03,-74 616.03,-74 616.03,-55 748.03,-55 748.03,-74"/>
<text text-anchor="middle" x="682.03" y="-62" font-family="Helvetica,sans-Serif" font-size="10.00">tinyformat/tinyformat.h</text>
</a>
</g>
</g>
<!-- Node7&#45;&gt;Node8 -->
<g id="edge8_Node000007_Node000008" class="edge">
<title>Node7&#45;&gt;Node8</title>
<g id="a_edge8_Node000007_Node000008"><a xlink:title=" ">
<path fill="none" stroke="#63b8ff" d="M767.64,-109.98C751.46,-101.57 726.46,-88.59 707.65,-78.81"/>
<polygon fill="#63b8ff" stroke="#63b8ff" points="709.21,-75.68 698.72,-74.17 705.98,-81.89 709.21,-75.68"/>
</a>
</g>
</g>
<!-- Node9 -->
<g id="Node000009" class="node">
<title>Node9</title>
<g id="a_Node000009"><a xlink:href="print_8hpp.html" target="_top" xlink:title="Printing helpers for std types.">
<polygon fill="white" stroke="#666666" points="826.03,-74 766.03,-74 766.03,-55 826.03,-55 826.03,-74"/>
<text text-anchor="middle" x="796.03" y="-62" font-family="Helvetica,sans-Serif" font-size="10.00">print.hpp</text>
</a>
</g>
</g>
<!-- Node7&#45;&gt;Node9 -->
<g id="edge9_Node000007_Node000009" class="edge">
<title>Node7&#45;&gt;Node9</title>
<g id="a_edge9_Node000007_Node000009"><a xlink:title=" ">
<path fill="none" stroke="#63b8ff" d="M786.01,-109.75C787.6,-102.72 789.89,-92.62 791.88,-83.84"/>
<polygon fill="#63b8ff" stroke="#63b8ff" points="795.29,-84.62 794.09,-74.09 788.47,-83.07 795.29,-84.62"/>
</a>
</g>
</g>
<!-- Node9&#45;&gt;Node5 -->
<g id="edge11_Node000009_Node000005" class="edge">
<title>Node9&#45;&gt;Node5</title>
<g id="a_edge11_Node000009_Node000005"><a xlink:title=" ">
<path fill="none" stroke="#63b8ff" d="M765.84,-56.73C762.87,-56.12 759.89,-55.53 757.03,-55 665.72,-37.99 557.21,-22.42 503.53,-15.02"/>
<polygon fill="#63b8ff" stroke="#63b8ff" points="503.93,-11.54 493.55,-13.65 502.98,-18.48 503.93,-11.54"/>
</a>
</g>
</g>
<!-- Node10 -->
<g id="Node000010" class="node">
<title>Node10</title>
<g id="a_Node000010"><a xlink:title=" ">
<polygon fill="#e0e0e0" stroke="#999999" points="826.03,-19 766.03,-19 766.03,0 826.03,0 826.03,-19"/>
<text text-anchor="middle" x="796.03" y="-7" font-family="Helvetica,sans-Serif" font-size="10.00">iostream</text>
</a>
</g>
</g>
<!-- Node9&#45;&gt;Node10 -->
<g id="edge10_Node000009_Node000010" class="edge">
<title>Node9&#45;&gt;Node10</title>
<g id="a_edge10_Node000009_Node000010"><a xlink:title=" ">
<path fill="none" stroke="#63b8ff" d="M796.03,-54.75C796.03,-47.8 796.03,-37.85 796.03,-29.13"/>
<polygon fill="#63b8ff" stroke="#63b8ff" points="799.53,-29.09 796.03,-19.09 792.53,-29.09 799.53,-29.09"/>
</a>
</g>
</g>
<!-- Node11 -->
<g id="Node000011" class="node">
<title>Node11</title>
<g id="a_Node000011"><a xlink:title=" ">
<polygon fill="#e0e0e0" stroke="#999999" points="973.03,-19 931.03,-19 931.03,0 973.03,0 973.03,-19"/>
<text text-anchor="middle" x="952.03" y="-7" font-family="Helvetica,sans-Serif" font-size="10.00">array</text>
</a>
</g>
</g>
<!-- Node9&#45;&gt;Node11 -->
<g id="edge12_Node000009_Node000011" class="edge">
<title>Node9&#45;&gt;Node11</title>
<g id="a_edge12_Node000009_Node000011"><a xlink:title=" ">
<path fill="none" stroke="#63b8ff" d="M821.1,-54.98C848.37,-45.72 891.99,-30.9 921.31,-20.94"/>
<polygon fill="#63b8ff" stroke="#63b8ff" points="922.69,-24.17 931.03,-17.63 920.44,-17.54 922.69,-24.17"/>
</a>
</g>
</g>
<!-- Node12 -->
<g id="Node000012" class="node">
<title>Node12</title>
<g id="a_Node000012"><a xlink:title=" ">
<polygon fill="#e0e0e0" stroke="#999999" points="889.53,-19 844.53,-19 844.53,0 889.53,0 889.53,-19"/>
<text text-anchor="middle" x="867.03" y="-7" font-family="Helvetica,sans-Serif" font-size="10.00">utility</text>
</a>
</g>
</g>
<!-- Node9&#45;&gt;Node12 -->
<g id="edge13_Node000009_Node000012" class="edge">
<title>Node9&#45;&gt;Node12</title>
<g id="a_edge13_Node000009_Node000012"><a xlink:title=" ">
<path fill="none" stroke="#63b8ff" d="M807.44,-54.98C818.14,-47 834.37,-34.88 847.2,-25.31"/>
<polygon fill="#63b8ff" stroke="#63b8ff" points="849.5,-27.96 855.42,-19.17 845.31,-22.35 849.5,-27.96"/>
</a>
</g>
</g>
<!-- Node13 -->
<g id="Node000013" class="node">
<title>Node13</title>
<g id="a_Node000013"><a xlink:title=" ">
<polygon fill="#e0e0e0" stroke="#999999" points="747.53,-19 706.53,-19 706.53,0 747.53,0 747.53,-19"/>
<text text-anchor="middle" x="727.03" y="-7" font-family="Helvetica,sans-Serif" font-size="10.00">tuple</text>
</a>
</g>
</g>
<!-- Node9&#45;&gt;Node13 -->
<g id="edge14_Node000009_Node000013" class="edge">
<title>Node9&#45;&gt;Node13</title>
<g id="a_edge14_Node000009_Node000013"><a xlink:title=" ">
<path fill="none" stroke="#63b8ff" d="M784.95,-54.98C774.55,-47 758.77,-34.88 746.31,-25.31"/>
<polygon fill="#63b8ff" stroke="#63b8ff" points="748.38,-22.49 738.32,-19.17 744.12,-28.04 748.38,-22.49"/>
</a>
</g>
</g>
<!-- Node17&#45;&gt;Node6 -->
<g id="edge21_Node000017_Node000006" class="edge">
<title>Node17&#45;&gt;Node6</title>
<g id="a_edge21_Node000017_Node000006"><a xlink:title=" ">
<path fill="none" stroke="#63b8ff" d="M387.42,-291.25C380.42,-281.62 369.53,-265.44 363.03,-250 356.99,-235.64 352.77,-218.67 350.05,-205.14"/>
<polygon fill="#63b8ff" stroke="#63b8ff" points="353.46,-204.34 348.18,-195.16 346.58,-205.63 353.46,-204.34"/>
</a>
</g>
</g>
<!-- Node18 -->
<g id="Node000018" class="node">
<title>Node18</title>
<g id="a_Node000018"><a xlink:title=" ">
<polygon fill="#e0e0e0" stroke="#999999" points="436.03,-250 372.03,-250 372.03,-231 436.03,-231 436.03,-250"/>
<text text-anchor="middle" x="404.03" y="-238" font-family="Helvetica,sans-Serif" font-size="10.00">algorithm</text>
</a>
</g>
</g>
<!-- Node17&#45;&gt;Node18 -->
<g id="edge22_Node000017_Node000018" class="edge">
<title>Node17&#45;&gt;Node18</title>
<g id="a_edge22_Node000017_Node000018"><a xlink:title=" ">
<path fill="none" stroke="#63b8ff" d="M395.51,-291.37C396.91,-283.16 399.07,-270.54 400.86,-260.05"/>
<polygon fill="#63b8ff" stroke="#63b8ff" points="404.32,-260.61 402.55,-250.17 397.42,-259.43 404.32,-260.61"/>
</a>
</g>
</g>
<!-- Node19&#45;&gt;Node7 -->
<g id="edge35_Node000019_Node000007" class="edge">
<title>Node19&#45;&gt;Node7</title>
<g id="a_edge35_Node000019_Node000007"><a xlink:title=" ">
<path fill="none" stroke="#63b8ff" d="M605.65,-292.33C657.4,-284.21 728.85,-269.8 749.03,-250 779.28,-220.32 784.21,-167.42 784.53,-139.3"/>
<polygon fill="#63b8ff" stroke="#63b8ff" points="788.03,-139.18 784.46,-129.21 781.03,-139.23 788.03,-139.18"/>
</a>
</g>
</g>
<!-- Node20 -->
<g id="Node000020" class="node">
<title>Node20</title>
<g id="a_Node000020"><a xlink:href="KDTree__fwd_8hpp.html" target="_top" xlink:title="Declaration of KDTree.">
<polygon fill="white" stroke="#666666" points="587.53,-250 492.53,-250 492.53,-231 587.53,-231 587.53,-250"/>
<text text-anchor="middle" x="540.03" y="-238" font-family="Helvetica,sans-Serif" font-size="10.00">KDTree_fwd.hpp</text>
</a>
</g>
</g>
<!-- Node19&#45;&gt;Node20 -->
<g id="edge24_Node000019_Node000020" class="edge">
<title>Node19&#45;&gt;Node20</title>
<g id="a_edge24_Node000019_Node000020"><a xlink:title=" ">
<path fill="none" stroke="#63b8ff" d="M546.85,-285.84C545.67,-278.13 544.18,-268.49 542.91,-260.17"/>
<polygon fill="#63b8ff" stroke="#63b8ff" points="546.36,-259.62 541.38,-250.27 539.44,-260.68 546.36,-259.62"/>
</a>
</g>
</g>
<!-- Node22 -->
<g id="Node000022" class="node">
<title>Node22</title>
<g id="a_Node000022"><a xlink:href="memutils_8hpp.html" target="_top" xlink:title="Declaration of memory related utilities.">
<polygon fill="white" stroke="#666666" points="257.53,-189.5 86.53,-189.5 86.53,-170.5 257.53,-170.5 257.53,-189.5"/>
<text text-anchor="middle" x="172.03" y="-177.5" font-family="Helvetica,sans-Serif" font-size="10.00">medusa/bits/utils/memutils.hpp</text>
</a>
</g>
</g>
<!-- Node19&#45;&gt;Node22 -->
<g id="edge36_Node000019_Node000022" class="edge">
<title>Node19&#45;&gt;Node22</title>
<g id="a_edge36_Node000019_Node000022"><a xlink:title=" ">
<path fill="none" stroke="#63b8ff" d="M532.58,-285.97C513.03,-270.08 478.79,-244.62 445.03,-231 425.85,-223.26 309.63,-203.42 235.14,-191.18"/>
<polygon fill="#63b8ff" stroke="#63b8ff" points="235.35,-187.67 224.92,-189.51 234.22,-194.58 235.35,-187.67"/>
</a>
</g>
</g>
<!-- Node20&#45;&gt;Node4 -->
<g id="edge25_Node000020_Node000004" class="edge">
<title>Node20&#45;&gt;Node4</title>
<g id="a_edge25_Node000020_Node000004"><a xlink:title=" ">
<path fill="none" stroke="#63b8ff" d="M492.47,-235.23C368.33,-224.1 44.03,-195 44.03,-195 35.04,-185.16 37.86,-176.82 44.03,-165 51.15,-151.39 64.52,-141.1 77.22,-133.87"/>
<polygon fill="#63b8ff" stroke="#63b8ff" points="79.01,-136.88 86.24,-129.13 75.76,-130.68 79.01,-136.88"/>
</a>
</g>
</g>
<!-- Node20&#45;&gt;Node6 -->
<g id="edge27_Node000020_Node000006" class="edge">
<title>Node20&#45;&gt;Node6</title>
<g id="a_edge27_Node000020_Node000006"><a xlink:title=" ">
<path fill="none" stroke="#63b8ff" d="M511.82,-230.99C483.29,-222.39 438.41,-208.86 402.53,-198.04"/>
<polygon fill="#63b8ff" stroke="#63b8ff" points="403.26,-194.6 392.67,-195.06 401.24,-201.3 403.26,-194.6"/>
</a>
</g>
</g>
<!-- Node20&#45;&gt;Node16 -->
<g id="edge28_Node000020_Node000016" class="edge">
<title>Node20&#45;&gt;Node16</title>
<g id="a_edge28_Node000020_Node000016"><a xlink:title=" ">
<path fill="none" stroke="#63b8ff" d="M514.15,-230.9C497.21,-223.91 476.07,-212.33 464.03,-195 452.7,-178.68 450.23,-155.64 450.09,-139.51"/>
<polygon fill="#63b8ff" stroke="#63b8ff" points="453.6,-139.26 450.32,-129.19 446.6,-139.11 453.6,-139.26"/>
</a>
</g>
</g>
<!-- Node21 -->
<g id="Node000021" class="node">
<title>Node21</title>
<g id="a_Node000021"><a xlink:title=" ">
<polygon fill="#e0e0e0" stroke="#999999" points="609.53,-189.5 472.53,-189.5 472.53,-170.5 609.53,-170.5 609.53,-189.5"/>
<text text-anchor="middle" x="541.03" y="-177.5" font-family="Helvetica,sans-Serif" font-size="10.00">nanoflann/nanoflann.hpp</text>
</a>
</g>
</g>
<!-- Node20&#45;&gt;Node21 -->
<g id="edge26_Node000020_Node000021" class="edge">
<title>Node20&#45;&gt;Node21</title>
<g id="a_edge26_Node000020_Node000021"><a xlink:title=" ">
<path fill="none" stroke="#63b8ff" d="M540.18,-230.87C540.32,-222.75 540.53,-210.31 540.71,-199.89"/>
<polygon fill="#63b8ff" stroke="#63b8ff" points="544.21,-199.73 540.88,-189.67 537.21,-199.61 544.21,-199.73"/>
</a>
</g>
</g>
<!-- Node20&#45;&gt;Node22 -->
<g id="edge29_Node000020_Node000022" class="edge">
<title>Node20&#45;&gt;Node22</title>
<g id="a_edge29_Node000020_Node000022"><a xlink:title=" ">
<path fill="none" stroke="#63b8ff" d="M492.3,-231.91C426.73,-221.49 308.65,-202.72 235.64,-191.11"/>
<polygon fill="#63b8ff" stroke="#63b8ff" points="236.07,-187.64 225.65,-189.52 234.97,-194.55 236.07,-187.64"/>
</a>
</g>
</g>
<!-- Node23 -->
<g id="Node000023" class="node">
<title>Node23</title>
<g id="a_Node000023"><a xlink:href="PointCloud_8hpp.html" target="_top" xlink:title="Implementation of KDTree storage class.">
<polygon fill="white" stroke="#666666" points="718.03,-189.5 628.03,-189.5 628.03,-170.5 718.03,-170.5 718.03,-189.5"/>
<text text-anchor="middle" x="673.03" y="-177.5" font-family="Helvetica,sans-Serif" font-size="10.00">PointCloud.hpp</text>
</a>
</g>
</g>
<!-- Node20&#45;&gt;Node23 -->
<g id="edge33_Node000020_Node000023" class="edge">
<title>Node20&#45;&gt;Node23</title>
<g id="a_edge33_Node000020_Node000023"><a xlink:title=" ">
<path fill="none" stroke="#63b8ff" d="M559.37,-230.99C581.73,-221.16 618.75,-204.88 644.43,-193.58"/>
<polygon fill="#63b8ff" stroke="#63b8ff" points="645.93,-196.75 653.67,-189.52 643.11,-190.34 645.93,-196.75"/>
</a>
</g>
</g>
<!-- Node22&#45;&gt;Node4 -->
<g id="edge31_Node000022_Node000004" class="edge">
<title>Node22&#45;&gt;Node4</title>
<g id="a_edge31_Node000022_Node000004"><a xlink:title=" ">
<path fill="none" stroke="#63b8ff" d="M162.59,-170.37C152.76,-161.38 137.15,-147.11 125.14,-136.14"/>
<polygon fill="#63b8ff" stroke="#63b8ff" points="127.26,-133.33 117.52,-129.17 122.53,-138.5 127.26,-133.33"/>
</a>
</g>
</g>
<!-- Node22&#45;&gt;Node7 -->
<g id="edge32_Node000022_Node000007" class="edge">
<title>Node22&#45;&gt;Node7</title>
<g id="a_edge32_Node000022_Node000007"><a xlink:title=" ">
<path fill="none" stroke="#63b8ff" d="M226.22,-170.44C239.54,-168.49 253.79,-166.54 267.03,-165 417.5,-147.45 593.35,-133.76 696.33,-126.43"/>
<polygon fill="#63b8ff" stroke="#63b8ff" points="696.64,-129.91 706.37,-125.71 696.15,-122.93 696.64,-129.91"/>
</a>
</g>
</g>
<!-- Node22&#45;&gt;Node15 -->
<g id="edge30_Node000022_Node000015" class="edge">
<title>Node22&#45;&gt;Node15</title>
<g id="a_edge30_Node000022_Node000015"><a xlink:title=" ">
<path fill="none" stroke="#63b8ff" d="M178.53,-170.37C185.02,-161.73 195.2,-148.2 203.31,-137.42"/>
<polygon fill="#63b8ff" stroke="#63b8ff" points="206.3,-139.26 209.51,-129.17 200.71,-135.06 206.3,-139.26"/>
</a>
</g>
</g>
<!-- Node23&#45;&gt;Node5 -->
<g id="edge34_Node000023_Node000005" class="edge">
<title>Node23&#45;&gt;Node5</title>
<g id="a_edge34_Node000023_Node000005"><a xlink:title=" ">
<path fill="none" stroke="#63b8ff" d="M662.69,-170.41C630.18,-143.43 529.82,-60.13 488.3,-25.67"/>
<polygon fill="#63b8ff" stroke="#63b8ff" points="490.53,-22.97 480.6,-19.27 486.06,-28.35 490.53,-22.97"/>
</a>
</g>
</g>
<!-- Node24&#45;&gt;Node7 -->
<g id="edge45_Node000024_Node000007" class="edge">
<title>Node24&#45;&gt;Node7</title>
<g id="a_edge45_Node000024_Node000007"><a xlink:title=" ">
<path fill="none" stroke="#63b8ff" d="M924.45,-285.88C922.31,-271.27 917.47,-248.21 907.03,-231 881.48,-188.88 834.92,-153.58 806.99,-134.88"/>
<polygon fill="#63b8ff" stroke="#63b8ff" points="808.58,-131.73 798.3,-129.19 804.75,-137.59 808.58,-131.73"/>
</a>
</g>
</g>
<!-- Node25 -->
<g id="Node000025" class="node">
<title>Node25</title>
<g id="a_Node000025"><a xlink:href="KDTreeMutable__fwd_8hpp.html" target="_top" xlink:title="Declaration of KDTreeMutable.">
<polygon fill="white" stroke="#666666" points="740.03,-250 606.03,-250 606.03,-231 740.03,-231 740.03,-250"/>
<text text-anchor="middle" x="673.03" y="-238" font-family="Helvetica,sans-Serif" font-size="10.00">KDTreeMutable_fwd.hpp</text>
</a>
</g>
</g>
<!-- Node24&#45;&gt;Node25 -->
<g id="edge38_Node000024_Node000025" class="edge">
<title>Node24&#45;&gt;Node25</title>
<g id="a_edge38_Node000024_Node000025"><a xlink:title=" ">
<path fill="none" stroke="#63b8ff" d="M865.43,-285.99C820.73,-275.65 760.8,-261.79 719.77,-252.31"/>
<polygon fill="#63b8ff" stroke="#63b8ff" points="720.56,-248.9 710.03,-250.05 718.98,-255.72 720.56,-248.9"/>
</a>
</g>
</g>
<!-- Node26 -->
<g id="Node000026" class="node">
<title>Node26</title>
<g id="a_Node000026"><a xlink:title=" ">
<polygon fill="#e0e0e0" stroke="#999999" points="897.53,-250 850.53,-250 850.53,-231 897.53,-231 897.53,-250"/>
<text text-anchor="middle" x="874.03" y="-238" font-family="Helvetica,sans-Serif" font-size="10.00">cmath</text>
</a>
</g>
</g>
<!-- Node24&#45;&gt;Node26 -->
<g id="edge46_Node000024_Node000026" class="edge">
<title>Node24&#45;&gt;Node26</title>
<g id="a_edge46_Node000024_Node000026"><a xlink:title=" ">
<path fill="none" stroke="#63b8ff" d="M913.45,-285.84C905.97,-277.43 896.47,-266.74 888.66,-257.96"/>
<polygon fill="#63b8ff" stroke="#63b8ff" points="891.08,-255.41 881.82,-250.27 885.85,-260.07 891.08,-255.41"/>
</a>
</g>
</g>
<!-- Node25&#45;&gt;Node4 -->
<g id="edge39_Node000025_Node000004" class="edge">
<title>Node25&#45;&gt;Node4</title>
<g id="a_edge39_Node000025_Node000004"><a xlink:title=" ">
<path fill="none" stroke="#63b8ff" d="M605.91,-231.84C602.91,-231.54 599.94,-231.26 597.03,-231 539.35,-225.78 116.55,-237.34 77.03,-195 61.73,-178.6 77.69,-153.58 91.8,-137.13"/>
<polygon fill="#63b8ff" stroke="#63b8ff" points="94.69,-139.15 98.83,-129.4 89.51,-134.44 94.69,-139.15"/>
</a>
</g>
</g>
<!-- Node25&#45;&gt;Node6 -->
<g id="edge40_Node000025_Node000006" class="edge">
<title>Node25&#45;&gt;Node6</title>
<g id="a_edge40_Node000025_Node000006"><a xlink:title=" ">
<path fill="none" stroke="#63b8ff" d="M625.48,-230.99C573.38,-221.67 488.92,-206.56 426.47,-195.39"/>
<polygon fill="#63b8ff" stroke="#63b8ff" points="426.72,-191.88 416.26,-193.56 425.48,-198.77 426.72,-191.88"/>
</a>
</g>
</g>
<!-- Node25&#45;&gt;Node11 -->
<g id="edge42_Node000025_Node000011" class="edge">
<title>Node25&#45;&gt;Node11</title>
<g id="a_edge42_Node000025_Node000011"><a xlink:title=" ">
<path fill="none" stroke="#63b8ff" d="M695.64,-230.94C734.79,-215.3 816.24,-179.04 871.03,-129 903.86,-99.02 930.28,-53.27 943.27,-28.29"/>
<polygon fill="#63b8ff" stroke="#63b8ff" points="946.46,-29.75 947.86,-19.25 940.21,-26.58 946.46,-29.75"/>
</a>
</g>
</g>
<!-- Node25&#45;&gt;Node16 -->
<g id="edge43_Node000025_Node000016" class="edge">
<title>Node25&#45;&gt;Node16</title>
<g id="a_edge43_Node000025_Node000016"><a xlink:title=" ">
<path fill="none" stroke="#63b8ff" d="M689.92,-230.95C702.74,-223.43 719.41,-211.15 727.03,-195 732.72,-182.94 735.68,-175.15 727.03,-165 696.34,-128.96 552.18,-122.01 485.28,-120.74"/>
<polygon fill="#63b8ff" stroke="#63b8ff" points="485.3,-117.24 475.24,-120.58 485.18,-124.24 485.3,-117.24"/>
</a>
</g>
</g>
<!-- Node25&#45;&gt;Node21 -->
<g id="edge41_Node000025_Node000021" class="edge">
<title>Node25&#45;&gt;Node21</title>
<g id="a_edge41_Node000025_Node000021"><a xlink:title=" ">
<path fill="none" stroke="#63b8ff" d="M653.84,-230.99C631.65,-221.16 594.91,-204.88 569.42,-193.58"/>
<polygon fill="#63b8ff" stroke="#63b8ff" points="570.81,-190.37 560.25,-189.52 567.97,-196.77 570.81,-190.37"/>
</a>
</g>
</g>
<!-- Node25&#45;&gt;Node23 -->
<g id="edge44_Node000025_Node000023" class="edge">
<title>Node25&#45;&gt;Node23</title>
<g id="a_edge44_Node000025_Node000023"><a xlink:title=" ">
<path fill="none" stroke="#63b8ff" d="M673.03,-230.87C673.03,-222.75 673.03,-210.31 673.03,-199.89"/>
<polygon fill="#63b8ff" stroke="#63b8ff" points="676.53,-199.67 673.03,-189.67 669.53,-199.67 676.53,-199.67"/>
</a>
</g>
</g>
</g>
</svg>

<g id="navigator" transform="translate(0 0)" fill="#404254">
  <rect fill="#f2f5e9" fill-opacity="0.5" stroke="#606060" stroke-width=".5" x="0" y="0" width="60" height="60"/>
  <use id="zoomplus" xlink:href="#zoomPlus" x="17" y="9" onmousedown="handleZoom(evt,'in')"/>
  <use id="zoomminus" xlink:href="#zoomMin" x="42" y="9" onmousedown="handleZoom(evt,'out')"/>
  <use id="reset" xlink:href="#resetDef" x="30" y="36" onmousedown="handleReset()"/>
   <use id="arrowup" xlink:href="#arrowUp" x="0" y="0" onmousedown="handlePan(0,-1)"/>
  <use id="arrowright" xlink:href="#arrowRight" x="0" y="0" onmousedown="handlePan(1,0)"/>
  <use id="arrowdown" xlink:href="#arrowDown" x="0" y="0" onmousedown="handlePan(0,1)"/>
  <use id="arrowleft" xlink:href="#arrowLeft" x="0" y="0" onmousedown="handlePan(-1,0)"/>
</g>
<svg viewBox="0 0 15 15" width="100%" height="30px" preserveAspectRatio="xMaxYMin meet">
 <g id="arrow_out" transform="scale(0.3 0.3)">
  <a xlink:href="BasicRelax_8cpp__incl_org.svg" target="_base">
   <rect id="button" ry="5" rx="5" y="6" x="6" height="38" width="38"
        fill="#f2f5e9" fill-opacity="0.5" stroke="#606060" stroke-width="1.0"/>
   <path id="arrow"
     d="M 11.500037,31.436501 C 11.940474,20.09759 22.043105,11.32322 32.158766,21.979434 L 37.068811,17.246167 C 37.068811,17.246167 37.088388,32 37.088388,32 L 22.160133,31.978069 C 22.160133,31.978069 26.997745,27.140456 26.997745,27.140456 C 18.528582,18.264221 13.291696,25.230495 11.500037,31.436501 z"
     style="fill:#404040;"/>
  </a>
 </g>
</svg>

<style type='text/css'>
<![CDATA[
[data-mouse-over-selected='false'] { opacity: 0.7; }
[data-mouse-over-selected='true']  { opacity: 1.0; }
]]>
</style>
<script type="application/ecmascript"><![CDATA[
document.addEventListener('DOMContentLoaded', (event) => {
  highlightEdges();
  highlightAdjacentNodes();
});
]]></script>
</svg>
