<?xml version="1.0" encoding="UTF-8" standalone="no"?>
<!DOCTYPE svg PUBLIC "-//W3C//DTD SVG 1.1//EN"
 "http://www.w3.org/Graphics/SVG/1.1/DTD/svg11.dtd">
<!-- Generated by graphviz version 2.43.0 (0)
 -->
<!-- Title: include/medusa/bits/domains/BasicRelax_fwd.hpp Pages: 1 -->
<svg width="489pt" height="236pt"
 viewBox="0.00 0.00 489.00 236.00" xmlns="http://www.w3.org/2000/svg" xmlns:xlink="http://www.w3.org/1999/xlink">

<svg id="main" version="1.1" xmlns="http://www.w3.org/2000/svg" xmlns:xlink="http://www.w3.org/1999/xlink" xml:space="preserve" onload="init(evt)">
<style type="text/css"><![CDATA[
.node, .edge {opacity: 0.7;}
.node.selected, .edge.selected {opacity: 1;}
.edge:hover path { stroke: red; }
.edge:hover polygon { stroke: red; fill: red; }
]]></style>
<script type="application/ecmascript" xlink:href="svg.min.js"/>
<svg id="graph" class="graph">
<g id="graph0" class="graph" transform="scale(1 1) rotate(0) translate(4 232)">
<title>include/medusa/bits/domains/BasicRelax_fwd.hpp</title>
<!-- Node1 -->
<g id="Node000001" class="node">
<title>Node1</title>
<g id="a_Node000001"><a xlink:title="Declaration of class for domain relaxation.">
<polygon fill="#999999" stroke="#666666" points="291,-228 172,-228 172,-187 291,-187 291,-228"/>
<text text-anchor="start" x="180" y="-216" font-family="Helvetica,sans-Serif" font-size="10.00">include/medusa/bits</text>
<text text-anchor="start" x="180" y="-205" font-family="Helvetica,sans-Serif" font-size="10.00">/domains/BasicRelax</text>
<text text-anchor="middle" x="231.5" y="-194" font-family="Helvetica,sans-Serif" font-size="10.00">_fwd.hpp</text>
</a>
</g>
</g>
<!-- Node2 -->
<g id="Node000002" class="node">
<title>Node2</title>
<g id="a_Node000002"><a xlink:href="Domain__fwd_8hpp.html" target="_top" xlink:title="Header for Domain module, declarations only.">
<polygon fill="white" stroke="#666666" points="221,-151 86,-151 86,-121 221,-121 221,-151"/>
<text text-anchor="start" x="94" y="-139" font-family="Helvetica,sans-Serif" font-size="10.00">include/medusa/Domain</text>
<text text-anchor="middle" x="153.5" y="-128" font-family="Helvetica,sans-Serif" font-size="10.00">_fwd.hpp</text>
</a>
</g>
</g>
<!-- Node1&#45;&gt;Node2 -->
<g id="edge1_Node000001_Node000002" class="edge">
<title>Node1&#45;&gt;Node2</title>
<g id="a_edge1_Node000001_Node000002"><a xlink:title=" ">
<path fill="none" stroke="#63b8ff" d="M201.57,-179.83C190.56,-170.02 178.53,-159.3 169.26,-151.04"/>
<polygon fill="#63b8ff" stroke="#63b8ff" points="199.56,-182.73 209.36,-186.77 204.22,-177.5 199.56,-182.73"/>
</a>
</g>
</g>
<!-- Node6 -->
<g id="Node000006" class="node">
<title>Node6</title>
<g id="a_Node000006"><a xlink:href="BasicRelax_8hpp.html" target="_top" xlink:title="Implementation of class for box shaped domains.">
<polygon fill="white" stroke="#666666" points="379.5,-151 239.5,-151 239.5,-121 379.5,-121 379.5,-151"/>
<text text-anchor="start" x="247.5" y="-139" font-family="Helvetica,sans-Serif" font-size="10.00">include/medusa/bits</text>
<text text-anchor="middle" x="309.5" y="-128" font-family="Helvetica,sans-Serif" font-size="10.00">/domains/BasicRelax.hpp</text>
</a>
</g>
</g>
<!-- Node1&#45;&gt;Node6 -->
<g id="edge6_Node000001_Node000006" class="edge">
<title>Node1&#45;&gt;Node6</title>
<g id="a_edge6_Node000001_Node000006"><a xlink:title=" ">
<path fill="none" stroke="#63b8ff" d="M261.43,-179.83C272.44,-170.02 284.47,-159.3 293.74,-151.04"/>
<polygon fill="#63b8ff" stroke="#63b8ff" points="258.78,-177.5 253.64,-186.77 263.44,-182.73 258.78,-177.5"/>
</a>
</g>
</g>
<!-- Node3 -->
<g id="Node000003" class="node">
<title>Node3</title>
<g id="a_Node000003"><a xlink:href="Domain_8hpp.html" target="_top" xlink:title="Header for Domain module.">
<polygon fill="white" stroke="#666666" points="309.5,-79.5 153.5,-79.5 153.5,-60.5 309.5,-60.5 309.5,-79.5"/>
<text text-anchor="middle" x="231.5" y="-67.5" font-family="Helvetica,sans-Serif" font-size="10.00">include/medusa/Domain.hpp</text>
</a>
</g>
</g>
<!-- Node2&#45;&gt;Node3 -->
<g id="edge2_Node000002_Node000003" class="edge">
<title>Node2&#45;&gt;Node3</title>
<g id="a_edge2_Node000002_Node000003"><a xlink:title=" ">
<path fill="none" stroke="#63b8ff" d="M178.78,-114.26C192.97,-102.61 209.94,-88.69 220.72,-79.84"/>
<polygon fill="#63b8ff" stroke="#63b8ff" points="176.32,-111.75 170.81,-120.8 180.76,-117.16 176.32,-111.75"/>
</a>
</g>
</g>
<!-- Node5 -->
<g id="Node000005" class="node">
<title>Node5</title>
<g id="a_Node000005"><a xlink:href="Medusa__fwd_8hpp.html" target="_top" xlink:title="Main header file that includes only declarations for some heavy classes such as mm::WLS to reduce com...">
<polygon fill="white" stroke="#666666" points="135,-85 0,-85 0,-55 135,-55 135,-85"/>
<text text-anchor="start" x="8" y="-73" font-family="Helvetica,sans-Serif" font-size="10.00">include/medusa/Medusa</text>
<text text-anchor="middle" x="67.5" y="-62" font-family="Helvetica,sans-Serif" font-size="10.00">_fwd.hpp</text>
</a>
</g>
</g>
<!-- Node2&#45;&gt;Node5 -->
<g id="edge4_Node000002_Node000005" class="edge">
<title>Node2&#45;&gt;Node5</title>
<g id="a_edge4_Node000002_Node000005"><a xlink:title=" ">
<path fill="none" stroke="#63b8ff" d="M126.29,-114.75C113.36,-105.13 98.21,-93.86 86.53,-85.16"/>
<polygon fill="#63b8ff" stroke="#63b8ff" points="124.3,-117.63 134.41,-120.8 128.48,-112.02 124.3,-117.63"/>
</a>
</g>
</g>
<!-- Node4 -->
<g id="Node000004" class="node">
<title>Node4</title>
<g id="a_Node000004"><a xlink:href="Medusa_8hpp.html" target="_top" xlink:title="Main header file that includes most other components.">
<polygon fill="white" stroke="#666666" points="227.5,-19 71.5,-19 71.5,0 227.5,0 227.5,-19"/>
<text text-anchor="middle" x="149.5" y="-7" font-family="Helvetica,sans-Serif" font-size="10.00">include/medusa/Medusa.hpp</text>
</a>
</g>
</g>
<!-- Node3&#45;&gt;Node4 -->
<g id="edge3_Node000003_Node000004" class="edge">
<title>Node3&#45;&gt;Node4</title>
<g id="a_edge3_Node000003_Node000004"><a xlink:title=" ">
<path fill="none" stroke="#63b8ff" d="M210.96,-54.35C195.43,-43.27 174.63,-28.43 161.65,-19.17"/>
<polygon fill="#63b8ff" stroke="#63b8ff" points="209.23,-57.41 219.4,-60.37 213.29,-51.71 209.23,-57.41"/>
</a>
</g>
</g>
<!-- Node5&#45;&gt;Node4 -->
<g id="edge5_Node000005_Node000004" class="edge">
<title>Node5&#45;&gt;Node4</title>
<g id="a_edge5_Node000005_Node000004"><a xlink:title=" ">
<path fill="none" stroke="#63b8ff" d="M95.79,-48.82C109.93,-38.73 126.3,-27.05 137.21,-19.27"/>
<polygon fill="#63b8ff" stroke="#63b8ff" points="93.46,-46.18 87.35,-54.84 97.52,-51.88 93.46,-46.18"/>
</a>
</g>
</g>
<!-- Node6&#45;&gt;Node3 -->
<g id="edge7_Node000006_Node000003" class="edge">
<title>Node6&#45;&gt;Node3</title>
<g id="a_edge7_Node000006_Node000003"><a xlink:title=" ">
<path fill="none" stroke="#63b8ff" d="M284.22,-114.26C270.03,-102.61 253.06,-88.69 242.28,-79.84"/>
<polygon fill="#63b8ff" stroke="#63b8ff" points="282.24,-117.16 292.19,-120.8 286.68,-111.75 282.24,-117.16"/>
</a>
</g>
</g>
<!-- Node7 -->
<g id="Node000007" class="node">
<title>Node7</title>
<g id="a_Node000007"><a xlink:href="BasicRelax_8cpp.html" target="_top" xlink:title="Instantiation of class for node relaxation.">
<polygon fill="white" stroke="#666666" points="481,-79.5 328,-79.5 328,-60.5 481,-60.5 481,-79.5"/>
<text text-anchor="middle" x="404.5" y="-67.5" font-family="Helvetica,sans-Serif" font-size="10.00">src/domains/BasicRelax.cpp</text>
</a>
</g>
</g>
<!-- Node6&#45;&gt;Node7 -->
<g id="edge8_Node000006_Node000007" class="edge">
<title>Node6&#45;&gt;Node7</title>
<g id="a_edge8_Node000006_Node000007"><a xlink:title=" ">
<path fill="none" stroke="#63b8ff" d="M338.89,-115.2C356.57,-103.29 378.18,-88.73 391.65,-79.66"/>
<polygon fill="#63b8ff" stroke="#63b8ff" points="336.92,-112.31 330.58,-120.8 340.83,-118.11 336.92,-112.31"/>
</a>
</g>
</g>
</g>
</svg>
</svg>

<style type='text/css'>
<![CDATA[
[data-mouse-over-selected='false'] { opacity: 0.7; }
[data-mouse-over-selected='true']  { opacity: 1.0; }
]]>
</style>
<script type="application/ecmascript"><![CDATA[
document.addEventListener('DOMContentLoaded', (event) => {
  highlightEdges();
  highlightAdjacentNodes();
});
]]></script>
</svg>
