<?xml version="1.0" encoding="UTF-8" standalone="no"?>
<!DOCTYPE svg PUBLIC "-//W3C//DTD SVG 1.1//EN"
 "http://www.w3.org/Graphics/SVG/1.1/DTD/svg11.dtd">
<!-- Generated by graphviz version 2.43.0 (0)
 -->
<!-- Title: include/medusa/bits/domains/BasicRelax_fwd.hpp Pages: 1 -->
<svg width="553pt" height="280pt"
 viewBox="0.00 0.00 553.00 280.00" xmlns="http://www.w3.org/2000/svg" xmlns:xlink="http://www.w3.org/1999/xlink">
<g id="graph0" class="graph" transform="scale(1 1) rotate(0) translate(4 276)">
<title>include/medusa/bits/domains/BasicRelax_fwd.hpp</title>
<!-- Node1 -->
<g id="Node000001" class="node">
<title>Node1</title>
<g id="a_Node000001"><a xlink:title="Declaration of class for domain relaxation.">
<polygon fill="#999999" stroke="#666666" points="209.5,-272 90.5,-272 90.5,-231 209.5,-231 209.5,-272"/>
<text text-anchor="start" x="98.5" y="-260" font-family="Helvetica,sans-Serif" font-size="10.00">include/medusa/bits</text>
<text text-anchor="start" x="98.5" y="-249" font-family="Helvetica,sans-Serif" font-size="10.00">/domains/BasicRelax</text>
<text text-anchor="middle" x="150" y="-238" font-family="Helvetica,sans-Serif" font-size="10.00">_fwd.hpp</text>
</a>
</g>
</g>
<!-- Node2 -->
<g id="Node000002" class="node">
<title>Node2</title>
<g id="a_Node000002"><a xlink:href="Config_8hpp.html" target="_top" xlink:title="Contains compile time settings for the project, such as Eigen plugins.">
<polygon fill="white" stroke="#666666" points="110,-129 0,-129 0,-110 110,-110 110,-129"/>
<text text-anchor="middle" x="55" y="-117" font-family="Helvetica,sans-Serif" font-size="10.00">medusa/Config.hpp</text>
</a>
</g>
</g>
<!-- Node1&#45;&gt;Node2 -->
<g id="edge1_Node000001_Node000002" class="edge">
<title>Node1&#45;&gt;Node2</title>
<g id="a_edge1_Node000001_Node000002"><a xlink:title=" ">
<path fill="none" stroke="#63b8ff" d="M135.57,-230.76C116.88,-205.18 84.64,-161.06 67.15,-137.12"/>
<polygon fill="#63b8ff" stroke="#63b8ff" points="69.95,-135.02 61.22,-129.01 64.29,-139.15 69.95,-135.02"/>
</a>
</g>
</g>
<!-- Node4 -->
<g id="Node000004" class="node">
<title>Node4</title>
<g id="a_Node000004"><a xlink:href="Range__fwd_8hpp.html" target="_top" xlink:title="Declaration of Range.">
<polygon fill="white" stroke="#666666" points="314,-195 174,-195 174,-165 314,-165 314,-195"/>
<text text-anchor="start" x="182" y="-183" font-family="Helvetica,sans-Serif" font-size="10.00">medusa/bits/types/Range</text>
<text text-anchor="middle" x="244" y="-172" font-family="Helvetica,sans-Serif" font-size="10.00">_fwd.hpp</text>
</a>
</g>
</g>
<!-- Node1&#45;&gt;Node4 -->
<g id="edge3_Node000001_Node000004" class="edge">
<title>Node1&#45;&gt;Node4</title>
<g id="a_edge3_Node000001_Node000004"><a xlink:title=" ">
<path fill="none" stroke="#63b8ff" d="M176.43,-230.96C188.96,-221.69 203.92,-210.63 216.58,-201.27"/>
<polygon fill="#63b8ff" stroke="#63b8ff" points="218.95,-203.87 224.91,-195.11 214.79,-198.24 218.95,-203.87"/>
</a>
</g>
</g>
<!-- Node3 -->
<g id="Node000003" class="node">
<title>Node3</title>
<g id="a_Node000003"><a xlink:title=" ">
<polygon fill="#e0e0e0" stroke="#999999" points="161.5,-19 114.5,-19 114.5,0 161.5,0 161.5,-19"/>
<text text-anchor="middle" x="138" y="-7" font-family="Helvetica,sans-Serif" font-size="10.00">vector</text>
</a>
</g>
</g>
<!-- Node2&#45;&gt;Node3 -->
<g id="edge2_Node000002_Node000003" class="edge">
<title>Node2&#45;&gt;Node3</title>
<g id="a_edge2_Node000002_Node000003"><a xlink:title=" ">
<path fill="none" stroke="#63b8ff" d="M61.79,-109.66C75.6,-91.69 107.15,-50.64 125.02,-27.38"/>
<polygon fill="#63b8ff" stroke="#63b8ff" points="128.03,-29.22 131.35,-19.16 122.48,-24.95 128.03,-29.22"/>
</a>
</g>
</g>
<!-- Node4&#45;&gt;Node2 -->
<g id="edge4_Node000004_Node000002" class="edge">
<title>Node4&#45;&gt;Node2</title>
<g id="a_edge4_Node000004_Node000002"><a xlink:title=" ">
<path fill="none" stroke="#63b8ff" d="M198.73,-164.99C166.25,-154.94 123.01,-141.55 92.47,-132.1"/>
<polygon fill="#63b8ff" stroke="#63b8ff" points="93.22,-128.67 82.63,-129.05 91.15,-135.35 93.22,-128.67"/>
</a>
</g>
</g>
<!-- Node4&#45;&gt;Node3 -->
<g id="edge15_Node000004_Node000003" class="edge">
<title>Node4&#45;&gt;Node3</title>
<g id="a_edge15_Node000004_Node000003"><a xlink:title=" ">
<path fill="none" stroke="#63b8ff" d="M203.36,-164.79C186.44,-156.84 168.18,-145.2 157,-129 136.26,-98.95 135.01,-54.51 136.29,-29.46"/>
<polygon fill="#63b8ff" stroke="#63b8ff" points="139.8,-29.38 137.02,-19.16 132.82,-28.89 139.8,-29.38"/>
</a>
</g>
</g>
<!-- Node5 -->
<g id="Node000005" class="node">
<title>Node5</title>
<g id="a_Node000005"><a xlink:href="assert_8hpp.html" target="_top" xlink:title="Implementation of custom assert and debug utilities.">
<polygon fill="white" stroke="#666666" points="321.5,-129 166.5,-129 166.5,-110 321.5,-110 321.5,-129"/>
<text text-anchor="middle" x="244" y="-117" font-family="Helvetica,sans-Serif" font-size="10.00">medusa/bits/utils/assert.hpp</text>
</a>
</g>
</g>
<!-- Node4&#45;&gt;Node5 -->
<g id="edge5_Node000004_Node000005" class="edge">
<title>Node4&#45;&gt;Node5</title>
<g id="a_edge5_Node000004_Node000005"><a xlink:title=" ">
<path fill="none" stroke="#63b8ff" d="M244,-164.84C244,-157.21 244,-147.7 244,-139.45"/>
<polygon fill="#63b8ff" stroke="#63b8ff" points="247.5,-139.27 244,-129.27 240.5,-139.27 247.5,-139.27"/>
</a>
</g>
</g>
<!-- Node12 -->
<g id="Node000012" class="node">
<title>Node12</title>
<g id="a_Node000012"><a xlink:href="traits_8hpp.html" target="_top" xlink:title="Type traits definition for vector and scalar fields.">
<polygon fill="white" stroke="#666666" points="402.5,-129 339.5,-129 339.5,-110 402.5,-110 402.5,-129"/>
<text text-anchor="middle" x="371" y="-117" font-family="Helvetica,sans-Serif" font-size="10.00">traits.hpp</text>
</a>
</g>
</g>
<!-- Node4&#45;&gt;Node12 -->
<g id="edge13_Node000004_Node000012" class="edge">
<title>Node4&#45;&gt;Node12</title>
<g id="a_edge13_Node000004_Node000012"><a xlink:title=" ">
<path fill="none" stroke="#63b8ff" d="M274.42,-164.99C295.23,-155.4 322.62,-142.79 342.91,-133.44"/>
<polygon fill="#63b8ff" stroke="#63b8ff" points="344.63,-136.5 352.24,-129.14 341.7,-130.14 344.63,-136.5"/>
</a>
</g>
</g>
<!-- Node13 -->
<g id="Node000013" class="node">
<title>Node13</title>
<g id="a_Node000013"><a xlink:title=" ">
<polygon fill="#e0e0e0" stroke="#999999" points="479,-129 421,-129 421,-110 479,-110 479,-129"/>
<text text-anchor="middle" x="450" y="-117" font-family="Helvetica,sans-Serif" font-size="10.00">memory</text>
</a>
</g>
</g>
<!-- Node4&#45;&gt;Node13 -->
<g id="edge14_Node000004_Node000013" class="edge">
<title>Node4&#45;&gt;Node13</title>
<g id="a_edge14_Node000004_Node000013"><a xlink:title=" ">
<path fill="none" stroke="#63b8ff" d="M293.34,-164.99C329.37,-154.76 377.55,-141.07 410.93,-131.6"/>
<polygon fill="#63b8ff" stroke="#63b8ff" points="412.11,-134.9 420.78,-128.8 410.2,-128.16 412.11,-134.9"/>
</a>
</g>
</g>
<!-- Node14 -->
<g id="Node000014" class="node">
<title>Node14</title>
<g id="a_Node000014"><a xlink:title=" ">
<polygon fill="#e0e0e0" stroke="#999999" points="545,-129 497,-129 497,-110 545,-110 545,-129"/>
<text text-anchor="middle" x="521" y="-117" font-family="Helvetica,sans-Serif" font-size="10.00">iosfwd</text>
</a>
</g>
</g>
<!-- Node4&#45;&gt;Node14 -->
<g id="edge16_Node000004_Node000014" class="edge">
<title>Node4&#45;&gt;Node14</title>
<g id="a_edge16_Node000004_Node000014"><a xlink:title=" ">
<path fill="none" stroke="#63b8ff" d="M314.14,-165.59C360.63,-156.48 423.18,-143.8 487.04,-129.13"/>
<polygon fill="#63b8ff" stroke="#63b8ff" points="487.93,-132.52 496.88,-126.86 486.35,-125.7 487.93,-132.52"/>
</a>
</g>
</g>
<!-- Node6 -->
<g id="Node000006" class="node">
<title>Node6</title>
<g id="a_Node000006"><a xlink:title=" ">
<polygon fill="#e0e0e0" stroke="#999999" points="298,-74 166,-74 166,-55 298,-55 298,-74"/>
<text text-anchor="middle" x="232" y="-62" font-family="Helvetica,sans-Serif" font-size="10.00">tinyformat/tinyformat.h</text>
</a>
</g>
</g>
<!-- Node5&#45;&gt;Node6 -->
<g id="edge6_Node000005_Node000006" class="edge">
<title>Node5&#45;&gt;Node6</title>
<g id="a_edge6_Node000005_Node000006"><a xlink:title=" ">
<path fill="none" stroke="#63b8ff" d="M242.02,-109.75C240.43,-102.72 238.14,-92.62 236.15,-83.84"/>
<polygon fill="#63b8ff" stroke="#63b8ff" points="239.57,-83.07 233.94,-74.09 232.74,-84.62 239.57,-83.07"/>
</a>
</g>
</g>
<!-- Node7 -->
<g id="Node000007" class="node">
<title>Node7</title>
<g id="a_Node000007"><a xlink:href="print_8hpp.html" target="_top" xlink:title="Printing helpers for std types.">
<polygon fill="white" stroke="#666666" points="376,-74 316,-74 316,-55 376,-55 376,-74"/>
<text text-anchor="middle" x="346" y="-62" font-family="Helvetica,sans-Serif" font-size="10.00">print.hpp</text>
</a>
</g>
</g>
<!-- Node5&#45;&gt;Node7 -->
<g id="edge7_Node000005_Node000007" class="edge">
<title>Node5&#45;&gt;Node7</title>
<g id="a_edge7_Node000005_Node000007"><a xlink:title=" ">
<path fill="none" stroke="#63b8ff" d="M260.39,-109.98C276.57,-101.57 301.57,-88.59 320.38,-78.81"/>
<polygon fill="#63b8ff" stroke="#63b8ff" points="322.05,-81.89 329.31,-74.17 318.83,-75.68 322.05,-81.89"/>
</a>
</g>
</g>
<!-- Node7&#45;&gt;Node3 -->
<g id="edge9_Node000007_Node000003" class="edge">
<title>Node7&#45;&gt;Node3</title>
<g id="a_edge9_Node000007_Node000003"><a xlink:title=" ">
<path fill="none" stroke="#63b8ff" d="M315.76,-55.79C277.3,-45.99 211.13,-29.13 171.28,-18.98"/>
<polygon fill="#63b8ff" stroke="#63b8ff" points="172.06,-15.57 161.51,-16.49 170.33,-22.35 172.06,-15.57"/>
</a>
</g>
</g>
<!-- Node8 -->
<g id="Node000008" class="node">
<title>Node8</title>
<g id="a_Node000008"><a xlink:title=" ">
<polygon fill="#e0e0e0" stroke="#999999" points="276,-19 216,-19 216,0 276,0 276,-19"/>
<text text-anchor="middle" x="246" y="-7" font-family="Helvetica,sans-Serif" font-size="10.00">iostream</text>
</a>
</g>
</g>
<!-- Node7&#45;&gt;Node8 -->
<g id="edge8_Node000007_Node000008" class="edge">
<title>Node7&#45;&gt;Node8</title>
<g id="a_edge8_Node000007_Node000008"><a xlink:title=" ">
<path fill="none" stroke="#63b8ff" d="M329.93,-54.98C314.14,-46.61 289.78,-33.7 271.37,-23.95"/>
<polygon fill="#63b8ff" stroke="#63b8ff" points="272.83,-20.76 262.36,-19.17 269.56,-26.95 272.83,-20.76"/>
</a>
</g>
</g>
<!-- Node9 -->
<g id="Node000009" class="node">
<title>Node9</title>
<g id="a_Node000009"><a xlink:title=" ">
<polygon fill="#e0e0e0" stroke="#999999" points="336,-19 294,-19 294,0 336,0 336,-19"/>
<text text-anchor="middle" x="315" y="-7" font-family="Helvetica,sans-Serif" font-size="10.00">array</text>
</a>
</g>
</g>
<!-- Node7&#45;&gt;Node9 -->
<g id="edge10_Node000007_Node000009" class="edge">
<title>Node7&#45;&gt;Node9</title>
<g id="a_edge10_Node000007_Node000009"><a xlink:title=" ">
<path fill="none" stroke="#63b8ff" d="M340.88,-54.75C336.64,-47.49 330.47,-36.95 325.22,-27.98"/>
<polygon fill="#63b8ff" stroke="#63b8ff" points="328.09,-25.95 320.02,-19.09 322.05,-29.49 328.09,-25.95"/>
</a>
</g>
</g>
<!-- Node10 -->
<g id="Node000010" class="node">
<title>Node10</title>
<g id="a_Node000010"><a xlink:title=" ">
<polygon fill="#e0e0e0" stroke="#999999" points="399.5,-19 354.5,-19 354.5,0 399.5,0 399.5,-19"/>
<text text-anchor="middle" x="377" y="-7" font-family="Helvetica,sans-Serif" font-size="10.00">utility</text>
</a>
</g>
</g>
<!-- Node7&#45;&gt;Node10 -->
<g id="edge11_Node000007_Node000010" class="edge">
<title>Node7&#45;&gt;Node10</title>
<g id="a_edge11_Node000007_Node000010"><a xlink:title=" ">
<path fill="none" stroke="#63b8ff" d="M351.12,-54.75C355.36,-47.49 361.53,-36.95 366.78,-27.98"/>
<polygon fill="#63b8ff" stroke="#63b8ff" points="369.95,-29.49 371.98,-19.09 363.91,-25.95 369.95,-29.49"/>
</a>
</g>
</g>
<!-- Node11 -->
<g id="Node000011" class="node">
<title>Node11</title>
<g id="a_Node000011"><a xlink:title=" ">
<polygon fill="#e0e0e0" stroke="#999999" points="458.5,-19 417.5,-19 417.5,0 458.5,0 458.5,-19"/>
<text text-anchor="middle" x="438" y="-7" font-family="Helvetica,sans-Serif" font-size="10.00">tuple</text>
</a>
</g>
</g>
<!-- Node7&#45;&gt;Node11 -->
<g id="edge12_Node000007_Node000011" class="edge">
<title>Node7&#45;&gt;Node11</title>
<g id="a_edge12_Node000007_Node000011"><a xlink:title=" ">
<path fill="none" stroke="#63b8ff" d="M360.78,-54.98C375.18,-46.69 397.31,-33.94 414.19,-24.22"/>
<polygon fill="#63b8ff" stroke="#63b8ff" points="416.03,-27.19 422.95,-19.17 412.54,-21.13 416.03,-27.19"/>
</a>
</g>
</g>
</g>
</svg>
