<?xml version="1.0" encoding="UTF-8" standalone="no"?>
<!DOCTYPE svg PUBLIC "-//W3C//DTD SVG 1.1//EN"
 "http://www.w3.org/Graphics/SVG/1.1/DTD/svg11.dtd">
<!-- Generated by graphviz version 2.43.0 (0)
 -->
<!-- Title: include/medusa/bits/approximations/Operators.hpp Pages: 1 -->
<svg width="773pt" height="313pt"
 viewBox="0.00 0.00 772.93 313.00" xmlns="http://www.w3.org/2000/svg" xmlns:xlink="http://www.w3.org/1999/xlink">
<g id="graph0" class="graph" transform="scale(1 1) rotate(0) translate(4 309)">
<title>include/medusa/bits/approximations/Operators.hpp</title>
<!-- Node1 -->
<g id="Node000001" class="node">
<title>Node1</title>
<g id="a_Node000001"><a xlink:title="Implementations of differential operator families.">
<polygon fill="#999999" stroke="#666666" points="580,-305 412,-305 412,-275 580,-275 580,-305"/>
<text text-anchor="start" x="420" y="-293" font-family="Helvetica,sans-Serif" font-size="10.00">include/medusa/bits</text>
<text text-anchor="middle" x="496" y="-282" font-family="Helvetica,sans-Serif" font-size="10.00">/approximations/Operators.hpp</text>
</a>
</g>
</g>
<!-- Node2 -->
<g id="Node000002" class="node">
<title>Node2</title>
<g id="a_Node000002"><a xlink:href="Operators__fwd_8hpp.html" target="_top" xlink:title="File defining basic differential operator families.">
<polygon fill="white" stroke="#666666" points="465,-184 357,-184 357,-165 465,-165 465,-184"/>
<text text-anchor="middle" x="411" y="-172" font-family="Helvetica,sans-Serif" font-size="10.00">Operators_fwd.hpp</text>
</a>
</g>
</g>
<!-- Node1&#45;&gt;Node2 -->
<g id="edge1_Node000001_Node000002" class="edge">
<title>Node1&#45;&gt;Node2</title>
<g id="a_edge1_Node000001_Node000002"><a xlink:title=" ">
<path fill="none" stroke="#63b8ff" d="M485.23,-274.63C469.53,-253.65 440.39,-214.75 423.67,-192.42"/>
<polygon fill="#63b8ff" stroke="#63b8ff" points="426.33,-190.14 417.54,-184.23 420.73,-194.33 426.33,-190.14"/>
</a>
</g>
</g>
<!-- Node7 -->
<g id="Node000007" class="node">
<title>Node7</title>
<g id="a_Node000007"><a xlink:href="Monomials__fwd_8hpp.html" target="_top" xlink:title="Declaration of Monomial basis.">
<polygon fill="white" stroke="#666666" points="553,-129 439,-129 439,-110 553,-110 553,-129"/>
<text text-anchor="middle" x="496" y="-117" font-family="Helvetica,sans-Serif" font-size="10.00">Monomials_fwd.hpp</text>
</a>
</g>
</g>
<!-- Node1&#45;&gt;Node7 -->
<g id="edge21_Node000001_Node000007" class="edge">
<title>Node1&#45;&gt;Node7</title>
<g id="a_edge21_Node000001_Node000007"><a xlink:title=" ">
<path fill="none" stroke="#63b8ff" d="M496,-274.92C496,-244.65 496,-173.35 496,-139.27"/>
<polygon fill="#63b8ff" stroke="#63b8ff" points="499.5,-139.25 496,-129.25 492.5,-139.25 499.5,-139.25"/>
</a>
</g>
</g>
<!-- Node16 -->
<g id="Node000016" class="node">
<title>Node16</title>
<g id="a_Node000016"><a xlink:href="RBFBasis__fwd_8hpp.html" target="_top" xlink:title="Declaration of RBF basis.">
<polygon fill="white" stroke="#666666" points="675,-239 569,-239 569,-220 675,-220 675,-239"/>
<text text-anchor="middle" x="622" y="-227" font-family="Helvetica,sans-Serif" font-size="10.00">RBFBasis_fwd.hpp</text>
</a>
</g>
</g>
<!-- Node1&#45;&gt;Node16 -->
<g id="edge22_Node000001_Node000016" class="edge">
<title>Node1&#45;&gt;Node16</title>
<g id="a_edge22_Node000001_Node000016"><a xlink:title=" ">
<path fill="none" stroke="#63b8ff" d="M526.18,-274.99C546.83,-265.4 574,-252.79 594.13,-243.44"/>
<polygon fill="#63b8ff" stroke="#63b8ff" points="595.8,-246.52 603.39,-239.14 592.85,-240.18 595.8,-246.52"/>
</a>
</g>
</g>
<!-- Node3 -->
<g id="Node000003" class="node">
<title>Node3</title>
<g id="a_Node000003"><a xlink:href="Config_8hpp.html" target="_top" xlink:title="Contains compile time settings for the project, such as Eigen plugins.">
<polygon fill="white" stroke="#666666" points="677,-74 567,-74 567,-55 677,-55 677,-74"/>
<text text-anchor="middle" x="622" y="-62" font-family="Helvetica,sans-Serif" font-size="10.00">medusa/Config.hpp</text>
</a>
</g>
</g>
<!-- Node2&#45;&gt;Node3 -->
<g id="edge2_Node000002_Node000003" class="edge">
<title>Node2&#45;&gt;Node3</title>
<g id="a_edge2_Node000002_Node000003"><a xlink:title=" ">
<path fill="none" stroke="#63b8ff" d="M464.13,-164.97C494.43,-158.41 532.18,-147.29 562,-129 581.7,-116.92 599.21,-96.72 610.15,-82.35"/>
<polygon fill="#63b8ff" stroke="#63b8ff" points="612.98,-84.41 616.08,-74.28 607.34,-80.27 612.98,-84.41"/>
</a>
</g>
</g>
<!-- Node4 -->
<g id="Node000004" class="node">
<title>Node4</title>
<g id="a_Node000004"><a xlink:title=" ">
<polygon fill="#e0e0e0" stroke="#999999" points="332.5,-19 285.5,-19 285.5,0 332.5,0 332.5,-19"/>
<text text-anchor="middle" x="309" y="-7" font-family="Helvetica,sans-Serif" font-size="10.00">vector</text>
</a>
</g>
</g>
<!-- Node2&#45;&gt;Node4 -->
<g id="edge5_Node000002_Node000004" class="edge">
<title>Node2&#45;&gt;Node4</title>
<g id="a_edge5_Node000002_Node000004"><a xlink:title=" ">
<path fill="none" stroke="#63b8ff" d="M400.05,-164.88C389.97,-156.53 375.1,-143.09 365,-129 341.78,-96.6 324.12,-53.06 315.28,-28.79"/>
<polygon fill="#63b8ff" stroke="#63b8ff" points="318.49,-27.36 311.85,-19.11 311.89,-29.7 318.49,-27.36"/>
</a>
</g>
</g>
<!-- Node5 -->
<g id="Node000005" class="node">
<title>Node5</title>
<g id="a_Node000005"><a xlink:title=" ">
<polygon fill="#e0e0e0" stroke="#999999" points="443,-19 401,-19 401,0 443,0 443,-19"/>
<text text-anchor="middle" x="422" y="-7" font-family="Helvetica,sans-Serif" font-size="10.00">array</text>
</a>
</g>
</g>
<!-- Node2&#45;&gt;Node5 -->
<g id="edge4_Node000002_Node000005" class="edge">
<title>Node2&#45;&gt;Node5</title>
<g id="a_edge4_Node000002_Node000005"><a xlink:title=" ">
<path fill="none" stroke="#63b8ff" d="M403.15,-164.95C385.96,-145.16 348,-94.81 367,-55 373.09,-42.23 384.84,-31.94 395.92,-24.49"/>
<polygon fill="#63b8ff" stroke="#63b8ff" points="397.9,-27.38 404.54,-19.12 394.2,-21.43 397.9,-27.38"/>
</a>
</g>
</g>
<!-- Node6 -->
<g id="Node000006" class="node">
<title>Node6</title>
<g id="a_Node000006"><a xlink:title=" ">
<polygon fill="#e0e0e0" stroke="#999999" points="444.5,-74 375.5,-74 375.5,-55 444.5,-55 444.5,-74"/>
<text text-anchor="middle" x="410" y="-62" font-family="Helvetica,sans-Serif" font-size="10.00">Eigen/Core</text>
</a>
</g>
</g>
<!-- Node2&#45;&gt;Node6 -->
<g id="edge6_Node000002_Node000006" class="edge">
<title>Node2&#45;&gt;Node6</title>
<g id="a_edge6_Node000002_Node000006"><a xlink:title=" ">
<path fill="none" stroke="#63b8ff" d="M410.92,-164.66C410.76,-147.17 410.39,-107.8 410.17,-84.27"/>
<polygon fill="#63b8ff" stroke="#63b8ff" points="413.67,-84.13 410.08,-74.16 406.67,-84.19 413.67,-84.13"/>
</a>
</g>
</g>
<!-- Node2&#45;&gt;Node7 -->
<g id="edge7_Node000002_Node000007" class="edge">
<title>Node2&#45;&gt;Node7</title>
<g id="a_edge7_Node000002_Node000007"><a xlink:title=" ">
<path fill="none" stroke="#63b8ff" d="M424.66,-164.98C437.84,-156.77 458.03,-144.18 473.57,-134.49"/>
<polygon fill="#63b8ff" stroke="#63b8ff" points="475.46,-137.43 482.09,-129.17 471.76,-131.49 475.46,-137.43"/>
</a>
</g>
</g>
<!-- Node10 -->
<g id="Node000010" class="node">
<title>Node10</title>
<g id="a_Node000010"><a xlink:href="assert_8hpp.html" target="_top" xlink:title="Implementation of custom assert and debug utilities.">
<polygon fill="white" stroke="#666666" points="280.5,-129 125.5,-129 125.5,-110 280.5,-110 280.5,-129"/>
<text text-anchor="middle" x="203" y="-117" font-family="Helvetica,sans-Serif" font-size="10.00">medusa/bits/utils/assert.hpp</text>
</a>
</g>
</g>
<!-- Node2&#45;&gt;Node10 -->
<g id="edge13_Node000002_Node000010" class="edge">
<title>Node2&#45;&gt;Node10</title>
<g id="a_edge13_Node000002_Node000010"><a xlink:title=" ">
<path fill="none" stroke="#63b8ff" d="M377.58,-164.98C342.06,-155.93 285.73,-141.58 246.7,-131.64"/>
<polygon fill="#63b8ff" stroke="#63b8ff" points="247.24,-128.16 236.68,-129.08 245.51,-134.94 247.24,-128.16"/>
</a>
</g>
</g>
<!-- Node3&#45;&gt;Node4 -->
<g id="edge3_Node000003_Node000004" class="edge">
<title>Node3&#45;&gt;Node4</title>
<g id="a_edge3_Node000003_Node000004"><a xlink:title=" ">
<path fill="none" stroke="#63b8ff" d="M571.71,-54.98C507.42,-44.1 397.86,-25.55 342.76,-16.22"/>
<polygon fill="#63b8ff" stroke="#63b8ff" points="343.25,-12.75 332.81,-14.53 342.08,-19.65 343.25,-12.75"/>
</a>
</g>
</g>
<!-- Node7&#45;&gt;Node3 -->
<g id="edge8_Node000007_Node000003" class="edge">
<title>Node7&#45;&gt;Node3</title>
<g id="a_edge8_Node000007_Node000003"><a xlink:title=" ">
<path fill="none" stroke="#63b8ff" d="M516.24,-109.98C536.7,-101.38 568.53,-87.99 591.93,-78.15"/>
<polygon fill="#63b8ff" stroke="#63b8ff" points="593.53,-81.27 601.39,-74.17 590.81,-74.82 593.53,-81.27"/>
</a>
</g>
</g>
<!-- Node7&#45;&gt;Node5 -->
<g id="edge10_Node000007_Node000005" class="edge">
<title>Node7&#45;&gt;Node5</title>
<g id="a_edge10_Node000007_Node000005"><a xlink:title=" ">
<path fill="none" stroke="#63b8ff" d="M490.4,-109.8C482.45,-97.5 467.36,-74.37 454,-55 447.65,-45.8 440.39,-35.67 434.39,-27.4"/>
<polygon fill="#63b8ff" stroke="#63b8ff" points="437.2,-25.31 428.48,-19.29 431.54,-29.44 437.2,-25.31"/>
</a>
</g>
</g>
<!-- Node7&#45;&gt;Node6 -->
<g id="edge11_Node000007_Node000006" class="edge">
<title>Node7&#45;&gt;Node6</title>
<g id="a_edge11_Node000007_Node000006"><a xlink:title=" ">
<path fill="none" stroke="#63b8ff" d="M482.18,-109.98C468.85,-101.77 448.42,-89.18 432.69,-79.49"/>
<polygon fill="#63b8ff" stroke="#63b8ff" points="434.42,-76.44 424.07,-74.17 430.75,-82.4 434.42,-76.44"/>
</a>
</g>
</g>
<!-- Node8 -->
<g id="Node000008" class="node">
<title>Node8</title>
<g id="a_Node000008"><a xlink:title=" ">
<polygon fill="#e0e0e0" stroke="#999999" points="548.5,-74 501.5,-74 501.5,-55 548.5,-55 548.5,-74"/>
<text text-anchor="middle" x="525" y="-62" font-family="Helvetica,sans-Serif" font-size="10.00">cmath</text>
</a>
</g>
</g>
<!-- Node7&#45;&gt;Node8 -->
<g id="edge9_Node000007_Node000008" class="edge">
<title>Node7&#45;&gt;Node8</title>
<g id="a_edge9_Node000007_Node000008"><a xlink:title=" ">
<path fill="none" stroke="#63b8ff" d="M500.79,-109.75C504.76,-102.49 510.53,-91.95 515.43,-82.98"/>
<polygon fill="#63b8ff" stroke="#63b8ff" points="518.57,-84.54 520.3,-74.09 512.43,-81.18 518.57,-84.54"/>
</a>
</g>
</g>
<!-- Node9 -->
<g id="Node000009" class="node">
<title>Node9</title>
<g id="a_Node000009"><a xlink:title=" ">
<polygon fill="#e0e0e0" stroke="#999999" points="743,-74 695,-74 695,-55 743,-55 743,-74"/>
<text text-anchor="middle" x="719" y="-62" font-family="Helvetica,sans-Serif" font-size="10.00">iosfwd</text>
</a>
</g>
</g>
<!-- Node7&#45;&gt;Node9 -->
<g id="edge12_Node000007_Node000009" class="edge">
<title>Node7&#45;&gt;Node9</title>
<g id="a_edge12_Node000007_Node000009"><a xlink:title=" ">
<path fill="none" stroke="#63b8ff" d="M533.55,-109.96C569.9,-101.64 626.8,-88.46 685.12,-74.18"/>
<polygon fill="#63b8ff" stroke="#63b8ff" points="685.99,-77.57 694.86,-71.78 684.32,-70.77 685.99,-77.57"/>
</a>
</g>
</g>
<!-- Node11 -->
<g id="Node000011" class="node">
<title>Node11</title>
<g id="a_Node000011"><a xlink:title=" ">
<polygon fill="#e0e0e0" stroke="#999999" points="281,-74 149,-74 149,-55 281,-55 281,-74"/>
<text text-anchor="middle" x="215" y="-62" font-family="Helvetica,sans-Serif" font-size="10.00">tinyformat/tinyformat.h</text>
</a>
</g>
</g>
<!-- Node10&#45;&gt;Node11 -->
<g id="edge14_Node000010_Node000011" class="edge">
<title>Node10&#45;&gt;Node11</title>
<g id="a_edge14_Node000010_Node000011"><a xlink:title=" ">
<path fill="none" stroke="#63b8ff" d="M204.98,-109.75C206.57,-102.72 208.86,-92.62 210.85,-83.84"/>
<polygon fill="#63b8ff" stroke="#63b8ff" points="214.26,-84.62 213.06,-74.09 207.43,-83.07 214.26,-84.62"/>
</a>
</g>
</g>
<!-- Node12 -->
<g id="Node000012" class="node">
<title>Node12</title>
<g id="a_Node000012"><a xlink:href="print_8hpp.html" target="_top" xlink:title="Printing helpers for std types.">
<polygon fill="white" stroke="#666666" points="131,-74 71,-74 71,-55 131,-55 131,-74"/>
<text text-anchor="middle" x="101" y="-62" font-family="Helvetica,sans-Serif" font-size="10.00">print.hpp</text>
</a>
</g>
</g>
<!-- Node10&#45;&gt;Node12 -->
<g id="edge15_Node000010_Node000012" class="edge">
<title>Node10&#45;&gt;Node12</title>
<g id="a_edge15_Node000010_Node000012"><a xlink:title=" ">
<path fill="none" stroke="#63b8ff" d="M186.61,-109.98C170.43,-101.57 145.43,-88.59 126.62,-78.81"/>
<polygon fill="#63b8ff" stroke="#63b8ff" points="128.17,-75.68 117.69,-74.17 124.95,-81.89 128.17,-75.68"/>
</a>
</g>
</g>
<!-- Node12&#45;&gt;Node4 -->
<g id="edge17_Node000012_Node000004" class="edge">
<title>Node12&#45;&gt;Node4</title>
<g id="a_edge17_Node000012_Node000004"><a xlink:title=" ">
<path fill="none" stroke="#63b8ff" d="M131.24,-55.79C169.7,-45.99 235.87,-29.13 275.72,-18.98"/>
<polygon fill="#63b8ff" stroke="#63b8ff" points="276.67,-22.35 285.49,-16.49 274.94,-15.57 276.67,-22.35"/>
</a>
</g>
</g>
<!-- Node12&#45;&gt;Node5 -->
<g id="edge18_Node000012_Node000005" class="edge">
<title>Node12&#45;&gt;Node5</title>
<g id="a_edge18_Node000012_Node000005"><a xlink:title=" ">
<path fill="none" stroke="#63b8ff" d="M131.2,-56.74C134.17,-56.13 137.14,-55.54 140,-55 230.69,-37.98 338.62,-22.18 390.75,-14.83"/>
<polygon fill="#63b8ff" stroke="#63b8ff" points="391.29,-18.29 400.7,-13.43 390.31,-11.35 391.29,-18.29"/>
</a>
</g>
</g>
<!-- Node13 -->
<g id="Node000013" class="node">
<title>Node13</title>
<g id="a_Node000013"><a xlink:title=" ">
<polygon fill="#e0e0e0" stroke="#999999" points="60,-19 0,-19 0,0 60,0 60,-19"/>
<text text-anchor="middle" x="30" y="-7" font-family="Helvetica,sans-Serif" font-size="10.00">iostream</text>
</a>
</g>
</g>
<!-- Node12&#45;&gt;Node13 -->
<g id="edge16_Node000012_Node000013" class="edge">
<title>Node12&#45;&gt;Node13</title>
<g id="a_edge16_Node000012_Node000013"><a xlink:title=" ">
<path fill="none" stroke="#63b8ff" d="M89.59,-54.98C78.89,-47 62.66,-34.88 49.84,-25.31"/>
<polygon fill="#63b8ff" stroke="#63b8ff" points="51.72,-22.35 41.61,-19.17 47.53,-27.96 51.72,-22.35"/>
</a>
</g>
</g>
<!-- Node14 -->
<g id="Node000014" class="node">
<title>Node14</title>
<g id="a_Node000014"><a xlink:title=" ">
<polygon fill="#e0e0e0" stroke="#999999" points="123.5,-19 78.5,-19 78.5,0 123.5,0 123.5,-19"/>
<text text-anchor="middle" x="101" y="-7" font-family="Helvetica,sans-Serif" font-size="10.00">utility</text>
</a>
</g>
</g>
<!-- Node12&#45;&gt;Node14 -->
<g id="edge19_Node000012_Node000014" class="edge">
<title>Node12&#45;&gt;Node14</title>
<g id="a_edge19_Node000012_Node000014"><a xlink:title=" ">
<path fill="none" stroke="#63b8ff" d="M101,-54.75C101,-47.8 101,-37.85 101,-29.13"/>
<polygon fill="#63b8ff" stroke="#63b8ff" points="104.5,-29.09 101,-19.09 97.5,-29.09 104.5,-29.09"/>
</a>
</g>
</g>
<!-- Node15 -->
<g id="Node000015" class="node">
<title>Node15</title>
<g id="a_Node000015"><a xlink:title=" ">
<polygon fill="#e0e0e0" stroke="#999999" points="182.5,-19 141.5,-19 141.5,0 182.5,0 182.5,-19"/>
<text text-anchor="middle" x="162" y="-7" font-family="Helvetica,sans-Serif" font-size="10.00">tuple</text>
</a>
</g>
</g>
<!-- Node12&#45;&gt;Node15 -->
<g id="edge20_Node000012_Node000015" class="edge">
<title>Node12&#45;&gt;Node15</title>
<g id="a_edge20_Node000012_Node000015"><a xlink:title=" ">
<path fill="none" stroke="#63b8ff" d="M110.8,-54.98C119.82,-47.15 133.41,-35.34 144.32,-25.86"/>
<polygon fill="#63b8ff" stroke="#63b8ff" points="146.77,-28.37 152.02,-19.17 142.18,-23.09 146.77,-28.37"/>
</a>
</g>
</g>
<!-- Node16&#45;&gt;Node2 -->
<g id="edge26_Node000016_Node000002" class="edge">
<title>Node16&#45;&gt;Node2</title>
<g id="a_edge26_Node000016_Node000002"><a xlink:title=" ">
<path fill="none" stroke="#63b8ff" d="M588.1,-219.98C551.98,-210.91 494.68,-196.52 455.08,-186.57"/>
<polygon fill="#63b8ff" stroke="#63b8ff" points="455.72,-183.12 445.17,-184.08 454.01,-189.91 455.72,-183.12"/>
</a>
</g>
</g>
<!-- Node16&#45;&gt;Node3 -->
<g id="edge23_Node000016_Node000003" class="edge">
<title>Node16&#45;&gt;Node3</title>
<g id="a_edge23_Node000016_Node000003"><a xlink:title=" ">
<path fill="none" stroke="#63b8ff" d="M622,-219.74C622,-194.31 622,-120.08 622,-84.69"/>
<polygon fill="#63b8ff" stroke="#63b8ff" points="625.5,-84.31 622,-74.31 618.5,-84.31 625.5,-84.31"/>
</a>
</g>
</g>
<!-- Node16&#45;&gt;Node5 -->
<g id="edge25_Node000016_Node000005" class="edge">
<title>Node16&#45;&gt;Node5</title>
<g id="a_edge25_Node000016_Node000005"><a xlink:title=" ">
<path fill="none" stroke="#63b8ff" d="M637.48,-219.84C682.06,-193.89 804.27,-114.79 752,-55 713.38,-10.82 528.48,-8.73 453.59,-9.75"/>
<polygon fill="#63b8ff" stroke="#63b8ff" points="453.31,-6.26 443.37,-9.92 453.43,-13.26 453.31,-6.26"/>
</a>
</g>
</g>
<!-- Node16&#45;&gt;Node9 -->
<g id="edge24_Node000016_Node000009" class="edge">
<title>Node16&#45;&gt;Node9</title>
<g id="a_edge24_Node000016_Node000009"><a xlink:title=" ">
<path fill="none" stroke="#63b8ff" d="M627.22,-219.74C642.54,-193.98 687.68,-118.13 708.39,-83.33"/>
<polygon fill="#63b8ff" stroke="#63b8ff" points="711.65,-84.69 713.76,-74.31 705.64,-81.11 711.65,-84.69"/>
</a>
</g>
</g>
</g>
</svg>
