<?xml version="1.0" encoding="UTF-8" standalone="no"?>
<!DOCTYPE svg PUBLIC "-//W3C//DTD SVG 1.1//EN"
 "http://www.w3.org/Graphics/SVG/1.1/DTD/svg11.dtd">
<!-- Generated by graphviz version 2.43.0 (0)
 -->
<!-- Title: include/medusa/bits/domains/BoxShape_fwd.hpp Pages: 1 -->
<svg width="810pt" height="324pt"
 viewBox="0.00 0.00 810.00 324.00" xmlns="http://www.w3.org/2000/svg" xmlns:xlink="http://www.w3.org/1999/xlink">
<g id="graph0" class="graph" transform="scale(1 1) rotate(0) translate(4 320)">
<title>include/medusa/bits/domains/BoxShape_fwd.hpp</title>
<!-- Node1 -->
<g id="Node000001" class="node">
<title>Node1</title>
<g id="a_Node000001"><a xlink:title="Declaration of class for box shaped domains.">
<polygon fill="#999999" stroke="#666666" points="675,-316 518,-316 518,-286 675,-286 675,-316"/>
<text text-anchor="start" x="526" y="-304" font-family="Helvetica,sans-Serif" font-size="10.00">include/medusa/bits</text>
<text text-anchor="middle" x="596.5" y="-293" font-family="Helvetica,sans-Serif" font-size="10.00">/domains/BoxShape_fwd.hpp</text>
</a>
</g>
</g>
<!-- Node2 -->
<g id="Node000002" class="node">
<title>Node2</title>
<g id="a_Node000002"><a xlink:href="Config_8hpp.html" target="_top" xlink:title="Contains compile time settings for the project, such as Eigen plugins.">
<polygon fill="white" stroke="#666666" points="634.5,-129 524.5,-129 524.5,-110 634.5,-110 634.5,-129"/>
<text text-anchor="middle" x="579.5" y="-117" font-family="Helvetica,sans-Serif" font-size="10.00">medusa/Config.hpp</text>
</a>
</g>
</g>
<!-- Node1&#45;&gt;Node2 -->
<g id="edge1_Node000001_Node000002" class="edge">
<title>Node1&#45;&gt;Node2</title>
<g id="a_edge1_Node000001_Node000002"><a xlink:title=" ">
<path fill="none" stroke="#63b8ff" d="M600.41,-285.9C606.67,-261.01 617.1,-207.85 605.5,-165 602.84,-155.19 597.43,-145.33 592.22,-137.39"/>
<polygon fill="#63b8ff" stroke="#63b8ff" points="595,-135.25 586.39,-129.07 589.27,-139.27 595,-135.25"/>
</a>
</g>
</g>
<!-- Node4 -->
<g id="Node000004" class="node">
<title>Node4</title>
<g id="a_Node000004"><a xlink:href="DomainShape__fwd_8hpp.html" target="_top" xlink:title="Declaration of base class for domain shapes.">
<polygon fill="white" stroke="#666666" points="571.5,-250 443.5,-250 443.5,-231 571.5,-231 571.5,-250"/>
<text text-anchor="middle" x="507.5" y="-238" font-family="Helvetica,sans-Serif" font-size="10.00">DomainShape_fwd.hpp</text>
</a>
</g>
</g>
<!-- Node1&#45;&gt;Node4 -->
<g id="edge3_Node000001_Node000004" class="edge">
<title>Node1&#45;&gt;Node4</title>
<g id="a_edge3_Node000001_Node000004"><a xlink:title=" ">
<path fill="none" stroke="#63b8ff" d="M574.96,-285.84C561.03,-276.68 542.97,-264.82 529.05,-255.66"/>
<polygon fill="#63b8ff" stroke="#63b8ff" points="530.85,-252.66 520.58,-250.09 527.01,-258.51 530.85,-252.66"/>
</a>
</g>
</g>
<!-- Node14 -->
<g id="Node000014" class="node">
<title>Node14</title>
<g id="a_Node000014"><a xlink:href="Vec__fwd_8hpp.html" target="_top" xlink:title="Declaration of Vec.">
<polygon fill="white" stroke="#666666" points="802,-195 675,-195 675,-165 802,-165 802,-195"/>
<text text-anchor="start" x="683" y="-183" font-family="Helvetica,sans-Serif" font-size="10.00">medusa/bits/types/Vec</text>
<text text-anchor="middle" x="738.5" y="-172" font-family="Helvetica,sans-Serif" font-size="10.00">_fwd.hpp</text>
</a>
</g>
</g>
<!-- Node1&#45;&gt;Node14 -->
<g id="edge30_Node000001_Node000014" class="edge">
<title>Node1&#45;&gt;Node14</title>
<g id="a_edge30_Node000001_Node000014"><a xlink:title=" ">
<path fill="none" stroke="#63b8ff" d="M615.22,-285.85C628.11,-276 645.54,-262.44 660.5,-250 679.44,-234.25 700.31,-215.72 715.7,-201.83"/>
<polygon fill="#63b8ff" stroke="#63b8ff" points="718.14,-204.34 723.2,-195.03 713.44,-199.15 718.14,-204.34"/>
</a>
</g>
</g>
<!-- Node19 -->
<g id="Node000019" class="node">
<title>Node19</title>
<g id="a_Node000019"><a xlink:href="Range__fwd_8hpp.html" target="_top" xlink:title="Declaration of Range.">
<polygon fill="white" stroke="#666666" points="232.5,-195 92.5,-195 92.5,-165 232.5,-165 232.5,-195"/>
<text text-anchor="start" x="100.5" y="-183" font-family="Helvetica,sans-Serif" font-size="10.00">medusa/bits/types/Range</text>
<text text-anchor="middle" x="162.5" y="-172" font-family="Helvetica,sans-Serif" font-size="10.00">_fwd.hpp</text>
</a>
</g>
</g>
<!-- Node1&#45;&gt;Node19 -->
<g id="edge23_Node000001_Node000019" class="edge">
<title>Node1&#45;&gt;Node19</title>
<g id="a_edge23_Node000001_Node000019"><a xlink:title=" ">
<path fill="none" stroke="#63b8ff" d="M545.44,-286C465.15,-263.98 309.69,-221.36 223.59,-197.75"/>
<polygon fill="#63b8ff" stroke="#63b8ff" points="224.27,-194.31 213.7,-195.04 222.42,-201.06 224.27,-194.31"/>
</a>
</g>
</g>
<!-- Node3 -->
<g id="Node000003" class="node">
<title>Node3</title>
<g id="a_Node000003"><a xlink:title=" ">
<polygon fill="#e0e0e0" stroke="#999999" points="308,-19 261,-19 261,0 308,0 308,-19"/>
<text text-anchor="middle" x="284.5" y="-7" font-family="Helvetica,sans-Serif" font-size="10.00">vector</text>
</a>
</g>
</g>
<!-- Node2&#45;&gt;Node3 -->
<g id="edge2_Node000002_Node000003" class="edge">
<title>Node2&#45;&gt;Node3</title>
<g id="a_edge2_Node000002_Node000003"><a xlink:title=" ">
<path fill="none" stroke="#63b8ff" d="M568.17,-109.99C549.58,-96.41 511,-69.87 474.5,-55 422.02,-33.61 357,-21.18 318.24,-15.12"/>
<polygon fill="#63b8ff" stroke="#63b8ff" points="318.44,-11.62 308.03,-13.58 317.4,-18.54 318.44,-11.62"/>
</a>
</g>
</g>
<!-- Node4&#45;&gt;Node2 -->
<g id="edge4_Node000004_Node000002" class="edge">
<title>Node4&#45;&gt;Node2</title>
<g id="a_edge4_Node000004_Node000002"><a xlink:title=" ">
<path fill="none" stroke="#63b8ff" d="M538.92,-230.97C556.84,-224.32 577.8,-213.09 588.5,-195 598.63,-177.87 593.47,-154.66 587.66,-138.72"/>
<polygon fill="#63b8ff" stroke="#63b8ff" points="590.72,-136.96 583.71,-129.01 584.23,-139.6 590.72,-136.96"/>
</a>
</g>
</g>
<!-- Node5 -->
<g id="Node000005" class="node">
<title>Node5</title>
<g id="a_Node000005"><a xlink:href="memutils_8hpp.html" target="_top" xlink:title="Declaration of memory related utilities.">
<polygon fill="white" stroke="#666666" points="422,-189.5 251,-189.5 251,-170.5 422,-170.5 422,-189.5"/>
<text text-anchor="middle" x="336.5" y="-177.5" font-family="Helvetica,sans-Serif" font-size="10.00">medusa/bits/utils/memutils.hpp</text>
</a>
</g>
</g>
<!-- Node4&#45;&gt;Node5 -->
<g id="edge5_Node000004_Node000005" class="edge">
<title>Node4&#45;&gt;Node5</title>
<g id="a_edge5_Node000004_Node000005"><a xlink:title=" ">
<path fill="none" stroke="#63b8ff" d="M482.64,-230.99C453.25,-220.94 404.19,-204.16 371.11,-192.84"/>
<polygon fill="#63b8ff" stroke="#63b8ff" points="371.99,-189.44 361.39,-189.52 369.72,-196.07 371.99,-189.44"/>
</a>
</g>
</g>
<!-- Node12 -->
<g id="Node000012" class="node">
<title>Node12</title>
<g id="a_Node000012"><a xlink:title=" ">
<polygon fill="#e0e0e0" stroke="#999999" points="45,-19 0,-19 0,0 45,0 45,-19"/>
<text text-anchor="middle" x="22.5" y="-7" font-family="Helvetica,sans-Serif" font-size="10.00">utility</text>
</a>
</g>
</g>
<!-- Node4&#45;&gt;Node12 -->
<g id="edge20_Node000004_Node000012" class="edge">
<title>Node4&#45;&gt;Node12</title>
<g id="a_edge20_Node000004_Node000012"><a xlink:title=" ">
<path fill="none" stroke="#63b8ff" d="M443.06,-236.82C328.31,-231.49 97.87,-218.04 69.5,-195 19.27,-154.21 18.38,-67.93 20.74,-29.57"/>
<polygon fill="#63b8ff" stroke="#63b8ff" points="24.25,-29.55 21.52,-19.31 17.27,-29.01 24.25,-29.55"/>
</a>
</g>
</g>
<!-- Node4&#45;&gt;Node14 -->
<g id="edge16_Node000004_Node000014" class="edge">
<title>Node4&#45;&gt;Node14</title>
<g id="a_edge16_Node000004_Node000014"><a xlink:title=" ">
<path fill="none" stroke="#63b8ff" d="M541.09,-230.99C575.57,-222.26 630.11,-208.45 673.13,-197.55"/>
<polygon fill="#63b8ff" stroke="#63b8ff" points="674.13,-200.91 682.96,-195.06 672.41,-194.13 674.13,-200.91"/>
</a>
</g>
</g>
<!-- Node16 -->
<g id="Node000016" class="node">
<title>Node16</title>
<g id="a_Node000016"><a xlink:title=" ">
<polygon fill="#e0e0e0" stroke="#999999" points="105.5,-129 57.5,-129 57.5,-110 105.5,-110 105.5,-129"/>
<text text-anchor="middle" x="81.5" y="-117" font-family="Helvetica,sans-Serif" font-size="10.00">iosfwd</text>
</a>
</g>
</g>
<!-- Node4&#45;&gt;Node16 -->
<g id="edge19_Node000004_Node000016" class="edge">
<title>Node4&#45;&gt;Node16</title>
<g id="a_edge19_Node000004_Node000016"><a xlink:title=" ">
<path fill="none" stroke="#63b8ff" d="M443.13,-237.33C330.54,-232.88 107.44,-220.88 83.5,-195 69.81,-180.2 72.04,-155.8 75.89,-138.99"/>
<polygon fill="#63b8ff" stroke="#63b8ff" points="79.31,-139.77 78.5,-129.2 72.54,-137.96 79.31,-139.77"/>
</a>
</g>
</g>
<!-- Node17 -->
<g id="Node000017" class="node">
<title>Node17</title>
<g id="a_Node000017"><a xlink:title=" ">
<polygon fill="#e0e0e0" stroke="#999999" points="497,-189.5 440,-189.5 440,-170.5 497,-170.5 497,-189.5"/>
<text text-anchor="middle" x="468.5" y="-177.5" font-family="Helvetica,sans-Serif" font-size="10.00">ostream</text>
</a>
</g>
</g>
<!-- Node4&#45;&gt;Node17 -->
<g id="edge21_Node000004_Node000017" class="edge">
<title>Node4&#45;&gt;Node17</title>
<g id="a_edge21_Node000004_Node000017"><a xlink:title=" ">
<path fill="none" stroke="#63b8ff" d="M501.75,-230.87C496.04,-222.31 487.15,-208.97 479.99,-198.24"/>
<polygon fill="#63b8ff" stroke="#63b8ff" points="482.74,-196.05 474.28,-189.67 476.91,-199.93 482.74,-196.05"/>
</a>
</g>
</g>
<!-- Node18 -->
<g id="Node000018" class="node">
<title>Node18</title>
<g id="a_Node000018"><a xlink:title=" ">
<polygon fill="#e0e0e0" stroke="#999999" points="580,-189.5 515,-189.5 515,-170.5 580,-170.5 580,-189.5"/>
<text text-anchor="middle" x="547.5" y="-177.5" font-family="Helvetica,sans-Serif" font-size="10.00">functional</text>
</a>
</g>
</g>
<!-- Node4&#45;&gt;Node18 -->
<g id="edge22_Node000004_Node000018" class="edge">
<title>Node4&#45;&gt;Node18</title>
<g id="a_edge22_Node000004_Node000018"><a xlink:title=" ">
<path fill="none" stroke="#63b8ff" d="M513.4,-230.87C519.25,-222.31 528.37,-208.97 535.71,-198.24"/>
<polygon fill="#63b8ff" stroke="#63b8ff" points="538.82,-199.9 541.57,-189.67 533.04,-195.95 538.82,-199.9"/>
</a>
</g>
</g>
<!-- Node5&#45;&gt;Node2 -->
<g id="edge7_Node000005_Node000002" class="edge">
<title>Node5&#45;&gt;Node2</title>
<g id="a_edge7_Node000005_Node000002"><a xlink:title=" ">
<path fill="none" stroke="#63b8ff" d="M371.83,-170.49C414.76,-160.16 487.24,-142.71 534.22,-131.4"/>
<polygon fill="#63b8ff" stroke="#63b8ff" points="535.22,-134.76 544.12,-129.02 533.58,-127.95 535.22,-134.76"/>
</a>
</g>
</g>
<!-- Node6 -->
<g id="Node000006" class="node">
<title>Node6</title>
<g id="a_Node000006"><a xlink:title=" ">
<polygon fill="#e0e0e0" stroke="#999999" points="303.5,-129 245.5,-129 245.5,-110 303.5,-110 303.5,-129"/>
<text text-anchor="middle" x="274.5" y="-117" font-family="Helvetica,sans-Serif" font-size="10.00">memory</text>
</a>
</g>
</g>
<!-- Node5&#45;&gt;Node6 -->
<g id="edge6_Node000005_Node000006" class="edge">
<title>Node5&#45;&gt;Node6</title>
<g id="a_edge6_Node000005_Node000006"><a xlink:title=" ">
<path fill="none" stroke="#63b8ff" d="M327.35,-170.37C317.83,-161.38 302.7,-147.11 291.07,-136.14"/>
<polygon fill="#63b8ff" stroke="#63b8ff" points="293.36,-133.48 283.69,-129.17 288.56,-138.58 293.36,-133.48"/>
</a>
</g>
</g>
<!-- Node7 -->
<g id="Node000007" class="node">
<title>Node7</title>
<g id="a_Node000007"><a xlink:href="assert_8hpp.html" target="_top" xlink:title="Implementation of custom assert and debug utilities.">
<polygon fill="white" stroke="#666666" points="477,-129 322,-129 322,-110 477,-110 477,-129"/>
<text text-anchor="middle" x="399.5" y="-117" font-family="Helvetica,sans-Serif" font-size="10.00">medusa/bits/utils/assert.hpp</text>
</a>
</g>
</g>
<!-- Node5&#45;&gt;Node7 -->
<g id="edge8_Node000005_Node000007" class="edge">
<title>Node5&#45;&gt;Node7</title>
<g id="a_edge8_Node000005_Node000007"><a xlink:title=" ">
<path fill="none" stroke="#63b8ff" d="M345.8,-170.37C355.47,-161.38 370.84,-147.11 382.66,-136.14"/>
<polygon fill="#63b8ff" stroke="#63b8ff" points="385.22,-138.54 390.17,-129.17 380.46,-133.41 385.22,-138.54"/>
</a>
</g>
</g>
<!-- Node8 -->
<g id="Node000008" class="node">
<title>Node8</title>
<g id="a_Node000008"><a xlink:title=" ">
<polygon fill="#e0e0e0" stroke="#999999" points="465.5,-74 333.5,-74 333.5,-55 465.5,-55 465.5,-74"/>
<text text-anchor="middle" x="399.5" y="-62" font-family="Helvetica,sans-Serif" font-size="10.00">tinyformat/tinyformat.h</text>
</a>
</g>
</g>
<!-- Node7&#45;&gt;Node8 -->
<g id="edge9_Node000007_Node000008" class="edge">
<title>Node7&#45;&gt;Node8</title>
<g id="a_edge9_Node000007_Node000008"><a xlink:title=" ">
<path fill="none" stroke="#63b8ff" d="M399.5,-109.75C399.5,-102.8 399.5,-92.85 399.5,-84.13"/>
<polygon fill="#63b8ff" stroke="#63b8ff" points="403,-84.09 399.5,-74.09 396,-84.09 403,-84.09"/>
</a>
</g>
</g>
<!-- Node9 -->
<g id="Node000009" class="node">
<title>Node9</title>
<g id="a_Node000009"><a xlink:href="print_8hpp.html" target="_top" xlink:title="Printing helpers for std types.">
<polygon fill="white" stroke="#666666" points="189.5,-74 129.5,-74 129.5,-55 189.5,-55 189.5,-74"/>
<text text-anchor="middle" x="159.5" y="-62" font-family="Helvetica,sans-Serif" font-size="10.00">print.hpp</text>
</a>
</g>
</g>
<!-- Node7&#45;&gt;Node9 -->
<g id="edge10_Node000007_Node000009" class="edge">
<title>Node7&#45;&gt;Node9</title>
<g id="a_edge10_Node000007_Node000009"><a xlink:title=" ">
<path fill="none" stroke="#63b8ff" d="M360.94,-109.98C316.69,-100.21 244.45,-84.26 199.57,-74.35"/>
<polygon fill="#63b8ff" stroke="#63b8ff" points="200.13,-70.89 189.61,-72.15 198.62,-77.72 200.13,-70.89"/>
</a>
</g>
</g>
<!-- Node9&#45;&gt;Node3 -->
<g id="edge12_Node000009_Node000003" class="edge">
<title>Node9&#45;&gt;Node3</title>
<g id="a_edge12_Node000009_Node000003"><a xlink:title=" ">
<path fill="none" stroke="#63b8ff" d="M179.58,-54.98C199.87,-46.38 231.46,-32.99 254.67,-23.15"/>
<polygon fill="#63b8ff" stroke="#63b8ff" points="256.21,-26.3 264.05,-19.17 253.48,-19.85 256.21,-26.3"/>
</a>
</g>
</g>
<!-- Node10 -->
<g id="Node000010" class="node">
<title>Node10</title>
<g id="a_Node000010"><a xlink:title=" ">
<polygon fill="#e0e0e0" stroke="#999999" points="123.5,-19 63.5,-19 63.5,0 123.5,0 123.5,-19"/>
<text text-anchor="middle" x="93.5" y="-7" font-family="Helvetica,sans-Serif" font-size="10.00">iostream</text>
</a>
</g>
</g>
<!-- Node9&#45;&gt;Node10 -->
<g id="edge11_Node000009_Node000010" class="edge">
<title>Node9&#45;&gt;Node10</title>
<g id="a_edge11_Node000009_Node000010"><a xlink:title=" ">
<path fill="none" stroke="#63b8ff" d="M148.9,-54.98C139.04,-47.07 124.15,-35.11 112.28,-25.58"/>
<polygon fill="#63b8ff" stroke="#63b8ff" points="114.29,-22.7 104.3,-19.17 109.9,-28.16 114.29,-22.7"/>
</a>
</g>
</g>
<!-- Node11 -->
<g id="Node000011" class="node">
<title>Node11</title>
<g id="a_Node000011"><a xlink:title=" ">
<polygon fill="#e0e0e0" stroke="#999999" points="183.5,-19 141.5,-19 141.5,0 183.5,0 183.5,-19"/>
<text text-anchor="middle" x="162.5" y="-7" font-family="Helvetica,sans-Serif" font-size="10.00">array</text>
</a>
</g>
</g>
<!-- Node9&#45;&gt;Node11 -->
<g id="edge13_Node000009_Node000011" class="edge">
<title>Node9&#45;&gt;Node11</title>
<g id="a_edge13_Node000009_Node000011"><a xlink:title=" ">
<path fill="none" stroke="#63b8ff" d="M160,-54.75C160.39,-47.8 160.95,-37.85 161.45,-29.13"/>
<polygon fill="#63b8ff" stroke="#63b8ff" points="164.94,-29.27 162.01,-19.09 157.95,-28.88 164.94,-29.27"/>
</a>
</g>
</g>
<!-- Node9&#45;&gt;Node12 -->
<g id="edge14_Node000009_Node000012" class="edge">
<title>Node9&#45;&gt;Node12</title>
<g id="a_edge14_Node000009_Node000012"><a xlink:title=" ">
<path fill="none" stroke="#63b8ff" d="M137.49,-54.98C115.05,-46.3 80.02,-32.75 54.51,-22.88"/>
<polygon fill="#63b8ff" stroke="#63b8ff" points="55.5,-19.51 44.91,-19.17 52.98,-26.04 55.5,-19.51"/>
</a>
</g>
</g>
<!-- Node13 -->
<g id="Node000013" class="node">
<title>Node13</title>
<g id="a_Node000013"><a xlink:title=" ">
<polygon fill="#e0e0e0" stroke="#999999" points="243,-19 202,-19 202,0 243,0 243,-19"/>
<text text-anchor="middle" x="222.5" y="-7" font-family="Helvetica,sans-Serif" font-size="10.00">tuple</text>
</a>
</g>
</g>
<!-- Node9&#45;&gt;Node13 -->
<g id="edge15_Node000009_Node000013" class="edge">
<title>Node9&#45;&gt;Node13</title>
<g id="a_edge15_Node000009_Node000013"><a xlink:title=" ">
<path fill="none" stroke="#63b8ff" d="M169.62,-54.98C178.94,-47.15 192.97,-35.34 204.24,-25.86"/>
<polygon fill="#63b8ff" stroke="#63b8ff" points="206.79,-28.29 212.19,-19.17 202.29,-22.93 206.79,-28.29"/>
</a>
</g>
</g>
<!-- Node14&#45;&gt;Node2 -->
<g id="edge17_Node000014_Node000002" class="edge">
<title>Node14&#45;&gt;Node2</title>
<g id="a_edge17_Node000014_Node000002"><a xlink:title=" ">
<path fill="none" stroke="#63b8ff" d="M700.42,-164.99C673.65,-155.14 638.2,-142.1 612.61,-132.68"/>
<polygon fill="#63b8ff" stroke="#63b8ff" points="613.57,-129.31 602.98,-129.14 611.16,-135.88 613.57,-129.31"/>
</a>
</g>
</g>
<!-- Node15 -->
<g id="Node000015" class="node">
<title>Node15</title>
<g id="a_Node000015"><a xlink:title=" ">
<polygon fill="#e0e0e0" stroke="#999999" points="773,-129 704,-129 704,-110 773,-110 773,-129"/>
<text text-anchor="middle" x="738.5" y="-117" font-family="Helvetica,sans-Serif" font-size="10.00">Eigen/Core</text>
</a>
</g>
</g>
<!-- Node14&#45;&gt;Node15 -->
<g id="edge18_Node000014_Node000015" class="edge">
<title>Node14&#45;&gt;Node15</title>
<g id="a_edge18_Node000014_Node000015"><a xlink:title=" ">
<path fill="none" stroke="#63b8ff" d="M738.5,-164.84C738.5,-157.21 738.5,-147.7 738.5,-139.45"/>
<polygon fill="#63b8ff" stroke="#63b8ff" points="742,-139.27 738.5,-129.27 735,-139.27 742,-139.27"/>
</a>
</g>
</g>
<!-- Node19&#45;&gt;Node2 -->
<g id="edge24_Node000019_Node000002" class="edge">
<title>Node19&#45;&gt;Node2</title>
<g id="a_edge24_Node000019_Node000002"><a xlink:title=" ">
<path fill="none" stroke="#63b8ff" d="M232.68,-166.4C235.66,-165.91 238.61,-165.45 241.5,-165 336.08,-150.4 446.03,-136.49 514.2,-128.22"/>
<polygon fill="#63b8ff" stroke="#63b8ff" points="514.85,-131.67 524.36,-127 514.01,-124.72 514.85,-131.67"/>
</a>
</g>
</g>
<!-- Node19&#45;&gt;Node3 -->
<g id="edge28_Node000019_Node000003" class="edge">
<title>Node19&#45;&gt;Node3</title>
<g id="a_edge28_Node000019_Node000003"><a xlink:title=" ">
<path fill="none" stroke="#63b8ff" d="M172.69,-164.92C194.99,-134.12 248.04,-60.85 272.17,-27.53"/>
<polygon fill="#63b8ff" stroke="#63b8ff" points="275.13,-29.41 278.16,-19.25 269.46,-25.3 275.13,-29.41"/>
</a>
</g>
</g>
<!-- Node19&#45;&gt;Node6 -->
<g id="edge27_Node000019_Node000006" class="edge">
<title>Node19&#45;&gt;Node6</title>
<g id="a_edge27_Node000019_Node000006"><a xlink:title=" ">
<path fill="none" stroke="#63b8ff" d="M189.33,-164.99C207.35,-155.58 230.96,-143.24 248.75,-133.95"/>
<polygon fill="#63b8ff" stroke="#63b8ff" points="250.72,-136.87 257.96,-129.14 247.48,-130.67 250.72,-136.87"/>
</a>
</g>
</g>
<!-- Node19&#45;&gt;Node7 -->
<g id="edge25_Node000019_Node000007" class="edge">
<title>Node19&#45;&gt;Node7</title>
<g id="a_edge25_Node000019_Node000007"><a xlink:title=" ">
<path fill="none" stroke="#63b8ff" d="M219.27,-164.99C260.88,-154.72 316.58,-140.97 354.99,-131.49"/>
<polygon fill="#63b8ff" stroke="#63b8ff" points="355.98,-134.85 364.85,-129.05 354.3,-128.05 355.98,-134.85"/>
</a>
</g>
</g>
<!-- Node19&#45;&gt;Node16 -->
<g id="edge29_Node000019_Node000016" class="edge">
<title>Node19&#45;&gt;Node16</title>
<g id="a_edge29_Node000019_Node000016"><a xlink:title=" ">
<path fill="none" stroke="#63b8ff" d="M142.89,-164.84C130.53,-155.91 114.6,-144.41 102.07,-135.35"/>
<polygon fill="#63b8ff" stroke="#63b8ff" points="103.79,-132.28 93.64,-129.27 99.7,-137.96 103.79,-132.28"/>
</a>
</g>
</g>
<!-- Node20 -->
<g id="Node000020" class="node">
<title>Node20</title>
<g id="a_Node000020"><a xlink:href="traits_8hpp.html" target="_top" xlink:title="Type traits definition for vector and scalar fields.">
<polygon fill="white" stroke="#666666" points="189,-129 126,-129 126,-110 189,-110 189,-129"/>
<text text-anchor="middle" x="157.5" y="-117" font-family="Helvetica,sans-Serif" font-size="10.00">traits.hpp</text>
</a>
</g>
</g>
<!-- Node19&#45;&gt;Node20 -->
<g id="edge26_Node000019_Node000020" class="edge">
<title>Node19&#45;&gt;Node20</title>
<g id="a_edge26_Node000019_Node000020"><a xlink:title=" ">
<path fill="none" stroke="#63b8ff" d="M161.29,-164.84C160.64,-157.21 159.83,-147.7 159.12,-139.45"/>
<polygon fill="#63b8ff" stroke="#63b8ff" points="162.59,-138.93 158.25,-129.27 155.61,-139.53 162.59,-138.93"/>
</a>
</g>
</g>
</g>
</svg>
