<?xml version="1.0" encoding="UTF-8" standalone="no"?>
<!DOCTYPE svg PUBLIC "-//W3C//DTD SVG 1.1//EN"
 "http://www.w3.org/Graphics/SVG/1.1/DTD/svg11.dtd">
<!-- Generated by graphviz version 2.43.0 (0)
 -->
<!-- Title: include/medusa/bits/domains/BoxShape.hpp Pages: 1 -->
<!--zoomable 379 -->

<svg id="main" version="1.1" xmlns="http://www.w3.org/2000/svg" xmlns:xlink="http://www.w3.org/1999/xlink" xml:space="preserve" onload="init(evt)">
<style type="text/css"><![CDATA[
.node, .edge {opacity: 0.7;}
.node.selected, .edge.selected {opacity: 1;}
.edge:hover path { stroke: red; }
.edge:hover polygon { stroke: red; fill: red; }
]]></style>

<defs>
  <circle id="rim" cx="0" cy="0" r="7"/>
  <circle id="rim2" cx="0" cy="0" r="3.5"/>
  <g id="zoomPlus">
    <use xlink:href="#rim" fill="#404040"><set attributeName="fill" to="#808080" begin="zoomplus.mouseover" end="zoomplus.mouseout"/></use>
    <path d="M-4,0h8M0,-4v8" fill="none" stroke="white" stroke-width="1.5" pointer-events="none"/>
  </g>
  <g id="zoomMin">
    <use xlink:href="#rim" fill="#404040"><set attributeName="fill" to="#808080" begin="zoomminus.mouseover" end="zoomminus.mouseout"/></use>
    <path d="M-4,0h8" fill="none" stroke="white" stroke-width="1.5" pointer-events="none"/>
  </g>
  <g id="arrowUp" transform="translate(30 24)">
    <use xlink:href="#rim"/>
    <path pointer-events="none" fill="none" stroke="white" stroke-width="1.5" d="M0,-3.0v7 M-2.5,-0.5L0,-3.0L2.5,-0.5"/>
  </g>
  <g id="arrowRight" transform="rotate(90) translate(36 -43)">
    <use xlink:href="#rim"/>
    <path pointer-events="none" fill="none" stroke="white" stroke-width="1.5" d="M0,-3.0v7 M-2.5,-0.5L0,-3.0L2.5,-0.5"/>
  </g>
  <g id="arrowDown" transform="rotate(180) translate(-30 -48)">
    <use xlink:href="#rim"/>
    <path pointer-events="none" fill="none" stroke="white" stroke-width="1.5" d="M0,-3.0v7 M-2.5,-0.5L0,-3.0L2.5,-0.5"/>
  </g>
  <g id="arrowLeft" transform="rotate(270) translate(-36 17)">
    <use xlink:href="#rim"/>
    <path pointer-events="none" fill="none" stroke="white" stroke-width="1.5" d="M0,-3.0v7 M-2.5,-0.5L0,-3.0L2.5,-0.5"/>
  </g>
  <g id="resetDef">
    <use xlink:href="#rim2" fill="#404040"><set attributeName="fill" to="#808080" begin="reset.mouseover" end="reset.mouseout"/></use>
  </g>
</defs>
<script type="application/ecmascript">
var viewWidth = 611;
var viewHeight = 379;
var sectionId = 'dynsection-1';
</script>
<script type="application/ecmascript" xlink:href="svg.min.js"/>
<svg id="graph" class="graph">
<g id="viewport">
<title>include/medusa/bits/domains/BoxShape.hpp</title>
<!-- Node1 -->
<g id="Node000001" class="node">
<title>Node1</title>
<g id="a_Node000001"><a xlink:title="Implementation of class for box shaped domains.">
<polygon fill="#999999" stroke="#666666" points="447.07,-371 313.07,-371 313.07,-341 447.07,-341 447.07,-371"/>
<text text-anchor="start" x="321.07" y="-359" font-family="Helvetica,sans-Serif" font-size="10.00">include/medusa/bits</text>
<text text-anchor="middle" x="380.07" y="-348" font-family="Helvetica,sans-Serif" font-size="10.00">/domains/BoxShape.hpp</text>
</a>
</g>
</g>
<!-- Node2 -->
<g id="Node000002" class="node">
<title>Node2</title>
<g id="a_Node000002"><a xlink:href="Domain_8hpp.html" target="_top" xlink:title="Header for Domain module.">
<polygon fill="white" stroke="#666666" points="186.07,-79.5 30.07,-79.5 30.07,-60.5 186.07,-60.5 186.07,-79.5"/>
<text text-anchor="middle" x="108.07" y="-67.5" font-family="Helvetica,sans-Serif" font-size="10.00">include/medusa/Domain.hpp</text>
</a>
</g>
</g>
<!-- Node1&#45;&gt;Node2 -->
<g id="edge1_Node000001_Node000002" class="edge">
<title>Node1&#45;&gt;Node2</title>
<g id="a_edge1_Node000001_Node000002"><a xlink:title=" ">
<path fill="none" stroke="#63b8ff" d="M302.61,-346.6C224.92,-334.06 107.17,-303.21 38.07,-228 4.96,-191.96 -13.31,-162.84 12.07,-121 25.13,-99.47 50.82,-86.78 72.34,-79.58"/>
<polygon fill="#63b8ff" stroke="#63b8ff" points="302.41,-350.11 312.83,-348.18 303.48,-343.19 302.41,-350.11"/>
</a>
</g>
</g>
<!-- Node4 -->
<g id="Node000004" class="node">
<title>Node4</title>
<g id="a_Node000004"><a xlink:href="NURBSPatch__fwd_8hpp.html" target="_top" xlink:title="Declaration of the NURBS patch class.">
<polygon fill="white" stroke="#666666" points="349.57,-305 224.57,-305 224.57,-264 349.57,-264 349.57,-305"/>
<text text-anchor="start" x="232.57" y="-293" font-family="Helvetica,sans-Serif" font-size="10.00">include/medusa/bits</text>
<text text-anchor="start" x="232.57" y="-282" font-family="Helvetica,sans-Serif" font-size="10.00">/domains/NURBSPatch</text>
<text text-anchor="middle" x="287.07" y="-271" font-family="Helvetica,sans-Serif" font-size="10.00">_fwd.hpp</text>
</a>
</g>
</g>
<!-- Node1&#45;&gt;Node4 -->
<g id="edge3_Node000001_Node000004" class="edge">
<title>Node1&#45;&gt;Node4</title>
<g id="a_edge3_Node000001_Node000004"><a xlink:title=" ">
<path fill="none" stroke="#63b8ff" d="M353.01,-334.77C340.49,-325.42 325.67,-314.35 313.26,-305.07"/>
<polygon fill="#63b8ff" stroke="#63b8ff" points="351.15,-337.75 361.25,-340.94 355.34,-332.15 351.15,-337.75"/>
</a>
</g>
</g>
<!-- Node8 -->
<g id="Node000008" class="node">
<title>Node8</title>
<g id="a_Node000008"><a xlink:href="NURBSShape_8hpp.html" target="_top" xlink:title="Implementation of NURBSShape class.">
<polygon fill="white" stroke="#666666" points="512.07,-151 362.07,-151 362.07,-121 512.07,-121 512.07,-151"/>
<text text-anchor="start" x="370.07" y="-139" font-family="Helvetica,sans-Serif" font-size="10.00">include/medusa/bits</text>
<text text-anchor="middle" x="437.07" y="-128" font-family="Helvetica,sans-Serif" font-size="10.00">/domains/NURBSShape.hpp</text>
</a>
</g>
</g>
<!-- Node1&#45;&gt;Node8 -->
<g id="edge17_Node000001_Node000008" class="edge">
<title>Node1&#45;&gt;Node8</title>
<g id="a_edge17_Node000001_Node000008"><a xlink:title=" ">
<path fill="none" stroke="#63b8ff" d="M386.41,-330.76C398.36,-285.06 423.88,-187.47 433.39,-151.07"/>
<polygon fill="#63b8ff" stroke="#63b8ff" points="382.96,-330.14 383.81,-340.7 389.73,-331.91 382.96,-330.14"/>
</a>
</g>
</g>
<!-- Node12 -->
<g id="Node000012" class="node">
<title>Node12</title>
<g id="a_Node000012"><a xlink:href="BoxShape_8cpp.html" target="_top" xlink:title="Instantiation of class for box shaped domains.">
<polygon fill="white" stroke="#666666" points="603.07,-294 455.07,-294 455.07,-275 603.07,-275 603.07,-294"/>
<text text-anchor="middle" x="529.07" y="-282" font-family="Helvetica,sans-Serif" font-size="10.00">src/domains/BoxShape.cpp</text>
</a>
</g>
</g>
<!-- Node1&#45;&gt;Node12 -->
<g id="edge18_Node000001_Node000012" class="edge">
<title>Node1&#45;&gt;Node12</title>
<g id="a_edge18_Node000001_Node000012"><a xlink:title=" ">
<path fill="none" stroke="#63b8ff" d="M419.44,-336.63C448.98,-322.86 488.07,-304.63 510.7,-294.07"/>
<polygon fill="#63b8ff" stroke="#63b8ff" points="417.81,-333.54 410.22,-340.94 420.77,-339.88 417.81,-333.54"/>
</a>
</g>
</g>
<!-- Node3 -->
<g id="Node000003" class="node">
<title>Node3</title>
<g id="a_Node000003"><a xlink:href="Medusa_8hpp.html" target="_top" xlink:title="Main header file that includes most other components.">
<polygon fill="white" stroke="#666666" points="268.07,-19 112.07,-19 112.07,0 268.07,0 268.07,-19"/>
<text text-anchor="middle" x="190.07" y="-7" font-family="Helvetica,sans-Serif" font-size="10.00">include/medusa/Medusa.hpp</text>
</a>
</g>
</g>
<!-- Node2&#45;&gt;Node3 -->
<g id="edge2_Node000002_Node000003" class="edge">
<title>Node2&#45;&gt;Node3</title>
<g id="a_edge2_Node000002_Node000003"><a xlink:title=" ">
<path fill="none" stroke="#63b8ff" d="M128.61,-54.35C144.14,-43.27 164.94,-28.43 177.92,-19.17"/>
<polygon fill="#63b8ff" stroke="#63b8ff" points="126.28,-51.71 120.17,-60.37 130.34,-57.41 126.28,-51.71"/>
</a>
</g>
</g>
<!-- Node5 -->
<g id="Node000005" class="node">
<title>Node5</title>
<g id="a_Node000005"><a xlink:href="Domain__fwd_8hpp.html" target="_top" xlink:title="Header for Domain module, declarations only.">
<polygon fill="white" stroke="#666666" points="343.57,-151 208.57,-151 208.57,-121 343.57,-121 343.57,-151"/>
<text text-anchor="start" x="216.57" y="-139" font-family="Helvetica,sans-Serif" font-size="10.00">include/medusa/Domain</text>
<text text-anchor="middle" x="276.07" y="-128" font-family="Helvetica,sans-Serif" font-size="10.00">_fwd.hpp</text>
</a>
</g>
</g>
<!-- Node4&#45;&gt;Node5 -->
<g id="edge4_Node000004_Node000005" class="edge">
<title>Node4&#45;&gt;Node5</title>
<g id="a_edge4_Node000004_Node000005"><a xlink:title=" ">
<path fill="none" stroke="#63b8ff" d="M270.07,-254.8C265.97,-246.44 262.17,-237.1 260.07,-228 253.88,-201.11 263.23,-169.28 270.03,-151.28"/>
<polygon fill="#63b8ff" stroke="#63b8ff" points="267.02,-256.52 274.75,-263.76 273.22,-253.28 267.02,-256.52"/>
</a>
</g>
</g>
<!-- Node7 -->
<g id="Node000007" class="node">
<title>Node7</title>
<g id="a_Node000007"><a xlink:href="NURBSPatch_8hpp.html" target="_top" xlink:title="Implementation of the NURBS patch class.">
<polygon fill="white" stroke="#666666" points="193.07,-222.5 47.07,-222.5 47.07,-192.5 193.07,-192.5 193.07,-222.5"/>
<text text-anchor="start" x="55.07" y="-210.5" font-family="Helvetica,sans-Serif" font-size="10.00">include/medusa/bits</text>
<text text-anchor="middle" x="120.07" y="-199.5" font-family="Helvetica,sans-Serif" font-size="10.00">/domains/NURBSPatch.hpp</text>
</a>
</g>
</g>
<!-- Node4&#45;&gt;Node7 -->
<g id="edge8_Node000004_Node000007" class="edge">
<title>Node4&#45;&gt;Node7</title>
<g id="a_edge8_Node000004_Node000007"><a xlink:title=" ">
<path fill="none" stroke="#63b8ff" d="M234.23,-259.77C206.99,-247.54 174.71,-233.04 151.43,-222.58"/>
<polygon fill="#63b8ff" stroke="#63b8ff" points="233.07,-263.09 243.63,-263.99 235.94,-256.7 233.07,-263.09"/>
</a>
</g>
</g>
<!-- Node11 -->
<g id="Node000011" class="node">
<title>Node11</title>
<g id="a_Node000011"><a xlink:href="NURBSShape__fwd_8hpp.html" target="_top" xlink:title="Declaration of NURBSShape class.">
<polygon fill="white" stroke="#666666" points="398.57,-228 269.57,-228 269.57,-187 398.57,-187 398.57,-228"/>
<text text-anchor="start" x="277.57" y="-216" font-family="Helvetica,sans-Serif" font-size="10.00">include/medusa/bits</text>
<text text-anchor="start" x="277.57" y="-205" font-family="Helvetica,sans-Serif" font-size="10.00">/domains/NURBSShape</text>
<text text-anchor="middle" x="334.07" y="-194" font-family="Helvetica,sans-Serif" font-size="10.00">_fwd.hpp</text>
</a>
</g>
</g>
<!-- Node4&#45;&gt;Node11 -->
<g id="edge14_Node000004_Node000011" class="edge">
<title>Node4&#45;&gt;Node11</title>
<g id="a_edge14_Node000004_Node000011"><a xlink:title=" ">
<path fill="none" stroke="#63b8ff" d="M304.86,-255.11C310.51,-246.09 316.63,-236.33 321.81,-228.07"/>
<polygon fill="#63b8ff" stroke="#63b8ff" points="301.76,-253.46 299.42,-263.79 307.7,-257.18 301.76,-253.46"/>
</a>
</g>
</g>
<!-- Node5&#45;&gt;Node2 -->
<g id="edge5_Node000005_Node000002" class="edge">
<title>Node5&#45;&gt;Node2</title>
<g id="a_edge5_Node000005_Node000002"><a xlink:title=" ">
<path fill="none" stroke="#63b8ff" d="M229.5,-117.26C197.2,-104.95 155.6,-89.11 130.43,-79.52"/>
<polygon fill="#63b8ff" stroke="#63b8ff" points="228.61,-120.67 239.2,-120.95 231.1,-114.12 228.61,-120.67"/>
</a>
</g>
</g>
<!-- Node6 -->
<g id="Node000006" class="node">
<title>Node6</title>
<g id="a_Node000006"><a xlink:href="Medusa__fwd_8hpp.html" target="_top" xlink:title="Main header file that includes only declarations for some heavy classes such as mm::WLS to reduce com...">
<polygon fill="white" stroke="#666666" points="339.57,-85 204.57,-85 204.57,-55 339.57,-55 339.57,-85"/>
<text text-anchor="start" x="212.57" y="-73" font-family="Helvetica,sans-Serif" font-size="10.00">include/medusa/Medusa</text>
<text text-anchor="middle" x="272.07" y="-62" font-family="Helvetica,sans-Serif" font-size="10.00">_fwd.hpp</text>
</a>
</g>
</g>
<!-- Node5&#45;&gt;Node6 -->
<g id="edge6_Node000005_Node000006" class="edge">
<title>Node5&#45;&gt;Node6</title>
<g id="a_edge6_Node000005_Node000006"><a xlink:title=" ">
<path fill="none" stroke="#63b8ff" d="M274.54,-110.54C274.01,-101.96 273.42,-92.61 272.96,-85.16"/>
<polygon fill="#63b8ff" stroke="#63b8ff" points="271.07,-111.03 275.18,-120.8 278.05,-110.6 271.07,-111.03"/>
</a>
</g>
</g>
<!-- Node6&#45;&gt;Node3 -->
<g id="edge7_Node000006_Node000003" class="edge">
<title>Node6&#45;&gt;Node3</title>
<g id="a_edge7_Node000006_Node000003"><a xlink:title=" ">
<path fill="none" stroke="#63b8ff" d="M243.78,-48.82C229.65,-38.73 213.28,-27.05 202.36,-19.27"/>
<polygon fill="#63b8ff" stroke="#63b8ff" points="242.05,-51.88 252.22,-54.84 246.11,-46.18 242.05,-51.88"/>
</a>
</g>
</g>
<!-- Node7&#45;&gt;Node2 -->
<g id="edge9_Node000007_Node000002" class="edge">
<title>Node7&#45;&gt;Node2</title>
<g id="a_edge9_Node000007_Node000002"><a xlink:title=" ">
<path fill="none" stroke="#63b8ff" d="M64.36,-188.07C47.44,-179.57 30.78,-167.57 21.07,-151 14.33,-139.5 14.39,-132.54 21.07,-121 33.2,-100.04 57.81,-87.1 77.77,-79.65"/>
<polygon fill="#63b8ff" stroke="#63b8ff" points="63.2,-191.39 73.74,-192.44 66.15,-185.05 63.2,-191.39"/>
</a>
</g>
</g>
<!-- Node7&#45;&gt;Node8 -->
<g id="edge10_Node000007_Node000008" class="edge">
<title>Node7&#45;&gt;Node8</title>
<g id="a_edge10_Node000007_Node000008"><a xlink:title=" ">
<path fill="none" stroke="#63b8ff" d="M194.13,-190.26C248.38,-178.37 321.27,-162.39 373.02,-151.04"/>
<polygon fill="#63b8ff" stroke="#63b8ff" points="193.24,-186.88 184.22,-192.44 194.74,-193.71 193.24,-186.88"/>
</a>
</g>
</g>
<!-- Node10 -->
<g id="Node000010" class="node">
<title>Node10</title>
<g id="a_Node000010"><a xlink:href="NURBSPatch_8cpp.html" target="_top" xlink:title="Instantiations of commonly used NURBSPatch instances.">
<polygon fill="white" stroke="#666666" points="190.07,-145.5 30.07,-145.5 30.07,-126.5 190.07,-126.5 190.07,-145.5"/>
<text text-anchor="middle" x="110.07" y="-133.5" font-family="Helvetica,sans-Serif" font-size="10.00">src/domains/NURBSPatch.cpp</text>
</a>
</g>
</g>
<!-- Node7&#45;&gt;Node10 -->
<g id="edge13_Node000007_Node000010" class="edge">
<title>Node7&#45;&gt;Node10</title>
<g id="a_edge13_Node000007_Node000010"><a xlink:title=" ">
<path fill="none" stroke="#63b8ff" d="M116.61,-182.44C114.78,-169.74 112.65,-154.94 111.33,-145.77"/>
<polygon fill="#63b8ff" stroke="#63b8ff" points="113.16,-183.04 118.05,-192.44 120.09,-182.04 113.16,-183.04"/>
</a>
</g>
</g>
<!-- Node8&#45;&gt;Node2 -->
<g id="edge11_Node000008_Node000002" class="edge">
<title>Node8&#45;&gt;Node2</title>
<g id="a_edge11_Node000008_Node000002"><a xlink:title=" ">
<path fill="none" stroke="#63b8ff" d="M354.75,-118.99C290.4,-106.47 203.48,-89.56 151.86,-79.52"/>
<polygon fill="#63b8ff" stroke="#63b8ff" points="354.39,-122.48 364.87,-120.95 355.72,-115.61 354.39,-122.48"/>
</a>
</g>
</g>
<!-- Node9 -->
<g id="Node000009" class="node">
<title>Node9</title>
<g id="a_Node000009"><a xlink:href="NURBSShape_8cpp.html" target="_top" xlink:title="Instantiations of commonly used NURBSShape instances.">
<polygon fill="white" stroke="#666666" points="522.07,-79.5 358.07,-79.5 358.07,-60.5 522.07,-60.5 522.07,-79.5"/>
<text text-anchor="middle" x="440.07" y="-67.5" font-family="Helvetica,sans-Serif" font-size="10.00">src/domains/NURBSShape.cpp</text>
</a>
</g>
</g>
<!-- Node8&#45;&gt;Node9 -->
<g id="edge12_Node000008_Node000009" class="edge">
<title>Node8&#45;&gt;Node9</title>
<g id="a_edge12_Node000008_Node000009"><a xlink:title=" ">
<path fill="none" stroke="#63b8ff" d="M438.22,-110.6C438.72,-99.8 439.29,-87.78 439.66,-79.84"/>
<polygon fill="#63b8ff" stroke="#63b8ff" points="434.71,-110.64 437.74,-120.8 441.7,-110.97 434.71,-110.64"/>
</a>
</g>
</g>
<!-- Node11&#45;&gt;Node5 -->
<g id="edge15_Node000011_Node000005" class="edge">
<title>Node11&#45;&gt;Node5</title>
<g id="a_edge15_Node000011_Node000005"><a xlink:title=" ">
<path fill="none" stroke="#63b8ff" d="M311.1,-178.98C303.11,-169.4 294.48,-159.06 287.79,-151.04"/>
<polygon fill="#63b8ff" stroke="#63b8ff" points="308.51,-181.33 317.61,-186.77 313.89,-176.85 308.51,-181.33"/>
</a>
</g>
</g>
<!-- Node11&#45;&gt;Node8 -->
<g id="edge16_Node000011_Node000008" class="edge">
<title>Node11&#45;&gt;Node8</title>
<g id="a_edge16_Node000011_Node000008"><a xlink:title=" ">
<path fill="none" stroke="#63b8ff" d="M371.64,-181.15C386.65,-171.02 403.37,-159.74 416.16,-151.11"/>
<polygon fill="#63b8ff" stroke="#63b8ff" points="369.37,-178.46 363.04,-186.96 373.28,-184.26 369.37,-178.46"/>
</a>
</g>
</g>
</g>
</svg>

<g id="navigator" transform="translate(0 0)" fill="#404254">
  <rect fill="#f2f5e9" fill-opacity="0.5" stroke="#606060" stroke-width=".5" x="0" y="0" width="60" height="60"/>
  <use id="zoomplus" xlink:href="#zoomPlus" x="17" y="9" onmousedown="handleZoom(evt,'in')"/>
  <use id="zoomminus" xlink:href="#zoomMin" x="42" y="9" onmousedown="handleZoom(evt,'out')"/>
  <use id="reset" xlink:href="#resetDef" x="30" y="36" onmousedown="handleReset()"/>
   <use id="arrowup" xlink:href="#arrowUp" x="0" y="0" onmousedown="handlePan(0,-1)"/>
  <use id="arrowright" xlink:href="#arrowRight" x="0" y="0" onmousedown="handlePan(1,0)"/>
  <use id="arrowdown" xlink:href="#arrowDown" x="0" y="0" onmousedown="handlePan(0,1)"/>
  <use id="arrowleft" xlink:href="#arrowLeft" x="0" y="0" onmousedown="handlePan(-1,0)"/>
</g>
<svg viewBox="0 0 15 15" width="100%" height="30px" preserveAspectRatio="xMaxYMin meet">
 <g id="arrow_out" transform="scale(0.3 0.3)">
  <a xlink:href="BoxShape_8hpp__dep__incl_org.svg" target="_base">
   <rect id="button" ry="5" rx="5" y="6" x="6" height="38" width="38"
        fill="#f2f5e9" fill-opacity="0.5" stroke="#606060" stroke-width="1.0"/>
   <path id="arrow"
     d="M 11.500037,31.436501 C 11.940474,20.09759 22.043105,11.32322 32.158766,21.979434 L 37.068811,17.246167 C 37.068811,17.246167 37.088388,32 37.088388,32 L 22.160133,31.978069 C 22.160133,31.978069 26.997745,27.140456 26.997745,27.140456 C 18.528582,18.264221 13.291696,25.230495 11.500037,31.436501 z"
     style="fill:#404040;"/>
  </a>
 </g>
</svg>

<style type='text/css'>
<![CDATA[
[data-mouse-over-selected='false'] { opacity: 0.7; }
[data-mouse-over-selected='true']  { opacity: 1.0; }
]]>
</style>
<script type="application/ecmascript"><![CDATA[
document.addEventListener('DOMContentLoaded', (event) => {
  highlightEdges();
  highlightAdjacentNodes();
});
]]></script>
</svg>
