<?xml version="1.0" encoding="UTF-8" standalone="no"?>
<!DOCTYPE svg PUBLIC "-//W3C//DTD SVG 1.1//EN"
 "http://www.w3.org/Graphics/SVG/1.1/DTD/svg11.dtd">
<!-- Generated by graphviz version 2.43.0 (0)
 -->
<!-- Title: include/medusa/bits/domains/cad_helpers.hpp Pages: 1 -->
<svg width="442pt" height="280pt"
 viewBox="0.00 0.00 442.00 280.00" xmlns="http://www.w3.org/2000/svg" xmlns:xlink="http://www.w3.org/1999/xlink">

<svg id="main" version="1.1" xmlns="http://www.w3.org/2000/svg" xmlns:xlink="http://www.w3.org/1999/xlink" xml:space="preserve" onload="init(evt)">
<style type="text/css"><![CDATA[
.node, .edge {opacity: 0.7;}
.node.selected, .edge.selected {opacity: 1;}
.edge:hover path { stroke: red; }
.edge:hover polygon { stroke: red; fill: red; }
]]></style>
<script type="application/ecmascript" xlink:href="svg.min.js"/>
<svg id="graph" class="graph">
<g id="graph0" class="graph" transform="scale(1 1) rotate(0) translate(4 276)">
<title>include/medusa/bits/domains/cad_helpers.hpp</title>
<!-- Node1 -->
<g id="Node000001" class="node">
<title>Node1</title>
<g id="a_Node000001"><a xlink:title="Implementation of functions evaluating basis splines (B&#45;splines) and other useful functions for CAD.">
<polygon fill="#999999" stroke="#666666" points="338,-272 194,-272 194,-242 338,-242 338,-272"/>
<text text-anchor="start" x="202" y="-260" font-family="Helvetica,sans-Serif" font-size="10.00">include/medusa/bits</text>
<text text-anchor="middle" x="266" y="-249" font-family="Helvetica,sans-Serif" font-size="10.00">/domains/cad_helpers.hpp</text>
</a>
</g>
</g>
<!-- Node2 -->
<g id="Node000002" class="node">
<title>Node2</title>
<g id="a_Node000002"><a xlink:href="NURBSPatch_8hpp.html" target="_top" xlink:title="Implementation of the NURBS patch class.">
<polygon fill="white" stroke="#666666" points="254,-206 108,-206 108,-176 254,-176 254,-206"/>
<text text-anchor="start" x="116" y="-194" font-family="Helvetica,sans-Serif" font-size="10.00">include/medusa/bits</text>
<text text-anchor="middle" x="181" y="-183" font-family="Helvetica,sans-Serif" font-size="10.00">/domains/NURBSPatch.hpp</text>
</a>
</g>
</g>
<!-- Node1&#45;&gt;Node2 -->
<g id="edge1_Node000001_Node000002" class="edge">
<title>Node1&#45;&gt;Node2</title>
<g id="a_edge1_Node000001_Node000002"><a xlink:title=" ">
<path fill="none" stroke="#63b8ff" d="M239.11,-235.75C226.33,-226.13 211.36,-214.86 199.81,-206.16"/>
<polygon fill="#63b8ff" stroke="#63b8ff" points="237.04,-238.58 247.14,-241.8 241.25,-232.99 237.04,-238.58"/>
</a>
</g>
</g>
<!-- Node8 -->
<g id="Node000008" class="node">
<title>Node8</title>
<g id="a_Node000008"><a xlink:href="cad__helpers_8cpp.html" target="_top" xlink:title="Instantiations of commonly used cad helpers functions.">
<polygon fill="white" stroke="#666666" points="430,-200.5 272,-200.5 272,-181.5 430,-181.5 430,-200.5"/>
<text text-anchor="middle" x="351" y="-188.5" font-family="Helvetica,sans-Serif" font-size="10.00">src/domains/cad_helpers.cpp</text>
</a>
</g>
</g>
<!-- Node1&#45;&gt;Node8 -->
<g id="edge8_Node000001_Node000008" class="edge">
<title>Node1&#45;&gt;Node8</title>
<g id="a_edge8_Node000001_Node000008"><a xlink:title=" ">
<path fill="none" stroke="#63b8ff" d="M293.11,-235.58C308.67,-223.87 327.4,-209.77 339.25,-200.84"/>
<polygon fill="#63b8ff" stroke="#63b8ff" points="290.75,-232.99 284.86,-241.8 294.96,-238.58 290.75,-232.99"/>
</a>
</g>
</g>
<!-- Node3 -->
<g id="Node000003" class="node">
<title>Node3</title>
<g id="a_Node000003"><a xlink:href="Domain_8hpp.html" target="_top" xlink:title="Header for Domain module.">
<polygon fill="white" stroke="#666666" points="156,-74 0,-74 0,-55 156,-55 156,-74"/>
<text text-anchor="middle" x="78" y="-62" font-family="Helvetica,sans-Serif" font-size="10.00">include/medusa/Domain.hpp</text>
</a>
</g>
</g>
<!-- Node2&#45;&gt;Node3 -->
<g id="edge2_Node000002_Node000003" class="edge">
<title>Node2&#45;&gt;Node3</title>
<g id="a_edge2_Node000002_Node000003"><a xlink:title=" ">
<path fill="none" stroke="#63b8ff" d="M135,-171.11C121,-163.34 106.75,-153.05 97,-140 81.98,-119.9 78.77,-89.14 78.13,-74.22"/>
<polygon fill="#63b8ff" stroke="#63b8ff" points="133.63,-174.34 144.11,-175.85 136.86,-168.13 133.63,-174.34"/>
</a>
</g>
</g>
<!-- Node5 -->
<g id="Node000005" class="node">
<title>Node5</title>
<g id="a_Node000005"><a xlink:href="NURBSShape_8hpp.html" target="_top" xlink:title="Implementation of NURBSShape class.">
<polygon fill="white" stroke="#666666" points="256,-140 106,-140 106,-110 256,-110 256,-140"/>
<text text-anchor="start" x="114" y="-128" font-family="Helvetica,sans-Serif" font-size="10.00">include/medusa/bits</text>
<text text-anchor="middle" x="181" y="-117" font-family="Helvetica,sans-Serif" font-size="10.00">/domains/NURBSShape.hpp</text>
</a>
</g>
</g>
<!-- Node2&#45;&gt;Node5 -->
<g id="edge4_Node000002_Node000005" class="edge">
<title>Node2&#45;&gt;Node5</title>
<g id="a_edge4_Node000002_Node000005"><a xlink:title=" ">
<path fill="none" stroke="#63b8ff" d="M181,-165.54C181,-156.96 181,-147.61 181,-140.16"/>
<polygon fill="#63b8ff" stroke="#63b8ff" points="177.5,-165.8 181,-175.8 184.5,-165.8 177.5,-165.8"/>
</a>
</g>
</g>
<!-- Node7 -->
<g id="Node000007" class="node">
<title>Node7</title>
<g id="a_Node000007"><a xlink:href="NURBSPatch_8cpp.html" target="_top" xlink:title="Instantiations of commonly used NURBSPatch instances.">
<polygon fill="white" stroke="#666666" points="434,-134.5 274,-134.5 274,-115.5 434,-115.5 434,-134.5"/>
<text text-anchor="middle" x="354" y="-122.5" font-family="Helvetica,sans-Serif" font-size="10.00">src/domains/NURBSPatch.cpp</text>
</a>
</g>
</g>
<!-- Node2&#45;&gt;Node7 -->
<g id="edge7_Node000002_Node000007" class="edge">
<title>Node2&#45;&gt;Node7</title>
<g id="a_edge7_Node000002_Node000007"><a xlink:title=" ">
<path fill="none" stroke="#63b8ff" d="M228.52,-172.42C261.85,-160.09 304.95,-144.15 330.98,-134.52"/>
<polygon fill="#63b8ff" stroke="#63b8ff" points="227.13,-169.2 218.97,-175.95 229.56,-175.77 227.13,-169.2"/>
</a>
</g>
</g>
<!-- Node4 -->
<g id="Node000004" class="node">
<title>Node4</title>
<g id="a_Node000004"><a xlink:href="Medusa_8hpp.html" target="_top" xlink:title="Main header file that includes most other components.">
<polygon fill="white" stroke="#666666" points="156,-19 0,-19 0,0 156,0 156,-19"/>
<text text-anchor="middle" x="78" y="-7" font-family="Helvetica,sans-Serif" font-size="10.00">include/medusa/Medusa.hpp</text>
</a>
</g>
</g>
<!-- Node3&#45;&gt;Node4 -->
<g id="edge3_Node000003_Node000004" class="edge">
<title>Node3&#45;&gt;Node4</title>
<g id="a_edge3_Node000003_Node000004"><a xlink:title=" ">
<path fill="none" stroke="#63b8ff" d="M78,-44.66C78,-35.93 78,-25.99 78,-19.09"/>
<polygon fill="#63b8ff" stroke="#63b8ff" points="74.5,-44.75 78,-54.75 81.5,-44.75 74.5,-44.75"/>
</a>
</g>
</g>
<!-- Node5&#45;&gt;Node3 -->
<g id="edge5_Node000005_Node000003" class="edge">
<title>Node5&#45;&gt;Node3</title>
<g id="a_edge5_Node000005_Node000003"><a xlink:title=" ">
<path fill="none" stroke="#63b8ff" d="M147.41,-104.92C129.14,-94.54 107.43,-82.21 93.21,-74.14"/>
<polygon fill="#63b8ff" stroke="#63b8ff" points="145.9,-108.09 156.33,-109.99 149.36,-102.01 145.9,-108.09"/>
</a>
</g>
</g>
<!-- Node6 -->
<g id="Node000006" class="node">
<title>Node6</title>
<g id="a_Node000006"><a xlink:href="NURBSShape_8cpp.html" target="_top" xlink:title="Instantiations of commonly used NURBSShape instances.">
<polygon fill="white" stroke="#666666" points="338,-74 174,-74 174,-55 338,-55 338,-74"/>
<text text-anchor="middle" x="256" y="-62" font-family="Helvetica,sans-Serif" font-size="10.00">src/domains/NURBSShape.cpp</text>
</a>
</g>
</g>
<!-- Node5&#45;&gt;Node6 -->
<g id="edge6_Node000005_Node000006" class="edge">
<title>Node5&#45;&gt;Node6</title>
<g id="a_edge6_Node000005_Node000006"><a xlink:title=" ">
<path fill="none" stroke="#63b8ff" d="M207.24,-103.53C220.09,-93.51 234.87,-81.98 244.76,-74.27"/>
<polygon fill="#63b8ff" stroke="#63b8ff" points="204.89,-100.93 199.16,-109.84 209.19,-106.45 204.89,-100.93"/>
</a>
</g>
</g>
</g>
</svg>
</svg>

<style type='text/css'>
<![CDATA[
[data-mouse-over-selected='false'] { opacity: 0.7; }
[data-mouse-over-selected='true']  { opacity: 1.0; }
]]>
</style>
<script type="application/ecmascript"><![CDATA[
document.addEventListener('DOMContentLoaded', (event) => {
  highlightEdges();
  highlightAdjacentNodes();
});
]]></script>
</svg>
