<?xml version="1.0" encoding="UTF-8" standalone="no"?>
<!DOCTYPE svg PUBLIC "-//W3C//DTD SVG 1.1//EN"
 "http://www.w3.org/Graphics/SVG/1.1/DTD/svg11.dtd">
<!-- Generated by graphviz version 2.43.0 (0)
 -->
<!-- Title: include/medusa/bits/domains/cad_helpers_fwd.hpp Pages: 1 -->
<svg width="795pt" height="324pt"
 viewBox="0.00 0.00 794.50 324.00" xmlns="http://www.w3.org/2000/svg" xmlns:xlink="http://www.w3.org/1999/xlink">
<g id="graph0" class="graph" transform="scale(1 1) rotate(0) translate(4 320)">
<title>include/medusa/bits/domains/cad_helpers_fwd.hpp</title>
<!-- Node1 -->
<g id="Node000001" class="node">
<title>Node1</title>
<g id="a_Node000001"><a xlink:title="Functions evaluating basis splines (B&#45;splines) and other useful functions for CAD.">
<polygon fill="#999999" stroke="#666666" points="241,-316 118,-316 118,-275 241,-275 241,-316"/>
<text text-anchor="start" x="126" y="-304" font-family="Helvetica,sans-Serif" font-size="10.00">include/medusa/bits</text>
<text text-anchor="start" x="126" y="-293" font-family="Helvetica,sans-Serif" font-size="10.00">/domains/cad_helpers</text>
<text text-anchor="middle" x="179.5" y="-282" font-family="Helvetica,sans-Serif" font-size="10.00">_fwd.hpp</text>
</a>
</g>
</g>
<!-- Node2 -->
<g id="Node000002" class="node">
<title>Node2</title>
<g id="a_Node000002"><a xlink:href="Config_8hpp.html" target="_top" xlink:title="Contains compile time settings for the project, such as Eigen plugins.">
<polygon fill="white" stroke="#666666" points="197.5,-129 87.5,-129 87.5,-110 197.5,-110 197.5,-129"/>
<text text-anchor="middle" x="142.5" y="-117" font-family="Helvetica,sans-Serif" font-size="10.00">medusa/Config.hpp</text>
</a>
</g>
</g>
<!-- Node1&#45;&gt;Node2 -->
<g id="edge1_Node000001_Node000002" class="edge">
<title>Node1&#45;&gt;Node2</title>
<g id="a_edge1_Node000001_Node000002"><a xlink:title=" ">
<path fill="none" stroke="#63b8ff" d="M175.33,-274.88C168.16,-241.17 153.6,-172.69 146.53,-139.45"/>
<polygon fill="#63b8ff" stroke="#63b8ff" points="149.87,-138.33 144.37,-129.27 143.02,-139.78 149.87,-138.33"/>
</a>
</g>
</g>
<!-- Node4 -->
<g id="Node000004" class="node">
<title>Node4</title>
<g id="a_Node000004"><a xlink:href="Vec_8hpp.html" target="_top" xlink:title="Implemetations for Vec.">
<polygon fill="white" stroke="#666666" points="151.5,-239 3.5,-239 3.5,-220 151.5,-220 151.5,-239"/>
<text text-anchor="middle" x="77.5" y="-227" font-family="Helvetica,sans-Serif" font-size="10.00">medusa/bits/types/Vec.hpp</text>
</a>
</g>
</g>
<!-- Node1&#45;&gt;Node4 -->
<g id="edge3_Node000001_Node000004" class="edge">
<title>Node1&#45;&gt;Node4</title>
<g id="a_edge3_Node000001_Node000004"><a xlink:title=" ">
<path fill="none" stroke="#63b8ff" d="M148.34,-274.95C132.68,-265.12 114.05,-253.43 99.83,-244.51"/>
<polygon fill="#63b8ff" stroke="#63b8ff" points="101.52,-241.44 91.19,-239.09 97.8,-247.37 101.52,-241.44"/>
</a>
</g>
</g>
<!-- Node7 -->
<g id="Node000007" class="node">
<title>Node7</title>
<g id="a_Node000007"><a xlink:href="Range_8hpp.html" target="_top" xlink:title="Implementation of Range.">
<polygon fill="white" stroke="#666666" points="407,-239 246,-239 246,-220 407,-220 407,-239"/>
<text text-anchor="middle" x="326.5" y="-227" font-family="Helvetica,sans-Serif" font-size="10.00">medusa/bits/types/Range.hpp</text>
</a>
</g>
</g>
<!-- Node1&#45;&gt;Node7 -->
<g id="edge7_Node000001_Node000007" class="edge">
<title>Node1&#45;&gt;Node7</title>
<g id="a_edge7_Node000001_Node000007"><a xlink:title=" ">
<path fill="none" stroke="#63b8ff" d="M224.4,-274.95C248.17,-264.6 276.65,-252.2 297.49,-243.13"/>
<polygon fill="#63b8ff" stroke="#63b8ff" points="298.99,-246.29 306.77,-239.09 296.2,-239.87 298.99,-246.29"/>
</a>
</g>
</g>
<!-- Node3 -->
<g id="Node000003" class="node">
<title>Node3</title>
<g id="a_Node000003"><a xlink:title=" ">
<polygon fill="#e0e0e0" stroke="#999999" points="473,-19 426,-19 426,0 473,0 473,-19"/>
<text text-anchor="middle" x="449.5" y="-7" font-family="Helvetica,sans-Serif" font-size="10.00">vector</text>
</a>
</g>
</g>
<!-- Node2&#45;&gt;Node3 -->
<g id="edge2_Node000002_Node000003" class="edge">
<title>Node2&#45;&gt;Node3</title>
<g id="a_edge2_Node000002_Node000003"><a xlink:title=" ">
<path fill="none" stroke="#63b8ff" d="M166.85,-109.94C221.52,-90.7 354.12,-44.05 416.29,-22.18"/>
<polygon fill="#63b8ff" stroke="#63b8ff" points="417.72,-25.39 426,-18.77 415.4,-18.79 417.72,-25.39"/>
</a>
</g>
</g>
<!-- Node5 -->
<g id="Node000005" class="node">
<title>Node5</title>
<g id="a_Node000005"><a xlink:href="Vec__fwd_8hpp.html" target="_top" xlink:title="Declaration of Vec.">
<polygon fill="white" stroke="#666666" points="116,-184 39,-184 39,-165 116,-165 116,-184"/>
<text text-anchor="middle" x="77.5" y="-172" font-family="Helvetica,sans-Serif" font-size="10.00">Vec_fwd.hpp</text>
</a>
</g>
</g>
<!-- Node4&#45;&gt;Node5 -->
<g id="edge4_Node000004_Node000005" class="edge">
<title>Node4&#45;&gt;Node5</title>
<g id="a_edge4_Node000004_Node000005"><a xlink:title=" ">
<path fill="none" stroke="#63b8ff" d="M77.5,-219.75C77.5,-212.8 77.5,-202.85 77.5,-194.13"/>
<polygon fill="#63b8ff" stroke="#63b8ff" points="81,-194.09 77.5,-184.09 74,-194.09 81,-194.09"/>
</a>
</g>
</g>
<!-- Node5&#45;&gt;Node2 -->
<g id="edge5_Node000005_Node000002" class="edge">
<title>Node5&#45;&gt;Node2</title>
<g id="a_edge5_Node000005_Node000002"><a xlink:title=" ">
<path fill="none" stroke="#63b8ff" d="M87.94,-164.98C97.65,-157.07 112.32,-145.11 124,-135.58"/>
<polygon fill="#63b8ff" stroke="#63b8ff" points="126.33,-138.2 131.87,-129.17 121.9,-132.78 126.33,-138.2"/>
</a>
</g>
</g>
<!-- Node6 -->
<g id="Node000006" class="node">
<title>Node6</title>
<g id="a_Node000006"><a xlink:title=" ">
<polygon fill="#e0e0e0" stroke="#999999" points="69,-129 0,-129 0,-110 69,-110 69,-129"/>
<text text-anchor="middle" x="34.5" y="-117" font-family="Helvetica,sans-Serif" font-size="10.00">Eigen/Core</text>
</a>
</g>
</g>
<!-- Node5&#45;&gt;Node6 -->
<g id="edge6_Node000005_Node000006" class="edge">
<title>Node5&#45;&gt;Node6</title>
<g id="a_edge6_Node000005_Node000006"><a xlink:title=" ">
<path fill="none" stroke="#63b8ff" d="M70.4,-164.75C64.33,-157.26 55.41,-146.28 47.99,-137.13"/>
<polygon fill="#63b8ff" stroke="#63b8ff" points="50.49,-134.65 41.47,-129.09 45.05,-139.06 50.49,-134.65"/>
</a>
</g>
</g>
<!-- Node8 -->
<g id="Node000008" class="node">
<title>Node8</title>
<g id="a_Node000008"><a xlink:href="Range__fwd_8hpp.html" target="_top" xlink:title="Declaration of Range.">
<polygon fill="white" stroke="#666666" points="372,-184 281,-184 281,-165 372,-165 372,-184"/>
<text text-anchor="middle" x="326.5" y="-172" font-family="Helvetica,sans-Serif" font-size="10.00">Range_fwd.hpp</text>
</a>
</g>
</g>
<!-- Node7&#45;&gt;Node8 -->
<g id="edge8_Node000007_Node000008" class="edge">
<title>Node7&#45;&gt;Node8</title>
<g id="a_edge8_Node000007_Node000008"><a xlink:title=" ">
<path fill="none" stroke="#63b8ff" d="M326.5,-219.75C326.5,-212.8 326.5,-202.85 326.5,-194.13"/>
<polygon fill="#63b8ff" stroke="#63b8ff" points="330,-194.09 326.5,-184.09 323,-194.09 330,-194.09"/>
</a>
</g>
</g>
<!-- Node19 -->
<g id="Node000019" class="node">
<title>Node19</title>
<g id="a_Node000019"><a xlink:title=" ">
<polygon fill="#e0e0e0" stroke="#999999" points="454.5,-184 390.5,-184 390.5,-165 454.5,-165 454.5,-184"/>
<text text-anchor="middle" x="422.5" y="-172" font-family="Helvetica,sans-Serif" font-size="10.00">algorithm</text>
</a>
</g>
</g>
<!-- Node7&#45;&gt;Node19 -->
<g id="edge22_Node000007_Node000019" class="edge">
<title>Node7&#45;&gt;Node19</title>
<g id="a_edge22_Node000007_Node000019"><a xlink:title=" ">
<path fill="none" stroke="#63b8ff" d="M341.92,-219.98C356.95,-211.69 380.04,-198.94 397.66,-189.22"/>
<polygon fill="#63b8ff" stroke="#63b8ff" points="399.73,-192.07 406.8,-184.17 396.35,-185.94 399.73,-192.07"/>
</a>
</g>
</g>
<!-- Node8&#45;&gt;Node2 -->
<g id="edge9_Node000008_Node000002" class="edge">
<title>Node8&#45;&gt;Node2</title>
<g id="a_edge9_Node000008_Node000002"><a xlink:title=" ">
<path fill="none" stroke="#63b8ff" d="M296.94,-164.98C265.78,-156.01 216.53,-141.82 182.04,-131.89"/>
<polygon fill="#63b8ff" stroke="#63b8ff" points="182.87,-128.49 172.29,-129.08 180.93,-135.21 182.87,-128.49"/>
</a>
</g>
</g>
<!-- Node8&#45;&gt;Node3 -->
<g id="edge20_Node000008_Node000003" class="edge">
<title>Node8&#45;&gt;Node3</title>
<g id="a_edge20_Node000008_Node000003"><a xlink:title=" ">
<path fill="none" stroke="#63b8ff" d="M370.83,-164.98C392.04,-158.61 415.94,-147.66 430.5,-129 453.18,-99.94 453.59,-54.46 451.67,-29.12"/>
<polygon fill="#63b8ff" stroke="#63b8ff" points="455.15,-28.65 450.7,-19.03 448.18,-29.32 455.15,-28.65"/>
</a>
</g>
</g>
<!-- Node9 -->
<g id="Node000009" class="node">
<title>Node9</title>
<g id="a_Node000009"><a xlink:href="assert_8hpp.html" target="_top" xlink:title="Implementation of custom assert and debug utilities.">
<polygon fill="white" stroke="#666666" points="633,-129 478,-129 478,-110 633,-110 633,-129"/>
<text text-anchor="middle" x="555.5" y="-117" font-family="Helvetica,sans-Serif" font-size="10.00">medusa/bits/utils/assert.hpp</text>
</a>
</g>
</g>
<!-- Node8&#45;&gt;Node9 -->
<g id="edge10_Node000008_Node000009" class="edge">
<title>Node8&#45;&gt;Node9</title>
<g id="a_edge10_Node000008_Node000009"><a xlink:title=" ">
<path fill="none" stroke="#63b8ff" d="M363.29,-164.98C402.74,-155.86 465.48,-141.33 508.48,-131.38"/>
<polygon fill="#63b8ff" stroke="#63b8ff" points="509.47,-134.75 518.42,-129.08 507.89,-127.93 509.47,-134.75"/>
</a>
</g>
</g>
<!-- Node16 -->
<g id="Node000016" class="node">
<title>Node16</title>
<g id="a_Node000016"><a xlink:href="traits_8hpp.html" target="_top" xlink:title="Type traits definition for vector and scalar fields.">
<polygon fill="white" stroke="#666666" points="279,-129 216,-129 216,-110 279,-110 279,-129"/>
<text text-anchor="middle" x="247.5" y="-117" font-family="Helvetica,sans-Serif" font-size="10.00">traits.hpp</text>
</a>
</g>
</g>
<!-- Node8&#45;&gt;Node16 -->
<g id="edge18_Node000008_Node000016" class="edge">
<title>Node8&#45;&gt;Node16</title>
<g id="a_edge18_Node000008_Node000016"><a xlink:title=" ">
<path fill="none" stroke="#63b8ff" d="M313.81,-164.98C301.67,-156.84 283.14,-144.41 268.75,-134.76"/>
<polygon fill="#63b8ff" stroke="#63b8ff" points="270.68,-131.84 260.42,-129.17 266.78,-137.65 270.68,-131.84"/>
</a>
</g>
</g>
<!-- Node17 -->
<g id="Node000017" class="node">
<title>Node17</title>
<g id="a_Node000017"><a xlink:title=" ">
<polygon fill="#e0e0e0" stroke="#999999" points="355.5,-129 297.5,-129 297.5,-110 355.5,-110 355.5,-129"/>
<text text-anchor="middle" x="326.5" y="-117" font-family="Helvetica,sans-Serif" font-size="10.00">memory</text>
</a>
</g>
</g>
<!-- Node8&#45;&gt;Node17 -->
<g id="edge19_Node000008_Node000017" class="edge">
<title>Node8&#45;&gt;Node17</title>
<g id="a_edge19_Node000008_Node000017"><a xlink:title=" ">
<path fill="none" stroke="#63b8ff" d="M326.5,-164.75C326.5,-157.8 326.5,-147.85 326.5,-139.13"/>
<polygon fill="#63b8ff" stroke="#63b8ff" points="330,-139.09 326.5,-129.09 323,-139.09 330,-139.09"/>
</a>
</g>
</g>
<!-- Node18 -->
<g id="Node000018" class="node">
<title>Node18</title>
<g id="a_Node000018"><a xlink:title=" ">
<polygon fill="#e0e0e0" stroke="#999999" points="421.5,-129 373.5,-129 373.5,-110 421.5,-110 421.5,-129"/>
<text text-anchor="middle" x="397.5" y="-117" font-family="Helvetica,sans-Serif" font-size="10.00">iosfwd</text>
</a>
</g>
</g>
<!-- Node8&#45;&gt;Node18 -->
<g id="edge21_Node000008_Node000018" class="edge">
<title>Node8&#45;&gt;Node18</title>
<g id="a_edge21_Node000008_Node000018"><a xlink:title=" ">
<path fill="none" stroke="#63b8ff" d="M337.91,-164.98C348.61,-157 364.84,-144.88 377.66,-135.31"/>
<polygon fill="#63b8ff" stroke="#63b8ff" points="379.97,-137.96 385.89,-129.17 375.78,-132.35 379.97,-137.96"/>
</a>
</g>
</g>
<!-- Node10 -->
<g id="Node000010" class="node">
<title>Node10</title>
<g id="a_Node000010"><a xlink:title=" ">
<polygon fill="#e0e0e0" stroke="#999999" points="609.5,-74 477.5,-74 477.5,-55 609.5,-55 609.5,-74"/>
<text text-anchor="middle" x="543.5" y="-62" font-family="Helvetica,sans-Serif" font-size="10.00">tinyformat/tinyformat.h</text>
</a>
</g>
</g>
<!-- Node9&#45;&gt;Node10 -->
<g id="edge11_Node000009_Node000010" class="edge">
<title>Node9&#45;&gt;Node10</title>
<g id="a_edge11_Node000009_Node000010"><a xlink:title=" ">
<path fill="none" stroke="#63b8ff" d="M553.52,-109.75C551.93,-102.72 549.64,-92.62 547.65,-83.84"/>
<polygon fill="#63b8ff" stroke="#63b8ff" points="551.07,-83.07 545.44,-74.09 544.24,-84.62 551.07,-83.07"/>
</a>
</g>
</g>
<!-- Node11 -->
<g id="Node000011" class="node">
<title>Node11</title>
<g id="a_Node000011"><a xlink:href="print_8hpp.html" target="_top" xlink:title="Printing helpers for std types.">
<polygon fill="white" stroke="#666666" points="687.5,-74 627.5,-74 627.5,-55 687.5,-55 687.5,-74"/>
<text text-anchor="middle" x="657.5" y="-62" font-family="Helvetica,sans-Serif" font-size="10.00">print.hpp</text>
</a>
</g>
</g>
<!-- Node9&#45;&gt;Node11 -->
<g id="edge12_Node000009_Node000011" class="edge">
<title>Node9&#45;&gt;Node11</title>
<g id="a_edge12_Node000009_Node000011"><a xlink:title=" ">
<path fill="none" stroke="#63b8ff" d="M571.89,-109.98C588.07,-101.57 613.07,-88.59 631.88,-78.81"/>
<polygon fill="#63b8ff" stroke="#63b8ff" points="633.55,-81.89 640.81,-74.17 630.33,-75.68 633.55,-81.89"/>
</a>
</g>
</g>
<!-- Node11&#45;&gt;Node3 -->
<g id="edge14_Node000011_Node000003" class="edge">
<title>Node11&#45;&gt;Node3</title>
<g id="a_edge14_Node000011_Node000003"><a xlink:title=" ">
<path fill="none" stroke="#63b8ff" d="M627.26,-55.79C588.8,-45.99 522.63,-29.13 482.78,-18.98"/>
<polygon fill="#63b8ff" stroke="#63b8ff" points="483.56,-15.57 473.01,-16.49 481.83,-22.35 483.56,-15.57"/>
</a>
</g>
</g>
<!-- Node12 -->
<g id="Node000012" class="node">
<title>Node12</title>
<g id="a_Node000012"><a xlink:title=" ">
<polygon fill="#e0e0e0" stroke="#999999" points="786.5,-19 726.5,-19 726.5,0 786.5,0 786.5,-19"/>
<text text-anchor="middle" x="756.5" y="-7" font-family="Helvetica,sans-Serif" font-size="10.00">iostream</text>
</a>
</g>
</g>
<!-- Node11&#45;&gt;Node12 -->
<g id="edge13_Node000011_Node000012" class="edge">
<title>Node11&#45;&gt;Node12</title>
<g id="a_edge13_Node000011_Node000012"><a xlink:title=" ">
<path fill="none" stroke="#63b8ff" d="M673.41,-54.98C689.05,-46.61 713.16,-33.7 731.38,-23.95"/>
<polygon fill="#63b8ff" stroke="#63b8ff" points="733.14,-26.98 740.3,-19.17 729.84,-20.8 733.14,-26.98"/>
</a>
</g>
</g>
<!-- Node13 -->
<g id="Node000013" class="node">
<title>Node13</title>
<g id="a_Node000013"><a xlink:title=" ">
<polygon fill="#e0e0e0" stroke="#999999" points="585.5,-19 543.5,-19 543.5,0 585.5,0 585.5,-19"/>
<text text-anchor="middle" x="564.5" y="-7" font-family="Helvetica,sans-Serif" font-size="10.00">array</text>
</a>
</g>
</g>
<!-- Node11&#45;&gt;Node13 -->
<g id="edge15_Node000011_Node000013" class="edge">
<title>Node11&#45;&gt;Node13</title>
<g id="a_edge15_Node000011_Node000013"><a xlink:title=" ">
<path fill="none" stroke="#63b8ff" d="M642.56,-54.98C628,-46.69 605.63,-33.94 588.57,-24.22"/>
<polygon fill="#63b8ff" stroke="#63b8ff" points="590.14,-21.08 579.71,-19.17 586.67,-27.16 590.14,-21.08"/>
</a>
</g>
</g>
<!-- Node14 -->
<g id="Node000014" class="node">
<title>Node14</title>
<g id="a_Node000014"><a xlink:title=" ">
<polygon fill="#e0e0e0" stroke="#999999" points="649,-19 604,-19 604,0 649,0 649,-19"/>
<text text-anchor="middle" x="626.5" y="-7" font-family="Helvetica,sans-Serif" font-size="10.00">utility</text>
</a>
</g>
</g>
<!-- Node11&#45;&gt;Node14 -->
<g id="edge16_Node000011_Node000014" class="edge">
<title>Node11&#45;&gt;Node14</title>
<g id="a_edge16_Node000011_Node000014"><a xlink:title=" ">
<path fill="none" stroke="#63b8ff" d="M652.38,-54.75C648.14,-47.49 641.97,-36.95 636.72,-27.98"/>
<polygon fill="#63b8ff" stroke="#63b8ff" points="639.59,-25.95 631.52,-19.09 633.55,-29.49 639.59,-25.95"/>
</a>
</g>
</g>
<!-- Node15 -->
<g id="Node000015" class="node">
<title>Node15</title>
<g id="a_Node000015"><a xlink:title=" ">
<polygon fill="#e0e0e0" stroke="#999999" points="708,-19 667,-19 667,0 708,0 708,-19"/>
<text text-anchor="middle" x="687.5" y="-7" font-family="Helvetica,sans-Serif" font-size="10.00">tuple</text>
</a>
</g>
</g>
<!-- Node11&#45;&gt;Node15 -->
<g id="edge17_Node000011_Node000015" class="edge">
<title>Node11&#45;&gt;Node15</title>
<g id="a_edge17_Node000011_Node000015"><a xlink:title=" ">
<path fill="none" stroke="#63b8ff" d="M662.45,-54.75C666.56,-47.49 672.53,-36.95 677.6,-27.98"/>
<polygon fill="#63b8ff" stroke="#63b8ff" points="680.76,-29.52 682.64,-19.09 674.67,-26.07 680.76,-29.52"/>
</a>
</g>
</g>
</g>
</svg>
