<?xml version="1.0" encoding="UTF-8" standalone="no"?>
<!DOCTYPE svg PUBLIC "-//W3C//DTD SVG 1.1//EN"
 "http://www.w3.org/Graphics/SVG/1.1/DTD/svg11.dtd">
<!-- Generated by graphviz version 2.43.0 (0)
 -->
<!-- Title: mm::RKExplicit&lt; Scalar, num_stages &gt;::Integrator&lt; func_t &gt;::IterationStep Pages: 1 -->
<svg width="625pt" height="120pt"
 viewBox="0.00 0.00 625.00 119.50" xmlns="http://www.w3.org/2000/svg" xmlns:xlink="http://www.w3.org/1999/xlink">
<g id="graph0" class="graph" transform="scale(1 1) rotate(0) translate(4 115.5)">
<title>mm::RKExplicit&lt; Scalar, num_stages &gt;::Integrator&lt; func_t &gt;::IterationStep</title>
<!-- Node1 -->
<g id="Node000001" class="node">
<title>Node1</title>
<g id="a_Node000001"><a xlink:title="Class representing a step in the integration process.">
<polygon fill="#999999" stroke="#666666" points="617,-74 473,-74 473,-33 617,-33 617,-74"/>
<text text-anchor="start" x="481" y="-62" font-family="Helvetica,sans-Serif" font-size="10.00">mm::RKExplicit&lt; Scalar,</text>
<text text-anchor="start" x="481" y="-51" font-family="Helvetica,sans-Serif" font-size="10.00"> num_stages &gt;::Integrator</text>
<text text-anchor="middle" x="545" y="-40" font-family="Helvetica,sans-Serif" font-size="10.00">&lt; func_t &gt;::IterationStep</text>
</a>
</g>
</g>
<!-- Node2 -->
<g id="Node000002" class="node">
<title>Node2</title>
<g id="a_Node000002"><a xlink:title=" ">
<polygon fill="white" stroke="#bfbfbf" points="385,-111.5 214,-111.5 214,-59.5 385,-59.5 385,-111.5"/>
<text text-anchor="start" x="222" y="-99.5" font-family="Helvetica,sans-Serif" font-size="10.00">std::iterator&lt; std</text>
<text text-anchor="start" x="222" y="-88.5" font-family="Helvetica,sans-Serif" font-size="10.00">::forward_iterator_tag,</text>
<text text-anchor="start" x="222" y="-77.5" font-family="Helvetica,sans-Serif" font-size="10.00"> IterationStep, int, const</text>
<text text-anchor="middle" x="299.5" y="-66.5" font-family="Helvetica,sans-Serif" font-size="10.00"> IterationStep *, IterationStep &gt;</text>
</a>
</g>
</g>
<!-- Node2&#45;&gt;Node1 -->
<g id="edge1_Node000001_Node000002" class="edge">
<title>Node2&#45;&gt;Node1</title>
<g id="a_edge1_Node000001_Node000002"><a xlink:title=" ">
<path fill="none" stroke="#63b8ff" d="M395.47,-73.02C421.21,-69.64 448.62,-66.03 472.8,-62.86"/>
<polygon fill="#63b8ff" stroke="#63b8ff" points="394.78,-69.58 385.32,-74.35 395.69,-76.52 394.78,-69.58"/>
</a>
</g>
</g>
<!-- Node3 -->
<g id="Node000003" class="node">
<title>Node3</title>
<g id="a_Node000003"><a xlink:href="classmm_1_1RKExplicit_1_1Integrator.html" target="_top" xlink:title="Integrator class for RK methods.">
<polygon fill="white" stroke="#666666" points="371.5,-41 227.5,-41 227.5,0 371.5,0 371.5,-41"/>
<text text-anchor="start" x="235.5" y="-29" font-family="Helvetica,sans-Serif" font-size="10.00">mm::RKExplicit&lt; Scalar,</text>
<text text-anchor="start" x="235.5" y="-18" font-family="Helvetica,sans-Serif" font-size="10.00"> num_stages &gt;::Integrator</text>
<text text-anchor="middle" x="299.5" y="-7" font-family="Helvetica,sans-Serif" font-size="10.00">&lt; func_t &gt;</text>
</a>
</g>
</g>
<!-- Node3&#45;&gt;Node1 -->
<g id="edge2_Node000001_Node000003" class="edge">
<title>Node3&#45;&gt;Node1</title>
<g id="a_edge2_Node000001_Node000003"><a xlink:title=" ">
<path fill="none" stroke="#9a32cd" stroke-dasharray="5,2" d="M381.84,-31.52C411.3,-35.52 444.31,-39.99 472.83,-43.85"/>
<polygon fill="#9a32cd" stroke="#9a32cd" points="381.96,-28.01 371.58,-30.13 381.02,-34.95 381.96,-28.01"/>
</a>
</g>
<text text-anchor="middle" x="429" y="-44.5" font-family="Helvetica,sans-Serif" font-size="10.00" fill="grey"> integrator</text>
</g>
<!-- Node4 -->
<g id="Node000004" class="node">
<title>Node4</title>
<g id="a_Node000004"><a xlink:href="classmm_1_1RKExplicit.html" target="_top" xlink:title=" ">
<polygon fill="white" stroke="#666666" points="132,-35.5 0,-35.5 0,-5.5 132,-5.5 132,-35.5"/>
<text text-anchor="start" x="8" y="-23.5" font-family="Helvetica,sans-Serif" font-size="10.00">mm::RKExplicit&lt; scalar</text>
<text text-anchor="middle" x="66" y="-12.5" font-family="Helvetica,sans-Serif" font-size="10.00">_t, num_stages &gt;</text>
</a>
</g>
</g>
<!-- Node4&#45;&gt;Node3 -->
<g id="edge3_Node000003_Node000004" class="edge">
<title>Node4&#45;&gt;Node3</title>
<g id="a_edge3_Node000003_Node000004"><a xlink:title=" ">
<path fill="none" stroke="#9a32cd" stroke-dasharray="5,2" d="M142.39,-20.5C169.71,-20.5 200.46,-20.5 227.4,-20.5"/>
<polygon fill="#9a32cd" stroke="#9a32cd" points="142.1,-17 132.1,-20.5 142.1,-24 142.1,-17"/>
</a>
</g>
<text text-anchor="middle" x="173" y="-23.5" font-family="Helvetica,sans-Serif" font-size="10.00" fill="grey"> method_</text>
</g>
</g>
</svg>
