<?xml version="1.0" encoding="UTF-8" standalone="no"?>
<!DOCTYPE svg PUBLIC "-//W3C//DTD SVG 1.1//EN"
 "http://www.w3.org/Graphics/SVG/1.1/DTD/svg11.dtd">
<!-- Generated by graphviz version 2.43.0 (0)
 -->
<!-- Title: mm::ShapeUnion&lt; vec_t &gt; Pages: 1 -->
<svg width="606pt" height="92pt"
 viewBox="0.00 0.00 606.00 91.50" xmlns="http://www.w3.org/2000/svg" xmlns:xlink="http://www.w3.org/1999/xlink">
<g id="graph0" class="graph" transform="scale(1 1) rotate(0) translate(4 87.5)">
<title>mm::ShapeUnion&lt; vec_t &gt;</title>
<!-- Node1 -->
<g id="Node000001" class="node">
<title>Node1</title>
<g id="a_Node000001"><a xlink:title="Class representing a union of two shapes.">
<polygon fill="#999999" stroke="#666666" points="598,-59.5 449,-59.5 449,-40.5 598,-40.5 598,-59.5"/>
<text text-anchor="middle" x="523.5" y="-47.5" font-family="Helvetica,sans-Serif" font-size="10.00">mm::ShapeUnion&lt; vec_t &gt;</text>
</a>
</g>
</g>
<!-- Node2 -->
<g id="Node000002" class="node">
<title>Node2</title>
<g id="a_Node000002"><a xlink:href="classmm_1_1DomainShape.html" target="_top" xlink:title="Base class for geometric shapes of domains.">
<polygon fill="white" stroke="#666666" points="392,-83.5 233,-83.5 233,-64.5 392,-64.5 392,-83.5"/>
<text text-anchor="middle" x="312.5" y="-71.5" font-family="Helvetica,sans-Serif" font-size="10.00">mm::DomainShape&lt; vec_t &gt;</text>
</a>
</g>
</g>
<!-- Node2&#45;&gt;Node1 -->
<g id="edge1_Node000001_Node000002" class="edge">
<title>Node2&#45;&gt;Node1</title>
<g id="a_edge1_Node000001_Node000002"><a xlink:title=" ">
<path fill="none" stroke="#63b8ff" d="M402.29,-63.8C417.75,-62.03 433.68,-60.2 448.69,-58.48"/>
<polygon fill="#63b8ff" stroke="#63b8ff" points="401.75,-60.34 392.22,-64.96 402.55,-67.3 401.75,-60.34"/>
</a>
</g>
</g>
<!-- Node3 -->
<g id="Node000003" class="node">
<title>Node3</title>
<g id="a_Node000003"><a xlink:href="classmm_1_1deep__copy__unique__ptr.html" target="_top" xlink:title=" ">
<polygon fill="white" stroke="#666666" points="382.5,-46.5 242.5,-46.5 242.5,-5.5 382.5,-5.5 382.5,-46.5"/>
<text text-anchor="start" x="250.5" y="-34.5" font-family="Helvetica,sans-Serif" font-size="10.00">mm::deep_copy_unique</text>
<text text-anchor="start" x="250.5" y="-23.5" font-family="Helvetica,sans-Serif" font-size="10.00">_ptr&lt; mm::DomainShape</text>
<text text-anchor="middle" x="312.5" y="-12.5" font-family="Helvetica,sans-Serif" font-size="10.00">&lt; vec_t &gt; &gt;</text>
</a>
</g>
</g>
<!-- Node3&#45;&gt;Node1 -->
<g id="edge2_Node000001_Node000003" class="edge">
<title>Node3&#45;&gt;Node1</title>
<g id="a_edge2_Node000001_Node000003"><a xlink:title=" ">
<path fill="none" stroke="#9a32cd" stroke-dasharray="5,2" d="M392.77,-30.26C405.57,-31.27 418.67,-32.51 431,-34 444.93,-35.69 459.96,-38.08 473.73,-40.49"/>
<polygon fill="#9a32cd" stroke="#9a32cd" points="392.81,-26.75 382.58,-29.49 392.29,-33.73 392.81,-26.75"/>
</a>
</g>
<text text-anchor="middle" x="420.5" y="-48" font-family="Helvetica,sans-Serif" font-size="10.00" fill="grey"> sh1</text>
<text text-anchor="middle" x="420.5" y="-37" font-family="Helvetica,sans-Serif" font-size="10.00" fill="grey">sh2</text>
</g>
<!-- Node4 -->
<g id="Node000004" class="node">
<title>Node4</title>
<g id="a_Node000004"><a xlink:title=" ">
<polygon fill="white" stroke="#bfbfbf" points="196,-52 0,-52 0,0 196,0 196,-52"/>
<text text-anchor="start" x="8" y="-40" font-family="Helvetica,sans-Serif" font-size="10.00">std::unique_ptr&lt; mm</text>
<text text-anchor="start" x="8" y="-29" font-family="Helvetica,sans-Serif" font-size="10.00">::DomainShape&lt; vec_t</text>
<text text-anchor="start" x="8" y="-18" font-family="Helvetica,sans-Serif" font-size="10.00"> &gt; , std::default_delete</text>
<text text-anchor="middle" x="98" y="-7" font-family="Helvetica,sans-Serif" font-size="10.00">&lt; mm::DomainShape&lt; vec_t &gt; &#160;&gt; &gt;</text>
</a>
</g>
</g>
<!-- Node4&#45;&gt;Node3 -->
<g id="edge3_Node000003_Node000004" class="edge">
<title>Node4&#45;&gt;Node3</title>
<g id="a_edge3_Node000003_Node000004"><a xlink:title=" ">
<path fill="none" stroke="#63b8ff" d="M206.44,-26C218.6,-26 230.74,-26 242.23,-26"/>
<polygon fill="#63b8ff" stroke="#63b8ff" points="206.23,-22.5 196.23,-26 206.23,-29.5 206.23,-22.5"/>
</a>
</g>
</g>
</g>
</svg>
