<?xml version="1.0" encoding="UTF-8" standalone="no"?>
<!DOCTYPE svg PUBLIC "-//W3C//DTD SVG 1.1//EN"
 "http://www.w3.org/Graphics/SVG/1.1/DTD/svg11.dtd">
<!-- Generated by graphviz version 2.43.0 (0)
 -->
<!-- Title: mm::DomainShape&lt; vec_t &gt; Pages: 1 -->
<svg width="370pt" height="493pt"
 viewBox="0.00 0.00 370.00 493.00" xmlns="http://www.w3.org/2000/svg" xmlns:xlink="http://www.w3.org/1999/xlink">
<g id="graph0" class="graph" transform="scale(1 1) rotate(0) translate(4 489)">
<title>mm::DomainShape&lt; vec_t &gt;</title>
<!-- Node1 -->
<g id="Node000001" class="node">
<title>Node1</title>
<g id="a_Node000001"><a xlink:title="Base class for geometric shapes of domains.">
<polygon fill="#999999" stroke="#666666" points="159,-249 0,-249 0,-230 159,-230 159,-249"/>
<text text-anchor="middle" x="79.5" y="-237" font-family="Helvetica,sans-Serif" font-size="10.00">mm::DomainShape&lt; vec_t &gt;</text>
</a>
</g>
</g>
<!-- Node2 -->
<g id="Node000002" class="node">
<title>Node2</title>
<g id="a_Node000002"><a xlink:href="classmm_1_1BallShape.html" target="_top" xlink:title="Class for working with ball shaped domains.">
<polygon fill="white" stroke="#666666" points="348.5,-485 208.5,-485 208.5,-466 348.5,-466 348.5,-485"/>
<text text-anchor="middle" x="278.5" y="-473" font-family="Helvetica,sans-Serif" font-size="10.00">mm::BallShape&lt; vec_t &gt;</text>
</a>
</g>
</g>
<!-- Node1&#45;&gt;Node2 -->
<g id="edge1_Node000001_Node000002" class="edge">
<title>Node1&#45;&gt;Node2</title>
<g id="a_edge1_Node000001_Node000002"><a xlink:title=" ">
<path fill="none" stroke="#63b8ff" d="M84.84,-259.04C95.48,-302.17 127.11,-405.79 195,-457.5 199.43,-460.88 204.37,-463.65 209.55,-465.92"/>
<polygon fill="#63b8ff" stroke="#63b8ff" points="88.22,-258.15 82.52,-249.22 81.41,-259.76 88.22,-258.15"/>
</a>
</g>
</g>
<!-- Node3 -->
<g id="Node000003" class="node">
<title>Node3</title>
<g id="a_Node000003"><a xlink:href="classmm_1_1BoxShape.html" target="_top" xlink:title="Class for working with box shaped domains.">
<polygon fill="white" stroke="#666666" points="348.5,-448 208.5,-448 208.5,-429 348.5,-429 348.5,-448"/>
<text text-anchor="middle" x="278.5" y="-436" font-family="Helvetica,sans-Serif" font-size="10.00">mm::BoxShape&lt; vec_t &gt;</text>
</a>
</g>
</g>
<!-- Node1&#45;&gt;Node3 -->
<g id="edge2_Node000001_Node000003" class="edge">
<title>Node1&#45;&gt;Node3</title>
<g id="a_edge2_Node000001_Node000003"><a xlink:title=" ">
<path fill="none" stroke="#63b8ff" d="M87.1,-258.84C100.87,-296.16 136.37,-378.06 195,-419.5 200.52,-423.4 206.72,-426.52 213.18,-429"/>
<polygon fill="#63b8ff" stroke="#63b8ff" points="90.31,-257.42 83.65,-249.18 83.72,-259.77 90.31,-257.42"/>
</a>
</g>
</g>
<!-- Node4 -->
<g id="Node000004" class="node">
<title>Node4</title>
<g id="a_Node000004"><a xlink:href="classmm_1_1NURBSShape.html" target="_top" xlink:title="Class representing a shape made out of NURBS patches in an arbitrary dimensional space.">
<polygon fill="white" stroke="#666666" points="346,-410.5 211,-410.5 211,-380.5 346,-380.5 346,-410.5"/>
<text text-anchor="start" x="219" y="-398.5" font-family="Helvetica,sans-Serif" font-size="10.00">mm::NURBSShape&lt; vec</text>
<text text-anchor="middle" x="278.5" y="-387.5" font-family="Helvetica,sans-Serif" font-size="10.00">_t, param_vec_t &gt;</text>
</a>
</g>
</g>
<!-- Node1&#45;&gt;Node4 -->
<g id="edge3_Node000001_Node000004" class="edge">
<title>Node1&#45;&gt;Node4</title>
<g id="a_edge3_Node000001_Node000004"><a xlink:title=" ">
<path fill="none" stroke="#63b8ff" d="M91.37,-257.72C109.33,-286.27 147.95,-341.36 195,-371.5 200.4,-374.96 206.32,-377.93 212.42,-380.49"/>
<polygon fill="#63b8ff" stroke="#63b8ff" points="94.31,-255.82 86.09,-249.14 88.35,-259.49 94.31,-255.82"/>
</a>
</g>
</g>
<!-- Node5 -->
<g id="Node000005" class="node">
<title>Node5</title>
<g id="a_Node000005"><a xlink:href="classmm_1_1PolygonShape.html" target="_top" xlink:title="Shape representing a simple (i.e. non self intersecting) nonempty polygon in 2D, which is given as a ...">
<polygon fill="white" stroke="#666666" points="358.5,-362 198.5,-362 198.5,-343 358.5,-343 358.5,-362"/>
<text text-anchor="middle" x="278.5" y="-350" font-family="Helvetica,sans-Serif" font-size="10.00">mm::PolygonShape&lt; vec_t &gt;</text>
</a>
</g>
</g>
<!-- Node1&#45;&gt;Node5 -->
<g id="edge4_Node000001_Node000005" class="edge">
<title>Node1&#45;&gt;Node5</title>
<g id="a_edge4_Node000001_Node000005"><a xlink:title=" ">
<path fill="none" stroke="#63b8ff" d="M96.24,-256.58C116.86,-277.88 155.09,-313.88 195,-333.5 202.91,-337.39 211.65,-340.5 220.39,-342.98"/>
<polygon fill="#63b8ff" stroke="#63b8ff" points="98.66,-254.04 89.24,-249.2 93.58,-258.86 98.66,-254.04"/>
</a>
</g>
</g>
<!-- Node6 -->
<g id="Node000006" class="node">
<title>Node6</title>
<g id="a_Node000006"><a xlink:href="classmm_1_1PolyhedronShape.html" target="_top" xlink:title="A polyhedron represented by a closed triangular mesh.">
<polygon fill="white" stroke="#666666" points="342,-324.5 215,-324.5 215,-294.5 342,-294.5 342,-324.5"/>
<text text-anchor="start" x="223" y="-312.5" font-family="Helvetica,sans-Serif" font-size="10.00">mm::PolyhedronShape</text>
<text text-anchor="middle" x="278.5" y="-301.5" font-family="Helvetica,sans-Serif" font-size="10.00">&lt; vec_t &gt;</text>
</a>
</g>
</g>
<!-- Node1&#45;&gt;Node6 -->
<g id="edge5_Node000001_Node000006" class="edge">
<title>Node1&#45;&gt;Node6</title>
<g id="a_edge5_Node000001_Node000006"><a xlink:title=" ">
<path fill="none" stroke="#63b8ff" d="M112.14,-253.19C134.95,-262.82 166.6,-275.69 195,-285.5 203.88,-288.57 213.39,-291.58 222.68,-294.38"/>
<polygon fill="#63b8ff" stroke="#63b8ff" points="113.2,-249.84 102.63,-249.15 110.47,-256.28 113.2,-249.84"/>
</a>
</g>
</g>
<!-- Node7 -->
<g id="Node000007" class="node">
<title>Node7</title>
<g id="a_Node000007"><a xlink:href="classmm_1_1PolytopeShape.html" target="_top" xlink:title="Shape representing a simple nonempty polytope (i.e., non&#45;self intersecting polygon in 2D and polyhedr...">
<polygon fill="white" stroke="#666666" points="340,-276.5 217,-276.5 217,-246.5 340,-246.5 340,-276.5"/>
<text text-anchor="start" x="225" y="-264.5" font-family="Helvetica,sans-Serif" font-size="10.00">mm::PolytopeShape&lt;</text>
<text text-anchor="middle" x="278.5" y="-253.5" font-family="Helvetica,sans-Serif" font-size="10.00"> vec_t &gt;</text>
</a>
</g>
</g>
<!-- Node1&#45;&gt;Node7 -->
<g id="edge6_Node000001_Node000007" class="edge">
<title>Node1&#45;&gt;Node7</title>
<g id="a_edge6_Node000001_Node000007"><a xlink:title=" ">
<path fill="none" stroke="#63b8ff" d="M169.18,-249.4C185.29,-251.2 201.75,-253.04 216.82,-254.72"/>
<polygon fill="#63b8ff" stroke="#63b8ff" points="169.54,-245.92 159.21,-248.29 168.76,-252.88 169.54,-245.92"/>
</a>
</g>
</g>
<!-- Node8 -->
<g id="Node000008" class="node">
<title>Node8</title>
<g id="a_Node000008"><a xlink:href="classmm_1_1RotatedShape.html" target="_top" xlink:title="Class for working with rotated (or mirrored) domain shapes.">
<polygon fill="white" stroke="#666666" points="358,-228 199,-228 199,-209 358,-209 358,-228"/>
<text text-anchor="middle" x="278.5" y="-216" font-family="Helvetica,sans-Serif" font-size="10.00">mm::RotatedShape&lt; vec_t &gt;</text>
</a>
</g>
</g>
<!-- Node1&#45;&gt;Node8 -->
<g id="edge7_Node000001_Node000008" class="edge">
<title>Node1&#45;&gt;Node8</title>
<g id="a_edge7_Node000001_Node000008"><a xlink:title=" ">
<path fill="none" stroke="#63b8ff" d="M169.4,-230.02C179.24,-228.97 189.21,-227.91 198.92,-226.88"/>
<polygon fill="#63b8ff" stroke="#63b8ff" points="168.78,-226.57 159.21,-231.11 169.52,-233.53 168.78,-226.57"/>
</a>
</g>
</g>
<!-- Node9 -->
<g id="Node000009" class="node">
<title>Node9</title>
<g id="a_Node000009"><a xlink:href="classmm_1_1STLShape.html" target="_top" xlink:title="Class representing an object given by the STL file.">
<polygon fill="white" stroke="#666666" points="347.5,-191 209.5,-191 209.5,-172 347.5,-172 347.5,-191"/>
<text text-anchor="middle" x="278.5" y="-179" font-family="Helvetica,sans-Serif" font-size="10.00">mm::STLShape&lt; vec_t &gt;</text>
</a>
</g>
</g>
<!-- Node1&#45;&gt;Node9 -->
<g id="edge8_Node000001_Node000009" class="edge">
<title>Node1&#45;&gt;Node9</title>
<g id="a_edge8_Node000001_Node000009"><a xlink:title=" ">
<path fill="none" stroke="#63b8ff" d="M115.65,-226.49C138.16,-218.42 168.08,-208.16 195,-200.5 207.02,-197.08 220.15,-193.84 232.33,-191.03"/>
<polygon fill="#63b8ff" stroke="#63b8ff" points="114.4,-223.22 106.18,-229.91 116.78,-229.8 114.4,-223.22"/>
</a>
</g>
</g>
<!-- Node10 -->
<g id="Node000010" class="node">
<title>Node10</title>
<g id="a_Node000010"><a xlink:href="classmm_1_1ShapeDifference.html" target="_top" xlink:title="A class representing a set&#45;difference of two shapes.">
<polygon fill="white" stroke="#666666" points="339.5,-153.5 217.5,-153.5 217.5,-123.5 339.5,-123.5 339.5,-153.5"/>
<text text-anchor="start" x="225.5" y="-141.5" font-family="Helvetica,sans-Serif" font-size="10.00">mm::ShapeDifference</text>
<text text-anchor="middle" x="278.5" y="-130.5" font-family="Helvetica,sans-Serif" font-size="10.00">&lt; vec_t &gt;</text>
</a>
</g>
</g>
<!-- Node1&#45;&gt;Node10 -->
<g id="edge9_Node000001_Node000010" class="edge">
<title>Node1&#45;&gt;Node10</title>
<g id="a_edge9_Node000001_Node000010"><a xlink:title=" ">
<path fill="none" stroke="#63b8ff" d="M100.44,-223.63C122.47,-206.74 159.56,-180.19 195,-163.5 202.85,-159.8 211.38,-156.5 219.88,-153.59"/>
<polygon fill="#63b8ff" stroke="#63b8ff" points="98.24,-220.9 92.5,-229.8 102.54,-226.43 98.24,-220.9"/>
</a>
</g>
</g>
<!-- Node11 -->
<g id="Node000011" class="node">
<title>Node11</title>
<g id="a_Node000011"><a xlink:href="classmm_1_1ShapeUnion.html" target="_top" xlink:title="Class representing a union of two shapes.">
<polygon fill="white" stroke="#666666" points="353,-105 204,-105 204,-86 353,-86 353,-105"/>
<text text-anchor="middle" x="278.5" y="-93" font-family="Helvetica,sans-Serif" font-size="10.00">mm::ShapeUnion&lt; vec_t &gt;</text>
</a>
</g>
</g>
<!-- Node1&#45;&gt;Node11 -->
<g id="edge10_Node000001_Node000011" class="edge">
<title>Node1&#45;&gt;Node11</title>
<g id="a_edge10_Node000001_Node000011"><a xlink:title=" ">
<path fill="none" stroke="#63b8ff" d="M91.93,-221.19C110.17,-193.55 148.6,-141.55 195,-114.5 201.6,-110.65 208.93,-107.58 216.41,-105.13"/>
<polygon fill="#63b8ff" stroke="#63b8ff" points="88.81,-219.56 86.33,-229.87 94.69,-223.36 88.81,-219.56"/>
</a>
</g>
</g>
<!-- Node12 -->
<g id="Node000012" class="node">
<title>Node12</title>
<g id="a_Node000012"><a xlink:href="classmm_1_1TranslatedShape.html" target="_top" xlink:title="Class for working with translated domain shapes.">
<polygon fill="white" stroke="#666666" points="339.5,-67.5 217.5,-67.5 217.5,-37.5 339.5,-37.5 339.5,-67.5"/>
<text text-anchor="start" x="225.5" y="-55.5" font-family="Helvetica,sans-Serif" font-size="10.00">mm::TranslatedShape</text>
<text text-anchor="middle" x="278.5" y="-44.5" font-family="Helvetica,sans-Serif" font-size="10.00">&lt; vec_t &gt;</text>
</a>
</g>
</g>
<!-- Node1&#45;&gt;Node12 -->
<g id="edge11_Node000001_Node000012" class="edge">
<title>Node1&#45;&gt;Node12</title>
<g id="a_edge11_Node000001_Node000012"><a xlink:title=" ">
<path fill="none" stroke="#63b8ff" d="M88.75,-220.55C104.44,-186.71 141.84,-115.84 195,-77.5 201.68,-72.68 209.29,-68.78 217.13,-65.63"/>
<polygon fill="#63b8ff" stroke="#63b8ff" points="85.5,-219.23 84.58,-229.79 91.88,-222.11 85.5,-219.23"/>
</a>
</g>
</g>
<!-- Node13 -->
<g id="Node000013" class="node">
<title>Node13</title>
<g id="a_Node000013"><a xlink:href="classmm_1_1UnknownShape.html" target="_top" xlink:title="This class represents an unknown domain shape.">
<polygon fill="white" stroke="#666666" points="362,-19 195,-19 195,0 362,0 362,-19"/>
<text text-anchor="middle" x="278.5" y="-7" font-family="Helvetica,sans-Serif" font-size="10.00">mm::UnknownShape&lt; vec_t &gt;</text>
</a>
</g>
</g>
<!-- Node1&#45;&gt;Node13 -->
<g id="edge12_Node000001_Node000013" class="edge">
<title>Node1&#45;&gt;Node13</title>
<g id="a_edge12_Node000001_Node000013"><a xlink:title=" ">
<path fill="none" stroke="#63b8ff" d="M85.3,-219.79C96.64,-177.63 129.21,-78.51 195,-28.5 200.03,-24.68 205.7,-21.6 211.65,-19.13"/>
<polygon fill="#63b8ff" stroke="#63b8ff" points="81.87,-219.09 82.76,-229.65 88.65,-220.84 81.87,-219.09"/>
</a>
</g>
</g>
</g>
</svg>
