<?xml version="1.0" encoding="UTF-8" standalone="no"?>
<!DOCTYPE svg PUBLIC "-//W3C//DTD SVG 1.1//EN"
 "http://www.w3.org/Graphics/SVG/1.1/DTD/svg11.dtd">
<!-- Generated by graphviz version 2.43.0 (0)
 -->
<!-- Title: mm::RaggedShapeStorage&lt; vec_t, OpFamilies &gt; Pages: 1 -->
<!--zoomable 136 -->

<svg id="main" version="1.1" xmlns="http://www.w3.org/2000/svg" xmlns:xlink="http://www.w3.org/1999/xlink" xml:space="preserve" onload="init(evt)">
<style type="text/css"><![CDATA[
.node, .edge {opacity: 0.7;}
.node.selected, .edge.selected {opacity: 1;}
.edge:hover path { stroke: red; }
.edge:hover polygon { stroke: red; fill: red; }
]]></style>

<defs>
  <circle id="rim" cx="0" cy="0" r="7"/>
  <circle id="rim2" cx="0" cy="0" r="3.5"/>
  <g id="zoomPlus">
    <use xlink:href="#rim" fill="#404040"><set attributeName="fill" to="#808080" begin="zoomplus.mouseover" end="zoomplus.mouseout"/></use>
    <path d="M-4,0h8M0,-4v8" fill="none" stroke="white" stroke-width="1.5" pointer-events="none"/>
  </g>
  <g id="zoomMin">
    <use xlink:href="#rim" fill="#404040"><set attributeName="fill" to="#808080" begin="zoomminus.mouseover" end="zoomminus.mouseout"/></use>
    <path d="M-4,0h8" fill="none" stroke="white" stroke-width="1.5" pointer-events="none"/>
  </g>
  <g id="arrowUp" transform="translate(30 24)">
    <use xlink:href="#rim"/>
    <path pointer-events="none" fill="none" stroke="white" stroke-width="1.5" d="M0,-3.0v7 M-2.5,-0.5L0,-3.0L2.5,-0.5"/>
  </g>
  <g id="arrowRight" transform="rotate(90) translate(36 -43)">
    <use xlink:href="#rim"/>
    <path pointer-events="none" fill="none" stroke="white" stroke-width="1.5" d="M0,-3.0v7 M-2.5,-0.5L0,-3.0L2.5,-0.5"/>
  </g>
  <g id="arrowDown" transform="rotate(180) translate(-30 -48)">
    <use xlink:href="#rim"/>
    <path pointer-events="none" fill="none" stroke="white" stroke-width="1.5" d="M0,-3.0v7 M-2.5,-0.5L0,-3.0L2.5,-0.5"/>
  </g>
  <g id="arrowLeft" transform="rotate(270) translate(-36 17)">
    <use xlink:href="#rim"/>
    <path pointer-events="none" fill="none" stroke="white" stroke-width="1.5" d="M0,-3.0v7 M-2.5,-0.5L0,-3.0L2.5,-0.5"/>
  </g>
  <g id="resetDef">
    <use xlink:href="#rim2" fill="#404040"><set attributeName="fill" to="#808080" begin="reset.mouseover" end="reset.mouseout"/></use>
  </g>
</defs>
<script type="application/ecmascript">
var viewWidth = 628;
var viewHeight = 136;
var sectionId = 'dynsection-1';
</script>
<script type="application/ecmascript" xlink:href="svg.min.js"/>
<svg id="graph" class="graph">
<g id="viewport">
<title>mm::RaggedShapeStorage&lt; vec_t, OpFamilies &gt;</title>
<!-- Node1 -->
<g id="Node000001" class="node">
<title>Node1</title>
<g id="a_Node000001"><a xlink:title="Efficiently stores shape functions of different lengths.">
<polygon fill="#999999" stroke="#666666" points="620,-65 474,-65 474,-35 620,-35 620,-65"/>
<text text-anchor="start" x="482" y="-53" font-family="Helvetica,sans-Serif" font-size="10.00">mm::RaggedShapeStorage</text>
<text text-anchor="middle" x="547" y="-42" font-family="Helvetica,sans-Serif" font-size="10.00">&lt; vec_t, OpFamilies &gt;</text>
</a>
</g>
</g>
<!-- Node2 -->
<g id="Node000002" class="node">
<title>Node2</title>
<g id="a_Node000002"><a xlink:title=" ">
<polygon fill="white" stroke="#bfbfbf" points="362,-127.5 167,-127.5 167,-42.5 362,-42.5 362,-127.5"/>
<text text-anchor="start" x="175" y="-115.5" font-family="Helvetica,sans-Serif" font-size="10.00">ShapeStorage&lt; RaggedShape</text>
<text text-anchor="start" x="175" y="-104.5" font-family="Helvetica,sans-Serif" font-size="10.00">Storage&lt; vec_t, std::tuple</text>
<text text-anchor="start" x="175" y="-93.5" font-family="Helvetica,sans-Serif" font-size="10.00">&lt;Lap&lt;vec_t::dim&gt;, Der1s&lt;vec</text>
<text text-anchor="start" x="175" y="-82.5" font-family="Helvetica,sans-Serif" font-size="10.00">_t::dim&gt;, Der2s&lt;vec_t::dim&gt;&gt;</text>
<text text-anchor="start" x="175" y="-71.5" font-family="Helvetica,sans-Serif" font-size="10.00"> &#160;&gt;, vec_t, std::tuple&lt;Lap&lt;vec</text>
<text text-anchor="start" x="175" y="-60.5" font-family="Helvetica,sans-Serif" font-size="10.00">_t::dim&gt;, Der1s&lt;vec_t::dim&gt;, Der2s</text>
<text text-anchor="middle" x="264.5" y="-49.5" font-family="Helvetica,sans-Serif" font-size="10.00">&lt;vec_t::dim&gt;&gt; &#160;&gt;</text>
</a>
</g>
</g>
<!-- Node2&#45;&gt;Node1 -->
<g id="edge1_Node000001_Node000002" class="edge">
<title>Node2&#45;&gt;Node1</title>
<g id="a_edge1_Node000001_Node000002"><a xlink:title=" ">
<path fill="none" stroke="#63b8ff" d="M372,-71.71C405.95,-67.47 442.72,-62.89 473.66,-59.03"/>
<polygon fill="#63b8ff" stroke="#63b8ff" points="371.52,-68.24 362.03,-72.95 372.39,-75.19 371.52,-68.24"/>
</a>
</g>
</g>
<!-- Node3 -->
<g id="Node000003" class="node">
<title>Node3</title>
<g id="a_Node000003"><a xlink:href="classmm_1_1Range.html" target="_top" xlink:title=" ">
<polygon fill="white" stroke="#666666" points="318.5,-24.5 210.5,-24.5 210.5,-5.5 318.5,-5.5 318.5,-24.5"/>
<text text-anchor="middle" x="264.5" y="-12.5" font-family="Helvetica,sans-Serif" font-size="10.00">mm::Range&lt; int &gt;</text>
</a>
</g>
</g>
<!-- Node3&#45;&gt;Node1 -->
<g id="edge2_Node000001_Node000003" class="edge">
<title>Node3&#45;&gt;Node1</title>
<g id="a_edge2_Node000001_Node000003"><a xlink:title=" ">
<path fill="none" stroke="#9a32cd" stroke-dasharray="5,2" d="M328.75,-20.67C365.88,-24.24 413.68,-29.26 456,-35 461.81,-35.79 467.82,-36.66 473.85,-37.58"/>
<polygon fill="#9a32cd" stroke="#9a32cd" points="328.86,-17.17 318.57,-19.7 328.19,-24.13 328.86,-17.17"/>
</a>
</g>
<text text-anchor="middle" x="418" y="-49" font-family="Helvetica,sans-Serif" font-size="10.00" fill="grey"> support_sizes_</text>
<text text-anchor="middle" x="418" y="-38" font-family="Helvetica,sans-Serif" font-size="10.00" fill="grey">support_starts_</text>
</g>
<!-- Node4 -->
<g id="Node000004" class="node">
<title>Node4</title>
<g id="a_Node000004"><a xlink:title=" ">
<polygon fill="white" stroke="#bfbfbf" points="130,-30 0,-30 0,0 130,0 130,-30"/>
<text text-anchor="start" x="8" y="-18" font-family="Helvetica,sans-Serif" font-size="10.00">std::vector&lt; int ,</text>
<text text-anchor="middle" x="65" y="-7" font-family="Helvetica,sans-Serif" font-size="10.00"> std::allocator&lt;int &gt; &#160;&gt;</text>
</a>
</g>
</g>
<!-- Node4&#45;&gt;Node3 -->
<g id="edge3_Node000003_Node000004" class="edge">
<title>Node4&#45;&gt;Node3</title>
<g id="a_edge3_Node000003_Node000004"><a xlink:title=" ">
<path fill="none" stroke="#63b8ff" d="M140.3,-15C163.57,-15 188.76,-15 210.26,-15"/>
<polygon fill="#63b8ff" stroke="#63b8ff" points="140.12,-11.5 130.12,-15 140.12,-18.5 140.12,-11.5"/>
</a>
</g>
</g>
</g>
</svg>

<g id="navigator" transform="translate(0 0)" fill="#404254">
  <rect fill="#f2f5e9" fill-opacity="0.5" stroke="#606060" stroke-width=".5" x="0" y="0" width="60" height="60"/>
  <use id="zoomplus" xlink:href="#zoomPlus" x="17" y="9" onmousedown="handleZoom(evt,'in')"/>
  <use id="zoomminus" xlink:href="#zoomMin" x="42" y="9" onmousedown="handleZoom(evt,'out')"/>
  <use id="reset" xlink:href="#resetDef" x="30" y="36" onmousedown="handleReset()"/>
   <use id="arrowup" xlink:href="#arrowUp" x="0" y="0" onmousedown="handlePan(0,-1)"/>
  <use id="arrowright" xlink:href="#arrowRight" x="0" y="0" onmousedown="handlePan(1,0)"/>
  <use id="arrowdown" xlink:href="#arrowDown" x="0" y="0" onmousedown="handlePan(0,1)"/>
  <use id="arrowleft" xlink:href="#arrowLeft" x="0" y="0" onmousedown="handlePan(-1,0)"/>
</g>
<svg viewBox="0 0 15 15" width="100%" height="30px" preserveAspectRatio="xMaxYMin meet">
 <g id="arrow_out" transform="scale(0.3 0.3)">
  <a xlink:href="classmm_1_1RaggedShapeStorage__coll__graph_org.svg" target="_base">
   <rect id="button" ry="5" rx="5" y="6" x="6" height="38" width="38"
        fill="#f2f5e9" fill-opacity="0.5" stroke="#606060" stroke-width="1.0"/>
   <path id="arrow"
     d="M 11.500037,31.436501 C 11.940474,20.09759 22.043105,11.32322 32.158766,21.979434 L 37.068811,17.246167 C 37.068811,17.246167 37.088388,32 37.088388,32 L 22.160133,31.978069 C 22.160133,31.978069 26.997745,27.140456 26.997745,27.140456 C 18.528582,18.264221 13.291696,25.230495 11.500037,31.436501 z"
     style="fill:#404040;"/>
  </a>
 </g>
</svg>

<style type='text/css'>
<![CDATA[
[data-mouse-over-selected='false'] { opacity: 0.7; }
[data-mouse-over-selected='true']  { opacity: 1.0; }
]]>
</style>
<script type="application/ecmascript"><![CDATA[
document.addEventListener('DOMContentLoaded', (event) => {
  highlightEdges();
  highlightAdjacentNodes();
});
]]></script>
</svg>
