<?xml version="1.0" encoding="UTF-8" standalone="no"?>
<!DOCTYPE svg PUBLIC "-//W3C//DTD SVG 1.1//EN"
 "http://www.w3.org/Graphics/SVG/1.1/DTD/svg11.dtd">
<!-- Generated by graphviz version 2.43.0 (0)
 -->
<!-- Title: mm::DomainDiscretization&lt; vec_t &gt; Pages: 1 -->
<!--zoomable 216 -->

<svg id="main" version="1.1" xmlns="http://www.w3.org/2000/svg" xmlns:xlink="http://www.w3.org/1999/xlink" xml:space="preserve" onload="init(evt)">
<style type="text/css"><![CDATA[
.node, .edge {opacity: 0.7;}
.node.selected, .edge.selected {opacity: 1;}
.edge:hover path { stroke: red; }
.edge:hover polygon { stroke: red; fill: red; }
]]></style>

<defs>
  <circle id="rim" cx="0" cy="0" r="7"/>
  <circle id="rim2" cx="0" cy="0" r="3.5"/>
  <g id="zoomPlus">
    <use xlink:href="#rim" fill="#404040"><set attributeName="fill" to="#808080" begin="zoomplus.mouseover" end="zoomplus.mouseout"/></use>
    <path d="M-4,0h8M0,-4v8" fill="none" stroke="white" stroke-width="1.5" pointer-events="none"/>
  </g>
  <g id="zoomMin">
    <use xlink:href="#rim" fill="#404040"><set attributeName="fill" to="#808080" begin="zoomminus.mouseover" end="zoomminus.mouseout"/></use>
    <path d="M-4,0h8" fill="none" stroke="white" stroke-width="1.5" pointer-events="none"/>
  </g>
  <g id="arrowUp" transform="translate(30 24)">
    <use xlink:href="#rim"/>
    <path pointer-events="none" fill="none" stroke="white" stroke-width="1.5" d="M0,-3.0v7 M-2.5,-0.5L0,-3.0L2.5,-0.5"/>
  </g>
  <g id="arrowRight" transform="rotate(90) translate(36 -43)">
    <use xlink:href="#rim"/>
    <path pointer-events="none" fill="none" stroke="white" stroke-width="1.5" d="M0,-3.0v7 M-2.5,-0.5L0,-3.0L2.5,-0.5"/>
  </g>
  <g id="arrowDown" transform="rotate(180) translate(-30 -48)">
    <use xlink:href="#rim"/>
    <path pointer-events="none" fill="none" stroke="white" stroke-width="1.5" d="M0,-3.0v7 M-2.5,-0.5L0,-3.0L2.5,-0.5"/>
  </g>
  <g id="arrowLeft" transform="rotate(270) translate(-36 17)">
    <use xlink:href="#rim"/>
    <path pointer-events="none" fill="none" stroke="white" stroke-width="1.5" d="M0,-3.0v7 M-2.5,-0.5L0,-3.0L2.5,-0.5"/>
  </g>
  <g id="resetDef">
    <use xlink:href="#rim2" fill="#404040"><set attributeName="fill" to="#808080" begin="reset.mouseover" end="reset.mouseout"/></use>
  </g>
</defs>
<script type="application/ecmascript">
var viewWidth = 647;
var viewHeight = 216;
var sectionId = 'dynsection-0';
</script>
<script type="application/ecmascript" xlink:href="svg.min.js"/>
<svg id="graph" class="graph">
<g id="viewport">
<title>mm::DomainDiscretization&lt; vec_t &gt;</title>
<!-- Node1 -->
<g id="Node000001" class="node">
<title>Node1</title>
<g id="a_Node000001"><a xlink:title="Class representing domain discretization along with an associated shape.">
<polygon fill="#999999" stroke="#666666" points="639,-124 491,-124 491,-94 639,-94 639,-124"/>
<text text-anchor="start" x="499" y="-112" font-family="Helvetica,sans-Serif" font-size="10.00">mm::DomainDiscretization</text>
<text text-anchor="middle" x="565" y="-101" font-family="Helvetica,sans-Serif" font-size="10.00">&lt; vec_t &gt;</text>
</a>
</g>
</g>
<!-- Node2 -->
<g id="Node000002" class="node">
<title>Node2</title>
<g id="a_Node000002"><a xlink:href="classmm_1_1Range.html" target="_top" xlink:title=" ">
<polygon fill="white" stroke="#666666" points="364,-196.5 242,-196.5 242,-177.5 364,-177.5 364,-196.5"/>
<text text-anchor="middle" x="303" y="-184.5" font-family="Helvetica,sans-Serif" font-size="10.00">mm::Range&lt; vec_t &gt;</text>
</a>
</g>
</g>
<!-- Node2&#45;&gt;Node1 -->
<g id="edge1_Node000001_Node000002" class="edge">
<title>Node2&#45;&gt;Node1</title>
<g id="a_edge1_Node000001_Node000002"><a xlink:title=" ">
<path fill="none" stroke="#9a32cd" stroke-dasharray="5,2" d="M350.45,-174.85C384.52,-165.75 431.82,-152.73 473,-140 488.95,-135.07 506.32,-129.26 521.57,-124.01"/>
<polygon fill="#9a32cd" stroke="#9a32cd" points="349.53,-171.47 340.77,-177.42 351.33,-178.23 349.53,-171.47"/>
</a>
</g>
<text text-anchor="middle" x="432" y="-176" font-family="Helvetica,sans-Serif" font-size="10.00" fill="grey"> normals_</text>
<text text-anchor="middle" x="432" y="-165" font-family="Helvetica,sans-Serif" font-size="10.00" fill="grey">positions_</text>
</g>
<!-- Node3 -->
<g id="Node000003" class="node">
<title>Node3</title>
<g id="a_Node000003"><a xlink:title=" ">
<polygon fill="white" stroke="#bfbfbf" points="169.5,-208 26.5,-208 26.5,-178 169.5,-178 169.5,-208"/>
<text text-anchor="start" x="34.5" y="-196" font-family="Helvetica,sans-Serif" font-size="10.00">std::vector&lt; vec_t,</text>
<text text-anchor="middle" x="98" y="-185" font-family="Helvetica,sans-Serif" font-size="10.00"> std::allocator&lt; vec_t &gt; &gt;</text>
</a>
</g>
</g>
<!-- Node3&#45;&gt;Node2 -->
<g id="edge2_Node000002_Node000003" class="edge">
<title>Node3&#45;&gt;Node2</title>
<g id="a_edge2_Node000002_Node000003"><a xlink:title=" ">
<path fill="none" stroke="#63b8ff" d="M179.79,-190.61C200.54,-190 222.49,-189.35 241.98,-188.77"/>
<polygon fill="#63b8ff" stroke="#63b8ff" points="179.61,-187.12 169.71,-190.91 179.81,-194.11 179.61,-187.12"/>
</a>
</g>
</g>
<!-- Node4 -->
<g id="Node000004" class="node">
<title>Node4</title>
<g id="a_Node000004"><a xlink:href="classmm_1_1Range.html" target="_top" xlink:title=" ">
<polygon fill="white" stroke="#666666" points="373,-150 233,-150 233,-120 373,-120 373,-150"/>
<text text-anchor="start" x="241" y="-138" font-family="Helvetica,sans-Serif" font-size="10.00">mm::Range&lt; mm::Range</text>
<text text-anchor="middle" x="303" y="-127" font-family="Helvetica,sans-Serif" font-size="10.00">&lt; int &gt; &gt;</text>
</a>
</g>
</g>
<!-- Node4&#45;&gt;Node1 -->
<g id="edge3_Node000001_Node000004" class="edge">
<title>Node4&#45;&gt;Node1</title>
<g id="a_edge3_Node000001_Node000004"><a xlink:title=" ">
<path fill="none" stroke="#9a32cd" stroke-dasharray="5,2" d="M383.29,-127.07C417.5,-123.65 457.26,-119.67 490.77,-116.32"/>
<polygon fill="#9a32cd" stroke="#9a32cd" points="382.94,-123.59 373.33,-128.07 383.63,-130.55 382.94,-123.59"/>
</a>
</g>
<text text-anchor="middle" x="432" y="-128" font-family="Helvetica,sans-Serif" font-size="10.00" fill="grey"> support_</text>
</g>
<!-- Node5 -->
<g id="Node000005" class="node">
<title>Node5</title>
<g id="a_Node000005"><a xlink:title=" ">
<polygon fill="white" stroke="#bfbfbf" points="169,-159.5 27,-159.5 27,-118.5 169,-118.5 169,-159.5"/>
<text text-anchor="start" x="35" y="-147.5" font-family="Helvetica,sans-Serif" font-size="10.00">std::vector&lt; mm::Range</text>
<text text-anchor="start" x="35" y="-136.5" font-family="Helvetica,sans-Serif" font-size="10.00">&lt; int &gt;, std::allocator</text>
<text text-anchor="middle" x="98" y="-125.5" font-family="Helvetica,sans-Serif" font-size="10.00">&lt; mm::Range&lt; int &gt; &gt; &gt;</text>
</a>
</g>
</g>
<!-- Node5&#45;&gt;Node4 -->
<g id="edge4_Node000004_Node000005" class="edge">
<title>Node5&#45;&gt;Node4</title>
<g id="a_edge4_Node000004_Node000005"><a xlink:title=" ">
<path fill="none" stroke="#63b8ff" d="M179.44,-137.42C197.12,-137.07 215.69,-136.7 232.88,-136.36"/>
<polygon fill="#63b8ff" stroke="#63b8ff" points="179.07,-133.92 169.15,-137.62 179.21,-140.92 179.07,-133.92"/>
</a>
</g>
</g>
<!-- Node6 -->
<g id="Node000006" class="node">
<title>Node6</title>
<g id="a_Node000006"><a xlink:href="classmm_1_1Range.html" target="_top" xlink:title=" ">
<polygon fill="white" stroke="#666666" points="357,-95.5 249,-95.5 249,-76.5 357,-76.5 357,-95.5"/>
<text text-anchor="middle" x="303" y="-83.5" font-family="Helvetica,sans-Serif" font-size="10.00">mm::Range&lt; int &gt;</text>
</a>
</g>
</g>
<!-- Node6&#45;&gt;Node1 -->
<g id="edge5_Node000001_Node000006" class="edge">
<title>Node6&#45;&gt;Node1</title>
<g id="a_edge5_Node000001_Node000006"><a xlink:title=" ">
<path fill="none" stroke="#9a32cd" stroke-dasharray="5,2" d="M367.14,-84.77C398.98,-84.84 438.14,-85.98 473,-90 481.5,-90.98 490.38,-92.37 499.12,-93.95"/>
<polygon fill="#9a32cd" stroke="#9a32cd" points="367.07,-81.27 357.07,-84.79 367.08,-88.27 367.07,-81.27"/>
</a>
</g>
<text text-anchor="middle" x="432" y="-104" font-family="Helvetica,sans-Serif" font-size="10.00" fill="grey"> boundary_map_</text>
<text text-anchor="middle" x="432" y="-93" font-family="Helvetica,sans-Serif" font-size="10.00" fill="grey">types_</text>
</g>
<!-- Node7 -->
<g id="Node000007" class="node">
<title>Node7</title>
<g id="a_Node000007"><a xlink:title=" ">
<polygon fill="white" stroke="#bfbfbf" points="163,-100 33,-100 33,-70 163,-70 163,-100"/>
<text text-anchor="start" x="41" y="-88" font-family="Helvetica,sans-Serif" font-size="10.00">std::vector&lt; int ,</text>
<text text-anchor="middle" x="98" y="-77" font-family="Helvetica,sans-Serif" font-size="10.00"> std::allocator&lt;int &gt; &#160;&gt;</text>
</a>
</g>
</g>
<!-- Node7&#45;&gt;Node6 -->
<g id="edge6_Node000006_Node000007" class="edge">
<title>Node7&#45;&gt;Node6</title>
<g id="a_edge6_Node000006_Node000007"><a xlink:title=" ">
<path fill="none" stroke="#63b8ff" d="M173.4,-85.37C198.37,-85.49 225.71,-85.62 248.73,-85.74"/>
<polygon fill="#63b8ff" stroke="#63b8ff" points="173.25,-81.87 163.23,-85.32 173.21,-88.87 173.25,-81.87"/>
</a>
</g>
</g>
<!-- Node8 -->
<g id="Node000008" class="node">
<title>Node8</title>
<g id="a_Node000008"><a xlink:href="classmm_1_1deep__copy__unique__ptr.html" target="_top" xlink:title=" ">
<polygon fill="white" stroke="#666666" points="373,-53.5 233,-53.5 233,-12.5 373,-12.5 373,-53.5"/>
<text text-anchor="start" x="241" y="-41.5" font-family="Helvetica,sans-Serif" font-size="10.00">mm::deep_copy_unique</text>
<text text-anchor="start" x="241" y="-30.5" font-family="Helvetica,sans-Serif" font-size="10.00">_ptr&lt; mm::DomainShape</text>
<text text-anchor="middle" x="303" y="-19.5" font-family="Helvetica,sans-Serif" font-size="10.00">&lt; vec_t &gt; &gt;</text>
</a>
</g>
</g>
<!-- Node8&#45;&gt;Node1 -->
<g id="edge7_Node000001_Node000008" class="edge">
<title>Node8&#45;&gt;Node1</title>
<g id="a_edge7_Node000001_Node000008"><a xlink:title=" ">
<path fill="none" stroke="#9a32cd" stroke-dasharray="5,2" d="M383,-47.07C411.66,-53.01 444.09,-60.73 473,-70 493.46,-76.56 515.64,-86.01 532.97,-93.97"/>
<polygon fill="#9a32cd" stroke="#9a32cd" points="383.53,-43.6 373.03,-45.04 382.13,-50.46 383.53,-43.6"/>
</a>
</g>
<text text-anchor="middle" x="432" y="-73" font-family="Helvetica,sans-Serif" font-size="10.00" fill="grey"> shape_</text>
</g>
<!-- Node9 -->
<g id="Node000009" class="node">
<title>Node9</title>
<g id="a_Node000009"><a xlink:title=" ">
<polygon fill="white" stroke="#bfbfbf" points="196,-52 0,-52 0,0 196,0 196,-52"/>
<text text-anchor="start" x="8" y="-40" font-family="Helvetica,sans-Serif" font-size="10.00">std::unique_ptr&lt; mm</text>
<text text-anchor="start" x="8" y="-29" font-family="Helvetica,sans-Serif" font-size="10.00">::DomainShape&lt; vec_t</text>
<text text-anchor="start" x="8" y="-18" font-family="Helvetica,sans-Serif" font-size="10.00"> &gt; , std::default_delete</text>
<text text-anchor="middle" x="98" y="-7" font-family="Helvetica,sans-Serif" font-size="10.00">&lt; mm::DomainShape&lt; vec_t &gt; &#160;&gt; &gt;</text>
</a>
</g>
</g>
<!-- Node9&#45;&gt;Node8 -->
<g id="edge8_Node000008_Node000009" class="edge">
<title>Node9&#45;&gt;Node8</title>
<g id="a_edge8_Node000008_Node000009"><a xlink:title=" ">
<path fill="none" stroke="#63b8ff" d="M206.25,-29.7C215.28,-30.01 224.25,-30.32 232.87,-30.62"/>
<polygon fill="#63b8ff" stroke="#63b8ff" points="206.16,-26.19 196.04,-29.35 205.91,-33.19 206.16,-26.19"/>
</a>
</g>
</g>
</g>
</svg>

<g id="navigator" transform="translate(0 0)" fill="#404254">
  <rect fill="#f2f5e9" fill-opacity="0.5" stroke="#606060" stroke-width=".5" x="0" y="0" width="60" height="60"/>
  <use id="zoomplus" xlink:href="#zoomPlus" x="17" y="9" onmousedown="handleZoom(evt,'in')"/>
  <use id="zoomminus" xlink:href="#zoomMin" x="42" y="9" onmousedown="handleZoom(evt,'out')"/>
  <use id="reset" xlink:href="#resetDef" x="30" y="36" onmousedown="handleReset()"/>
   <use id="arrowup" xlink:href="#arrowUp" x="0" y="0" onmousedown="handlePan(0,-1)"/>
  <use id="arrowright" xlink:href="#arrowRight" x="0" y="0" onmousedown="handlePan(1,0)"/>
  <use id="arrowdown" xlink:href="#arrowDown" x="0" y="0" onmousedown="handlePan(0,1)"/>
  <use id="arrowleft" xlink:href="#arrowLeft" x="0" y="0" onmousedown="handlePan(-1,0)"/>
</g>
<svg viewBox="0 0 15 15" width="100%" height="30px" preserveAspectRatio="xMaxYMin meet">
 <g id="arrow_out" transform="scale(0.3 0.3)">
  <a xlink:href="classmm_1_1DomainDiscretization__coll__graph_org.svg" target="_base">
   <rect id="button" ry="5" rx="5" y="6" x="6" height="38" width="38"
        fill="#f2f5e9" fill-opacity="0.5" stroke="#606060" stroke-width="1.0"/>
   <path id="arrow"
     d="M 11.500037,31.436501 C 11.940474,20.09759 22.043105,11.32322 32.158766,21.979434 L 37.068811,17.246167 C 37.068811,17.246167 37.088388,32 37.088388,32 L 22.160133,31.978069 C 22.160133,31.978069 26.997745,27.140456 26.997745,27.140456 C 18.528582,18.264221 13.291696,25.230495 11.500037,31.436501 z"
     style="fill:#404040;"/>
  </a>
 </g>
</svg>

<style type='text/css'>
<![CDATA[
[data-mouse-over-selected='false'] { opacity: 0.7; }
[data-mouse-over-selected='true']  { opacity: 1.0; }
]]>
</style>
<script type="application/ecmascript"><![CDATA[
document.addEventListener('DOMContentLoaded', (event) => {
  highlightEdges();
  highlightAdjacentNodes();
});
]]></script>
</svg>
