<?xml version="1.0" encoding="UTF-8" standalone="no"?>
<!DOCTYPE svg PUBLIC "-//W3C//DTD SVG 1.1//EN"
 "http://www.w3.org/Graphics/SVG/1.1/DTD/svg11.dtd">
<!-- Generated by graphviz version 2.43.0 (0)
 -->
<!-- Title: mm::FindClosest Pages: 1 -->
<svg width="150pt" height="171pt"
 viewBox="0.00 0.00 150.00 171.00" xmlns="http://www.w3.org/2000/svg" xmlns:xlink="http://www.w3.org/1999/xlink">
<g id="graph0" class="graph" transform="scale(1 1) rotate(0) translate(4 167)">
<title>mm::FindClosest</title>
<!-- Node1 -->
<g id="Node000001" class="node">
<title>Node1</title>
<g id="a_Node000001"><a xlink:title="Class representing the engine for finding supports consisting of closest nodes.">
<polygon fill="#999999" stroke="#666666" points="114,-19 16,-19 16,0 114,0 114,-19"/>
<text text-anchor="middle" x="65" y="-7" font-family="Helvetica,sans-Serif" font-size="10.00">mm::FindClosest</text>
</a>
</g>
</g>
<!-- Node2 -->
<g id="Node000002" class="node">
<title>Node2</title>
<g id="a_Node000002"><a xlink:href="classmm_1_1Range.html" target="_top" xlink:title=" ">
<polygon fill="white" stroke="#666666" points="119,-96 11,-96 11,-77 119,-77 119,-96"/>
<text text-anchor="middle" x="65" y="-84" font-family="Helvetica,sans-Serif" font-size="10.00">mm::Range&lt; int &gt;</text>
</a>
</g>
</g>
<!-- Node2&#45;&gt;Node1 -->
<g id="edge1_Node000001_Node000002" class="edge">
<title>Node2&#45;&gt;Node1</title>
<g id="a_edge1_Node000001_Node000002"><a xlink:title=" ">
<path fill="none" stroke="#9a32cd" stroke-dasharray="5,2" d="M65,-66.52C65,-51.24 65,-30.48 65,-19"/>
<polygon fill="#9a32cd" stroke="#9a32cd" points="61.5,-66.9 65,-76.9 68.5,-66.9 61.5,-66.9"/>
</a>
</g>
<text text-anchor="middle" x="103.5" y="-51" font-family="Helvetica,sans-Serif" font-size="10.00" fill="grey"> for_which_</text>
<text text-anchor="middle" x="103.5" y="-40" font-family="Helvetica,sans-Serif" font-size="10.00" fill="grey">search_among_</text>
</g>
<!-- Node3 -->
<g id="Node000003" class="node">
<title>Node3</title>
<g id="a_Node000003"><a xlink:title=" ">
<polygon fill="white" stroke="#bfbfbf" points="130,-163 0,-163 0,-133 130,-133 130,-163"/>
<text text-anchor="start" x="8" y="-151" font-family="Helvetica,sans-Serif" font-size="10.00">std::vector&lt; int ,</text>
<text text-anchor="middle" x="65" y="-140" font-family="Helvetica,sans-Serif" font-size="10.00"> std::allocator&lt;int &gt; &#160;&gt;</text>
</a>
</g>
</g>
<!-- Node3&#45;&gt;Node2 -->
<g id="edge2_Node000002_Node000003" class="edge">
<title>Node3&#45;&gt;Node2</title>
<g id="a_edge2_Node000002_Node000003"><a xlink:title=" ">
<path fill="none" stroke="#63b8ff" d="M65,-122.79C65,-113.36 65,-103.15 65,-96.16"/>
<polygon fill="#63b8ff" stroke="#63b8ff" points="61.5,-122.9 65,-132.9 68.5,-122.9 61.5,-122.9"/>
</a>
</g>
</g>
</g>
</svg>
