<?xml version="1.0" encoding="UTF-8" standalone="no"?>
<!DOCTYPE svg PUBLIC "-//W3C//DTD SVG 1.1//EN"
 "http://www.w3.org/Graphics/SVG/1.1/DTD/svg11.dtd">
<!-- Generated by graphviz version 2.43.0 (0)
 -->
<!-- Title: mm::AdamsBashforth&lt; Scalar, num_steps &gt;::Integrator&lt; func_t, initial_method_t &gt;::IterationStep Pages: 1 -->
<svg width="642pt" height="143pt"
 viewBox="0.00 0.00 642.00 143.00" xmlns="http://www.w3.org/2000/svg" xmlns:xlink="http://www.w3.org/1999/xlink">
<g id="graph0" class="graph" transform="scale(1 1) rotate(0) translate(4 139)">
<title>mm::AdamsBashforth&lt; Scalar, num_steps &gt;::Integrator&lt; func_t, initial_method_t &gt;::IterationStep</title>
<!-- Node1 -->
<g id="Node000001" class="node">
<title>Node1</title>
<g id="a_Node000001"><a xlink:title="Class representing a step in the integration process.">
<polygon fill="#999999" stroke="#666666" points="634,-105.5 511,-105.5 511,-42.5 634,-42.5 634,-105.5"/>
<text text-anchor="start" x="519" y="-93.5" font-family="Helvetica,sans-Serif" font-size="10.00">mm::AdamsBashforth</text>
<text text-anchor="start" x="519" y="-82.5" font-family="Helvetica,sans-Serif" font-size="10.00">&lt; Scalar, num_steps</text>
<text text-anchor="start" x="519" y="-71.5" font-family="Helvetica,sans-Serif" font-size="10.00"> &gt;::Integrator&lt; func</text>
<text text-anchor="start" x="519" y="-60.5" font-family="Helvetica,sans-Serif" font-size="10.00">_t, initial_method_t &gt;</text>
<text text-anchor="middle" x="572.5" y="-49.5" font-family="Helvetica,sans-Serif" font-size="10.00">::IterationStep</text>
</a>
</g>
</g>
<!-- Node2 -->
<g id="Node000002" class="node">
<title>Node2</title>
<g id="a_Node000002"><a xlink:title=" ">
<polygon fill="white" stroke="#bfbfbf" points="423,-135 252,-135 252,-83 423,-83 423,-135"/>
<text text-anchor="start" x="260" y="-123" font-family="Helvetica,sans-Serif" font-size="10.00">std::iterator&lt; std</text>
<text text-anchor="start" x="260" y="-112" font-family="Helvetica,sans-Serif" font-size="10.00">::forward_iterator_tag,</text>
<text text-anchor="start" x="260" y="-101" font-family="Helvetica,sans-Serif" font-size="10.00"> IterationStep, int, const</text>
<text text-anchor="middle" x="337.5" y="-90" font-family="Helvetica,sans-Serif" font-size="10.00"> IterationStep *, IterationStep &gt;</text>
</a>
</g>
</g>
<!-- Node2&#45;&gt;Node1 -->
<g id="edge1_Node000001_Node000002" class="edge">
<title>Node2&#45;&gt;Node1</title>
<g id="a_edge1_Node000001_Node000002"><a xlink:title=" ">
<path fill="none" stroke="#63b8ff" d="M433.24,-94.77C459.45,-90.83 487.18,-86.67 510.87,-83.11"/>
<polygon fill="#63b8ff" stroke="#63b8ff" points="432.65,-91.32 423.28,-96.27 433.69,-98.24 432.65,-91.32"/>
</a>
</g>
</g>
<!-- Node3 -->
<g id="Node000003" class="node">
<title>Node3</title>
<g id="a_Node000003"><a xlink:href="classmm_1_1AdamsBashforth_1_1Integrator.html" target="_top" xlink:title="Integrator class for AB methods.">
<polygon fill="white" stroke="#666666" points="399,-65 276,-65 276,-13 399,-13 399,-65"/>
<text text-anchor="start" x="284" y="-53" font-family="Helvetica,sans-Serif" font-size="10.00">mm::AdamsBashforth</text>
<text text-anchor="start" x="284" y="-42" font-family="Helvetica,sans-Serif" font-size="10.00">&lt; Scalar, num_steps</text>
<text text-anchor="start" x="284" y="-31" font-family="Helvetica,sans-Serif" font-size="10.00"> &gt;::Integrator&lt; func</text>
<text text-anchor="middle" x="337.5" y="-20" font-family="Helvetica,sans-Serif" font-size="10.00">_t, initial_method_t &gt;</text>
</a>
</g>
</g>
<!-- Node3&#45;&gt;Node1 -->
<g id="edge2_Node000001_Node000003" class="edge">
<title>Node3&#45;&gt;Node1</title>
<g id="a_edge2_Node000001_Node000003"><a xlink:title=" ">
<path fill="none" stroke="#9a32cd" stroke-dasharray="5,2" d="M409.41,-49.65C441.79,-54.52 479.75,-60.22 510.79,-64.88"/>
<polygon fill="#9a32cd" stroke="#9a32cd" points="409.52,-46.13 399.11,-48.1 408.48,-53.05 409.52,-46.13"/>
</a>
</g>
<text text-anchor="middle" x="467" y="-64" font-family="Helvetica,sans-Serif" font-size="10.00" fill="grey"> integrator</text>
</g>
<!-- Node4 -->
<g id="Node000004" class="node">
<title>Node4</title>
<g id="a_Node000004"><a xlink:href="classmm_1_1RKExplicit.html" target="_top" xlink:title=" ">
<polygon fill="white" stroke="#666666" points="136.5,-78 0.5,-78 0.5,-48 136.5,-48 136.5,-78"/>
<text text-anchor="start" x="8.5" y="-66" font-family="Helvetica,sans-Serif" font-size="10.00">mm::RKExplicit&lt; Scalar,</text>
<text text-anchor="middle" x="68.5" y="-55" font-family="Helvetica,sans-Serif" font-size="10.00"> num_steps &gt;</text>
</a>
</g>
</g>
<!-- Node4&#45;&gt;Node3 -->
<g id="edge3_Node000003_Node000004" class="edge">
<title>Node4&#45;&gt;Node3</title>
<g id="a_edge3_Node000003_Node000004"><a xlink:title=" ">
<path fill="none" stroke="#9a32cd" stroke-dasharray="5,2" d="M146.51,-56.08C187.62,-52.38 237.5,-47.9 275.83,-44.45"/>
<polygon fill="#9a32cd" stroke="#9a32cd" points="146.18,-52.59 136.53,-56.97 146.8,-59.57 146.18,-52.59"/>
</a>
</g>
<text text-anchor="middle" x="194.5" y="-58" font-family="Helvetica,sans-Serif" font-size="10.00" fill="grey"> initial_method_</text>
</g>
<!-- Node5 -->
<g id="Node000005" class="node">
<title>Node5</title>
<g id="a_Node000005"><a xlink:href="classmm_1_1AdamsBashforth.html" target="_top" xlink:title=" ">
<polygon fill="white" stroke="#666666" points="137,-30 0,-30 0,0 137,0 137,-30"/>
<text text-anchor="start" x="8" y="-18" font-family="Helvetica,sans-Serif" font-size="10.00">mm::AdamsBashforth</text>
<text text-anchor="middle" x="68.5" y="-7" font-family="Helvetica,sans-Serif" font-size="10.00">&lt; scalar_t, num_steps &gt;</text>
</a>
</g>
</g>
<!-- Node5&#45;&gt;Node3 -->
<g id="edge4_Node000003_Node000005" class="edge">
<title>Node5&#45;&gt;Node3</title>
<g id="a_edge4_Node000003_Node000005"><a xlink:title=" ">
<path fill="none" stroke="#9a32cd" stroke-dasharray="5,2" d="M147.42,-22C188.31,-25.68 237.66,-30.12 275.69,-33.53"/>
<polygon fill="#9a32cd" stroke="#9a32cd" points="147.49,-18.5 137.22,-21.09 146.87,-25.47 147.49,-18.5"/>
</a>
</g>
<text text-anchor="middle" x="194.5" y="-32" font-family="Helvetica,sans-Serif" font-size="10.00" fill="grey"> method_</text>
</g>
</g>
</svg>
