<?xml version="1.0" encoding="UTF-8" standalone="no"?>
<!DOCTYPE svg PUBLIC "-//W3C//DTD SVG 1.1//EN"
 "http://www.w3.org/Graphics/SVG/1.1/DTD/svg11.dtd">
<!-- Generated by graphviz version 2.43.0 (0)
 -->
<!-- Title: mm::NURBSShape&lt; vec_t, param_vec_t &gt; Pages: 1 -->
<svg width="609pt" height="87pt"
 viewBox="0.00 0.00 609.00 86.50" xmlns="http://www.w3.org/2000/svg" xmlns:xlink="http://www.w3.org/1999/xlink">
<g id="graph0" class="graph" transform="scale(1 1) rotate(0) translate(4 82.5)">
<title>mm::NURBSShape&lt; vec_t, param_vec_t &gt;</title>
<!-- Node1 -->
<g id="Node000001" class="node">
<title>Node1</title>
<g id="a_Node000001"><a xlink:title="Class representing a shape made out of NURBS patches in an arbitrary dimensional space.">
<polygon fill="#999999" stroke="#666666" points="601,-63 466,-63 466,-33 601,-33 601,-63"/>
<text text-anchor="start" x="474" y="-51" font-family="Helvetica,sans-Serif" font-size="10.00">mm::NURBSShape&lt; vec</text>
<text text-anchor="middle" x="533.5" y="-40" font-family="Helvetica,sans-Serif" font-size="10.00">_t, param_vec_t &gt;</text>
</a>
</g>
</g>
<!-- Node2 -->
<g id="Node000002" class="node">
<title>Node2</title>
<g id="a_Node000002"><a xlink:href="classmm_1_1DomainShape.html" target="_top" xlink:title="Base class for geometric shapes of domains.">
<polygon fill="white" stroke="#666666" points="382.5,-78.5 223.5,-78.5 223.5,-59.5 382.5,-59.5 382.5,-78.5"/>
<text text-anchor="middle" x="303" y="-66.5" font-family="Helvetica,sans-Serif" font-size="10.00">mm::DomainShape&lt; vec_t &gt;</text>
</a>
</g>
</g>
<!-- Node2&#45;&gt;Node1 -->
<g id="edge1_Node000001_Node000002" class="edge">
<title>Node2&#45;&gt;Node1</title>
<g id="a_edge1_Node000001_Node000002"><a xlink:title=" ">
<path fill="none" stroke="#63b8ff" d="M392.6,-60.86C416.97,-58.62 442.98,-56.23 465.89,-54.12"/>
<polygon fill="#63b8ff" stroke="#63b8ff" points="392.27,-57.37 382.64,-61.77 392.92,-64.34 392.27,-57.37"/>
</a>
</g>
</g>
<!-- Node3 -->
<g id="Node000003" class="node">
<title>Node3</title>
<g id="a_Node000003"><a xlink:href="classmm_1_1Range.html" target="_top" xlink:title=" ">
<polygon fill="white" stroke="#666666" points="388,-41 218,-41 218,-11 388,-11 388,-41"/>
<text text-anchor="start" x="226" y="-29" font-family="Helvetica,sans-Serif" font-size="10.00">mm::Range&lt; mm::NURBSPatch</text>
<text text-anchor="middle" x="303" y="-18" font-family="Helvetica,sans-Serif" font-size="10.00">&lt; vec_t, param_vec_t &gt; &gt;</text>
</a>
</g>
</g>
<!-- Node3&#45;&gt;Node1 -->
<g id="edge2_Node000001_Node000003" class="edge">
<title>Node3&#45;&gt;Node1</title>
<g id="a_edge2_Node000001_Node000003"><a xlink:title=" ">
<path fill="none" stroke="#9a32cd" stroke-dasharray="5,2" d="M398.1,-35.06C420.79,-37.24 444.57,-39.53 465.71,-41.57"/>
<polygon fill="#9a32cd" stroke="#9a32cd" points="398.4,-31.57 388.11,-34.1 397.73,-38.54 398.4,-31.57"/>
</a>
</g>
<text text-anchor="middle" x="427" y="-43" font-family="Helvetica,sans-Serif" font-size="10.00" fill="grey"> patches</text>
</g>
<!-- Node4 -->
<g id="Node000004" class="node">
<title>Node4</title>
<g id="a_Node000004"><a xlink:title=" ">
<polygon fill="white" stroke="#bfbfbf" points="181,-52 0,-52 0,0 181,0 181,-52"/>
<text text-anchor="start" x="8" y="-40" font-family="Helvetica,sans-Serif" font-size="10.00">std::vector&lt; mm::NURBSPatch</text>
<text text-anchor="start" x="8" y="-29" font-family="Helvetica,sans-Serif" font-size="10.00">&lt; vec_t, param_vec_t &gt;,</text>
<text text-anchor="start" x="8" y="-18" font-family="Helvetica,sans-Serif" font-size="10.00"> std::allocator&lt; mm::NURBSPatch</text>
<text text-anchor="middle" x="90.5" y="-7" font-family="Helvetica,sans-Serif" font-size="10.00">&lt; vec_t, param_vec_t &gt; &gt; &gt;</text>
</a>
</g>
</g>
<!-- Node4&#45;&gt;Node3 -->
<g id="edge3_Node000003_Node000004" class="edge">
<title>Node4&#45;&gt;Node3</title>
<g id="a_edge3_Node000003_Node000004"><a xlink:title=" ">
<path fill="none" stroke="#63b8ff" d="M191.13,-26C200.07,-26 209.07,-26 217.85,-26"/>
<polygon fill="#63b8ff" stroke="#63b8ff" points="191.08,-22.5 181.08,-26 191.08,-29.5 191.08,-22.5"/>
</a>
</g>
</g>
</g>
</svg>
