<?xml version="1.0" encoding="UTF-8" standalone="no"?>
<!DOCTYPE svg PUBLIC "-//W3C//DTD SVG 1.1//EN"
 "http://www.w3.org/Graphics/SVG/1.1/DTD/svg11.dtd">
<!-- Generated by graphviz version 2.43.0 (0)
 -->
<!-- Title: mm::AdamsBashforth&lt; Scalar, num_steps &gt;::Integrator&lt; func_t, initial_method_t &gt; Pages: 1 -->
<svg width="300pt" height="137pt"
 viewBox="0.00 0.00 299.50 137.00" xmlns="http://www.w3.org/2000/svg" xmlns:xlink="http://www.w3.org/1999/xlink">
<g id="graph0" class="graph" transform="scale(1 1) rotate(0) translate(4 133)">
<title>mm::AdamsBashforth&lt; Scalar, num_steps &gt;::Integrator&lt; func_t, initial_method_t &gt;</title>
<!-- Node1 -->
<g id="Node000001" class="node">
<title>Node1</title>
<g id="a_Node000001"><a xlink:title="Integrator class for AB methods.">
<polygon fill="#999999" stroke="#666666" points="206.5,-52 83.5,-52 83.5,0 206.5,0 206.5,-52"/>
<text text-anchor="start" x="91.5" y="-40" font-family="Helvetica,sans-Serif" font-size="10.00">mm::AdamsBashforth</text>
<text text-anchor="start" x="91.5" y="-29" font-family="Helvetica,sans-Serif" font-size="10.00">&lt; Scalar, num_steps</text>
<text text-anchor="start" x="91.5" y="-18" font-family="Helvetica,sans-Serif" font-size="10.00"> &gt;::Integrator&lt; func</text>
<text text-anchor="middle" x="145" y="-7" font-family="Helvetica,sans-Serif" font-size="10.00">_t, initial_method_t &gt;</text>
</a>
</g>
</g>
<!-- Node2 -->
<g id="Node000002" class="node">
<title>Node2</title>
<g id="a_Node000002"><a xlink:href="classmm_1_1RKExplicit.html" target="_top" xlink:title=" ">
<polygon fill="white" stroke="#666666" points="136,-129 0,-129 0,-99 136,-99 136,-129"/>
<text text-anchor="start" x="8" y="-117" font-family="Helvetica,sans-Serif" font-size="10.00">mm::RKExplicit&lt; Scalar,</text>
<text text-anchor="middle" x="68" y="-106" font-family="Helvetica,sans-Serif" font-size="10.00"> num_steps &gt;</text>
</a>
</g>
</g>
<!-- Node2&#45;&gt;Node1 -->
<g id="edge1_Node000001_Node000002" class="edge">
<title>Node2&#45;&gt;Node1</title>
<g id="a_edge1_Node000001_Node000002"><a xlink:title=" ">
<path fill="none" stroke="#9a32cd" stroke-dasharray="5,2" d="M87.63,-91.07C98.3,-79.16 111.54,-64.37 122.61,-52.01"/>
<polygon fill="#9a32cd" stroke="#9a32cd" points="84.78,-89.01 80.71,-98.8 89.99,-93.68 84.78,-89.01"/>
</a>
</g>
<text text-anchor="middle" x="146.5" y="-73" font-family="Helvetica,sans-Serif" font-size="10.00" fill="grey"> initial_method_</text>
</g>
<!-- Node3 -->
<g id="Node000003" class="node">
<title>Node3</title>
<g id="a_Node000003"><a xlink:href="classmm_1_1AdamsBashforth.html" target="_top" xlink:title=" ">
<polygon fill="white" stroke="#666666" points="291.5,-129 154.5,-129 154.5,-99 291.5,-99 291.5,-129"/>
<text text-anchor="start" x="162.5" y="-117" font-family="Helvetica,sans-Serif" font-size="10.00">mm::AdamsBashforth</text>
<text text-anchor="middle" x="223" y="-106" font-family="Helvetica,sans-Serif" font-size="10.00">&lt; scalar_t, num_steps &gt;</text>
</a>
</g>
</g>
<!-- Node3&#45;&gt;Node1 -->
<g id="edge2_Node000001_Node000003" class="edge">
<title>Node3&#45;&gt;Node1</title>
<g id="a_edge2_Node000001_Node000003"><a xlink:title=" ">
<path fill="none" stroke="#9a32cd" stroke-dasharray="5,2" d="M206.74,-90.47C201.59,-83.71 195.74,-76.4 190,-70 184.66,-64.05 178.65,-57.94 172.8,-52.27"/>
<polygon fill="#9a32cd" stroke="#9a32cd" points="204.04,-92.7 212.82,-98.62 209.65,-88.51 204.04,-92.7"/>
</a>
</g>
<text text-anchor="middle" x="221" y="-73" font-family="Helvetica,sans-Serif" font-size="10.00" fill="grey"> method_</text>
</g>
</g>
</svg>
