<?xml version="1.0" encoding="UTF-8" standalone="no"?>
<!DOCTYPE svg PUBLIC "-//W3C//DTD SVG 1.1//EN"
 "http://www.w3.org/Graphics/SVG/1.1/DTD/svg11.dtd">
<!-- Generated by graphviz version 2.43.0 (0)
 -->
<!-- Title: mm::WLS&lt; basis_t, weight_t, scale_t, solver_t &gt; Pages: 1 -->
<svg width="785pt" height="153pt"
 viewBox="0.00 0.00 785.00 153.00" xmlns="http://www.w3.org/2000/svg" xmlns:xlink="http://www.w3.org/1999/xlink">
<g id="graph0" class="graph" transform="scale(1 1) rotate(0) translate(4 149)">
<title>mm::WLS&lt; basis_t, weight_t, scale_t, solver_t &gt;</title>
<!-- Node1 -->
<g id="Node000001" class="node">
<title>Node1</title>
<g id="a_Node000001"><a xlink:title="A class for generating approximations using Weighted Least Squares over local neighborhoods.">
<polygon fill="#999999" stroke="#666666" points="777,-102 629,-102 629,-72 777,-72 777,-102"/>
<text text-anchor="start" x="637" y="-90" font-family="Helvetica,sans-Serif" font-size="10.00">mm::WLS&lt; basis_t, weight</text>
<text text-anchor="middle" x="703" y="-79" font-family="Helvetica,sans-Serif" font-size="10.00">_t, scale_t, solver_t &gt;</text>
</a>
</g>
</g>
<!-- Node2 -->
<g id="Node000002" class="node">
<title>Node2</title>
<g id="a_Node000002"><a xlink:href="classmm_1_1NoWeight.html" target="_top" xlink:title=" ">
<polygon fill="white" stroke="#666666" points="447.5,-145 297.5,-145 297.5,-115 447.5,-115 447.5,-145"/>
<text text-anchor="start" x="305.5" y="-133" font-family="Helvetica,sans-Serif" font-size="10.00">mm::NoWeight&lt; typename</text>
<text text-anchor="middle" x="372.5" y="-122" font-family="Helvetica,sans-Serif" font-size="10.00"> basis_t::vector_t &gt;</text>
</a>
</g>
</g>
<!-- Node2&#45;&gt;Node1 -->
<g id="edge1_Node000001_Node000002" class="edge">
<title>Node2&#45;&gt;Node1</title>
<g id="a_edge1_Node000001_Node000002"><a xlink:title=" ">
<path fill="none" stroke="#9a32cd" stroke-dasharray="5,2" d="M457.8,-121.02C503.25,-115.93 560.26,-109.17 611,-102 616.71,-101.19 622.61,-100.32 628.54,-99.41"/>
<polygon fill="#9a32cd" stroke="#9a32cd" points="457.25,-117.56 447.69,-122.14 458.02,-124.51 457.25,-117.56"/>
</a>
</g>
<text text-anchor="middle" x="564" y="-116" font-family="Helvetica,sans-Serif" font-size="10.00" fill="grey"> weight_</text>
</g>
<!-- Node3 -->
<g id="Node000003" class="node">
<title>Node3</title>
<g id="a_Node000003"><a xlink:href="classmm_1_1Range.html" target="_top" xlink:title=" ">
<polygon fill="white" stroke="#666666" points="440,-96.5 305,-96.5 305,-77.5 440,-77.5 440,-96.5"/>
<text text-anchor="middle" x="372.5" y="-84.5" font-family="Helvetica,sans-Serif" font-size="10.00">mm::Range&lt; vector_t &gt;</text>
</a>
</g>
</g>
<!-- Node3&#45;&gt;Node1 -->
<g id="edge2_Node000001_Node000003" class="edge">
<title>Node3&#45;&gt;Node1</title>
<g id="a_edge2_Node000001_Node000003"><a xlink:title=" ">
<path fill="none" stroke="#9a32cd" stroke-dasharray="5,2" d="M450.56,-87C504.45,-87 575.96,-87 628.94,-87"/>
<polygon fill="#9a32cd" stroke="#9a32cd" points="450.37,-83.5 440.37,-87 450.37,-90.5 450.37,-83.5"/>
</a>
</g>
<text text-anchor="middle" x="564" y="-90" font-family="Helvetica,sans-Serif" font-size="10.00" fill="grey"> local_coordinates_</text>
</g>
<!-- Node4 -->
<g id="Node000004" class="node">
<title>Node4</title>
<g id="a_Node000004"><a xlink:title=" ">
<polygon fill="white" stroke="#bfbfbf" points="159.5,-111.5 49.5,-111.5 49.5,-70.5 159.5,-70.5 159.5,-111.5"/>
<text text-anchor="start" x="57.5" y="-99.5" font-family="Helvetica,sans-Serif" font-size="10.00">std::vector&lt; vector</text>
<text text-anchor="start" x="57.5" y="-88.5" font-family="Helvetica,sans-Serif" font-size="10.00">_t, std::allocator&lt;</text>
<text text-anchor="middle" x="104.5" y="-77.5" font-family="Helvetica,sans-Serif" font-size="10.00"> vector_t &gt; &gt;</text>
</a>
</g>
</g>
<!-- Node4&#45;&gt;Node3 -->
<g id="edge3_Node000003_Node000004" class="edge">
<title>Node4&#45;&gt;Node3</title>
<g id="a_edge3_Node000003_Node000004"><a xlink:title=" ">
<path fill="none" stroke="#63b8ff" d="M169.76,-90.03C210.6,-89.42 263.36,-88.63 304.69,-88"/>
<polygon fill="#63b8ff" stroke="#63b8ff" points="169.6,-86.54 159.65,-90.19 169.7,-93.53 169.6,-86.54"/>
</a>
</g>
</g>
<!-- Node5 -->
<g id="Node000005" class="node">
<title>Node5</title>
<g id="a_Node000005"><a xlink:href="classmm_1_1JacobiSVDWrapper.html" target="_top" xlink:title=" ">
<polygon fill="white" stroke="#666666" points="499,-51.5 246,-51.5 246,-10.5 499,-10.5 499,-51.5"/>
<text text-anchor="start" x="254" y="-39.5" font-family="Helvetica,sans-Serif" font-size="10.00">mm::JacobiSVDWrapper</text>
<text text-anchor="start" x="254" y="-28.5" font-family="Helvetica,sans-Serif" font-size="10.00">&lt; typename basis_t::scalar</text>
<text text-anchor="middle" x="372.5" y="-17.5" font-family="Helvetica,sans-Serif" font-size="10.00">_t, Eigen::ColPivHouseholderQRPreconditioner &gt;</text>
</a>
</g>
</g>
<!-- Node5&#45;&gt;Node1 -->
<g id="edge4_Node000001_Node000005" class="edge">
<title>Node5&#45;&gt;Node1</title>
<g id="a_edge4_Node000001_Node000005"><a xlink:title=" ">
<path fill="none" stroke="#9a32cd" stroke-dasharray="5,2" d="M503.83,-53.22C546.36,-60.47 592.06,-68.26 628.84,-74.53"/>
<polygon fill="#9a32cd" stroke="#9a32cd" points="504.4,-49.76 493.96,-51.53 503.23,-56.67 504.4,-49.76"/>
</a>
</g>
<text text-anchor="middle" x="564" y="-73" font-family="Helvetica,sans-Serif" font-size="10.00" fill="grey"> solver_</text>
</g>
<!-- Node6 -->
<g id="Node000006" class="node">
<title>Node6</title>
<g id="a_Node000006"><a xlink:title=" ">
<polygon fill="white" stroke="#bfbfbf" points="209,-52 0,-52 0,0 209,0 209,-52"/>
<text text-anchor="start" x="8" y="-40" font-family="Helvetica,sans-Serif" font-size="10.00">Eigen::JacobiSVD&lt; Eigen</text>
<text text-anchor="start" x="8" y="-29" font-family="Helvetica,sans-Serif" font-size="10.00">::Matrix&lt; typename basis</text>
<text text-anchor="start" x="8" y="-18" font-family="Helvetica,sans-Serif" font-size="10.00">_t::scalar_t , Eigen::Dynamic,</text>
<text text-anchor="middle" x="104.5" y="-7" font-family="Helvetica,sans-Serif" font-size="10.00"> Eigen::Dynamic &gt;, QRPreconditioner &gt;</text>
</a>
</g>
</g>
<!-- Node6&#45;&gt;Node5 -->
<g id="edge5_Node000005_Node000006" class="edge">
<title>Node6&#45;&gt;Node5</title>
<g id="a_edge5_Node000005_Node000006"><a xlink:title=" ">
<path fill="none" stroke="#63b8ff" d="M219.27,-28.14C227.98,-28.3 236.8,-28.47 245.58,-28.63"/>
<polygon fill="#63b8ff" stroke="#63b8ff" points="219.17,-24.64 209.1,-27.95 219.04,-31.63 219.17,-24.64"/>
</a>
</g>
</g>
</g>
</svg>
