<?xml version="1.0" encoding="UTF-8" standalone="no"?>
<!DOCTYPE svg PUBLIC "-//W3C//DTD SVG 1.1//EN"
 "http://www.w3.org/Graphics/SVG/1.1/DTD/svg11.dtd">
<!-- Generated by graphviz version 2.43.0 (0)
 -->
<!-- Title: mm::VectorField&lt; Scalar, dimension &gt;::VectorFieldView Pages: 1 -->
<svg width="174pt" height="182pt"
 viewBox="0.00 0.00 174.00 182.00" xmlns="http://www.w3.org/2000/svg" xmlns:xlink="http://www.w3.org/1999/xlink">
<g id="graph0" class="graph" transform="scale(1 1) rotate(0) translate(4 178)">
<title>mm::VectorField&lt; Scalar, dimension &gt;::VectorFieldView</title>
<!-- Node1 -->
<g id="Node000001" class="node">
<title>Node1</title>
<g id="a_Node000001"><a xlink:title="Represents a non contiguous view to a vector field.">
<polygon fill="#999999" stroke="#666666" points="166,-30 0,-30 0,0 166,0 166,-30"/>
<text text-anchor="start" x="8" y="-18" font-family="Helvetica,sans-Serif" font-size="10.00">mm::VectorField&lt; Scalar,</text>
<text text-anchor="middle" x="83" y="-7" font-family="Helvetica,sans-Serif" font-size="10.00"> dimension &gt;::VectorFieldView</text>
</a>
</g>
</g>
<!-- Node2 -->
<g id="Node000002" class="node">
<title>Node2</title>
<g id="a_Node000002"><a xlink:href="classmm_1_1VectorField.html" target="_top" xlink:title="Represents a discretization of a vector field, a finite collection of vectors.">
<polygon fill="white" stroke="#666666" points="153,-107 13,-107 13,-77 153,-77 153,-107"/>
<text text-anchor="start" x="21" y="-95" font-family="Helvetica,sans-Serif" font-size="10.00">mm::VectorField&lt; Scalar,</text>
<text text-anchor="middle" x="83" y="-84" font-family="Helvetica,sans-Serif" font-size="10.00"> dimension &gt;</text>
</a>
</g>
</g>
<!-- Node2&#45;&gt;Node1 -->
<g id="edge1_Node000001_Node000002" class="edge">
<title>Node2&#45;&gt;Node1</title>
<g id="a_edge1_Node000001_Node000002"><a xlink:title=" ">
<path fill="none" stroke="#9a32cd" stroke-dasharray="5,2" d="M83,-66.54C83,-54.45 83,-40.29 83,-30.04"/>
<polygon fill="#9a32cd" stroke="#9a32cd" points="79.5,-66.89 83,-76.89 86.5,-66.89 79.5,-66.89"/>
</a>
</g>
<text text-anchor="middle" x="89.5" y="-51" font-family="Helvetica,sans-Serif" font-size="10.00" fill="grey"> sf</text>
</g>
<!-- Node3 -->
<g id="Node000003" class="node">
<title>Node3</title>
<g id="a_Node000003"><a xlink:title=" ">
<polygon fill="white" stroke="#bfbfbf" points="165,-174 1,-174 1,-144 165,-144 165,-174"/>
<text text-anchor="start" x="9" y="-162" font-family="Helvetica,sans-Serif" font-size="10.00">Eigen::Matrix&lt; Scalar,</text>
<text text-anchor="middle" x="83" y="-151" font-family="Helvetica,sans-Serif" font-size="10.00"> Eigen::Dynamic, dimension &gt;</text>
</a>
</g>
</g>
<!-- Node3&#45;&gt;Node2 -->
<g id="edge2_Node000002_Node000003" class="edge">
<title>Node3&#45;&gt;Node2</title>
<g id="a_edge2_Node000002_Node000003"><a xlink:title=" ">
<path fill="none" stroke="#63b8ff" d="M83,-133.61C83,-124.65 83,-114.82 83,-107.08"/>
<polygon fill="#63b8ff" stroke="#63b8ff" points="79.5,-133.9 83,-143.9 86.5,-133.9 79.5,-133.9"/>
</a>
</g>
</g>
</g>
</svg>
