<?xml version="1.0" encoding="UTF-8" standalone="no"?>
<!DOCTYPE svg PUBLIC "-//W3C//DTD SVG 1.1//EN"
 "http://www.w3.org/Graphics/SVG/1.1/DTD/svg11.dtd">
<!-- Generated by graphviz version 2.43.0 (0)
 -->
<!-- Title: mm::RaggedShapeStorage&lt; vec_t, OpFamilies &gt; Pages: 1 -->
<svg width="628pt" height="136pt"
 viewBox="0.00 0.00 628.00 135.50" xmlns="http://www.w3.org/2000/svg" xmlns:xlink="http://www.w3.org/1999/xlink">
<g id="graph0" class="graph" transform="scale(1 1) rotate(0) translate(4 131.5)">
<title>mm::RaggedShapeStorage&lt; vec_t, OpFamilies &gt;</title>
<!-- Node1 -->
<g id="Node000001" class="node">
<title>Node1</title>
<g id="a_Node000001"><a xlink:title="Efficiently stores shape functions of different lengths.">
<polygon fill="#999999" stroke="#666666" points="620,-65 474,-65 474,-35 620,-35 620,-65"/>
<text text-anchor="start" x="482" y="-53" font-family="Helvetica,sans-Serif" font-size="10.00">mm::RaggedShapeStorage</text>
<text text-anchor="middle" x="547" y="-42" font-family="Helvetica,sans-Serif" font-size="10.00">&lt; vec_t, OpFamilies &gt;</text>
</a>
</g>
</g>
<!-- Node2 -->
<g id="Node000002" class="node">
<title>Node2</title>
<g id="a_Node000002"><a xlink:title=" ">
<polygon fill="white" stroke="#bfbfbf" points="362,-127.5 167,-127.5 167,-42.5 362,-42.5 362,-127.5"/>
<text text-anchor="start" x="175" y="-115.5" font-family="Helvetica,sans-Serif" font-size="10.00">ShapeStorage&lt; RaggedShape</text>
<text text-anchor="start" x="175" y="-104.5" font-family="Helvetica,sans-Serif" font-size="10.00">Storage&lt; vec_t, std::tuple</text>
<text text-anchor="start" x="175" y="-93.5" font-family="Helvetica,sans-Serif" font-size="10.00">&lt;Lap&lt;vec_t::dim&gt;, Der1s&lt;vec</text>
<text text-anchor="start" x="175" y="-82.5" font-family="Helvetica,sans-Serif" font-size="10.00">_t::dim&gt;, Der2s&lt;vec_t::dim&gt;&gt;</text>
<text text-anchor="start" x="175" y="-71.5" font-family="Helvetica,sans-Serif" font-size="10.00"> &#160;&gt;, vec_t, std::tuple&lt;Lap&lt;vec</text>
<text text-anchor="start" x="175" y="-60.5" font-family="Helvetica,sans-Serif" font-size="10.00">_t::dim&gt;, Der1s&lt;vec_t::dim&gt;, Der2s</text>
<text text-anchor="middle" x="264.5" y="-49.5" font-family="Helvetica,sans-Serif" font-size="10.00">&lt;vec_t::dim&gt;&gt; &#160;&gt;</text>
</a>
</g>
</g>
<!-- Node2&#45;&gt;Node1 -->
<g id="edge1_Node000001_Node000002" class="edge">
<title>Node2&#45;&gt;Node1</title>
<g id="a_edge1_Node000001_Node000002"><a xlink:title=" ">
<path fill="none" stroke="#63b8ff" d="M372,-71.71C405.95,-67.47 442.72,-62.89 473.66,-59.03"/>
<polygon fill="#63b8ff" stroke="#63b8ff" points="371.52,-68.24 362.03,-72.95 372.39,-75.19 371.52,-68.24"/>
</a>
</g>
</g>
<!-- Node3 -->
<g id="Node000003" class="node">
<title>Node3</title>
<g id="a_Node000003"><a xlink:href="classmm_1_1Range.html" target="_top" xlink:title=" ">
<polygon fill="white" stroke="#666666" points="318.5,-24.5 210.5,-24.5 210.5,-5.5 318.5,-5.5 318.5,-24.5"/>
<text text-anchor="middle" x="264.5" y="-12.5" font-family="Helvetica,sans-Serif" font-size="10.00">mm::Range&lt; int &gt;</text>
</a>
</g>
</g>
<!-- Node3&#45;&gt;Node1 -->
<g id="edge2_Node000001_Node000003" class="edge">
<title>Node3&#45;&gt;Node1</title>
<g id="a_edge2_Node000001_Node000003"><a xlink:title=" ">
<path fill="none" stroke="#9a32cd" stroke-dasharray="5,2" d="M328.75,-20.67C365.88,-24.24 413.68,-29.26 456,-35 461.81,-35.79 467.82,-36.66 473.85,-37.58"/>
<polygon fill="#9a32cd" stroke="#9a32cd" points="328.86,-17.17 318.57,-19.7 328.19,-24.13 328.86,-17.17"/>
</a>
</g>
<text text-anchor="middle" x="418" y="-49" font-family="Helvetica,sans-Serif" font-size="10.00" fill="grey"> support_sizes_</text>
<text text-anchor="middle" x="418" y="-38" font-family="Helvetica,sans-Serif" font-size="10.00" fill="grey">support_starts_</text>
</g>
<!-- Node4 -->
<g id="Node000004" class="node">
<title>Node4</title>
<g id="a_Node000004"><a xlink:title=" ">
<polygon fill="white" stroke="#bfbfbf" points="130,-30 0,-30 0,0 130,0 130,-30"/>
<text text-anchor="start" x="8" y="-18" font-family="Helvetica,sans-Serif" font-size="10.00">std::vector&lt; int ,</text>
<text text-anchor="middle" x="65" y="-7" font-family="Helvetica,sans-Serif" font-size="10.00"> std::allocator&lt;int &gt; &#160;&gt;</text>
</a>
</g>
</g>
<!-- Node4&#45;&gt;Node3 -->
<g id="edge3_Node000003_Node000004" class="edge">
<title>Node4&#45;&gt;Node3</title>
<g id="a_edge3_Node000003_Node000004"><a xlink:title=" ">
<path fill="none" stroke="#63b8ff" d="M140.3,-15C163.57,-15 188.76,-15 210.26,-15"/>
<polygon fill="#63b8ff" stroke="#63b8ff" points="140.12,-11.5 130.12,-15 140.12,-18.5 140.12,-11.5"/>
</a>
</g>
</g>
</g>
</svg>
