<?xml version="1.0" encoding="UTF-8" standalone="no"?>
<!DOCTYPE svg PUBLIC "-//W3C//DTD SVG 1.1//EN"
 "http://www.w3.org/Graphics/SVG/1.1/DTD/svg11.dtd">
<!-- Generated by graphviz version 2.43.0 (0)
 -->
<!-- Title: mm::DomainDiscretization&lt; vec_t &gt; Pages: 1 -->
<svg width="647pt" height="216pt"
 viewBox="0.00 0.00 647.00 216.00" xmlns="http://www.w3.org/2000/svg" xmlns:xlink="http://www.w3.org/1999/xlink">
<g id="graph0" class="graph" transform="scale(1 1) rotate(0) translate(4 212)">
<title>mm::DomainDiscretization&lt; vec_t &gt;</title>
<!-- Node1 -->
<g id="Node000001" class="node">
<title>Node1</title>
<g id="a_Node000001"><a xlink:title="Class representing domain discretization along with an associated shape.">
<polygon fill="#999999" stroke="#666666" points="639,-124 491,-124 491,-94 639,-94 639,-124"/>
<text text-anchor="start" x="499" y="-112" font-family="Helvetica,sans-Serif" font-size="10.00">mm::DomainDiscretization</text>
<text text-anchor="middle" x="565" y="-101" font-family="Helvetica,sans-Serif" font-size="10.00">&lt; vec_t &gt;</text>
</a>
</g>
</g>
<!-- Node2 -->
<g id="Node000002" class="node">
<title>Node2</title>
<g id="a_Node000002"><a xlink:href="classmm_1_1Range.html" target="_top" xlink:title=" ">
<polygon fill="white" stroke="#666666" points="364,-196.5 242,-196.5 242,-177.5 364,-177.5 364,-196.5"/>
<text text-anchor="middle" x="303" y="-184.5" font-family="Helvetica,sans-Serif" font-size="10.00">mm::Range&lt; vec_t &gt;</text>
</a>
</g>
</g>
<!-- Node2&#45;&gt;Node1 -->
<g id="edge1_Node000001_Node000002" class="edge">
<title>Node2&#45;&gt;Node1</title>
<g id="a_edge1_Node000001_Node000002"><a xlink:title=" ">
<path fill="none" stroke="#9a32cd" stroke-dasharray="5,2" d="M350.45,-174.85C384.52,-165.75 431.82,-152.73 473,-140 488.95,-135.07 506.32,-129.26 521.57,-124.01"/>
<polygon fill="#9a32cd" stroke="#9a32cd" points="349.53,-171.47 340.77,-177.42 351.33,-178.23 349.53,-171.47"/>
</a>
</g>
<text text-anchor="middle" x="432" y="-176" font-family="Helvetica,sans-Serif" font-size="10.00" fill="grey"> normals_</text>
<text text-anchor="middle" x="432" y="-165" font-family="Helvetica,sans-Serif" font-size="10.00" fill="grey">positions_</text>
</g>
<!-- Node3 -->
<g id="Node000003" class="node">
<title>Node3</title>
<g id="a_Node000003"><a xlink:title=" ">
<polygon fill="white" stroke="#bfbfbf" points="169.5,-208 26.5,-208 26.5,-178 169.5,-178 169.5,-208"/>
<text text-anchor="start" x="34.5" y="-196" font-family="Helvetica,sans-Serif" font-size="10.00">std::vector&lt; vec_t,</text>
<text text-anchor="middle" x="98" y="-185" font-family="Helvetica,sans-Serif" font-size="10.00"> std::allocator&lt; vec_t &gt; &gt;</text>
</a>
</g>
</g>
<!-- Node3&#45;&gt;Node2 -->
<g id="edge2_Node000002_Node000003" class="edge">
<title>Node3&#45;&gt;Node2</title>
<g id="a_edge2_Node000002_Node000003"><a xlink:title=" ">
<path fill="none" stroke="#63b8ff" d="M179.79,-190.61C200.54,-190 222.49,-189.35 241.98,-188.77"/>
<polygon fill="#63b8ff" stroke="#63b8ff" points="179.61,-187.12 169.71,-190.91 179.81,-194.11 179.61,-187.12"/>
</a>
</g>
</g>
<!-- Node4 -->
<g id="Node000004" class="node">
<title>Node4</title>
<g id="a_Node000004"><a xlink:href="classmm_1_1Range.html" target="_top" xlink:title=" ">
<polygon fill="white" stroke="#666666" points="373,-150 233,-150 233,-120 373,-120 373,-150"/>
<text text-anchor="start" x="241" y="-138" font-family="Helvetica,sans-Serif" font-size="10.00">mm::Range&lt; mm::Range</text>
<text text-anchor="middle" x="303" y="-127" font-family="Helvetica,sans-Serif" font-size="10.00">&lt; int &gt; &gt;</text>
</a>
</g>
</g>
<!-- Node4&#45;&gt;Node1 -->
<g id="edge3_Node000001_Node000004" class="edge">
<title>Node4&#45;&gt;Node1</title>
<g id="a_edge3_Node000001_Node000004"><a xlink:title=" ">
<path fill="none" stroke="#9a32cd" stroke-dasharray="5,2" d="M383.29,-127.07C417.5,-123.65 457.26,-119.67 490.77,-116.32"/>
<polygon fill="#9a32cd" stroke="#9a32cd" points="382.94,-123.59 373.33,-128.07 383.63,-130.55 382.94,-123.59"/>
</a>
</g>
<text text-anchor="middle" x="432" y="-128" font-family="Helvetica,sans-Serif" font-size="10.00" fill="grey"> support_</text>
</g>
<!-- Node5 -->
<g id="Node000005" class="node">
<title>Node5</title>
<g id="a_Node000005"><a xlink:title=" ">
<polygon fill="white" stroke="#bfbfbf" points="169,-159.5 27,-159.5 27,-118.5 169,-118.5 169,-159.5"/>
<text text-anchor="start" x="35" y="-147.5" font-family="Helvetica,sans-Serif" font-size="10.00">std::vector&lt; mm::Range</text>
<text text-anchor="start" x="35" y="-136.5" font-family="Helvetica,sans-Serif" font-size="10.00">&lt; int &gt;, std::allocator</text>
<text text-anchor="middle" x="98" y="-125.5" font-family="Helvetica,sans-Serif" font-size="10.00">&lt; mm::Range&lt; int &gt; &gt; &gt;</text>
</a>
</g>
</g>
<!-- Node5&#45;&gt;Node4 -->
<g id="edge4_Node000004_Node000005" class="edge">
<title>Node5&#45;&gt;Node4</title>
<g id="a_edge4_Node000004_Node000005"><a xlink:title=" ">
<path fill="none" stroke="#63b8ff" d="M179.44,-137.42C197.12,-137.07 215.69,-136.7 232.88,-136.36"/>
<polygon fill="#63b8ff" stroke="#63b8ff" points="179.07,-133.92 169.15,-137.62 179.21,-140.92 179.07,-133.92"/>
</a>
</g>
</g>
<!-- Node6 -->
<g id="Node000006" class="node">
<title>Node6</title>
<g id="a_Node000006"><a xlink:href="classmm_1_1Range.html" target="_top" xlink:title=" ">
<polygon fill="white" stroke="#666666" points="357,-95.5 249,-95.5 249,-76.5 357,-76.5 357,-95.5"/>
<text text-anchor="middle" x="303" y="-83.5" font-family="Helvetica,sans-Serif" font-size="10.00">mm::Range&lt; int &gt;</text>
</a>
</g>
</g>
<!-- Node6&#45;&gt;Node1 -->
<g id="edge5_Node000001_Node000006" class="edge">
<title>Node6&#45;&gt;Node1</title>
<g id="a_edge5_Node000001_Node000006"><a xlink:title=" ">
<path fill="none" stroke="#9a32cd" stroke-dasharray="5,2" d="M367.14,-84.77C398.98,-84.84 438.14,-85.98 473,-90 481.5,-90.98 490.38,-92.37 499.12,-93.95"/>
<polygon fill="#9a32cd" stroke="#9a32cd" points="367.07,-81.27 357.07,-84.79 367.08,-88.27 367.07,-81.27"/>
</a>
</g>
<text text-anchor="middle" x="432" y="-104" font-family="Helvetica,sans-Serif" font-size="10.00" fill="grey"> boundary_map_</text>
<text text-anchor="middle" x="432" y="-93" font-family="Helvetica,sans-Serif" font-size="10.00" fill="grey">types_</text>
</g>
<!-- Node7 -->
<g id="Node000007" class="node">
<title>Node7</title>
<g id="a_Node000007"><a xlink:title=" ">
<polygon fill="white" stroke="#bfbfbf" points="163,-100 33,-100 33,-70 163,-70 163,-100"/>
<text text-anchor="start" x="41" y="-88" font-family="Helvetica,sans-Serif" font-size="10.00">std::vector&lt; int ,</text>
<text text-anchor="middle" x="98" y="-77" font-family="Helvetica,sans-Serif" font-size="10.00"> std::allocator&lt;int &gt; &#160;&gt;</text>
</a>
</g>
</g>
<!-- Node7&#45;&gt;Node6 -->
<g id="edge6_Node000006_Node000007" class="edge">
<title>Node7&#45;&gt;Node6</title>
<g id="a_edge6_Node000006_Node000007"><a xlink:title=" ">
<path fill="none" stroke="#63b8ff" d="M173.4,-85.37C198.37,-85.49 225.71,-85.62 248.73,-85.74"/>
<polygon fill="#63b8ff" stroke="#63b8ff" points="173.25,-81.87 163.23,-85.32 173.21,-88.87 173.25,-81.87"/>
</a>
</g>
</g>
<!-- Node8 -->
<g id="Node000008" class="node">
<title>Node8</title>
<g id="a_Node000008"><a xlink:href="classmm_1_1deep__copy__unique__ptr.html" target="_top" xlink:title=" ">
<polygon fill="white" stroke="#666666" points="373,-53.5 233,-53.5 233,-12.5 373,-12.5 373,-53.5"/>
<text text-anchor="start" x="241" y="-41.5" font-family="Helvetica,sans-Serif" font-size="10.00">mm::deep_copy_unique</text>
<text text-anchor="start" x="241" y="-30.5" font-family="Helvetica,sans-Serif" font-size="10.00">_ptr&lt; mm::DomainShape</text>
<text text-anchor="middle" x="303" y="-19.5" font-family="Helvetica,sans-Serif" font-size="10.00">&lt; vec_t &gt; &gt;</text>
</a>
</g>
</g>
<!-- Node8&#45;&gt;Node1 -->
<g id="edge7_Node000001_Node000008" class="edge">
<title>Node8&#45;&gt;Node1</title>
<g id="a_edge7_Node000001_Node000008"><a xlink:title=" ">
<path fill="none" stroke="#9a32cd" stroke-dasharray="5,2" d="M383,-47.07C411.66,-53.01 444.09,-60.73 473,-70 493.46,-76.56 515.64,-86.01 532.97,-93.97"/>
<polygon fill="#9a32cd" stroke="#9a32cd" points="383.53,-43.6 373.03,-45.04 382.13,-50.46 383.53,-43.6"/>
</a>
</g>
<text text-anchor="middle" x="432" y="-73" font-family="Helvetica,sans-Serif" font-size="10.00" fill="grey"> shape_</text>
</g>
<!-- Node9 -->
<g id="Node000009" class="node">
<title>Node9</title>
<g id="a_Node000009"><a xlink:title=" ">
<polygon fill="white" stroke="#bfbfbf" points="196,-52 0,-52 0,0 196,0 196,-52"/>
<text text-anchor="start" x="8" y="-40" font-family="Helvetica,sans-Serif" font-size="10.00">std::unique_ptr&lt; mm</text>
<text text-anchor="start" x="8" y="-29" font-family="Helvetica,sans-Serif" font-size="10.00">::DomainShape&lt; vec_t</text>
<text text-anchor="start" x="8" y="-18" font-family="Helvetica,sans-Serif" font-size="10.00"> &gt; , std::default_delete</text>
<text text-anchor="middle" x="98" y="-7" font-family="Helvetica,sans-Serif" font-size="10.00">&lt; mm::DomainShape&lt; vec_t &gt; &#160;&gt; &gt;</text>
</a>
</g>
</g>
<!-- Node9&#45;&gt;Node8 -->
<g id="edge8_Node000008_Node000009" class="edge">
<title>Node9&#45;&gt;Node8</title>
<g id="a_edge8_Node000008_Node000009"><a xlink:title=" ">
<path fill="none" stroke="#63b8ff" d="M206.25,-29.7C215.28,-30.01 224.25,-30.32 232.87,-30.62"/>
<polygon fill="#63b8ff" stroke="#63b8ff" points="206.16,-26.19 196.04,-29.35 205.91,-33.19 206.16,-26.19"/>
</a>
</g>
</g>
</g>
</svg>
