<?xml version="1.0" encoding="UTF-8" standalone="no"?>
<!DOCTYPE svg PUBLIC "-//W3C//DTD SVG 1.1//EN"
 "http://www.w3.org/Graphics/SVG/1.1/DTD/svg11.dtd">
<!-- Generated by graphviz version 2.43.0 (0)
 -->
<!-- Title: mm::HalfLinksRefine Pages: 1 -->
<svg width="138pt" height="160pt"
 viewBox="0.00 0.00 138.00 160.00" xmlns="http://www.w3.org/2000/svg" xmlns:xlink="http://www.w3.org/1999/xlink">
<g id="graph0" class="graph" transform="scale(1 1) rotate(0) translate(4 156)">
<title>mm::HalfLinksRefine</title>
<!-- Node1 -->
<g id="Node000001" class="node">
<title>Node1</title>
<g id="a_Node000001"><a xlink:title="Refine a region of nodes region by connecting every node in region to its support domain and generati...">
<polygon fill="#999999" stroke="#666666" points="124.5,-19 5.5,-19 5.5,0 124.5,0 124.5,-19"/>
<text text-anchor="middle" x="65" y="-7" font-family="Helvetica,sans-Serif" font-size="10.00">mm::HalfLinksRefine</text>
</a>
</g>
</g>
<!-- Node2 -->
<g id="Node000002" class="node">
<title>Node2</title>
<g id="a_Node000002"><a xlink:href="classmm_1_1Range.html" target="_top" xlink:title=" ">
<polygon fill="white" stroke="#666666" points="119,-85 11,-85 11,-66 119,-66 119,-85"/>
<text text-anchor="middle" x="65" y="-73" font-family="Helvetica,sans-Serif" font-size="10.00">mm::Range&lt; int &gt;</text>
</a>
</g>
</g>
<!-- Node2&#45;&gt;Node1 -->
<g id="edge1_Node000001_Node000002" class="edge">
<title>Node2&#45;&gt;Node1</title>
<g id="a_edge1_Node000001_Node000002"><a xlink:title=" ">
<path fill="none" stroke="#9a32cd" stroke-dasharray="5,2" d="M65,-55.58C65,-43.63 65,-28.72 65,-19.41"/>
<polygon fill="#9a32cd" stroke="#9a32cd" points="61.5,-55.87 65,-65.87 68.5,-55.87 61.5,-55.87"/>
</a>
</g>
<text text-anchor="middle" x="85" y="-40" font-family="Helvetica,sans-Serif" font-size="10.00" fill="grey"> region_</text>
</g>
<!-- Node3 -->
<g id="Node000003" class="node">
<title>Node3</title>
<g id="a_Node000003"><a xlink:title=" ">
<polygon fill="white" stroke="#bfbfbf" points="130,-152 0,-152 0,-122 130,-122 130,-152"/>
<text text-anchor="start" x="8" y="-140" font-family="Helvetica,sans-Serif" font-size="10.00">std::vector&lt; int ,</text>
<text text-anchor="middle" x="65" y="-129" font-family="Helvetica,sans-Serif" font-size="10.00"> std::allocator&lt;int &gt; &#160;&gt;</text>
</a>
</g>
</g>
<!-- Node3&#45;&gt;Node2 -->
<g id="edge2_Node000002_Node000003" class="edge">
<title>Node3&#45;&gt;Node2</title>
<g id="a_edge2_Node000002_Node000003"><a xlink:title=" ">
<path fill="none" stroke="#63b8ff" d="M65,-111.79C65,-102.36 65,-92.15 65,-85.16"/>
<polygon fill="#63b8ff" stroke="#63b8ff" points="61.5,-111.9 65,-121.9 68.5,-111.9 61.5,-111.9"/>
</a>
</g>
</g>
</g>
</svg>
