<?xml version="1.0" encoding="UTF-8" standalone="no"?>
<!DOCTYPE svg PUBLIC "-//W3C//DTD SVG 1.1//EN"
 "http://www.w3.org/Graphics/SVG/1.1/DTD/svg11.dtd">
<!-- Generated by graphviz version 2.43.0 (0)
 -->
<!-- Title: mm::TranslatedShape&lt; vec_t &gt; Pages: 1 -->
<svg width="573pt" height="92pt"
 viewBox="0.00 0.00 573.00 91.50" xmlns="http://www.w3.org/2000/svg" xmlns:xlink="http://www.w3.org/1999/xlink">
<g id="graph0" class="graph" transform="scale(1 1) rotate(0) translate(4 87.5)">
<title>mm::TranslatedShape&lt; vec_t &gt;</title>
<!-- Node1 -->
<g id="Node000001" class="node">
<title>Node1</title>
<g id="a_Node000001"><a xlink:title="Class for working with translated domain shapes.">
<polygon fill="#999999" stroke="#666666" points="565,-65 443,-65 443,-35 565,-35 565,-65"/>
<text text-anchor="start" x="451" y="-53" font-family="Helvetica,sans-Serif" font-size="10.00">mm::TranslatedShape</text>
<text text-anchor="middle" x="504" y="-42" font-family="Helvetica,sans-Serif" font-size="10.00">&lt; vec_t &gt;</text>
</a>
</g>
</g>
<!-- Node2 -->
<g id="Node000002" class="node">
<title>Node2</title>
<g id="a_Node000002"><a xlink:href="classmm_1_1DomainShape.html" target="_top" xlink:title="Base class for geometric shapes of domains.">
<polygon fill="white" stroke="#666666" points="392,-83.5 233,-83.5 233,-64.5 392,-64.5 392,-83.5"/>
<text text-anchor="middle" x="312.5" y="-71.5" font-family="Helvetica,sans-Serif" font-size="10.00">mm::DomainShape&lt; vec_t &gt;</text>
</a>
</g>
</g>
<!-- Node2&#45;&gt;Node1 -->
<g id="edge1_Node000001_Node000002" class="edge">
<title>Node2&#45;&gt;Node1</title>
<g id="a_edge1_Node000001_Node000002"><a xlink:title=" ">
<path fill="none" stroke="#63b8ff" d="M398.87,-63.19C413.7,-61.31 428.84,-59.39 442.81,-57.62"/>
<polygon fill="#63b8ff" stroke="#63b8ff" points="398.15,-59.75 388.67,-64.48 399.03,-66.7 398.15,-59.75"/>
</a>
</g>
</g>
<!-- Node3 -->
<g id="Node000003" class="node">
<title>Node3</title>
<g id="a_Node000003"><a xlink:href="classmm_1_1deep__copy__unique__ptr.html" target="_top" xlink:title=" ">
<polygon fill="white" stroke="#666666" points="382.5,-46.5 242.5,-46.5 242.5,-5.5 382.5,-5.5 382.5,-46.5"/>
<text text-anchor="start" x="250.5" y="-34.5" font-family="Helvetica,sans-Serif" font-size="10.00">mm::deep_copy_unique</text>
<text text-anchor="start" x="250.5" y="-23.5" font-family="Helvetica,sans-Serif" font-size="10.00">_ptr&lt; mm::DomainShape</text>
<text text-anchor="middle" x="312.5" y="-12.5" font-family="Helvetica,sans-Serif" font-size="10.00">&lt; vec_t &gt; &gt;</text>
</a>
</g>
</g>
<!-- Node3&#45;&gt;Node1 -->
<g id="edge2_Node000001_Node000003" class="edge">
<title>Node3&#45;&gt;Node1</title>
<g id="a_edge2_Node000001_Node000003"><a xlink:title=" ">
<path fill="none" stroke="#9a32cd" stroke-dasharray="5,2" d="M392.98,-36.07C409.63,-38.17 426.92,-40.36 442.72,-42.37"/>
<polygon fill="#9a32cd" stroke="#9a32cd" points="393.08,-32.55 382.72,-34.77 392.2,-39.5 393.08,-32.55"/>
</a>
</g>
<text text-anchor="middle" x="417.5" y="-42" font-family="Helvetica,sans-Serif" font-size="10.00" fill="grey"> sh</text>
</g>
<!-- Node4 -->
<g id="Node000004" class="node">
<title>Node4</title>
<g id="a_Node000004"><a xlink:title=" ">
<polygon fill="white" stroke="#bfbfbf" points="196,-52 0,-52 0,0 196,0 196,-52"/>
<text text-anchor="start" x="8" y="-40" font-family="Helvetica,sans-Serif" font-size="10.00">std::unique_ptr&lt; mm</text>
<text text-anchor="start" x="8" y="-29" font-family="Helvetica,sans-Serif" font-size="10.00">::DomainShape&lt; vec_t</text>
<text text-anchor="start" x="8" y="-18" font-family="Helvetica,sans-Serif" font-size="10.00"> &gt; , std::default_delete</text>
<text text-anchor="middle" x="98" y="-7" font-family="Helvetica,sans-Serif" font-size="10.00">&lt; mm::DomainShape&lt; vec_t &gt; &#160;&gt; &gt;</text>
</a>
</g>
</g>
<!-- Node4&#45;&gt;Node3 -->
<g id="edge3_Node000003_Node000004" class="edge">
<title>Node4&#45;&gt;Node3</title>
<g id="a_edge3_Node000003_Node000004"><a xlink:title=" ">
<path fill="none" stroke="#63b8ff" d="M206.44,-26C218.6,-26 230.74,-26 242.23,-26"/>
<polygon fill="#63b8ff" stroke="#63b8ff" points="206.23,-22.5 196.23,-26 206.23,-29.5 206.23,-22.5"/>
</a>
</g>
</g>
</g>
</svg>
