<?xml version="1.0" encoding="UTF-8" standalone="no"?>
<!DOCTYPE svg PUBLIC "-//W3C//DTD SVG 1.1//EN"
 "http://www.w3.org/Graphics/SVG/1.1/DTD/svg11.dtd">
<!-- Generated by graphviz version 2.43.0 (0)
 -->
<!-- Title: mm::ShapeDifference&lt; vec_t &gt; Pages: 1 -->
<svg width="579pt" height="92pt"
 viewBox="0.00 0.00 579.00 91.50" xmlns="http://www.w3.org/2000/svg" xmlns:xlink="http://www.w3.org/1999/xlink">
<g id="graph0" class="graph" transform="scale(1 1) rotate(0) translate(4 87.5)">
<title>mm::ShapeDifference&lt; vec_t &gt;</title>
<!-- Node1 -->
<g id="Node000001" class="node">
<title>Node1</title>
<g id="a_Node000001"><a xlink:title="A class representing a set&#45;difference of two shapes.">
<polygon fill="#999999" stroke="#666666" points="571,-65 449,-65 449,-35 571,-35 571,-65"/>
<text text-anchor="start" x="457" y="-53" font-family="Helvetica,sans-Serif" font-size="10.00">mm::ShapeDifference</text>
<text text-anchor="middle" x="510" y="-42" font-family="Helvetica,sans-Serif" font-size="10.00">&lt; vec_t &gt;</text>
</a>
</g>
</g>
<!-- Node2 -->
<g id="Node000002" class="node">
<title>Node2</title>
<g id="a_Node000002"><a xlink:href="classmm_1_1DomainShape.html" target="_top" xlink:title="Base class for geometric shapes of domains.">
<polygon fill="white" stroke="#666666" points="392,-83.5 233,-83.5 233,-64.5 392,-64.5 392,-83.5"/>
<text text-anchor="middle" x="312.5" y="-71.5" font-family="Helvetica,sans-Serif" font-size="10.00">mm::DomainShape&lt; vec_t &gt;</text>
</a>
</g>
</g>
<!-- Node2&#45;&gt;Node1 -->
<g id="edge1_Node000001_Node000002" class="edge">
<title>Node2&#45;&gt;Node1</title>
<g id="a_edge1_Node000001_Node000002"><a xlink:title=" ">
<path fill="none" stroke="#63b8ff" d="M401.02,-63.26C417.15,-61.28 433.64,-59.25 448.74,-57.4"/>
<polygon fill="#63b8ff" stroke="#63b8ff" points="400.55,-59.79 391.05,-64.48 401.4,-66.74 400.55,-59.79"/>
</a>
</g>
</g>
<!-- Node3 -->
<g id="Node000003" class="node">
<title>Node3</title>
<g id="a_Node000003"><a xlink:href="classmm_1_1deep__copy__unique__ptr.html" target="_top" xlink:title=" ">
<polygon fill="white" stroke="#666666" points="382.5,-46.5 242.5,-46.5 242.5,-5.5 382.5,-5.5 382.5,-46.5"/>
<text text-anchor="start" x="250.5" y="-34.5" font-family="Helvetica,sans-Serif" font-size="10.00">mm::deep_copy_unique</text>
<text text-anchor="start" x="250.5" y="-23.5" font-family="Helvetica,sans-Serif" font-size="10.00">_ptr&lt; mm::DomainShape</text>
<text text-anchor="middle" x="312.5" y="-12.5" font-family="Helvetica,sans-Serif" font-size="10.00">&lt; vec_t &gt; &gt;</text>
</a>
</g>
</g>
<!-- Node3&#45;&gt;Node1 -->
<g id="edge2_Node000001_Node000003" class="edge">
<title>Node3&#45;&gt;Node1</title>
<g id="a_edge2_Node000001_Node000003"><a xlink:title=" ">
<path fill="none" stroke="#9a32cd" stroke-dasharray="5,2" d="M392.82,-29.04C405.62,-30.02 418.7,-31.3 431,-33 436.77,-33.8 442.74,-34.79 448.7,-35.89"/>
<polygon fill="#9a32cd" stroke="#9a32cd" points="392.86,-25.54 382.64,-28.33 392.37,-32.52 392.86,-25.54"/>
</a>
</g>
<text text-anchor="middle" x="420.5" y="-47" font-family="Helvetica,sans-Serif" font-size="10.00" fill="grey"> sh1</text>
<text text-anchor="middle" x="420.5" y="-36" font-family="Helvetica,sans-Serif" font-size="10.00" fill="grey">sh2</text>
</g>
<!-- Node4 -->
<g id="Node000004" class="node">
<title>Node4</title>
<g id="a_Node000004"><a xlink:title=" ">
<polygon fill="white" stroke="#bfbfbf" points="196,-52 0,-52 0,0 196,0 196,-52"/>
<text text-anchor="start" x="8" y="-40" font-family="Helvetica,sans-Serif" font-size="10.00">std::unique_ptr&lt; mm</text>
<text text-anchor="start" x="8" y="-29" font-family="Helvetica,sans-Serif" font-size="10.00">::DomainShape&lt; vec_t</text>
<text text-anchor="start" x="8" y="-18" font-family="Helvetica,sans-Serif" font-size="10.00"> &gt; , std::default_delete</text>
<text text-anchor="middle" x="98" y="-7" font-family="Helvetica,sans-Serif" font-size="10.00">&lt; mm::DomainShape&lt; vec_t &gt; &#160;&gt; &gt;</text>
</a>
</g>
</g>
<!-- Node4&#45;&gt;Node3 -->
<g id="edge3_Node000003_Node000004" class="edge">
<title>Node4&#45;&gt;Node3</title>
<g id="a_edge3_Node000003_Node000004"><a xlink:title=" ">
<path fill="none" stroke="#63b8ff" d="M206.44,-26C218.6,-26 230.74,-26 242.23,-26"/>
<polygon fill="#63b8ff" stroke="#63b8ff" points="206.23,-22.5 196.23,-26 206.23,-29.5 206.23,-22.5"/>
</a>
</g>
</g>
</g>
</svg>
