<?xml version="1.0" encoding="UTF-8" standalone="no"?>
<!DOCTYPE svg PUBLIC "-//W3C//DTD SVG 1.1//EN"
 "http://www.w3.org/Graphics/SVG/1.1/DTD/svg11.dtd">
<!-- Generated by graphviz version 2.43.0 (0)
 -->
<!-- Title: include/medusa/bits/domains/compute_normal.hpp Pages: 1 -->
<svg width="390pt" height="214pt"
 viewBox="0.00 0.00 390.00 214.00" xmlns="http://www.w3.org/2000/svg" xmlns:xlink="http://www.w3.org/1999/xlink">
<g id="graph0" class="graph" transform="scale(1 1) rotate(0) translate(4 210)">
<title>include/medusa/bits/domains/compute_normal.hpp</title>
<!-- Node1 -->
<g id="Node000001" class="node">
<title>Node1</title>
<g id="a_Node000001"><a xlink:title="Implementation of normal computation.">
<polygon fill="#999999" stroke="#666666" points="328,-206 160,-206 160,-176 328,-176 328,-206"/>
<text text-anchor="start" x="168" y="-194" font-family="Helvetica,sans-Serif" font-size="10.00">include/medusa/bits</text>
<text text-anchor="middle" x="244" y="-183" font-family="Helvetica,sans-Serif" font-size="10.00">/domains/compute_normal.hpp</text>
</a>
</g>
</g>
<!-- Node2 -->
<g id="Node000002" class="node">
<title>Node2</title>
<g id="a_Node000002"><a xlink:href="NURBSShape_8hpp.html" target="_top" xlink:title="Implementation of NURBSShape class.">
<polygon fill="white" stroke="#666666" points="242,-140 92,-140 92,-110 242,-110 242,-140"/>
<text text-anchor="start" x="100" y="-128" font-family="Helvetica,sans-Serif" font-size="10.00">include/medusa/bits</text>
<text text-anchor="middle" x="167" y="-117" font-family="Helvetica,sans-Serif" font-size="10.00">/domains/NURBSShape.hpp</text>
</a>
</g>
</g>
<!-- Node1&#45;&gt;Node2 -->
<g id="edge1_Node000001_Node000002" class="edge">
<title>Node1&#45;&gt;Node2</title>
<g id="a_edge1_Node000001_Node000002"><a xlink:title=" ">
<path fill="none" stroke="#63b8ff" d="M218.98,-169.2C207.55,-159.7 194.3,-148.69 184.04,-140.16"/>
<polygon fill="#63b8ff" stroke="#63b8ff" points="216.98,-172.1 226.91,-175.8 221.46,-166.71 216.98,-172.1"/>
</a>
</g>
</g>
<!-- Node6 -->
<g id="Node000006" class="node">
<title>Node6</title>
<g id="a_Node000006"><a xlink:href="compute__normal_8cpp.html" target="_top" xlink:title="Instantiations of commonly used compute_normals instances.">
<polygon fill="white" stroke="#666666" points="382,-140 260,-140 260,-110 382,-110 382,-140"/>
<text text-anchor="start" x="268" y="-128" font-family="Helvetica,sans-Serif" font-size="10.00">src/domains/compute</text>
<text text-anchor="middle" x="321" y="-117" font-family="Helvetica,sans-Serif" font-size="10.00">_normal.cpp</text>
</a>
</g>
</g>
<!-- Node1&#45;&gt;Node6 -->
<g id="edge5_Node000001_Node000006" class="edge">
<title>Node1&#45;&gt;Node6</title>
<g id="a_edge5_Node000001_Node000006"><a xlink:title=" ">
<path fill="none" stroke="#63b8ff" d="M269.02,-169.2C280.45,-159.7 293.7,-148.69 303.96,-140.16"/>
<polygon fill="#63b8ff" stroke="#63b8ff" points="266.54,-166.71 261.09,-175.8 271.02,-172.1 266.54,-166.71"/>
</a>
</g>
</g>
<!-- Node3 -->
<g id="Node000003" class="node">
<title>Node3</title>
<g id="a_Node000003"><a xlink:href="Domain_8hpp.html" target="_top" xlink:title="Header for Domain module.">
<polygon fill="white" stroke="#666666" points="156,-74 0,-74 0,-55 156,-55 156,-74"/>
<text text-anchor="middle" x="78" y="-62" font-family="Helvetica,sans-Serif" font-size="10.00">include/medusa/Domain.hpp</text>
</a>
</g>
</g>
<!-- Node2&#45;&gt;Node3 -->
<g id="edge2_Node000002_Node000003" class="edge">
<title>Node2&#45;&gt;Node3</title>
<g id="a_edge2_Node000002_Node000003"><a xlink:title=" ">
<path fill="none" stroke="#63b8ff" d="M136.67,-104.06C121.13,-93.85 103.02,-81.95 91.08,-74.09"/>
<polygon fill="#63b8ff" stroke="#63b8ff" points="135.18,-107.27 145.46,-109.84 139.02,-101.42 135.18,-107.27"/>
</a>
</g>
</g>
<!-- Node5 -->
<g id="Node000005" class="node">
<title>Node5</title>
<g id="a_Node000005"><a xlink:href="NURBSShape_8cpp.html" target="_top" xlink:title="Instantiations of commonly used NURBSShape instances.">
<polygon fill="white" stroke="#666666" points="338,-74 174,-74 174,-55 338,-55 338,-74"/>
<text text-anchor="middle" x="256" y="-62" font-family="Helvetica,sans-Serif" font-size="10.00">src/domains/NURBSShape.cpp</text>
</a>
</g>
</g>
<!-- Node2&#45;&gt;Node5 -->
<g id="edge4_Node000002_Node000005" class="edge">
<title>Node2&#45;&gt;Node5</title>
<g id="a_edge4_Node000002_Node000005"><a xlink:title=" ">
<path fill="none" stroke="#63b8ff" d="M197.33,-104.06C212.87,-93.85 230.98,-81.95 242.92,-74.09"/>
<polygon fill="#63b8ff" stroke="#63b8ff" points="194.98,-101.42 188.54,-109.84 198.82,-107.27 194.98,-101.42"/>
</a>
</g>
</g>
<!-- Node4 -->
<g id="Node000004" class="node">
<title>Node4</title>
<g id="a_Node000004"><a xlink:href="Medusa_8hpp.html" target="_top" xlink:title="Main header file that includes most other components.">
<polygon fill="white" stroke="#666666" points="156,-19 0,-19 0,0 156,0 156,-19"/>
<text text-anchor="middle" x="78" y="-7" font-family="Helvetica,sans-Serif" font-size="10.00">include/medusa/Medusa.hpp</text>
</a>
</g>
</g>
<!-- Node3&#45;&gt;Node4 -->
<g id="edge3_Node000003_Node000004" class="edge">
<title>Node3&#45;&gt;Node4</title>
<g id="a_edge3_Node000003_Node000004"><a xlink:title=" ">
<path fill="none" stroke="#63b8ff" d="M78,-44.66C78,-35.93 78,-25.99 78,-19.09"/>
<polygon fill="#63b8ff" stroke="#63b8ff" points="74.5,-44.75 78,-54.75 81.5,-44.75 74.5,-44.75"/>
</a>
</g>
</g>
</g>
</svg>
