<?xml version="1.0" encoding="UTF-8" standalone="no"?>
<!DOCTYPE svg PUBLIC "-//W3C//DTD SVG 1.1//EN"
 "http://www.w3.org/Graphics/SVG/1.1/DTD/svg11.dtd">
<!-- Generated by graphviz version 2.43.0 (0)
 -->
<!-- Title: include/medusa/bits/domains/compute_normal_fwd.hpp Pages: 1 -->
<svg width="527pt" height="291pt"
 viewBox="0.00 0.00 527.00 291.00" xmlns="http://www.w3.org/2000/svg" xmlns:xlink="http://www.w3.org/1999/xlink">
<g id="graph0" class="graph" transform="scale(1 1) rotate(0) translate(4 287)">
<title>include/medusa/bits/domains/compute_normal_fwd.hpp</title>
<!-- Node1 -->
<g id="Node000001" class="node">
<title>Node1</title>
<g id="a_Node000001"><a xlink:title="Compute normals from Jacobian matrix.">
<polygon fill="#999999" stroke="#666666" points="302.5,-283 155.5,-283 155.5,-242 302.5,-242 302.5,-283"/>
<text text-anchor="start" x="163.5" y="-271" font-family="Helvetica,sans-Serif" font-size="10.00">include/medusa/bits</text>
<text text-anchor="start" x="163.5" y="-260" font-family="Helvetica,sans-Serif" font-size="10.00">/domains/compute_normal</text>
<text text-anchor="middle" x="229" y="-249" font-family="Helvetica,sans-Serif" font-size="10.00">_fwd.hpp</text>
</a>
</g>
</g>
<!-- Node2 -->
<g id="Node000002" class="node">
<title>Node2</title>
<g id="a_Node000002"><a xlink:href="GeneralSurfaceFill_8hpp.html" target="_top" xlink:title="Implementation of the general node placing algorithm for parametrically given surfaces.">
<polygon fill="white" stroke="#666666" points="221.5,-206 46.5,-206 46.5,-176 221.5,-176 221.5,-206"/>
<text text-anchor="start" x="54.5" y="-194" font-family="Helvetica,sans-Serif" font-size="10.00">include/medusa/bits</text>
<text text-anchor="middle" x="134" y="-183" font-family="Helvetica,sans-Serif" font-size="10.00">/domains/GeneralSurfaceFill.hpp</text>
</a>
</g>
</g>
<!-- Node1&#45;&gt;Node2 -->
<g id="edge1_Node000001_Node000002" class="edge">
<title>Node1&#45;&gt;Node2</title>
<g id="a_edge1_Node000001_Node000002"><a xlink:title=" ">
<path fill="none" stroke="#63b8ff" d="M193.96,-235.87C180.22,-225.81 164.97,-214.66 153.29,-206.11"/>
<polygon fill="#63b8ff" stroke="#63b8ff" points="192.15,-238.88 202.28,-241.96 196.28,-233.23 192.15,-238.88"/>
</a>
</g>
</g>
<!-- Node8 -->
<g id="Node000008" class="node">
<title>Node8</title>
<g id="a_Node000008"><a xlink:href="compute__normal_8hpp.html" target="_top" xlink:title="Implementation of normal computation.">
<polygon fill="white" stroke="#666666" points="408,-206 240,-206 240,-176 408,-176 408,-206"/>
<text text-anchor="start" x="248" y="-194" font-family="Helvetica,sans-Serif" font-size="10.00">include/medusa/bits</text>
<text text-anchor="middle" x="324" y="-183" font-family="Helvetica,sans-Serif" font-size="10.00">/domains/compute_normal.hpp</text>
</a>
</g>
</g>
<!-- Node1&#45;&gt;Node8 -->
<g id="edge8_Node000001_Node000008" class="edge">
<title>Node1&#45;&gt;Node8</title>
<g id="a_edge8_Node000001_Node000008"><a xlink:title=" ">
<path fill="none" stroke="#63b8ff" d="M264.04,-235.87C277.78,-225.81 293.03,-214.66 304.71,-206.11"/>
<polygon fill="#63b8ff" stroke="#63b8ff" points="261.72,-233.23 255.72,-241.96 265.85,-238.88 261.72,-233.23"/>
</a>
</g>
</g>
<!-- Node3 -->
<g id="Node000003" class="node">
<title>Node3</title>
<g id="a_Node000003"><a xlink:href="Domain_8hpp.html" target="_top" xlink:title="Header for Domain module.">
<polygon fill="white" stroke="#666666" points="156,-74 0,-74 0,-55 156,-55 156,-74"/>
<text text-anchor="middle" x="78" y="-62" font-family="Helvetica,sans-Serif" font-size="10.00">include/medusa/Domain.hpp</text>
</a>
</g>
</g>
<!-- Node2&#45;&gt;Node3 -->
<g id="edge2_Node000002_Node000003" class="edge">
<title>Node2&#45;&gt;Node3</title>
<g id="a_edge2_Node000002_Node000003"><a xlink:title=" ">
<path fill="none" stroke="#63b8ff" d="M82.3,-171.25C68.75,-163.71 55.77,-153.51 48,-140 35.07,-117.52 56.76,-88.38 69.6,-74.12"/>
<polygon fill="#63b8ff" stroke="#63b8ff" points="80.74,-174.38 91.23,-175.83 83.93,-168.15 80.74,-174.38"/>
</a>
</g>
</g>
<!-- Node5 -->
<g id="Node000005" class="node">
<title>Node5</title>
<g id="a_Node000005"><a xlink:href="NURBSShape_8hpp.html" target="_top" xlink:title="Implementation of NURBSShape class.">
<polygon fill="white" stroke="#666666" points="379,-140 229,-140 229,-110 379,-110 379,-140"/>
<text text-anchor="start" x="237" y="-128" font-family="Helvetica,sans-Serif" font-size="10.00">include/medusa/bits</text>
<text text-anchor="middle" x="304" y="-117" font-family="Helvetica,sans-Serif" font-size="10.00">/domains/NURBSShape.hpp</text>
</a>
</g>
</g>
<!-- Node2&#45;&gt;Node5 -->
<g id="edge4_Node000002_Node000005" class="edge">
<title>Node2&#45;&gt;Node5</title>
<g id="a_edge4_Node000002_Node000005"><a xlink:title=" ">
<path fill="none" stroke="#63b8ff" d="M180.96,-172.32C208.01,-162.14 241.55,-149.51 266.78,-140.01"/>
<polygon fill="#63b8ff" stroke="#63b8ff" points="179.43,-169.16 171.31,-175.95 181.9,-175.71 179.43,-169.16"/>
</a>
</g>
</g>
<!-- Node7 -->
<g id="Node000007" class="node">
<title>Node7</title>
<g id="a_Node000007"><a xlink:href="GeneralSurfaceFill_8cpp.html" target="_top" xlink:title="Instantiations of commonly used GeneralSurfaceFill instances.">
<polygon fill="white" stroke="#666666" points="211,-140 57,-140 57,-110 211,-110 211,-140"/>
<text text-anchor="start" x="65" y="-128" font-family="Helvetica,sans-Serif" font-size="10.00">src/domains/GeneralSurface</text>
<text text-anchor="middle" x="134" y="-117" font-family="Helvetica,sans-Serif" font-size="10.00">Fill.cpp</text>
</a>
</g>
</g>
<!-- Node2&#45;&gt;Node7 -->
<g id="edge7_Node000002_Node000007" class="edge">
<title>Node2&#45;&gt;Node7</title>
<g id="a_edge7_Node000002_Node000007"><a xlink:title=" ">
<path fill="none" stroke="#63b8ff" d="M134,-165.54C134,-156.96 134,-147.61 134,-140.16"/>
<polygon fill="#63b8ff" stroke="#63b8ff" points="130.5,-165.8 134,-175.8 137.5,-165.8 130.5,-165.8"/>
</a>
</g>
</g>
<!-- Node4 -->
<g id="Node000004" class="node">
<title>Node4</title>
<g id="a_Node000004"><a xlink:href="Medusa_8hpp.html" target="_top" xlink:title="Main header file that includes most other components.">
<polygon fill="white" stroke="#666666" points="156,-19 0,-19 0,0 156,0 156,-19"/>
<text text-anchor="middle" x="78" y="-7" font-family="Helvetica,sans-Serif" font-size="10.00">include/medusa/Medusa.hpp</text>
</a>
</g>
</g>
<!-- Node3&#45;&gt;Node4 -->
<g id="edge3_Node000003_Node000004" class="edge">
<title>Node3&#45;&gt;Node4</title>
<g id="a_edge3_Node000003_Node000004"><a xlink:title=" ">
<path fill="none" stroke="#63b8ff" d="M78,-44.66C78,-35.93 78,-25.99 78,-19.09"/>
<polygon fill="#63b8ff" stroke="#63b8ff" points="74.5,-44.75 78,-54.75 81.5,-44.75 74.5,-44.75"/>
</a>
</g>
</g>
<!-- Node5&#45;&gt;Node3 -->
<g id="edge5_Node000005_Node000003" class="edge">
<title>Node5&#45;&gt;Node3</title>
<g id="a_edge5_Node000005_Node000003"><a xlink:title=" ">
<path fill="none" stroke="#63b8ff" d="M240,-107.43C197.99,-96.56 144.77,-82.78 111.04,-74.05"/>
<polygon fill="#63b8ff" stroke="#63b8ff" points="239.31,-110.87 249.87,-109.99 241.06,-104.09 239.31,-110.87"/>
</a>
</g>
</g>
<!-- Node6 -->
<g id="Node000006" class="node">
<title>Node6</title>
<g id="a_Node000006"><a xlink:href="NURBSShape_8cpp.html" target="_top" xlink:title="Instantiations of commonly used NURBSShape instances.">
<polygon fill="white" stroke="#666666" points="386,-74 222,-74 222,-55 386,-55 386,-74"/>
<text text-anchor="middle" x="304" y="-62" font-family="Helvetica,sans-Serif" font-size="10.00">src/domains/NURBSShape.cpp</text>
</a>
</g>
</g>
<!-- Node5&#45;&gt;Node6 -->
<g id="edge6_Node000005_Node000006" class="edge">
<title>Node5&#45;&gt;Node6</title>
<g id="a_edge6_Node000005_Node000006"><a xlink:title=" ">
<path fill="none" stroke="#63b8ff" d="M304,-99.75C304,-90.72 304,-81.03 304,-74.27"/>
<polygon fill="#63b8ff" stroke="#63b8ff" points="300.5,-99.84 304,-109.84 307.5,-99.84 300.5,-99.84"/>
</a>
</g>
</g>
<!-- Node8&#45;&gt;Node5 -->
<g id="edge9_Node000008_Node000005" class="edge">
<title>Node8&#45;&gt;Node5</title>
<g id="a_edge9_Node000008_Node000005"><a xlink:title=" ">
<path fill="none" stroke="#63b8ff" d="M316.53,-166.11C313.81,-157.38 310.81,-147.78 308.43,-140.16"/>
<polygon fill="#63b8ff" stroke="#63b8ff" points="313.24,-167.3 319.56,-175.8 319.92,-165.21 313.24,-167.3"/>
</a>
</g>
</g>
<!-- Node9 -->
<g id="Node000009" class="node">
<title>Node9</title>
<g id="a_Node000009"><a xlink:href="compute__normal_8cpp.html" target="_top" xlink:title="Instantiations of commonly used compute_normals instances.">
<polygon fill="white" stroke="#666666" points="519,-140 397,-140 397,-110 519,-110 519,-140"/>
<text text-anchor="start" x="405" y="-128" font-family="Helvetica,sans-Serif" font-size="10.00">src/domains/compute</text>
<text text-anchor="middle" x="458" y="-117" font-family="Helvetica,sans-Serif" font-size="10.00">_normal.cpp</text>
</a>
</g>
</g>
<!-- Node8&#45;&gt;Node9 -->
<g id="edge10_Node000008_Node000009" class="edge">
<title>Node8&#45;&gt;Node9</title>
<g id="a_edge10_Node000008_Node000009"><a xlink:title=" ">
<path fill="none" stroke="#63b8ff" d="M362.71,-171.51C383.73,-161.47 409.3,-149.26 428.66,-140.01"/>
<polygon fill="#63b8ff" stroke="#63b8ff" points="360.92,-168.49 353.41,-175.95 363.94,-174.8 360.92,-168.49"/>
</a>
</g>
</g>
</g>
</svg>
