<?xml version="1.0" encoding="UTF-8" standalone="no"?>
<!DOCTYPE svg PUBLIC "-//W3C//DTD SVG 1.1//EN"
 "http://www.w3.org/Graphics/SVG/1.1/DTD/svg11.dtd">
<!-- Generated by graphviz version 2.43.0 (0)
 -->
<!-- Title: include/medusa/bits/io/CSV.hpp Pages: 1 -->
<svg width="540pt" height="258pt"
 viewBox="0.00 0.00 540.00 258.00" xmlns="http://www.w3.org/2000/svg" xmlns:xlink="http://www.w3.org/1999/xlink">
<g id="graph0" class="graph" transform="scale(1 1) rotate(0) translate(4 254)">
<title>include/medusa/bits/io/CSV.hpp</title>
<!-- Node1 -->
<g id="Node000001" class="node">
<title>Node1</title>
<g id="a_Node000001"><a xlink:title="Implementation of CSV I/O utilities.">
<polygon fill="#999999" stroke="#666666" points="382.5,-250 267.5,-250 267.5,-220 382.5,-220 382.5,-250"/>
<text text-anchor="start" x="275.5" y="-238" font-family="Helvetica,sans-Serif" font-size="10.00">include/medusa/bits</text>
<text text-anchor="middle" x="325" y="-227" font-family="Helvetica,sans-Serif" font-size="10.00">/io/CSV.hpp</text>
</a>
</g>
</g>
<!-- Node2 -->
<g id="Node000002" class="node">
<title>Node2</title>
<g id="a_Node000002"><a xlink:href="CSV__fwd_8hpp.html" target="_top" xlink:title="Declarations for CSV I/O.">
<polygon fill="white" stroke="#666666" points="170,-184 90,-184 90,-165 170,-165 170,-184"/>
<text text-anchor="middle" x="130" y="-172" font-family="Helvetica,sans-Serif" font-size="10.00">CSV_fwd.hpp</text>
</a>
</g>
</g>
<!-- Node1&#45;&gt;Node2 -->
<g id="edge1_Node000001_Node000002" class="edge">
<title>Node1&#45;&gt;Node2</title>
<g id="a_edge1_Node000001_Node000002"><a xlink:title=" ">
<path fill="none" stroke="#63b8ff" d="M278.29,-219.99C244.64,-209.89 199.79,-196.44 168.25,-186.98"/>
<polygon fill="#63b8ff" stroke="#63b8ff" points="169.1,-183.57 158.51,-184.05 167.08,-190.28 169.1,-183.57"/>
</a>
</g>
</g>
<!-- Node12 -->
<g id="Node000012" class="node">
<title>Node12</title>
<g id="a_Node000012"><a xlink:title=" ">
<polygon fill="#e0e0e0" stroke="#999999" points="243.5,-184 188.5,-184 188.5,-165 243.5,-165 243.5,-184"/>
<text text-anchor="middle" x="216" y="-172" font-family="Helvetica,sans-Serif" font-size="10.00">fstream</text>
</a>
</g>
</g>
<!-- Node1&#45;&gt;Node12 -->
<g id="edge12_Node000001_Node000012" class="edge">
<title>Node1&#45;&gt;Node12</title>
<g id="a_edge12_Node000001_Node000012"><a xlink:title=" ">
<path fill="none" stroke="#63b8ff" d="M298.89,-219.99C281.36,-210.58 258.38,-198.24 241.06,-188.95"/>
<polygon fill="#63b8ff" stroke="#63b8ff" points="242.56,-185.78 232.1,-184.14 239.25,-191.95 242.56,-185.78"/>
</a>
</g>
</g>
<!-- Node13 -->
<g id="Node000013" class="node">
<title>Node13</title>
<g id="a_Node000013"><a xlink:title=" ">
<polygon fill="#e0e0e0" stroke="#999999" points="312,-184 262,-184 262,-165 312,-165 312,-184"/>
<text text-anchor="middle" x="287" y="-172" font-family="Helvetica,sans-Serif" font-size="10.00">cstring</text>
</a>
</g>
</g>
<!-- Node1&#45;&gt;Node13 -->
<g id="edge13_Node000001_Node000013" class="edge">
<title>Node1&#45;&gt;Node13</title>
<g id="a_edge13_Node000001_Node000013"><a xlink:title=" ">
<path fill="none" stroke="#63b8ff" d="M315.8,-219.84C310.51,-211.69 303.82,-201.4 298.22,-192.78"/>
<polygon fill="#63b8ff" stroke="#63b8ff" points="301.08,-190.75 292.69,-184.27 295.21,-194.56 301.08,-190.75"/>
</a>
</g>
</g>
<!-- Node14 -->
<g id="Node000014" class="node">
<title>Node14</title>
<g id="a_Node000014"><a xlink:title=" ">
<polygon fill="#e0e0e0" stroke="#999999" points="395.5,-184 330.5,-184 330.5,-165 395.5,-165 395.5,-184"/>
<text text-anchor="middle" x="363" y="-172" font-family="Helvetica,sans-Serif" font-size="10.00">exception</text>
</a>
</g>
</g>
<!-- Node1&#45;&gt;Node14 -->
<g id="edge14_Node000001_Node000014" class="edge">
<title>Node1&#45;&gt;Node14</title>
<g id="a_edge14_Node000001_Node000014"><a xlink:title=" ">
<path fill="none" stroke="#63b8ff" d="M334.2,-219.84C339.49,-211.69 346.18,-201.4 351.78,-192.78"/>
<polygon fill="#63b8ff" stroke="#63b8ff" points="354.79,-194.56 357.31,-184.27 348.92,-190.75 354.79,-194.56"/>
</a>
</g>
</g>
<!-- Node15 -->
<g id="Node000015" class="node">
<title>Node15</title>
<g id="a_Node000015"><a xlink:title=" ">
<polygon fill="#e0e0e0" stroke="#999999" points="458,-184 414,-184 414,-165 458,-165 458,-184"/>
<text text-anchor="middle" x="436" y="-172" font-family="Helvetica,sans-Serif" font-size="10.00">string</text>
</a>
</g>
</g>
<!-- Node1&#45;&gt;Node15 -->
<g id="edge15_Node000001_Node000015" class="edge">
<title>Node1&#45;&gt;Node15</title>
<g id="a_edge15_Node000001_Node000015"><a xlink:title=" ">
<path fill="none" stroke="#63b8ff" d="M351.59,-219.99C369.45,-210.58 392.84,-198.24 410.48,-188.95"/>
<polygon fill="#63b8ff" stroke="#63b8ff" points="412.39,-191.9 419.61,-184.14 409.13,-185.71 412.39,-191.9"/>
</a>
</g>
</g>
<!-- Node16 -->
<g id="Node000016" class="node">
<title>Node16</title>
<g id="a_Node000016"><a xlink:title=" ">
<polygon fill="#e0e0e0" stroke="#999999" points="532,-184 476,-184 476,-165 532,-165 532,-184"/>
<text text-anchor="middle" x="504" y="-172" font-family="Helvetica,sans-Serif" font-size="10.00">iomanip</text>
</a>
</g>
</g>
<!-- Node1&#45;&gt;Node16 -->
<g id="edge16_Node000001_Node000016" class="edge">
<title>Node1&#45;&gt;Node16</title>
<g id="a_edge16_Node000001_Node000016"><a xlink:title=" ">
<path fill="none" stroke="#63b8ff" d="M367.87,-219.99C398.5,-209.98 439.23,-196.67 468.13,-187.22"/>
<polygon fill="#63b8ff" stroke="#63b8ff" points="469.41,-190.49 477.83,-184.05 467.23,-183.83 469.41,-190.49"/>
</a>
</g>
</g>
<!-- Node3 -->
<g id="Node000003" class="node">
<title>Node3</title>
<g id="a_Node000003"><a xlink:href="Config_8hpp.html" target="_top" xlink:title="Contains compile time settings for the project, such as Eigen plugins.">
<polygon fill="white" stroke="#666666" points="110,-129 0,-129 0,-110 110,-110 110,-129"/>
<text text-anchor="middle" x="55" y="-117" font-family="Helvetica,sans-Serif" font-size="10.00">medusa/Config.hpp</text>
</a>
</g>
</g>
<!-- Node2&#45;&gt;Node3 -->
<g id="edge2_Node000002_Node000003" class="edge">
<title>Node2&#45;&gt;Node3</title>
<g id="a_edge2_Node000002_Node000003"><a xlink:title=" ">
<path fill="none" stroke="#63b8ff" d="M117.95,-164.98C106.54,-156.92 89.17,-144.65 75.57,-135.03"/>
<polygon fill="#63b8ff" stroke="#63b8ff" points="77.46,-132.08 67.27,-129.17 73.42,-137.8 77.46,-132.08"/>
</a>
</g>
</g>
<!-- Node5 -->
<g id="Node000005" class="node">
<title>Node5</title>
<g id="a_Node000005"><a xlink:href="assert_8hpp.html" target="_top" xlink:title="Implementation of custom assert and debug utilities.">
<polygon fill="white" stroke="#666666" points="283.5,-129 128.5,-129 128.5,-110 283.5,-110 283.5,-129"/>
<text text-anchor="middle" x="206" y="-117" font-family="Helvetica,sans-Serif" font-size="10.00">medusa/bits/utils/assert.hpp</text>
</a>
</g>
</g>
<!-- Node2&#45;&gt;Node5 -->
<g id="edge4_Node000002_Node000005" class="edge">
<title>Node2&#45;&gt;Node5</title>
<g id="a_edge4_Node000002_Node000005"><a xlink:title=" ">
<path fill="none" stroke="#63b8ff" d="M142.21,-164.98C153.78,-156.92 171.38,-144.65 185.16,-135.03"/>
<polygon fill="#63b8ff" stroke="#63b8ff" points="187.37,-137.76 193.57,-129.17 183.36,-132.02 187.37,-137.76"/>
</a>
</g>
</g>
<!-- Node4 -->
<g id="Node000004" class="node">
<title>Node4</title>
<g id="a_Node000004"><a xlink:title=" ">
<polygon fill="#e0e0e0" stroke="#999999" points="112.5,-19 65.5,-19 65.5,0 112.5,0 112.5,-19"/>
<text text-anchor="middle" x="89" y="-7" font-family="Helvetica,sans-Serif" font-size="10.00">vector</text>
</a>
</g>
</g>
<!-- Node3&#45;&gt;Node4 -->
<g id="edge3_Node000003_Node000004" class="edge">
<title>Node3&#45;&gt;Node4</title>
<g id="a_edge3_Node000003_Node000004"><a xlink:title=" ">
<path fill="none" stroke="#63b8ff" d="M57.49,-109.84C61.03,-97.59 67.79,-74.52 74,-55 76.78,-46.25 80.02,-36.58 82.78,-28.5"/>
<polygon fill="#63b8ff" stroke="#63b8ff" points="86.1,-29.6 86.04,-19 79.48,-27.32 86.1,-29.6"/>
</a>
</g>
</g>
<!-- Node6 -->
<g id="Node000006" class="node">
<title>Node6</title>
<g id="a_Node000006"><a xlink:title=" ">
<polygon fill="#e0e0e0" stroke="#999999" points="215,-74 83,-74 83,-55 215,-55 215,-74"/>
<text text-anchor="middle" x="149" y="-62" font-family="Helvetica,sans-Serif" font-size="10.00">tinyformat/tinyformat.h</text>
</a>
</g>
</g>
<!-- Node5&#45;&gt;Node6 -->
<g id="edge5_Node000005_Node000006" class="edge">
<title>Node5&#45;&gt;Node6</title>
<g id="a_edge5_Node000005_Node000006"><a xlink:title=" ">
<path fill="none" stroke="#63b8ff" d="M196.84,-109.98C188.5,-102.23 175.97,-90.58 165.82,-81.14"/>
<polygon fill="#63b8ff" stroke="#63b8ff" points="168.03,-78.42 158.32,-74.17 163.26,-83.54 168.03,-78.42"/>
</a>
</g>
</g>
<!-- Node7 -->
<g id="Node000007" class="node">
<title>Node7</title>
<g id="a_Node000007"><a xlink:href="print_8hpp.html" target="_top" xlink:title="Printing helpers for std types.">
<polygon fill="white" stroke="#666666" points="293,-74 233,-74 233,-55 293,-55 293,-74"/>
<text text-anchor="middle" x="263" y="-62" font-family="Helvetica,sans-Serif" font-size="10.00">print.hpp</text>
</a>
</g>
</g>
<!-- Node5&#45;&gt;Node7 -->
<g id="edge6_Node000005_Node000007" class="edge">
<title>Node5&#45;&gt;Node7</title>
<g id="a_edge6_Node000005_Node000007"><a xlink:title=" ">
<path fill="none" stroke="#63b8ff" d="M215.16,-109.98C223.5,-102.23 236.03,-90.58 246.18,-81.14"/>
<polygon fill="#63b8ff" stroke="#63b8ff" points="248.74,-83.54 253.68,-74.17 243.97,-78.42 248.74,-83.54"/>
</a>
</g>
</g>
<!-- Node7&#45;&gt;Node4 -->
<g id="edge8_Node000007_Node000004" class="edge">
<title>Node7&#45;&gt;Node4</title>
<g id="a_edge8_Node000007_Node000004"><a xlink:title=" ">
<path fill="none" stroke="#63b8ff" d="M235.04,-54.98C204.31,-45.62 154.97,-30.59 122.27,-20.63"/>
<polygon fill="#63b8ff" stroke="#63b8ff" points="123.28,-17.28 112.69,-17.72 121.24,-23.98 123.28,-17.28"/>
</a>
</g>
</g>
<!-- Node8 -->
<g id="Node000008" class="node">
<title>Node8</title>
<g id="a_Node000008"><a xlink:title=" ">
<polygon fill="#e0e0e0" stroke="#999999" points="193,-19 133,-19 133,0 193,0 193,-19"/>
<text text-anchor="middle" x="163" y="-7" font-family="Helvetica,sans-Serif" font-size="10.00">iostream</text>
</a>
</g>
</g>
<!-- Node7&#45;&gt;Node8 -->
<g id="edge7_Node000007_Node000008" class="edge">
<title>Node7&#45;&gt;Node8</title>
<g id="a_edge7_Node000007_Node000008"><a xlink:title=" ">
<path fill="none" stroke="#63b8ff" d="M246.93,-54.98C231.14,-46.61 206.78,-33.7 188.37,-23.95"/>
<polygon fill="#63b8ff" stroke="#63b8ff" points="189.83,-20.76 179.36,-19.17 186.56,-26.95 189.83,-20.76"/>
</a>
</g>
</g>
<!-- Node9 -->
<g id="Node000009" class="node">
<title>Node9</title>
<g id="a_Node000009"><a xlink:title=" ">
<polygon fill="#e0e0e0" stroke="#999999" points="253,-19 211,-19 211,0 253,0 253,-19"/>
<text text-anchor="middle" x="232" y="-7" font-family="Helvetica,sans-Serif" font-size="10.00">array</text>
</a>
</g>
</g>
<!-- Node7&#45;&gt;Node9 -->
<g id="edge9_Node000007_Node000009" class="edge">
<title>Node7&#45;&gt;Node9</title>
<g id="a_edge9_Node000007_Node000009"><a xlink:title=" ">
<path fill="none" stroke="#63b8ff" d="M257.88,-54.75C253.64,-47.49 247.47,-36.95 242.22,-27.98"/>
<polygon fill="#63b8ff" stroke="#63b8ff" points="245.09,-25.95 237.02,-19.09 239.05,-29.49 245.09,-25.95"/>
</a>
</g>
</g>
<!-- Node10 -->
<g id="Node000010" class="node">
<title>Node10</title>
<g id="a_Node000010"><a xlink:title=" ">
<polygon fill="#e0e0e0" stroke="#999999" points="316.5,-19 271.5,-19 271.5,0 316.5,0 316.5,-19"/>
<text text-anchor="middle" x="294" y="-7" font-family="Helvetica,sans-Serif" font-size="10.00">utility</text>
</a>
</g>
</g>
<!-- Node7&#45;&gt;Node10 -->
<g id="edge10_Node000007_Node000010" class="edge">
<title>Node7&#45;&gt;Node10</title>
<g id="a_edge10_Node000007_Node000010"><a xlink:title=" ">
<path fill="none" stroke="#63b8ff" d="M268.12,-54.75C272.36,-47.49 278.53,-36.95 283.78,-27.98"/>
<polygon fill="#63b8ff" stroke="#63b8ff" points="286.95,-29.49 288.98,-19.09 280.91,-25.95 286.95,-29.49"/>
</a>
</g>
</g>
<!-- Node11 -->
<g id="Node000011" class="node">
<title>Node11</title>
<g id="a_Node000011"><a xlink:title=" ">
<polygon fill="#e0e0e0" stroke="#999999" points="375.5,-19 334.5,-19 334.5,0 375.5,0 375.5,-19"/>
<text text-anchor="middle" x="355" y="-7" font-family="Helvetica,sans-Serif" font-size="10.00">tuple</text>
</a>
</g>
</g>
<!-- Node7&#45;&gt;Node11 -->
<g id="edge11_Node000007_Node000011" class="edge">
<title>Node7&#45;&gt;Node11</title>
<g id="a_edge11_Node000007_Node000011"><a xlink:title=" ">
<path fill="none" stroke="#63b8ff" d="M277.78,-54.98C292.18,-46.69 314.31,-33.94 331.19,-24.22"/>
<polygon fill="#63b8ff" stroke="#63b8ff" points="333.03,-27.19 339.95,-19.17 329.54,-21.13 333.03,-27.19"/>
</a>
</g>
</g>
</g>
</svg>
