<?xml version="1.0" encoding="UTF-8" standalone="no"?>
<!DOCTYPE svg PUBLIC "-//W3C//DTD SVG 1.1//EN"
 "http://www.w3.org/Graphics/SVG/1.1/DTD/svg11.dtd">
<!-- Generated by graphviz version 2.43.0 (0)
 -->
<!-- Title: include/medusa/bits/io/CSV_fwd.hpp Pages: 1 -->
<svg width="272pt" height="280pt"
 viewBox="0.00 0.00 271.50 280.00" xmlns="http://www.w3.org/2000/svg" xmlns:xlink="http://www.w3.org/1999/xlink">
<g id="graph0" class="graph" transform="scale(1 1) rotate(0) translate(4 276)">
<title>include/medusa/bits/io/CSV_fwd.hpp</title>
<!-- Node1 -->
<g id="Node000001" class="node">
<title>Node1</title>
<g id="a_Node000001"><a xlink:title="Declarations for CSV I/O.">
<polygon fill="#999999" stroke="#666666" points="196.5,-272 81.5,-272 81.5,-242 196.5,-242 196.5,-272"/>
<text text-anchor="start" x="89.5" y="-260" font-family="Helvetica,sans-Serif" font-size="10.00">include/medusa/bits</text>
<text text-anchor="middle" x="139" y="-249" font-family="Helvetica,sans-Serif" font-size="10.00">/io/CSV_fwd.hpp</text>
</a>
</g>
</g>
<!-- Node2 -->
<g id="Node000002" class="node">
<title>Node2</title>
<g id="a_Node000002"><a xlink:href="CSV_8hpp.html" target="_top" xlink:title="Implementation of CSV I/O utilities.">
<polygon fill="white" stroke="#666666" points="263.5,-206 148.5,-206 148.5,-176 263.5,-176 263.5,-206"/>
<text text-anchor="start" x="156.5" y="-194" font-family="Helvetica,sans-Serif" font-size="10.00">include/medusa/bits</text>
<text text-anchor="middle" x="206" y="-183" font-family="Helvetica,sans-Serif" font-size="10.00">/io/CSV.hpp</text>
</a>
</g>
</g>
<!-- Node1&#45;&gt;Node2 -->
<g id="edge1_Node000001_Node000002" class="edge">
<title>Node1&#45;&gt;Node2</title>
<g id="a_edge1_Node000001_Node000002"><a xlink:title=" ">
<path fill="none" stroke="#63b8ff" d="M161.35,-234.65C171.17,-225.27 182.42,-214.53 191.17,-206.16"/>
<polygon fill="#63b8ff" stroke="#63b8ff" points="158.68,-232.36 153.87,-241.8 163.52,-237.42 158.68,-232.36"/>
</a>
</g>
</g>
<!-- Node7 -->
<g id="Node000007" class="node">
<title>Node7</title>
<g id="a_Node000007"><a xlink:href="CSV__Eigen_8hpp.html" target="_top" xlink:title="Implementation of CSV I/O utilities for Eigen types.">
<polygon fill="white" stroke="#666666" points="130.5,-206 15.5,-206 15.5,-176 130.5,-176 130.5,-206"/>
<text text-anchor="start" x="23.5" y="-194" font-family="Helvetica,sans-Serif" font-size="10.00">include/medusa/bits</text>
<text text-anchor="middle" x="73" y="-183" font-family="Helvetica,sans-Serif" font-size="10.00">/io/CSV_Eigen.hpp</text>
</a>
</g>
</g>
<!-- Node1&#45;&gt;Node7 -->
<g id="edge7_Node000001_Node000007" class="edge">
<title>Node1&#45;&gt;Node7</title>
<g id="a_edge7_Node000001_Node000007"><a xlink:title=" ">
<path fill="none" stroke="#63b8ff" d="M116.98,-234.65C107.31,-225.27 96.23,-214.53 87.61,-206.16"/>
<polygon fill="#63b8ff" stroke="#63b8ff" points="114.74,-237.35 124.35,-241.8 119.61,-232.32 114.74,-237.35"/>
</a>
</g>
</g>
<!-- Node3 -->
<g id="Node000003" class="node">
<title>Node3</title>
<g id="a_Node000003"><a xlink:href="IO_8hpp.html" target="_top" xlink:title="Header for IO module.">
<polygon fill="white" stroke="#666666" points="142,-140 14,-140 14,-121 142,-121 142,-140"/>
<text text-anchor="middle" x="78" y="-128" font-family="Helvetica,sans-Serif" font-size="10.00">include/medusa/IO.hpp</text>
</a>
</g>
</g>
<!-- Node2&#45;&gt;Node3 -->
<g id="edge2_Node000002_Node000003" class="edge">
<title>Node2&#45;&gt;Node3</title>
<g id="a_edge2_Node000002_Node000003"><a xlink:title=" ">
<path fill="none" stroke="#63b8ff" d="M166.12,-171.77C143.04,-161.22 115.05,-148.43 96.9,-140.14"/>
<polygon fill="#63b8ff" stroke="#63b8ff" points="164.79,-175.01 175.34,-175.99 167.7,-168.65 164.79,-175.01"/>
</a>
</g>
</g>
<!-- Node6 -->
<g id="Node000006" class="node">
<title>Node6</title>
<g id="a_Node000006"><a xlink:href="CSV_8cpp.html" target="_top" xlink:title="Implementation of CSV I/O utilities.">
<polygon fill="white" stroke="#666666" points="248,-140 164,-140 164,-121 248,-121 248,-140"/>
<text text-anchor="middle" x="206" y="-128" font-family="Helvetica,sans-Serif" font-size="10.00">src/io/CSV.cpp</text>
</a>
</g>
</g>
<!-- Node2&#45;&gt;Node6 -->
<g id="edge6_Node000002_Node000006" class="edge">
<title>Node2&#45;&gt;Node6</title>
<g id="a_edge6_Node000002_Node000006"><a xlink:title=" ">
<path fill="none" stroke="#63b8ff" d="M206,-165.75C206,-156.72 206,-147.03 206,-140.27"/>
<polygon fill="#63b8ff" stroke="#63b8ff" points="202.5,-165.84 206,-175.84 209.5,-165.84 202.5,-165.84"/>
</a>
</g>
</g>
<!-- Node4 -->
<g id="Node000004" class="node">
<title>Node4</title>
<g id="a_Node000004"><a xlink:href="Medusa_8hpp.html" target="_top" xlink:title="Main header file that includes most other components.">
<polygon fill="white" stroke="#666666" points="156,-19 0,-19 0,0 156,0 156,-19"/>
<text text-anchor="middle" x="78" y="-7" font-family="Helvetica,sans-Serif" font-size="10.00">include/medusa/Medusa.hpp</text>
</a>
</g>
</g>
<!-- Node3&#45;&gt;Node4 -->
<g id="edge3_Node000003_Node000004" class="edge">
<title>Node3&#45;&gt;Node4</title>
<g id="a_edge3_Node000003_Node000004"><a xlink:title=" ">
<path fill="none" stroke="#63b8ff" d="M63.79,-112.78C58,-104.89 51.98,-95.02 49,-85 45.2,-72.22 45.2,-67.78 49,-55 53.1,-41.21 62.97,-27.7 70.06,-19.25"/>
<polygon fill="#63b8ff" stroke="#63b8ff" points="61.13,-115.05 70.06,-120.75 66.63,-110.72 61.13,-115.05"/>
</a>
</g>
</g>
<!-- Node5 -->
<g id="Node000005" class="node">
<title>Node5</title>
<g id="a_Node000005"><a xlink:href="Medusa__fwd_8hpp.html" target="_top" xlink:title="Main header file that includes only declarations for some heavy classes such as mm::WLS to reduce com...">
<polygon fill="white" stroke="#666666" points="193.5,-85 58.5,-85 58.5,-55 193.5,-55 193.5,-85"/>
<text text-anchor="start" x="66.5" y="-73" font-family="Helvetica,sans-Serif" font-size="10.00">include/medusa/Medusa</text>
<text text-anchor="middle" x="126" y="-62" font-family="Helvetica,sans-Serif" font-size="10.00">_fwd.hpp</text>
</a>
</g>
</g>
<!-- Node3&#45;&gt;Node5 -->
<g id="edge4_Node000003_Node000005" class="edge">
<title>Node3&#45;&gt;Node5</title>
<g id="a_edge4_Node000003_Node000005"><a xlink:title=" ">
<path fill="none" stroke="#63b8ff" d="M91.64,-112.88C98.83,-104.11 107.56,-93.48 114.42,-85.11"/>
<polygon fill="#63b8ff" stroke="#63b8ff" points="88.72,-110.92 85.08,-120.87 94.13,-115.36 88.72,-110.92"/>
</a>
</g>
</g>
<!-- Node5&#45;&gt;Node4 -->
<g id="edge5_Node000005_Node000004" class="edge">
<title>Node5&#45;&gt;Node4</title>
<g id="a_edge5_Node000005_Node000004"><a xlink:title=" ">
<path fill="none" stroke="#63b8ff" d="M108.02,-47.09C100.09,-37.42 91.22,-26.61 85.19,-19.27"/>
<polygon fill="#63b8ff" stroke="#63b8ff" points="105.33,-49.33 114.38,-54.84 110.74,-44.89 105.33,-49.33"/>
</a>
</g>
</g>
<!-- Node7&#45;&gt;Node3 -->
<g id="edge8_Node000007_Node000003" class="edge">
<title>Node7&#45;&gt;Node3</title>
<g id="a_edge8_Node000007_Node000003"><a xlink:title=" ">
<path fill="none" stroke="#63b8ff" d="M75.07,-165.75C75.84,-156.72 76.67,-147.03 77.25,-140.27"/>
<polygon fill="#63b8ff" stroke="#63b8ff" points="71.57,-165.58 74.21,-175.84 78.55,-166.17 71.57,-165.58"/>
</a>
</g>
</g>
</g>
</svg>
