<?xml version="1.0" encoding="UTF-8" standalone="no"?>
<!DOCTYPE svg PUBLIC "-//W3C//DTD SVG 1.1//EN"
 "http://www.w3.org/Graphics/SVG/1.1/DTD/svg11.dtd">
<!-- Generated by graphviz version 2.43.0 (0)
 -->
<!-- Title: include/medusa/bits/io/CSV_Eigen.hpp Pages: 1 -->
<svg width="384pt" height="258pt"
 viewBox="0.00 0.00 383.50 258.00" xmlns="http://www.w3.org/2000/svg" xmlns:xlink="http://www.w3.org/1999/xlink">

<svg id="main" version="1.1" xmlns="http://www.w3.org/2000/svg" xmlns:xlink="http://www.w3.org/1999/xlink" xml:space="preserve" onload="init(evt)">
<style type="text/css"><![CDATA[
.node, .edge {opacity: 0.7;}
.node.selected, .edge.selected {opacity: 1;}
.edge:hover path { stroke: red; }
.edge:hover polygon { stroke: red; fill: red; }
]]></style>
<script type="application/ecmascript" xlink:href="svg.min.js"/>
<svg id="graph" class="graph">
<g id="graph0" class="graph" transform="scale(1 1) rotate(0) translate(4 254)">
<title>include/medusa/bits/io/CSV_Eigen.hpp</title>
<!-- Node1 -->
<g id="Node000001" class="node">
<title>Node1</title>
<g id="a_Node000001"><a xlink:title="Implementation of CSV I/O utilities for Eigen types.">
<polygon fill="#999999" stroke="#666666" points="233.5,-250 118.5,-250 118.5,-220 233.5,-220 233.5,-250"/>
<text text-anchor="start" x="126.5" y="-238" font-family="Helvetica,sans-Serif" font-size="10.00">include/medusa/bits</text>
<text text-anchor="middle" x="176" y="-227" font-family="Helvetica,sans-Serif" font-size="10.00">/io/CSV_Eigen.hpp</text>
</a>
</g>
</g>
<!-- Node2 -->
<g id="Node000002" class="node">
<title>Node2</title>
<g id="a_Node000002"><a xlink:href="CSV__fwd_8hpp.html" target="_top" xlink:title="Declarations for CSV I/O.">
<polygon fill="white" stroke="#666666" points="170,-184 90,-184 90,-165 170,-165 170,-184"/>
<text text-anchor="middle" x="130" y="-172" font-family="Helvetica,sans-Serif" font-size="10.00">CSV_fwd.hpp</text>
</a>
</g>
</g>
<!-- Node1&#45;&gt;Node2 -->
<g id="edge1_Node000001_Node000002" class="edge">
<title>Node1&#45;&gt;Node2</title>
<g id="a_edge1_Node000001_Node000002"><a xlink:title=" ">
<path fill="none" stroke="#63b8ff" d="M164.86,-219.84C158.32,-211.52 150.02,-200.96 143.16,-192.23"/>
<polygon fill="#63b8ff" stroke="#63b8ff" points="145.83,-189.96 136.89,-184.27 140.32,-194.29 145.83,-189.96"/>
</a>
</g>
</g>
<!-- Node12 -->
<g id="Node000012" class="node">
<title>Node12</title>
<g id="a_Node000012"><a xlink:title=" ">
<polygon fill="#e0e0e0" stroke="#999999" points="257.5,-184 188.5,-184 188.5,-165 257.5,-165 257.5,-184"/>
<text text-anchor="middle" x="223" y="-172" font-family="Helvetica,sans-Serif" font-size="10.00">Eigen/Core</text>
</a>
</g>
</g>
<!-- Node1&#45;&gt;Node12 -->
<g id="edge12_Node000001_Node000012" class="edge">
<title>Node1&#45;&gt;Node12</title>
<g id="a_edge12_Node000001_Node000012"><a xlink:title=" ">
<path fill="none" stroke="#63b8ff" d="M187.38,-219.84C194.06,-211.52 202.55,-200.96 209.56,-192.23"/>
<polygon fill="#63b8ff" stroke="#63b8ff" points="212.42,-194.25 215.96,-184.27 206.97,-189.87 212.42,-194.25"/>
</a>
</g>
</g>
<!-- Node3 -->
<g id="Node000003" class="node">
<title>Node3</title>
<g id="a_Node000003"><a xlink:href="Config_8hpp.html" target="_top" xlink:title="Contains compile time settings for the project, such as Eigen plugins.">
<polygon fill="white" stroke="#666666" points="110,-129 0,-129 0,-110 110,-110 110,-129"/>
<text text-anchor="middle" x="55" y="-117" font-family="Helvetica,sans-Serif" font-size="10.00">medusa/Config.hpp</text>
</a>
</g>
</g>
<!-- Node2&#45;&gt;Node3 -->
<g id="edge2_Node000002_Node000003" class="edge">
<title>Node2&#45;&gt;Node3</title>
<g id="a_edge2_Node000002_Node000003"><a xlink:title=" ">
<path fill="none" stroke="#63b8ff" d="M117.95,-164.98C106.54,-156.92 89.17,-144.65 75.57,-135.03"/>
<polygon fill="#63b8ff" stroke="#63b8ff" points="77.46,-132.08 67.27,-129.17 73.42,-137.8 77.46,-132.08"/>
</a>
</g>
</g>
<!-- Node5 -->
<g id="Node000005" class="node">
<title>Node5</title>
<g id="a_Node000005"><a xlink:href="assert_8hpp.html" target="_top" xlink:title="Implementation of custom assert and debug utilities.">
<polygon fill="white" stroke="#666666" points="283.5,-129 128.5,-129 128.5,-110 283.5,-110 283.5,-129"/>
<text text-anchor="middle" x="206" y="-117" font-family="Helvetica,sans-Serif" font-size="10.00">medusa/bits/utils/assert.hpp</text>
</a>
</g>
</g>
<!-- Node2&#45;&gt;Node5 -->
<g id="edge4_Node000002_Node000005" class="edge">
<title>Node2&#45;&gt;Node5</title>
<g id="a_edge4_Node000002_Node000005"><a xlink:title=" ">
<path fill="none" stroke="#63b8ff" d="M142.21,-164.98C153.78,-156.92 171.38,-144.65 185.16,-135.03"/>
<polygon fill="#63b8ff" stroke="#63b8ff" points="187.37,-137.76 193.57,-129.17 183.36,-132.02 187.37,-137.76"/>
</a>
</g>
</g>
<!-- Node4 -->
<g id="Node000004" class="node">
<title>Node4</title>
<g id="a_Node000004"><a xlink:title=" ">
<polygon fill="#e0e0e0" stroke="#999999" points="112.5,-19 65.5,-19 65.5,0 112.5,0 112.5,-19"/>
<text text-anchor="middle" x="89" y="-7" font-family="Helvetica,sans-Serif" font-size="10.00">vector</text>
</a>
</g>
</g>
<!-- Node3&#45;&gt;Node4 -->
<g id="edge3_Node000003_Node000004" class="edge">
<title>Node3&#45;&gt;Node4</title>
<g id="a_edge3_Node000003_Node000004"><a xlink:title=" ">
<path fill="none" stroke="#63b8ff" d="M57.49,-109.84C61.03,-97.59 67.79,-74.52 74,-55 76.78,-46.25 80.02,-36.58 82.78,-28.5"/>
<polygon fill="#63b8ff" stroke="#63b8ff" points="86.1,-29.6 86.04,-19 79.48,-27.32 86.1,-29.6"/>
</a>
</g>
</g>
<!-- Node6 -->
<g id="Node000006" class="node">
<title>Node6</title>
<g id="a_Node000006"><a xlink:title=" ">
<polygon fill="#e0e0e0" stroke="#999999" points="215,-74 83,-74 83,-55 215,-55 215,-74"/>
<text text-anchor="middle" x="149" y="-62" font-family="Helvetica,sans-Serif" font-size="10.00">tinyformat/tinyformat.h</text>
</a>
</g>
</g>
<!-- Node5&#45;&gt;Node6 -->
<g id="edge5_Node000005_Node000006" class="edge">
<title>Node5&#45;&gt;Node6</title>
<g id="a_edge5_Node000005_Node000006"><a xlink:title=" ">
<path fill="none" stroke="#63b8ff" d="M196.84,-109.98C188.5,-102.23 175.97,-90.58 165.82,-81.14"/>
<polygon fill="#63b8ff" stroke="#63b8ff" points="168.03,-78.42 158.32,-74.17 163.26,-83.54 168.03,-78.42"/>
</a>
</g>
</g>
<!-- Node7 -->
<g id="Node000007" class="node">
<title>Node7</title>
<g id="a_Node000007"><a xlink:href="print_8hpp.html" target="_top" xlink:title="Printing helpers for std types.">
<polygon fill="white" stroke="#666666" points="293,-74 233,-74 233,-55 293,-55 293,-74"/>
<text text-anchor="middle" x="263" y="-62" font-family="Helvetica,sans-Serif" font-size="10.00">print.hpp</text>
</a>
</g>
</g>
<!-- Node5&#45;&gt;Node7 -->
<g id="edge6_Node000005_Node000007" class="edge">
<title>Node5&#45;&gt;Node7</title>
<g id="a_edge6_Node000005_Node000007"><a xlink:title=" ">
<path fill="none" stroke="#63b8ff" d="M215.16,-109.98C223.5,-102.23 236.03,-90.58 246.18,-81.14"/>
<polygon fill="#63b8ff" stroke="#63b8ff" points="248.74,-83.54 253.68,-74.17 243.97,-78.42 248.74,-83.54"/>
</a>
</g>
</g>
<!-- Node7&#45;&gt;Node4 -->
<g id="edge8_Node000007_Node000004" class="edge">
<title>Node7&#45;&gt;Node4</title>
<g id="a_edge8_Node000007_Node000004"><a xlink:title=" ">
<path fill="none" stroke="#63b8ff" d="M235.04,-54.98C204.31,-45.62 154.97,-30.59 122.27,-20.63"/>
<polygon fill="#63b8ff" stroke="#63b8ff" points="123.28,-17.28 112.69,-17.72 121.24,-23.98 123.28,-17.28"/>
</a>
</g>
</g>
<!-- Node8 -->
<g id="Node000008" class="node">
<title>Node8</title>
<g id="a_Node000008"><a xlink:title=" ">
<polygon fill="#e0e0e0" stroke="#999999" points="193,-19 133,-19 133,0 193,0 193,-19"/>
<text text-anchor="middle" x="163" y="-7" font-family="Helvetica,sans-Serif" font-size="10.00">iostream</text>
</a>
</g>
</g>
<!-- Node7&#45;&gt;Node8 -->
<g id="edge7_Node000007_Node000008" class="edge">
<title>Node7&#45;&gt;Node8</title>
<g id="a_edge7_Node000007_Node000008"><a xlink:title=" ">
<path fill="none" stroke="#63b8ff" d="M246.93,-54.98C231.14,-46.61 206.78,-33.7 188.37,-23.95"/>
<polygon fill="#63b8ff" stroke="#63b8ff" points="189.83,-20.76 179.36,-19.17 186.56,-26.95 189.83,-20.76"/>
</a>
</g>
</g>
<!-- Node9 -->
<g id="Node000009" class="node">
<title>Node9</title>
<g id="a_Node000009"><a xlink:title=" ">
<polygon fill="#e0e0e0" stroke="#999999" points="253,-19 211,-19 211,0 253,0 253,-19"/>
<text text-anchor="middle" x="232" y="-7" font-family="Helvetica,sans-Serif" font-size="10.00">array</text>
</a>
</g>
</g>
<!-- Node7&#45;&gt;Node9 -->
<g id="edge9_Node000007_Node000009" class="edge">
<title>Node7&#45;&gt;Node9</title>
<g id="a_edge9_Node000007_Node000009"><a xlink:title=" ">
<path fill="none" stroke="#63b8ff" d="M257.88,-54.75C253.64,-47.49 247.47,-36.95 242.22,-27.98"/>
<polygon fill="#63b8ff" stroke="#63b8ff" points="245.09,-25.95 237.02,-19.09 239.05,-29.49 245.09,-25.95"/>
</a>
</g>
</g>
<!-- Node10 -->
<g id="Node000010" class="node">
<title>Node10</title>
<g id="a_Node000010"><a xlink:title=" ">
<polygon fill="#e0e0e0" stroke="#999999" points="316.5,-19 271.5,-19 271.5,0 316.5,0 316.5,-19"/>
<text text-anchor="middle" x="294" y="-7" font-family="Helvetica,sans-Serif" font-size="10.00">utility</text>
</a>
</g>
</g>
<!-- Node7&#45;&gt;Node10 -->
<g id="edge10_Node000007_Node000010" class="edge">
<title>Node7&#45;&gt;Node10</title>
<g id="a_edge10_Node000007_Node000010"><a xlink:title=" ">
<path fill="none" stroke="#63b8ff" d="M268.12,-54.75C272.36,-47.49 278.53,-36.95 283.78,-27.98"/>
<polygon fill="#63b8ff" stroke="#63b8ff" points="286.95,-29.49 288.98,-19.09 280.91,-25.95 286.95,-29.49"/>
</a>
</g>
</g>
<!-- Node11 -->
<g id="Node000011" class="node">
<title>Node11</title>
<g id="a_Node000011"><a xlink:title=" ">
<polygon fill="#e0e0e0" stroke="#999999" points="375.5,-19 334.5,-19 334.5,0 375.5,0 375.5,-19"/>
<text text-anchor="middle" x="355" y="-7" font-family="Helvetica,sans-Serif" font-size="10.00">tuple</text>
</a>
</g>
</g>
<!-- Node7&#45;&gt;Node11 -->
<g id="edge11_Node000007_Node000011" class="edge">
<title>Node7&#45;&gt;Node11</title>
<g id="a_edge11_Node000007_Node000011"><a xlink:title=" ">
<path fill="none" stroke="#63b8ff" d="M277.78,-54.98C292.18,-46.69 314.31,-33.94 331.19,-24.22"/>
<polygon fill="#63b8ff" stroke="#63b8ff" points="333.03,-27.19 339.95,-19.17 329.54,-21.13 333.03,-27.19"/>
</a>
</g>
</g>
</g>
</svg>
</svg>

<style type='text/css'>
<![CDATA[
[data-mouse-over-selected='false'] { opacity: 0.7; }
[data-mouse-over-selected='true']  { opacity: 1.0; }
]]>
</style>
<script type="application/ecmascript"><![CDATA[
document.addEventListener('DOMContentLoaded', (event) => {
  highlightEdges();
  highlightAdjacentNodes();
});
]]></script>
</svg>
