<?xml version="1.0" encoding="UTF-8" standalone="no"?>
<!DOCTYPE svg PUBLIC "-//W3C//DTD SVG 1.1//EN"
 "http://www.w3.org/Graphics/SVG/1.1/DTD/svg11.dtd">
<!-- Generated by graphviz version 2.43.0 (0)
 -->
<!-- Title: src Pages: 1 -->
<svg width="793pt" height="98pt"
 viewBox="0.00 0.00 793.00 98.00" xmlns="http://www.w3.org/2000/svg" xmlns:xlink="http://www.w3.org/1999/xlink">
<g id="graph0" class="graph" transform="scale(1 1) rotate(0) translate(4 94)">
<title>src</title>
<g id="clust1" class="cluster">
<title>clusterdir_68267d1309a1af8e8297ef4c3efbcdba</title>
<g id="a_clust1"><a xlink:href="dir_68267d1309a1af8e8297ef4c3efbcdba.html" target="_top">
<polygon fill="#eef2f5" stroke="#404040" stroke-width="2" points="8,-47 8,-82 777,-82 777,-47 8,-47"/>
</a>
</g>
</g>
<!-- dir_68267d1309a1af8e8297ef4c3efbcdba -->
<g id="node1" class="node">
<title>dir_68267d1309a1af8e8297ef4c3efbcdba</title>
<text text-anchor="middle" x="753" y="-62" font-family="Helvetica,sans-Serif" font-size="10.00">src</text>
</g>
<!-- dir_3cfade851f83b62bd2babf8464ec367e -->
<g id="node2" class="node">
<title>dir_3cfade851f83b62bd2babf8464ec367e</title>
<g id="a_node2"><a xlink:href="dir_3cfade851f83b62bd2babf8464ec367e.html" target="_top" xlink:title="approximations">
<polygon fill="#abbccd" stroke="#404040" points="719.5,-74 626.5,-74 626.5,-55 719.5,-55 719.5,-74"/>
<text text-anchor="middle" x="673" y="-62" font-family="Helvetica,sans-Serif" font-size="10.00">approximations</text>
</a>
</g>
</g>
<!-- dir_d44c64559bbebec7f509842c48db8b23 -->
<g id="node11" class="node">
<title>dir_d44c64559bbebec7f509842c48db8b23</title>
<g id="a_node11"><a xlink:href="dir_d44c64559bbebec7f509842c48db8b23.html" target="_top" xlink:title="include">
<polygon fill="#eef2f5" stroke="red" points="361,-19 309,-19 309,0 361,0 361,-19"/>
<text text-anchor="middle" x="335" y="-7" font-family="Helvetica,sans-Serif" font-size="10.00">include</text>
</a>
</g>
</g>
<!-- dir_3cfade851f83b62bd2babf8464ec367e&#45;&gt;dir_d44c64559bbebec7f509842c48db8b23 -->
<g id="edge1" class="edge">
<title>dir_3cfade851f83b62bd2babf8464ec367e&#45;&gt;dir_d44c64559bbebec7f509842c48db8b23</title>
<g id="a_edge1"><a xlink:href="dir_000001_000006.html" target="_top">
<path fill="none" stroke="#63b8ff" d="M647.76,-54.99C638.49,-52.11 627.85,-49.1 618,-47 530.56,-28.38 425.76,-17.87 371.53,-13.29"/>
<polygon fill="#63b8ff" stroke="#63b8ff" points="371.64,-9.79 361.38,-12.46 371.06,-16.77 371.64,-9.79"/>
</a>
</g>
<g id="a_edge1&#45;headlabel"><a xlink:href="dir_000001_000006.html" target="_top" xlink:title="36">
<text text-anchor="middle" x="375.45" y="-4.76" font-family="Helvetica,sans-Serif" font-size="10.00" fill="#63b8ff">36</text>
</a>
</g>
</g>
<!-- dir_7aca4e07460d7af406ceabbc52525eea -->
<g id="node3" class="node">
<title>dir_7aca4e07460d7af406ceabbc52525eea</title>
<g id="a_node3"><a xlink:href="dir_7aca4e07460d7af406ceabbc52525eea.html" target="_top" xlink:title="domains">
<polygon fill="#abbccd" stroke="#404040" points="608.5,-74 549.5,-74 549.5,-55 608.5,-55 608.5,-74"/>
<text text-anchor="middle" x="579" y="-62" font-family="Helvetica,sans-Serif" font-size="10.00">domains</text>
</a>
</g>
</g>
<!-- dir_7aca4e07460d7af406ceabbc52525eea&#45;&gt;dir_d44c64559bbebec7f509842c48db8b23 -->
<g id="edge2" class="edge">
<title>dir_7aca4e07460d7af406ceabbc52525eea&#45;&gt;dir_d44c64559bbebec7f509842c48db8b23</title>
<g id="a_edge2"><a xlink:href="dir_000005_000006.html" target="_top">
<path fill="none" stroke="#63b8ff" d="M561.06,-54.91C554.54,-52.06 547.05,-49.09 540,-47 482.29,-29.89 412.93,-19.6 371.49,-14.49"/>
<polygon fill="#63b8ff" stroke="#63b8ff" points="371.67,-10.99 361.32,-13.27 370.84,-17.94 371.67,-10.99"/>
</a>
</g>
<g id="a_edge2&#45;headlabel"><a xlink:href="dir_000005_000006.html" target="_top" xlink:title="35">
<text text-anchor="middle" x="375.57" y="-6.1" font-family="Helvetica,sans-Serif" font-size="10.00" fill="#63b8ff">35</text>
</a>
</g>
</g>
<!-- dir_05f662742734ae5b4756600b03cf1828 -->
<g id="node4" class="node">
<title>dir_05f662742734ae5b4756600b03cf1828</title>
<g id="a_node4"><a xlink:href="dir_05f662742734ae5b4756600b03cf1828.html" target="_top" xlink:title="integrators">
<polygon fill="#abbccd" stroke="#404040" points="531,-74 461,-74 461,-55 531,-55 531,-74"/>
<text text-anchor="middle" x="496" y="-62" font-family="Helvetica,sans-Serif" font-size="10.00">integrators</text>
</a>
</g>
</g>
<!-- dir_05f662742734ae5b4756600b03cf1828&#45;&gt;dir_d44c64559bbebec7f509842c48db8b23 -->
<g id="edge3" class="edge">
<title>dir_05f662742734ae5b4756600b03cf1828&#45;&gt;dir_d44c64559bbebec7f509842c48db8b23</title>
<g id="a_edge3"><a xlink:href="dir_000008_000006.html" target="_top">
<path fill="none" stroke="#63b8ff" d="M473.7,-54.86C466.78,-52.25 459.1,-49.44 452,-47 425,-37.73 394.17,-28.16 370.94,-21.14"/>
<polygon fill="#63b8ff" stroke="#63b8ff" points="371.74,-17.73 361.16,-18.2 369.73,-24.43 371.74,-17.73"/>
</a>
</g>
<g id="a_edge3&#45;headlabel"><a xlink:href="dir_000008_000006.html" target="_top" xlink:title="2">
<text text-anchor="middle" x="376" y="-13.54" font-family="Helvetica,sans-Serif" font-size="10.00" fill="#63b8ff">2</text>
</a>
</g>
</g>
<!-- dir_5464690e53899e434de89d3f2229a284 -->
<g id="node5" class="node">
<title>dir_5464690e53899e434de89d3f2229a284</title>
<g id="a_node5"><a xlink:href="dir_5464690e53899e434de89d3f2229a284.html" target="_top" xlink:title="interpolants">
<polygon fill="#abbccd" stroke="#404040" points="442.5,-74 367.5,-74 367.5,-55 442.5,-55 442.5,-74"/>
<text text-anchor="middle" x="405" y="-62" font-family="Helvetica,sans-Serif" font-size="10.00">interpolants</text>
</a>
</g>
</g>
<!-- dir_5464690e53899e434de89d3f2229a284&#45;&gt;dir_d44c64559bbebec7f509842c48db8b23 -->
<g id="edge4" class="edge">
<title>dir_5464690e53899e434de89d3f2229a284&#45;&gt;dir_d44c64559bbebec7f509842c48db8b23</title>
<g id="a_edge4"><a xlink:href="dir_000010_000006.html" target="_top">
<path fill="none" stroke="#63b8ff" d="M393.75,-54.98C383.2,-47 367.2,-34.88 354.56,-25.31"/>
<polygon fill="#63b8ff" stroke="#63b8ff" points="356.54,-22.42 346.45,-19.17 352.31,-28 356.54,-22.42"/>
</a>
</g>
<g id="a_edge4&#45;headlabel"><a xlink:href="dir_000010_000006.html" target="_top" xlink:title="2">
<text text-anchor="middle" x="361.12" y="-19.82" font-family="Helvetica,sans-Serif" font-size="10.00" fill="#63b8ff">2</text>
</a>
</g>
</g>
<!-- dir_c184e51c84f2c3f0345bbc8a0d75d3e1 -->
<g id="node6" class="node">
<title>dir_c184e51c84f2c3f0345bbc8a0d75d3e1</title>
<g id="a_node6"><a xlink:href="dir_c184e51c84f2c3f0345bbc8a0d75d3e1.html" target="_top" xlink:title="io">
<polygon fill="#abbccd" stroke="#404040" points="349.5,-74 320.5,-74 320.5,-55 349.5,-55 349.5,-74"/>
<text text-anchor="middle" x="335" y="-62" font-family="Helvetica,sans-Serif" font-size="10.00">io</text>
</a>
</g>
</g>
<!-- dir_c184e51c84f2c3f0345bbc8a0d75d3e1&#45;&gt;dir_d44c64559bbebec7f509842c48db8b23 -->
<g id="edge5" class="edge">
<title>dir_c184e51c84f2c3f0345bbc8a0d75d3e1&#45;&gt;dir_d44c64559bbebec7f509842c48db8b23</title>
<g id="a_edge5"><a xlink:href="dir_000012_000006.html" target="_top">
<path fill="none" stroke="#63b8ff" d="M335,-54.75C335,-47.8 335,-37.85 335,-29.13"/>
<polygon fill="#63b8ff" stroke="#63b8ff" points="338.5,-29.09 335,-19.09 331.5,-29.09 338.5,-29.09"/>
</a>
</g>
<g id="a_edge5&#45;headlabel"><a xlink:href="dir_000012_000006.html" target="_top" xlink:title="8">
<text text-anchor="middle" x="341.34" y="-30.18" font-family="Helvetica,sans-Serif" font-size="10.00" fill="#63b8ff">8</text>
</a>
</g>
</g>
<!-- dir_82efe83b87803b3f04ecf90d1f66df00 -->
<g id="node7" class="node">
<title>dir_82efe83b87803b3f04ecf90d1f66df00</title>
<g id="a_node7"><a xlink:href="dir_82efe83b87803b3f04ecf90d1f66df00.html" target="_top" xlink:title="operators">
<polygon fill="#abbccd" stroke="#404040" points="302.5,-74 239.5,-74 239.5,-55 302.5,-55 302.5,-74"/>
<text text-anchor="middle" x="271" y="-62" font-family="Helvetica,sans-Serif" font-size="10.00">operators</text>
</a>
</g>
</g>
<!-- dir_82efe83b87803b3f04ecf90d1f66df00&#45;&gt;dir_d44c64559bbebec7f509842c48db8b23 -->
<g id="edge6" class="edge">
<title>dir_82efe83b87803b3f04ecf90d1f66df00&#45;&gt;dir_d44c64559bbebec7f509842c48db8b23</title>
<g id="a_edge6"><a xlink:href="dir_000015_000006.html" target="_top">
<path fill="none" stroke="#63b8ff" d="M281.28,-54.98C290.84,-47.07 305.28,-35.11 316.78,-25.58"/>
<polygon fill="#63b8ff" stroke="#63b8ff" points="319.06,-28.24 324.53,-19.17 314.6,-22.85 319.06,-28.24"/>
</a>
</g>
<g id="a_edge6&#45;headlabel"><a xlink:href="dir_000015_000006.html" target="_top" xlink:title="9">
<text text-anchor="middle" x="318.1" y="-30.22" font-family="Helvetica,sans-Serif" font-size="10.00" fill="#63b8ff">9</text>
</a>
</g>
</g>
<!-- dir_631f81eea5363d771bfbeab4c48fab37 -->
<g id="node8" class="node">
<title>dir_631f81eea5363d771bfbeab4c48fab37</title>
<g id="a_node8"><a xlink:href="dir_631f81eea5363d771bfbeab4c48fab37.html" target="_top" xlink:title="spatial_search">
<polygon fill="#abbccd" stroke="#404040" points="221.5,-74 134.5,-74 134.5,-55 221.5,-55 221.5,-74"/>
<text text-anchor="middle" x="178" y="-62" font-family="Helvetica,sans-Serif" font-size="10.00">spatial_search</text>
</a>
</g>
</g>
<!-- dir_631f81eea5363d771bfbeab4c48fab37&#45;&gt;dir_d44c64559bbebec7f509842c48db8b23 -->
<g id="edge7" class="edge">
<title>dir_631f81eea5363d771bfbeab4c48fab37&#45;&gt;dir_d44c64559bbebec7f509842c48db8b23</title>
<g id="a_edge7"><a xlink:href="dir_000017_000006.html" target="_top">
<path fill="none" stroke="#63b8ff" d="M203.22,-54.98C229.36,-46.16 270.4,-32.31 299.73,-22.41"/>
<polygon fill="#63b8ff" stroke="#63b8ff" points="301.22,-25.6 309.58,-19.08 298.98,-18.96 301.22,-25.6"/>
</a>
</g>
<g id="a_edge7&#45;headlabel"><a xlink:href="dir_000017_000006.html" target="_top" xlink:title="6">
<text text-anchor="middle" x="298.72" y="-26.94" font-family="Helvetica,sans-Serif" font-size="10.00" fill="#63b8ff">6</text>
</a>
</g>
</g>
<!-- dir_0c0c9fa8a58db41e576adc3ce68c5ee9 -->
<g id="node9" class="node">
<title>dir_0c0c9fa8a58db41e576adc3ce68c5ee9</title>
<g id="a_node9"><a xlink:href="dir_0c0c9fa8a58db41e576adc3ce68c5ee9.html" target="_top" xlink:title="types">
<polygon fill="#abbccd" stroke="#404040" points="116,-74 72,-74 72,-55 116,-55 116,-74"/>
<text text-anchor="middle" x="94" y="-62" font-family="Helvetica,sans-Serif" font-size="10.00">types</text>
</a>
</g>
</g>
<!-- dir_0c0c9fa8a58db41e576adc3ce68c5ee9&#45;&gt;dir_d44c64559bbebec7f509842c48db8b23 -->
<g id="edge8" class="edge">
<title>dir_0c0c9fa8a58db41e576adc3ce68c5ee9&#45;&gt;dir_d44c64559bbebec7f509842c48db8b23</title>
<g id="a_edge8"><a xlink:href="dir_000020_000006.html" target="_top">
<path fill="none" stroke="#63b8ff" d="M108.25,-54.98C113.65,-52.06 119.96,-49.03 126,-47 184.74,-27.24 256.54,-17.69 298.86,-13.46"/>
<polygon fill="#63b8ff" stroke="#63b8ff" points="299.34,-16.93 308.96,-12.5 298.68,-9.96 299.34,-16.93"/>
</a>
</g>
<g id="a_edge8&#45;headlabel"><a xlink:href="dir_000020_000006.html" target="_top" xlink:title="5">
<text text-anchor="middle" x="296.03" y="-17.6" font-family="Helvetica,sans-Serif" font-size="10.00" fill="#63b8ff">5</text>
</a>
</g>
</g>
<!-- dir_313caf1132e152dd9b58bea13a4052ca -->
<g id="node10" class="node">
<title>dir_313caf1132e152dd9b58bea13a4052ca</title>
<g id="a_node10"><a xlink:href="dir_313caf1132e152dd9b58bea13a4052ca.html" target="_top" xlink:title="utils">
<polygon fill="#abbccd" stroke="#404040" points="54,-74 16,-74 16,-55 54,-55 54,-74"/>
<text text-anchor="middle" x="35" y="-62" font-family="Helvetica,sans-Serif" font-size="10.00">utils</text>
</a>
</g>
</g>
<!-- dir_313caf1132e152dd9b58bea13a4052ca&#45;&gt;dir_d44c64559bbebec7f509842c48db8b23 -->
<g id="edge9" class="edge">
<title>dir_313caf1132e152dd9b58bea13a4052ca&#45;&gt;dir_d44c64559bbebec7f509842c48db8b23</title>
<g id="a_edge9"><a xlink:href="dir_000022_000006.html" target="_top">
<path fill="none" stroke="#63b8ff" d="M47.03,-54.99C51.79,-52 57.45,-48.92 63,-47 143.88,-19.03 245.17,-12.34 298.41,-10.84"/>
<polygon fill="#63b8ff" stroke="#63b8ff" points="298.8,-14.33 308.71,-10.6 298.63,-7.33 298.8,-14.33"/>
</a>
</g>
<g id="a_edge9&#45;headlabel"><a xlink:href="dir_000022_000006.html" target="_top" xlink:title="9">
<text text-anchor="middle" x="295.27" y="-14.75" font-family="Helvetica,sans-Serif" font-size="10.00" fill="#63b8ff">9</text>
</a>
</g>
</g>
</g>
</svg>
