<?xml version="1.0" encoding="UTF-8" standalone="no"?>
<!DOCTYPE svg PUBLIC "-//W3C//DTD SVG 1.1//EN"
 "http://www.w3.org/Graphics/SVG/1.1/DTD/svg11.dtd">
<!-- Generated by graphviz version 2.43.0 (0)
 -->
<!-- Title: include/medusa/bits Pages: 1 -->
<svg width="424pt" height="314pt"
 viewBox="0.00 0.00 424.00 314.00" xmlns="http://www.w3.org/2000/svg" xmlns:xlink="http://www.w3.org/1999/xlink">

<svg id="main" version="1.1" xmlns="http://www.w3.org/2000/svg" xmlns:xlink="http://www.w3.org/1999/xlink" xml:space="preserve" onload="init(evt)">
<style type="text/css"><![CDATA[
.node, .edge {opacity: 0.7;}
.node.selected, .edge.selected {opacity: 1;}
.edge:hover path { stroke: red; }
.edge:hover polygon { stroke: red; fill: red; }
]]></style>
<script type="application/ecmascript" xlink:href="svg.min.js"/>
<svg id="graph" class="graph">
<g id="graph0" class="graph" transform="scale(1 1) rotate(0) translate(4 310)">
<title>include/medusa/bits</title>
<g id="clust1" class="cluster">
<title>clusterdir_bba36f8f31570e3f9699d2817da2a06b</title>
<g id="a_clust1"><a xlink:href="dir_bba36f8f31570e3f9699d2817da2a06b.html" target="_top" xlink:title="medusa">
<polygon fill="#eef2f5" stroke="#7f7f7f" stroke-dasharray="5,2" points="8,-8 8,-298 408,-298 408,-8 8,-8"/>
<text text-anchor="middle" x="208" y="-286" font-family="Helvetica,sans-Serif" font-size="10.00">medusa</text>
</a>
</g>
</g>
<g id="clust2" class="cluster">
<title>clusterdir_961e83f5c8aa9dfe11e28ffe82965936</title>
<g id="a_clust2"><a xlink:href="dir_961e83f5c8aa9dfe11e28ffe82965936.html" target="_top">
<polygon fill="#eef2f5" stroke="#404040" stroke-width="2" points="16,-16 16,-271 400,-271 400,-16 16,-16"/>
</a>
</g>
</g>
<!-- dir_961e83f5c8aa9dfe11e28ffe82965936 -->
<g id="node1" class="node">
<title>dir_961e83f5c8aa9dfe11e28ffe82965936</title>
<text text-anchor="middle" x="348" y="-251" font-family="Helvetica,sans-Serif" font-size="10.00">bits</text>
</g>
<!-- dir_c18e24f9435d2718c267ab0a151ab779 -->
<g id="node2" class="node">
<title>dir_c18e24f9435d2718c267ab0a151ab779</title>
<g id="a_node2"><a xlink:href="dir_c18e24f9435d2718c267ab0a151ab779.html" target="_top" xlink:title="approximations">
<polygon fill="#abbccd" stroke="#404040" points="303.5,-153 210.5,-153 210.5,-134 303.5,-134 303.5,-153"/>
<text text-anchor="middle" x="257" y="-141" font-family="Helvetica,sans-Serif" font-size="10.00">approximations</text>
</a>
</g>
</g>
<!-- dir_6f6f282bc3d83e3d3563ed11d6a4fdfd -->
<g id="node9" class="node">
<title>dir_6f6f282bc3d83e3d3563ed11d6a4fdfd</title>
<g id="a_node9"><a xlink:href="dir_6f6f282bc3d83e3d3563ed11d6a4fdfd.html" target="_top" xlink:title="types">
<polygon fill="#abbccd" stroke="#404040" points="194,-98 150,-98 150,-79 194,-79 194,-98"/>
<text text-anchor="middle" x="172" y="-86" font-family="Helvetica,sans-Serif" font-size="10.00">types</text>
</a>
</g>
</g>
<!-- dir_c18e24f9435d2718c267ab0a151ab779&#45;&gt;dir_6f6f282bc3d83e3d3563ed11d6a4fdfd -->
<g id="edge1" class="edge">
<title>dir_c18e24f9435d2718c267ab0a151ab779&#45;&gt;dir_6f6f282bc3d83e3d3563ed11d6a4fdfd</title>
<g id="a_edge1"><a xlink:href="dir_000000_000019.html" target="_top">
<path fill="none" stroke="#63b8ff" d="M243.34,-133.98C230.16,-125.77 209.97,-113.18 194.43,-103.49"/>
<polygon fill="#63b8ff" stroke="#63b8ff" points="196.24,-100.49 185.91,-98.17 192.54,-106.43 196.24,-100.49"/>
</a>
</g>
<g id="a_edge1&#45;headlabel"><a xlink:href="dir_000000_000019.html" target="_top" xlink:title="4">
<text text-anchor="middle" x="200.8" y="-97.48" font-family="Helvetica,sans-Serif" font-size="10.00" fill="#63b8ff">4</text>
</a>
</g>
</g>
<!-- dir_8cec0f43b2894232a53727b446578581 -->
<g id="node10" class="node">
<title>dir_8cec0f43b2894232a53727b446578581</title>
<g id="a_node10"><a xlink:href="dir_8cec0f43b2894232a53727b446578581.html" target="_top" xlink:title="utils">
<polygon fill="#abbccd" stroke="#404040" points="266,-43 228,-43 228,-24 266,-24 266,-43"/>
<text text-anchor="middle" x="247" y="-31" font-family="Helvetica,sans-Serif" font-size="10.00">utils</text>
</a>
</g>
</g>
<!-- dir_c18e24f9435d2718c267ab0a151ab779&#45;&gt;dir_8cec0f43b2894232a53727b446578581 -->
<g id="edge2" class="edge">
<title>dir_c18e24f9435d2718c267ab0a151ab779&#45;&gt;dir_8cec0f43b2894232a53727b446578581</title>
<g id="a_edge2"><a xlink:href="dir_000000_000021.html" target="_top">
<path fill="none" stroke="#63b8ff" d="M267.34,-133.74C280.16,-121.74 299.37,-99.36 291,-79 286.19,-67.31 276.67,-57.05 267.7,-49.34"/>
<polygon fill="#63b8ff" stroke="#63b8ff" points="269.77,-46.51 259.78,-43 265.4,-51.98 269.77,-46.51"/>
</a>
</g>
<g id="a_edge2&#45;headlabel"><a xlink:href="dir_000000_000021.html" target="_top" xlink:title="18">
<text text-anchor="middle" x="274.35" y="-44.04" font-family="Helvetica,sans-Serif" font-size="10.00" fill="#63b8ff">18</text>
</a>
</g>
</g>
<!-- dir_be2ca812080aec3179aef73ad05404ee -->
<g id="node3" class="node">
<title>dir_be2ca812080aec3179aef73ad05404ee</title>
<g id="a_node3"><a xlink:href="dir_be2ca812080aec3179aef73ad05404ee.html" target="_top" xlink:title="domains">
<polygon fill="#abbccd" stroke="#404040" points="286.5,-263 227.5,-263 227.5,-244 286.5,-244 286.5,-263"/>
<text text-anchor="middle" x="257" y="-251" font-family="Helvetica,sans-Serif" font-size="10.00">domains</text>
</a>
</g>
</g>
<!-- dir_64c5ae9d1feff5b948989ebe6f7e2cfd -->
<g id="node6" class="node">
<title>dir_64c5ae9d1feff5b948989ebe6f7e2cfd</title>
<g id="a_node6"><a xlink:href="dir_64c5ae9d1feff5b948989ebe6f7e2cfd.html" target="_top" xlink:title="io">
<polygon fill="#abbccd" stroke="#404040" points="391.5,-153 362.5,-153 362.5,-134 391.5,-134 391.5,-153"/>
<text text-anchor="middle" x="377" y="-141" font-family="Helvetica,sans-Serif" font-size="10.00">io</text>
</a>
</g>
</g>
<!-- dir_be2ca812080aec3179aef73ad05404ee&#45;&gt;dir_64c5ae9d1feff5b948989ebe6f7e2cfd -->
<g id="edge4" class="edge">
<title>dir_be2ca812080aec3179aef73ad05404ee&#45;&gt;dir_64c5ae9d1feff5b948989ebe6f7e2cfd</title>
<g id="a_edge4"><a xlink:href="dir_000004_000011.html" target="_top">
<path fill="none" stroke="#63b8ff" d="M286.39,-243.93C305.95,-236.96 331.07,-225.39 348,-208 360.14,-195.53 367.79,-177.07 372.16,-163.26"/>
<polygon fill="#63b8ff" stroke="#63b8ff" points="375.6,-163.97 374.99,-153.39 368.87,-162.04 375.6,-163.97"/>
</a>
</g>
<g id="a_edge4&#45;headlabel"><a xlink:href="dir_000004_000011.html" target="_top" xlink:title="1">
<text text-anchor="middle" x="377.34" y="-165.7" font-family="Helvetica,sans-Serif" font-size="10.00" fill="#63b8ff">1</text>
</a>
</g>
</g>
<!-- dir_7ffc5f08c5237fa1aabc9c49af9c3774 -->
<g id="node7" class="node">
<title>dir_7ffc5f08c5237fa1aabc9c49af9c3774</title>
<g id="a_node7"><a xlink:href="dir_7ffc5f08c5237fa1aabc9c49af9c3774.html" target="_top" xlink:title="operators">
<polygon fill="#abbccd" stroke="#404040" points="288.5,-208 225.5,-208 225.5,-189 288.5,-189 288.5,-208"/>
<text text-anchor="middle" x="257" y="-196" font-family="Helvetica,sans-Serif" font-size="10.00">operators</text>
</a>
</g>
</g>
<!-- dir_be2ca812080aec3179aef73ad05404ee&#45;&gt;dir_7ffc5f08c5237fa1aabc9c49af9c3774 -->
<g id="edge6" class="edge">
<title>dir_be2ca812080aec3179aef73ad05404ee&#45;&gt;dir_7ffc5f08c5237fa1aabc9c49af9c3774</title>
<g id="a_edge6"><a xlink:href="dir_000004_000014.html" target="_top">
<path fill="none" stroke="#63b8ff" d="M251.83,-243.75C250.34,-236.8 249.9,-226.85 250.52,-218.13"/>
<polygon fill="#63b8ff" stroke="#63b8ff" points="254.01,-218.47 251.87,-208.09 247.07,-217.53 254.01,-218.47"/>
</a>
</g>
<g id="a_edge6&#45;headlabel"><a xlink:href="dir_000004_000014.html" target="_top" xlink:title="1">
<text text-anchor="middle" x="256.34" y="-219.91" font-family="Helvetica,sans-Serif" font-size="10.00" fill="#63b8ff">1</text>
</a>
</g>
</g>
<!-- dir_23ee37658652aceb17f7f054bc627e19 -->
<g id="node8" class="node">
<title>dir_23ee37658652aceb17f7f054bc627e19</title>
<g id="a_node8"><a xlink:href="dir_23ee37658652aceb17f7f054bc627e19.html" target="_top" xlink:title="spatial_search">
<polygon fill="#abbccd" stroke="#404040" points="111.5,-153 24.5,-153 24.5,-134 111.5,-134 111.5,-153"/>
<text text-anchor="middle" x="68" y="-141" font-family="Helvetica,sans-Serif" font-size="10.00">spatial_search</text>
</a>
</g>
</g>
<!-- dir_be2ca812080aec3179aef73ad05404ee&#45;&gt;dir_23ee37658652aceb17f7f054bc627e19 -->
<g id="edge3" class="edge">
<title>dir_be2ca812080aec3179aef73ad05404ee&#45;&gt;dir_23ee37658652aceb17f7f054bc627e19</title>
<g id="a_edge3"><a xlink:href="dir_000004_000016.html" target="_top">
<path fill="none" stroke="#63b8ff" d="M227.15,-249.41C180.54,-243.93 93.79,-230.87 74,-208 63.48,-195.84 62.96,-177.05 64.49,-163.06"/>
<polygon fill="#63b8ff" stroke="#63b8ff" points="67.96,-163.5 65.99,-153.09 61.04,-162.45 67.96,-163.5"/>
</a>
</g>
<g id="a_edge3&#45;headlabel"><a xlink:href="dir_000004_000016.html" target="_top" xlink:title="16">
<text text-anchor="middle" x="70.23" y="-164.98" font-family="Helvetica,sans-Serif" font-size="10.00" fill="#63b8ff">16</text>
</a>
</g>
</g>
<!-- dir_be2ca812080aec3179aef73ad05404ee&#45;&gt;dir_6f6f282bc3d83e3d3563ed11d6a4fdfd -->
<g id="edge5" class="edge">
<title>dir_be2ca812080aec3179aef73ad05404ee&#45;&gt;dir_6f6f282bc3d83e3d3563ed11d6a4fdfd</title>
<g id="a_edge5"><a xlink:href="dir_000004_000019.html" target="_top">
<path fill="none" stroke="#63b8ff" d="M248.11,-243.79C239.57,-235.16 226.57,-221.33 217,-208 200.63,-185.21 196.02,-179.21 186,-153 180.45,-138.48 176.82,-121.21 174.65,-108.35"/>
<polygon fill="#63b8ff" stroke="#63b8ff" points="178.09,-107.71 173.11,-98.37 171.18,-108.78 178.09,-107.71"/>
</a>
</g>
<g id="a_edge5&#45;headlabel"><a xlink:href="dir_000004_000019.html" target="_top" xlink:title="29">
<text text-anchor="middle" x="181.45" y="-108.33" font-family="Helvetica,sans-Serif" font-size="10.00" fill="#63b8ff">29</text>
</a>
</g>
</g>
<!-- dir_be2ca812080aec3179aef73ad05404ee&#45;&gt;dir_8cec0f43b2894232a53727b446578581 -->
<g id="edge7" class="edge">
<title>dir_be2ca812080aec3179aef73ad05404ee&#45;&gt;dir_8cec0f43b2894232a53727b446578581</title>
<g id="a_edge7"><a xlink:href="dir_000004_000021.html" target="_top">
<path fill="none" stroke="#63b8ff" d="M266.98,-243.84C276.12,-235.46 289.48,-222 298,-208 315.71,-178.9 321.65,-167.87 318,-134 315.32,-109.12 319.5,-100.07 306,-79 297.84,-66.26 284.67,-55.81 272.85,-48.25"/>
<polygon fill="#63b8ff" stroke="#63b8ff" points="274.55,-45.19 264.17,-43.04 270.94,-51.19 274.55,-45.19"/>
</a>
</g>
<g id="a_edge7&#45;headlabel"><a xlink:href="dir_000004_000021.html" target="_top" xlink:title="28">
<text text-anchor="middle" x="279.09" y="-42.1" font-family="Helvetica,sans-Serif" font-size="10.00" fill="#63b8ff">28</text>
</a>
</g>
</g>
<!-- dir_47a4acf23ca7c9d1894599eb51f94eea -->
<g id="node4" class="node">
<title>dir_47a4acf23ca7c9d1894599eb51f94eea</title>
<g id="a_node4"><a xlink:href="dir_47a4acf23ca7c9d1894599eb51f94eea.html" target="_top" xlink:title="integrators">
<polygon fill="#abbccd" stroke="#404040" points="282,-98 212,-98 212,-79 282,-79 282,-98"/>
<text text-anchor="middle" x="247" y="-86" font-family="Helvetica,sans-Serif" font-size="10.00">integrators</text>
</a>
</g>
</g>
<!-- dir_47a4acf23ca7c9d1894599eb51f94eea&#45;&gt;dir_8cec0f43b2894232a53727b446578581 -->
<g id="edge8" class="edge">
<title>dir_47a4acf23ca7c9d1894599eb51f94eea&#45;&gt;dir_8cec0f43b2894232a53727b446578581</title>
<g id="a_edge8"><a xlink:href="dir_000007_000021.html" target="_top">
<path fill="none" stroke="#63b8ff" d="M247,-78.75C247,-71.8 247,-61.85 247,-53.13"/>
<polygon fill="#63b8ff" stroke="#63b8ff" points="250.5,-53.09 247,-43.09 243.5,-53.09 250.5,-53.09"/>
</a>
</g>
<g id="a_edge8&#45;headlabel"><a xlink:href="dir_000007_000021.html" target="_top" xlink:title="4">
<text text-anchor="middle" x="253.34" y="-54.18" font-family="Helvetica,sans-Serif" font-size="10.00" fill="#63b8ff">4</text>
</a>
</g>
</g>
<!-- dir_f9ffe1ab1eb05fd9eb2318631ebde659 -->
<g id="node5" class="node">
<title>dir_f9ffe1ab1eb05fd9eb2318631ebde659</title>
<g id="a_node5"><a xlink:href="dir_f9ffe1ab1eb05fd9eb2318631ebde659.html" target="_top" xlink:title="interpolants">
<polygon fill="#abbccd" stroke="#404040" points="157.5,-208 82.5,-208 82.5,-189 157.5,-189 157.5,-208"/>
<text text-anchor="middle" x="120" y="-196" font-family="Helvetica,sans-Serif" font-size="10.00">interpolants</text>
</a>
</g>
</g>
<!-- dir_f9ffe1ab1eb05fd9eb2318631ebde659&#45;&gt;dir_23ee37658652aceb17f7f054bc627e19 -->
<g id="edge9" class="edge">
<title>dir_f9ffe1ab1eb05fd9eb2318631ebde659&#45;&gt;dir_23ee37658652aceb17f7f054bc627e19</title>
<g id="a_edge9"><a xlink:href="dir_000009_000016.html" target="_top">
<path fill="none" stroke="#63b8ff" d="M111.41,-188.75C103.84,-181.03 92.62,-169.6 83.49,-160.28"/>
<polygon fill="#63b8ff" stroke="#63b8ff" points="85.93,-157.78 76.43,-153.09 80.93,-162.68 85.93,-157.78"/>
</a>
</g>
<g id="a_edge9&#45;headlabel"><a xlink:href="dir_000009_000016.html" target="_top" xlink:title="1">
<text text-anchor="middle" x="90.47" y="-155.85" font-family="Helvetica,sans-Serif" font-size="10.00" fill="#63b8ff">1</text>
</a>
</g>
</g>
<!-- dir_f9ffe1ab1eb05fd9eb2318631ebde659&#45;&gt;dir_6f6f282bc3d83e3d3563ed11d6a4fdfd -->
<g id="edge10" class="edge">
<title>dir_f9ffe1ab1eb05fd9eb2318631ebde659&#45;&gt;dir_6f6f282bc3d83e3d3563ed11d6a4fdfd</title>
<g id="a_edge10"><a xlink:href="dir_000009_000019.html" target="_top">
<path fill="none" stroke="#63b8ff" d="M124.26,-188.66C132.79,-170.93 152.15,-130.73 163.42,-107.32"/>
<polygon fill="#63b8ff" stroke="#63b8ff" points="166.65,-108.69 167.83,-98.16 160.34,-105.65 166.65,-108.69"/>
</a>
</g>
<g id="a_edge10&#45;headlabel"><a xlink:href="dir_000009_000019.html" target="_top" xlink:title="1">
<text text-anchor="middle" x="167.65" y="-110.66" font-family="Helvetica,sans-Serif" font-size="10.00" fill="#63b8ff">1</text>
</a>
</g>
</g>
<!-- dir_f9ffe1ab1eb05fd9eb2318631ebde659&#45;&gt;dir_8cec0f43b2894232a53727b446578581 -->
<g id="edge11" class="edge">
<title>dir_f9ffe1ab1eb05fd9eb2318631ebde659&#45;&gt;dir_8cec0f43b2894232a53727b446578581</title>
<g id="a_edge11"><a xlink:href="dir_000009_000021.html" target="_top">
<path fill="none" stroke="#63b8ff" d="M120.49,-188.71C122,-164.24 127.37,-96.05 141,-79 159.78,-55.51 193.18,-44.25 217.48,-38.97"/>
<polygon fill="#63b8ff" stroke="#63b8ff" points="218.45,-42.35 227.6,-36.99 217.11,-35.48 218.45,-42.35"/>
</a>
</g>
<g id="a_edge11&#45;headlabel"><a xlink:href="dir_000009_000021.html" target="_top" xlink:title="2">
<text text-anchor="middle" x="215.47" y="-43.32" font-family="Helvetica,sans-Serif" font-size="10.00" fill="#63b8ff">2</text>
</a>
</g>
</g>
<!-- dir_64c5ae9d1feff5b948989ebe6f7e2cfd&#45;&gt;dir_8cec0f43b2894232a53727b446578581 -->
<g id="edge12" class="edge">
<title>dir_64c5ae9d1feff5b948989ebe6f7e2cfd&#45;&gt;dir_8cec0f43b2894232a53727b446578581</title>
<g id="a_edge12"><a xlink:href="dir_000011_000021.html" target="_top">
<path fill="none" stroke="#63b8ff" d="M375.18,-133.97C371.91,-120.61 363.87,-94.66 348,-79 328.1,-59.37 298.08,-47.66 275.94,-41.22"/>
<polygon fill="#63b8ff" stroke="#63b8ff" points="276.65,-37.78 266.08,-38.54 274.81,-44.54 276.65,-37.78"/>
</a>
</g>
<g id="a_edge12&#45;headlabel"><a xlink:href="dir_000011_000021.html" target="_top" xlink:title="5">
<text text-anchor="middle" x="280.86" y="-33.49" font-family="Helvetica,sans-Serif" font-size="10.00" fill="#63b8ff">5</text>
</a>
</g>
</g>
<!-- dir_7ffc5f08c5237fa1aabc9c49af9c3774&#45;&gt;dir_c18e24f9435d2718c267ab0a151ab779 -->
<g id="edge16" class="edge">
<title>dir_7ffc5f08c5237fa1aabc9c49af9c3774&#45;&gt;dir_c18e24f9435d2718c267ab0a151ab779</title>
<g id="a_edge16"><a xlink:href="dir_000014_000000.html" target="_top">
<path fill="none" stroke="#63b8ff" d="M257,-188.75C257,-181.8 257,-171.85 257,-163.13"/>
<polygon fill="#63b8ff" stroke="#63b8ff" points="260.5,-163.09 257,-153.09 253.5,-163.09 260.5,-163.09"/>
</a>
</g>
<g id="a_edge16&#45;headlabel"><a xlink:href="dir_000014_000000.html" target="_top" xlink:title="4">
<text text-anchor="middle" x="263.34" y="-164.18" font-family="Helvetica,sans-Serif" font-size="10.00" fill="#63b8ff">4</text>
</a>
</g>
</g>
<!-- dir_7ffc5f08c5237fa1aabc9c49af9c3774&#45;&gt;dir_be2ca812080aec3179aef73ad05404ee -->
<g id="edge15" class="edge">
<title>dir_7ffc5f08c5237fa1aabc9c49af9c3774&#45;&gt;dir_be2ca812080aec3179aef73ad05404ee</title>
<g id="a_edge15"><a xlink:href="dir_000014_000004.html" target="_top">
<path fill="none" stroke="#63b8ff" d="M262.13,-208.09C263.64,-214.99 264.09,-224.93 263.49,-233.66"/>
<polygon fill="#63b8ff" stroke="#63b8ff" points="260,-233.38 262.17,-243.75 266.94,-234.29 260,-233.38"/>
</a>
</g>
<g id="a_edge15&#45;headlabel"><a xlink:href="dir_000014_000004.html" target="_top" xlink:title="1">
<text text-anchor="middle" x="257.65" y="-226.94" font-family="Helvetica,sans-Serif" font-size="10.00" fill="#63b8ff">1</text>
</a>
</g>
</g>
<!-- dir_7ffc5f08c5237fa1aabc9c49af9c3774&#45;&gt;dir_6f6f282bc3d83e3d3563ed11d6a4fdfd -->
<g id="edge13" class="edge">
<title>dir_7ffc5f08c5237fa1aabc9c49af9c3774&#45;&gt;dir_6f6f282bc3d83e3d3563ed11d6a4fdfd</title>
<g id="a_edge13"><a xlink:href="dir_000014_000019.html" target="_top">
<path fill="none" stroke="#63b8ff" d="M242.85,-188.7C230.76,-180.62 213.53,-167.68 202,-153 191.3,-139.38 183.24,-121.33 178.18,-107.95"/>
<polygon fill="#63b8ff" stroke="#63b8ff" points="181.43,-106.65 174.78,-98.4 174.84,-109 181.43,-106.65"/>
</a>
</g>
<g id="a_edge13&#45;headlabel"><a xlink:href="dir_000014_000019.html" target="_top" xlink:title="4">
<text text-anchor="middle" x="185.31" y="-106.58" font-family="Helvetica,sans-Serif" font-size="10.00" fill="#63b8ff">4</text>
</a>
</g>
</g>
<!-- dir_7ffc5f08c5237fa1aabc9c49af9c3774&#45;&gt;dir_8cec0f43b2894232a53727b446578581 -->
<g id="edge14" class="edge">
<title>dir_7ffc5f08c5237fa1aabc9c49af9c3774&#45;&gt;dir_8cec0f43b2894232a53727b446578581</title>
<g id="a_edge14"><a xlink:href="dir_000014_000021.html" target="_top">
<path fill="none" stroke="#63b8ff" d="M274.77,-188.96C288.01,-181.51 305.12,-169.33 313,-153 316.67,-145.39 314.19,-142.36 313,-134 309.41,-108.8 310.59,-100.52 297,-79 289.7,-67.45 278.57,-57.12 268.65,-49.33"/>
<polygon fill="#63b8ff" stroke="#63b8ff" points="270.49,-46.34 260.38,-43.17 266.31,-51.95 270.49,-46.34"/>
</a>
</g>
<g id="a_edge14&#45;headlabel"><a xlink:href="dir_000014_000021.html" target="_top" xlink:title="10">
<text text-anchor="middle" x="275.07" y="-43.71" font-family="Helvetica,sans-Serif" font-size="10.00" fill="#63b8ff">10</text>
</a>
</g>
</g>
<!-- dir_23ee37658652aceb17f7f054bc627e19&#45;&gt;dir_6f6f282bc3d83e3d3563ed11d6a4fdfd -->
<g id="edge17" class="edge">
<title>dir_23ee37658652aceb17f7f054bc627e19&#45;&gt;dir_6f6f282bc3d83e3d3563ed11d6a4fdfd</title>
<g id="a_edge17"><a xlink:href="dir_000016_000019.html" target="_top">
<path fill="none" stroke="#63b8ff" d="M84.71,-133.98C101.21,-125.57 126.7,-112.59 145.88,-102.81"/>
<polygon fill="#63b8ff" stroke="#63b8ff" points="147.67,-105.83 154.99,-98.17 144.49,-99.59 147.67,-105.83"/>
</a>
</g>
<g id="a_edge17&#45;headlabel"><a xlink:href="dir_000016_000019.html" target="_top" xlink:title="2">
<text text-anchor="middle" x="145.75" y="-107.49" font-family="Helvetica,sans-Serif" font-size="10.00" fill="#63b8ff">2</text>
</a>
</g>
</g>
<!-- dir_23ee37658652aceb17f7f054bc627e19&#45;&gt;dir_8cec0f43b2894232a53727b446578581 -->
<g id="edge18" class="edge">
<title>dir_23ee37658652aceb17f7f054bc627e19&#45;&gt;dir_8cec0f43b2894232a53727b446578581</title>
<g id="a_edge18"><a xlink:href="dir_000016_000021.html" target="_top">
<path fill="none" stroke="#63b8ff" d="M73.77,-133.89C83.21,-120.42 103.2,-94.32 126,-79 154.41,-59.91 192.06,-47.75 217.77,-41.05"/>
<polygon fill="#63b8ff" stroke="#63b8ff" points="218.8,-44.4 227.66,-38.59 217.11,-37.61 218.8,-44.4"/>
</a>
</g>
<g id="a_edge18&#45;headlabel"><a xlink:href="dir_000016_000021.html" target="_top" xlink:title="8">
<text text-anchor="middle" x="216" y="-45.52" font-family="Helvetica,sans-Serif" font-size="10.00" fill="#63b8ff">8</text>
</a>
</g>
</g>
<!-- dir_6f6f282bc3d83e3d3563ed11d6a4fdfd&#45;&gt;dir_8cec0f43b2894232a53727b446578581 -->
<g id="edge19" class="edge">
<title>dir_6f6f282bc3d83e3d3563ed11d6a4fdfd&#45;&gt;dir_8cec0f43b2894232a53727b446578581</title>
<g id="a_edge19"><a xlink:href="dir_000019_000021.html" target="_top">
<path fill="none" stroke="#63b8ff" d="M178.94,-78.98C188.66,-70.84 205.93,-58.41 220.76,-48.76"/>
<polygon fill="#63b8ff" stroke="#63b8ff" points="223.01,-51.48 229.58,-43.17 219.26,-45.56 223.01,-51.48"/>
</a>
</g>
<g id="a_edge19&#45;headlabel"><a xlink:href="dir_000019_000021.html" target="_top" xlink:title="2">
<text text-anchor="middle" x="221.49" y="-53.3" font-family="Helvetica,sans-Serif" font-size="10.00" fill="#63b8ff">2</text>
</a>
</g>
</g>
<!-- dir_8cec0f43b2894232a53727b446578581&#45;&gt;dir_6f6f282bc3d83e3d3563ed11d6a4fdfd -->
<g id="edge20" class="edge">
<title>dir_8cec0f43b2894232a53727b446578581&#45;&gt;dir_6f6f282bc3d83e3d3563ed11d6a4fdfd</title>
<g id="a_edge20"><a xlink:href="dir_000021_000019.html" target="_top">
<path fill="none" stroke="#63b8ff" d="M239.88,-43.17C230.06,-51.37 212.75,-63.81 197.96,-73.42"/>
<polygon fill="#63b8ff" stroke="#63b8ff" points="195.75,-70.68 189.16,-78.98 199.49,-76.6 195.75,-70.68"/>
</a>
</g>
<g id="a_edge20&#45;headlabel"><a xlink:href="dir_000021_000019.html" target="_top" xlink:title="3">
<text text-anchor="middle" x="197.27" y="-63.86" font-family="Helvetica,sans-Serif" font-size="10.00" fill="#63b8ff">3</text>
</a>
</g>
</g>
</g>
</svg>
</svg>

<style type='text/css'>
<![CDATA[
[data-mouse-over-selected='false'] { opacity: 0.7; }
[data-mouse-over-selected='true']  { opacity: 1.0; }
]]>
</style>
<script type="application/ecmascript"><![CDATA[
document.addEventListener('DOMContentLoaded', (event) => {
  highlightEdges();
  highlightAdjacentNodes();
});
]]></script>
</svg>
