<?xml version="1.0" encoding="UTF-8" standalone="no"?>
<!DOCTYPE svg PUBLIC "-//W3C//DTD SVG 1.1//EN"
 "http://www.w3.org/Graphics/SVG/1.1/DTD/svg11.dtd">
<!-- Generated by graphviz version 2.43.0 (0)
 -->
<!-- Title: include/medusa/bits/domains/discretization_helpers.hpp Pages: 1 -->
<svg width="553pt" height="324pt"
 viewBox="0.00 0.00 553.00 324.00" xmlns="http://www.w3.org/2000/svg" xmlns:xlink="http://www.w3.org/1999/xlink">
<g id="graph0" class="graph" transform="scale(1 1) rotate(0) translate(4 320)">
<title>include/medusa/bits/domains/discretization_helpers.hpp</title>
<!-- Node1 -->
<g id="Node000001" class="node">
<title>Node1</title>
<g id="a_Node000001"><a xlink:title="Contains helpers for discretizing various geometric objects.">
<polygon fill="#999999" stroke="#666666" points="375.5,-316 244.5,-316 244.5,-275 375.5,-275 375.5,-316"/>
<text text-anchor="start" x="252.5" y="-304" font-family="Helvetica,sans-Serif" font-size="10.00">include/medusa/bits</text>
<text text-anchor="start" x="252.5" y="-293" font-family="Helvetica,sans-Serif" font-size="10.00">/domains/discretization</text>
<text text-anchor="middle" x="310" y="-282" font-family="Helvetica,sans-Serif" font-size="10.00">_helpers.hpp</text>
</a>
</g>
</g>
<!-- Node2 -->
<g id="Node000002" class="node">
<title>Node2</title>
<g id="a_Node000002"><a xlink:href="Config_8hpp.html" target="_top" xlink:title="Contains compile time settings for the project, such as Eigen plugins.">
<polygon fill="white" stroke="#666666" points="110,-129 0,-129 0,-110 110,-110 110,-129"/>
<text text-anchor="middle" x="55" y="-117" font-family="Helvetica,sans-Serif" font-size="10.00">medusa/Config.hpp</text>
</a>
</g>
</g>
<!-- Node1&#45;&gt;Node2 -->
<g id="edge1_Node000001_Node000002" class="edge">
<title>Node1&#45;&gt;Node2</title>
<g id="a_edge1_Node000001_Node000002"><a xlink:title=" ">
<path fill="none" stroke="#63b8ff" d="M244.46,-279.62C215.07,-270.9 181.01,-257.81 154,-239 114.21,-211.29 81.22,-163.57 65.29,-137.96"/>
<polygon fill="#63b8ff" stroke="#63b8ff" points="68.22,-136.04 60.04,-129.31 62.24,-139.68 68.22,-136.04"/>
</a>
</g>
</g>
<!-- Node4 -->
<g id="Node000004" class="node">
<title>Node4</title>
<g id="a_Node000004"><a xlink:href="Range_8hpp.html" target="_top" xlink:title="Implementation of Range.">
<polygon fill="white" stroke="#666666" points="324.5,-239 163.5,-239 163.5,-220 324.5,-220 324.5,-239"/>
<text text-anchor="middle" x="244" y="-227" font-family="Helvetica,sans-Serif" font-size="10.00">medusa/bits/types/Range.hpp</text>
</a>
</g>
</g>
<!-- Node1&#45;&gt;Node4 -->
<g id="edge3_Node000001_Node000004" class="edge">
<title>Node1&#45;&gt;Node4</title>
<g id="a_edge3_Node000001_Node000004"><a xlink:title=" ">
<path fill="none" stroke="#63b8ff" d="M289.84,-274.95C280.34,-265.74 269.16,-254.9 260.22,-246.23"/>
<polygon fill="#63b8ff" stroke="#63b8ff" points="262.65,-243.71 253.03,-239.26 257.78,-248.73 262.65,-243.71"/>
</a>
</g>
</g>
<!-- Node17 -->
<g id="Node000017" class="node">
<title>Node17</title>
<g id="a_Node000017"><a xlink:title=" ">
<polygon fill="#e0e0e0" stroke="#999999" points="411.5,-239 342.5,-239 342.5,-220 411.5,-220 411.5,-239"/>
<text text-anchor="middle" x="377" y="-227" font-family="Helvetica,sans-Serif" font-size="10.00">Eigen/Core</text>
</a>
</g>
</g>
<!-- Node1&#45;&gt;Node17 -->
<g id="edge19_Node000001_Node000017" class="edge">
<title>Node1&#45;&gt;Node17</title>
<g id="a_edge19_Node000001_Node000017"><a xlink:title=" ">
<path fill="none" stroke="#63b8ff" d="M330.47,-274.95C340.11,-265.74 351.46,-254.9 360.54,-246.23"/>
<polygon fill="#63b8ff" stroke="#63b8ff" points="363.02,-248.7 367.83,-239.26 358.18,-243.64 363.02,-248.7"/>
</a>
</g>
</g>
<!-- Node18 -->
<g id="Node000018" class="node">
<title>Node18</title>
<g id="a_Node000018"><a xlink:title=" ">
<polygon fill="#e0e0e0" stroke="#999999" points="484,-239 430,-239 430,-220 484,-220 484,-239"/>
<text text-anchor="middle" x="457" y="-227" font-family="Helvetica,sans-Serif" font-size="10.00">random</text>
</a>
</g>
</g>
<!-- Node1&#45;&gt;Node18 -->
<g id="edge20_Node000001_Node000018" class="edge">
<title>Node1&#45;&gt;Node18</title>
<g id="a_edge20_Node000001_Node000018"><a xlink:title=" ">
<path fill="none" stroke="#63b8ff" d="M354.9,-274.95C378.67,-264.6 407.15,-252.2 427.99,-243.13"/>
<polygon fill="#63b8ff" stroke="#63b8ff" points="429.49,-246.29 437.27,-239.09 426.7,-239.87 429.49,-246.29"/>
</a>
</g>
</g>
<!-- Node3 -->
<g id="Node000003" class="node">
<title>Node3</title>
<g id="a_Node000003"><a xlink:title=" ">
<polygon fill="#e0e0e0" stroke="#999999" points="161.5,-19 114.5,-19 114.5,0 161.5,0 161.5,-19"/>
<text text-anchor="middle" x="138" y="-7" font-family="Helvetica,sans-Serif" font-size="10.00">vector</text>
</a>
</g>
</g>
<!-- Node2&#45;&gt;Node3 -->
<g id="edge2_Node000002_Node000003" class="edge">
<title>Node2&#45;&gt;Node3</title>
<g id="a_edge2_Node000002_Node000003"><a xlink:title=" ">
<path fill="none" stroke="#63b8ff" d="M61.79,-109.66C75.6,-91.69 107.15,-50.64 125.02,-27.38"/>
<polygon fill="#63b8ff" stroke="#63b8ff" points="128.03,-29.22 131.35,-19.16 122.48,-24.95 128.03,-29.22"/>
</a>
</g>
</g>
<!-- Node5 -->
<g id="Node000005" class="node">
<title>Node5</title>
<g id="a_Node000005"><a xlink:href="Range__fwd_8hpp.html" target="_top" xlink:title="Declaration of Range.">
<polygon fill="white" stroke="#666666" points="289.5,-184 198.5,-184 198.5,-165 289.5,-165 289.5,-184"/>
<text text-anchor="middle" x="244" y="-172" font-family="Helvetica,sans-Serif" font-size="10.00">Range_fwd.hpp</text>
</a>
</g>
</g>
<!-- Node4&#45;&gt;Node5 -->
<g id="edge4_Node000004_Node000005" class="edge">
<title>Node4&#45;&gt;Node5</title>
<g id="a_edge4_Node000004_Node000005"><a xlink:title=" ">
<path fill="none" stroke="#63b8ff" d="M244,-219.75C244,-212.8 244,-202.85 244,-194.13"/>
<polygon fill="#63b8ff" stroke="#63b8ff" points="247.5,-194.09 244,-184.09 240.5,-194.09 247.5,-194.09"/>
</a>
</g>
</g>
<!-- Node16 -->
<g id="Node000016" class="node">
<title>Node16</title>
<g id="a_Node000016"><a xlink:title=" ">
<polygon fill="#e0e0e0" stroke="#999999" points="372,-184 308,-184 308,-165 372,-165 372,-184"/>
<text text-anchor="middle" x="340" y="-172" font-family="Helvetica,sans-Serif" font-size="10.00">algorithm</text>
</a>
</g>
</g>
<!-- Node4&#45;&gt;Node16 -->
<g id="edge18_Node000004_Node000016" class="edge">
<title>Node4&#45;&gt;Node16</title>
<g id="a_edge18_Node000004_Node000016"><a xlink:title=" ">
<path fill="none" stroke="#63b8ff" d="M259.42,-219.98C274.45,-211.69 297.54,-198.94 315.16,-189.22"/>
<polygon fill="#63b8ff" stroke="#63b8ff" points="317.23,-192.07 324.3,-184.17 313.85,-185.94 317.23,-192.07"/>
</a>
</g>
</g>
<!-- Node5&#45;&gt;Node2 -->
<g id="edge5_Node000005_Node000002" class="edge">
<title>Node5&#45;&gt;Node2</title>
<g id="a_edge5_Node000005_Node000002"><a xlink:title=" ">
<path fill="none" stroke="#63b8ff" d="M213.63,-164.98C181.63,-156.01 131.04,-141.82 95.62,-131.89"/>
<polygon fill="#63b8ff" stroke="#63b8ff" points="96.18,-128.41 85.6,-129.08 94.29,-135.15 96.18,-128.41"/>
</a>
</g>
</g>
<!-- Node5&#45;&gt;Node3 -->
<g id="edge16_Node000005_Node000003" class="edge">
<title>Node5&#45;&gt;Node3</title>
<g id="a_edge16_Node000005_Node000003"><a xlink:title=" ">
<path fill="none" stroke="#63b8ff" d="M211.37,-164.89C192.54,-158.21 170.07,-146.98 157,-129 135.44,-99.33 134.54,-54.43 136.09,-29.28"/>
<polygon fill="#63b8ff" stroke="#63b8ff" points="139.59,-29.49 136.91,-19.23 132.61,-28.92 139.59,-29.49"/>
</a>
</g>
</g>
<!-- Node6 -->
<g id="Node000006" class="node">
<title>Node6</title>
<g id="a_Node000006"><a xlink:href="assert_8hpp.html" target="_top" xlink:title="Implementation of custom assert and debug utilities.">
<polygon fill="white" stroke="#666666" points="321.5,-129 166.5,-129 166.5,-110 321.5,-110 321.5,-129"/>
<text text-anchor="middle" x="244" y="-117" font-family="Helvetica,sans-Serif" font-size="10.00">medusa/bits/utils/assert.hpp</text>
</a>
</g>
</g>
<!-- Node5&#45;&gt;Node6 -->
<g id="edge6_Node000005_Node000006" class="edge">
<title>Node5&#45;&gt;Node6</title>
<g id="a_edge6_Node000005_Node000006"><a xlink:title=" ">
<path fill="none" stroke="#63b8ff" d="M244,-164.75C244,-157.8 244,-147.85 244,-139.13"/>
<polygon fill="#63b8ff" stroke="#63b8ff" points="247.5,-139.09 244,-129.09 240.5,-139.09 247.5,-139.09"/>
</a>
</g>
</g>
<!-- Node13 -->
<g id="Node000013" class="node">
<title>Node13</title>
<g id="a_Node000013"><a xlink:href="traits_8hpp.html" target="_top" xlink:title="Type traits definition for vector and scalar fields.">
<polygon fill="white" stroke="#666666" points="402.5,-129 339.5,-129 339.5,-110 402.5,-110 402.5,-129"/>
<text text-anchor="middle" x="371" y="-117" font-family="Helvetica,sans-Serif" font-size="10.00">traits.hpp</text>
</a>
</g>
</g>
<!-- Node5&#45;&gt;Node13 -->
<g id="edge14_Node000005_Node000013" class="edge">
<title>Node5&#45;&gt;Node13</title>
<g id="a_edge14_Node000005_Node000013"><a xlink:title=" ">
<path fill="none" stroke="#63b8ff" d="M264.4,-164.98C285.02,-156.38 317.11,-142.99 340.69,-133.15"/>
<polygon fill="#63b8ff" stroke="#63b8ff" points="342.34,-136.25 350.22,-129.17 339.65,-129.79 342.34,-136.25"/>
</a>
</g>
</g>
<!-- Node14 -->
<g id="Node000014" class="node">
<title>Node14</title>
<g id="a_Node000014"><a xlink:title=" ">
<polygon fill="#e0e0e0" stroke="#999999" points="479,-129 421,-129 421,-110 479,-110 479,-129"/>
<text text-anchor="middle" x="450" y="-117" font-family="Helvetica,sans-Serif" font-size="10.00">memory</text>
</a>
</g>
</g>
<!-- Node5&#45;&gt;Node14 -->
<g id="edge15_Node000005_Node000014" class="edge">
<title>Node5&#45;&gt;Node14</title>
<g id="a_edge15_Node000005_Node000014"><a xlink:title=" ">
<path fill="none" stroke="#63b8ff" d="M277.1,-164.98C313.64,-155.58 372.4,-140.46 411.11,-130.5"/>
<polygon fill="#63b8ff" stroke="#63b8ff" points="412.17,-133.85 420.98,-127.97 410.42,-127.07 412.17,-133.85"/>
</a>
</g>
</g>
<!-- Node15 -->
<g id="Node000015" class="node">
<title>Node15</title>
<g id="a_Node000015"><a xlink:title=" ">
<polygon fill="#e0e0e0" stroke="#999999" points="545,-129 497,-129 497,-110 545,-110 545,-129"/>
<text text-anchor="middle" x="521" y="-117" font-family="Helvetica,sans-Serif" font-size="10.00">iosfwd</text>
</a>
</g>
</g>
<!-- Node5&#45;&gt;Node15 -->
<g id="edge17_Node000005_Node000015" class="edge">
<title>Node5&#45;&gt;Node15</title>
<g id="a_edge17_Node000005_Node000015"><a xlink:title=" ">
<path fill="none" stroke="#63b8ff" d="M289.61,-166.19C336.67,-158.42 412.38,-145.29 486.87,-129.12"/>
<polygon fill="#63b8ff" stroke="#63b8ff" points="487.88,-132.48 496.9,-126.92 486.38,-125.64 487.88,-132.48"/>
</a>
</g>
</g>
<!-- Node7 -->
<g id="Node000007" class="node">
<title>Node7</title>
<g id="a_Node000007"><a xlink:title=" ">
<polygon fill="#e0e0e0" stroke="#999999" points="298,-74 166,-74 166,-55 298,-55 298,-74"/>
<text text-anchor="middle" x="232" y="-62" font-family="Helvetica,sans-Serif" font-size="10.00">tinyformat/tinyformat.h</text>
</a>
</g>
</g>
<!-- Node6&#45;&gt;Node7 -->
<g id="edge7_Node000006_Node000007" class="edge">
<title>Node6&#45;&gt;Node7</title>
<g id="a_edge7_Node000006_Node000007"><a xlink:title=" ">
<path fill="none" stroke="#63b8ff" d="M242.02,-109.75C240.43,-102.72 238.14,-92.62 236.15,-83.84"/>
<polygon fill="#63b8ff" stroke="#63b8ff" points="239.57,-83.07 233.94,-74.09 232.74,-84.62 239.57,-83.07"/>
</a>
</g>
</g>
<!-- Node8 -->
<g id="Node000008" class="node">
<title>Node8</title>
<g id="a_Node000008"><a xlink:href="print_8hpp.html" target="_top" xlink:title="Printing helpers for std types.">
<polygon fill="white" stroke="#666666" points="376,-74 316,-74 316,-55 376,-55 376,-74"/>
<text text-anchor="middle" x="346" y="-62" font-family="Helvetica,sans-Serif" font-size="10.00">print.hpp</text>
</a>
</g>
</g>
<!-- Node6&#45;&gt;Node8 -->
<g id="edge8_Node000006_Node000008" class="edge">
<title>Node6&#45;&gt;Node8</title>
<g id="a_edge8_Node000006_Node000008"><a xlink:title=" ">
<path fill="none" stroke="#63b8ff" d="M260.39,-109.98C276.57,-101.57 301.57,-88.59 320.38,-78.81"/>
<polygon fill="#63b8ff" stroke="#63b8ff" points="322.05,-81.89 329.31,-74.17 318.83,-75.68 322.05,-81.89"/>
</a>
</g>
</g>
<!-- Node8&#45;&gt;Node3 -->
<g id="edge10_Node000008_Node000003" class="edge">
<title>Node8&#45;&gt;Node3</title>
<g id="a_edge10_Node000008_Node000003"><a xlink:title=" ">
<path fill="none" stroke="#63b8ff" d="M315.76,-55.79C277.3,-45.99 211.13,-29.13 171.28,-18.98"/>
<polygon fill="#63b8ff" stroke="#63b8ff" points="172.06,-15.57 161.51,-16.49 170.33,-22.35 172.06,-15.57"/>
</a>
</g>
</g>
<!-- Node9 -->
<g id="Node000009" class="node">
<title>Node9</title>
<g id="a_Node000009"><a xlink:title=" ">
<polygon fill="#e0e0e0" stroke="#999999" points="276,-19 216,-19 216,0 276,0 276,-19"/>
<text text-anchor="middle" x="246" y="-7" font-family="Helvetica,sans-Serif" font-size="10.00">iostream</text>
</a>
</g>
</g>
<!-- Node8&#45;&gt;Node9 -->
<g id="edge9_Node000008_Node000009" class="edge">
<title>Node8&#45;&gt;Node9</title>
<g id="a_edge9_Node000008_Node000009"><a xlink:title=" ">
<path fill="none" stroke="#63b8ff" d="M329.93,-54.98C314.14,-46.61 289.78,-33.7 271.37,-23.95"/>
<polygon fill="#63b8ff" stroke="#63b8ff" points="272.83,-20.76 262.36,-19.17 269.56,-26.95 272.83,-20.76"/>
</a>
</g>
</g>
<!-- Node10 -->
<g id="Node000010" class="node">
<title>Node10</title>
<g id="a_Node000010"><a xlink:title=" ">
<polygon fill="#e0e0e0" stroke="#999999" points="336,-19 294,-19 294,0 336,0 336,-19"/>
<text text-anchor="middle" x="315" y="-7" font-family="Helvetica,sans-Serif" font-size="10.00">array</text>
</a>
</g>
</g>
<!-- Node8&#45;&gt;Node10 -->
<g id="edge11_Node000008_Node000010" class="edge">
<title>Node8&#45;&gt;Node10</title>
<g id="a_edge11_Node000008_Node000010"><a xlink:title=" ">
<path fill="none" stroke="#63b8ff" d="M340.88,-54.75C336.64,-47.49 330.47,-36.95 325.22,-27.98"/>
<polygon fill="#63b8ff" stroke="#63b8ff" points="328.09,-25.95 320.02,-19.09 322.05,-29.49 328.09,-25.95"/>
</a>
</g>
</g>
<!-- Node11 -->
<g id="Node000011" class="node">
<title>Node11</title>
<g id="a_Node000011"><a xlink:title=" ">
<polygon fill="#e0e0e0" stroke="#999999" points="399.5,-19 354.5,-19 354.5,0 399.5,0 399.5,-19"/>
<text text-anchor="middle" x="377" y="-7" font-family="Helvetica,sans-Serif" font-size="10.00">utility</text>
</a>
</g>
</g>
<!-- Node8&#45;&gt;Node11 -->
<g id="edge12_Node000008_Node000011" class="edge">
<title>Node8&#45;&gt;Node11</title>
<g id="a_edge12_Node000008_Node000011"><a xlink:title=" ">
<path fill="none" stroke="#63b8ff" d="M351.12,-54.75C355.36,-47.49 361.53,-36.95 366.78,-27.98"/>
<polygon fill="#63b8ff" stroke="#63b8ff" points="369.95,-29.49 371.98,-19.09 363.91,-25.95 369.95,-29.49"/>
</a>
</g>
</g>
<!-- Node12 -->
<g id="Node000012" class="node">
<title>Node12</title>
<g id="a_Node000012"><a xlink:title=" ">
<polygon fill="#e0e0e0" stroke="#999999" points="458.5,-19 417.5,-19 417.5,0 458.5,0 458.5,-19"/>
<text text-anchor="middle" x="438" y="-7" font-family="Helvetica,sans-Serif" font-size="10.00">tuple</text>
</a>
</g>
</g>
<!-- Node8&#45;&gt;Node12 -->
<g id="edge13_Node000008_Node000012" class="edge">
<title>Node8&#45;&gt;Node12</title>
<g id="a_edge13_Node000008_Node000012"><a xlink:title=" ">
<path fill="none" stroke="#63b8ff" d="M360.78,-54.98C375.18,-46.69 397.31,-33.94 414.19,-24.22"/>
<polygon fill="#63b8ff" stroke="#63b8ff" points="416.03,-27.19 422.95,-19.17 412.54,-21.13 416.03,-27.19"/>
</a>
</g>
</g>
</g>
</svg>
