<?xml version="1.0" encoding="UTF-8" standalone="no"?>
<!DOCTYPE svg PUBLIC "-//W3C//DTD SVG 1.1//EN"
 "http://www.w3.org/Graphics/SVG/1.1/DTD/svg11.dtd">
<!-- Generated by graphviz version 2.43.0 (0)
 -->
<!-- Title: include/medusa/bits/domains/discretization_helpers.hpp Pages: 1 -->
<svg width="1814pt" height="533pt"
 viewBox="0.00 0.00 1814.00 533.00" xmlns="http://www.w3.org/2000/svg" xmlns:xlink="http://www.w3.org/1999/xlink">
<g id="graph0" class="graph" transform="scale(1 1) rotate(0) translate(4 529)">
<title>include/medusa/bits/domains/discretization_helpers.hpp</title>
<!-- Node1 -->
<g id="Node000001" class="node">
<title>Node1</title>
<g id="a_Node000001"><a xlink:title="Contains helpers for discretizing various geometric objects.">
<polygon fill="#999999" stroke="#666666" points="1057,-525 926,-525 926,-484 1057,-484 1057,-525"/>
<text text-anchor="start" x="934" y="-513" font-family="Helvetica,sans-Serif" font-size="10.00">include/medusa/bits</text>
<text text-anchor="start" x="934" y="-502" font-family="Helvetica,sans-Serif" font-size="10.00">/domains/discretization</text>
<text text-anchor="middle" x="991.5" y="-491" font-family="Helvetica,sans-Serif" font-size="10.00">_helpers.hpp</text>
</a>
</g>
</g>
<!-- Node2 -->
<g id="Node000002" class="node">
<title>Node2</title>
<g id="a_Node000002"><a xlink:href="BallShape_8hpp.html" target="_top" xlink:title="Implementation of class for ball shaped domains.">
<polygon fill="white" stroke="#666666" points="717.5,-376.5 583.5,-376.5 583.5,-346.5 717.5,-346.5 717.5,-376.5"/>
<text text-anchor="start" x="591.5" y="-364.5" font-family="Helvetica,sans-Serif" font-size="10.00">include/medusa/bits</text>
<text text-anchor="middle" x="650.5" y="-353.5" font-family="Helvetica,sans-Serif" font-size="10.00">/domains/BallShape.hpp</text>
</a>
</g>
</g>
<!-- Node1&#45;&gt;Node2 -->
<g id="edge1_Node000001_Node000002" class="edge">
<title>Node1&#45;&gt;Node2</title>
<g id="a_edge1_Node000001_Node000002"><a xlink:title=" ">
<path fill="none" stroke="#63b8ff" d="M915.88,-491.56C872.33,-482.95 817.32,-469.08 771.5,-448 730.37,-429.08 688.6,-395.76 666.51,-376.79"/>
<polygon fill="#63b8ff" stroke="#63b8ff" points="915.36,-495.02 925.84,-493.47 916.68,-488.15 915.36,-495.02"/>
</a>
</g>
</g>
<!-- Node6 -->
<g id="Node000006" class="node">
<title>Node6</title>
<g id="a_Node000006"><a xlink:href="BoxShape_8hpp.html" target="_top" xlink:title="Implementation of class for box shaped domains.">
<polygon fill="white" stroke="#666666" points="552.5,-376.5 418.5,-376.5 418.5,-346.5 552.5,-346.5 552.5,-376.5"/>
<text text-anchor="start" x="426.5" y="-364.5" font-family="Helvetica,sans-Serif" font-size="10.00">include/medusa/bits</text>
<text text-anchor="middle" x="485.5" y="-353.5" font-family="Helvetica,sans-Serif" font-size="10.00">/domains/BoxShape.hpp</text>
</a>
</g>
</g>
<!-- Node1&#45;&gt;Node6 -->
<g id="edge5_Node000001_Node000006" class="edge">
<title>Node1&#45;&gt;Node6</title>
<g id="a_edge5_Node000001_Node000006"><a xlink:title=" ">
<path fill="none" stroke="#63b8ff" d="M915.69,-491.26C860.49,-481.59 784.21,-466.62 718.5,-448 645.95,-427.44 563.71,-395.04 518.93,-376.59"/>
<polygon fill="#63b8ff" stroke="#63b8ff" points="915.29,-494.75 925.75,-493.01 916.49,-487.85 915.29,-494.75"/>
</a>
</g>
</g>
<!-- Node16 -->
<g id="Node000016" class="node">
<title>Node16</title>
<g id="a_Node000016"><a xlink:href="GeneralFill_8hpp.html" target="_top" xlink:title="Implementation of the general node placing algorithm.">
<polygon fill="white" stroke="#666666" points="918.5,-448 780.5,-448 780.5,-418 918.5,-418 918.5,-448"/>
<text text-anchor="start" x="788.5" y="-436" font-family="Helvetica,sans-Serif" font-size="10.00">include/medusa/bits</text>
<text text-anchor="middle" x="849.5" y="-425" font-family="Helvetica,sans-Serif" font-size="10.00">/domains/GeneralFill.hpp</text>
</a>
</g>
</g>
<!-- Node1&#45;&gt;Node16 -->
<g id="edge23_Node000001_Node000016" class="edge">
<title>Node1&#45;&gt;Node16</title>
<g id="a_edge23_Node000001_Node000016"><a xlink:title=" ">
<path fill="none" stroke="#63b8ff" d="M942.31,-479.42C920.96,-468.98 896.7,-457.1 878.33,-448.11"/>
<polygon fill="#63b8ff" stroke="#63b8ff" points="941.05,-482.7 951.57,-483.96 944.12,-476.42 941.05,-482.7"/>
</a>
</g>
</g>
<!-- Node17 -->
<g id="Node000017" class="node">
<title>Node17</title>
<g id="a_Node000017"><a xlink:href="PolyhedronShape__fwd_8hpp.html" target="_top" xlink:title="Implementation of shape representing polyhedrons.">
<polygon fill="white" stroke="#666666" points="1254,-305 1105,-305 1105,-264 1254,-264 1254,-305"/>
<text text-anchor="start" x="1113" y="-293" font-family="Helvetica,sans-Serif" font-size="10.00">include/medusa/bits</text>
<text text-anchor="start" x="1113" y="-282" font-family="Helvetica,sans-Serif" font-size="10.00">/domains/PolyhedronShape</text>
<text text-anchor="middle" x="1179.5" y="-271" font-family="Helvetica,sans-Serif" font-size="10.00">_fwd.hpp</text>
</a>
</g>
</g>
<!-- Node1&#45;&gt;Node17 -->
<g id="edge50_Node000001_Node000017" class="edge">
<title>Node1&#45;&gt;Node17</title>
<g id="a_edge50_Node000001_Node000017"><a xlink:title=" ">
<path fill="none" stroke="#63b8ff" d="M1043.32,-479.25C1081.41,-458.71 1131.25,-425.64 1159.5,-382 1174.66,-358.59 1178.62,-325.87 1179.5,-305.18"/>
<polygon fill="#63b8ff" stroke="#63b8ff" points="1041.62,-476.19 1034.41,-483.94 1044.89,-482.38 1041.62,-476.19"/>
</a>
</g>
</g>
<!-- Node24 -->
<g id="Node000024" class="node">
<title>Node24</title>
<g id="a_Node000024"><a xlink:href="GeneralSurfaceFill_8hpp.html" target="_top" xlink:title="Implementation of the general node placing algorithm for parametrically given surfaces.">
<polygon fill="white" stroke="#666666" points="863,-222.5 688,-222.5 688,-192.5 863,-192.5 863,-222.5"/>
<text text-anchor="start" x="696" y="-210.5" font-family="Helvetica,sans-Serif" font-size="10.00">include/medusa/bits</text>
<text text-anchor="middle" x="775.5" y="-199.5" font-family="Helvetica,sans-Serif" font-size="10.00">/domains/GeneralSurfaceFill.hpp</text>
</a>
</g>
</g>
<!-- Node1&#45;&gt;Node24 -->
<g id="edge36_Node000001_Node000024" class="edge">
<title>Node1&#45;&gt;Node24</title>
<g id="a_edge36_Node000001_Node000024"><a xlink:title=" ">
<path fill="none" stroke="#63b8ff" d="M986.15,-474.07C978.84,-439.73 963.23,-382.4 934.5,-341 897.62,-287.86 834,-243.94 799.47,-222.55"/>
<polygon fill="#63b8ff" stroke="#63b8ff" points="982.74,-474.84 988.16,-483.94 989.59,-473.45 982.74,-474.84"/>
</a>
</g>
</g>
<!-- Node26 -->
<g id="Node000026" class="node">
<title>Node26</title>
<g id="a_Node000026"><a xlink:href="GrainDropFill_8hpp.html" target="_top" xlink:title="Implementation of the GrainDropFill fill engine.">
<polygon fill="white" stroke="#666666" points="1664,-448 1515,-448 1515,-418 1664,-418 1664,-448"/>
<text text-anchor="start" x="1523" y="-436" font-family="Helvetica,sans-Serif" font-size="10.00">include/medusa/bits</text>
<text text-anchor="middle" x="1589.5" y="-425" font-family="Helvetica,sans-Serif" font-size="10.00">/domains/GrainDropFill.hpp</text>
</a>
</g>
</g>
<!-- Node1&#45;&gt;Node26 -->
<g id="edge40_Node000001_Node000026" class="edge">
<title>Node1&#45;&gt;Node26</title>
<g id="a_edge40_Node000001_Node000026"><a xlink:title=" ">
<path fill="none" stroke="#63b8ff" d="M1067.35,-494.68C1182.55,-481.3 1400.3,-455.99 1514.81,-442.68"/>
<polygon fill="#63b8ff" stroke="#63b8ff" points="1066.74,-491.23 1057.21,-495.86 1067.54,-498.19 1066.74,-491.23"/>
</a>
</g>
</g>
<!-- Node28 -->
<g id="Node000028" class="node">
<title>Node28</title>
<g id="a_Node000028"><a xlink:href="PolygonShape_8hpp.html" target="_top" xlink:title="Implementation of PolygonShape class.">
<polygon fill="white" stroke="#666666" points="1363,-448 1208,-448 1208,-418 1363,-418 1363,-448"/>
<text text-anchor="start" x="1216" y="-436" font-family="Helvetica,sans-Serif" font-size="10.00">include/medusa/bits</text>
<text text-anchor="middle" x="1285.5" y="-425" font-family="Helvetica,sans-Serif" font-size="10.00">/domains/PolygonShape.hpp</text>
</a>
</g>
</g>
<!-- Node1&#45;&gt;Node28 -->
<g id="edge42_Node000001_Node000028" class="edge">
<title>Node1&#45;&gt;Node28</title>
<g id="a_edge42_Node000001_Node000028"><a xlink:title=" ">
<path fill="none" stroke="#63b8ff" d="M1067.12,-485.62C1116.57,-473.93 1180.26,-458.88 1226.08,-448.05"/>
<polygon fill="#63b8ff" stroke="#63b8ff" points="1066.04,-482.28 1057.11,-487.99 1067.65,-489.09 1066.04,-482.28"/>
</a>
</g>
</g>
<!-- Node3 -->
<g id="Node000003" class="node">
<title>Node3</title>
<g id="a_Node000003"><a xlink:href="Domain_8hpp.html" target="_top" xlink:title="Header for Domain module.">
<polygon fill="white" stroke="#666666" points="663.5,-79.5 507.5,-79.5 507.5,-60.5 663.5,-60.5 663.5,-79.5"/>
<text text-anchor="middle" x="585.5" y="-67.5" font-family="Helvetica,sans-Serif" font-size="10.00">include/medusa/Domain.hpp</text>
</a>
</g>
</g>
<!-- Node2&#45;&gt;Node3 -->
<g id="edge2_Node000002_Node000003" class="edge">
<title>Node2&#45;&gt;Node3</title>
<g id="a_edge2_Node000002_Node000003"><a xlink:title=" ">
<path fill="none" stroke="#63b8ff" d="M605.51,-341.31C590.66,-332.54 575.82,-320.57 567.5,-305 546.09,-264.93 575.64,-117.11 583.61,-79.67"/>
<polygon fill="#63b8ff" stroke="#63b8ff" points="604.26,-344.61 614.71,-346.35 607.62,-338.47 604.26,-344.61"/>
</a>
</g>
</g>
<!-- Node5 -->
<g id="Node000005" class="node">
<title>Node5</title>
<g id="a_Node000005"><a xlink:href="BallShape_8cpp.html" target="_top" xlink:title="Instantiation of class for ball shaped domains.">
<polygon fill="white" stroke="#666666" points="724.5,-294 576.5,-294 576.5,-275 724.5,-275 724.5,-294"/>
<text text-anchor="middle" x="650.5" y="-282" font-family="Helvetica,sans-Serif" font-size="10.00">src/domains/BallShape.cpp</text>
</a>
</g>
</g>
<!-- Node2&#45;&gt;Node5 -->
<g id="edge4_Node000002_Node000005" class="edge">
<title>Node2&#45;&gt;Node5</title>
<g id="a_edge4_Node000002_Node000005"><a xlink:title=" ">
<path fill="none" stroke="#63b8ff" d="M650.5,-336.18C650.5,-321.86 650.5,-304.61 650.5,-294.37"/>
<polygon fill="#63b8ff" stroke="#63b8ff" points="647,-336.39 650.5,-346.39 654,-336.39 647,-336.39"/>
</a>
</g>
</g>
<!-- Node4 -->
<g id="Node000004" class="node">
<title>Node4</title>
<g id="a_Node000004"><a xlink:href="Medusa_8hpp.html" target="_top" xlink:title="Main header file that includes most other components.">
<polygon fill="white" stroke="#666666" points="404.5,-19 248.5,-19 248.5,0 404.5,0 404.5,-19"/>
<text text-anchor="middle" x="326.5" y="-7" font-family="Helvetica,sans-Serif" font-size="10.00">include/medusa/Medusa.hpp</text>
</a>
</g>
</g>
<!-- Node3&#45;&gt;Node4 -->
<g id="edge3_Node000003_Node000004" class="edge">
<title>Node3&#45;&gt;Node4</title>
<g id="a_edge3_Node000003_Node000004"><a xlink:title=" ">
<path fill="none" stroke="#63b8ff" d="M537.91,-58.25C487.88,-46.95 410.17,-29.4 364.21,-19.02"/>
<polygon fill="#63b8ff" stroke="#63b8ff" points="537.31,-61.7 547.84,-60.49 538.86,-54.88 537.31,-61.7"/>
</a>
</g>
</g>
<!-- Node6&#45;&gt;Node3 -->
<g id="edge6_Node000006_Node000003" class="edge">
<title>Node6&#45;&gt;Node3</title>
<g id="a_edge6_Node000006_Node000003"><a xlink:title=" ">
<path fill="none" stroke="#63b8ff" d="M493.19,-336.81C507.25,-293.71 538.28,-199.62 566.5,-121 571.71,-106.49 578.15,-89.78 582.04,-79.81"/>
<polygon fill="#63b8ff" stroke="#63b8ff" points="489.84,-335.81 490.07,-346.4 496.49,-337.97 489.84,-335.81"/>
</a>
</g>
</g>
<!-- Node7 -->
<g id="Node000007" class="node">
<title>Node7</title>
<g id="a_Node000007"><a xlink:href="NURBSPatch__fwd_8hpp.html" target="_top" xlink:title="Declaration of the NURBS patch class.">
<polygon fill="white" stroke="#666666" points="429,-305 304,-305 304,-264 429,-264 429,-305"/>
<text text-anchor="start" x="312" y="-293" font-family="Helvetica,sans-Serif" font-size="10.00">include/medusa/bits</text>
<text text-anchor="start" x="312" y="-282" font-family="Helvetica,sans-Serif" font-size="10.00">/domains/NURBSPatch</text>
<text text-anchor="middle" x="366.5" y="-271" font-family="Helvetica,sans-Serif" font-size="10.00">_fwd.hpp</text>
</a>
</g>
</g>
<!-- Node6&#45;&gt;Node7 -->
<g id="edge7_Node000006_Node000007" class="edge">
<title>Node6&#45;&gt;Node7</title>
<g id="a_edge7_Node000006_Node000007"><a xlink:title=" ">
<path fill="none" stroke="#63b8ff" d="M454.42,-340.91C436.97,-329.91 415.25,-316.22 397.76,-305.2"/>
<polygon fill="#63b8ff" stroke="#63b8ff" points="452.79,-344.02 463.12,-346.39 456.52,-338.1 452.79,-344.02"/>
</a>
</g>
</g>
<!-- Node11 -->
<g id="Node000011" class="node">
<title>Node11</title>
<g id="a_Node000011"><a xlink:href="NURBSShape_8hpp.html" target="_top" xlink:title="Implementation of NURBSShape class.">
<polygon fill="white" stroke="#666666" points="519.5,-151 369.5,-151 369.5,-121 519.5,-121 519.5,-151"/>
<text text-anchor="start" x="377.5" y="-139" font-family="Helvetica,sans-Serif" font-size="10.00">include/medusa/bits</text>
<text text-anchor="middle" x="444.5" y="-128" font-family="Helvetica,sans-Serif" font-size="10.00">/domains/NURBSShape.hpp</text>
</a>
</g>
</g>
<!-- Node6&#45;&gt;Node11 -->
<g id="edge21_Node000006_Node000011" class="edge">
<title>Node6&#45;&gt;Node11</title>
<g id="a_edge21_Node000006_Node000011"><a xlink:title=" ">
<path fill="none" stroke="#63b8ff" d="M481.06,-336.32C472.51,-289.67 453.95,-188.52 447.11,-151.2"/>
<polygon fill="#63b8ff" stroke="#63b8ff" points="477.63,-336.97 482.87,-346.18 484.51,-335.71 477.63,-336.97"/>
</a>
</g>
</g>
<!-- Node15 -->
<g id="Node000015" class="node">
<title>Node15</title>
<g id="a_Node000015"><a xlink:href="BoxShape_8cpp.html" target="_top" xlink:title="Instantiation of class for box shaped domains.">
<polygon fill="white" stroke="#666666" points="285.5,-294 137.5,-294 137.5,-275 285.5,-275 285.5,-294"/>
<text text-anchor="middle" x="211.5" y="-282" font-family="Helvetica,sans-Serif" font-size="10.00">src/domains/BoxShape.cpp</text>
</a>
</g>
</g>
<!-- Node6&#45;&gt;Node15 -->
<g id="edge22_Node000006_Node000015" class="edge">
<title>Node6&#45;&gt;Node15</title>
<g id="a_edge22_Node000006_Node000015"><a xlink:title=" ">
<path fill="none" stroke="#63b8ff" d="M424.43,-343.78C368.17,-328.38 286.93,-306.15 242.84,-294.08"/>
<polygon fill="#63b8ff" stroke="#63b8ff" points="423.71,-347.22 434.28,-346.48 425.56,-340.47 423.71,-347.22"/>
</a>
</g>
</g>
<!-- Node8 -->
<g id="Node000008" class="node">
<title>Node8</title>
<g id="a_Node000008"><a xlink:href="Domain__fwd_8hpp.html" target="_top" xlink:title="Header for Domain module, declarations only.">
<polygon fill="white" stroke="#666666" points="135,-151 0,-151 0,-121 135,-121 135,-151"/>
<text text-anchor="start" x="8" y="-139" font-family="Helvetica,sans-Serif" font-size="10.00">include/medusa/Domain</text>
<text text-anchor="middle" x="67.5" y="-128" font-family="Helvetica,sans-Serif" font-size="10.00">_fwd.hpp</text>
</a>
</g>
</g>
<!-- Node7&#45;&gt;Node8 -->
<g id="edge8_Node000007_Node000008" class="edge">
<title>Node7&#45;&gt;Node8</title>
<g id="a_edge8_Node000007_Node000008"><a xlink:title=" ">
<path fill="none" stroke="#63b8ff" d="M293.79,-264C222.18,-248.23 194.42,-265.37 136.5,-228 106.51,-208.65 84.58,-171.52 74.2,-151.18"/>
<polygon fill="#63b8ff" stroke="#63b8ff" points="293.17,-267.45 303.71,-266.33 294.78,-260.64 293.17,-267.45"/>
</a>
</g>
</g>
<!-- Node10 -->
<g id="Node000010" class="node">
<title>Node10</title>
<g id="a_Node000010"><a xlink:href="NURBSPatch_8hpp.html" target="_top" xlink:title="Implementation of the NURBS patch class.">
<polygon fill="white" stroke="#666666" points="439.5,-222.5 293.5,-222.5 293.5,-192.5 439.5,-192.5 439.5,-222.5"/>
<text text-anchor="start" x="301.5" y="-210.5" font-family="Helvetica,sans-Serif" font-size="10.00">include/medusa/bits</text>
<text text-anchor="middle" x="366.5" y="-199.5" font-family="Helvetica,sans-Serif" font-size="10.00">/domains/NURBSPatch.hpp</text>
</a>
</g>
</g>
<!-- Node7&#45;&gt;Node10 -->
<g id="edge12_Node000007_Node000010" class="edge">
<title>Node7&#45;&gt;Node10</title>
<g id="a_edge12_Node000007_Node000010"><a xlink:title=" ">
<path fill="none" stroke="#63b8ff" d="M366.5,-253.61C366.5,-243.01 366.5,-231.57 366.5,-222.86"/>
<polygon fill="#63b8ff" stroke="#63b8ff" points="363,-253.79 366.5,-263.79 370,-253.79 363,-253.79"/>
</a>
</g>
</g>
<!-- Node14 -->
<g id="Node000014" class="node">
<title>Node14</title>
<g id="a_Node000014"><a xlink:href="NURBSShape__fwd_8hpp.html" target="_top" xlink:title="Declaration of NURBSShape class.">
<polygon fill="white" stroke="#666666" points="275,-228 146,-228 146,-187 275,-187 275,-228"/>
<text text-anchor="start" x="154" y="-216" font-family="Helvetica,sans-Serif" font-size="10.00">include/medusa/bits</text>
<text text-anchor="start" x="154" y="-205" font-family="Helvetica,sans-Serif" font-size="10.00">/domains/NURBSShape</text>
<text text-anchor="middle" x="210.5" y="-194" font-family="Helvetica,sans-Serif" font-size="10.00">_fwd.hpp</text>
</a>
</g>
</g>
<!-- Node7&#45;&gt;Node14 -->
<g id="edge18_Node000007_Node000014" class="edge">
<title>Node7&#45;&gt;Node14</title>
<g id="a_edge18_Node000007_Node000014"><a xlink:title=" ">
<path fill="none" stroke="#63b8ff" d="M316.76,-259.59C295.59,-249.41 271.21,-237.69 251.15,-228.04"/>
<polygon fill="#63b8ff" stroke="#63b8ff" points="315.39,-262.81 325.92,-263.99 318.42,-256.5 315.39,-262.81"/>
</a>
</g>
</g>
<!-- Node8&#45;&gt;Node3 -->
<g id="edge9_Node000008_Node000003" class="edge">
<title>Node8&#45;&gt;Node3</title>
<g id="a_edge9_Node000008_Node000003"><a xlink:title=" ">
<path fill="none" stroke="#63b8ff" d="M145.03,-121.62C146.53,-121.41 148.02,-121.2 149.5,-121 304,-99.87 343.91,-105.4 498.5,-85 510.48,-83.42 523.35,-81.48 535.43,-79.56"/>
<polygon fill="#63b8ff" stroke="#63b8ff" points="144.39,-118.18 135.01,-123.11 145.42,-125.11 144.39,-118.18"/>
</a>
</g>
</g>
<!-- Node9 -->
<g id="Node000009" class="node">
<title>Node9</title>
<g id="a_Node000009"><a xlink:href="Medusa__fwd_8hpp.html" target="_top" xlink:title="Main header file that includes only declarations for some heavy classes such as mm::WLS to reduce com...">
<polygon fill="white" stroke="#666666" points="221,-85 86,-85 86,-55 221,-55 221,-85"/>
<text text-anchor="start" x="94" y="-73" font-family="Helvetica,sans-Serif" font-size="10.00">include/medusa/Medusa</text>
<text text-anchor="middle" x="153.5" y="-62" font-family="Helvetica,sans-Serif" font-size="10.00">_fwd.hpp</text>
</a>
</g>
</g>
<!-- Node8&#45;&gt;Node9 -->
<g id="edge10_Node000008_Node000009" class="edge">
<title>Node8&#45;&gt;Node9</title>
<g id="a_edge10_Node000008_Node000009"><a xlink:title=" ">
<path fill="none" stroke="#63b8ff" d="M94.71,-114.75C107.64,-105.13 122.79,-93.86 134.47,-85.16"/>
<polygon fill="#63b8ff" stroke="#63b8ff" points="92.52,-112.02 86.59,-120.8 96.7,-117.63 92.52,-112.02"/>
</a>
</g>
</g>
<!-- Node9&#45;&gt;Node4 -->
<g id="edge11_Node000009_Node000004" class="edge">
<title>Node9&#45;&gt;Node4</title>
<g id="a_edge11_Node000009_Node000004"><a xlink:title=" ">
<path fill="none" stroke="#63b8ff" d="M204.54,-51.74C236.36,-40.98 275.93,-27.6 301.2,-19.05"/>
<polygon fill="#63b8ff" stroke="#63b8ff" points="203.29,-48.47 194.94,-54.99 205.53,-55.1 203.29,-48.47"/>
</a>
</g>
</g>
<!-- Node10&#45;&gt;Node3 -->
<g id="edge13_Node000010_Node000003" class="edge">
<title>Node10&#45;&gt;Node3</title>
<g id="a_edge13_Node000010_Node000003"><a xlink:title=" ">
<path fill="none" stroke="#63b8ff" d="M298.05,-190.04C248.79,-177.51 189.77,-160.79 182.5,-151 174.55,-140.3 173.62,-130.95 182.5,-121 229.56,-68.27 428.48,-94.62 498.5,-85 510.32,-83.38 523.02,-81.44 534.95,-79.54"/>
<polygon fill="#63b8ff" stroke="#63b8ff" points="297.21,-193.44 307.76,-192.49 298.92,-186.65 297.21,-193.44"/>
</a>
</g>
</g>
<!-- Node10&#45;&gt;Node11 -->
<g id="edge14_Node000010_Node000011" class="edge">
<title>Node10&#45;&gt;Node11</title>
<g id="a_edge14_Node000010_Node000011"><a xlink:title=" ">
<path fill="none" stroke="#63b8ff" d="M390.08,-185.49C402.6,-174.34 417.64,-160.93 428.74,-151.04"/>
<polygon fill="#63b8ff" stroke="#63b8ff" points="387.42,-183.17 382.28,-192.44 392.08,-188.4 387.42,-183.17"/>
</a>
</g>
</g>
<!-- Node13 -->
<g id="Node000013" class="node">
<title>Node13</title>
<g id="a_Node000013"><a xlink:href="NURBSPatch_8cpp.html" target="_top" xlink:title="Instantiations of commonly used NURBSPatch instances.">
<polygon fill="white" stroke="#666666" points="351.5,-145.5 191.5,-145.5 191.5,-126.5 351.5,-126.5 351.5,-145.5"/>
<text text-anchor="middle" x="271.5" y="-133.5" font-family="Helvetica,sans-Serif" font-size="10.00">src/domains/NURBSPatch.cpp</text>
</a>
</g>
</g>
<!-- Node10&#45;&gt;Node13 -->
<g id="edge17_Node000010_Node000013" class="edge">
<title>Node10&#45;&gt;Node13</title>
<g id="a_edge17_Node000010_Node000013"><a xlink:title=" ">
<path fill="none" stroke="#63b8ff" d="M339.17,-186.5C320.64,-172.95 297.08,-155.71 283.21,-145.57"/>
<polygon fill="#63b8ff" stroke="#63b8ff" points="337.14,-189.36 347.28,-192.44 341.27,-183.71 337.14,-189.36"/>
</a>
</g>
</g>
<!-- Node11&#45;&gt;Node3 -->
<g id="edge15_Node000011_Node000003" class="edge">
<title>Node11&#45;&gt;Node3</title>
<g id="a_edge15_Node000011_Node000003"><a xlink:title=" ">
<path fill="none" stroke="#63b8ff" d="M484.64,-116.78C511.6,-104.54 545.88,-88.98 566.74,-79.52"/>
<polygon fill="#63b8ff" stroke="#63b8ff" points="483.1,-113.63 475.44,-120.95 486,-120.01 483.1,-113.63"/>
</a>
</g>
</g>
<!-- Node12 -->
<g id="Node000012" class="node">
<title>Node12</title>
<g id="a_Node000012"><a xlink:href="NURBSShape_8cpp.html" target="_top" xlink:title="Instantiations of commonly used NURBSShape instances.">
<polygon fill="white" stroke="#666666" points="489.5,-79.5 325.5,-79.5 325.5,-60.5 489.5,-60.5 489.5,-79.5"/>
<text text-anchor="middle" x="407.5" y="-67.5" font-family="Helvetica,sans-Serif" font-size="10.00">src/domains/NURBSShape.cpp</text>
</a>
</g>
</g>
<!-- Node11&#45;&gt;Node12 -->
<g id="edge16_Node000011_Node000012" class="edge">
<title>Node11&#45;&gt;Node12</title>
<g id="a_edge16_Node000011_Node000012"><a xlink:title=" ">
<path fill="none" stroke="#63b8ff" d="M431.17,-111.95C424.74,-100.81 417.39,-88.11 412.61,-79.84"/>
<polygon fill="#63b8ff" stroke="#63b8ff" points="428.25,-113.89 436.29,-120.8 434.31,-110.39 428.25,-113.89"/>
</a>
</g>
</g>
<!-- Node14&#45;&gt;Node8 -->
<g id="edge19_Node000014_Node000008" class="edge">
<title>Node14&#45;&gt;Node8</title>
<g id="a_edge19_Node000014_Node000008"><a xlink:title=" ">
<path fill="none" stroke="#63b8ff" d="M161.25,-182.56C139.68,-172.08 115.11,-160.14 96.54,-151.11"/>
<polygon fill="#63b8ff" stroke="#63b8ff" points="159.76,-185.73 170.29,-186.96 162.82,-179.44 159.76,-185.73"/>
</a>
</g>
</g>
<!-- Node14&#45;&gt;Node11 -->
<g id="edge20_Node000014_Node000011" class="edge">
<title>Node14&#45;&gt;Node11</title>
<g id="a_edge20_Node000014_Node000011"><a xlink:title=" ">
<path fill="none" stroke="#63b8ff" d="M284.76,-184.44C321.59,-173.5 364.97,-160.62 397.22,-151.04"/>
<polygon fill="#63b8ff" stroke="#63b8ff" points="283.65,-181.12 275.06,-187.32 285.64,-187.83 283.65,-181.12"/>
</a>
</g>
</g>
<!-- Node16&#45;&gt;Node2 -->
<g id="edge25_Node000016_Node000002" class="edge">
<title>Node16&#45;&gt;Node2</title>
<g id="a_edge25_Node000016_Node000002"><a xlink:title=" ">
<path fill="none" stroke="#63b8ff" d="M799.58,-414.57C765.93,-402.81 722.12,-387.51 690.71,-376.54"/>
<polygon fill="#63b8ff" stroke="#63b8ff" points="798.63,-417.94 809.23,-417.94 800.94,-411.33 798.63,-417.94"/>
</a>
</g>
</g>
<!-- Node16&#45;&gt;Node3 -->
<g id="edge24_Node000016_Node000003" class="edge">
<title>Node16&#45;&gt;Node3</title>
<g id="a_edge24_Node000016_Node000003"><a xlink:title=" ">
<path fill="none" stroke="#63b8ff" d="M803.01,-413.17C788.85,-405.41 774.42,-395.1 764.5,-382 731.77,-338.77 765.19,-308 733.5,-264 716.43,-240.29 698.69,-249.12 678.5,-228 632.52,-179.92 599.4,-105.07 588.98,-79.73"/>
<polygon fill="#63b8ff" stroke="#63b8ff" points="801.73,-416.45 812.23,-417.91 804.94,-410.23 801.73,-416.45"/>
</a>
</g>
</g>
<!-- Node16&#45;&gt;Node6 -->
<g id="edge26_Node000016_Node000006" class="edge">
<title>Node16&#45;&gt;Node6</title>
<g id="a_edge26_Node000016_Node000006"><a xlink:title=" ">
<path fill="none" stroke="#63b8ff" d="M770.39,-418.39C715.36,-408.73 640.34,-395.19 574.5,-382 565.97,-380.29 557,-378.42 548.17,-376.53"/>
<polygon fill="#63b8ff" stroke="#63b8ff" points="769.98,-421.87 780.43,-420.15 771.18,-414.98 769.98,-421.87"/>
</a>
</g>
</g>
<!-- Node16&#45;&gt;Node17 -->
<g id="edge27_Node000016_Node000017" class="edge">
<title>Node16&#45;&gt;Node17</title>
<g id="a_edge27_Node000016_Node000017"><a xlink:title=" ">
<path fill="none" stroke="#63b8ff" d="M882.72,-412.76C925.96,-387.79 997.54,-346.72 1010.5,-341 1042.28,-326.96 1078.77,-314.55 1109.68,-305.04"/>
<polygon fill="#63b8ff" stroke="#63b8ff" points="880.87,-409.79 873.96,-417.82 884.37,-415.85 880.87,-409.79"/>
</a>
</g>
</g>
<!-- Node20 -->
<g id="Node000020" class="node">
<title>Node20</title>
<g id="a_Node000020"><a xlink:href="discretization__helpers__advanced_8hpp.html" target="_top" xlink:title="Contains helpers for discretizing various geometric objects that need more advanced parts of Medusa t...">
<polygon fill="white" stroke="#666666" points="1151,-382 1020,-382 1020,-341 1151,-341 1151,-382"/>
<text text-anchor="start" x="1028" y="-370" font-family="Helvetica,sans-Serif" font-size="10.00">include/medusa/bits</text>
<text text-anchor="start" x="1028" y="-359" font-family="Helvetica,sans-Serif" font-size="10.00">/domains/discretization</text>
<text text-anchor="middle" x="1085.5" y="-348" font-family="Helvetica,sans-Serif" font-size="10.00">_helpers_advanced.hpp</text>
</a>
</g>
</g>
<!-- Node16&#45;&gt;Node20 -->
<g id="edge30_Node000016_Node000020" class="edge">
<title>Node16&#45;&gt;Node20</title>
<g id="a_edge30_Node000016_Node000020"><a xlink:title=" ">
<path fill="none" stroke="#63b8ff" d="M907.07,-415.05C941.18,-405 984.51,-392.24 1019.93,-381.81"/>
<polygon fill="#63b8ff" stroke="#63b8ff" points="905.86,-411.75 897.26,-417.94 907.84,-418.47 905.86,-411.75"/>
</a>
</g>
</g>
<!-- Node23 -->
<g id="Node000023" class="node">
<title>Node23</title>
<g id="a_Node000023"><a xlink:href="GeneralFill_8cpp.html" target="_top" xlink:title="Instantiations of Poisson disk sampling algorithm.">
<polygon fill="white" stroke="#666666" points="925.5,-371 773.5,-371 773.5,-352 925.5,-352 925.5,-371"/>
<text text-anchor="middle" x="849.5" y="-359" font-family="Helvetica,sans-Serif" font-size="10.00">src/domains/GeneralFill.cpp</text>
</a>
</g>
</g>
<!-- Node16&#45;&gt;Node23 -->
<g id="edge35_Node000016_Node000023" class="edge">
<title>Node16&#45;&gt;Node23</title>
<g id="a_edge35_Node000016_Node000023"><a xlink:title=" ">
<path fill="none" stroke="#63b8ff" d="M849.5,-407.56C849.5,-394.95 849.5,-380.35 849.5,-371.27"/>
<polygon fill="#63b8ff" stroke="#63b8ff" points="846,-407.94 849.5,-417.94 853,-407.94 846,-407.94"/>
</a>
</g>
</g>
<!-- Node18 -->
<g id="Node000018" class="node">
<title>Node18</title>
<g id="a_Node000018"><a xlink:href="PolyhedronShape_8hpp_source.html" target="_top" xlink:title=" ">
<polygon fill="white" stroke="#666666" points="1253.5,-222.5 1083.5,-222.5 1083.5,-192.5 1253.5,-192.5 1253.5,-222.5"/>
<text text-anchor="start" x="1091.5" y="-210.5" font-family="Helvetica,sans-Serif" font-size="10.00">include/medusa/bits</text>
<text text-anchor="middle" x="1168.5" y="-199.5" font-family="Helvetica,sans-Serif" font-size="10.00">/domains/PolyhedronShape.hpp</text>
</a>
</g>
</g>
<!-- Node17&#45;&gt;Node18 -->
<g id="edge28_Node000017_Node000018" class="edge">
<title>Node17&#45;&gt;Node18</title>
<g id="a_edge28_Node000017_Node000018"><a xlink:title=" ">
<path fill="none" stroke="#63b8ff" d="M1175.12,-253.61C1173.56,-243.01 1171.88,-231.57 1170.61,-222.86"/>
<polygon fill="#63b8ff" stroke="#63b8ff" points="1171.7,-254.41 1176.61,-263.79 1178.62,-253.39 1171.7,-254.41"/>
</a>
</g>
</g>
<!-- Node19 -->
<g id="Node000019" class="node">
<title>Node19</title>
<g id="a_Node000019"><a xlink:href="PolyhedronShape_8cpp.html" target="_top" xlink:title="Instantiation of PolyhedronShape class.">
<polygon fill="white" stroke="#666666" points="1508.5,-145.5 1324.5,-145.5 1324.5,-126.5 1508.5,-126.5 1508.5,-145.5"/>
<text text-anchor="middle" x="1416.5" y="-133.5" font-family="Helvetica,sans-Serif" font-size="10.00">src/domains/PolyhedronShape.cpp</text>
</a>
</g>
</g>
<!-- Node18&#45;&gt;Node19 -->
<g id="edge29_Node000018_Node000019" class="edge">
<title>Node18&#45;&gt;Node19</title>
<g id="a_edge29_Node000018_Node000019"><a xlink:title=" ">
<path fill="none" stroke="#63b8ff" d="M1228.36,-189.72C1278.08,-175.79 1346.78,-156.54 1385.93,-145.57"/>
<polygon fill="#63b8ff" stroke="#63b8ff" points="1227.37,-186.37 1218.69,-192.44 1229.26,-193.11 1227.37,-186.37"/>
</a>
</g>
</g>
<!-- Node20&#45;&gt;Node17 -->
<g id="edge31_Node000020_Node000017" class="edge">
<title>Node20&#45;&gt;Node17</title>
<g id="a_edge31_Node000020_Node000017"><a xlink:title=" ">
<path fill="none" stroke="#63b8ff" d="M1118.28,-334.35C1130.33,-324.73 1143.76,-314.01 1154.97,-305.07"/>
<polygon fill="#63b8ff" stroke="#63b8ff" points="1115.83,-331.82 1110.2,-340.79 1120.2,-337.29 1115.83,-331.82"/>
</a>
</g>
</g>
<!-- Node21 -->
<g id="Node000021" class="node">
<title>Node21</title>
<g id="a_Node000021"><a xlink:href="STLShape_8hpp.html" target="_top" xlink:title="Implementation of STL shapes.">
<polygon fill="white" stroke="#666666" points="1087,-299.5 954,-299.5 954,-269.5 1087,-269.5 1087,-299.5"/>
<text text-anchor="start" x="962" y="-287.5" font-family="Helvetica,sans-Serif" font-size="10.00">include/medusa/bits</text>
<text text-anchor="middle" x="1020.5" y="-276.5" font-family="Helvetica,sans-Serif" font-size="10.00">/domains/STLShape.hpp</text>
</a>
</g>
</g>
<!-- Node20&#45;&gt;Node21 -->
<g id="edge32_Node000020_Node000021" class="edge">
<title>Node20&#45;&gt;Node21</title>
<g id="a_edge32_Node000020_Node000021"><a xlink:title=" ">
<path fill="none" stroke="#63b8ff" d="M1061.59,-332.92C1051.87,-321.7 1041.05,-309.21 1032.95,-299.86"/>
<polygon fill="#63b8ff" stroke="#63b8ff" points="1059.23,-335.53 1068.42,-340.79 1064.52,-330.95 1059.23,-335.53"/>
</a>
</g>
</g>
<!-- Node21&#45;&gt;Node3 -->
<g id="edge33_Node000021_Node000003" class="edge">
<title>Node21&#45;&gt;Node3</title>
<g id="a_edge33_Node000021_Node000003"><a xlink:title=" ">
<path fill="none" stroke="#63b8ff" d="M1032.78,-260.41C1042,-239.61 1050.79,-209.01 1036.5,-187 996.12,-124.78 781.91,-92.16 663.81,-78.67"/>
<polygon fill="#63b8ff" stroke="#63b8ff" points="1029.6,-258.95 1028.46,-269.48 1035.92,-261.96 1029.6,-258.95"/>
</a>
</g>
</g>
<!-- Node22 -->
<g id="Node000022" class="node">
<title>Node22</title>
<g id="a_Node000022"><a xlink:href="STLShape_8cpp.html" target="_top" xlink:title="Instantiation of class for STL domains.">
<polygon fill="white" stroke="#666666" points="1027.5,-217 881.5,-217 881.5,-198 1027.5,-198 1027.5,-217"/>
<text text-anchor="middle" x="954.5" y="-205" font-family="Helvetica,sans-Serif" font-size="10.00">src/domains/STLShape.cpp</text>
</a>
</g>
</g>
<!-- Node21&#45;&gt;Node22 -->
<g id="edge34_Node000021_Node000022" class="edge">
<title>Node21&#45;&gt;Node22</title>
<g id="a_edge34_Node000021_Node000022"><a xlink:title=" ">
<path fill="none" stroke="#63b8ff" d="M1001.29,-261.68C988.31,-246.92 971.85,-228.21 962.31,-217.37"/>
<polygon fill="#63b8ff" stroke="#63b8ff" points="998.85,-264.2 1008.09,-269.39 1004.11,-259.57 998.85,-264.2"/>
</a>
</g>
</g>
<!-- Node24&#45;&gt;Node3 -->
<g id="edge37_Node000024_Node000003" class="edge">
<title>Node24&#45;&gt;Node3</title>
<g id="a_edge37_Node000024_Node000003"><a xlink:title=" ">
<path fill="none" stroke="#63b8ff" d="M752.9,-185.5C732.83,-167.37 702.32,-141.02 673.5,-121 649.98,-104.66 620.73,-88.86 602.59,-79.53"/>
<polygon fill="#63b8ff" stroke="#63b8ff" points="750.55,-188.1 760.3,-192.25 755.27,-182.93 750.55,-188.1"/>
</a>
</g>
</g>
<!-- Node24&#45;&gt;Node11 -->
<g id="edge38_Node000024_Node000011" class="edge">
<title>Node24&#45;&gt;Node11</title>
<g id="a_edge38_Node000024_Node000011"><a xlink:title=" ">
<path fill="none" stroke="#63b8ff" d="M698.53,-190.34C641.85,-178.44 565.53,-162.41 511.38,-151.04"/>
<polygon fill="#63b8ff" stroke="#63b8ff" points="698.01,-193.81 708.52,-192.44 699.45,-186.96 698.01,-193.81"/>
</a>
</g>
</g>
<!-- Node25 -->
<g id="Node000025" class="node">
<title>Node25</title>
<g id="a_Node000025"><a xlink:href="GeneralSurfaceFill_8cpp.html" target="_top" xlink:title="Instantiations of commonly used GeneralSurfaceFill instances.">
<polygon fill="white" stroke="#666666" points="879.5,-151 725.5,-151 725.5,-121 879.5,-121 879.5,-151"/>
<text text-anchor="start" x="733.5" y="-139" font-family="Helvetica,sans-Serif" font-size="10.00">src/domains/GeneralSurface</text>
<text text-anchor="middle" x="802.5" y="-128" font-family="Helvetica,sans-Serif" font-size="10.00">Fill.cpp</text>
</a>
</g>
</g>
<!-- Node24&#45;&gt;Node25 -->
<g id="edge39_Node000024_Node000025" class="edge">
<title>Node24&#45;&gt;Node25</title>
<g id="a_edge39_Node000024_Node000025"><a xlink:title=" ">
<path fill="none" stroke="#63b8ff" d="M784.67,-182.9C788.78,-172.31 793.5,-160.18 797.04,-151.04"/>
<polygon fill="#63b8ff" stroke="#63b8ff" points="781.32,-181.85 780.96,-192.44 787.85,-184.38 781.32,-181.85"/>
</a>
</g>
</g>
<!-- Node27 -->
<g id="Node000027" class="node">
<title>Node27</title>
<g id="a_Node000027"><a xlink:href="GrainDropFill_8cpp.html" target="_top" xlink:title="Explicit instantiations for common parameters.">
<polygon fill="white" stroke="#666666" points="1806,-371 1643,-371 1643,-352 1806,-352 1806,-371"/>
<text text-anchor="middle" x="1724.5" y="-359" font-family="Helvetica,sans-Serif" font-size="10.00">src/domains/GrainDropFill.cpp</text>
</a>
</g>
</g>
<!-- Node26&#45;&gt;Node27 -->
<g id="edge41_Node000026_Node000027" class="edge">
<title>Node26&#45;&gt;Node27</title>
<g id="a_edge41_Node000026_Node000027"><a xlink:title=" ">
<path fill="none" stroke="#63b8ff" d="M1625.87,-413.28C1652.55,-399.54 1687.53,-381.53 1707.86,-371.07"/>
<polygon fill="#63b8ff" stroke="#63b8ff" points="1624.11,-410.25 1616.82,-417.94 1627.31,-416.47 1624.11,-410.25"/>
</a>
</g>
</g>
<!-- Node28&#45;&gt;Node3 -->
<g id="edge43_Node000028_Node000003" class="edge">
<title>Node28&#45;&gt;Node3</title>
<g id="a_edge43_Node000028_Node000003"><a xlink:title=" ">
<path fill="none" stroke="#63b8ff" d="M1277.62,-408.09C1275.24,-399.91 1272.89,-390.64 1271.5,-382 1257.71,-296.34 1318.43,-253.33 1262.5,-187 1186.59,-96.97 824.86,-76.81 663.51,-72.3"/>
<polygon fill="#63b8ff" stroke="#63b8ff" points="1274.3,-409.22 1280.58,-417.75 1280.99,-407.17 1274.3,-409.22"/>
</a>
</g>
</g>
<!-- Node28&#45;&gt;Node20 -->
<g id="edge48_Node000028_Node000020" class="edge">
<title>Node28&#45;&gt;Node20</title>
<g id="a_edge48_Node000028_Node000020"><a xlink:title=" ">
<path fill="none" stroke="#63b8ff" d="M1235.29,-414.55C1206.86,-404.67 1171.21,-392.28 1141.83,-382.07"/>
<polygon fill="#63b8ff" stroke="#63b8ff" points="1234.43,-417.96 1245.03,-417.94 1236.73,-411.35 1234.43,-417.96"/>
</a>
</g>
</g>
<!-- Node29 -->
<g id="Node000029" class="node">
<title>Node29</title>
<g id="a_Node000029"><a xlink:href="PolytopeShape_8hpp_source.html" target="_top" xlink:title=" ">
<polygon fill="white" stroke="#666666" points="1624.5,-376.5 1466.5,-376.5 1466.5,-346.5 1624.5,-346.5 1624.5,-376.5"/>
<text text-anchor="start" x="1474.5" y="-364.5" font-family="Helvetica,sans-Serif" font-size="10.00">include/medusa/bits</text>
<text text-anchor="middle" x="1545.5" y="-353.5" font-family="Helvetica,sans-Serif" font-size="10.00">/domains/PolytopeShape.hpp</text>
</a>
</g>
</g>
<!-- Node28&#45;&gt;Node29 -->
<g id="edge44_Node000028_Node000029" class="edge">
<title>Node28&#45;&gt;Node29</title>
<g id="a_edge44_Node000028_Node000029"><a xlink:title=" ">
<path fill="none" stroke="#63b8ff" d="M1347.91,-415.32C1392.22,-403.47 1451.05,-387.75 1492.96,-376.54"/>
<polygon fill="#63b8ff" stroke="#63b8ff" points="1346.87,-411.97 1338.11,-417.94 1348.68,-418.73 1346.87,-411.97"/>
</a>
</g>
</g>
<!-- Node31 -->
<g id="Node000031" class="node">
<title>Node31</title>
<g id="a_Node000031"><a xlink:href="PolygonShape_8cpp.html" target="_top" xlink:title="Instantiation of PolygonShape class.">
<polygon fill="white" stroke="#666666" points="1448.5,-371 1280.5,-371 1280.5,-352 1448.5,-352 1448.5,-371"/>
<text text-anchor="middle" x="1364.5" y="-359" font-family="Helvetica,sans-Serif" font-size="10.00">src/domains/PolygonShape.cpp</text>
</a>
</g>
</g>
<!-- Node28&#45;&gt;Node31 -->
<g id="edge49_Node000028_Node000031" class="edge">
<title>Node28&#45;&gt;Node31</title>
<g id="a_edge49_Node000028_Node000031"><a xlink:title=" ">
<path fill="none" stroke="#63b8ff" d="M1309.02,-411.31C1324.2,-397.95 1343.17,-381.26 1354.53,-371.27"/>
<polygon fill="#63b8ff" stroke="#63b8ff" points="1306.68,-408.7 1301.49,-417.94 1311.31,-413.96 1306.68,-408.7"/>
</a>
</g>
</g>
<!-- Node29&#45;&gt;Node17 -->
<g id="edge45_Node000029_Node000017" class="edge">
<title>Node29&#45;&gt;Node17</title>
<g id="a_edge45_Node000029_Node000017"><a xlink:title=" ">
<path fill="none" stroke="#63b8ff" d="M1472.97,-344.3C1467.74,-343.17 1462.54,-342.06 1457.5,-341 1388.75,-326.52 1310.23,-310.93 1254.22,-299.97"/>
<polygon fill="#63b8ff" stroke="#63b8ff" points="1472.52,-347.79 1483.04,-346.49 1474.01,-340.95 1472.52,-347.79"/>
</a>
</g>
</g>
<!-- Node29&#45;&gt;Node19 -->
<g id="edge46_Node000029_Node000019" class="edge">
<title>Node29&#45;&gt;Node19</title>
<g id="a_edge46_Node000029_Node000019"><a xlink:title=" ">
<path fill="none" stroke="#63b8ff" d="M1496.49,-341.86C1479.54,-333.1 1461.94,-320.99 1450.5,-305 1413.8,-253.69 1414.57,-172.15 1415.92,-145.64"/>
<polygon fill="#63b8ff" stroke="#63b8ff" points="1495.28,-345.16 1505.81,-346.38 1498.34,-338.86 1495.28,-345.16"/>
</a>
</g>
</g>
<!-- Node30 -->
<g id="Node000030" class="node">
<title>Node30</title>
<g id="a_Node000030"><a xlink:href="PolytopeShape_8cpp.html" target="_top" xlink:title="Instantiation of PolytopeShape class.">
<polygon fill="white" stroke="#666666" points="1631.5,-294 1459.5,-294 1459.5,-275 1631.5,-275 1631.5,-294"/>
<text text-anchor="middle" x="1545.5" y="-282" font-family="Helvetica,sans-Serif" font-size="10.00">src/domains/PolytopeShape.cpp</text>
</a>
</g>
</g>
<!-- Node29&#45;&gt;Node30 -->
<g id="edge47_Node000029_Node000030" class="edge">
<title>Node29&#45;&gt;Node30</title>
<g id="a_edge47_Node000029_Node000030"><a xlink:title=" ">
<path fill="none" stroke="#63b8ff" d="M1545.5,-336.18C1545.5,-321.86 1545.5,-304.61 1545.5,-294.37"/>
<polygon fill="#63b8ff" stroke="#63b8ff" points="1542,-336.39 1545.5,-346.39 1549,-336.39 1542,-336.39"/>
</a>
</g>
</g>
</g>
</svg>
