<?xml version="1.0" encoding="UTF-8" standalone="no"?>
<!DOCTYPE svg PUBLIC "-//W3C//DTD SVG 1.1//EN"
 "http://www.w3.org/Graphics/SVG/1.1/DTD/svg11.dtd">
<!-- Generated by graphviz version 2.43.0 (0)
 -->
<!-- Title: include/medusa/bits/domains/discretization_helpers_advanced.hpp Pages: 1 -->
<svg width="528pt" height="247pt"
 viewBox="0.00 0.00 528.00 247.00" xmlns="http://www.w3.org/2000/svg" xmlns:xlink="http://www.w3.org/1999/xlink">
<g id="graph0" class="graph" transform="scale(1 1) rotate(0) translate(4 243)">
<title>include/medusa/bits/domains/discretization_helpers_advanced.hpp</title>
<!-- Node1 -->
<g id="Node000001" class="node">
<title>Node1</title>
<g id="a_Node000001"><a xlink:title="Contains helpers for discretizing various geometric objects that need more advanced parts of Medusa t...">
<polygon fill="#999999" stroke="#666666" points="251.5,-239 120.5,-239 120.5,-198 251.5,-198 251.5,-239"/>
<text text-anchor="start" x="128.5" y="-227" font-family="Helvetica,sans-Serif" font-size="10.00">include/medusa/bits</text>
<text text-anchor="start" x="128.5" y="-216" font-family="Helvetica,sans-Serif" font-size="10.00">/domains/discretization</text>
<text text-anchor="middle" x="186" y="-205" font-family="Helvetica,sans-Serif" font-size="10.00">_helpers_advanced.hpp</text>
</a>
</g>
</g>
<!-- Node2 -->
<g id="Node000002" class="node">
<title>Node2</title>
<g id="a_Node000002"><a xlink:href="PolyhedronShape__fwd_8hpp.html" target="_top" xlink:title="Implementation of shape representing polyhedrons.">
<polygon fill="white" stroke="#666666" points="181.5,-162 32.5,-162 32.5,-121 181.5,-121 181.5,-162"/>
<text text-anchor="start" x="40.5" y="-150" font-family="Helvetica,sans-Serif" font-size="10.00">include/medusa/bits</text>
<text text-anchor="start" x="40.5" y="-139" font-family="Helvetica,sans-Serif" font-size="10.00">/domains/PolyhedronShape</text>
<text text-anchor="middle" x="107" y="-128" font-family="Helvetica,sans-Serif" font-size="10.00">_fwd.hpp</text>
</a>
</g>
</g>
<!-- Node1&#45;&gt;Node2 -->
<g id="edge1_Node000001_Node000002" class="edge">
<title>Node1&#45;&gt;Node2</title>
<g id="a_edge1_Node000001_Node000002"><a xlink:title=" ">
<path fill="none" stroke="#63b8ff" d="M157.87,-190.79C147.89,-181.32 136.85,-170.84 127.62,-162.07"/>
<polygon fill="#63b8ff" stroke="#63b8ff" points="155.58,-193.45 165.24,-197.79 160.4,-188.37 155.58,-193.45"/>
</a>
</g>
</g>
<!-- Node5 -->
<g id="Node000005" class="node">
<title>Node5</title>
<g id="a_Node000005"><a xlink:href="STLShape_8hpp.html" target="_top" xlink:title="Implementation of STL shapes.">
<polygon fill="white" stroke="#666666" points="344.5,-156.5 211.5,-156.5 211.5,-126.5 344.5,-126.5 344.5,-156.5"/>
<text text-anchor="start" x="219.5" y="-144.5" font-family="Helvetica,sans-Serif" font-size="10.00">include/medusa/bits</text>
<text text-anchor="middle" x="278" y="-133.5" font-family="Helvetica,sans-Serif" font-size="10.00">/domains/STLShape.hpp</text>
</a>
</g>
</g>
<!-- Node1&#45;&gt;Node5 -->
<g id="edge4_Node000001_Node000005" class="edge">
<title>Node1&#45;&gt;Node5</title>
<g id="a_edge4_Node000001_Node000005"><a xlink:title=" ">
<path fill="none" stroke="#63b8ff" d="M218.3,-191.17C232.56,-179.55 248.75,-166.34 260.67,-156.63"/>
<polygon fill="#63b8ff" stroke="#63b8ff" points="215.71,-188.76 210.17,-197.79 220.13,-194.19 215.71,-188.76"/>
</a>
</g>
</g>
<!-- Node3 -->
<g id="Node000003" class="node">
<title>Node3</title>
<g id="a_Node000003"><a xlink:href="PolyhedronShape_8hpp_source.html" target="_top" xlink:title=" ">
<polygon fill="white" stroke="#666666" points="179,-85 9,-85 9,-55 179,-55 179,-85"/>
<text text-anchor="start" x="17" y="-73" font-family="Helvetica,sans-Serif" font-size="10.00">include/medusa/bits</text>
<text text-anchor="middle" x="94" y="-62" font-family="Helvetica,sans-Serif" font-size="10.00">/domains/PolyhedronShape.hpp</text>
</a>
</g>
</g>
<!-- Node2&#45;&gt;Node3 -->
<g id="edge2_Node000002_Node000003" class="edge">
<title>Node2&#45;&gt;Node3</title>
<g id="a_edge2_Node000002_Node000003"><a xlink:title=" ">
<path fill="none" stroke="#63b8ff" d="M101.42,-110.66C99.75,-101.76 98.01,-92.42 96.63,-85.04"/>
<polygon fill="#63b8ff" stroke="#63b8ff" points="98.03,-111.58 103.31,-120.77 104.91,-110.3 98.03,-111.58"/>
</a>
</g>
</g>
<!-- Node4 -->
<g id="Node000004" class="node">
<title>Node4</title>
<g id="a_Node000004"><a xlink:href="PolyhedronShape_8cpp.html" target="_top" xlink:title="Instantiation of PolyhedronShape class.">
<polygon fill="white" stroke="#666666" points="184,-19 0,-19 0,0 184,0 184,-19"/>
<text text-anchor="middle" x="92" y="-7" font-family="Helvetica,sans-Serif" font-size="10.00">src/domains/PolyhedronShape.cpp</text>
</a>
</g>
</g>
<!-- Node3&#45;&gt;Node4 -->
<g id="edge3_Node000003_Node000004" class="edge">
<title>Node3&#45;&gt;Node4</title>
<g id="a_edge3_Node000003_Node000004"><a xlink:title=" ">
<path fill="none" stroke="#63b8ff" d="M93.17,-44.75C92.86,-35.72 92.53,-26.03 92.3,-19.27"/>
<polygon fill="#63b8ff" stroke="#63b8ff" points="89.68,-44.96 93.52,-54.84 96.67,-44.72 89.68,-44.96"/>
</a>
</g>
</g>
<!-- Node6 -->
<g id="Node000006" class="node">
<title>Node6</title>
<g id="a_Node000006"><a xlink:href="Domain_8hpp.html" target="_top" xlink:title="Header for Domain module.">
<polygon fill="white" stroke="#666666" points="356,-79.5 200,-79.5 200,-60.5 356,-60.5 356,-79.5"/>
<text text-anchor="middle" x="278" y="-67.5" font-family="Helvetica,sans-Serif" font-size="10.00">include/medusa/Domain.hpp</text>
</a>
</g>
</g>
<!-- Node5&#45;&gt;Node6 -->
<g id="edge5_Node000005_Node000006" class="edge">
<title>Node5&#45;&gt;Node6</title>
<g id="a_edge5_Node000005_Node000006"><a xlink:title=" ">
<path fill="none" stroke="#63b8ff" d="M278,-116.06C278,-103.45 278,-88.85 278,-79.77"/>
<polygon fill="#63b8ff" stroke="#63b8ff" points="274.5,-116.44 278,-126.44 281.5,-116.44 274.5,-116.44"/>
</a>
</g>
</g>
<!-- Node8 -->
<g id="Node000008" class="node">
<title>Node8</title>
<g id="a_Node000008"><a xlink:href="STLShape_8cpp.html" target="_top" xlink:title="Instantiation of class for STL domains.">
<polygon fill="white" stroke="#666666" points="520,-79.5 374,-79.5 374,-60.5 520,-60.5 520,-79.5"/>
<text text-anchor="middle" x="447" y="-67.5" font-family="Helvetica,sans-Serif" font-size="10.00">src/domains/STLShape.cpp</text>
</a>
</g>
</g>
<!-- Node5&#45;&gt;Node8 -->
<g id="edge7_Node000005_Node000008" class="edge">
<title>Node5&#45;&gt;Node8</title>
<g id="a_edge7_Node000005_Node000008"><a xlink:title=" ">
<path fill="none" stroke="#63b8ff" d="M321.79,-122.49C355.39,-108.67 400.27,-90.22 426.17,-79.57"/>
<polygon fill="#63b8ff" stroke="#63b8ff" points="320.12,-119.4 312.2,-126.44 322.78,-125.87 320.12,-119.4"/>
</a>
</g>
</g>
<!-- Node7 -->
<g id="Node000007" class="node">
<title>Node7</title>
<g id="a_Node000007"><a xlink:href="Medusa_8hpp.html" target="_top" xlink:title="Main header file that includes most other components.">
<polygon fill="white" stroke="#666666" points="358,-19 202,-19 202,0 358,0 358,-19"/>
<text text-anchor="middle" x="280" y="-7" font-family="Helvetica,sans-Serif" font-size="10.00">include/medusa/Medusa.hpp</text>
</a>
</g>
</g>
<!-- Node6&#45;&gt;Node7 -->
<g id="edge6_Node000006_Node000007" class="edge">
<title>Node6&#45;&gt;Node7</title>
<g id="a_edge6_Node000006_Node000007"><a xlink:title=" ">
<path fill="none" stroke="#63b8ff" d="M278.64,-50.16C279,-39.74 279.43,-27.3 279.7,-19.17"/>
<polygon fill="#63b8ff" stroke="#63b8ff" points="275.14,-50.25 278.3,-60.37 282.13,-50.49 275.14,-50.25"/>
</a>
</g>
</g>
</g>
</svg>
