<?xml version="1.0" encoding="UTF-8" standalone="no"?>
<!DOCTYPE svg PUBLIC "-//W3C//DTD SVG 1.1//EN"
 "http://www.w3.org/Graphics/SVG/1.1/DTD/svg11.dtd">
<!-- Generated by graphviz version 2.43.0 (0)
 -->
<!-- Title: include/medusa/Domain_fwd.hpp Pages: 1 -->
<svg width="318pt" height="159pt"
 viewBox="0.00 0.00 317.50 159.00" xmlns="http://www.w3.org/2000/svg" xmlns:xlink="http://www.w3.org/1999/xlink">
<g id="graph0" class="graph" transform="scale(1 1) rotate(0) translate(4 155)">
<title>include/medusa/Domain_fwd.hpp</title>
<!-- Node1 -->
<g id="Node000001" class="node">
<title>Node1</title>
<g id="a_Node000001"><a xlink:title="Header for Domain module, declarations only.">
<polygon fill="#999999" stroke="#666666" points="227.5,-151 92.5,-151 92.5,-121 227.5,-121 227.5,-151"/>
<text text-anchor="start" x="100.5" y="-139" font-family="Helvetica,sans-Serif" font-size="10.00">include/medusa/Domain</text>
<text text-anchor="middle" x="160" y="-128" font-family="Helvetica,sans-Serif" font-size="10.00">_fwd.hpp</text>
</a>
</g>
</g>
<!-- Node2 -->
<g id="Node000002" class="node">
<title>Node2</title>
<g id="a_Node000002"><a xlink:href="Domain_8hpp.html" target="_top" xlink:title="Header for Domain module.">
<polygon fill="white" stroke="#666666" points="156,-79.5 0,-79.5 0,-60.5 156,-60.5 156,-79.5"/>
<text text-anchor="middle" x="78" y="-67.5" font-family="Helvetica,sans-Serif" font-size="10.00">include/medusa/Domain.hpp</text>
</a>
</g>
</g>
<!-- Node1&#45;&gt;Node2 -->
<g id="edge1_Node000001_Node000002" class="edge">
<title>Node1&#45;&gt;Node2</title>
<g id="a_edge1_Node000001_Node000002"><a xlink:title=" ">
<path fill="none" stroke="#63b8ff" d="M133.84,-114.58C118.84,-102.87 100.77,-88.77 89.33,-79.84"/>
<polygon fill="#63b8ff" stroke="#63b8ff" points="131.76,-117.4 141.8,-120.8 136.07,-111.88 131.76,-117.4"/>
</a>
</g>
</g>
<!-- Node4 -->
<g id="Node000004" class="node">
<title>Node4</title>
<g id="a_Node000004"><a xlink:href="Medusa__fwd_8hpp.html" target="_top" xlink:title="Main header file that includes only declarations for some heavy classes such as mm::WLS to reduce com...">
<polygon fill="white" stroke="#666666" points="309.5,-85 174.5,-85 174.5,-55 309.5,-55 309.5,-85"/>
<text text-anchor="start" x="182.5" y="-73" font-family="Helvetica,sans-Serif" font-size="10.00">include/medusa/Medusa</text>
<text text-anchor="middle" x="242" y="-62" font-family="Helvetica,sans-Serif" font-size="10.00">_fwd.hpp</text>
</a>
</g>
</g>
<!-- Node1&#45;&gt;Node4 -->
<g id="edge3_Node000001_Node000004" class="edge">
<title>Node1&#45;&gt;Node4</title>
<g id="a_edge3_Node000001_Node000004"><a xlink:title=" ">
<path fill="none" stroke="#63b8ff" d="M186.29,-114.48C198.55,-104.91 212.82,-93.77 223.85,-85.16"/>
<polygon fill="#63b8ff" stroke="#63b8ff" points="183.93,-111.88 178.2,-120.8 188.24,-117.4 183.93,-111.88"/>
</a>
</g>
</g>
<!-- Node3 -->
<g id="Node000003" class="node">
<title>Node3</title>
<g id="a_Node000003"><a xlink:href="Medusa_8hpp.html" target="_top" xlink:title="Main header file that includes most other components.">
<polygon fill="white" stroke="#666666" points="238,-19 82,-19 82,0 238,0 238,-19"/>
<text text-anchor="middle" x="160" y="-7" font-family="Helvetica,sans-Serif" font-size="10.00">include/medusa/Medusa.hpp</text>
</a>
</g>
</g>
<!-- Node2&#45;&gt;Node3 -->
<g id="edge2_Node000002_Node000003" class="edge">
<title>Node2&#45;&gt;Node3</title>
<g id="a_edge2_Node000002_Node000003"><a xlink:title=" ">
<path fill="none" stroke="#63b8ff" d="M98.54,-54.35C114.07,-43.27 134.87,-28.43 147.85,-19.17"/>
<polygon fill="#63b8ff" stroke="#63b8ff" points="96.21,-51.71 90.1,-60.37 100.27,-57.41 96.21,-51.71"/>
</a>
</g>
</g>
<!-- Node4&#45;&gt;Node3 -->
<g id="edge4_Node000004_Node000003" class="edge">
<title>Node4&#45;&gt;Node3</title>
<g id="a_edge4_Node000004_Node000003"><a xlink:title=" ">
<path fill="none" stroke="#63b8ff" d="M213.71,-48.82C199.57,-38.73 183.2,-27.05 172.29,-19.27"/>
<polygon fill="#63b8ff" stroke="#63b8ff" points="211.98,-51.88 222.15,-54.84 216.04,-46.18 211.98,-51.88"/>
</a>
</g>
</g>
</g>
</svg>
