<?xml version="1.0" encoding="UTF-8" standalone="no"?>
<!DOCTYPE svg PUBLIC "-//W3C//DTD SVG 1.1//EN"
 "http://www.w3.org/Graphics/SVG/1.1/DTD/svg11.dtd">
<!-- Generated by graphviz version 2.43.0 (0)
 -->
<!-- Title: include/medusa/bits/operators/ExplicitOperators_fwd.hpp Pages: 1 -->
<!--zoomable 533 -->

<svg id="main" version="1.1" xmlns="http://www.w3.org/2000/svg" xmlns:xlink="http://www.w3.org/1999/xlink" xml:space="preserve" onload="init(evt)">
<style type="text/css"><![CDATA[
.node, .edge {opacity: 0.7;}
.node.selected, .edge.selected {opacity: 1;}
.edge:hover path { stroke: red; }
.edge:hover polygon { stroke: red; fill: red; }
]]></style>

<defs>
  <circle id="rim" cx="0" cy="0" r="7"/>
  <circle id="rim2" cx="0" cy="0" r="3.5"/>
  <g id="zoomPlus">
    <use xlink:href="#rim" fill="#404040"><set attributeName="fill" to="#808080" begin="zoomplus.mouseover" end="zoomplus.mouseout"/></use>
    <path d="M-4,0h8M0,-4v8" fill="none" stroke="white" stroke-width="1.5" pointer-events="none"/>
  </g>
  <g id="zoomMin">
    <use xlink:href="#rim" fill="#404040"><set attributeName="fill" to="#808080" begin="zoomminus.mouseover" end="zoomminus.mouseout"/></use>
    <path d="M-4,0h8" fill="none" stroke="white" stroke-width="1.5" pointer-events="none"/>
  </g>
  <g id="arrowUp" transform="translate(30 24)">
    <use xlink:href="#rim"/>
    <path pointer-events="none" fill="none" stroke="white" stroke-width="1.5" d="M0,-3.0v7 M-2.5,-0.5L0,-3.0L2.5,-0.5"/>
  </g>
  <g id="arrowRight" transform="rotate(90) translate(36 -43)">
    <use xlink:href="#rim"/>
    <path pointer-events="none" fill="none" stroke="white" stroke-width="1.5" d="M0,-3.0v7 M-2.5,-0.5L0,-3.0L2.5,-0.5"/>
  </g>
  <g id="arrowDown" transform="rotate(180) translate(-30 -48)">
    <use xlink:href="#rim"/>
    <path pointer-events="none" fill="none" stroke="white" stroke-width="1.5" d="M0,-3.0v7 M-2.5,-0.5L0,-3.0L2.5,-0.5"/>
  </g>
  <g id="arrowLeft" transform="rotate(270) translate(-36 17)">
    <use xlink:href="#rim"/>
    <path pointer-events="none" fill="none" stroke="white" stroke-width="1.5" d="M0,-3.0v7 M-2.5,-0.5L0,-3.0L2.5,-0.5"/>
  </g>
  <g id="resetDef">
    <use xlink:href="#rim2" fill="#404040"><set attributeName="fill" to="#808080" begin="reset.mouseover" end="reset.mouseout"/></use>
  </g>
</defs>
<script type="application/ecmascript">
var viewWidth = 1665;
var viewHeight = 533;
var sectionId = 'dynsection-0';
</script>
<script type="application/ecmascript" xlink:href="svg.min.js"/>
<svg id="graph" class="graph">
<g id="viewport">
<title>include/medusa/bits/operators/ExplicitOperators_fwd.hpp</title>
<!-- Node1 -->
<g id="Node000001" class="node">
<title>Node1</title>
<g id="a_Node000001"><a xlink:title="Explicit operators declarations.">
<polygon fill="#999999" stroke="#666666" points="962,-525 809,-525 809,-484 962,-484 962,-525"/>
<text text-anchor="start" x="817" y="-513" font-family="Helvetica,sans-Serif" font-size="10.00">include/medusa/bits</text>
<text text-anchor="start" x="817" y="-502" font-family="Helvetica,sans-Serif" font-size="10.00">/operators/ExplicitOperators</text>
<text text-anchor="middle" x="885.5" y="-491" font-family="Helvetica,sans-Serif" font-size="10.00">_fwd.hpp</text>
</a>
</g>
</g>
<!-- Node2 -->
<g id="Node000002" class="node">
<title>Node2</title>
<g id="a_Node000002"><a xlink:href="Config_8hpp.html" target="_top" xlink:title="Contains compile time settings for the project, such as Eigen plugins.">
<polygon fill="white" stroke="#666666" points="814.5,-74 704.5,-74 704.5,-55 814.5,-55 814.5,-74"/>
<text text-anchor="middle" x="759.5" y="-62" font-family="Helvetica,sans-Serif" font-size="10.00">medusa/Config.hpp</text>
</a>
</g>
</g>
<!-- Node1&#45;&gt;Node2 -->
<g id="edge1_Node000001_Node000002" class="edge">
<title>Node1&#45;&gt;Node2</title>
<g id="a_edge1_Node000001_Node000002"><a xlink:title=" ">
<path fill="none" stroke="#63b8ff" d="M808.72,-499.08C602.05,-486.17 49.5,-444.5 49.5,-368 49.5,-368 49.5,-368 49.5,-300 49.5,-193.77 101.22,-160.81 194.5,-110 216.15,-98.21 550.26,-77.6 694.27,-69.21"/>
<polygon fill="#63b8ff" stroke="#63b8ff" points="694.52,-72.7 704.3,-68.63 694.12,-65.72 694.52,-72.7"/>
</a>
</g>
</g>
<!-- Node4 -->
<g id="Node000004" class="node">
<title>Node4</title>
<g id="a_Node000004"><a xlink:title=" ">
<polygon fill="#e0e0e0" stroke="#999999" points="1516,-74 1447,-74 1447,-55 1516,-55 1516,-74"/>
<text text-anchor="middle" x="1481.5" y="-62" font-family="Helvetica,sans-Serif" font-size="10.00">Eigen/Core</text>
</a>
</g>
</g>
<!-- Node1&#45;&gt;Node4 -->
<g id="edge3_Node000001_Node000004" class="edge">
<title>Node1&#45;&gt;Node4</title>
<g id="a_edge3_Node000001_Node000004"><a xlink:title=" ">
<path fill="none" stroke="#63b8ff" d="M962.25,-498.02C1157.26,-483.08 1656.5,-437.99 1656.5,-368 1656.5,-368 1656.5,-368 1656.5,-179 1656.5,-116.87 1577.9,-87.04 1526.06,-74.12"/>
<polygon fill="#63b8ff" stroke="#63b8ff" points="1526.61,-70.66 1516.07,-71.76 1525,-77.47 1526.61,-70.66"/>
</a>
</g>
</g>
<!-- Node5 -->
<g id="Node000005" class="node">
<title>Node5</title>
<g id="a_Node000005"><a xlink:href="UniformShapeStorage__fwd_8hpp.html" target="_top" xlink:title="Declaration of shape storage for uniformly long shapes.">
<polygon fill="white" stroke="#666666" points="781.5,-448 657.5,-448 657.5,-418 781.5,-418 781.5,-448"/>
<text text-anchor="start" x="665.5" y="-436" font-family="Helvetica,sans-Serif" font-size="10.00">UniformShapeStorage</text>
<text text-anchor="middle" x="719.5" y="-425" font-family="Helvetica,sans-Serif" font-size="10.00">_fwd.hpp</text>
</a>
</g>
</g>
<!-- Node1&#45;&gt;Node5 -->
<g id="edge4_Node000001_Node000005" class="edge">
<title>Node1&#45;&gt;Node5</title>
<g id="a_edge4_Node000001_Node000005"><a xlink:title=" ">
<path fill="none" stroke="#63b8ff" d="M838.82,-483.96C814.8,-473.9 785.72,-461.73 762.29,-451.91"/>
<polygon fill="#63b8ff" stroke="#63b8ff" points="763.52,-448.64 752.95,-448 760.82,-455.09 763.52,-448.64"/>
</a>
</g>
</g>
<!-- Node27 -->
<g id="Node000027" class="node">
<title>Node27</title>
<g id="a_Node000027"><a xlink:href="RaggedShapeStorage__fwd_8hpp.html" target="_top" xlink:title="Declaration of shape storage for shapes of different sizes.">
<polygon fill="white" stroke="#666666" points="946,-448 825,-448 825,-418 946,-418 946,-448"/>
<text text-anchor="start" x="833" y="-436" font-family="Helvetica,sans-Serif" font-size="10.00">RaggedShapeStorage</text>
<text text-anchor="middle" x="885.5" y="-425" font-family="Helvetica,sans-Serif" font-size="10.00">_fwd.hpp</text>
</a>
</g>
</g>
<!-- Node1&#45;&gt;Node27 -->
<g id="edge58_Node000001_Node000027" class="edge">
<title>Node1&#45;&gt;Node27</title>
<g id="a_edge58_Node000001_Node000027"><a xlink:title=" ">
<path fill="none" stroke="#63b8ff" d="M885.5,-483.77C885.5,-475.85 885.5,-466.63 885.5,-458.3"/>
<polygon fill="#63b8ff" stroke="#63b8ff" points="889,-458.04 885.5,-448.04 882,-458.04 889,-458.04"/>
</a>
</g>
</g>
<!-- Node28 -->
<g id="Node000028" class="node">
<title>Node28</title>
<g id="a_Node000028"><a xlink:href="Vec_8hpp.html" target="_top" xlink:title="Implemetations for Vec.">
<polygon fill="white" stroke="#666666" points="1628.5,-376.5 1480.5,-376.5 1480.5,-357.5 1628.5,-357.5 1628.5,-376.5"/>
<text text-anchor="middle" x="1554.5" y="-364.5" font-family="Helvetica,sans-Serif" font-size="10.00">medusa/bits/types/Vec.hpp</text>
</a>
</g>
</g>
<!-- Node1&#45;&gt;Node28 -->
<g id="edge63_Node000001_Node000028" class="edge">
<title>Node1&#45;&gt;Node28</title>
<g id="a_edge63_Node000001_Node000028"><a xlink:title=" ">
<path fill="none" stroke="#63b8ff" d="M962.24,-487.96C1099.84,-460.09 1385.07,-402.32 1502.38,-378.56"/>
<polygon fill="#63b8ff" stroke="#63b8ff" points="1503.43,-381.92 1512.53,-376.5 1502.04,-375.06 1503.43,-381.92"/>
</a>
</g>
</g>
<!-- Node3 -->
<g id="Node000003" class="node">
<title>Node3</title>
<g id="a_Node000003"><a xlink:title=" ">
<polygon fill="#e0e0e0" stroke="#999999" points="441,-19 394,-19 394,0 441,0 441,-19"/>
<text text-anchor="middle" x="417.5" y="-7" font-family="Helvetica,sans-Serif" font-size="10.00">vector</text>
</a>
</g>
</g>
<!-- Node2&#45;&gt;Node3 -->
<g id="edge2_Node000002_Node000003" class="edge">
<title>Node2&#45;&gt;Node3</title>
<g id="a_edge2_Node000002_Node000003"><a xlink:title=" ">
<path fill="none" stroke="#63b8ff" d="M704.55,-54.98C632.95,-43.89 509.93,-24.82 450.95,-15.68"/>
<polygon fill="#63b8ff" stroke="#63b8ff" points="451.46,-12.22 441.04,-14.15 450.39,-19.14 451.46,-12.22"/>
</a>
</g>
</g>
<!-- Node5&#45;&gt;Node2 -->
<g id="edge5_Node000005_Node000002" class="edge">
<title>Node5&#45;&gt;Node2</title>
<g id="a_edge5_Node000005_Node000002"><a xlink:title=" ">
<path fill="none" stroke="#63b8ff" d="M657.34,-430.51C512.25,-425.35 163.5,-402.49 163.5,-302 163.5,-302 163.5,-302 163.5,-239.5 163.5,-176.62 169.29,-146.5 220.5,-110 239.52,-96.44 554.73,-77.07 694.1,-69.12"/>
<polygon fill="#63b8ff" stroke="#63b8ff" points="694.45,-72.6 704.23,-68.54 694.05,-65.61 694.45,-72.6"/>
</a>
</g>
</g>
<!-- Node5&#45;&gt;Node3 -->
<g id="edge6_Node000005_Node000003" class="edge">
<title>Node5&#45;&gt;Node3</title>
<g id="a_edge6_Node000005_Node000003"><a xlink:title=" ">
<path fill="none" stroke="#63b8ff" d="M657.23,-429.18C527.36,-422.85 236.46,-406.14 198.5,-382 96.48,-317.13 120.31,-205.46 194.5,-110 215.91,-82.46 220.2,-72.29 250.5,-55 292.78,-30.88 348.53,-19.46 383.71,-14.33"/>
<polygon fill="#63b8ff" stroke="#63b8ff" points="384.49,-17.76 393.93,-12.93 383.54,-10.82 384.49,-17.76"/>
</a>
</g>
</g>
<!-- Node5&#45;&gt;Node4 -->
<g id="edge37_Node000005_Node000004" class="edge">
<title>Node5&#45;&gt;Node4</title>
<g id="a_edge37_Node000005_Node000004"><a xlink:title=" ">
<path fill="none" stroke="#63b8ff" d="M781.65,-421.05C898.69,-399.89 1147.15,-352.28 1226.5,-316 1354.32,-257.56 1417.97,-254.36 1481.5,-129 1488.51,-115.17 1487.82,-97.37 1485.77,-84.14"/>
<polygon fill="#63b8ff" stroke="#63b8ff" points="1489.2,-83.44 1483.87,-74.29 1482.33,-84.77 1489.2,-83.44"/>
</a>
</g>
</g>
<!-- Node6 -->
<g id="Node000006" class="node">
<title>Node6</title>
<g id="a_Node000006"><a xlink:href="shape__flags_8hpp.html" target="_top" xlink:title="Definition of flags related to shape computation.">
<polygon fill="white" stroke="#666666" points="782.5,-382 656.5,-382 656.5,-352 782.5,-352 782.5,-382"/>
<text text-anchor="start" x="664.5" y="-370" font-family="Helvetica,sans-Serif" font-size="10.00">medusa/bits/operators</text>
<text text-anchor="middle" x="719.5" y="-359" font-family="Helvetica,sans-Serif" font-size="10.00">/shape_flags.hpp</text>
</a>
</g>
</g>
<!-- Node5&#45;&gt;Node6 -->
<g id="edge7_Node000005_Node000006" class="edge">
<title>Node5&#45;&gt;Node6</title>
<g id="a_edge7_Node000005_Node000006"><a xlink:title=" ">
<path fill="none" stroke="#63b8ff" d="M719.5,-417.8C719.5,-410.34 719.5,-400.99 719.5,-392.41"/>
<polygon fill="#63b8ff" stroke="#63b8ff" points="723,-392.16 719.5,-382.16 716,-392.16 723,-392.16"/>
</a>
</g>
</g>
<!-- Node14 -->
<g id="Node000014" class="node">
<title>Node14</title>
<g id="a_Node000014"><a xlink:title=" ">
<polygon fill="#e0e0e0" stroke="#999999" points="1049.5,-74 1001.5,-74 1001.5,-55 1049.5,-55 1049.5,-74"/>
<text text-anchor="middle" x="1025.5" y="-62" font-family="Helvetica,sans-Serif" font-size="10.00">iosfwd</text>
</a>
</g>
</g>
<!-- Node5&#45;&gt;Node14 -->
<g id="edge36_Node000005_Node000014" class="edge">
<title>Node5&#45;&gt;Node14</title>
<g id="a_edge36_Node000005_Node000014"><a xlink:title=" ">
<path fill="none" stroke="#63b8ff" d="M744,-417.81C758.68,-408.65 777.2,-395.89 791.5,-382 894.47,-282.04 985.96,-133.1 1015.52,-82.8"/>
<polygon fill="#63b8ff" stroke="#63b8ff" points="1018.58,-84.5 1020.59,-74.1 1012.53,-80.98 1018.58,-84.5"/>
</a>
</g>
</g>
<!-- Node21 -->
<g id="Node000021" class="node">
<title>Node21</title>
<g id="a_Node000021"><a xlink:href="ShapeStorage__fwd_8hpp.html" target="_top" xlink:title="Base class and interface for storing and accessing computed shapes.">
<polygon fill="white" stroke="#666666" points="812.5,-250 684.5,-250 684.5,-231 812.5,-231 812.5,-250"/>
<text text-anchor="middle" x="748.5" y="-238" font-family="Helvetica,sans-Serif" font-size="10.00">ShapeStorage_fwd.hpp</text>
</a>
</g>
</g>
<!-- Node5&#45;&gt;Node21 -->
<g id="edge38_Node000005_Node000021" class="edge">
<title>Node5&#45;&gt;Node21</title>
<g id="a_edge38_Node000005_Node000021"><a xlink:title=" ">
<path fill="none" stroke="#63b8ff" d="M686.55,-417.95C671.77,-409.78 655.82,-397.91 647.5,-382 641.32,-370.19 642.68,-364.43 647.5,-352 663.58,-310.57 703.24,-275.18 727.81,-256.25"/>
<polygon fill="#63b8ff" stroke="#63b8ff" points="730.2,-258.84 736.1,-250.04 726,-253.23 730.2,-258.84"/>
</a>
</g>
</g>
<!-- Node7 -->
<g id="Node000007" class="node">
<title>Node7</title>
<g id="a_Node000007"><a xlink:title=" ">
<polygon fill="#e0e0e0" stroke="#999999" points="399.5,-129 355.5,-129 355.5,-110 399.5,-110 399.5,-129"/>
<text text-anchor="middle" x="377.5" y="-117" font-family="Helvetica,sans-Serif" font-size="10.00">string</text>
</a>
</g>
</g>
<!-- Node6&#45;&gt;Node7 -->
<g id="edge8_Node000006_Node000007" class="edge">
<title>Node6&#45;&gt;Node7</title>
<g id="a_edge8_Node000006_Node000007"><a xlink:title=" ">
<path fill="none" stroke="#63b8ff" d="M699.63,-351.74C639.29,-308.42 458.56,-178.69 397.73,-135.02"/>
<polygon fill="#63b8ff" stroke="#63b8ff" points="399.51,-131.99 389.35,-129 395.43,-137.68 399.51,-131.99"/>
</a>
</g>
</g>
<!-- Node8 -->
<g id="Node000008" class="node">
<title>Node8</title>
<g id="a_Node000008"><a xlink:title=" ">
<polygon fill="#e0e0e0" stroke="#999999" points="41,-19 0,-19 0,0 41,0 41,-19"/>
<text text-anchor="middle" x="20.5" y="-7" font-family="Helvetica,sans-Serif" font-size="10.00">tuple</text>
</a>
</g>
</g>
<!-- Node6&#45;&gt;Node8 -->
<g id="edge9_Node000006_Node000008" class="edge">
<title>Node6&#45;&gt;Node8</title>
<g id="a_edge9_Node000006_Node000008"><a xlink:title=" ">
<path fill="none" stroke="#63b8ff" d="M656.32,-356.89C546.45,-339 315.67,-292.26 145.5,-195 81.35,-158.34 61.46,-141.54 31.5,-74 25.18,-59.76 22.48,-42.23 21.34,-29.2"/>
<polygon fill="#63b8ff" stroke="#63b8ff" points="24.82,-28.85 20.67,-19.1 17.84,-29.31 24.82,-28.85"/>
</a>
</g>
</g>
<!-- Node9 -->
<g id="Node000009" class="node">
<title>Node9</title>
<g id="a_Node000009"><a xlink:href="bits_2approximations_2Operators_8hpp.html" target="_top" xlink:title="Implementations of differential operator families.">
<polygon fill="white" stroke="#666666" points="1217.5,-316 1061.5,-316 1061.5,-286 1217.5,-286 1217.5,-316"/>
<text text-anchor="start" x="1069.5" y="-304" font-family="Helvetica,sans-Serif" font-size="10.00">medusa/bits/approximations</text>
<text text-anchor="middle" x="1139.5" y="-293" font-family="Helvetica,sans-Serif" font-size="10.00">/Operators.hpp</text>
</a>
</g>
</g>
<!-- Node6&#45;&gt;Node9 -->
<g id="edge10_Node000006_Node000009" class="edge">
<title>Node6&#45;&gt;Node9</title>
<g id="a_edge10_Node000006_Node000009"><a xlink:title=" ">
<path fill="none" stroke="#63b8ff" d="M782.83,-356.35C854.26,-345.47 970.89,-327.69 1051.22,-315.45"/>
<polygon fill="#63b8ff" stroke="#63b8ff" points="1051.97,-318.88 1061.33,-313.91 1050.91,-311.96 1051.97,-318.88"/>
</a>
</g>
</g>
<!-- Node10 -->
<g id="Node000010" class="node">
<title>Node10</title>
<g id="a_Node000010"><a xlink:href="Operators__fwd_8hpp.html" target="_top" xlink:title="File defining basic differential operator families.">
<polygon fill="white" stroke="#666666" points="1234.5,-189.5 1126.5,-189.5 1126.5,-170.5 1234.5,-170.5 1234.5,-189.5"/>
<text text-anchor="middle" x="1180.5" y="-177.5" font-family="Helvetica,sans-Serif" font-size="10.00">Operators_fwd.hpp</text>
</a>
</g>
</g>
<!-- Node9&#45;&gt;Node10 -->
<g id="edge11_Node000009_Node000010" class="edge">
<title>Node9&#45;&gt;Node10</title>
<g id="a_edge11_Node000009_Node000010"><a xlink:title=" ">
<path fill="none" stroke="#63b8ff" d="M1146.42,-285.78C1151.07,-275.9 1157.12,-262.33 1161.5,-250 1167.48,-233.19 1172.73,-213.52 1176.19,-199.5"/>
<polygon fill="#63b8ff" stroke="#63b8ff" points="1179.63,-200.16 1178.55,-189.62 1172.82,-198.53 1179.63,-200.16"/>
</a>
</g>
</g>
<!-- Node12 -->
<g id="Node000012" class="node">
<title>Node12</title>
<g id="a_Node000012"><a xlink:href="Monomials__fwd_8hpp.html" target="_top" xlink:title="Declaration of Monomial basis.">
<polygon fill="white" stroke="#666666" points="1319.5,-129 1205.5,-129 1205.5,-110 1319.5,-110 1319.5,-129"/>
<text text-anchor="middle" x="1262.5" y="-117" font-family="Helvetica,sans-Serif" font-size="10.00">Monomials_fwd.hpp</text>
</a>
</g>
</g>
<!-- Node9&#45;&gt;Node12 -->
<g id="edge30_Node000009_Node000012" class="edge">
<title>Node9&#45;&gt;Node12</title>
<g id="a_edge30_Node000009_Node000012"><a xlink:title=" ">
<path fill="none" stroke="#63b8ff" d="M1158.72,-285.91C1182.28,-267.6 1221.76,-233.4 1243.5,-195 1253.34,-177.61 1258.17,-155.09 1260.48,-139.38"/>
<polygon fill="#63b8ff" stroke="#63b8ff" points="1263.97,-139.68 1261.76,-129.32 1257.03,-138.8 1263.97,-139.68"/>
</a>
</g>
</g>
<!-- Node20 -->
<g id="Node000020" class="node">
<title>Node20</title>
<g id="a_Node000020"><a xlink:href="RBFBasis__fwd_8hpp.html" target="_top" xlink:title="Declaration of RBF basis.">
<polygon fill="white" stroke="#666666" points="1152.5,-250 1046.5,-250 1046.5,-231 1152.5,-231 1152.5,-250"/>
<text text-anchor="middle" x="1099.5" y="-238" font-family="Helvetica,sans-Serif" font-size="10.00">RBFBasis_fwd.hpp</text>
</a>
</g>
</g>
<!-- Node9&#45;&gt;Node20 -->
<g id="edge31_Node000009_Node000020" class="edge">
<title>Node9&#45;&gt;Node20</title>
<g id="a_edge31_Node000009_Node000020"><a xlink:title=" ">
<path fill="none" stroke="#63b8ff" d="M1129.82,-285.84C1124.25,-277.69 1117.21,-267.4 1111.32,-258.78"/>
<polygon fill="#63b8ff" stroke="#63b8ff" points="1114.03,-256.55 1105.49,-250.27 1108.25,-260.5 1114.03,-256.55"/>
</a>
</g>
</g>
<!-- Node10&#45;&gt;Node2 -->
<g id="edge12_Node000010_Node000002" class="edge">
<title>Node10&#45;&gt;Node2</title>
<g id="a_edge12_Node000010_Node000002"><a xlink:title=" ">
<path fill="none" stroke="#63b8ff" d="M1161.82,-170.46C1129.69,-156.09 1061.6,-126.95 1001.5,-110 942.77,-93.44 874.24,-81.5 825.13,-74.19"/>
<polygon fill="#63b8ff" stroke="#63b8ff" points="825.35,-70.69 814.95,-72.7 824.34,-77.61 825.35,-70.69"/>
</a>
</g>
</g>
<!-- Node10&#45;&gt;Node3 -->
<g id="edge14_Node000010_Node000003" class="edge">
<title>Node10&#45;&gt;Node3</title>
<g id="a_edge14_Node000010_Node000003"><a xlink:title=" ">
<path fill="none" stroke="#63b8ff" d="M1175.26,-170.33C1160.44,-146.71 1115.56,-81.27 1058.5,-55 1003.18,-29.53 575.77,-15.13 451.37,-11.45"/>
<polygon fill="#63b8ff" stroke="#63b8ff" points="451.38,-7.95 441.28,-11.16 451.17,-14.95 451.38,-7.95"/>
</a>
</g>
</g>
<!-- Node10&#45;&gt;Node4 -->
<g id="edge15_Node000010_Node000004" class="edge">
<title>Node10&#45;&gt;Node4</title>
<g id="a_edge15_Node000010_Node000004"><a xlink:title=" ">
<path fill="none" stroke="#63b8ff" d="M1209.58,-170.48C1239.75,-161.33 1288.07,-145.84 1328.5,-129 1345.93,-121.74 1349.23,-117.64 1366.5,-110 1393.45,-98.08 1424.66,-86.12 1447.76,-77.6"/>
<polygon fill="#63b8ff" stroke="#63b8ff" points="1449.26,-80.78 1457.44,-74.06 1446.85,-74.21 1449.26,-80.78"/>
</a>
</g>
</g>
<!-- Node11 -->
<g id="Node000011" class="node">
<title>Node11</title>
<g id="a_Node000011"><a xlink:title=" ">
<polygon fill="#e0e0e0" stroke="#999999" points="1250.5,-19 1208.5,-19 1208.5,0 1250.5,0 1250.5,-19"/>
<text text-anchor="middle" x="1229.5" y="-7" font-family="Helvetica,sans-Serif" font-size="10.00">array</text>
</a>
</g>
</g>
<!-- Node10&#45;&gt;Node11 -->
<g id="edge13_Node000010_Node000011" class="edge">
<title>Node10&#45;&gt;Node11</title>
<g id="a_edge13_Node000010_Node000011"><a xlink:title=" ">
<path fill="none" stroke="#63b8ff" d="M1180.15,-170.2C1179.62,-149.36 1180.11,-95.67 1196.5,-55 1200.62,-44.78 1207.66,-34.8 1214.18,-26.88"/>
<polygon fill="#63b8ff" stroke="#63b8ff" points="1216.96,-29.03 1220.9,-19.2 1211.68,-24.43 1216.96,-29.03"/>
</a>
</g>
</g>
<!-- Node10&#45;&gt;Node12 -->
<g id="edge16_Node000010_Node000012" class="edge">
<title>Node10&#45;&gt;Node12</title>
<g id="a_edge16_Node000010_Node000012"><a xlink:title=" ">
<path fill="none" stroke="#63b8ff" d="M1192.6,-170.37C1205.56,-161.12 1226.36,-146.28 1241.9,-135.19"/>
<polygon fill="#63b8ff" stroke="#63b8ff" points="1244.24,-137.82 1250.35,-129.17 1240.18,-132.13 1244.24,-137.82"/>
</a>
</g>
</g>
<!-- Node15 -->
<g id="Node000015" class="node">
<title>Node15</title>
<g id="a_Node000015"><a xlink:href="assert_8hpp.html" target="_top" xlink:title="Implementation of custom assert and debug utilities.">
<polygon fill="white" stroke="#666666" points="573,-129 418,-129 418,-110 573,-110 573,-129"/>
<text text-anchor="middle" x="495.5" y="-117" font-family="Helvetica,sans-Serif" font-size="10.00">medusa/bits/utils/assert.hpp</text>
</a>
</g>
</g>
<!-- Node10&#45;&gt;Node15 -->
<g id="edge22_Node000010_Node000015" class="edge">
<title>Node10&#45;&gt;Node15</title>
<g id="a_edge22_Node000010_Node000015"><a xlink:title=" ">
<path fill="none" stroke="#63b8ff" d="M1126.46,-174.39C1008.53,-164.31 727.17,-140.28 583.37,-128"/>
<polygon fill="#63b8ff" stroke="#63b8ff" points="583.52,-124.5 573.26,-127.14 582.93,-131.48 583.52,-124.5"/>
</a>
</g>
</g>
<!-- Node12&#45;&gt;Node2 -->
<g id="edge17_Node000012_Node000002" class="edge">
<title>Node12&#45;&gt;Node2</title>
<g id="a_edge17_Node000012_Node000002"><a xlink:title=" ">
<path fill="none" stroke="#63b8ff" d="M1205.29,-112.47C1111.16,-102.55 924.19,-82.85 824.94,-72.4"/>
<polygon fill="#63b8ff" stroke="#63b8ff" points="825.05,-68.89 814.74,-71.32 824.32,-75.85 825.05,-68.89"/>
</a>
</g>
</g>
<!-- Node12&#45;&gt;Node4 -->
<g id="edge20_Node000012_Node000004" class="edge">
<title>Node12&#45;&gt;Node4</title>
<g id="a_edge20_Node000012_Node000004"><a xlink:title=" ">
<path fill="none" stroke="#63b8ff" d="M1297.69,-109.98C1335.55,-100.82 1395.87,-86.22 1437,-76.27"/>
<polygon fill="#63b8ff" stroke="#63b8ff" points="1437.87,-79.66 1446.76,-73.91 1436.22,-72.86 1437.87,-79.66"/>
</a>
</g>
</g>
<!-- Node12&#45;&gt;Node11 -->
<g id="edge19_Node000012_Node000011" class="edge">
<title>Node12&#45;&gt;Node11</title>
<g id="a_edge19_Node000012_Node000011"><a xlink:title=" ">
<path fill="none" stroke="#63b8ff" d="M1264,-109.6C1265.74,-97.05 1267.67,-73.63 1261.5,-55 1258.07,-44.65 1251.31,-34.65 1244.87,-26.76"/>
<polygon fill="#63b8ff" stroke="#63b8ff" points="1247.41,-24.35 1238.2,-19.11 1242.14,-28.95 1247.41,-24.35"/>
</a>
</g>
</g>
<!-- Node13 -->
<g id="Node000013" class="node">
<title>Node13</title>
<g id="a_Node000013"><a xlink:title=" ">
<polygon fill="#e0e0e0" stroke="#999999" points="1253,-74 1206,-74 1206,-55 1253,-55 1253,-74"/>
<text text-anchor="middle" x="1229.5" y="-62" font-family="Helvetica,sans-Serif" font-size="10.00">cmath</text>
</a>
</g>
</g>
<!-- Node12&#45;&gt;Node13 -->
<g id="edge18_Node000012_Node000013" class="edge">
<title>Node12&#45;&gt;Node13</title>
<g id="a_edge18_Node000012_Node000013"><a xlink:title=" ">
<path fill="none" stroke="#63b8ff" d="M1257.05,-109.75C1252.49,-102.42 1245.83,-91.73 1240.21,-82.7"/>
<polygon fill="#63b8ff" stroke="#63b8ff" points="1243.1,-80.73 1234.85,-74.09 1237.16,-84.43 1243.1,-80.73"/>
</a>
</g>
</g>
<!-- Node12&#45;&gt;Node14 -->
<g id="edge21_Node000012_Node000014" class="edge">
<title>Node12&#45;&gt;Node14</title>
<g id="a_edge21_Node000012_Node000014"><a xlink:title=" ">
<path fill="none" stroke="#63b8ff" d="M1224.42,-109.98C1178.87,-99.8 1103.31,-82.9 1059.6,-73.13"/>
<polygon fill="#63b8ff" stroke="#63b8ff" points="1060.26,-69.69 1049.74,-70.92 1058.73,-76.52 1060.26,-69.69"/>
</a>
</g>
</g>
<!-- Node16 -->
<g id="Node000016" class="node">
<title>Node16</title>
<g id="a_Node000016"><a xlink:title=" ">
<polygon fill="#e0e0e0" stroke="#999999" points="561.5,-74 429.5,-74 429.5,-55 561.5,-55 561.5,-74"/>
<text text-anchor="middle" x="495.5" y="-62" font-family="Helvetica,sans-Serif" font-size="10.00">tinyformat/tinyformat.h</text>
</a>
</g>
</g>
<!-- Node15&#45;&gt;Node16 -->
<g id="edge23_Node000015_Node000016" class="edge">
<title>Node15&#45;&gt;Node16</title>
<g id="a_edge23_Node000015_Node000016"><a xlink:title=" ">
<path fill="none" stroke="#63b8ff" d="M495.5,-109.75C495.5,-102.8 495.5,-92.85 495.5,-84.13"/>
<polygon fill="#63b8ff" stroke="#63b8ff" points="499,-84.09 495.5,-74.09 492,-84.09 499,-84.09"/>
</a>
</g>
</g>
<!-- Node17 -->
<g id="Node000017" class="node">
<title>Node17</title>
<g id="a_Node000017"><a xlink:href="print_8hpp.html" target="_top" xlink:title="Printing helpers for std types.">
<polygon fill="white" stroke="#666666" points="137.5,-74 77.5,-74 77.5,-55 137.5,-55 137.5,-74"/>
<text text-anchor="middle" x="107.5" y="-62" font-family="Helvetica,sans-Serif" font-size="10.00">print.hpp</text>
</a>
</g>
</g>
<!-- Node15&#45;&gt;Node17 -->
<g id="edge24_Node000015_Node000017" class="edge">
<title>Node15&#45;&gt;Node17</title>
<g id="a_edge24_Node000015_Node000017"><a xlink:title=" ">
<path fill="none" stroke="#63b8ff" d="M433.16,-109.98C353.05,-99.04 216.21,-80.35 148.27,-71.07"/>
<polygon fill="#63b8ff" stroke="#63b8ff" points="148.35,-67.55 137.97,-69.66 147.41,-74.48 148.35,-67.55"/>
</a>
</g>
</g>
<!-- Node17&#45;&gt;Node3 -->
<g id="edge26_Node000017_Node000003" class="edge">
<title>Node17&#45;&gt;Node3</title>
<g id="a_edge26_Node000017_Node000003"><a xlink:title=" ">
<path fill="none" stroke="#63b8ff" d="M137.78,-57.55C142.37,-56.67 147.06,-55.8 151.5,-55 234.96,-39.96 333.47,-23.93 383.96,-15.83"/>
<polygon fill="#63b8ff" stroke="#63b8ff" points="384.66,-19.27 393.98,-14.23 383.55,-12.35 384.66,-19.27"/>
</a>
</g>
</g>
<!-- Node17&#45;&gt;Node8 -->
<g id="edge29_Node000017_Node000008" class="edge">
<title>Node17&#45;&gt;Node8</title>
<g id="a_edge29_Node000017_Node000008"><a xlink:title=" ">
<path fill="none" stroke="#63b8ff" d="M93.52,-54.98C80.03,-46.77 59.37,-34.18 43.46,-24.49"/>
<polygon fill="#63b8ff" stroke="#63b8ff" points="45.09,-21.38 34.73,-19.17 41.45,-27.36 45.09,-21.38"/>
</a>
</g>
</g>
<!-- Node17&#45;&gt;Node11 -->
<g id="edge27_Node000017_Node000011" class="edge">
<title>Node17&#45;&gt;Node11</title>
<g id="a_edge27_Node000017_Node000011"><a xlink:title=" ">
<path fill="none" stroke="#63b8ff" d="M137.51,-62.08C296.09,-54.59 1035.35,-19.67 1197.85,-11.99"/>
<polygon fill="#63b8ff" stroke="#63b8ff" points="1198.31,-15.48 1208.13,-11.51 1197.97,-8.49 1198.31,-15.48"/>
</a>
</g>
</g>
<!-- Node18 -->
<g id="Node000018" class="node">
<title>Node18</title>
<g id="a_Node000018"><a xlink:title=" ">
<polygon fill="#e0e0e0" stroke="#999999" points="191.5,-19 131.5,-19 131.5,0 191.5,0 191.5,-19"/>
<text text-anchor="middle" x="161.5" y="-7" font-family="Helvetica,sans-Serif" font-size="10.00">iostream</text>
</a>
</g>
</g>
<!-- Node17&#45;&gt;Node18 -->
<g id="edge25_Node000017_Node000018" class="edge">
<title>Node17&#45;&gt;Node18</title>
<g id="a_edge25_Node000017_Node000018"><a xlink:title=" ">
<path fill="none" stroke="#63b8ff" d="M116.42,-54.75C124.28,-47.03 135.93,-35.6 145.42,-26.28"/>
<polygon fill="#63b8ff" stroke="#63b8ff" points="148.06,-28.59 152.75,-19.09 143.16,-23.6 148.06,-28.59"/>
</a>
</g>
</g>
<!-- Node19 -->
<g id="Node000019" class="node">
<title>Node19</title>
<g id="a_Node000019"><a xlink:title=" ">
<polygon fill="#e0e0e0" stroke="#999999" points="113,-19 68,-19 68,0 113,0 113,-19"/>
<text text-anchor="middle" x="90.5" y="-7" font-family="Helvetica,sans-Serif" font-size="10.00">utility</text>
</a>
</g>
</g>
<!-- Node17&#45;&gt;Node19 -->
<g id="edge28_Node000017_Node000019" class="edge">
<title>Node17&#45;&gt;Node19</title>
<g id="a_edge28_Node000017_Node000019"><a xlink:title=" ">
<path fill="none" stroke="#63b8ff" d="M104.69,-54.75C102.44,-47.72 99.2,-37.62 96.38,-28.84"/>
<polygon fill="#63b8ff" stroke="#63b8ff" points="99.64,-27.54 93.25,-19.09 92.98,-29.68 99.64,-27.54"/>
</a>
</g>
</g>
<!-- Node20&#45;&gt;Node2 -->
<g id="edge32_Node000020_Node000002" class="edge">
<title>Node20&#45;&gt;Node2</title>
<g id="a_edge32_Node000020_Node000002"><a xlink:title=" ">
<path fill="none" stroke="#63b8ff" d="M1090.53,-230.82C1066.12,-207.67 995.66,-143.97 925.5,-110 892.54,-94.05 853.04,-83.16 820.83,-76.15"/>
<polygon fill="#63b8ff" stroke="#63b8ff" points="821.16,-72.64 810.65,-74.01 819.72,-79.49 821.16,-72.64"/>
</a>
</g>
</g>
<!-- Node20&#45;&gt;Node10 -->
<g id="edge35_Node000020_Node000010" class="edge">
<title>Node20&#45;&gt;Node10</title>
<g id="a_edge35_Node000020_Node000010"><a xlink:title=" ">
<path fill="none" stroke="#63b8ff" d="M1111.45,-230.87C1124.25,-221.62 1144.8,-206.78 1160.15,-195.69"/>
<polygon fill="#63b8ff" stroke="#63b8ff" points="1162.44,-198.36 1168.5,-189.67 1158.34,-192.68 1162.44,-198.36"/>
</a>
</g>
</g>
<!-- Node20&#45;&gt;Node11 -->
<g id="edge34_Node000020_Node000011" class="edge">
<title>Node20&#45;&gt;Node11</title>
<g id="a_edge34_Node000020_Node000011"><a xlink:title=" ">
<path fill="none" stroke="#63b8ff" d="M1152.62,-233.84C1202.52,-227.58 1278.83,-215.55 1342.5,-195 1435.29,-165.05 1493.23,-166.01 1525.5,-74 1528.3,-66.03 1531.01,-61.4 1525.5,-55 1491.63,-15.65 1330.31,-10.62 1261.12,-10.3"/>
<polygon fill="#63b8ff" stroke="#63b8ff" points="1260.85,-6.8 1250.85,-10.29 1260.84,-13.8 1260.85,-6.8"/>
</a>
</g>
</g>
<!-- Node20&#45;&gt;Node14 -->
<g id="edge33_Node000020_Node000014" class="edge">
<title>Node20&#45;&gt;Node14</title>
<g id="a_edge33_Node000020_Node000014"><a xlink:title=" ">
<path fill="none" stroke="#63b8ff" d="M1095.73,-230.63C1084.15,-203.4 1048.94,-120.61 1033.22,-83.65"/>
<polygon fill="#63b8ff" stroke="#63b8ff" points="1036.31,-81.98 1029.18,-74.14 1029.87,-84.72 1036.31,-81.98"/>
</a>
</g>
</g>
<!-- Node21&#45;&gt;Node2 -->
<g id="edge39_Node000021_Node000002" class="edge">
<title>Node21&#45;&gt;Node2</title>
<g id="a_edge39_Node000021_Node000002"><a xlink:title=" ">
<path fill="none" stroke="#63b8ff" d="M720.8,-230.89C703.32,-223.99 681.79,-212.53 669.5,-195 647.63,-163.81 637.69,-141.91 658.5,-110 668.83,-94.16 686.22,-83.91 703.67,-77.31"/>
<polygon fill="#63b8ff" stroke="#63b8ff" points="705.01,-80.55 713.34,-74 702.74,-73.93 705.01,-80.55"/>
</a>
</g>
</g>
<!-- Node21&#45;&gt;Node4 -->
<g id="edge57_Node000021_Node000004" class="edge">
<title>Node21&#45;&gt;Node4</title>
<g id="a_edge57_Node000021_Node000004"><a xlink:title=" ">
<path fill="none" stroke="#63b8ff" d="M812.77,-237.91C907.75,-234.61 1090.83,-224.65 1243.5,-195 1342.88,-175.7 1389.52,-200.18 1461.5,-129 1473.43,-117.2 1478.26,-98.36 1480.21,-84.26"/>
<polygon fill="#63b8ff" stroke="#63b8ff" points="1483.7,-84.5 1481.23,-74.19 1476.74,-83.79 1483.7,-84.5"/>
</a>
</g>
</g>
<!-- Node21&#45;&gt;Node8 -->
<g id="edge56_Node000021_Node000008" class="edge">
<title>Node21&#45;&gt;Node8</title>
<g id="a_edge56_Node000021_Node000008"><a xlink:title=" ">
<path fill="none" stroke="#63b8ff" d="M684.04,-237.99C563.3,-234.51 307.73,-223.89 224.5,-195 134.13,-163.64 106.1,-148.82 46.5,-74 35.95,-60.75 29.1,-42.63 25.09,-29.14"/>
<polygon fill="#63b8ff" stroke="#63b8ff" points="28.36,-27.84 22.38,-19.1 21.61,-29.67 28.36,-27.84"/>
</a>
</g>
</g>
<!-- Node21&#45;&gt;Node10 -->
<g id="edge54_Node000021_Node000010" class="edge">
<title>Node21&#45;&gt;Node10</title>
<g id="a_edge54_Node000021_Node000010"><a xlink:title=" ">
<path fill="none" stroke="#63b8ff" d="M811.32,-230.99C892.86,-219.95 1034.42,-200.78 1116.53,-189.66"/>
<polygon fill="#63b8ff" stroke="#63b8ff" points="1117.04,-193.13 1126.48,-188.31 1116.1,-186.19 1117.04,-193.13"/>
</a>
</g>
</g>
<!-- Node21&#45;&gt;Node14 -->
<g id="edge55_Node000021_Node000014" class="edge">
<title>Node21&#45;&gt;Node14</title>
<g id="a_edge55_Node000021_Node000014"><a xlink:title=" ">
<path fill="none" stroke="#63b8ff" d="M764.42,-230.94C780.5,-222.19 805.98,-208.08 827.5,-195 892.91,-155.25 968.01,-104.75 1004.03,-80.21"/>
<polygon fill="#63b8ff" stroke="#63b8ff" points="1006.43,-82.81 1012.72,-74.29 1002.48,-77.03 1006.43,-82.81"/>
</a>
</g>
</g>
<!-- Node22 -->
<g id="Node000022" class="node">
<title>Node22</title>
<g id="a_Node000022"><a xlink:href="Range__fwd_8hpp.html" target="_top" xlink:title="Declaration of Range.">
<polygon fill="white" stroke="#666666" points="818.5,-195 678.5,-195 678.5,-165 818.5,-165 818.5,-195"/>
<text text-anchor="start" x="686.5" y="-183" font-family="Helvetica,sans-Serif" font-size="10.00">medusa/bits/types/Range</text>
<text text-anchor="middle" x="748.5" y="-172" font-family="Helvetica,sans-Serif" font-size="10.00">_fwd.hpp</text>
</a>
</g>
</g>
<!-- Node21&#45;&gt;Node22 -->
<g id="edge40_Node000021_Node000022" class="edge">
<title>Node21&#45;&gt;Node22</title>
<g id="a_edge40_Node000021_Node000022"><a xlink:title=" ">
<path fill="none" stroke="#63b8ff" d="M748.5,-230.87C748.5,-224.11 748.5,-214.35 748.5,-205.26"/>
<polygon fill="#63b8ff" stroke="#63b8ff" points="752,-205.11 748.5,-195.11 745,-205.11 752,-205.11"/>
</a>
</g>
</g>
<!-- Node25 -->
<g id="Node000025" class="node">
<title>Node25</title>
<g id="a_Node000025"><a xlink:href="stdtypesutils_8hpp.html" target="_top" xlink:title="Declaration of utilities for std types.">
<polygon fill="white" stroke="#666666" points="421.5,-189.5 233.5,-189.5 233.5,-170.5 421.5,-170.5 421.5,-189.5"/>
<text text-anchor="middle" x="327.5" y="-177.5" font-family="Helvetica,sans-Serif" font-size="10.00">medusa/bits/utils/stdtypesutils.hpp</text>
</a>
</g>
</g>
<!-- Node21&#45;&gt;Node25 -->
<g id="edge47_Node000021_Node000025" class="edge">
<title>Node21&#45;&gt;Node25</title>
<g id="a_edge47_Node000021_Node000025"><a xlink:title=" ">
<path fill="none" stroke="#63b8ff" d="M687.28,-230.99C610.74,-220.36 479.93,-202.18 398.91,-190.92"/>
<polygon fill="#63b8ff" stroke="#63b8ff" points="399.18,-187.43 388.79,-189.52 398.21,-194.36 399.18,-187.43"/>
</a>
</g>
</g>
<!-- Node22&#45;&gt;Node2 -->
<g id="edge41_Node000022_Node000002" class="edge">
<title>Node22&#45;&gt;Node2</title>
<g id="a_edge41_Node000022_Node000002"><a xlink:title=" ">
<path fill="none" stroke="#63b8ff" d="M749.89,-164.63C751.87,-144.21 755.5,-106.81 757.68,-84.24"/>
<polygon fill="#63b8ff" stroke="#63b8ff" points="761.17,-84.52 758.65,-74.23 754.21,-83.85 761.17,-84.52"/>
</a>
</g>
</g>
<!-- Node22&#45;&gt;Node3 -->
<g id="edge45_Node000022_Node000003" class="edge">
<title>Node22&#45;&gt;Node3</title>
<g id="a_edge45_Node000022_Node000003"><a xlink:title=" ">
<path fill="none" stroke="#63b8ff" d="M719.69,-164.8C701.61,-155.45 678.08,-142.48 658.5,-129 616.42,-100.01 615.56,-79.1 570.5,-55 532.26,-34.55 483.47,-22.46 451.4,-16.16"/>
<polygon fill="#63b8ff" stroke="#63b8ff" points="451.68,-12.65 441.2,-14.24 450.38,-19.53 451.68,-12.65"/>
</a>
</g>
</g>
<!-- Node22&#45;&gt;Node14 -->
<g id="edge46_Node000022_Node000014" class="edge">
<title>Node22&#45;&gt;Node14</title>
<g id="a_edge46_Node000022_Node000014"><a xlink:title=" ">
<path fill="none" stroke="#63b8ff" d="M782.74,-164.97C837.27,-142.63 942.98,-99.31 995.03,-77.98"/>
<polygon fill="#63b8ff" stroke="#63b8ff" points="996.48,-81.17 1004.4,-74.14 993.82,-74.7 996.48,-81.17"/>
</a>
</g>
</g>
<!-- Node22&#45;&gt;Node15 -->
<g id="edge42_Node000022_Node000015" class="edge">
<title>Node22&#45;&gt;Node15</title>
<g id="a_edge42_Node000022_Node000015"><a xlink:title=" ">
<path fill="none" stroke="#63b8ff" d="M687.9,-164.99C643.2,-154.65 583.26,-140.79 542.24,-131.31"/>
<polygon fill="#63b8ff" stroke="#63b8ff" points="543.02,-127.9 532.49,-129.05 541.45,-134.72 543.02,-127.9"/>
</a>
</g>
</g>
<!-- Node23 -->
<g id="Node000023" class="node">
<title>Node23</title>
<g id="a_Node000023"><a xlink:href="traits_8hpp.html" target="_top" xlink:title="Type traits definition for vector and scalar fields.">
<polygon fill="white" stroke="#666666" points="731,-129 668,-129 668,-110 731,-110 731,-129"/>
<text text-anchor="middle" x="699.5" y="-117" font-family="Helvetica,sans-Serif" font-size="10.00">traits.hpp</text>
</a>
</g>
</g>
<!-- Node22&#45;&gt;Node23 -->
<g id="edge43_Node000022_Node000023" class="edge">
<title>Node22&#45;&gt;Node23</title>
<g id="a_edge43_Node000022_Node000023"><a xlink:title=" ">
<path fill="none" stroke="#63b8ff" d="M736.64,-164.84C729.6,-156.43 720.64,-145.74 713.29,-136.96"/>
<polygon fill="#63b8ff" stroke="#63b8ff" points="715.95,-134.68 706.84,-129.27 710.58,-139.18 715.95,-134.68"/>
</a>
</g>
</g>
<!-- Node24 -->
<g id="Node000024" class="node">
<title>Node24</title>
<g id="a_Node000024"><a xlink:title=" ">
<polygon fill="#e0e0e0" stroke="#999999" points="845.5,-129 787.5,-129 787.5,-110 845.5,-110 845.5,-129"/>
<text text-anchor="middle" x="816.5" y="-117" font-family="Helvetica,sans-Serif" font-size="10.00">memory</text>
</a>
</g>
</g>
<!-- Node22&#45;&gt;Node24 -->
<g id="edge44_Node000022_Node000024" class="edge">
<title>Node22&#45;&gt;Node24</title>
<g id="a_edge44_Node000022_Node000024"><a xlink:title=" ">
<path fill="none" stroke="#63b8ff" d="M764.96,-164.84C775.13,-156.09 788.19,-144.85 798.62,-135.88"/>
<polygon fill="#63b8ff" stroke="#63b8ff" points="801.01,-138.44 806.31,-129.27 796.45,-133.13 801.01,-138.44"/>
</a>
</g>
</g>
<!-- Node25&#45;&gt;Node2 -->
<g id="edge48_Node000025_Node000002" class="edge">
<title>Node25&#45;&gt;Node2</title>
<g id="a_edge48_Node000025_Node000002"><a xlink:title=" ">
<path fill="none" stroke="#63b8ff" d="M327.04,-170.18C326.8,-155.25 328.71,-125.13 346.5,-110 372.41,-87.96 584.44,-74.24 694.19,-68.54"/>
<polygon fill="#63b8ff" stroke="#63b8ff" points="694.67,-72.02 704.48,-68.02 694.32,-65.03 694.67,-72.02"/>
</a>
</g>
</g>
<!-- Node25&#45;&gt;Node3 -->
<g id="edge51_Node000025_Node000003" class="edge">
<title>Node25&#45;&gt;Node3</title>
<g id="a_edge51_Node000025_Node000003"><a xlink:title=" ">
<path fill="none" stroke="#63b8ff" d="M287.92,-170.45C250.16,-160.27 201.62,-140.69 220.5,-110 256.34,-51.75 337.98,-26.36 384.12,-16.32"/>
<polygon fill="#63b8ff" stroke="#63b8ff" points="384.86,-19.74 393.95,-14.3 383.45,-12.89 384.86,-19.74"/>
</a>
</g>
</g>
<!-- Node25&#45;&gt;Node7 -->
<g id="edge50_Node000025_Node000007" class="edge">
<title>Node25&#45;&gt;Node7</title>
<g id="a_edge50_Node000025_Node000007"><a xlink:title=" ">
<path fill="none" stroke="#63b8ff" d="M334.88,-170.37C342.41,-161.55 354.29,-147.66 363.59,-136.77"/>
<polygon fill="#63b8ff" stroke="#63b8ff" points="366.26,-139.04 370.09,-129.17 360.93,-134.5 366.26,-139.04"/>
</a>
</g>
</g>
<!-- Node25&#45;&gt;Node8 -->
<g id="edge52_Node000025_Node000008" class="edge">
<title>Node25&#45;&gt;Node8</title>
<g id="a_edge52_Node000025_Node000008"><a xlink:title=" ">
<path fill="none" stroke="#63b8ff" d="M289.56,-170.45C236.03,-156.96 137.22,-126.71 68.5,-74 52.11,-61.43 38.49,-41.88 30,-27.8"/>
<polygon fill="#63b8ff" stroke="#63b8ff" points="32.99,-25.99 24.97,-19.07 26.93,-29.48 32.99,-25.99"/>
</a>
</g>
</g>
<!-- Node25&#45;&gt;Node15 -->
<g id="edge49_Node000025_Node000015" class="edge">
<title>Node25&#45;&gt;Node15</title>
<g id="a_edge49_Node000025_Node000015"><a xlink:title=" ">
<path fill="none" stroke="#63b8ff" d="M351.93,-170.49C380.79,-160.44 429,-143.66 461.5,-132.34"/>
<polygon fill="#63b8ff" stroke="#63b8ff" points="462.75,-135.61 471.04,-129.02 460.45,-129 462.75,-135.61"/>
</a>
</g>
</g>
<!-- Node26 -->
<g id="Node000026" class="node">
<title>Node26</title>
<g id="a_Node000026"><a xlink:title=" ">
<polygon fill="#e0e0e0" stroke="#999999" points="299,-129 230,-129 230,-110 299,-110 299,-129"/>
<text text-anchor="middle" x="264.5" y="-117" font-family="Helvetica,sans-Serif" font-size="10.00">type_traits</text>
</a>
</g>
</g>
<!-- Node25&#45;&gt;Node26 -->
<g id="edge53_Node000025_Node000026" class="edge">
<title>Node25&#45;&gt;Node26</title>
<g id="a_edge53_Node000025_Node000026"><a xlink:title=" ">
<path fill="none" stroke="#63b8ff" d="M318.2,-170.37C308.53,-161.38 293.16,-147.11 281.34,-136.14"/>
<polygon fill="#63b8ff" stroke="#63b8ff" points="283.54,-133.41 273.83,-129.17 278.78,-138.54 283.54,-133.41"/>
</a>
</g>
</g>
<!-- Node27&#45;&gt;Node2 -->
<g id="edge59_Node000027_Node000002" class="edge">
<title>Node27&#45;&gt;Node2</title>
<g id="a_edge59_Node000027_Node000002"><a xlink:title=" ">
<path fill="none" stroke="#63b8ff" d="M890.27,-417.76C897.77,-394.04 911.5,-344.81 911.5,-302 911.5,-302 911.5,-302 911.5,-179 911.5,-123.92 846.64,-92.37 801.66,-77.11"/>
<polygon fill="#63b8ff" stroke="#63b8ff" points="802.7,-73.77 792.11,-74.01 800.54,-80.43 802.7,-73.77"/>
</a>
</g>
</g>
<!-- Node27&#45;&gt;Node4 -->
<g id="edge62_Node000027_Node000004" class="edge">
<title>Node27&#45;&gt;Node4</title>
<g id="a_edge62_Node000027_Node000004"><a xlink:title=" ">
<path fill="none" stroke="#63b8ff" d="M946.32,-429.46C1079.51,-423.48 1388.33,-407.05 1428.5,-382 1511.09,-330.5 1516.19,-288.71 1542.5,-195 1552.77,-158.43 1552.13,-143.11 1533.5,-110 1526.67,-97.87 1515.2,-87.52 1504.76,-79.86"/>
<polygon fill="#63b8ff" stroke="#63b8ff" points="1506.59,-76.87 1496.37,-74.08 1502.62,-82.63 1506.59,-76.87"/>
</a>
</g>
</g>
<!-- Node27&#45;&gt;Node6 -->
<g id="edge61_Node000027_Node000006" class="edge">
<title>Node27&#45;&gt;Node6</title>
<g id="a_edge61_Node000027_Node000006"><a xlink:title=" ">
<path fill="none" stroke="#63b8ff" d="M849.07,-417.95C824.42,-408.45 791.67,-395.82 765.26,-385.64"/>
<polygon fill="#63b8ff" stroke="#63b8ff" points="766.43,-382.34 755.84,-382.01 763.92,-388.88 766.43,-382.34"/>
</a>
</g>
</g>
<!-- Node27&#45;&gt;Node21 -->
<g id="edge60_Node000027_Node000021" class="edge">
<title>Node27&#45;&gt;Node21</title>
<g id="a_edge60_Node000027_Node000021"><a xlink:title=" ">
<path fill="none" stroke="#63b8ff" d="M875.43,-417.99C850.82,-383.77 787.7,-296.01 760.87,-258.7"/>
<polygon fill="#63b8ff" stroke="#63b8ff" points="763.55,-256.44 754.87,-250.36 757.87,-260.52 763.55,-256.44"/>
</a>
</g>
</g>
<!-- Node29 -->
<g id="Node000029" class="node">
<title>Node29</title>
<g id="a_Node000029"><a xlink:href="Vec__fwd_8hpp.html" target="_top" xlink:title="Declaration of Vec.">
<polygon fill="white" stroke="#666666" points="1453,-129 1376,-129 1376,-110 1453,-110 1453,-129"/>
<text text-anchor="middle" x="1414.5" y="-117" font-family="Helvetica,sans-Serif" font-size="10.00">Vec_fwd.hpp</text>
</a>
</g>
</g>
<!-- Node28&#45;&gt;Node29 -->
<g id="edge64_Node000028_Node000029" class="edge">
<title>Node28&#45;&gt;Node29</title>
<g id="a_edge64_Node000028_Node000029"><a xlink:title=" ">
<path fill="none" stroke="#63b8ff" d="M1549.52,-357.26C1529.15,-321.54 1451.98,-186.22 1424.39,-137.83"/>
<polygon fill="#63b8ff" stroke="#63b8ff" points="1427.42,-136.09 1419.42,-129.13 1421.34,-139.55 1427.42,-136.09"/>
</a>
</g>
</g>
<!-- Node29&#45;&gt;Node2 -->
<g id="edge65_Node000029_Node000002" class="edge">
<title>Node29&#45;&gt;Node2</title>
<g id="a_edge65_Node000029_Node000002"><a xlink:title=" ">
<path fill="none" stroke="#63b8ff" d="M1375.99,-114.52C1361.15,-113.04 1344.04,-111.38 1328.5,-110 1146.3,-93.87 930.99,-77.86 825.07,-70.19"/>
<polygon fill="#63b8ff" stroke="#63b8ff" points="825.09,-66.68 814.86,-69.45 824.58,-73.66 825.09,-66.68"/>
</a>
</g>
</g>
<!-- Node29&#45;&gt;Node4 -->
<g id="edge66_Node000029_Node000004" class="edge">
<title>Node29&#45;&gt;Node4</title>
<g id="a_edge66_Node000029_Node000004"><a xlink:title=" ">
<path fill="none" stroke="#63b8ff" d="M1425.26,-109.98C1435.27,-102.07 1450.39,-90.11 1462.43,-80.58"/>
<polygon fill="#63b8ff" stroke="#63b8ff" points="1464.87,-83.12 1470.54,-74.17 1460.53,-77.63 1464.87,-83.12"/>
</a>
</g>
</g>
</g>
</svg>

<g id="navigator" transform="translate(0 0)" fill="#404254">
  <rect fill="#f2f5e9" fill-opacity="0.5" stroke="#606060" stroke-width=".5" x="0" y="0" width="60" height="60"/>
  <use id="zoomplus" xlink:href="#zoomPlus" x="17" y="9" onmousedown="handleZoom(evt,'in')"/>
  <use id="zoomminus" xlink:href="#zoomMin" x="42" y="9" onmousedown="handleZoom(evt,'out')"/>
  <use id="reset" xlink:href="#resetDef" x="30" y="36" onmousedown="handleReset()"/>
   <use id="arrowup" xlink:href="#arrowUp" x="0" y="0" onmousedown="handlePan(0,-1)"/>
  <use id="arrowright" xlink:href="#arrowRight" x="0" y="0" onmousedown="handlePan(1,0)"/>
  <use id="arrowdown" xlink:href="#arrowDown" x="0" y="0" onmousedown="handlePan(0,1)"/>
  <use id="arrowleft" xlink:href="#arrowLeft" x="0" y="0" onmousedown="handlePan(-1,0)"/>
</g>
<svg viewBox="0 0 15 15" width="100%" height="30px" preserveAspectRatio="xMaxYMin meet">
 <g id="arrow_out" transform="scale(0.3 0.3)">
  <a xlink:href="ExplicitOperators__fwd_8hpp__incl_org.svg" target="_base">
   <rect id="button" ry="5" rx="5" y="6" x="6" height="38" width="38"
        fill="#f2f5e9" fill-opacity="0.5" stroke="#606060" stroke-width="1.0"/>
   <path id="arrow"
     d="M 11.500037,31.436501 C 11.940474,20.09759 22.043105,11.32322 32.158766,21.979434 L 37.068811,17.246167 C 37.068811,17.246167 37.088388,32 37.088388,32 L 22.160133,31.978069 C 22.160133,31.978069 26.997745,27.140456 26.997745,27.140456 C 18.528582,18.264221 13.291696,25.230495 11.500037,31.436501 z"
     style="fill:#404040;"/>
  </a>
 </g>
</svg>

<style type='text/css'>
<![CDATA[
[data-mouse-over-selected='false'] { opacity: 0.7; }
[data-mouse-over-selected='true']  { opacity: 1.0; }
]]>
</style>
<script type="application/ecmascript"><![CDATA[
document.addEventListener('DOMContentLoaded', (event) => {
  highlightEdges();
  highlightAdjacentNodes();
});
]]></script>
</svg>
