<?xml version="1.0" encoding="UTF-8" standalone="no"?>
<!DOCTYPE svg PUBLIC "-//W3C//DTD SVG 1.1//EN"
 "http://www.w3.org/Graphics/SVG/1.1/DTD/svg11.dtd">
<!-- Generated by graphviz version 2.43.0 (0)
 -->
<!-- Title: include/medusa/bits/operators/ExplicitOperators.hpp Pages: 1 -->
<!--zoomable 577 -->

<svg id="main" version="1.1" xmlns="http://www.w3.org/2000/svg" xmlns:xlink="http://www.w3.org/1999/xlink" xml:space="preserve" onload="init(evt)">
<style type="text/css"><![CDATA[
.node, .edge {opacity: 0.7;}
.node.selected, .edge.selected {opacity: 1;}
.edge:hover path { stroke: red; }
.edge:hover polygon { stroke: red; fill: red; }
]]></style>

<defs>
  <circle id="rim" cx="0" cy="0" r="7"/>
  <circle id="rim2" cx="0" cy="0" r="3.5"/>
  <g id="zoomPlus">
    <use xlink:href="#rim" fill="#404040"><set attributeName="fill" to="#808080" begin="zoomplus.mouseover" end="zoomplus.mouseout"/></use>
    <path d="M-4,0h8M0,-4v8" fill="none" stroke="white" stroke-width="1.5" pointer-events="none"/>
  </g>
  <g id="zoomMin">
    <use xlink:href="#rim" fill="#404040"><set attributeName="fill" to="#808080" begin="zoomminus.mouseover" end="zoomminus.mouseout"/></use>
    <path d="M-4,0h8" fill="none" stroke="white" stroke-width="1.5" pointer-events="none"/>
  </g>
  <g id="arrowUp" transform="translate(30 24)">
    <use xlink:href="#rim"/>
    <path pointer-events="none" fill="none" stroke="white" stroke-width="1.5" d="M0,-3.0v7 M-2.5,-0.5L0,-3.0L2.5,-0.5"/>
  </g>
  <g id="arrowRight" transform="rotate(90) translate(36 -43)">
    <use xlink:href="#rim"/>
    <path pointer-events="none" fill="none" stroke="white" stroke-width="1.5" d="M0,-3.0v7 M-2.5,-0.5L0,-3.0L2.5,-0.5"/>
  </g>
  <g id="arrowDown" transform="rotate(180) translate(-30 -48)">
    <use xlink:href="#rim"/>
    <path pointer-events="none" fill="none" stroke="white" stroke-width="1.5" d="M0,-3.0v7 M-2.5,-0.5L0,-3.0L2.5,-0.5"/>
  </g>
  <g id="arrowLeft" transform="rotate(270) translate(-36 17)">
    <use xlink:href="#rim"/>
    <path pointer-events="none" fill="none" stroke="white" stroke-width="1.5" d="M0,-3.0v7 M-2.5,-0.5L0,-3.0L2.5,-0.5"/>
  </g>
  <g id="resetDef">
    <use xlink:href="#rim2" fill="#404040"><set attributeName="fill" to="#808080" begin="reset.mouseover" end="reset.mouseout"/></use>
  </g>
</defs>
<script type="application/ecmascript">
var viewWidth = 1646;
var viewHeight = 577;
var sectionId = 'dynsection-0';
</script>
<script type="application/ecmascript" xlink:href="svg.min.js"/>
<svg id="graph" class="graph">
<g id="viewport">
<title>include/medusa/bits/operators/ExplicitOperators.hpp</title>
<!-- Node1 -->
<g id="Node000001" class="node">
<title>Node1</title>
<g id="a_Node000001"><a xlink:title="Explicit operators implementation.">
<polygon fill="#999999" stroke="#666666" points="844.7,-569 670.7,-569 670.7,-539 844.7,-539 844.7,-569"/>
<text text-anchor="start" x="678.7" y="-557" font-family="Helvetica,sans-Serif" font-size="10.00">include/medusa/bits</text>
<text text-anchor="middle" x="757.7" y="-546" font-family="Helvetica,sans-Serif" font-size="10.00">/operators/ExplicitOperators.hpp</text>
</a>
</g>
</g>
<!-- Node2 -->
<g id="Node000002" class="node">
<title>Node2</title>
<g id="a_Node000002"><a xlink:href="ExplicitOperators__fwd_8hpp.html" target="_top" xlink:title="Explicit operators declarations.">
<polygon fill="white" stroke="#666666" points="1143.7,-503 999.7,-503 999.7,-484 1143.7,-484 1143.7,-503"/>
<text text-anchor="middle" x="1071.7" y="-491" font-family="Helvetica,sans-Serif" font-size="10.00">ExplicitOperators_fwd.hpp</text>
</a>
</g>
</g>
<!-- Node1&#45;&gt;Node2 -->
<g id="edge1_Node000001_Node000002" class="edge">
<title>Node1&#45;&gt;Node2</title>
<g id="a_edge1_Node000001_Node000002"><a xlink:title=" ">
<path fill="none" stroke="#63b8ff" d="M832.91,-538.99C889.21,-528.5 964.98,-514.38 1015.94,-504.89"/>
<polygon fill="#63b8ff" stroke="#63b8ff" points="1016.6,-508.33 1025.79,-503.05 1015.31,-501.44 1016.6,-508.33"/>
</a>
</g>
</g>
<!-- Node16 -->
<g id="Node000016" class="node">
<title>Node16</title>
<g id="a_Node000016"><a xlink:href="assert_8hpp.html" target="_top" xlink:title="Implementation of custom assert and debug utilities.">
<polygon fill="white" stroke="#666666" points="556.2,-129 401.2,-129 401.2,-110 556.2,-110 556.2,-129"/>
<text text-anchor="middle" x="478.7" y="-117" font-family="Helvetica,sans-Serif" font-size="10.00">medusa/bits/utils/assert.hpp</text>
</a>
</g>
</g>
<!-- Node1&#45;&gt;Node16 -->
<g id="edge68_Node000001_Node000016" class="edge">
<title>Node1&#45;&gt;Node16</title>
<g id="a_edge68_Node000001_Node000016"><a xlink:title=" ">
<path fill="none" stroke="#63b8ff" d="M670.64,-551.78C586.83,-545.44 472.7,-520.86 472.7,-434 472.7,-434 472.7,-434 472.7,-239.5 472.7,-204.11 475.38,-162.87 477.16,-139.41"/>
<polygon fill="#63b8ff" stroke="#63b8ff" points="480.67,-139.4 477.96,-129.15 473.69,-138.85 480.67,-139.4"/>
</a>
</g>
</g>
<!-- Node22 -->
<g id="Node000022" class="node">
<title>Node22</title>
<g id="a_Node000022"><a xlink:href="ShapeStorage__fwd_8hpp.html" target="_top" xlink:title="Base class and interface for storing and accessing computed shapes.">
<polygon fill="white" stroke="#666666" points="762.7,-250 634.7,-250 634.7,-231 762.7,-231 762.7,-250"/>
<text text-anchor="middle" x="698.7" y="-238" font-family="Helvetica,sans-Serif" font-size="10.00">ShapeStorage_fwd.hpp</text>
</a>
</g>
</g>
<!-- Node1&#45;&gt;Node22 -->
<g id="edge70_Node000001_Node000022" class="edge">
<title>Node1&#45;&gt;Node22</title>
<g id="a_edge70_Node000001_Node000022"><a xlink:title=" ">
<path fill="none" stroke="#63b8ff" d="M670.62,-546.18C599.5,-535.29 510.7,-507.06 510.7,-434 510.7,-434 510.7,-434 510.7,-366 510.7,-300.82 590.23,-267.76 645.83,-252.61"/>
<polygon fill="#63b8ff" stroke="#63b8ff" points="646.77,-255.98 655.57,-250.07 645.01,-249.21 646.77,-255.98"/>
</a>
</g>
</g>
<!-- Node29 -->
<g id="Node000029" class="node">
<title>Node29</title>
<g id="a_Node000029"><a xlink:href="Vec_8hpp.html" target="_top" xlink:title="Implemetations for Vec.">
<polygon fill="white" stroke="#666666" points="1637.7,-442.5 1489.7,-442.5 1489.7,-423.5 1637.7,-423.5 1637.7,-442.5"/>
<text text-anchor="middle" x="1563.7" y="-430.5" font-family="Helvetica,sans-Serif" font-size="10.00">medusa/bits/types/Vec.hpp</text>
</a>
</g>
</g>
<!-- Node1&#45;&gt;Node29 -->
<g id="edge69_Node000001_Node000029" class="edge">
<title>Node1&#45;&gt;Node29</title>
<g id="a_edge69_Node000001_Node000029"><a xlink:title=" ">
<path fill="none" stroke="#63b8ff" d="M844.91,-542.99C925.04,-533.54 1047.04,-518.55 1152.7,-503 1279.26,-484.37 1427.06,-458.56 1506.38,-444.38"/>
<polygon fill="#63b8ff" stroke="#63b8ff" points="1507.42,-447.75 1516.64,-442.54 1506.18,-440.86 1507.42,-447.75"/>
</a>
</g>
</g>
<!-- Node3 -->
<g id="Node000003" class="node">
<title>Node3</title>
<g id="a_Node000003"><a xlink:href="Config_8hpp.html" target="_top" xlink:title="Contains compile time settings for the project, such as Eigen plugins.">
<polygon fill="white" stroke="#666666" points="1017.7,-74 907.7,-74 907.7,-55 1017.7,-55 1017.7,-74"/>
<text text-anchor="middle" x="962.7" y="-62" font-family="Helvetica,sans-Serif" font-size="10.00">medusa/Config.hpp</text>
</a>
</g>
</g>
<!-- Node2&#45;&gt;Node3 -->
<g id="edge2_Node000002_Node000003" class="edge">
<title>Node2&#45;&gt;Node3</title>
<g id="a_edge2_Node000002_Node000003"><a xlink:title=" ">
<path fill="none" stroke="#63b8ff" d="M1129.9,-483.99C1192.97,-471.09 1284.7,-439.96 1284.7,-368 1284.7,-368 1284.7,-368 1284.7,-179 1284.7,-147.19 1289.53,-131.07 1265.7,-110 1231.44,-79.71 1106.4,-70.03 1028.06,-66.95"/>
<polygon fill="#63b8ff" stroke="#63b8ff" points="1027.92,-63.44 1017.8,-66.57 1027.66,-70.43 1027.92,-63.44"/>
</a>
</g>
</g>
<!-- Node5 -->
<g id="Node000005" class="node">
<title>Node5</title>
<g id="a_Node000005"><a xlink:title=" ">
<polygon fill="#e0e0e0" stroke="#999999" points="1491.2,-74 1422.2,-74 1422.2,-55 1491.2,-55 1491.2,-74"/>
<text text-anchor="middle" x="1456.7" y="-62" font-family="Helvetica,sans-Serif" font-size="10.00">Eigen/Core</text>
</a>
</g>
</g>
<!-- Node2&#45;&gt;Node5 -->
<g id="edge4_Node000002_Node000005" class="edge">
<title>Node2&#45;&gt;Node5</title>
<g id="a_edge4_Node000002_Node000005"><a xlink:title=" ">
<path fill="none" stroke="#63b8ff" d="M1134.83,-483.98C1173.45,-477.31 1223.24,-466.06 1264.7,-448 1399.16,-389.42 1453.68,-376.03 1528.7,-250 1560.53,-196.53 1565.21,-159.65 1527.7,-110 1517.44,-96.42 1501.73,-85.96 1487.69,-78.6"/>
<polygon fill="#63b8ff" stroke="#63b8ff" points="1488.84,-75.27 1478.33,-74 1485.76,-81.55 1488.84,-75.27"/>
</a>
</g>
</g>
<!-- Node6 -->
<g id="Node000006" class="node">
<title>Node6</title>
<g id="a_Node000006"><a xlink:href="UniformShapeStorage__fwd_8hpp.html" target="_top" xlink:title="Declaration of shape storage for uniformly long shapes.">
<polygon fill="white" stroke="#666666" points="777.7,-448 653.7,-448 653.7,-418 777.7,-418 777.7,-448"/>
<text text-anchor="start" x="661.7" y="-436" font-family="Helvetica,sans-Serif" font-size="10.00">UniformShapeStorage</text>
<text text-anchor="middle" x="715.7" y="-425" font-family="Helvetica,sans-Serif" font-size="10.00">_fwd.hpp</text>
</a>
</g>
</g>
<!-- Node2&#45;&gt;Node6 -->
<g id="edge5_Node000002_Node000006" class="edge">
<title>Node2&#45;&gt;Node6</title>
<g id="a_edge5_Node000002_Node000006"><a xlink:title=" ">
<path fill="none" stroke="#63b8ff" d="M1019.93,-483.99C958.73,-473.94 856.49,-457.14 787.62,-445.82"/>
<polygon fill="#63b8ff" stroke="#63b8ff" points="788.14,-442.36 777.71,-444.19 787.01,-449.26 788.14,-442.36"/>
</a>
</g>
</g>
<!-- Node28 -->
<g id="Node000028" class="node">
<title>Node28</title>
<g id="a_Node000028"><a xlink:href="RaggedShapeStorage__fwd_8hpp.html" target="_top" xlink:title="Declaration of shape storage for shapes of different sizes.">
<polygon fill="white" stroke="#666666" points="1034.2,-448 913.2,-448 913.2,-418 1034.2,-418 1034.2,-448"/>
<text text-anchor="start" x="921.2" y="-436" font-family="Helvetica,sans-Serif" font-size="10.00">RaggedShapeStorage</text>
<text text-anchor="middle" x="973.7" y="-425" font-family="Helvetica,sans-Serif" font-size="10.00">_fwd.hpp</text>
</a>
</g>
</g>
<!-- Node2&#45;&gt;Node28 -->
<g id="edge59_Node000002_Node000028" class="edge">
<title>Node2&#45;&gt;Node28</title>
<g id="a_edge59_Node000002_Node000028"><a xlink:title=" ">
<path fill="none" stroke="#63b8ff" d="M1057.24,-483.87C1043.82,-475.86 1023.36,-463.65 1006.05,-453.31"/>
<polygon fill="#63b8ff" stroke="#63b8ff" points="1007.72,-450.23 997.34,-448.11 1004.14,-456.25 1007.72,-450.23"/>
</a>
</g>
</g>
<!-- Node2&#45;&gt;Node29 -->
<g id="edge64_Node000002_Node000029" class="edge">
<title>Node2&#45;&gt;Node29</title>
<g id="a_edge64_Node000002_Node000029"><a xlink:title=" ">
<path fill="none" stroke="#63b8ff" d="M1143.71,-485.62C1224.61,-477.65 1359.78,-463.6 1475.7,-448 1484.39,-446.83 1493.54,-445.49 1502.53,-444.12"/>
<polygon fill="#63b8ff" stroke="#63b8ff" points="1503.23,-447.55 1512.57,-442.56 1502.15,-440.64 1503.23,-447.55"/>
</a>
</g>
</g>
<!-- Node4 -->
<g id="Node000004" class="node">
<title>Node4</title>
<g id="a_Node000004"><a xlink:title=" ">
<polygon fill="#e0e0e0" stroke="#999999" points="665.2,-19 618.2,-19 618.2,0 665.2,0 665.2,-19"/>
<text text-anchor="middle" x="641.7" y="-7" font-family="Helvetica,sans-Serif" font-size="10.00">vector</text>
</a>
</g>
</g>
<!-- Node3&#45;&gt;Node4 -->
<g id="edge3_Node000003_Node000004" class="edge">
<title>Node3&#45;&gt;Node4</title>
<g id="a_edge3_Node000003_Node000004"><a xlink:title=" ">
<path fill="none" stroke="#63b8ff" d="M911.12,-54.98C844.86,-44.04 731.69,-25.36 675.46,-16.08"/>
<polygon fill="#63b8ff" stroke="#63b8ff" points="675.77,-12.58 665.33,-14.4 674.63,-19.48 675.77,-12.58"/>
</a>
</g>
</g>
<!-- Node6&#45;&gt;Node3 -->
<g id="edge6_Node000006_Node000003" class="edge">
<title>Node6&#45;&gt;Node3</title>
<g id="a_edge6_Node000006_Node000003"><a xlink:title=" ">
<path fill="none" stroke="#63b8ff" d="M717.17,-417.78C719.3,-401.28 724.21,-373.57 734.7,-352 764.33,-291.08 902.66,-133.01 948.15,-81.78"/>
<polygon fill="#63b8ff" stroke="#63b8ff" points="950.82,-84.05 954.85,-74.26 945.59,-79.4 950.82,-84.05"/>
</a>
</g>
</g>
<!-- Node6&#45;&gt;Node4 -->
<g id="edge7_Node000006_Node000004" class="edge">
<title>Node6&#45;&gt;Node4</title>
<g id="a_edge7_Node000006_Node000004"><a xlink:title=" ">
<path fill="none" stroke="#63b8ff" d="M685.13,-417.9C646.98,-397.96 586.7,-357.64 586.7,-302 586.7,-302 586.7,-302 586.7,-239.5 586.7,-159.12 619.13,-67.14 634.19,-28.79"/>
<polygon fill="#63b8ff" stroke="#63b8ff" points="637.62,-29.64 638.09,-19.06 631.12,-27.04 637.62,-29.64"/>
</a>
</g>
</g>
<!-- Node6&#45;&gt;Node5 -->
<g id="edge38_Node000006_Node000005" class="edge">
<title>Node6&#45;&gt;Node5</title>
<g id="a_edge38_Node000006_Node000005"><a xlink:title=" ">
<path fill="none" stroke="#63b8ff" d="M777.93,-424.5C870.85,-411.61 1049.78,-380.2 1188.7,-316 1317.58,-256.44 1374.32,-250.55 1447.7,-129 1455.8,-115.58 1457.71,-97.72 1457.79,-84.36"/>
<polygon fill="#63b8ff" stroke="#63b8ff" points="1461.28,-83.9 1457.5,-74 1454.28,-84.1 1461.28,-83.9"/>
</a>
</g>
</g>
<!-- Node7 -->
<g id="Node000007" class="node">
<title>Node7</title>
<g id="a_Node000007"><a xlink:href="shape__flags_8hpp.html" target="_top" xlink:title="Definition of flags related to shape computation.">
<polygon fill="white" stroke="#666666" points="869.7,-382 743.7,-382 743.7,-352 869.7,-352 869.7,-382"/>
<text text-anchor="start" x="751.7" y="-370" font-family="Helvetica,sans-Serif" font-size="10.00">medusa/bits/operators</text>
<text text-anchor="middle" x="806.7" y="-359" font-family="Helvetica,sans-Serif" font-size="10.00">/shape_flags.hpp</text>
</a>
</g>
</g>
<!-- Node6&#45;&gt;Node7 -->
<g id="edge8_Node000006_Node000007" class="edge">
<title>Node6&#45;&gt;Node7</title>
<g id="a_edge8_Node000006_Node000007"><a xlink:title=" ">
<path fill="none" stroke="#63b8ff" d="M735.89,-417.8C748.38,-409.01 764.6,-397.61 778.36,-387.93"/>
<polygon fill="#63b8ff" stroke="#63b8ff" points="780.39,-390.78 786.56,-382.16 776.37,-385.05 780.39,-390.78"/>
</a>
</g>
</g>
<!-- Node15 -->
<g id="Node000015" class="node">
<title>Node15</title>
<g id="a_Node000015"><a xlink:title=" ">
<polygon fill="#e0e0e0" stroke="#999999" points="72.7,-74 24.7,-74 24.7,-55 72.7,-55 72.7,-74"/>
<text text-anchor="middle" x="48.7" y="-62" font-family="Helvetica,sans-Serif" font-size="10.00">iosfwd</text>
</a>
</g>
</g>
<!-- Node6&#45;&gt;Node15 -->
<g id="edge37_Node000006_Node000015" class="edge">
<title>Node6&#45;&gt;Node15</title>
<g id="a_edge37_Node000006_Node000015"><a xlink:title=" ">
<path fill="none" stroke="#63b8ff" d="M671.75,-417.99C643.23,-408.56 605.42,-395.44 572.7,-382 330.14,-282.36 179.83,-350.64 39.7,-129 31.07,-115.35 35.11,-96.79 40.23,-83.26"/>
<polygon fill="#63b8ff" stroke="#63b8ff" points="43.45,-84.63 44.16,-74.06 37.01,-81.87 43.45,-84.63"/>
</a>
</g>
</g>
<!-- Node6&#45;&gt;Node22 -->
<g id="edge39_Node000006_Node000022" class="edge">
<title>Node6&#45;&gt;Node22</title>
<g id="a_edge39_Node000006_Node000022"><a xlink:title=" ">
<path fill="none" stroke="#63b8ff" d="M710.68,-417.77C707.45,-407.87 703.52,-394.31 701.7,-382 695.31,-338.9 696.37,-287.57 697.6,-260.46"/>
<polygon fill="#63b8ff" stroke="#63b8ff" points="701.12,-260.28 698.13,-250.12 694.12,-259.92 701.12,-260.28"/>
</a>
</g>
</g>
<!-- Node8 -->
<g id="Node000008" class="node">
<title>Node8</title>
<g id="a_Node000008"><a xlink:title=" ">
<polygon fill="#e0e0e0" stroke="#999999" points="896.7,-129 852.7,-129 852.7,-110 896.7,-110 896.7,-129"/>
<text text-anchor="middle" x="874.7" y="-117" font-family="Helvetica,sans-Serif" font-size="10.00">string</text>
</a>
</g>
</g>
<!-- Node7&#45;&gt;Node8 -->
<g id="edge9_Node000007_Node000008" class="edge">
<title>Node7&#45;&gt;Node8</title>
<g id="a_edge9_Node000007_Node000008"><a xlink:title=" ">
<path fill="none" stroke="#63b8ff" d="M810.65,-351.74C822.3,-309.68 856.52,-186.11 869.57,-139.02"/>
<polygon fill="#63b8ff" stroke="#63b8ff" points="872.98,-139.82 872.27,-129.25 866.23,-137.95 872.98,-139.82"/>
</a>
</g>
</g>
<!-- Node9 -->
<g id="Node000009" class="node">
<title>Node9</title>
<g id="a_Node000009"><a xlink:title=" ">
<polygon fill="#e0e0e0" stroke="#999999" points="174.2,-19 133.2,-19 133.2,0 174.2,0 174.2,-19"/>
<text text-anchor="middle" x="153.7" y="-7" font-family="Helvetica,sans-Serif" font-size="10.00">tuple</text>
</a>
</g>
</g>
<!-- Node7&#45;&gt;Node9 -->
<g id="edge10_Node000007_Node000009" class="edge">
<title>Node7&#45;&gt;Node9</title>
<g id="a_edge10_Node000007_Node000009"><a xlink:title=" ">
<path fill="none" stroke="#63b8ff" d="M743.32,-352.69C638.45,-329.29 423.71,-275.5 255.7,-195 208.34,-172.31 183.15,-174.93 157.7,-129 140.22,-97.46 144.79,-53.6 149.42,-29.05"/>
<polygon fill="#63b8ff" stroke="#63b8ff" points="152.85,-29.74 151.47,-19.24 145.99,-28.31 152.85,-29.74"/>
</a>
</g>
</g>
<!-- Node10 -->
<g id="Node000010" class="node">
<title>Node10</title>
<g id="a_Node000010"><a xlink:href="bits_2approximations_2Operators_8hpp.html" target="_top" xlink:title="Implementations of differential operator families.">
<polygon fill="white" stroke="#666666" points="1179.7,-316 1023.7,-316 1023.7,-286 1179.7,-286 1179.7,-316"/>
<text text-anchor="start" x="1031.7" y="-304" font-family="Helvetica,sans-Serif" font-size="10.00">medusa/bits/approximations</text>
<text text-anchor="middle" x="1101.7" y="-293" font-family="Helvetica,sans-Serif" font-size="10.00">/Operators.hpp</text>
</a>
</g>
</g>
<!-- Node7&#45;&gt;Node10 -->
<g id="edge11_Node000007_Node000010" class="edge">
<title>Node7&#45;&gt;Node10</title>
<g id="a_edge11_Node000007_Node000010"><a xlink:title=" ">
<path fill="none" stroke="#63b8ff" d="M869.98,-352.27C916.07,-342.27 978.66,-328.69 1027.17,-318.17"/>
<polygon fill="#63b8ff" stroke="#63b8ff" points="1027.96,-321.58 1036.99,-316.04 1026.47,-314.74 1027.96,-321.58"/>
</a>
</g>
</g>
<!-- Node11 -->
<g id="Node000011" class="node">
<title>Node11</title>
<g id="a_Node000011"><a xlink:href="Operators__fwd_8hpp.html" target="_top" xlink:title="File defining basic differential operator families.">
<polygon fill="white" stroke="#666666" points="1136.7,-189.5 1028.7,-189.5 1028.7,-170.5 1136.7,-170.5 1136.7,-189.5"/>
<text text-anchor="middle" x="1082.7" y="-177.5" font-family="Helvetica,sans-Serif" font-size="10.00">Operators_fwd.hpp</text>
</a>
</g>
</g>
<!-- Node10&#45;&gt;Node11 -->
<g id="edge12_Node000010_Node000011" class="edge">
<title>Node10&#45;&gt;Node11</title>
<g id="a_edge12_Node000010_Node000011"><a xlink:title=" ">
<path fill="none" stroke="#63b8ff" d="M1104.74,-285.82C1107.25,-271.74 1109.78,-249.64 1105.7,-231 1103.24,-219.76 1098,-208.03 1093.15,-198.76"/>
<polygon fill="#63b8ff" stroke="#63b8ff" points="1096.09,-196.85 1088.18,-189.8 1089.97,-200.24 1096.09,-196.85"/>
</a>
</g>
</g>
<!-- Node13 -->
<g id="Node000013" class="node">
<title>Node13</title>
<g id="a_Node000013"><a xlink:href="Monomials__fwd_8hpp.html" target="_top" xlink:title="Declaration of Monomial basis.">
<polygon fill="white" stroke="#666666" points="1256.7,-129 1142.7,-129 1142.7,-110 1256.7,-110 1256.7,-129"/>
<text text-anchor="middle" x="1199.7" y="-117" font-family="Helvetica,sans-Serif" font-size="10.00">Monomials_fwd.hpp</text>
</a>
</g>
</g>
<!-- Node10&#45;&gt;Node13 -->
<g id="edge31_Node000010_Node000013" class="edge">
<title>Node10&#45;&gt;Node13</title>
<g id="a_edge31_Node000010_Node000013"><a xlink:title=" ">
<path fill="none" stroke="#63b8ff" d="M1109.39,-285.91C1127.05,-253.57 1170.48,-174.02 1189.96,-138.33"/>
<polygon fill="#63b8ff" stroke="#63b8ff" points="1193.26,-139.59 1194.98,-129.13 1187.12,-136.23 1193.26,-139.59"/>
</a>
</g>
</g>
<!-- Node21 -->
<g id="Node000021" class="node">
<title>Node21</title>
<g id="a_Node000021"><a xlink:href="RBFBasis__fwd_8hpp.html" target="_top" xlink:title="Declaration of RBF basis.">
<polygon fill="white" stroke="#666666" points="1096.7,-250 990.7,-250 990.7,-231 1096.7,-231 1096.7,-250"/>
<text text-anchor="middle" x="1043.7" y="-238" font-family="Helvetica,sans-Serif" font-size="10.00">RBFBasis_fwd.hpp</text>
</a>
</g>
</g>
<!-- Node10&#45;&gt;Node21 -->
<g id="edge32_Node000010_Node000021" class="edge">
<title>Node10&#45;&gt;Node21</title>
<g id="a_edge32_Node000010_Node000021"><a xlink:title=" ">
<path fill="none" stroke="#63b8ff" d="M1087.66,-285.84C1079.15,-277.26 1068.28,-266.3 1059.48,-257.42"/>
<polygon fill="#63b8ff" stroke="#63b8ff" points="1061.92,-254.9 1052.39,-250.27 1056.94,-259.83 1061.92,-254.9"/>
</a>
</g>
</g>
<!-- Node11&#45;&gt;Node3 -->
<g id="edge13_Node000011_Node000003" class="edge">
<title>Node11&#45;&gt;Node3</title>
<g id="a_edge13_Node000011_Node000003"><a xlink:title=" ">
<path fill="none" stroke="#63b8ff" d="M1074.55,-170.27C1062.01,-156.94 1037.09,-130.87 1014.7,-110 1003.83,-99.87 991.18,-89.03 981.08,-80.58"/>
<polygon fill="#63b8ff" stroke="#63b8ff" points="983.22,-77.8 973.28,-74.11 978.75,-83.19 983.22,-77.8"/>
</a>
</g>
</g>
<!-- Node11&#45;&gt;Node4 -->
<g id="edge15_Node000011_Node000004" class="edge">
<title>Node11&#45;&gt;Node4</title>
<g id="a_edge15_Node000011_Node000004"><a xlink:title=" ">
<path fill="none" stroke="#63b8ff" d="M1081.67,-170.28C1078.43,-147.11 1066.18,-83.84 1026.7,-55 971.13,-14.41 758.59,-10.28 675.38,-10.25"/>
<polygon fill="#63b8ff" stroke="#63b8ff" points="675.21,-6.75 665.21,-10.27 675.22,-13.75 675.21,-6.75"/>
</a>
</g>
</g>
<!-- Node11&#45;&gt;Node5 -->
<g id="edge16_Node000011_Node000005" class="edge">
<title>Node11&#45;&gt;Node5</title>
<g id="a_edge16_Node000011_Node000005"><a xlink:title=" ">
<path fill="none" stroke="#63b8ff" d="M1136.78,-174.77C1214.8,-167.95 1354.44,-152.82 1398.7,-129 1418.76,-118.2 1435.51,-97.72 1445.77,-82.93"/>
<polygon fill="#63b8ff" stroke="#63b8ff" points="1448.95,-84.47 1451.55,-74.19 1443.11,-80.61 1448.95,-84.47"/>
</a>
</g>
</g>
<!-- Node12 -->
<g id="Node000012" class="node">
<title>Node12</title>
<g id="a_Node000012"><a xlink:title=" ">
<polygon fill="#e0e0e0" stroke="#999999" points="1154.7,-19 1112.7,-19 1112.7,0 1154.7,0 1154.7,-19"/>
<text text-anchor="middle" x="1133.7" y="-7" font-family="Helvetica,sans-Serif" font-size="10.00">array</text>
</a>
</g>
</g>
<!-- Node11&#45;&gt;Node12 -->
<g id="edge14_Node000011_Node000012" class="edge">
<title>Node11&#45;&gt;Node12</title>
<g id="a_edge14_Node000011_Node000012"><a xlink:title=" ">
<path fill="none" stroke="#63b8ff" d="M1085.3,-170.41C1093.21,-144.28 1117.11,-65.29 1128.09,-29.04"/>
<polygon fill="#63b8ff" stroke="#63b8ff" points="1131.5,-29.86 1131.04,-19.27 1124.8,-27.83 1131.5,-29.86"/>
</a>
</g>
</g>
<!-- Node11&#45;&gt;Node13 -->
<g id="edge17_Node000011_Node000013" class="edge">
<title>Node11&#45;&gt;Node13</title>
<g id="a_edge17_Node000011_Node000013"><a xlink:title=" ">
<path fill="none" stroke="#63b8ff" d="M1099.71,-170.49C1119.12,-160.79 1151.08,-144.81 1173.64,-133.53"/>
<polygon fill="#63b8ff" stroke="#63b8ff" points="1175.29,-136.62 1182.66,-129.02 1172.16,-130.36 1175.29,-136.62"/>
</a>
</g>
</g>
<!-- Node11&#45;&gt;Node16 -->
<g id="edge23_Node000011_Node000016" class="edge">
<title>Node11&#45;&gt;Node16</title>
<g id="a_edge23_Node000011_Node000016"><a xlink:title=" ">
<path fill="none" stroke="#63b8ff" d="M1028.57,-173.76C923.97,-163.63 693.27,-141.28 566.46,-129"/>
<polygon fill="#63b8ff" stroke="#63b8ff" points="566.68,-125.51 556.39,-128.03 566.01,-132.47 566.68,-125.51"/>
</a>
</g>
</g>
<!-- Node13&#45;&gt;Node3 -->
<g id="edge18_Node000013_Node000003" class="edge">
<title>Node13&#45;&gt;Node3</title>
<g id="a_edge18_Node000013_Node000003"><a xlink:title=" ">
<path fill="none" stroke="#63b8ff" d="M1161.62,-109.98C1120.71,-100.84 1055.59,-86.27 1011.08,-76.32"/>
<polygon fill="#63b8ff" stroke="#63b8ff" points="1011.6,-72.85 1001.07,-74.08 1010.07,-79.68 1011.6,-72.85"/>
</a>
</g>
</g>
<!-- Node13&#45;&gt;Node5 -->
<g id="edge21_Node000013_Node000005" class="edge">
<title>Node13&#45;&gt;Node5</title>
<g id="a_edge21_Node000013_Node000005"><a xlink:title=" ">
<path fill="none" stroke="#63b8ff" d="M1240.99,-109.98C1287.88,-100.31 1364.12,-84.59 1412.27,-74.66"/>
<polygon fill="#63b8ff" stroke="#63b8ff" points="1413.01,-78.08 1422.1,-72.63 1411.6,-71.23 1413.01,-78.08"/>
</a>
</g>
</g>
<!-- Node13&#45;&gt;Node12 -->
<g id="edge20_Node000013_Node000012" class="edge">
<title>Node13&#45;&gt;Node12</title>
<g id="a_edge20_Node000013_Node000012"><a xlink:title=" ">
<path fill="none" stroke="#63b8ff" d="M1194.06,-109.67C1188.36,-100.72 1179.34,-86.45 1171.7,-74 1162.17,-58.47 1151.53,-40.65 1143.94,-27.85"/>
<polygon fill="#63b8ff" stroke="#63b8ff" points="1146.9,-25.99 1138.8,-19.16 1140.88,-29.55 1146.9,-25.99"/>
</a>
</g>
</g>
<!-- Node14 -->
<g id="Node000014" class="node">
<title>Node14</title>
<g id="a_Node000014"><a xlink:title=" ">
<polygon fill="#e0e0e0" stroke="#999999" points="1228.2,-74 1181.2,-74 1181.2,-55 1228.2,-55 1228.2,-74"/>
<text text-anchor="middle" x="1204.7" y="-62" font-family="Helvetica,sans-Serif" font-size="10.00">cmath</text>
</a>
</g>
</g>
<!-- Node13&#45;&gt;Node14 -->
<g id="edge19_Node000013_Node000014" class="edge">
<title>Node13&#45;&gt;Node14</title>
<g id="a_edge19_Node000013_Node000014"><a xlink:title=" ">
<path fill="none" stroke="#63b8ff" d="M1200.52,-109.75C1201.18,-102.8 1202.12,-92.85 1202.94,-84.13"/>
<polygon fill="#63b8ff" stroke="#63b8ff" points="1206.43,-84.37 1203.89,-74.09 1199.46,-83.72 1206.43,-84.37"/>
</a>
</g>
</g>
<!-- Node13&#45;&gt;Node15 -->
<g id="edge22_Node000013_Node000015" class="edge">
<title>Node13&#45;&gt;Node15</title>
<g id="a_edge22_Node000013_Node000015"><a xlink:title=" ">
<path fill="none" stroke="#63b8ff" d="M1142.62,-115.87C938.2,-106.46 246.17,-74.59 83.25,-67.09"/>
<polygon fill="#63b8ff" stroke="#63b8ff" points="83.02,-63.58 72.87,-66.61 82.7,-70.57 83.02,-63.58"/>
</a>
</g>
</g>
<!-- Node17 -->
<g id="Node000017" class="node">
<title>Node17</title>
<g id="a_Node000017"><a xlink:title=" ">
<polygon fill="#e0e0e0" stroke="#999999" points="544.7,-74 412.7,-74 412.7,-55 544.7,-55 544.7,-74"/>
<text text-anchor="middle" x="478.7" y="-62" font-family="Helvetica,sans-Serif" font-size="10.00">tinyformat/tinyformat.h</text>
</a>
</g>
</g>
<!-- Node16&#45;&gt;Node17 -->
<g id="edge24_Node000016_Node000017" class="edge">
<title>Node16&#45;&gt;Node17</title>
<g id="a_edge24_Node000016_Node000017"><a xlink:title=" ">
<path fill="none" stroke="#63b8ff" d="M478.7,-109.75C478.7,-102.8 478.7,-92.85 478.7,-84.13"/>
<polygon fill="#63b8ff" stroke="#63b8ff" points="482.2,-84.09 478.7,-74.09 475.2,-84.09 482.2,-84.09"/>
</a>
</g>
</g>
<!-- Node18 -->
<g id="Node000018" class="node">
<title>Node18</title>
<g id="a_Node000018"><a xlink:href="print_8hpp.html" target="_top" xlink:title="Printing helpers for std types.">
<polygon fill="white" stroke="#666666" points="306.7,-74 246.7,-74 246.7,-55 306.7,-55 306.7,-74"/>
<text text-anchor="middle" x="276.7" y="-62" font-family="Helvetica,sans-Serif" font-size="10.00">print.hpp</text>
</a>
</g>
</g>
<!-- Node16&#45;&gt;Node18 -->
<g id="edge25_Node000016_Node000018" class="edge">
<title>Node16&#45;&gt;Node18</title>
<g id="a_edge25_Node000016_Node000018"><a xlink:title=" ">
<path fill="none" stroke="#63b8ff" d="M446.24,-109.98C410.92,-100.72 354.43,-85.89 316.47,-75.93"/>
<polygon fill="#63b8ff" stroke="#63b8ff" points="317.32,-72.54 306.76,-73.39 315.55,-79.31 317.32,-72.54"/>
</a>
</g>
</g>
<!-- Node18&#45;&gt;Node4 -->
<g id="edge27_Node000018_Node000004" class="edge">
<title>Node18&#45;&gt;Node4</title>
<g id="a_edge27_Node000018_Node000004"><a xlink:title=" ">
<path fill="none" stroke="#63b8ff" d="M306.96,-57.44C311.55,-56.58 316.25,-55.74 320.7,-55 424.94,-37.72 549,-21.84 607.69,-14.61"/>
<polygon fill="#63b8ff" stroke="#63b8ff" points="608.37,-18.05 617.87,-13.36 607.52,-11.11 608.37,-18.05"/>
</a>
</g>
</g>
<!-- Node18&#45;&gt;Node9 -->
<g id="edge30_Node000018_Node000009" class="edge">
<title>Node18&#45;&gt;Node9</title>
<g id="a_edge30_Node000018_Node000009"><a xlink:title=" ">
<path fill="none" stroke="#63b8ff" d="M256.94,-54.98C236.97,-46.38 205.89,-32.99 183.05,-23.15"/>
<polygon fill="#63b8ff" stroke="#63b8ff" points="184.39,-19.91 173.82,-19.17 181.62,-26.34 184.39,-19.91"/>
</a>
</g>
</g>
<!-- Node18&#45;&gt;Node12 -->
<g id="edge28_Node000018_Node000012" class="edge">
<title>Node18&#45;&gt;Node12</title>
<g id="a_edge28_Node000018_Node000012"><a xlink:title=" ">
<path fill="none" stroke="#63b8ff" d="M306.72,-61.44C332.45,-59.69 370.51,-57.12 403.7,-55 674.19,-37.7 1001.17,-18.31 1102.35,-12.34"/>
<polygon fill="#63b8ff" stroke="#63b8ff" points="1102.72,-15.83 1112.49,-11.75 1102.31,-8.84 1102.72,-15.83"/>
</a>
</g>
</g>
<!-- Node19 -->
<g id="Node000019" class="node">
<title>Node19</title>
<g id="a_Node000019"><a xlink:title=" ">
<polygon fill="#e0e0e0" stroke="#999999" points="270.7,-19 210.7,-19 210.7,0 270.7,0 270.7,-19"/>
<text text-anchor="middle" x="240.7" y="-7" font-family="Helvetica,sans-Serif" font-size="10.00">iostream</text>
</a>
</g>
</g>
<!-- Node18&#45;&gt;Node19 -->
<g id="edge26_Node000018_Node000019" class="edge">
<title>Node18&#45;&gt;Node19</title>
<g id="a_edge26_Node000018_Node000019"><a xlink:title=" ">
<path fill="none" stroke="#63b8ff" d="M270.75,-54.75C265.72,-47.34 258.36,-36.5 252.18,-27.41"/>
<polygon fill="#63b8ff" stroke="#63b8ff" points="255.05,-25.39 246.53,-19.09 249.26,-29.33 255.05,-25.39"/>
</a>
</g>
</g>
<!-- Node20 -->
<g id="Node000020" class="node">
<title>Node20</title>
<g id="a_Node000020"><a xlink:title=" ">
<polygon fill="#e0e0e0" stroke="#999999" points="334.2,-19 289.2,-19 289.2,0 334.2,0 334.2,-19"/>
<text text-anchor="middle" x="311.7" y="-7" font-family="Helvetica,sans-Serif" font-size="10.00">utility</text>
</a>
</g>
</g>
<!-- Node18&#45;&gt;Node20 -->
<g id="edge29_Node000018_Node000020" class="edge">
<title>Node18&#45;&gt;Node20</title>
<g id="a_edge29_Node000018_Node000020"><a xlink:title=" ">
<path fill="none" stroke="#63b8ff" d="M282.48,-54.75C287.32,-47.42 294.38,-36.73 300.34,-27.7"/>
<polygon fill="#63b8ff" stroke="#63b8ff" points="303.44,-29.36 306.03,-19.09 297.59,-25.5 303.44,-29.36"/>
</a>
</g>
</g>
<!-- Node21&#45;&gt;Node3 -->
<g id="edge33_Node000021_Node000003" class="edge">
<title>Node21&#45;&gt;Node3</title>
<g id="a_edge33_Node000021_Node000003"><a xlink:title=" ">
<path fill="none" stroke="#63b8ff" d="M1038.71,-230.74C1033.7,-221.85 1025.87,-207.62 1019.7,-195 1000.54,-155.8 980.53,-108.65 970.07,-83.46"/>
<polygon fill="#63b8ff" stroke="#63b8ff" points="973.25,-82 966.2,-74.09 966.78,-84.67 973.25,-82"/>
</a>
</g>
</g>
<!-- Node21&#45;&gt;Node11 -->
<g id="edge36_Node000021_Node000011" class="edge">
<title>Node21&#45;&gt;Node11</title>
<g id="a_edge36_Node000021_Node000011"><a xlink:title=" ">
<path fill="none" stroke="#63b8ff" d="M1049.45,-230.87C1055.16,-222.31 1064.05,-208.97 1071.2,-198.24"/>
<polygon fill="#63b8ff" stroke="#63b8ff" points="1074.29,-199.93 1076.92,-189.67 1068.46,-196.05 1074.29,-199.93"/>
</a>
</g>
</g>
<!-- Node21&#45;&gt;Node12 -->
<g id="edge35_Node000021_Node000012" class="edge">
<title>Node21&#45;&gt;Node12</title>
<g id="a_edge35_Node000021_Node000012"><a xlink:title=" ">
<path fill="none" stroke="#63b8ff" d="M1096.86,-236.71C1179.3,-229.97 1339.68,-207.03 1447.7,-129 1474.97,-109.3 1487.26,-105.26 1499.7,-74 1502.82,-66.15 1505.3,-61.32 1499.7,-55 1477.59,-30.04 1249.06,-16.23 1164.73,-11.96"/>
<polygon fill="#63b8ff" stroke="#63b8ff" points="1164.89,-8.46 1154.73,-11.46 1164.55,-15.45 1164.89,-8.46"/>
</a>
</g>
</g>
<!-- Node21&#45;&gt;Node15 -->
<g id="edge34_Node000021_Node000015" class="edge">
<title>Node21&#45;&gt;Node15</title>
<g id="a_edge34_Node000021_Node000015"><a xlink:title=" ">
<path fill="none" stroke="#63b8ff" d="M990.45,-237.68C824.96,-231.87 326.4,-213.04 255.7,-195 189.43,-178.09 173.25,-167.46 116.7,-129 96.38,-115.18 76.19,-95.36 63.16,-81.55"/>
<polygon fill="#63b8ff" stroke="#63b8ff" points="65.73,-79.17 56.37,-74.21 60.59,-83.92 65.73,-79.17"/>
</a>
</g>
</g>
<!-- Node22&#45;&gt;Node3 -->
<g id="edge40_Node000022_Node000003" class="edge">
<title>Node22&#45;&gt;Node3</title>
<g id="a_edge40_Node000022_Node000003"><a xlink:title=" ">
<path fill="none" stroke="#63b8ff" d="M743.49,-230.99C766.48,-224.56 793.43,-213.55 811.7,-195 840.03,-166.24 815.12,-138.51 843.7,-110 859.95,-93.79 882.65,-83.4 903.87,-76.79"/>
<polygon fill="#63b8ff" stroke="#63b8ff" points="904.86,-80.14 913.49,-74 902.91,-73.42 904.86,-80.14"/>
</a>
</g>
</g>
<!-- Node22&#45;&gt;Node5 -->
<g id="edge58_Node000022_Node000005" class="edge">
<title>Node22&#45;&gt;Node5</title>
<g id="a_edge58_Node000022_Node000005"><a xlink:title=" ">
<path fill="none" stroke="#63b8ff" d="M762.74,-237.78C920.75,-232.29 1323.71,-210.48 1425.7,-129 1439.75,-117.77 1447.88,-98.58 1452.25,-84.22"/>
<polygon fill="#63b8ff" stroke="#63b8ff" points="1455.68,-84.97 1454.91,-74.4 1448.92,-83.14 1455.68,-84.97"/>
</a>
</g>
</g>
<!-- Node22&#45;&gt;Node9 -->
<g id="edge57_Node000022_Node000009" class="edge">
<title>Node22&#45;&gt;Node9</title>
<g id="a_edge57_Node000022_Node000009"><a xlink:title=" ">
<path fill="none" stroke="#63b8ff" d="M634.62,-238.33C485.23,-235.12 122.97,-224.37 76.7,-195 19.4,-158.62 -24.26,-109.87 15.7,-55 40.06,-21.54 90.05,-12.71 122.7,-10.67"/>
<polygon fill="#63b8ff" stroke="#63b8ff" points="123.21,-14.15 133.05,-10.21 122.9,-7.15 123.21,-14.15"/>
</a>
</g>
</g>
<!-- Node22&#45;&gt;Node11 -->
<g id="edge55_Node000022_Node000011" class="edge">
<title>Node22&#45;&gt;Node11</title>
<g id="a_edge55_Node000022_Node000011"><a xlink:title=" ">
<path fill="none" stroke="#63b8ff" d="M754.54,-230.99C824.66,-220.31 944.73,-202.02 1018.55,-190.77"/>
<polygon fill="#63b8ff" stroke="#63b8ff" points="1019.3,-194.2 1028.65,-189.23 1018.24,-187.28 1019.3,-194.2"/>
</a>
</g>
</g>
<!-- Node22&#45;&gt;Node15 -->
<g id="edge56_Node000022_Node000015" class="edge">
<title>Node22&#45;&gt;Node15</title>
<g id="a_edge56_Node000022_Node000015"><a xlink:title=" ">
<path fill="none" stroke="#63b8ff" d="M634.34,-237.69C511.7,-233.65 249.01,-222.06 162.7,-195 106.83,-177.49 77.94,-179.72 48.7,-129 40.95,-115.57 41.72,-97.73 43.98,-84.38"/>
<polygon fill="#63b8ff" stroke="#63b8ff" points="47.44,-84.93 46.08,-74.42 40.59,-83.49 47.44,-84.93"/>
</a>
</g>
</g>
<!-- Node23 -->
<g id="Node000023" class="node">
<title>Node23</title>
<g id="a_Node000023"><a xlink:href="Range__fwd_8hpp.html" target="_top" xlink:title="Declaration of Range.">
<polygon fill="white" stroke="#666666" points="404.7,-195 264.7,-195 264.7,-165 404.7,-165 404.7,-195"/>
<text text-anchor="start" x="272.7" y="-183" font-family="Helvetica,sans-Serif" font-size="10.00">medusa/bits/types/Range</text>
<text text-anchor="middle" x="334.7" y="-172" font-family="Helvetica,sans-Serif" font-size="10.00">_fwd.hpp</text>
</a>
</g>
</g>
<!-- Node22&#45;&gt;Node23 -->
<g id="edge41_Node000022_Node000023" class="edge">
<title>Node22&#45;&gt;Node23</title>
<g id="a_edge41_Node000022_Node000023"><a xlink:title=" ">
<path fill="none" stroke="#63b8ff" d="M645.77,-230.99C585.16,-221.25 485.21,-205.19 415,-193.9"/>
<polygon fill="#63b8ff" stroke="#63b8ff" points="415.29,-190.41 404.86,-192.28 414.18,-197.32 415.29,-190.41"/>
</a>
</g>
</g>
<!-- Node26 -->
<g id="Node000026" class="node">
<title>Node26</title>
<g id="a_Node000026"><a xlink:href="stdtypesutils_8hpp.html" target="_top" xlink:title="Declaration of utilities for std types.">
<polygon fill="white" stroke="#666666" points="802.7,-189.5 614.7,-189.5 614.7,-170.5 802.7,-170.5 802.7,-189.5"/>
<text text-anchor="middle" x="708.7" y="-177.5" font-family="Helvetica,sans-Serif" font-size="10.00">medusa/bits/utils/stdtypesutils.hpp</text>
</a>
</g>
</g>
<!-- Node22&#45;&gt;Node26 -->
<g id="edge48_Node000022_Node000026" class="edge">
<title>Node22&#45;&gt;Node26</title>
<g id="a_edge48_Node000022_Node000026"><a xlink:title=" ">
<path fill="none" stroke="#63b8ff" d="M700.17,-230.87C701.58,-222.66 703.73,-210.04 705.53,-199.55"/>
<polygon fill="#63b8ff" stroke="#63b8ff" points="708.98,-200.11 707.22,-189.67 702.08,-198.93 708.98,-200.11"/>
</a>
</g>
</g>
<!-- Node23&#45;&gt;Node3 -->
<g id="edge42_Node000023_Node000003" class="edge">
<title>Node23&#45;&gt;Node3</title>
<g id="a_edge42_Node000023_Node000003"><a xlink:title=" ">
<path fill="none" stroke="#63b8ff" d="M341.74,-164.99C350.81,-148.61 368.26,-122.18 391.7,-110 435.66,-87.17 757.13,-72.92 897.47,-67.72"/>
<polygon fill="#63b8ff" stroke="#63b8ff" points="897.79,-71.21 907.66,-67.35 897.53,-64.22 897.79,-71.21"/>
</a>
</g>
</g>
<!-- Node23&#45;&gt;Node4 -->
<g id="edge46_Node000023_Node000004" class="edge">
<title>Node23&#45;&gt;Node4</title>
<g id="a_edge46_Node000023_Node000004"><a xlink:title=" ">
<path fill="none" stroke="#63b8ff" d="M337.93,-164.87C344.85,-138.22 363.81,-80.88 403.7,-55 436.98,-33.41 550.57,-19.46 607.95,-13.63"/>
<polygon fill="#63b8ff" stroke="#63b8ff" points="608.37,-17.1 617.97,-12.63 607.68,-10.14 608.37,-17.1"/>
</a>
</g>
</g>
<!-- Node23&#45;&gt;Node15 -->
<g id="edge47_Node000023_Node000015" class="edge">
<title>Node23&#45;&gt;Node15</title>
<g id="a_edge47_Node000023_Node000015"><a xlink:title=" ">
<path fill="none" stroke="#63b8ff" d="M270.29,-164.96C236.12,-156.49 193.85,-144.35 157.7,-129 125.39,-115.28 90.81,-93.85 69.47,-79.74"/>
<polygon fill="#63b8ff" stroke="#63b8ff" points="71.17,-76.67 60.91,-74.01 67.27,-82.48 71.17,-76.67"/>
</a>
</g>
</g>
<!-- Node23&#45;&gt;Node16 -->
<g id="edge43_Node000023_Node000016" class="edge">
<title>Node23&#45;&gt;Node16</title>
<g id="a_edge43_Node000023_Node000016"><a xlink:title=" ">
<path fill="none" stroke="#63b8ff" d="M369.19,-164.99C393.22,-155.23 424.97,-142.33 448.1,-132.93"/>
<polygon fill="#63b8ff" stroke="#63b8ff" points="449.49,-136.15 457.43,-129.14 446.85,-129.66 449.49,-136.15"/>
</a>
</g>
</g>
<!-- Node24 -->
<g id="Node000024" class="node">
<title>Node24</title>
<g id="a_Node000024"><a xlink:href="traits_8hpp.html" target="_top" xlink:title="Type traits definition for vector and scalar fields.">
<polygon fill="white" stroke="#666666" points="230.2,-129 167.2,-129 167.2,-110 230.2,-110 230.2,-129"/>
<text text-anchor="middle" x="198.7" y="-117" font-family="Helvetica,sans-Serif" font-size="10.00">traits.hpp</text>
</a>
</g>
</g>
<!-- Node23&#45;&gt;Node24 -->
<g id="edge44_Node000023_Node000024" class="edge">
<title>Node23&#45;&gt;Node24</title>
<g id="a_edge44_Node000023_Node000024"><a xlink:title=" ">
<path fill="none" stroke="#63b8ff" d="M302.12,-164.99C279.63,-155.31 249.97,-142.56 228.19,-133.18"/>
<polygon fill="#63b8ff" stroke="#63b8ff" points="229.35,-129.88 218.78,-129.14 226.59,-136.31 229.35,-129.88"/>
</a>
</g>
</g>
<!-- Node25 -->
<g id="Node000025" class="node">
<title>Node25</title>
<g id="a_Node000025"><a xlink:title=" ">
<polygon fill="#e0e0e0" stroke="#999999" points="306.7,-129 248.7,-129 248.7,-110 306.7,-110 306.7,-129"/>
<text text-anchor="middle" x="277.7" y="-117" font-family="Helvetica,sans-Serif" font-size="10.00">memory</text>
</a>
</g>
</g>
<!-- Node23&#45;&gt;Node25 -->
<g id="edge45_Node000023_Node000025" class="edge">
<title>Node23&#45;&gt;Node25</title>
<g id="a_edge45_Node000023_Node000025"><a xlink:title=" ">
<path fill="none" stroke="#63b8ff" d="M320.9,-164.84C312.63,-156.35 302.08,-145.52 293.47,-136.69"/>
<polygon fill="#63b8ff" stroke="#63b8ff" points="295.72,-133.99 286.24,-129.27 290.71,-138.87 295.72,-133.99"/>
</a>
</g>
</g>
<!-- Node26&#45;&gt;Node3 -->
<g id="edge49_Node000026_Node000003" class="edge">
<title>Node26&#45;&gt;Node3</title>
<g id="a_edge49_Node000026_Node000003"><a xlink:title=" ">
<path fill="none" stroke="#63b8ff" d="M719.05,-170.37C736.77,-155.99 774.52,-127.02 810.7,-110 842.66,-94.96 880.83,-83.81 910.92,-76.43"/>
<polygon fill="#63b8ff" stroke="#63b8ff" points="911.88,-79.8 920.79,-74.07 910.25,-72.99 911.88,-79.8"/>
</a>
</g>
</g>
<!-- Node26&#45;&gt;Node4 -->
<g id="edge52_Node000026_Node000004" class="edge">
<title>Node26&#45;&gt;Node4</title>
<g id="a_edge52_Node000026_Node000004"><a xlink:title=" ">
<path fill="none" stroke="#63b8ff" d="M702.97,-170.45C696.65,-160.73 686.46,-144.22 679.7,-129 664.48,-94.74 652.43,-52.48 646.25,-28.81"/>
<polygon fill="#63b8ff" stroke="#63b8ff" points="649.63,-27.89 643.77,-19.06 642.85,-29.62 649.63,-27.89"/>
</a>
</g>
</g>
<!-- Node26&#45;&gt;Node8 -->
<g id="edge51_Node000026_Node000008" class="edge">
<title>Node26&#45;&gt;Node8</title>
<g id="a_edge51_Node000026_Node000008"><a xlink:title=" ">
<path fill="none" stroke="#63b8ff" d="M732.84,-170.49C761.88,-160.26 810.75,-143.04 842.86,-131.72"/>
<polygon fill="#63b8ff" stroke="#63b8ff" points="844.39,-134.89 852.65,-128.27 842.06,-128.29 844.39,-134.89"/>
</a>
</g>
</g>
<!-- Node26&#45;&gt;Node9 -->
<g id="edge53_Node000026_Node000009" class="edge">
<title>Node26&#45;&gt;Node9</title>
<g id="a_edge53_Node000026_Node000009"><a xlink:title=" ">
<path fill="none" stroke="#63b8ff" d="M701.39,-170.42C680.9,-147.04 620.04,-82.14 553.7,-55 408.15,4.55 357.45,-40.73 201.7,-19 196.04,-18.21 190.03,-17.25 184.24,-16.26"/>
<polygon fill="#63b8ff" stroke="#63b8ff" points="184.66,-12.77 174.2,-14.47 183.43,-19.67 184.66,-12.77"/>
</a>
</g>
</g>
<!-- Node26&#45;&gt;Node16 -->
<g id="edge50_Node000026_Node000016" class="edge">
<title>Node26&#45;&gt;Node16</title>
<g id="a_edge50_Node000026_Node000016"><a xlink:title=" ">
<path fill="none" stroke="#63b8ff" d="M675.25,-170.49C634.8,-160.2 566.6,-142.86 522.12,-131.54"/>
<polygon fill="#63b8ff" stroke="#63b8ff" points="522.74,-128.09 512.18,-129.02 521.01,-134.87 522.74,-128.09"/>
</a>
</g>
</g>
<!-- Node27 -->
<g id="Node000027" class="node">
<title>Node27</title>
<g id="a_Node000027"><a xlink:title=" ">
<polygon fill="#e0e0e0" stroke="#999999" points="758.2,-129 689.2,-129 689.2,-110 758.2,-110 758.2,-129"/>
<text text-anchor="middle" x="723.7" y="-117" font-family="Helvetica,sans-Serif" font-size="10.00">type_traits</text>
</a>
</g>
</g>
<!-- Node26&#45;&gt;Node27 -->
<g id="edge54_Node000026_Node000027" class="edge">
<title>Node26&#45;&gt;Node27</title>
<g id="a_edge54_Node000026_Node000027"><a xlink:title=" ">
<path fill="none" stroke="#63b8ff" d="M710.91,-170.37C713.02,-162.16 716.25,-149.54 718.94,-139.05"/>
<polygon fill="#63b8ff" stroke="#63b8ff" points="722.38,-139.72 721.48,-129.17 715.6,-137.98 722.38,-139.72"/>
</a>
</g>
</g>
<!-- Node28&#45;&gt;Node3 -->
<g id="edge60_Node000028_Node000003" class="edge">
<title>Node28&#45;&gt;Node3</title>
<g id="a_edge60_Node000028_Node000003"><a xlink:title=" ">
<path fill="none" stroke="#63b8ff" d="M973.27,-417.63C971.55,-360.45 965.2,-148.97 963.26,-84.37"/>
<polygon fill="#63b8ff" stroke="#63b8ff" points="966.75,-83.98 962.96,-74.09 959.76,-84.19 966.75,-83.98"/>
</a>
</g>
</g>
<!-- Node28&#45;&gt;Node5 -->
<g id="edge63_Node000028_Node000005" class="edge">
<title>Node28&#45;&gt;Node5</title>
<g id="a_edge63_Node000028_Node000005"><a xlink:title=" ">
<path fill="none" stroke="#63b8ff" d="M1034.58,-421.37C1164.1,-397.28 1459.23,-334.01 1508.7,-250 1540.27,-196.38 1534.72,-166.52 1508.7,-110 1502.95,-97.52 1491.79,-87.24 1481.27,-79.71"/>
<polygon fill="#63b8ff" stroke="#63b8ff" points="1483,-76.65 1472.73,-74.05 1479.13,-82.49 1483,-76.65"/>
</a>
</g>
</g>
<!-- Node28&#45;&gt;Node7 -->
<g id="edge62_Node000028_Node000007" class="edge">
<title>Node28&#45;&gt;Node7</title>
<g id="a_edge62_Node000028_Node000007"><a xlink:title=" ">
<path fill="none" stroke="#63b8ff" d="M937.05,-417.95C912.25,-408.45 879.3,-395.82 852.73,-385.64"/>
<polygon fill="#63b8ff" stroke="#63b8ff" points="853.85,-382.32 843.26,-382.01 851.35,-388.86 853.85,-382.32"/>
</a>
</g>
</g>
<!-- Node28&#45;&gt;Node22 -->
<g id="edge61_Node000028_Node000022" class="edge">
<title>Node28&#45;&gt;Node22</title>
<g id="a_edge61_Node000028_Node000022"><a xlink:title=" ">
<path fill="none" stroke="#63b8ff" d="M958.48,-417.95C940.18,-401.36 908.24,-373.33 878.7,-352 825.7,-313.75 759.25,-275.19 723.76,-255.3"/>
<polygon fill="#63b8ff" stroke="#63b8ff" points="725.05,-252.01 714.61,-250.2 721.64,-258.13 725.05,-252.01"/>
</a>
</g>
</g>
<!-- Node30 -->
<g id="Node000030" class="node">
<title>Node30</title>
<g id="a_Node000030"><a xlink:href="Vec__fwd_8hpp.html" target="_top" xlink:title="Declaration of Vec.">
<polygon fill="white" stroke="#666666" points="1390.2,-129 1313.2,-129 1313.2,-110 1390.2,-110 1390.2,-129"/>
<text text-anchor="middle" x="1351.7" y="-117" font-family="Helvetica,sans-Serif" font-size="10.00">Vec_fwd.hpp</text>
</a>
</g>
</g>
<!-- Node29&#45;&gt;Node30 -->
<g id="edge65_Node000029_Node000030" class="edge">
<title>Node29&#45;&gt;Node30</title>
<g id="a_edge65_Node000029_Node000030"><a xlink:title=" ">
<path fill="none" stroke="#63b8ff" d="M1557.81,-423.34C1528.98,-380.99 1402.63,-195.34 1363.38,-137.66"/>
<polygon fill="#63b8ff" stroke="#63b8ff" points="1366.18,-135.56 1357.66,-129.26 1360.39,-139.5 1366.18,-135.56"/>
</a>
</g>
</g>
<!-- Node30&#45;&gt;Node3 -->
<g id="edge66_Node000030_Node000003" class="edge">
<title>Node30&#45;&gt;Node3</title>
<g id="a_edge66_Node000030_Node000003"><a xlink:title=" ">
<path fill="none" stroke="#63b8ff" d="M1312.93,-112.16C1308.14,-111.41 1303.31,-110.67 1298.7,-110 1204.69,-96.24 1095.61,-82.13 1027.86,-73.59"/>
<polygon fill="#63b8ff" stroke="#63b8ff" points="1028.12,-70.1 1017.76,-72.32 1027.25,-77.04 1028.12,-70.1"/>
</a>
</g>
</g>
<!-- Node30&#45;&gt;Node5 -->
<g id="edge67_Node000030_Node000005" class="edge">
<title>Node30&#45;&gt;Node5</title>
<g id="a_edge67_Node000030_Node000005"><a xlink:title=" ">
<path fill="none" stroke="#63b8ff" d="M1368.57,-109.98C1385.31,-101.54 1411.2,-88.47 1430.59,-78.68"/>
<polygon fill="#63b8ff" stroke="#63b8ff" points="1432.17,-81.8 1439.52,-74.17 1429.02,-75.55 1432.17,-81.8"/>
</a>
</g>
</g>
</g>
</svg>

<g id="navigator" transform="translate(0 0)" fill="#404254">
  <rect fill="#f2f5e9" fill-opacity="0.5" stroke="#606060" stroke-width=".5" x="0" y="0" width="60" height="60"/>
  <use id="zoomplus" xlink:href="#zoomPlus" x="17" y="9" onmousedown="handleZoom(evt,'in')"/>
  <use id="zoomminus" xlink:href="#zoomMin" x="42" y="9" onmousedown="handleZoom(evt,'out')"/>
  <use id="reset" xlink:href="#resetDef" x="30" y="36" onmousedown="handleReset()"/>
   <use id="arrowup" xlink:href="#arrowUp" x="0" y="0" onmousedown="handlePan(0,-1)"/>
  <use id="arrowright" xlink:href="#arrowRight" x="0" y="0" onmousedown="handlePan(1,0)"/>
  <use id="arrowdown" xlink:href="#arrowDown" x="0" y="0" onmousedown="handlePan(0,1)"/>
  <use id="arrowleft" xlink:href="#arrowLeft" x="0" y="0" onmousedown="handlePan(-1,0)"/>
</g>
<svg viewBox="0 0 15 15" width="100%" height="30px" preserveAspectRatio="xMaxYMin meet">
 <g id="arrow_out" transform="scale(0.3 0.3)">
  <a xlink:href="ExplicitOperators_8hpp__incl_org.svg" target="_base">
   <rect id="button" ry="5" rx="5" y="6" x="6" height="38" width="38"
        fill="#f2f5e9" fill-opacity="0.5" stroke="#606060" stroke-width="1.0"/>
   <path id="arrow"
     d="M 11.500037,31.436501 C 11.940474,20.09759 22.043105,11.32322 32.158766,21.979434 L 37.068811,17.246167 C 37.068811,17.246167 37.088388,32 37.088388,32 L 22.160133,31.978069 C 22.160133,31.978069 26.997745,27.140456 26.997745,27.140456 C 18.528582,18.264221 13.291696,25.230495 11.500037,31.436501 z"
     style="fill:#404040;"/>
  </a>
 </g>
</svg>

<style type='text/css'>
<![CDATA[
[data-mouse-over-selected='false'] { opacity: 0.7; }
[data-mouse-over-selected='true']  { opacity: 1.0; }
]]>
</style>
<script type="application/ecmascript"><![CDATA[
document.addEventListener('DOMContentLoaded', (event) => {
  highlightEdges();
  highlightAdjacentNodes();
});
]]></script>
</svg>
