<?xml version="1.0" encoding="UTF-8" standalone="no"?>
<!DOCTYPE svg PUBLIC "-//W3C//DTD SVG 1.1//EN"
 "http://www.w3.org/Graphics/SVG/1.1/DTD/svg11.dtd">
<!-- Generated by graphviz version 2.43.0 (0)
 -->
<!-- Title: include/medusa/bits/operators/ExplicitVectorOperators.hpp Pages: 1 -->
<svg width="1268pt" height="335pt"
 viewBox="0.00 0.00 1268.00 335.00" xmlns="http://www.w3.org/2000/svg" xmlns:xlink="http://www.w3.org/1999/xlink">
<g id="graph0" class="graph" transform="scale(1 1) rotate(0) translate(4 331)">
<title>include/medusa/bits/operators/ExplicitVectorOperators.hpp</title>
<!-- Node1 -->
<g id="Node000001" class="node">
<title>Node1</title>
<g id="a_Node000001"><a xlink:title="Explicit vector operators implementation.">
<polygon fill="#999999" stroke="#666666" points="571,-327 366,-327 366,-297 571,-297 571,-327"/>
<text text-anchor="start" x="374" y="-315" font-family="Helvetica,sans-Serif" font-size="10.00">include/medusa/bits</text>
<text text-anchor="middle" x="468.5" y="-304" font-family="Helvetica,sans-Serif" font-size="10.00">/operators/ExplicitVectorOperators.hpp</text>
</a>
</g>
</g>
<!-- Node2 -->
<g id="Node000002" class="node">
<title>Node2</title>
<g id="a_Node000002"><a xlink:href="ExplicitVectorOperators__fwd_8hpp.html" target="_top" xlink:title="Explicit vector operators declarations.">
<polygon fill="white" stroke="#666666" points="460,-261 329,-261 329,-231 460,-231 460,-261"/>
<text text-anchor="start" x="337" y="-249" font-family="Helvetica,sans-Serif" font-size="10.00">ExplicitVectorOperators</text>
<text text-anchor="middle" x="394.5" y="-238" font-family="Helvetica,sans-Serif" font-size="10.00">_fwd.hpp</text>
</a>
</g>
</g>
<!-- Node1&#45;&gt;Node2 -->
<g id="edge1_Node000001_Node000002" class="edge">
<title>Node1&#45;&gt;Node2</title>
<g id="a_edge1_Node000001_Node000002"><a xlink:title=" ">
<path fill="none" stroke="#63b8ff" d="M452.08,-296.8C442.21,-288.26 429.48,-277.25 418.5,-267.75"/>
<polygon fill="#63b8ff" stroke="#63b8ff" points="420.73,-265.06 410.88,-261.16 416.15,-270.35 420.73,-265.06"/>
</a>
</g>
</g>
<!-- Node5 -->
<g id="Node000005" class="node">
<title>Node5</title>
<g id="a_Node000005"><a xlink:title=" ">
<polygon fill="#e0e0e0" stroke="#999999" points="69,-74 0,-74 0,-55 69,-55 69,-74"/>
<text text-anchor="middle" x="34.5" y="-62" font-family="Helvetica,sans-Serif" font-size="10.00">Eigen/Core</text>
</a>
</g>
</g>
<!-- Node1&#45;&gt;Node5 -->
<g id="edge26_Node000001_Node000005" class="edge">
<title>Node1&#45;&gt;Node5</title>
<g id="a_edge26_Node000001_Node000005"><a xlink:title=" ">
<path fill="none" stroke="#63b8ff" d="M365.88,-299.94C243.08,-284.35 48.48,-251.33 4.5,-195 0.1,-189.36 -1,-131.17 5.5,-110 8.57,-100.01 14.6,-90.14 20.38,-82.25"/>
<polygon fill="#63b8ff" stroke="#63b8ff" points="23.21,-84.3 26.61,-74.27 17.7,-79.99 23.21,-84.3"/>
</a>
</g>
</g>
<!-- Node12 -->
<g id="Node000012" class="node">
<title>Node12</title>
<g id="a_Node000012"><a xlink:href="assert_8hpp.html" target="_top" xlink:title="Implementation of custom assert and debug utilities.">
<polygon fill="white" stroke="#666666" points="980,-129 825,-129 825,-110 980,-110 980,-129"/>
<text text-anchor="middle" x="902.5" y="-117" font-family="Helvetica,sans-Serif" font-size="10.00">medusa/bits/utils/assert.hpp</text>
</a>
</g>
</g>
<!-- Node1&#45;&gt;Node12 -->
<g id="edge25_Node000001_Node000012" class="edge">
<title>Node1&#45;&gt;Node12</title>
<g id="a_edge25_Node000001_Node000012"><a xlink:title=" ">
<path fill="none" stroke="#63b8ff" d="M545.85,-296.91C583.13,-288.76 628,-276.92 666.5,-261 751.76,-225.74 842.95,-163.52 882.41,-135.23"/>
<polygon fill="#63b8ff" stroke="#63b8ff" points="884.82,-137.81 890.87,-129.12 880.71,-132.14 884.82,-137.81"/>
</a>
</g>
</g>
<!-- Node18 -->
<g id="Node000018" class="node">
<title>Node18</title>
<g id="a_Node000018"><a xlink:href="ShapeStorage__fwd_8hpp.html" target="_top" xlink:title="Base class and interface for storing and accessing computed shapes.">
<polygon fill="white" stroke="#666666" points="657.5,-255.5 529.5,-255.5 529.5,-236.5 657.5,-236.5 657.5,-255.5"/>
<text text-anchor="middle" x="593.5" y="-243.5" font-family="Helvetica,sans-Serif" font-size="10.00">ShapeStorage_fwd.hpp</text>
</a>
</g>
</g>
<!-- Node1&#45;&gt;Node18 -->
<g id="edge27_Node000001_Node000018" class="edge">
<title>Node1&#45;&gt;Node18</title>
<g id="a_edge27_Node000001_Node000018"><a xlink:title=" ">
<path fill="none" stroke="#63b8ff" d="M495.93,-296.95C517.37,-285.98 546.95,-270.83 567.9,-260.11"/>
<polygon fill="#63b8ff" stroke="#63b8ff" points="569.56,-263.19 576.86,-255.52 566.37,-256.96 569.56,-263.19"/>
</a>
</g>
</g>
<!-- Node3 -->
<g id="Node000003" class="node">
<title>Node3</title>
<g id="a_Node000003"><a xlink:href="Config_8hpp.html" target="_top" xlink:title="Contains compile time settings for the project, such as Eigen plugins.">
<polygon fill="white" stroke="#666666" points="798.5,-74 688.5,-74 688.5,-55 798.5,-55 798.5,-74"/>
<text text-anchor="middle" x="743.5" y="-62" font-family="Helvetica,sans-Serif" font-size="10.00">medusa/Config.hpp</text>
</a>
</g>
</g>
<!-- Node2&#45;&gt;Node3 -->
<g id="edge2_Node000002_Node000003" class="edge">
<title>Node2&#45;&gt;Node3</title>
<g id="a_edge2_Node000002_Node000003"><a xlink:title=" ">
<path fill="none" stroke="#63b8ff" d="M391.57,-230.78C386.82,-203.21 380.94,-142.37 413.5,-110 449.69,-74.01 592.95,-66.5 678.36,-65.3"/>
<polygon fill="#63b8ff" stroke="#63b8ff" points="678.52,-68.8 688.48,-65.18 678.44,-61.8 678.52,-68.8"/>
</a>
</g>
</g>
<!-- Node2&#45;&gt;Node5 -->
<g id="edge4_Node000002_Node000005" class="edge">
<title>Node2&#45;&gt;Node5</title>
<g id="a_edge4_Node000002_Node000005"><a xlink:title=" ">
<path fill="none" stroke="#63b8ff" d="M328.76,-240.86C226.88,-233.76 40.45,-217.8 20.5,-195 -6.84,-163.77 12.22,-110.75 25.2,-83.24"/>
<polygon fill="#63b8ff" stroke="#63b8ff" points="28.46,-84.56 29.77,-74.05 22.19,-81.44 28.46,-84.56"/>
</a>
</g>
</g>
<!-- Node6 -->
<g id="Node000006" class="node">
<title>Node6</title>
<g id="a_Node000006"><a xlink:href="traits_8hpp.html" target="_top" xlink:title="Type traits definition for vector and scalar fields.">
<polygon fill="white" stroke="#666666" points="578.5,-129 422.5,-129 422.5,-110 578.5,-110 578.5,-129"/>
<text text-anchor="middle" x="500.5" y="-117" font-family="Helvetica,sans-Serif" font-size="10.00">medusa/bits/types/traits.hpp</text>
</a>
</g>
</g>
<!-- Node2&#45;&gt;Node6 -->
<g id="edge5_Node000002_Node000006" class="edge">
<title>Node2&#45;&gt;Node6</title>
<g id="a_edge5_Node000002_Node000006"><a xlink:title=" ">
<path fill="none" stroke="#63b8ff" d="M406.66,-230.72C426.51,-207.41 465.74,-161.33 486.64,-136.78"/>
<polygon fill="#63b8ff" stroke="#63b8ff" points="489.39,-138.95 493.2,-129.07 484.06,-134.41 489.39,-138.95"/>
</a>
</g>
</g>
<!-- Node7 -->
<g id="Node000007" class="node">
<title>Node7</title>
<g id="a_Node000007"><a xlink:href="Operators__fwd_8hpp.html" target="_top" xlink:title="File defining basic differential operator families.">
<polygon fill="white" stroke="#666666" points="290.5,-195 134.5,-195 134.5,-165 290.5,-165 290.5,-195"/>
<text text-anchor="start" x="142.5" y="-183" font-family="Helvetica,sans-Serif" font-size="10.00">medusa/bits/approximations</text>
<text text-anchor="middle" x="212.5" y="-172" font-family="Helvetica,sans-Serif" font-size="10.00">/Operators_fwd.hpp</text>
</a>
</g>
</g>
<!-- Node2&#45;&gt;Node7 -->
<g id="edge6_Node000002_Node000007" class="edge">
<title>Node2&#45;&gt;Node7</title>
<g id="a_edge6_Node000002_Node000007"><a xlink:title=" ">
<path fill="none" stroke="#63b8ff" d="M354.56,-230.95C327.3,-221.37 290.99,-208.6 261.91,-198.37"/>
<polygon fill="#63b8ff" stroke="#63b8ff" points="262.94,-195.03 252.35,-195.01 260.62,-201.63 262.94,-195.03"/>
</a>
</g>
</g>
<!-- Node4 -->
<g id="Node000004" class="node">
<title>Node4</title>
<g id="a_Node000004"><a xlink:title=" ">
<polygon fill="#e0e0e0" stroke="#999999" points="767,-19 720,-19 720,0 767,0 767,-19"/>
<text text-anchor="middle" x="743.5" y="-7" font-family="Helvetica,sans-Serif" font-size="10.00">vector</text>
</a>
</g>
</g>
<!-- Node3&#45;&gt;Node4 -->
<g id="edge3_Node000003_Node000004" class="edge">
<title>Node3&#45;&gt;Node4</title>
<g id="a_edge3_Node000003_Node000004"><a xlink:title=" ">
<path fill="none" stroke="#63b8ff" d="M743.5,-54.75C743.5,-47.8 743.5,-37.85 743.5,-29.13"/>
<polygon fill="#63b8ff" stroke="#63b8ff" points="747,-29.09 743.5,-19.09 740,-29.09 747,-29.09"/>
</a>
</g>
</g>
<!-- Node7&#45;&gt;Node3 -->
<g id="edge7_Node000007_Node000003" class="edge">
<title>Node7&#45;&gt;Node3</title>
<g id="a_edge7_Node000007_Node000003"><a xlink:title=" ">
<path fill="none" stroke="#63b8ff" d="M240.24,-164.9C272.92,-148.93 329.25,-123.41 380.5,-110 482.43,-83.34 604.75,-72.54 678.18,-68.25"/>
<polygon fill="#63b8ff" stroke="#63b8ff" points="678.43,-71.74 688.22,-67.68 678.04,-64.75 678.43,-71.74"/>
</a>
</g>
</g>
<!-- Node7&#45;&gt;Node4 -->
<g id="edge9_Node000007_Node000004" class="edge">
<title>Node7&#45;&gt;Node4</title>
<g id="a_edge9_Node000007_Node000004"><a xlink:title=" ">
<path fill="none" stroke="#63b8ff" d="M228.79,-164.76C238.99,-155.29 251.97,-142.21 261.5,-129 283.13,-99.01 268.95,-75.82 299.5,-55 366.08,-9.63 617.61,-8.61 709.57,-9.82"/>
<polygon fill="#63b8ff" stroke="#63b8ff" points="709.67,-13.32 719.72,-9.97 709.77,-6.32 709.67,-13.32"/>
</a>
</g>
</g>
<!-- Node7&#45;&gt;Node5 -->
<g id="edge10_Node000007_Node000005" class="edge">
<title>Node7&#45;&gt;Node5</title>
<g id="a_edge10_Node000007_Node000005"><a xlink:title=" ">
<path fill="none" stroke="#63b8ff" d="M169.1,-164.91C146.38,-156.42 118.73,-144.28 96.5,-129 77.36,-115.85 59.27,-96.17 47.62,-82.21"/>
<polygon fill="#63b8ff" stroke="#63b8ff" points="50.27,-79.92 41.25,-74.37 44.84,-84.34 50.27,-79.92"/>
</a>
</g>
</g>
<!-- Node8 -->
<g id="Node000008" class="node">
<title>Node8</title>
<g id="a_Node000008"><a xlink:title=" ">
<polygon fill="#e0e0e0" stroke="#999999" points="183.5,-19 141.5,-19 141.5,0 183.5,0 183.5,-19"/>
<text text-anchor="middle" x="162.5" y="-7" font-family="Helvetica,sans-Serif" font-size="10.00">array</text>
</a>
</g>
</g>
<!-- Node7&#45;&gt;Node8 -->
<g id="edge8_Node000007_Node000008" class="edge">
<title>Node7&#45;&gt;Node8</title>
<g id="a_edge8_Node000007_Node000008"><a xlink:title=" ">
<path fill="none" stroke="#63b8ff" d="M172.06,-164.91C155.81,-157.02 138.77,-145.4 129.5,-129 110.77,-95.84 134.14,-51.38 150.06,-27.45"/>
<polygon fill="#63b8ff" stroke="#63b8ff" points="153.04,-29.29 155.88,-19.08 147.3,-25.29 153.04,-29.29"/>
</a>
</g>
</g>
<!-- Node9 -->
<g id="Node000009" class="node">
<title>Node9</title>
<g id="a_Node000009"><a xlink:href="Monomials__fwd_8hpp.html" target="_top" xlink:title="Declaration of Monomial basis.">
<polygon fill="white" stroke="#666666" points="252.5,-129 138.5,-129 138.5,-110 252.5,-110 252.5,-129"/>
<text text-anchor="middle" x="195.5" y="-117" font-family="Helvetica,sans-Serif" font-size="10.00">Monomials_fwd.hpp</text>
</a>
</g>
</g>
<!-- Node7&#45;&gt;Node9 -->
<g id="edge11_Node000007_Node000009" class="edge">
<title>Node7&#45;&gt;Node9</title>
<g id="a_edge11_Node000007_Node000009"><a xlink:title=" ">
<path fill="none" stroke="#63b8ff" d="M208.38,-164.84C206.12,-157.04 203.28,-147.27 200.84,-138.89"/>
<polygon fill="#63b8ff" stroke="#63b8ff" points="204.2,-137.89 198.05,-129.27 197.48,-139.85 204.2,-137.89"/>
</a>
</g>
</g>
<!-- Node7&#45;&gt;Node12 -->
<g id="edge17_Node000007_Node000012" class="edge">
<title>Node7&#45;&gt;Node12</title>
<g id="a_edge17_Node000007_Node000012"><a xlink:title=" ">
<path fill="none" stroke="#63b8ff" d="M290.64,-172.37C420.2,-161.39 678.62,-139.48 814.44,-127.97"/>
<polygon fill="#63b8ff" stroke="#63b8ff" points="815.13,-131.42 824.8,-127.09 814.54,-124.45 815.13,-131.42"/>
</a>
</g>
</g>
<!-- Node9&#45;&gt;Node3 -->
<g id="edge12_Node000009_Node000003" class="edge">
<title>Node9&#45;&gt;Node3</title>
<g id="a_edge12_Node000009_Node000003"><a xlink:title=" ">
<path fill="none" stroke="#63b8ff" d="M252.59,-112.98C355.1,-103.06 569.73,-82.31 678.03,-71.83"/>
<polygon fill="#63b8ff" stroke="#63b8ff" points="678.55,-75.3 688.17,-70.85 677.88,-68.33 678.55,-75.3"/>
</a>
</g>
</g>
<!-- Node9&#45;&gt;Node5 -->
<g id="edge15_Node000009_Node000005" class="edge">
<title>Node9&#45;&gt;Node5</title>
<g id="a_edge15_Node000009_Node000005"><a xlink:title=" ">
<path fill="none" stroke="#63b8ff" d="M169.63,-109.98C142.72,-101.13 100.38,-87.19 70.27,-77.28"/>
<polygon fill="#63b8ff" stroke="#63b8ff" points="71.16,-73.88 60.57,-74.08 68.97,-80.53 71.16,-73.88"/>
</a>
</g>
</g>
<!-- Node9&#45;&gt;Node8 -->
<g id="edge14_Node000009_Node000008" class="edge">
<title>Node9&#45;&gt;Node8</title>
<g id="a_edge14_Node000009_Node000008"><a xlink:title=" ">
<path fill="none" stroke="#63b8ff" d="M192.78,-109.98C189.93,-101.03 185.35,-86.54 181.5,-74 176.85,-58.85 171.71,-41.63 167.95,-28.95"/>
<polygon fill="#63b8ff" stroke="#63b8ff" points="171.24,-27.74 165.04,-19.14 164.52,-29.72 171.24,-27.74"/>
</a>
</g>
</g>
<!-- Node10 -->
<g id="Node000010" class="node">
<title>Node10</title>
<g id="a_Node000010"><a xlink:title=" ">
<polygon fill="#e0e0e0" stroke="#999999" points="238,-74 191,-74 191,-55 238,-55 238,-74"/>
<text text-anchor="middle" x="214.5" y="-62" font-family="Helvetica,sans-Serif" font-size="10.00">cmath</text>
</a>
</g>
</g>
<!-- Node9&#45;&gt;Node10 -->
<g id="edge13_Node000009_Node000010" class="edge">
<title>Node9&#45;&gt;Node10</title>
<g id="a_edge13_Node000009_Node000010"><a xlink:title=" ">
<path fill="none" stroke="#63b8ff" d="M198.64,-109.75C201.18,-102.65 204.86,-92.4 208.03,-83.56"/>
<polygon fill="#63b8ff" stroke="#63b8ff" points="211.34,-84.68 211.42,-74.09 204.75,-82.32 211.34,-84.68"/>
</a>
</g>
</g>
<!-- Node11 -->
<g id="Node000011" class="node">
<title>Node11</title>
<g id="a_Node000011"><a xlink:title=" ">
<polygon fill="#e0e0e0" stroke="#999999" points="356.5,-74 308.5,-74 308.5,-55 356.5,-55 356.5,-74"/>
<text text-anchor="middle" x="332.5" y="-62" font-family="Helvetica,sans-Serif" font-size="10.00">iosfwd</text>
</a>
</g>
</g>
<!-- Node9&#45;&gt;Node11 -->
<g id="edge16_Node000009_Node000011" class="edge">
<title>Node9&#45;&gt;Node11</title>
<g id="a_edge16_Node000009_Node000011"><a xlink:title=" ">
<path fill="none" stroke="#63b8ff" d="M217.51,-109.98C239.95,-101.3 274.98,-87.75 300.49,-77.88"/>
<polygon fill="#63b8ff" stroke="#63b8ff" points="302.02,-81.04 310.09,-74.17 299.5,-74.51 302.02,-81.04"/>
</a>
</g>
</g>
<!-- Node13 -->
<g id="Node000013" class="node">
<title>Node13</title>
<g id="a_Node000013"><a xlink:title=" ">
<polygon fill="#e0e0e0" stroke="#999999" points="968.5,-74 836.5,-74 836.5,-55 968.5,-55 968.5,-74"/>
<text text-anchor="middle" x="902.5" y="-62" font-family="Helvetica,sans-Serif" font-size="10.00">tinyformat/tinyformat.h</text>
</a>
</g>
</g>
<!-- Node12&#45;&gt;Node13 -->
<g id="edge18_Node000012_Node000013" class="edge">
<title>Node12&#45;&gt;Node13</title>
<g id="a_edge18_Node000012_Node000013"><a xlink:title=" ">
<path fill="none" stroke="#63b8ff" d="M902.5,-109.75C902.5,-102.8 902.5,-92.85 902.5,-84.13"/>
<polygon fill="#63b8ff" stroke="#63b8ff" points="906,-84.09 902.5,-74.09 899,-84.09 906,-84.09"/>
</a>
</g>
</g>
<!-- Node14 -->
<g id="Node000014" class="node">
<title>Node14</title>
<g id="a_Node000014"><a xlink:href="print_8hpp.html" target="_top" xlink:title="Printing helpers for std types.">
<polygon fill="white" stroke="#666666" points="1200.5,-74 1140.5,-74 1140.5,-55 1200.5,-55 1200.5,-74"/>
<text text-anchor="middle" x="1170.5" y="-62" font-family="Helvetica,sans-Serif" font-size="10.00">print.hpp</text>
</a>
</g>
</g>
<!-- Node12&#45;&gt;Node14 -->
<g id="edge19_Node000012_Node000014" class="edge">
<title>Node12&#45;&gt;Node14</title>
<g id="a_edge19_Node000012_Node000014"><a xlink:title=" ">
<path fill="none" stroke="#63b8ff" d="M945.56,-109.98C996.53,-99.9 1080.75,-83.25 1130.39,-73.43"/>
<polygon fill="#63b8ff" stroke="#63b8ff" points="1131.31,-76.82 1140.44,-71.45 1129.95,-69.95 1131.31,-76.82"/>
</a>
</g>
</g>
<!-- Node14&#45;&gt;Node4 -->
<g id="edge21_Node000014_Node000004" class="edge">
<title>Node14&#45;&gt;Node4</title>
<g id="a_edge21_Node000014_Node000004"><a xlink:title=" ">
<path fill="none" stroke="#63b8ff" d="M1140.26,-57.35C1135.66,-56.5 1130.96,-55.69 1126.5,-55 998.08,-35.16 844.2,-19.82 777.31,-13.57"/>
<polygon fill="#63b8ff" stroke="#63b8ff" points="777.62,-10.08 767.34,-12.64 776.97,-17.05 777.62,-10.08"/>
</a>
</g>
</g>
<!-- Node14&#45;&gt;Node8 -->
<g id="edge22_Node000014_Node000008" class="edge">
<title>Node14&#45;&gt;Node8</title>
<g id="a_edge22_Node000014_Node000008"><a xlink:title=" ">
<path fill="none" stroke="#63b8ff" d="M1140.33,-61.91C992.53,-54.14 345.82,-20.14 194.33,-12.17"/>
<polygon fill="#63b8ff" stroke="#63b8ff" points="194.07,-8.66 183.9,-11.63 193.71,-15.65 194.07,-8.66"/>
</a>
</g>
</g>
<!-- Node15 -->
<g id="Node000015" class="node">
<title>Node15</title>
<g id="a_Node000015"><a xlink:title=" ">
<polygon fill="#e0e0e0" stroke="#999999" points="1200.5,-19 1140.5,-19 1140.5,0 1200.5,0 1200.5,-19"/>
<text text-anchor="middle" x="1170.5" y="-7" font-family="Helvetica,sans-Serif" font-size="10.00">iostream</text>
</a>
</g>
</g>
<!-- Node14&#45;&gt;Node15 -->
<g id="edge20_Node000014_Node000015" class="edge">
<title>Node14&#45;&gt;Node15</title>
<g id="a_edge20_Node000014_Node000015"><a xlink:title=" ">
<path fill="none" stroke="#63b8ff" d="M1170.5,-54.75C1170.5,-47.8 1170.5,-37.85 1170.5,-29.13"/>
<polygon fill="#63b8ff" stroke="#63b8ff" points="1174,-29.09 1170.5,-19.09 1167,-29.09 1174,-29.09"/>
</a>
</g>
</g>
<!-- Node16 -->
<g id="Node000016" class="node">
<title>Node16</title>
<g id="a_Node000016"><a xlink:title=" ">
<polygon fill="#e0e0e0" stroke="#999999" points="1122,-19 1077,-19 1077,0 1122,0 1122,-19"/>
<text text-anchor="middle" x="1099.5" y="-7" font-family="Helvetica,sans-Serif" font-size="10.00">utility</text>
</a>
</g>
</g>
<!-- Node14&#45;&gt;Node16 -->
<g id="edge23_Node000014_Node000016" class="edge">
<title>Node14&#45;&gt;Node16</title>
<g id="a_edge23_Node000014_Node000016"><a xlink:title=" ">
<path fill="none" stroke="#63b8ff" d="M1159.09,-54.98C1148.39,-47 1132.16,-34.88 1119.34,-25.31"/>
<polygon fill="#63b8ff" stroke="#63b8ff" points="1121.22,-22.35 1111.11,-19.17 1117.03,-27.96 1121.22,-22.35"/>
</a>
</g>
</g>
<!-- Node17 -->
<g id="Node000017" class="node">
<title>Node17</title>
<g id="a_Node000017"><a xlink:title=" ">
<polygon fill="#e0e0e0" stroke="#999999" points="1260,-19 1219,-19 1219,0 1260,0 1260,-19"/>
<text text-anchor="middle" x="1239.5" y="-7" font-family="Helvetica,sans-Serif" font-size="10.00">tuple</text>
</a>
</g>
</g>
<!-- Node14&#45;&gt;Node17 -->
<g id="edge24_Node000014_Node000017" class="edge">
<title>Node14&#45;&gt;Node17</title>
<g id="a_edge24_Node000014_Node000017"><a xlink:title=" ">
<path fill="none" stroke="#63b8ff" d="M1181.59,-54.98C1191.99,-47 1207.76,-34.88 1220.22,-25.31"/>
<polygon fill="#63b8ff" stroke="#63b8ff" points="1222.41,-28.04 1228.21,-19.17 1218.15,-22.49 1222.41,-28.04"/>
</a>
</g>
</g>
<!-- Node18&#45;&gt;Node3 -->
<g id="edge28_Node000018_Node000003" class="edge">
<title>Node18&#45;&gt;Node3</title>
<g id="a_edge28_Node000018_Node000003"><a xlink:title=" ">
<path fill="none" stroke="#63b8ff" d="M637.5,-236.5C664.89,-229.32 699.38,-216.64 723.5,-195 753.79,-167.83 763.68,-150.22 757.5,-110 756.15,-101.19 753.37,-91.74 750.65,-83.82"/>
<polygon fill="#63b8ff" stroke="#63b8ff" points="753.84,-82.35 747.1,-74.18 747.27,-84.77 753.84,-82.35"/>
</a>
</g>
</g>
<!-- Node18&#45;&gt;Node5 -->
<g id="edge46_Node000018_Node000005" class="edge">
<title>Node18&#45;&gt;Node5</title>
<g id="a_edge46_Node000018_Node000005"><a xlink:title=" ">
<path fill="none" stroke="#63b8ff" d="M529.28,-237.72C509.76,-235.53 488.26,-233.14 468.5,-231 392.31,-222.73 193.11,-231.09 125.5,-195 80.38,-170.91 52.76,-113.39 41.05,-83.79"/>
<polygon fill="#63b8ff" stroke="#63b8ff" points="44.26,-82.38 37.45,-74.26 37.71,-84.85 44.26,-82.38"/>
</a>
</g>
</g>
<!-- Node18&#45;&gt;Node7 -->
<g id="edge43_Node000018_Node000007" class="edge">
<title>Node18&#45;&gt;Node7</title>
<g id="a_edge43_Node000018_Node000007"><a xlink:title=" ">
<path fill="none" stroke="#63b8ff" d="M542.51,-236.44C480.7,-226.05 375.52,-208.38 300.52,-195.79"/>
<polygon fill="#63b8ff" stroke="#63b8ff" points="301.05,-192.33 290.61,-194.12 299.89,-199.23 301.05,-192.33"/>
</a>
</g>
</g>
<!-- Node18&#45;&gt;Node11 -->
<g id="edge44_Node000018_Node000011" class="edge">
<title>Node18&#45;&gt;Node11</title>
<g id="a_edge44_Node000018_Node000011"><a xlink:title=" ">
<path fill="none" stroke="#63b8ff" d="M579.2,-236.41C548.35,-217.74 473.47,-171.69 413.5,-129 391.39,-113.26 367.01,-93.85 350.83,-80.66"/>
<polygon fill="#63b8ff" stroke="#63b8ff" points="352.7,-77.67 342.75,-74.03 348.26,-83.08 352.7,-77.67"/>
</a>
</g>
</g>
<!-- Node18&#45;&gt;Node17 -->
<g id="edge45_Node000018_Node000017" class="edge">
<title>Node18&#45;&gt;Node17</title>
<g id="a_edge45_Node000018_Node000017"><a xlink:title=" ">
<path fill="none" stroke="#63b8ff" d="M657.74,-245.55C789.6,-245.69 1085.89,-240.74 1174.5,-195 1231.14,-165.76 1239.94,-136.69 1251.5,-74 1254.3,-58.81 1250.62,-41.59 1246.62,-28.92"/>
<polygon fill="#63b8ff" stroke="#63b8ff" points="1249.79,-27.4 1243.17,-19.12 1243.19,-29.72 1249.79,-27.4"/>
</a>
</g>
</g>
<!-- Node19 -->
<g id="Node000019" class="node">
<title>Node19</title>
<g id="a_Node000019"><a xlink:href="Range__fwd_8hpp.html" target="_top" xlink:title="Declaration of Range.">
<polygon fill="white" stroke="#666666" points="714.5,-195 574.5,-195 574.5,-165 714.5,-165 714.5,-195"/>
<text text-anchor="start" x="582.5" y="-183" font-family="Helvetica,sans-Serif" font-size="10.00">medusa/bits/types/Range</text>
<text text-anchor="middle" x="644.5" y="-172" font-family="Helvetica,sans-Serif" font-size="10.00">_fwd.hpp</text>
</a>
</g>
</g>
<!-- Node18&#45;&gt;Node19 -->
<g id="edge29_Node000018_Node000019" class="edge">
<title>Node18&#45;&gt;Node19</title>
<g id="a_edge29_Node000018_Node000019"><a xlink:title=" ">
<path fill="none" stroke="#63b8ff" d="M600.38,-236.37C607.12,-227.91 617.67,-214.67 626.77,-203.25"/>
<polygon fill="#63b8ff" stroke="#63b8ff" points="629.56,-205.36 633.06,-195.36 624.09,-201 629.56,-205.36"/>
</a>
</g>
</g>
<!-- Node21 -->
<g id="Node000021" class="node">
<title>Node21</title>
<g id="a_Node000021"><a xlink:href="stdtypesutils_8hpp.html" target="_top" xlink:title="Declaration of utilities for std types.">
<polygon fill="white" stroke="#666666" points="1165.5,-189.5 977.5,-189.5 977.5,-170.5 1165.5,-170.5 1165.5,-189.5"/>
<text text-anchor="middle" x="1071.5" y="-177.5" font-family="Helvetica,sans-Serif" font-size="10.00">medusa/bits/utils/stdtypesutils.hpp</text>
</a>
</g>
</g>
<!-- Node18&#45;&gt;Node21 -->
<g id="edge36_Node000018_Node000021" class="edge">
<title>Node18&#45;&gt;Node21</title>
<g id="a_edge36_Node000018_Node000021"><a xlink:title=" ">
<path fill="none" stroke="#63b8ff" d="M657.47,-236.44C745.83,-224.6 904.85,-203.31 998,-190.84"/>
<polygon fill="#63b8ff" stroke="#63b8ff" points="998.46,-194.31 1007.91,-189.51 997.53,-187.37 998.46,-194.31"/>
</a>
</g>
</g>
<!-- Node19&#45;&gt;Node3 -->
<g id="edge30_Node000019_Node000003" class="edge">
<title>Node19&#45;&gt;Node3</title>
<g id="a_edge30_Node000019_Node000003"><a xlink:title=" ">
<path fill="none" stroke="#63b8ff" d="M692.57,-164.92C710.29,-157.22 728.66,-145.74 739.5,-129 748.04,-115.82 748.32,-97.69 746.89,-84.18"/>
<polygon fill="#63b8ff" stroke="#63b8ff" points="750.33,-83.51 745.43,-74.12 743.41,-84.52 750.33,-83.51"/>
</a>
</g>
</g>
<!-- Node19&#45;&gt;Node4 -->
<g id="edge34_Node000019_Node000004" class="edge">
<title>Node19&#45;&gt;Node4</title>
<g id="a_edge34_Node000019_Node000004"><a xlink:title=" ">
<path fill="none" stroke="#63b8ff" d="M645.4,-164.63C647.59,-140.02 654.96,-89.15 679.5,-55 688.84,-42 703.22,-31.51 715.98,-23.99"/>
<polygon fill="#63b8ff" stroke="#63b8ff" points="717.84,-26.96 724.89,-19.05 714.44,-20.84 717.84,-26.96"/>
</a>
</g>
</g>
<!-- Node19&#45;&gt;Node6 -->
<g id="edge32_Node000019_Node000006" class="edge">
<title>Node19&#45;&gt;Node6</title>
<g id="a_edge32_Node000019_Node000006"><a xlink:title=" ">
<path fill="none" stroke="#63b8ff" d="M610.01,-164.99C585.98,-155.23 554.23,-142.33 531.1,-132.93"/>
<polygon fill="#63b8ff" stroke="#63b8ff" points="532.35,-129.66 521.77,-129.14 529.71,-136.15 532.35,-129.66"/>
</a>
</g>
</g>
<!-- Node19&#45;&gt;Node11 -->
<g id="edge35_Node000019_Node000011" class="edge">
<title>Node19&#45;&gt;Node11</title>
<g id="a_edge35_Node000019_Node000011"><a xlink:title=" ">
<path fill="none" stroke="#63b8ff" d="M636.92,-164.8C627.56,-148.73 610.07,-123.12 587.5,-110 550.48,-88.48 427.28,-74.34 366.71,-68.52"/>
<polygon fill="#63b8ff" stroke="#63b8ff" points="366.8,-65.01 356.51,-67.56 366.14,-71.98 366.8,-65.01"/>
</a>
</g>
</g>
<!-- Node19&#45;&gt;Node12 -->
<g id="edge31_Node000019_Node000012" class="edge">
<title>Node19&#45;&gt;Node12</title>
<g id="a_edge31_Node000019_Node000012"><a xlink:title=" ">
<path fill="none" stroke="#63b8ff" d="M706.3,-164.99C751.88,-154.65 813,-140.79 854.84,-131.31"/>
<polygon fill="#63b8ff" stroke="#63b8ff" points="855.8,-134.68 864.78,-129.05 854.25,-127.85 855.8,-134.68"/>
</a>
</g>
</g>
<!-- Node20 -->
<g id="Node000020" class="node">
<title>Node20</title>
<g id="a_Node000020"><a xlink:title=" ">
<polygon fill="#e0e0e0" stroke="#999999" points="730.5,-129 672.5,-129 672.5,-110 730.5,-110 730.5,-129"/>
<text text-anchor="middle" x="701.5" y="-117" font-family="Helvetica,sans-Serif" font-size="10.00">memory</text>
</a>
</g>
</g>
<!-- Node19&#45;&gt;Node20 -->
<g id="edge33_Node000019_Node000020" class="edge">
<title>Node19&#45;&gt;Node20</title>
<g id="a_edge33_Node000019_Node000020"><a xlink:title=" ">
<path fill="none" stroke="#63b8ff" d="M658.3,-164.84C666.57,-156.35 677.12,-145.52 685.73,-136.69"/>
<polygon fill="#63b8ff" stroke="#63b8ff" points="688.49,-138.87 692.96,-129.27 683.47,-133.99 688.49,-138.87"/>
</a>
</g>
</g>
<!-- Node21&#45;&gt;Node3 -->
<g id="edge37_Node000021_Node000003" class="edge">
<title>Node21&#45;&gt;Node3</title>
<g id="a_edge37_Node000021_Node000003"><a xlink:title=" ">
<path fill="none" stroke="#63b8ff" d="M1063.8,-170.13C1050.22,-155.13 1020.42,-124.9 988.5,-110 957.28,-95.43 869.97,-81.76 808.52,-73.51"/>
<polygon fill="#63b8ff" stroke="#63b8ff" points="808.88,-70.02 798.51,-72.18 807.96,-76.96 808.88,-70.02"/>
</a>
</g>
</g>
<!-- Node21&#45;&gt;Node4 -->
<g id="edge40_Node000021_Node000004" class="edge">
<title>Node21&#45;&gt;Node4</title>
<g id="a_edge40_Node000021_Node000004"><a xlink:title=" ">
<path fill="none" stroke="#63b8ff" d="M1108.74,-170.45C1147.54,-159.76 1199.79,-139.25 1177.5,-110 1128.55,-45.77 870.38,-20.1 777.13,-12.84"/>
<polygon fill="#63b8ff" stroke="#63b8ff" points="777.34,-9.34 767.11,-12.08 776.82,-16.32 777.34,-9.34"/>
</a>
</g>
</g>
<!-- Node21&#45;&gt;Node12 -->
<g id="edge38_Node000021_Node000012" class="edge">
<title>Node21&#45;&gt;Node12</title>
<g id="a_edge38_Node000021_Node000012"><a xlink:title=" ">
<path fill="none" stroke="#63b8ff" d="M1046.93,-170.49C1017.89,-160.44 969.4,-143.66 936.7,-132.34"/>
<polygon fill="#63b8ff" stroke="#63b8ff" points="937.7,-128.98 927.1,-129.02 935.41,-135.6 937.7,-128.98"/>
</a>
</g>
</g>
<!-- Node21&#45;&gt;Node17 -->
<g id="edge41_Node000021_Node000017" class="edge">
<title>Node21&#45;&gt;Node17</title>
<g id="a_edge41_Node000021_Node000017"><a xlink:title=" ">
<path fill="none" stroke="#63b8ff" d="M1132.54,-170.42C1159.93,-163.56 1190.51,-151.21 1210.5,-129 1235.56,-101.15 1239.84,-55.2 1240.08,-29.47"/>
<polygon fill="#63b8ff" stroke="#63b8ff" points="1243.58,-29.17 1239.97,-19.21 1236.58,-29.24 1243.58,-29.17"/>
</a>
</g>
</g>
<!-- Node22 -->
<g id="Node000022" class="node">
<title>Node22</title>
<g id="a_Node000022"><a xlink:title=" ">
<polygon fill="#e0e0e0" stroke="#999999" points="1168.5,-129 1124.5,-129 1124.5,-110 1168.5,-110 1168.5,-129"/>
<text text-anchor="middle" x="1146.5" y="-117" font-family="Helvetica,sans-Serif" font-size="10.00">string</text>
</a>
</g>
</g>
<!-- Node21&#45;&gt;Node22 -->
<g id="edge39_Node000021_Node000022" class="edge">
<title>Node21&#45;&gt;Node22</title>
<g id="a_edge39_Node000021_Node000022"><a xlink:title=" ">
<path fill="none" stroke="#63b8ff" d="M1082.57,-170.37C1094.31,-161.21 1113.09,-146.56 1127.26,-135.51"/>
<polygon fill="#63b8ff" stroke="#63b8ff" points="1129.66,-138.08 1135.39,-129.17 1125.35,-132.56 1129.66,-138.08"/>
</a>
</g>
</g>
<!-- Node23 -->
<g id="Node000023" class="node">
<title>Node23</title>
<g id="a_Node000023"><a xlink:title=" ">
<polygon fill="#e0e0e0" stroke="#999999" points="1106,-129 1037,-129 1037,-110 1106,-110 1106,-129"/>
<text text-anchor="middle" x="1071.5" y="-117" font-family="Helvetica,sans-Serif" font-size="10.00">type_traits</text>
</a>
</g>
</g>
<!-- Node21&#45;&gt;Node23 -->
<g id="edge42_Node000021_Node000023" class="edge">
<title>Node21&#45;&gt;Node23</title>
<g id="a_edge42_Node000021_Node000023"><a xlink:title=" ">
<path fill="none" stroke="#63b8ff" d="M1071.5,-170.37C1071.5,-162.25 1071.5,-149.81 1071.5,-139.39"/>
<polygon fill="#63b8ff" stroke="#63b8ff" points="1075,-139.17 1071.5,-129.17 1068,-139.17 1075,-139.17"/>
</a>
</g>
</g>
</g>
</svg>
