<?xml version="1.0" encoding="UTF-8" standalone="no"?>
<!DOCTYPE svg PUBLIC "-//W3C//DTD SVG 1.1//EN"
 "http://www.w3.org/Graphics/SVG/1.1/DTD/svg11.dtd">
<!-- Generated by graphviz version 2.43.0 (0)
 -->
<!-- Title: src/domains/FindBalancedSupport.cpp Pages: 1 -->
<svg width="775pt" height="467pt"
 viewBox="0.00 0.00 774.50 467.00" xmlns="http://www.w3.org/2000/svg" xmlns:xlink="http://www.w3.org/1999/xlink">
<g id="graph0" class="graph" transform="scale(1 1) rotate(0) translate(4 463)">
<title>src/domains/FindBalancedSupport.cpp</title>
<!-- Node1 -->
<g id="Node000001" class="node">
<title>Node1</title>
<g id="a_Node000001"><a xlink:title="Implementation of balanced supports.">
<polygon fill="#999999" stroke="#666666" points="572.5,-459 428.5,-459 428.5,-429 572.5,-429 572.5,-459"/>
<text text-anchor="start" x="436.5" y="-447" font-family="Helvetica,sans-Serif" font-size="10.00">src/domains/FindBalanced</text>
<text text-anchor="middle" x="500.5" y="-436" font-family="Helvetica,sans-Serif" font-size="10.00">Support.cpp</text>
</a>
</g>
</g>
<!-- Node2 -->
<g id="Node000002" class="node">
<title>Node2</title>
<g id="a_Node000002"><a xlink:href="FindBalancedSupport_8hpp.html" target="_top" xlink:title="Implementation of balanced supports.">
<polygon fill="white" stroke="#666666" points="572,-393 429,-393 429,-363 572,-363 572,-393"/>
<text text-anchor="start" x="437" y="-381" font-family="Helvetica,sans-Serif" font-size="10.00">medusa/bits/domains</text>
<text text-anchor="middle" x="500.5" y="-370" font-family="Helvetica,sans-Serif" font-size="10.00">/FindBalancedSupport.hpp</text>
</a>
</g>
</g>
<!-- Node1&#45;&gt;Node2 -->
<g id="edge1_Node000001_Node000002" class="edge">
<title>Node1&#45;&gt;Node2</title>
<g id="a_edge1_Node000001_Node000002"><a xlink:title=" ">
<path fill="none" stroke="#63b8ff" d="M500.5,-428.8C500.5,-421.34 500.5,-411.99 500.5,-403.41"/>
<polygon fill="#63b8ff" stroke="#63b8ff" points="504,-403.16 500.5,-393.16 497,-403.16 504,-403.16"/>
</a>
</g>
</g>
<!-- Node3 -->
<g id="Node000003" class="node">
<title>Node3</title>
<g id="a_Node000003"><a xlink:href="KDTree_8hpp.html" target="_top" xlink:title="Implementation of KDTree.">
<polygon fill="white" stroke="#666666" points="557,-327 444,-327 444,-297 557,-297 557,-327"/>
<text text-anchor="start" x="452" y="-315" font-family="Helvetica,sans-Serif" font-size="10.00">medusa/bits/spatial</text>
<text text-anchor="middle" x="500.5" y="-304" font-family="Helvetica,sans-Serif" font-size="10.00">_search/KDTree.hpp</text>
</a>
</g>
</g>
<!-- Node2&#45;&gt;Node3 -->
<g id="edge2_Node000002_Node000003" class="edge">
<title>Node2&#45;&gt;Node3</title>
<g id="a_edge2_Node000002_Node000003"><a xlink:title=" ">
<path fill="none" stroke="#63b8ff" d="M500.5,-362.8C500.5,-355.34 500.5,-345.99 500.5,-337.41"/>
<polygon fill="#63b8ff" stroke="#63b8ff" points="504,-337.16 500.5,-327.16 497,-337.16 504,-337.16"/>
</a>
</g>
</g>
<!-- Node21 -->
<g id="Node000021" class="node">
<title>Node21</title>
<g id="a_Node000021"><a xlink:href="FindBalancedSupport__fwd_8hpp.html" target="_top" xlink:title="Declaration of class for finding support nodes.">
<polygon fill="white" stroke="#666666" points="263,-261 144,-261 144,-231 263,-231 263,-261"/>
<text text-anchor="start" x="152" y="-249" font-family="Helvetica,sans-Serif" font-size="10.00">FindBalancedSupport</text>
<text text-anchor="middle" x="203.5" y="-238" font-family="Helvetica,sans-Serif" font-size="10.00">_fwd.hpp</text>
</a>
</g>
</g>
<!-- Node2&#45;&gt;Node21 -->
<g id="edge30_Node000002_Node000021" class="edge">
<title>Node2&#45;&gt;Node21</title>
<g id="a_edge30_Node000002_Node000021"><a xlink:title=" ">
<path fill="none" stroke="#63b8ff" d="M468.43,-362.96C414.33,-339.28 304.97,-291.41 245.06,-265.19"/>
<polygon fill="#63b8ff" stroke="#63b8ff" points="246.45,-261.98 235.88,-261.17 243.64,-268.39 246.45,-261.98"/>
</a>
</g>
</g>
<!-- Node23 -->
<g id="Node000023" class="node">
<title>Node23</title>
<g id="a_Node000023"><a xlink:title=" ">
<polygon fill="#e0e0e0" stroke="#999999" points="642,-321.5 575,-321.5 575,-302.5 642,-302.5 642,-321.5"/>
<text text-anchor="middle" x="608.5" y="-309.5" font-family="Helvetica,sans-Serif" font-size="10.00">Eigen/SVD</text>
</a>
</g>
</g>
<!-- Node2&#45;&gt;Node23 -->
<g id="edge34_Node000002_Node000023" class="edge">
<title>Node2&#45;&gt;Node23</title>
<g id="a_edge34_Node000002_Node000023"><a xlink:title=" ">
<path fill="none" stroke="#63b8ff" d="M524.2,-362.95C542.39,-352.18 567.36,-337.38 585.4,-326.69"/>
<polygon fill="#63b8ff" stroke="#63b8ff" points="587.31,-329.63 594.13,-321.52 583.74,-323.6 587.31,-329.63"/>
</a>
</g>
</g>
<!-- Node4 -->
<g id="Node000004" class="node">
<title>Node4</title>
<g id="a_Node000004"><a xlink:href="KDTree__fwd_8hpp.html" target="_top" xlink:title="Declaration of KDTree.">
<polygon fill="white" stroke="#666666" points="476,-255.5 381,-255.5 381,-236.5 476,-236.5 476,-255.5"/>
<text text-anchor="middle" x="428.5" y="-243.5" font-family="Helvetica,sans-Serif" font-size="10.00">KDTree_fwd.hpp</text>
</a>
</g>
</g>
<!-- Node3&#45;&gt;Node4 -->
<g id="edge3_Node000003_Node000004" class="edge">
<title>Node3&#45;&gt;Node4</title>
<g id="a_edge3_Node000003_Node000004"><a xlink:title=" ">
<path fill="none" stroke="#63b8ff" d="M484.52,-296.8C473.19,-286.72 457.97,-273.19 446.25,-262.78"/>
<polygon fill="#63b8ff" stroke="#63b8ff" points="448.25,-259.87 438.45,-255.84 443.6,-265.1 448.25,-259.87"/>
</a>
</g>
</g>
<!-- Node9 -->
<g id="Node000009" class="node">
<title>Node9</title>
<g id="a_Node000009"><a xlink:href="assert_8hpp.html" target="_top" xlink:title="Implementation of custom assert and debug utilities.">
<polygon fill="white" stroke="#666666" points="715,-129 560,-129 560,-110 715,-110 715,-129"/>
<text text-anchor="middle" x="637.5" y="-117" font-family="Helvetica,sans-Serif" font-size="10.00">medusa/bits/utils/assert.hpp</text>
</a>
</g>
</g>
<!-- Node3&#45;&gt;Node9 -->
<g id="edge28_Node000003_Node000009" class="edge">
<title>Node3&#45;&gt;Node9</title>
<g id="a_edge28_Node000003_Node000009"><a xlink:title=" ">
<path fill="none" stroke="#63b8ff" d="M540.9,-296.86C601.85,-274.62 712.57,-230.35 734.5,-195 741.53,-183.67 741.7,-176.22 734.5,-165 724.41,-149.28 707.23,-139.03 690.09,-132.4"/>
<polygon fill="#63b8ff" stroke="#63b8ff" points="691.22,-129.08 680.63,-129.07 688.9,-135.69 691.22,-129.08"/>
</a>
</g>
</g>
<!-- Node19 -->
<g id="Node000019" class="node">
<title>Node19</title>
<g id="a_Node000019"><a xlink:href="memutils_8hpp.html" target="_top" xlink:title="Declaration of memory related utilities.">
<polygon fill="white" stroke="#666666" points="725,-189.5 554,-189.5 554,-170.5 725,-170.5 725,-189.5"/>
<text text-anchor="middle" x="639.5" y="-177.5" font-family="Helvetica,sans-Serif" font-size="10.00">medusa/bits/utils/memutils.hpp</text>
</a>
</g>
</g>
<!-- Node3&#45;&gt;Node19 -->
<g id="edge29_Node000003_Node000019" class="edge">
<title>Node3&#45;&gt;Node19</title>
<g id="a_edge29_Node000003_Node000019"><a xlink:title=" ">
<path fill="none" stroke="#63b8ff" d="M515.64,-296.84C541.78,-272.39 595.21,-222.42 622.56,-196.85"/>
<polygon fill="#63b8ff" stroke="#63b8ff" points="625.23,-199.14 630.15,-189.75 620.45,-194.02 625.23,-199.14"/>
</a>
</g>
</g>
<!-- Node5 -->
<g id="Node000005" class="node">
<title>Node5</title>
<g id="a_Node000005"><a xlink:href="Config_8hpp.html" target="_top" xlink:title="Contains compile time settings for the project, such as Eigen plugins.">
<polygon fill="white" stroke="#666666" points="457.5,-129 347.5,-129 347.5,-110 457.5,-110 457.5,-129"/>
<text text-anchor="middle" x="402.5" y="-117" font-family="Helvetica,sans-Serif" font-size="10.00">medusa/Config.hpp</text>
</a>
</g>
</g>
<!-- Node4&#45;&gt;Node5 -->
<g id="edge4_Node000004_Node000005" class="edge">
<title>Node4&#45;&gt;Node5</title>
<g id="a_edge4_Node000004_Node000005"><a xlink:title=" ">
<path fill="none" stroke="#63b8ff" d="M453.47,-236.49C471.77,-228.79 495.31,-215.46 506.5,-195 512.9,-183.3 513.84,-176.13 506.5,-165 496.05,-149.16 478.68,-138.94 461.09,-132.35"/>
<polygon fill="#63b8ff" stroke="#63b8ff" points="461.94,-128.95 451.35,-129.05 459.7,-135.58 461.94,-128.95"/>
</a>
</g>
</g>
<!-- Node7 -->
<g id="Node000007" class="node">
<title>Node7</title>
<g id="a_Node000007"><a xlink:title=" ">
<polygon fill="#e0e0e0" stroke="#999999" points="497,-189.5 360,-189.5 360,-170.5 497,-170.5 497,-189.5"/>
<text text-anchor="middle" x="428.5" y="-177.5" font-family="Helvetica,sans-Serif" font-size="10.00">nanoflann/nanoflann.hpp</text>
</a>
</g>
</g>
<!-- Node4&#45;&gt;Node7 -->
<g id="edge6_Node000004_Node000007" class="edge">
<title>Node4&#45;&gt;Node7</title>
<g id="a_edge6_Node000004_Node000007"><a xlink:title=" ">
<path fill="none" stroke="#63b8ff" d="M428.5,-236.37C428.5,-227.16 428.5,-212.29 428.5,-200.27"/>
<polygon fill="#63b8ff" stroke="#63b8ff" points="432,-199.91 428.5,-189.91 425,-199.91 432,-199.91"/>
</a>
</g>
</g>
<!-- Node8 -->
<g id="Node000008" class="node">
<title>Node8</title>
<g id="a_Node000008"><a xlink:href="Range__fwd_8hpp.html" target="_top" xlink:title="Declaration of Range.">
<polygon fill="white" stroke="#666666" points="341.5,-195 201.5,-195 201.5,-165 341.5,-165 341.5,-195"/>
<text text-anchor="start" x="209.5" y="-183" font-family="Helvetica,sans-Serif" font-size="10.00">medusa/bits/types/Range</text>
<text text-anchor="middle" x="271.5" y="-172" font-family="Helvetica,sans-Serif" font-size="10.00">_fwd.hpp</text>
</a>
</g>
</g>
<!-- Node4&#45;&gt;Node8 -->
<g id="edge7_Node000004_Node000008" class="edge">
<title>Node4&#45;&gt;Node8</title>
<g id="a_edge7_Node000004_Node000008"><a xlink:title=" ">
<path fill="none" stroke="#63b8ff" d="M407.33,-236.37C383.91,-226.82 345.54,-211.18 315.54,-198.95"/>
<polygon fill="#63b8ff" stroke="#63b8ff" points="316.71,-195.65 306.13,-195.12 314.07,-202.13 316.71,-195.65"/>
</a>
</g>
</g>
<!-- Node18 -->
<g id="Node000018" class="node">
<title>Node18</title>
<g id="a_Node000018"><a xlink:title=" ">
<polygon fill="#e0e0e0" stroke="#999999" points="198.5,-129 150.5,-129 150.5,-110 198.5,-110 198.5,-129"/>
<text text-anchor="middle" x="174.5" y="-117" font-family="Helvetica,sans-Serif" font-size="10.00">iosfwd</text>
</a>
</g>
</g>
<!-- Node4&#45;&gt;Node18 -->
<g id="edge21_Node000004_Node000018" class="edge">
<title>Node4&#45;&gt;Node18</title>
<g id="a_edge21_Node000004_Node000018"><a xlink:title=" ">
<path fill="none" stroke="#63b8ff" d="M380.99,-240.88C319.99,-234.61 218.85,-220.62 192.5,-195 177.77,-180.68 174.26,-156.54 173.79,-139.63"/>
<polygon fill="#63b8ff" stroke="#63b8ff" points="177.3,-139.31 173.86,-129.29 170.3,-139.27 177.3,-139.31"/>
</a>
</g>
</g>
<!-- Node4&#45;&gt;Node19 -->
<g id="edge22_Node000004_Node000019" class="edge">
<title>Node4&#45;&gt;Node19</title>
<g id="a_edge22_Node000004_Node000019"><a xlink:title=" ">
<path fill="none" stroke="#63b8ff" d="M456.96,-236.37C494.26,-225.05 559.83,-205.16 601.4,-192.56"/>
<polygon fill="#63b8ff" stroke="#63b8ff" points="602.6,-195.85 611.16,-189.6 600.57,-189.15 602.6,-195.85"/>
</a>
</g>
</g>
<!-- Node20 -->
<g id="Node000020" class="node">
<title>Node20</title>
<g id="a_Node000020"><a xlink:href="PointCloud_8hpp.html" target="_top" xlink:title="Implementation of KDTree storage class.">
<polygon fill="white" stroke="#666666" points="182.5,-74 92.5,-74 92.5,-55 182.5,-55 182.5,-74"/>
<text text-anchor="middle" x="137.5" y="-62" font-family="Helvetica,sans-Serif" font-size="10.00">PointCloud.hpp</text>
</a>
</g>
</g>
<!-- Node4&#45;&gt;Node20 -->
<g id="edge26_Node000004_Node000020" class="edge">
<title>Node4&#45;&gt;Node20</title>
<g id="a_edge26_Node000004_Node000020"><a xlink:title=" ">
<path fill="none" stroke="#63b8ff" d="M380.81,-240.83C315.95,-234.32 204.33,-219.82 172.5,-195 138.78,-168.7 135.42,-113.5 136.22,-84.39"/>
<polygon fill="#63b8ff" stroke="#63b8ff" points="139.72,-84.46 136.7,-74.31 132.73,-84.13 139.72,-84.46"/>
</a>
</g>
</g>
<!-- Node6 -->
<g id="Node000006" class="node">
<title>Node6</title>
<g id="a_Node000006"><a xlink:title=" ">
<polygon fill="#e0e0e0" stroke="#999999" points="303,-19 256,-19 256,0 303,0 303,-19"/>
<text text-anchor="middle" x="279.5" y="-7" font-family="Helvetica,sans-Serif" font-size="10.00">vector</text>
</a>
</g>
</g>
<!-- Node5&#45;&gt;Node6 -->
<g id="edge5_Node000005_Node000006" class="edge">
<title>Node5&#45;&gt;Node6</title>
<g id="a_edge5_Node000005_Node000006"><a xlink:title=" ">
<path fill="none" stroke="#63b8ff" d="M392.43,-109.66C371.52,-91.3 323.13,-48.81 297,-25.87"/>
<polygon fill="#63b8ff" stroke="#63b8ff" points="299.18,-23.13 289.36,-19.16 294.57,-28.39 299.18,-23.13"/>
</a>
</g>
</g>
<!-- Node8&#45;&gt;Node5 -->
<g id="edge8_Node000008_Node000005" class="edge">
<title>Node8&#45;&gt;Node5</title>
<g id="a_edge8_Node000008_Node000005"><a xlink:title=" ">
<path fill="none" stroke="#63b8ff" d="M302.88,-164.99C324.44,-155.36 352.85,-142.67 373.81,-133.31"/>
<polygon fill="#63b8ff" stroke="#63b8ff" points="375.45,-136.41 383.15,-129.14 372.6,-130.02 375.45,-136.41"/>
</a>
</g>
</g>
<!-- Node8&#45;&gt;Node6 -->
<g id="edge19_Node000008_Node000006" class="edge">
<title>Node8&#45;&gt;Node6</title>
<g id="a_edge19_Node000008_Node000006"><a xlink:title=" ">
<path fill="none" stroke="#63b8ff" d="M266.4,-164.78C263.13,-154.89 259.19,-141.32 257.5,-129 252.58,-93.21 264.31,-51.79 272.46,-28.62"/>
<polygon fill="#63b8ff" stroke="#63b8ff" points="275.8,-29.67 275.98,-19.08 269.24,-27.25 275.8,-29.67"/>
</a>
</g>
</g>
<!-- Node8&#45;&gt;Node9 -->
<g id="edge9_Node000008_Node000009" class="edge">
<title>Node8&#45;&gt;Node9</title>
<g id="a_edge9_Node000008_Node000009"><a xlink:title=" ">
<path fill="none" stroke="#63b8ff" d="M341.73,-166.63C345.03,-166.08 348.3,-165.53 351.5,-165 426.45,-152.61 512.61,-139.34 570.61,-130.54"/>
<polygon fill="#63b8ff" stroke="#63b8ff" points="571.38,-133.97 580.74,-129.01 570.33,-127.04 571.38,-133.97"/>
</a>
</g>
</g>
<!-- Node16 -->
<g id="Node000016" class="node">
<title>Node16</title>
<g id="a_Node000016"><a xlink:href="traits_8hpp.html" target="_top" xlink:title="Type traits definition for vector and scalar fields.">
<polygon fill="white" stroke="#666666" points="329,-129 266,-129 266,-110 329,-110 329,-129"/>
<text text-anchor="middle" x="297.5" y="-117" font-family="Helvetica,sans-Serif" font-size="10.00">traits.hpp</text>
</a>
</g>
</g>
<!-- Node8&#45;&gt;Node16 -->
<g id="edge17_Node000008_Node000016" class="edge">
<title>Node8&#45;&gt;Node16</title>
<g id="a_edge17_Node000008_Node000016"><a xlink:title=" ">
<path fill="none" stroke="#63b8ff" d="M277.79,-164.84C281.3,-156.95 285.7,-147.05 289.45,-138.61"/>
<polygon fill="#63b8ff" stroke="#63b8ff" points="292.74,-139.83 293.6,-129.27 286.34,-136.98 292.74,-139.83"/>
</a>
</g>
</g>
<!-- Node17 -->
<g id="Node000017" class="node">
<title>Node17</title>
<g id="a_Node000017"><a xlink:title=" ">
<polygon fill="#e0e0e0" stroke="#999999" points="538.5,-129 480.5,-129 480.5,-110 538.5,-110 538.5,-129"/>
<text text-anchor="middle" x="509.5" y="-117" font-family="Helvetica,sans-Serif" font-size="10.00">memory</text>
</a>
</g>
</g>
<!-- Node8&#45;&gt;Node17 -->
<g id="edge18_Node000008_Node000017" class="edge">
<title>Node8&#45;&gt;Node17</title>
<g id="a_edge18_Node000008_Node000017"><a xlink:title=" ">
<path fill="none" stroke="#63b8ff" d="M328.51,-164.99C372.44,-154.19 432.01,-139.55 470.6,-130.06"/>
<polygon fill="#63b8ff" stroke="#63b8ff" points="471.54,-133.43 480.42,-127.65 469.87,-126.64 471.54,-133.43"/>
</a>
</g>
</g>
<!-- Node8&#45;&gt;Node18 -->
<g id="edge20_Node000008_Node000018" class="edge">
<title>Node8&#45;&gt;Node18</title>
<g id="a_edge20_Node000008_Node000018"><a xlink:title=" ">
<path fill="none" stroke="#63b8ff" d="M248.02,-164.84C232.7,-155.6 212.79,-143.59 197.55,-134.4"/>
<polygon fill="#63b8ff" stroke="#63b8ff" points="199.12,-131.26 188.75,-129.09 195.51,-137.26 199.12,-131.26"/>
</a>
</g>
</g>
<!-- Node10 -->
<g id="Node000010" class="node">
<title>Node10</title>
<g id="a_Node000010"><a xlink:title=" ">
<polygon fill="#e0e0e0" stroke="#999999" points="589.5,-74 457.5,-74 457.5,-55 589.5,-55 589.5,-74"/>
<text text-anchor="middle" x="523.5" y="-62" font-family="Helvetica,sans-Serif" font-size="10.00">tinyformat/tinyformat.h</text>
</a>
</g>
</g>
<!-- Node9&#45;&gt;Node10 -->
<g id="edge10_Node000009_Node000010" class="edge">
<title>Node9&#45;&gt;Node10</title>
<g id="a_edge10_Node000009_Node000010"><a xlink:title=" ">
<path fill="none" stroke="#63b8ff" d="M619.18,-109.98C600.84,-101.46 572.39,-88.23 551.27,-78.41"/>
<polygon fill="#63b8ff" stroke="#63b8ff" points="552.69,-75.21 542.15,-74.17 549.74,-81.56 552.69,-75.21"/>
</a>
</g>
</g>
<!-- Node11 -->
<g id="Node000011" class="node">
<title>Node11</title>
<g id="a_Node000011"><a xlink:href="print_8hpp.html" target="_top" xlink:title="Printing helpers for std types.">
<polygon fill="white" stroke="#666666" points="667.5,-74 607.5,-74 607.5,-55 667.5,-55 667.5,-74"/>
<text text-anchor="middle" x="637.5" y="-62" font-family="Helvetica,sans-Serif" font-size="10.00">print.hpp</text>
</a>
</g>
</g>
<!-- Node9&#45;&gt;Node11 -->
<g id="edge11_Node000009_Node000011" class="edge">
<title>Node9&#45;&gt;Node11</title>
<g id="a_edge11_Node000009_Node000011"><a xlink:title=" ">
<path fill="none" stroke="#63b8ff" d="M637.5,-109.75C637.5,-102.8 637.5,-92.85 637.5,-84.13"/>
<polygon fill="#63b8ff" stroke="#63b8ff" points="641,-84.09 637.5,-74.09 634,-84.09 641,-84.09"/>
</a>
</g>
</g>
<!-- Node11&#45;&gt;Node6 -->
<g id="edge13_Node000011_Node000006" class="edge">
<title>Node11&#45;&gt;Node6</title>
<g id="a_edge13_Node000011_Node000006"><a xlink:title=" ">
<path fill="none" stroke="#63b8ff" d="M607.31,-56.68C604.34,-56.08 601.37,-55.51 598.5,-55 495.11,-36.55 371.73,-21.22 313.34,-14.36"/>
<polygon fill="#63b8ff" stroke="#63b8ff" points="313.55,-10.86 303.21,-13.18 312.74,-17.82 313.55,-10.86"/>
</a>
</g>
</g>
<!-- Node12 -->
<g id="Node000012" class="node">
<title>Node12</title>
<g id="a_Node000012"><a xlink:title=" ">
<polygon fill="#e0e0e0" stroke="#999999" points="766.5,-19 706.5,-19 706.5,0 766.5,0 766.5,-19"/>
<text text-anchor="middle" x="736.5" y="-7" font-family="Helvetica,sans-Serif" font-size="10.00">iostream</text>
</a>
</g>
</g>
<!-- Node11&#45;&gt;Node12 -->
<g id="edge12_Node000011_Node000012" class="edge">
<title>Node11&#45;&gt;Node12</title>
<g id="a_edge12_Node000011_Node000012"><a xlink:title=" ">
<path fill="none" stroke="#63b8ff" d="M653.41,-54.98C669.05,-46.61 693.16,-33.7 711.38,-23.95"/>
<polygon fill="#63b8ff" stroke="#63b8ff" points="713.14,-26.98 720.3,-19.17 709.84,-20.8 713.14,-26.98"/>
</a>
</g>
</g>
<!-- Node13 -->
<g id="Node000013" class="node">
<title>Node13</title>
<g id="a_Node000013"><a xlink:title=" ">
<polygon fill="#e0e0e0" stroke="#999999" points="565.5,-19 523.5,-19 523.5,0 565.5,0 565.5,-19"/>
<text text-anchor="middle" x="544.5" y="-7" font-family="Helvetica,sans-Serif" font-size="10.00">array</text>
</a>
</g>
</g>
<!-- Node11&#45;&gt;Node13 -->
<g id="edge14_Node000011_Node000013" class="edge">
<title>Node11&#45;&gt;Node13</title>
<g id="a_edge14_Node000011_Node000013"><a xlink:title=" ">
<path fill="none" stroke="#63b8ff" d="M622.56,-54.98C608,-46.69 585.63,-33.94 568.57,-24.22"/>
<polygon fill="#63b8ff" stroke="#63b8ff" points="570.14,-21.08 559.71,-19.17 566.67,-27.16 570.14,-21.08"/>
</a>
</g>
</g>
<!-- Node14 -->
<g id="Node000014" class="node">
<title>Node14</title>
<g id="a_Node000014"><a xlink:title=" ">
<polygon fill="#e0e0e0" stroke="#999999" points="629,-19 584,-19 584,0 629,0 629,-19"/>
<text text-anchor="middle" x="606.5" y="-7" font-family="Helvetica,sans-Serif" font-size="10.00">utility</text>
</a>
</g>
</g>
<!-- Node11&#45;&gt;Node14 -->
<g id="edge15_Node000011_Node000014" class="edge">
<title>Node11&#45;&gt;Node14</title>
<g id="a_edge15_Node000011_Node000014"><a xlink:title=" ">
<path fill="none" stroke="#63b8ff" d="M632.38,-54.75C628.14,-47.49 621.97,-36.95 616.72,-27.98"/>
<polygon fill="#63b8ff" stroke="#63b8ff" points="619.59,-25.95 611.52,-19.09 613.55,-29.49 619.59,-25.95"/>
</a>
</g>
</g>
<!-- Node15 -->
<g id="Node000015" class="node">
<title>Node15</title>
<g id="a_Node000015"><a xlink:title=" ">
<polygon fill="#e0e0e0" stroke="#999999" points="688,-19 647,-19 647,0 688,0 688,-19"/>
<text text-anchor="middle" x="667.5" y="-7" font-family="Helvetica,sans-Serif" font-size="10.00">tuple</text>
</a>
</g>
</g>
<!-- Node11&#45;&gt;Node15 -->
<g id="edge16_Node000011_Node000015" class="edge">
<title>Node11&#45;&gt;Node15</title>
<g id="a_edge16_Node000011_Node000015"><a xlink:title=" ">
<path fill="none" stroke="#63b8ff" d="M642.45,-54.75C646.56,-47.49 652.53,-36.95 657.6,-27.98"/>
<polygon fill="#63b8ff" stroke="#63b8ff" points="660.76,-29.52 662.64,-19.09 654.67,-26.07 660.76,-29.52"/>
</a>
</g>
</g>
<!-- Node19&#45;&gt;Node5 -->
<g id="edge24_Node000019_Node000005" class="edge">
<title>Node19&#45;&gt;Node5</title>
<g id="a_edge24_Node000019_Node000005"><a xlink:title=" ">
<path fill="none" stroke="#63b8ff" d="M605.04,-170.49C563.26,-160.18 492.78,-142.78 446.96,-131.47"/>
<polygon fill="#63b8ff" stroke="#63b8ff" points="447.55,-128.02 437,-129.02 445.87,-134.81 447.55,-128.02"/>
</a>
</g>
</g>
<!-- Node19&#45;&gt;Node9 -->
<g id="edge25_Node000019_Node000009" class="edge">
<title>Node19&#45;&gt;Node9</title>
<g id="a_edge25_Node000019_Node000009"><a xlink:title=" ">
<path fill="none" stroke="#63b8ff" d="M639.2,-170.37C638.93,-162.25 638.5,-149.81 638.15,-139.39"/>
<polygon fill="#63b8ff" stroke="#63b8ff" points="641.64,-139.04 637.8,-129.17 634.64,-139.28 641.64,-139.04"/>
</a>
</g>
</g>
<!-- Node19&#45;&gt;Node17 -->
<g id="edge23_Node000019_Node000017" class="edge">
<title>Node19&#45;&gt;Node17</title>
<g id="a_edge23_Node000019_Node000017"><a xlink:title=" ">
<path fill="none" stroke="#63b8ff" d="M620.6,-170.49C598.84,-160.7 562.88,-144.52 537.79,-133.23"/>
<polygon fill="#63b8ff" stroke="#63b8ff" points="538.98,-129.93 528.43,-129.02 536.11,-136.31 538.98,-129.93"/>
</a>
</g>
</g>
<!-- Node20&#45;&gt;Node6 -->
<g id="edge27_Node000020_Node000006" class="edge">
<title>Node20&#45;&gt;Node6</title>
<g id="a_edge27_Node000020_Node000006"><a xlink:title=" ">
<path fill="none" stroke="#63b8ff" d="M160.31,-54.98C183.67,-46.27 220.2,-32.63 246.67,-22.75"/>
<polygon fill="#63b8ff" stroke="#63b8ff" points="248.13,-25.95 256.27,-19.17 245.68,-19.39 248.13,-25.95"/>
</a>
</g>
</g>
<!-- Node21&#45;&gt;Node5 -->
<g id="edge32_Node000021_Node000005" class="edge">
<title>Node21&#45;&gt;Node5</title>
<g id="a_edge32_Node000021_Node000005"><a xlink:title=" ">
<path fill="none" stroke="#63b8ff" d="M195.82,-230.86C187.5,-213.41 177.32,-183.74 192.5,-165 201.75,-153.59 279.23,-139.36 337.4,-130.11"/>
<polygon fill="#63b8ff" stroke="#63b8ff" points="337.96,-133.56 347.29,-128.55 336.87,-126.65 337.96,-133.56"/>
</a>
</g>
</g>
<!-- Node21&#45;&gt;Node8 -->
<g id="edge33_Node000021_Node000008" class="edge">
<title>Node21&#45;&gt;Node8</title>
<g id="a_edge33_Node000021_Node000008"><a xlink:title=" ">
<path fill="none" stroke="#63b8ff" d="M218.59,-230.8C227.57,-222.34 239.13,-211.46 249.15,-202.03"/>
<polygon fill="#63b8ff" stroke="#63b8ff" points="251.57,-204.57 256.45,-195.16 246.77,-199.47 251.57,-204.57"/>
</a>
</g>
</g>
<!-- Node22 -->
<g id="Node000022" class="node">
<title>Node22</title>
<g id="a_Node000022"><a xlink:title=" ">
<polygon fill="#e0e0e0" stroke="#999999" points="69,-189.5 0,-189.5 0,-170.5 69,-170.5 69,-189.5"/>
<text text-anchor="middle" x="34.5" y="-177.5" font-family="Helvetica,sans-Serif" font-size="10.00">Eigen/Core</text>
</a>
</g>
</g>
<!-- Node21&#45;&gt;Node22 -->
<g id="edge31_Node000021_Node000022" class="edge">
<title>Node21&#45;&gt;Node22</title>
<g id="a_edge31_Node000021_Node000022"><a xlink:title=" ">
<path fill="none" stroke="#63b8ff" d="M166.41,-230.95C136.51,-219.63 94.9,-203.88 66.46,-193.1"/>
<polygon fill="#63b8ff" stroke="#63b8ff" points="67.58,-189.79 56.99,-189.52 65.1,-196.33 67.58,-189.79"/>
</a>
</g>
</g>
</g>
</svg>
