<?xml version="1.0" encoding="UTF-8" standalone="no"?>
<!DOCTYPE svg PUBLIC "-//W3C//DTD SVG 1.1//EN"
 "http://www.w3.org/Graphics/SVG/1.1/DTD/svg11.dtd">
<!-- Generated by graphviz version 2.43.0 (0)
 -->
<!-- Title: include/medusa/bits/domains/FindClosest.hpp Pages: 1 -->
<svg width="751pt" height="390pt"
 viewBox="0.00 0.00 751.00 390.00" xmlns="http://www.w3.org/2000/svg" xmlns:xlink="http://www.w3.org/1999/xlink">
<g id="graph0" class="graph" transform="scale(1 1) rotate(0) translate(4 386)">
<title>include/medusa/bits/domains/FindClosest.hpp</title>
<!-- Node1 -->
<g id="Node000001" class="node">
<title>Node1</title>
<g id="a_Node000001"><a xlink:title="Implementation of FindClosest.">
<polygon fill="#999999" stroke="#666666" points="252,-382 110,-382 110,-352 252,-352 252,-382"/>
<text text-anchor="start" x="118" y="-370" font-family="Helvetica,sans-Serif" font-size="10.00">include/medusa/bits</text>
<text text-anchor="middle" x="181" y="-359" font-family="Helvetica,sans-Serif" font-size="10.00">/domains/FindClosest.hpp</text>
</a>
</g>
</g>
<!-- Node2 -->
<g id="Node000002" class="node">
<title>Node2</title>
<g id="a_Node000002"><a xlink:href="FindClosest__fwd_8hpp.html" target="_top" xlink:title="Declarations of FindClosest.">
<polygon fill="white" stroke="#666666" points="645,-250 529,-250 529,-231 645,-231 645,-250"/>
<text text-anchor="middle" x="587" y="-238" font-family="Helvetica,sans-Serif" font-size="10.00">FindClosest_fwd.hpp</text>
</a>
</g>
</g>
<!-- Node1&#45;&gt;Node2 -->
<g id="edge1_Node000001_Node000002" class="edge">
<title>Node1&#45;&gt;Node2</title>
<g id="a_edge1_Node000001_Node000002"><a xlink:title=" ">
<path fill="none" stroke="#63b8ff" d="M226.78,-351.96C307.69,-327.15 474.46,-276.01 549.25,-253.08"/>
<polygon fill="#63b8ff" stroke="#63b8ff" points="550.64,-256.31 559.18,-250.03 548.59,-249.62 550.64,-256.31"/>
</a>
</g>
</g>
<!-- Node6 -->
<g id="Node000006" class="node">
<title>Node6</title>
<g id="a_Node000006"><a xlink:href="assert_8hpp.html" target="_top" xlink:title="Implementation of custom assert and debug utilities.">
<polygon fill="white" stroke="#666666" points="190.5,-129 35.5,-129 35.5,-110 190.5,-110 190.5,-129"/>
<text text-anchor="middle" x="113" y="-117" font-family="Helvetica,sans-Serif" font-size="10.00">medusa/bits/utils/assert.hpp</text>
</a>
</g>
</g>
<!-- Node1&#45;&gt;Node6 -->
<g id="edge18_Node000001_Node000006" class="edge">
<title>Node1&#45;&gt;Node6</title>
<g id="a_edge18_Node000001_Node000006"><a xlink:title=" ">
<path fill="none" stroke="#63b8ff" d="M155.21,-351.93C141.46,-343.23 125.31,-330.89 115,-316 83.05,-269.88 87.08,-250.52 79,-195 77.08,-181.81 74.73,-177.63 79,-165 82.56,-154.47 89.72,-144.48 96.55,-136.63"/>
<polygon fill="#63b8ff" stroke="#63b8ff" points="99.13,-139.01 103.39,-129.31 94.01,-134.23 99.13,-139.01"/>
</a>
</g>
</g>
<!-- Node16 -->
<g id="Node000016" class="node">
<title>Node16</title>
<g id="a_Node000016"><a xlink:href="KDTree_8hpp.html" target="_top" xlink:title="Implementation of KDTree.">
<polygon fill="white" stroke="#666666" points="237.5,-316 124.5,-316 124.5,-286 237.5,-286 237.5,-316"/>
<text text-anchor="start" x="132.5" y="-304" font-family="Helvetica,sans-Serif" font-size="10.00">medusa/bits/spatial</text>
<text text-anchor="middle" x="181" y="-293" font-family="Helvetica,sans-Serif" font-size="10.00">_search/KDTree.hpp</text>
</a>
</g>
</g>
<!-- Node1&#45;&gt;Node16 -->
<g id="edge19_Node000001_Node000016" class="edge">
<title>Node1&#45;&gt;Node16</title>
<g id="a_edge19_Node000001_Node000016"><a xlink:title=" ">
<path fill="none" stroke="#63b8ff" d="M181,-351.8C181,-344.34 181,-334.99 181,-326.41"/>
<polygon fill="#63b8ff" stroke="#63b8ff" points="184.5,-326.16 181,-316.16 177.5,-326.16 184.5,-326.16"/>
</a>
</g>
</g>
<!-- Node3 -->
<g id="Node000003" class="node">
<title>Node3</title>
<g id="a_Node000003"><a xlink:href="Config_8hpp.html" target="_top" xlink:title="Contains compile time settings for the project, such as Eigen plugins.">
<polygon fill="white" stroke="#666666" points="743,-129 633,-129 633,-110 743,-110 743,-129"/>
<text text-anchor="middle" x="688" y="-117" font-family="Helvetica,sans-Serif" font-size="10.00">medusa/Config.hpp</text>
</a>
</g>
</g>
<!-- Node2&#45;&gt;Node3 -->
<g id="edge2_Node000002_Node000003" class="edge">
<title>Node2&#45;&gt;Node3</title>
<g id="a_edge2_Node000002_Node000003"><a xlink:title=" ">
<path fill="none" stroke="#63b8ff" d="M642.71,-231C663.99,-224.74 686.19,-213.87 699,-195 710.32,-178.32 704.01,-154.7 697.2,-138.55"/>
<polygon fill="#63b8ff" stroke="#63b8ff" points="700.23,-136.76 692.84,-129.17 693.88,-139.72 700.23,-136.76"/>
</a>
</g>
</g>
<!-- Node5 -->
<g id="Node000005" class="node">
<title>Node5</title>
<g id="a_Node000005"><a xlink:href="Range__fwd_8hpp.html" target="_top" xlink:title="Declaration of Range.">
<polygon fill="white" stroke="#666666" points="657,-195 517,-195 517,-165 657,-165 657,-195"/>
<text text-anchor="start" x="525" y="-183" font-family="Helvetica,sans-Serif" font-size="10.00">medusa/bits/types/Range</text>
<text text-anchor="middle" x="587" y="-172" font-family="Helvetica,sans-Serif" font-size="10.00">_fwd.hpp</text>
</a>
</g>
</g>
<!-- Node2&#45;&gt;Node5 -->
<g id="edge4_Node000002_Node000005" class="edge">
<title>Node2&#45;&gt;Node5</title>
<g id="a_edge4_Node000002_Node000005"><a xlink:title=" ">
<path fill="none" stroke="#63b8ff" d="M587,-230.87C587,-224.11 587,-214.35 587,-205.26"/>
<polygon fill="#63b8ff" stroke="#63b8ff" points="590.5,-205.11 587,-195.11 583.5,-205.11 590.5,-205.11"/>
</a>
</g>
</g>
<!-- Node4 -->
<g id="Node000004" class="node">
<title>Node4</title>
<g id="a_Node000004"><a xlink:title=" ">
<polygon fill="#e0e0e0" stroke="#999999" points="464.5,-19 417.5,-19 417.5,0 464.5,0 464.5,-19"/>
<text text-anchor="middle" x="441" y="-7" font-family="Helvetica,sans-Serif" font-size="10.00">vector</text>
</a>
</g>
</g>
<!-- Node3&#45;&gt;Node4 -->
<g id="edge3_Node000003_Node000004" class="edge">
<title>Node3&#45;&gt;Node4</title>
<g id="a_edge3_Node000003_Node000004"><a xlink:title=" ">
<path fill="none" stroke="#63b8ff" d="M668.2,-109.84C624.74,-90.84 520.79,-45.39 469.97,-23.17"/>
<polygon fill="#63b8ff" stroke="#63b8ff" points="471.11,-19.85 460.55,-19.05 468.31,-26.26 471.11,-19.85"/>
</a>
</g>
</g>
<!-- Node5&#45;&gt;Node3 -->
<g id="edge5_Node000005_Node000003" class="edge">
<title>Node5&#45;&gt;Node3</title>
<g id="a_edge5_Node000005_Node000003"><a xlink:title=" ">
<path fill="none" stroke="#63b8ff" d="M611.19,-164.99C627.29,-155.66 648.34,-143.47 664.33,-134.21"/>
<polygon fill="#63b8ff" stroke="#63b8ff" points="666.19,-137.18 673.08,-129.14 662.68,-131.12 666.19,-137.18"/>
</a>
</g>
</g>
<!-- Node5&#45;&gt;Node4 -->
<g id="edge16_Node000005_Node000004" class="edge">
<title>Node5&#45;&gt;Node4</title>
<g id="a_edge16_Node000005_Node000004"><a xlink:title=" ">
<path fill="none" stroke="#63b8ff" d="M574.25,-164.6C565.44,-154.63 553.48,-141.04 543,-129 511.4,-92.69 474.63,-49.82 455.02,-26.9"/>
<polygon fill="#63b8ff" stroke="#63b8ff" points="457.55,-24.48 448.39,-19.15 452.23,-29.03 457.55,-24.48"/>
</a>
</g>
</g>
<!-- Node5&#45;&gt;Node6 -->
<g id="edge6_Node000005_Node000006" class="edge">
<title>Node5&#45;&gt;Node6</title>
<g id="a_edge6_Node000005_Node000006"><a xlink:title=" ">
<path fill="none" stroke="#63b8ff" d="M516.8,-170.34C429.99,-159.62 282.61,-141.43 191.94,-130.24"/>
<polygon fill="#63b8ff" stroke="#63b8ff" points="192.34,-126.77 181.99,-129.01 191.49,-133.71 192.34,-126.77"/>
</a>
</g>
</g>
<!-- Node13 -->
<g id="Node000013" class="node">
<title>Node13</title>
<g id="a_Node000013"><a xlink:href="traits_8hpp.html" target="_top" xlink:title="Type traits definition for vector and scalar fields.">
<polygon fill="white" stroke="#666666" points="614.5,-129 551.5,-129 551.5,-110 614.5,-110 614.5,-129"/>
<text text-anchor="middle" x="583" y="-117" font-family="Helvetica,sans-Serif" font-size="10.00">traits.hpp</text>
</a>
</g>
</g>
<!-- Node5&#45;&gt;Node13 -->
<g id="edge14_Node000005_Node000013" class="edge">
<title>Node5&#45;&gt;Node13</title>
<g id="a_edge14_Node000005_Node000013"><a xlink:title=" ">
<path fill="none" stroke="#63b8ff" d="M586.03,-164.84C585.51,-157.21 584.86,-147.7 584.3,-139.45"/>
<polygon fill="#63b8ff" stroke="#63b8ff" points="587.77,-139 583.6,-129.27 580.79,-139.48 587.77,-139"/>
</a>
</g>
</g>
<!-- Node14 -->
<g id="Node000014" class="node">
<title>Node14</title>
<g id="a_Node000014"><a xlink:title=" ">
<polygon fill="#e0e0e0" stroke="#999999" points="267,-129 209,-129 209,-110 267,-110 267,-129"/>
<text text-anchor="middle" x="238" y="-117" font-family="Helvetica,sans-Serif" font-size="10.00">memory</text>
</a>
</g>
</g>
<!-- Node5&#45;&gt;Node14 -->
<g id="edge15_Node000005_Node000014" class="edge">
<title>Node5&#45;&gt;Node14</title>
<g id="a_edge15_Node000005_Node000014"><a xlink:title=" ">
<path fill="none" stroke="#63b8ff" d="M516.79,-167.23C444.84,-155.17 335.51,-136.84 277.45,-127.11"/>
<polygon fill="#63b8ff" stroke="#63b8ff" points="277.67,-123.6 267.23,-125.4 276.51,-130.5 277.67,-123.6"/>
</a>
</g>
</g>
<!-- Node15 -->
<g id="Node000015" class="node">
<title>Node15</title>
<g id="a_Node000015"><a xlink:title=" ">
<polygon fill="#e0e0e0" stroke="#999999" points="495,-129 447,-129 447,-110 495,-110 495,-129"/>
<text text-anchor="middle" x="471" y="-117" font-family="Helvetica,sans-Serif" font-size="10.00">iosfwd</text>
</a>
</g>
</g>
<!-- Node5&#45;&gt;Node15 -->
<g id="edge17_Node000005_Node000015" class="edge">
<title>Node5&#45;&gt;Node15</title>
<g id="a_edge17_Node000005_Node000015"><a xlink:title=" ">
<path fill="none" stroke="#63b8ff" d="M559.22,-164.99C540.38,-155.49 515.65,-143.02 497.16,-133.69"/>
<polygon fill="#63b8ff" stroke="#63b8ff" points="498.64,-130.52 488.13,-129.14 495.48,-136.77 498.64,-130.52"/>
</a>
</g>
</g>
<!-- Node7 -->
<g id="Node000007" class="node">
<title>Node7</title>
<g id="a_Node000007"><a xlink:title=" ">
<polygon fill="#e0e0e0" stroke="#999999" points="293,-74 161,-74 161,-55 293,-55 293,-74"/>
<text text-anchor="middle" x="227" y="-62" font-family="Helvetica,sans-Serif" font-size="10.00">tinyformat/tinyformat.h</text>
</a>
</g>
</g>
<!-- Node6&#45;&gt;Node7 -->
<g id="edge7_Node000006_Node000007" class="edge">
<title>Node6&#45;&gt;Node7</title>
<g id="a_edge7_Node000006_Node000007"><a xlink:title=" ">
<path fill="none" stroke="#63b8ff" d="M131.32,-109.98C149.66,-101.46 178.11,-88.23 199.23,-78.41"/>
<polygon fill="#63b8ff" stroke="#63b8ff" points="200.76,-81.56 208.35,-74.17 197.81,-75.21 200.76,-81.56"/>
</a>
</g>
</g>
<!-- Node8 -->
<g id="Node000008" class="node">
<title>Node8</title>
<g id="a_Node000008"><a xlink:href="print_8hpp.html" target="_top" xlink:title="Printing helpers for std types.">
<polygon fill="white" stroke="#666666" points="143,-74 83,-74 83,-55 143,-55 143,-74"/>
<text text-anchor="middle" x="113" y="-62" font-family="Helvetica,sans-Serif" font-size="10.00">print.hpp</text>
</a>
</g>
</g>
<!-- Node6&#45;&gt;Node8 -->
<g id="edge8_Node000006_Node000008" class="edge">
<title>Node6&#45;&gt;Node8</title>
<g id="a_edge8_Node000006_Node000008"><a xlink:title=" ">
<path fill="none" stroke="#63b8ff" d="M113,-109.75C113,-102.8 113,-92.85 113,-84.13"/>
<polygon fill="#63b8ff" stroke="#63b8ff" points="116.5,-84.09 113,-74.09 109.5,-84.09 116.5,-84.09"/>
</a>
</g>
</g>
<!-- Node8&#45;&gt;Node4 -->
<g id="edge10_Node000008_Node000004" class="edge">
<title>Node8&#45;&gt;Node4</title>
<g id="a_edge10_Node000008_Node000004"><a xlink:title=" ">
<path fill="none" stroke="#63b8ff" d="M143.2,-56.73C146.17,-56.12 149.14,-55.53 152,-55 243.95,-37.92 353.22,-22.38 407.26,-15.01"/>
<polygon fill="#63b8ff" stroke="#63b8ff" points="407.88,-18.45 417.32,-13.64 406.94,-11.52 407.88,-18.45"/>
</a>
</g>
</g>
<!-- Node9 -->
<g id="Node000009" class="node">
<title>Node9</title>
<g id="a_Node000009"><a xlink:title=" ">
<polygon fill="#e0e0e0" stroke="#999999" points="243,-19 183,-19 183,0 243,0 243,-19"/>
<text text-anchor="middle" x="213" y="-7" font-family="Helvetica,sans-Serif" font-size="10.00">iostream</text>
</a>
</g>
</g>
<!-- Node8&#45;&gt;Node9 -->
<g id="edge9_Node000008_Node000009" class="edge">
<title>Node8&#45;&gt;Node9</title>
<g id="a_edge9_Node000008_Node000009"><a xlink:title=" ">
<path fill="none" stroke="#63b8ff" d="M129.07,-54.98C144.86,-46.61 169.22,-33.7 187.63,-23.95"/>
<polygon fill="#63b8ff" stroke="#63b8ff" points="189.44,-26.95 196.64,-19.17 186.17,-20.76 189.44,-26.95"/>
</a>
</g>
</g>
<!-- Node10 -->
<g id="Node000010" class="node">
<title>Node10</title>
<g id="a_Node000010"><a xlink:title=" ">
<polygon fill="#e0e0e0" stroke="#999999" points="42,-19 0,-19 0,0 42,0 42,-19"/>
<text text-anchor="middle" x="21" y="-7" font-family="Helvetica,sans-Serif" font-size="10.00">array</text>
</a>
</g>
</g>
<!-- Node8&#45;&gt;Node10 -->
<g id="edge11_Node000008_Node000010" class="edge">
<title>Node8&#45;&gt;Node10</title>
<g id="a_edge11_Node000008_Node000010"><a xlink:title=" ">
<path fill="none" stroke="#63b8ff" d="M98.22,-54.98C83.82,-46.69 61.69,-33.94 44.81,-24.22"/>
<polygon fill="#63b8ff" stroke="#63b8ff" points="46.46,-21.13 36.05,-19.17 42.97,-27.19 46.46,-21.13"/>
</a>
</g>
</g>
<!-- Node11 -->
<g id="Node000011" class="node">
<title>Node11</title>
<g id="a_Node000011"><a xlink:title=" ">
<polygon fill="#e0e0e0" stroke="#999999" points="105.5,-19 60.5,-19 60.5,0 105.5,0 105.5,-19"/>
<text text-anchor="middle" x="83" y="-7" font-family="Helvetica,sans-Serif" font-size="10.00">utility</text>
</a>
</g>
</g>
<!-- Node8&#45;&gt;Node11 -->
<g id="edge12_Node000008_Node000011" class="edge">
<title>Node8&#45;&gt;Node11</title>
<g id="a_edge12_Node000008_Node000011"><a xlink:title=" ">
<path fill="none" stroke="#63b8ff" d="M108.05,-54.75C103.94,-47.49 97.97,-36.95 92.9,-27.98"/>
<polygon fill="#63b8ff" stroke="#63b8ff" points="95.83,-26.07 87.86,-19.09 89.74,-29.52 95.83,-26.07"/>
</a>
</g>
</g>
<!-- Node12 -->
<g id="Node000012" class="node">
<title>Node12</title>
<g id="a_Node000012"><a xlink:title=" ">
<polygon fill="#e0e0e0" stroke="#999999" points="164.5,-19 123.5,-19 123.5,0 164.5,0 164.5,-19"/>
<text text-anchor="middle" x="144" y="-7" font-family="Helvetica,sans-Serif" font-size="10.00">tuple</text>
</a>
</g>
</g>
<!-- Node8&#45;&gt;Node12 -->
<g id="edge13_Node000008_Node000012" class="edge">
<title>Node8&#45;&gt;Node12</title>
<g id="a_edge13_Node000008_Node000012"><a xlink:title=" ">
<path fill="none" stroke="#63b8ff" d="M118.12,-54.75C122.36,-47.49 128.53,-36.95 133.78,-27.98"/>
<polygon fill="#63b8ff" stroke="#63b8ff" points="136.95,-29.49 138.98,-19.09 130.91,-25.95 136.95,-29.49"/>
</a>
</g>
</g>
<!-- Node16&#45;&gt;Node6 -->
<g id="edge31_Node000016_Node000006" class="edge">
<title>Node16&#45;&gt;Node6</title>
<g id="a_edge31_Node000016_Node000006"><a xlink:title=" ">
<path fill="none" stroke="#63b8ff" d="M161.53,-285.93C138.42,-267.9 101.11,-234.23 86,-195 81.21,-182.56 82.41,-177.84 86,-165 88.76,-155.12 94.39,-145.25 99.79,-137.32"/>
<polygon fill="#63b8ff" stroke="#63b8ff" points="102.78,-139.17 105.85,-129.03 97.13,-135.04 102.78,-139.17"/>
</a>
</g>
</g>
<!-- Node17 -->
<g id="Node000017" class="node">
<title>Node17</title>
<g id="a_Node000017"><a xlink:href="KDTree__fwd_8hpp.html" target="_top" xlink:title="Declaration of KDTree.">
<polygon fill="white" stroke="#666666" points="439.5,-250 344.5,-250 344.5,-231 439.5,-231 439.5,-250"/>
<text text-anchor="middle" x="392" y="-238" font-family="Helvetica,sans-Serif" font-size="10.00">KDTree_fwd.hpp</text>
</a>
</g>
</g>
<!-- Node16&#45;&gt;Node17 -->
<g id="edge20_Node000016_Node000017" class="edge">
<title>Node16&#45;&gt;Node17</title>
<g id="a_edge20_Node000016_Node000017"><a xlink:title=" ">
<path fill="none" stroke="#63b8ff" d="M231.54,-285.99C268.27,-275.8 317.33,-262.2 351.49,-252.73"/>
<polygon fill="#63b8ff" stroke="#63b8ff" points="352.45,-256.1 361.15,-250.05 350.58,-249.35 352.45,-256.1"/>
</a>
</g>
</g>
<!-- Node19 -->
<g id="Node000019" class="node">
<title>Node19</title>
<g id="a_Node000019"><a xlink:href="memutils_8hpp.html" target="_top" xlink:title="Declaration of memory related utilities.">
<polygon fill="white" stroke="#666666" points="266.5,-189.5 95.5,-189.5 95.5,-170.5 266.5,-170.5 266.5,-189.5"/>
<text text-anchor="middle" x="181" y="-177.5" font-family="Helvetica,sans-Serif" font-size="10.00">medusa/bits/utils/memutils.hpp</text>
</a>
</g>
</g>
<!-- Node16&#45;&gt;Node19 -->
<g id="edge32_Node000016_Node000019" class="edge">
<title>Node16&#45;&gt;Node19</title>
<g id="a_edge32_Node000016_Node000019"><a xlink:title=" ">
<path fill="none" stroke="#63b8ff" d="M181,-285.88C181,-264.51 181,-223.89 181,-199.96"/>
<polygon fill="#63b8ff" stroke="#63b8ff" points="184.5,-199.71 181,-189.71 177.5,-199.71 184.5,-199.71"/>
</a>
</g>
</g>
<!-- Node17&#45;&gt;Node3 -->
<g id="edge21_Node000017_Node000003" class="edge">
<title>Node17&#45;&gt;Node3</title>
<g id="a_edge21_Node000017_Node000003"><a xlink:title=" ">
<path fill="none" stroke="#63b8ff" d="M439.68,-234.53C513.63,-226.41 649.28,-209.74 666,-195 681.7,-181.16 686.45,-156.72 687.76,-139.62"/>
<polygon fill="#63b8ff" stroke="#63b8ff" points="691.27,-139.32 688.2,-129.18 684.28,-139.02 691.27,-139.32"/>
</a>
</g>
</g>
<!-- Node17&#45;&gt;Node5 -->
<g id="edge23_Node000017_Node000005" class="edge">
<title>Node17&#45;&gt;Node5</title>
<g id="a_edge23_Node000017_Node000005"><a xlink:title=" ">
<path fill="none" stroke="#63b8ff" d="M420.35,-230.99C449.03,-222.39 494.15,-208.86 530.21,-198.04"/>
<polygon fill="#63b8ff" stroke="#63b8ff" points="531.55,-201.29 540.12,-195.06 529.54,-194.59 531.55,-201.29"/>
</a>
</g>
</g>
<!-- Node17&#45;&gt;Node15 -->
<g id="edge24_Node000017_Node000015" class="edge">
<title>Node17&#45;&gt;Node15</title>
<g id="a_edge24_Node000017_Node000015"><a xlink:title=" ">
<path fill="none" stroke="#63b8ff" d="M421.42,-230.92C438.82,-224.17 459.47,-212.86 470,-195 479.94,-178.14 478.48,-155.19 475.63,-139.24"/>
<polygon fill="#63b8ff" stroke="#63b8ff" points="478.96,-138.09 473.44,-129.04 472.11,-139.55 478.96,-138.09"/>
</a>
</g>
</g>
<!-- Node18 -->
<g id="Node000018" class="node">
<title>Node18</title>
<g id="a_Node000018"><a xlink:title=" ">
<polygon fill="#e0e0e0" stroke="#999999" points="460.5,-189.5 323.5,-189.5 323.5,-170.5 460.5,-170.5 460.5,-189.5"/>
<text text-anchor="middle" x="392" y="-177.5" font-family="Helvetica,sans-Serif" font-size="10.00">nanoflann/nanoflann.hpp</text>
</a>
</g>
</g>
<!-- Node17&#45;&gt;Node18 -->
<g id="edge22_Node000017_Node000018" class="edge">
<title>Node17&#45;&gt;Node18</title>
<g id="a_edge22_Node000017_Node000018"><a xlink:title=" ">
<path fill="none" stroke="#63b8ff" d="M392,-230.87C392,-222.75 392,-210.31 392,-199.89"/>
<polygon fill="#63b8ff" stroke="#63b8ff" points="395.5,-199.67 392,-189.67 388.5,-199.67 395.5,-199.67"/>
</a>
</g>
</g>
<!-- Node17&#45;&gt;Node19 -->
<g id="edge25_Node000017_Node000019" class="edge">
<title>Node17&#45;&gt;Node19</title>
<g id="a_edge25_Node000017_Node000019"><a xlink:title=" ">
<path fill="none" stroke="#63b8ff" d="M361.32,-230.99C324.44,-220.77 262.43,-203.58 221.61,-192.26"/>
<polygon fill="#63b8ff" stroke="#63b8ff" points="222.29,-188.82 211.72,-189.52 220.42,-195.56 222.29,-188.82"/>
</a>
</g>
</g>
<!-- Node20 -->
<g id="Node000020" class="node">
<title>Node20</title>
<g id="a_Node000020"><a xlink:href="PointCloud_8hpp.html" target="_top" xlink:title="Implementation of KDTree storage class.">
<polygon fill="white" stroke="#666666" points="450,-74 360,-74 360,-55 450,-55 450,-74"/>
<text text-anchor="middle" x="405" y="-62" font-family="Helvetica,sans-Serif" font-size="10.00">PointCloud.hpp</text>
</a>
</g>
</g>
<!-- Node17&#45;&gt;Node20 -->
<g id="edge29_Node000017_Node000020" class="edge">
<title>Node17&#45;&gt;Node20</title>
<g id="a_edge29_Node000017_Node000020"><a xlink:title=" ">
<path fill="none" stroke="#63b8ff" d="M362.5,-230.97C345.06,-224.24 324.41,-212.93 314,-195 307.3,-183.47 309.17,-177.43 314,-165 328.06,-128.78 362.14,-97.7 384.37,-80.32"/>
<polygon fill="#63b8ff" stroke="#63b8ff" points="386.66,-82.98 392.52,-74.15 382.44,-77.4 386.66,-82.98"/>
</a>
</g>
</g>
<!-- Node19&#45;&gt;Node3 -->
<g id="edge27_Node000019_Node000003" class="edge">
<title>Node19&#45;&gt;Node3</title>
<g id="a_edge27_Node000019_Node000003"><a xlink:title=" ">
<path fill="none" stroke="#63b8ff" d="M260.68,-170.48C347.24,-161.12 489.88,-145.38 622.88,-129.12"/>
<polygon fill="#63b8ff" stroke="#63b8ff" points="623.35,-132.59 632.85,-127.89 622.5,-125.64 623.35,-132.59"/>
</a>
</g>
</g>
<!-- Node19&#45;&gt;Node6 -->
<g id="edge28_Node000019_Node000006" class="edge">
<title>Node19&#45;&gt;Node6</title>
<g id="a_edge28_Node000019_Node000006"><a xlink:title=" ">
<path fill="none" stroke="#63b8ff" d="M170.97,-170.37C160.42,-161.3 143.61,-146.84 130.81,-135.82"/>
<polygon fill="#63b8ff" stroke="#63b8ff" points="132.94,-133.04 123.07,-129.17 128.37,-138.34 132.94,-133.04"/>
</a>
</g>
</g>
<!-- Node19&#45;&gt;Node14 -->
<g id="edge26_Node000019_Node000014" class="edge">
<title>Node19&#45;&gt;Node14</title>
<g id="a_edge26_Node000019_Node000014"><a xlink:title=" ">
<path fill="none" stroke="#63b8ff" d="M189.41,-170.37C198.08,-161.47 211.8,-147.39 222.46,-136.45"/>
<polygon fill="#63b8ff" stroke="#63b8ff" points="225.08,-138.77 229.55,-129.17 220.07,-133.89 225.08,-138.77"/>
</a>
</g>
</g>
<!-- Node20&#45;&gt;Node4 -->
<g id="edge30_Node000020_Node000004" class="edge">
<title>Node20&#45;&gt;Node4</title>
<g id="a_edge30_Node000020_Node000004"><a xlink:title=" ">
<path fill="none" stroke="#63b8ff" d="M410.94,-54.75C415.98,-47.34 423.34,-36.5 429.51,-27.41"/>
<polygon fill="#63b8ff" stroke="#63b8ff" points="432.44,-29.33 435.17,-19.09 426.65,-25.39 432.44,-29.33"/>
</a>
</g>
</g>
</g>
</svg>
