<?xml version="1.0" encoding="UTF-8" standalone="no"?>
<!DOCTYPE svg PUBLIC "-//W3C//DTD SVG 1.1//EN"
 "http://www.w3.org/Graphics/SVG/1.1/DTD/svg11.dtd">
<!-- Generated by graphviz version 2.43.0 (0)
 -->
<!-- Title: include/medusa/bits/approximations/Gaussian.hpp Pages: 1 -->
<svg width="849pt" height="159pt"
 viewBox="0.00 0.00 849.00 159.00" xmlns="http://www.w3.org/2000/svg" xmlns:xlink="http://www.w3.org/1999/xlink">
<g id="graph0" class="graph" transform="scale(1 1) rotate(0) translate(4 155)">
<title>include/medusa/bits/approximations/Gaussian.hpp</title>
<!-- Node1 -->
<g id="Node000001" class="node">
<title>Node1</title>
<g id="a_Node000001"><a xlink:title="Implementation of Gaussian RBF.">
<polygon fill="#999999" stroke="#666666" points="543,-151 378,-151 378,-121 543,-121 543,-151"/>
<text text-anchor="start" x="386" y="-139" font-family="Helvetica,sans-Serif" font-size="10.00">include/medusa/bits</text>
<text text-anchor="middle" x="460.5" y="-128" font-family="Helvetica,sans-Serif" font-size="10.00">/approximations/Gaussian.hpp</text>
</a>
</g>
</g>
<!-- Node2 -->
<g id="Node000002" class="node">
<title>Node2</title>
<g id="a_Node000002"><a xlink:href="Approximations_8hpp.html" target="_top" xlink:title="Header for Approximations module.">
<polygon fill="white" stroke="#666666" points="195,-79.5 0,-79.5 0,-60.5 195,-60.5 195,-79.5"/>
<text text-anchor="middle" x="97.5" y="-67.5" font-family="Helvetica,sans-Serif" font-size="10.00">include/medusa/Approximations.hpp</text>
</a>
</g>
</g>
<!-- Node1&#45;&gt;Node2 -->
<g id="edge1_Node000001_Node000002" class="edge">
<title>Node1&#45;&gt;Node2</title>
<g id="a_edge1_Node000001_Node000002"><a xlink:title=" ">
<path fill="none" stroke="#63b8ff" d="M370.98,-119.22C299.86,-106.68 203.12,-89.62 145.81,-79.52"/>
<polygon fill="#63b8ff" stroke="#63b8ff" points="370.38,-122.67 380.84,-120.95 371.6,-115.77 370.38,-122.67"/>
</a>
</g>
</g>
<!-- Node4 -->
<g id="Node000004" class="node">
<title>Node4</title>
<g id="a_Node000004"><a xlink:href="Gaussian_8cpp.html" target="_top" xlink:title="Instantiation of most commonly used Gaussian RBF.">
<polygon fill="white" stroke="#666666" points="323.5,-85 213.5,-85 213.5,-55 323.5,-55 323.5,-85"/>
<text text-anchor="start" x="221.5" y="-73" font-family="Helvetica,sans-Serif" font-size="10.00">src/approximations</text>
<text text-anchor="middle" x="268.5" y="-62" font-family="Helvetica,sans-Serif" font-size="10.00">/Gaussian.cpp</text>
</a>
</g>
</g>
<!-- Node1&#45;&gt;Node4 -->
<g id="edge3_Node000001_Node000004" class="edge">
<title>Node1&#45;&gt;Node4</title>
<g id="a_edge3_Node000001_Node000004"><a xlink:title=" ">
<path fill="none" stroke="#63b8ff" d="M408.67,-117.72C377.91,-107.47 339.4,-94.63 310.54,-85.01"/>
<polygon fill="#63b8ff" stroke="#63b8ff" points="407.77,-121.11 418.36,-120.95 409.98,-114.47 407.77,-121.11"/>
</a>
</g>
</g>
<!-- Node5 -->
<g id="Node000005" class="node">
<title>Node5</title>
<g id="a_Node000005"><a xlink:href="RBFBasis_8cpp.html" target="_top" xlink:title="Instantiation of commonly used RBF bases.">
<polygon fill="white" stroke="#666666" points="451.5,-85 341.5,-85 341.5,-55 451.5,-55 451.5,-85"/>
<text text-anchor="start" x="349.5" y="-73" font-family="Helvetica,sans-Serif" font-size="10.00">src/approximations</text>
<text text-anchor="middle" x="396.5" y="-62" font-family="Helvetica,sans-Serif" font-size="10.00">/RBFBasis.cpp</text>
</a>
</g>
</g>
<!-- Node1&#45;&gt;Node5 -->
<g id="edge4_Node000001_Node000005" class="edge">
<title>Node1&#45;&gt;Node5</title>
<g id="a_edge4_Node000001_Node000005"><a xlink:title=" ">
<path fill="none" stroke="#63b8ff" d="M439.15,-113.65C429.77,-104.27 419.03,-93.53 410.66,-85.16"/>
<polygon fill="#63b8ff" stroke="#63b8ff" points="436.75,-116.2 446.3,-120.8 441.7,-111.25 436.75,-116.2"/>
</a>
</g>
</g>
<!-- Node6 -->
<g id="Node000006" class="node">
<title>Node6</title>
<g id="a_Node000006"><a xlink:href="RBFFD_8cpp.html" target="_top" xlink:title="Instantiations of common RBFFD approximations.">
<polygon fill="white" stroke="#666666" points="579.5,-85 469.5,-85 469.5,-55 579.5,-55 579.5,-85"/>
<text text-anchor="start" x="477.5" y="-73" font-family="Helvetica,sans-Serif" font-size="10.00">src/approximations</text>
<text text-anchor="middle" x="524.5" y="-62" font-family="Helvetica,sans-Serif" font-size="10.00">/RBFFD.cpp</text>
</a>
</g>
</g>
<!-- Node1&#45;&gt;Node6 -->
<g id="edge5_Node000001_Node000006" class="edge">
<title>Node1&#45;&gt;Node6</title>
<g id="a_edge5_Node000001_Node000006"><a xlink:title=" ">
<path fill="none" stroke="#63b8ff" d="M481.85,-113.65C491.23,-104.27 501.97,-93.53 510.34,-85.16"/>
<polygon fill="#63b8ff" stroke="#63b8ff" points="479.3,-111.25 474.7,-120.8 484.25,-116.2 479.3,-111.25"/>
</a>
</g>
</g>
<!-- Node7 -->
<g id="Node000007" class="node">
<title>Node7</title>
<g id="a_Node000007"><a xlink:href="WLS_8cpp.html" target="_top" xlink:title="Instantiations of commonly used WLS approximations.">
<polygon fill="white" stroke="#666666" points="707.5,-85 597.5,-85 597.5,-55 707.5,-55 707.5,-85"/>
<text text-anchor="start" x="605.5" y="-73" font-family="Helvetica,sans-Serif" font-size="10.00">src/approximations</text>
<text text-anchor="middle" x="652.5" y="-62" font-family="Helvetica,sans-Serif" font-size="10.00">/WLS.cpp</text>
</a>
</g>
</g>
<!-- Node1&#45;&gt;Node7 -->
<g id="edge6_Node000001_Node000007" class="edge">
<title>Node1&#45;&gt;Node7</title>
<g id="a_edge6_Node000001_Node000007"><a xlink:title=" ">
<path fill="none" stroke="#63b8ff" d="M512.33,-117.72C543.09,-107.47 581.6,-94.63 610.46,-85.01"/>
<polygon fill="#63b8ff" stroke="#63b8ff" points="511.02,-114.47 502.64,-120.95 513.23,-121.11 511.02,-114.47"/>
</a>
</g>
</g>
<!-- Node8 -->
<g id="Node000008" class="node">
<title>Node8</title>
<g id="a_Node000008"><a xlink:href="WeightFunction_8cpp.html" target="_top" xlink:title="Explicit instantiations for common parameters.">
<polygon fill="white" stroke="#666666" points="841,-85 726,-85 726,-55 841,-55 841,-85"/>
<text text-anchor="start" x="734" y="-73" font-family="Helvetica,sans-Serif" font-size="10.00">src/approximations</text>
<text text-anchor="middle" x="783.5" y="-62" font-family="Helvetica,sans-Serif" font-size="10.00">/WeightFunction.cpp</text>
</a>
</g>
</g>
<!-- Node1&#45;&gt;Node8 -->
<g id="edge7_Node000001_Node000008" class="edge">
<title>Node1&#45;&gt;Node8</title>
<g id="a_edge7_Node000001_Node000008"><a xlink:title=" ">
<path fill="none" stroke="#63b8ff" d="M543.47,-119.08C593.61,-109.39 658.76,-96.67 716.5,-85 719.53,-84.39 722.63,-83.76 725.77,-83.11"/>
<polygon fill="#63b8ff" stroke="#63b8ff" points="542.81,-115.64 533.66,-120.98 544.14,-122.52 542.81,-115.64"/>
</a>
</g>
</g>
<!-- Node3 -->
<g id="Node000003" class="node">
<title>Node3</title>
<g id="a_Node000003"><a xlink:href="Medusa_8hpp.html" target="_top" xlink:title="Main header file that includes most other components.">
<polygon fill="white" stroke="#666666" points="175.5,-19 19.5,-19 19.5,0 175.5,0 175.5,-19"/>
<text text-anchor="middle" x="97.5" y="-7" font-family="Helvetica,sans-Serif" font-size="10.00">include/medusa/Medusa.hpp</text>
</a>
</g>
</g>
<!-- Node2&#45;&gt;Node3 -->
<g id="edge2_Node000002_Node000003" class="edge">
<title>Node2&#45;&gt;Node3</title>
<g id="a_edge2_Node000002_Node000003"><a xlink:title=" ">
<path fill="none" stroke="#63b8ff" d="M97.5,-50.16C97.5,-39.74 97.5,-27.3 97.5,-19.17"/>
<polygon fill="#63b8ff" stroke="#63b8ff" points="94,-50.37 97.5,-60.37 101,-50.37 94,-50.37"/>
</a>
</g>
</g>
</g>
</svg>
