<?xml version="1.0" encoding="UTF-8" standalone="no"?>
<!DOCTYPE svg PUBLIC "-//W3C//DTD SVG 1.1//EN"
 "http://www.w3.org/Graphics/SVG/1.1/DTD/svg11.dtd">
<!-- Generated by graphviz version 2.43.0 (0)
 -->
<!-- Title: include/medusa/bits/approximations/Gaussian.hpp Pages: 1 -->
<svg width="894pt" height="368pt"
 viewBox="0.00 0.00 893.59 368.00" xmlns="http://www.w3.org/2000/svg" xmlns:xlink="http://www.w3.org/1999/xlink">
<g id="graph0" class="graph" transform="scale(1 1) rotate(0) translate(4 364)">
<title>include/medusa/bits/approximations/Gaussian.hpp</title>
<!-- Node1 -->
<g id="Node000001" class="node">
<title>Node1</title>
<g id="a_Node000001"><a xlink:title="Implementation of Gaussian RBF.">
<polygon fill="#999999" stroke="#666666" points="595.59,-360 430.59,-360 430.59,-330 595.59,-330 595.59,-360"/>
<text text-anchor="start" x="438.59" y="-348" font-family="Helvetica,sans-Serif" font-size="10.00">include/medusa/bits</text>
<text text-anchor="middle" x="513.09" y="-337" font-family="Helvetica,sans-Serif" font-size="10.00">/approximations/Gaussian.hpp</text>
</a>
</g>
</g>
<!-- Node2 -->
<g id="Node000002" class="node">
<title>Node2</title>
<g id="a_Node000002"><a xlink:href="Gaussian__fwd_8hpp.html" target="_top" xlink:title="Declaration of Gaussian RBF.">
<polygon fill="white" stroke="#666666" points="356.59,-294 251.59,-294 251.59,-275 356.59,-275 356.59,-294"/>
<text text-anchor="middle" x="304.09" y="-282" font-family="Helvetica,sans-Serif" font-size="10.00">Gaussian_fwd.hpp</text>
</a>
</g>
</g>
<!-- Node1&#45;&gt;Node2 -->
<g id="edge1_Node000001_Node000002" class="edge">
<title>Node1&#45;&gt;Node2</title>
<g id="a_edge1_Node000001_Node000002"><a xlink:title=" ">
<path fill="none" stroke="#63b8ff" d="M463.03,-329.99C426.81,-319.85 378.47,-306.32 344.65,-296.85"/>
<polygon fill="#63b8ff" stroke="#63b8ff" points="345.23,-293.38 334.65,-294.05 343.34,-300.12 345.23,-293.38"/>
</a>
</g>
</g>
<!-- Node6 -->
<g id="Node000006" class="node">
<title>Node6</title>
<g id="a_Node000006"><a xlink:title=" ">
<polygon fill="#e0e0e0" stroke="#999999" points="516.59,-129 469.59,-129 469.59,-110 516.59,-110 516.59,-129"/>
<text text-anchor="middle" x="493.09" y="-117" font-family="Helvetica,sans-Serif" font-size="10.00">cmath</text>
</a>
</g>
</g>
<!-- Node1&#45;&gt;Node6 -->
<g id="edge25_Node000001_Node000006" class="edge">
<title>Node1&#45;&gt;Node6</title>
<g id="a_edge25_Node000001_Node000006"><a xlink:title=" ">
<path fill="none" stroke="#63b8ff" d="M527.58,-329.7C535.93,-320.41 545.63,-307.54 550.09,-294 552.74,-285.98 551.03,-283.39 550.09,-275 544.5,-225.18 545.69,-210.71 525.09,-165 520.56,-154.93 513.56,-144.85 507.26,-136.83"/>
<polygon fill="#63b8ff" stroke="#63b8ff" points="509.91,-134.54 500.85,-129.04 504.5,-138.99 509.91,-134.54"/>
</a>
</g>
</g>
<!-- Node11 -->
<g id="Node000011" class="node">
<title>Node11</title>
<g id="a_Node000011"><a xlink:href="assert_8hpp.html" target="_top" xlink:title="Implementation of custom assert and debug utilities.">
<polygon fill="white" stroke="#666666" points="885.59,-129 730.59,-129 730.59,-110 885.59,-110 885.59,-129"/>
<text text-anchor="middle" x="808.09" y="-117" font-family="Helvetica,sans-Serif" font-size="10.00">medusa/bits/utils/assert.hpp</text>
</a>
</g>
</g>
<!-- Node1&#45;&gt;Node11 -->
<g id="edge26_Node000001_Node000011" class="edge">
<title>Node1&#45;&gt;Node11</title>
<g id="a_edge26_Node000001_Node000011"><a xlink:title=" ">
<path fill="none" stroke="#63b8ff" d="M586.4,-329.98C647.5,-315.41 734.23,-287.71 796.09,-239 819.24,-220.78 824.5,-212.18 833.09,-184 837.99,-167.95 829.82,-150.22 821.54,-137.59"/>
<polygon fill="#63b8ff" stroke="#63b8ff" points="824.34,-135.49 815.67,-129.38 818.64,-139.56 824.34,-135.49"/>
</a>
</g>
</g>
<!-- Node17 -->
<g id="Node000017" class="node">
<title>Node17</title>
<g id="a_Node000017"><a xlink:href="numutils_8hpp.html" target="_top" xlink:title="Declaration of numerical utilities.">
<polygon fill="white" stroke="#666666" points="541.59,-294 374.59,-294 374.59,-275 541.59,-275 541.59,-294"/>
<text text-anchor="middle" x="458.09" y="-282" font-family="Helvetica,sans-Serif" font-size="10.00">medusa/bits/utils/numutils.hpp</text>
</a>
</g>
</g>
<!-- Node1&#45;&gt;Node17 -->
<g id="edge27_Node000001_Node000017" class="edge">
<title>Node1&#45;&gt;Node17</title>
<g id="a_edge27_Node000001_Node000017"><a xlink:title=" ">
<path fill="none" stroke="#63b8ff" d="M499.78,-329.84C491.8,-321.35 481.61,-310.52 473.31,-301.69"/>
<polygon fill="#63b8ff" stroke="#63b8ff" points="475.73,-299.15 466.33,-294.27 470.63,-303.95 475.73,-299.15"/>
</a>
</g>
</g>
<!-- Node3 -->
<g id="Node000003" class="node">
<title>Node3</title>
<g id="a_Node000003"><a xlink:href="Config_8hpp.html" target="_top" xlink:title="Contains compile time settings for the project, such as Eigen plugins.">
<polygon fill="white" stroke="#666666" points="341.09,-129 231.09,-129 231.09,-110 341.09,-110 341.09,-129"/>
<text text-anchor="middle" x="286.09" y="-117" font-family="Helvetica,sans-Serif" font-size="10.00">medusa/Config.hpp</text>
</a>
</g>
</g>
<!-- Node2&#45;&gt;Node3 -->
<g id="edge2_Node000002_Node000003" class="edge">
<title>Node2&#45;&gt;Node3</title>
<g id="a_edge2_Node000002_Node000003"><a xlink:title=" ">
<path fill="none" stroke="#63b8ff" d="M251.54,-280.44C222.48,-275.74 188.6,-264.64 170.09,-239 150.85,-212.33 151.46,-192.1 170.09,-165 181.96,-147.74 201.51,-137.17 221.22,-130.7"/>
<polygon fill="#63b8ff" stroke="#63b8ff" points="222.27,-134.04 230.87,-127.84 220.29,-127.33 222.27,-134.04"/>
</a>
</g>
</g>
<!-- Node5 -->
<g id="Node000005" class="node">
<title>Node5</title>
<g id="a_Node000005"><a xlink:title=" ">
<polygon fill="#e0e0e0" stroke="#999999" points="451.09,-129 403.09,-129 403.09,-110 451.09,-110 451.09,-129"/>
<text text-anchor="middle" x="427.09" y="-117" font-family="Helvetica,sans-Serif" font-size="10.00">iosfwd</text>
</a>
</g>
</g>
<!-- Node2&#45;&gt;Node5 -->
<g id="edge4_Node000002_Node000005" class="edge">
<title>Node2&#45;&gt;Node5</title>
<g id="a_edge4_Node000002_Node000005"><a xlink:title=" ">
<path fill="none" stroke="#63b8ff" d="M325.22,-274.97C356.22,-261.15 412.86,-230.62 436.09,-184 443.15,-169.85 439.6,-151.85 435.05,-138.63"/>
<polygon fill="#63b8ff" stroke="#63b8ff" points="438.27,-137.26 431.37,-129.22 431.75,-139.81 438.27,-137.26"/>
</a>
</g>
</g>
<!-- Node2&#45;&gt;Node6 -->
<g id="edge5_Node000002_Node000006" class="edge">
<title>Node2&#45;&gt;Node6</title>
<g id="a_edge5_Node000002_Node000006"><a xlink:title=" ">
<path fill="none" stroke="#63b8ff" d="M337.76,-274.88C360.43,-267.88 390.1,-256.3 412.09,-239 447.21,-211.38 472.87,-164.32 485.09,-138.6"/>
<polygon fill="#63b8ff" stroke="#63b8ff" points="488.38,-139.84 489.37,-129.29 482.02,-136.92 488.38,-139.84"/>
</a>
</g>
</g>
<!-- Node7 -->
<g id="Node000007" class="node">
<title>Node7</title>
<g id="a_Node000007"><a xlink:href="Operators__fwd_8hpp.html" target="_top" xlink:title="File defining basic differential operator families.">
<polygon fill="white" stroke="#666666" points="123.09,-239 15.09,-239 15.09,-220 123.09,-220 123.09,-239"/>
<text text-anchor="middle" x="69.09" y="-227" font-family="Helvetica,sans-Serif" font-size="10.00">Operators_fwd.hpp</text>
</a>
</g>
</g>
<!-- Node2&#45;&gt;Node7 -->
<g id="edge6_Node000002_Node000007" class="edge">
<title>Node2&#45;&gt;Node7</title>
<g id="a_edge6_Node000002_Node000007"><a xlink:title=" ">
<path fill="none" stroke="#63b8ff" d="M266.34,-274.98C225.77,-265.84 161.2,-251.27 117.07,-241.32"/>
<polygon fill="#63b8ff" stroke="#63b8ff" points="117.67,-237.87 107.15,-239.08 116.13,-244.7 117.67,-237.87"/>
</a>
</g>
</g>
<!-- Node4 -->
<g id="Node000004" class="node">
<title>Node4</title>
<g id="a_Node000004"><a xlink:title=" ">
<polygon fill="#e0e0e0" stroke="#999999" points="512.59,-19 465.59,-19 465.59,0 512.59,0 512.59,-19"/>
<text text-anchor="middle" x="489.09" y="-7" font-family="Helvetica,sans-Serif" font-size="10.00">vector</text>
</a>
</g>
</g>
<!-- Node3&#45;&gt;Node4 -->
<g id="edge3_Node000003_Node000004" class="edge">
<title>Node3&#45;&gt;Node4</title>
<g id="a_edge3_Node000003_Node000004"><a xlink:title=" ">
<path fill="none" stroke="#63b8ff" d="M302.36,-109.84C337.71,-91.04 421.74,-46.33 463.96,-23.87"/>
<polygon fill="#63b8ff" stroke="#63b8ff" points="465.84,-26.83 473.03,-19.05 462.56,-20.65 465.84,-26.83"/>
</a>
</g>
</g>
<!-- Node7&#45;&gt;Node3 -->
<g id="edge7_Node000007_Node000003" class="edge">
<title>Node7&#45;&gt;Node3</title>
<g id="a_edge7_Node000007_Node000003"><a xlink:title=" ">
<path fill="none" stroke="#63b8ff" d="M76.09,-219.77C87.46,-206.12 111.31,-179.79 137.09,-165 164.96,-149.02 199.1,-138.28 227.67,-131.37"/>
<polygon fill="#63b8ff" stroke="#63b8ff" points="228.58,-134.75 237.53,-129.08 226.99,-127.93 228.58,-134.75"/>
</a>
</g>
</g>
<!-- Node7&#45;&gt;Node4 -->
<g id="edge9_Node000007_Node000004" class="edge">
<title>Node7&#45;&gt;Node4</title>
<g id="a_edge9_Node000007_Node000004"><a xlink:title=" ">
<path fill="none" stroke="#63b8ff" d="M69.38,-219.78C70.12,-207.06 72.75,-182.97 82.09,-165 97.62,-135.16 105.3,-127.39 134.09,-110 240.23,-45.9 389.01,-21.83 455.12,-13.92"/>
<polygon fill="#63b8ff" stroke="#63b8ff" points="455.84,-17.36 465.38,-12.74 455.04,-10.41 455.84,-17.36"/>
</a>
</g>
</g>
<!-- Node8 -->
<g id="Node000008" class="node">
<title>Node8</title>
<g id="a_Node000008"><a xlink:title=" ">
<polygon fill="#e0e0e0" stroke="#999999" points="391.09,-19 349.09,-19 349.09,0 391.09,0 391.09,-19"/>
<text text-anchor="middle" x="370.09" y="-7" font-family="Helvetica,sans-Serif" font-size="10.00">array</text>
</a>
</g>
</g>
<!-- Node7&#45;&gt;Node8 -->
<g id="edge8_Node000007_Node000008" class="edge">
<title>Node7&#45;&gt;Node8</title>
<g id="a_edge8_Node000007_Node000008"><a xlink:title=" ">
<path fill="none" stroke="#63b8ff" d="M55.31,-219.82C44.27,-211.99 29.6,-199.35 23.09,-184 0.71,-131.21 -14.78,-98.04 23.09,-55 43.83,-31.44 257.34,-16.91 338.77,-12.19"/>
<polygon fill="#63b8ff" stroke="#63b8ff" points="339.13,-15.68 348.91,-11.62 338.73,-8.69 339.13,-15.68"/>
</a>
</g>
</g>
<!-- Node9 -->
<g id="Node000009" class="node">
<title>Node9</title>
<g id="a_Node000009"><a xlink:title=" ">
<polygon fill="#e0e0e0" stroke="#999999" points="212.59,-129 143.59,-129 143.59,-110 212.59,-110 212.59,-129"/>
<text text-anchor="middle" x="178.09" y="-117" font-family="Helvetica,sans-Serif" font-size="10.00">Eigen/Core</text>
</a>
</g>
</g>
<!-- Node7&#45;&gt;Node9 -->
<g id="edge10_Node000007_Node000009" class="edge">
<title>Node7&#45;&gt;Node9</title>
<g id="a_edge10_Node000007_Node000009"><a xlink:title=" ">
<path fill="none" stroke="#63b8ff" d="M71.37,-219.72C75.19,-206.49 83.97,-181.24 99.09,-165 111.88,-151.26 129.9,-140.66 145.5,-133.27"/>
<polygon fill="#63b8ff" stroke="#63b8ff" points="147.14,-136.36 154.83,-129.07 144.27,-129.98 147.14,-136.36"/>
</a>
</g>
</g>
<!-- Node10 -->
<g id="Node000010" class="node">
<title>Node10</title>
<g id="a_Node000010"><a xlink:href="Monomials__fwd_8hpp.html" target="_top" xlink:title="Declaration of Monomial basis.">
<polygon fill="white" stroke="#666666" points="427.09,-184 313.09,-184 313.09,-165 427.09,-165 427.09,-184"/>
<text text-anchor="middle" x="370.09" y="-172" font-family="Helvetica,sans-Serif" font-size="10.00">Monomials_fwd.hpp</text>
</a>
</g>
</g>
<!-- Node7&#45;&gt;Node10 -->
<g id="edge11_Node000007_Node000010" class="edge">
<title>Node7&#45;&gt;Node10</title>
<g id="a_edge11_Node000007_Node000010"><a xlink:title=" ">
<path fill="none" stroke="#63b8ff" d="M117.45,-219.98C170.29,-210.68 254.91,-195.78 311.48,-185.82"/>
<polygon fill="#63b8ff" stroke="#63b8ff" points="312.11,-189.26 321.35,-184.08 310.9,-182.37 312.11,-189.26"/>
</a>
</g>
</g>
<!-- Node7&#45;&gt;Node11 -->
<g id="edge17_Node000007_Node000011" class="edge">
<title>Node7&#45;&gt;Node11</title>
<g id="a_edge17_Node000007_Node000011"><a xlink:title=" ">
<path fill="none" stroke="#63b8ff" d="M123.33,-223.78C138.46,-222.5 154.92,-221.16 170.09,-220 287.36,-211.07 585.6,-218.28 698.09,-184 707.37,-181.17 755.86,-152.23 785.28,-134.41"/>
<polygon fill="#63b8ff" stroke="#63b8ff" points="787.35,-137.25 794.08,-129.06 783.72,-131.26 787.35,-137.25"/>
</a>
</g>
</g>
<!-- Node10&#45;&gt;Node3 -->
<g id="edge12_Node000010_Node000003" class="edge">
<title>Node10&#45;&gt;Node3</title>
<g id="a_edge12_Node000010_Node000003"><a xlink:title=" ">
<path fill="none" stroke="#63b8ff" d="M356.6,-164.98C343.69,-156.84 323.99,-144.41 308.69,-134.76"/>
<polygon fill="#63b8ff" stroke="#63b8ff" points="310.16,-131.55 299.83,-129.17 306.42,-137.47 310.16,-131.55"/>
</a>
</g>
</g>
<!-- Node10&#45;&gt;Node5 -->
<g id="edge16_Node000010_Node000005" class="edge">
<title>Node10&#45;&gt;Node5</title>
<g id="a_edge16_Node000010_Node000005"><a xlink:title=" ">
<path fill="none" stroke="#63b8ff" d="M379.25,-164.98C387.59,-157.23 400.13,-145.58 410.27,-136.14"/>
<polygon fill="#63b8ff" stroke="#63b8ff" points="412.83,-138.54 417.77,-129.17 408.06,-133.42 412.83,-138.54"/>
</a>
</g>
</g>
<!-- Node10&#45;&gt;Node6 -->
<g id="edge13_Node000010_Node000006" class="edge">
<title>Node10&#45;&gt;Node6</title>
<g id="a_edge13_Node000010_Node000006"><a xlink:title=" ">
<path fill="none" stroke="#63b8ff" d="M389.85,-164.98C409.82,-156.38 440.9,-142.99 463.74,-133.15"/>
<polygon fill="#63b8ff" stroke="#63b8ff" points="465.17,-136.34 472.97,-129.17 462.4,-129.91 465.17,-136.34"/>
</a>
</g>
</g>
<!-- Node10&#45;&gt;Node8 -->
<g id="edge14_Node000010_Node000008" class="edge">
<title>Node10&#45;&gt;Node8</title>
<g id="a_edge14_Node000010_Node000008"><a xlink:title=" ">
<path fill="none" stroke="#63b8ff" d="M370.09,-164.74C370.09,-139.31 370.09,-65.08 370.09,-29.69"/>
<polygon fill="#63b8ff" stroke="#63b8ff" points="373.59,-29.31 370.09,-19.31 366.59,-29.31 373.59,-29.31"/>
</a>
</g>
</g>
<!-- Node10&#45;&gt;Node9 -->
<g id="edge15_Node000010_Node000009" class="edge">
<title>Node10&#45;&gt;Node9</title>
<g id="a_edge15_Node000010_Node000009"><a xlink:title=" ">
<path fill="none" stroke="#63b8ff" d="M339.24,-164.98C306.59,-155.97 254.9,-141.7 218.89,-131.76"/>
<polygon fill="#63b8ff" stroke="#63b8ff" points="219.75,-128.37 209.18,-129.08 217.89,-135.12 219.75,-128.37"/>
</a>
</g>
</g>
<!-- Node12 -->
<g id="Node000012" class="node">
<title>Node12</title>
<g id="a_Node000012"><a xlink:title=" ">
<polygon fill="#e0e0e0" stroke="#999999" points="732.09,-74 600.09,-74 600.09,-55 732.09,-55 732.09,-74"/>
<text text-anchor="middle" x="666.09" y="-62" font-family="Helvetica,sans-Serif" font-size="10.00">tinyformat/tinyformat.h</text>
</a>
</g>
</g>
<!-- Node11&#45;&gt;Node12 -->
<g id="edge18_Node000011_Node000012" class="edge">
<title>Node11&#45;&gt;Node12</title>
<g id="a_edge18_Node000011_Node000012"><a xlink:title=" ">
<path fill="none" stroke="#63b8ff" d="M785.28,-109.98C761.92,-101.27 725.39,-87.63 698.92,-77.75"/>
<polygon fill="#63b8ff" stroke="#63b8ff" points="699.92,-74.39 689.32,-74.17 697.47,-80.95 699.92,-74.39"/>
</a>
</g>
</g>
<!-- Node13 -->
<g id="Node000013" class="node">
<title>Node13</title>
<g id="a_Node000013"><a xlink:href="print_8hpp.html" target="_top" xlink:title="Printing helpers for std types.">
<polygon fill="white" stroke="#666666" points="810.09,-74 750.09,-74 750.09,-55 810.09,-55 810.09,-74"/>
<text text-anchor="middle" x="780.09" y="-62" font-family="Helvetica,sans-Serif" font-size="10.00">print.hpp</text>
</a>
</g>
</g>
<!-- Node11&#45;&gt;Node13 -->
<g id="edge19_Node000011_Node000013" class="edge">
<title>Node11&#45;&gt;Node13</title>
<g id="a_edge19_Node000011_Node000013"><a xlink:title=" ">
<path fill="none" stroke="#63b8ff" d="M803.47,-109.75C799.64,-102.49 794.07,-91.95 789.33,-82.98"/>
<polygon fill="#63b8ff" stroke="#63b8ff" points="792.4,-81.3 784.63,-74.09 786.21,-84.57 792.4,-81.3"/>
</a>
</g>
</g>
<!-- Node13&#45;&gt;Node4 -->
<g id="edge21_Node000013_Node000004" class="edge">
<title>Node13&#45;&gt;Node4</title>
<g id="a_edge21_Node000013_Node000004"><a xlink:title=" ">
<path fill="none" stroke="#63b8ff" d="M749.88,-56.79C746.92,-56.17 743.95,-55.56 741.09,-55 663.13,-39.63 571.08,-24.01 522.7,-16"/>
<polygon fill="#63b8ff" stroke="#63b8ff" points="523.21,-12.53 512.78,-14.36 522.07,-19.44 523.21,-12.53"/>
</a>
</g>
</g>
<!-- Node13&#45;&gt;Node8 -->
<g id="edge22_Node000013_Node000008" class="edge">
<title>Node13&#45;&gt;Node8</title>
<g id="a_edge22_Node000013_Node000008"><a xlink:title=" ">
<path fill="none" stroke="#63b8ff" d="M749.91,-56.63C746.94,-56.04 743.96,-55.48 741.09,-55 675.72,-43.98 478.25,-22.19 401.28,-13.85"/>
<polygon fill="#63b8ff" stroke="#63b8ff" points="401.57,-10.36 391.25,-12.77 400.81,-17.32 401.57,-10.36"/>
</a>
</g>
</g>
<!-- Node14 -->
<g id="Node000014" class="node">
<title>Node14</title>
<g id="a_Node000014"><a xlink:title=" ">
<polygon fill="#e0e0e0" stroke="#999999" points="810.09,-19 750.09,-19 750.09,0 810.09,0 810.09,-19"/>
<text text-anchor="middle" x="780.09" y="-7" font-family="Helvetica,sans-Serif" font-size="10.00">iostream</text>
</a>
</g>
</g>
<!-- Node13&#45;&gt;Node14 -->
<g id="edge20_Node000013_Node000014" class="edge">
<title>Node13&#45;&gt;Node14</title>
<g id="a_edge20_Node000013_Node000014"><a xlink:title=" ">
<path fill="none" stroke="#63b8ff" d="M780.09,-54.75C780.09,-47.8 780.09,-37.85 780.09,-29.13"/>
<polygon fill="#63b8ff" stroke="#63b8ff" points="783.59,-29.09 780.09,-19.09 776.59,-29.09 783.59,-29.09"/>
</a>
</g>
</g>
<!-- Node15 -->
<g id="Node000015" class="node">
<title>Node15</title>
<g id="a_Node000015"><a xlink:title=" ">
<polygon fill="#e0e0e0" stroke="#999999" points="873.59,-19 828.59,-19 828.59,0 873.59,0 873.59,-19"/>
<text text-anchor="middle" x="851.09" y="-7" font-family="Helvetica,sans-Serif" font-size="10.00">utility</text>
</a>
</g>
</g>
<!-- Node13&#45;&gt;Node15 -->
<g id="edge23_Node000013_Node000015" class="edge">
<title>Node13&#45;&gt;Node15</title>
<g id="a_edge23_Node000013_Node000015"><a xlink:title=" ">
<path fill="none" stroke="#63b8ff" d="M791.5,-54.98C802.2,-47 818.43,-34.88 831.26,-25.31"/>
<polygon fill="#63b8ff" stroke="#63b8ff" points="833.56,-27.96 839.48,-19.17 829.37,-22.35 833.56,-27.96"/>
</a>
</g>
</g>
<!-- Node16 -->
<g id="Node000016" class="node">
<title>Node16</title>
<g id="a_Node000016"><a xlink:title=" ">
<polygon fill="#e0e0e0" stroke="#999999" points="731.59,-19 690.59,-19 690.59,0 731.59,0 731.59,-19"/>
<text text-anchor="middle" x="711.09" y="-7" font-family="Helvetica,sans-Serif" font-size="10.00">tuple</text>
</a>
</g>
</g>
<!-- Node13&#45;&gt;Node16 -->
<g id="edge24_Node000013_Node000016" class="edge">
<title>Node13&#45;&gt;Node16</title>
<g id="a_edge24_Node000013_Node000016"><a xlink:title=" ">
<path fill="none" stroke="#63b8ff" d="M769.01,-54.98C758.61,-47 742.83,-34.88 730.37,-25.31"/>
<polygon fill="#63b8ff" stroke="#63b8ff" points="732.44,-22.49 722.38,-19.17 728.18,-28.04 732.44,-22.49"/>
</a>
</g>
</g>
<!-- Node17&#45;&gt;Node3 -->
<g id="edge28_Node000017_Node000003" class="edge">
<title>Node17&#45;&gt;Node3</title>
<g id="a_edge28_Node000017_Node000003"><a xlink:title=" ">
<path fill="none" stroke="#63b8ff" d="M435.28,-274.93C401.49,-261.05 338.44,-230.45 304.09,-184 294.41,-170.9 289.93,-152.76 287.86,-139.22"/>
<polygon fill="#63b8ff" stroke="#63b8ff" points="291.31,-138.65 286.63,-129.15 284.37,-139.5 291.31,-138.65"/>
</a>
</g>
</g>
<!-- Node17&#45;&gt;Node6 -->
<g id="edge43_Node000017_Node000006" class="edge">
<title>Node17&#45;&gt;Node6</title>
<g id="a_edge43_Node000017_Node000006"><a xlink:title=" ">
<path fill="none" stroke="#63b8ff" d="M473.22,-274.73C484.91,-266.99 500.21,-254.55 507.09,-239 521.78,-205.83 509.82,-162.6 500.8,-138.59"/>
<polygon fill="#63b8ff" stroke="#63b8ff" points="504.05,-137.27 497.09,-129.29 497.55,-139.87 504.05,-137.27"/>
</a>
</g>
</g>
<!-- Node17&#45;&gt;Node11 -->
<g id="edge29_Node000017_Node000011" class="edge">
<title>Node17&#45;&gt;Node11</title>
<g id="a_edge29_Node000017_Node000011"><a xlink:title=" ">
<path fill="none" stroke="#63b8ff" d="M541.81,-277.87C619.92,-271.48 729.97,-259.23 768.09,-239 797.28,-223.52 806.18,-214.81 818.09,-184 823.75,-169.36 820.18,-151.64 815.8,-138.65"/>
<polygon fill="#63b8ff" stroke="#63b8ff" points="818.96,-137.11 812.13,-129.01 812.42,-139.6 818.96,-137.11"/>
</a>
</g>
</g>
<!-- Node18 -->
<g id="Node000018" class="node">
<title>Node18</title>
<g id="a_Node000018"><a xlink:href="Vec_8hpp.html" target="_top" xlink:title="Implemetations for Vec.">
<polygon fill="white" stroke="#666666" points="327.09,-239 179.09,-239 179.09,-220 327.09,-220 327.09,-239"/>
<text text-anchor="middle" x="253.09" y="-227" font-family="Helvetica,sans-Serif" font-size="10.00">medusa/bits/types/Vec.hpp</text>
</a>
</g>
</g>
<!-- Node17&#45;&gt;Node18 -->
<g id="edge30_Node000017_Node000018" class="edge">
<title>Node17&#45;&gt;Node18</title>
<g id="a_edge30_Node000017_Node000018"><a xlink:title=" ">
<path fill="none" stroke="#63b8ff" d="M425.16,-274.98C390.14,-265.93 334.63,-251.58 296.16,-241.64"/>
<polygon fill="#63b8ff" stroke="#63b8ff" points="296.85,-238.2 286.29,-239.08 295.09,-244.97 296.85,-238.2"/>
</a>
</g>
</g>
<!-- Node20 -->
<g id="Node000020" class="node">
<title>Node20</title>
<g id="a_Node000020"><a xlink:href="Range_8hpp.html" target="_top" xlink:title="Implementation of Range.">
<polygon fill="white" stroke="#666666" points="758.59,-239 597.59,-239 597.59,-220 758.59,-220 758.59,-239"/>
<text text-anchor="middle" x="678.09" y="-227" font-family="Helvetica,sans-Serif" font-size="10.00">medusa/bits/types/Range.hpp</text>
</a>
</g>
</g>
<!-- Node17&#45;&gt;Node20 -->
<g id="edge34_Node000017_Node000020" class="edge">
<title>Node17&#45;&gt;Node20</title>
<g id="a_edge34_Node000017_Node000020"><a xlink:title=" ">
<path fill="none" stroke="#63b8ff" d="M493.44,-274.98C531.25,-265.87 591.36,-251.4 632.66,-241.45"/>
<polygon fill="#63b8ff" stroke="#63b8ff" points="633.57,-244.83 642.47,-239.08 631.93,-238.02 633.57,-244.83"/>
</a>
</g>
</g>
<!-- Node19 -->
<g id="Node000019" class="node">
<title>Node19</title>
<g id="a_Node000019"><a xlink:href="Vec__fwd_8hpp.html" target="_top" xlink:title="Declaration of Vec.">
<polygon fill="white" stroke="#666666" points="256.59,-184 179.59,-184 179.59,-165 256.59,-165 256.59,-184"/>
<text text-anchor="middle" x="218.09" y="-172" font-family="Helvetica,sans-Serif" font-size="10.00">Vec_fwd.hpp</text>
</a>
</g>
</g>
<!-- Node18&#45;&gt;Node19 -->
<g id="edge31_Node000018_Node000019" class="edge">
<title>Node18&#45;&gt;Node19</title>
<g id="a_edge31_Node000018_Node000019"><a xlink:title=" ">
<path fill="none" stroke="#63b8ff" d="M247.31,-219.75C242.47,-212.42 235.41,-201.73 229.45,-192.7"/>
<polygon fill="#63b8ff" stroke="#63b8ff" points="232.2,-190.5 223.76,-184.09 226.35,-194.36 232.2,-190.5"/>
</a>
</g>
</g>
<!-- Node19&#45;&gt;Node3 -->
<g id="edge32_Node000019_Node000003" class="edge">
<title>Node19&#45;&gt;Node3</title>
<g id="a_edge32_Node000019_Node000003"><a xlink:title=" ">
<path fill="none" stroke="#63b8ff" d="M229.02,-164.98C239.17,-157.07 254.51,-145.11 266.74,-135.58"/>
<polygon fill="#63b8ff" stroke="#63b8ff" points="269.23,-138.08 274.97,-129.17 264.93,-132.56 269.23,-138.08"/>
</a>
</g>
</g>
<!-- Node19&#45;&gt;Node9 -->
<g id="edge33_Node000019_Node000009" class="edge">
<title>Node19&#45;&gt;Node9</title>
<g id="a_edge33_Node000019_Node000009"><a xlink:title=" ">
<path fill="none" stroke="#63b8ff" d="M211.49,-164.75C205.84,-157.26 197.55,-146.28 190.64,-137.13"/>
<polygon fill="#63b8ff" stroke="#63b8ff" points="193.39,-134.96 184.58,-129.09 187.81,-139.18 193.39,-134.96"/>
</a>
</g>
</g>
<!-- Node21 -->
<g id="Node000021" class="node">
<title>Node21</title>
<g id="a_Node000021"><a xlink:href="Range__fwd_8hpp.html" target="_top" xlink:title="Declaration of Range.">
<polygon fill="white" stroke="#666666" points="688.59,-184 597.59,-184 597.59,-165 688.59,-165 688.59,-184"/>
<text text-anchor="middle" x="643.09" y="-172" font-family="Helvetica,sans-Serif" font-size="10.00">Range_fwd.hpp</text>
</a>
</g>
</g>
<!-- Node20&#45;&gt;Node21 -->
<g id="edge35_Node000020_Node000021" class="edge">
<title>Node20&#45;&gt;Node21</title>
<g id="a_edge35_Node000020_Node000021"><a xlink:title=" ">
<path fill="none" stroke="#63b8ff" d="M672.31,-219.75C667.47,-212.42 660.41,-201.73 654.45,-192.7"/>
<polygon fill="#63b8ff" stroke="#63b8ff" points="657.2,-190.5 648.76,-184.09 651.35,-194.36 657.2,-190.5"/>
</a>
</g>
</g>
<!-- Node24 -->
<g id="Node000024" class="node">
<title>Node24</title>
<g id="a_Node000024"><a xlink:title=" ">
<polygon fill="#e0e0e0" stroke="#999999" points="809.09,-184 745.09,-184 745.09,-165 809.09,-165 809.09,-184"/>
<text text-anchor="middle" x="777.09" y="-172" font-family="Helvetica,sans-Serif" font-size="10.00">algorithm</text>
</a>
</g>
</g>
<!-- Node20&#45;&gt;Node24 -->
<g id="edge42_Node000020_Node000024" class="edge">
<title>Node20&#45;&gt;Node24</title>
<g id="a_edge42_Node000020_Node000024"><a xlink:title=" ">
<path fill="none" stroke="#63b8ff" d="M694,-219.98C709.64,-211.61 733.75,-198.7 751.98,-188.95"/>
<polygon fill="#63b8ff" stroke="#63b8ff" points="753.73,-191.98 760.9,-184.17 750.43,-185.8 753.73,-191.98"/>
</a>
</g>
</g>
<!-- Node21&#45;&gt;Node3 -->
<g id="edge36_Node000021_Node000003" class="edge">
<title>Node21&#45;&gt;Node3</title>
<g id="a_edge36_Node000021_Node000003"><a xlink:title=" ">
<path fill="none" stroke="#63b8ff" d="M597.52,-166.73C535.17,-157.48 422.9,-140.81 351.56,-130.22"/>
<polygon fill="#63b8ff" stroke="#63b8ff" points="351.75,-126.71 341.34,-128.7 350.72,-133.63 351.75,-126.71"/>
</a>
</g>
</g>
<!-- Node21&#45;&gt;Node4 -->
<g id="edge40_Node000021_Node000004" class="edge">
<title>Node21&#45;&gt;Node4</title>
<g id="a_edge40_Node000021_Node000004"><a xlink:title=" ">
<path fill="none" stroke="#63b8ff" d="M621.79,-164.99C604.75,-157.41 580.98,-145.05 564.09,-129 532.74,-99.21 508.79,-53.71 497.06,-28.64"/>
<polygon fill="#63b8ff" stroke="#63b8ff" points="500.12,-26.91 492.8,-19.26 493.75,-29.81 500.12,-26.91"/>
</a>
</g>
</g>
<!-- Node21&#45;&gt;Node5 -->
<g id="edge41_Node000021_Node000005" class="edge">
<title>Node21&#45;&gt;Node5</title>
<g id="a_edge41_Node000021_Node000005"><a xlink:title=" ">
<path fill="none" stroke="#63b8ff" d="M607.29,-164.95C572.39,-156.57 517.57,-143.33 461.06,-129.22"/>
<polygon fill="#63b8ff" stroke="#63b8ff" points="461.78,-125.79 451.23,-126.76 460.08,-132.58 461.78,-125.79"/>
</a>
</g>
</g>
<!-- Node21&#45;&gt;Node11 -->
<g id="edge37_Node000021_Node000011" class="edge">
<title>Node21&#45;&gt;Node11</title>
<g id="a_edge37_Node000021_Node000011"><a xlink:title=" ">
<path fill="none" stroke="#63b8ff" d="M669.6,-164.98C697.3,-156.09 740.95,-142.07 771.83,-132.15"/>
<polygon fill="#63b8ff" stroke="#63b8ff" points="772.92,-135.47 781.37,-129.08 770.78,-128.81 772.92,-135.47"/>
</a>
</g>
</g>
<!-- Node22 -->
<g id="Node000022" class="node">
<title>Node22</title>
<g id="a_Node000022"><a xlink:href="traits_8hpp.html" target="_top" xlink:title="Type traits definition for vector and scalar fields.">
<polygon fill="white" stroke="#666666" points="712.59,-129 649.59,-129 649.59,-110 712.59,-110 712.59,-129"/>
<text text-anchor="middle" x="681.09" y="-117" font-family="Helvetica,sans-Serif" font-size="10.00">traits.hpp</text>
</a>
</g>
</g>
<!-- Node21&#45;&gt;Node22 -->
<g id="edge38_Node000021_Node000022" class="edge">
<title>Node21&#45;&gt;Node22</title>
<g id="a_edge38_Node000021_Node000022"><a xlink:title=" ">
<path fill="none" stroke="#63b8ff" d="M649.37,-164.75C654.68,-157.34 662.45,-146.5 668.97,-137.41"/>
<polygon fill="#63b8ff" stroke="#63b8ff" points="671.95,-139.26 674.93,-129.09 666.26,-135.18 671.95,-139.26"/>
</a>
</g>
</g>
<!-- Node23 -->
<g id="Node000023" class="node">
<title>Node23</title>
<g id="a_Node000023"><a xlink:title=" ">
<polygon fill="#e0e0e0" stroke="#999999" points="631.09,-129 573.09,-129 573.09,-110 631.09,-110 631.09,-129"/>
<text text-anchor="middle" x="602.09" y="-117" font-family="Helvetica,sans-Serif" font-size="10.00">memory</text>
</a>
</g>
</g>
<!-- Node21&#45;&gt;Node23 -->
<g id="edge39_Node000021_Node000023" class="edge">
<title>Node21&#45;&gt;Node23</title>
<g id="a_edge39_Node000021_Node000023"><a xlink:title=" ">
<path fill="none" stroke="#63b8ff" d="M636.32,-164.75C630.53,-157.26 622.03,-146.28 614.96,-137.13"/>
<polygon fill="#63b8ff" stroke="#63b8ff" points="617.62,-134.86 608.74,-129.09 612.09,-139.14 617.62,-134.86"/>
</a>
</g>
</g>
</g>
</svg>
