<?xml version="1.0" encoding="UTF-8" standalone="no"?>
<!DOCTYPE svg PUBLIC "-//W3C//DTD SVG 1.1//EN"
 "http://www.w3.org/Graphics/SVG/1.1/DTD/svg11.dtd">
<!-- Generated by graphviz version 2.43.0 (0)
 -->
<!-- Title: include/medusa/bits/approximations/Gaussian_fwd.hpp Pages: 1 -->
<svg width="680pt" height="269pt"
 viewBox="0.00 0.00 680.00 269.00" xmlns="http://www.w3.org/2000/svg" xmlns:xlink="http://www.w3.org/1999/xlink">
<g id="graph0" class="graph" transform="scale(1 1) rotate(0) translate(4 265)">
<title>include/medusa/bits/approximations/Gaussian_fwd.hpp</title>
<!-- Node1 -->
<g id="Node000001" class="node">
<title>Node1</title>
<g id="a_Node000001"><a xlink:title="Declaration of Gaussian RBF.">
<polygon fill="#999999" stroke="#666666" points="280,-261 136,-261 136,-220 280,-220 280,-261"/>
<text text-anchor="start" x="144" y="-249" font-family="Helvetica,sans-Serif" font-size="10.00">include/medusa/bits</text>
<text text-anchor="start" x="144" y="-238" font-family="Helvetica,sans-Serif" font-size="10.00">/approximations/Gaussian</text>
<text text-anchor="middle" x="208" y="-227" font-family="Helvetica,sans-Serif" font-size="10.00">_fwd.hpp</text>
</a>
</g>
</g>
<!-- Node2 -->
<g id="Node000002" class="node">
<title>Node2</title>
<g id="a_Node000002"><a xlink:href="Config_8hpp.html" target="_top" xlink:title="Contains compile time settings for the project, such as Eigen plugins.">
<polygon fill="white" stroke="#666666" points="672,-74 562,-74 562,-55 672,-55 672,-74"/>
<text text-anchor="middle" x="617" y="-62" font-family="Helvetica,sans-Serif" font-size="10.00">medusa/Config.hpp</text>
</a>
</g>
</g>
<!-- Node1&#45;&gt;Node2 -->
<g id="edge1_Node000001_Node000002" class="edge">
<title>Node1&#45;&gt;Node2</title>
<g id="a_edge1_Node000001_Node000002"><a xlink:title=" ">
<path fill="none" stroke="#63b8ff" d="M280.04,-232.47C359.14,-221.65 486.63,-194.72 575,-129 590.7,-117.32 602.29,-97.91 609.27,-83.62"/>
<polygon fill="#63b8ff" stroke="#63b8ff" points="612.56,-84.85 613.53,-74.3 606.19,-81.94 612.56,-84.85"/>
</a>
</g>
</g>
<!-- Node4 -->
<g id="Node000004" class="node">
<title>Node4</title>
<g id="a_Node000004"><a xlink:title=" ">
<polygon fill="#e0e0e0" stroke="#999999" points="48,-74 0,-74 0,-55 48,-55 48,-74"/>
<text text-anchor="middle" x="24" y="-62" font-family="Helvetica,sans-Serif" font-size="10.00">iosfwd</text>
</a>
</g>
</g>
<!-- Node1&#45;&gt;Node4 -->
<g id="edge3_Node000001_Node000004" class="edge">
<title>Node1&#45;&gt;Node4</title>
<g id="a_edge3_Node000001_Node000004"><a xlink:title=" ">
<path fill="none" stroke="#63b8ff" d="M187.25,-219.88C150.51,-185.14 74.72,-113.47 40.92,-81.5"/>
<polygon fill="#63b8ff" stroke="#63b8ff" points="42.95,-78.6 33.28,-74.27 38.14,-83.69 42.95,-78.6"/>
</a>
</g>
</g>
<!-- Node5 -->
<g id="Node000005" class="node">
<title>Node5</title>
<g id="a_Node000005"><a xlink:title=" ">
<polygon fill="#e0e0e0" stroke="#999999" points="113.5,-74 66.5,-74 66.5,-55 113.5,-55 113.5,-74"/>
<text text-anchor="middle" x="90" y="-62" font-family="Helvetica,sans-Serif" font-size="10.00">cmath</text>
</a>
</g>
</g>
<!-- Node1&#45;&gt;Node5 -->
<g id="edge4_Node000001_Node000005" class="edge">
<title>Node1&#45;&gt;Node5</title>
<g id="a_edge4_Node000001_Node000005"><a xlink:title=" ">
<path fill="none" stroke="#63b8ff" d="M193.02,-219.91C176.53,-198.1 149.51,-161.62 128,-129 117.97,-113.79 107.39,-95.94 99.95,-83.04"/>
<polygon fill="#63b8ff" stroke="#63b8ff" points="102.93,-81.22 94.93,-74.28 96.86,-84.69 102.93,-81.22"/>
</a>
</g>
</g>
<!-- Node6 -->
<g id="Node000006" class="node">
<title>Node6</title>
<g id="a_Node000006"><a xlink:href="Operators__fwd_8hpp.html" target="_top" xlink:title="File defining basic differential operator families.">
<polygon fill="white" stroke="#666666" points="366,-184 258,-184 258,-165 366,-165 366,-184"/>
<text text-anchor="middle" x="312" y="-172" font-family="Helvetica,sans-Serif" font-size="10.00">Operators_fwd.hpp</text>
</a>
</g>
</g>
<!-- Node1&#45;&gt;Node6 -->
<g id="edge5_Node000001_Node000006" class="edge">
<title>Node1&#45;&gt;Node6</title>
<g id="a_edge5_Node000001_Node000006"><a xlink:title=" ">
<path fill="none" stroke="#63b8ff" d="M239.77,-219.95C255.74,-210.12 274.74,-198.43 289.24,-189.51"/>
<polygon fill="#63b8ff" stroke="#63b8ff" points="291.36,-192.31 298.04,-184.09 287.69,-186.35 291.36,-192.31"/>
</a>
</g>
</g>
<!-- Node3 -->
<g id="Node000003" class="node">
<title>Node3</title>
<g id="a_Node000003"><a xlink:title=" ">
<polygon fill="#e0e0e0" stroke="#999999" points="591.5,-19 544.5,-19 544.5,0 591.5,0 591.5,-19"/>
<text text-anchor="middle" x="568" y="-7" font-family="Helvetica,sans-Serif" font-size="10.00">vector</text>
</a>
</g>
</g>
<!-- Node2&#45;&gt;Node3 -->
<g id="edge2_Node000002_Node000003" class="edge">
<title>Node2&#45;&gt;Node3</title>
<g id="a_edge2_Node000002_Node000003"><a xlink:title=" ">
<path fill="none" stroke="#63b8ff" d="M608.91,-54.75C601.84,-47.11 591.41,-35.82 582.85,-26.56"/>
<polygon fill="#63b8ff" stroke="#63b8ff" points="585.3,-24.06 575.94,-19.09 580.16,-28.81 585.3,-24.06"/>
</a>
</g>
</g>
<!-- Node6&#45;&gt;Node2 -->
<g id="edge6_Node000006_Node000002" class="edge">
<title>Node6&#45;&gt;Node2</title>
<g id="a_edge6_Node000006_Node000002"><a xlink:title=" ">
<path fill="none" stroke="#63b8ff" d="M366.25,-171.72C415.91,-168.19 490.24,-157.99 548,-129 570.62,-117.65 591.22,-96.66 603.9,-81.93"/>
<polygon fill="#63b8ff" stroke="#63b8ff" points="606.71,-84.03 610.41,-74.1 601.33,-79.55 606.71,-84.03"/>
</a>
</g>
</g>
<!-- Node6&#45;&gt;Node3 -->
<g id="edge8_Node000006_Node000003" class="edge">
<title>Node6&#45;&gt;Node3</title>
<g id="a_edge8_Node000006_Node000003"><a xlink:title=" ">
<path fill="none" stroke="#63b8ff" d="M366.22,-172.84C407.99,-169.73 465.17,-159.56 505,-129 522.29,-115.74 547.94,-58.6 560.51,-28.78"/>
<polygon fill="#63b8ff" stroke="#63b8ff" points="563.9,-29.74 564.51,-19.16 557.44,-27.05 563.9,-29.74"/>
</a>
</g>
</g>
<!-- Node7 -->
<g id="Node000007" class="node">
<title>Node7</title>
<g id="a_Node000007"><a xlink:title=" ">
<polygon fill="#e0e0e0" stroke="#999999" points="201,-19 159,-19 159,0 201,0 201,-19"/>
<text text-anchor="middle" x="180" y="-7" font-family="Helvetica,sans-Serif" font-size="10.00">array</text>
</a>
</g>
</g>
<!-- Node6&#45;&gt;Node7 -->
<g id="edge7_Node000006_Node000007" class="edge">
<title>Node6&#45;&gt;Node7</title>
<g id="a_edge7_Node000006_Node000007"><a xlink:title=" ">
<path fill="none" stroke="#63b8ff" d="M257.87,-172.92C224.18,-169.39 183.18,-158.66 161,-129 138.74,-99.23 156.73,-53.4 169.69,-28.35"/>
<polygon fill="#63b8ff" stroke="#63b8ff" points="172.92,-29.73 174.64,-19.28 166.78,-26.38 172.92,-29.73"/>
</a>
</g>
</g>
<!-- Node8 -->
<g id="Node000008" class="node">
<title>Node8</title>
<g id="a_Node000008"><a xlink:title=" ">
<polygon fill="#e0e0e0" stroke="#999999" points="277.5,-74 208.5,-74 208.5,-55 277.5,-55 277.5,-74"/>
<text text-anchor="middle" x="243" y="-62" font-family="Helvetica,sans-Serif" font-size="10.00">Eigen/Core</text>
</a>
</g>
</g>
<!-- Node6&#45;&gt;Node8 -->
<g id="edge9_Node000006_Node000008" class="edge">
<title>Node6&#45;&gt;Node8</title>
<g id="a_edge9_Node000006_Node000008"><a xlink:title=" ">
<path fill="none" stroke="#63b8ff" d="M310.91,-164.65C309,-151.77 304.13,-127.47 293,-110 285.66,-98.48 274.52,-88.15 264.61,-80.36"/>
<polygon fill="#63b8ff" stroke="#63b8ff" points="266.46,-77.37 256.35,-74.19 262.27,-82.98 266.46,-77.37"/>
</a>
</g>
</g>
<!-- Node9 -->
<g id="Node000009" class="node">
<title>Node9</title>
<g id="a_Node000009"><a xlink:href="Monomials__fwd_8hpp.html" target="_top" xlink:title="Declaration of Monomial basis.">
<polygon fill="white" stroke="#666666" points="284,-129 170,-129 170,-110 284,-110 284,-129"/>
<text text-anchor="middle" x="227" y="-117" font-family="Helvetica,sans-Serif" font-size="10.00">Monomials_fwd.hpp</text>
</a>
</g>
</g>
<!-- Node6&#45;&gt;Node9 -->
<g id="edge10_Node000006_Node000009" class="edge">
<title>Node6&#45;&gt;Node9</title>
<g id="a_edge10_Node000006_Node000009"><a xlink:title=" ">
<path fill="none" stroke="#63b8ff" d="M298.34,-164.98C285.16,-156.77 264.97,-144.18 249.43,-134.49"/>
<polygon fill="#63b8ff" stroke="#63b8ff" points="251.24,-131.49 240.91,-129.17 247.54,-137.43 251.24,-131.49"/>
</a>
</g>
</g>
<!-- Node10 -->
<g id="Node000010" class="node">
<title>Node10</title>
<g id="a_Node000010"><a xlink:href="assert_8hpp.html" target="_top" xlink:title="Implementation of custom assert and debug utilities.">
<polygon fill="white" stroke="#666666" points="495.5,-129 340.5,-129 340.5,-110 495.5,-110 495.5,-129"/>
<text text-anchor="middle" x="418" y="-117" font-family="Helvetica,sans-Serif" font-size="10.00">medusa/bits/utils/assert.hpp</text>
</a>
</g>
</g>
<!-- Node6&#45;&gt;Node10 -->
<g id="edge16_Node000006_Node000010" class="edge">
<title>Node6&#45;&gt;Node10</title>
<g id="a_edge16_Node000006_Node000010"><a xlink:title=" ">
<path fill="none" stroke="#63b8ff" d="M329.03,-164.98C345.93,-156.54 372.06,-143.47 391.64,-133.68"/>
<polygon fill="#63b8ff" stroke="#63b8ff" points="393.28,-136.77 400.66,-129.17 390.15,-130.51 393.28,-136.77"/>
</a>
</g>
</g>
<!-- Node9&#45;&gt;Node2 -->
<g id="edge11_Node000009_Node000002" class="edge">
<title>Node9&#45;&gt;Node2</title>
<g id="a_edge11_Node000009_Node000002"><a xlink:title=" ">
<path fill="none" stroke="#63b8ff" d="M284.13,-110.74C355.36,-101.06 476.84,-84.55 551.69,-74.38"/>
<polygon fill="#63b8ff" stroke="#63b8ff" points="552.49,-77.8 561.93,-72.98 551.55,-70.86 552.49,-77.8"/>
</a>
</g>
</g>
<!-- Node9&#45;&gt;Node4 -->
<g id="edge15_Node000009_Node000004" class="edge">
<title>Node9&#45;&gt;Node4</title>
<g id="a_edge15_Node000009_Node000004"><a xlink:title=" ">
<path fill="none" stroke="#63b8ff" d="M194.38,-109.98C157.09,-100.25 96.32,-84.38 58.33,-74.46"/>
<polygon fill="#63b8ff" stroke="#63b8ff" points="58.81,-70.97 48.25,-71.83 57.04,-77.74 58.81,-70.97"/>
</a>
</g>
</g>
<!-- Node9&#45;&gt;Node5 -->
<g id="edge12_Node000009_Node000005" class="edge">
<title>Node9&#45;&gt;Node5</title>
<g id="a_edge12_Node000009_Node000005"><a xlink:title=" ">
<path fill="none" stroke="#63b8ff" d="M204.99,-109.98C182.55,-101.3 147.52,-87.75 122.01,-77.88"/>
<polygon fill="#63b8ff" stroke="#63b8ff" points="123,-74.51 112.41,-74.17 120.48,-81.04 123,-74.51"/>
</a>
</g>
</g>
<!-- Node9&#45;&gt;Node7 -->
<g id="edge13_Node000009_Node000007" class="edge">
<title>Node9&#45;&gt;Node7</title>
<g id="a_edge13_Node000009_Node000007"><a xlink:title=" ">
<path fill="none" stroke="#63b8ff" d="M220.45,-109.7C214.23,-101.01 204.96,-87.13 199,-74 192.45,-59.57 187.45,-42.3 184.23,-29.41"/>
<polygon fill="#63b8ff" stroke="#63b8ff" points="187.57,-28.32 181.86,-19.4 180.75,-29.94 187.57,-28.32"/>
</a>
</g>
</g>
<!-- Node9&#45;&gt;Node8 -->
<g id="edge14_Node000009_Node000008" class="edge">
<title>Node9&#45;&gt;Node8</title>
<g id="a_edge14_Node000009_Node000008"><a xlink:title=" ">
<path fill="none" stroke="#63b8ff" d="M229.64,-109.75C231.76,-102.72 234.81,-92.62 237.46,-83.84"/>
<polygon fill="#63b8ff" stroke="#63b8ff" points="240.87,-84.67 240.41,-74.09 234.17,-82.65 240.87,-84.67"/>
</a>
</g>
</g>
<!-- Node11 -->
<g id="Node000011" class="node">
<title>Node11</title>
<g id="a_Node000011"><a xlink:title=" ">
<polygon fill="#e0e0e0" stroke="#999999" points="428,-74 296,-74 296,-55 428,-55 428,-74"/>
<text text-anchor="middle" x="362" y="-62" font-family="Helvetica,sans-Serif" font-size="10.00">tinyformat/tinyformat.h</text>
</a>
</g>
</g>
<!-- Node10&#45;&gt;Node11 -->
<g id="edge17_Node000010_Node000011" class="edge">
<title>Node10&#45;&gt;Node11</title>
<g id="a_edge17_Node000010_Node000011"><a xlink:title=" ">
<path fill="none" stroke="#63b8ff" d="M409,-109.98C400.81,-102.23 388.49,-90.58 378.53,-81.14"/>
<polygon fill="#63b8ff" stroke="#63b8ff" points="380.83,-78.5 371.16,-74.17 376.02,-83.59 380.83,-78.5"/>
</a>
</g>
</g>
<!-- Node12 -->
<g id="Node000012" class="node">
<title>Node12</title>
<g id="a_Node000012"><a xlink:href="print_8hpp.html" target="_top" xlink:title="Printing helpers for std types.">
<polygon fill="white" stroke="#666666" points="506,-74 446,-74 446,-55 506,-55 506,-74"/>
<text text-anchor="middle" x="476" y="-62" font-family="Helvetica,sans-Serif" font-size="10.00">print.hpp</text>
</a>
</g>
</g>
<!-- Node10&#45;&gt;Node12 -->
<g id="edge18_Node000010_Node000012" class="edge">
<title>Node10&#45;&gt;Node12</title>
<g id="a_edge18_Node000010_Node000012"><a xlink:title=" ">
<path fill="none" stroke="#63b8ff" d="M427.32,-109.98C435.81,-102.23 448.56,-90.58 458.88,-81.14"/>
<polygon fill="#63b8ff" stroke="#63b8ff" points="461.49,-83.5 466.51,-74.17 456.77,-78.33 461.49,-83.5"/>
</a>
</g>
</g>
<!-- Node12&#45;&gt;Node3 -->
<g id="edge20_Node000012_Node000003" class="edge">
<title>Node12&#45;&gt;Node3</title>
<g id="a_edge20_Node000012_Node000003"><a xlink:title=" ">
<path fill="none" stroke="#63b8ff" d="M490.78,-54.98C505.18,-46.69 527.31,-33.94 544.19,-24.22"/>
<polygon fill="#63b8ff" stroke="#63b8ff" points="546.03,-27.19 552.95,-19.17 542.54,-21.13 546.03,-27.19"/>
</a>
</g>
</g>
<!-- Node12&#45;&gt;Node7 -->
<g id="edge21_Node000012_Node000007" class="edge">
<title>Node12&#45;&gt;Node7</title>
<g id="a_edge21_Node000012_Node000007"><a xlink:title=" ">
<path fill="none" stroke="#63b8ff" d="M445.79,-56.78C442.83,-56.16 439.86,-55.56 437,-55 355.81,-39.13 259.62,-23.25 211.19,-15.45"/>
<polygon fill="#63b8ff" stroke="#63b8ff" points="211.47,-11.96 201.04,-13.83 210.36,-18.87 211.47,-11.96"/>
</a>
</g>
</g>
<!-- Node13 -->
<g id="Node000013" class="node">
<title>Node13</title>
<g id="a_Node000013"><a xlink:title=" ">
<polygon fill="#e0e0e0" stroke="#999999" points="404,-19 344,-19 344,0 404,0 404,-19"/>
<text text-anchor="middle" x="374" y="-7" font-family="Helvetica,sans-Serif" font-size="10.00">iostream</text>
</a>
</g>
</g>
<!-- Node12&#45;&gt;Node13 -->
<g id="edge19_Node000012_Node000013" class="edge">
<title>Node12&#45;&gt;Node13</title>
<g id="a_edge19_Node000012_Node000013"><a xlink:title=" ">
<path fill="none" stroke="#63b8ff" d="M459.61,-54.98C443.43,-46.57 418.43,-33.59 399.62,-23.81"/>
<polygon fill="#63b8ff" stroke="#63b8ff" points="401.17,-20.68 390.69,-19.17 397.95,-26.89 401.17,-20.68"/>
</a>
</g>
</g>
<!-- Node14 -->
<g id="Node000014" class="node">
<title>Node14</title>
<g id="a_Node000014"><a xlink:title=" ">
<polygon fill="#e0e0e0" stroke="#999999" points="467.5,-19 422.5,-19 422.5,0 467.5,0 467.5,-19"/>
<text text-anchor="middle" x="445" y="-7" font-family="Helvetica,sans-Serif" font-size="10.00">utility</text>
</a>
</g>
</g>
<!-- Node12&#45;&gt;Node14 -->
<g id="edge22_Node000012_Node000014" class="edge">
<title>Node12&#45;&gt;Node14</title>
<g id="a_edge22_Node000012_Node000014"><a xlink:title=" ">
<path fill="none" stroke="#63b8ff" d="M470.88,-54.75C466.64,-47.49 460.47,-36.95 455.22,-27.98"/>
<polygon fill="#63b8ff" stroke="#63b8ff" points="458.09,-25.95 450.02,-19.09 452.05,-29.49 458.09,-25.95"/>
</a>
</g>
</g>
<!-- Node15 -->
<g id="Node000015" class="node">
<title>Node15</title>
<g id="a_Node000015"><a xlink:title=" ">
<polygon fill="#e0e0e0" stroke="#999999" points="526.5,-19 485.5,-19 485.5,0 526.5,0 526.5,-19"/>
<text text-anchor="middle" x="506" y="-7" font-family="Helvetica,sans-Serif" font-size="10.00">tuple</text>
</a>
</g>
</g>
<!-- Node12&#45;&gt;Node15 -->
<g id="edge23_Node000012_Node000015" class="edge">
<title>Node12&#45;&gt;Node15</title>
<g id="a_edge23_Node000012_Node000015"><a xlink:title=" ">
<path fill="none" stroke="#63b8ff" d="M480.95,-54.75C485.06,-47.49 491.03,-36.95 496.1,-27.98"/>
<polygon fill="#63b8ff" stroke="#63b8ff" points="499.26,-29.52 501.14,-19.09 493.17,-26.07 499.26,-29.52"/>
</a>
</g>
</g>
</g>
</svg>
