<?xml version="1.0" encoding="UTF-8" standalone="no"?>
<!DOCTYPE svg PUBLIC "-//W3C//DTD SVG 1.1//EN"
 "http://www.w3.org/Graphics/SVG/1.1/DTD/svg11.dtd">
<!-- Generated by graphviz version 2.43.0 (0)
 -->
<!-- Title: include/medusa/bits/domains/GeneralFill.hpp Pages: 1 -->
<!--zoomable 379 -->

<svg id="main" version="1.1" xmlns="http://www.w3.org/2000/svg" xmlns:xlink="http://www.w3.org/1999/xlink" xml:space="preserve" onload="init(evt)">
<style type="text/css"><![CDATA[
.node, .edge {opacity: 0.7;}
.node.selected, .edge.selected {opacity: 1;}
.edge:hover path { stroke: red; }
.edge:hover polygon { stroke: red; fill: red; }
]]></style>

<defs>
  <circle id="rim" cx="0" cy="0" r="7"/>
  <circle id="rim2" cx="0" cy="0" r="3.5"/>
  <g id="zoomPlus">
    <use xlink:href="#rim" fill="#404040"><set attributeName="fill" to="#808080" begin="zoomplus.mouseover" end="zoomplus.mouseout"/></use>
    <path d="M-4,0h8M0,-4v8" fill="none" stroke="white" stroke-width="1.5" pointer-events="none"/>
  </g>
  <g id="zoomMin">
    <use xlink:href="#rim" fill="#404040"><set attributeName="fill" to="#808080" begin="zoomminus.mouseover" end="zoomminus.mouseout"/></use>
    <path d="M-4,0h8" fill="none" stroke="white" stroke-width="1.5" pointer-events="none"/>
  </g>
  <g id="arrowUp" transform="translate(30 24)">
    <use xlink:href="#rim"/>
    <path pointer-events="none" fill="none" stroke="white" stroke-width="1.5" d="M0,-3.0v7 M-2.5,-0.5L0,-3.0L2.5,-0.5"/>
  </g>
  <g id="arrowRight" transform="rotate(90) translate(36 -43)">
    <use xlink:href="#rim"/>
    <path pointer-events="none" fill="none" stroke="white" stroke-width="1.5" d="M0,-3.0v7 M-2.5,-0.5L0,-3.0L2.5,-0.5"/>
  </g>
  <g id="arrowDown" transform="rotate(180) translate(-30 -48)">
    <use xlink:href="#rim"/>
    <path pointer-events="none" fill="none" stroke="white" stroke-width="1.5" d="M0,-3.0v7 M-2.5,-0.5L0,-3.0L2.5,-0.5"/>
  </g>
  <g id="arrowLeft" transform="rotate(270) translate(-36 17)">
    <use xlink:href="#rim"/>
    <path pointer-events="none" fill="none" stroke="white" stroke-width="1.5" d="M0,-3.0v7 M-2.5,-0.5L0,-3.0L2.5,-0.5"/>
  </g>
  <g id="resetDef">
    <use xlink:href="#rim2" fill="#404040"><set attributeName="fill" to="#808080" begin="reset.mouseover" end="reset.mouseout"/></use>
  </g>
</defs>
<script type="application/ecmascript">
var viewWidth = 1351;
var viewHeight = 379;
var sectionId = 'dynsection-0';
</script>
<script type="application/ecmascript" xlink:href="svg.min.js"/>
<svg id="graph" class="graph">
<g id="viewport">
<title>include/medusa/bits/domains/GeneralFill.hpp</title>
<!-- Node1 -->
<g id="Node000001" class="node">
<title>Node1</title>
<g id="a_Node000001"><a xlink:title="Implementation of the general node placing algorithm.">
<polygon fill="#999999" stroke="#666666" points="461.83,-371 323.83,-371 323.83,-341 461.83,-341 461.83,-371"/>
<text text-anchor="start" x="331.83" y="-359" font-family="Helvetica,sans-Serif" font-size="10.00">include/medusa/bits</text>
<text text-anchor="middle" x="392.83" y="-348" font-family="Helvetica,sans-Serif" font-size="10.00">/domains/GeneralFill.hpp</text>
</a>
</g>
</g>
<!-- Node2 -->
<g id="Node000002" class="node">
<title>Node2</title>
<g id="a_Node000002"><a xlink:href="GeneralFill__fwd_8hpp.html" target="_top" xlink:title="Declaration of the general node placing algorithm.">
<polygon fill="white" stroke="#666666" points="665.33,-299.5 552.33,-299.5 552.33,-280.5 665.33,-280.5 665.33,-299.5"/>
<text text-anchor="middle" x="608.83" y="-287.5" font-family="Helvetica,sans-Serif" font-size="10.00">GeneralFill_fwd.hpp</text>
</a>
</g>
</g>
<!-- Node1&#45;&gt;Node2 -->
<g id="edge1_Node000001_Node000002" class="edge">
<title>Node1&#45;&gt;Node2</title>
<g id="a_edge1_Node000001_Node000002"><a xlink:title=" ">
<path fill="none" stroke="#63b8ff" d="M440.23,-340.95C479.28,-329.38 533.95,-313.18 570.33,-302.41"/>
<polygon fill="#63b8ff" stroke="#63b8ff" points="571.49,-305.71 580.08,-299.52 569.5,-299 571.49,-305.71"/>
</a>
</g>
</g>
<!-- Node5 -->
<g id="Node000005" class="node">
<title>Node5</title>
<g id="a_Node000005"><a xlink:href="discretization__helpers_8hpp.html" target="_top" xlink:title="Contains helpers for discretizing various geometric objects.">
<polygon fill="white" stroke="#666666" points="306.33,-299.5 161.33,-299.5 161.33,-280.5 306.33,-280.5 306.33,-299.5"/>
<text text-anchor="middle" x="233.83" y="-287.5" font-family="Helvetica,sans-Serif" font-size="10.00">discretization_helpers.hpp</text>
</a>
</g>
</g>
<!-- Node1&#45;&gt;Node5 -->
<g id="edge4_Node000001_Node000005" class="edge">
<title>Node1&#45;&gt;Node5</title>
<g id="a_edge4_Node000001_Node000005"><a xlink:title=" ">
<path fill="none" stroke="#63b8ff" d="M357.93,-340.95C330.05,-329.73 291.34,-314.15 264.6,-303.39"/>
<polygon fill="#63b8ff" stroke="#63b8ff" points="265.57,-300 254.99,-299.52 262.96,-306.5 265.57,-300"/>
</a>
</g>
</g>
<!-- Node6 -->
<g id="Node000006" class="node">
<title>Node6</title>
<g id="a_Node000006"><a xlink:href="Range_8hpp.html" target="_top" xlink:title="Implementation of Range.">
<polygon fill="white" stroke="#666666" points="423.33,-239 262.33,-239 262.33,-220 423.33,-220 423.33,-239"/>
<text text-anchor="middle" x="342.83" y="-227" font-family="Helvetica,sans-Serif" font-size="10.00">medusa/bits/types/Range.hpp</text>
</a>
</g>
</g>
<!-- Node1&#45;&gt;Node6 -->
<g id="edge25_Node000001_Node000006" class="edge">
<title>Node1&#45;&gt;Node6</title>
<g id="a_edge25_Node000001_Node000006"><a xlink:title=" ">
<path fill="none" stroke="#63b8ff" d="M379.94,-340.73C372.07,-331.26 362.47,-318.17 356.83,-305 349.14,-287.07 345.66,-264.93 344.09,-249.46"/>
<polygon fill="#63b8ff" stroke="#63b8ff" points="347.55,-248.79 343.23,-239.12 340.58,-249.37 347.55,-248.79"/>
</a>
</g>
</g>
<!-- Node8 -->
<g id="Node000008" class="node">
<title>Node8</title>
<g id="a_Node000008"><a xlink:href="assert_8hpp.html" target="_top" xlink:title="Implementation of custom assert and debug utilities.">
<polygon fill="white" stroke="#666666" points="634.33,-129 479.33,-129 479.33,-110 634.33,-110 634.33,-129"/>
<text text-anchor="middle" x="556.83" y="-117" font-family="Helvetica,sans-Serif" font-size="10.00">medusa/bits/utils/assert.hpp</text>
</a>
</g>
</g>
<!-- Node1&#45;&gt;Node8 -->
<g id="edge24_Node000001_Node000008" class="edge">
<title>Node1&#45;&gt;Node8</title>
<g id="a_edge24_Node000001_Node000008"><a xlink:title=" ">
<path fill="none" stroke="#63b8ff" d="M323.75,-353.57C193.53,-348.42 -67.88,-325.1 16.83,-220 72.3,-151.16 330.87,-129.84 469.11,-123.32"/>
<polygon fill="#63b8ff" stroke="#63b8ff" points="469.42,-126.81 479.25,-122.86 469.11,-119.82 469.42,-126.81"/>
</a>
</g>
</g>
<!-- Node20 -->
<g id="Node000020" class="node">
<title>Node20</title>
<g id="a_Node000020"><a xlink:title=" ">
<polygon fill="#e0e0e0" stroke="#999999" points="79.83,-239 25.83,-239 25.83,-220 79.83,-220 79.83,-239"/>
<text text-anchor="middle" x="52.83" y="-227" font-family="Helvetica,sans-Serif" font-size="10.00">random</text>
</a>
</g>
</g>
<!-- Node1&#45;&gt;Node20 -->
<g id="edge26_Node000001_Node000020" class="edge">
<title>Node1&#45;&gt;Node20</title>
<g id="a_edge26_Node000001_Node000020"><a xlink:title=" ">
<path fill="none" stroke="#63b8ff" d="M323.65,-348.64C274.32,-342.2 207.36,-329.54 152.83,-305 119.98,-290.22 87.59,-263.18 68.93,-246.06"/>
<polygon fill="#63b8ff" stroke="#63b8ff" points="71.29,-243.47 61.6,-239.19 66.5,-248.58 71.29,-243.47"/>
</a>
</g>
</g>
<!-- Node21 -->
<g id="Node000021" class="node">
<title>Node21</title>
<g id="a_Node000021"><a xlink:href="randutils_8hpp.html" target="_top" xlink:title="Utilities for randomization.">
<polygon fill="white" stroke="#666666" points="532.33,-299.5 365.33,-299.5 365.33,-280.5 532.33,-280.5 532.33,-299.5"/>
<text text-anchor="middle" x="448.83" y="-287.5" font-family="Helvetica,sans-Serif" font-size="10.00">medusa/bits/utils/randutils.hpp</text>
</a>
</g>
</g>
<!-- Node1&#45;&gt;Node21 -->
<g id="edge27_Node000001_Node000021" class="edge">
<title>Node1&#45;&gt;Node21</title>
<g id="a_edge27_Node000001_Node000021"><a xlink:title=" ">
<path fill="none" stroke="#63b8ff" d="M405.25,-340.8C413.9,-330.92 425.45,-317.72 434.48,-307.39"/>
<polygon fill="#63b8ff" stroke="#63b8ff" points="437.14,-309.67 441.09,-299.84 431.87,-305.07 437.14,-309.67"/>
</a>
</g>
</g>
<!-- Node23 -->
<g id="Node000023" class="node">
<title>Node23</title>
<g id="a_Node000023"><a xlink:href="KDTreeMutable_8hpp.html" target="_top" xlink:title="Implementation of KDTreeMutable.">
<polygon fill="white" stroke="#666666" points="1033.83,-305 881.83,-305 881.83,-275 1033.83,-275 1033.83,-305"/>
<text text-anchor="start" x="889.83" y="-293" font-family="Helvetica,sans-Serif" font-size="10.00">medusa/bits/spatial</text>
<text text-anchor="middle" x="957.83" y="-282" font-family="Helvetica,sans-Serif" font-size="10.00">_search/KDTreeMutable.hpp</text>
</a>
</g>
</g>
<!-- Node1&#45;&gt;Node23 -->
<g id="edge33_Node000001_Node000023" class="edge">
<title>Node1&#45;&gt;Node23</title>
<g id="a_edge33_Node000001_Node000023"><a xlink:title=" ">
<path fill="none" stroke="#63b8ff" d="M462.11,-347.15C565.26,-335.47 759.1,-313.51 871.39,-300.79"/>
<polygon fill="#63b8ff" stroke="#63b8ff" points="872.12,-304.23 881.66,-299.63 871.33,-297.28 872.12,-304.23"/>
</a>
</g>
</g>
<!-- Node28 -->
<g id="Node000028" class="node">
<title>Node28</title>
<g id="a_Node000028"><a xlink:href="KDTree_8hpp.html" target="_top" xlink:title="Implementation of KDTree.">
<polygon fill="white" stroke="#666666" points="797.33,-305 684.33,-305 684.33,-275 797.33,-275 797.33,-305"/>
<text text-anchor="start" x="692.33" y="-293" font-family="Helvetica,sans-Serif" font-size="10.00">medusa/bits/spatial</text>
<text text-anchor="middle" x="740.83" y="-282" font-family="Helvetica,sans-Serif" font-size="10.00">_search/KDTree.hpp</text>
</a>
</g>
</g>
<!-- Node1&#45;&gt;Node28 -->
<g id="edge44_Node000001_Node000028" class="edge">
<title>Node1&#45;&gt;Node28</title>
<g id="a_edge44_Node000001_Node000028"><a xlink:title=" ">
<path fill="none" stroke="#63b8ff" d="M461.9,-343.42C516.72,-334.07 595.56,-320.29 674.23,-305.08"/>
<polygon fill="#63b8ff" stroke="#63b8ff" points="675.18,-308.46 684.33,-303.12 673.84,-301.59 675.18,-308.46"/>
</a>
</g>
</g>
<!-- Node3 -->
<g id="Node000003" class="node">
<title>Node3</title>
<g id="a_Node000003"><a xlink:href="Config_8hpp.html" target="_top" xlink:title="Contains compile time settings for the project, such as Eigen plugins.">
<polygon fill="white" stroke="#666666" points="801.83,-129 691.83,-129 691.83,-110 801.83,-110 801.83,-129"/>
<text text-anchor="middle" x="746.83" y="-117" font-family="Helvetica,sans-Serif" font-size="10.00">medusa/Config.hpp</text>
</a>
</g>
</g>
<!-- Node2&#45;&gt;Node3 -->
<g id="edge2_Node000002_Node000003" class="edge">
<title>Node2&#45;&gt;Node3</title>
<g id="a_edge2_Node000002_Node000003"><a xlink:title=" ">
<path fill="none" stroke="#63b8ff" d="M609.63,-280.33C612.1,-258.36 621.43,-199.74 652.83,-165 666.41,-149.97 686.15,-139.56 704.03,-132.62"/>
<polygon fill="#63b8ff" stroke="#63b8ff" points="705.52,-135.8 713.73,-129.11 703.13,-129.22 705.52,-135.8"/>
</a>
</g>
</g>
<!-- Node4 -->
<g id="Node000004" class="node">
<title>Node4</title>
<g id="a_Node000004"><a xlink:title=" ">
<polygon fill="#e0e0e0" stroke="#999999" points="1011.33,-19 964.33,-19 964.33,0 1011.33,0 1011.33,-19"/>
<text text-anchor="middle" x="987.83" y="-7" font-family="Helvetica,sans-Serif" font-size="10.00">vector</text>
</a>
</g>
</g>
<!-- Node3&#45;&gt;Node4 -->
<g id="edge3_Node000003_Node000004" class="edge">
<title>Node3&#45;&gt;Node4</title>
<g id="a_edge3_Node000003_Node000004"><a xlink:title=" ">
<path fill="none" stroke="#63b8ff" d="M789.2,-109.94C820.25,-102.74 862.89,-90.9 897.83,-74 924.8,-60.95 952.47,-40.09 969.88,-25.86"/>
<polygon fill="#63b8ff" stroke="#63b8ff" points="972.55,-28.2 977.99,-19.11 968.07,-22.82 972.55,-28.2"/>
</a>
</g>
</g>
<!-- Node5&#45;&gt;Node3 -->
<g id="edge5_Node000005_Node000003" class="edge">
<title>Node5&#45;&gt;Node3</title>
<g id="a_edge5_Node000005_Node000003"><a xlink:title=" ">
<path fill="none" stroke="#63b8ff" d="M235.07,-280.48C237.31,-266.98 242.83,-240.14 253.83,-220 269.38,-191.52 272.99,-179.88 301.83,-165 310.16,-160.7 559.79,-137.51 681.44,-126.42"/>
<polygon fill="#63b8ff" stroke="#63b8ff" points="682.1,-129.87 691.74,-125.48 681.47,-122.9 682.1,-129.87"/>
</a>
</g>
</g>
<!-- Node5&#45;&gt;Node6 -->
<g id="edge6_Node000005_Node000006" class="edge">
<title>Node5&#45;&gt;Node6</title>
<g id="a_edge6_Node000005_Node000006"><a xlink:title=" ">
<path fill="none" stroke="#63b8ff" d="M249.91,-280.37C267.78,-270.78 296.86,-255.17 317.73,-243.97"/>
<polygon fill="#63b8ff" stroke="#63b8ff" points="319.52,-246.98 326.68,-239.17 316.21,-240.81 319.52,-246.98"/>
</a>
</g>
</g>
<!-- Node19 -->
<g id="Node000019" class="node">
<title>Node19</title>
<g id="a_Node000019"><a xlink:title=" ">
<polygon fill="#e0e0e0" stroke="#999999" points="167.33,-239 98.33,-239 98.33,-220 167.33,-220 167.33,-239"/>
<text text-anchor="middle" x="132.83" y="-227" font-family="Helvetica,sans-Serif" font-size="10.00">Eigen/Core</text>
</a>
</g>
</g>
<!-- Node5&#45;&gt;Node19 -->
<g id="edge22_Node000005_Node000019" class="edge">
<title>Node5&#45;&gt;Node19</title>
<g id="a_edge22_Node000005_Node000019"><a xlink:title=" ">
<path fill="none" stroke="#63b8ff" d="M218.92,-280.37C202.51,-270.86 175.9,-255.45 156.6,-244.27"/>
<polygon fill="#63b8ff" stroke="#63b8ff" points="158.2,-241.15 147.79,-239.17 154.69,-247.21 158.2,-241.15"/>
</a>
</g>
</g>
<!-- Node5&#45;&gt;Node20 -->
<g id="edge23_Node000005_Node000020" class="edge">
<title>Node5&#45;&gt;Node20</title>
<g id="a_edge23_Node000005_Node000020"><a xlink:title=" ">
<path fill="none" stroke="#63b8ff" d="M207.51,-280.49C176.27,-270.4 124.03,-253.51 89.01,-242.19"/>
<polygon fill="#63b8ff" stroke="#63b8ff" points="89.77,-238.76 79.18,-239.02 87.62,-245.42 89.77,-238.76"/>
</a>
</g>
</g>
<!-- Node7 -->
<g id="Node000007" class="node">
<title>Node7</title>
<g id="a_Node000007"><a xlink:href="Range__fwd_8hpp.html" target="_top" xlink:title="Declaration of Range.">
<polygon fill="white" stroke="#666666" points="980.33,-184 889.33,-184 889.33,-165 980.33,-165 980.33,-184"/>
<text text-anchor="middle" x="934.83" y="-172" font-family="Helvetica,sans-Serif" font-size="10.00">Range_fwd.hpp</text>
</a>
</g>
</g>
<!-- Node6&#45;&gt;Node7 -->
<g id="edge7_Node000006_Node000007" class="edge">
<title>Node6&#45;&gt;Node7</title>
<g id="a_edge7_Node000006_Node000007"><a xlink:title=" ">
<path fill="none" stroke="#63b8ff" d="M423.78,-220.83C426.83,-220.55 429.86,-220.27 432.83,-220 614.55,-203.42 660.07,-200.3 841.83,-184 853.81,-182.92 866.66,-181.76 878.87,-180.64"/>
<polygon fill="#63b8ff" stroke="#63b8ff" points="879.3,-184.12 888.94,-179.72 878.67,-177.15 879.3,-184.12"/>
</a>
</g>
</g>
<!-- Node18 -->
<g id="Node000018" class="node">
<title>Node18</title>
<g id="a_Node000018"><a xlink:title=" ">
<polygon fill="#e0e0e0" stroke="#999999" points="374.83,-184 310.83,-184 310.83,-165 374.83,-165 374.83,-184"/>
<text text-anchor="middle" x="342.83" y="-172" font-family="Helvetica,sans-Serif" font-size="10.00">algorithm</text>
</a>
</g>
</g>
<!-- Node6&#45;&gt;Node18 -->
<g id="edge21_Node000006_Node000018" class="edge">
<title>Node6&#45;&gt;Node18</title>
<g id="a_edge21_Node000006_Node000018"><a xlink:title=" ">
<path fill="none" stroke="#63b8ff" d="M342.83,-219.75C342.83,-212.8 342.83,-202.85 342.83,-194.13"/>
<polygon fill="#63b8ff" stroke="#63b8ff" points="346.33,-194.09 342.83,-184.09 339.33,-194.09 346.33,-194.09"/>
</a>
</g>
</g>
<!-- Node7&#45;&gt;Node3 -->
<g id="edge8_Node000007_Node000003" class="edge">
<title>Node7&#45;&gt;Node3</title>
<g id="a_edge8_Node000007_Node000003"><a xlink:title=" ">
<path fill="none" stroke="#63b8ff" d="M904.62,-164.98C872.78,-156.01 822.46,-141.82 787.23,-131.89"/>
<polygon fill="#63b8ff" stroke="#63b8ff" points="787.84,-128.43 777.27,-129.08 785.94,-135.16 787.84,-128.43"/>
</a>
</g>
</g>
<!-- Node7&#45;&gt;Node4 -->
<g id="edge19_Node000007_Node000004" class="edge">
<title>Node7&#45;&gt;Node4</title>
<g id="a_edge19_Node000007_Node000004"><a xlink:title=" ">
<path fill="none" stroke="#63b8ff" d="M943.6,-164.81C951.52,-156.41 962.84,-142.94 968.83,-129 983.03,-95.93 986.72,-53.54 987.61,-29.46"/>
<polygon fill="#63b8ff" stroke="#63b8ff" points="991.12,-29.31 987.86,-19.23 984.12,-29.14 991.12,-29.31"/>
</a>
</g>
</g>
<!-- Node7&#45;&gt;Node8 -->
<g id="edge9_Node000007_Node000008" class="edge">
<title>Node7&#45;&gt;Node8</title>
<g id="a_edge9_Node000007_Node000008"><a xlink:title=" ">
<path fill="none" stroke="#63b8ff" d="M889.23,-167.11C824.21,-157.99 704.25,-141.17 627.62,-130.43"/>
<polygon fill="#63b8ff" stroke="#63b8ff" points="627.96,-126.94 617.57,-129.02 626.98,-133.87 627.96,-126.94"/>
</a>
</g>
</g>
<!-- Node15 -->
<g id="Node000015" class="node">
<title>Node15</title>
<g id="a_Node000015"><a xlink:href="traits_8hpp.html" target="_top" xlink:title="Type traits definition for vector and scalar fields.">
<polygon fill="white" stroke="#666666" points="959.33,-129 896.33,-129 896.33,-110 959.33,-110 959.33,-129"/>
<text text-anchor="middle" x="927.83" y="-117" font-family="Helvetica,sans-Serif" font-size="10.00">traits.hpp</text>
</a>
</g>
</g>
<!-- Node7&#45;&gt;Node15 -->
<g id="edge17_Node000007_Node000015" class="edge">
<title>Node7&#45;&gt;Node15</title>
<g id="a_edge17_Node000007_Node000015"><a xlink:title=" ">
<path fill="none" stroke="#63b8ff" d="M933.67,-164.75C932.75,-157.8 931.44,-147.85 930.29,-139.13"/>
<polygon fill="#63b8ff" stroke="#63b8ff" points="933.74,-138.54 928.96,-129.09 926.8,-139.46 933.74,-138.54"/>
</a>
</g>
</g>
<!-- Node16 -->
<g id="Node000016" class="node">
<title>Node16</title>
<g id="a_Node000016"><a xlink:title=" ">
<polygon fill="#e0e0e0" stroke="#999999" points="877.83,-129 819.83,-129 819.83,-110 877.83,-110 877.83,-129"/>
<text text-anchor="middle" x="848.83" y="-117" font-family="Helvetica,sans-Serif" font-size="10.00">memory</text>
</a>
</g>
</g>
<!-- Node7&#45;&gt;Node16 -->
<g id="edge18_Node000007_Node000016" class="edge">
<title>Node7&#45;&gt;Node16</title>
<g id="a_edge18_Node000007_Node000016"><a xlink:title=" ">
<path fill="none" stroke="#63b8ff" d="M921.01,-164.98C907.67,-156.77 887.24,-144.18 871.52,-134.49"/>
<polygon fill="#63b8ff" stroke="#63b8ff" points="873.24,-131.44 862.89,-129.17 869.57,-137.4 873.24,-131.44"/>
</a>
</g>
</g>
<!-- Node17 -->
<g id="Node000017" class="node">
<title>Node17</title>
<g id="a_Node000017"><a xlink:title=" ">
<polygon fill="#e0e0e0" stroke="#999999" points="1063.83,-129 1015.83,-129 1015.83,-110 1063.83,-110 1063.83,-129"/>
<text text-anchor="middle" x="1039.83" y="-117" font-family="Helvetica,sans-Serif" font-size="10.00">iosfwd</text>
</a>
</g>
</g>
<!-- Node7&#45;&gt;Node17 -->
<g id="edge20_Node000007_Node000017" class="edge">
<title>Node7&#45;&gt;Node17</title>
<g id="a_edge20_Node000007_Node000017"><a xlink:title=" ">
<path fill="none" stroke="#63b8ff" d="M951.7,-164.98C968.43,-156.54 994.32,-143.47 1013.72,-133.68"/>
<polygon fill="#63b8ff" stroke="#63b8ff" points="1015.3,-136.8 1022.65,-129.17 1012.14,-130.55 1015.3,-136.8"/>
</a>
</g>
</g>
<!-- Node9 -->
<g id="Node000009" class="node">
<title>Node9</title>
<g id="a_Node000009"><a xlink:title=" ">
<polygon fill="#e0e0e0" stroke="#999999" points="622.83,-74 490.83,-74 490.83,-55 622.83,-55 622.83,-74"/>
<text text-anchor="middle" x="556.83" y="-62" font-family="Helvetica,sans-Serif" font-size="10.00">tinyformat/tinyformat.h</text>
</a>
</g>
</g>
<!-- Node8&#45;&gt;Node9 -->
<g id="edge10_Node000008_Node000009" class="edge">
<title>Node8&#45;&gt;Node9</title>
<g id="a_edge10_Node000008_Node000009"><a xlink:title=" ">
<path fill="none" stroke="#63b8ff" d="M556.83,-109.75C556.83,-102.8 556.83,-92.85 556.83,-84.13"/>
<polygon fill="#63b8ff" stroke="#63b8ff" points="560.33,-84.09 556.83,-74.09 553.33,-84.09 560.33,-84.09"/>
</a>
</g>
</g>
<!-- Node10 -->
<g id="Node000010" class="node">
<title>Node10</title>
<g id="a_Node000010"><a xlink:href="print_8hpp.html" target="_top" xlink:title="Printing helpers for std types.">
<polygon fill="white" stroke="#666666" points="888.83,-74 828.83,-74 828.83,-55 888.83,-55 888.83,-74"/>
<text text-anchor="middle" x="858.83" y="-62" font-family="Helvetica,sans-Serif" font-size="10.00">print.hpp</text>
</a>
</g>
</g>
<!-- Node8&#45;&gt;Node10 -->
<g id="edge11_Node000008_Node000010" class="edge">
<title>Node8&#45;&gt;Node10</title>
<g id="a_edge11_Node000008_Node000010"><a xlink:title=" ">
<path fill="none" stroke="#63b8ff" d="M605.35,-109.98C664.56,-99.59 763.57,-82.22 818.69,-72.54"/>
<polygon fill="#63b8ff" stroke="#63b8ff" points="819.53,-75.95 828.78,-70.77 818.32,-69.05 819.53,-75.95"/>
</a>
</g>
</g>
<!-- Node10&#45;&gt;Node4 -->
<g id="edge13_Node000010_Node000004" class="edge">
<title>Node10&#45;&gt;Node4</title>
<g id="a_edge13_Node000010_Node000004"><a xlink:title=" ">
<path fill="none" stroke="#63b8ff" d="M879.55,-54.98C900.58,-46.34 933.37,-32.87 957.36,-23.02"/>
<polygon fill="#63b8ff" stroke="#63b8ff" points="958.8,-26.21 966.72,-19.17 956.14,-19.73 958.8,-26.21"/>
</a>
</g>
</g>
<!-- Node11 -->
<g id="Node000011" class="node">
<title>Node11</title>
<g id="a_Node000011"><a xlink:title=" ">
<polygon fill="#e0e0e0" stroke="#999999" points="945.83,-19 885.83,-19 885.83,0 945.83,0 945.83,-19"/>
<text text-anchor="middle" x="915.83" y="-7" font-family="Helvetica,sans-Serif" font-size="10.00">iostream</text>
</a>
</g>
</g>
<!-- Node10&#45;&gt;Node11 -->
<g id="edge12_Node000010_Node000011" class="edge">
<title>Node10&#45;&gt;Node11</title>
<g id="a_edge12_Node000010_Node000011"><a xlink:title=" ">
<path fill="none" stroke="#63b8ff" d="M867.98,-54.98C876.33,-47.23 888.86,-35.58 899,-26.14"/>
<polygon fill="#63b8ff" stroke="#63b8ff" points="901.56,-28.54 906.5,-19.17 896.79,-23.42 901.56,-28.54"/>
</a>
</g>
</g>
<!-- Node12 -->
<g id="Node000012" class="node">
<title>Node12</title>
<g id="a_Node000012"><a xlink:title=" ">
<polygon fill="#e0e0e0" stroke="#999999" points="1239.83,-19 1197.83,-19 1197.83,0 1239.83,0 1239.83,-19"/>
<text text-anchor="middle" x="1218.83" y="-7" font-family="Helvetica,sans-Serif" font-size="10.00">array</text>
</a>
</g>
</g>
<!-- Node10&#45;&gt;Node12 -->
<g id="edge14_Node000010_Node000012" class="edge">
<title>Node10&#45;&gt;Node12</title>
<g id="a_edge14_Node000010_Node000012"><a xlink:title=" ">
<path fill="none" stroke="#63b8ff" d="M888.9,-59.07C956.27,-49.15 1118.76,-25.23 1187.39,-15.13"/>
<polygon fill="#63b8ff" stroke="#63b8ff" points="1188.19,-18.55 1197.57,-13.63 1187.17,-11.62 1188.19,-18.55"/>
</a>
</g>
</g>
<!-- Node13 -->
<g id="Node000013" class="node">
<title>Node13</title>
<g id="a_Node000013"><a xlink:title=" ">
<polygon fill="#e0e0e0" stroke="#999999" points="808.33,-19 763.33,-19 763.33,0 808.33,0 808.33,-19"/>
<text text-anchor="middle" x="785.83" y="-7" font-family="Helvetica,sans-Serif" font-size="10.00">utility</text>
</a>
</g>
</g>
<!-- Node10&#45;&gt;Node13 -->
<g id="edge15_Node000010_Node000013" class="edge">
<title>Node10&#45;&gt;Node13</title>
<g id="a_edge15_Node000010_Node000013"><a xlink:title=" ">
<path fill="none" stroke="#63b8ff" d="M847.1,-54.98C836.09,-47 819.4,-34.88 806.22,-25.31"/>
<polygon fill="#63b8ff" stroke="#63b8ff" points="807.92,-22.21 797.77,-19.17 803.8,-27.88 807.92,-22.21"/>
</a>
</g>
</g>
<!-- Node14 -->
<g id="Node000014" class="node">
<title>Node14</title>
<g id="a_Node000014"><a xlink:title=" ">
<polygon fill="#e0e0e0" stroke="#999999" points="867.33,-19 826.33,-19 826.33,0 867.33,0 867.33,-19"/>
<text text-anchor="middle" x="846.83" y="-7" font-family="Helvetica,sans-Serif" font-size="10.00">tuple</text>
</a>
</g>
</g>
<!-- Node10&#45;&gt;Node14 -->
<g id="edge16_Node000010_Node000014" class="edge">
<title>Node10&#45;&gt;Node14</title>
<g id="a_edge16_Node000010_Node000014"><a xlink:title=" ">
<path fill="none" stroke="#63b8ff" d="M856.84,-54.75C855.25,-47.72 852.97,-37.62 850.98,-28.84"/>
<polygon fill="#63b8ff" stroke="#63b8ff" points="854.39,-28.07 848.77,-19.09 847.56,-29.62 854.39,-28.07"/>
</a>
</g>
</g>
<!-- Node21&#45;&gt;Node3 -->
<g id="edge28_Node000021_Node000003" class="edge">
<title>Node21&#45;&gt;Node3</title>
<g id="a_edge28_Node000021_Node000003"><a xlink:title=" ">
<path fill="none" stroke="#63b8ff" d="M460.05,-280.28C488.23,-258.68 564.71,-201.78 634.83,-165 659.52,-152.05 688.86,-140.52 711.31,-132.44"/>
<polygon fill="#63b8ff" stroke="#63b8ff" points="712.53,-135.73 720.79,-129.09 710.2,-129.13 712.53,-135.73"/>
</a>
</g>
</g>
<!-- Node21&#45;&gt;Node6 -->
<g id="edge30_Node000021_Node000006" class="edge">
<title>Node21&#45;&gt;Node6</title>
<g id="a_edge30_Node000021_Node000006"><a xlink:title=" ">
<path fill="none" stroke="#63b8ff" d="M433.18,-280.37C415.88,-270.82 387.78,-255.31 367.5,-244.12"/>
<polygon fill="#63b8ff" stroke="#63b8ff" points="368.98,-240.93 358.53,-239.17 365.59,-247.06 368.98,-240.93"/>
</a>
</g>
</g>
<!-- Node21&#45;&gt;Node8 -->
<g id="edge29_Node000021_Node000008" class="edge">
<title>Node21&#45;&gt;Node8</title>
<g id="a_edge29_Node000021_Node000008"><a xlink:title=" ">
<path fill="none" stroke="#63b8ff" d="M380.93,-280.48C331.11,-272.68 269.52,-259.23 253.83,-239 248.65,-232.33 250.86,-227.91 253.83,-220 265.22,-189.62 273.56,-180.92 301.83,-165 329.97,-149.15 406.91,-137.07 468.97,-129.52"/>
<polygon fill="#63b8ff" stroke="#63b8ff" points="469.67,-132.96 479.18,-128.3 468.84,-126.01 469.67,-132.96"/>
</a>
</g>
</g>
<!-- Node21&#45;&gt;Node20 -->
<g id="edge31_Node000021_Node000020" class="edge">
<title>Node21&#45;&gt;Node20</title>
<g id="a_edge31_Node000021_Node000020"><a xlink:title=" ">
<path fill="none" stroke="#63b8ff" d="M372.29,-280.48C301.47,-272.12 193.08,-258.1 89.87,-239.04"/>
<polygon fill="#63b8ff" stroke="#63b8ff" points="90.37,-235.57 79.89,-237.18 89.08,-242.45 90.37,-235.57"/>
</a>
</g>
</g>
<!-- Node22 -->
<g id="Node000022" class="node">
<title>Node22</title>
<g id="a_Node000022"><a xlink:title=" ">
<polygon fill="#e0e0e0" stroke="#999999" points="491.83,-239 441.83,-239 441.83,-220 491.83,-220 491.83,-239"/>
<text text-anchor="middle" x="466.83" y="-227" font-family="Helvetica,sans-Serif" font-size="10.00">chrono</text>
</a>
</g>
</g>
<!-- Node21&#45;&gt;Node22 -->
<g id="edge32_Node000021_Node000022" class="edge">
<title>Node21&#45;&gt;Node22</title>
<g id="a_edge32_Node000021_Node000022"><a xlink:title=" ">
<path fill="none" stroke="#63b8ff" d="M451.48,-280.37C454.01,-272.16 457.89,-259.54 461.12,-249.05"/>
<polygon fill="#63b8ff" stroke="#63b8ff" points="464.56,-249.75 464.16,-239.17 457.87,-247.7 464.56,-249.75"/>
</a>
</g>
</g>
<!-- Node23&#45;&gt;Node8 -->
<g id="edge42_Node000023_Node000008" class="edge">
<title>Node23&#45;&gt;Node8</title>
<g id="a_edge42_Node000023_Node000008"><a xlink:title=" ">
<path fill="none" stroke="#63b8ff" d="M904.12,-274.98C841.88,-257.72 737.09,-225.53 652.83,-184 624.51,-170.04 594.58,-149.13 575.82,-135.16"/>
<polygon fill="#63b8ff" stroke="#63b8ff" points="577.88,-132.33 567.79,-129.1 573.66,-137.92 577.88,-132.33"/>
</a>
</g>
</g>
<!-- Node24 -->
<g id="Node000024" class="node">
<title>Node24</title>
<g id="a_Node000024"><a xlink:href="KDTreeMutable__fwd_8hpp.html" target="_top" xlink:title="Declaration of KDTreeMutable.">
<polygon fill="white" stroke="#666666" points="1304.83,-239 1170.83,-239 1170.83,-220 1304.83,-220 1304.83,-239"/>
<text text-anchor="middle" x="1237.83" y="-227" font-family="Helvetica,sans-Serif" font-size="10.00">KDTreeMutable_fwd.hpp</text>
</a>
</g>
</g>
<!-- Node23&#45;&gt;Node24 -->
<g id="edge34_Node000023_Node000024" class="edge">
<title>Node23&#45;&gt;Node24</title>
<g id="a_edge34_Node000023_Node000024"><a xlink:title=" ">
<path fill="none" stroke="#63b8ff" d="M1024.89,-274.99C1074.68,-264.59 1141.54,-250.62 1186.96,-241.13"/>
<polygon fill="#63b8ff" stroke="#63b8ff" points="1187.81,-244.52 1196.89,-239.05 1186.38,-237.67 1187.81,-244.52"/>
</a>
</g>
</g>
<!-- Node27 -->
<g id="Node000027" class="node">
<title>Node27</title>
<g id="a_Node000027"><a xlink:title=" ">
<polygon fill="#e0e0e0" stroke="#999999" points="1014.33,-239 967.33,-239 967.33,-220 1014.33,-220 1014.33,-239"/>
<text text-anchor="middle" x="990.83" y="-227" font-family="Helvetica,sans-Serif" font-size="10.00">cmath</text>
</a>
</g>
</g>
<!-- Node23&#45;&gt;Node27 -->
<g id="edge43_Node000023_Node000027" class="edge">
<title>Node23&#45;&gt;Node27</title>
<g id="a_edge43_Node000023_Node000027"><a xlink:title=" ">
<path fill="none" stroke="#63b8ff" d="M965.81,-274.84C970.36,-266.78 976.09,-256.62 980.92,-248.06"/>
<polygon fill="#63b8ff" stroke="#63b8ff" points="984.02,-249.7 985.88,-239.27 977.92,-246.26 984.02,-249.7"/>
</a>
</g>
</g>
<!-- Node24&#45;&gt;Node3 -->
<g id="edge35_Node000024_Node000003" class="edge">
<title>Node24&#45;&gt;Node3</title>
<g id="a_edge35_Node000024_Node000003"><a xlink:title=" ">
<path fill="none" stroke="#63b8ff" d="M1254.32,-219.87C1276.02,-207.47 1309.45,-183.99 1291.83,-165 1256.97,-127.44 897.83,-133.85 812,-128.8"/>
<polygon fill="#63b8ff" stroke="#63b8ff" points="812.2,-125.31 801.96,-128.03 811.66,-132.28 812.2,-125.31"/>
</a>
</g>
</g>
<!-- Node24&#45;&gt;Node7 -->
<g id="edge36_Node000024_Node000007" class="edge">
<title>Node24&#45;&gt;Node7</title>
<g id="a_edge36_Node000024_Node000007"><a xlink:title=" ">
<path fill="none" stroke="#63b8ff" d="M1189.14,-219.98C1134.86,-210.49 1047.22,-195.16 990.32,-185.21"/>
<polygon fill="#63b8ff" stroke="#63b8ff" points="990.87,-181.75 980.41,-183.47 989.66,-188.64 990.87,-181.75"/>
</a>
</g>
</g>
<!-- Node24&#45;&gt;Node12 -->
<g id="edge38_Node000024_Node000012" class="edge">
<title>Node24&#45;&gt;Node12</title>
<g id="a_edge38_Node000024_Node000012"><a xlink:title=" ">
<path fill="none" stroke="#63b8ff" d="M1282.15,-219.99C1314.52,-211.23 1351.09,-194.57 1340.83,-165 1320.11,-105.35 1265.75,-51.32 1237.1,-25.88"/>
<polygon fill="#63b8ff" stroke="#63b8ff" points="1239.26,-23.12 1229.42,-19.2 1234.67,-28.4 1239.26,-23.12"/>
</a>
</g>
</g>
<!-- Node24&#45;&gt;Node17 -->
<g id="edge39_Node000024_Node000017" class="edge">
<title>Node24&#45;&gt;Node17</title>
<g id="a_edge39_Node000024_Node000017"><a xlink:title=" ">
<path fill="none" stroke="#63b8ff" d="M1267.68,-219.99C1300.35,-209.23 1345.5,-189.15 1324.83,-165 1292.91,-127.71 1142.78,-121.44 1074.18,-120.54"/>
<polygon fill="#63b8ff" stroke="#63b8ff" points="1073.93,-117.04 1063.9,-120.44 1073.87,-124.04 1073.93,-117.04"/>
</a>
</g>
</g>
<!-- Node25 -->
<g id="Node000025" class="node">
<title>Node25</title>
<g id="a_Node000025"><a xlink:title=" ">
<polygon fill="#e0e0e0" stroke="#999999" points="1174.33,-184 1037.33,-184 1037.33,-165 1174.33,-165 1174.33,-184"/>
<text text-anchor="middle" x="1105.83" y="-172" font-family="Helvetica,sans-Serif" font-size="10.00">nanoflann/nanoflann.hpp</text>
</a>
</g>
</g>
<!-- Node24&#45;&gt;Node25 -->
<g id="edge37_Node000024_Node000025" class="edge">
<title>Node24&#45;&gt;Node25</title>
<g id="a_edge37_Node000024_Node000025"><a xlink:title=" ">
<path fill="none" stroke="#63b8ff" d="M1216.62,-219.98C1195.1,-211.34 1161.54,-197.87 1137,-188.02"/>
<polygon fill="#63b8ff" stroke="#63b8ff" points="1138,-184.65 1127.42,-184.17 1135.4,-191.14 1138,-184.65"/>
</a>
</g>
</g>
<!-- Node26 -->
<g id="Node000026" class="node">
<title>Node26</title>
<g id="a_Node000026"><a xlink:href="PointCloud_8hpp.html" target="_top" xlink:title="Implementation of KDTree storage class.">
<polygon fill="white" stroke="#666666" points="1282.83,-184 1192.83,-184 1192.83,-165 1282.83,-165 1282.83,-184"/>
<text text-anchor="middle" x="1237.83" y="-172" font-family="Helvetica,sans-Serif" font-size="10.00">PointCloud.hpp</text>
</a>
</g>
</g>
<!-- Node24&#45;&gt;Node26 -->
<g id="edge40_Node000024_Node000026" class="edge">
<title>Node24&#45;&gt;Node26</title>
<g id="a_edge40_Node000024_Node000026"><a xlink:title=" ">
<path fill="none" stroke="#63b8ff" d="M1237.83,-219.75C1237.83,-212.8 1237.83,-202.85 1237.83,-194.13"/>
<polygon fill="#63b8ff" stroke="#63b8ff" points="1241.33,-194.09 1237.83,-184.09 1234.33,-194.09 1241.33,-194.09"/>
</a>
</g>
</g>
<!-- Node26&#45;&gt;Node4 -->
<g id="edge41_Node000026_Node000004" class="edge">
<title>Node26&#45;&gt;Node4</title>
<g id="a_edge41_Node000026_Node000004"><a xlink:title=" ">
<path fill="none" stroke="#63b8ff" d="M1224.74,-164.97C1184.16,-138.51 1060.19,-57.68 1009.64,-24.72"/>
<polygon fill="#63b8ff" stroke="#63b8ff" points="1011.37,-21.68 1001.09,-19.15 1007.55,-27.54 1011.37,-21.68"/>
</a>
</g>
</g>
<!-- Node28&#45;&gt;Node8 -->
<g id="edge55_Node000028_Node000008" class="edge">
<title>Node28&#45;&gt;Node8</title>
<g id="a_edge55_Node000028_Node000008"><a xlink:title=" ">
<path fill="none" stroke="#63b8ff" d="M684.2,-275.28C645.54,-265.15 598.43,-251.09 581.83,-239 557.6,-221.36 551.92,-212.55 542.83,-184 538.01,-168.89 542.7,-151.25 547.9,-138.4"/>
<polygon fill="#63b8ff" stroke="#63b8ff" points="551.1,-139.82 552.02,-129.26 544.72,-136.94 551.1,-139.82"/>
</a>
</g>
</g>
<!-- Node29 -->
<g id="Node000029" class="node">
<title>Node29</title>
<g id="a_Node000029"><a xlink:href="KDTree__fwd_8hpp.html" target="_top" xlink:title="Declaration of KDTree.">
<polygon fill="white" stroke="#666666" points="949.33,-239 854.33,-239 854.33,-220 949.33,-220 949.33,-239"/>
<text text-anchor="middle" x="901.83" y="-227" font-family="Helvetica,sans-Serif" font-size="10.00">KDTree_fwd.hpp</text>
</a>
</g>
</g>
<!-- Node28&#45;&gt;Node29 -->
<g id="edge45_Node000028_Node000029" class="edge">
<title>Node28&#45;&gt;Node29</title>
<g id="a_edge45_Node000028_Node000029"><a xlink:title=" ">
<path fill="none" stroke="#63b8ff" d="M779.39,-274.99C806.61,-265.1 842.71,-251.98 868.65,-242.56"/>
<polygon fill="#63b8ff" stroke="#63b8ff" points="869.85,-245.84 878.05,-239.14 867.45,-239.26 869.85,-245.84"/>
</a>
</g>
</g>
<!-- Node30 -->
<g id="Node000030" class="node">
<title>Node30</title>
<g id="a_Node000030"><a xlink:href="memutils_8hpp.html" target="_top" xlink:title="Declaration of memory related utilities.">
<polygon fill="white" stroke="#666666" points="832.33,-184 661.33,-184 661.33,-165 832.33,-165 832.33,-184"/>
<text text-anchor="middle" x="746.83" y="-172" font-family="Helvetica,sans-Serif" font-size="10.00">medusa/bits/utils/memutils.hpp</text>
</a>
</g>
</g>
<!-- Node28&#45;&gt;Node30 -->
<g id="edge56_Node000028_Node000030" class="edge">
<title>Node28&#45;&gt;Node30</title>
<g id="a_edge56_Node000028_Node000030"><a xlink:title=" ">
<path fill="none" stroke="#63b8ff" d="M741.59,-274.63C742.66,-254.21 744.64,-216.81 745.83,-194.24"/>
<polygon fill="#63b8ff" stroke="#63b8ff" points="749.33,-194.4 746.36,-184.23 742.34,-194.03 749.33,-194.4"/>
</a>
</g>
</g>
<!-- Node29&#45;&gt;Node3 -->
<g id="edge46_Node000029_Node000003" class="edge">
<title>Node29&#45;&gt;Node3</title>
<g id="a_edge46_Node000029_Node000003"><a xlink:title=" ">
<path fill="none" stroke="#63b8ff" d="M895.29,-219.7C885.08,-206.44 864.2,-181.17 841.83,-165 823.22,-151.55 799.91,-140.56 781.04,-132.87"/>
<polygon fill="#63b8ff" stroke="#63b8ff" points="782.21,-129.56 771.62,-129.15 779.63,-136.07 782.21,-129.56"/>
</a>
</g>
</g>
<!-- Node29&#45;&gt;Node7 -->
<g id="edge48_Node000029_Node000007" class="edge">
<title>Node29&#45;&gt;Node7</title>
<g id="a_edge48_Node000029_Node000007"><a xlink:title=" ">
<path fill="none" stroke="#63b8ff" d="M907.27,-219.75C911.84,-212.42 918.49,-201.73 924.12,-192.7"/>
<polygon fill="#63b8ff" stroke="#63b8ff" points="927.16,-194.43 929.48,-184.09 921.22,-190.73 927.16,-194.43"/>
</a>
</g>
</g>
<!-- Node29&#45;&gt;Node17 -->
<g id="edge49_Node000029_Node000017" class="edge">
<title>Node29&#45;&gt;Node17</title>
<g id="a_edge49_Node000029_Node000017"><a xlink:title=" ">
<path fill="none" stroke="#63b8ff" d="M925.13,-219.99C943.87,-212.42 970.22,-200.05 989.83,-184 1005.88,-170.86 1020.07,-151.71 1029.19,-137.88"/>
<polygon fill="#63b8ff" stroke="#63b8ff" points="1032.24,-139.61 1034.66,-129.3 1026.34,-135.85 1032.24,-139.61"/>
</a>
</g>
</g>
<!-- Node29&#45;&gt;Node25 -->
<g id="edge47_Node000029_Node000025" class="edge">
<title>Node29&#45;&gt;Node25</title>
<g id="a_edge47_Node000029_Node000025"><a xlink:title=" ">
<path fill="none" stroke="#63b8ff" d="M934.6,-219.98C969.44,-210.93 1024.69,-196.58 1062.97,-186.64"/>
<polygon fill="#63b8ff" stroke="#63b8ff" points="1063.99,-189.98 1072.79,-184.08 1062.23,-183.21 1063.99,-189.98"/>
</a>
</g>
</g>
<!-- Node29&#45;&gt;Node26 -->
<g id="edge54_Node000029_Node000026" class="edge">
<title>Node29&#45;&gt;Node26</title>
<g id="a_edge54_Node000029_Node000026"><a xlink:title=" ">
<path fill="none" stroke="#63b8ff" d="M949.61,-220.96C1011.09,-211.26 1117.68,-194.45 1182.58,-184.21"/>
<polygon fill="#63b8ff" stroke="#63b8ff" points="1183.29,-187.65 1192.63,-182.63 1182.2,-180.73 1183.29,-187.65"/>
</a>
</g>
</g>
<!-- Node29&#45;&gt;Node30 -->
<g id="edge50_Node000029_Node000030" class="edge">
<title>Node29&#45;&gt;Node30</title>
<g id="a_edge50_Node000029_Node000030"><a xlink:title=" ">
<path fill="none" stroke="#63b8ff" d="M876.92,-219.98C851.12,-211.16 810.61,-197.31 781.64,-187.41"/>
<polygon fill="#63b8ff" stroke="#63b8ff" points="782.52,-184.01 771.92,-184.08 780.25,-190.63 782.52,-184.01"/>
</a>
</g>
</g>
<!-- Node30&#45;&gt;Node3 -->
<g id="edge52_Node000030_Node000003" class="edge">
<title>Node30&#45;&gt;Node3</title>
<g id="a_edge52_Node000030_Node000003"><a xlink:title=" ">
<path fill="none" stroke="#63b8ff" d="M746.83,-164.75C746.83,-157.8 746.83,-147.85 746.83,-139.13"/>
<polygon fill="#63b8ff" stroke="#63b8ff" points="750.33,-139.09 746.83,-129.09 743.33,-139.09 750.33,-139.09"/>
</a>
</g>
</g>
<!-- Node30&#45;&gt;Node8 -->
<g id="edge53_Node000030_Node000008" class="edge">
<title>Node30&#45;&gt;Node8</title>
<g id="a_edge53_Node000030_Node000008"><a xlink:title=" ">
<path fill="none" stroke="#63b8ff" d="M716.3,-164.98C684.12,-156.01 633.27,-141.82 597.66,-131.89"/>
<polygon fill="#63b8ff" stroke="#63b8ff" points="598.16,-128.4 587.59,-129.08 596.28,-135.14 598.16,-128.4"/>
</a>
</g>
</g>
<!-- Node30&#45;&gt;Node16 -->
<g id="edge51_Node000030_Node000016" class="edge">
<title>Node30&#45;&gt;Node16</title>
<g id="a_edge51_Node000030_Node000016"><a xlink:title=" ">
<path fill="none" stroke="#63b8ff" d="M763.21,-164.98C779.4,-156.57 804.4,-143.59 823.21,-133.81"/>
<polygon fill="#63b8ff" stroke="#63b8ff" points="824.88,-136.89 832.14,-129.17 821.65,-130.68 824.88,-136.89"/>
</a>
</g>
</g>
</g>
</svg>

<g id="navigator" transform="translate(0 0)" fill="#404254">
  <rect fill="#f2f5e9" fill-opacity="0.5" stroke="#606060" stroke-width=".5" x="0" y="0" width="60" height="60"/>
  <use id="zoomplus" xlink:href="#zoomPlus" x="17" y="9" onmousedown="handleZoom(evt,'in')"/>
  <use id="zoomminus" xlink:href="#zoomMin" x="42" y="9" onmousedown="handleZoom(evt,'out')"/>
  <use id="reset" xlink:href="#resetDef" x="30" y="36" onmousedown="handleReset()"/>
   <use id="arrowup" xlink:href="#arrowUp" x="0" y="0" onmousedown="handlePan(0,-1)"/>
  <use id="arrowright" xlink:href="#arrowRight" x="0" y="0" onmousedown="handlePan(1,0)"/>
  <use id="arrowdown" xlink:href="#arrowDown" x="0" y="0" onmousedown="handlePan(0,1)"/>
  <use id="arrowleft" xlink:href="#arrowLeft" x="0" y="0" onmousedown="handlePan(-1,0)"/>
</g>
<svg viewBox="0 0 15 15" width="100%" height="30px" preserveAspectRatio="xMaxYMin meet">
 <g id="arrow_out" transform="scale(0.3 0.3)">
  <a xlink:href="GeneralFill_8hpp__incl_org.svg" target="_base">
   <rect id="button" ry="5" rx="5" y="6" x="6" height="38" width="38"
        fill="#f2f5e9" fill-opacity="0.5" stroke="#606060" stroke-width="1.0"/>
   <path id="arrow"
     d="M 11.500037,31.436501 C 11.940474,20.09759 22.043105,11.32322 32.158766,21.979434 L 37.068811,17.246167 C 37.068811,17.246167 37.088388,32 37.088388,32 L 22.160133,31.978069 C 22.160133,31.978069 26.997745,27.140456 26.997745,27.140456 C 18.528582,18.264221 13.291696,25.230495 11.500037,31.436501 z"
     style="fill:#404040;"/>
  </a>
 </g>
</svg>

<style type='text/css'>
<![CDATA[
[data-mouse-over-selected='false'] { opacity: 0.7; }
[data-mouse-over-selected='true']  { opacity: 1.0; }
]]>
</style>
<script type="application/ecmascript"><![CDATA[
document.addEventListener('DOMContentLoaded', (event) => {
  highlightEdges();
  highlightAdjacentNodes();
});
]]></script>
</svg>
