<?xml version="1.0" encoding="UTF-8" standalone="no"?>
<!DOCTYPE svg PUBLIC "-//W3C//DTD SVG 1.1//EN"
 "http://www.w3.org/Graphics/SVG/1.1/DTD/svg11.dtd">
<!-- Generated by graphviz version 2.43.0 (0)
 -->
<!-- Title: include/medusa/bits/domains/GeneralSurfaceFill.hpp Pages: 1 -->
<svg width="1525pt" height="379pt"
 viewBox="0.00 0.00 1525.23 379.00" xmlns="http://www.w3.org/2000/svg" xmlns:xlink="http://www.w3.org/1999/xlink">
<g id="graph0" class="graph" transform="scale(1 1) rotate(0) translate(4 375)">
<title>include/medusa/bits/domains/GeneralSurfaceFill.hpp</title>
<!-- Node1 -->
<g id="Node000001" class="node">
<title>Node1</title>
<g id="a_Node000001"><a xlink:title="Implementation of the general node placing algorithm for parametrically given surfaces.">
<polygon fill="#999999" stroke="#666666" points="637.5,-371 462.5,-371 462.5,-341 637.5,-341 637.5,-371"/>
<text text-anchor="start" x="470.5" y="-359" font-family="Helvetica,sans-Serif" font-size="10.00">include/medusa/bits</text>
<text text-anchor="middle" x="550" y="-348" font-family="Helvetica,sans-Serif" font-size="10.00">/domains/GeneralSurfaceFill.hpp</text>
</a>
</g>
</g>
<!-- Node2 -->
<g id="Node000002" class="node">
<title>Node2</title>
<g id="a_Node000002"><a xlink:href="GeneralSurfaceFill__fwd_8hpp.html" target="_top" xlink:title="Declaration of the general node placing algorithm for parametrically given surfaces.">
<polygon fill="white" stroke="#666666" points="757,-305 651,-305 651,-275 757,-275 757,-305"/>
<text text-anchor="start" x="659" y="-293" font-family="Helvetica,sans-Serif" font-size="10.00">GeneralSurfaceFill</text>
<text text-anchor="middle" x="704" y="-282" font-family="Helvetica,sans-Serif" font-size="10.00">_fwd.hpp</text>
</a>
</g>
</g>
<!-- Node1&#45;&gt;Node2 -->
<g id="edge1_Node000001_Node000002" class="edge">
<title>Node1&#45;&gt;Node2</title>
<g id="a_edge1_Node000001_Node000002"><a xlink:title=" ">
<path fill="none" stroke="#63b8ff" d="M583.8,-340.95C606.46,-331.53 636.52,-319.04 660.9,-308.91"/>
<polygon fill="#63b8ff" stroke="#63b8ff" points="662.39,-312.08 670.28,-305.01 659.71,-305.62 662.39,-312.08"/>
</a>
</g>
</g>
<!-- Node6 -->
<g id="Node000006" class="node">
<title>Node6</title>
<g id="a_Node000006"><a xlink:href="discretization__helpers_8hpp.html" target="_top" xlink:title="Contains helpers for discretizing various geometric objects.">
<polygon fill="white" stroke="#666666" points="372.5,-299.5 227.5,-299.5 227.5,-280.5 372.5,-280.5 372.5,-299.5"/>
<text text-anchor="middle" x="300" y="-287.5" font-family="Helvetica,sans-Serif" font-size="10.00">discretization_helpers.hpp</text>
</a>
</g>
</g>
<!-- Node1&#45;&gt;Node6 -->
<g id="edge5_Node000001_Node000006" class="edge">
<title>Node1&#45;&gt;Node6</title>
<g id="a_edge5_Node000001_Node000006"><a xlink:title=" ">
<path fill="none" stroke="#63b8ff" d="M495.14,-340.95C449.46,-329.26 385.31,-312.84 343.21,-302.06"/>
<polygon fill="#63b8ff" stroke="#63b8ff" points="343.83,-298.61 333.27,-299.52 342.09,-305.39 343.83,-298.61"/>
</a>
</g>
</g>
<!-- Node7 -->
<g id="Node000007" class="node">
<title>Node7</title>
<g id="a_Node000007"><a xlink:href="Range_8hpp.html" target="_top" xlink:title="Implementation of Range.">
<polygon fill="white" stroke="#666666" points="513.5,-239 352.5,-239 352.5,-220 513.5,-220 513.5,-239"/>
<text text-anchor="middle" x="433" y="-227" font-family="Helvetica,sans-Serif" font-size="10.00">medusa/bits/types/Range.hpp</text>
</a>
</g>
</g>
<!-- Node1&#45;&gt;Node7 -->
<g id="edge32_Node000001_Node000007" class="edge">
<title>Node1&#45;&gt;Node7</title>
<g id="a_edge32_Node000001_Node000007"><a xlink:title=" ">
<path fill="none" stroke="#63b8ff" d="M509.72,-340.99C491.72,-332.93 471.56,-321.15 458,-305 444.6,-289.04 438.29,-265.6 435.38,-249.29"/>
<polygon fill="#63b8ff" stroke="#63b8ff" points="438.83,-248.68 433.86,-239.32 431.91,-249.73 438.83,-248.68"/>
</a>
</g>
</g>
<!-- Node9 -->
<g id="Node000009" class="node">
<title>Node9</title>
<g id="a_Node000009"><a xlink:href="assert_8hpp.html" target="_top" xlink:title="Implementation of custom assert and debug utilities.">
<polygon fill="white" stroke="#666666" points="1280.5,-129 1125.5,-129 1125.5,-110 1280.5,-110 1280.5,-129"/>
<text text-anchor="middle" x="1203" y="-117" font-family="Helvetica,sans-Serif" font-size="10.00">medusa/bits/utils/assert.hpp</text>
</a>
</g>
</g>
<!-- Node1&#45;&gt;Node9 -->
<g id="edge31_Node000001_Node000009" class="edge">
<title>Node1&#45;&gt;Node9</title>
<g id="a_edge31_Node000001_Node000009"><a xlink:title=" ">
<path fill="none" stroke="#63b8ff" d="M637.73,-355.01C824.61,-354.18 1256.31,-347.56 1396,-305 1451.27,-288.16 1479.33,-289.17 1508,-239 1557.21,-152.87 1397.39,-129.11 1290.79,-122.7"/>
<polygon fill="#63b8ff" stroke="#63b8ff" points="1290.83,-119.2 1280.65,-122.13 1290.44,-126.19 1290.83,-119.2"/>
</a>
</g>
</g>
<!-- Node21 -->
<g id="Node000021" class="node">
<title>Node21</title>
<g id="a_Node000021"><a xlink:title=" ">
<polygon fill="#e0e0e0" stroke="#999999" points="334,-239 280,-239 280,-220 334,-220 334,-239"/>
<text text-anchor="middle" x="307" y="-227" font-family="Helvetica,sans-Serif" font-size="10.00">random</text>
</a>
</g>
</g>
<!-- Node1&#45;&gt;Node21 -->
<g id="edge63_Node000001_Node000021" class="edge">
<title>Node1&#45;&gt;Node21</title>
<g id="a_edge63_Node000001_Node000021"><a xlink:title=" ">
<path fill="none" stroke="#63b8ff" d="M515.7,-340.92C493.07,-331.36 462.94,-318.13 437,-305 416.49,-294.62 362.35,-263.07 330.78,-244.52"/>
<polygon fill="#63b8ff" stroke="#63b8ff" points="332.17,-241.28 321.77,-239.22 328.62,-247.31 332.17,-241.28"/>
</a>
</g>
</g>
<!-- Node22 -->
<g id="Node000022" class="node">
<title>Node22</title>
<g id="a_Node000022"><a xlink:href="compute__normal__fwd_8hpp.html" target="_top" xlink:title="Compute normals from Jacobian matrix.">
<polygon fill="white" stroke="#666666" points="209.5,-299.5 66.5,-299.5 66.5,-280.5 209.5,-280.5 209.5,-299.5"/>
<text text-anchor="middle" x="138" y="-287.5" font-family="Helvetica,sans-Serif" font-size="10.00">compute_normal_fwd.hpp</text>
</a>
</g>
</g>
<!-- Node1&#45;&gt;Node22 -->
<g id="edge25_Node000001_Node000022" class="edge">
<title>Node1&#45;&gt;Node22</title>
<g id="a_edge25_Node000001_Node000022"><a xlink:title=" ">
<path fill="none" stroke="#63b8ff" d="M462.46,-342.29C395.69,-332.48 301.47,-318.35 219,-305 211.65,-303.81 203.94,-302.52 196.31,-301.23"/>
<polygon fill="#63b8ff" stroke="#63b8ff" points="196.82,-297.77 186.37,-299.53 195.64,-304.67 196.82,-297.77"/>
</a>
</g>
</g>
<!-- Node25 -->
<g id="Node000025" class="node">
<title>Node25</title>
<g id="a_Node000025"><a xlink:href="randutils_8hpp.html" target="_top" xlink:title="Utilities for randomization.">
<polygon fill="white" stroke="#666666" points="633.5,-299.5 466.5,-299.5 466.5,-280.5 633.5,-280.5 633.5,-299.5"/>
<text text-anchor="middle" x="550" y="-287.5" font-family="Helvetica,sans-Serif" font-size="10.00">medusa/bits/utils/randutils.hpp</text>
</a>
</g>
</g>
<!-- Node1&#45;&gt;Node25 -->
<g id="edge33_Node000001_Node000025" class="edge">
<title>Node1&#45;&gt;Node25</title>
<g id="a_edge33_Node000001_Node000025"><a xlink:title=" ">
<path fill="none" stroke="#63b8ff" d="M550,-340.8C550,-331.7 550,-319.79 550,-309.9"/>
<polygon fill="#63b8ff" stroke="#63b8ff" points="553.5,-309.84 550,-299.84 546.5,-309.84 553.5,-309.84"/>
</a>
</g>
</g>
<!-- Node27 -->
<g id="Node000027" class="node">
<title>Node27</title>
<g id="a_Node000027"><a xlink:href="KDTreeMutable_8hpp.html" target="_top" xlink:title="Implementation of KDTreeMutable.">
<polygon fill="white" stroke="#666666" points="1387,-305 1235,-305 1235,-275 1387,-275 1387,-305"/>
<text text-anchor="start" x="1243" y="-293" font-family="Helvetica,sans-Serif" font-size="10.00">medusa/bits/spatial</text>
<text text-anchor="middle" x="1311" y="-282" font-family="Helvetica,sans-Serif" font-size="10.00">_search/KDTreeMutable.hpp</text>
</a>
</g>
</g>
<!-- Node1&#45;&gt;Node27 -->
<g id="edge39_Node000001_Node000027" class="edge">
<title>Node1&#45;&gt;Node27</title>
<g id="a_edge39_Node000001_Node000027"><a xlink:title=" ">
<path fill="none" stroke="#63b8ff" d="M637.67,-347.63C784.52,-335.28 1078.45,-310.56 1224.51,-298.27"/>
<polygon fill="#63b8ff" stroke="#63b8ff" points="1225.09,-301.74 1234.76,-297.41 1224.51,-294.76 1225.09,-301.74"/>
</a>
</g>
</g>
<!-- Node32 -->
<g id="Node000032" class="node">
<title>Node32</title>
<g id="a_Node000032"><a xlink:href="KDTree_8hpp.html" target="_top" xlink:title="Implementation of KDTree.">
<polygon fill="white" stroke="#666666" points="922.5,-305 809.5,-305 809.5,-275 922.5,-275 922.5,-305"/>
<text text-anchor="start" x="817.5" y="-293" font-family="Helvetica,sans-Serif" font-size="10.00">medusa/bits/spatial</text>
<text text-anchor="middle" x="866" y="-282" font-family="Helvetica,sans-Serif" font-size="10.00">_search/KDTree.hpp</text>
</a>
</g>
</g>
<!-- Node1&#45;&gt;Node32 -->
<g id="edge50_Node000001_Node000032" class="edge">
<title>Node1&#45;&gt;Node32</title>
<g id="a_edge50_Node000001_Node000032"><a xlink:title=" ">
<path fill="none" stroke="#63b8ff" d="M619.35,-340.95C672.94,-330.1 746.65,-315.17 799.51,-304.47"/>
<polygon fill="#63b8ff" stroke="#63b8ff" points="800.36,-307.87 809.46,-302.45 798.97,-301.01 800.36,-307.87"/>
</a>
</g>
</g>
<!-- Node3 -->
<g id="Node000003" class="node">
<title>Node3</title>
<g id="a_Node000003"><a xlink:href="Config_8hpp.html" target="_top" xlink:title="Contains compile time settings for the project, such as Eigen plugins.">
<polygon fill="white" stroke="#666666" points="629,-129 519,-129 519,-110 629,-110 629,-129"/>
<text text-anchor="middle" x="574" y="-117" font-family="Helvetica,sans-Serif" font-size="10.00">medusa/Config.hpp</text>
</a>
</g>
</g>
<!-- Node2&#45;&gt;Node3 -->
<g id="edge2_Node000002_Node000003" class="edge">
<title>Node2&#45;&gt;Node3</title>
<g id="a_edge2_Node000002_Node000003"><a xlink:title=" ">
<path fill="none" stroke="#63b8ff" d="M688.66,-274.9C657.61,-246.34 590.21,-184.36 590,-184 581.91,-170.4 577.89,-152.81 575.9,-139.59"/>
<polygon fill="#63b8ff" stroke="#63b8ff" points="579.33,-138.81 574.63,-129.32 572.38,-139.67 579.33,-138.81"/>
</a>
</g>
</g>
<!-- Node5 -->
<g id="Node000005" class="node">
<title>Node5</title>
<g id="a_Node000005"><a xlink:title=" ">
<polygon fill="#e0e0e0" stroke="#999999" points="741.5,-239 676.5,-239 676.5,-220 741.5,-220 741.5,-239"/>
<text text-anchor="middle" x="709" y="-227" font-family="Helvetica,sans-Serif" font-size="10.00">functional</text>
</a>
</g>
</g>
<!-- Node2&#45;&gt;Node5 -->
<g id="edge4_Node000002_Node000005" class="edge">
<title>Node2&#45;&gt;Node5</title>
<g id="a_edge4_Node000002_Node000005"><a xlink:title=" ">
<path fill="none" stroke="#63b8ff" d="M705.21,-274.84C705.86,-267.21 706.67,-257.7 707.38,-249.45"/>
<polygon fill="#63b8ff" stroke="#63b8ff" points="710.89,-249.53 708.25,-239.27 703.91,-248.93 710.89,-249.53"/>
</a>
</g>
</g>
<!-- Node4 -->
<g id="Node000004" class="node">
<title>Node4</title>
<g id="a_Node000004"><a xlink:title=" ">
<polygon fill="#e0e0e0" stroke="#999999" points="951.5,-19 904.5,-19 904.5,0 951.5,0 951.5,-19"/>
<text text-anchor="middle" x="928" y="-7" font-family="Helvetica,sans-Serif" font-size="10.00">vector</text>
</a>
</g>
</g>
<!-- Node3&#45;&gt;Node4 -->
<g id="edge3_Node000003_Node000004" class="edge">
<title>Node3&#45;&gt;Node4</title>
<g id="a_edge3_Node000003_Node000004"><a xlink:title=" ">
<path fill="none" stroke="#63b8ff" d="M602.07,-109.94C666.6,-90.25 825.26,-41.85 894.62,-20.68"/>
<polygon fill="#63b8ff" stroke="#63b8ff" points="895.65,-24.03 904.19,-17.76 893.6,-17.33 895.65,-24.03"/>
</a>
</g>
</g>
<!-- Node6&#45;&gt;Node3 -->
<g id="edge6_Node000006_Node000003" class="edge">
<title>Node6&#45;&gt;Node3</title>
<g id="a_edge6_Node000006_Node000003"><a xlink:title=" ">
<path fill="none" stroke="#63b8ff" d="M291.34,-280.47C278.7,-266.95 258.06,-240.1 271,-220 297.73,-178.48 434.31,-146.52 514.69,-130.95"/>
<polygon fill="#63b8ff" stroke="#63b8ff" points="515.51,-134.35 524.68,-129.04 514.2,-127.48 515.51,-134.35"/>
</a>
</g>
</g>
<!-- Node6&#45;&gt;Node7 -->
<g id="edge7_Node000006_Node000007" class="edge">
<title>Node6&#45;&gt;Node7</title>
<g id="a_edge7_Node000006_Node000007"><a xlink:title=" ">
<path fill="none" stroke="#63b8ff" d="M319.34,-280.49C341.7,-270.66 378.71,-254.38 404.4,-243.08"/>
<polygon fill="#63b8ff" stroke="#63b8ff" points="405.89,-246.25 413.64,-239.02 403.07,-239.84 405.89,-246.25"/>
</a>
</g>
</g>
<!-- Node20 -->
<g id="Node000020" class="node">
<title>Node20</title>
<g id="a_Node000020"><a xlink:title=" ">
<polygon fill="#e0e0e0" stroke="#999999" points="196.5,-129 127.5,-129 127.5,-110 196.5,-110 196.5,-129"/>
<text text-anchor="middle" x="162" y="-117" font-family="Helvetica,sans-Serif" font-size="10.00">Eigen/Core</text>
</a>
</g>
</g>
<!-- Node6&#45;&gt;Node20 -->
<g id="edge23_Node000006_Node000020" class="edge">
<title>Node6&#45;&gt;Node20</title>
<g id="a_edge23_Node000006_Node000020"><a xlink:title=" ">
<path fill="none" stroke="#63b8ff" d="M287.11,-280.47C273.81,-271.27 252.96,-255.67 238,-239 209.15,-206.84 183.91,-162.6 171.05,-138.29"/>
<polygon fill="#63b8ff" stroke="#63b8ff" points="174.03,-136.45 166.32,-129.19 167.82,-139.68 174.03,-136.45"/>
</a>
</g>
</g>
<!-- Node6&#45;&gt;Node21 -->
<g id="edge24_Node000006_Node000021" class="edge">
<title>Node6&#45;&gt;Node21</title>
<g id="a_edge24_Node000006_Node000021"><a xlink:title=" ">
<path fill="none" stroke="#63b8ff" d="M301.03,-280.37C302,-272.25 303.49,-259.81 304.74,-249.39"/>
<polygon fill="#63b8ff" stroke="#63b8ff" points="308.25,-249.51 305.96,-239.17 301.3,-248.68 308.25,-249.51"/>
</a>
</g>
</g>
<!-- Node8 -->
<g id="Node000008" class="node">
<title>Node8</title>
<g id="a_Node000008"><a xlink:href="Range__fwd_8hpp.html" target="_top" xlink:title="Declaration of Range.">
<polygon fill="white" stroke="#666666" points="940.5,-184 849.5,-184 849.5,-165 940.5,-165 940.5,-184"/>
<text text-anchor="middle" x="895" y="-172" font-family="Helvetica,sans-Serif" font-size="10.00">Range_fwd.hpp</text>
</a>
</g>
</g>
<!-- Node7&#45;&gt;Node8 -->
<g id="edge8_Node000007_Node000008" class="edge">
<title>Node7&#45;&gt;Node8</title>
<g id="a_edge8_Node000007_Node000008"><a xlink:title=" ">
<path fill="none" stroke="#63b8ff" d="M507.23,-219.98C599.91,-209.35 756.33,-191.41 839.35,-181.88"/>
<polygon fill="#63b8ff" stroke="#63b8ff" points="839.81,-185.35 849.35,-180.74 839.02,-178.4 839.81,-185.35"/>
</a>
</g>
</g>
<!-- Node19 -->
<g id="Node000019" class="node">
<title>Node19</title>
<g id="a_Node000019"><a xlink:title=" ">
<polygon fill="#e0e0e0" stroke="#999999" points="465,-184 401,-184 401,-165 465,-165 465,-184"/>
<text text-anchor="middle" x="433" y="-172" font-family="Helvetica,sans-Serif" font-size="10.00">algorithm</text>
</a>
</g>
</g>
<!-- Node7&#45;&gt;Node19 -->
<g id="edge22_Node000007_Node000019" class="edge">
<title>Node7&#45;&gt;Node19</title>
<g id="a_edge22_Node000007_Node000019"><a xlink:title=" ">
<path fill="none" stroke="#63b8ff" d="M433,-219.75C433,-212.8 433,-202.85 433,-194.13"/>
<polygon fill="#63b8ff" stroke="#63b8ff" points="436.5,-194.09 433,-184.09 429.5,-194.09 436.5,-194.09"/>
</a>
</g>
</g>
<!-- Node8&#45;&gt;Node3 -->
<g id="edge9_Node000008_Node000003" class="edge">
<title>Node8&#45;&gt;Node3</title>
<g id="a_edge9_Node000008_Node000003"><a xlink:title=" ">
<path fill="none" stroke="#63b8ff" d="M849.35,-165.96C793.36,-156.72 698.2,-141.01 635.72,-130.69"/>
<polygon fill="#63b8ff" stroke="#63b8ff" points="636.04,-127.2 625.6,-129.02 634.9,-134.1 636.04,-127.2"/>
</a>
</g>
</g>
<!-- Node8&#45;&gt;Node4 -->
<g id="edge20_Node000008_Node000004" class="edge">
<title>Node8&#45;&gt;Node4</title>
<g id="a_edge20_Node000008_Node000004"><a xlink:title=" ">
<path fill="none" stroke="#63b8ff" d="M883.36,-164.73C873.69,-156.67 860.65,-143.74 855,-129 851.98,-121.12 852.37,-118.03 855,-110 865.99,-76.45 893.07,-44.87 910.98,-26.62"/>
<polygon fill="#63b8ff" stroke="#63b8ff" points="913.82,-28.74 918.47,-19.22 908.9,-23.76 913.82,-28.74"/>
</a>
</g>
</g>
<!-- Node8&#45;&gt;Node9 -->
<g id="edge10_Node000008_Node000009" class="edge">
<title>Node8&#45;&gt;Node9</title>
<g id="a_edge10_Node000008_Node000009"><a xlink:title=" ">
<path fill="none" stroke="#63b8ff" d="M940.78,-165.62C994.64,-156.35 1084.21,-140.94 1143.43,-130.75"/>
<polygon fill="#63b8ff" stroke="#63b8ff" points="1144.13,-134.18 1153.39,-129.04 1142.95,-127.28 1144.13,-134.18"/>
</a>
</g>
</g>
<!-- Node16 -->
<g id="Node000016" class="node">
<title>Node16</title>
<g id="a_Node000016"><a xlink:href="traits_8hpp.html" target="_top" xlink:title="Type traits definition for vector and scalar fields.">
<polygon fill="white" stroke="#666666" points="926.5,-129 863.5,-129 863.5,-110 926.5,-110 926.5,-129"/>
<text text-anchor="middle" x="895" y="-117" font-family="Helvetica,sans-Serif" font-size="10.00">traits.hpp</text>
</a>
</g>
</g>
<!-- Node8&#45;&gt;Node16 -->
<g id="edge18_Node000008_Node000016" class="edge">
<title>Node8&#45;&gt;Node16</title>
<g id="a_edge18_Node000008_Node000016"><a xlink:title=" ">
<path fill="none" stroke="#63b8ff" d="M895,-164.75C895,-157.8 895,-147.85 895,-139.13"/>
<polygon fill="#63b8ff" stroke="#63b8ff" points="898.5,-139.09 895,-129.09 891.5,-139.09 898.5,-139.09"/>
</a>
</g>
</g>
<!-- Node17 -->
<g id="Node000017" class="node">
<title>Node17</title>
<g id="a_Node000017"><a xlink:title=" ">
<polygon fill="#e0e0e0" stroke="#999999" points="772,-129 714,-129 714,-110 772,-110 772,-129"/>
<text text-anchor="middle" x="743" y="-117" font-family="Helvetica,sans-Serif" font-size="10.00">memory</text>
</a>
</g>
</g>
<!-- Node8&#45;&gt;Node17 -->
<g id="edge19_Node000008_Node000017" class="edge">
<title>Node8&#45;&gt;Node17</title>
<g id="a_edge19_Node000008_Node000017"><a xlink:title=" ">
<path fill="none" stroke="#63b8ff" d="M870.58,-164.98C845.28,-156.16 805.55,-142.31 777.14,-132.41"/>
<polygon fill="#63b8ff" stroke="#63b8ff" points="778.21,-129.07 767.61,-129.08 775.9,-135.68 778.21,-129.07"/>
</a>
</g>
</g>
<!-- Node18 -->
<g id="Node000018" class="node">
<title>Node18</title>
<g id="a_Node000018"><a xlink:title=" ">
<polygon fill="#e0e0e0" stroke="#999999" points="993,-129 945,-129 945,-110 993,-110 993,-129"/>
<text text-anchor="middle" x="969" y="-117" font-family="Helvetica,sans-Serif" font-size="10.00">iosfwd</text>
</a>
</g>
</g>
<!-- Node8&#45;&gt;Node18 -->
<g id="edge21_Node000008_Node000018" class="edge">
<title>Node8&#45;&gt;Node18</title>
<g id="a_edge21_Node000008_Node000018"><a xlink:title=" ">
<path fill="none" stroke="#63b8ff" d="M906.89,-164.98C918.15,-156.92 935.29,-144.65 948.71,-135.03"/>
<polygon fill="#63b8ff" stroke="#63b8ff" points="950.8,-137.84 956.89,-129.17 946.73,-132.15 950.8,-137.84"/>
</a>
</g>
</g>
<!-- Node10 -->
<g id="Node000010" class="node">
<title>Node10</title>
<g id="a_Node000010"><a xlink:title=" ">
<polygon fill="#e0e0e0" stroke="#999999" points="1181,-74 1049,-74 1049,-55 1181,-55 1181,-74"/>
<text text-anchor="middle" x="1115" y="-62" font-family="Helvetica,sans-Serif" font-size="10.00">tinyformat/tinyformat.h</text>
</a>
</g>
</g>
<!-- Node9&#45;&gt;Node10 -->
<g id="edge11_Node000009_Node000010" class="edge">
<title>Node9&#45;&gt;Node10</title>
<g id="a_edge11_Node000009_Node000010"><a xlink:title=" ">
<path fill="none" stroke="#63b8ff" d="M1188.86,-109.98C1175.21,-101.77 1154.31,-89.18 1138.22,-79.49"/>
<polygon fill="#63b8ff" stroke="#63b8ff" points="1139.77,-76.33 1129.4,-74.17 1136.16,-82.33 1139.77,-76.33"/>
</a>
</g>
</g>
<!-- Node11 -->
<g id="Node000011" class="node">
<title>Node11</title>
<g id="a_Node000011"><a xlink:href="print_8hpp.html" target="_top" xlink:title="Printing helpers for std types.">
<polygon fill="white" stroke="#666666" points="1259,-74 1199,-74 1199,-55 1259,-55 1259,-74"/>
<text text-anchor="middle" x="1229" y="-62" font-family="Helvetica,sans-Serif" font-size="10.00">print.hpp</text>
</a>
</g>
</g>
<!-- Node9&#45;&gt;Node11 -->
<g id="edge12_Node000009_Node000011" class="edge">
<title>Node9&#45;&gt;Node11</title>
<g id="a_edge12_Node000009_Node000011"><a xlink:title=" ">
<path fill="none" stroke="#63b8ff" d="M1207.29,-109.75C1210.81,-102.57 1215.91,-92.18 1220.28,-83.27"/>
<polygon fill="#63b8ff" stroke="#63b8ff" points="1223.52,-84.61 1224.79,-74.09 1217.24,-81.53 1223.52,-84.61"/>
</a>
</g>
</g>
<!-- Node11&#45;&gt;Node4 -->
<g id="edge14_Node000011_Node000004" class="edge">
<title>Node11&#45;&gt;Node4</title>
<g id="a_edge14_Node000011_Node000004"><a xlink:title=" ">
<path fill="none" stroke="#63b8ff" d="M1198.79,-56.77C1195.83,-56.15 1192.86,-55.55 1190,-55 1108.17,-39.14 1011.37,-23.51 961.47,-15.67"/>
<polygon fill="#63b8ff" stroke="#63b8ff" points="961.97,-12.21 951.55,-14.12 960.89,-19.13 961.97,-12.21"/>
</a>
</g>
</g>
<!-- Node12 -->
<g id="Node000012" class="node">
<title>Node12</title>
<g id="a_Node000012"><a xlink:title=" ">
<polygon fill="#e0e0e0" stroke="#999999" points="1206,-19 1146,-19 1146,0 1206,0 1206,-19"/>
<text text-anchor="middle" x="1176" y="-7" font-family="Helvetica,sans-Serif" font-size="10.00">iostream</text>
</a>
</g>
</g>
<!-- Node11&#45;&gt;Node12 -->
<g id="edge13_Node000011_Node000012" class="edge">
<title>Node11&#45;&gt;Node12</title>
<g id="a_edge13_Node000011_Node000012"><a xlink:title=" ">
<path fill="none" stroke="#63b8ff" d="M1220.25,-54.75C1212.53,-47.03 1201.1,-35.6 1191.78,-26.28"/>
<polygon fill="#63b8ff" stroke="#63b8ff" points="1194.14,-23.69 1184.59,-19.09 1189.19,-28.64 1194.14,-23.69"/>
</a>
</g>
</g>
<!-- Node13 -->
<g id="Node000013" class="node">
<title>Node13</title>
<g id="a_Node000013"><a xlink:title=" ">
<polygon fill="#e0e0e0" stroke="#999999" points="1330,-19 1288,-19 1288,0 1330,0 1330,-19"/>
<text text-anchor="middle" x="1309" y="-7" font-family="Helvetica,sans-Serif" font-size="10.00">array</text>
</a>
</g>
</g>
<!-- Node11&#45;&gt;Node13 -->
<g id="edge15_Node000011_Node000013" class="edge">
<title>Node11&#45;&gt;Node13</title>
<g id="a_edge15_Node000011_Node000013"><a xlink:title=" ">
<path fill="none" stroke="#63b8ff" d="M1241.85,-54.98C1254.14,-46.84 1272.91,-34.41 1287.48,-24.76"/>
<polygon fill="#63b8ff" stroke="#63b8ff" points="1289.51,-27.61 1295.91,-19.17 1285.64,-21.78 1289.51,-27.61"/>
</a>
</g>
</g>
<!-- Node14 -->
<g id="Node000014" class="node">
<title>Node14</title>
<g id="a_Node000014"><a xlink:title=" ">
<polygon fill="#e0e0e0" stroke="#999999" points="1269.5,-19 1224.5,-19 1224.5,0 1269.5,0 1269.5,-19"/>
<text text-anchor="middle" x="1247" y="-7" font-family="Helvetica,sans-Serif" font-size="10.00">utility</text>
</a>
</g>
</g>
<!-- Node11&#45;&gt;Node14 -->
<g id="edge16_Node000011_Node000014" class="edge">
<title>Node11&#45;&gt;Node14</title>
<g id="a_edge16_Node000011_Node000014"><a xlink:title=" ">
<path fill="none" stroke="#63b8ff" d="M1231.97,-54.75C1234.36,-47.72 1237.79,-37.62 1240.77,-28.84"/>
<polygon fill="#63b8ff" stroke="#63b8ff" points="1244.18,-29.68 1244.08,-19.09 1237.55,-27.43 1244.18,-29.68"/>
</a>
</g>
</g>
<!-- Node15 -->
<g id="Node000015" class="node">
<title>Node15</title>
<g id="a_Node000015"><a xlink:title=" ">
<polygon fill="#e0e0e0" stroke="#999999" points="1127.5,-19 1086.5,-19 1086.5,0 1127.5,0 1127.5,-19"/>
<text text-anchor="middle" x="1107" y="-7" font-family="Helvetica,sans-Serif" font-size="10.00">tuple</text>
</a>
</g>
</g>
<!-- Node11&#45;&gt;Node15 -->
<g id="edge17_Node000011_Node000015" class="edge">
<title>Node11&#45;&gt;Node15</title>
<g id="a_edge17_Node000011_Node000015"><a xlink:title=" ">
<path fill="none" stroke="#63b8ff" d="M1209.4,-54.98C1189.68,-46.42 1159.05,-33.11 1136.42,-23.28"/>
<polygon fill="#63b8ff" stroke="#63b8ff" points="1137.52,-19.94 1126.96,-19.17 1134.74,-26.37 1137.52,-19.94"/>
</a>
</g>
</g>
<!-- Node22&#45;&gt;Node3 -->
<g id="edge26_Node000022_Node000003" class="edge">
<title>Node22&#45;&gt;Node3</title>
<g id="a_edge26_Node000022_Node000003"><a xlink:title=" ">
<path fill="none" stroke="#63b8ff" d="M147.52,-280.39C173.39,-257.51 248.06,-194.87 322,-165 382.53,-140.55 456.61,-129.51 508.73,-124.53"/>
<polygon fill="#63b8ff" stroke="#63b8ff" points="509.21,-128.01 518.85,-123.62 508.58,-121.03 509.21,-128.01"/>
</a>
</g>
</g>
<!-- Node23 -->
<g id="Node000023" class="node">
<title>Node23</title>
<g id="a_Node000023"><a xlink:href="Vec_8hpp.html" target="_top" xlink:title="Implemetations for Vec.">
<polygon fill="white" stroke="#666666" points="148,-239 0,-239 0,-220 148,-220 148,-239"/>
<text text-anchor="middle" x="74" y="-227" font-family="Helvetica,sans-Serif" font-size="10.00">medusa/bits/types/Vec.hpp</text>
</a>
</g>
</g>
<!-- Node22&#45;&gt;Node23 -->
<g id="edge27_Node000022_Node000023" class="edge">
<title>Node22&#45;&gt;Node23</title>
<g id="a_edge27_Node000022_Node000023"><a xlink:title=" ">
<path fill="none" stroke="#63b8ff" d="M128.56,-280.37C118.73,-271.38 103.11,-257.11 91.11,-246.14"/>
<polygon fill="#63b8ff" stroke="#63b8ff" points="93.22,-243.33 83.48,-239.17 88.5,-248.5 93.22,-243.33"/>
</a>
</g>
</g>
<!-- Node24 -->
<g id="Node000024" class="node">
<title>Node24</title>
<g id="a_Node000024"><a xlink:href="Vec__fwd_8hpp.html" target="_top" xlink:title="Declaration of Vec.">
<polygon fill="white" stroke="#666666" points="147.5,-184 70.5,-184 70.5,-165 147.5,-165 147.5,-184"/>
<text text-anchor="middle" x="109" y="-172" font-family="Helvetica,sans-Serif" font-size="10.00">Vec_fwd.hpp</text>
</a>
</g>
</g>
<!-- Node23&#45;&gt;Node24 -->
<g id="edge28_Node000023_Node000024" class="edge">
<title>Node23&#45;&gt;Node24</title>
<g id="a_edge28_Node000023_Node000024"><a xlink:title=" ">
<path fill="none" stroke="#63b8ff" d="M79.78,-219.75C84.62,-212.42 91.68,-201.73 97.64,-192.7"/>
<polygon fill="#63b8ff" stroke="#63b8ff" points="100.74,-194.36 103.33,-184.09 94.9,-190.5 100.74,-194.36"/>
</a>
</g>
</g>
<!-- Node24&#45;&gt;Node3 -->
<g id="edge29_Node000024_Node000003" class="edge">
<title>Node24&#45;&gt;Node3</title>
<g id="a_edge29_Node000024_Node000003"><a xlink:title=" ">
<path fill="none" stroke="#63b8ff" d="M147.75,-167.05C152.55,-166.32 157.38,-165.62 162,-165 284.23,-148.61 427.5,-134.22 508.82,-126.5"/>
<polygon fill="#63b8ff" stroke="#63b8ff" points="509.29,-129.97 518.91,-125.54 508.63,-123 509.29,-129.97"/>
</a>
</g>
</g>
<!-- Node24&#45;&gt;Node20 -->
<g id="edge30_Node000024_Node000020" class="edge">
<title>Node24&#45;&gt;Node20</title>
<g id="a_edge30_Node000024_Node000020"><a xlink:title=" ">
<path fill="none" stroke="#63b8ff" d="M117.75,-164.75C125.47,-157.03 136.9,-145.6 146.22,-136.28"/>
<polygon fill="#63b8ff" stroke="#63b8ff" points="148.81,-138.64 153.41,-129.09 143.86,-133.69 148.81,-138.64"/>
</a>
</g>
</g>
<!-- Node25&#45;&gt;Node3 -->
<g id="edge34_Node000025_Node000003" class="edge">
<title>Node25&#45;&gt;Node3</title>
<g id="a_edge34_Node000025_Node000003"><a xlink:title=" ">
<path fill="none" stroke="#63b8ff" d="M547.14,-280.3C540.83,-259.67 527.32,-206.4 541,-165 544.46,-154.54 551.43,-144.53 558.08,-136.66"/>
<polygon fill="#63b8ff" stroke="#63b8ff" points="560.86,-138.8 564.98,-129.04 555.67,-134.1 560.86,-138.8"/>
</a>
</g>
</g>
<!-- Node25&#45;&gt;Node7 -->
<g id="edge36_Node000025_Node000007" class="edge">
<title>Node25&#45;&gt;Node7</title>
<g id="a_edge36_Node000025_Node000007"><a xlink:title=" ">
<path fill="none" stroke="#63b8ff" d="M532.99,-280.49C513.58,-270.79 481.61,-254.81 459.06,-243.53"/>
<polygon fill="#63b8ff" stroke="#63b8ff" points="460.54,-240.36 450.03,-239.02 457.41,-246.62 460.54,-240.36"/>
</a>
</g>
</g>
<!-- Node25&#45;&gt;Node9 -->
<g id="edge35_Node000025_Node000009" class="edge">
<title>Node25&#45;&gt;Node9</title>
<g id="a_edge35_Node000025_Node000009"><a xlink:title=" ">
<path fill="none" stroke="#63b8ff" d="M600.51,-280.44C613.96,-278.4 628.5,-276.41 642,-275 711.96,-267.7 1225.7,-290.13 1274,-239 1283.88,-228.54 1287.87,-198.17 1268,-165 1259.91,-151.5 1245.97,-141.14 1233.06,-133.83"/>
<polygon fill="#63b8ff" stroke="#63b8ff" points="1234.42,-130.6 1223.94,-129.05 1231.17,-136.8 1234.42,-130.6"/>
</a>
</g>
</g>
<!-- Node25&#45;&gt;Node21 -->
<g id="edge37_Node000025_Node000021" class="edge">
<title>Node25&#45;&gt;Node21</title>
<g id="a_edge37_Node000025_Node000021"><a xlink:title=" ">
<path fill="none" stroke="#63b8ff" d="M514.67,-280.49C469.14,-269.53 390.37,-250.57 344.03,-239.42"/>
<polygon fill="#63b8ff" stroke="#63b8ff" points="344.65,-235.96 334.11,-237.03 343.01,-242.77 344.65,-235.96"/>
</a>
</g>
</g>
<!-- Node26 -->
<g id="Node000026" class="node">
<title>Node26</title>
<g id="a_Node000026"><a xlink:title=" ">
<polygon fill="#e0e0e0" stroke="#999999" points="620,-239 570,-239 570,-220 620,-220 620,-239"/>
<text text-anchor="middle" x="595" y="-227" font-family="Helvetica,sans-Serif" font-size="10.00">chrono</text>
</a>
</g>
</g>
<!-- Node25&#45;&gt;Node26 -->
<g id="edge38_Node000025_Node000026" class="edge">
<title>Node25&#45;&gt;Node26</title>
<g id="a_edge38_Node000025_Node000026"><a xlink:title=" ">
<path fill="none" stroke="#63b8ff" d="M556.64,-280.37C563.29,-271.73 573.69,-258.2 581.99,-247.42"/>
<polygon fill="#63b8ff" stroke="#63b8ff" points="585.01,-249.23 588.33,-239.17 579.46,-244.96 585.01,-249.23"/>
</a>
</g>
</g>
<!-- Node27&#45;&gt;Node9 -->
<g id="edge48_Node000027_Node000009" class="edge">
<title>Node27&#45;&gt;Node9</title>
<g id="a_edge48_Node000027_Node000009"><a xlink:title=" ">
<path fill="none" stroke="#63b8ff" d="M1355.2,-274.85C1371.98,-267.08 1389.37,-255.55 1399,-239 1415.54,-210.57 1419.52,-190.7 1399,-165 1385.08,-147.57 1336.17,-136.45 1290.69,-129.68"/>
<polygon fill="#63b8ff" stroke="#63b8ff" points="1291.15,-126.21 1280.75,-128.26 1290.16,-133.14 1291.15,-126.21"/>
</a>
</g>
</g>
<!-- Node28 -->
<g id="Node000028" class="node">
<title>Node28</title>
<g id="a_Node000028"><a xlink:href="KDTreeMutable__fwd_8hpp.html" target="_top" xlink:title="Declaration of KDTreeMutable.">
<polygon fill="white" stroke="#666666" points="1265,-239 1131,-239 1131,-220 1265,-220 1265,-239"/>
<text text-anchor="middle" x="1198" y="-227" font-family="Helvetica,sans-Serif" font-size="10.00">KDTreeMutable_fwd.hpp</text>
</a>
</g>
</g>
<!-- Node27&#45;&gt;Node28 -->
<g id="edge40_Node000027_Node000028" class="edge">
<title>Node27&#45;&gt;Node28</title>
<g id="a_edge40_Node000027_Node000028"><a xlink:title=" ">
<path fill="none" stroke="#63b8ff" d="M1283.93,-274.99C1265.75,-265.58 1241.93,-253.24 1223.98,-243.95"/>
<polygon fill="#63b8ff" stroke="#63b8ff" points="1225.18,-240.63 1214.69,-239.14 1221.96,-246.84 1225.18,-240.63"/>
</a>
</g>
</g>
<!-- Node31 -->
<g id="Node000031" class="node">
<title>Node31</title>
<g id="a_Node000031"><a xlink:title=" ">
<polygon fill="#e0e0e0" stroke="#999999" points="1498.5,-239 1451.5,-239 1451.5,-220 1498.5,-220 1498.5,-239"/>
<text text-anchor="middle" x="1475" y="-227" font-family="Helvetica,sans-Serif" font-size="10.00">cmath</text>
</a>
</g>
</g>
<!-- Node27&#45;&gt;Node31 -->
<g id="edge49_Node000027_Node000031" class="edge">
<title>Node27&#45;&gt;Node31</title>
<g id="a_edge49_Node000027_Node000031"><a xlink:title=" ">
<path fill="none" stroke="#63b8ff" d="M1350.28,-274.99C1378.18,-265.04 1415.23,-251.82 1441.68,-242.39"/>
<polygon fill="#63b8ff" stroke="#63b8ff" points="1443.02,-245.62 1451.26,-238.97 1440.67,-239.03 1443.02,-245.62"/>
</a>
</g>
</g>
<!-- Node28&#45;&gt;Node3 -->
<g id="edge41_Node000028_Node000003" class="edge">
<title>Node28&#45;&gt;Node3</title>
<g id="a_edge41_Node000028_Node000003"><a xlink:title=" ">
<path fill="none" stroke="#63b8ff" d="M1130.86,-226.69C1058.09,-223.22 939.19,-213.16 841,-184 822.52,-178.51 820.28,-171.12 802,-165 748.67,-147.15 685.78,-135.54 639.58,-128.67"/>
<polygon fill="#63b8ff" stroke="#63b8ff" points="639.79,-125.16 629.39,-127.19 638.79,-132.09 639.79,-125.16"/>
</a>
</g>
</g>
<!-- Node28&#45;&gt;Node8 -->
<g id="edge42_Node000028_Node000008" class="edge">
<title>Node28&#45;&gt;Node8</title>
<g id="a_edge42_Node000028_Node000008"><a xlink:title=" ">
<path fill="none" stroke="#63b8ff" d="M1149.32,-219.98C1095.03,-210.49 1007.39,-195.16 950.49,-185.21"/>
<polygon fill="#63b8ff" stroke="#63b8ff" points="951.04,-181.75 940.59,-183.47 949.83,-188.64 951.04,-181.75"/>
</a>
</g>
</g>
<!-- Node28&#45;&gt;Node13 -->
<g id="edge44_Node000028_Node000013" class="edge">
<title>Node28&#45;&gt;Node13</title>
<g id="a_edge44_Node000028_Node000013"><a xlink:title=" ">
<path fill="none" stroke="#63b8ff" d="M1218.23,-219.88C1233.7,-212.38 1254.58,-200.18 1268,-184 1305.82,-138.41 1310.01,-64.03 1309.71,-29.38"/>
<polygon fill="#63b8ff" stroke="#63b8ff" points="1313.21,-29.16 1309.48,-19.25 1306.21,-29.32 1313.21,-29.16"/>
</a>
</g>
</g>
<!-- Node28&#45;&gt;Node18 -->
<g id="edge45_Node000028_Node000018" class="edge">
<title>Node28&#45;&gt;Node18</title>
<g id="a_edge45_Node000028_Node000018"><a xlink:title=" ">
<path fill="none" stroke="#63b8ff" d="M1214.65,-219.86C1236.09,-207.63 1268.74,-184.58 1252,-165 1236.01,-146.3 1075.71,-129.93 1003.7,-123.45"/>
<polygon fill="#63b8ff" stroke="#63b8ff" points="1003.61,-119.93 993.34,-122.53 1003,-126.9 1003.61,-119.93"/>
</a>
</g>
</g>
<!-- Node29 -->
<g id="Node000029" class="node">
<title>Node29</title>
<g id="a_Node000029"><a xlink:title=" ">
<polygon fill="#e0e0e0" stroke="#999999" points="1134.5,-184 997.5,-184 997.5,-165 1134.5,-165 1134.5,-184"/>
<text text-anchor="middle" x="1066" y="-172" font-family="Helvetica,sans-Serif" font-size="10.00">nanoflann/nanoflann.hpp</text>
</a>
</g>
</g>
<!-- Node28&#45;&gt;Node29 -->
<g id="edge43_Node000028_Node000029" class="edge">
<title>Node28&#45;&gt;Node29</title>
<g id="a_edge43_Node000028_Node000029"><a xlink:title=" ">
<path fill="none" stroke="#63b8ff" d="M1176.79,-219.98C1155.27,-211.34 1121.72,-197.87 1097.17,-188.02"/>
<polygon fill="#63b8ff" stroke="#63b8ff" points="1098.18,-184.65 1087.59,-184.17 1095.57,-191.14 1098.18,-184.65"/>
</a>
</g>
</g>
<!-- Node30 -->
<g id="Node000030" class="node">
<title>Node30</title>
<g id="a_Node000030"><a xlink:href="PointCloud_8hpp.html" target="_top" xlink:title="Implementation of KDTree storage class.">
<polygon fill="white" stroke="#666666" points="1243,-184 1153,-184 1153,-165 1243,-165 1243,-184"/>
<text text-anchor="middle" x="1198" y="-172" font-family="Helvetica,sans-Serif" font-size="10.00">PointCloud.hpp</text>
</a>
</g>
</g>
<!-- Node28&#45;&gt;Node30 -->
<g id="edge46_Node000028_Node000030" class="edge">
<title>Node28&#45;&gt;Node30</title>
<g id="a_edge46_Node000028_Node000030"><a xlink:title=" ">
<path fill="none" stroke="#63b8ff" d="M1198,-219.75C1198,-212.8 1198,-202.85 1198,-194.13"/>
<polygon fill="#63b8ff" stroke="#63b8ff" points="1201.5,-194.09 1198,-184.09 1194.5,-194.09 1201.5,-194.09"/>
</a>
</g>
</g>
<!-- Node30&#45;&gt;Node4 -->
<g id="edge47_Node000030_Node000004" class="edge">
<title>Node30&#45;&gt;Node4</title>
<g id="a_edge47_Node000030_Node000004"><a xlink:title=" ">
<path fill="none" stroke="#63b8ff" d="M1181.71,-164.91C1165.24,-156.14 1139.13,-142 1117,-129 1055.39,-92.8 984.41,-47.22 949.57,-24.59"/>
<polygon fill="#63b8ff" stroke="#63b8ff" points="951.42,-21.62 941.13,-19.1 947.6,-27.49 951.42,-21.62"/>
</a>
</g>
</g>
<!-- Node32&#45;&gt;Node9 -->
<g id="edge61_Node000032_Node000009" class="edge">
<title>Node32&#45;&gt;Node9</title>
<g id="a_edge61_Node000032_Node000009"><a xlink:title=" ">
<path fill="none" stroke="#63b8ff" d="M922.54,-287.47C1046.2,-283.53 1332.04,-271.04 1361,-239 1383.06,-214.6 1380.85,-191.22 1361,-165 1349.55,-149.88 1307.29,-138.45 1269.36,-130.97"/>
<polygon fill="#63b8ff" stroke="#63b8ff" points="1269.8,-127.49 1259.32,-129.05 1268.49,-134.36 1269.8,-127.49"/>
</a>
</g>
</g>
<!-- Node33 -->
<g id="Node000033" class="node">
<title>Node33</title>
<g id="a_Node000033"><a xlink:href="KDTree__fwd_8hpp.html" target="_top" xlink:title="Declaration of KDTree.">
<polygon fill="white" stroke="#666666" points="942.5,-239 847.5,-239 847.5,-220 942.5,-220 942.5,-239"/>
<text text-anchor="middle" x="895" y="-227" font-family="Helvetica,sans-Serif" font-size="10.00">KDTree_fwd.hpp</text>
</a>
</g>
</g>
<!-- Node32&#45;&gt;Node33 -->
<g id="edge51_Node000032_Node000033" class="edge">
<title>Node32&#45;&gt;Node33</title>
<g id="a_edge51_Node000032_Node000033"><a xlink:title=" ">
<path fill="none" stroke="#63b8ff" d="M873.02,-274.84C876.97,-266.87 881.94,-256.84 886.16,-248.33"/>
<polygon fill="#63b8ff" stroke="#63b8ff" points="889.35,-249.78 890.65,-239.27 883.08,-246.67 889.35,-249.78"/>
</a>
</g>
</g>
<!-- Node34 -->
<g id="Node000034" class="node">
<title>Node34</title>
<g id="a_Node000034"><a xlink:href="memutils_8hpp.html" target="_top" xlink:title="Declaration of memory related utilities.">
<polygon fill="white" stroke="#666666" points="792.5,-184 621.5,-184 621.5,-165 792.5,-165 792.5,-184"/>
<text text-anchor="middle" x="707" y="-172" font-family="Helvetica,sans-Serif" font-size="10.00">medusa/bits/utils/memutils.hpp</text>
</a>
</g>
</g>
<!-- Node32&#45;&gt;Node34 -->
<g id="edge62_Node000032_Node000034" class="edge">
<title>Node32&#45;&gt;Node34</title>
<g id="a_edge62_Node000032_Node000034"><a xlink:title=" ">
<path fill="none" stroke="#63b8ff" d="M846.18,-274.85C815.88,-253.22 758.3,-212.12 727.55,-190.17"/>
<polygon fill="#63b8ff" stroke="#63b8ff" points="729.46,-187.23 719.29,-184.27 725.39,-192.93 729.46,-187.23"/>
</a>
</g>
</g>
<!-- Node33&#45;&gt;Node3 -->
<g id="edge52_Node000033_Node000003" class="edge">
<title>Node33&#45;&gt;Node3</title>
<g id="a_edge52_Node000033_Node000003"><a xlink:title=" ">
<path fill="none" stroke="#63b8ff" d="M847.34,-225.77C777.22,-220.96 650.52,-209.03 613,-184 596.89,-173.25 586.29,-153.37 580.26,-138.7"/>
<polygon fill="#63b8ff" stroke="#63b8ff" points="583.46,-137.28 576.66,-129.15 576.91,-139.74 583.46,-137.28"/>
</a>
</g>
</g>
<!-- Node33&#45;&gt;Node8 -->
<g id="edge54_Node000033_Node000008" class="edge">
<title>Node33&#45;&gt;Node8</title>
<g id="a_edge54_Node000033_Node000008"><a xlink:title=" ">
<path fill="none" stroke="#63b8ff" d="M895,-219.75C895,-212.8 895,-202.85 895,-194.13"/>
<polygon fill="#63b8ff" stroke="#63b8ff" points="898.5,-194.09 895,-184.09 891.5,-194.09 898.5,-194.09"/>
</a>
</g>
</g>
<!-- Node33&#45;&gt;Node18 -->
<g id="edge55_Node000033_Node000018" class="edge">
<title>Node33&#45;&gt;Node18</title>
<g id="a_edge55_Node000033_Node000018"><a xlink:title=" ">
<path fill="none" stroke="#63b8ff" d="M910.2,-219.8C922.62,-211.95 939.74,-199.3 950,-184 959.01,-170.56 963.86,-152.72 966.39,-139.38"/>
<polygon fill="#63b8ff" stroke="#63b8ff" points="969.86,-139.85 968.02,-129.42 962.95,-138.72 969.86,-139.85"/>
</a>
</g>
</g>
<!-- Node33&#45;&gt;Node29 -->
<g id="edge53_Node000033_Node000029" class="edge">
<title>Node33&#45;&gt;Node29</title>
<g id="a_edge53_Node000033_Node000029"><a xlink:title=" ">
<path fill="none" stroke="#63b8ff" d="M922.47,-219.98C951.18,-211.09 996.42,-197.07 1028.42,-187.15"/>
<polygon fill="#63b8ff" stroke="#63b8ff" points="1029.8,-190.39 1038.31,-184.08 1027.72,-183.7 1029.8,-190.39"/>
</a>
</g>
</g>
<!-- Node33&#45;&gt;Node30 -->
<g id="edge60_Node000033_Node000030" class="edge">
<title>Node33&#45;&gt;Node30</title>
<g id="a_edge60_Node000033_Node000030"><a xlink:title=" ">
<path fill="none" stroke="#63b8ff" d="M942.68,-220.16C996.92,-210.67 1085.37,-195.2 1142.62,-185.19"/>
<polygon fill="#63b8ff" stroke="#63b8ff" points="1143.33,-188.62 1152.58,-183.44 1142.13,-181.72 1143.33,-188.62"/>
</a>
</g>
</g>
<!-- Node33&#45;&gt;Node34 -->
<g id="edge56_Node000033_Node000034" class="edge">
<title>Node33&#45;&gt;Node34</title>
<g id="a_edge56_Node000033_Node000034"><a xlink:title=" ">
<path fill="none" stroke="#63b8ff" d="M864.79,-219.98C832.96,-211.01 782.64,-196.82 747.4,-186.89"/>
<polygon fill="#63b8ff" stroke="#63b8ff" points="748.02,-183.43 737.44,-184.08 746.12,-190.16 748.02,-183.43"/>
</a>
</g>
</g>
<!-- Node34&#45;&gt;Node3 -->
<g id="edge58_Node000034_Node000003" class="edge">
<title>Node34&#45;&gt;Node3</title>
<g id="a_edge58_Node000034_Node000003"><a xlink:title=" ">
<path fill="none" stroke="#63b8ff" d="M685.63,-164.98C663.85,-156.3 629.84,-142.75 605.08,-132.88"/>
<polygon fill="#63b8ff" stroke="#63b8ff" points="606.34,-129.62 595.76,-129.17 603.75,-136.12 606.34,-129.62"/>
</a>
</g>
</g>
<!-- Node34&#45;&gt;Node9 -->
<g id="edge59_Node000034_Node000009" class="edge">
<title>Node34&#45;&gt;Node9</title>
<g id="a_edge59_Node000034_Node000009"><a xlink:title=" ">
<path fill="none" stroke="#63b8ff" d="M786.69,-164.98C876.52,-155.39 1022.14,-139.83 1115.19,-129.88"/>
<polygon fill="#63b8ff" stroke="#63b8ff" points="1115.57,-133.36 1125.14,-128.82 1114.83,-126.4 1115.57,-133.36"/>
</a>
</g>
</g>
<!-- Node34&#45;&gt;Node17 -->
<g id="edge57_Node000034_Node000017" class="edge">
<title>Node34&#45;&gt;Node17</title>
<g id="a_edge57_Node000034_Node000017"><a xlink:title=" ">
<path fill="none" stroke="#63b8ff" d="M712.94,-164.75C717.98,-157.34 725.34,-146.5 731.51,-137.41"/>
<polygon fill="#63b8ff" stroke="#63b8ff" points="734.44,-139.33 737.17,-129.09 728.65,-135.39 734.44,-139.33"/>
</a>
</g>
</g>
</g>
</svg>
