<?xml version="1.0" encoding="UTF-8" standalone="no"?>
<!DOCTYPE svg PUBLIC "-//W3C//DTD SVG 1.1//EN"
 "http://www.w3.org/Graphics/SVG/1.1/DTD/svg11.dtd">
<!-- Generated by graphviz version 2.43.0 (0)
 -->
<!-- Title: include/medusa/bits/domains/GeneralSurfaceFill_fwd.hpp Pages: 1 -->
<svg width="590pt" height="302pt"
 viewBox="0.00 0.00 589.50 302.00" xmlns="http://www.w3.org/2000/svg" xmlns:xlink="http://www.w3.org/1999/xlink">
<g id="graph0" class="graph" transform="scale(1 1) rotate(0) translate(4 298)">
<title>include/medusa/bits/domains/GeneralSurfaceFill_fwd.hpp</title>
<!-- Node1 -->
<g id="Node000001" class="node">
<title>Node1</title>
<g id="a_Node000001"><a xlink:title="Declaration of the general node placing algorithm for parametrically given surfaces.">
<polygon fill="#999999" stroke="#666666" points="311.5,-294 157.5,-294 157.5,-253 311.5,-253 311.5,-294"/>
<text text-anchor="start" x="165.5" y="-282" font-family="Helvetica,sans-Serif" font-size="10.00">include/medusa/bits</text>
<text text-anchor="start" x="165.5" y="-271" font-family="Helvetica,sans-Serif" font-size="10.00">/domains/GeneralSurfaceFill</text>
<text text-anchor="middle" x="234.5" y="-260" font-family="Helvetica,sans-Serif" font-size="10.00">_fwd.hpp</text>
</a>
</g>
</g>
<!-- Node2 -->
<g id="Node000002" class="node">
<title>Node2</title>
<g id="a_Node000002"><a xlink:href="Domain__fwd_8hpp.html" target="_top" xlink:title="Header for Domain module, declarations only.">
<polygon fill="white" stroke="#666666" points="203,-151 68,-151 68,-121 203,-121 203,-151"/>
<text text-anchor="start" x="76" y="-139" font-family="Helvetica,sans-Serif" font-size="10.00">include/medusa/Domain</text>
<text text-anchor="middle" x="135.5" y="-128" font-family="Helvetica,sans-Serif" font-size="10.00">_fwd.hpp</text>
</a>
</g>
</g>
<!-- Node1&#45;&gt;Node2 -->
<g id="edge1_Node000001_Node000002" class="edge">
<title>Node1&#45;&gt;Node2</title>
<g id="a_edge1_Node000001_Node000002"><a xlink:title=" ">
<path fill="none" stroke="#63b8ff" d="M214.04,-244.5C193.32,-216.14 162.1,-173.4 145.97,-151.33"/>
<polygon fill="#63b8ff" stroke="#63b8ff" points="211.38,-246.79 220.1,-252.8 217.03,-242.66 211.38,-246.79"/>
</a>
</g>
</g>
<!-- Node6 -->
<g id="Node000006" class="node">
<title>Node6</title>
<g id="a_Node000006"><a xlink:href="GeneralSurfaceFill_8hpp.html" target="_top" xlink:title="Implementation of the general node placing algorithm for parametrically given surfaces.">
<polygon fill="white" stroke="#666666" points="401,-217 226,-217 226,-187 401,-187 401,-217"/>
<text text-anchor="start" x="234" y="-205" font-family="Helvetica,sans-Serif" font-size="10.00">include/medusa/bits</text>
<text text-anchor="middle" x="313.5" y="-194" font-family="Helvetica,sans-Serif" font-size="10.00">/domains/GeneralSurfaceFill.hpp</text>
</a>
</g>
</g>
<!-- Node1&#45;&gt;Node6 -->
<g id="edge6_Node000001_Node000006" class="edge">
<title>Node1&#45;&gt;Node6</title>
<g id="a_edge6_Node000001_Node000006"><a xlink:title=" ">
<path fill="none" stroke="#63b8ff" d="M264.49,-246.12C275.73,-236.23 288.06,-225.38 297.54,-217.04"/>
<polygon fill="#63b8ff" stroke="#63b8ff" points="262.12,-243.54 256.93,-252.77 266.75,-248.79 262.12,-243.54"/>
</a>
</g>
</g>
<!-- Node3 -->
<g id="Node000003" class="node">
<title>Node3</title>
<g id="a_Node000003"><a xlink:href="Domain_8hpp.html" target="_top" xlink:title="Header for Domain module.">
<polygon fill="white" stroke="#666666" points="309.5,-79.5 153.5,-79.5 153.5,-60.5 309.5,-60.5 309.5,-79.5"/>
<text text-anchor="middle" x="231.5" y="-67.5" font-family="Helvetica,sans-Serif" font-size="10.00">include/medusa/Domain.hpp</text>
</a>
</g>
</g>
<!-- Node2&#45;&gt;Node3 -->
<g id="edge2_Node000002_Node000003" class="edge">
<title>Node2&#45;&gt;Node3</title>
<g id="a_edge2_Node000002_Node000003"><a xlink:title=" ">
<path fill="none" stroke="#63b8ff" d="M165.2,-115.2C183.07,-103.29 204.9,-88.73 218.51,-79.66"/>
<polygon fill="#63b8ff" stroke="#63b8ff" points="163.18,-112.34 156.81,-120.8 167.07,-118.16 163.18,-112.34"/>
</a>
</g>
</g>
<!-- Node5 -->
<g id="Node000005" class="node">
<title>Node5</title>
<g id="a_Node000005"><a xlink:href="Medusa__fwd_8hpp.html" target="_top" xlink:title="Main header file that includes only declarations for some heavy classes such as mm::WLS to reduce com...">
<polygon fill="white" stroke="#666666" points="135,-85 0,-85 0,-55 135,-55 135,-85"/>
<text text-anchor="start" x="8" y="-73" font-family="Helvetica,sans-Serif" font-size="10.00">include/medusa/Medusa</text>
<text text-anchor="middle" x="67.5" y="-62" font-family="Helvetica,sans-Serif" font-size="10.00">_fwd.hpp</text>
</a>
</g>
</g>
<!-- Node2&#45;&gt;Node5 -->
<g id="edge4_Node000002_Node000005" class="edge">
<title>Node2&#45;&gt;Node5</title>
<g id="a_edge4_Node000002_Node000005"><a xlink:title=" ">
<path fill="none" stroke="#63b8ff" d="M113.11,-113.92C103.08,-104.49 91.52,-93.61 82.55,-85.16"/>
<polygon fill="#63b8ff" stroke="#63b8ff" points="110.73,-116.49 120.41,-120.8 115.53,-111.39 110.73,-116.49"/>
</a>
</g>
</g>
<!-- Node4 -->
<g id="Node000004" class="node">
<title>Node4</title>
<g id="a_Node000004"><a xlink:href="Medusa_8hpp.html" target="_top" xlink:title="Main header file that includes most other components.">
<polygon fill="white" stroke="#666666" points="227.5,-19 71.5,-19 71.5,0 227.5,0 227.5,-19"/>
<text text-anchor="middle" x="149.5" y="-7" font-family="Helvetica,sans-Serif" font-size="10.00">include/medusa/Medusa.hpp</text>
</a>
</g>
</g>
<!-- Node3&#45;&gt;Node4 -->
<g id="edge3_Node000003_Node000004" class="edge">
<title>Node3&#45;&gt;Node4</title>
<g id="a_edge3_Node000003_Node000004"><a xlink:title=" ">
<path fill="none" stroke="#63b8ff" d="M210.96,-54.35C195.43,-43.27 174.63,-28.43 161.65,-19.17"/>
<polygon fill="#63b8ff" stroke="#63b8ff" points="209.23,-57.41 219.4,-60.37 213.29,-51.71 209.23,-57.41"/>
</a>
</g>
</g>
<!-- Node5&#45;&gt;Node4 -->
<g id="edge5_Node000005_Node000004" class="edge">
<title>Node5&#45;&gt;Node4</title>
<g id="a_edge5_Node000005_Node000004"><a xlink:title=" ">
<path fill="none" stroke="#63b8ff" d="M95.79,-48.82C109.93,-38.73 126.3,-27.05 137.21,-19.27"/>
<polygon fill="#63b8ff" stroke="#63b8ff" points="93.46,-46.18 87.35,-54.84 97.52,-51.88 93.46,-46.18"/>
</a>
</g>
</g>
<!-- Node6&#45;&gt;Node3 -->
<g id="edge7_Node000006_Node000003" class="edge">
<title>Node6&#45;&gt;Node3</title>
<g id="a_edge7_Node000006_Node000003"><a xlink:title=" ">
<path fill="none" stroke="#63b8ff" d="M280.31,-181.15C269.34,-173.07 258.03,-162.83 250.5,-151 235.94,-128.11 232.53,-95.13 231.73,-79.65"/>
<polygon fill="#63b8ff" stroke="#63b8ff" points="278.36,-184.06 288.57,-186.9 282.36,-178.31 278.36,-184.06"/>
</a>
</g>
</g>
<!-- Node7 -->
<g id="Node000007" class="node">
<title>Node7</title>
<g id="a_Node000007"><a xlink:href="NURBSShape_8hpp.html" target="_top" xlink:title="Implementation of NURBSShape class.">
<polygon fill="white" stroke="#666666" points="409.5,-151 259.5,-151 259.5,-121 409.5,-121 409.5,-151"/>
<text text-anchor="start" x="267.5" y="-139" font-family="Helvetica,sans-Serif" font-size="10.00">include/medusa/bits</text>
<text text-anchor="middle" x="334.5" y="-128" font-family="Helvetica,sans-Serif" font-size="10.00">/domains/NURBSShape.hpp</text>
</a>
</g>
</g>
<!-- Node6&#45;&gt;Node7 -->
<g id="edge8_Node000006_Node000007" class="edge">
<title>Node6&#45;&gt;Node7</title>
<g id="a_edge8_Node000006_Node000007"><a xlink:title=" ">
<path fill="none" stroke="#63b8ff" d="M321.34,-177.11C324.2,-168.38 327.35,-158.78 329.85,-151.16"/>
<polygon fill="#63b8ff" stroke="#63b8ff" points="317.95,-176.2 318.16,-186.8 324.6,-178.39 317.95,-176.2"/>
</a>
</g>
</g>
<!-- Node9 -->
<g id="Node000009" class="node">
<title>Node9</title>
<g id="a_Node000009"><a xlink:href="GeneralSurfaceFill_8cpp.html" target="_top" xlink:title="Instantiations of commonly used GeneralSurfaceFill instances.">
<polygon fill="white" stroke="#666666" points="581.5,-151 427.5,-151 427.5,-121 581.5,-121 581.5,-151"/>
<text text-anchor="start" x="435.5" y="-139" font-family="Helvetica,sans-Serif" font-size="10.00">src/domains/GeneralSurface</text>
<text text-anchor="middle" x="504.5" y="-128" font-family="Helvetica,sans-Serif" font-size="10.00">Fill.cpp</text>
</a>
</g>
</g>
<!-- Node6&#45;&gt;Node9 -->
<g id="edge11_Node000006_Node000009" class="edge">
<title>Node6&#45;&gt;Node9</title>
<g id="a_edge11_Node000006_Node000009"><a xlink:title=" ">
<path fill="none" stroke="#63b8ff" d="M365.06,-183.72C395.66,-173.47 433.97,-160.63 462.68,-151.01"/>
<polygon fill="#63b8ff" stroke="#63b8ff" points="363.79,-180.46 355.42,-186.95 366.01,-187.1 363.79,-180.46"/>
</a>
</g>
</g>
<!-- Node7&#45;&gt;Node3 -->
<g id="edge9_Node000007_Node000003" class="edge">
<title>Node7&#45;&gt;Node3</title>
<g id="a_edge9_Node000007_Node000003"><a xlink:title=" ">
<path fill="none" stroke="#63b8ff" d="M303.36,-115.65C283.96,-103.6 259.97,-88.69 245.21,-79.52"/>
<polygon fill="#63b8ff" stroke="#63b8ff" points="301.56,-118.65 311.9,-120.95 305.25,-112.7 301.56,-118.65"/>
</a>
</g>
</g>
<!-- Node8 -->
<g id="Node000008" class="node">
<title>Node8</title>
<g id="a_Node000008"><a xlink:href="NURBSShape_8cpp.html" target="_top" xlink:title="Instantiations of commonly used NURBSShape instances.">
<polygon fill="white" stroke="#666666" points="491.5,-79.5 327.5,-79.5 327.5,-60.5 491.5,-60.5 491.5,-79.5"/>
<text text-anchor="middle" x="409.5" y="-67.5" font-family="Helvetica,sans-Serif" font-size="10.00">src/domains/NURBSShape.cpp</text>
</a>
</g>
</g>
<!-- Node7&#45;&gt;Node8 -->
<g id="edge10_Node000007_Node000008" class="edge">
<title>Node7&#45;&gt;Node8</title>
<g id="a_edge10_Node000007_Node000008"><a xlink:title=" ">
<path fill="none" stroke="#63b8ff" d="M358.81,-114.26C372.45,-102.61 388.77,-88.69 399.14,-79.84"/>
<polygon fill="#63b8ff" stroke="#63b8ff" points="356.48,-111.64 351.14,-120.8 361.02,-116.97 356.48,-111.64"/>
</a>
</g>
</g>
</g>
</svg>
