<?xml version="1.0" encoding="UTF-8" standalone="no"?>
<!DOCTYPE svg PUBLIC "-//W3C//DTD SVG 1.1//EN"
 "http://www.w3.org/Graphics/SVG/1.1/DTD/svg11.dtd">
<!-- Generated by graphviz version 2.43.0 (0)
 -->
<!-- Title: include/medusa/bits/domains/GeneralFill.hpp Pages: 1 -->
<svg width="1212pt" height="456pt"
 viewBox="0.00 0.00 1212.00 456.00" xmlns="http://www.w3.org/2000/svg" xmlns:xlink="http://www.w3.org/1999/xlink">
<g id="graph0" class="graph" transform="scale(1 1) rotate(0) translate(4 452)">
<title>include/medusa/bits/domains/GeneralFill.hpp</title>
<!-- Node1 -->
<g id="Node000001" class="node">
<title>Node1</title>
<g id="a_Node000001"><a xlink:title="Implementation of the general node placing algorithm.">
<polygon fill="#999999" stroke="#666666" points="885,-448 747,-448 747,-418 885,-418 885,-448"/>
<text text-anchor="start" x="755" y="-436" font-family="Helvetica,sans-Serif" font-size="10.00">include/medusa/bits</text>
<text text-anchor="middle" x="816" y="-425" font-family="Helvetica,sans-Serif" font-size="10.00">/domains/GeneralFill.hpp</text>
</a>
</g>
</g>
<!-- Node2 -->
<g id="Node000002" class="node">
<title>Node2</title>
<g id="a_Node000002"><a xlink:href="Domain_8hpp.html" target="_top" xlink:title="Header for Domain module.">
<polygon fill="white" stroke="#666666" points="614,-79.5 458,-79.5 458,-60.5 614,-60.5 614,-79.5"/>
<text text-anchor="middle" x="536" y="-67.5" font-family="Helvetica,sans-Serif" font-size="10.00">include/medusa/Domain.hpp</text>
</a>
</g>
</g>
<!-- Node1&#45;&gt;Node2 -->
<g id="edge1_Node000001_Node000002" class="edge">
<title>Node1&#45;&gt;Node2</title>
<g id="a_edge1_Node000001_Node000002"><a xlink:title=" ">
<path fill="none" stroke="#63b8ff" d="M739.31,-415.13C674.79,-395.88 593,-357.32 593,-285.5 593,-285.5 593,-285.5 593,-206.5 593,-154.95 557.51,-100.39 542.54,-79.66"/>
<polygon fill="#63b8ff" stroke="#63b8ff" points="738.51,-418.54 749.09,-417.94 740.45,-411.81 738.51,-418.54"/>
</a>
</g>
</g>
<!-- Node4 -->
<g id="Node000004" class="node">
<title>Node4</title>
<g id="a_Node000004"><a xlink:href="BallShape_8hpp.html" target="_top" xlink:title="Implementation of class for ball shaped domains.">
<polygon fill="white" stroke="#666666" points="808,-376.5 674,-376.5 674,-346.5 808,-346.5 808,-376.5"/>
<text text-anchor="start" x="682" y="-364.5" font-family="Helvetica,sans-Serif" font-size="10.00">include/medusa/bits</text>
<text text-anchor="middle" x="741" y="-353.5" font-family="Helvetica,sans-Serif" font-size="10.00">/domains/BallShape.hpp</text>
</a>
</g>
</g>
<!-- Node1&#45;&gt;Node4 -->
<g id="edge3_Node000001_Node000004" class="edge">
<title>Node1&#45;&gt;Node4</title>
<g id="a_edge3_Node000001_Node000004"><a xlink:title=" ">
<path fill="none" stroke="#63b8ff" d="M793.33,-410.99C781.29,-399.84 766.82,-386.43 756.15,-376.54"/>
<polygon fill="#63b8ff" stroke="#63b8ff" points="791.11,-413.71 800.82,-417.94 795.87,-408.57 791.11,-413.71"/>
</a>
</g>
</g>
<!-- Node6 -->
<g id="Node000006" class="node">
<title>Node6</title>
<g id="a_Node000006"><a xlink:href="BoxShape_8hpp.html" target="_top" xlink:title="Implementation of class for box shaped domains.">
<polygon fill="white" stroke="#666666" points="520,-376.5 386,-376.5 386,-346.5 520,-346.5 520,-376.5"/>
<text text-anchor="start" x="394" y="-364.5" font-family="Helvetica,sans-Serif" font-size="10.00">include/medusa/bits</text>
<text text-anchor="middle" x="453" y="-353.5" font-family="Helvetica,sans-Serif" font-size="10.00">/domains/BoxShape.hpp</text>
</a>
</g>
</g>
<!-- Node1&#45;&gt;Node6 -->
<g id="edge6_Node000001_Node000006" class="edge">
<title>Node1&#45;&gt;Node6</title>
<g id="a_edge6_Node000001_Node000006"><a xlink:title=" ">
<path fill="none" stroke="#63b8ff" d="M736.7,-416.82C671.88,-404.41 581.27,-387.06 520.03,-375.33"/>
<polygon fill="#63b8ff" stroke="#63b8ff" points="736.39,-420.32 746.87,-418.76 737.7,-413.45 736.39,-420.32"/>
</a>
</g>
</g>
<!-- Node16 -->
<g id="Node000016" class="node">
<title>Node16</title>
<g id="a_Node000016"><a xlink:href="PolyhedronShape__fwd_8hpp.html" target="_top" xlink:title="Implementation of shape representing polyhedrons.">
<polygon fill="white" stroke="#666666" points="1125.5,-305 976.5,-305 976.5,-264 1125.5,-264 1125.5,-305"/>
<text text-anchor="start" x="984.5" y="-293" font-family="Helvetica,sans-Serif" font-size="10.00">include/medusa/bits</text>
<text text-anchor="start" x="984.5" y="-282" font-family="Helvetica,sans-Serif" font-size="10.00">/domains/PolyhedronShape</text>
<text text-anchor="middle" x="1051" y="-271" font-family="Helvetica,sans-Serif" font-size="10.00">_fwd.hpp</text>
</a>
</g>
</g>
<!-- Node1&#45;&gt;Node16 -->
<g id="edge24_Node000001_Node000016" class="edge">
<title>Node1&#45;&gt;Node16</title>
<g id="a_edge24_Node000001_Node000016"><a xlink:title=" ">
<path fill="none" stroke="#63b8ff" d="M892.28,-415.04C917.08,-407.38 943.88,-396.66 966,-382 974.28,-376.51 1012.14,-332 1034.44,-305.39"/>
<polygon fill="#63b8ff" stroke="#63b8ff" points="891.12,-411.73 882.53,-417.93 893.11,-418.44 891.12,-411.73"/>
</a>
</g>
</g>
<!-- Node19 -->
<g id="Node000019" class="node">
<title>Node19</title>
<g id="a_Node000019"><a xlink:href="discretization__helpers__advanced_8hpp.html" target="_top" xlink:title="Contains helpers for discretizing various geometric objects that need more advanced parts of Medusa t...">
<polygon fill="white" stroke="#666666" points="957.5,-382 826.5,-382 826.5,-341 957.5,-341 957.5,-382"/>
<text text-anchor="start" x="834.5" y="-370" font-family="Helvetica,sans-Serif" font-size="10.00">include/medusa/bits</text>
<text text-anchor="start" x="834.5" y="-359" font-family="Helvetica,sans-Serif" font-size="10.00">/domains/discretization</text>
<text text-anchor="middle" x="892" y="-348" font-family="Helvetica,sans-Serif" font-size="10.00">_helpers_advanced.hpp</text>
</a>
</g>
</g>
<!-- Node1&#45;&gt;Node19 -->
<g id="edge27_Node000001_Node000019" class="edge">
<title>Node1&#45;&gt;Node19</title>
<g id="a_edge27_Node000001_Node000019"><a xlink:title=" ">
<path fill="none" stroke="#63b8ff" d="M839.01,-410.96C849.05,-401.78 860.75,-391.08 870.6,-382.07"/>
<polygon fill="#63b8ff" stroke="#63b8ff" points="836.4,-408.6 831.38,-417.94 841.12,-413.77 836.4,-408.6"/>
</a>
</g>
</g>
<!-- Node22 -->
<g id="Node000022" class="node">
<title>Node22</title>
<g id="a_Node000022"><a xlink:href="GeneralFill_8cpp.html" target="_top" xlink:title="Instantiations of Poisson disk sampling algorithm.">
<polygon fill="white" stroke="#666666" points="1166,-371 1014,-371 1014,-352 1166,-352 1166,-371"/>
<text text-anchor="middle" x="1090" y="-359" font-family="Helvetica,sans-Serif" font-size="10.00">src/domains/GeneralFill.cpp</text>
</a>
</g>
</g>
<!-- Node1&#45;&gt;Node22 -->
<g id="edge32_Node000001_Node000022" class="edge">
<title>Node1&#45;&gt;Node22</title>
<g id="a_edge32_Node000001_Node000022"><a xlink:title=" ">
<path fill="none" stroke="#63b8ff" d="M881.45,-415.4C936.44,-401.45 1012.79,-382.08 1056.22,-371.07"/>
<polygon fill="#63b8ff" stroke="#63b8ff" points="880.28,-412.08 871.45,-417.94 882,-418.87 880.28,-412.08"/>
</a>
</g>
</g>
<!-- Node3 -->
<g id="Node000003" class="node">
<title>Node3</title>
<g id="a_Node000003"><a xlink:href="Medusa_8hpp.html" target="_top" xlink:title="Main header file that includes most other components.">
<polygon fill="white" stroke="#666666" points="506,-19 350,-19 350,0 506,0 506,-19"/>
<text text-anchor="middle" x="428" y="-7" font-family="Helvetica,sans-Serif" font-size="10.00">include/medusa/Medusa.hpp</text>
</a>
</g>
</g>
<!-- Node2&#45;&gt;Node3 -->
<g id="edge2_Node000002_Node000003" class="edge">
<title>Node2&#45;&gt;Node3</title>
<g id="a_edge2_Node000002_Node000003"><a xlink:title=" ">
<path fill="none" stroke="#63b8ff" d="M511.22,-55.58C490.56,-44.38 461.74,-28.77 444,-19.17"/>
<polygon fill="#63b8ff" stroke="#63b8ff" points="509.6,-58.68 520.06,-60.37 512.94,-52.53 509.6,-58.68"/>
</a>
</g>
</g>
<!-- Node4&#45;&gt;Node2 -->
<g id="edge4_Node000004_Node000002" class="edge">
<title>Node4&#45;&gt;Node2</title>
<g id="a_edge4_Node000004_Node000002"><a xlink:title=" ">
<path fill="none" stroke="#63b8ff" d="M760.33,-338.08C767.33,-328.54 774.4,-316.88 778,-305 783.28,-287.56 785.71,-280.51 778,-264 731.7,-164.93 606.09,-101.41 556.52,-79.52"/>
<polygon fill="#63b8ff" stroke="#63b8ff" points="757.39,-336.16 754.01,-346.2 762.92,-340.46 757.39,-336.16"/>
</a>
</g>
</g>
<!-- Node5 -->
<g id="Node000005" class="node">
<title>Node5</title>
<g id="a_Node000005"><a xlink:href="BallShape_8cpp.html" target="_top" xlink:title="Instantiation of class for ball shaped domains.">
<polygon fill="white" stroke="#666666" points="769,-294 621,-294 621,-275 769,-275 769,-294"/>
<text text-anchor="middle" x="695" y="-282" font-family="Helvetica,sans-Serif" font-size="10.00">src/domains/BallShape.cpp</text>
</a>
</g>
</g>
<!-- Node4&#45;&gt;Node5 -->
<g id="edge5_Node000004_Node000005" class="edge">
<title>Node4&#45;&gt;Node5</title>
<g id="a_edge5_Node000004_Node000005"><a xlink:title=" ">
<path fill="none" stroke="#63b8ff" d="M727.11,-337.85C718.14,-323.23 706.97,-305.01 700.44,-294.37"/>
<polygon fill="#63b8ff" stroke="#63b8ff" points="724.14,-339.7 732.35,-346.39 730.1,-336.04 724.14,-339.7"/>
</a>
</g>
</g>
<!-- Node6&#45;&gt;Node2 -->
<g id="edge7_Node000006_Node000002" class="edge">
<title>Node6&#45;&gt;Node2</title>
<g id="a_edge7_Node000006_Node000002"><a xlink:title=" ">
<path fill="none" stroke="#63b8ff" d="M497.99,-341.31C512.84,-332.54 527.68,-320.57 536,-305 577.73,-226.89 548.39,-112.12 538.76,-79.77"/>
<polygon fill="#63b8ff" stroke="#63b8ff" points="495.88,-338.47 488.79,-346.35 499.24,-344.61 495.88,-338.47"/>
</a>
</g>
</g>
<!-- Node7 -->
<g id="Node000007" class="node">
<title>Node7</title>
<g id="a_Node000007"><a xlink:href="NURBSPatch__fwd_8hpp.html" target="_top" xlink:title="Declaration of the NURBS patch class.">
<polygon fill="white" stroke="#666666" points="360.5,-305 235.5,-305 235.5,-264 360.5,-264 360.5,-305"/>
<text text-anchor="start" x="243.5" y="-293" font-family="Helvetica,sans-Serif" font-size="10.00">include/medusa/bits</text>
<text text-anchor="start" x="243.5" y="-282" font-family="Helvetica,sans-Serif" font-size="10.00">/domains/NURBSPatch</text>
<text text-anchor="middle" x="298" y="-271" font-family="Helvetica,sans-Serif" font-size="10.00">_fwd.hpp</text>
</a>
</g>
</g>
<!-- Node6&#45;&gt;Node7 -->
<g id="edge8_Node000006_Node000007" class="edge">
<title>Node6&#45;&gt;Node7</title>
<g id="a_edge8_Node000006_Node000007"><a xlink:title=" ">
<path fill="none" stroke="#63b8ff" d="M414.66,-341.95C391.48,-330.73 361.97,-316.45 338.43,-305.06"/>
<polygon fill="#63b8ff" stroke="#63b8ff" points="413.32,-345.19 423.85,-346.39 416.37,-338.89 413.32,-345.19"/>
</a>
</g>
</g>
<!-- Node11 -->
<g id="Node000011" class="node">
<title>Node11</title>
<g id="a_Node000011"><a xlink:href="NURBSShape_8hpp.html" target="_top" xlink:title="Implementation of NURBSShape class.">
<polygon fill="white" stroke="#666666" points="157,-151 7,-151 7,-121 157,-121 157,-151"/>
<text text-anchor="start" x="15" y="-139" font-family="Helvetica,sans-Serif" font-size="10.00">include/medusa/bits</text>
<text text-anchor="middle" x="82" y="-128" font-family="Helvetica,sans-Serif" font-size="10.00">/domains/NURBSShape.hpp</text>
</a>
</g>
</g>
<!-- Node6&#45;&gt;Node11 -->
<g id="edge22_Node000006_Node000011" class="edge">
<title>Node6&#45;&gt;Node11</title>
<g id="a_edge22_Node000006_Node000011"><a xlink:title=" ">
<path fill="none" stroke="#63b8ff" d="M375.69,-350.29C330.36,-342.22 272.97,-328.3 226,-305 177.31,-280.85 165.67,-269.85 131,-228 110.97,-203.82 95.43,-170.17 87.6,-151.3"/>
<polygon fill="#63b8ff" stroke="#63b8ff" points="375.3,-353.77 385.75,-352.02 376.49,-346.88 375.3,-353.77"/>
</a>
</g>
</g>
<!-- Node15 -->
<g id="Node000015" class="node">
<title>Node15</title>
<g id="a_Node000015"><a xlink:href="BoxShape_8cpp.html" target="_top" xlink:title="Instantiation of class for box shaped domains.">
<polygon fill="white" stroke="#666666" points="527,-294 379,-294 379,-275 527,-275 527,-294"/>
<text text-anchor="middle" x="453" y="-282" font-family="Helvetica,sans-Serif" font-size="10.00">src/domains/BoxShape.cpp</text>
</a>
</g>
</g>
<!-- Node6&#45;&gt;Node15 -->
<g id="edge23_Node000006_Node000015" class="edge">
<title>Node6&#45;&gt;Node15</title>
<g id="a_edge23_Node000006_Node000015"><a xlink:title=" ">
<path fill="none" stroke="#63b8ff" d="M453,-336.18C453,-321.86 453,-304.61 453,-294.37"/>
<polygon fill="#63b8ff" stroke="#63b8ff" points="449.5,-336.39 453,-346.39 456.5,-336.39 449.5,-336.39"/>
</a>
</g>
</g>
<!-- Node8 -->
<g id="Node000008" class="node">
<title>Node8</title>
<g id="a_Node000008"><a xlink:href="Domain__fwd_8hpp.html" target="_top" xlink:title="Header for Domain module, declarations only.">
<polygon fill="white" stroke="#666666" points="310.5,-151 175.5,-151 175.5,-121 310.5,-121 310.5,-151"/>
<text text-anchor="start" x="183.5" y="-139" font-family="Helvetica,sans-Serif" font-size="10.00">include/medusa/Domain</text>
<text text-anchor="middle" x="243" y="-128" font-family="Helvetica,sans-Serif" font-size="10.00">_fwd.hpp</text>
</a>
</g>
</g>
<!-- Node7&#45;&gt;Node8 -->
<g id="edge9_Node000007_Node000008" class="edge">
<title>Node7&#45;&gt;Node8</title>
<g id="a_edge9_Node000007_Node000008"><a xlink:title=" ">
<path fill="none" stroke="#63b8ff" d="M295.01,-253.78C292.28,-234.2 287.21,-208.34 278,-187 272.37,-173.96 263.05,-160.88 255.44,-151.36"/>
<polygon fill="#63b8ff" stroke="#63b8ff" points="291.56,-254.46 296.29,-263.94 298.51,-253.58 291.56,-254.46"/>
</a>
</g>
</g>
<!-- Node10 -->
<g id="Node000010" class="node">
<title>Node10</title>
<g id="a_Node000010"><a xlink:href="NURBSPatch_8hpp.html" target="_top" xlink:title="Implementation of the NURBS patch class.">
<polygon fill="white" stroke="#666666" points="477,-222.5 331,-222.5 331,-192.5 477,-192.5 477,-222.5"/>
<text text-anchor="start" x="339" y="-210.5" font-family="Helvetica,sans-Serif" font-size="10.00">include/medusa/bits</text>
<text text-anchor="middle" x="404" y="-199.5" font-family="Helvetica,sans-Serif" font-size="10.00">/domains/NURBSPatch.hpp</text>
</a>
</g>
</g>
<!-- Node7&#45;&gt;Node10 -->
<g id="edge13_Node000007_Node000010" class="edge">
<title>Node7&#45;&gt;Node10</title>
<g id="a_edge13_Node000007_Node000010"><a xlink:title=" ">
<path fill="none" stroke="#63b8ff" d="M334.02,-258.01C350.69,-246.22 369.87,-232.65 383.93,-222.7"/>
<polygon fill="#63b8ff" stroke="#63b8ff" points="331.72,-255.36 325.57,-263.99 335.76,-261.07 331.72,-255.36"/>
</a>
</g>
</g>
<!-- Node14 -->
<g id="Node000014" class="node">
<title>Node14</title>
<g id="a_Node000014"><a xlink:href="NURBSShape__fwd_8hpp.html" target="_top" xlink:title="Declaration of NURBSShape class.">
<polygon fill="white" stroke="#666666" points="269.5,-228 140.5,-228 140.5,-187 269.5,-187 269.5,-228"/>
<text text-anchor="start" x="148.5" y="-216" font-family="Helvetica,sans-Serif" font-size="10.00">include/medusa/bits</text>
<text text-anchor="start" x="148.5" y="-205" font-family="Helvetica,sans-Serif" font-size="10.00">/domains/NURBSShape</text>
<text text-anchor="middle" x="205" y="-194" font-family="Helvetica,sans-Serif" font-size="10.00">_fwd.hpp</text>
</a>
</g>
</g>
<!-- Node7&#45;&gt;Node14 -->
<g id="edge19_Node000007_Node000014" class="edge">
<title>Node7&#45;&gt;Node14</title>
<g id="a_edge19_Node000007_Node000014"><a xlink:title=" ">
<path fill="none" stroke="#63b8ff" d="M265.57,-257.35C253.65,-247.73 240.36,-237.01 229.27,-228.07"/>
<polygon fill="#63b8ff" stroke="#63b8ff" points="263.58,-260.24 273.57,-263.79 267.98,-254.79 263.58,-260.24"/>
</a>
</g>
</g>
<!-- Node8&#45;&gt;Node2 -->
<g id="edge10_Node000008_Node000002" class="edge">
<title>Node8&#45;&gt;Node2</title>
<g id="a_edge10_Node000008_Node000002"><a xlink:title=" ">
<path fill="none" stroke="#63b8ff" d="M317.38,-118.75C374.58,-106.26 451.31,-89.5 497.01,-79.52"/>
<polygon fill="#63b8ff" stroke="#63b8ff" points="316.32,-115.4 307.3,-120.95 317.82,-122.24 316.32,-115.4"/>
</a>
</g>
</g>
<!-- Node9 -->
<g id="Node000009" class="node">
<title>Node9</title>
<g id="a_Node000009"><a xlink:href="Medusa__fwd_8hpp.html" target="_top" xlink:title="Main header file that includes only declarations for some heavy classes such as mm::WLS to reduce com...">
<polygon fill="white" stroke="#666666" points="388.5,-85 253.5,-85 253.5,-55 388.5,-55 388.5,-85"/>
<text text-anchor="start" x="261.5" y="-73" font-family="Helvetica,sans-Serif" font-size="10.00">include/medusa/Medusa</text>
<text text-anchor="middle" x="321" y="-62" font-family="Helvetica,sans-Serif" font-size="10.00">_fwd.hpp</text>
</a>
</g>
</g>
<!-- Node8&#45;&gt;Node9 -->
<g id="edge11_Node000008_Node000009" class="edge">
<title>Node8&#45;&gt;Node9</title>
<g id="a_edge11_Node000008_Node000009"><a xlink:title=" ">
<path fill="none" stroke="#63b8ff" d="M268.35,-114.2C279.93,-104.7 293.35,-93.69 303.74,-85.16"/>
<polygon fill="#63b8ff" stroke="#63b8ff" points="265.82,-111.75 260.31,-120.8 270.26,-117.16 265.82,-111.75"/>
</a>
</g>
</g>
<!-- Node9&#45;&gt;Node3 -->
<g id="edge12_Node000009_Node000003" class="edge">
<title>Node9&#45;&gt;Node3</title>
<g id="a_edge12_Node000009_Node000003"><a xlink:title=" ">
<path fill="none" stroke="#63b8ff" d="M355.63,-50.07C374.67,-39.66 397.36,-27.25 412.2,-19.14"/>
<polygon fill="#63b8ff" stroke="#63b8ff" points="353.72,-47.12 346.63,-54.99 357.08,-53.26 353.72,-47.12"/>
</a>
</g>
</g>
<!-- Node10&#45;&gt;Node2 -->
<g id="edge14_Node000010_Node000002" class="edge">
<title>Node10&#45;&gt;Node2</title>
<g id="a_edge14_Node000010_Node000002"><a xlink:title=" ">
<path fill="none" stroke="#63b8ff" d="M447.68,-187.66C465.01,-178.54 484.08,-166.23 498,-151 517.81,-129.32 529.21,-95.46 533.73,-79.66"/>
<polygon fill="#63b8ff" stroke="#63b8ff" points="445.63,-184.77 438.27,-192.4 448.78,-191.03 445.63,-184.77"/>
</a>
</g>
</g>
<!-- Node10&#45;&gt;Node11 -->
<g id="edge15_Node000010_Node000011" class="edge">
<title>Node10&#45;&gt;Node11</title>
<g id="a_edge15_Node000010_Node000011"><a xlink:title=" ">
<path fill="none" stroke="#63b8ff" d="M328.78,-190.26C273.67,-178.37 199.63,-162.39 147.06,-151.04"/>
<polygon fill="#63b8ff" stroke="#63b8ff" points="328.33,-193.75 338.84,-192.44 329.8,-186.9 328.33,-193.75"/>
</a>
</g>
</g>
<!-- Node13 -->
<g id="Node000013" class="node">
<title>Node13</title>
<g id="a_Node000013"><a xlink:href="NURBSPatch_8cpp.html" target="_top" xlink:title="Instantiations of commonly used NURBSPatch instances.">
<polygon fill="white" stroke="#666666" points="489,-145.5 329,-145.5 329,-126.5 489,-126.5 489,-145.5"/>
<text text-anchor="middle" x="409" y="-133.5" font-family="Helvetica,sans-Serif" font-size="10.00">src/domains/NURBSPatch.cpp</text>
</a>
</g>
</g>
<!-- Node10&#45;&gt;Node13 -->
<g id="edge18_Node000010_Node000013" class="edge">
<title>Node10&#45;&gt;Node13</title>
<g id="a_edge18_Node000010_Node000013"><a xlink:title=" ">
<path fill="none" stroke="#63b8ff" d="M405.73,-182.44C406.64,-169.74 407.71,-154.94 408.37,-145.77"/>
<polygon fill="#63b8ff" stroke="#63b8ff" points="402.24,-182.21 405.01,-192.44 409.22,-182.71 402.24,-182.21"/>
</a>
</g>
</g>
<!-- Node11&#45;&gt;Node2 -->
<g id="edge16_Node000011_Node000002" class="edge">
<title>Node11&#45;&gt;Node2</title>
<g id="a_edge16_Node000011_Node000002"><a xlink:title=" ">
<path fill="none" stroke="#63b8ff" d="M167.16,-120.85C278.58,-104.16 396.32,-88.71 468.39,-79.5"/>
<polygon fill="#63b8ff" stroke="#63b8ff" points="166.46,-117.42 157.09,-122.37 167.5,-124.34 166.46,-117.42"/>
</a>
</g>
</g>
<!-- Node12 -->
<g id="Node000012" class="node">
<title>Node12</title>
<g id="a_Node000012"><a xlink:href="NURBSShape_8cpp.html" target="_top" xlink:title="Instantiations of commonly used NURBSShape instances.">
<polygon fill="white" stroke="#666666" points="164,-79.5 0,-79.5 0,-60.5 164,-60.5 164,-79.5"/>
<text text-anchor="middle" x="82" y="-67.5" font-family="Helvetica,sans-Serif" font-size="10.00">src/domains/NURBSShape.cpp</text>
</a>
</g>
</g>
<!-- Node11&#45;&gt;Node12 -->
<g id="edge17_Node000011_Node000012" class="edge">
<title>Node11&#45;&gt;Node12</title>
<g id="a_edge17_Node000011_Node000012"><a xlink:title=" ">
<path fill="none" stroke="#63b8ff" d="M82,-110.6C82,-99.8 82,-87.78 82,-79.84"/>
<polygon fill="#63b8ff" stroke="#63b8ff" points="78.5,-110.8 82,-120.8 85.5,-110.8 78.5,-110.8"/>
</a>
</g>
</g>
<!-- Node14&#45;&gt;Node8 -->
<g id="edge20_Node000014_Node000008" class="edge">
<title>Node14&#45;&gt;Node8</title>
<g id="a_edge20_Node000014_Node000008"><a xlink:title=" ">
<path fill="none" stroke="#63b8ff" d="M220.68,-177.82C225.73,-168.58 231.11,-158.74 235.32,-151.04"/>
<polygon fill="#63b8ff" stroke="#63b8ff" points="217.51,-176.32 215.79,-186.77 223.66,-179.67 217.51,-176.32"/>
</a>
</g>
</g>
<!-- Node14&#45;&gt;Node11 -->
<g id="edge21_Node000014_Node000011" class="edge">
<title>Node14&#45;&gt;Node11</title>
<g id="a_edge21_Node000014_Node000011"><a xlink:title=" ">
<path fill="none" stroke="#63b8ff" d="M161.64,-182C143.33,-171.66 122.67,-159.98 106.98,-151.11"/>
<polygon fill="#63b8ff" stroke="#63b8ff" points="159.98,-185.08 170.41,-186.96 163.43,-178.99 159.98,-185.08"/>
</a>
</g>
</g>
<!-- Node17 -->
<g id="Node000017" class="node">
<title>Node17</title>
<g id="a_Node000017"><a xlink:href="PolyhedronShape_8hpp_source.html" target="_top" xlink:title=" ">
<polygon fill="white" stroke="#666666" points="1197,-222.5 1027,-222.5 1027,-192.5 1197,-192.5 1197,-222.5"/>
<text text-anchor="start" x="1035" y="-210.5" font-family="Helvetica,sans-Serif" font-size="10.00">include/medusa/bits</text>
<text text-anchor="middle" x="1112" y="-199.5" font-family="Helvetica,sans-Serif" font-size="10.00">/domains/PolyhedronShape.hpp</text>
</a>
</g>
</g>
<!-- Node16&#45;&gt;Node17 -->
<g id="edge25_Node000016_Node000017" class="edge">
<title>Node16&#45;&gt;Node17</title>
<g id="a_edge25_Node000016_Node000017"><a xlink:title=" ">
<path fill="none" stroke="#63b8ff" d="M1073.44,-255.92C1082.56,-244.7 1092.72,-232.21 1100.32,-222.86"/>
<polygon fill="#63b8ff" stroke="#63b8ff" points="1070.62,-253.83 1067.03,-263.79 1076.05,-258.25 1070.62,-253.83"/>
</a>
</g>
</g>
<!-- Node18 -->
<g id="Node000018" class="node">
<title>Node18</title>
<g id="a_Node000018"><a xlink:href="PolyhedronShape_8cpp.html" target="_top" xlink:title="Instantiation of PolyhedronShape class.">
<polygon fill="white" stroke="#666666" points="1204,-145.5 1020,-145.5 1020,-126.5 1204,-126.5 1204,-145.5"/>
<text text-anchor="middle" x="1112" y="-133.5" font-family="Helvetica,sans-Serif" font-size="10.00">src/domains/PolyhedronShape.cpp</text>
</a>
</g>
</g>
<!-- Node17&#45;&gt;Node18 -->
<g id="edge26_Node000017_Node000018" class="edge">
<title>Node17&#45;&gt;Node18</title>
<g id="a_edge26_Node000017_Node000018"><a xlink:title=" ">
<path fill="none" stroke="#63b8ff" d="M1112,-182.06C1112,-169.45 1112,-154.85 1112,-145.77"/>
<polygon fill="#63b8ff" stroke="#63b8ff" points="1108.5,-182.44 1112,-192.44 1115.5,-182.44 1108.5,-182.44"/>
</a>
</g>
</g>
<!-- Node19&#45;&gt;Node16 -->
<g id="edge28_Node000019_Node000016" class="edge">
<title>Node19&#45;&gt;Node16</title>
<g id="a_edge28_Node000019_Node000016"><a xlink:title=" ">
<path fill="none" stroke="#63b8ff" d="M942.41,-336.72C964.05,-326.51 989.03,-314.73 1009.57,-305.04"/>
<polygon fill="#63b8ff" stroke="#63b8ff" points="940.91,-333.56 933.36,-340.99 943.9,-339.89 940.91,-333.56"/>
</a>
</g>
</g>
<!-- Node20 -->
<g id="Node000020" class="node">
<title>Node20</title>
<g id="a_Node000020"><a xlink:href="STLShape_8hpp.html" target="_top" xlink:title="Implementation of STL shapes.">
<polygon fill="white" stroke="#666666" points="958.5,-299.5 825.5,-299.5 825.5,-269.5 958.5,-269.5 958.5,-299.5"/>
<text text-anchor="start" x="833.5" y="-287.5" font-family="Helvetica,sans-Serif" font-size="10.00">include/medusa/bits</text>
<text text-anchor="middle" x="892" y="-276.5" font-family="Helvetica,sans-Serif" font-size="10.00">/domains/STLShape.hpp</text>
</a>
</g>
</g>
<!-- Node19&#45;&gt;Node20 -->
<g id="edge29_Node000019_Node000020" class="edge">
<title>Node19&#45;&gt;Node20</title>
<g id="a_edge29_Node000019_Node000020"><a xlink:title=" ">
<path fill="none" stroke="#63b8ff" d="M892,-330.61C892,-320.01 892,-308.57 892,-299.86"/>
<polygon fill="#63b8ff" stroke="#63b8ff" points="888.5,-330.79 892,-340.79 895.5,-330.79 888.5,-330.79"/>
</a>
</g>
</g>
<!-- Node20&#45;&gt;Node2 -->
<g id="edge30_Node000020_Node000002" class="edge">
<title>Node20&#45;&gt;Node2</title>
<g id="a_edge30_Node000020_Node000002"><a xlink:title=" ">
<path fill="none" stroke="#63b8ff" d="M875.19,-261.35C868.12,-251.46 860.14,-239.47 854,-228 829.82,-182.81 850.71,-153.4 811,-121 781.48,-96.92 684.74,-83.57 614.33,-76.85"/>
<polygon fill="#63b8ff" stroke="#63b8ff" points="872.37,-263.43 881.1,-269.44 878.03,-259.3 872.37,-263.43"/>
</a>
</g>
</g>
<!-- Node21 -->
<g id="Node000021" class="node">
<title>Node21</title>
<g id="a_Node000021"><a xlink:href="STLShape_8cpp.html" target="_top" xlink:title="Instantiation of class for STL domains.">
<polygon fill="white" stroke="#666666" points="1009,-217 863,-217 863,-198 1009,-198 1009,-217"/>
<text text-anchor="middle" x="936" y="-205" font-family="Helvetica,sans-Serif" font-size="10.00">src/domains/STLShape.cpp</text>
</a>
</g>
</g>
<!-- Node20&#45;&gt;Node21 -->
<g id="edge31_Node000020_Node000021" class="edge">
<title>Node20&#45;&gt;Node21</title>
<g id="a_edge31_Node000020_Node000021"><a xlink:title=" ">
<path fill="none" stroke="#63b8ff" d="M905.53,-260.44C914.07,-245.89 924.61,-227.91 930.79,-217.37"/>
<polygon fill="#63b8ff" stroke="#63b8ff" points="902.32,-259 900.28,-269.39 908.36,-262.54 902.32,-259"/>
</a>
</g>
</g>
</g>
</svg>
