<?xml version="1.0" encoding="UTF-8" standalone="no"?>
<!DOCTYPE svg PUBLIC "-//W3C//DTD SVG 1.1//EN"
 "http://www.w3.org/Graphics/SVG/1.1/DTD/svg11.dtd">
<!-- Generated by graphviz version 2.43.0 (0)
 -->
<!-- Title: include/medusa/bits/domains/GeneralFill_fwd.hpp Pages: 1 -->
<!--zoomable 533 -->

<svg id="main" version="1.1" xmlns="http://www.w3.org/2000/svg" xmlns:xlink="http://www.w3.org/1999/xlink" xml:space="preserve" onload="init(evt)">
<style type="text/css"><![CDATA[
.node, .edge {opacity: 0.7;}
.node.selected, .edge.selected {opacity: 1;}
.edge:hover path { stroke: red; }
.edge:hover polygon { stroke: red; fill: red; }
]]></style>

<defs>
  <circle id="rim" cx="0" cy="0" r="7"/>
  <circle id="rim2" cx="0" cy="0" r="3.5"/>
  <g id="zoomPlus">
    <use xlink:href="#rim" fill="#404040"><set attributeName="fill" to="#808080" begin="zoomplus.mouseover" end="zoomplus.mouseout"/></use>
    <path d="M-4,0h8M0,-4v8" fill="none" stroke="white" stroke-width="1.5" pointer-events="none"/>
  </g>
  <g id="zoomMin">
    <use xlink:href="#rim" fill="#404040"><set attributeName="fill" to="#808080" begin="zoomminus.mouseover" end="zoomminus.mouseout"/></use>
    <path d="M-4,0h8" fill="none" stroke="white" stroke-width="1.5" pointer-events="none"/>
  </g>
  <g id="arrowUp" transform="translate(30 24)">
    <use xlink:href="#rim"/>
    <path pointer-events="none" fill="none" stroke="white" stroke-width="1.5" d="M0,-3.0v7 M-2.5,-0.5L0,-3.0L2.5,-0.5"/>
  </g>
  <g id="arrowRight" transform="rotate(90) translate(36 -43)">
    <use xlink:href="#rim"/>
    <path pointer-events="none" fill="none" stroke="white" stroke-width="1.5" d="M0,-3.0v7 M-2.5,-0.5L0,-3.0L2.5,-0.5"/>
  </g>
  <g id="arrowDown" transform="rotate(180) translate(-30 -48)">
    <use xlink:href="#rim"/>
    <path pointer-events="none" fill="none" stroke="white" stroke-width="1.5" d="M0,-3.0v7 M-2.5,-0.5L0,-3.0L2.5,-0.5"/>
  </g>
  <g id="arrowLeft" transform="rotate(270) translate(-36 17)">
    <use xlink:href="#rim"/>
    <path pointer-events="none" fill="none" stroke="white" stroke-width="1.5" d="M0,-3.0v7 M-2.5,-0.5L0,-3.0L2.5,-0.5"/>
  </g>
  <g id="resetDef">
    <use xlink:href="#rim2" fill="#404040"><set attributeName="fill" to="#808080" begin="reset.mouseover" end="reset.mouseout"/></use>
  </g>
</defs>
<script type="application/ecmascript">
var viewWidth = 1117;
var viewHeight = 533;
var sectionId = 'dynsection-1';
</script>
<script type="application/ecmascript" xlink:href="svg.min.js"/>
<svg id="graph" class="graph">
<g id="viewport">
<title>include/medusa/bits/domains/GeneralFill_fwd.hpp</title>
<!-- Node1 -->
<g id="Node000001" class="node">
<title>Node1</title>
<g id="a_Node000001"><a xlink:title="Declaration of the general node placing algorithm.">
<polygon fill="#999999" stroke="#666666" points="889.5,-525 772.5,-525 772.5,-484 889.5,-484 889.5,-525"/>
<text text-anchor="start" x="780.5" y="-513" font-family="Helvetica,sans-Serif" font-size="10.00">include/medusa/bits</text>
<text text-anchor="start" x="780.5" y="-502" font-family="Helvetica,sans-Serif" font-size="10.00">/domains/GeneralFill</text>
<text text-anchor="middle" x="831" y="-491" font-family="Helvetica,sans-Serif" font-size="10.00">_fwd.hpp</text>
</a>
</g>
</g>
<!-- Node2 -->
<g id="Node000002" class="node">
<title>Node2</title>
<g id="a_Node000002"><a xlink:href="Domain__fwd_8hpp.html" target="_top" xlink:title="Header for Domain module, declarations only.">
<polygon fill="white" stroke="#666666" points="1108.5,-151 973.5,-151 973.5,-121 1108.5,-121 1108.5,-151"/>
<text text-anchor="start" x="981.5" y="-139" font-family="Helvetica,sans-Serif" font-size="10.00">include/medusa/Domain</text>
<text text-anchor="middle" x="1041" y="-128" font-family="Helvetica,sans-Serif" font-size="10.00">_fwd.hpp</text>
</a>
</g>
</g>
<!-- Node1&#45;&gt;Node2 -->
<g id="edge1_Node000001_Node000002" class="edge">
<title>Node1&#45;&gt;Node2</title>
<g id="a_edge1_Node000001_Node000002"><a xlink:title=" ">
<path fill="none" stroke="#63b8ff" d="M899.43,-491.39C966.91,-475.06 1060,-438.71 1060,-362.5 1060,-362.5 1060,-362.5 1060,-283.5 1060,-234.51 1049.42,-177.07 1044.05,-151.06"/>
<polygon fill="#63b8ff" stroke="#63b8ff" points="898.62,-487.99 889.68,-493.66 900.21,-494.81 898.62,-487.99"/>
</a>
</g>
</g>
<!-- Node6 -->
<g id="Node000006" class="node">
<title>Node6</title>
<g id="a_Node000006"><a xlink:href="GeneralFill_8hpp.html" target="_top" xlink:title="Implementation of the general node placing algorithm.">
<polygon fill="white" stroke="#666666" points="639,-448 501,-448 501,-418 639,-418 639,-448"/>
<text text-anchor="start" x="509" y="-436" font-family="Helvetica,sans-Serif" font-size="10.00">include/medusa/bits</text>
<text text-anchor="middle" x="570" y="-425" font-family="Helvetica,sans-Serif" font-size="10.00">/domains/GeneralFill.hpp</text>
</a>
</g>
</g>
<!-- Node1&#45;&gt;Node6 -->
<g id="edge6_Node000001_Node000006" class="edge">
<title>Node1&#45;&gt;Node6</title>
<g id="a_edge6_Node000001_Node000006"><a xlink:title=" ">
<path fill="none" stroke="#63b8ff" d="M762.71,-485.32C718.93,-473.66 662.95,-458.75 622.62,-448.01"/>
<polygon fill="#63b8ff" stroke="#63b8ff" points="761.86,-488.71 772.43,-487.9 763.66,-481.95 761.86,-488.71"/>
</a>
</g>
</g>
<!-- Node3 -->
<g id="Node000003" class="node">
<title>Node3</title>
<g id="a_Node000003"><a xlink:href="Domain_8hpp.html" target="_top" xlink:title="Header for Domain module.">
<polygon fill="white" stroke="#666666" points="706,-79.5 550,-79.5 550,-60.5 706,-60.5 706,-79.5"/>
<text text-anchor="middle" x="628" y="-67.5" font-family="Helvetica,sans-Serif" font-size="10.00">include/medusa/Domain.hpp</text>
</a>
</g>
</g>
<!-- Node2&#45;&gt;Node3 -->
<g id="edge2_Node000002_Node000003" class="edge">
<title>Node2&#45;&gt;Node3</title>
<g id="a_edge2_Node000002_Node000003"><a xlink:title=" ">
<path fill="none" stroke="#63b8ff" d="M963.54,-120.96C861.36,-104.18 754.73,-88.75 689.4,-79.53"/>
<polygon fill="#63b8ff" stroke="#63b8ff" points="962.98,-124.41 973.42,-122.59 964.12,-117.5 962.98,-124.41"/>
</a>
</g>
</g>
<!-- Node5 -->
<g id="Node000005" class="node">
<title>Node5</title>
<g id="a_Node000005"><a xlink:href="Medusa__fwd_8hpp.html" target="_top" xlink:title="Main header file that includes only declarations for some heavy classes such as mm::WLS to reduce com...">
<polygon fill="white" stroke="#666666" points="1108.5,-85 973.5,-85 973.5,-55 1108.5,-55 1108.5,-85"/>
<text text-anchor="start" x="981.5" y="-73" font-family="Helvetica,sans-Serif" font-size="10.00">include/medusa/Medusa</text>
<text text-anchor="middle" x="1041" y="-62" font-family="Helvetica,sans-Serif" font-size="10.00">_fwd.hpp</text>
</a>
</g>
</g>
<!-- Node2&#45;&gt;Node5 -->
<g id="edge4_Node000002_Node000005" class="edge">
<title>Node2&#45;&gt;Node5</title>
<g id="a_edge4_Node000002_Node000005"><a xlink:title=" ">
<path fill="none" stroke="#63b8ff" d="M1041,-110.54C1041,-101.96 1041,-92.61 1041,-85.16"/>
<polygon fill="#63b8ff" stroke="#63b8ff" points="1037.5,-110.8 1041,-120.8 1044.5,-110.8 1037.5,-110.8"/>
</a>
</g>
</g>
<!-- Node4 -->
<g id="Node000004" class="node">
<title>Node4</title>
<g id="a_Node000004"><a xlink:href="Medusa_8hpp.html" target="_top" xlink:title="Main header file that includes most other components.">
<polygon fill="white" stroke="#666666" points="879,-19 723,-19 723,0 879,0 879,-19"/>
<text text-anchor="middle" x="801" y="-7" font-family="Helvetica,sans-Serif" font-size="10.00">include/medusa/Medusa.hpp</text>
</a>
</g>
</g>
<!-- Node3&#45;&gt;Node4 -->
<g id="edge3_Node000003_Node000004" class="edge">
<title>Node3&#45;&gt;Node4</title>
<g id="a_edge3_Node000003_Node000004"><a xlink:title=" ">
<path fill="none" stroke="#63b8ff" d="M662.98,-57.17C696.44,-45.86 746.08,-29.07 775.81,-19.02"/>
<polygon fill="#63b8ff" stroke="#63b8ff" points="661.51,-53.97 653.16,-60.49 663.75,-60.61 661.51,-53.97"/>
</a>
</g>
</g>
<!-- Node5&#45;&gt;Node4 -->
<g id="edge5_Node000005_Node000004" class="edge">
<title>Node5&#45;&gt;Node4</title>
<g id="a_edge5_Node000005_Node000004"><a xlink:title=" ">
<path fill="none" stroke="#63b8ff" d="M973.59,-52.57C928.9,-41.67 872.06,-27.82 836.09,-19.05"/>
<polygon fill="#63b8ff" stroke="#63b8ff" points="972.97,-56.02 983.51,-54.99 974.63,-49.22 972.97,-56.02"/>
</a>
</g>
</g>
<!-- Node6&#45;&gt;Node3 -->
<g id="edge7_Node000006_Node000003" class="edge">
<title>Node6&#45;&gt;Node3</title>
<g id="a_edge7_Node000006_Node000003"><a xlink:title=" ">
<path fill="none" stroke="#63b8ff" d="M490.7,-427.77C381.87,-421.16 192.41,-406.53 128,-382 61.42,-356.65 0,-356.74 0,-285.5 0,-285.5 0,-285.5 0,-206.5 0,-95.24 381.39,-75.1 549.73,-71.63"/>
<polygon fill="#63b8ff" stroke="#63b8ff" points="490.78,-431.28 500.97,-428.38 491.2,-424.29 490.78,-431.28"/>
</a>
</g>
</g>
<!-- Node7 -->
<g id="Node000007" class="node">
<title>Node7</title>
<g id="a_Node000007"><a xlink:href="BallShape_8hpp.html" target="_top" xlink:title="Implementation of class for ball shaped domains.">
<polygon fill="white" stroke="#666666" points="271,-376.5 137,-376.5 137,-346.5 271,-346.5 271,-376.5"/>
<text text-anchor="start" x="145" y="-364.5" font-family="Helvetica,sans-Serif" font-size="10.00">include/medusa/bits</text>
<text text-anchor="middle" x="204" y="-353.5" font-family="Helvetica,sans-Serif" font-size="10.00">/domains/BallShape.hpp</text>
</a>
</g>
</g>
<!-- Node6&#45;&gt;Node7 -->
<g id="edge8_Node000006_Node000007" class="edge">
<title>Node6&#45;&gt;Node7</title>
<g id="a_edge8_Node000006_Node000007"><a xlink:title=" ">
<path fill="none" stroke="#63b8ff" d="M490.85,-416.97C425.29,-404.52 333.14,-387.02 271.14,-375.25"/>
<polygon fill="#63b8ff" stroke="#63b8ff" points="490.25,-420.42 500.73,-418.85 491.56,-413.54 490.25,-420.42"/>
</a>
</g>
</g>
<!-- Node9 -->
<g id="Node000009" class="node">
<title>Node9</title>
<g id="a_Node000009"><a xlink:href="BoxShape_8hpp.html" target="_top" xlink:title="Implementation of class for box shaped domains.">
<polygon fill="white" stroke="#666666" points="741,-376.5 607,-376.5 607,-346.5 741,-346.5 741,-376.5"/>
<text text-anchor="start" x="615" y="-364.5" font-family="Helvetica,sans-Serif" font-size="10.00">include/medusa/bits</text>
<text text-anchor="middle" x="674" y="-353.5" font-family="Helvetica,sans-Serif" font-size="10.00">/domains/BoxShape.hpp</text>
</a>
</g>
</g>
<!-- Node6&#45;&gt;Node9 -->
<g id="edge11_Node000006_Node000009" class="edge">
<title>Node6&#45;&gt;Node9</title>
<g id="a_edge11_Node000006_Node000009"><a xlink:title=" ">
<path fill="none" stroke="#63b8ff" d="M599.55,-412.25C616.59,-400.86 637.63,-386.81 652.99,-376.54"/>
<polygon fill="#63b8ff" stroke="#63b8ff" points="597.42,-409.47 591.05,-417.94 601.31,-415.29 597.42,-409.47"/>
</a>
</g>
</g>
<!-- Node17 -->
<g id="Node000017" class="node">
<title>Node17</title>
<g id="a_Node000017"><a xlink:href="PolyhedronShape__fwd_8hpp.html" target="_top" xlink:title="Implementation of shape representing polyhedrons.">
<polygon fill="white" stroke="#666666" points="593.5,-305 444.5,-305 444.5,-264 593.5,-264 593.5,-305"/>
<text text-anchor="start" x="452.5" y="-293" font-family="Helvetica,sans-Serif" font-size="10.00">include/medusa/bits</text>
<text text-anchor="start" x="452.5" y="-282" font-family="Helvetica,sans-Serif" font-size="10.00">/domains/PolyhedronShape</text>
<text text-anchor="middle" x="519" y="-271" font-family="Helvetica,sans-Serif" font-size="10.00">_fwd.hpp</text>
</a>
</g>
</g>
<!-- Node6&#45;&gt;Node17 -->
<g id="edge26_Node000006_Node000017" class="edge">
<title>Node6&#45;&gt;Node17</title>
<g id="a_edge26_Node000006_Node000017"><a xlink:title=" ">
<path fill="none" stroke="#63b8ff" d="M567.06,-407.7C564.3,-389.02 559.32,-362.81 551,-341 546.2,-328.43 538.79,-315.34 532.31,-305.03"/>
<polygon fill="#63b8ff" stroke="#63b8ff" points="563.61,-408.3 568.44,-417.73 570.55,-407.35 563.61,-408.3"/>
</a>
</g>
</g>
<!-- Node20 -->
<g id="Node000020" class="node">
<title>Node20</title>
<g id="a_Node000020"><a xlink:href="discretization__helpers__advanced_8hpp.html" target="_top" xlink:title="Contains helpers for discretizing various geometric objects that need more advanced parts of Medusa t...">
<polygon fill="white" stroke="#666666" points="541.5,-382 410.5,-382 410.5,-341 541.5,-341 541.5,-382"/>
<text text-anchor="start" x="418.5" y="-370" font-family="Helvetica,sans-Serif" font-size="10.00">include/medusa/bits</text>
<text text-anchor="start" x="418.5" y="-359" font-family="Helvetica,sans-Serif" font-size="10.00">/domains/discretization</text>
<text text-anchor="middle" x="476" y="-348" font-family="Helvetica,sans-Serif" font-size="10.00">_helpers_advanced.hpp</text>
</a>
</g>
</g>
<!-- Node6&#45;&gt;Node20 -->
<g id="edge29_Node000006_Node000020" class="edge">
<title>Node6&#45;&gt;Node20</title>
<g id="a_edge29_Node000006_Node000020"><a xlink:title=" ">
<path fill="none" stroke="#63b8ff" d="M542.65,-411.77C529.99,-402.42 515.02,-391.35 502.47,-382.07"/>
<polygon fill="#63b8ff" stroke="#63b8ff" points="540.86,-414.8 550.98,-417.94 545.02,-409.18 540.86,-414.8"/>
</a>
</g>
</g>
<!-- Node23 -->
<g id="Node000023" class="node">
<title>Node23</title>
<g id="a_Node000023"><a xlink:href="GeneralFill_8cpp.html" target="_top" xlink:title="Instantiations of Poisson disk sampling algorithm.">
<polygon fill="white" stroke="#666666" points="911,-371 759,-371 759,-352 911,-352 911,-371"/>
<text text-anchor="middle" x="835" y="-359" font-family="Helvetica,sans-Serif" font-size="10.00">src/domains/GeneralFill.cpp</text>
</a>
</g>
</g>
<!-- Node6&#45;&gt;Node23 -->
<g id="edge34_Node000006_Node000023" class="edge">
<title>Node6&#45;&gt;Node23</title>
<g id="a_edge34_Node000006_Node000023"><a xlink:title=" ">
<path fill="none" stroke="#63b8ff" d="M633.3,-415.4C686.48,-401.45 760.33,-382.08 802.33,-371.07"/>
<polygon fill="#63b8ff" stroke="#63b8ff" points="632.41,-412.01 623.63,-417.94 634.19,-418.78 632.41,-412.01"/>
</a>
</g>
</g>
<!-- Node7&#45;&gt;Node3 -->
<g id="edge9_Node000007_Node000003" class="edge">
<title>Node7&#45;&gt;Node3</title>
<g id="a_edge9_Node000007_Node000003"><a xlink:title=" ">
<path fill="none" stroke="#63b8ff" d="M203.52,-335.96C204.02,-285.67 213.21,-171.41 283,-121 324.46,-91.06 461.53,-78.86 549.91,-74.02"/>
<polygon fill="#63b8ff" stroke="#63b8ff" points="200.02,-336.22 203.53,-346.22 207.02,-336.22 200.02,-336.22"/>
</a>
</g>
</g>
<!-- Node8 -->
<g id="Node000008" class="node">
<title>Node8</title>
<g id="a_Node000008"><a xlink:href="BallShape_8cpp.html" target="_top" xlink:title="Instantiation of class for ball shaped domains.">
<polygon fill="white" stroke="#666666" points="176,-294 28,-294 28,-275 176,-275 176,-294"/>
<text text-anchor="middle" x="102" y="-282" font-family="Helvetica,sans-Serif" font-size="10.00">src/domains/BallShape.cpp</text>
</a>
</g>
</g>
<!-- Node7&#45;&gt;Node8 -->
<g id="edge10_Node000007_Node000008" class="edge">
<title>Node7&#45;&gt;Node8</title>
<g id="a_edge10_Node000007_Node000008"><a xlink:title=" ">
<path fill="none" stroke="#63b8ff" d="M176.75,-340.46C156.22,-325.37 129.07,-305.4 113.78,-294.16"/>
<polygon fill="#63b8ff" stroke="#63b8ff" points="174.68,-343.29 184.81,-346.39 178.83,-337.65 174.68,-343.29"/>
</a>
</g>
</g>
<!-- Node9&#45;&gt;Node3 -->
<g id="edge12_Node000009_Node000003" class="edge">
<title>Node9&#45;&gt;Node3</title>
<g id="a_edge12_Node000009_Node000003"><a xlink:title=" ">
<path fill="none" stroke="#63b8ff" d="M663.76,-337C659.62,-327.18 654.9,-315.61 651,-305 631.99,-253.29 640.7,-234.63 613,-187 602.09,-168.24 587.87,-171.23 580,-151 575.17,-138.57 575.02,-133.37 580,-121 587.1,-103.36 603.72,-88.45 615.4,-79.62"/>
<polygon fill="#63b8ff" stroke="#63b8ff" points="660.67,-338.66 667.82,-346.48 667.11,-335.91 660.67,-338.66"/>
</a>
</g>
</g>
<!-- Node10 -->
<g id="Node000010" class="node">
<title>Node10</title>
<g id="a_Node000010"><a xlink:href="NURBSPatch__fwd_8hpp.html" target="_top" xlink:title="Declaration of the NURBS patch class.">
<polygon fill="white" stroke="#666666" points="990.5,-305 865.5,-305 865.5,-264 990.5,-264 990.5,-305"/>
<text text-anchor="start" x="873.5" y="-293" font-family="Helvetica,sans-Serif" font-size="10.00">include/medusa/bits</text>
<text text-anchor="start" x="873.5" y="-282" font-family="Helvetica,sans-Serif" font-size="10.00">/domains/NURBSPatch</text>
<text text-anchor="middle" x="928" y="-271" font-family="Helvetica,sans-Serif" font-size="10.00">_fwd.hpp</text>
</a>
</g>
</g>
<!-- Node9&#45;&gt;Node10 -->
<g id="edge13_Node000009_Node000010" class="edge">
<title>Node9&#45;&gt;Node10</title>
<g id="a_edge13_Node000009_Node000010"><a xlink:title=" ">
<path fill="none" stroke="#63b8ff" d="M731.32,-343.58C771.21,-331.79 824.4,-316.09 865.4,-303.98"/>
<polygon fill="#63b8ff" stroke="#63b8ff" points="730.08,-340.29 721.48,-346.48 732.06,-347.01 730.08,-340.29"/>
</a>
</g>
</g>
<!-- Node12 -->
<g id="Node000012" class="node">
<title>Node12</title>
<g id="a_Node000012"><a xlink:href="NURBSShape_8hpp.html" target="_top" xlink:title="Implementation of NURBSShape class.">
<polygon fill="white" stroke="#666666" points="955,-151 805,-151 805,-121 955,-121 955,-151"/>
<text text-anchor="start" x="813" y="-139" font-family="Helvetica,sans-Serif" font-size="10.00">include/medusa/bits</text>
<text text-anchor="middle" x="880" y="-128" font-family="Helvetica,sans-Serif" font-size="10.00">/domains/NURBSShape.hpp</text>
</a>
</g>
</g>
<!-- Node9&#45;&gt;Node12 -->
<g id="edge24_Node000009_Node000012" class="edge">
<title>Node9&#45;&gt;Node12</title>
<g id="a_edge24_Node000009_Node000012"><a xlink:title=" ">
<path fill="none" stroke="#63b8ff" d="M732.61,-343.35C766.49,-332.39 804.77,-317.87 817,-305 855.05,-264.96 835.34,-238.23 856,-187 860.97,-174.68 867.56,-161.11 872.57,-151.22"/>
<polygon fill="#63b8ff" stroke="#63b8ff" points="731.2,-340.12 722.73,-346.49 733.32,-346.79 731.2,-340.12"/>
</a>
</g>
</g>
<!-- Node16 -->
<g id="Node000016" class="node">
<title>Node16</title>
<g id="a_Node000016"><a xlink:href="BoxShape_8cpp.html" target="_top" xlink:title="Instantiation of class for box shaped domains.">
<polygon fill="white" stroke="#666666" points="808,-294 660,-294 660,-275 808,-275 808,-294"/>
<text text-anchor="middle" x="734" y="-282" font-family="Helvetica,sans-Serif" font-size="10.00">src/domains/BoxShape.cpp</text>
</a>
</g>
</g>
<!-- Node9&#45;&gt;Node16 -->
<g id="edge25_Node000009_Node000016" class="edge">
<title>Node9&#45;&gt;Node16</title>
<g id="a_edge25_Node000009_Node000016"><a xlink:title=" ">
<path fill="none" stroke="#63b8ff" d="M691.79,-338.27C703.54,-323.57 718.31,-305.11 726.9,-294.37"/>
<polygon fill="#63b8ff" stroke="#63b8ff" points="688.8,-336.4 685.29,-346.39 694.27,-340.77 688.8,-336.4"/>
</a>
</g>
</g>
<!-- Node10&#45;&gt;Node2 -->
<g id="edge14_Node000010_Node000002" class="edge">
<title>Node10&#45;&gt;Node2</title>
<g id="a_edge14_Node000010_Node000002"><a xlink:title=" ">
<path fill="none" stroke="#63b8ff" d="M970.63,-258.04C982.25,-249.59 994.08,-239.39 1003,-228 1021.59,-204.28 1032.58,-170.16 1037.63,-151.16"/>
<polygon fill="#63b8ff" stroke="#63b8ff" points="968.46,-255.29 962.25,-263.88 972.46,-261.03 968.46,-255.29"/>
</a>
</g>
</g>
<!-- Node11 -->
<g id="Node000011" class="node">
<title>Node11</title>
<g id="a_Node000011"><a xlink:href="NURBSPatch_8hpp.html" target="_top" xlink:title="Implementation of the NURBS patch class.">
<polygon fill="white" stroke="#666666" points="808,-222.5 662,-222.5 662,-192.5 808,-192.5 808,-222.5"/>
<text text-anchor="start" x="670" y="-210.5" font-family="Helvetica,sans-Serif" font-size="10.00">include/medusa/bits</text>
<text text-anchor="middle" x="735" y="-199.5" font-family="Helvetica,sans-Serif" font-size="10.00">/domains/NURBSPatch.hpp</text>
</a>
</g>
</g>
<!-- Node10&#45;&gt;Node11 -->
<g id="edge15_Node000010_Node000011" class="edge">
<title>Node10&#45;&gt;Node11</title>
<g id="a_edge15_Node000010_Node000011"><a xlink:title=" ">
<path fill="none" stroke="#63b8ff" d="M868.17,-260.25C836.44,-247.92 798.49,-233.17 771.24,-222.58"/>
<polygon fill="#63b8ff" stroke="#63b8ff" points="867.21,-263.63 877.8,-263.99 869.74,-257.11 867.21,-263.63"/>
</a>
</g>
</g>
<!-- Node15 -->
<g id="Node000015" class="node">
<title>Node15</title>
<g id="a_Node000015"><a xlink:href="NURBSShape__fwd_8hpp.html" target="_top" xlink:title="Declaration of NURBSShape class.">
<polygon fill="white" stroke="#666666" points="993.5,-228 864.5,-228 864.5,-187 993.5,-187 993.5,-228"/>
<text text-anchor="start" x="872.5" y="-216" font-family="Helvetica,sans-Serif" font-size="10.00">include/medusa/bits</text>
<text text-anchor="start" x="872.5" y="-205" font-family="Helvetica,sans-Serif" font-size="10.00">/domains/NURBSShape</text>
<text text-anchor="middle" x="929" y="-194" font-family="Helvetica,sans-Serif" font-size="10.00">_fwd.hpp</text>
</a>
</g>
</g>
<!-- Node10&#45;&gt;Node15 -->
<g id="edge21_Node000010_Node000015" class="edge">
<title>Node10&#45;&gt;Node15</title>
<g id="a_edge21_Node000010_Node000015"><a xlink:title=" ">
<path fill="none" stroke="#63b8ff" d="M928.4,-253.69C928.51,-245.08 928.63,-235.9 928.74,-228.07"/>
<polygon fill="#63b8ff" stroke="#63b8ff" points="924.9,-253.75 928.26,-263.79 931.9,-253.84 924.9,-253.75"/>
</a>
</g>
</g>
<!-- Node11&#45;&gt;Node3 -->
<g id="edge16_Node000011_Node000003" class="edge">
<title>Node11&#45;&gt;Node3</title>
<g id="a_edge16_Node000011_Node000003"><a xlink:title=" ">
<path fill="none" stroke="#63b8ff" d="M750.7,-183.7C761.18,-165.4 770.88,-139.75 758,-121 742.74,-98.77 716.11,-86.42 690.91,-79.56"/>
<polygon fill="#63b8ff" stroke="#63b8ff" points="747.69,-181.93 745.43,-192.28 753.65,-185.59 747.69,-181.93"/>
</a>
</g>
</g>
<!-- Node11&#45;&gt;Node12 -->
<g id="edge17_Node000011_Node000012" class="edge">
<title>Node11&#45;&gt;Node12</title>
<g id="a_edge17_Node000011_Node000012"><a xlink:title=" ">
<path fill="none" stroke="#63b8ff" d="M773.6,-188C797.8,-176.4 828.5,-161.68 850.7,-151.04"/>
<polygon fill="#63b8ff" stroke="#63b8ff" points="771.85,-184.96 764.34,-192.44 774.87,-191.27 771.85,-184.96"/>
</a>
</g>
</g>
<!-- Node14 -->
<g id="Node000014" class="node">
<title>Node14</title>
<g id="a_Node000014"><a xlink:href="NURBSPatch_8cpp.html" target="_top" xlink:title="Instantiations of commonly used NURBSPatch instances.">
<polygon fill="white" stroke="#666666" points="749,-145.5 589,-145.5 589,-126.5 749,-126.5 749,-145.5"/>
<text text-anchor="middle" x="669" y="-133.5" font-family="Helvetica,sans-Serif" font-size="10.00">src/domains/NURBSPatch.cpp</text>
</a>
</g>
</g>
<!-- Node11&#45;&gt;Node14 -->
<g id="edge20_Node000011_Node000014" class="edge">
<title>Node11&#45;&gt;Node14</title>
<g id="a_edge20_Node000011_Node000014"><a xlink:title=" ">
<path fill="none" stroke="#63b8ff" d="M714.65,-185.07C702.09,-171.84 686.65,-155.58 677.33,-145.77"/>
<polygon fill="#63b8ff" stroke="#63b8ff" points="712.22,-187.59 721.64,-192.44 717.3,-182.77 712.22,-187.59"/>
</a>
</g>
</g>
<!-- Node12&#45;&gt;Node3 -->
<g id="edge18_Node000012_Node000003" class="edge">
<title>Node12&#45;&gt;Node3</title>
<g id="a_edge18_Node000012_Node000003"><a xlink:title=" ">
<path fill="none" stroke="#63b8ff" d="M814.8,-118.44C765.74,-105.98 700.51,-89.42 661.54,-79.52"/>
<polygon fill="#63b8ff" stroke="#63b8ff" points="814.14,-121.89 824.7,-120.95 815.87,-115.1 814.14,-121.89"/>
</a>
</g>
</g>
<!-- Node13 -->
<g id="Node000013" class="node">
<title>Node13</title>
<g id="a_Node000013"><a xlink:href="NURBSShape_8cpp.html" target="_top" xlink:title="Instantiations of commonly used NURBSShape instances.">
<polygon fill="white" stroke="#666666" points="955,-79.5 791,-79.5 791,-60.5 955,-60.5 955,-79.5"/>
<text text-anchor="middle" x="873" y="-67.5" font-family="Helvetica,sans-Serif" font-size="10.00">src/domains/NURBSShape.cpp</text>
</a>
</g>
</g>
<!-- Node12&#45;&gt;Node13 -->
<g id="edge19_Node000012_Node000013" class="edge">
<title>Node12&#45;&gt;Node13</title>
<g id="a_edge19_Node000012_Node000013"><a xlink:title=" ">
<path fill="none" stroke="#63b8ff" d="M877.33,-110.6C876.15,-99.8 874.84,-87.78 873.97,-79.84"/>
<polygon fill="#63b8ff" stroke="#63b8ff" points="873.88,-111.24 878.45,-120.8 880.84,-110.48 873.88,-111.24"/>
</a>
</g>
</g>
<!-- Node15&#45;&gt;Node2 -->
<g id="edge22_Node000015_Node000002" class="edge">
<title>Node15&#45;&gt;Node2</title>
<g id="a_edge22_Node000015_Node000002"><a xlink:title=" ">
<path fill="none" stroke="#63b8ff" d="M969.39,-181.44C985.83,-171.23 1004.23,-159.82 1018.26,-151.11"/>
<polygon fill="#63b8ff" stroke="#63b8ff" points="967.15,-178.71 960.5,-186.96 970.84,-184.66 967.15,-178.71"/>
</a>
</g>
</g>
<!-- Node15&#45;&gt;Node12 -->
<g id="edge23_Node000015_Node000012" class="edge">
<title>Node15&#45;&gt;Node12</title>
<g id="a_edge23_Node000015_Node000012"><a xlink:title=" ">
<path fill="none" stroke="#63b8ff" d="M909.19,-178.4C902.55,-168.99 895.44,-158.9 889.9,-151.04"/>
<polygon fill="#63b8ff" stroke="#63b8ff" points="906.47,-180.61 915.09,-186.77 912.19,-176.58 906.47,-180.61"/>
</a>
</g>
</g>
<!-- Node18 -->
<g id="Node000018" class="node">
<title>Node18</title>
<g id="a_Node000018"><a xlink:href="PolyhedronShape_8hpp_source.html" target="_top" xlink:title=" ">
<polygon fill="white" stroke="#666666" points="604,-222.5 434,-222.5 434,-192.5 604,-192.5 604,-222.5"/>
<text text-anchor="start" x="442" y="-210.5" font-family="Helvetica,sans-Serif" font-size="10.00">include/medusa/bits</text>
<text text-anchor="middle" x="519" y="-199.5" font-family="Helvetica,sans-Serif" font-size="10.00">/domains/PolyhedronShape.hpp</text>
</a>
</g>
</g>
<!-- Node17&#45;&gt;Node18 -->
<g id="edge27_Node000017_Node000018" class="edge">
<title>Node17&#45;&gt;Node18</title>
<g id="a_edge27_Node000017_Node000018"><a xlink:title=" ">
<path fill="none" stroke="#63b8ff" d="M519,-253.61C519,-243.01 519,-231.57 519,-222.86"/>
<polygon fill="#63b8ff" stroke="#63b8ff" points="515.5,-253.79 519,-263.79 522.5,-253.79 515.5,-253.79"/>
</a>
</g>
</g>
<!-- Node19 -->
<g id="Node000019" class="node">
<title>Node19</title>
<g id="a_Node000019"><a xlink:href="PolyhedronShape_8cpp.html" target="_top" xlink:title="Instantiation of PolyhedronShape class.">
<polygon fill="white" stroke="#666666" points="533,-145.5 349,-145.5 349,-126.5 533,-126.5 533,-145.5"/>
<text text-anchor="middle" x="441" y="-133.5" font-family="Helvetica,sans-Serif" font-size="10.00">src/domains/PolyhedronShape.cpp</text>
</a>
</g>
</g>
<!-- Node18&#45;&gt;Node19 -->
<g id="edge28_Node000018_Node000019" class="edge">
<title>Node18&#45;&gt;Node19</title>
<g id="a_edge28_Node000018_Node000019"><a xlink:title=" ">
<path fill="none" stroke="#63b8ff" d="M495.36,-185.44C480.45,-172.15 461.96,-155.67 450.84,-145.77"/>
<polygon fill="#63b8ff" stroke="#63b8ff" points="493.42,-188.4 503.22,-192.44 498.08,-183.17 493.42,-188.4"/>
</a>
</g>
</g>
<!-- Node20&#45;&gt;Node17 -->
<g id="edge30_Node000020_Node000017" class="edge">
<title>Node20&#45;&gt;Node17</title>
<g id="a_edge30_Node000020_Node000017"><a xlink:title=" ">
<path fill="none" stroke="#63b8ff" d="M492.28,-332.11C497.45,-323.09 503.05,-313.33 507.78,-305.07"/>
<polygon fill="#63b8ff" stroke="#63b8ff" points="489.24,-330.38 487.3,-340.79 495.31,-333.86 489.24,-330.38"/>
</a>
</g>
</g>
<!-- Node21 -->
<g id="Node000021" class="node">
<title>Node21</title>
<g id="a_Node000021"><a xlink:href="STLShape_8hpp.html" target="_top" xlink:title="Implementation of STL shapes.">
<polygon fill="white" stroke="#666666" points="409.5,-299.5 276.5,-299.5 276.5,-269.5 409.5,-269.5 409.5,-299.5"/>
<text text-anchor="start" x="284.5" y="-287.5" font-family="Helvetica,sans-Serif" font-size="10.00">include/medusa/bits</text>
<text text-anchor="middle" x="343" y="-276.5" font-family="Helvetica,sans-Serif" font-size="10.00">/domains/STLShape.hpp</text>
</a>
</g>
</g>
<!-- Node20&#45;&gt;Node21 -->
<g id="edge31_Node000020_Node000021" class="edge">
<title>Node20&#45;&gt;Node21</title>
<g id="a_edge31_Node000020_Node000021"><a xlink:title=" ">
<path fill="none" stroke="#63b8ff" d="M432.52,-335.98C411.21,-323.97 386.31,-309.92 368.18,-299.7"/>
<polygon fill="#63b8ff" stroke="#63b8ff" points="430.97,-339.13 441.4,-340.99 434.41,-333.03 430.97,-339.13"/>
</a>
</g>
</g>
<!-- Node21&#45;&gt;Node3 -->
<g id="edge32_Node000021_Node000003" class="edge">
<title>Node21&#45;&gt;Node3</title>
<g id="a_edge32_Node000021_Node000003"><a xlink:title=" ">
<path fill="none" stroke="#63b8ff" d="M298.9,-264.4C284.11,-255.61 269.27,-243.59 261,-228 233.29,-175.78 286.37,-145.85 340,-121 406.65,-90.11 490,-78.17 549.86,-73.62"/>
<polygon fill="#63b8ff" stroke="#63b8ff" points="297.6,-267.69 308.05,-269.47 301,-261.56 297.6,-267.69"/>
</a>
</g>
</g>
<!-- Node22 -->
<g id="Node000022" class="node">
<title>Node22</title>
<g id="a_Node000022"><a xlink:href="STLShape_8cpp.html" target="_top" xlink:title="Instantiation of class for STL domains.">
<polygon fill="white" stroke="#666666" points="416,-217 270,-217 270,-198 416,-198 416,-217"/>
<text text-anchor="middle" x="343" y="-205" font-family="Helvetica,sans-Serif" font-size="10.00">src/domains/STLShape.cpp</text>
</a>
</g>
</g>
<!-- Node21&#45;&gt;Node22 -->
<g id="edge33_Node000021_Node000022" class="edge">
<title>Node21&#45;&gt;Node22</title>
<g id="a_edge33_Node000021_Node000022"><a xlink:title=" ">
<path fill="none" stroke="#63b8ff" d="M343,-259.18C343,-244.86 343,-227.61 343,-217.37"/>
<polygon fill="#63b8ff" stroke="#63b8ff" points="339.5,-259.39 343,-269.39 346.5,-259.39 339.5,-259.39"/>
</a>
</g>
</g>
</g>
</svg>

<g id="navigator" transform="translate(0 0)" fill="#404254">
  <rect fill="#f2f5e9" fill-opacity="0.5" stroke="#606060" stroke-width=".5" x="0" y="0" width="60" height="60"/>
  <use id="zoomplus" xlink:href="#zoomPlus" x="17" y="9" onmousedown="handleZoom(evt,'in')"/>
  <use id="zoomminus" xlink:href="#zoomMin" x="42" y="9" onmousedown="handleZoom(evt,'out')"/>
  <use id="reset" xlink:href="#resetDef" x="30" y="36" onmousedown="handleReset()"/>
   <use id="arrowup" xlink:href="#arrowUp" x="0" y="0" onmousedown="handlePan(0,-1)"/>
  <use id="arrowright" xlink:href="#arrowRight" x="0" y="0" onmousedown="handlePan(1,0)"/>
  <use id="arrowdown" xlink:href="#arrowDown" x="0" y="0" onmousedown="handlePan(0,1)"/>
  <use id="arrowleft" xlink:href="#arrowLeft" x="0" y="0" onmousedown="handlePan(-1,0)"/>
</g>
<svg viewBox="0 0 15 15" width="100%" height="30px" preserveAspectRatio="xMaxYMin meet">
 <g id="arrow_out" transform="scale(0.3 0.3)">
  <a xlink:href="GeneralFill__fwd_8hpp__dep__incl_org.svg" target="_base">
   <rect id="button" ry="5" rx="5" y="6" x="6" height="38" width="38"
        fill="#f2f5e9" fill-opacity="0.5" stroke="#606060" stroke-width="1.0"/>
   <path id="arrow"
     d="M 11.500037,31.436501 C 11.940474,20.09759 22.043105,11.32322 32.158766,21.979434 L 37.068811,17.246167 C 37.068811,17.246167 37.088388,32 37.088388,32 L 22.160133,31.978069 C 22.160133,31.978069 26.997745,27.140456 26.997745,27.140456 C 18.528582,18.264221 13.291696,25.230495 11.500037,31.436501 z"
     style="fill:#404040;"/>
  </a>
 </g>
</svg>

<style type='text/css'>
<![CDATA[
[data-mouse-over-selected='false'] { opacity: 0.7; }
[data-mouse-over-selected='true']  { opacity: 1.0; }
]]>
</style>
<script type="application/ecmascript"><![CDATA[
document.addEventListener('DOMContentLoaded', (event) => {
  highlightEdges();
  highlightAdjacentNodes();
});
]]></script>
</svg>
