<?xml version="1.0" encoding="UTF-8" standalone="no"?>
<!DOCTYPE svg PUBLIC "-//W3C//DTD SVG 1.1//EN"
 "http://www.w3.org/Graphics/SVG/1.1/DTD/svg11.dtd">
<!-- Generated by graphviz version 2.43.0 (0)
 -->
<!-- Title: include/medusa/bits/domains/GrainDropFill_fwd.hpp Pages: 1 -->
<svg width="219pt" height="225pt"
 viewBox="0.00 0.00 218.50 225.00" xmlns="http://www.w3.org/2000/svg" xmlns:xlink="http://www.w3.org/1999/xlink">
<g id="graph0" class="graph" transform="scale(1 1) rotate(0) translate(4 221)">
<title>include/medusa/bits/domains/GrainDropFill_fwd.hpp</title>
<!-- Node1 -->
<g id="Node000001" class="node">
<title>Node1</title>
<g id="a_Node000001"><a xlink:title="Declaration of the grain drop node placing algorithm.">
<polygon fill="#999999" stroke="#666666" points="165,-217 37,-217 37,-176 165,-176 165,-217"/>
<text text-anchor="start" x="45" y="-205" font-family="Helvetica,sans-Serif" font-size="10.00">include/medusa/bits</text>
<text text-anchor="start" x="45" y="-194" font-family="Helvetica,sans-Serif" font-size="10.00">/domains/GrainDropFill</text>
<text text-anchor="middle" x="101" y="-183" font-family="Helvetica,sans-Serif" font-size="10.00">_fwd.hpp</text>
</a>
</g>
</g>
<!-- Node2 -->
<g id="Node000002" class="node">
<title>Node2</title>
<g id="a_Node000002"><a xlink:href="Config_8hpp.html" target="_top" xlink:title="Contains compile time settings for the project, such as Eigen plugins.">
<polygon fill="white" stroke="#666666" points="110,-74 0,-74 0,-55 110,-55 110,-74"/>
<text text-anchor="middle" x="55" y="-62" font-family="Helvetica,sans-Serif" font-size="10.00">medusa/Config.hpp</text>
</a>
</g>
</g>
<!-- Node1&#45;&gt;Node2 -->
<g id="edge1_Node000001_Node000002" class="edge">
<title>Node1&#45;&gt;Node2</title>
<g id="a_edge1_Node000001_Node000002"><a xlink:title=" ">
<path fill="none" stroke="#63b8ff" d="M90.75,-175.82C85.57,-165.37 79.45,-152.19 75,-140 68.2,-121.37 62.57,-99.37 59.04,-84.13"/>
<polygon fill="#63b8ff" stroke="#63b8ff" points="62.45,-83.36 56.85,-74.37 55.62,-84.9 62.45,-83.36"/>
</a>
</g>
</g>
<!-- Node4 -->
<g id="Node000004" class="node">
<title>Node4</title>
<g id="a_Node000004"><a xlink:href="Vec__fwd_8hpp.html" target="_top" xlink:title="Declaration of Vec.">
<polygon fill="white" stroke="#666666" points="210.5,-140 83.5,-140 83.5,-110 210.5,-110 210.5,-140"/>
<text text-anchor="start" x="91.5" y="-128" font-family="Helvetica,sans-Serif" font-size="10.00">medusa/bits/types/Vec</text>
<text text-anchor="middle" x="147" y="-117" font-family="Helvetica,sans-Serif" font-size="10.00">_fwd.hpp</text>
</a>
</g>
</g>
<!-- Node1&#45;&gt;Node4 -->
<g id="edge3_Node000001_Node000004" class="edge">
<title>Node1&#45;&gt;Node4</title>
<g id="a_edge3_Node000001_Node000004"><a xlink:title=" ">
<path fill="none" stroke="#63b8ff" d="M114.06,-175.77C119.66,-167.31 126.23,-157.38 132.02,-148.63"/>
<polygon fill="#63b8ff" stroke="#63b8ff" points="135.11,-150.31 137.71,-140.04 129.27,-146.45 135.11,-150.31"/>
</a>
</g>
</g>
<!-- Node3 -->
<g id="Node000003" class="node">
<title>Node3</title>
<g id="a_Node000003"><a xlink:title=" ">
<polygon fill="#e0e0e0" stroke="#999999" points="78.5,-19 31.5,-19 31.5,0 78.5,0 78.5,-19"/>
<text text-anchor="middle" x="55" y="-7" font-family="Helvetica,sans-Serif" font-size="10.00">vector</text>
</a>
</g>
</g>
<!-- Node2&#45;&gt;Node3 -->
<g id="edge2_Node000002_Node000003" class="edge">
<title>Node2&#45;&gt;Node3</title>
<g id="a_edge2_Node000002_Node000003"><a xlink:title=" ">
<path fill="none" stroke="#63b8ff" d="M55,-54.75C55,-47.8 55,-37.85 55,-29.13"/>
<polygon fill="#63b8ff" stroke="#63b8ff" points="58.5,-29.09 55,-19.09 51.5,-29.09 58.5,-29.09"/>
</a>
</g>
</g>
<!-- Node4&#45;&gt;Node2 -->
<g id="edge4_Node000004_Node000002" class="edge">
<title>Node4&#45;&gt;Node2</title>
<g id="a_edge4_Node000004_Node000002"><a xlink:title=" ">
<path fill="none" stroke="#63b8ff" d="M124.73,-109.84C110.33,-100.68 91.67,-88.82 77.27,-79.66"/>
<polygon fill="#63b8ff" stroke="#63b8ff" points="78.83,-76.51 68.52,-74.09 75.08,-82.41 78.83,-76.51"/>
</a>
</g>
</g>
<!-- Node5 -->
<g id="Node000005" class="node">
<title>Node5</title>
<g id="a_Node000005"><a xlink:title=" ">
<polygon fill="#e0e0e0" stroke="#999999" points="197.5,-74 128.5,-74 128.5,-55 197.5,-55 197.5,-74"/>
<text text-anchor="middle" x="163" y="-62" font-family="Helvetica,sans-Serif" font-size="10.00">Eigen/Core</text>
</a>
</g>
</g>
<!-- Node4&#45;&gt;Node5 -->
<g id="edge5_Node000004_Node000005" class="edge">
<title>Node4&#45;&gt;Node5</title>
<g id="a_edge5_Node000004_Node000005"><a xlink:title=" ">
<path fill="none" stroke="#63b8ff" d="M150.87,-109.84C152.98,-102.13 155.62,-92.49 157.89,-84.17"/>
<polygon fill="#63b8ff" stroke="#63b8ff" points="161.34,-84.84 160.6,-74.27 154.59,-82.99 161.34,-84.84"/>
</a>
</g>
</g>
</g>
</svg>
