<?xml version="1.0" encoding="UTF-8" standalone="no"?>
<!DOCTYPE svg PUBLIC "-//W3C//DTD SVG 1.1//EN"
 "http://www.w3.org/Graphics/SVG/1.1/DTD/svg11.dtd">
<!-- Generated by graphviz version 2.43.0 (0)
 -->
<!-- Title: src/domains/GrainDropFill.cpp Pages: 1 -->
<svg width="1186pt" height="445pt"
 viewBox="0.00 0.00 1185.64 445.00" xmlns="http://www.w3.org/2000/svg" xmlns:xlink="http://www.w3.org/1999/xlink">
<g id="graph0" class="graph" transform="scale(1 1) rotate(0) translate(4 441)">
<title>src/domains/GrainDropFill.cpp</title>
<!-- Node1 -->
<g id="Node000001" class="node">
<title>Node1</title>
<g id="a_Node000001"><a xlink:title="Explicit instantiations for common parameters.">
<polygon fill="#999999" stroke="#666666" points="842.53,-437 679.53,-437 679.53,-418 842.53,-418 842.53,-437"/>
<text text-anchor="middle" x="761.03" y="-425" font-family="Helvetica,sans-Serif" font-size="10.00">src/domains/GrainDropFill.cpp</text>
</a>
</g>
</g>
<!-- Node2 -->
<g id="Node000002" class="node">
<title>Node2</title>
<g id="a_Node000002"><a xlink:href="GrainDropFill_8hpp.html" target="_top" xlink:title="Implementation of the GrainDropFill fill engine.">
<polygon fill="white" stroke="#666666" points="822.03,-382 700.03,-382 700.03,-352 822.03,-352 822.03,-382"/>
<text text-anchor="start" x="708.03" y="-370" font-family="Helvetica,sans-Serif" font-size="10.00">medusa/bits/domains</text>
<text text-anchor="middle" x="761.03" y="-359" font-family="Helvetica,sans-Serif" font-size="10.00">/GrainDropFill.hpp</text>
</a>
</g>
</g>
<!-- Node1&#45;&gt;Node2 -->
<g id="edge1_Node000001_Node000002" class="edge">
<title>Node1&#45;&gt;Node2</title>
<g id="a_edge1_Node000001_Node000002"><a xlink:title=" ">
<path fill="none" stroke="#63b8ff" d="M761.03,-417.87C761.03,-411.11 761.03,-401.35 761.03,-392.26"/>
<polygon fill="#63b8ff" stroke="#63b8ff" points="764.53,-392.11 761.03,-382.11 757.53,-392.11 764.53,-392.11"/>
</a>
</g>
</g>
<!-- Node3 -->
<g id="Node000003" class="node">
<title>Node3</title>
<g id="a_Node000003"><a xlink:href="GrainDropFill__fwd_8hpp.html" target="_top" xlink:title="Declaration of the grain drop node placing algorithm.">
<polygon fill="white" stroke="#666666" points="1162.03,-310.5 1038.03,-310.5 1038.03,-291.5 1162.03,-291.5 1162.03,-310.5"/>
<text text-anchor="middle" x="1100.03" y="-298.5" font-family="Helvetica,sans-Serif" font-size="10.00">GrainDropFill_fwd.hpp</text>
</a>
</g>
</g>
<!-- Node2&#45;&gt;Node3 -->
<g id="edge2_Node000002_Node000003" class="edge">
<title>Node2&#45;&gt;Node3</title>
<g id="a_edge2_Node000002_Node000003"><a xlink:title=" ">
<path fill="none" stroke="#63b8ff" d="M822.42,-354.41C885.86,-342.43 983.97,-323.91 1044.98,-312.39"/>
<polygon fill="#63b8ff" stroke="#63b8ff" points="1045.63,-315.83 1054.81,-310.54 1044.33,-308.95 1045.63,-315.83"/>
</a>
</g>
</g>
<!-- Node8 -->
<g id="Node000008" class="node">
<title>Node8</title>
<g id="a_Node000008"><a xlink:href="randutils_8hpp.html" target="_top" xlink:title="Utilities for randomization.">
<polygon fill="white" stroke="#666666" points="844.53,-310.5 677.53,-310.5 677.53,-291.5 844.53,-291.5 844.53,-310.5"/>
<text text-anchor="middle" x="761.03" y="-298.5" font-family="Helvetica,sans-Serif" font-size="10.00">medusa/bits/utils/randutils.hpp</text>
</a>
</g>
</g>
<!-- Node2&#45;&gt;Node8 -->
<g id="edge8_Node000002_Node000008" class="edge">
<title>Node2&#45;&gt;Node8</title>
<g id="a_edge8_Node000002_Node000008"><a xlink:title=" ">
<path fill="none" stroke="#63b8ff" d="M761.03,-351.8C761.03,-342.7 761.03,-330.79 761.03,-320.9"/>
<polygon fill="#63b8ff" stroke="#63b8ff" points="764.53,-320.84 761.03,-310.84 757.53,-320.84 764.53,-320.84"/>
</a>
</g>
</g>
<!-- Node24 -->
<g id="Node000024" class="node">
<title>Node24</title>
<g id="a_Node000024"><a xlink:href="KDTree_8hpp.html" target="_top" xlink:title="Implementation of KDTree.">
<polygon fill="white" stroke="#666666" points="429.53,-316 316.53,-316 316.53,-286 429.53,-286 429.53,-316"/>
<text text-anchor="start" x="324.53" y="-304" font-family="Helvetica,sans-Serif" font-size="10.00">medusa/bits/spatial</text>
<text text-anchor="middle" x="373.03" y="-293" font-family="Helvetica,sans-Serif" font-size="10.00">_search/KDTree.hpp</text>
</a>
</g>
</g>
<!-- Node2&#45;&gt;Node24 -->
<g id="edge29_Node000002_Node000024" class="edge">
<title>Node2&#45;&gt;Node24</title>
<g id="a_edge29_Node000002_Node000024"><a xlink:title=" ">
<path fill="none" stroke="#63b8ff" d="M699.98,-355.93C629.15,-344.25 512.76,-325.05 439.64,-312.99"/>
<polygon fill="#63b8ff" stroke="#63b8ff" points="440.06,-309.51 429.62,-311.34 438.92,-316.42 440.06,-309.51"/>
</a>
</g>
</g>
<!-- Node29 -->
<g id="Node000029" class="node">
<title>Node29</title>
<g id="a_Node000029"><a xlink:href="Grid_8hpp.html" target="_top" xlink:title="Implementation of Grid.">
<polygon fill="white" stroke="#666666" points="447.53,-250 334.53,-250 334.53,-220 447.53,-220 447.53,-250"/>
<text text-anchor="start" x="342.53" y="-238" font-family="Helvetica,sans-Serif" font-size="10.00">medusa/bits/spatial</text>
<text text-anchor="middle" x="391.03" y="-227" font-family="Helvetica,sans-Serif" font-size="10.00">_search/Grid.hpp</text>
</a>
</g>
</g>
<!-- Node2&#45;&gt;Node29 -->
<g id="edge43_Node000002_Node000029" class="edge">
<title>Node2&#45;&gt;Node29</title>
<g id="a_edge43_Node000002_Node000029"><a xlink:title=" ">
<path fill="none" stroke="#63b8ff" d="M721.08,-351.96C653.03,-328.06 514.82,-279.5 440.68,-253.44"/>
<polygon fill="#63b8ff" stroke="#63b8ff" points="441.68,-250.09 431.09,-250.08 439.36,-256.69 441.68,-250.09"/>
</a>
</g>
</g>
<!-- Node32 -->
<g id="Node000032" class="node">
<title>Node32</title>
<g id="a_Node000032"><a xlink:href="discretization__helpers_8hpp.html" target="_top" xlink:title="Contains helpers for discretizing various geometric objects.">
<polygon fill="white" stroke="#666666" points="1011.03,-316 863.03,-316 863.03,-286 1011.03,-286 1011.03,-316"/>
<text text-anchor="start" x="871.03" y="-304" font-family="Helvetica,sans-Serif" font-size="10.00">medusa/bits/domains</text>
<text text-anchor="middle" x="937.03" y="-293" font-family="Helvetica,sans-Serif" font-size="10.00">/discretization_helpers.hpp</text>
</a>
</g>
</g>
<!-- Node2&#45;&gt;Node32 -->
<g id="edge52_Node000002_Node000032" class="edge">
<title>Node2&#45;&gt;Node32</title>
<g id="a_edge52_Node000002_Node000032"><a xlink:title=" ">
<path fill="none" stroke="#63b8ff" d="M799.65,-351.95C825.9,-342.41 860.82,-329.71 888.88,-319.51"/>
<polygon fill="#63b8ff" stroke="#63b8ff" points="890.29,-322.72 898.49,-316.01 887.9,-316.14 890.29,-322.72"/>
</a>
</g>
</g>
<!-- Node4 -->
<g id="Node000004" class="node">
<title>Node4</title>
<g id="a_Node000004"><a xlink:href="Config_8hpp.html" target="_top" xlink:title="Contains compile time settings for the project, such as Eigen plugins.">
<polygon fill="white" stroke="#666666" points="912.03,-129 802.03,-129 802.03,-110 912.03,-110 912.03,-129"/>
<text text-anchor="middle" x="857.03" y="-117" font-family="Helvetica,sans-Serif" font-size="10.00">medusa/Config.hpp</text>
</a>
</g>
</g>
<!-- Node3&#45;&gt;Node4 -->
<g id="edge3_Node000003_Node000004" class="edge">
<title>Node3&#45;&gt;Node4</title>
<g id="a_edge3_Node000003_Node000004"><a xlink:title=" ">
<path fill="none" stroke="#63b8ff" d="M1122.73,-291.39C1139.99,-283.5 1162.5,-269.98 1173.03,-250 1179.25,-238.21 1179.05,-231.89 1173.03,-220 1154.34,-183.13 1135.98,-181.39 1098.03,-165 1041.57,-140.62 972.04,-129.58 922.19,-124.6"/>
<polygon fill="#63b8ff" stroke="#63b8ff" points="922.47,-121.11 912.18,-123.65 921.81,-128.07 922.47,-121.11"/>
</a>
</g>
</g>
<!-- Node6 -->
<g id="Node000006" class="node">
<title>Node6</title>
<g id="a_Node000006"><a xlink:href="Vec__fwd_8hpp.html" target="_top" xlink:title="Declaration of Vec.">
<polygon fill="white" stroke="#666666" points="1163.53,-250 1036.53,-250 1036.53,-220 1163.53,-220 1163.53,-250"/>
<text text-anchor="start" x="1044.53" y="-238" font-family="Helvetica,sans-Serif" font-size="10.00">medusa/bits/types/Vec</text>
<text text-anchor="middle" x="1100.03" y="-227" font-family="Helvetica,sans-Serif" font-size="10.00">_fwd.hpp</text>
</a>
</g>
</g>
<!-- Node3&#45;&gt;Node6 -->
<g id="edge5_Node000003_Node000006" class="edge">
<title>Node3&#45;&gt;Node6</title>
<g id="a_edge5_Node000003_Node000006"><a xlink:title=" ">
<path fill="none" stroke="#63b8ff" d="M1100.03,-291.37C1100.03,-283.49 1100.03,-271.45 1100.03,-260.6"/>
<polygon fill="#63b8ff" stroke="#63b8ff" points="1103.53,-260.36 1100.03,-250.36 1096.53,-260.36 1103.53,-260.36"/>
</a>
</g>
</g>
<!-- Node5 -->
<g id="Node000005" class="node">
<title>Node5</title>
<g id="a_Node000005"><a xlink:title=" ">
<polygon fill="#e0e0e0" stroke="#999999" points="675.53,-19 628.53,-19 628.53,0 675.53,0 675.53,-19"/>
<text text-anchor="middle" x="652.03" y="-7" font-family="Helvetica,sans-Serif" font-size="10.00">vector</text>
</a>
</g>
</g>
<!-- Node4&#45;&gt;Node5 -->
<g id="edge4_Node000004_Node000005" class="edge">
<title>Node4&#45;&gt;Node5</title>
<g id="a_edge4_Node000004_Node000005"><a xlink:title=" ">
<path fill="none" stroke="#63b8ff" d="M851.91,-109.7C843.48,-95.97 825.35,-69.51 803.03,-55 767,-31.58 718.27,-20.14 686.03,-14.8"/>
<polygon fill="#63b8ff" stroke="#63b8ff" points="686.19,-11.29 675.77,-13.22 685.12,-18.2 686.19,-11.29"/>
</a>
</g>
</g>
<!-- Node6&#45;&gt;Node4 -->
<g id="edge6_Node000006_Node000004" class="edge">
<title>Node6&#45;&gt;Node4</title>
<g id="a_edge6_Node000006_Node000004"><a xlink:title=" ">
<path fill="none" stroke="#63b8ff" d="M1099.57,-219.86C1098.26,-204.1 1093.67,-179.01 1078.03,-165 1055.37,-144.71 978.77,-132.65 922.07,-126.31"/>
<polygon fill="#63b8ff" stroke="#63b8ff" points="922.41,-122.83 912.09,-125.23 921.66,-129.79 922.41,-122.83"/>
</a>
</g>
</g>
<!-- Node7 -->
<g id="Node000007" class="node">
<title>Node7</title>
<g id="a_Node000007"><a xlink:title=" ">
<polygon fill="#e0e0e0" stroke="#999999" points="1068.53,-184 999.53,-184 999.53,-165 1068.53,-165 1068.53,-184"/>
<text text-anchor="middle" x="1034.03" y="-172" font-family="Helvetica,sans-Serif" font-size="10.00">Eigen/Core</text>
</a>
</g>
</g>
<!-- Node6&#45;&gt;Node7 -->
<g id="edge7_Node000006_Node000007" class="edge">
<title>Node6&#45;&gt;Node7</title>
<g id="a_edge7_Node000006_Node000007"><a xlink:title=" ">
<path fill="none" stroke="#63b8ff" d="M1084.05,-219.84C1074.27,-211.17 1061.75,-200.08 1051.68,-191.15"/>
<polygon fill="#63b8ff" stroke="#63b8ff" points="1053.72,-188.28 1043.92,-184.27 1049.08,-193.52 1053.72,-188.28"/>
</a>
</g>
</g>
<!-- Node8&#45;&gt;Node4 -->
<g id="edge9_Node000008_Node000004" class="edge">
<title>Node8&#45;&gt;Node4</title>
<g id="a_edge9_Node000008_Node000004"><a xlink:title=" ">
<path fill="none" stroke="#63b8ff" d="M764.24,-291.19C770.63,-274.83 786.49,-239.67 811.03,-220 848.54,-189.93 885.26,-223.24 913.03,-184 926.04,-165.6 903.38,-146.47 883.11,-134.07"/>
<polygon fill="#63b8ff" stroke="#63b8ff" points="884.8,-131.01 874.39,-129.04 881.3,-137.07 884.8,-131.01"/>
</a>
</g>
</g>
<!-- Node9 -->
<g id="Node000009" class="node">
<title>Node9</title>
<g id="a_Node000009"><a xlink:href="assert_8hpp.html" target="_top" xlink:title="Implementation of custom assert and debug utilities.">
<polygon fill="white" stroke="#666666" points="261.53,-129 106.53,-129 106.53,-110 261.53,-110 261.53,-129"/>
<text text-anchor="middle" x="184.03" y="-117" font-family="Helvetica,sans-Serif" font-size="10.00">medusa/bits/utils/assert.hpp</text>
</a>
</g>
</g>
<!-- Node8&#45;&gt;Node9 -->
<g id="edge10_Node000008_Node000009" class="edge">
<title>Node8&#45;&gt;Node9</title>
<g id="a_edge10_Node000008_Node000009"><a xlink:title=" ">
<path fill="none" stroke="#63b8ff" d="M677.29,-294.12C589.1,-287.06 446.45,-273.18 325.03,-250 214.26,-228.85 148.62,-273.51 80.03,-184 61.09,-159.29 98.3,-142 133.35,-131.77"/>
<polygon fill="#63b8ff" stroke="#63b8ff" points="134.42,-135.11 143.13,-129.07 132.56,-128.36 134.42,-135.11"/>
</a>
</g>
</g>
<!-- Node16 -->
<g id="Node000016" class="node">
<title>Node16</title>
<g id="a_Node000016"><a xlink:href="Range_8hpp.html" target="_top" xlink:title="Implementation of Range.">
<polygon fill="white" stroke="#666666" points="763.53,-244.5 602.53,-244.5 602.53,-225.5 763.53,-225.5 763.53,-244.5"/>
<text text-anchor="middle" x="683.03" y="-232.5" font-family="Helvetica,sans-Serif" font-size="10.00">medusa/bits/types/Range.hpp</text>
</a>
</g>
</g>
<!-- Node8&#45;&gt;Node16 -->
<g id="edge18_Node000008_Node000016" class="edge">
<title>Node8&#45;&gt;Node16</title>
<g id="a_edge18_Node000008_Node000016"><a xlink:title=" ">
<path fill="none" stroke="#63b8ff" d="M750.51,-291.37C737.95,-281.06 716.72,-263.65 701.42,-251.09"/>
<polygon fill="#63b8ff" stroke="#63b8ff" points="703.58,-248.34 693.63,-244.7 699.14,-253.75 703.58,-248.34"/>
</a>
</g>
</g>
<!-- Node22 -->
<g id="Node000022" class="node">
<title>Node22</title>
<g id="a_Node000022"><a xlink:title=" ">
<polygon fill="#e0e0e0" stroke="#999999" points="942.03,-244.5 888.03,-244.5 888.03,-225.5 942.03,-225.5 942.03,-244.5"/>
<text text-anchor="middle" x="915.03" y="-232.5" font-family="Helvetica,sans-Serif" font-size="10.00">random</text>
</a>
</g>
</g>
<!-- Node8&#45;&gt;Node22 -->
<g id="edge27_Node000008_Node000022" class="edge">
<title>Node8&#45;&gt;Node22</title>
<g id="a_edge27_Node000008_Node000022"><a xlink:title=" ">
<path fill="none" stroke="#63b8ff" d="M781.8,-291.37C808.32,-280.35 854.41,-261.19 884.82,-248.55"/>
<polygon fill="#63b8ff" stroke="#63b8ff" points="886.2,-251.77 894.1,-244.7 883.52,-245.3 886.2,-251.77"/>
</a>
</g>
</g>
<!-- Node23 -->
<g id="Node000023" class="node">
<title>Node23</title>
<g id="a_Node000023"><a xlink:title=" ">
<polygon fill="#e0e0e0" stroke="#999999" points="870.03,-244.5 820.03,-244.5 820.03,-225.5 870.03,-225.5 870.03,-244.5"/>
<text text-anchor="middle" x="845.03" y="-232.5" font-family="Helvetica,sans-Serif" font-size="10.00">chrono</text>
</a>
</g>
</g>
<!-- Node8&#45;&gt;Node23 -->
<g id="edge28_Node000008_Node000023" class="edge">
<title>Node8&#45;&gt;Node23</title>
<g id="a_edge28_Node000008_Node000023"><a xlink:title=" ">
<path fill="none" stroke="#63b8ff" d="M772.36,-291.37C785.88,-281.06 808.74,-263.65 825.22,-251.09"/>
<polygon fill="#63b8ff" stroke="#63b8ff" points="827.78,-253.54 833.61,-244.7 823.53,-247.98 827.78,-253.54"/>
</a>
</g>
</g>
<!-- Node10 -->
<g id="Node000010" class="node">
<title>Node10</title>
<g id="a_Node000010"><a xlink:title=" ">
<polygon fill="#e0e0e0" stroke="#999999" points="423.03,-74 291.03,-74 291.03,-55 423.03,-55 423.03,-74"/>
<text text-anchor="middle" x="357.03" y="-62" font-family="Helvetica,sans-Serif" font-size="10.00">tinyformat/tinyformat.h</text>
</a>
</g>
</g>
<!-- Node9&#45;&gt;Node10 -->
<g id="edge11_Node000009_Node000010" class="edge">
<title>Node9&#45;&gt;Node10</title>
<g id="a_edge11_Node000009_Node000010"><a xlink:title=" ">
<path fill="none" stroke="#63b8ff" d="M211.82,-109.98C240.99,-101.05 287.03,-86.94 319.43,-77.02"/>
<polygon fill="#63b8ff" stroke="#63b8ff" points="320.48,-80.36 329.01,-74.08 318.43,-73.66 320.48,-80.36"/>
</a>
</g>
</g>
<!-- Node11 -->
<g id="Node000011" class="node">
<title>Node11</title>
<g id="a_Node000011"><a xlink:href="print_8hpp.html" target="_top" xlink:title="Printing helpers for std types.">
<polygon fill="white" stroke="#666666" points="273.03,-74 213.03,-74 213.03,-55 273.03,-55 273.03,-74"/>
<text text-anchor="middle" x="243.03" y="-62" font-family="Helvetica,sans-Serif" font-size="10.00">print.hpp</text>
</a>
</g>
</g>
<!-- Node9&#45;&gt;Node11 -->
<g id="edge12_Node000009_Node000011" class="edge">
<title>Node9&#45;&gt;Node11</title>
<g id="a_edge12_Node000009_Node000011"><a xlink:title=" ">
<path fill="none" stroke="#63b8ff" d="M193.51,-109.98C202.23,-102.15 215.37,-90.34 225.93,-80.86"/>
<polygon fill="#63b8ff" stroke="#63b8ff" points="228.28,-83.46 233.38,-74.17 223.6,-78.25 228.28,-83.46"/>
</a>
</g>
</g>
<!-- Node11&#45;&gt;Node5 -->
<g id="edge14_Node000011_Node000005" class="edge">
<title>Node11&#45;&gt;Node5</title>
<g id="a_edge14_Node000011_Node000005"><a xlink:title=" ">
<path fill="none" stroke="#63b8ff" d="M273.21,-56.63C276.18,-56.04 279.16,-55.48 282.03,-55 405.01,-34.25 552.57,-19.52 617.97,-13.51"/>
<polygon fill="#63b8ff" stroke="#63b8ff" points="618.47,-16.98 628.11,-12.58 617.83,-10 618.47,-16.98"/>
</a>
</g>
</g>
<!-- Node12 -->
<g id="Node000012" class="node">
<title>Node12</title>
<g id="a_Node000012"><a xlink:title=" ">
<polygon fill="#e0e0e0" stroke="#999999" points="273.03,-19 213.03,-19 213.03,0 273.03,0 273.03,-19"/>
<text text-anchor="middle" x="243.03" y="-7" font-family="Helvetica,sans-Serif" font-size="10.00">iostream</text>
</a>
</g>
</g>
<!-- Node11&#45;&gt;Node12 -->
<g id="edge13_Node000011_Node000012" class="edge">
<title>Node11&#45;&gt;Node12</title>
<g id="a_edge13_Node000011_Node000012"><a xlink:title=" ">
<path fill="none" stroke="#63b8ff" d="M243.03,-54.75C243.03,-47.8 243.03,-37.85 243.03,-29.13"/>
<polygon fill="#63b8ff" stroke="#63b8ff" points="246.53,-29.09 243.03,-19.09 239.53,-29.09 246.53,-29.09"/>
</a>
</g>
</g>
<!-- Node13 -->
<g id="Node000013" class="node">
<title>Node13</title>
<g id="a_Node000013"><a xlink:title=" ">
<polygon fill="#e0e0e0" stroke="#999999" points="533.03,-19 491.03,-19 491.03,0 533.03,0 533.03,-19"/>
<text text-anchor="middle" x="512.03" y="-7" font-family="Helvetica,sans-Serif" font-size="10.00">array</text>
</a>
</g>
</g>
<!-- Node11&#45;&gt;Node13 -->
<g id="edge15_Node000011_Node000013" class="edge">
<title>Node11&#45;&gt;Node13</title>
<g id="a_edge15_Node000011_Node000013"><a xlink:title=" ">
<path fill="none" stroke="#63b8ff" d="M273.25,-56.84C276.21,-56.21 279.18,-55.59 282.03,-55 353.02,-40.4 436.63,-24.56 480.89,-16.28"/>
<polygon fill="#63b8ff" stroke="#63b8ff" points="481.56,-19.72 490.75,-14.44 480.28,-12.84 481.56,-19.72"/>
</a>
</g>
</g>
<!-- Node14 -->
<g id="Node000014" class="node">
<title>Node14</title>
<g id="a_Node000014"><a xlink:title=" ">
<polygon fill="#e0e0e0" stroke="#999999" points="336.53,-19 291.53,-19 291.53,0 336.53,0 336.53,-19"/>
<text text-anchor="middle" x="314.03" y="-7" font-family="Helvetica,sans-Serif" font-size="10.00">utility</text>
</a>
</g>
</g>
<!-- Node11&#45;&gt;Node14 -->
<g id="edge16_Node000011_Node000014" class="edge">
<title>Node11&#45;&gt;Node14</title>
<g id="a_edge16_Node000011_Node000014"><a xlink:title=" ">
<path fill="none" stroke="#63b8ff" d="M254.43,-54.98C265.14,-47 281.37,-34.88 294.19,-25.31"/>
<polygon fill="#63b8ff" stroke="#63b8ff" points="296.49,-27.96 302.41,-19.17 292.31,-22.35 296.49,-27.96"/>
</a>
</g>
</g>
<!-- Node15 -->
<g id="Node000015" class="node">
<title>Node15</title>
<g id="a_Node000015"><a xlink:title=" ">
<polygon fill="#e0e0e0" stroke="#999999" points="194.53,-19 153.53,-19 153.53,0 194.53,0 194.53,-19"/>
<text text-anchor="middle" x="174.03" y="-7" font-family="Helvetica,sans-Serif" font-size="10.00">tuple</text>
</a>
</g>
</g>
<!-- Node11&#45;&gt;Node15 -->
<g id="edge17_Node000011_Node000015" class="edge">
<title>Node11&#45;&gt;Node15</title>
<g id="a_edge17_Node000011_Node000015"><a xlink:title=" ">
<path fill="none" stroke="#63b8ff" d="M231.94,-54.98C221.54,-47 205.77,-34.88 193.31,-25.31"/>
<polygon fill="#63b8ff" stroke="#63b8ff" points="195.38,-22.49 185.32,-19.17 191.11,-28.04 195.38,-22.49"/>
</a>
</g>
</g>
<!-- Node17 -->
<g id="Node000017" class="node">
<title>Node17</title>
<g id="a_Node000017"><a xlink:href="Range__fwd_8hpp.html" target="_top" xlink:title="Declaration of Range.">
<polygon fill="white" stroke="#666666" points="533.53,-184 442.53,-184 442.53,-165 533.53,-165 533.53,-184"/>
<text text-anchor="middle" x="488.03" y="-172" font-family="Helvetica,sans-Serif" font-size="10.00">Range_fwd.hpp</text>
</a>
</g>
</g>
<!-- Node16&#45;&gt;Node17 -->
<g id="edge19_Node000016_Node000017" class="edge">
<title>Node16&#45;&gt;Node17</title>
<g id="a_edge19_Node000016_Node000017"><a xlink:title=" ">
<path fill="none" stroke="#63b8ff" d="M654.67,-225.49C620.73,-215.31 563.77,-198.22 526.04,-186.9"/>
<polygon fill="#63b8ff" stroke="#63b8ff" points="527,-183.54 516.42,-184.02 524.99,-190.24 527,-183.54"/>
</a>
</g>
</g>
<!-- Node21 -->
<g id="Node000021" class="node">
<title>Node21</title>
<g id="a_Node000021"><a xlink:title=" ">
<polygon fill="#e0e0e0" stroke="#999999" points="904.03,-184 840.03,-184 840.03,-165 904.03,-165 904.03,-184"/>
<text text-anchor="middle" x="872.03" y="-172" font-family="Helvetica,sans-Serif" font-size="10.00">algorithm</text>
</a>
</g>
</g>
<!-- Node16&#45;&gt;Node21 -->
<g id="edge26_Node000016_Node000021" class="edge">
<title>Node16&#45;&gt;Node21</title>
<g id="a_edge26_Node000016_Node000021"><a xlink:title=" ">
<path fill="none" stroke="#63b8ff" d="M710.51,-225.49C743.26,-215.36 798.15,-198.37 834.72,-187.05"/>
<polygon fill="#63b8ff" stroke="#63b8ff" points="835.99,-190.32 844.51,-184.02 833.92,-183.63 835.99,-190.32"/>
</a>
</g>
</g>
<!-- Node17&#45;&gt;Node4 -->
<g id="edge20_Node000017_Node000004" class="edge">
<title>Node17&#45;&gt;Node4</title>
<g id="a_edge20_Node000017_Node000004"><a xlink:title=" ">
<path fill="none" stroke="#63b8ff" d="M533.64,-166.95C598.47,-157.64 717.59,-140.53 791.75,-129.88"/>
<polygon fill="#63b8ff" stroke="#63b8ff" points="792.51,-133.3 801.91,-128.42 791.51,-126.37 792.51,-133.3"/>
</a>
</g>
</g>
<!-- Node17&#45;&gt;Node5 -->
<g id="edge24_Node000017_Node000005" class="edge">
<title>Node17&#45;&gt;Node5</title>
<g id="a_edge24_Node000017_Node000005"><a xlink:title=" ">
<path fill="none" stroke="#63b8ff" d="M492.55,-164.68C499.38,-151.83 513.24,-127.57 529.03,-110 560.23,-75.28 604.21,-42.8 630.26,-24.9"/>
<polygon fill="#63b8ff" stroke="#63b8ff" points="632.36,-27.7 638.67,-19.19 628.43,-21.91 632.36,-27.7"/>
</a>
</g>
</g>
<!-- Node17&#45;&gt;Node9 -->
<g id="edge21_Node000017_Node000009" class="edge">
<title>Node17&#45;&gt;Node9</title>
<g id="a_edge21_Node000017_Node000009"><a xlink:title=" ">
<path fill="none" stroke="#63b8ff" d="M442.52,-165.57C389.39,-156.3 301.38,-140.96 243.05,-130.79"/>
<polygon fill="#63b8ff" stroke="#63b8ff" points="243.33,-127.29 232.88,-129.02 242.13,-134.18 243.33,-127.29"/>
</a>
</g>
</g>
<!-- Node18 -->
<g id="Node000018" class="node">
<title>Node18</title>
<g id="a_Node000018"><a xlink:href="traits_8hpp.html" target="_top" xlink:title="Type traits definition for vector and scalar fields.">
<polygon fill="white" stroke="#666666" points="481.53,-129 418.53,-129 418.53,-110 481.53,-110 481.53,-129"/>
<text text-anchor="middle" x="450.03" y="-117" font-family="Helvetica,sans-Serif" font-size="10.00">traits.hpp</text>
</a>
</g>
</g>
<!-- Node17&#45;&gt;Node18 -->
<g id="edge22_Node000017_Node000018" class="edge">
<title>Node17&#45;&gt;Node18</title>
<g id="a_edge22_Node000017_Node000018"><a xlink:title=" ">
<path fill="none" stroke="#63b8ff" d="M481.75,-164.75C476.44,-157.34 468.67,-146.5 462.15,-137.41"/>
<polygon fill="#63b8ff" stroke="#63b8ff" points="464.86,-135.18 456.19,-129.09 459.17,-139.26 464.86,-135.18"/>
</a>
</g>
</g>
<!-- Node19 -->
<g id="Node000019" class="node">
<title>Node19</title>
<g id="a_Node000019"><a xlink:title=" ">
<polygon fill="#e0e0e0" stroke="#999999" points="369.03,-129 311.03,-129 311.03,-110 369.03,-110 369.03,-129"/>
<text text-anchor="middle" x="340.03" y="-117" font-family="Helvetica,sans-Serif" font-size="10.00">memory</text>
</a>
</g>
</g>
<!-- Node17&#45;&gt;Node19 -->
<g id="edge23_Node000017_Node000019" class="edge">
<title>Node17&#45;&gt;Node19</title>
<g id="a_edge23_Node000017_Node000019"><a xlink:title=" ">
<path fill="none" stroke="#63b8ff" d="M464.25,-164.98C439.8,-156.23 401.49,-142.51 373.88,-132.62"/>
<polygon fill="#63b8ff" stroke="#63b8ff" points="374.83,-129.25 364.24,-129.17 372.47,-135.84 374.83,-129.25"/>
</a>
</g>
</g>
<!-- Node20 -->
<g id="Node000020" class="node">
<title>Node20</title>
<g id="a_Node000020"><a xlink:title=" ">
<polygon fill="#e0e0e0" stroke="#999999" points="586.03,-129 538.03,-129 538.03,-110 586.03,-110 586.03,-129"/>
<text text-anchor="middle" x="562.03" y="-117" font-family="Helvetica,sans-Serif" font-size="10.00">iosfwd</text>
</a>
</g>
</g>
<!-- Node17&#45;&gt;Node20 -->
<g id="edge25_Node000017_Node000020" class="edge">
<title>Node17&#45;&gt;Node20</title>
<g id="a_edge25_Node000017_Node000020"><a xlink:title=" ">
<path fill="none" stroke="#63b8ff" d="M499.92,-164.98C511.18,-156.92 528.31,-144.65 541.74,-135.03"/>
<polygon fill="#63b8ff" stroke="#63b8ff" points="543.83,-137.84 549.92,-129.17 539.75,-132.15 543.83,-137.84"/>
</a>
</g>
</g>
<!-- Node24&#45;&gt;Node9 -->
<g id="edge41_Node000024_Node000009" class="edge">
<title>Node24&#45;&gt;Node9</title>
<g id="a_edge41_Node000024_Node000009"><a xlink:title=" ">
<path fill="none" stroke="#63b8ff" d="M316.43,-300.63C226.19,-300.29 56,-293.69 18.03,-250 -6.75,-221.49 -4.97,-194.97 18.03,-165 29.96,-149.45 73.36,-138.14 112.78,-130.82"/>
<polygon fill="#63b8ff" stroke="#63b8ff" points="113.48,-134.25 122.7,-129.04 112.24,-127.36 113.48,-134.25"/>
</a>
</g>
</g>
<!-- Node25 -->
<g id="Node000025" class="node">
<title>Node25</title>
<g id="a_Node000025"><a xlink:href="KDTree__fwd_8hpp.html" target="_top" xlink:title="Declaration of KDTree.">
<polygon fill="white" stroke="#666666" points="560.53,-244.5 465.53,-244.5 465.53,-225.5 560.53,-225.5 560.53,-244.5"/>
<text text-anchor="middle" x="513.03" y="-232.5" font-family="Helvetica,sans-Serif" font-size="10.00">KDTree_fwd.hpp</text>
</a>
</g>
</g>
<!-- Node24&#45;&gt;Node25 -->
<g id="edge30_Node000024_Node000025" class="edge">
<title>Node24&#45;&gt;Node25</title>
<g id="a_edge30_Node000024_Node000025"><a xlink:title=" ">
<path fill="none" stroke="#63b8ff" d="M403.75,-285.95C427.98,-274.88 461.49,-259.56 484.99,-248.82"/>
<polygon fill="#63b8ff" stroke="#63b8ff" points="486.76,-251.86 494.4,-244.52 483.85,-245.49 486.76,-251.86"/>
</a>
</g>
</g>
<!-- Node27 -->
<g id="Node000027" class="node">
<title>Node27</title>
<g id="a_Node000027"><a xlink:href="memutils_8hpp.html" target="_top" xlink:title="Declaration of memory related utilities.">
<polygon fill="white" stroke="#666666" points="269.53,-184 98.53,-184 98.53,-165 269.53,-165 269.53,-184"/>
<text text-anchor="middle" x="184.03" y="-172" font-family="Helvetica,sans-Serif" font-size="10.00">medusa/bits/utils/memutils.hpp</text>
</a>
</g>
</g>
<!-- Node24&#45;&gt;Node27 -->
<g id="edge42_Node000024_Node000027" class="edge">
<title>Node24&#45;&gt;Node27</title>
<g id="a_edge42_Node000024_Node000027"><a xlink:title=" ">
<path fill="none" stroke="#63b8ff" d="M351.71,-285.96C315.4,-262.04 241.95,-213.65 205.52,-189.66"/>
<polygon fill="#63b8ff" stroke="#63b8ff" points="207.37,-186.69 197.1,-184.11 203.52,-192.53 207.37,-186.69"/>
</a>
</g>
</g>
<!-- Node25&#45;&gt;Node4 -->
<g id="edge31_Node000025_Node000004" class="edge">
<title>Node25&#45;&gt;Node4</title>
<g id="a_edge31_Node000025_Node000004"><a xlink:title=" ">
<path fill="none" stroke="#63b8ff" d="M560.78,-225.67C638.17,-212.11 782.94,-186.53 788.03,-184 810.69,-172.72 831.28,-151.72 843.95,-136.96"/>
<polygon fill="#63b8ff" stroke="#63b8ff" points="846.76,-139.05 850.45,-129.12 841.38,-134.58 846.76,-139.05"/>
</a>
</g>
</g>
<!-- Node25&#45;&gt;Node17 -->
<g id="edge33_Node000025_Node000017" class="edge">
<title>Node25&#45;&gt;Node17</title>
<g id="a_edge33_Node000025_Node000017"><a xlink:title=" ">
<path fill="none" stroke="#63b8ff" d="M509.34,-225.37C505.76,-216.99 500.21,-204.01 495.67,-193.39"/>
<polygon fill="#63b8ff" stroke="#63b8ff" points="498.88,-191.99 491.73,-184.17 492.44,-194.74 498.88,-191.99"/>
</a>
</g>
</g>
<!-- Node25&#45;&gt;Node20 -->
<g id="edge34_Node000025_Node000020" class="edge">
<title>Node25&#45;&gt;Node20</title>
<g id="a_edge34_Node000025_Node000020"><a xlink:title=" ">
<path fill="none" stroke="#63b8ff" d="M518.77,-225.46C525.11,-215.74 535.31,-199.24 542.03,-184 548.45,-169.44 553.75,-152.18 557.27,-139.33"/>
<polygon fill="#63b8ff" stroke="#63b8ff" points="560.74,-139.91 559.9,-129.35 553.97,-138.13 560.74,-139.91"/>
</a>
</g>
</g>
<!-- Node26 -->
<g id="Node000026" class="node">
<title>Node26</title>
<g id="a_Node000026"><a xlink:title=" ">
<polygon fill="#e0e0e0" stroke="#999999" points="424.53,-184 287.53,-184 287.53,-165 424.53,-165 424.53,-184"/>
<text text-anchor="middle" x="356.03" y="-172" font-family="Helvetica,sans-Serif" font-size="10.00">nanoflann/nanoflann.hpp</text>
</a>
</g>
</g>
<!-- Node25&#45;&gt;Node26 -->
<g id="edge32_Node000025_Node000026" class="edge">
<title>Node25&#45;&gt;Node26</title>
<g id="a_edge32_Node000025_Node000026"><a xlink:title=" ">
<path fill="none" stroke="#63b8ff" d="M490.2,-225.49C463.46,-215.53 418.95,-198.95 388.59,-187.63"/>
<polygon fill="#63b8ff" stroke="#63b8ff" points="389.48,-184.23 378.88,-184.02 387.03,-190.79 389.48,-184.23"/>
</a>
</g>
</g>
<!-- Node25&#45;&gt;Node27 -->
<g id="edge35_Node000025_Node000027" class="edge">
<title>Node25&#45;&gt;Node27</title>
<g id="a_edge35_Node000025_Node000027"><a xlink:title=" ">
<path fill="none" stroke="#63b8ff" d="M480.27,-225.49C472.36,-223.56 463.91,-221.61 456.03,-220 387.95,-206.09 309.59,-193.65 254.51,-185.48"/>
<polygon fill="#63b8ff" stroke="#63b8ff" points="254.91,-182 244.51,-184 253.89,-188.92 254.91,-182"/>
</a>
</g>
</g>
<!-- Node28 -->
<g id="Node000028" class="node">
<title>Node28</title>
<g id="a_Node000028"><a xlink:href="PointCloud_8hpp.html" target="_top" xlink:title="Implementation of KDTree storage class.">
<polygon fill="white" stroke="#666666" points="794.03,-74 704.03,-74 704.03,-55 794.03,-55 794.03,-74"/>
<text text-anchor="middle" x="749.03" y="-62" font-family="Helvetica,sans-Serif" font-size="10.00">PointCloud.hpp</text>
</a>
</g>
</g>
<!-- Node25&#45;&gt;Node28 -->
<g id="edge39_Node000025_Node000028" class="edge">
<title>Node25&#45;&gt;Node28</title>
<g id="a_edge39_Node000025_Node000028"><a xlink:title=" ">
<path fill="none" stroke="#63b8ff" d="M560.74,-225.73C629.48,-213.59 748.87,-191.56 755.03,-184 778.25,-155.49 766.17,-109.13 756.73,-83.67"/>
<polygon fill="#63b8ff" stroke="#63b8ff" points="759.89,-82.15 752.95,-74.15 753.39,-84.73 759.89,-82.15"/>
</a>
</g>
</g>
<!-- Node27&#45;&gt;Node4 -->
<g id="edge37_Node000027_Node000004" class="edge">
<title>Node27&#45;&gt;Node4</title>
<g id="a_edge37_Node000027_Node000004"><a xlink:title=" ">
<path fill="none" stroke="#63b8ff" d="M269.58,-165.71C272.43,-165.47 275.25,-165.23 278.03,-165 464.41,-149.41 684.72,-133.05 791.91,-125.22"/>
<polygon fill="#63b8ff" stroke="#63b8ff" points="792.2,-128.71 801.92,-124.49 791.69,-121.72 792.2,-128.71"/>
</a>
</g>
</g>
<!-- Node27&#45;&gt;Node9 -->
<g id="edge38_Node000027_Node000009" class="edge">
<title>Node27&#45;&gt;Node9</title>
<g id="a_edge38_Node000027_Node000009"><a xlink:title=" ">
<path fill="none" stroke="#63b8ff" d="M184.03,-164.75C184.03,-157.8 184.03,-147.85 184.03,-139.13"/>
<polygon fill="#63b8ff" stroke="#63b8ff" points="187.53,-139.09 184.03,-129.09 180.53,-139.09 187.53,-139.09"/>
</a>
</g>
</g>
<!-- Node27&#45;&gt;Node19 -->
<g id="edge36_Node000027_Node000019" class="edge">
<title>Node27&#45;&gt;Node19</title>
<g id="a_edge36_Node000027_Node000019"><a xlink:title=" ">
<path fill="none" stroke="#63b8ff" d="M209.09,-164.98C235.06,-156.16 275.84,-142.31 304.99,-132.41"/>
<polygon fill="#63b8ff" stroke="#63b8ff" points="306.42,-135.61 314.77,-129.08 304.17,-128.99 306.42,-135.61"/>
</a>
</g>
</g>
<!-- Node28&#45;&gt;Node5 -->
<g id="edge40_Node000028_Node000005" class="edge">
<title>Node28&#45;&gt;Node5</title>
<g id="a_edge40_Node000028_Node000005"><a xlink:title=" ">
<path fill="none" stroke="#63b8ff" d="M733.44,-54.98C718.26,-46.69 694.93,-33.94 677.13,-24.22"/>
<polygon fill="#63b8ff" stroke="#63b8ff" points="678.35,-20.89 667.9,-19.17 674.99,-27.04 678.35,-20.89"/>
</a>
</g>
</g>
<!-- Node29&#45;&gt;Node9 -->
<g id="edge49_Node000029_Node000009" class="edge">
<title>Node29&#45;&gt;Node9</title>
<g id="a_edge49_Node000029_Node000009"><a xlink:title=" ">
<path fill="none" stroke="#63b8ff" d="M334.51,-233.02C255.94,-230.32 119.88,-220.38 89.03,-184 69.52,-161 106.67,-142.93 140.07,-132.04"/>
<polygon fill="#63b8ff" stroke="#63b8ff" points="141.28,-135.33 149.8,-129.03 139.21,-128.64 141.28,-135.33"/>
</a>
</g>
</g>
<!-- Node29&#45;&gt;Node27 -->
<g id="edge50_Node000029_Node000027" class="edge">
<title>Node29&#45;&gt;Node27</title>
<g id="a_edge50_Node000029_Node000027"><a xlink:title=" ">
<path fill="none" stroke="#63b8ff" d="M341.45,-219.99C305.57,-209.85 257.7,-196.32 224.2,-186.85"/>
<polygon fill="#63b8ff" stroke="#63b8ff" points="224.87,-183.41 214.29,-184.05 222.97,-190.14 224.87,-183.41"/>
</a>
</g>
</g>
<!-- Node30 -->
<g id="Node000030" class="node">
<title>Node30</title>
<g id="a_Node000030"><a xlink:href="Grid__fwd_8hpp.html" target="_top" xlink:title="Declaration of Grid.">
<polygon fill="white" stroke="#666666" points="670.03,-184 590.03,-184 590.03,-165 670.03,-165 670.03,-184"/>
<text text-anchor="middle" x="630.03" y="-172" font-family="Helvetica,sans-Serif" font-size="10.00">Grid_fwd.hpp</text>
</a>
</g>
</g>
<!-- Node29&#45;&gt;Node30 -->
<g id="edge44_Node000029_Node000030" class="edge">
<title>Node29&#45;&gt;Node30</title>
<g id="a_edge44_Node000029_Node000030"><a xlink:title=" ">
<path fill="none" stroke="#63b8ff" d="M447.67,-220.14C489.74,-209.84 546.34,-195.99 585.26,-186.46"/>
<polygon fill="#63b8ff" stroke="#63b8ff" points="586.37,-189.79 595.25,-184.01 584.71,-182.99 586.37,-189.79"/>
</a>
</g>
</g>
<!-- Node31 -->
<g id="Node000031" class="node">
<title>Node31</title>
<g id="a_Node000031"><a xlink:title=" ">
<polygon fill="#e0e0e0" stroke="#999999" points="745.53,-184 688.53,-184 688.53,-165 745.53,-165 745.53,-184"/>
<text text-anchor="middle" x="717.03" y="-172" font-family="Helvetica,sans-Serif" font-size="10.00">ostream</text>
</a>
</g>
</g>
<!-- Node29&#45;&gt;Node31 -->
<g id="edge51_Node000029_Node000031" class="edge">
<title>Node29&#45;&gt;Node31</title>
<g id="a_edge51_Node000029_Node000031"><a xlink:title=" ">
<path fill="none" stroke="#63b8ff" d="M447.71,-221.61C450.52,-221.05 453.3,-220.51 456.03,-220 551.61,-202 578.76,-202.89 678.54,-183.98"/>
<polygon fill="#63b8ff" stroke="#63b8ff" points="679.27,-187.41 688.43,-182.09 677.95,-180.53 679.27,-187.41"/>
</a>
</g>
</g>
<!-- Node30&#45;&gt;Node4 -->
<g id="edge45_Node000030_Node000004" class="edge">
<title>Node30&#45;&gt;Node4</title>
<g id="a_edge45_Node000030_Node000004"><a xlink:title=" ">
<path fill="none" stroke="#63b8ff" d="M666.5,-164.98C705.6,-155.86 767.79,-141.33 810.42,-131.38"/>
<polygon fill="#63b8ff" stroke="#63b8ff" points="811.33,-134.76 820.27,-129.08 809.74,-127.95 811.33,-134.76"/>
</a>
</g>
</g>
<!-- Node30&#45;&gt;Node5 -->
<g id="edge47_Node000030_Node000005" class="edge">
<title>Node30&#45;&gt;Node5</title>
<g id="a_edge47_Node000030_Node000005"><a xlink:title=" ">
<path fill="none" stroke="#63b8ff" d="M631.21,-164.74C634.66,-139.2 644.75,-64.43 649.5,-29.23"/>
<polygon fill="#63b8ff" stroke="#63b8ff" points="652.97,-29.69 650.84,-19.31 646.03,-28.75 652.97,-29.69"/>
</a>
</g>
</g>
<!-- Node30&#45;&gt;Node13 -->
<g id="edge46_Node000030_Node000013" class="edge">
<title>Node30&#45;&gt;Node13</title>
<g id="a_edge46_Node000030_Node000013"><a xlink:title=" ">
<path fill="none" stroke="#63b8ff" d="M625.99,-164.98C619.92,-152.5 607.81,-128.71 595.03,-110 573.69,-78.78 544.58,-45.65 527.11,-26.59"/>
<polygon fill="#63b8ff" stroke="#63b8ff" points="529.54,-24.06 520.18,-19.1 524.41,-28.82 529.54,-24.06"/>
</a>
</g>
</g>
<!-- Node30&#45;&gt;Node20 -->
<g id="edge48_Node000030_Node000020" class="edge">
<title>Node30&#45;&gt;Node20</title>
<g id="a_edge48_Node000030_Node000020"><a xlink:title=" ">
<path fill="none" stroke="#63b8ff" d="M619.1,-164.98C608.95,-157.07 593.61,-145.11 581.38,-135.58"/>
<polygon fill="#63b8ff" stroke="#63b8ff" points="583.19,-132.56 573.15,-129.17 578.89,-138.08 583.19,-132.56"/>
</a>
</g>
</g>
<!-- Node32&#45;&gt;Node4 -->
<g id="edge53_Node000032_Node000004" class="edge">
<title>Node32&#45;&gt;Node4</title>
<g id="a_edge53_Node000032_Node000004"><a xlink:title=" ">
<path fill="none" stroke="#63b8ff" d="M943.2,-285.89C953.68,-259.56 971.45,-202.25 946.03,-165 935.61,-149.73 918.35,-139.45 901.79,-132.66"/>
<polygon fill="#63b8ff" stroke="#63b8ff" points="902.77,-129.29 892.18,-129.05 900.31,-135.84 902.77,-129.29"/>
</a>
</g>
</g>
<!-- Node32&#45;&gt;Node7 -->
<g id="edge55_Node000032_Node000007" class="edge">
<title>Node32&#45;&gt;Node7</title>
<g id="a_edge55_Node000032_Node000007"><a xlink:title=" ">
<path fill="none" stroke="#63b8ff" d="M951.67,-285.69C961.3,-275.99 973.93,-262.67 984.03,-250 998.98,-231.24 1014.04,-208.08 1023.67,-192.61"/>
<polygon fill="#63b8ff" stroke="#63b8ff" points="1026.65,-194.43 1028.91,-184.08 1020.69,-190.77 1026.65,-194.43"/>
</a>
</g>
</g>
<!-- Node32&#45;&gt;Node16 -->
<g id="edge54_Node000032_Node000016" class="edge">
<title>Node32&#45;&gt;Node16</title>
<g id="a_edge54_Node000032_Node000016"><a xlink:title=" ">
<path fill="none" stroke="#63b8ff" d="M881.29,-285.95C834.78,-274.24 769.42,-257.77 726.66,-246.99"/>
<polygon fill="#63b8ff" stroke="#63b8ff" points="727.38,-243.57 716.83,-244.52 725.67,-250.35 727.38,-243.57"/>
</a>
</g>
</g>
<!-- Node32&#45;&gt;Node22 -->
<g id="edge56_Node000032_Node000022" class="edge">
<title>Node32&#45;&gt;Node22</title>
<g id="a_edge56_Node000032_Node000022"><a xlink:title=" ">
<path fill="none" stroke="#63b8ff" d="M932.15,-285.8C928.98,-276.6 924.84,-264.53 921.41,-254.58"/>
<polygon fill="#63b8ff" stroke="#63b8ff" points="924.63,-253.16 918.07,-244.84 918.01,-255.44 924.63,-253.16"/>
</a>
</g>
</g>
</g>
</svg>
