<?xml version="1.0" encoding="UTF-8" standalone="no"?>
<!DOCTYPE svg PUBLIC "-//W3C//DTD SVG 1.1//EN"
 "http://www.w3.org/Graphics/SVG/1.1/DTD/svg11.dtd">
<!-- Generated by graphviz version 2.43.0 (0)
 -->
<!-- Title: include/medusa/bits/spatial_search/Grid.hpp Pages: 1 -->
<svg width="454pt" height="170pt"
 viewBox="0.00 0.00 453.50 170.00" xmlns="http://www.w3.org/2000/svg" xmlns:xlink="http://www.w3.org/1999/xlink">
<g id="graph0" class="graph" transform="scale(1 1) rotate(0) translate(4 166)">
<title>include/medusa/bits/spatial_search/Grid.hpp</title>
<!-- Node1 -->
<g id="Node000001" class="node">
<title>Node1</title>
<g id="a_Node000001"><a xlink:title="Implementation of Grid.">
<polygon fill="#999999" stroke="#666666" points="315.5,-162 181.5,-162 181.5,-132 315.5,-132 315.5,-162"/>
<text text-anchor="start" x="189.5" y="-150" font-family="Helvetica,sans-Serif" font-size="10.00">include/medusa/bits</text>
<text text-anchor="middle" x="248.5" y="-139" font-family="Helvetica,sans-Serif" font-size="10.00">/spatial_search/Grid.hpp</text>
</a>
</g>
</g>
<!-- Node2 -->
<g id="Node000002" class="node">
<title>Node2</title>
<g id="a_Node000002"><a xlink:href="GrainDropFill_8hpp.html" target="_top" xlink:title="Implementation of the GrainDropFill fill engine.">
<polygon fill="white" stroke="#666666" points="156,-96 7,-96 7,-66 156,-66 156,-96"/>
<text text-anchor="start" x="15" y="-84" font-family="Helvetica,sans-Serif" font-size="10.00">include/medusa/bits</text>
<text text-anchor="middle" x="81.5" y="-73" font-family="Helvetica,sans-Serif" font-size="10.00">/domains/GrainDropFill.hpp</text>
</a>
</g>
</g>
<!-- Node1&#45;&gt;Node2 -->
<g id="edge1_Node000001_Node000002" class="edge">
<title>Node1&#45;&gt;Node2</title>
<g id="a_edge1_Node000001_Node000002"><a xlink:title=" ">
<path fill="none" stroke="#63b8ff" d="M202.37,-128.32C175.79,-118.14 142.84,-105.51 118.06,-96.01"/>
<polygon fill="#63b8ff" stroke="#63b8ff" points="201.26,-131.64 211.85,-131.95 203.77,-125.11 201.26,-131.64"/>
</a>
</g>
</g>
<!-- Node4 -->
<g id="Node000004" class="node">
<title>Node4</title>
<g id="a_Node000004"><a xlink:href="KDGrid_8hpp.html" target="_top" xlink:title="Implementation of KDGrid.">
<polygon fill="white" stroke="#666666" points="323,-96 174,-96 174,-66 323,-66 323,-96"/>
<text text-anchor="start" x="182" y="-84" font-family="Helvetica,sans-Serif" font-size="10.00">include/medusa/bits</text>
<text text-anchor="middle" x="248.5" y="-73" font-family="Helvetica,sans-Serif" font-size="10.00">/spatial_search/KDGrid.hpp</text>
</a>
</g>
</g>
<!-- Node1&#45;&gt;Node4 -->
<g id="edge3_Node000001_Node000004" class="edge">
<title>Node1&#45;&gt;Node4</title>
<g id="a_edge3_Node000001_Node000004"><a xlink:title=" ">
<path fill="none" stroke="#63b8ff" d="M248.5,-121.54C248.5,-112.96 248.5,-103.61 248.5,-96.16"/>
<polygon fill="#63b8ff" stroke="#63b8ff" points="245,-121.8 248.5,-131.8 252,-121.8 245,-121.8"/>
</a>
</g>
</g>
<!-- Node6 -->
<g id="Node000006" class="node">
<title>Node6</title>
<g id="a_Node000006"><a xlink:href="Grid_8cpp.html" target="_top" xlink:title="Instantiations of Grid.">
<polygon fill="white" stroke="#666666" points="445.5,-96 341.5,-96 341.5,-66 445.5,-66 445.5,-96"/>
<text text-anchor="start" x="349.5" y="-84" font-family="Helvetica,sans-Serif" font-size="10.00">src/spatial_search</text>
<text text-anchor="middle" x="393.5" y="-73" font-family="Helvetica,sans-Serif" font-size="10.00">/Grid.cpp</text>
</a>
</g>
</g>
<!-- Node1&#45;&gt;Node6 -->
<g id="edge5_Node000001_Node000006" class="edge">
<title>Node1&#45;&gt;Node6</title>
<g id="a_edge5_Node000001_Node000006"><a xlink:title=" ">
<path fill="none" stroke="#63b8ff" d="M289.77,-127.78C312.63,-117.69 340.62,-105.34 361.75,-96.01"/>
<polygon fill="#63b8ff" stroke="#63b8ff" points="288.06,-124.71 280.32,-131.95 290.88,-131.12 288.06,-124.71"/>
</a>
</g>
</g>
<!-- Node3 -->
<g id="Node000003" class="node">
<title>Node3</title>
<g id="a_Node000003"><a xlink:href="GrainDropFill_8cpp.html" target="_top" xlink:title="Explicit instantiations for common parameters.">
<polygon fill="white" stroke="#666666" points="163,-24.5 0,-24.5 0,-5.5 163,-5.5 163,-24.5"/>
<text text-anchor="middle" x="81.5" y="-12.5" font-family="Helvetica,sans-Serif" font-size="10.00">src/domains/GrainDropFill.cpp</text>
</a>
</g>
</g>
<!-- Node2&#45;&gt;Node3 -->
<g id="edge2_Node000002_Node000003" class="edge">
<title>Node2&#45;&gt;Node3</title>
<g id="a_edge2_Node000002_Node000003"><a xlink:title=" ">
<path fill="none" stroke="#63b8ff" d="M81.5,-55.6C81.5,-44.8 81.5,-32.78 81.5,-24.84"/>
<polygon fill="#63b8ff" stroke="#63b8ff" points="78,-55.8 81.5,-65.8 85,-55.8 78,-55.8"/>
</a>
</g>
</g>
<!-- Node5 -->
<g id="Node000005" class="node">
<title>Node5</title>
<g id="a_Node000005"><a xlink:href="KDGrid_8cpp.html" target="_top" xlink:title="Instantiations of KDGrid.">
<polygon fill="white" stroke="#666666" points="300.5,-30 196.5,-30 196.5,0 300.5,0 300.5,-30"/>
<text text-anchor="start" x="204.5" y="-18" font-family="Helvetica,sans-Serif" font-size="10.00">src/spatial_search</text>
<text text-anchor="middle" x="248.5" y="-7" font-family="Helvetica,sans-Serif" font-size="10.00">/KDGrid.cpp</text>
</a>
</g>
</g>
<!-- Node4&#45;&gt;Node5 -->
<g id="edge4_Node000004_Node000005" class="edge">
<title>Node4&#45;&gt;Node5</title>
<g id="a_edge4_Node000004_Node000005"><a xlink:title=" ">
<path fill="none" stroke="#63b8ff" d="M248.5,-55.54C248.5,-46.96 248.5,-37.61 248.5,-30.16"/>
<polygon fill="#63b8ff" stroke="#63b8ff" points="245,-55.8 248.5,-65.8 252,-55.8 245,-55.8"/>
</a>
</g>
</g>
</g>
</svg>
