<?xml version="1.0" encoding="UTF-8" standalone="no"?>
<!DOCTYPE svg PUBLIC "-//W3C//DTD SVG 1.1//EN"
 "http://www.w3.org/Graphics/SVG/1.1/DTD/svg11.dtd">
<!-- Generated by graphviz version 2.43.0 (0)
 -->
<!-- Title: include/medusa/bits/spatial_search/Grid_fwd.hpp Pages: 1 -->
<svg width="456pt" height="258pt"
 viewBox="0.00 0.00 456.00 258.00" xmlns="http://www.w3.org/2000/svg" xmlns:xlink="http://www.w3.org/1999/xlink">
<g id="graph0" class="graph" transform="scale(1 1) rotate(0) translate(4 254)">
<title>include/medusa/bits/spatial_search/Grid_fwd.hpp</title>
<!-- Node1 -->
<g id="Node000001" class="node">
<title>Node1</title>
<g id="a_Node000001"><a xlink:title="Declaration of Grid.">
<polygon fill="#999999" stroke="#666666" points="357,-250 242,-250 242,-209 357,-209 357,-250"/>
<text text-anchor="start" x="250" y="-238" font-family="Helvetica,sans-Serif" font-size="10.00">include/medusa/bits</text>
<text text-anchor="start" x="250" y="-227" font-family="Helvetica,sans-Serif" font-size="10.00">/spatial_search/Grid</text>
<text text-anchor="middle" x="299.5" y="-216" font-family="Helvetica,sans-Serif" font-size="10.00">_fwd.hpp</text>
</a>
</g>
</g>
<!-- Node2 -->
<g id="Node000002" class="node">
<title>Node2</title>
<g id="a_Node000002"><a xlink:href="Grid_8hpp.html" target="_top" xlink:title="Implementation of Grid.">
<polygon fill="white" stroke="#666666" points="292.5,-167.5 158.5,-167.5 158.5,-137.5 292.5,-137.5 292.5,-167.5"/>
<text text-anchor="start" x="166.5" y="-155.5" font-family="Helvetica,sans-Serif" font-size="10.00">include/medusa/bits</text>
<text text-anchor="middle" x="225.5" y="-144.5" font-family="Helvetica,sans-Serif" font-size="10.00">/spatial_search/Grid.hpp</text>
</a>
</g>
</g>
<!-- Node1&#45;&gt;Node2 -->
<g id="edge1_Node000001_Node000002" class="edge">
<title>Node1&#45;&gt;Node2</title>
<g id="a_edge1_Node000001_Node000002"><a xlink:title=" ">
<path fill="none" stroke="#63b8ff" d="M272.93,-201.57C261.7,-190.18 249.07,-177.39 239.67,-167.86"/>
<polygon fill="#63b8ff" stroke="#63b8ff" points="270.54,-204.13 280.06,-208.79 275.53,-199.22 270.54,-204.13"/>
</a>
</g>
</g>
<!-- Node8 -->
<g id="Node000008" class="node">
<title>Node8</title>
<g id="a_Node000008"><a xlink:href="KDGrid__fwd_8hpp.html" target="_top" xlink:title="Declaration of KDGrid.">
<polygon fill="white" stroke="#666666" points="438.5,-173 310.5,-173 310.5,-132 438.5,-132 438.5,-173"/>
<text text-anchor="start" x="318.5" y="-161" font-family="Helvetica,sans-Serif" font-size="10.00">include/medusa/bits</text>
<text text-anchor="start" x="318.5" y="-150" font-family="Helvetica,sans-Serif" font-size="10.00">/spatial_search/KDGrid</text>
<text text-anchor="middle" x="374.5" y="-139" font-family="Helvetica,sans-Serif" font-size="10.00">_fwd.hpp</text>
</a>
</g>
</g>
<!-- Node1&#45;&gt;Node8 -->
<g id="edge7_Node000001_Node000008" class="edge">
<title>Node1&#45;&gt;Node8</title>
<g id="a_edge7_Node000001_Node000008"><a xlink:title=" ">
<path fill="none" stroke="#63b8ff" d="M326.49,-201.51C335.89,-192.11 346.24,-181.76 354.93,-173.07"/>
<polygon fill="#63b8ff" stroke="#63b8ff" points="323.8,-199.25 319.21,-208.79 328.75,-204.2 323.8,-199.25"/>
</a>
</g>
</g>
<!-- Node3 -->
<g id="Node000003" class="node">
<title>Node3</title>
<g id="a_Node000003"><a xlink:href="GrainDropFill_8hpp.html" target="_top" xlink:title="Implementation of the GrainDropFill fill engine.">
<polygon fill="white" stroke="#666666" points="156,-96 7,-96 7,-66 156,-66 156,-96"/>
<text text-anchor="start" x="15" y="-84" font-family="Helvetica,sans-Serif" font-size="10.00">include/medusa/bits</text>
<text text-anchor="middle" x="81.5" y="-73" font-family="Helvetica,sans-Serif" font-size="10.00">/domains/GrainDropFill.hpp</text>
</a>
</g>
</g>
<!-- Node2&#45;&gt;Node3 -->
<g id="edge2_Node000002_Node000003" class="edge">
<title>Node2&#45;&gt;Node3</title>
<g id="a_edge2_Node000002_Node000003"><a xlink:title=" ">
<path fill="none" stroke="#63b8ff" d="M187.17,-133C163.13,-121.4 132.64,-106.68 110.6,-96.04"/>
<polygon fill="#63b8ff" stroke="#63b8ff" points="185.83,-136.24 196.36,-137.44 188.87,-129.94 185.83,-136.24"/>
</a>
</g>
</g>
<!-- Node5 -->
<g id="Node000005" class="node">
<title>Node5</title>
<g id="a_Node000005"><a xlink:href="KDGrid_8hpp.html" target="_top" xlink:title="Implementation of KDGrid.">
<polygon fill="white" stroke="#666666" points="448,-96 299,-96 299,-66 448,-66 448,-96"/>
<text text-anchor="start" x="307" y="-84" font-family="Helvetica,sans-Serif" font-size="10.00">include/medusa/bits</text>
<text text-anchor="middle" x="373.5" y="-73" font-family="Helvetica,sans-Serif" font-size="10.00">/spatial_search/KDGrid.hpp</text>
</a>
</g>
</g>
<!-- Node2&#45;&gt;Node5 -->
<g id="edge4_Node000002_Node000005" class="edge">
<title>Node2&#45;&gt;Node5</title>
<g id="a_edge4_Node000002_Node000005"><a xlink:title=" ">
<path fill="none" stroke="#63b8ff" d="M264.57,-133.15C289.32,-121.53 320.84,-106.73 343.59,-96.04"/>
<polygon fill="#63b8ff" stroke="#63b8ff" points="263.01,-130.02 255.45,-137.44 265.99,-136.35 263.01,-130.02"/>
</a>
</g>
</g>
<!-- Node7 -->
<g id="Node000007" class="node">
<title>Node7</title>
<g id="a_Node000007"><a xlink:href="Grid_8cpp.html" target="_top" xlink:title="Instantiations of Grid.">
<polygon fill="white" stroke="#666666" points="278.5,-96 174.5,-96 174.5,-66 278.5,-66 278.5,-96"/>
<text text-anchor="start" x="182.5" y="-84" font-family="Helvetica,sans-Serif" font-size="10.00">src/spatial_search</text>
<text text-anchor="middle" x="226.5" y="-73" font-family="Helvetica,sans-Serif" font-size="10.00">/Grid.cpp</text>
</a>
</g>
</g>
<!-- Node2&#45;&gt;Node7 -->
<g id="edge6_Node000002_Node000007" class="edge">
<title>Node2&#45;&gt;Node7</title>
<g id="a_edge6_Node000002_Node000007"><a xlink:title=" ">
<path fill="none" stroke="#63b8ff" d="M225.85,-127.25C226,-116.81 226.17,-104.99 226.3,-96.04"/>
<polygon fill="#63b8ff" stroke="#63b8ff" points="222.35,-127.39 225.7,-137.44 229.35,-127.49 222.35,-127.39"/>
</a>
</g>
</g>
<!-- Node4 -->
<g id="Node000004" class="node">
<title>Node4</title>
<g id="a_Node000004"><a xlink:href="GrainDropFill_8cpp.html" target="_top" xlink:title="Explicit instantiations for common parameters.">
<polygon fill="white" stroke="#666666" points="163,-24.5 0,-24.5 0,-5.5 163,-5.5 163,-24.5"/>
<text text-anchor="middle" x="81.5" y="-12.5" font-family="Helvetica,sans-Serif" font-size="10.00">src/domains/GrainDropFill.cpp</text>
</a>
</g>
</g>
<!-- Node3&#45;&gt;Node4 -->
<g id="edge3_Node000003_Node000004" class="edge">
<title>Node3&#45;&gt;Node4</title>
<g id="a_edge3_Node000003_Node000004"><a xlink:title=" ">
<path fill="none" stroke="#63b8ff" d="M81.5,-55.6C81.5,-44.8 81.5,-32.78 81.5,-24.84"/>
<polygon fill="#63b8ff" stroke="#63b8ff" points="78,-55.8 81.5,-65.8 85,-55.8 78,-55.8"/>
</a>
</g>
</g>
<!-- Node6 -->
<g id="Node000006" class="node">
<title>Node6</title>
<g id="a_Node000006"><a xlink:href="KDGrid_8cpp.html" target="_top" xlink:title="Instantiations of KDGrid.">
<polygon fill="white" stroke="#666666" points="425.5,-30 321.5,-30 321.5,0 425.5,0 425.5,-30"/>
<text text-anchor="start" x="329.5" y="-18" font-family="Helvetica,sans-Serif" font-size="10.00">src/spatial_search</text>
<text text-anchor="middle" x="373.5" y="-7" font-family="Helvetica,sans-Serif" font-size="10.00">/KDGrid.cpp</text>
</a>
</g>
</g>
<!-- Node5&#45;&gt;Node6 -->
<g id="edge5_Node000005_Node000006" class="edge">
<title>Node5&#45;&gt;Node6</title>
<g id="a_edge5_Node000005_Node000006"><a xlink:title=" ">
<path fill="none" stroke="#63b8ff" d="M373.5,-55.54C373.5,-46.96 373.5,-37.61 373.5,-30.16"/>
<polygon fill="#63b8ff" stroke="#63b8ff" points="370,-55.8 373.5,-65.8 377,-55.8 370,-55.8"/>
</a>
</g>
</g>
<!-- Node8&#45;&gt;Node5 -->
<g id="edge8_Node000008_Node000005" class="edge">
<title>Node8&#45;&gt;Node5</title>
<g id="a_edge8_Node000008_Node000005"><a xlink:title=" ">
<path fill="none" stroke="#63b8ff" d="M374.07,-121.66C373.94,-112.76 373.81,-103.42 373.7,-96.04"/>
<polygon fill="#63b8ff" stroke="#63b8ff" points="370.57,-121.82 374.22,-131.77 377.57,-121.72 370.57,-121.82"/>
</a>
</g>
</g>
</g>
</svg>
