<?xml version="1.0" encoding="UTF-8" standalone="no"?>
<!DOCTYPE svg PUBLIC "-//W3C//DTD SVG 1.1//EN"
 "http://www.w3.org/Graphics/SVG/1.1/DTD/svg11.dtd">
<!-- Generated by graphviz version 2.43.0 (0)
 -->
<!-- Title: include/medusa/bits/domains/HalfLinksRefine_fwd.hpp Pages: 1 -->
<svg width="1284pt" height="555pt"
 viewBox="0.00 0.00 1284.00 555.00" xmlns="http://www.w3.org/2000/svg" xmlns:xlink="http://www.w3.org/1999/xlink">
<g id="graph0" class="graph" transform="scale(1 1) rotate(0) translate(4 551)">
<title>include/medusa/bits/domains/HalfLinksRefine_fwd.hpp</title>
<!-- Node1 -->
<g id="Node000001" class="node">
<title>Node1</title>
<g id="a_Node000001"><a xlink:title="Declaration of the half&#45;link refinement algorithm.">
<polygon fill="#999999" stroke="#666666" points="291.5,-547 150.5,-547 150.5,-506 291.5,-506 291.5,-547"/>
<text text-anchor="start" x="158.5" y="-535" font-family="Helvetica,sans-Serif" font-size="10.00">include/medusa/bits</text>
<text text-anchor="start" x="158.5" y="-524" font-family="Helvetica,sans-Serif" font-size="10.00">/domains/HalfLinksRefine</text>
<text text-anchor="middle" x="221" y="-513" font-family="Helvetica,sans-Serif" font-size="10.00">_fwd.hpp</text>
</a>
</g>
</g>
<!-- Node2 -->
<g id="Node000002" class="node">
<title>Node2</title>
<g id="a_Node000002"><a xlink:href="Config_8hpp.html" target="_top" xlink:title="Contains compile time settings for the project, such as Eigen plugins.">
<polygon fill="white" stroke="#666666" points="653,-74 543,-74 543,-55 653,-55 653,-74"/>
<text text-anchor="middle" x="598" y="-62" font-family="Helvetica,sans-Serif" font-size="10.00">medusa/Config.hpp</text>
</a>
</g>
</g>
<!-- Node1&#45;&gt;Node2 -->
<g id="edge1_Node000001_Node000002" class="edge">
<title>Node1&#45;&gt;Node2</title>
<g id="a_edge1_Node000001_Node000002"><a xlink:title=" ">
<path fill="none" stroke="#63b8ff" d="M150.47,-512.85C85.79,-496.72 0,-461.78 0,-390 0,-390 0,-390 0,-190 0,-134.8 43.96,-131.03 95,-110 182.76,-73.84 421.62,-83.78 532.83,-73.98"/>
<polygon fill="#63b8ff" stroke="#63b8ff" points="533.25,-77.45 542.86,-73 532.57,-70.49 533.25,-77.45"/>
</a>
</g>
</g>
<!-- Node4 -->
<g id="Node000004" class="node">
<title>Node4</title>
<g id="a_Node000004"><a xlink:href="Range__fwd_8hpp.html" target="_top" xlink:title="Declaration of Range.">
<polygon fill="white" stroke="#666666" points="291,-206 151,-206 151,-176 291,-176 291,-206"/>
<text text-anchor="start" x="159" y="-194" font-family="Helvetica,sans-Serif" font-size="10.00">medusa/bits/types/Range</text>
<text text-anchor="middle" x="221" y="-183" font-family="Helvetica,sans-Serif" font-size="10.00">_fwd.hpp</text>
</a>
</g>
</g>
<!-- Node1&#45;&gt;Node4 -->
<g id="edge3_Node000001_Node000004" class="edge">
<title>Node1&#45;&gt;Node4</title>
<g id="a_edge3_Node000001_Node000004"><a xlink:title=" ">
<path fill="none" stroke="#63b8ff" d="M221,-505.75C221,-479.37 221,-431.17 221,-390 221,-390 221,-390 221,-322 221,-285.07 221,-242.24 221,-216.14"/>
<polygon fill="#63b8ff" stroke="#63b8ff" points="224.5,-216.04 221,-206.04 217.5,-216.04 224.5,-216.04"/>
</a>
</g>
</g>
<!-- Node15 -->
<g id="Node000015" class="node">
<title>Node15</title>
<g id="a_Node000015"><a xlink:href="DomainDiscretization__fwd_8hpp.html" target="_top" xlink:title="Declarations for domain discretizations.">
<polygon fill="white" stroke="#666666" points="565,-470 443,-470 443,-440 565,-440 565,-470"/>
<text text-anchor="start" x="451" y="-458" font-family="Helvetica,sans-Serif" font-size="10.00">DomainDiscretization</text>
<text text-anchor="middle" x="504" y="-447" font-family="Helvetica,sans-Serif" font-size="10.00">_fwd.hpp</text>
</a>
</g>
</g>
<!-- Node1&#45;&gt;Node15 -->
<g id="edge17_Node000001_Node000015" class="edge">
<title>Node1&#45;&gt;Node15</title>
<g id="a_edge17_Node000001_Node000015"><a xlink:title=" ">
<path fill="none" stroke="#63b8ff" d="M291.68,-508.14C336.03,-497.25 392.89,-483.29 436.6,-472.55"/>
<polygon fill="#63b8ff" stroke="#63b8ff" points="437.69,-475.89 446.57,-470.1 436.02,-469.09 437.69,-475.89"/>
</a>
</g>
</g>
<!-- Node3 -->
<g id="Node000003" class="node">
<title>Node3</title>
<g id="a_Node000003"><a xlink:title=" ">
<polygon fill="#e0e0e0" stroke="#999999" points="605.5,-19 558.5,-19 558.5,0 605.5,0 605.5,-19"/>
<text text-anchor="middle" x="582" y="-7" font-family="Helvetica,sans-Serif" font-size="10.00">vector</text>
</a>
</g>
</g>
<!-- Node2&#45;&gt;Node3 -->
<g id="edge2_Node000002_Node000003" class="edge">
<title>Node2&#45;&gt;Node3</title>
<g id="a_edge2_Node000002_Node000003"><a xlink:title=" ">
<path fill="none" stroke="#63b8ff" d="M595.36,-54.75C593.24,-47.72 590.19,-37.62 587.54,-28.84"/>
<polygon fill="#63b8ff" stroke="#63b8ff" points="590.83,-27.65 584.59,-19.09 584.13,-29.67 590.83,-27.65"/>
</a>
</g>
</g>
<!-- Node4&#45;&gt;Node2 -->
<g id="edge4_Node000004_Node000002" class="edge">
<title>Node4&#45;&gt;Node2</title>
<g id="a_edge4_Node000004_Node000002"><a xlink:title=" ">
<path fill="none" stroke="#63b8ff" d="M214.45,-175.89C207.33,-158.19 198.95,-127.97 215,-110 260.63,-58.93 447.37,-80.75 532.72,-73.91"/>
<polygon fill="#63b8ff" stroke="#63b8ff" points="533.25,-77.37 542.85,-72.89 532.55,-70.41 533.25,-77.37"/>
</a>
</g>
</g>
<!-- Node4&#45;&gt;Node3 -->
<g id="edge15_Node000004_Node000003" class="edge">
<title>Node4&#45;&gt;Node3</title>
<g id="a_edge15_Node000004_Node000003"><a xlink:title=" ">
<path fill="none" stroke="#63b8ff" d="M161.45,-175.92C118.31,-162.82 71.37,-140.69 95,-110 155.78,-31.06 435.72,-35.36 534,-19 538.54,-18.24 543.31,-17.43 548.02,-16.61"/>
<polygon fill="#63b8ff" stroke="#63b8ff" points="548.85,-20.02 558.09,-14.83 547.63,-13.12 548.85,-20.02"/>
</a>
</g>
</g>
<!-- Node5 -->
<g id="Node000005" class="node">
<title>Node5</title>
<g id="a_Node000005"><a xlink:href="assert_8hpp.html" target="_top" xlink:title="Implementation of custom assert and debug utilities.">
<polygon fill="white" stroke="#666666" points="455.5,-134.5 300.5,-134.5 300.5,-115.5 455.5,-115.5 455.5,-134.5"/>
<text text-anchor="middle" x="378" y="-122.5" font-family="Helvetica,sans-Serif" font-size="10.00">medusa/bits/utils/assert.hpp</text>
</a>
</g>
</g>
<!-- Node4&#45;&gt;Node5 -->
<g id="edge5_Node000004_Node000005" class="edge">
<title>Node4&#45;&gt;Node5</title>
<g id="a_edge5_Node000004_Node000005"><a xlink:title=" ">
<path fill="none" stroke="#63b8ff" d="M255.45,-175.95C282.99,-164.73 321.21,-149.15 347.61,-138.39"/>
<polygon fill="#63b8ff" stroke="#63b8ff" points="349.17,-141.53 357.11,-134.52 346.52,-135.05 349.17,-141.53"/>
</a>
</g>
</g>
<!-- Node12 -->
<g id="Node000012" class="node">
<title>Node12</title>
<g id="a_Node000012"><a xlink:href="traits_8hpp.html" target="_top" xlink:title="Type traits definition for vector and scalar fields.">
<polygon fill="white" stroke="#666666" points="167.5,-134.5 104.5,-134.5 104.5,-115.5 167.5,-115.5 167.5,-134.5"/>
<text text-anchor="middle" x="136" y="-122.5" font-family="Helvetica,sans-Serif" font-size="10.00">traits.hpp</text>
</a>
</g>
</g>
<!-- Node4&#45;&gt;Node12 -->
<g id="edge13_Node000004_Node000012" class="edge">
<title>Node4&#45;&gt;Node12</title>
<g id="a_edge13_Node000004_Node000012"><a xlink:title=" ">
<path fill="none" stroke="#63b8ff" d="M202.14,-175.8C188.36,-165.43 169.74,-151.4 155.76,-140.88"/>
<polygon fill="#63b8ff" stroke="#63b8ff" points="157.84,-138.06 147.75,-134.84 153.63,-143.66 157.84,-138.06"/>
</a>
</g>
</g>
<!-- Node13 -->
<g id="Node000013" class="node">
<title>Node13</title>
<g id="a_Node000013"><a xlink:title=" ">
<polygon fill="#e0e0e0" stroke="#999999" points="282,-134.5 224,-134.5 224,-115.5 282,-115.5 282,-134.5"/>
<text text-anchor="middle" x="253" y="-122.5" font-family="Helvetica,sans-Serif" font-size="10.00">memory</text>
</a>
</g>
</g>
<!-- Node4&#45;&gt;Node13 -->
<g id="edge14_Node000004_Node000013" class="edge">
<title>Node4&#45;&gt;Node13</title>
<g id="a_edge14_Node000004_Node000013"><a xlink:title=" ">
<path fill="none" stroke="#63b8ff" d="M228.1,-175.8C232.8,-166.41 238.99,-154.02 244.03,-143.95"/>
<polygon fill="#63b8ff" stroke="#63b8ff" points="247.24,-145.35 248.58,-134.84 240.98,-142.22 247.24,-145.35"/>
</a>
</g>
</g>
<!-- Node14 -->
<g id="Node000014" class="node">
<title>Node14</title>
<g id="a_Node000014"><a xlink:title=" ">
<polygon fill="#e0e0e0" stroke="#999999" points="882,-74 834,-74 834,-55 882,-55 882,-74"/>
<text text-anchor="middle" x="858" y="-62" font-family="Helvetica,sans-Serif" font-size="10.00">iosfwd</text>
</a>
</g>
</g>
<!-- Node4&#45;&gt;Node14 -->
<g id="edge16_Node000004_Node000014" class="edge">
<title>Node4&#45;&gt;Node14</title>
<g id="a_edge16_Node000004_Node000014"><a xlink:title=" ">
<path fill="none" stroke="#63b8ff" d="M290.14,-175.98C370.03,-159.83 505.44,-132.61 622,-110 693.77,-96.08 777.94,-80.35 823.85,-71.82"/>
<polygon fill="#63b8ff" stroke="#63b8ff" points="824.67,-75.23 833.86,-69.96 823.39,-68.35 824.67,-75.23"/>
</a>
</g>
</g>
<!-- Node6 -->
<g id="Node000006" class="node">
<title>Node6</title>
<g id="a_Node000006"><a xlink:title=" ">
<polygon fill="#e0e0e0" stroke="#999999" points="444,-74 312,-74 312,-55 444,-55 444,-74"/>
<text text-anchor="middle" x="378" y="-62" font-family="Helvetica,sans-Serif" font-size="10.00">tinyformat/tinyformat.h</text>
</a>
</g>
</g>
<!-- Node5&#45;&gt;Node6 -->
<g id="edge6_Node000005_Node000006" class="edge">
<title>Node5&#45;&gt;Node6</title>
<g id="a_edge6_Node000005_Node000006"><a xlink:title=" ">
<path fill="none" stroke="#63b8ff" d="M378,-115.37C378,-107.25 378,-94.81 378,-84.39"/>
<polygon fill="#63b8ff" stroke="#63b8ff" points="381.5,-84.17 378,-74.17 374.5,-84.17 381.5,-84.17"/>
</a>
</g>
</g>
<!-- Node7 -->
<g id="Node000007" class="node">
<title>Node7</title>
<g id="a_Node000007"><a xlink:href="print_8hpp.html" target="_top" xlink:title="Printing helpers for std types.">
<polygon fill="white" stroke="#666666" points="525,-74 465,-74 465,-55 525,-55 525,-74"/>
<text text-anchor="middle" x="495" y="-62" font-family="Helvetica,sans-Serif" font-size="10.00">print.hpp</text>
</a>
</g>
</g>
<!-- Node5&#45;&gt;Node7 -->
<g id="edge7_Node000005_Node000007" class="edge">
<title>Node5&#45;&gt;Node7</title>
<g id="a_edge7_Node000005_Node000007"><a xlink:title=" ">
<path fill="none" stroke="#63b8ff" d="M395.01,-115.49C414.42,-105.79 446.39,-89.81 468.94,-78.53"/>
<polygon fill="#63b8ff" stroke="#63b8ff" points="470.59,-81.62 477.97,-74.02 467.46,-75.36 470.59,-81.62"/>
</a>
</g>
</g>
<!-- Node7&#45;&gt;Node3 -->
<g id="edge9_Node000007_Node000003" class="edge">
<title>Node7&#45;&gt;Node3</title>
<g id="a_edge9_Node000007_Node000003"><a xlink:title=" ">
<path fill="none" stroke="#63b8ff" d="M508.98,-54.98C522.47,-46.77 543.13,-34.18 559.04,-24.49"/>
<polygon fill="#63b8ff" stroke="#63b8ff" points="561.05,-27.36 567.77,-19.17 557.41,-21.38 561.05,-27.36"/>
</a>
</g>
</g>
<!-- Node8 -->
<g id="Node000008" class="node">
<title>Node8</title>
<g id="a_Node000008"><a xlink:title=" ">
<polygon fill="#e0e0e0" stroke="#999999" points="525,-19 465,-19 465,0 525,0 525,-19"/>
<text text-anchor="middle" x="495" y="-7" font-family="Helvetica,sans-Serif" font-size="10.00">iostream</text>
</a>
</g>
</g>
<!-- Node7&#45;&gt;Node8 -->
<g id="edge8_Node000007_Node000008" class="edge">
<title>Node7&#45;&gt;Node8</title>
<g id="a_edge8_Node000007_Node000008"><a xlink:title=" ">
<path fill="none" stroke="#63b8ff" d="M495,-54.75C495,-47.8 495,-37.85 495,-29.13"/>
<polygon fill="#63b8ff" stroke="#63b8ff" points="498.5,-29.09 495,-19.09 491.5,-29.09 498.5,-29.09"/>
</a>
</g>
</g>
<!-- Node9 -->
<g id="Node000009" class="node">
<title>Node9</title>
<g id="a_Node000009"><a xlink:title=" ">
<polygon fill="#e0e0e0" stroke="#999999" points="1081,-19 1039,-19 1039,0 1081,0 1081,-19"/>
<text text-anchor="middle" x="1060" y="-7" font-family="Helvetica,sans-Serif" font-size="10.00">array</text>
</a>
</g>
</g>
<!-- Node7&#45;&gt;Node9 -->
<g id="edge10_Node000007_Node000009" class="edge">
<title>Node7&#45;&gt;Node9</title>
<g id="a_edge10_Node000007_Node000009"><a xlink:title=" ">
<path fill="none" stroke="#63b8ff" d="M525.16,-56.52C528.14,-55.95 531.12,-55.43 534,-55 720.47,-26.91 947,-15.23 1028.72,-11.72"/>
<polygon fill="#63b8ff" stroke="#63b8ff" points="1028.99,-15.22 1038.84,-11.3 1028.7,-8.22 1028.99,-15.22"/>
</a>
</g>
</g>
<!-- Node10 -->
<g id="Node000010" class="node">
<title>Node10</title>
<g id="a_Node000010"><a xlink:title=" ">
<polygon fill="#e0e0e0" stroke="#999999" points="253.5,-19 208.5,-19 208.5,0 253.5,0 253.5,-19"/>
<text text-anchor="middle" x="231" y="-7" font-family="Helvetica,sans-Serif" font-size="10.00">utility</text>
</a>
</g>
</g>
<!-- Node7&#45;&gt;Node10 -->
<g id="edge11_Node000007_Node000010" class="edge">
<title>Node7&#45;&gt;Node10</title>
<g id="a_edge11_Node000007_Node000010"><a xlink:title=" ">
<path fill="none" stroke="#63b8ff" d="M464.72,-57.36C460.78,-56.57 456.79,-55.76 453,-55 385.72,-41.45 306.94,-25.68 263.65,-17.03"/>
<polygon fill="#63b8ff" stroke="#63b8ff" points="264.19,-13.56 253.69,-15.03 262.81,-20.43 264.19,-13.56"/>
</a>
</g>
</g>
<!-- Node11 -->
<g id="Node000011" class="node">
<title>Node11</title>
<g id="a_Node000011"><a xlink:title=" ">
<polygon fill="#e0e0e0" stroke="#999999" points="1244.5,-19 1203.5,-19 1203.5,0 1244.5,0 1244.5,-19"/>
<text text-anchor="middle" x="1224" y="-7" font-family="Helvetica,sans-Serif" font-size="10.00">tuple</text>
</a>
</g>
</g>
<!-- Node7&#45;&gt;Node11 -->
<g id="edge12_Node000007_Node000011" class="edge">
<title>Node7&#45;&gt;Node11</title>
<g id="a_edge12_Node000007_Node000011"><a xlink:title=" ">
<path fill="none" stroke="#63b8ff" d="M525.15,-56.46C528.13,-55.91 531.12,-55.4 534,-55 542.28,-53.84 1059.62,-20.94 1192.94,-12.47"/>
<polygon fill="#63b8ff" stroke="#63b8ff" points="1193.49,-15.94 1203.25,-11.82 1193.05,-8.96 1193.49,-15.94"/>
</a>
</g>
</g>
<!-- Node15&#45;&gt;Node2 -->
<g id="edge18_Node000015_Node000002" class="edge">
<title>Node15&#45;&gt;Node2</title>
<g id="a_edge18_Node000015_Node000002"><a xlink:title=" ">
<path fill="none" stroke="#63b8ff" d="M447.24,-439.93C392.86,-422.65 319,-387.49 319,-324 319,-324 319,-324 319,-256 319,-219.35 313.52,-202.34 339,-176 379.49,-134.14 414.12,-168.33 465,-140 482.32,-130.36 481.4,-120.83 498,-110 518.42,-96.67 543.49,-85.53 563.43,-77.72"/>
<polygon fill="#63b8ff" stroke="#63b8ff" points="564.94,-80.89 573.04,-74.06 562.45,-74.35 564.94,-80.89"/>
</a>
</g>
</g>
<!-- Node15&#45;&gt;Node4 -->
<g id="edge19_Node000015_Node000004" class="edge">
<title>Node15&#45;&gt;Node4</title>
<g id="a_edge19_Node000015_Node000004"><a xlink:title=" ">
<path fill="none" stroke="#63b8ff" d="M442.93,-452.88C399.7,-449 342.9,-437.23 305,-404 275.6,-378.22 241.57,-266.03 227.55,-216.11"/>
<polygon fill="#63b8ff" stroke="#63b8ff" points="230.84,-214.88 224.79,-206.18 224.1,-216.76 230.84,-214.88"/>
</a>
</g>
</g>
<!-- Node15&#45;&gt;Node14 -->
<g id="edge56_Node000015_Node000014" class="edge">
<title>Node15&#45;&gt;Node14</title>
<g id="a_edge56_Node000015_Node000014"><a xlink:title=" ">
<path fill="none" stroke="#63b8ff" d="M565.26,-444.45C666.58,-426.91 858,-385.62 858,-324 858,-324 858,-324 858,-190 858,-152.49 858,-108.63 858,-84.26"/>
<polygon fill="#63b8ff" stroke="#63b8ff" points="861.5,-84.25 858,-74.25 854.5,-84.25 861.5,-84.25"/>
</a>
</g>
</g>
<!-- Node16 -->
<g id="Node000016" class="node">
<title>Node16</title>
<g id="a_Node000016"><a xlink:href="memutils_8hpp.html" target="_top" xlink:title="Declaration of memory related utilities.">
<polygon fill="white" stroke="#666666" points="518.5,-200.5 347.5,-200.5 347.5,-181.5 518.5,-181.5 518.5,-200.5"/>
<text text-anchor="middle" x="433" y="-188.5" font-family="Helvetica,sans-Serif" font-size="10.00">medusa/bits/utils/memutils.hpp</text>
</a>
</g>
</g>
<!-- Node15&#45;&gt;Node16 -->
<g id="edge20_Node000015_Node000016" class="edge">
<title>Node15&#45;&gt;Node16</title>
<g id="a_edge20_Node000015_Node000016"><a xlink:title=" ">
<path fill="none" stroke="#63b8ff" d="M500.18,-439.91C488.21,-395.74 451.41,-259.95 437.98,-210.37"/>
<polygon fill="#63b8ff" stroke="#63b8ff" points="441.34,-209.41 435.35,-200.68 434.59,-211.24 441.34,-209.41"/>
</a>
</g>
</g>
<!-- Node17 -->
<g id="Node000017" class="node">
<title>Node17</title>
<g id="a_Node000017"><a xlink:href="DomainShape__fwd_8hpp.html" target="_top" xlink:title="Declaration of base class for domain shapes.">
<polygon fill="white" stroke="#666666" points="650.5,-272 519.5,-272 519.5,-242 650.5,-242 650.5,-272"/>
<text text-anchor="start" x="527.5" y="-260" font-family="Helvetica,sans-Serif" font-size="10.00">medusa/bits/domains</text>
<text text-anchor="middle" x="585" y="-249" font-family="Helvetica,sans-Serif" font-size="10.00">/DomainShape_fwd.hpp</text>
</a>
</g>
</g>
<!-- Node15&#45;&gt;Node17 -->
<g id="edge24_Node000015_Node000017" class="edge">
<title>Node15&#45;&gt;Node17</title>
<g id="a_edge24_Node000015_Node000017"><a xlink:title=" ">
<path fill="none" stroke="#63b8ff" d="M509.83,-439.9C523.6,-406.58 558.29,-322.64 575.29,-281.49"/>
<polygon fill="#63b8ff" stroke="#63b8ff" points="578.53,-282.81 579.12,-272.23 572.06,-280.14 578.53,-282.81"/>
</a>
</g>
</g>
<!-- Node22 -->
<g id="Node000022" class="node">
<title>Node22</title>
<g id="a_Node000022"><a xlink:href="shape__flags_8hpp.html" target="_top" xlink:title="Definition of flags related to shape computation.">
<polygon fill="white" stroke="#666666" points="1072,-404 946,-404 946,-374 1072,-374 1072,-404"/>
<text text-anchor="start" x="954" y="-392" font-family="Helvetica,sans-Serif" font-size="10.00">medusa/bits/operators</text>
<text text-anchor="middle" x="1009" y="-381" font-family="Helvetica,sans-Serif" font-size="10.00">/shape_flags.hpp</text>
</a>
</g>
</g>
<!-- Node15&#45;&gt;Node22 -->
<g id="edge34_Node000015_Node000022" class="edge">
<title>Node15&#45;&gt;Node22</title>
<g id="a_edge34_Node000015_Node000022"><a xlink:title=" ">
<path fill="none" stroke="#63b8ff" d="M565.15,-447.13C645.66,-437.96 791.59,-420.91 916,-404 922.32,-403.14 928.87,-402.22 935.44,-401.27"/>
<polygon fill="#63b8ff" stroke="#63b8ff" points="936.36,-404.68 945.75,-399.77 935.35,-397.75 936.36,-404.68"/>
</a>
</g>
</g>
<!-- Node23 -->
<g id="Node000023" class="node">
<title>Node23</title>
<g id="a_Node000023"><a xlink:title=" ">
<polygon fill="#e0e0e0" stroke="#999999" points="930,-332.5 886,-332.5 886,-313.5 930,-313.5 930,-332.5"/>
<text text-anchor="middle" x="908" y="-320.5" font-family="Helvetica,sans-Serif" font-size="10.00">string</text>
</a>
</g>
</g>
<!-- Node15&#45;&gt;Node23 -->
<g id="edge57_Node000015_Node000023" class="edge">
<title>Node15&#45;&gt;Node23</title>
<g id="a_edge57_Node000015_Node000023"><a xlink:title=" ">
<path fill="none" stroke="#63b8ff" d="M565.17,-452.73C656.99,-449.68 824.73,-439.3 872,-404 891.7,-389.29 900.87,-361.32 904.95,-342.67"/>
<polygon fill="#63b8ff" stroke="#63b8ff" points="908.42,-343.17 906.85,-332.69 901.55,-341.86 908.42,-343.17"/>
</a>
</g>
</g>
<!-- Node16&#45;&gt;Node2 -->
<g id="edge22_Node000016_Node000002" class="edge">
<title>Node16&#45;&gt;Node2</title>
<g id="a_edge22_Node000016_Node000002"><a xlink:title=" ">
<path fill="none" stroke="#63b8ff" d="M444.34,-181.44C472.01,-160.56 543.26,-106.8 578.15,-80.47"/>
<polygon fill="#63b8ff" stroke="#63b8ff" points="580.71,-82.93 586.58,-74.12 576.49,-77.35 580.71,-82.93"/>
</a>
</g>
</g>
<!-- Node16&#45;&gt;Node5 -->
<g id="edge23_Node000016_Node000005" class="edge">
<title>Node16&#45;&gt;Node5</title>
<g id="a_edge23_Node000016_Node000005"><a xlink:title=" ">
<path fill="none" stroke="#63b8ff" d="M425.58,-181.37C417.1,-171.5 403.02,-155.11 392.37,-142.72"/>
<polygon fill="#63b8ff" stroke="#63b8ff" points="394.83,-140.21 385.65,-134.91 389.52,-144.77 394.83,-140.21"/>
</a>
</g>
</g>
<!-- Node16&#45;&gt;Node13 -->
<g id="edge21_Node000016_Node000013" class="edge">
<title>Node16&#45;&gt;Node13</title>
<g id="a_edge21_Node000016_Node000013"><a xlink:title=" ">
<path fill="none" stroke="#63b8ff" d="M408.79,-181.45C380.69,-171.51 332.97,-154.62 292,-140 290.17,-139.35 288.29,-138.68 286.4,-138"/>
<polygon fill="#63b8ff" stroke="#63b8ff" points="287.51,-134.68 276.92,-134.6 285.15,-141.27 287.51,-134.68"/>
</a>
</g>
</g>
<!-- Node17&#45;&gt;Node2 -->
<g id="edge25_Node000017_Node000002" class="edge">
<title>Node17&#45;&gt;Node2</title>
<g id="a_edge25_Node000017_Node000002"><a xlink:title=" ">
<path fill="none" stroke="#63b8ff" d="M578.45,-241.92C574.25,-232.09 569.19,-218.54 567,-206 559.23,-161.47 577.94,-109.68 589.57,-83.15"/>
<polygon fill="#63b8ff" stroke="#63b8ff" points="592.78,-84.55 593.75,-74 586.41,-81.64 592.78,-84.55"/>
</a>
</g>
</g>
<!-- Node17&#45;&gt;Node10 -->
<g id="edge31_Node000017_Node000010" class="edge">
<title>Node17&#45;&gt;Node10</title>
<g id="a_edge31_Node000017_Node000010"><a xlink:title=" ">
<path fill="none" stroke="#63b8ff" d="M519.32,-254.41C412.33,-250.85 205.92,-239.72 142,-206 98.11,-182.85 65.02,-155.42 85,-110 105.77,-62.78 162.27,-34.66 198.58,-20.92"/>
<polygon fill="#63b8ff" stroke="#63b8ff" points="200.03,-24.12 208.24,-17.42 197.65,-17.54 200.03,-24.12"/>
</a>
</g>
</g>
<!-- Node17&#45;&gt;Node14 -->
<g id="edge30_Node000017_Node000014" class="edge">
<title>Node17&#45;&gt;Node14</title>
<g id="a_edge30_Node000017_Node000014"><a xlink:title=" ">
<path fill="none" stroke="#63b8ff" d="M650.79,-249.11C678.44,-242.6 708.05,-230.05 725,-206 732.68,-195.1 731.91,-187.4 725,-176 707.07,-146.42 673.93,-169.58 656,-140 649.09,-128.6 647.65,-120.39 656,-110 676.68,-84.27 771.82,-72.55 823.82,-67.98"/>
<polygon fill="#63b8ff" stroke="#63b8ff" points="824.24,-71.46 833.92,-67.14 823.66,-64.48 824.24,-71.46"/>
</a>
</g>
</g>
<!-- Node17&#45;&gt;Node16 -->
<g id="edge26_Node000017_Node000016" class="edge">
<title>Node17&#45;&gt;Node16</title>
<g id="a_edge26_Node000017_Node000016"><a xlink:title=" ">
<path fill="none" stroke="#63b8ff" d="M551.64,-241.95C525.1,-230.78 488.31,-215.29 462.76,-204.53"/>
<polygon fill="#63b8ff" stroke="#63b8ff" points="463.8,-201.17 453.23,-200.52 461.09,-207.62 463.8,-201.17"/>
</a>
</g>
</g>
<!-- Node18 -->
<g id="Node000018" class="node">
<title>Node18</title>
<g id="a_Node000018"><a xlink:href="Vec__fwd_8hpp.html" target="_top" xlink:title="Declaration of Vec.">
<polygon fill="white" stroke="#666666" points="791.5,-140 664.5,-140 664.5,-110 791.5,-110 791.5,-140"/>
<text text-anchor="start" x="672.5" y="-128" font-family="Helvetica,sans-Serif" font-size="10.00">medusa/bits/types/Vec</text>
<text text-anchor="middle" x="728" y="-117" font-family="Helvetica,sans-Serif" font-size="10.00">_fwd.hpp</text>
</a>
</g>
</g>
<!-- Node17&#45;&gt;Node18 -->
<g id="edge27_Node000017_Node000018" class="edge">
<title>Node17&#45;&gt;Node18</title>
<g id="a_edge27_Node000017_Node000018"><a xlink:title=" ">
<path fill="none" stroke="#63b8ff" d="M650.81,-245.37C693.98,-236.9 744.8,-223.55 758,-206 770.91,-188.84 759.62,-165.5 747.38,-148.46"/>
<polygon fill="#63b8ff" stroke="#63b8ff" points="749.89,-145.98 741.01,-140.2 744.34,-150.25 749.89,-145.98"/>
</a>
</g>
</g>
<!-- Node20 -->
<g id="Node000020" class="node">
<title>Node20</title>
<g id="a_Node000020"><a xlink:title=" ">
<polygon fill="#e0e0e0" stroke="#999999" points="632.5,-200.5 575.5,-200.5 575.5,-181.5 632.5,-181.5 632.5,-200.5"/>
<text text-anchor="middle" x="604" y="-188.5" font-family="Helvetica,sans-Serif" font-size="10.00">ostream</text>
</a>
</g>
</g>
<!-- Node17&#45;&gt;Node20 -->
<g id="edge32_Node000017_Node000020" class="edge">
<title>Node17&#45;&gt;Node20</title>
<g id="a_edge32_Node000017_Node000020"><a xlink:title=" ">
<path fill="none" stroke="#63b8ff" d="M589.22,-241.8C591.95,-232.6 595.53,-220.53 598.48,-210.58"/>
<polygon fill="#63b8ff" stroke="#63b8ff" points="601.88,-211.43 601.37,-200.84 595.17,-209.43 601.88,-211.43"/>
</a>
</g>
</g>
<!-- Node21 -->
<g id="Node000021" class="node">
<title>Node21</title>
<g id="a_Node000021"><a xlink:title=" ">
<polygon fill="#e0e0e0" stroke="#999999" points="715.5,-200.5 650.5,-200.5 650.5,-181.5 715.5,-181.5 715.5,-200.5"/>
<text text-anchor="middle" x="683" y="-188.5" font-family="Helvetica,sans-Serif" font-size="10.00">functional</text>
</a>
</g>
</g>
<!-- Node17&#45;&gt;Node21 -->
<g id="edge33_Node000017_Node000021" class="edge">
<title>Node17&#45;&gt;Node21</title>
<g id="a_edge33_Node000017_Node000021"><a xlink:title=" ">
<path fill="none" stroke="#63b8ff" d="M606.75,-241.8C622.87,-231.27 644.76,-216.97 660.95,-206.4"/>
<polygon fill="#63b8ff" stroke="#63b8ff" points="663.28,-209.06 669.74,-200.66 659.46,-203.2 663.28,-209.06"/>
</a>
</g>
</g>
<!-- Node18&#45;&gt;Node2 -->
<g id="edge28_Node000018_Node000002" class="edge">
<title>Node18&#45;&gt;Node2</title>
<g id="a_edge28_Node000018_Node000002"><a xlink:title=" ">
<path fill="none" stroke="#63b8ff" d="M696.86,-109.99C675.46,-100.36 647.27,-87.67 626.47,-78.31"/>
<polygon fill="#63b8ff" stroke="#63b8ff" points="627.75,-75.05 617.2,-74.14 624.88,-81.43 627.75,-75.05"/>
</a>
</g>
</g>
<!-- Node19 -->
<g id="Node000019" class="node">
<title>Node19</title>
<g id="a_Node000019"><a xlink:title=" ">
<polygon fill="#e0e0e0" stroke="#999999" points="1105.5,-74 1036.5,-74 1036.5,-55 1105.5,-55 1105.5,-74"/>
<text text-anchor="middle" x="1071" y="-62" font-family="Helvetica,sans-Serif" font-size="10.00">Eigen/Core</text>
</a>
</g>
</g>
<!-- Node18&#45;&gt;Node19 -->
<g id="edge29_Node000018_Node000019" class="edge">
<title>Node18&#45;&gt;Node19</title>
<g id="a_edge29_Node000018_Node000019"><a xlink:title=" ">
<path fill="none" stroke="#63b8ff" d="M791.71,-113.13C860.02,-101.48 966.71,-83.29 1026.51,-73.09"/>
<polygon fill="#63b8ff" stroke="#63b8ff" points="1027.13,-76.53 1036.4,-71.4 1025.96,-69.63 1027.13,-76.53"/>
</a>
</g>
</g>
<!-- Node22&#45;&gt;Node11 -->
<g id="edge36_Node000022_Node000011" class="edge">
<title>Node22&#45;&gt;Node11</title>
<g id="a_edge36_Node000022_Node000011"><a xlink:title=" ">
<path fill="none" stroke="#63b8ff" d="M1072.28,-384.29C1151.23,-375.84 1276,-348.22 1276,-258 1276,-258 1276,-258 1276,-124 1276,-86.81 1252.63,-48.48 1237.23,-27.25"/>
<polygon fill="#63b8ff" stroke="#63b8ff" points="1239.83,-24.88 1231.01,-19 1234.24,-29.09 1239.83,-24.88"/>
</a>
</g>
</g>
<!-- Node22&#45;&gt;Node23 -->
<g id="edge35_Node000022_Node000023" class="edge">
<title>Node22&#45;&gt;Node23</title>
<g id="a_edge35_Node000022_Node000023"><a xlink:title=" ">
<path fill="none" stroke="#63b8ff" d="M986.58,-373.8C969.81,-363.17 946.99,-348.7 930.25,-338.1"/>
<polygon fill="#63b8ff" stroke="#63b8ff" points="931.98,-335.05 921.66,-332.66 928.24,-340.97 931.98,-335.05"/>
</a>
</g>
</g>
<!-- Node24 -->
<g id="Node000024" class="node">
<title>Node24</title>
<g id="a_Node000024"><a xlink:href="bits_2approximations_2Operators_8hpp.html" target="_top" xlink:title="Implementations of differential operator families.">
<polygon fill="white" stroke="#666666" points="1104,-338 948,-338 948,-308 1104,-308 1104,-338"/>
<text text-anchor="start" x="956" y="-326" font-family="Helvetica,sans-Serif" font-size="10.00">medusa/bits/approximations</text>
<text text-anchor="middle" x="1026" y="-315" font-family="Helvetica,sans-Serif" font-size="10.00">/Operators.hpp</text>
</a>
</g>
</g>
<!-- Node22&#45;&gt;Node24 -->
<g id="edge37_Node000022_Node000024" class="edge">
<title>Node22&#45;&gt;Node24</title>
<g id="a_edge37_Node000022_Node000024"><a xlink:title=" ">
<path fill="none" stroke="#63b8ff" d="M1012.77,-373.8C1014.8,-366.17 1017.35,-356.57 1019.67,-347.84"/>
<polygon fill="#63b8ff" stroke="#63b8ff" points="1023.05,-348.73 1022.24,-338.16 1016.29,-346.93 1023.05,-348.73"/>
</a>
</g>
</g>
<!-- Node25 -->
<g id="Node000025" class="node">
<title>Node25</title>
<g id="a_Node000025"><a xlink:href="Operators__fwd_8hpp.html" target="_top" xlink:title="File defining basic differential operator families.">
<polygon fill="white" stroke="#666666" points="1048,-200.5 940,-200.5 940,-181.5 1048,-181.5 1048,-200.5"/>
<text text-anchor="middle" x="994" y="-188.5" font-family="Helvetica,sans-Serif" font-size="10.00">Operators_fwd.hpp</text>
</a>
</g>
</g>
<!-- Node24&#45;&gt;Node25 -->
<g id="edge38_Node000024_Node000025" class="edge">
<title>Node24&#45;&gt;Node25</title>
<g id="a_edge38_Node000024_Node000025"><a xlink:title=" ">
<path fill="none" stroke="#63b8ff" d="M1022.73,-307.82C1019.01,-291.81 1012.72,-265 1007,-242 1004.42,-231.62 1001.42,-220.05 998.95,-210.66"/>
<polygon fill="#63b8ff" stroke="#63b8ff" points="1002.3,-209.61 996.36,-200.84 995.53,-211.4 1002.3,-209.61"/>
</a>
</g>
</g>
<!-- Node26 -->
<g id="Node000026" class="node">
<title>Node26</title>
<g id="a_Node000026"><a xlink:href="Monomials__fwd_8hpp.html" target="_top" xlink:title="Declaration of Monomial basis.">
<polygon fill="white" stroke="#666666" points="1190,-134.5 1076,-134.5 1076,-115.5 1190,-115.5 1190,-134.5"/>
<text text-anchor="middle" x="1133" y="-122.5" font-family="Helvetica,sans-Serif" font-size="10.00">Monomials_fwd.hpp</text>
</a>
</g>
</g>
<!-- Node24&#45;&gt;Node26 -->
<g id="edge50_Node000024_Node000026" class="edge">
<title>Node24&#45;&gt;Node26</title>
<g id="a_edge50_Node000024_Node000026"><a xlink:title=" ">
<path fill="none" stroke="#63b8ff" d="M1033.7,-307.9C1052.79,-272.93 1102.29,-182.25 1123.32,-143.73"/>
<polygon fill="#63b8ff" stroke="#63b8ff" points="1126.52,-145.18 1128.24,-134.73 1120.37,-141.83 1126.52,-145.18"/>
</a>
</g>
</g>
<!-- Node28 -->
<g id="Node000028" class="node">
<title>Node28</title>
<g id="a_Node000028"><a xlink:href="RBFBasis__fwd_8hpp.html" target="_top" xlink:title="Declaration of RBF basis.">
<polygon fill="white" stroke="#666666" points="998,-266.5 892,-266.5 892,-247.5 998,-247.5 998,-266.5"/>
<text text-anchor="middle" x="945" y="-254.5" font-family="Helvetica,sans-Serif" font-size="10.00">RBFBasis_fwd.hpp</text>
</a>
</g>
</g>
<!-- Node24&#45;&gt;Node28 -->
<g id="edge51_Node000024_Node000028" class="edge">
<title>Node24&#45;&gt;Node28</title>
<g id="a_edge51_Node000024_Node000028"><a xlink:title=" ">
<path fill="none" stroke="#63b8ff" d="M1008.02,-307.8C995.02,-297.53 977.49,-283.67 964.21,-273.18"/>
<polygon fill="#63b8ff" stroke="#63b8ff" points="966.21,-270.3 956.19,-266.84 961.87,-275.79 966.21,-270.3"/>
</a>
</g>
</g>
<!-- Node25&#45;&gt;Node2 -->
<g id="edge39_Node000025_Node000002" class="edge">
<title>Node25&#45;&gt;Node2</title>
<g id="a_edge39_Node000025_Node000002"><a xlink:title=" ">
<path fill="none" stroke="#63b8ff" d="M980.02,-181.33C952.9,-164.89 890.8,-129.14 834,-110 777.93,-91.11 711.51,-79.49 663.43,-72.88"/>
<polygon fill="#63b8ff" stroke="#63b8ff" points="663.84,-69.4 653.47,-71.55 662.91,-76.34 663.84,-69.4"/>
</a>
</g>
</g>
<!-- Node25&#45;&gt;Node3 -->
<g id="edge41_Node000025_Node000003" class="edge">
<title>Node25&#45;&gt;Node3</title>
<g id="a_edge41_Node000025_Node000003"><a xlink:title=" ">
<path fill="none" stroke="#63b8ff" d="M990.23,-181.17C979.16,-156.44 944.13,-86.2 891,-55 844.88,-27.91 686.21,-16.14 615.94,-12.17"/>
<polygon fill="#63b8ff" stroke="#63b8ff" points="616.02,-8.67 605.85,-11.62 615.64,-15.66 616.02,-8.67"/>
</a>
</g>
</g>
<!-- Node25&#45;&gt;Node5 -->
<g id="edge49_Node000025_Node000005" class="edge">
<title>Node25&#45;&gt;Node5</title>
<g id="a_edge49_Node000025_Node000005"><a xlink:title=" ">
<path fill="none" stroke="#63b8ff" d="M939.87,-184.38C833.25,-173.3 595.2,-148.57 465.81,-135.12"/>
<polygon fill="#63b8ff" stroke="#63b8ff" points="465.85,-131.61 455.54,-134.06 465.12,-138.57 465.85,-131.61"/>
</a>
</g>
</g>
<!-- Node25&#45;&gt;Node9 -->
<g id="edge40_Node000025_Node000009" class="edge">
<title>Node25&#45;&gt;Node9</title>
<g id="a_edge40_Node000025_Node000009"><a xlink:title=" ">
<path fill="none" stroke="#63b8ff" d="M995.02,-181.41C997.88,-159.47 1007.12,-99.93 1028,-55 1032.65,-44.99 1039.66,-34.91 1045.94,-26.88"/>
<polygon fill="#63b8ff" stroke="#63b8ff" points="1048.7,-29.04 1052.31,-19.08 1043.27,-24.61 1048.7,-29.04"/>
</a>
</g>
</g>
<!-- Node25&#45;&gt;Node19 -->
<g id="edge42_Node000025_Node000019" class="edge">
<title>Node25&#45;&gt;Node19</title>
<g id="a_edge42_Node000025_Node000019"><a xlink:title=" ">
<path fill="none" stroke="#63b8ff" d="M999.29,-181.44C1011.82,-161.19 1043.49,-109.97 1060.24,-82.9"/>
<polygon fill="#63b8ff" stroke="#63b8ff" points="1063.39,-84.46 1065.67,-74.12 1057.43,-80.78 1063.39,-84.46"/>
</a>
</g>
</g>
<!-- Node25&#45;&gt;Node26 -->
<g id="edge43_Node000025_Node000026" class="edge">
<title>Node25&#45;&gt;Node26</title>
<g id="a_edge43_Node000025_Node000026"><a xlink:title=" ">
<path fill="none" stroke="#63b8ff" d="M1012.75,-181.37C1036.48,-170.44 1077.57,-151.52 1105.02,-138.88"/>
<polygon fill="#63b8ff" stroke="#63b8ff" points="1106.49,-142.06 1114.11,-134.7 1103.56,-135.7 1106.49,-142.06"/>
</a>
</g>
</g>
<!-- Node26&#45;&gt;Node2 -->
<g id="edge44_Node000026_Node000002" class="edge">
<title>Node26&#45;&gt;Node2</title>
<g id="a_edge44_Node000026_Node000002"><a xlink:title=" ">
<path fill="none" stroke="#63b8ff" d="M1076,-117.77C975.94,-106.83 769.31,-84.23 663.53,-72.67"/>
<polygon fill="#63b8ff" stroke="#63b8ff" points="663.62,-69.15 653.3,-71.55 662.86,-76.11 663.62,-69.15"/>
</a>
</g>
</g>
<!-- Node26&#45;&gt;Node9 -->
<g id="edge46_Node000026_Node000009" class="edge">
<title>Node26&#45;&gt;Node9</title>
<g id="a_edge46_Node000026_Node000009"><a xlink:title=" ">
<path fill="none" stroke="#63b8ff" d="M1132.46,-115.24C1131.24,-101.41 1127.35,-74.14 1115,-55 1107.12,-42.78 1094.77,-32.35 1083.77,-24.66"/>
<polygon fill="#63b8ff" stroke="#63b8ff" points="1085.62,-21.69 1075.34,-19.11 1081.76,-27.54 1085.62,-21.69"/>
</a>
</g>
</g>
<!-- Node26&#45;&gt;Node14 -->
<g id="edge48_Node000026_Node000014" class="edge">
<title>Node26&#45;&gt;Node14</title>
<g id="a_edge48_Node000026_Node000014"><a xlink:title=" ">
<path fill="none" stroke="#63b8ff" d="M1093.01,-115.49C1038.8,-103.96 942.92,-83.56 892,-72.73"/>
<polygon fill="#63b8ff" stroke="#63b8ff" points="892.65,-69.29 882.14,-70.64 891.19,-76.14 892.65,-69.29"/>
</a>
</g>
</g>
<!-- Node26&#45;&gt;Node19 -->
<g id="edge47_Node000026_Node000019" class="edge">
<title>Node26&#45;&gt;Node19</title>
<g id="a_edge47_Node000026_Node000019"><a xlink:title=" ">
<path fill="none" stroke="#63b8ff" d="M1123.85,-115.37C1114.33,-106.38 1099.2,-92.11 1087.57,-81.14"/>
<polygon fill="#63b8ff" stroke="#63b8ff" points="1089.86,-78.48 1080.19,-74.17 1085.06,-83.58 1089.86,-78.48"/>
</a>
</g>
</g>
<!-- Node27 -->
<g id="Node000027" class="node">
<title>Node27</title>
<g id="a_Node000027"><a xlink:title=" ">
<polygon fill="#e0e0e0" stroke="#999999" points="1209.5,-74 1162.5,-74 1162.5,-55 1209.5,-55 1209.5,-74"/>
<text text-anchor="middle" x="1186" y="-62" font-family="Helvetica,sans-Serif" font-size="10.00">cmath</text>
</a>
</g>
</g>
<!-- Node26&#45;&gt;Node27 -->
<g id="edge45_Node000026_Node000027" class="edge">
<title>Node26&#45;&gt;Node27</title>
<g id="a_edge45_Node000026_Node000027"><a xlink:title=" ">
<path fill="none" stroke="#63b8ff" d="M1140.82,-115.37C1148.81,-106.55 1161.39,-92.66 1171.26,-81.77"/>
<polygon fill="#63b8ff" stroke="#63b8ff" points="1174.03,-83.93 1178.15,-74.17 1168.84,-79.23 1174.03,-83.93"/>
</a>
</g>
</g>
<!-- Node28&#45;&gt;Node2 -->
<g id="edge52_Node000028_Node000002" class="edge">
<title>Node28&#45;&gt;Node2</title>
<g id="a_edge52_Node000028_Node000002"><a xlink:title=" ">
<path fill="none" stroke="#63b8ff" d="M937.68,-247.39C913.3,-218.9 834.51,-128.48 801,-110 758.53,-86.58 704.7,-75.48 663.14,-70.23"/>
<polygon fill="#63b8ff" stroke="#63b8ff" points="663.46,-66.74 653.12,-69.04 662.64,-73.69 663.46,-66.74"/>
</a>
</g>
</g>
<!-- Node28&#45;&gt;Node9 -->
<g id="edge54_Node000028_Node000009" class="edge">
<title>Node28&#45;&gt;Node9</title>
<g id="a_edge54_Node000028_Node000009"><a xlink:title=" ">
<path fill="none" stroke="#63b8ff" d="M989.96,-247.41C1046.79,-234.22 1143.86,-203.51 1199,-140 1224.44,-110.69 1242.45,-85.92 1219,-55 1203.59,-34.68 1132.8,-21.11 1091.05,-14.72"/>
<polygon fill="#63b8ff" stroke="#63b8ff" points="1091.52,-11.25 1081.11,-13.25 1090.49,-18.18 1091.52,-11.25"/>
</a>
</g>
</g>
<!-- Node28&#45;&gt;Node14 -->
<g id="edge53_Node000028_Node000014" class="edge">
<title>Node28&#45;&gt;Node14</title>
<g id="a_edge53_Node000028_Node000014"><a xlink:title=" ">
<path fill="none" stroke="#63b8ff" d="M941.04,-247.32C927.73,-218.19 884.49,-123.5 866.24,-83.54"/>
<polygon fill="#63b8ff" stroke="#63b8ff" points="869.33,-81.87 861.99,-74.23 862.96,-84.78 869.33,-81.87"/>
</a>
</g>
</g>
<!-- Node28&#45;&gt;Node25 -->
<g id="edge55_Node000028_Node000025" class="edge">
<title>Node28&#45;&gt;Node25</title>
<g id="a_edge55_Node000028_Node000025"><a xlink:title=" ">
<path fill="none" stroke="#63b8ff" d="M951.61,-247.37C959.09,-237.59 971.47,-221.42 980.93,-209.08"/>
<polygon fill="#63b8ff" stroke="#63b8ff" points="983.88,-210.97 987.18,-200.91 978.32,-206.72 983.88,-210.97"/>
</a>
</g>
</g>
</g>
</svg>
