<?xml version="1.0" encoding="UTF-8" standalone="no"?>
<!DOCTYPE svg PUBLIC "-//W3C//DTD SVG 1.1//EN"
 "http://www.w3.org/Graphics/SVG/1.1/DTD/svg11.dtd">
<!-- Generated by graphviz version 2.43.0 (0)
 -->
<!-- Title: include/medusa/bits/domains/HalfLinksRefine.hpp Pages: 1 -->
<svg width="1663pt" height="599pt"
 viewBox="0.00 0.00 1663.21 599.00" xmlns="http://www.w3.org/2000/svg" xmlns:xlink="http://www.w3.org/1999/xlink">
<g id="graph0" class="graph" transform="scale(1 1) rotate(0) translate(4 595)">
<title>include/medusa/bits/domains/HalfLinksRefine.hpp</title>
<!-- Node1 -->
<g id="Node000001" class="node">
<title>Node1</title>
<g id="a_Node000001"><a xlink:title="Implementation of the half&#45;link refinement algorithm.">
<polygon fill="#999999" stroke="#666666" points="1370.21,-591 1208.21,-591 1208.21,-561 1370.21,-561 1370.21,-591"/>
<text text-anchor="start" x="1216.21" y="-579" font-family="Helvetica,sans-Serif" font-size="10.00">include/medusa/bits</text>
<text text-anchor="middle" x="1289.21" y="-568" font-family="Helvetica,sans-Serif" font-size="10.00">/domains/HalfLinksRefine.hpp</text>
</a>
</g>
</g>
<!-- Node2 -->
<g id="Node000002" class="node">
<title>Node2</title>
<g id="a_Node000002"><a xlink:href="HalfLinksRefine__fwd_8hpp.html" target="_top" xlink:title="Declaration of the half&#45;link refinement algorithm.">
<polygon fill="white" stroke="#666666" points="608.71,-525 471.71,-525 471.71,-506 608.71,-506 608.71,-525"/>
<text text-anchor="middle" x="540.21" y="-513" font-family="Helvetica,sans-Serif" font-size="10.00">HalfLinksRefine_fwd.hpp</text>
</a>
</g>
</g>
<!-- Node1&#45;&gt;Node2 -->
<g id="edge1_Node000001_Node000002" class="edge">
<title>Node1&#45;&gt;Node2</title>
<g id="a_edge1_Node000001_Node000002"><a xlink:title=" ">
<path fill="none" stroke="#63b8ff" d="M1207.98,-568.66C1063.1,-557.34 761.9,-533.82 618.88,-522.64"/>
<polygon fill="#63b8ff" stroke="#63b8ff" points="619.1,-519.15 608.86,-521.86 618.56,-526.13 619.1,-519.15"/>
</a>
</g>
</g>
<!-- Node6 -->
<g id="Node000006" class="node">
<title>Node6</title>
<g id="a_Node000006"><a xlink:href="assert_8hpp.html" target="_top" xlink:title="Implementation of custom assert and debug utilities.">
<polygon fill="white" stroke="#666666" points="1465.71,-134.5 1310.71,-134.5 1310.71,-115.5 1465.71,-115.5 1465.71,-134.5"/>
<text text-anchor="middle" x="1388.21" y="-122.5" font-family="Helvetica,sans-Serif" font-size="10.00">medusa/bits/utils/assert.hpp</text>
</a>
</g>
</g>
<!-- Node1&#45;&gt;Node6 -->
<g id="edge59_Node000001_Node000006" class="edge">
<title>Node1&#45;&gt;Node6</title>
<g id="a_edge59_Node000001_Node000006"><a xlink:title=" ">
<path fill="none" stroke="#63b8ff" d="M1370.4,-573.84C1453.7,-567.84 1571.21,-543.81 1571.21,-456 1571.21,-456 1571.21,-456 1571.21,-256 1571.21,-189.23 1489.23,-153.6 1435.02,-137.34"/>
<polygon fill="#63b8ff" stroke="#63b8ff" points="1435.82,-133.93 1425.24,-134.53 1433.88,-140.66 1435.82,-133.93"/>
</a>
</g>
</g>
<!-- Node30 -->
<g id="Node000030" class="node">
<title>Node30</title>
<g id="a_Node000030"><a xlink:href="KDTreeMutable_8hpp.html" target="_top" xlink:title="Implementation of KDTreeMutable.">
<polygon fill="white" stroke="#666666" points="1365.21,-338 1213.21,-338 1213.21,-308 1365.21,-308 1365.21,-338"/>
<text text-anchor="start" x="1221.21" y="-326" font-family="Helvetica,sans-Serif" font-size="10.00">medusa/bits/spatial</text>
<text text-anchor="middle" x="1289.21" y="-315" font-family="Helvetica,sans-Serif" font-size="10.00">_search/KDTreeMutable.hpp</text>
</a>
</g>
</g>
<!-- Node1&#45;&gt;Node30 -->
<g id="edge60_Node000001_Node000030" class="edge">
<title>Node1&#45;&gt;Node30</title>
<g id="a_edge60_Node000001_Node000030"><a xlink:title=" ">
<path fill="none" stroke="#63b8ff" d="M1289.21,-560.79C1289.21,-519.63 1289.21,-400 1289.21,-348.29"/>
<polygon fill="#63b8ff" stroke="#63b8ff" points="1292.71,-348.06 1289.21,-338.06 1285.71,-348.06 1292.71,-348.06"/>
</a>
</g>
</g>
<!-- Node34 -->
<g id="Node000034" class="node">
<title>Node34</title>
<g id="a_Node000034"><a xlink:href="Range_8hpp.html" target="_top" xlink:title="Implementation of Range.">
<polygon fill="white" stroke="#666666" points="443.71,-525 282.71,-525 282.71,-506 443.71,-506 443.71,-525"/>
<text text-anchor="middle" x="363.21" y="-513" font-family="Helvetica,sans-Serif" font-size="10.00">medusa/bits/types/Range.hpp</text>
</a>
</g>
</g>
<!-- Node1&#45;&gt;Node34 -->
<g id="edge71_Node000001_Node000034" class="edge">
<title>Node1&#45;&gt;Node34</title>
<g id="a_edge71_Node000001_Node000034"><a xlink:title=" ">
<path fill="none" stroke="#63b8ff" d="M1208.17,-570.78C1060,-562.92 735.49,-544.99 462.21,-525 459.52,-524.8 456.79,-524.6 454.03,-524.39"/>
<polygon fill="#63b8ff" stroke="#63b8ff" points="454.21,-520.89 443.97,-523.6 453.66,-527.87 454.21,-520.89"/>
</a>
</g>
</g>
<!-- Node36 -->
<g id="Node000036" class="node">
<title>Node36</title>
<g id="a_Node000036"><a xlink:title=" ">
<polygon fill="#e0e0e0" stroke="#999999" points="1655.21,-525 1599.21,-525 1599.21,-506 1655.21,-506 1655.21,-525"/>
<text text-anchor="middle" x="1627.21" y="-513" font-family="Helvetica,sans-Serif" font-size="10.00">numeric</text>
</a>
</g>
</g>
<!-- Node1&#45;&gt;Node36 -->
<g id="edge74_Node000001_Node000036" class="edge">
<title>Node1&#45;&gt;Node36</title>
<g id="a_edge74_Node000001_Node000036"><a xlink:title=" ">
<path fill="none" stroke="#63b8ff" d="M1370.37,-562.02C1429.92,-552.31 1512.7,-538.46 1585.21,-525 1586.3,-524.8 1587.42,-524.59 1588.54,-524.37"/>
<polygon fill="#63b8ff" stroke="#63b8ff" points="1589.62,-527.73 1598.77,-522.39 1588.28,-520.86 1589.62,-527.73"/>
</a>
</g>
</g>
<!-- Node3 -->
<g id="Node000003" class="node">
<title>Node3</title>
<g id="a_Node000003"><a xlink:href="Config_8hpp.html" target="_top" xlink:title="Contains compile time settings for the project, such as Eigen plugins.">
<polygon fill="white" stroke="#666666" points="786.21,-74 676.21,-74 676.21,-55 786.21,-55 786.21,-74"/>
<text text-anchor="middle" x="731.21" y="-62" font-family="Helvetica,sans-Serif" font-size="10.00">medusa/Config.hpp</text>
</a>
</g>
</g>
<!-- Node2&#45;&gt;Node3 -->
<g id="edge2_Node000002_Node000003" class="edge">
<title>Node2&#45;&gt;Node3</title>
<g id="a_edge2_Node000002_Node000003"><a xlink:title=" ">
<path fill="none" stroke="#63b8ff" d="M568.27,-505.95C612.44,-490.56 693.21,-453.7 693.21,-390 693.21,-390 693.21,-390 693.21,-256 693.21,-247.35 717.6,-130.3 727.3,-84.08"/>
<polygon fill="#63b8ff" stroke="#63b8ff" points="730.74,-84.7 729.37,-74.19 723.89,-83.26 730.74,-84.7"/>
</a>
</g>
</g>
<!-- Node5 -->
<g id="Node000005" class="node">
<title>Node5</title>
<g id="a_Node000005"><a xlink:href="Range__fwd_8hpp.html" target="_top" xlink:title="Declaration of Range.">
<polygon fill="white" stroke="#666666" points="399.21,-206 259.21,-206 259.21,-176 399.21,-176 399.21,-206"/>
<text text-anchor="start" x="267.21" y="-194" font-family="Helvetica,sans-Serif" font-size="10.00">medusa/bits/types/Range</text>
<text text-anchor="middle" x="329.21" y="-183" font-family="Helvetica,sans-Serif" font-size="10.00">_fwd.hpp</text>
</a>
</g>
</g>
<!-- Node2&#45;&gt;Node5 -->
<g id="edge4_Node000002_Node000005" class="edge">
<title>Node2&#45;&gt;Node5</title>
<g id="a_edge4_Node000002_Node000005"><a xlink:title=" ">
<path fill="none" stroke="#63b8ff" d="M518.58,-505.91C502.32,-498.5 480.47,-486.4 466.21,-470 440.86,-440.84 432.21,-428.63 432.21,-390 432.21,-390 432.21,-390 432.21,-322 432.21,-274.76 389.9,-234.67 359.51,-211.97"/>
<polygon fill="#63b8ff" stroke="#63b8ff" points="361.46,-209.06 351.3,-206.04 357.36,-214.74 361.46,-209.06"/>
</a>
</g>
</g>
<!-- Node16 -->
<g id="Node000016" class="node">
<title>Node16</title>
<g id="a_Node000016"><a xlink:href="DomainDiscretization__fwd_8hpp.html" target="_top" xlink:title="Declarations for domain discretizations.">
<polygon fill="white" stroke="#666666" points="597.21,-470 475.21,-470 475.21,-440 597.21,-440 597.21,-470"/>
<text text-anchor="start" x="483.21" y="-458" font-family="Helvetica,sans-Serif" font-size="10.00">DomainDiscretization</text>
<text text-anchor="middle" x="536.21" y="-447" font-family="Helvetica,sans-Serif" font-size="10.00">_fwd.hpp</text>
</a>
</g>
</g>
<!-- Node2&#45;&gt;Node16 -->
<g id="edge18_Node000002_Node000016" class="edge">
<title>Node2&#45;&gt;Node16</title>
<g id="a_edge18_Node000002_Node000016"><a xlink:title=" ">
<path fill="none" stroke="#63b8ff" d="M539.62,-505.87C539.15,-499.11 538.49,-489.35 537.87,-480.26"/>
<polygon fill="#63b8ff" stroke="#63b8ff" points="541.35,-479.85 537.17,-470.11 534.36,-480.33 541.35,-479.85"/>
</a>
</g>
</g>
<!-- Node4 -->
<g id="Node000004" class="node">
<title>Node4</title>
<g id="a_Node000004"><a xlink:title=" ">
<polygon fill="#e0e0e0" stroke="#999999" points="1076.71,-19 1029.71,-19 1029.71,0 1076.71,0 1076.71,-19"/>
<text text-anchor="middle" x="1053.21" y="-7" font-family="Helvetica,sans-Serif" font-size="10.00">vector</text>
</a>
</g>
</g>
<!-- Node3&#45;&gt;Node4 -->
<g id="edge3_Node000003_Node000004" class="edge">
<title>Node3&#45;&gt;Node4</title>
<g id="a_edge3_Node000003_Node000004"><a xlink:title=" ">
<path fill="none" stroke="#63b8ff" d="M782.94,-54.98C849.41,-44.04 962.93,-25.36 1019.34,-16.08"/>
<polygon fill="#63b8ff" stroke="#63b8ff" points="1020.2,-19.48 1029.5,-14.4 1019.07,-12.57 1020.2,-19.48"/>
</a>
</g>
</g>
<!-- Node5&#45;&gt;Node3 -->
<g id="edge5_Node000005_Node000003" class="edge">
<title>Node5&#45;&gt;Node3</title>
<g id="a_edge5_Node000005_Node000003"><a xlink:title=" ">
<path fill="none" stroke="#63b8ff" d="M333.27,-175.7C339.34,-157.19 352.66,-125.5 376.21,-110 422.48,-79.54 576.62,-69.92 665.85,-66.89"/>
<polygon fill="#63b8ff" stroke="#63b8ff" points="665.98,-70.39 675.86,-66.57 665.76,-63.39 665.98,-70.39"/>
</a>
</g>
</g>
<!-- Node5&#45;&gt;Node4 -->
<g id="edge16_Node000005_Node000004" class="edge">
<title>Node5&#45;&gt;Node4</title>
<g id="a_edge16_Node000005_Node000004"><a xlink:title=" ">
<path fill="none" stroke="#63b8ff" d="M327.84,-175.9C326.94,-157.93 328.39,-127.12 346.21,-110 444.01,-16 891.37,-10 1019.08,-10.24"/>
<polygon fill="#63b8ff" stroke="#63b8ff" points="1019.4,-13.74 1029.41,-10.27 1019.42,-6.74 1019.4,-13.74"/>
</a>
</g>
</g>
<!-- Node5&#45;&gt;Node6 -->
<g id="edge6_Node000005_Node000006" class="edge">
<title>Node5&#45;&gt;Node6</title>
<g id="a_edge6_Node000005_Node000006"><a xlink:title=" ">
<path fill="none" stroke="#63b8ff" d="M399.35,-177.09C402.34,-176.69 405.3,-176.32 408.21,-176 749.58,-137.95 837.28,-159.53 1180.21,-140 1219.68,-137.75 1263.33,-134.87 1300.42,-132.31"/>
<polygon fill="#63b8ff" stroke="#63b8ff" points="1300.96,-135.78 1310.69,-131.6 1300.47,-128.8 1300.96,-135.78"/>
</a>
</g>
</g>
<!-- Node13 -->
<g id="Node000013" class="node">
<title>Node13</title>
<g id="a_Node000013"><a xlink:href="traits_8hpp.html" target="_top" xlink:title="Type traits definition for vector and scalar fields.">
<polygon fill="white" stroke="#666666" points="252.71,-134.5 189.71,-134.5 189.71,-115.5 252.71,-115.5 252.71,-134.5"/>
<text text-anchor="middle" x="221.21" y="-122.5" font-family="Helvetica,sans-Serif" font-size="10.00">traits.hpp</text>
</a>
</g>
</g>
<!-- Node5&#45;&gt;Node13 -->
<g id="edge14_Node000005_Node000013" class="edge">
<title>Node5&#45;&gt;Node13</title>
<g id="a_edge14_Node000005_Node000013"><a xlink:title=" ">
<path fill="none" stroke="#63b8ff" d="M305.51,-175.95C287.32,-165.18 262.35,-150.38 244.31,-139.69"/>
<polygon fill="#63b8ff" stroke="#63b8ff" points="245.97,-136.6 235.58,-134.52 242.4,-142.63 245.97,-136.6"/>
</a>
</g>
</g>
<!-- Node14 -->
<g id="Node000014" class="node">
<title>Node14</title>
<g id="a_Node000014"><a xlink:title=" ">
<polygon fill="#e0e0e0" stroke="#999999" points="443.21,-134.5 385.21,-134.5 385.21,-115.5 443.21,-115.5 443.21,-134.5"/>
<text text-anchor="middle" x="414.21" y="-122.5" font-family="Helvetica,sans-Serif" font-size="10.00">memory</text>
</a>
</g>
</g>
<!-- Node5&#45;&gt;Node14 -->
<g id="edge15_Node000005_Node000014" class="edge">
<title>Node5&#45;&gt;Node14</title>
<g id="a_edge15_Node000005_Node000014"><a xlink:title=" ">
<path fill="none" stroke="#63b8ff" d="M348.07,-175.8C361.84,-165.43 380.47,-151.4 394.44,-140.88"/>
<polygon fill="#63b8ff" stroke="#63b8ff" points="396.58,-143.66 402.46,-134.84 392.37,-138.06 396.58,-143.66"/>
</a>
</g>
</g>
<!-- Node15 -->
<g id="Node000015" class="node">
<title>Node15</title>
<g id="a_Node000015"><a xlink:title=" ">
<polygon fill="#e0e0e0" stroke="#999999" points="219.21,-74 171.21,-74 171.21,-55 219.21,-55 219.21,-74"/>
<text text-anchor="middle" x="195.21" y="-62" font-family="Helvetica,sans-Serif" font-size="10.00">iosfwd</text>
</a>
</g>
</g>
<!-- Node5&#45;&gt;Node15 -->
<g id="edge17_Node000005_Node000015" class="edge">
<title>Node5&#45;&gt;Node15</title>
<g id="a_edge17_Node000005_Node000015"><a xlink:title=" ">
<path fill="none" stroke="#63b8ff" d="M319.16,-175.98C306.71,-159.16 284.3,-130.66 261.21,-110 248.36,-98.51 232.37,-87.65 219.34,-79.54"/>
<polygon fill="#63b8ff" stroke="#63b8ff" points="220.83,-76.35 210.47,-74.15 217.19,-82.33 220.83,-76.35"/>
</a>
</g>
</g>
<!-- Node7 -->
<g id="Node000007" class="node">
<title>Node7</title>
<g id="a_Node000007"><a xlink:title=" ">
<polygon fill="#e0e0e0" stroke="#999999" points="1389.21,-74 1257.21,-74 1257.21,-55 1389.21,-55 1389.21,-74"/>
<text text-anchor="middle" x="1323.21" y="-62" font-family="Helvetica,sans-Serif" font-size="10.00">tinyformat/tinyformat.h</text>
</a>
</g>
</g>
<!-- Node6&#45;&gt;Node7 -->
<g id="edge7_Node000006_Node000007" class="edge">
<title>Node6&#45;&gt;Node7</title>
<g id="a_edge7_Node000006_Node000007"><a xlink:title=" ">
<path fill="none" stroke="#63b8ff" d="M1378.62,-115.37C1368.63,-106.38 1352.78,-92.11 1340.58,-81.14"/>
<polygon fill="#63b8ff" stroke="#63b8ff" points="1342.61,-78.26 1332.84,-74.17 1337.93,-83.46 1342.61,-78.26"/>
</a>
</g>
</g>
<!-- Node8 -->
<g id="Node000008" class="node">
<title>Node8</title>
<g id="a_Node000008"><a xlink:href="print_8hpp.html" target="_top" xlink:title="Printing helpers for std types.">
<polygon fill="white" stroke="#666666" points="1467.21,-74 1407.21,-74 1407.21,-55 1467.21,-55 1467.21,-74"/>
<text text-anchor="middle" x="1437.21" y="-62" font-family="Helvetica,sans-Serif" font-size="10.00">print.hpp</text>
</a>
</g>
</g>
<!-- Node6&#45;&gt;Node8 -->
<g id="edge8_Node000006_Node000008" class="edge">
<title>Node6&#45;&gt;Node8</title>
<g id="a_edge8_Node000006_Node000008"><a xlink:title=" ">
<path fill="none" stroke="#63b8ff" d="M1395.44,-115.37C1402.75,-106.64 1414.23,-92.93 1423.31,-82.09"/>
<polygon fill="#63b8ff" stroke="#63b8ff" points="1426.21,-84.08 1429.95,-74.17 1420.84,-79.59 1426.21,-84.08"/>
</a>
</g>
</g>
<!-- Node8&#45;&gt;Node4 -->
<g id="edge10_Node000008_Node000004" class="edge">
<title>Node8&#45;&gt;Node4</title>
<g id="a_edge10_Node000008_Node000004"><a xlink:title=" ">
<path fill="none" stroke="#63b8ff" d="M1407.02,-56.65C1404.05,-56.06 1401.08,-55.5 1398.21,-55 1284.58,-35.33 1148.51,-20.24 1086.7,-13.85"/>
<polygon fill="#63b8ff" stroke="#63b8ff" points="1087.04,-10.37 1076.74,-12.83 1086.33,-17.33 1087.04,-10.37"/>
</a>
</g>
</g>
<!-- Node9 -->
<g id="Node000009" class="node">
<title>Node9</title>
<g id="a_Node000009"><a xlink:title=" ">
<polygon fill="#e0e0e0" stroke="#999999" points="1467.21,-19 1407.21,-19 1407.21,0 1467.21,0 1467.21,-19"/>
<text text-anchor="middle" x="1437.21" y="-7" font-family="Helvetica,sans-Serif" font-size="10.00">iostream</text>
</a>
</g>
</g>
<!-- Node8&#45;&gt;Node9 -->
<g id="edge9_Node000008_Node000009" class="edge">
<title>Node8&#45;&gt;Node9</title>
<g id="a_edge9_Node000008_Node000009"><a xlink:title=" ">
<path fill="none" stroke="#63b8ff" d="M1437.21,-54.75C1437.21,-47.8 1437.21,-37.85 1437.21,-29.13"/>
<polygon fill="#63b8ff" stroke="#63b8ff" points="1440.71,-29.09 1437.21,-19.09 1433.71,-29.09 1440.71,-29.09"/>
</a>
</g>
</g>
<!-- Node10 -->
<g id="Node000010" class="node">
<title>Node10</title>
<g id="a_Node000010"><a xlink:title=" ">
<polygon fill="#e0e0e0" stroke="#999999" points="1250.21,-19 1208.21,-19 1208.21,0 1250.21,0 1250.21,-19"/>
<text text-anchor="middle" x="1229.21" y="-7" font-family="Helvetica,sans-Serif" font-size="10.00">array</text>
</a>
</g>
</g>
<!-- Node8&#45;&gt;Node10 -->
<g id="edge11_Node000008_Node000010" class="edge">
<title>Node8&#45;&gt;Node10</title>
<g id="a_edge11_Node000008_Node000010"><a xlink:title=" ">
<path fill="none" stroke="#63b8ff" d="M1406.96,-55.79C1367.76,-45.8 1299.76,-28.48 1260.2,-18.4"/>
<polygon fill="#63b8ff" stroke="#63b8ff" points="1260.87,-14.96 1250.32,-15.88 1259.14,-21.74 1260.87,-14.96"/>
</a>
</g>
</g>
<!-- Node11 -->
<g id="Node000011" class="node">
<title>Node11</title>
<g id="a_Node000011"><a xlink:title=" ">
<polygon fill="#e0e0e0" stroke="#999999" points="477.71,-19 432.71,-19 432.71,0 477.71,0 477.71,-19"/>
<text text-anchor="middle" x="455.21" y="-7" font-family="Helvetica,sans-Serif" font-size="10.00">utility</text>
</a>
</g>
</g>
<!-- Node8&#45;&gt;Node11 -->
<g id="edge12_Node000008_Node000011" class="edge">
<title>Node8&#45;&gt;Node11</title>
<g id="a_edge12_Node000008_Node000011"><a xlink:title=" ">
<path fill="none" stroke="#63b8ff" d="M1407.06,-56.41C1404.08,-55.86 1401.09,-55.38 1398.21,-55 1044.09,-8.39 609.53,-8.89 488.09,-10.07"/>
<polygon fill="#63b8ff" stroke="#63b8ff" points="487.92,-6.57 477.96,-10.17 487.99,-13.57 487.92,-6.57"/>
</a>
</g>
</g>
<!-- Node12 -->
<g id="Node000012" class="node">
<title>Node12</title>
<g id="a_Node000012"><a xlink:title=" ">
<polygon fill="#e0e0e0" stroke="#999999" points="1539.71,-19 1498.71,-19 1498.71,0 1539.71,0 1539.71,-19"/>
<text text-anchor="middle" x="1519.21" y="-7" font-family="Helvetica,sans-Serif" font-size="10.00">tuple</text>
</a>
</g>
</g>
<!-- Node8&#45;&gt;Node12 -->
<g id="edge13_Node000008_Node000012" class="edge">
<title>Node8&#45;&gt;Node12</title>
<g id="a_edge13_Node000008_Node000012"><a xlink:title=" ">
<path fill="none" stroke="#63b8ff" d="M1450.38,-54.98C1462.98,-46.84 1482.21,-34.41 1497.15,-24.76"/>
<polygon fill="#63b8ff" stroke="#63b8ff" points="1499.29,-27.54 1505.79,-19.17 1495.49,-21.66 1499.29,-27.54"/>
</a>
</g>
</g>
<!-- Node16&#45;&gt;Node3 -->
<g id="edge19_Node000016_Node000003" class="edge">
<title>Node16&#45;&gt;Node3</title>
<g id="a_edge19_Node000016_Node000003"><a xlink:title=" ">
<path fill="none" stroke="#63b8ff" d="M543.38,-439.71C573.45,-379.81 689.32,-148.95 722.36,-83.12"/>
<polygon fill="#63b8ff" stroke="#63b8ff" points="725.57,-84.53 726.93,-74.02 719.32,-81.39 725.57,-84.53"/>
</a>
</g>
</g>
<!-- Node16&#45;&gt;Node5 -->
<g id="edge20_Node000016_Node000005" class="edge">
<title>Node16&#45;&gt;Node5</title>
<g id="a_edge20_Node000016_Node000005"><a xlink:title=" ">
<path fill="none" stroke="#63b8ff" d="M531.7,-439.72C518.02,-397.11 476.07,-271.93 446.21,-242 431.99,-227.75 413.07,-217.31 394.6,-209.77"/>
<polygon fill="#63b8ff" stroke="#63b8ff" points="395.6,-206.41 385.01,-206.09 393.09,-212.94 395.6,-206.41"/>
</a>
</g>
</g>
<!-- Node16&#45;&gt;Node15 -->
<g id="edge57_Node000016_Node000015" class="edge">
<title>Node16&#45;&gt;Node15</title>
<g id="a_edge57_Node000016_Node000015"><a xlink:title=" ">
<path fill="none" stroke="#63b8ff" d="M486.47,-439.91C454.44,-430.5 412.06,-417.43 375.21,-404 200.34,-340.26 69.57,-381 6.21,-206 -9.25,-163.3 5.96,-138.64 41.21,-110 59.6,-95.06 121.66,-80.31 161.16,-72.1"/>
<polygon fill="#63b8ff" stroke="#63b8ff" points="162.06,-75.49 171.16,-70.06 160.66,-68.63 162.06,-75.49"/>
</a>
</g>
</g>
<!-- Node17 -->
<g id="Node000017" class="node">
<title>Node17</title>
<g id="a_Node000017"><a xlink:href="memutils_8hpp.html" target="_top" xlink:title="Declaration of memory related utilities.">
<polygon fill="white" stroke="#666666" points="588.71,-200.5 417.71,-200.5 417.71,-181.5 588.71,-181.5 588.71,-200.5"/>
<text text-anchor="middle" x="503.21" y="-188.5" font-family="Helvetica,sans-Serif" font-size="10.00">medusa/bits/utils/memutils.hpp</text>
</a>
</g>
</g>
<!-- Node16&#45;&gt;Node17 -->
<g id="edge21_Node000016_Node000017" class="edge">
<title>Node16&#45;&gt;Node17</title>
<g id="a_edge21_Node000016_Node000017"><a xlink:title=" ">
<path fill="none" stroke="#63b8ff" d="M534.43,-439.91C528.88,-395.84 511.84,-260.52 505.56,-210.68"/>
<polygon fill="#63b8ff" stroke="#63b8ff" points="509.02,-210.16 504.3,-200.68 502.08,-211.03 509.02,-210.16"/>
</a>
</g>
</g>
<!-- Node18 -->
<g id="Node000018" class="node">
<title>Node18</title>
<g id="a_Node000018"><a xlink:href="DomainShape__fwd_8hpp.html" target="_top" xlink:title="Declaration of base class for domain shapes.">
<polygon fill="white" stroke="#666666" points="201.71,-272 70.71,-272 70.71,-242 201.71,-242 201.71,-272"/>
<text text-anchor="start" x="78.71" y="-260" font-family="Helvetica,sans-Serif" font-size="10.00">medusa/bits/domains</text>
<text text-anchor="middle" x="136.21" y="-249" font-family="Helvetica,sans-Serif" font-size="10.00">/DomainShape_fwd.hpp</text>
</a>
</g>
</g>
<!-- Node16&#45;&gt;Node18 -->
<g id="edge25_Node000016_Node000018" class="edge">
<title>Node16&#45;&gt;Node18</title>
<g id="a_edge25_Node000016_Node000018"><a xlink:title=" ">
<path fill="none" stroke="#63b8ff" d="M507.44,-439.9C436.61,-405.2 253.75,-315.6 174.16,-276.6"/>
<polygon fill="#63b8ff" stroke="#63b8ff" points="175.5,-273.36 164.98,-272.1 172.42,-279.64 175.5,-273.36"/>
</a>
</g>
</g>
<!-- Node23 -->
<g id="Node000023" class="node">
<title>Node23</title>
<g id="a_Node000023"><a xlink:href="shape__flags_8hpp.html" target="_top" xlink:title="Definition of flags related to shape computation.">
<polygon fill="white" stroke="#666666" points="865.21,-404 739.21,-404 739.21,-374 865.21,-374 865.21,-404"/>
<text text-anchor="start" x="747.21" y="-392" font-family="Helvetica,sans-Serif" font-size="10.00">medusa/bits/operators</text>
<text text-anchor="middle" x="802.21" y="-381" font-family="Helvetica,sans-Serif" font-size="10.00">/shape_flags.hpp</text>
</a>
</g>
</g>
<!-- Node16&#45;&gt;Node23 -->
<g id="edge35_Node000016_Node000023" class="edge">
<title>Node16&#45;&gt;Node23</title>
<g id="a_edge35_Node000016_Node000023"><a xlink:title=" ">
<path fill="none" stroke="#63b8ff" d="M594.58,-439.95C635.73,-430.06 690.96,-416.77 734.12,-406.38"/>
<polygon fill="#63b8ff" stroke="#63b8ff" points="735.07,-409.75 743.97,-404.01 733.43,-402.95 735.07,-409.75"/>
</a>
</g>
</g>
<!-- Node24 -->
<g id="Node000024" class="node">
<title>Node24</title>
<g id="a_Node000024"><a xlink:title=" ">
<polygon fill="#e0e0e0" stroke="#999999" points="665.21,-332.5 621.21,-332.5 621.21,-313.5 665.21,-313.5 665.21,-332.5"/>
<text text-anchor="middle" x="643.21" y="-320.5" font-family="Helvetica,sans-Serif" font-size="10.00">string</text>
</a>
</g>
</g>
<!-- Node16&#45;&gt;Node24 -->
<g id="edge58_Node000016_Node000024" class="edge">
<title>Node16&#45;&gt;Node24</title>
<g id="a_edge58_Node000016_Node000024"><a xlink:title=" ">
<path fill="none" stroke="#63b8ff" d="M562.84,-439.96C577.45,-431.19 595.02,-418.77 607.21,-404 622.4,-385.6 632.48,-359.75 638.02,-342.47"/>
<polygon fill="#63b8ff" stroke="#63b8ff" points="641.48,-343.1 641,-332.51 634.78,-341.09 641.48,-343.1"/>
</a>
</g>
</g>
<!-- Node17&#45;&gt;Node3 -->
<g id="edge23_Node000017_Node000003" class="edge">
<title>Node17&#45;&gt;Node3</title>
<g id="a_edge23_Node000017_Node000003"><a xlink:title=" ">
<path fill="none" stroke="#63b8ff" d="M503.36,-181.29C504.15,-164.79 508.33,-128.94 529.21,-110 549.09,-91.96 614.67,-79.81 665.77,-72.83"/>
<polygon fill="#63b8ff" stroke="#63b8ff" points="666.33,-76.29 675.78,-71.5 665.41,-69.35 666.33,-76.29"/>
</a>
</g>
</g>
<!-- Node17&#45;&gt;Node6 -->
<g id="edge24_Node000017_Node000006" class="edge">
<title>Node17&#45;&gt;Node6</title>
<g id="a_edge24_Node000017_Node000006"><a xlink:title=" ">
<path fill="none" stroke="#63b8ff" d="M588.87,-183.81C757.32,-171.62 1130.05,-144.67 1300.3,-132.36"/>
<polygon fill="#63b8ff" stroke="#63b8ff" points="1300.75,-135.83 1310.47,-131.62 1300.25,-128.85 1300.75,-135.83"/>
</a>
</g>
</g>
<!-- Node17&#45;&gt;Node14 -->
<g id="edge22_Node000017_Node000014" class="edge">
<title>Node17&#45;&gt;Node14</title>
<g id="a_edge22_Node000017_Node000014"><a xlink:title=" ">
<path fill="none" stroke="#63b8ff" d="M491.2,-181.37C476.74,-170.97 452.2,-153.32 434.72,-140.75"/>
<polygon fill="#63b8ff" stroke="#63b8ff" points="436.47,-137.7 426.3,-134.7 432.38,-143.38 436.47,-137.7"/>
</a>
</g>
</g>
<!-- Node18&#45;&gt;Node3 -->
<g id="edge26_Node000018_Node000003" class="edge">
<title>Node18&#45;&gt;Node3</title>
<g id="a_edge26_Node000018_Node000003"><a xlink:title=" ">
<path fill="none" stroke="#63b8ff" d="M150.35,-241.58C158.57,-232.24 168.25,-219.37 173.21,-206 188.07,-165.89 150.08,-140.37 180.21,-110 213.8,-76.15 527.42,-68.04 665.96,-66.1"/>
<polygon fill="#63b8ff" stroke="#63b8ff" points="666.07,-69.6 676.02,-65.97 665.97,-62.6 666.07,-69.6"/>
</a>
</g>
</g>
<!-- Node18&#45;&gt;Node11 -->
<g id="edge32_Node000018_Node000011" class="edge">
<title>Node18&#45;&gt;Node11</title>
<g id="a_edge32_Node000018_Node000011"><a xlink:title=" ">
<path fill="none" stroke="#63b8ff" d="M70.58,-246.68C46.2,-239.68 20.92,-227.43 6.21,-206 -15.96,-173.73 38.93,-112.15 41.21,-110 84.23,-69.52 105.58,-71.82 162.21,-55 254.22,-27.67 367.73,-16.54 422.54,-12.51"/>
<polygon fill="#63b8ff" stroke="#63b8ff" points="422.97,-15.99 432.7,-11.8 422.48,-9.01 422.97,-15.99"/>
</a>
</g>
</g>
<!-- Node18&#45;&gt;Node15 -->
<g id="edge31_Node000018_Node000015" class="edge">
<title>Node18&#45;&gt;Node15</title>
<g id="a_edge31_Node000018_Node000015"><a xlink:title=" ">
<path fill="none" stroke="#63b8ff" d="M70.57,-244.09C49.28,-236.77 27.91,-224.99 15.21,-206 7.8,-194.92 9.06,-187.83 15.21,-176 44.72,-119.22 117.64,-88.5 161.07,-74.7"/>
<polygon fill="#63b8ff" stroke="#63b8ff" points="162.37,-77.97 170.91,-71.7 160.33,-71.27 162.37,-77.97"/>
</a>
</g>
</g>
<!-- Node18&#45;&gt;Node17 -->
<g id="edge27_Node000018_Node000017" class="edge">
<title>Node18&#45;&gt;Node17</title>
<g id="a_edge27_Node000018_Node000017"><a xlink:title=" ">
<path fill="none" stroke="#63b8ff" d="M201.82,-244.56C270.75,-232.54 378.17,-213.8 444.42,-202.25"/>
<polygon fill="#63b8ff" stroke="#63b8ff" points="445.04,-205.7 454.29,-200.53 443.84,-198.8 445.04,-205.7"/>
</a>
</g>
</g>
<!-- Node19 -->
<g id="Node000019" class="node">
<title>Node19</title>
<g id="a_Node000019"><a xlink:href="Vec__fwd_8hpp.html" target="_top" xlink:title="Declaration of Vec.">
<polygon fill="white" stroke="#666666" points="664.71,-140 537.71,-140 537.71,-110 664.71,-110 664.71,-140"/>
<text text-anchor="start" x="545.71" y="-128" font-family="Helvetica,sans-Serif" font-size="10.00">medusa/bits/types/Vec</text>
<text text-anchor="middle" x="601.21" y="-117" font-family="Helvetica,sans-Serif" font-size="10.00">_fwd.hpp</text>
</a>
</g>
</g>
<!-- Node18&#45;&gt;Node19 -->
<g id="edge28_Node000018_Node000019" class="edge">
<title>Node18&#45;&gt;Node19</title>
<g id="a_edge28_Node000018_Node000019"><a xlink:title=" ">
<path fill="none" stroke="#63b8ff" d="M202.02,-253.56C323.2,-248.4 571.7,-234.44 598.21,-206 611.78,-191.43 611.1,-168.12 607.87,-150.4"/>
<polygon fill="#63b8ff" stroke="#63b8ff" points="611.2,-149.24 605.64,-140.23 604.36,-150.75 611.2,-149.24"/>
</a>
</g>
</g>
<!-- Node21 -->
<g id="Node000021" class="node">
<title>Node21</title>
<g id="a_Node000021"><a xlink:title=" ">
<polygon fill="#e0e0e0" stroke="#999999" points="164.71,-200.5 107.71,-200.5 107.71,-181.5 164.71,-181.5 164.71,-200.5"/>
<text text-anchor="middle" x="136.21" y="-188.5" font-family="Helvetica,sans-Serif" font-size="10.00">ostream</text>
</a>
</g>
</g>
<!-- Node18&#45;&gt;Node21 -->
<g id="edge33_Node000018_Node000021" class="edge">
<title>Node18&#45;&gt;Node21</title>
<g id="a_edge33_Node000018_Node000021"><a xlink:title=" ">
<path fill="none" stroke="#63b8ff" d="M136.21,-241.8C136.21,-232.7 136.21,-220.79 136.21,-210.9"/>
<polygon fill="#63b8ff" stroke="#63b8ff" points="139.71,-210.84 136.21,-200.84 132.71,-210.84 139.71,-210.84"/>
</a>
</g>
</g>
<!-- Node22 -->
<g id="Node000022" class="node">
<title>Node22</title>
<g id="a_Node000022"><a xlink:title=" ">
<polygon fill="#e0e0e0" stroke="#999999" points="89.71,-200.5 24.71,-200.5 24.71,-181.5 89.71,-181.5 89.71,-200.5"/>
<text text-anchor="middle" x="57.21" y="-188.5" font-family="Helvetica,sans-Serif" font-size="10.00">functional</text>
</a>
</g>
</g>
<!-- Node18&#45;&gt;Node22 -->
<g id="edge34_Node000018_Node000022" class="edge">
<title>Node18&#45;&gt;Node22</title>
<g id="a_edge34_Node000018_Node000022"><a xlink:title=" ">
<path fill="none" stroke="#63b8ff" d="M118.67,-241.8C106,-231.53 88.89,-217.67 75.94,-207.18"/>
<polygon fill="#63b8ff" stroke="#63b8ff" points="78.1,-204.42 68.12,-200.84 73.69,-209.86 78.1,-204.42"/>
</a>
</g>
</g>
<!-- Node19&#45;&gt;Node3 -->
<g id="edge29_Node000019_Node000003" class="edge">
<title>Node19&#45;&gt;Node3</title>
<g id="a_edge29_Node000019_Node000003"><a xlink:title=" ">
<path fill="none" stroke="#63b8ff" d="M632.35,-109.99C653.74,-100.36 681.94,-87.67 702.74,-78.31"/>
<polygon fill="#63b8ff" stroke="#63b8ff" points="704.33,-81.43 712.01,-74.14 701.45,-75.05 704.33,-81.43"/>
</a>
</g>
</g>
<!-- Node20 -->
<g id="Node000020" class="node">
<title>Node20</title>
<g id="a_Node000020"><a xlink:title=" ">
<polygon fill="#e0e0e0" stroke="#999999" points="959.71,-74 890.71,-74 890.71,-55 959.71,-55 959.71,-74"/>
<text text-anchor="middle" x="925.21" y="-62" font-family="Helvetica,sans-Serif" font-size="10.00">Eigen/Core</text>
</a>
</g>
</g>
<!-- Node19&#45;&gt;Node20 -->
<g id="edge30_Node000019_Node000020" class="edge">
<title>Node19&#45;&gt;Node20</title>
<g id="a_edge30_Node000019_Node000020"><a xlink:title=" ">
<path fill="none" stroke="#63b8ff" d="M664.83,-112.51C728.5,-101.02 824.81,-83.63 880.71,-73.53"/>
<polygon fill="#63b8ff" stroke="#63b8ff" points="881.44,-76.96 890.66,-71.74 880.2,-70.07 881.44,-76.96"/>
</a>
</g>
</g>
<!-- Node23&#45;&gt;Node12 -->
<g id="edge37_Node000023_Node000012" class="edge">
<title>Node23&#45;&gt;Node12</title>
<g id="a_edge37_Node000023_Node000012"><a xlink:title=" ">
<path fill="none" stroke="#63b8ff" d="M865.27,-385.49C993.4,-379.89 1279.99,-364.75 1374.21,-338 1450.31,-316.39 1533.21,-337.11 1533.21,-258 1533.21,-258 1533.21,-258 1533.21,-124 1533.21,-90.37 1527.08,-51.55 1522.93,-29.14"/>
<polygon fill="#63b8ff" stroke="#63b8ff" points="1526.36,-28.44 1521.04,-19.28 1519.49,-29.77 1526.36,-28.44"/>
</a>
</g>
</g>
<!-- Node23&#45;&gt;Node24 -->
<g id="edge36_Node000023_Node000024" class="edge">
<title>Node23&#45;&gt;Node24</title>
<g id="a_edge36_Node000023_Node000024"><a xlink:title=" ">
<path fill="none" stroke="#63b8ff" d="M767.31,-373.95C739.43,-362.73 700.72,-347.15 673.98,-336.39"/>
<polygon fill="#63b8ff" stroke="#63b8ff" points="674.95,-333 664.37,-332.52 672.34,-339.5 674.95,-333"/>
</a>
</g>
</g>
<!-- Node25 -->
<g id="Node000025" class="node">
<title>Node25</title>
<g id="a_Node000025"><a xlink:href="bits_2approximations_2Operators_8hpp.html" target="_top" xlink:title="Implementations of differential operator families.">
<polygon fill="white" stroke="#666666" points="915.21,-338 759.21,-338 759.21,-308 915.21,-308 915.21,-338"/>
<text text-anchor="start" x="767.21" y="-326" font-family="Helvetica,sans-Serif" font-size="10.00">medusa/bits/approximations</text>
<text text-anchor="middle" x="837.21" y="-315" font-family="Helvetica,sans-Serif" font-size="10.00">/Operators.hpp</text>
</a>
</g>
</g>
<!-- Node23&#45;&gt;Node25 -->
<g id="edge38_Node000023_Node000025" class="edge">
<title>Node23&#45;&gt;Node25</title>
<g id="a_edge38_Node000023_Node000025"><a xlink:title=" ">
<path fill="none" stroke="#63b8ff" d="M809.98,-373.8C814.28,-365.92 819.74,-355.95 824.63,-346.99"/>
<polygon fill="#63b8ff" stroke="#63b8ff" points="827.73,-348.62 829.46,-338.16 821.59,-345.26 827.73,-348.62"/>
</a>
</g>
</g>
<!-- Node26 -->
<g id="Node000026" class="node">
<title>Node26</title>
<g id="a_Node000026"><a xlink:href="Operators__fwd_8hpp.html" target="_top" xlink:title="File defining basic differential operator families.">
<polygon fill="white" stroke="#666666" points="1029.21,-200.5 921.21,-200.5 921.21,-181.5 1029.21,-181.5 1029.21,-200.5"/>
<text text-anchor="middle" x="975.21" y="-188.5" font-family="Helvetica,sans-Serif" font-size="10.00">Operators_fwd.hpp</text>
</a>
</g>
</g>
<!-- Node25&#45;&gt;Node26 -->
<g id="edge39_Node000025_Node000026" class="edge">
<title>Node25&#45;&gt;Node26</title>
<g id="a_edge39_Node000025_Node000026"><a xlink:title=" ">
<path fill="none" stroke="#63b8ff" d="M852.24,-307.84C878.19,-283.39 931.24,-233.42 958.39,-207.85"/>
<polygon fill="#63b8ff" stroke="#63b8ff" points="961.04,-210.15 965.92,-200.75 956.24,-205.06 961.04,-210.15"/>
</a>
</g>
</g>
<!-- Node27 -->
<g id="Node000027" class="node">
<title>Node27</title>
<g id="a_Node000027"><a xlink:href="Monomials__fwd_8hpp.html" target="_top" xlink:title="Declaration of Monomial basis.">
<polygon fill="white" stroke="#666666" points="987.21,-134.5 873.21,-134.5 873.21,-115.5 987.21,-115.5 987.21,-134.5"/>
<text text-anchor="middle" x="930.21" y="-122.5" font-family="Helvetica,sans-Serif" font-size="10.00">Monomials_fwd.hpp</text>
</a>
</g>
</g>
<!-- Node25&#45;&gt;Node27 -->
<g id="edge51_Node000025_Node000027" class="edge">
<title>Node25&#45;&gt;Node27</title>
<g id="a_edge51_Node000025_Node000027"><a xlink:title=" ">
<path fill="none" stroke="#63b8ff" d="M843.9,-307.9C860.42,-273.08 903.15,-183.02 921.56,-144.22"/>
<polygon fill="#63b8ff" stroke="#63b8ff" points="924.94,-145.26 926.07,-134.73 918.62,-142.26 924.94,-145.26"/>
</a>
</g>
</g>
<!-- Node29 -->
<g id="Node000029" class="node">
<title>Node29</title>
<g id="a_Node000029"><a xlink:href="RBFBasis__fwd_8hpp.html" target="_top" xlink:title="Declaration of RBF basis.">
<polygon fill="white" stroke="#666666" points="827.21,-266.5 721.21,-266.5 721.21,-247.5 827.21,-247.5 827.21,-266.5"/>
<text text-anchor="middle" x="774.21" y="-254.5" font-family="Helvetica,sans-Serif" font-size="10.00">RBFBasis_fwd.hpp</text>
</a>
</g>
</g>
<!-- Node25&#45;&gt;Node29 -->
<g id="edge52_Node000025_Node000029" class="edge">
<title>Node25&#45;&gt;Node29</title>
<g id="a_edge52_Node000025_Node000029"><a xlink:title=" ">
<path fill="none" stroke="#63b8ff" d="M823.23,-307.8C813.4,-297.82 800.25,-284.46 790.04,-274.09"/>
<polygon fill="#63b8ff" stroke="#63b8ff" points="792.42,-271.52 782.91,-266.84 787.43,-276.43 792.42,-271.52"/>
</a>
</g>
</g>
<!-- Node26&#45;&gt;Node3 -->
<g id="edge40_Node000026_Node000003" class="edge">
<title>Node26&#45;&gt;Node3</title>
<g id="a_edge40_Node000026_Node000003"><a xlink:title=" ">
<path fill="none" stroke="#63b8ff" d="M952.92,-181.39C930.08,-172.24 893.8,-156.8 864.21,-140 843.94,-128.5 841.26,-121.86 821.21,-110 801.33,-98.24 777.93,-86.74 759.97,-78.37"/>
<polygon fill="#63b8ff" stroke="#63b8ff" points="761.16,-75.07 750.61,-74.07 758.23,-81.43 761.16,-75.07"/>
</a>
</g>
</g>
<!-- Node26&#45;&gt;Node4 -->
<g id="edge42_Node000026_Node000004" class="edge">
<title>Node26&#45;&gt;Node4</title>
<g id="a_edge42_Node000026_Node000004"><a xlink:title=" ">
<path fill="none" stroke="#63b8ff" d="M982.94,-181.36C991.15,-171.81 1004.04,-155.71 1012.21,-140 1031.54,-102.82 1043.79,-54.86 1049.47,-29"/>
<polygon fill="#63b8ff" stroke="#63b8ff" points="1052.93,-29.58 1051.57,-19.08 1046.08,-28.14 1052.93,-29.58"/>
</a>
</g>
</g>
<!-- Node26&#45;&gt;Node6 -->
<g id="edge50_Node000026_Node000006" class="edge">
<title>Node26&#45;&gt;Node6</title>
<g id="a_edge50_Node000026_Node000006"><a xlink:title=" ">
<path fill="none" stroke="#63b8ff" d="M1029.62,-181.57C1105.35,-169.83 1242.3,-148.61 1323.27,-136.06"/>
<polygon fill="#63b8ff" stroke="#63b8ff" points="1323.99,-139.49 1333.34,-134.5 1322.92,-132.58 1323.99,-139.49"/>
</a>
</g>
</g>
<!-- Node26&#45;&gt;Node10 -->
<g id="edge41_Node000026_Node000010" class="edge">
<title>Node26&#45;&gt;Node10</title>
<g id="a_edge41_Node000026_Node000010"><a xlink:title=" ">
<path fill="none" stroke="#63b8ff" d="M1014.18,-181.48C1071.87,-168.72 1173.93,-145.55 1180.21,-140 1188.9,-132.31 1212.36,-62.54 1223.36,-28.72"/>
<polygon fill="#63b8ff" stroke="#63b8ff" points="1226.72,-29.72 1226.46,-19.13 1220.06,-27.56 1226.72,-29.72"/>
</a>
</g>
</g>
<!-- Node26&#45;&gt;Node20 -->
<g id="edge43_Node000026_Node000020" class="edge">
<title>Node26&#45;&gt;Node20</title>
<g id="a_edge43_Node000026_Node000020"><a xlink:title=" ">
<path fill="none" stroke="#63b8ff" d="M981.63,-181.06C991.83,-165.69 1009.28,-133.62 996.21,-110 988.37,-95.83 973.92,-85.57 960.1,-78.5"/>
<polygon fill="#63b8ff" stroke="#63b8ff" points="961.25,-75.18 950.71,-74.1 958.28,-81.52 961.25,-75.18"/>
</a>
</g>
</g>
<!-- Node26&#45;&gt;Node27 -->
<g id="edge44_Node000026_Node000027" class="edge">
<title>Node26&#45;&gt;Node27</title>
<g id="a_edge44_Node000026_Node000027"><a xlink:title=" ">
<path fill="none" stroke="#63b8ff" d="M969.14,-181.37C962.33,-171.69 951.12,-155.74 942.47,-143.44"/>
<polygon fill="#63b8ff" stroke="#63b8ff" points="945.08,-141.07 936.47,-134.91 939.36,-145.1 945.08,-141.07"/>
</a>
</g>
</g>
<!-- Node27&#45;&gt;Node3 -->
<g id="edge45_Node000027_Node000003" class="edge">
<title>Node27&#45;&gt;Node3</title>
<g id="a_edge45_Node000027_Node000003"><a xlink:title=" ">
<path fill="none" stroke="#63b8ff" d="M901.27,-115.49C866.64,-105.31 808.5,-88.22 770,-76.9"/>
<polygon fill="#63b8ff" stroke="#63b8ff" points="770.76,-73.48 760.18,-74.02 768.79,-80.2 770.76,-73.48"/>
</a>
</g>
</g>
<!-- Node27&#45;&gt;Node10 -->
<g id="edge47_Node000027_Node000010" class="edge">
<title>Node27&#45;&gt;Node10</title>
<g id="a_edge47_Node000027_Node000010"><a xlink:title=" ">
<path fill="none" stroke="#63b8ff" d="M916.74,-115.48C897.03,-101.98 864.47,-75.16 882.21,-55 902.94,-31.44 1116.45,-16.91 1197.89,-12.19"/>
<polygon fill="#63b8ff" stroke="#63b8ff" points="1198.24,-15.68 1208.03,-11.62 1197.84,-8.69 1198.24,-15.68"/>
</a>
</g>
</g>
<!-- Node27&#45;&gt;Node15 -->
<g id="edge49_Node000027_Node000015" class="edge">
<title>Node27&#45;&gt;Node15</title>
<g id="a_edge49_Node000027_Node000015"><a xlink:title=" ">
<path fill="none" stroke="#63b8ff" d="M873.14,-119.46C727.6,-107.87 345.81,-77.49 229.4,-68.22"/>
<polygon fill="#63b8ff" stroke="#63b8ff" points="229.53,-64.72 219.29,-67.42 228.98,-71.7 229.53,-64.72"/>
</a>
</g>
</g>
<!-- Node27&#45;&gt;Node20 -->
<g id="edge48_Node000027_Node000020" class="edge">
<title>Node27&#45;&gt;Node20</title>
<g id="a_edge48_Node000027_Node000020"><a xlink:title=" ">
<path fill="none" stroke="#63b8ff" d="M929.47,-115.37C928.78,-107.25 927.71,-94.81 926.82,-84.39"/>
<polygon fill="#63b8ff" stroke="#63b8ff" points="930.29,-83.83 925.95,-74.17 923.31,-84.43 930.29,-83.83"/>
</a>
</g>
</g>
<!-- Node28 -->
<g id="Node000028" class="node">
<title>Node28</title>
<g id="a_Node000028"><a xlink:title=" ">
<polygon fill="#e0e0e0" stroke="#999999" points="1024.71,-74 977.71,-74 977.71,-55 1024.71,-55 1024.71,-74"/>
<text text-anchor="middle" x="1001.21" y="-62" font-family="Helvetica,sans-Serif" font-size="10.00">cmath</text>
</a>
</g>
</g>
<!-- Node27&#45;&gt;Node28 -->
<g id="edge46_Node000027_Node000028" class="edge">
<title>Node27&#45;&gt;Node28</title>
<g id="a_edge46_Node000027_Node000028"><a xlink:title=" ">
<path fill="none" stroke="#63b8ff" d="M940.68,-115.37C951.7,-106.3 969.24,-91.84 982.61,-80.82"/>
<polygon fill="#63b8ff" stroke="#63b8ff" points="985.2,-83.23 990.69,-74.17 980.74,-77.83 985.2,-83.23"/>
</a>
</g>
</g>
<!-- Node29&#45;&gt;Node3 -->
<g id="edge53_Node000029_Node000003" class="edge">
<title>Node29&#45;&gt;Node3</title>
<g id="a_edge53_Node000029_Node000003"><a xlink:title=" ">
<path fill="none" stroke="#63b8ff" d="M772.83,-247.37C769.14,-224.68 758.4,-161.57 745.21,-110 743,-101.37 740.1,-91.94 737.52,-83.99"/>
<polygon fill="#63b8ff" stroke="#63b8ff" points="740.77,-82.66 734.28,-74.28 734.13,-84.88 740.77,-82.66"/>
</a>
</g>
</g>
<!-- Node29&#45;&gt;Node10 -->
<g id="edge55_Node000029_Node000010" class="edge">
<title>Node29&#45;&gt;Node10</title>
<g id="a_edge55_Node000029_Node000010"><a xlink:title=" ">
<path fill="none" stroke="#63b8ff" d="M827.29,-249.13C881.13,-241.42 966.51,-227.16 1038.21,-206 1042.87,-204.62 1197.06,-143.7 1200.21,-140 1227.08,-108.34 1230.49,-57.06 1230.15,-29.49"/>
<polygon fill="#63b8ff" stroke="#63b8ff" points="1233.64,-29.14 1229.84,-19.25 1226.65,-29.35 1233.64,-29.14"/>
</a>
</g>
</g>
<!-- Node29&#45;&gt;Node15 -->
<g id="edge54_Node000029_Node000015" class="edge">
<title>Node29&#45;&gt;Node15</title>
<g id="a_edge54_Node000029_Node000015"><a xlink:title=" ">
<path fill="none" stroke="#63b8ff" d="M721.03,-255.27C605.08,-252.98 333.23,-243.63 250.21,-206 211.26,-188.35 197.15,-179.26 180.21,-140 172.31,-121.69 178.96,-99.04 185.74,-83.55"/>
<polygon fill="#63b8ff" stroke="#63b8ff" points="189.1,-84.64 190.28,-74.11 182.79,-81.61 189.1,-84.64"/>
</a>
</g>
</g>
<!-- Node29&#45;&gt;Node26 -->
<g id="edge56_Node000029_Node000026" class="edge">
<title>Node29&#45;&gt;Node26</title>
<g id="a_edge56_Node000029_Node000026"><a xlink:title=" ">
<path fill="none" stroke="#63b8ff" d="M801.32,-247.37C836.78,-236.08 899.05,-216.25 938.66,-203.64"/>
<polygon fill="#63b8ff" stroke="#63b8ff" points="939.74,-206.97 948.21,-200.6 937.62,-200.3 939.74,-206.97"/>
</a>
</g>
</g>
<!-- Node30&#45;&gt;Node6 -->
<g id="edge69_Node000030_Node000006" class="edge">
<title>Node30&#45;&gt;Node6</title>
<g id="a_edge69_Node000030_Node000006"><a xlink:title=" ">
<path fill="none" stroke="#63b8ff" d="M1296.33,-307.9C1313.99,-272.93 1359.8,-182.25 1379.25,-143.73"/>
<polygon fill="#63b8ff" stroke="#63b8ff" points="1382.42,-145.23 1383.8,-134.73 1376.17,-142.07 1382.42,-145.23"/>
</a>
</g>
</g>
<!-- Node30&#45;&gt;Node28 -->
<g id="edge70_Node000030_Node000028" class="edge">
<title>Node30&#45;&gt;Node28</title>
<g id="a_edge70_Node000030_Node000028"><a xlink:title=" ">
<path fill="none" stroke="#63b8ff" d="M1290.84,-307.97C1293.34,-280.52 1295.44,-218.69 1270.21,-176 1221.14,-92.97 1095.51,-72.32 1034.91,-67.19"/>
<polygon fill="#63b8ff" stroke="#63b8ff" points="1034.96,-63.69 1024.73,-66.43 1034.44,-70.67 1034.96,-63.69"/>
</a>
</g>
</g>
<!-- Node31 -->
<g id="Node000031" class="node">
<title>Node31</title>
<g id="a_Node000031"><a xlink:href="KDTreeMutable__fwd_8hpp.html" target="_top" xlink:title="Declaration of KDTreeMutable.">
<polygon fill="white" stroke="#666666" points="1162.21,-266.5 1028.21,-266.5 1028.21,-247.5 1162.21,-247.5 1162.21,-266.5"/>
<text text-anchor="middle" x="1095.21" y="-254.5" font-family="Helvetica,sans-Serif" font-size="10.00">KDTreeMutable_fwd.hpp</text>
</a>
</g>
</g>
<!-- Node30&#45;&gt;Node31 -->
<g id="edge61_Node000030_Node000031" class="edge">
<title>Node30&#45;&gt;Node31</title>
<g id="a_edge61_Node000030_Node000031"><a xlink:title=" ">
<path fill="none" stroke="#63b8ff" d="M1246.63,-307.95C1211.86,-296.48 1163.29,-280.46 1130.62,-269.68"/>
<polygon fill="#63b8ff" stroke="#63b8ff" points="1131.62,-266.33 1121.03,-266.52 1129.43,-272.97 1131.62,-266.33"/>
</a>
</g>
</g>
<!-- Node31&#45;&gt;Node3 -->
<g id="edge62_Node000031_Node000003" class="edge">
<title>Node31&#45;&gt;Node3</title>
<g id="a_edge62_Node000031_Node000003"><a xlink:title=" ">
<path fill="none" stroke="#63b8ff" d="M1045.33,-247.44C1007.53,-239.76 954.97,-226.51 912.21,-206 867.16,-184.4 860.69,-170.61 821.21,-140 795.72,-120.24 767.18,-96.29 749.21,-80.98"/>
<polygon fill="#63b8ff" stroke="#63b8ff" points="751.17,-78.05 741.29,-74.21 746.62,-83.37 751.17,-78.05"/>
</a>
</g>
</g>
<!-- Node31&#45;&gt;Node5 -->
<g id="edge63_Node000031_Node000005" class="edge">
<title>Node31&#45;&gt;Node5</title>
<g id="a_edge63_Node000031_Node000005"><a xlink:title=" ">
<path fill="none" stroke="#63b8ff" d="M1028,-251.99C883.21,-243.22 544.65,-221.91 409.5,-206.05"/>
<polygon fill="#63b8ff" stroke="#63b8ff" points="409.71,-202.55 399.36,-204.82 408.87,-209.5 409.71,-202.55"/>
</a>
</g>
</g>
<!-- Node31&#45;&gt;Node10 -->
<g id="edge65_Node000031_Node000010" class="edge">
<title>Node31&#45;&gt;Node10</title>
<g id="a_edge65_Node000031_Node000010"><a xlink:title=" ">
<path fill="none" stroke="#63b8ff" d="M1149.43,-247.48C1244.78,-231.26 1436.12,-192.81 1475.21,-140 1497.69,-109.63 1500.44,-83.99 1476.21,-55 1449.05,-22.52 1320.79,-13.71 1260.57,-11.35"/>
<polygon fill="#63b8ff" stroke="#63b8ff" points="1260.62,-7.85 1250.5,-10.99 1260.37,-14.84 1260.62,-7.85"/>
</a>
</g>
</g>
<!-- Node31&#45;&gt;Node15 -->
<g id="edge66_Node000031_Node000015" class="edge">
<title>Node31&#45;&gt;Node15</title>
<g id="a_edge66_Node000031_Node000015"><a xlink:title=" ">
<path fill="none" stroke="#63b8ff" d="M1037.38,-247.47C934.06,-231.5 711.52,-193.78 529.21,-140 493.98,-129.61 487.59,-119.85 452.21,-110 373.97,-88.22 279.22,-75.12 229.5,-69.22"/>
<polygon fill="#63b8ff" stroke="#63b8ff" points="229.64,-65.72 219.3,-68.04 228.83,-72.67 229.64,-65.72"/>
</a>
</g>
</g>
<!-- Node32 -->
<g id="Node000032" class="node">
<title>Node32</title>
<g id="a_Node000032"><a xlink:title=" ">
<polygon fill="#e0e0e0" stroke="#999999" points="1260.71,-200.5 1123.71,-200.5 1123.71,-181.5 1260.71,-181.5 1260.71,-200.5"/>
<text text-anchor="middle" x="1192.21" y="-188.5" font-family="Helvetica,sans-Serif" font-size="10.00">nanoflann/nanoflann.hpp</text>
</a>
</g>
</g>
<!-- Node31&#45;&gt;Node32 -->
<g id="edge64_Node000031_Node000032" class="edge">
<title>Node31&#45;&gt;Node32</title>
<g id="a_edge64_Node000031_Node000032"><a xlink:title=" ">
<path fill="none" stroke="#63b8ff" d="M1108.29,-247.37C1124.27,-236.82 1151.54,-218.84 1170.64,-206.23"/>
<polygon fill="#63b8ff" stroke="#63b8ff" points="1172.6,-209.13 1179.02,-200.7 1168.75,-203.28 1172.6,-209.13"/>
</a>
</g>
</g>
<!-- Node33 -->
<g id="Node000033" class="node">
<title>Node33</title>
<g id="a_Node000033"><a xlink:href="PointCloud_8hpp.html" target="_top" xlink:title="Implementation of KDTree storage class.">
<polygon fill="white" stroke="#666666" points="1171.21,-134.5 1081.21,-134.5 1081.21,-115.5 1171.21,-115.5 1171.21,-134.5"/>
<text text-anchor="middle" x="1126.21" y="-122.5" font-family="Helvetica,sans-Serif" font-size="10.00">PointCloud.hpp</text>
</a>
</g>
</g>
<!-- Node31&#45;&gt;Node33 -->
<g id="edge67_Node000031_Node000033" class="edge">
<title>Node31&#45;&gt;Node33</title>
<g id="a_edge67_Node000031_Node000033"><a xlink:title=" ">
<path fill="none" stroke="#63b8ff" d="M1097.24,-247.47C1102.19,-226.73 1114.94,-173.24 1121.76,-144.66"/>
<polygon fill="#63b8ff" stroke="#63b8ff" points="1125.21,-145.27 1124.13,-134.73 1118.4,-143.65 1125.21,-145.27"/>
</a>
</g>
</g>
<!-- Node33&#45;&gt;Node4 -->
<g id="edge68_Node000033_Node000004" class="edge">
<title>Node33&#45;&gt;Node4</title>
<g id="a_edge68_Node000033_Node000004"><a xlink:title=" ">
<path fill="none" stroke="#63b8ff" d="M1120.72,-115.47C1108.78,-96.9 1080.23,-52.51 1064.34,-27.82"/>
<polygon fill="#63b8ff" stroke="#63b8ff" points="1067.11,-25.65 1058.76,-19.13 1061.22,-29.43 1067.11,-25.65"/>
</a>
</g>
</g>
<!-- Node34&#45;&gt;Node5 -->
<g id="edge72_Node000034_Node000005" class="edge">
<title>Node34&#45;&gt;Node5</title>
<g id="a_edge72_Node000034_Node000005"><a xlink:title=" ">
<path fill="none" stroke="#63b8ff" d="M351.28,-505.8C341.38,-497.77 328.01,-484.87 322.21,-470 287.77,-381.8 310.2,-265.59 322.58,-216.04"/>
<polygon fill="#63b8ff" stroke="#63b8ff" points="326,-216.81 325.12,-206.25 319.22,-215.06 326,-216.81"/>
</a>
</g>
</g>
<!-- Node35 -->
<g id="Node000035" class="node">
<title>Node35</title>
<g id="a_Node000035"><a xlink:title=" ">
<polygon fill="#e0e0e0" stroke="#999999" points="395.21,-464.5 331.21,-464.5 331.21,-445.5 395.21,-445.5 395.21,-464.5"/>
<text text-anchor="middle" x="363.21" y="-452.5" font-family="Helvetica,sans-Serif" font-size="10.00">algorithm</text>
</a>
</g>
</g>
<!-- Node34&#45;&gt;Node35 -->
<g id="edge73_Node000034_Node000035" class="edge">
<title>Node34&#45;&gt;Node35</title>
<g id="a_edge73_Node000034_Node000035"><a xlink:title=" ">
<path fill="none" stroke="#63b8ff" d="M363.21,-505.87C363.21,-497.75 363.21,-485.31 363.21,-474.89"/>
<polygon fill="#63b8ff" stroke="#63b8ff" points="366.71,-474.67 363.21,-464.67 359.71,-474.67 366.71,-474.67"/>
</a>
</g>
</g>
</g>
</svg>
