<?xml version="1.0" encoding="UTF-8" standalone="no"?>
<!DOCTYPE svg PUBLIC "-//W3C//DTD SVG 1.1//EN"
 "http://www.w3.org/Graphics/SVG/1.1/DTD/svg11.dtd">
<!-- Generated by graphviz version 2.43.0 (0)
 -->
<!-- Title: include/medusa/bits/domains/HalfLinksRefine_fwd.hpp Pages: 1 -->
<svg width="512pt" height="236pt"
 viewBox="0.00 0.00 512.00 236.00" xmlns="http://www.w3.org/2000/svg" xmlns:xlink="http://www.w3.org/1999/xlink">
<g id="graph0" class="graph" transform="scale(1 1) rotate(0) translate(4 232)">
<title>include/medusa/bits/domains/HalfLinksRefine_fwd.hpp</title>
<!-- Node1 -->
<g id="Node000001" class="node">
<title>Node1</title>
<g id="a_Node000001"><a xlink:title="Declaration of the half&#45;link refinement algorithm.">
<polygon fill="#999999" stroke="#666666" points="395.5,-228 254.5,-228 254.5,-187 395.5,-187 395.5,-228"/>
<text text-anchor="start" x="262.5" y="-216" font-family="Helvetica,sans-Serif" font-size="10.00">include/medusa/bits</text>
<text text-anchor="start" x="262.5" y="-205" font-family="Helvetica,sans-Serif" font-size="10.00">/domains/HalfLinksRefine</text>
<text text-anchor="middle" x="325" y="-194" font-family="Helvetica,sans-Serif" font-size="10.00">_fwd.hpp</text>
</a>
</g>
</g>
<!-- Node2 -->
<g id="Node000002" class="node">
<title>Node2</title>
<g id="a_Node000002"><a xlink:href="Domain__fwd_8hpp.html" target="_top" xlink:title="Header for Domain module, declarations only.">
<polygon fill="white" stroke="#666666" points="309.5,-151 174.5,-151 174.5,-121 309.5,-121 309.5,-151"/>
<text text-anchor="start" x="182.5" y="-139" font-family="Helvetica,sans-Serif" font-size="10.00">include/medusa/Domain</text>
<text text-anchor="middle" x="242" y="-128" font-family="Helvetica,sans-Serif" font-size="10.00">_fwd.hpp</text>
</a>
</g>
</g>
<!-- Node1&#45;&gt;Node2 -->
<g id="edge1_Node000001_Node000002" class="edge">
<title>Node1&#45;&gt;Node2</title>
<g id="a_edge1_Node000001_Node000002"><a xlink:title=" ">
<path fill="none" stroke="#63b8ff" d="M293.5,-180.12C281.69,-170.23 268.73,-159.38 258.77,-151.04"/>
<polygon fill="#63b8ff" stroke="#63b8ff" points="291.52,-183.03 301.44,-186.77 296.02,-177.67 291.52,-183.03"/>
</a>
</g>
</g>
<!-- Node6 -->
<g id="Node000006" class="node">
<title>Node6</title>
<g id="a_Node000006"><a xlink:href="HalfLinksRefine_8hpp.html" target="_top" xlink:title="Implementation of the half&#45;link refinement algorithm.">
<polygon fill="white" stroke="#666666" points="493,-151 331,-151 331,-121 493,-121 493,-151"/>
<text text-anchor="start" x="339" y="-139" font-family="Helvetica,sans-Serif" font-size="10.00">include/medusa/bits</text>
<text text-anchor="middle" x="412" y="-128" font-family="Helvetica,sans-Serif" font-size="10.00">/domains/HalfLinksRefine.hpp</text>
</a>
</g>
</g>
<!-- Node1&#45;&gt;Node6 -->
<g id="edge6_Node000001_Node000006" class="edge">
<title>Node1&#45;&gt;Node6</title>
<g id="a_edge6_Node000001_Node000006"><a xlink:title=" ">
<path fill="none" stroke="#63b8ff" d="M357.67,-180.41C370.14,-170.44 383.88,-159.46 394.43,-151.04"/>
<polygon fill="#63b8ff" stroke="#63b8ff" points="355.33,-177.79 349.7,-186.77 359.7,-183.26 355.33,-177.79"/>
</a>
</g>
</g>
<!-- Node3 -->
<g id="Node000003" class="node">
<title>Node3</title>
<g id="a_Node000003"><a xlink:href="Domain_8hpp.html" target="_top" xlink:title="Header for Domain module.">
<polygon fill="white" stroke="#666666" points="156,-79.5 0,-79.5 0,-60.5 156,-60.5 156,-79.5"/>
<text text-anchor="middle" x="78" y="-67.5" font-family="Helvetica,sans-Serif" font-size="10.00">include/medusa/Domain.hpp</text>
</a>
</g>
</g>
<!-- Node2&#45;&gt;Node3 -->
<g id="edge2_Node000002_Node000003" class="edge">
<title>Node2&#45;&gt;Node3</title>
<g id="a_edge2_Node000002_Node000003"><a xlink:title=" ">
<path fill="none" stroke="#63b8ff" d="M196.54,-117.26C165,-104.95 124.4,-89.11 99.83,-79.52"/>
<polygon fill="#63b8ff" stroke="#63b8ff" points="195.42,-120.58 206.01,-120.95 197.97,-114.06 195.42,-120.58"/>
</a>
</g>
</g>
<!-- Node5 -->
<g id="Node000005" class="node">
<title>Node5</title>
<g id="a_Node000005"><a xlink:href="Medusa__fwd_8hpp.html" target="_top" xlink:title="Main header file that includes only declarations for some heavy classes such as mm::WLS to reduce com...">
<polygon fill="white" stroke="#666666" points="309.5,-85 174.5,-85 174.5,-55 309.5,-55 309.5,-85"/>
<text text-anchor="start" x="182.5" y="-73" font-family="Helvetica,sans-Serif" font-size="10.00">include/medusa/Medusa</text>
<text text-anchor="middle" x="242" y="-62" font-family="Helvetica,sans-Serif" font-size="10.00">_fwd.hpp</text>
</a>
</g>
</g>
<!-- Node2&#45;&gt;Node5 -->
<g id="edge4_Node000002_Node000005" class="edge">
<title>Node2&#45;&gt;Node5</title>
<g id="a_edge4_Node000002_Node000005"><a xlink:title=" ">
<path fill="none" stroke="#63b8ff" d="M242,-110.54C242,-101.96 242,-92.61 242,-85.16"/>
<polygon fill="#63b8ff" stroke="#63b8ff" points="238.5,-110.8 242,-120.8 245.5,-110.8 238.5,-110.8"/>
</a>
</g>
</g>
<!-- Node4 -->
<g id="Node000004" class="node">
<title>Node4</title>
<g id="a_Node000004"><a xlink:href="Medusa_8hpp.html" target="_top" xlink:title="Main header file that includes most other components.">
<polygon fill="white" stroke="#666666" points="238,-19 82,-19 82,0 238,0 238,-19"/>
<text text-anchor="middle" x="160" y="-7" font-family="Helvetica,sans-Serif" font-size="10.00">include/medusa/Medusa.hpp</text>
</a>
</g>
</g>
<!-- Node3&#45;&gt;Node4 -->
<g id="edge3_Node000003_Node000004" class="edge">
<title>Node3&#45;&gt;Node4</title>
<g id="a_edge3_Node000003_Node000004"><a xlink:title=" ">
<path fill="none" stroke="#63b8ff" d="M98.54,-54.35C114.07,-43.27 134.87,-28.43 147.85,-19.17"/>
<polygon fill="#63b8ff" stroke="#63b8ff" points="96.21,-51.71 90.1,-60.37 100.27,-57.41 96.21,-51.71"/>
</a>
</g>
</g>
<!-- Node5&#45;&gt;Node4 -->
<g id="edge5_Node000005_Node000004" class="edge">
<title>Node5&#45;&gt;Node4</title>
<g id="a_edge5_Node000005_Node000004"><a xlink:title=" ">
<path fill="none" stroke="#63b8ff" d="M213.71,-48.82C199.57,-38.73 183.2,-27.05 172.29,-19.27"/>
<polygon fill="#63b8ff" stroke="#63b8ff" points="211.98,-51.88 222.15,-54.84 216.04,-46.18 211.98,-51.88"/>
</a>
</g>
</g>
<!-- Node7 -->
<g id="Node000007" class="node">
<title>Node7</title>
<g id="a_Node000007"><a xlink:href="HalfLinksRefine_8cpp.html" target="_top" xlink:title="Explicit instantiations for common parameters.">
<polygon fill="white" stroke="#666666" points="504,-79.5 328,-79.5 328,-60.5 504,-60.5 504,-79.5"/>
<text text-anchor="middle" x="416" y="-67.5" font-family="Helvetica,sans-Serif" font-size="10.00">src/domains/HalfLinksRefine.cpp</text>
</a>
</g>
</g>
<!-- Node6&#45;&gt;Node7 -->
<g id="edge7_Node000006_Node000007" class="edge">
<title>Node6&#45;&gt;Node7</title>
<g id="a_edge7_Node000006_Node000007"><a xlink:title=" ">
<path fill="none" stroke="#63b8ff" d="M413.52,-110.6C414.2,-99.8 414.95,-87.78 415.45,-79.84"/>
<polygon fill="#63b8ff" stroke="#63b8ff" points="410.02,-110.6 412.89,-120.8 417,-111.03 410.02,-110.6"/>
</a>
</g>
</g>
</g>
</svg>
