<?xml version="1.0" encoding="UTF-8" standalone="no"?>
<!DOCTYPE svg PUBLIC "-//W3C//DTD SVG 1.1//EN"
 "http://www.w3.org/Graphics/SVG/1.1/DTD/svg11.dtd">
<!-- Generated by graphviz version 2.43.0 (0)
 -->
<!-- Title: include/medusa/bits/io/HDF_fwd.hpp Pages: 1 -->
<svg width="285pt" height="280pt"
 viewBox="0.00 0.00 284.50 280.00" xmlns="http://www.w3.org/2000/svg" xmlns:xlink="http://www.w3.org/1999/xlink">
<g id="graph0" class="graph" transform="scale(1 1) rotate(0) translate(4 276)">
<title>include/medusa/bits/io/HDF_fwd.hpp</title>
<!-- Node1 -->
<g id="Node000001" class="node">
<title>Node1</title>
<g id="a_Node000001"><a xlink:title="Declarations of CSV I/O utilities.">
<polygon fill="#999999" stroke="#666666" points="248,-272 133,-272 133,-242 248,-242 248,-272"/>
<text text-anchor="start" x="141" y="-260" font-family="Helvetica,sans-Serif" font-size="10.00">include/medusa/bits</text>
<text text-anchor="middle" x="190.5" y="-249" font-family="Helvetica,sans-Serif" font-size="10.00">/io/HDF_fwd.hpp</text>
</a>
</g>
</g>
<!-- Node2 -->
<g id="Node000002" class="node">
<title>Node2</title>
<g id="a_Node000002"><a xlink:href="HDF_8hpp.html" target="_top" xlink:title="Implementation of HDF I/O utilities.">
<polygon fill="white" stroke="#666666" points="248,-206 133,-206 133,-176 248,-176 248,-206"/>
<text text-anchor="start" x="141" y="-194" font-family="Helvetica,sans-Serif" font-size="10.00">include/medusa/bits</text>
<text text-anchor="middle" x="190.5" y="-183" font-family="Helvetica,sans-Serif" font-size="10.00">/io/HDF.hpp</text>
</a>
</g>
</g>
<!-- Node1&#45;&gt;Node2 -->
<g id="edge1_Node000001_Node000002" class="edge">
<title>Node1&#45;&gt;Node2</title>
<g id="a_edge1_Node000001_Node000002"><a xlink:title=" ">
<path fill="none" stroke="#63b8ff" d="M190.5,-231.54C190.5,-222.96 190.5,-213.61 190.5,-206.16"/>
<polygon fill="#63b8ff" stroke="#63b8ff" points="187,-231.8 190.5,-241.8 194,-231.8 187,-231.8"/>
</a>
</g>
</g>
<!-- Node6 -->
<g id="Node000006" class="node">
<title>Node6</title>
<g id="a_Node000006"><a xlink:href="HDF_8cpp.html" target="_top" xlink:title="Implementation of HDF I/O utilities.">
<polygon fill="white" stroke="#666666" points="276.5,-140 190.5,-140 190.5,-121 276.5,-121 276.5,-140"/>
<text text-anchor="middle" x="233.5" y="-128" font-family="Helvetica,sans-Serif" font-size="10.00">src/io/HDF.cpp</text>
</a>
</g>
</g>
<!-- Node1&#45;&gt;Node6 -->
<g id="edge9_Node000001_Node000006" class="edge">
<title>Node1&#45;&gt;Node6</title>
<g id="a_edge9_Node000001_Node000006"><a xlink:title=" ">
<path fill="none" stroke="#63b8ff" d="M229.11,-236.32C240.36,-228.52 251.28,-218.41 257.5,-206 268.83,-183.41 251.03,-154.32 240.44,-140.1"/>
<polygon fill="#63b8ff" stroke="#63b8ff" points="227.05,-233.49 220.53,-241.84 230.83,-239.38 227.05,-233.49"/>
</a>
</g>
</g>
<!-- Node7 -->
<g id="Node000007" class="node">
<title>Node7</title>
<g id="a_Node000007"><a xlink:href="HDF__Eigen_8hpp.html" target="_top" xlink:title="Implemetation of HDF IO with Eigen types.">
<polygon fill="white" stroke="#666666" points="115,-206 0,-206 0,-176 115,-176 115,-206"/>
<text text-anchor="start" x="8" y="-194" font-family="Helvetica,sans-Serif" font-size="10.00">include/medusa/bits</text>
<text text-anchor="middle" x="57.5" y="-183" font-family="Helvetica,sans-Serif" font-size="10.00">/io/HDF_Eigen.hpp</text>
</a>
</g>
</g>
<!-- Node1&#45;&gt;Node7 -->
<g id="edge7_Node000001_Node000007" class="edge">
<title>Node1&#45;&gt;Node7</title>
<g id="a_edge7_Node000001_Node000007"><a xlink:title=" ">
<path fill="none" stroke="#63b8ff" d="M152.08,-237.51C131.22,-227.47 105.83,-215.26 86.62,-206.01"/>
<polygon fill="#63b8ff" stroke="#63b8ff" points="150.78,-240.77 161.31,-241.95 153.82,-234.46 150.78,-240.77"/>
</a>
</g>
</g>
<!-- Node3 -->
<g id="Node000003" class="node">
<title>Node3</title>
<g id="a_Node000003"><a xlink:href="IO_8hpp.html" target="_top" xlink:title="Header for IO module.">
<polygon fill="white" stroke="#666666" points="168.5,-140 40.5,-140 40.5,-121 168.5,-121 168.5,-140"/>
<text text-anchor="middle" x="104.5" y="-128" font-family="Helvetica,sans-Serif" font-size="10.00">include/medusa/IO.hpp</text>
</a>
</g>
</g>
<!-- Node2&#45;&gt;Node3 -->
<g id="edge2_Node000002_Node000003" class="edge">
<title>Node2&#45;&gt;Node3</title>
<g id="a_edge2_Node000002_Node000003"><a xlink:title=" ">
<path fill="none" stroke="#63b8ff" d="M161.19,-170.06C146.18,-159.85 128.68,-147.95 117.13,-140.09"/>
<polygon fill="#63b8ff" stroke="#63b8ff" points="159.44,-173.11 169.68,-175.84 163.38,-167.32 159.44,-173.11"/>
</a>
</g>
</g>
<!-- Node2&#45;&gt;Node6 -->
<g id="edge6_Node000002_Node000006" class="edge">
<title>Node2&#45;&gt;Node6</title>
<g id="a_edge6_Node000002_Node000006"><a xlink:title=" ">
<path fill="none" stroke="#63b8ff" d="M207.03,-167.51C214.03,-157.99 221.76,-147.47 227.06,-140.27"/>
<polygon fill="#63b8ff" stroke="#63b8ff" points="204.01,-165.71 200.91,-175.84 209.65,-169.85 204.01,-165.71"/>
</a>
</g>
</g>
<!-- Node4 -->
<g id="Node000004" class="node">
<title>Node4</title>
<g id="a_Node000004"><a xlink:href="Medusa_8hpp.html" target="_top" xlink:title="Main header file that includes most other components.">
<polygon fill="white" stroke="#666666" points="182.5,-19 26.5,-19 26.5,0 182.5,0 182.5,-19"/>
<text text-anchor="middle" x="104.5" y="-7" font-family="Helvetica,sans-Serif" font-size="10.00">include/medusa/Medusa.hpp</text>
</a>
</g>
</g>
<!-- Node3&#45;&gt;Node4 -->
<g id="edge3_Node000003_Node000004" class="edge">
<title>Node3&#45;&gt;Node4</title>
<g id="a_edge3_Node000003_Node000004"><a xlink:title=" ">
<path fill="none" stroke="#63b8ff" d="M90.29,-112.78C84.5,-104.89 78.48,-95.02 75.5,-85 71.7,-72.22 71.7,-67.78 75.5,-55 79.6,-41.21 89.47,-27.7 96.56,-19.25"/>
<polygon fill="#63b8ff" stroke="#63b8ff" points="87.63,-115.05 96.56,-120.75 93.13,-110.72 87.63,-115.05"/>
</a>
</g>
</g>
<!-- Node5 -->
<g id="Node000005" class="node">
<title>Node5</title>
<g id="a_Node000005"><a xlink:href="Medusa__fwd_8hpp.html" target="_top" xlink:title="Main header file that includes only declarations for some heavy classes such as mm::WLS to reduce com...">
<polygon fill="white" stroke="#666666" points="220,-85 85,-85 85,-55 220,-55 220,-85"/>
<text text-anchor="start" x="93" y="-73" font-family="Helvetica,sans-Serif" font-size="10.00">include/medusa/Medusa</text>
<text text-anchor="middle" x="152.5" y="-62" font-family="Helvetica,sans-Serif" font-size="10.00">_fwd.hpp</text>
</a>
</g>
</g>
<!-- Node3&#45;&gt;Node5 -->
<g id="edge4_Node000003_Node000005" class="edge">
<title>Node3&#45;&gt;Node5</title>
<g id="a_edge4_Node000003_Node000005"><a xlink:title=" ">
<path fill="none" stroke="#63b8ff" d="M118.14,-112.88C125.33,-104.11 134.06,-93.48 140.92,-85.11"/>
<polygon fill="#63b8ff" stroke="#63b8ff" points="115.22,-110.92 111.58,-120.87 120.63,-115.36 115.22,-110.92"/>
</a>
</g>
</g>
<!-- Node5&#45;&gt;Node4 -->
<g id="edge5_Node000005_Node000004" class="edge">
<title>Node5&#45;&gt;Node4</title>
<g id="a_edge5_Node000005_Node000004"><a xlink:title=" ">
<path fill="none" stroke="#63b8ff" d="M134.52,-47.09C126.59,-37.42 117.72,-26.61 111.69,-19.27"/>
<polygon fill="#63b8ff" stroke="#63b8ff" points="131.83,-49.33 140.88,-54.84 137.24,-44.89 131.83,-49.33"/>
</a>
</g>
</g>
<!-- Node7&#45;&gt;Node3 -->
<g id="edge8_Node000007_Node000003" class="edge">
<title>Node7&#45;&gt;Node3</title>
<g id="a_edge8_Node000007_Node000003"><a xlink:title=" ">
<path fill="none" stroke="#63b8ff" d="M75.34,-167.8C83.04,-158.21 91.61,-147.54 97.46,-140.27"/>
<polygon fill="#63b8ff" stroke="#63b8ff" points="72.41,-165.85 68.88,-175.84 77.87,-170.24 72.41,-165.85"/>
</a>
</g>
</g>
</g>
</svg>
