<?xml version="1.0" encoding="UTF-8" standalone="no"?>
<!DOCTYPE svg PUBLIC "-//W3C//DTD SVG 1.1//EN"
 "http://www.w3.org/Graphics/SVG/1.1/DTD/svg11.dtd">
<!-- Generated by graphviz version 2.43.0 (0)
 -->
<!-- Title: src/io/HDF.cpp Pages: 1 -->
<svg width="848pt" height="247pt"
 viewBox="0.00 0.00 847.95 247.00" xmlns="http://www.w3.org/2000/svg" xmlns:xlink="http://www.w3.org/1999/xlink">
<g id="graph0" class="graph" transform="scale(1 1) rotate(0) translate(4 243)">
<title>src/io/HDF.cpp</title>
<!-- Node1 -->
<g id="Node000001" class="node">
<title>Node1</title>
<g id="a_Node000001"><a xlink:title="Implementation of HDF I/O utilities.">
<polygon fill="#999999" stroke="#666666" points="521,-239 435,-239 435,-220 521,-220 521,-239"/>
<text text-anchor="middle" x="478" y="-227" font-family="Helvetica,sans-Serif" font-size="10.00">src/io/HDF.cpp</text>
</a>
</g>
</g>
<!-- Node2 -->
<g id="Node000002" class="node">
<title>Node2</title>
<g id="a_Node000002"><a xlink:href="HDF_8hpp.html" target="_top" xlink:title="Implementation of HDF I/O utilities.">
<polygon fill="white" stroke="#666666" points="609,-184 477,-184 477,-165 609,-165 609,-184"/>
<text text-anchor="middle" x="543" y="-172" font-family="Helvetica,sans-Serif" font-size="10.00">medusa/bits/io/HDF.hpp</text>
</a>
</g>
</g>
<!-- Node1&#45;&gt;Node2 -->
<g id="edge1_Node000001_Node000002" class="edge">
<title>Node1&#45;&gt;Node2</title>
<g id="a_edge1_Node000001_Node000002"><a xlink:title=" ">
<path fill="none" stroke="#63b8ff" d="M488.44,-219.98C498.15,-212.07 512.82,-200.11 524.5,-190.58"/>
<polygon fill="#63b8ff" stroke="#63b8ff" points="526.83,-193.2 532.37,-184.17 522.4,-187.78 526.83,-193.2"/>
</a>
</g>
</g>
<!-- Node3 -->
<g id="Node000003" class="node">
<title>Node3</title>
<g id="a_Node000003"><a xlink:href="HDF__fwd_8hpp.html" target="_top" xlink:title="Declarations of CSV I/O utilities.">
<polygon fill="white" stroke="#666666" points="435.5,-129 354.5,-129 354.5,-110 435.5,-110 435.5,-129"/>
<text text-anchor="middle" x="395" y="-117" font-family="Helvetica,sans-Serif" font-size="10.00">HDF_fwd.hpp</text>
</a>
</g>
</g>
<!-- Node1&#45;&gt;Node3 -->
<g id="edge21_Node000001_Node000003" class="edge">
<title>Node1&#45;&gt;Node3</title>
<g id="a_edge21_Node000001_Node000003"><a xlink:title=" ">
<path fill="none" stroke="#63b8ff" d="M471.21,-219.66C457.4,-201.69 425.85,-160.64 407.98,-137.38"/>
<polygon fill="#63b8ff" stroke="#63b8ff" points="410.52,-134.95 401.65,-129.16 404.97,-139.22 410.52,-134.95"/>
</a>
</g>
</g>
<!-- Node2&#45;&gt;Node3 -->
<g id="edge2_Node000002_Node000003" class="edge">
<title>Node2&#45;&gt;Node3</title>
<g id="a_edge2_Node000002_Node000003"><a xlink:title=" ">
<path fill="none" stroke="#63b8ff" d="M519.22,-164.98C494.77,-156.23 456.47,-142.51 428.85,-132.62"/>
<polygon fill="#63b8ff" stroke="#63b8ff" points="429.81,-129.25 419.21,-129.17 427.45,-135.84 429.81,-129.25"/>
</a>
</g>
</g>
<!-- Node10 -->
<g id="Node000010" class="node">
<title>Node10</title>
<g id="a_Node000010"><a xlink:title=" ">
<polygon fill="#e0e0e0" stroke="#999999" points="813.5,-19 772.5,-19 772.5,0 813.5,0 813.5,-19"/>
<text text-anchor="middle" x="793" y="-7" font-family="Helvetica,sans-Serif" font-size="10.00">tuple</text>
</a>
</g>
</g>
<!-- Node2&#45;&gt;Node10 -->
<g id="edge20_Node000002_Node000010" class="edge">
<title>Node2&#45;&gt;Node10</title>
<g id="a_edge20_Node000002_Node000010"><a xlink:title=" ">
<path fill="none" stroke="#63b8ff" d="M609.27,-172.3C679.08,-167.03 785.72,-146.67 836,-74 847.48,-57.4 830.29,-38.2 814.36,-25.29"/>
<polygon fill="#63b8ff" stroke="#63b8ff" points="816.38,-22.43 806.3,-19.16 812.14,-28 816.38,-22.43"/>
</a>
</g>
</g>
<!-- Node16 -->
<g id="Node000016" class="node">
<title>Node16</title>
<g id="a_Node000016"><a xlink:href="assert_8hpp.html" target="_top" xlink:title="Implementation of custom assert and debug utilities.">
<polygon fill="white" stroke="#666666" points="680.5,-129 525.5,-129 525.5,-110 680.5,-110 680.5,-129"/>
<text text-anchor="middle" x="603" y="-117" font-family="Helvetica,sans-Serif" font-size="10.00">medusa/bits/utils/assert.hpp</text>
</a>
</g>
</g>
<!-- Node2&#45;&gt;Node16 -->
<g id="edge17_Node000002_Node000016" class="edge">
<title>Node2&#45;&gt;Node16</title>
<g id="a_edge17_Node000002_Node000016"><a xlink:title=" ">
<path fill="none" stroke="#63b8ff" d="M552.64,-164.98C561.51,-157.15 574.87,-145.34 585.61,-135.86"/>
<polygon fill="#63b8ff" stroke="#63b8ff" points="588.01,-138.41 593.18,-129.17 583.37,-133.17 588.01,-138.41"/>
</a>
</g>
</g>
<!-- Node4 -->
<g id="Node000004" class="node">
<title>Node4</title>
<g id="a_Node000004"><a xlink:href="Config_8hpp.html" target="_top" xlink:title="Contains compile time settings for the project, such as Eigen plugins.">
<polygon fill="white" stroke="#666666" points="408,-74 298,-74 298,-55 408,-55 408,-74"/>
<text text-anchor="middle" x="353" y="-62" font-family="Helvetica,sans-Serif" font-size="10.00">medusa/Config.hpp</text>
</a>
</g>
</g>
<!-- Node3&#45;&gt;Node4 -->
<g id="edge3_Node000003_Node000004" class="edge">
<title>Node3&#45;&gt;Node4</title>
<g id="a_edge3_Node000003_Node000004"><a xlink:title=" ">
<path fill="none" stroke="#63b8ff" d="M388.06,-109.75C382.13,-102.26 373.43,-91.28 366.18,-82.13"/>
<polygon fill="#63b8ff" stroke="#63b8ff" points="368.76,-79.75 359.81,-74.09 363.27,-84.1 368.76,-79.75"/>
</a>
</g>
</g>
<!-- Node5 -->
<g id="Node000005" class="node">
<title>Node5</title>
<g id="a_Node000005"><a xlink:title=" ">
<polygon fill="#e0e0e0" stroke="#999999" points="459.5,-19 412.5,-19 412.5,0 459.5,0 459.5,-19"/>
<text text-anchor="middle" x="436" y="-7" font-family="Helvetica,sans-Serif" font-size="10.00">vector</text>
</a>
</g>
</g>
<!-- Node3&#45;&gt;Node5 -->
<g id="edge13_Node000003_Node000005" class="edge">
<title>Node3&#45;&gt;Node5</title>
<g id="a_edge13_Node000003_Node000005"><a xlink:title=" ">
<path fill="none" stroke="#63b8ff" d="M399.83,-109.83C404.62,-101.01 411.95,-86.83 417,-74 422.8,-59.26 427.86,-42.01 431.29,-29.21"/>
<polygon fill="#63b8ff" stroke="#63b8ff" points="434.74,-29.84 433.87,-19.28 427.97,-28.08 434.74,-29.84"/>
</a>
</g>
</g>
<!-- Node6 -->
<g id="Node000006" class="node">
<title>Node6</title>
<g id="a_Node000006"><a xlink:href="print_8hpp.html" target="_top" xlink:title="Printing helpers for std types.">
<polygon fill="white" stroke="#666666" points="676.5,-74 529.5,-74 529.5,-55 676.5,-55 676.5,-74"/>
<text text-anchor="middle" x="603" y="-62" font-family="Helvetica,sans-Serif" font-size="10.00">medusa/bits/utils/print.hpp</text>
</a>
</g>
</g>
<!-- Node3&#45;&gt;Node6 -->
<g id="edge5_Node000003_Node000006" class="edge">
<title>Node3&#45;&gt;Node6</title>
<g id="a_edge5_Node000003_Node000006"><a xlink:title=" ">
<path fill="none" stroke="#63b8ff" d="M428.42,-109.98C463.94,-100.93 520.27,-86.58 559.3,-76.64"/>
<polygon fill="#63b8ff" stroke="#63b8ff" points="560.49,-79.94 569.32,-74.08 558.76,-73.16 560.49,-79.94"/>
</a>
</g>
</g>
<!-- Node11 -->
<g id="Node000011" class="node">
<title>Node11</title>
<g id="a_Node000011"><a xlink:title=" ">
<polygon fill="#e0e0e0" stroke="#999999" points="511.5,-74 464.5,-74 464.5,-55 511.5,-55 511.5,-74"/>
<text text-anchor="middle" x="488" y="-62" font-family="Helvetica,sans-Serif" font-size="10.00">hdf5.h</text>
</a>
</g>
</g>
<!-- Node3&#45;&gt;Node11 -->
<g id="edge11_Node000003_Node000011" class="edge">
<title>Node3&#45;&gt;Node11</title>
<g id="a_edge11_Node000003_Node000011"><a xlink:title=" ">
<path fill="none" stroke="#63b8ff" d="M409.94,-109.98C424.5,-101.69 446.87,-88.94 463.93,-79.22"/>
<polygon fill="#63b8ff" stroke="#63b8ff" points="465.83,-82.16 472.79,-74.17 462.36,-76.08 465.83,-82.16"/>
</a>
</g>
</g>
<!-- Node12 -->
<g id="Node000012" class="node">
<title>Node12</title>
<g id="a_Node000012"><a xlink:title=" ">
<polygon fill="#e0e0e0" stroke="#999999" points="44,-74 0,-74 0,-55 44,-55 44,-74"/>
<text text-anchor="middle" x="22" y="-62" font-family="Helvetica,sans-Serif" font-size="10.00">string</text>
</a>
</g>
</g>
<!-- Node3&#45;&gt;Node12 -->
<g id="edge12_Node000003_Node000012" class="edge">
<title>Node3&#45;&gt;Node12</title>
<g id="a_edge12_Node000003_Node000012"><a xlink:title=" ">
<path fill="none" stroke="#63b8ff" d="M354.43,-115.05C291.9,-109.34 168.13,-96.45 54.2,-73.99"/>
<polygon fill="#63b8ff" stroke="#63b8ff" points="54.76,-70.53 44.26,-72 53.38,-77.39 54.76,-70.53"/>
</a>
</g>
</g>
<!-- Node13 -->
<g id="Node000013" class="node">
<title>Node13</title>
<g id="a_Node000013"><a xlink:title=" ">
<polygon fill="#e0e0e0" stroke="#999999" points="117.5,-74 62.5,-74 62.5,-55 117.5,-55 117.5,-74"/>
<text text-anchor="middle" x="90" y="-62" font-family="Helvetica,sans-Serif" font-size="10.00">fstream</text>
</a>
</g>
</g>
<!-- Node3&#45;&gt;Node13 -->
<g id="edge14_Node000003_Node000013" class="edge">
<title>Node3&#45;&gt;Node13</title>
<g id="a_edge14_Node000003_Node000013"><a xlink:title=" ">
<path fill="none" stroke="#63b8ff" d="M354.28,-112.65C303.42,-105.14 213.51,-91.23 127.76,-74.25"/>
<polygon fill="#63b8ff" stroke="#63b8ff" points="128.36,-70.8 117.87,-72.28 126.99,-77.67 128.36,-70.8"/>
</a>
</g>
</g>
<!-- Node14 -->
<g id="Node000014" class="node">
<title>Node14</title>
<g id="a_Node000014"><a xlink:title=" ">
<polygon fill="#e0e0e0" stroke="#999999" points="192.5,-74 135.5,-74 135.5,-55 192.5,-55 192.5,-74"/>
<text text-anchor="middle" x="164" y="-62" font-family="Helvetica,sans-Serif" font-size="10.00">ostream</text>
</a>
</g>
</g>
<!-- Node3&#45;&gt;Node14 -->
<g id="edge15_Node000003_Node000014" class="edge">
<title>Node3&#45;&gt;Node14</title>
<g id="a_edge15_Node000003_Node000014"><a xlink:title=" ">
<path fill="none" stroke="#63b8ff" d="M357.81,-109.97C320.81,-101.49 262.16,-88.04 202.63,-74.37"/>
<polygon fill="#63b8ff" stroke="#63b8ff" points="203.21,-70.92 192.68,-72.09 201.65,-77.74 203.21,-70.92"/>
</a>
</g>
</g>
<!-- Node15 -->
<g id="Node000015" class="node">
<title>Node15</title>
<g id="a_Node000015"><a xlink:title=" ">
<polygon fill="#e0e0e0" stroke="#999999" points="279.5,-74 210.5,-74 210.5,-55 279.5,-55 279.5,-74"/>
<text text-anchor="middle" x="245" y="-62" font-family="Helvetica,sans-Serif" font-size="10.00">type_traits</text>
</a>
</g>
</g>
<!-- Node3&#45;&gt;Node15 -->
<g id="edge16_Node000003_Node000015" class="edge">
<title>Node3&#45;&gt;Node15</title>
<g id="a_edge16_Node000003_Node000015"><a xlink:title=" ">
<path fill="none" stroke="#63b8ff" d="M370.9,-109.98C346.12,-101.23 307.3,-87.51 279.31,-77.62"/>
<polygon fill="#63b8ff" stroke="#63b8ff" points="280.13,-74.2 269.54,-74.17 277.8,-80.8 280.13,-74.2"/>
</a>
</g>
</g>
<!-- Node4&#45;&gt;Node5 -->
<g id="edge4_Node000004_Node000005" class="edge">
<title>Node4&#45;&gt;Node5</title>
<g id="a_edge4_Node000004_Node000005"><a xlink:title=" ">
<path fill="none" stroke="#63b8ff" d="M366.34,-54.98C379.09,-46.84 398.55,-34.41 413.67,-24.76"/>
<polygon fill="#63b8ff" stroke="#63b8ff" points="415.88,-27.5 422.42,-19.17 412.11,-21.6 415.88,-27.5"/>
</a>
</g>
</g>
<!-- Node6&#45;&gt;Node5 -->
<g id="edge7_Node000006_Node000005" class="edge">
<title>Node6&#45;&gt;Node5</title>
<g id="a_edge7_Node000006_Node000005"><a xlink:title=" ">
<path fill="none" stroke="#63b8ff" d="M576.17,-54.98C547.05,-45.74 500.52,-30.98 469.14,-21.02"/>
<polygon fill="#63b8ff" stroke="#63b8ff" points="470.12,-17.66 459.53,-17.97 468,-24.33 470.12,-17.66"/>
</a>
</g>
</g>
<!-- Node7 -->
<g id="Node000007" class="node">
<title>Node7</title>
<g id="a_Node000007"><a xlink:title=" ">
<polygon fill="#e0e0e0" stroke="#999999" points="633,-19 573,-19 573,0 633,0 633,-19"/>
<text text-anchor="middle" x="603" y="-7" font-family="Helvetica,sans-Serif" font-size="10.00">iostream</text>
</a>
</g>
</g>
<!-- Node6&#45;&gt;Node7 -->
<g id="edge6_Node000006_Node000007" class="edge">
<title>Node6&#45;&gt;Node7</title>
<g id="a_edge6_Node000006_Node000007"><a xlink:title=" ">
<path fill="none" stroke="#63b8ff" d="M603,-54.75C603,-47.8 603,-37.85 603,-29.13"/>
<polygon fill="#63b8ff" stroke="#63b8ff" points="606.5,-29.09 603,-19.09 599.5,-29.09 606.5,-29.09"/>
</a>
</g>
</g>
<!-- Node8 -->
<g id="Node000008" class="node">
<title>Node8</title>
<g id="a_Node000008"><a xlink:title=" ">
<polygon fill="#e0e0e0" stroke="#999999" points="693,-19 651,-19 651,0 693,0 693,-19"/>
<text text-anchor="middle" x="672" y="-7" font-family="Helvetica,sans-Serif" font-size="10.00">array</text>
</a>
</g>
</g>
<!-- Node6&#45;&gt;Node8 -->
<g id="edge8_Node000006_Node000008" class="edge">
<title>Node6&#45;&gt;Node8</title>
<g id="a_edge8_Node000006_Node000008"><a xlink:title=" ">
<path fill="none" stroke="#63b8ff" d="M614.09,-54.98C624.49,-47 640.26,-34.88 652.72,-25.31"/>
<polygon fill="#63b8ff" stroke="#63b8ff" points="654.91,-28.04 660.71,-19.17 650.65,-22.49 654.91,-28.04"/>
</a>
</g>
</g>
<!-- Node9 -->
<g id="Node000009" class="node">
<title>Node9</title>
<g id="a_Node000009"><a xlink:title=" ">
<polygon fill="#e0e0e0" stroke="#999999" points="554.5,-19 509.5,-19 509.5,0 554.5,0 554.5,-19"/>
<text text-anchor="middle" x="532" y="-7" font-family="Helvetica,sans-Serif" font-size="10.00">utility</text>
</a>
</g>
</g>
<!-- Node6&#45;&gt;Node9 -->
<g id="edge9_Node000006_Node000009" class="edge">
<title>Node6&#45;&gt;Node9</title>
<g id="a_edge9_Node000006_Node000009"><a xlink:title=" ">
<path fill="none" stroke="#63b8ff" d="M591.59,-54.98C580.89,-47 564.66,-34.88 551.84,-25.31"/>
<polygon fill="#63b8ff" stroke="#63b8ff" points="553.72,-22.35 543.61,-19.17 549.53,-27.96 553.72,-22.35"/>
</a>
</g>
</g>
<!-- Node6&#45;&gt;Node10 -->
<g id="edge10_Node000006_Node000010" class="edge">
<title>Node6&#45;&gt;Node10</title>
<g id="a_edge10_Node000006_Node000010"><a xlink:title=" ">
<path fill="none" stroke="#63b8ff" d="M633.53,-54.98C668.95,-45.1 727.01,-28.91 762.44,-19.02"/>
<polygon fill="#63b8ff" stroke="#63b8ff" points="763.54,-22.35 772.23,-16.29 761.66,-15.61 763.54,-22.35"/>
</a>
</g>
</g>
<!-- Node16&#45;&gt;Node6 -->
<g id="edge19_Node000016_Node000006" class="edge">
<title>Node16&#45;&gt;Node6</title>
<g id="a_edge19_Node000016_Node000006"><a xlink:title=" ">
<path fill="none" stroke="#63b8ff" d="M603,-109.75C603,-102.8 603,-92.85 603,-84.13"/>
<polygon fill="#63b8ff" stroke="#63b8ff" points="606.5,-84.09 603,-74.09 599.5,-84.09 606.5,-84.09"/>
</a>
</g>
</g>
<!-- Node17 -->
<g id="Node000017" class="node">
<title>Node17</title>
<g id="a_Node000017"><a xlink:title=" ">
<polygon fill="#e0e0e0" stroke="#999999" points="827,-74 695,-74 695,-55 827,-55 827,-74"/>
<text text-anchor="middle" x="761" y="-62" font-family="Helvetica,sans-Serif" font-size="10.00">tinyformat/tinyformat.h</text>
</a>
</g>
</g>
<!-- Node16&#45;&gt;Node17 -->
<g id="edge18_Node000016_Node000017" class="edge">
<title>Node16&#45;&gt;Node17</title>
<g id="a_edge18_Node000016_Node000017"><a xlink:title=" ">
<path fill="none" stroke="#63b8ff" d="M628.39,-109.98C654.8,-101.13 696.35,-87.19 725.89,-77.28"/>
<polygon fill="#63b8ff" stroke="#63b8ff" points="727.05,-80.58 735.42,-74.08 724.82,-73.94 727.05,-80.58"/>
</a>
</g>
</g>
</g>
</svg>
