<?xml version="1.0" encoding="UTF-8" standalone="no"?>
<!DOCTYPE svg PUBLIC "-//W3C//DTD SVG 1.1//EN"
 "http://www.w3.org/Graphics/SVG/1.1/DTD/svg11.dtd">
<!-- Generated by graphviz version 2.43.0 (0)
 -->
<!-- Title: include/medusa/bits/io/HDF.hpp Pages: 1 -->
<svg width="847pt" height="203pt"
 viewBox="0.00 0.00 846.87 203.00" xmlns="http://www.w3.org/2000/svg" xmlns:xlink="http://www.w3.org/1999/xlink">
<g id="graph0" class="graph" transform="scale(1 1) rotate(0) translate(4 199)">
<title>include/medusa/bits/io/HDF.hpp</title>
<!-- Node1 -->
<g id="Node000001" class="node">
<title>Node1</title>
<g id="a_Node000001"><a xlink:title="Implementation of HDF I/O utilities.">
<polygon fill="#999999" stroke="#666666" points="733.5,-195 618.5,-195 618.5,-165 733.5,-165 733.5,-195"/>
<text text-anchor="start" x="626.5" y="-183" font-family="Helvetica,sans-Serif" font-size="10.00">include/medusa/bits</text>
<text text-anchor="middle" x="676" y="-172" font-family="Helvetica,sans-Serif" font-size="10.00">/io/HDF.hpp</text>
</a>
</g>
</g>
<!-- Node2 -->
<g id="Node000002" class="node">
<title>Node2</title>
<g id="a_Node000002"><a xlink:href="HDF__fwd_8hpp.html" target="_top" xlink:title="Declarations of CSV I/O utilities.">
<polygon fill="white" stroke="#666666" points="393.5,-129 312.5,-129 312.5,-110 393.5,-110 393.5,-129"/>
<text text-anchor="middle" x="353" y="-117" font-family="Helvetica,sans-Serif" font-size="10.00">HDF_fwd.hpp</text>
</a>
</g>
</g>
<!-- Node1&#45;&gt;Node2 -->
<g id="edge1_Node000001_Node000002" class="edge">
<title>Node1&#45;&gt;Node2</title>
<g id="a_edge1_Node000001_Node000002"><a xlink:title=" ">
<path fill="none" stroke="#63b8ff" d="M618.25,-168.54C557.31,-157.5 462.19,-140.28 403.95,-129.73"/>
<polygon fill="#63b8ff" stroke="#63b8ff" points="404.34,-126.24 393.88,-127.9 403.09,-133.13 404.34,-126.24"/>
</a>
</g>
</g>
<!-- Node9 -->
<g id="Node000009" class="node">
<title>Node9</title>
<g id="a_Node000009"><a xlink:title=" ">
<polygon fill="#e0e0e0" stroke="#999999" points="813.5,-19 772.5,-19 772.5,0 813.5,0 813.5,-19"/>
<text text-anchor="middle" x="793" y="-7" font-family="Helvetica,sans-Serif" font-size="10.00">tuple</text>
</a>
</g>
</g>
<!-- Node1&#45;&gt;Node9 -->
<g id="edge19_Node000001_Node000009" class="edge">
<title>Node1&#45;&gt;Node9</title>
<g id="a_edge19_Node000001_Node000009"><a xlink:title=" ">
<path fill="none" stroke="#63b8ff" d="M718.83,-164.98C757.82,-149.6 812.72,-120.68 836,-74 844.82,-56.31 828.94,-37.77 814.05,-25.33"/>
<polygon fill="#63b8ff" stroke="#63b8ff" points="816.08,-22.47 806.04,-19.08 811.77,-27.99 816.08,-22.47"/>
</a>
</g>
</g>
<!-- Node15 -->
<g id="Node000015" class="node">
<title>Node15</title>
<g id="a_Node000015"><a xlink:href="assert_8hpp.html" target="_top" xlink:title="Implementation of custom assert and debug utilities.">
<polygon fill="white" stroke="#666666" points="753.5,-129 598.5,-129 598.5,-110 753.5,-110 753.5,-129"/>
<text text-anchor="middle" x="676" y="-117" font-family="Helvetica,sans-Serif" font-size="10.00">medusa/bits/utils/assert.hpp</text>
</a>
</g>
</g>
<!-- Node1&#45;&gt;Node15 -->
<g id="edge16_Node000001_Node000015" class="edge">
<title>Node1&#45;&gt;Node15</title>
<g id="a_edge16_Node000001_Node000015"><a xlink:title=" ">
<path fill="none" stroke="#63b8ff" d="M676,-164.84C676,-157.21 676,-147.7 676,-139.45"/>
<polygon fill="#63b8ff" stroke="#63b8ff" points="679.5,-139.27 676,-129.27 672.5,-139.27 679.5,-139.27"/>
</a>
</g>
</g>
<!-- Node3 -->
<g id="Node000003" class="node">
<title>Node3</title>
<g id="a_Node000003"><a xlink:href="Config_8hpp.html" target="_top" xlink:title="Contains compile time settings for the project, such as Eigen plugins.">
<polygon fill="white" stroke="#666666" points="408,-74 298,-74 298,-55 408,-55 408,-74"/>
<text text-anchor="middle" x="353" y="-62" font-family="Helvetica,sans-Serif" font-size="10.00">medusa/Config.hpp</text>
</a>
</g>
</g>
<!-- Node2&#45;&gt;Node3 -->
<g id="edge2_Node000002_Node000003" class="edge">
<title>Node2&#45;&gt;Node3</title>
<g id="a_edge2_Node000002_Node000003"><a xlink:title=" ">
<path fill="none" stroke="#63b8ff" d="M353,-109.75C353,-102.8 353,-92.85 353,-84.13"/>
<polygon fill="#63b8ff" stroke="#63b8ff" points="356.5,-84.09 353,-74.09 349.5,-84.09 356.5,-84.09"/>
</a>
</g>
</g>
<!-- Node4 -->
<g id="Node000004" class="node">
<title>Node4</title>
<g id="a_Node000004"><a xlink:title=" ">
<polygon fill="#e0e0e0" stroke="#999999" points="459.5,-19 412.5,-19 412.5,0 459.5,0 459.5,-19"/>
<text text-anchor="middle" x="436" y="-7" font-family="Helvetica,sans-Serif" font-size="10.00">vector</text>
</a>
</g>
</g>
<!-- Node2&#45;&gt;Node4 -->
<g id="edge12_Node000002_Node000004" class="edge">
<title>Node2&#45;&gt;Node4</title>
<g id="a_edge12_Node000002_Node000004"><a xlink:title=" ">
<path fill="none" stroke="#63b8ff" d="M371.58,-109.93C385.96,-102.39 405.33,-90.11 417,-74 426.6,-60.75 431.4,-42.63 433.77,-29.14"/>
<polygon fill="#63b8ff" stroke="#63b8ff" points="437.25,-29.5 435.24,-19.1 430.32,-28.49 437.25,-29.5"/>
</a>
</g>
</g>
<!-- Node5 -->
<g id="Node000005" class="node">
<title>Node5</title>
<g id="a_Node000005"><a xlink:href="print_8hpp.html" target="_top" xlink:title="Printing helpers for std types.">
<polygon fill="white" stroke="#666666" points="676.5,-74 529.5,-74 529.5,-55 676.5,-55 676.5,-74"/>
<text text-anchor="middle" x="603" y="-62" font-family="Helvetica,sans-Serif" font-size="10.00">medusa/bits/utils/print.hpp</text>
</a>
</g>
</g>
<!-- Node2&#45;&gt;Node5 -->
<g id="edge4_Node000002_Node000005" class="edge">
<title>Node2&#45;&gt;Node5</title>
<g id="a_edge4_Node000002_Node000005"><a xlink:title=" ">
<path fill="none" stroke="#63b8ff" d="M393.17,-109.98C436.5,-100.8 505.59,-86.15 552.56,-76.19"/>
<polygon fill="#63b8ff" stroke="#63b8ff" points="553.46,-79.58 562.52,-74.08 552.01,-72.73 553.46,-79.58"/>
</a>
</g>
</g>
<!-- Node10 -->
<g id="Node000010" class="node">
<title>Node10</title>
<g id="a_Node000010"><a xlink:title=" ">
<polygon fill="#e0e0e0" stroke="#999999" points="511.5,-74 464.5,-74 464.5,-55 511.5,-55 511.5,-74"/>
<text text-anchor="middle" x="488" y="-62" font-family="Helvetica,sans-Serif" font-size="10.00">hdf5.h</text>
</a>
</g>
</g>
<!-- Node2&#45;&gt;Node10 -->
<g id="edge10_Node000002_Node000010" class="edge">
<title>Node2&#45;&gt;Node10</title>
<g id="a_edge10_Node000002_Node000010"><a xlink:title=" ">
<path fill="none" stroke="#63b8ff" d="M374.69,-109.98C396.8,-101.3 431.32,-87.75 456.45,-77.88"/>
<polygon fill="#63b8ff" stroke="#63b8ff" points="457.89,-81.08 465.92,-74.17 455.33,-74.57 457.89,-81.08"/>
</a>
</g>
</g>
<!-- Node11 -->
<g id="Node000011" class="node">
<title>Node11</title>
<g id="a_Node000011"><a xlink:title=" ">
<polygon fill="#e0e0e0" stroke="#999999" points="44,-74 0,-74 0,-55 44,-55 44,-74"/>
<text text-anchor="middle" x="22" y="-62" font-family="Helvetica,sans-Serif" font-size="10.00">string</text>
</a>
</g>
</g>
<!-- Node2&#45;&gt;Node11 -->
<g id="edge11_Node000002_Node000011" class="edge">
<title>Node2&#45;&gt;Node11</title>
<g id="a_edge11_Node000002_Node000011"><a xlink:title=" ">
<path fill="none" stroke="#63b8ff" d="M312.45,-114.06C256.46,-107.58 152.19,-94.28 54.33,-74.06"/>
<polygon fill="#63b8ff" stroke="#63b8ff" points="54.78,-70.58 44.27,-71.95 53.34,-77.43 54.78,-70.58"/>
</a>
</g>
</g>
<!-- Node12 -->
<g id="Node000012" class="node">
<title>Node12</title>
<g id="a_Node000012"><a xlink:title=" ">
<polygon fill="#e0e0e0" stroke="#999999" points="117.5,-74 62.5,-74 62.5,-55 117.5,-55 117.5,-74"/>
<text text-anchor="middle" x="90" y="-62" font-family="Helvetica,sans-Serif" font-size="10.00">fstream</text>
</a>
</g>
</g>
<!-- Node2&#45;&gt;Node12 -->
<g id="edge13_Node000002_Node000012" class="edge">
<title>Node2&#45;&gt;Node12</title>
<g id="a_edge13_Node000002_Node000012"><a xlink:title=" ">
<path fill="none" stroke="#63b8ff" d="M312.31,-111.01C268.85,-102.9 197.72,-89.32 127.75,-74.32"/>
<polygon fill="#63b8ff" stroke="#63b8ff" points="128.4,-70.88 117.88,-72.19 126.92,-77.72 128.4,-70.88"/>
</a>
</g>
</g>
<!-- Node13 -->
<g id="Node000013" class="node">
<title>Node13</title>
<g id="a_Node000013"><a xlink:title=" ">
<polygon fill="#e0e0e0" stroke="#999999" points="192.5,-74 135.5,-74 135.5,-55 192.5,-55 192.5,-74"/>
<text text-anchor="middle" x="164" y="-62" font-family="Helvetica,sans-Serif" font-size="10.00">ostream</text>
</a>
</g>
</g>
<!-- Node2&#45;&gt;Node13 -->
<g id="edge14_Node000002_Node000013" class="edge">
<title>Node2&#45;&gt;Node13</title>
<g id="a_edge14_Node000002_Node000013"><a xlink:title=" ">
<path fill="none" stroke="#63b8ff" d="M322.63,-109.98C290.06,-100.85 238.23,-86.32 202.74,-76.36"/>
<polygon fill="#63b8ff" stroke="#63b8ff" points="203.32,-72.89 192.74,-73.56 201.43,-79.63 203.32,-72.89"/>
</a>
</g>
</g>
<!-- Node14 -->
<g id="Node000014" class="node">
<title>Node14</title>
<g id="a_Node000014"><a xlink:title=" ">
<polygon fill="#e0e0e0" stroke="#999999" points="279.5,-74 210.5,-74 210.5,-55 279.5,-55 279.5,-74"/>
<text text-anchor="middle" x="245" y="-62" font-family="Helvetica,sans-Serif" font-size="10.00">type_traits</text>
</a>
</g>
</g>
<!-- Node2&#45;&gt;Node14 -->
<g id="edge15_Node000002_Node000014" class="edge">
<title>Node2&#45;&gt;Node14</title>
<g id="a_edge15_Node000002_Node000014"><a xlink:title=" ">
<path fill="none" stroke="#63b8ff" d="M335.65,-109.98C318.43,-101.54 291.8,-88.47 271.85,-78.68"/>
<polygon fill="#63b8ff" stroke="#63b8ff" points="273.19,-75.43 262.67,-74.17 270.1,-81.72 273.19,-75.43"/>
</a>
</g>
</g>
<!-- Node3&#45;&gt;Node4 -->
<g id="edge3_Node000003_Node000004" class="edge">
<title>Node3&#45;&gt;Node4</title>
<g id="a_edge3_Node000003_Node000004"><a xlink:title=" ">
<path fill="none" stroke="#63b8ff" d="M366.34,-54.98C379.09,-46.84 398.55,-34.41 413.67,-24.76"/>
<polygon fill="#63b8ff" stroke="#63b8ff" points="415.88,-27.5 422.42,-19.17 412.11,-21.6 415.88,-27.5"/>
</a>
</g>
</g>
<!-- Node5&#45;&gt;Node4 -->
<g id="edge6_Node000005_Node000004" class="edge">
<title>Node5&#45;&gt;Node4</title>
<g id="a_edge6_Node000005_Node000004"><a xlink:title=" ">
<path fill="none" stroke="#63b8ff" d="M576.17,-54.98C547.05,-45.74 500.52,-30.98 469.14,-21.02"/>
<polygon fill="#63b8ff" stroke="#63b8ff" points="470.12,-17.66 459.53,-17.97 468,-24.33 470.12,-17.66"/>
</a>
</g>
</g>
<!-- Node6 -->
<g id="Node000006" class="node">
<title>Node6</title>
<g id="a_Node000006"><a xlink:title=" ">
<polygon fill="#e0e0e0" stroke="#999999" points="633,-19 573,-19 573,0 633,0 633,-19"/>
<text text-anchor="middle" x="603" y="-7" font-family="Helvetica,sans-Serif" font-size="10.00">iostream</text>
</a>
</g>
</g>
<!-- Node5&#45;&gt;Node6 -->
<g id="edge5_Node000005_Node000006" class="edge">
<title>Node5&#45;&gt;Node6</title>
<g id="a_edge5_Node000005_Node000006"><a xlink:title=" ">
<path fill="none" stroke="#63b8ff" d="M603,-54.75C603,-47.8 603,-37.85 603,-29.13"/>
<polygon fill="#63b8ff" stroke="#63b8ff" points="606.5,-29.09 603,-19.09 599.5,-29.09 606.5,-29.09"/>
</a>
</g>
</g>
<!-- Node7 -->
<g id="Node000007" class="node">
<title>Node7</title>
<g id="a_Node000007"><a xlink:title=" ">
<polygon fill="#e0e0e0" stroke="#999999" points="693,-19 651,-19 651,0 693,0 693,-19"/>
<text text-anchor="middle" x="672" y="-7" font-family="Helvetica,sans-Serif" font-size="10.00">array</text>
</a>
</g>
</g>
<!-- Node5&#45;&gt;Node7 -->
<g id="edge7_Node000005_Node000007" class="edge">
<title>Node5&#45;&gt;Node7</title>
<g id="a_edge7_Node000005_Node000007"><a xlink:title=" ">
<path fill="none" stroke="#63b8ff" d="M614.09,-54.98C624.49,-47 640.26,-34.88 652.72,-25.31"/>
<polygon fill="#63b8ff" stroke="#63b8ff" points="654.91,-28.04 660.71,-19.17 650.65,-22.49 654.91,-28.04"/>
</a>
</g>
</g>
<!-- Node8 -->
<g id="Node000008" class="node">
<title>Node8</title>
<g id="a_Node000008"><a xlink:title=" ">
<polygon fill="#e0e0e0" stroke="#999999" points="554.5,-19 509.5,-19 509.5,0 554.5,0 554.5,-19"/>
<text text-anchor="middle" x="532" y="-7" font-family="Helvetica,sans-Serif" font-size="10.00">utility</text>
</a>
</g>
</g>
<!-- Node5&#45;&gt;Node8 -->
<g id="edge8_Node000005_Node000008" class="edge">
<title>Node5&#45;&gt;Node8</title>
<g id="a_edge8_Node000005_Node000008"><a xlink:title=" ">
<path fill="none" stroke="#63b8ff" d="M591.59,-54.98C580.89,-47 564.66,-34.88 551.84,-25.31"/>
<polygon fill="#63b8ff" stroke="#63b8ff" points="553.72,-22.35 543.61,-19.17 549.53,-27.96 553.72,-22.35"/>
</a>
</g>
</g>
<!-- Node5&#45;&gt;Node9 -->
<g id="edge9_Node000005_Node000009" class="edge">
<title>Node5&#45;&gt;Node9</title>
<g id="a_edge9_Node000005_Node000009"><a xlink:title=" ">
<path fill="none" stroke="#63b8ff" d="M633.53,-54.98C668.95,-45.1 727.01,-28.91 762.44,-19.02"/>
<polygon fill="#63b8ff" stroke="#63b8ff" points="763.54,-22.35 772.23,-16.29 761.66,-15.61 763.54,-22.35"/>
</a>
</g>
</g>
<!-- Node15&#45;&gt;Node5 -->
<g id="edge18_Node000015_Node000005" class="edge">
<title>Node15&#45;&gt;Node5</title>
<g id="a_edge18_Node000015_Node000005"><a xlink:title=" ">
<path fill="none" stroke="#63b8ff" d="M664.27,-109.98C653.27,-102 636.58,-89.88 623.4,-80.31"/>
<polygon fill="#63b8ff" stroke="#63b8ff" points="625.09,-77.21 614.94,-74.17 620.98,-82.88 625.09,-77.21"/>
</a>
</g>
</g>
<!-- Node16 -->
<g id="Node000016" class="node">
<title>Node16</title>
<g id="a_Node000016"><a xlink:title=" ">
<polygon fill="#e0e0e0" stroke="#999999" points="827,-74 695,-74 695,-55 827,-55 827,-74"/>
<text text-anchor="middle" x="761" y="-62" font-family="Helvetica,sans-Serif" font-size="10.00">tinyformat/tinyformat.h</text>
</a>
</g>
</g>
<!-- Node15&#45;&gt;Node16 -->
<g id="edge17_Node000015_Node000016" class="edge">
<title>Node15&#45;&gt;Node16</title>
<g id="a_edge17_Node000015_Node000016"><a xlink:title=" ">
<path fill="none" stroke="#63b8ff" d="M689.66,-109.98C702.84,-101.77 723.03,-89.18 738.57,-79.49"/>
<polygon fill="#63b8ff" stroke="#63b8ff" points="740.46,-82.43 747.09,-74.17 736.76,-76.49 740.46,-82.43"/>
</a>
</g>
</g>
</g>
</svg>
