<?xml version="1.0" encoding="UTF-8" standalone="no"?>
<!DOCTYPE svg PUBLIC "-//W3C//DTD SVG 1.1//EN"
 "http://www.w3.org/Graphics/SVG/1.1/DTD/svg11.dtd">
<!-- Generated by graphviz version 2.43.0 (0)
 -->
<!-- Title: include/medusa/bits/operators/ImplicitVectorOperators_fwd.hpp Pages: 1 -->
<svg width="680pt" height="335pt"
 viewBox="0.00 0.00 680.00 335.00" xmlns="http://www.w3.org/2000/svg" xmlns:xlink="http://www.w3.org/1999/xlink">
<g id="graph0" class="graph" transform="scale(1 1) rotate(0) translate(4 331)">
<title>include/medusa/bits/operators/ImplicitVectorOperators_fwd.hpp</title>
<!-- Node1 -->
<g id="Node000001" class="node">
<title>Node1</title>
<g id="a_Node000001"><a xlink:title="Declarations of implicit vector operators.">
<polygon fill="#999999" stroke="#666666" points="350.5,-327 165.5,-327 165.5,-286 350.5,-286 350.5,-327"/>
<text text-anchor="start" x="173.5" y="-315" font-family="Helvetica,sans-Serif" font-size="10.00">include/medusa/bits</text>
<text text-anchor="start" x="173.5" y="-304" font-family="Helvetica,sans-Serif" font-size="10.00">/operators/ImplicitVectorOperators</text>
<text text-anchor="middle" x="258" y="-293" font-family="Helvetica,sans-Serif" font-size="10.00">_fwd.hpp</text>
</a>
</g>
</g>
<!-- Node2 -->
<g id="Node000002" class="node">
<title>Node2</title>
<g id="a_Node000002"><a xlink:href="Config_8hpp.html" target="_top" xlink:title="Contains compile time settings for the project, such as Eigen plugins.">
<polygon fill="white" stroke="#666666" points="110,-74 0,-74 0,-55 110,-55 110,-74"/>
<text text-anchor="middle" x="55" y="-62" font-family="Helvetica,sans-Serif" font-size="10.00">medusa/Config.hpp</text>
</a>
</g>
</g>
<!-- Node1&#45;&gt;Node2 -->
<g id="edge1_Node000001_Node000002" class="edge">
<title>Node1&#45;&gt;Node2</title>
<g id="a_edge1_Node000001_Node000002"><a xlink:title=" ">
<path fill="none" stroke="#63b8ff" d="M225.11,-285.9C209.56,-275.98 191.13,-263.25 176,-250 123.93,-204.42 110.76,-189.96 78,-129 70.2,-114.48 64.03,-96.75 60.05,-83.72"/>
<polygon fill="#63b8ff" stroke="#63b8ff" points="63.39,-82.68 57.24,-74.05 56.67,-84.63 63.39,-82.68"/>
</a>
</g>
</g>
<!-- Node4 -->
<g id="Node000004" class="node">
<title>Node4</title>
<g id="a_Node000004"><a xlink:href="assert_8hpp.html" target="_top" xlink:title="Implementation of custom assert and debug utilities.">
<polygon fill="white" stroke="#666666" points="585.5,-129 430.5,-129 430.5,-110 585.5,-110 585.5,-129"/>
<text text-anchor="middle" x="508" y="-117" font-family="Helvetica,sans-Serif" font-size="10.00">medusa/bits/utils/assert.hpp</text>
</a>
</g>
</g>
<!-- Node1&#45;&gt;Node4 -->
<g id="edge3_Node000001_Node000004" class="edge">
<title>Node1&#45;&gt;Node4</title>
<g id="a_edge3_Node000001_Node000004"><a xlink:title=" ">
<path fill="none" stroke="#63b8ff" d="M287.91,-285.9C303.58,-275.47 323,-262.29 340,-250 395.14,-210.14 458.2,-160.36 489.02,-135.74"/>
<polygon fill="#63b8ff" stroke="#63b8ff" points="491.55,-138.2 497.17,-129.22 487.18,-132.74 491.55,-138.2"/>
</a>
</g>
</g>
<!-- Node11 -->
<g id="Node000011" class="node">
<title>Node11</title>
<g id="a_Node000011"><a xlink:href="ImplicitOperators__fwd_8hpp.html" target="_top" xlink:title="Declarations of implicit operators.">
<polygon fill="white" stroke="#666666" points="330.5,-250 185.5,-250 185.5,-231 330.5,-231 330.5,-250"/>
<text text-anchor="middle" x="258" y="-238" font-family="Helvetica,sans-Serif" font-size="10.00">ImplicitOperators_fwd.hpp</text>
</a>
</g>
</g>
<!-- Node1&#45;&gt;Node11 -->
<g id="edge11_Node000001_Node000011" class="edge">
<title>Node1&#45;&gt;Node11</title>
<g id="a_edge11_Node000001_Node000011"><a xlink:title=" ">
<path fill="none" stroke="#63b8ff" d="M258,-285.95C258,-277.85 258,-268.5 258,-260.47"/>
<polygon fill="#63b8ff" stroke="#63b8ff" points="261.5,-260.26 258,-250.26 254.5,-260.26 261.5,-260.26"/>
</a>
</g>
</g>
<!-- Node3 -->
<g id="Node000003" class="node">
<title>Node3</title>
<g id="a_Node000003"><a xlink:title=" ">
<polygon fill="#e0e0e0" stroke="#999999" points="161.5,-19 114.5,-19 114.5,0 161.5,0 161.5,-19"/>
<text text-anchor="middle" x="138" y="-7" font-family="Helvetica,sans-Serif" font-size="10.00">vector</text>
</a>
</g>
</g>
<!-- Node2&#45;&gt;Node3 -->
<g id="edge2_Node000002_Node000003" class="edge">
<title>Node2&#45;&gt;Node3</title>
<g id="a_edge2_Node000002_Node000003"><a xlink:title=" ">
<path fill="none" stroke="#63b8ff" d="M68.34,-54.98C81.09,-46.84 100.55,-34.41 115.67,-24.76"/>
<polygon fill="#63b8ff" stroke="#63b8ff" points="117.88,-27.5 124.42,-19.17 114.11,-21.6 117.88,-27.5"/>
</a>
</g>
</g>
<!-- Node5 -->
<g id="Node000005" class="node">
<title>Node5</title>
<g id="a_Node000005"><a xlink:title=" ">
<polygon fill="#e0e0e0" stroke="#999999" points="672,-74 540,-74 540,-55 672,-55 672,-74"/>
<text text-anchor="middle" x="606" y="-62" font-family="Helvetica,sans-Serif" font-size="10.00">tinyformat/tinyformat.h</text>
</a>
</g>
</g>
<!-- Node4&#45;&gt;Node5 -->
<g id="edge4_Node000004_Node000005" class="edge">
<title>Node4&#45;&gt;Node5</title>
<g id="a_edge4_Node000004_Node000005"><a xlink:title=" ">
<path fill="none" stroke="#63b8ff" d="M523.75,-109.98C539.23,-101.61 563.09,-88.7 581.14,-78.95"/>
<polygon fill="#63b8ff" stroke="#63b8ff" points="582.84,-82.01 589.97,-74.17 579.51,-75.85 582.84,-82.01"/>
</a>
</g>
</g>
<!-- Node6 -->
<g id="Node000006" class="node">
<title>Node6</title>
<g id="a_Node000006"><a xlink:href="print_8hpp.html" target="_top" xlink:title="Printing helpers for std types.">
<polygon fill="white" stroke="#666666" points="522,-74 462,-74 462,-55 522,-55 522,-74"/>
<text text-anchor="middle" x="492" y="-62" font-family="Helvetica,sans-Serif" font-size="10.00">print.hpp</text>
</a>
</g>
</g>
<!-- Node4&#45;&gt;Node6 -->
<g id="edge5_Node000004_Node000006" class="edge">
<title>Node4&#45;&gt;Node6</title>
<g id="a_edge5_Node000004_Node000006"><a xlink:title=" ">
<path fill="none" stroke="#63b8ff" d="M505.36,-109.75C503.24,-102.72 500.19,-92.62 497.54,-83.84"/>
<polygon fill="#63b8ff" stroke="#63b8ff" points="500.83,-82.65 494.59,-74.09 494.13,-84.67 500.83,-82.65"/>
</a>
</g>
</g>
<!-- Node6&#45;&gt;Node3 -->
<g id="edge7_Node000006_Node000003" class="edge">
<title>Node6&#45;&gt;Node3</title>
<g id="a_edge7_Node000006_Node000003"><a xlink:title=" ">
<path fill="none" stroke="#63b8ff" d="M461.82,-58.98C396.14,-49.15 240.62,-25.86 171.78,-15.56"/>
<polygon fill="#63b8ff" stroke="#63b8ff" points="172.3,-12.1 161.89,-14.08 171.26,-19.02 172.3,-12.1"/>
</a>
</g>
</g>
<!-- Node7 -->
<g id="Node000007" class="node">
<title>Node7</title>
<g id="a_Node000007"><a xlink:title=" ">
<polygon fill="#e0e0e0" stroke="#999999" points="556,-19 496,-19 496,0 556,0 556,-19"/>
<text text-anchor="middle" x="526" y="-7" font-family="Helvetica,sans-Serif" font-size="10.00">iostream</text>
</a>
</g>
</g>
<!-- Node6&#45;&gt;Node7 -->
<g id="edge6_Node000006_Node000007" class="edge">
<title>Node6&#45;&gt;Node7</title>
<g id="a_edge6_Node000006_Node000007"><a xlink:title=" ">
<path fill="none" stroke="#63b8ff" d="M497.61,-54.75C502.32,-47.42 509.17,-36.73 514.97,-27.7"/>
<polygon fill="#63b8ff" stroke="#63b8ff" points="518.04,-29.4 520.49,-19.09 512.14,-25.62 518.04,-29.4"/>
</a>
</g>
</g>
<!-- Node8 -->
<g id="Node000008" class="node">
<title>Node8</title>
<g id="a_Node000008"><a xlink:title=" ">
<polygon fill="#e0e0e0" stroke="#999999" points="418,-19 376,-19 376,0 418,0 418,-19"/>
<text text-anchor="middle" x="397" y="-7" font-family="Helvetica,sans-Serif" font-size="10.00">array</text>
</a>
</g>
</g>
<!-- Node6&#45;&gt;Node8 -->
<g id="edge8_Node000006_Node000008" class="edge">
<title>Node6&#45;&gt;Node8</title>
<g id="a_edge8_Node000006_Node000008"><a xlink:title=" ">
<path fill="none" stroke="#63b8ff" d="M476.74,-54.98C461.87,-46.69 439.02,-33.94 421.58,-24.22"/>
<polygon fill="#63b8ff" stroke="#63b8ff" points="422.98,-20.99 412.54,-19.17 419.57,-27.1 422.98,-20.99"/>
</a>
</g>
</g>
<!-- Node9 -->
<g id="Node000009" class="node">
<title>Node9</title>
<g id="a_Node000009"><a xlink:title=" ">
<polygon fill="#e0e0e0" stroke="#999999" points="619.5,-19 574.5,-19 574.5,0 619.5,0 619.5,-19"/>
<text text-anchor="middle" x="597" y="-7" font-family="Helvetica,sans-Serif" font-size="10.00">utility</text>
</a>
</g>
</g>
<!-- Node6&#45;&gt;Node9 -->
<g id="edge9_Node000006_Node000009" class="edge">
<title>Node6&#45;&gt;Node9</title>
<g id="a_edge9_Node000006_Node000009"><a xlink:title=" ">
<path fill="none" stroke="#63b8ff" d="M508.87,-54.98C525.61,-46.54 551.5,-33.47 570.89,-23.68"/>
<polygon fill="#63b8ff" stroke="#63b8ff" points="572.47,-26.8 579.82,-19.17 569.32,-20.55 572.47,-26.8"/>
</a>
</g>
</g>
<!-- Node10 -->
<g id="Node000010" class="node">
<title>Node10</title>
<g id="a_Node000010"><a xlink:title=" ">
<polygon fill="#e0e0e0" stroke="#999999" points="477.5,-19 436.5,-19 436.5,0 477.5,0 477.5,-19"/>
<text text-anchor="middle" x="457" y="-7" font-family="Helvetica,sans-Serif" font-size="10.00">tuple</text>
</a>
</g>
</g>
<!-- Node6&#45;&gt;Node10 -->
<g id="edge10_Node000006_Node000010" class="edge">
<title>Node6&#45;&gt;Node10</title>
<g id="a_edge10_Node000006_Node000010"><a xlink:title=" ">
<path fill="none" stroke="#63b8ff" d="M486.22,-54.75C481.38,-47.42 474.32,-36.73 468.36,-27.7"/>
<polygon fill="#63b8ff" stroke="#63b8ff" points="471.1,-25.5 462.67,-19.09 465.26,-29.36 471.1,-25.5"/>
</a>
</g>
</g>
<!-- Node11&#45;&gt;Node2 -->
<g id="edge12_Node000011_Node000002" class="edge">
<title>Node11&#45;&gt;Node2</title>
<g id="a_edge12_Node000011_Node000002"><a xlink:title=" ">
<path fill="none" stroke="#63b8ff" d="M237.86,-230.93C219.7,-222.81 192.6,-209.69 171,-195 134.28,-170.03 124.98,-162.64 96,-129 83.71,-114.74 72.32,-96.53 64.68,-83.26"/>
<polygon fill="#63b8ff" stroke="#63b8ff" points="67.56,-81.24 59.62,-74.24 61.46,-84.67 67.56,-81.24"/>
</a>
</g>
</g>
<!-- Node11&#45;&gt;Node4 -->
<g id="edge25_Node000011_Node000004" class="edge">
<title>Node11&#45;&gt;Node4</title>
<g id="a_edge25_Node000011_Node000004"><a xlink:title=" ">
<path fill="none" stroke="#63b8ff" d="M275.98,-230.94C319.21,-210.36 429.19,-158.01 480.66,-133.51"/>
<polygon fill="#63b8ff" stroke="#63b8ff" points="482.32,-136.6 489.85,-129.14 479.31,-130.28 482.32,-136.6"/>
</a>
</g>
</g>
<!-- Node12 -->
<g id="Node000012" class="node">
<title>Node12</title>
<g id="a_Node000012"><a xlink:href="Operators__fwd_8hpp.html" target="_top" xlink:title="File defining basic differential operator families.">
<polygon fill="white" stroke="#666666" points="336,-195 180,-195 180,-165 336,-165 336,-195"/>
<text text-anchor="start" x="188" y="-183" font-family="Helvetica,sans-Serif" font-size="10.00">medusa/bits/approximations</text>
<text text-anchor="middle" x="258" y="-172" font-family="Helvetica,sans-Serif" font-size="10.00">/Operators_fwd.hpp</text>
</a>
</g>
</g>
<!-- Node11&#45;&gt;Node12 -->
<g id="edge13_Node000011_Node000012" class="edge">
<title>Node11&#45;&gt;Node12</title>
<g id="a_edge13_Node000011_Node000012"><a xlink:title=" ">
<path fill="none" stroke="#63b8ff" d="M258,-230.87C258,-224.11 258,-214.35 258,-205.26"/>
<polygon fill="#63b8ff" stroke="#63b8ff" points="261.5,-205.11 258,-195.11 254.5,-205.11 261.5,-205.11"/>
</a>
</g>
</g>
<!-- Node12&#45;&gt;Node2 -->
<g id="edge14_Node000012_Node000002" class="edge">
<title>Node12&#45;&gt;Node2</title>
<g id="a_edge14_Node000012_Node000002"><a xlink:title=" ">
<path fill="none" stroke="#63b8ff" d="M206.55,-164.96C180.68,-156.65 149.5,-144.65 124,-129 102.66,-115.9 82.05,-95.62 69,-81.51"/>
<polygon fill="#63b8ff" stroke="#63b8ff" points="71.54,-79.1 62.25,-74.02 66.35,-83.79 71.54,-79.1"/>
</a>
</g>
</g>
<!-- Node12&#45;&gt;Node3 -->
<g id="edge16_Node000012_Node000003" class="edge">
<title>Node12&#45;&gt;Node3</title>
<g id="a_edge16_Node000012_Node000003"><a xlink:title=" ">
<path fill="none" stroke="#63b8ff" d="M225.44,-164.8C209.51,-156.41 191.19,-144.4 179,-129 155.21,-98.96 144.75,-54.2 140.54,-29.17"/>
<polygon fill="#63b8ff" stroke="#63b8ff" points="143.98,-28.54 139.02,-19.18 137.06,-29.59 143.98,-28.54"/>
</a>
</g>
</g>
<!-- Node12&#45;&gt;Node4 -->
<g id="edge24_Node000012_Node000004" class="edge">
<title>Node12&#45;&gt;Node4</title>
<g id="a_edge24_Node000012_Node000004"><a xlink:title=" ">
<path fill="none" stroke="#63b8ff" d="M317.88,-164.99C361.96,-154.67 421.03,-140.85 461.56,-131.37"/>
<polygon fill="#63b8ff" stroke="#63b8ff" points="462.51,-134.74 471.45,-129.05 460.91,-127.92 462.51,-134.74"/>
</a>
</g>
</g>
<!-- Node12&#45;&gt;Node8 -->
<g id="edge15_Node000012_Node000008" class="edge">
<title>Node12&#45;&gt;Node8</title>
<g id="a_edge15_Node000012_Node000008"><a xlink:title=" ">
<path fill="none" stroke="#63b8ff" d="M298.39,-164.9C336.28,-149.23 390.67,-119.93 415,-74 422.77,-59.33 415.98,-40.94 408.63,-27.72"/>
<polygon fill="#63b8ff" stroke="#63b8ff" points="411.58,-25.84 403.37,-19.15 405.61,-29.5 411.58,-25.84"/>
</a>
</g>
</g>
<!-- Node13 -->
<g id="Node000013" class="node">
<title>Node13</title>
<g id="a_Node000013"><a xlink:title=" ">
<polygon fill="#e0e0e0" stroke="#999999" points="405.5,-74 336.5,-74 336.5,-55 405.5,-55 405.5,-74"/>
<text text-anchor="middle" x="371" y="-62" font-family="Helvetica,sans-Serif" font-size="10.00">Eigen/Core</text>
</a>
</g>
</g>
<!-- Node12&#45;&gt;Node13 -->
<g id="edge17_Node000012_Node000013" class="edge">
<title>Node12&#45;&gt;Node13</title>
<g id="a_edge17_Node000012_Node000013"><a xlink:title=" ">
<path fill="none" stroke="#63b8ff" d="M273.53,-164.79C284.21,-154.9 298.65,-141.34 311,-129 326.67,-113.35 343.98,-94.89 355.97,-81.92"/>
<polygon fill="#63b8ff" stroke="#63b8ff" points="358.81,-84.01 363,-74.28 353.66,-79.27 358.81,-84.01"/>
</a>
</g>
</g>
<!-- Node14 -->
<g id="Node000014" class="node">
<title>Node14</title>
<g id="a_Node000014"><a xlink:href="Monomials__fwd_8hpp.html" target="_top" xlink:title="Declaration of Monomial basis.">
<polygon fill="white" stroke="#666666" points="302,-129 188,-129 188,-110 302,-110 302,-129"/>
<text text-anchor="middle" x="245" y="-117" font-family="Helvetica,sans-Serif" font-size="10.00">Monomials_fwd.hpp</text>
</a>
</g>
</g>
<!-- Node12&#45;&gt;Node14 -->
<g id="edge18_Node000012_Node000014" class="edge">
<title>Node12&#45;&gt;Node14</title>
<g id="a_edge18_Node000012_Node000014"><a xlink:title=" ">
<path fill="none" stroke="#63b8ff" d="M254.85,-164.84C253.14,-157.13 251,-147.49 249.15,-139.17"/>
<polygon fill="#63b8ff" stroke="#63b8ff" points="252.53,-138.27 246.95,-129.27 245.7,-139.79 252.53,-138.27"/>
</a>
</g>
</g>
<!-- Node14&#45;&gt;Node2 -->
<g id="edge19_Node000014_Node000002" class="edge">
<title>Node14&#45;&gt;Node2</title>
<g id="a_edge19_Node000014_Node000002"><a xlink:title=" ">
<path fill="none" stroke="#63b8ff" d="M214.47,-109.98C182.3,-101.01 131.44,-86.82 95.83,-76.89"/>
<polygon fill="#63b8ff" stroke="#63b8ff" points="96.34,-73.4 85.77,-74.08 94.46,-80.14 96.34,-73.4"/>
</a>
</g>
</g>
<!-- Node14&#45;&gt;Node8 -->
<g id="edge21_Node000014_Node000008" class="edge">
<title>Node14&#45;&gt;Node8</title>
<g id="a_edge21_Node000014_Node000008"><a xlink:title=" ">
<path fill="none" stroke="#63b8ff" d="M229.55,-109.83C209.64,-97.56 179.35,-74.47 195,-55 216.05,-28.8 314.32,-17.12 365.62,-12.74"/>
<polygon fill="#63b8ff" stroke="#63b8ff" points="366.13,-16.21 375.81,-11.91 365.56,-9.23 366.13,-16.21"/>
</a>
</g>
</g>
<!-- Node14&#45;&gt;Node13 -->
<g id="edge22_Node000014_Node000013" class="edge">
<title>Node14&#45;&gt;Node13</title>
<g id="a_edge22_Node000014_Node000013"><a xlink:title=" ">
<path fill="none" stroke="#63b8ff" d="M265.24,-109.98C285.7,-101.38 317.53,-87.99 340.93,-78.15"/>
<polygon fill="#63b8ff" stroke="#63b8ff" points="342.53,-81.27 350.39,-74.17 339.81,-74.82 342.53,-81.27"/>
</a>
</g>
</g>
<!-- Node15 -->
<g id="Node000015" class="node">
<title>Node15</title>
<g id="a_Node000015"><a xlink:title=" ">
<polygon fill="#e0e0e0" stroke="#999999" points="251.5,-74 204.5,-74 204.5,-55 251.5,-55 251.5,-74"/>
<text text-anchor="middle" x="228" y="-62" font-family="Helvetica,sans-Serif" font-size="10.00">cmath</text>
</a>
</g>
</g>
<!-- Node14&#45;&gt;Node15 -->
<g id="edge20_Node000014_Node000015" class="edge">
<title>Node14&#45;&gt;Node15</title>
<g id="a_edge20_Node000014_Node000015"><a xlink:title=" ">
<path fill="none" stroke="#63b8ff" d="M242.19,-109.75C239.94,-102.72 236.7,-92.62 233.88,-83.84"/>
<polygon fill="#63b8ff" stroke="#63b8ff" points="237.14,-82.54 230.75,-74.09 230.48,-84.68 237.14,-82.54"/>
</a>
</g>
</g>
<!-- Node16 -->
<g id="Node000016" class="node">
<title>Node16</title>
<g id="a_Node000016"><a xlink:title=" ">
<polygon fill="#e0e0e0" stroke="#999999" points="318,-74 270,-74 270,-55 318,-55 318,-74"/>
<text text-anchor="middle" x="294" y="-62" font-family="Helvetica,sans-Serif" font-size="10.00">iosfwd</text>
</a>
</g>
</g>
<!-- Node14&#45;&gt;Node16 -->
<g id="edge23_Node000014_Node000016" class="edge">
<title>Node14&#45;&gt;Node16</title>
<g id="a_edge23_Node000014_Node000016"><a xlink:title=" ">
<path fill="none" stroke="#63b8ff" d="M253.09,-109.75C260.16,-102.11 270.59,-90.82 279.15,-81.56"/>
<polygon fill="#63b8ff" stroke="#63b8ff" points="281.84,-83.81 286.06,-74.09 276.7,-79.06 281.84,-83.81"/>
</a>
</g>
</g>
</g>
</svg>
