<?xml version="1.0" encoding="UTF-8" standalone="no"?>
<!DOCTYPE svg PUBLIC "-//W3C//DTD SVG 1.1//EN"
 "http://www.w3.org/Graphics/SVG/1.1/DTD/svg11.dtd">
<!-- Generated by graphviz version 2.43.0 (0)
 -->
<!-- Title: include/medusa/bits/operators/ImplicitOperators_fwd.hpp Pages: 1 -->
<svg width="451pt" height="379pt"
 viewBox="0.00 0.00 451.00 379.00" xmlns="http://www.w3.org/2000/svg" xmlns:xlink="http://www.w3.org/1999/xlink">
<g id="graph0" class="graph" transform="scale(1 1) rotate(0) translate(4 375)">
<title>include/medusa/bits/operators/ImplicitOperators_fwd.hpp</title>
<!-- Node1 -->
<g id="Node000001" class="node">
<title>Node1</title>
<g id="a_Node000001"><a xlink:title="Declarations of implicit operators.">
<polygon fill="#999999" stroke="#666666" points="309,-371 155,-371 155,-330 309,-330 309,-371"/>
<text text-anchor="start" x="163" y="-359" font-family="Helvetica,sans-Serif" font-size="10.00">include/medusa/bits</text>
<text text-anchor="start" x="163" y="-348" font-family="Helvetica,sans-Serif" font-size="10.00">/operators/ImplicitOperators</text>
<text text-anchor="middle" x="232" y="-337" font-family="Helvetica,sans-Serif" font-size="10.00">_fwd.hpp</text>
</a>
</g>
</g>
<!-- Node2 -->
<g id="Node000002" class="node">
<title>Node2</title>
<g id="a_Node000002"><a xlink:href="ImplicitOperators_8hpp.html" target="_top" xlink:title="Implementations of implicit operators.">
<polygon fill="white" stroke="#666666" points="220.5,-288.5 45.5,-288.5 45.5,-258.5 220.5,-258.5 220.5,-288.5"/>
<text text-anchor="start" x="53.5" y="-276.5" font-family="Helvetica,sans-Serif" font-size="10.00">include/medusa/bits</text>
<text text-anchor="middle" x="133" y="-265.5" font-family="Helvetica,sans-Serif" font-size="10.00">/operators/ImplicitOperators.hpp</text>
</a>
</g>
</g>
<!-- Node1&#45;&gt;Node2 -->
<g id="edge1_Node000001_Node000002" class="edge">
<title>Node1&#45;&gt;Node2</title>
<g id="a_edge1_Node000001_Node000002"><a xlink:title=" ">
<path fill="none" stroke="#63b8ff" d="M197.93,-323.69C182.46,-311.97 164.75,-298.56 151.74,-288.7"/>
<polygon fill="#63b8ff" stroke="#63b8ff" points="196.16,-326.74 206.25,-329.99 200.39,-321.16 196.16,-326.74"/>
</a>
</g>
</g>
<!-- Node9 -->
<g id="Node000009" class="node">
<title>Node9</title>
<g id="a_Node000009"><a xlink:href="ImplicitVectorOperators__fwd_8hpp.html" target="_top" xlink:title="Declarations of implicit vector operators.">
<polygon fill="white" stroke="#666666" points="427.5,-294 242.5,-294 242.5,-253 427.5,-253 427.5,-294"/>
<text text-anchor="start" x="250.5" y="-282" font-family="Helvetica,sans-Serif" font-size="10.00">include/medusa/bits</text>
<text text-anchor="start" x="250.5" y="-271" font-family="Helvetica,sans-Serif" font-size="10.00">/operators/ImplicitVectorOperators</text>
<text text-anchor="middle" x="335" y="-260" font-family="Helvetica,sans-Serif" font-size="10.00">_fwd.hpp</text>
</a>
</g>
</g>
<!-- Node1&#45;&gt;Node9 -->
<g id="edge10_Node000001_Node000009" class="edge">
<title>Node1&#45;&gt;Node9</title>
<g id="a_edge10_Node000001_Node000009"><a xlink:title=" ">
<path fill="none" stroke="#63b8ff" d="M266.89,-324.09C280.31,-314.32 295.42,-303.32 307.98,-294.17"/>
<polygon fill="#63b8ff" stroke="#63b8ff" points="264.82,-321.27 258.79,-329.99 268.94,-326.93 264.82,-321.27"/>
</a>
</g>
</g>
<!-- Node3 -->
<g id="Node000003" class="node">
<title>Node3</title>
<g id="a_Node000003"><a xlink:href="Operators_8hpp.html" target="_top" xlink:title="Header for Operators module.">
<polygon fill="white" stroke="#666666" points="166,-145.5 0,-145.5 0,-126.5 166,-126.5 166,-145.5"/>
<text text-anchor="middle" x="83" y="-133.5" font-family="Helvetica,sans-Serif" font-size="10.00">include/medusa/Operators.hpp</text>
</a>
</g>
</g>
<!-- Node2&#45;&gt;Node3 -->
<g id="edge2_Node000002_Node000003" class="edge">
<title>Node2&#45;&gt;Node3</title>
<g id="a_edge2_Node000002_Node000003"><a xlink:title=" ">
<path fill="none" stroke="#63b8ff" d="M68.26,-254.45C50.16,-246.09 32.56,-234.09 22,-217 14.99,-205.66 16.3,-199.05 22,-187 30.96,-168.06 51,-153.9 65.67,-145.57"/>
<polygon fill="#63b8ff" stroke="#63b8ff" points="67.17,-257.79 77.74,-258.49 69.91,-251.35 67.17,-257.79"/>
</a>
</g>
</g>
<!-- Node6 -->
<g id="Node000006" class="node">
<title>Node6</title>
<g id="a_Node000006"><a xlink:href="ImplicitVectorOperators_8hpp.html" target="_top" xlink:title="Implementations of implicit vector operators.">
<polygon fill="white" stroke="#666666" points="443,-217 237,-217 237,-187 443,-187 443,-217"/>
<text text-anchor="start" x="245" y="-205" font-family="Helvetica,sans-Serif" font-size="10.00">include/medusa/bits</text>
<text text-anchor="middle" x="340" y="-194" font-family="Helvetica,sans-Serif" font-size="10.00">/operators/ImplicitVectorOperators.hpp</text>
</a>
</g>
</g>
<!-- Node2&#45;&gt;Node6 -->
<g id="edge6_Node000002_Node000006" class="edge">
<title>Node2&#45;&gt;Node6</title>
<g id="a_edge6_Node000002_Node000006"><a xlink:title=" ">
<path fill="none" stroke="#63b8ff" d="M184.47,-255.22C219.54,-243.45 265.36,-228.06 298.17,-217.04"/>
<polygon fill="#63b8ff" stroke="#63b8ff" points="183.26,-251.93 174.89,-258.44 185.48,-258.57 183.26,-251.93"/>
</a>
</g>
</g>
<!-- Node8 -->
<g id="Node000008" class="node">
<title>Node8</title>
<g id="a_Node000008"><a xlink:href="ImplicitOperators_8cpp.html" target="_top" xlink:title="Instantiations of implicit operators.">
<polygon fill="white" stroke="#666666" points="219,-211.5 31,-211.5 31,-192.5 219,-192.5 219,-211.5"/>
<text text-anchor="middle" x="125" y="-199.5" font-family="Helvetica,sans-Serif" font-size="10.00">src/operators/ImplicitOperators.cpp</text>
</a>
</g>
</g>
<!-- Node2&#45;&gt;Node8 -->
<g id="edge9_Node000002_Node000008" class="edge">
<title>Node2&#45;&gt;Node8</title>
<g id="a_edge9_Node000002_Node000008"><a xlink:title=" ">
<path fill="none" stroke="#63b8ff" d="M130.23,-248.44C128.77,-235.74 127.06,-220.94 126.01,-211.77"/>
<polygon fill="#63b8ff" stroke="#63b8ff" points="126.76,-248.9 131.38,-258.44 133.71,-248.1 126.76,-248.9"/>
</a>
</g>
</g>
<!-- Node4 -->
<g id="Node000004" class="node">
<title>Node4</title>
<g id="a_Node000004"><a xlink:href="Medusa_8hpp.html" target="_top" xlink:title="Main header file that includes most other components.">
<polygon fill="white" stroke="#666666" points="161,-19 5,-19 5,0 161,0 161,-19"/>
<text text-anchor="middle" x="83" y="-7" font-family="Helvetica,sans-Serif" font-size="10.00">include/medusa/Medusa.hpp</text>
</a>
</g>
</g>
<!-- Node3&#45;&gt;Node4 -->
<g id="edge3_Node000003_Node000004" class="edge">
<title>Node3&#45;&gt;Node4</title>
<g id="a_edge3_Node000003_Node000004"><a xlink:title=" ">
<path fill="none" stroke="#63b8ff" d="M70.25,-118.19C64.03,-108.93 57.21,-96.92 54,-85 50.54,-72.12 50.2,-67.78 54,-55 58.1,-41.21 67.97,-27.7 75.06,-19.25"/>
<polygon fill="#63b8ff" stroke="#63b8ff" points="67.46,-120.31 76.11,-126.43 73.16,-116.25 67.46,-120.31"/>
</a>
</g>
</g>
<!-- Node5 -->
<g id="Node000005" class="node">
<title>Node5</title>
<g id="a_Node000005"><a xlink:href="Medusa__fwd_8hpp.html" target="_top" xlink:title="Main header file that includes only declarations for some heavy classes such as mm::WLS to reduce com...">
<polygon fill="white" stroke="#666666" points="198.5,-85 63.5,-85 63.5,-55 198.5,-55 198.5,-85"/>
<text text-anchor="start" x="71.5" y="-73" font-family="Helvetica,sans-Serif" font-size="10.00">include/medusa/Medusa</text>
<text text-anchor="middle" x="131" y="-62" font-family="Helvetica,sans-Serif" font-size="10.00">_fwd.hpp</text>
</a>
</g>
</g>
<!-- Node3&#45;&gt;Node5 -->
<g id="edge4_Node000003_Node000005" class="edge">
<title>Node3&#45;&gt;Node5</title>
<g id="a_edge4_Node000003_Node000005"><a xlink:title=" ">
<path fill="none" stroke="#63b8ff" d="M95.57,-118.24C103.23,-108.02 112.92,-95.1 120.23,-85.36"/>
<polygon fill="#63b8ff" stroke="#63b8ff" points="92.67,-116.27 89.47,-126.37 98.27,-120.47 92.67,-116.27"/>
</a>
</g>
</g>
<!-- Node5&#45;&gt;Node4 -->
<g id="edge5_Node000005_Node000004" class="edge">
<title>Node5&#45;&gt;Node4</title>
<g id="a_edge5_Node000005_Node000004"><a xlink:title=" ">
<path fill="none" stroke="#63b8ff" d="M113.02,-47.09C105.09,-37.42 96.22,-26.61 90.19,-19.27"/>
<polygon fill="#63b8ff" stroke="#63b8ff" points="110.33,-49.33 119.38,-54.84 115.74,-44.89 110.33,-49.33"/>
</a>
</g>
</g>
<!-- Node6&#45;&gt;Node3 -->
<g id="edge7_Node000006_Node000003" class="edge">
<title>Node6&#45;&gt;Node3</title>
<g id="a_edge7_Node000006_Node000003"><a xlink:title=" ">
<path fill="none" stroke="#63b8ff" d="M273.82,-184.52C223.76,-172.05 157.03,-155.44 117.2,-145.52"/>
<polygon fill="#63b8ff" stroke="#63b8ff" points="273.05,-187.93 283.6,-186.95 274.74,-181.14 273.05,-187.93"/>
</a>
</g>
</g>
<!-- Node7 -->
<g id="Node000007" class="node">
<title>Node7</title>
<g id="a_Node000007"><a xlink:href="ImplicitVectorOperators_8cpp.html" target="_top" xlink:title="Instantiations of implicit vector operators.">
<polygon fill="white" stroke="#666666" points="415.5,-151 264.5,-151 264.5,-121 415.5,-121 415.5,-151"/>
<text text-anchor="start" x="272.5" y="-139" font-family="Helvetica,sans-Serif" font-size="10.00">src/operators/ImplicitVector</text>
<text text-anchor="middle" x="340" y="-128" font-family="Helvetica,sans-Serif" font-size="10.00">Operators.cpp</text>
</a>
</g>
</g>
<!-- Node6&#45;&gt;Node7 -->
<g id="edge8_Node000006_Node000007" class="edge">
<title>Node6&#45;&gt;Node7</title>
<g id="a_edge8_Node000006_Node000007"><a xlink:title=" ">
<path fill="none" stroke="#63b8ff" d="M340,-176.54C340,-167.96 340,-158.61 340,-151.16"/>
<polygon fill="#63b8ff" stroke="#63b8ff" points="336.5,-176.8 340,-186.8 343.5,-176.8 336.5,-176.8"/>
</a>
</g>
</g>
<!-- Node9&#45;&gt;Node6 -->
<g id="edge11_Node000009_Node000006" class="edge">
<title>Node9&#45;&gt;Node6</title>
<g id="a_edge11_Node000009_Node000006"><a xlink:title=" ">
<path fill="none" stroke="#63b8ff" d="M337.15,-242.66C337.79,-233.76 338.46,-224.42 338.99,-217.04"/>
<polygon fill="#63b8ff" stroke="#63b8ff" points="333.65,-242.54 336.42,-252.77 340.63,-243.05 333.65,-242.54"/>
</a>
</g>
</g>
</g>
</svg>
