<?xml version="1.0" encoding="UTF-8" standalone="no"?>
<!DOCTYPE svg PUBLIC "-//W3C//DTD SVG 1.1//EN"
 "http://www.w3.org/Graphics/SVG/1.1/DTD/svg11.dtd">
<!-- Generated by graphviz version 2.43.0 (0)
 -->
<!-- Title: include/medusa/bits/operators/ImplicitOperators.hpp Pages: 1 -->
<svg width="1128pt" height="324pt"
 viewBox="0.00 0.00 1127.71 324.00" xmlns="http://www.w3.org/2000/svg" xmlns:xlink="http://www.w3.org/1999/xlink">
<g id="graph0" class="graph" transform="scale(1 1) rotate(0) translate(4 320)">
<title>include/medusa/bits/operators/ImplicitOperators.hpp</title>
<!-- Node1 -->
<g id="Node000001" class="node">
<title>Node1</title>
<g id="a_Node000001"><a xlink:title="Implementations of implicit operators.">
<polygon fill="#999999" stroke="#666666" points="507.71,-316 332.71,-316 332.71,-286 507.71,-286 507.71,-316"/>
<text text-anchor="start" x="340.71" y="-304" font-family="Helvetica,sans-Serif" font-size="10.00">include/medusa/bits</text>
<text text-anchor="middle" x="420.21" y="-293" font-family="Helvetica,sans-Serif" font-size="10.00">/operators/ImplicitOperators.hpp</text>
</a>
</g>
</g>
<!-- Node2 -->
<g id="Node000002" class="node">
<title>Node2</title>
<g id="a_Node000002"><a xlink:href="ImplicitOperators__fwd_8hpp.html" target="_top" xlink:title="Declarations of implicit operators.">
<polygon fill="white" stroke="#666666" points="415.71,-250 270.71,-250 270.71,-231 415.71,-231 415.71,-250"/>
<text text-anchor="middle" x="343.21" y="-238" font-family="Helvetica,sans-Serif" font-size="10.00">ImplicitOperators_fwd.hpp</text>
</a>
</g>
</g>
<!-- Node1&#45;&gt;Node2 -->
<g id="edge1_Node000001_Node000002" class="edge">
<title>Node1&#45;&gt;Node2</title>
<g id="a_edge1_Node000001_Node000002"><a xlink:title=" ">
<path fill="none" stroke="#63b8ff" d="M401.57,-285.84C389.82,-276.91 374.67,-265.41 362.76,-256.35"/>
<polygon fill="#63b8ff" stroke="#63b8ff" points="364.82,-253.53 354.74,-250.27 360.59,-259.1 364.82,-253.53"/>
</a>
</g>
</g>
<!-- Node17 -->
<g id="Node000017" class="node">
<title>Node17</title>
<g id="a_Node000017"><a xlink:href="ShapeStorage__fwd_8hpp.html" target="_top" xlink:title="Base class and interface for storing and accessing computed shapes.">
<polygon fill="white" stroke="#666666" points="577.21,-250 449.21,-250 449.21,-231 577.21,-231 577.21,-250"/>
<text text-anchor="middle" x="513.21" y="-238" font-family="Helvetica,sans-Serif" font-size="10.00">ShapeStorage_fwd.hpp</text>
</a>
</g>
</g>
<!-- Node1&#45;&gt;Node17 -->
<g id="edge24_Node000001_Node000017" class="edge">
<title>Node1&#45;&gt;Node17</title>
<g id="a_edge24_Node000001_Node000017"><a xlink:title=" ">
<path fill="none" stroke="#63b8ff" d="M442.72,-285.84C457.27,-276.68 476.14,-264.82 490.69,-255.66"/>
<polygon fill="#63b8ff" stroke="#63b8ff" points="492.94,-258.38 499.54,-250.09 489.22,-252.46 492.94,-258.38"/>
</a>
</g>
</g>
<!-- Node3 -->
<g id="Node000003" class="node">
<title>Node3</title>
<g id="a_Node000003"><a xlink:href="Config_8hpp.html" target="_top" xlink:title="Contains compile time settings for the project, such as Eigen plugins.">
<polygon fill="white" stroke="#666666" points="406.21,-74 296.21,-74 296.21,-55 406.21,-55 406.21,-74"/>
<text text-anchor="middle" x="351.21" y="-62" font-family="Helvetica,sans-Serif" font-size="10.00">medusa/Config.hpp</text>
</a>
</g>
</g>
<!-- Node2&#45;&gt;Node3 -->
<g id="edge2_Node000002_Node000003" class="edge">
<title>Node2&#45;&gt;Node3</title>
<g id="a_edge2_Node000002_Node000003"><a xlink:title=" ">
<path fill="none" stroke="#63b8ff" d="M341.65,-230.95C338.11,-210.13 330.27,-155.16 337.21,-110 338.56,-101.19 341.33,-91.74 344.06,-83.82"/>
<polygon fill="#63b8ff" stroke="#63b8ff" points="347.44,-84.77 347.61,-74.18 340.87,-82.35 347.44,-84.77"/>
</a>
</g>
</g>
<!-- Node5 -->
<g id="Node000005" class="node">
<title>Node5</title>
<g id="a_Node000005"><a xlink:href="Operators__fwd_8hpp.html" target="_top" xlink:title="File defining basic differential operator families.">
<polygon fill="white" stroke="#666666" points="285.21,-195 129.21,-195 129.21,-165 285.21,-165 285.21,-195"/>
<text text-anchor="start" x="137.21" y="-183" font-family="Helvetica,sans-Serif" font-size="10.00">medusa/bits/approximations</text>
<text text-anchor="middle" x="207.21" y="-172" font-family="Helvetica,sans-Serif" font-size="10.00">/Operators_fwd.hpp</text>
</a>
</g>
</g>
<!-- Node2&#45;&gt;Node5 -->
<g id="edge4_Node000002_Node000005" class="edge">
<title>Node2&#45;&gt;Node5</title>
<g id="a_edge4_Node000002_Node000005"><a xlink:title=" ">
<path fill="none" stroke="#63b8ff" d="M323.43,-230.99C304.11,-222.68 274.1,-209.78 249.42,-199.16"/>
<polygon fill="#63b8ff" stroke="#63b8ff" points="250.47,-195.8 239.9,-195.06 247.71,-202.23 250.47,-195.8"/>
</a>
</g>
</g>
<!-- Node11 -->
<g id="Node000011" class="node">
<title>Node11</title>
<g id="a_Node000011"><a xlink:href="assert_8hpp.html" target="_top" xlink:title="Implementation of custom assert and debug utilities.">
<polygon fill="white" stroke="#666666" points="806.71,-129 651.71,-129 651.71,-110 806.71,-110 806.71,-129"/>
<text text-anchor="middle" x="729.21" y="-117" font-family="Helvetica,sans-Serif" font-size="10.00">medusa/bits/utils/assert.hpp</text>
</a>
</g>
</g>
<!-- Node2&#45;&gt;Node11 -->
<g id="edge23_Node000002_Node000011" class="edge">
<title>Node2&#45;&gt;Node11</title>
<g id="a_edge23_Node000002_Node000011"><a xlink:title=" ">
<path fill="none" stroke="#63b8ff" d="M411.43,-230.99C477.37,-222.23 572.27,-208.06 607.21,-195 646.61,-180.28 687.32,-152.39 710.33,-135.23"/>
<polygon fill="#63b8ff" stroke="#63b8ff" points="712.66,-137.85 718.51,-129.01 708.43,-132.27 712.66,-137.85"/>
</a>
</g>
</g>
<!-- Node4 -->
<g id="Node000004" class="node">
<title>Node4</title>
<g id="a_Node000004"><a xlink:title=" ">
<polygon fill="#e0e0e0" stroke="#999999" points="608.71,-19 561.71,-19 561.71,0 608.71,0 608.71,-19"/>
<text text-anchor="middle" x="585.21" y="-7" font-family="Helvetica,sans-Serif" font-size="10.00">vector</text>
</a>
</g>
</g>
<!-- Node3&#45;&gt;Node4 -->
<g id="edge3_Node000003_Node000004" class="edge">
<title>Node3&#45;&gt;Node4</title>
<g id="a_edge3_Node000003_Node000004"><a xlink:title=" ">
<path fill="none" stroke="#63b8ff" d="M388.8,-54.98C433.8,-44.79 508.46,-27.88 551.61,-18.11"/>
<polygon fill="#63b8ff" stroke="#63b8ff" points="552.62,-21.47 561.6,-15.85 551.08,-14.64 552.62,-21.47"/>
</a>
</g>
</g>
<!-- Node5&#45;&gt;Node3 -->
<g id="edge5_Node000005_Node000003" class="edge">
<title>Node5&#45;&gt;Node3</title>
<g id="a_edge5_Node000005_Node000003"><a xlink:title=" ">
<path fill="none" stroke="#63b8ff" d="M225.15,-164.85C252.37,-143.41 303.85,-102.82 331.87,-80.74"/>
<polygon fill="#63b8ff" stroke="#63b8ff" points="334.39,-83.21 340.08,-74.27 330.06,-77.71 334.39,-83.21"/>
</a>
</g>
</g>
<!-- Node5&#45;&gt;Node4 -->
<g id="edge7_Node000005_Node000004" class="edge">
<title>Node5&#45;&gt;Node4</title>
<g id="a_edge7_Node000005_Node000004"><a xlink:title=" ">
<path fill="none" stroke="#63b8ff" d="M211.96,-164.63C221.54,-138.08 245.88,-81.67 287.21,-55 330.39,-27.14 482.84,-15.83 551.38,-12.08"/>
<polygon fill="#63b8ff" stroke="#63b8ff" points="551.83,-15.56 561.63,-11.54 551.46,-8.57 551.83,-15.56"/>
</a>
</g>
</g>
<!-- Node6 -->
<g id="Node000006" class="node">
<title>Node6</title>
<g id="a_Node000006"><a xlink:title=" ">
<polygon fill="#e0e0e0" stroke="#999999" points="118.21,-19 76.21,-19 76.21,0 118.21,0 118.21,-19"/>
<text text-anchor="middle" x="97.21" y="-7" font-family="Helvetica,sans-Serif" font-size="10.00">array</text>
</a>
</g>
</g>
<!-- Node5&#45;&gt;Node6 -->
<g id="edge6_Node000005_Node000006" class="edge">
<title>Node5&#45;&gt;Node6</title>
<g id="a_edge6_Node000005_Node000006"><a xlink:title=" ">
<path fill="none" stroke="#63b8ff" d="M128.96,-169.04C80.63,-161.1 25.07,-148.11 10.21,-129 2.13,-118.62 -8.21,-87.39 12.21,-55 24.18,-36.01 47.1,-24.68 66.13,-18.21"/>
<polygon fill="#63b8ff" stroke="#63b8ff" points="67.41,-21.48 75.93,-15.17 65.34,-14.79 67.41,-21.48"/>
</a>
</g>
</g>
<!-- Node7 -->
<g id="Node000007" class="node">
<title>Node7</title>
<g id="a_Node000007"><a xlink:title=" ">
<polygon fill="#e0e0e0" stroke="#999999" points="195.71,-74 126.71,-74 126.71,-55 195.71,-55 195.71,-74"/>
<text text-anchor="middle" x="161.21" y="-62" font-family="Helvetica,sans-Serif" font-size="10.00">Eigen/Core</text>
</a>
</g>
</g>
<!-- Node5&#45;&gt;Node7 -->
<g id="edge8_Node000005_Node000007" class="edge">
<title>Node5&#45;&gt;Node7</title>
<g id="a_edge8_Node000005_Node000007"><a xlink:title=" ">
<path fill="none" stroke="#63b8ff" d="M200.65,-164.65C196.16,-154.7 190.16,-141.11 185.21,-129 179.01,-113.83 172.46,-96.4 167.77,-83.65"/>
<polygon fill="#63b8ff" stroke="#63b8ff" points="171.04,-82.38 164.32,-74.18 164.46,-84.78 171.04,-82.38"/>
</a>
</g>
</g>
<!-- Node8 -->
<g id="Node000008" class="node">
<title>Node8</title>
<g id="a_Node000008"><a xlink:href="Monomials__fwd_8hpp.html" target="_top" xlink:title="Declaration of Monomial basis.">
<polygon fill="white" stroke="#666666" points="133.21,-129 19.21,-129 19.21,-110 133.21,-110 133.21,-129"/>
<text text-anchor="middle" x="76.21" y="-117" font-family="Helvetica,sans-Serif" font-size="10.00">Monomials_fwd.hpp</text>
</a>
</g>
</g>
<!-- Node5&#45;&gt;Node8 -->
<g id="edge9_Node000005_Node000008" class="edge">
<title>Node5&#45;&gt;Node8</title>
<g id="a_edge9_Node000005_Node000008"><a xlink:title=" ">
<path fill="none" stroke="#63b8ff" d="M175.83,-164.99C154.26,-155.36 125.86,-142.67 104.89,-133.31"/>
<polygon fill="#63b8ff" stroke="#63b8ff" points="106.11,-130.02 95.55,-129.14 103.26,-136.41 106.11,-130.02"/>
</a>
</g>
</g>
<!-- Node5&#45;&gt;Node11 -->
<g id="edge15_Node000005_Node000011" class="edge">
<title>Node5&#45;&gt;Node11</title>
<g id="a_edge15_Node000005_Node000011"><a xlink:title=" ">
<path fill="none" stroke="#63b8ff" d="M285.36,-170.24C381.32,-159.49 543.56,-141.3 643.05,-130.16"/>
<polygon fill="#63b8ff" stroke="#63b8ff" points="643.53,-133.62 653.07,-129.03 642.75,-126.67 643.53,-133.62"/>
</a>
</g>
</g>
<!-- Node8&#45;&gt;Node3 -->
<g id="edge10_Node000008_Node000003" class="edge">
<title>Node8&#45;&gt;Node3</title>
<g id="a_edge10_Node000008_Node000003"><a xlink:title=" ">
<path fill="none" stroke="#63b8ff" d="M120.39,-109.98C168.36,-100.74 245.02,-85.97 296.69,-76.01"/>
<polygon fill="#63b8ff" stroke="#63b8ff" points="297.52,-79.41 306.68,-74.08 296.2,-72.54 297.52,-79.41"/>
</a>
</g>
</g>
<!-- Node8&#45;&gt;Node6 -->
<g id="edge12_Node000008_Node000006" class="edge">
<title>Node8&#45;&gt;Node6</title>
<g id="a_edge12_Node000008_Node000006"><a xlink:title=" ">
<path fill="none" stroke="#63b8ff" d="M77.93,-109.66C81.33,-92.17 88.98,-52.8 93.56,-29.27"/>
<polygon fill="#63b8ff" stroke="#63b8ff" points="97.05,-29.64 95.52,-19.16 90.18,-28.31 97.05,-29.64"/>
</a>
</g>
</g>
<!-- Node8&#45;&gt;Node7 -->
<g id="edge13_Node000008_Node000007" class="edge">
<title>Node8&#45;&gt;Node7</title>
<g id="a_edge13_Node000008_Node000007"><a xlink:title=" ">
<path fill="none" stroke="#63b8ff" d="M89.86,-109.98C103.04,-101.77 123.23,-89.18 138.78,-79.49"/>
<polygon fill="#63b8ff" stroke="#63b8ff" points="140.67,-82.43 147.3,-74.17 136.96,-76.49 140.67,-82.43"/>
</a>
</g>
</g>
<!-- Node9 -->
<g id="Node000009" class="node">
<title>Node9</title>
<g id="a_Node000009"><a xlink:title=" ">
<polygon fill="#e0e0e0" stroke="#999999" points="68.71,-74 21.71,-74 21.71,-55 68.71,-55 68.71,-74"/>
<text text-anchor="middle" x="45.21" y="-62" font-family="Helvetica,sans-Serif" font-size="10.00">cmath</text>
</a>
</g>
</g>
<!-- Node8&#45;&gt;Node9 -->
<g id="edge11_Node000008_Node000009" class="edge">
<title>Node8&#45;&gt;Node9</title>
<g id="a_edge11_Node000008_Node000009"><a xlink:title=" ">
<path fill="none" stroke="#63b8ff" d="M71.09,-109.75C66.84,-102.49 60.68,-91.95 55.43,-82.98"/>
<polygon fill="#63b8ff" stroke="#63b8ff" points="58.3,-80.95 50.23,-74.09 52.26,-84.49 58.3,-80.95"/>
</a>
</g>
</g>
<!-- Node10 -->
<g id="Node000010" class="node">
<title>Node10</title>
<g id="a_Node000010"><a xlink:title=" ">
<polygon fill="#e0e0e0" stroke="#999999" points="661.21,-74 613.21,-74 613.21,-55 661.21,-55 661.21,-74"/>
<text text-anchor="middle" x="637.21" y="-62" font-family="Helvetica,sans-Serif" font-size="10.00">iosfwd</text>
</a>
</g>
</g>
<!-- Node8&#45;&gt;Node10 -->
<g id="edge14_Node000008_Node000010" class="edge">
<title>Node8&#45;&gt;Node10</title>
<g id="a_edge14_Node000008_Node000010"><a xlink:title=" ">
<path fill="none" stroke="#63b8ff" d="M133.35,-113.1C249.36,-102.14 509.44,-77.57 602.92,-68.74"/>
<polygon fill="#63b8ff" stroke="#63b8ff" points="603.35,-72.21 612.97,-67.79 602.69,-65.25 603.35,-72.21"/>
</a>
</g>
</g>
<!-- Node12 -->
<g id="Node000012" class="node">
<title>Node12</title>
<g id="a_Node000012"><a xlink:title=" ">
<polygon fill="#e0e0e0" stroke="#999999" points="811.21,-74 679.21,-74 679.21,-55 811.21,-55 811.21,-74"/>
<text text-anchor="middle" x="745.21" y="-62" font-family="Helvetica,sans-Serif" font-size="10.00">tinyformat/tinyformat.h</text>
</a>
</g>
</g>
<!-- Node11&#45;&gt;Node12 -->
<g id="edge16_Node000011_Node000012" class="edge">
<title>Node11&#45;&gt;Node12</title>
<g id="a_edge16_Node000011_Node000012"><a xlink:title=" ">
<path fill="none" stroke="#63b8ff" d="M731.85,-109.75C733.97,-102.72 737.02,-92.62 739.67,-83.84"/>
<polygon fill="#63b8ff" stroke="#63b8ff" points="743.07,-84.67 742.61,-74.09 736.37,-82.65 743.07,-84.67"/>
</a>
</g>
</g>
<!-- Node13 -->
<g id="Node000013" class="node">
<title>Node13</title>
<g id="a_Node000013"><a xlink:href="print_8hpp.html" target="_top" xlink:title="Printing helpers for std types.">
<polygon fill="white" stroke="#666666" points="961.21,-74 901.21,-74 901.21,-55 961.21,-55 961.21,-74"/>
<text text-anchor="middle" x="931.21" y="-62" font-family="Helvetica,sans-Serif" font-size="10.00">print.hpp</text>
</a>
</g>
</g>
<!-- Node11&#45;&gt;Node13 -->
<g id="edge17_Node000011_Node000013" class="edge">
<title>Node11&#45;&gt;Node13</title>
<g id="a_edge17_Node000011_Node000013"><a xlink:title=" ">
<path fill="none" stroke="#63b8ff" d="M761.66,-109.98C796.98,-100.72 853.48,-85.89 891.44,-75.93"/>
<polygon fill="#63b8ff" stroke="#63b8ff" points="892.36,-79.31 901.14,-73.39 890.58,-72.54 892.36,-79.31"/>
</a>
</g>
</g>
<!-- Node13&#45;&gt;Node4 -->
<g id="edge19_Node000013_Node000004" class="edge">
<title>Node13&#45;&gt;Node4</title>
<g id="a_edge19_Node000013_Node000004"><a xlink:title=" ">
<path fill="none" stroke="#63b8ff" d="M900.94,-57.47C896.35,-56.61 891.66,-55.76 887.21,-55 790.02,-38.46 674.62,-22.46 618.79,-14.95"/>
<polygon fill="#63b8ff" stroke="#63b8ff" points="619.13,-11.47 608.76,-13.61 618.2,-18.4 619.13,-11.47"/>
</a>
</g>
</g>
<!-- Node13&#45;&gt;Node6 -->
<g id="edge20_Node000013_Node000006" class="edge">
<title>Node13&#45;&gt;Node6</title>
<g id="a_edge20_Node000013_Node000006"><a xlink:title=" ">
<path fill="none" stroke="#63b8ff" d="M901.06,-61.07C878.74,-59.3 847.59,-56.89 820.21,-55 552.39,-36.5 228.49,-17.91 128.26,-12.24"/>
<polygon fill="#63b8ff" stroke="#63b8ff" points="128.39,-8.75 118.21,-11.68 128,-15.74 128.39,-8.75"/>
</a>
</g>
</g>
<!-- Node14 -->
<g id="Node000014" class="node">
<title>Node14</title>
<g id="a_Node000014"><a xlink:title=" ">
<polygon fill="#e0e0e0" stroke="#999999" points="996.21,-19 936.21,-19 936.21,0 996.21,0 996.21,-19"/>
<text text-anchor="middle" x="966.21" y="-7" font-family="Helvetica,sans-Serif" font-size="10.00">iostream</text>
</a>
</g>
</g>
<!-- Node13&#45;&gt;Node14 -->
<g id="edge18_Node000013_Node000014" class="edge">
<title>Node13&#45;&gt;Node14</title>
<g id="a_edge18_Node000013_Node000014"><a xlink:title=" ">
<path fill="none" stroke="#63b8ff" d="M936.99,-54.75C941.83,-47.42 948.89,-36.73 954.85,-27.7"/>
<polygon fill="#63b8ff" stroke="#63b8ff" points="957.94,-29.36 960.53,-19.09 952.1,-25.5 957.94,-29.36"/>
</a>
</g>
</g>
<!-- Node15 -->
<g id="Node000015" class="node">
<title>Node15</title>
<g id="a_Node000015"><a xlink:title=" ">
<polygon fill="#e0e0e0" stroke="#999999" points="917.71,-19 872.71,-19 872.71,0 917.71,0 917.71,-19"/>
<text text-anchor="middle" x="895.21" y="-7" font-family="Helvetica,sans-Serif" font-size="10.00">utility</text>
</a>
</g>
</g>
<!-- Node13&#45;&gt;Node15 -->
<g id="edge21_Node000013_Node000015" class="edge">
<title>Node13&#45;&gt;Node15</title>
<g id="a_edge21_Node000013_Node000015"><a xlink:title=" ">
<path fill="none" stroke="#63b8ff" d="M925.26,-54.75C920.23,-47.34 912.87,-36.5 906.69,-27.41"/>
<polygon fill="#63b8ff" stroke="#63b8ff" points="909.55,-25.39 901.04,-19.09 903.76,-29.33 909.55,-25.39"/>
</a>
</g>
</g>
<!-- Node16 -->
<g id="Node000016" class="node">
<title>Node16</title>
<g id="a_Node000016"><a xlink:title=" ">
<polygon fill="#e0e0e0" stroke="#999999" points="1119.71,-19 1078.71,-19 1078.71,0 1119.71,0 1119.71,-19"/>
<text text-anchor="middle" x="1099.21" y="-7" font-family="Helvetica,sans-Serif" font-size="10.00">tuple</text>
</a>
</g>
</g>
<!-- Node13&#45;&gt;Node16 -->
<g id="edge22_Node000013_Node000016" class="edge">
<title>Node13&#45;&gt;Node16</title>
<g id="a_edge22_Node000013_Node000016"><a xlink:title=" ">
<path fill="none" stroke="#63b8ff" d="M958.2,-54.98C988.5,-45.43 1037.53,-29.96 1069.06,-20.01"/>
<polygon fill="#63b8ff" stroke="#63b8ff" points="1070.15,-23.34 1078.64,-16.99 1068.05,-16.66 1070.15,-23.34"/>
</a>
</g>
</g>
<!-- Node17&#45;&gt;Node3 -->
<g id="edge25_Node000017_Node000003" class="edge">
<title>Node17&#45;&gt;Node3</title>
<g id="a_edge25_Node000017_Node000003"><a xlink:title=" ">
<path fill="none" stroke="#63b8ff" d="M499.14,-230.88C472.99,-214.2 416.53,-175.08 383.21,-129 372.93,-114.79 364.21,-96.8 358.48,-83.6"/>
<polygon fill="#63b8ff" stroke="#63b8ff" points="361.64,-82.08 354.55,-74.21 355.18,-84.78 361.64,-82.08"/>
</a>
</g>
</g>
<!-- Node17&#45;&gt;Node5 -->
<g id="edge40_Node000017_Node000005" class="edge">
<title>Node17&#45;&gt;Node5</title>
<g id="a_edge40_Node000017_Node000005"><a xlink:title=" ">
<path fill="none" stroke="#63b8ff" d="M468.71,-230.99C422.19,-222.1 348.1,-207.94 290.64,-196.95"/>
<polygon fill="#63b8ff" stroke="#63b8ff" points="290.96,-193.45 280.48,-195.01 289.64,-200.32 290.96,-193.45"/>
</a>
</g>
</g>
<!-- Node17&#45;&gt;Node7 -->
<g id="edge43_Node000017_Node000007" class="edge">
<title>Node17&#45;&gt;Node7</title>
<g id="a_edge43_Node000017_Node000007"><a xlink:title=" ">
<path fill="none" stroke="#63b8ff" d="M492.32,-230.87C471.57,-222.18 438.94,-208.21 411.21,-195 327.34,-155.04 230.21,-103.04 185.73,-78.9"/>
<polygon fill="#63b8ff" stroke="#63b8ff" points="187.28,-75.75 176.82,-74.05 183.93,-81.9 187.28,-75.75"/>
</a>
</g>
</g>
<!-- Node17&#45;&gt;Node10 -->
<g id="edge41_Node000017_Node000010" class="edge">
<title>Node17&#45;&gt;Node10</title>
<g id="a_edge41_Node000017_Node000010"><a xlink:title=" ">
<path fill="none" stroke="#63b8ff" d="M577.56,-238.64C687.72,-236.29 907.18,-227.55 976.21,-195 1013.73,-177.31 1026.33,-167.33 1042.21,-129 1073.09,-54.43 774.08,-86.12 671.4,-73.65"/>
<polygon fill="#63b8ff" stroke="#63b8ff" points="671.67,-70.15 661.26,-72.16 670.64,-77.08 671.67,-70.15"/>
</a>
</g>
</g>
<!-- Node17&#45;&gt;Node16 -->
<g id="edge42_Node000017_Node000016" class="edge">
<title>Node17&#45;&gt;Node16</title>
<g id="a_edge42_Node000017_Node000016"><a xlink:title=" ">
<path fill="none" stroke="#63b8ff" d="M577.41,-240C694.81,-239.91 938.78,-234.75 1012.21,-195 1070,-163.71 1078.67,-137.05 1097.21,-74 1101.49,-59.43 1101.74,-42.17 1101.07,-29.32"/>
<polygon fill="#63b8ff" stroke="#63b8ff" points="1104.55,-29.05 1100.31,-19.35 1097.58,-29.58 1104.55,-29.05"/>
</a>
</g>
</g>
<!-- Node18 -->
<g id="Node000018" class="node">
<title>Node18</title>
<g id="a_Node000018"><a xlink:href="Range__fwd_8hpp.html" target="_top" xlink:title="Declaration of Range.">
<polygon fill="white" stroke="#666666" points="598.21,-195 458.21,-195 458.21,-165 598.21,-165 598.21,-195"/>
<text text-anchor="start" x="466.21" y="-183" font-family="Helvetica,sans-Serif" font-size="10.00">medusa/bits/types/Range</text>
<text text-anchor="middle" x="528.21" y="-172" font-family="Helvetica,sans-Serif" font-size="10.00">_fwd.hpp</text>
</a>
</g>
</g>
<!-- Node17&#45;&gt;Node18 -->
<g id="edge26_Node000017_Node000018" class="edge">
<title>Node17&#45;&gt;Node18</title>
<g id="a_edge26_Node000017_Node000018"><a xlink:title=" ">
<path fill="none" stroke="#63b8ff" d="M515.42,-230.87C517.17,-224.03 519.71,-214.14 522.06,-204.97"/>
<polygon fill="#63b8ff" stroke="#63b8ff" points="525.49,-205.67 524.59,-195.11 518.71,-203.93 525.49,-205.67"/>
</a>
</g>
</g>
<!-- Node21 -->
<g id="Node000021" class="node">
<title>Node21</title>
<g id="a_Node000021"><a xlink:href="stdtypesutils_8hpp.html" target="_top" xlink:title="Declaration of utilities for std types.">
<polygon fill="white" stroke="#666666" points="967.21,-189.5 779.21,-189.5 779.21,-170.5 967.21,-170.5 967.21,-189.5"/>
<text text-anchor="middle" x="873.21" y="-177.5" font-family="Helvetica,sans-Serif" font-size="10.00">medusa/bits/utils/stdtypesutils.hpp</text>
</a>
</g>
</g>
<!-- Node17&#45;&gt;Node21 -->
<g id="edge33_Node000017_Node000021" class="edge">
<title>Node17&#45;&gt;Node21</title>
<g id="a_edge33_Node000017_Node000021"><a xlink:title=" ">
<path fill="none" stroke="#63b8ff" d="M565.55,-230.99C630.61,-220.42 741.49,-202.4 810.87,-191.13"/>
<polygon fill="#63b8ff" stroke="#63b8ff" points="811.49,-194.58 820.8,-189.52 810.36,-187.67 811.49,-194.58"/>
</a>
</g>
</g>
<!-- Node18&#45;&gt;Node3 -->
<g id="edge27_Node000018_Node000003" class="edge">
<title>Node18&#45;&gt;Node3</title>
<g id="a_edge27_Node000018_Node000003"><a xlink:title=" ">
<path fill="none" stroke="#63b8ff" d="M482.32,-164.99C459.16,-156.65 431.37,-144.63 409.21,-129 390.99,-116.15 374.29,-96.69 363.54,-82.7"/>
<polygon fill="#63b8ff" stroke="#63b8ff" points="366.16,-80.36 357.38,-74.42 360.54,-84.54 366.16,-80.36"/>
</a>
</g>
</g>
<!-- Node18&#45;&gt;Node4 -->
<g id="edge31_Node000018_Node000004" class="edge">
<title>Node18&#45;&gt;Node4</title>
<g id="a_edge31_Node000018_Node000004"><a xlink:title=" ">
<path fill="none" stroke="#63b8ff" d="M541.95,-164.91C550.32,-155.5 560.46,-142.43 566.21,-129 580.37,-95.91 584.07,-53.53 584.98,-29.45"/>
<polygon fill="#63b8ff" stroke="#63b8ff" points="588.48,-29.31 585.23,-19.23 581.49,-29.14 588.48,-29.31"/>
</a>
</g>
</g>
<!-- Node18&#45;&gt;Node10 -->
<g id="edge32_Node000018_Node000010" class="edge">
<title>Node18&#45;&gt;Node10</title>
<g id="a_edge32_Node000018_Node000010"><a xlink:title=" ">
<path fill="none" stroke="#63b8ff" d="M553.52,-164.82C568.05,-155.84 585.97,-143.25 599.21,-129 611.88,-115.34 622.39,-96.78 629.12,-83.25"/>
<polygon fill="#63b8ff" stroke="#63b8ff" points="632.36,-84.59 633.5,-74.05 626.04,-81.58 632.36,-84.59"/>
</a>
</g>
</g>
<!-- Node18&#45;&gt;Node11 -->
<g id="edge28_Node000018_Node000011" class="edge">
<title>Node18&#45;&gt;Node11</title>
<g id="a_edge28_Node000018_Node000011"><a xlink:title=" ">
<path fill="none" stroke="#63b8ff" d="M576.35,-164.99C611.19,-154.85 657.67,-141.32 690.2,-131.85"/>
<polygon fill="#63b8ff" stroke="#63b8ff" points="691.19,-135.21 699.82,-129.05 689.24,-128.49 691.19,-135.21"/>
</a>
</g>
</g>
<!-- Node19 -->
<g id="Node000019" class="node">
<title>Node19</title>
<g id="a_Node000019"><a xlink:href="traits_8hpp.html" target="_top" xlink:title="Type traits definition for vector and scalar fields.">
<polygon fill="white" stroke="#666666" points="480.71,-129 417.71,-129 417.71,-110 480.71,-110 480.71,-129"/>
<text text-anchor="middle" x="449.21" y="-117" font-family="Helvetica,sans-Serif" font-size="10.00">traits.hpp</text>
</a>
</g>
</g>
<!-- Node18&#45;&gt;Node19 -->
<g id="edge29_Node000018_Node000019" class="edge">
<title>Node18&#45;&gt;Node19</title>
<g id="a_edge29_Node000018_Node000019"><a xlink:title=" ">
<path fill="none" stroke="#63b8ff" d="M509.08,-164.84C497.03,-155.91 481.49,-144.41 469.27,-135.35"/>
<polygon fill="#63b8ff" stroke="#63b8ff" points="471.16,-132.4 461.04,-129.27 467,-138.03 471.16,-132.4"/>
</a>
</g>
</g>
<!-- Node20 -->
<g id="Node000020" class="node">
<title>Node20</title>
<g id="a_Node000020"><a xlink:title=" ">
<polygon fill="#e0e0e0" stroke="#999999" points="557.21,-129 499.21,-129 499.21,-110 557.21,-110 557.21,-129"/>
<text text-anchor="middle" x="528.21" y="-117" font-family="Helvetica,sans-Serif" font-size="10.00">memory</text>
</a>
</g>
</g>
<!-- Node18&#45;&gt;Node20 -->
<g id="edge30_Node000018_Node000020" class="edge">
<title>Node18&#45;&gt;Node20</title>
<g id="a_edge30_Node000018_Node000020"><a xlink:title=" ">
<path fill="none" stroke="#63b8ff" d="M528.21,-164.84C528.21,-157.21 528.21,-147.7 528.21,-139.45"/>
<polygon fill="#63b8ff" stroke="#63b8ff" points="531.71,-139.27 528.21,-129.27 524.71,-139.27 531.71,-139.27"/>
</a>
</g>
</g>
<!-- Node21&#45;&gt;Node3 -->
<g id="edge34_Node000021_Node000003" class="edge">
<title>Node21&#45;&gt;Node3</title>
<g id="a_edge34_Node000021_Node000003"><a xlink:title=" ">
<path fill="none" stroke="#63b8ff" d="M868.99,-170.37C861.05,-155.14 842.28,-123.84 816.21,-110 781.75,-91.72 536.45,-75.78 416.68,-68.99"/>
<polygon fill="#63b8ff" stroke="#63b8ff" points="416.72,-65.49 406.54,-68.42 416.32,-72.48 416.72,-65.49"/>
</a>
</g>
</g>
<!-- Node21&#45;&gt;Node4 -->
<g id="edge37_Node000021_Node000004" class="edge">
<title>Node21&#45;&gt;Node4</title>
<g id="a_edge37_Node000021_Node000004"><a xlink:title=" ">
<path fill="none" stroke="#63b8ff" d="M872.28,-170.45C869.32,-147.7 857.98,-85.36 820.21,-55 789.66,-30.45 676.41,-17.91 619.01,-13.02"/>
<polygon fill="#63b8ff" stroke="#63b8ff" points="619.23,-9.52 608.98,-12.19 618.66,-16.5 619.23,-9.52"/>
</a>
</g>
</g>
<!-- Node21&#45;&gt;Node11 -->
<g id="edge35_Node000021_Node000011" class="edge">
<title>Node21&#45;&gt;Node11</title>
<g id="a_edge35_Node000021_Node000011"><a xlink:title=" ">
<path fill="none" stroke="#63b8ff" d="M852.27,-170.49C827.85,-160.57 787.28,-144.09 759.44,-132.78"/>
<polygon fill="#63b8ff" stroke="#63b8ff" points="760.75,-129.54 750.17,-129.02 758.12,-136.02 760.75,-129.54"/>
</a>
</g>
</g>
<!-- Node21&#45;&gt;Node16 -->
<g id="edge38_Node000021_Node000016" class="edge">
<title>Node21&#45;&gt;Node16</title>
<g id="a_edge38_Node000021_Node000016"><a xlink:title=" ">
<path fill="none" stroke="#63b8ff" d="M948.69,-170.42C980.5,-163.56 1016.11,-151.21 1042.21,-129 1073.25,-102.58 1088.72,-55.36 1095.24,-29.21"/>
<polygon fill="#63b8ff" stroke="#63b8ff" points="1098.73,-29.65 1097.56,-19.12 1091.91,-28.08 1098.73,-29.65"/>
</a>
</g>
</g>
<!-- Node22 -->
<g id="Node000022" class="node">
<title>Node22</title>
<g id="a_Node000022"><a xlink:title=" ">
<polygon fill="#e0e0e0" stroke="#999999" points="1033.21,-129 989.21,-129 989.21,-110 1033.21,-110 1033.21,-129"/>
<text text-anchor="middle" x="1011.21" y="-117" font-family="Helvetica,sans-Serif" font-size="10.00">string</text>
</a>
</g>
</g>
<!-- Node21&#45;&gt;Node22 -->
<g id="edge36_Node000021_Node000022" class="edge">
<title>Node21&#45;&gt;Node22</title>
<g id="a_edge36_Node000021_Node000022"><a xlink:title=" ">
<path fill="none" stroke="#63b8ff" d="M893.27,-170.49C916.58,-160.62 955.22,-144.23 981.88,-132.93"/>
<polygon fill="#63b8ff" stroke="#63b8ff" points="983.28,-136.14 991.12,-129.02 980.54,-129.7 983.28,-136.14"/>
</a>
</g>
</g>
<!-- Node23 -->
<g id="Node000023" class="node">
<title>Node23</title>
<g id="a_Node000023"><a xlink:title=" ">
<polygon fill="#e0e0e0" stroke="#999999" points="970.71,-129 901.71,-129 901.71,-110 970.71,-110 970.71,-129"/>
<text text-anchor="middle" x="936.21" y="-117" font-family="Helvetica,sans-Serif" font-size="10.00">type_traits</text>
</a>
</g>
</g>
<!-- Node21&#45;&gt;Node23 -->
<g id="edge39_Node000021_Node000023" class="edge">
<title>Node21&#45;&gt;Node23</title>
<g id="a_edge39_Node000021_Node000023"><a xlink:title=" ">
<path fill="none" stroke="#63b8ff" d="M882.5,-170.37C892.18,-161.38 907.55,-147.11 919.37,-136.14"/>
<polygon fill="#63b8ff" stroke="#63b8ff" points="921.93,-138.54 926.87,-129.17 917.16,-133.41 921.93,-138.54"/>
</a>
</g>
</g>
</g>
</svg>
