<?xml version="1.0" encoding="UTF-8" standalone="no"?>
<!DOCTYPE svg PUBLIC "-//W3C//DTD SVG 1.1//EN"
 "http://www.w3.org/Graphics/SVG/1.1/DTD/svg11.dtd">
<!-- Generated by graphviz version 2.43.0 (0)
 -->
<!-- Title: include/medusa/bits/operators/ImplicitVectorOperators.hpp Pages: 1 -->
<svg width="1174pt" height="390pt"
 viewBox="0.00 0.00 1173.53 390.00" xmlns="http://www.w3.org/2000/svg" xmlns:xlink="http://www.w3.org/1999/xlink">
<g id="graph0" class="graph" transform="scale(1 1) rotate(0) translate(4 386)">
<title>include/medusa/bits/operators/ImplicitVectorOperators.hpp</title>
<!-- Node1 -->
<g id="Node000001" class="node">
<title>Node1</title>
<g id="a_Node000001"><a xlink:title="Implementations of implicit vector operators.">
<polygon fill="#999999" stroke="#666666" points="685.58,-382 479.58,-382 479.58,-352 685.58,-352 685.58,-382"/>
<text text-anchor="start" x="487.58" y="-370" font-family="Helvetica,sans-Serif" font-size="10.00">include/medusa/bits</text>
<text text-anchor="middle" x="582.58" y="-359" font-family="Helvetica,sans-Serif" font-size="10.00">/operators/ImplicitVectorOperators.hpp</text>
</a>
</g>
</g>
<!-- Node2 -->
<g id="Node000002" class="node">
<title>Node2</title>
<g id="a_Node000002"><a xlink:href="ImplicitOperators_8hpp.html" target="_top" xlink:title="Implementations of implicit operators.">
<polygon fill="white" stroke="#666666" points="643.58,-310.5 521.58,-310.5 521.58,-291.5 643.58,-291.5 643.58,-310.5"/>
<text text-anchor="middle" x="582.58" y="-298.5" font-family="Helvetica,sans-Serif" font-size="10.00">ImplicitOperators.hpp</text>
</a>
</g>
</g>
<!-- Node1&#45;&gt;Node2 -->
<g id="edge1_Node000001_Node000002" class="edge">
<title>Node1&#45;&gt;Node2</title>
<g id="a_edge1_Node000001_Node000002"><a xlink:title=" ">
<path fill="none" stroke="#63b8ff" d="M582.58,-351.8C582.58,-342.7 582.58,-330.79 582.58,-320.9"/>
<polygon fill="#63b8ff" stroke="#63b8ff" points="586.08,-320.84 582.58,-310.84 579.08,-320.84 586.08,-320.84"/>
</a>
</g>
</g>
<!-- Node18 -->
<g id="Node000018" class="node">
<title>Node18</title>
<g id="a_Node000018"><a xlink:href="ShapeStorage__fwd_8hpp.html" target="_top" xlink:title="Base class and interface for storing and accessing computed shapes.">
<polygon fill="white" stroke="#666666" points="557.58,-250 429.58,-250 429.58,-231 557.58,-231 557.58,-250"/>
<text text-anchor="middle" x="493.58" y="-238" font-family="Helvetica,sans-Serif" font-size="10.00">ShapeStorage_fwd.hpp</text>
</a>
</g>
</g>
<!-- Node1&#45;&gt;Node18 -->
<g id="edge49_Node000001_Node000018" class="edge">
<title>Node1&#45;&gt;Node18</title>
<g id="a_edge49_Node000001_Node000018"><a xlink:title=" ">
<path fill="none" stroke="#63b8ff" d="M553.93,-351.81C539.52,-343.29 522.96,-331.16 512.58,-316 501.18,-299.34 496.62,-276.35 494.8,-260.33"/>
<polygon fill="#63b8ff" stroke="#63b8ff" points="498.26,-259.75 493.89,-250.09 491.28,-260.36 498.26,-259.75"/>
</a>
</g>
</g>
<!-- Node25 -->
<g id="Node000025" class="node">
<title>Node25</title>
<g id="a_Node000025"><a xlink:href="ImplicitVectorOperators__fwd_8hpp.html" target="_top" xlink:title="Declarations of implicit vector operators.">
<polygon fill="white" stroke="#666666" points="793.58,-316 661.58,-316 661.58,-286 793.58,-286 793.58,-316"/>
<text text-anchor="start" x="669.58" y="-304" font-family="Helvetica,sans-Serif" font-size="10.00">ImplicitVectorOperators</text>
<text text-anchor="middle" x="727.58" y="-293" font-family="Helvetica,sans-Serif" font-size="10.00">_fwd.hpp</text>
</a>
</g>
</g>
<!-- Node1&#45;&gt;Node25 -->
<g id="edge45_Node000001_Node000025" class="edge">
<title>Node1&#45;&gt;Node25</title>
<g id="a_edge45_Node000001_Node000025"><a xlink:title=" ">
<path fill="none" stroke="#63b8ff" d="M614.4,-351.95C635.56,-342.62 663.54,-330.27 686.39,-320.18"/>
<polygon fill="#63b8ff" stroke="#63b8ff" points="688.1,-323.25 695.84,-316.01 685.28,-316.85 688.1,-323.25"/>
</a>
</g>
</g>
<!-- Node3 -->
<g id="Node000003" class="node">
<title>Node3</title>
<g id="a_Node000003"><a xlink:href="ImplicitOperators__fwd_8hpp.html" target="_top" xlink:title="Declarations of implicit operators.">
<polygon fill="white" stroke="#666666" points="800.08,-250 655.08,-250 655.08,-231 800.08,-231 800.08,-250"/>
<text text-anchor="middle" x="727.58" y="-238" font-family="Helvetica,sans-Serif" font-size="10.00">ImplicitOperators_fwd.hpp</text>
</a>
</g>
</g>
<!-- Node2&#45;&gt;Node3 -->
<g id="edge2_Node000002_Node000003" class="edge">
<title>Node2&#45;&gt;Node3</title>
<g id="a_edge2_Node000002_Node000003"><a xlink:title=" ">
<path fill="none" stroke="#63b8ff" d="M603.67,-291.49C628.26,-281.57 669.11,-265.09 697.14,-253.78"/>
<polygon fill="#63b8ff" stroke="#63b8ff" points="698.51,-257 706.47,-250.02 695.89,-250.51 698.51,-257"/>
</a>
</g>
</g>
<!-- Node2&#45;&gt;Node18 -->
<g id="edge25_Node000002_Node000018" class="edge">
<title>Node2&#45;&gt;Node18</title>
<g id="a_edge25_Node000002_Node000018"><a xlink:title=" ">
<path fill="none" stroke="#63b8ff" d="M569.45,-291.37C555.25,-282.04 532.39,-267.01 515.47,-255.88"/>
<polygon fill="#63b8ff" stroke="#63b8ff" points="517.05,-252.74 506.77,-250.17 513.2,-258.58 517.05,-252.74"/>
</a>
</g>
</g>
<!-- Node4 -->
<g id="Node000004" class="node">
<title>Node4</title>
<g id="a_Node000004"><a xlink:href="Config_8hpp.html" target="_top" xlink:title="Contains compile time settings for the project, such as Eigen plugins.">
<polygon fill="white" stroke="#666666" points="660.58,-74 550.58,-74 550.58,-55 660.58,-55 660.58,-74"/>
<text text-anchor="middle" x="605.58" y="-62" font-family="Helvetica,sans-Serif" font-size="10.00">medusa/Config.hpp</text>
</a>
</g>
</g>
<!-- Node3&#45;&gt;Node4 -->
<g id="edge3_Node000003_Node000004" class="edge">
<title>Node3&#45;&gt;Node4</title>
<g id="a_edge3_Node000003_Node000004"><a xlink:title=" ">
<path fill="none" stroke="#63b8ff" d="M721.37,-230.63C702.11,-203.17 643.22,-119.18 617.65,-82.71"/>
<polygon fill="#63b8ff" stroke="#63b8ff" points="620.25,-80.32 611.64,-74.14 614.52,-84.34 620.25,-80.32"/>
</a>
</g>
</g>
<!-- Node6 -->
<g id="Node000006" class="node">
<title>Node6</title>
<g id="a_Node000006"><a xlink:href="Operators__fwd_8hpp.html" target="_top" xlink:title="File defining basic differential operator families.">
<polygon fill="white" stroke="#666666" points="877.58,-195 721.58,-195 721.58,-165 877.58,-165 877.58,-195"/>
<text text-anchor="start" x="729.58" y="-183" font-family="Helvetica,sans-Serif" font-size="10.00">medusa/bits/approximations</text>
<text text-anchor="middle" x="799.58" y="-172" font-family="Helvetica,sans-Serif" font-size="10.00">/Operators_fwd.hpp</text>
</a>
</g>
</g>
<!-- Node3&#45;&gt;Node6 -->
<g id="edge5_Node000003_Node000006" class="edge">
<title>Node3&#45;&gt;Node6</title>
<g id="a_edge5_Node000003_Node000006"><a xlink:title=" ">
<path fill="none" stroke="#63b8ff" d="M738.21,-230.87C747.71,-223.15 762,-211.54 774.4,-201.46"/>
<polygon fill="#63b8ff" stroke="#63b8ff" points="776.66,-204.14 782.21,-195.11 772.24,-198.7 776.66,-204.14"/>
</a>
</g>
</g>
<!-- Node12 -->
<g id="Node000012" class="node">
<title>Node12</title>
<g id="a_Node000012"><a xlink:href="assert_8hpp.html" target="_top" xlink:title="Implementation of custom assert and debug utilities.">
<polygon fill="white" stroke="#666666" points="1111.08,-129 956.08,-129 956.08,-110 1111.08,-110 1111.08,-129"/>
<text text-anchor="middle" x="1033.58" y="-117" font-family="Helvetica,sans-Serif" font-size="10.00">medusa/bits/utils/assert.hpp</text>
</a>
</g>
</g>
<!-- Node3&#45;&gt;Node12 -->
<g id="edge24_Node000003_Node000012" class="edge">
<title>Node3&#45;&gt;Node12</title>
<g id="a_edge24_Node000003_Node000012"><a xlink:title=" ">
<path fill="none" stroke="#63b8ff" d="M766.18,-230.95C798.81,-223.19 846.51,-210.59 886.58,-195 931.86,-177.39 981.75,-150.36 1010.21,-134.16"/>
<polygon fill="#63b8ff" stroke="#63b8ff" points="1012.07,-137.13 1019,-129.11 1008.59,-131.06 1012.07,-137.13"/>
</a>
</g>
</g>
<!-- Node5 -->
<g id="Node000005" class="node">
<title>Node5</title>
<g id="a_Node000005"><a xlink:title=" ">
<polygon fill="#e0e0e0" stroke="#999999" points="629.08,-19 582.08,-19 582.08,0 629.08,0 629.08,-19"/>
<text text-anchor="middle" x="605.58" y="-7" font-family="Helvetica,sans-Serif" font-size="10.00">vector</text>
</a>
</g>
</g>
<!-- Node4&#45;&gt;Node5 -->
<g id="edge4_Node000004_Node000005" class="edge">
<title>Node4&#45;&gt;Node5</title>
<g id="a_edge4_Node000004_Node000005"><a xlink:title=" ">
<path fill="none" stroke="#63b8ff" d="M605.58,-54.75C605.58,-47.8 605.58,-37.85 605.58,-29.13"/>
<polygon fill="#63b8ff" stroke="#63b8ff" points="609.08,-29.09 605.58,-19.09 602.08,-29.09 609.08,-29.09"/>
</a>
</g>
</g>
<!-- Node6&#45;&gt;Node4 -->
<g id="edge6_Node000006_Node000004" class="edge">
<title>Node6&#45;&gt;Node4</title>
<g id="a_edge6_Node000006_Node000004"><a xlink:title=" ">
<path fill="none" stroke="#63b8ff" d="M771.72,-164.89C752.85,-155.17 727.47,-141.74 705.58,-129 677.84,-112.85 646.75,-92.78 626.71,-79.58"/>
<polygon fill="#63b8ff" stroke="#63b8ff" points="628.6,-76.64 618.33,-74.04 624.74,-82.48 628.6,-76.64"/>
</a>
</g>
</g>
<!-- Node6&#45;&gt;Node5 -->
<g id="edge8_Node000006_Node000005" class="edge">
<title>Node6&#45;&gt;Node5</title>
<g id="a_edge8_Node000006_Node000005"><a xlink:title=" ">
<path fill="none" stroke="#63b8ff" d="M781.16,-164.95C768.77,-155.25 752.27,-141.84 738.58,-129 705.79,-98.23 703.57,-84.45 669.58,-55 656.66,-43.8 640.91,-32.82 628.26,-24.57"/>
<polygon fill="#63b8ff" stroke="#63b8ff" points="630,-21.52 619.69,-19.08 626.22,-27.42 630,-21.52"/>
</a>
</g>
</g>
<!-- Node7 -->
<g id="Node000007" class="node">
<title>Node7</title>
<g id="a_Node000007"><a xlink:title=" ">
<polygon fill="#e0e0e0" stroke="#999999" points="1020.58,-19 978.58,-19 978.58,0 1020.58,0 1020.58,-19"/>
<text text-anchor="middle" x="999.58" y="-7" font-family="Helvetica,sans-Serif" font-size="10.00">array</text>
</a>
</g>
</g>
<!-- Node6&#45;&gt;Node7 -->
<g id="edge7_Node000006_Node000007" class="edge">
<title>Node6&#45;&gt;Node7</title>
<g id="a_edge7_Node000006_Node000007"><a xlink:title=" ">
<path fill="none" stroke="#63b8ff" d="M877.92,-173.98C959.69,-167.49 1081.38,-153.94 1120.58,-129 1151.61,-109.26 1179.78,-84.31 1157.58,-55 1142.32,-34.84 1072.29,-21.25 1030.76,-14.8"/>
<polygon fill="#63b8ff" stroke="#63b8ff" points="1031.28,-11.34 1020.87,-13.32 1030.24,-18.26 1031.28,-11.34"/>
</a>
</g>
</g>
<!-- Node8 -->
<g id="Node000008" class="node">
<title>Node8</title>
<g id="a_Node000008"><a xlink:title=" ">
<polygon fill="#e0e0e0" stroke="#999999" points="882.08,-74 813.08,-74 813.08,-55 882.08,-55 882.08,-74"/>
<text text-anchor="middle" x="847.58" y="-62" font-family="Helvetica,sans-Serif" font-size="10.00">Eigen/Core</text>
</a>
</g>
</g>
<!-- Node6&#45;&gt;Node8 -->
<g id="edge9_Node000006_Node000008" class="edge">
<title>Node6&#45;&gt;Node8</title>
<g id="a_edge9_Node000006_Node000008"><a xlink:title=" ">
<path fill="none" stroke="#63b8ff" d="M856.22,-164.93C874.54,-157.41 892.87,-146.04 903.58,-129 915.46,-110.12 893.57,-91.31 873.78,-79.12"/>
<polygon fill="#63b8ff" stroke="#63b8ff" points="875.37,-75.99 864.97,-74.01 871.86,-82.05 875.37,-75.99"/>
</a>
</g>
</g>
<!-- Node9 -->
<g id="Node000009" class="node">
<title>Node9</title>
<g id="a_Node000009"><a xlink:href="Monomials__fwd_8hpp.html" target="_top" xlink:title="Declaration of Monomial basis.">
<polygon fill="white" stroke="#666666" points="861.58,-129 747.58,-129 747.58,-110 861.58,-110 861.58,-129"/>
<text text-anchor="middle" x="804.58" y="-117" font-family="Helvetica,sans-Serif" font-size="10.00">Monomials_fwd.hpp</text>
</a>
</g>
</g>
<!-- Node6&#45;&gt;Node9 -->
<g id="edge10_Node000006_Node000009" class="edge">
<title>Node6&#45;&gt;Node9</title>
<g id="a_edge10_Node000006_Node000009"><a xlink:title=" ">
<path fill="none" stroke="#63b8ff" d="M800.79,-164.84C801.45,-157.21 802.26,-147.7 802.96,-139.45"/>
<polygon fill="#63b8ff" stroke="#63b8ff" points="806.47,-139.53 803.83,-129.27 799.5,-138.93 806.47,-139.53"/>
</a>
</g>
</g>
<!-- Node6&#45;&gt;Node12 -->
<g id="edge16_Node000006_Node000012" class="edge">
<title>Node6&#45;&gt;Node12</title>
<g id="a_edge16_Node000006_Node000012"><a xlink:title=" ">
<path fill="none" stroke="#63b8ff" d="M855.63,-164.99C896.72,-154.72 951.71,-140.97 989.63,-131.49"/>
<polygon fill="#63b8ff" stroke="#63b8ff" points="990.52,-134.87 999.37,-129.05 988.82,-128.08 990.52,-134.87"/>
</a>
</g>
</g>
<!-- Node9&#45;&gt;Node4 -->
<g id="edge11_Node000009_Node000004" class="edge">
<title>Node9&#45;&gt;Node4</title>
<g id="a_edge11_Node000009_Node000004"><a xlink:title=" ">
<path fill="none" stroke="#63b8ff" d="M772.61,-109.98C738.77,-100.97 685.19,-86.7 647.87,-76.76"/>
<polygon fill="#63b8ff" stroke="#63b8ff" points="648.37,-73.27 637.81,-74.08 646.57,-80.04 648.37,-73.27"/>
</a>
</g>
</g>
<!-- Node9&#45;&gt;Node7 -->
<g id="edge13_Node000009_Node000007" class="edge">
<title>Node9&#45;&gt;Node7</title>
<g id="a_edge13_Node000009_Node000007"><a xlink:title=" ">
<path fill="none" stroke="#63b8ff" d="M861.68,-115.03C896.29,-110.25 939.43,-99.22 969.58,-74 983.3,-62.53 991.14,-43.37 995.34,-29.09"/>
<polygon fill="#63b8ff" stroke="#63b8ff" points="998.75,-29.89 997.88,-19.33 991.98,-28.13 998.75,-29.89"/>
</a>
</g>
</g>
<!-- Node9&#45;&gt;Node8 -->
<g id="edge14_Node000009_Node000008" class="edge">
<title>Node9&#45;&gt;Node8</title>
<g id="a_edge14_Node000009_Node000008"><a xlink:title=" ">
<path fill="none" stroke="#63b8ff" d="M811.68,-109.75C817.76,-102.26 826.67,-91.28 834.09,-82.13"/>
<polygon fill="#63b8ff" stroke="#63b8ff" points="837.03,-84.06 840.62,-74.09 831.6,-79.65 837.03,-84.06"/>
</a>
</g>
</g>
<!-- Node10 -->
<g id="Node000010" class="node">
<title>Node10</title>
<g id="a_Node000010"><a xlink:title=" ">
<polygon fill="#e0e0e0" stroke="#999999" points="795.08,-74 748.08,-74 748.08,-55 795.08,-55 795.08,-74"/>
<text text-anchor="middle" x="771.58" y="-62" font-family="Helvetica,sans-Serif" font-size="10.00">cmath</text>
</a>
</g>
</g>
<!-- Node9&#45;&gt;Node10 -->
<g id="edge12_Node000009_Node000010" class="edge">
<title>Node9&#45;&gt;Node10</title>
<g id="a_edge12_Node000009_Node000010"><a xlink:title=" ">
<path fill="none" stroke="#63b8ff" d="M799.13,-109.75C794.57,-102.42 787.92,-91.73 782.29,-82.7"/>
<polygon fill="#63b8ff" stroke="#63b8ff" points="785.19,-80.73 776.93,-74.09 779.25,-84.43 785.19,-80.73"/>
</a>
</g>
</g>
<!-- Node11 -->
<g id="Node000011" class="node">
<title>Node11</title>
<g id="a_Node000011"><a xlink:title=" ">
<polygon fill="#e0e0e0" stroke="#999999" points="137.58,-74 89.58,-74 89.58,-55 137.58,-55 137.58,-74"/>
<text text-anchor="middle" x="113.58" y="-62" font-family="Helvetica,sans-Serif" font-size="10.00">iosfwd</text>
</a>
</g>
</g>
<!-- Node9&#45;&gt;Node11 -->
<g id="edge15_Node000009_Node000011" class="edge">
<title>Node9&#45;&gt;Node11</title>
<g id="a_edge15_Node000009_Node000011"><a xlink:title=" ">
<path fill="none" stroke="#63b8ff" d="M747.45,-114.12C608.99,-103.5 258.79,-76.64 147.85,-68.13"/>
<polygon fill="#63b8ff" stroke="#63b8ff" points="148.11,-64.64 137.87,-67.36 147.58,-71.62 148.11,-64.64"/>
</a>
</g>
</g>
<!-- Node13 -->
<g id="Node000013" class="node">
<title>Node13</title>
<g id="a_Node000013"><a xlink:title=" ">
<polygon fill="#e0e0e0" stroke="#999999" points="1148.58,-74 1016.58,-74 1016.58,-55 1148.58,-55 1148.58,-74"/>
<text text-anchor="middle" x="1082.58" y="-62" font-family="Helvetica,sans-Serif" font-size="10.00">tinyformat/tinyformat.h</text>
</a>
</g>
</g>
<!-- Node12&#45;&gt;Node13 -->
<g id="edge17_Node000012_Node000013" class="edge">
<title>Node12&#45;&gt;Node13</title>
<g id="a_edge17_Node000012_Node000013"><a xlink:title=" ">
<path fill="none" stroke="#63b8ff" d="M1041.68,-109.75C1048.74,-102.11 1059.17,-90.82 1067.73,-81.56"/>
<polygon fill="#63b8ff" stroke="#63b8ff" points="1070.42,-83.81 1074.64,-74.09 1065.28,-79.06 1070.42,-83.81"/>
</a>
</g>
</g>
<!-- Node14 -->
<g id="Node000014" class="node">
<title>Node14</title>
<g id="a_Node000014"><a xlink:href="print_8hpp.html" target="_top" xlink:title="Printing helpers for std types.">
<polygon fill="white" stroke="#666666" points="960.58,-74 900.58,-74 900.58,-55 960.58,-55 960.58,-74"/>
<text text-anchor="middle" x="930.58" y="-62" font-family="Helvetica,sans-Serif" font-size="10.00">print.hpp</text>
</a>
</g>
</g>
<!-- Node12&#45;&gt;Node14 -->
<g id="edge18_Node000012_Node000014" class="edge">
<title>Node12&#45;&gt;Node14</title>
<g id="a_edge18_Node000012_Node000014"><a xlink:title=" ">
<path fill="none" stroke="#63b8ff" d="M1017.04,-109.98C1000.69,-101.57 975.45,-88.59 956.45,-78.81"/>
<polygon fill="#63b8ff" stroke="#63b8ff" points="957.93,-75.63 947.43,-74.17 954.72,-81.86 957.93,-75.63"/>
</a>
</g>
</g>
<!-- Node14&#45;&gt;Node5 -->
<g id="edge20_Node000014_Node000005" class="edge">
<title>Node14&#45;&gt;Node5</title>
<g id="a_edge20_Node000014_Node000005"><a xlink:title=" ">
<path fill="none" stroke="#63b8ff" d="M900.39,-56.73C897.42,-56.12 894.44,-55.53 891.58,-55 800.82,-38.06 693,-22.51 639.38,-15.09"/>
<polygon fill="#63b8ff" stroke="#63b8ff" points="639.78,-11.61 629.4,-13.71 638.82,-18.54 639.78,-11.61"/>
</a>
</g>
</g>
<!-- Node14&#45;&gt;Node7 -->
<g id="edge21_Node000014_Node000007" class="edge">
<title>Node14&#45;&gt;Node7</title>
<g id="a_edge21_Node000014_Node000007"><a xlink:title=" ">
<path fill="none" stroke="#63b8ff" d="M941.67,-54.98C952.07,-47 967.84,-34.88 980.31,-25.31"/>
<polygon fill="#63b8ff" stroke="#63b8ff" points="982.5,-28.04 988.3,-19.17 978.23,-22.49 982.5,-28.04"/>
</a>
</g>
</g>
<!-- Node15 -->
<g id="Node000015" class="node">
<title>Node15</title>
<g id="a_Node000015"><a xlink:title=" ">
<polygon fill="#e0e0e0" stroke="#999999" points="960.58,-19 900.58,-19 900.58,0 960.58,0 960.58,-19"/>
<text text-anchor="middle" x="930.58" y="-7" font-family="Helvetica,sans-Serif" font-size="10.00">iostream</text>
</a>
</g>
</g>
<!-- Node14&#45;&gt;Node15 -->
<g id="edge19_Node000014_Node000015" class="edge">
<title>Node14&#45;&gt;Node15</title>
<g id="a_edge19_Node000014_Node000015"><a xlink:title=" ">
<path fill="none" stroke="#63b8ff" d="M930.58,-54.75C930.58,-47.8 930.58,-37.85 930.58,-29.13"/>
<polygon fill="#63b8ff" stroke="#63b8ff" points="934.08,-29.09 930.58,-19.09 927.08,-29.09 934.08,-29.09"/>
</a>
</g>
</g>
<!-- Node16 -->
<g id="Node000016" class="node">
<title>Node16</title>
<g id="a_Node000016"><a xlink:title=" ">
<polygon fill="#e0e0e0" stroke="#999999" points="882.08,-19 837.08,-19 837.08,0 882.08,0 882.08,-19"/>
<text text-anchor="middle" x="859.58" y="-7" font-family="Helvetica,sans-Serif" font-size="10.00">utility</text>
</a>
</g>
</g>
<!-- Node14&#45;&gt;Node16 -->
<g id="edge22_Node000014_Node000016" class="edge">
<title>Node14&#45;&gt;Node16</title>
<g id="a_edge22_Node000014_Node000016"><a xlink:title=" ">
<path fill="none" stroke="#63b8ff" d="M919.18,-54.98C908.47,-47 892.24,-34.88 879.42,-25.31"/>
<polygon fill="#63b8ff" stroke="#63b8ff" points="881.31,-22.35 871.2,-19.17 877.12,-27.96 881.31,-22.35"/>
</a>
</g>
</g>
<!-- Node17 -->
<g id="Node000017" class="node">
<title>Node17</title>
<g id="a_Node000017"><a xlink:title=" ">
<polygon fill="#e0e0e0" stroke="#999999" points="286.08,-19 245.08,-19 245.08,0 286.08,0 286.08,-19"/>
<text text-anchor="middle" x="265.58" y="-7" font-family="Helvetica,sans-Serif" font-size="10.00">tuple</text>
</a>
</g>
</g>
<!-- Node14&#45;&gt;Node17 -->
<g id="edge23_Node000014_Node000017" class="edge">
<title>Node14&#45;&gt;Node17</title>
<g id="a_edge23_Node000014_Node000017"><a xlink:title=" ">
<path fill="none" stroke="#63b8ff" d="M900.43,-56.48C897.45,-55.92 894.46,-55.41 891.58,-55 664.63,-22.37 387.78,-13.32 296.44,-11.13"/>
<polygon fill="#63b8ff" stroke="#63b8ff" points="296.31,-7.62 286.23,-10.89 296.15,-14.62 296.31,-7.62"/>
</a>
</g>
</g>
<!-- Node18&#45;&gt;Node4 -->
<g id="edge26_Node000018_Node000004" class="edge">
<title>Node18&#45;&gt;Node4</title>
<g id="a_edge26_Node000018_Node000004"><a xlink:title=" ">
<path fill="none" stroke="#63b8ff" d="M507.83,-230.78C519.98,-222.74 537.25,-209.83 548.58,-195 562.66,-176.58 586.97,-114.93 598.76,-83.8"/>
<polygon fill="#63b8ff" stroke="#63b8ff" points="602.14,-84.78 602.38,-74.19 595.58,-82.32 602.14,-84.78"/>
</a>
</g>
</g>
<!-- Node18&#45;&gt;Node6 -->
<g id="edge41_Node000018_Node000006" class="edge">
<title>Node18&#45;&gt;Node6</title>
<g id="a_edge41_Node000018_Node000006"><a xlink:title=" ">
<path fill="none" stroke="#63b8ff" d="M538.08,-230.99C584.6,-222.1 658.69,-207.94 716.15,-196.95"/>
<polygon fill="#63b8ff" stroke="#63b8ff" points="717.15,-200.32 726.31,-195.01 715.83,-193.45 717.15,-200.32"/>
</a>
</g>
</g>
<!-- Node18&#45;&gt;Node8 -->
<g id="edge44_Node000018_Node000008" class="edge">
<title>Node18&#45;&gt;Node8</title>
<g id="a_edge44_Node000018_Node000008"><a xlink:title=" ">
<path fill="none" stroke="#63b8ff" d="M516.04,-231C555.44,-216.27 639.75,-185.63 712.58,-165 781.88,-145.38 825.67,-185.3 870.58,-129 881.5,-115.32 871.86,-96 861.93,-82.27"/>
<polygon fill="#63b8ff" stroke="#63b8ff" points="864.5,-79.87 855.57,-74.17 858.99,-84.2 864.5,-79.87"/>
</a>
</g>
</g>
<!-- Node18&#45;&gt;Node11 -->
<g id="edge42_Node000018_Node000011" class="edge">
<title>Node18&#45;&gt;Node11</title>
<g id="a_edge42_Node000018_Node000011"><a xlink:title=" ">
<path fill="none" stroke="#63b8ff" d="M429.44,-235.52C308.87,-226.44 56.58,-199.26 12.58,-129 -5.91,-99.48 43.49,-81.34 79.56,-72.37"/>
<polygon fill="#63b8ff" stroke="#63b8ff" points="80.37,-75.77 89.31,-70.08 78.77,-68.96 80.37,-75.77"/>
</a>
</g>
</g>
<!-- Node18&#45;&gt;Node17 -->
<g id="edge43_Node000018_Node000017" class="edge">
<title>Node18&#45;&gt;Node17</title>
<g id="a_edge43_Node000018_Node000017"><a xlink:title=" ">
<path fill="none" stroke="#63b8ff" d="M429.38,-238.71C324.79,-236.47 123.02,-227.88 60.58,-195 26.55,-177.07 17.84,-165.11 4.58,-129 -30.56,-33.27 157.8,-14.87 234.36,-11.34"/>
<polygon fill="#63b8ff" stroke="#63b8ff" points="234.96,-14.82 244.81,-10.92 234.67,-7.82 234.96,-14.82"/>
</a>
</g>
</g>
<!-- Node19 -->
<g id="Node000019" class="node">
<title>Node19</title>
<g id="a_Node000019"><a xlink:href="Range__fwd_8hpp.html" target="_top" xlink:title="Declaration of Range.">
<polygon fill="white" stroke="#666666" points="297.58,-195 157.58,-195 157.58,-165 297.58,-165 297.58,-195"/>
<text text-anchor="start" x="165.58" y="-183" font-family="Helvetica,sans-Serif" font-size="10.00">medusa/bits/types/Range</text>
<text text-anchor="middle" x="227.58" y="-172" font-family="Helvetica,sans-Serif" font-size="10.00">_fwd.hpp</text>
</a>
</g>
</g>
<!-- Node18&#45;&gt;Node19 -->
<g id="edge27_Node000018_Node000019" class="edge">
<title>Node18&#45;&gt;Node19</title>
<g id="a_edge27_Node000018_Node000019"><a xlink:title=" ">
<path fill="none" stroke="#63b8ff" d="M454.91,-230.99C414.8,-222.17 351.12,-208.17 301.35,-197.22"/>
<polygon fill="#63b8ff" stroke="#63b8ff" points="301.8,-193.74 291.28,-195.01 300.29,-200.57 301.8,-193.74"/>
</a>
</g>
</g>
<!-- Node22 -->
<g id="Node000022" class="node">
<title>Node22</title>
<g id="a_Node000022"><a xlink:href="stdtypesutils_8hpp.html" target="_top" xlink:title="Declaration of utilities for std types.">
<polygon fill="white" stroke="#666666" points="539.58,-189.5 351.58,-189.5 351.58,-170.5 539.58,-170.5 539.58,-189.5"/>
<text text-anchor="middle" x="445.58" y="-177.5" font-family="Helvetica,sans-Serif" font-size="10.00">medusa/bits/utils/stdtypesutils.hpp</text>
</a>
</g>
</g>
<!-- Node18&#45;&gt;Node22 -->
<g id="edge34_Node000018_Node000022" class="edge">
<title>Node18&#45;&gt;Node22</title>
<g id="a_edge34_Node000018_Node000022"><a xlink:title=" ">
<path fill="none" stroke="#63b8ff" d="M486.5,-230.87C479.34,-222.14 468.09,-208.43 459.2,-197.59"/>
<polygon fill="#63b8ff" stroke="#63b8ff" points="461.74,-195.18 452.7,-189.67 456.33,-199.62 461.74,-195.18"/>
</a>
</g>
</g>
<!-- Node19&#45;&gt;Node4 -->
<g id="edge28_Node000019_Node000004" class="edge">
<title>Node19&#45;&gt;Node4</title>
<g id="a_edge28_Node000019_Node000004"><a xlink:title=" ">
<path fill="none" stroke="#63b8ff" d="M249.73,-164.87C275.4,-149.13 319.47,-124.04 360.58,-110 419.72,-89.8 490.18,-78.23 540.33,-71.98"/>
<polygon fill="#63b8ff" stroke="#63b8ff" points="540.88,-75.43 550.39,-70.76 540.04,-68.48 540.88,-75.43"/>
</a>
</g>
</g>
<!-- Node19&#45;&gt;Node5 -->
<g id="edge32_Node000019_Node000005" class="edge">
<title>Node19&#45;&gt;Node5</title>
<g id="a_edge32_Node000019_Node000005"><a xlink:title=" ">
<path fill="none" stroke="#63b8ff" d="M241.51,-164.94C268.13,-138.92 329.18,-83.33 391.58,-55 451.59,-27.75 528.68,-16.99 572.05,-12.89"/>
<polygon fill="#63b8ff" stroke="#63b8ff" points="572.4,-16.37 582.06,-12.01 571.79,-9.4 572.4,-16.37"/>
</a>
</g>
</g>
<!-- Node19&#45;&gt;Node11 -->
<g id="edge33_Node000019_Node000011" class="edge">
<title>Node19&#45;&gt;Node11</title>
<g id="a_edge33_Node000019_Node000011"><a xlink:title=" ">
<path fill="none" stroke="#63b8ff" d="M184.3,-164.85C166.04,-156.91 145.97,-145.26 132.58,-129 122.19,-116.37 117.48,-98.18 115.35,-84.5"/>
<polygon fill="#63b8ff" stroke="#63b8ff" points="118.79,-83.8 114.09,-74.3 111.84,-84.65 118.79,-83.8"/>
</a>
</g>
</g>
<!-- Node19&#45;&gt;Node12 -->
<g id="edge29_Node000019_Node000012" class="edge">
<title>Node19&#45;&gt;Node12</title>
<g id="a_edge29_Node000019_Node000012"><a xlink:title=" ">
<path fill="none" stroke="#63b8ff" d="M297.76,-169.81C312.55,-168.06 328.06,-166.35 342.58,-165 457.15,-154.35 786.73,-134.74 945.73,-125.53"/>
<polygon fill="#63b8ff" stroke="#63b8ff" points="946.17,-129.01 955.95,-124.94 945.76,-122.02 946.17,-129.01"/>
</a>
</g>
</g>
<!-- Node20 -->
<g id="Node000020" class="node">
<title>Node20</title>
<g id="a_Node000020"><a xlink:href="traits_8hpp.html" target="_top" xlink:title="Type traits definition for vector and scalar fields.">
<polygon fill="white" stroke="#666666" points="85.08,-129 22.08,-129 22.08,-110 85.08,-110 85.08,-129"/>
<text text-anchor="middle" x="53.58" y="-117" font-family="Helvetica,sans-Serif" font-size="10.00">traits.hpp</text>
</a>
</g>
</g>
<!-- Node19&#45;&gt;Node20 -->
<g id="edge30_Node000019_Node000020" class="edge">
<title>Node19&#45;&gt;Node20</title>
<g id="a_edge30_Node000019_Node000020"><a xlink:title=" ">
<path fill="none" stroke="#63b8ff" d="M185.91,-164.99C156.27,-155.02 116.89,-141.78 88.82,-132.35"/>
<polygon fill="#63b8ff" stroke="#63b8ff" points="89.62,-128.92 79.03,-129.05 87.39,-135.56 89.62,-128.92"/>
</a>
</g>
</g>
<!-- Node21 -->
<g id="Node000021" class="node">
<title>Node21</title>
<g id="a_Node000021"><a xlink:title=" ">
<polygon fill="#e0e0e0" stroke="#999999" points="199.58,-129 141.58,-129 141.58,-110 199.58,-110 199.58,-129"/>
<text text-anchor="middle" x="170.58" y="-117" font-family="Helvetica,sans-Serif" font-size="10.00">memory</text>
</a>
</g>
</g>
<!-- Node19&#45;&gt;Node21 -->
<g id="edge31_Node000019_Node000021" class="edge">
<title>Node19&#45;&gt;Node21</title>
<g id="a_edge31_Node000019_Node000021"><a xlink:title=" ">
<path fill="none" stroke="#63b8ff" d="M213.79,-164.84C205.51,-156.35 194.96,-145.52 186.36,-136.69"/>
<polygon fill="#63b8ff" stroke="#63b8ff" points="188.61,-133.99 179.12,-129.27 183.6,-138.87 188.61,-133.99"/>
</a>
</g>
</g>
<!-- Node22&#45;&gt;Node4 -->
<g id="edge35_Node000022_Node000004" class="edge">
<title>Node22&#45;&gt;Node4</title>
<g id="a_edge35_Node000022_Node000004"><a xlink:title=" ">
<path fill="none" stroke="#63b8ff" d="M457.61,-170.47C484.83,-151.16 551.41,-103.93 585.2,-79.96"/>
<polygon fill="#63b8ff" stroke="#63b8ff" points="587.29,-82.77 593.42,-74.13 583.24,-77.06 587.29,-82.77"/>
</a>
</g>
</g>
<!-- Node22&#45;&gt;Node5 -->
<g id="edge38_Node000022_Node000005" class="edge">
<title>Node22&#45;&gt;Node5</title>
<g id="a_edge38_Node000022_Node000005"><a xlink:title=" ">
<path fill="none" stroke="#63b8ff" d="M418.51,-170.45C387.23,-159.07 342.27,-137.2 360.58,-110 408.39,-38.98 516.55,-18.63 571.77,-12.82"/>
<polygon fill="#63b8ff" stroke="#63b8ff" points="572.14,-16.3 581.76,-11.86 571.47,-9.33 572.14,-16.3"/>
</a>
</g>
</g>
<!-- Node22&#45;&gt;Node12 -->
<g id="edge36_Node000022_Node000012" class="edge">
<title>Node22&#45;&gt;Node12</title>
<g id="a_edge36_Node000022_Node000012"><a xlink:title=" ">
<path fill="none" stroke="#63b8ff" d="M531.08,-170.49C641.82,-159.48 833.85,-140.37 945.72,-129.24"/>
<polygon fill="#63b8ff" stroke="#63b8ff" points="946.35,-132.7 955.96,-128.22 945.66,-125.73 946.35,-132.7"/>
</a>
</g>
</g>
<!-- Node22&#45;&gt;Node17 -->
<g id="edge39_Node000022_Node000017" class="edge">
<title>Node22&#45;&gt;Node17</title>
<g id="a_edge39_Node000022_Node000017"><a xlink:title=" ">
<path fill="none" stroke="#63b8ff" d="M423.59,-170.5C403.6,-162.04 374.03,-147.64 352.58,-129 318.21,-99.13 289.49,-53.34 275.24,-28.32"/>
<polygon fill="#63b8ff" stroke="#63b8ff" points="278.12,-26.3 270.2,-19.26 272,-29.7 278.12,-26.3"/>
</a>
</g>
</g>
<!-- Node23 -->
<g id="Node000023" class="node">
<title>Node23</title>
<g id="a_Node000023"><a xlink:title=" ">
<polygon fill="#e0e0e0" stroke="#999999" points="413.58,-129 369.58,-129 369.58,-110 413.58,-110 413.58,-129"/>
<text text-anchor="middle" x="391.58" y="-117" font-family="Helvetica,sans-Serif" font-size="10.00">string</text>
</a>
</g>
</g>
<!-- Node22&#45;&gt;Node23 -->
<g id="edge37_Node000022_Node000023" class="edge">
<title>Node22&#45;&gt;Node23</title>
<g id="a_edge37_Node000022_Node000023"><a xlink:title=" ">
<path fill="none" stroke="#63b8ff" d="M437.62,-170.37C429.48,-161.55 416.65,-147.66 406.6,-136.77"/>
<polygon fill="#63b8ff" stroke="#63b8ff" points="408.94,-134.14 399.58,-129.17 403.8,-138.89 408.94,-134.14"/>
</a>
</g>
</g>
<!-- Node24 -->
<g id="Node000024" class="node">
<title>Node24</title>
<g id="a_Node000024"><a xlink:title=" ">
<polygon fill="#e0e0e0" stroke="#999999" points="501.08,-129 432.08,-129 432.08,-110 501.08,-110 501.08,-129"/>
<text text-anchor="middle" x="466.58" y="-117" font-family="Helvetica,sans-Serif" font-size="10.00">type_traits</text>
</a>
</g>
</g>
<!-- Node22&#45;&gt;Node24 -->
<g id="edge40_Node000022_Node000024" class="edge">
<title>Node22&#45;&gt;Node24</title>
<g id="a_edge40_Node000022_Node000024"><a xlink:title=" ">
<path fill="none" stroke="#63b8ff" d="M448.68,-170.37C451.66,-162.07 456.25,-149.28 460.04,-138.72"/>
<polygon fill="#63b8ff" stroke="#63b8ff" points="463.39,-139.76 463.47,-129.17 456.8,-137.4 463.39,-139.76"/>
</a>
</g>
</g>
<!-- Node25&#45;&gt;Node3 -->
<g id="edge48_Node000025_Node000003" class="edge">
<title>Node25&#45;&gt;Node3</title>
<g id="a_edge48_Node000025_Node000003"><a xlink:title=" ">
<path fill="none" stroke="#63b8ff" d="M727.58,-285.84C727.58,-278.21 727.58,-268.7 727.58,-260.45"/>
<polygon fill="#63b8ff" stroke="#63b8ff" points="731.08,-260.27 727.58,-250.27 724.08,-260.27 731.08,-260.27"/>
</a>
</g>
</g>
<!-- Node25&#45;&gt;Node4 -->
<g id="edge46_Node000025_Node000004" class="edge">
<title>Node25&#45;&gt;Node4</title>
<g id="a_edge46_Node000025_Node000004"><a xlink:title=" ">
<path fill="none" stroke="#63b8ff" d="M691.31,-285.84C674.99,-277.71 656.89,-265.9 645.58,-250 609.05,-198.65 604.83,-120.36 604.99,-84.57"/>
<polygon fill="#63b8ff" stroke="#63b8ff" points="608.5,-84.21 605.18,-74.15 601.5,-84.09 608.5,-84.21"/>
</a>
</g>
</g>
<!-- Node25&#45;&gt;Node12 -->
<g id="edge47_Node000025_Node000012" class="edge">
<title>Node25&#45;&gt;Node12</title>
<g id="a_edge47_Node000025_Node000012"><a xlink:title=" ">
<path fill="none" stroke="#63b8ff" d="M759,-285.86C799.98,-266.97 873.43,-231.63 932.58,-195 962.76,-176.31 995.43,-151.24 1015.2,-135.48"/>
<polygon fill="#63b8ff" stroke="#63b8ff" points="1017.48,-138.14 1023.08,-129.14 1013.09,-132.68 1017.48,-138.14"/>
</a>
</g>
</g>
</g>
</svg>
