<?xml version="1.0" encoding="UTF-8" standalone="no"?>
<!DOCTYPE svg PUBLIC "-//W3C//DTD SVG 1.1//EN"
 "http://www.w3.org/Graphics/SVG/1.1/DTD/svg11.dtd">
<!-- Generated by graphviz version 2.43.0 (0)
 -->
<!-- Title: include/medusa/bits/operators/ImplicitOperators.hpp Pages: 1 -->
<!--zoomable 291 -->

<svg id="main" version="1.1" xmlns="http://www.w3.org/2000/svg" xmlns:xlink="http://www.w3.org/1999/xlink" xml:space="preserve" onload="init(evt)">
<style type="text/css"><![CDATA[
.node, .edge {opacity: 0.7;}
.node.selected, .edge.selected {opacity: 1;}
.edge:hover path { stroke: red; }
.edge:hover polygon { stroke: red; fill: red; }
]]></style>

<defs>
  <circle id="rim" cx="0" cy="0" r="7"/>
  <circle id="rim2" cx="0" cy="0" r="3.5"/>
  <g id="zoomPlus">
    <use xlink:href="#rim" fill="#404040"><set attributeName="fill" to="#808080" begin="zoomplus.mouseover" end="zoomplus.mouseout"/></use>
    <path d="M-4,0h8M0,-4v8" fill="none" stroke="white" stroke-width="1.5" pointer-events="none"/>
  </g>
  <g id="zoomMin">
    <use xlink:href="#rim" fill="#404040"><set attributeName="fill" to="#808080" begin="zoomminus.mouseover" end="zoomminus.mouseout"/></use>
    <path d="M-4,0h8" fill="none" stroke="white" stroke-width="1.5" pointer-events="none"/>
  </g>
  <g id="arrowUp" transform="translate(30 24)">
    <use xlink:href="#rim"/>
    <path pointer-events="none" fill="none" stroke="white" stroke-width="1.5" d="M0,-3.0v7 M-2.5,-0.5L0,-3.0L2.5,-0.5"/>
  </g>
  <g id="arrowRight" transform="rotate(90) translate(36 -43)">
    <use xlink:href="#rim"/>
    <path pointer-events="none" fill="none" stroke="white" stroke-width="1.5" d="M0,-3.0v7 M-2.5,-0.5L0,-3.0L2.5,-0.5"/>
  </g>
  <g id="arrowDown" transform="rotate(180) translate(-30 -48)">
    <use xlink:href="#rim"/>
    <path pointer-events="none" fill="none" stroke="white" stroke-width="1.5" d="M0,-3.0v7 M-2.5,-0.5L0,-3.0L2.5,-0.5"/>
  </g>
  <g id="arrowLeft" transform="rotate(270) translate(-36 17)">
    <use xlink:href="#rim"/>
    <path pointer-events="none" fill="none" stroke="white" stroke-width="1.5" d="M0,-3.0v7 M-2.5,-0.5L0,-3.0L2.5,-0.5"/>
  </g>
  <g id="resetDef">
    <use xlink:href="#rim2" fill="#404040"><set attributeName="fill" to="#808080" begin="reset.mouseover" end="reset.mouseout"/></use>
  </g>
</defs>
<script type="application/ecmascript">
var viewWidth = 531;
var viewHeight = 291;
var sectionId = 'dynsection-1';
</script>
<script type="application/ecmascript" xlink:href="svg.min.js"/>
<svg id="graph" class="graph">
<g id="viewport">
<title>include/medusa/bits/operators/ImplicitOperators.hpp</title>
<!-- Node1 -->
<g id="Node000001" class="node">
<title>Node1</title>
<g id="a_Node000001"><a xlink:title="Implementations of implicit operators.">
<polygon fill="#999999" stroke="#666666" points="301.5,-283 126.5,-283 126.5,-253 301.5,-253 301.5,-283"/>
<text text-anchor="start" x="134.5" y="-271" font-family="Helvetica,sans-Serif" font-size="10.00">include/medusa/bits</text>
<text text-anchor="middle" x="214" y="-260" font-family="Helvetica,sans-Serif" font-size="10.00">/operators/ImplicitOperators.hpp</text>
</a>
</g>
</g>
<!-- Node2 -->
<g id="Node000002" class="node">
<title>Node2</title>
<g id="a_Node000002"><a xlink:href="Operators_8hpp.html" target="_top" xlink:title="Header for Operators module.">
<polygon fill="white" stroke="#666666" points="166,-145.5 0,-145.5 0,-126.5 166,-126.5 166,-145.5"/>
<text text-anchor="middle" x="83" y="-133.5" font-family="Helvetica,sans-Serif" font-size="10.00">include/medusa/Operators.hpp</text>
</a>
</g>
</g>
<!-- Node1&#45;&gt;Node2 -->
<g id="edge1_Node000001_Node000002" class="edge">
<title>Node1&#45;&gt;Node2</title>
<g id="a_edge1_Node000001_Node000002"><a xlink:title=" ">
<path fill="none" stroke="#63b8ff" d="M147.66,-249.13C130.67,-241.69 113.87,-231.32 102,-217 84.51,-195.9 82.57,-161.45 82.69,-145.54"/>
<polygon fill="#63b8ff" stroke="#63b8ff" points="146.51,-252.44 157.09,-252.97 149.15,-245.96 146.51,-252.44"/>
</a>
</g>
</g>
<!-- Node5 -->
<g id="Node000005" class="node">
<title>Node5</title>
<g id="a_Node000005"><a xlink:href="ImplicitVectorOperators_8hpp.html" target="_top" xlink:title="Implementations of implicit vector operators.">
<polygon fill="white" stroke="#666666" points="317,-217 111,-217 111,-187 317,-187 317,-217"/>
<text text-anchor="start" x="119" y="-205" font-family="Helvetica,sans-Serif" font-size="10.00">include/medusa/bits</text>
<text text-anchor="middle" x="214" y="-194" font-family="Helvetica,sans-Serif" font-size="10.00">/operators/ImplicitVectorOperators.hpp</text>
</a>
</g>
</g>
<!-- Node1&#45;&gt;Node5 -->
<g id="edge5_Node000001_Node000005" class="edge">
<title>Node1&#45;&gt;Node5</title>
<g id="a_edge5_Node000001_Node000005"><a xlink:title=" ">
<path fill="none" stroke="#63b8ff" d="M214,-242.54C214,-233.96 214,-224.61 214,-217.16"/>
<polygon fill="#63b8ff" stroke="#63b8ff" points="210.5,-242.8 214,-252.8 217.5,-242.8 210.5,-242.8"/>
</a>
</g>
</g>
<!-- Node7 -->
<g id="Node000007" class="node">
<title>Node7</title>
<g id="a_Node000007"><a xlink:href="ImplicitOperators_8cpp.html" target="_top" xlink:title="Instantiations of implicit operators.">
<polygon fill="white" stroke="#666666" points="523,-211.5 335,-211.5 335,-192.5 523,-192.5 523,-211.5"/>
<text text-anchor="middle" x="429" y="-199.5" font-family="Helvetica,sans-Serif" font-size="10.00">src/operators/ImplicitOperators.cpp</text>
</a>
</g>
</g>
<!-- Node1&#45;&gt;Node7 -->
<g id="edge8_Node000001_Node000007" class="edge">
<title>Node1&#45;&gt;Node7</title>
<g id="a_edge8_Node000001_Node000007"><a xlink:title=" ">
<path fill="none" stroke="#63b8ff" d="M270.94,-250.05C312.64,-237.64 367.48,-221.31 400.39,-211.52"/>
<polygon fill="#63b8ff" stroke="#63b8ff" points="269.77,-246.75 261.18,-252.95 271.77,-253.46 269.77,-246.75"/>
</a>
</g>
</g>
<!-- Node3 -->
<g id="Node000003" class="node">
<title>Node3</title>
<g id="a_Node000003"><a xlink:href="Medusa_8hpp.html" target="_top" xlink:title="Main header file that includes most other components.">
<polygon fill="white" stroke="#666666" points="161,-19 5,-19 5,0 161,0 161,-19"/>
<text text-anchor="middle" x="83" y="-7" font-family="Helvetica,sans-Serif" font-size="10.00">include/medusa/Medusa.hpp</text>
</a>
</g>
</g>
<!-- Node2&#45;&gt;Node3 -->
<g id="edge2_Node000002_Node000003" class="edge">
<title>Node2&#45;&gt;Node3</title>
<g id="a_edge2_Node000002_Node000003"><a xlink:title=" ">
<path fill="none" stroke="#63b8ff" d="M70.25,-118.19C64.03,-108.93 57.21,-96.92 54,-85 50.54,-72.12 50.2,-67.78 54,-55 58.1,-41.21 67.97,-27.7 75.06,-19.25"/>
<polygon fill="#63b8ff" stroke="#63b8ff" points="67.46,-120.31 76.11,-126.43 73.16,-116.25 67.46,-120.31"/>
</a>
</g>
</g>
<!-- Node4 -->
<g id="Node000004" class="node">
<title>Node4</title>
<g id="a_Node000004"><a xlink:href="Medusa__fwd_8hpp.html" target="_top" xlink:title="Main header file that includes only declarations for some heavy classes such as mm::WLS to reduce com...">
<polygon fill="white" stroke="#666666" points="198.5,-85 63.5,-85 63.5,-55 198.5,-55 198.5,-85"/>
<text text-anchor="start" x="71.5" y="-73" font-family="Helvetica,sans-Serif" font-size="10.00">include/medusa/Medusa</text>
<text text-anchor="middle" x="131" y="-62" font-family="Helvetica,sans-Serif" font-size="10.00">_fwd.hpp</text>
</a>
</g>
</g>
<!-- Node2&#45;&gt;Node4 -->
<g id="edge3_Node000002_Node000004" class="edge">
<title>Node2&#45;&gt;Node4</title>
<g id="a_edge3_Node000002_Node000004"><a xlink:title=" ">
<path fill="none" stroke="#63b8ff" d="M95.57,-118.24C103.23,-108.02 112.92,-95.1 120.23,-85.36"/>
<polygon fill="#63b8ff" stroke="#63b8ff" points="92.67,-116.27 89.47,-126.37 98.27,-120.47 92.67,-116.27"/>
</a>
</g>
</g>
<!-- Node4&#45;&gt;Node3 -->
<g id="edge4_Node000004_Node000003" class="edge">
<title>Node4&#45;&gt;Node3</title>
<g id="a_edge4_Node000004_Node000003"><a xlink:title=" ">
<path fill="none" stroke="#63b8ff" d="M113.02,-47.09C105.09,-37.42 96.22,-26.61 90.19,-19.27"/>
<polygon fill="#63b8ff" stroke="#63b8ff" points="110.33,-49.33 119.38,-54.84 115.74,-44.89 110.33,-49.33"/>
</a>
</g>
</g>
<!-- Node5&#45;&gt;Node2 -->
<g id="edge6_Node000005_Node000002" class="edge">
<title>Node5&#45;&gt;Node2</title>
<g id="a_edge6_Node000005_Node000002"><a xlink:title=" ">
<path fill="none" stroke="#63b8ff" d="M176.05,-182.46C151.1,-170.27 119.64,-154.9 100.43,-145.52"/>
<polygon fill="#63b8ff" stroke="#63b8ff" points="174.73,-185.71 185.25,-186.95 177.8,-179.42 174.73,-185.71"/>
</a>
</g>
</g>
<!-- Node6 -->
<g id="Node000006" class="node">
<title>Node6</title>
<g id="a_Node000006"><a xlink:href="ImplicitVectorOperators_8cpp.html" target="_top" xlink:title="Instantiations of implicit vector operators.">
<polygon fill="white" stroke="#666666" points="335.5,-151 184.5,-151 184.5,-121 335.5,-121 335.5,-151"/>
<text text-anchor="start" x="192.5" y="-139" font-family="Helvetica,sans-Serif" font-size="10.00">src/operators/ImplicitVector</text>
<text text-anchor="middle" x="260" y="-128" font-family="Helvetica,sans-Serif" font-size="10.00">Operators.cpp</text>
</a>
</g>
</g>
<!-- Node5&#45;&gt;Node6 -->
<g id="edge7_Node000005_Node000006" class="edge">
<title>Node5&#45;&gt;Node6</title>
<g id="a_edge7_Node000005_Node000006"><a xlink:title=" ">
<path fill="none" stroke="#63b8ff" d="M230.15,-178.53C236.69,-169.43 244.05,-159.19 249.82,-151.16"/>
<polygon fill="#63b8ff" stroke="#63b8ff" points="227.2,-176.63 224.21,-186.8 232.89,-180.72 227.2,-176.63"/>
</a>
</g>
</g>
</g>
</svg>

<g id="navigator" transform="translate(0 0)" fill="#404254">
  <rect fill="#f2f5e9" fill-opacity="0.5" stroke="#606060" stroke-width=".5" x="0" y="0" width="60" height="60"/>
  <use id="zoomplus" xlink:href="#zoomPlus" x="17" y="9" onmousedown="handleZoom(evt,'in')"/>
  <use id="zoomminus" xlink:href="#zoomMin" x="42" y="9" onmousedown="handleZoom(evt,'out')"/>
  <use id="reset" xlink:href="#resetDef" x="30" y="36" onmousedown="handleReset()"/>
   <use id="arrowup" xlink:href="#arrowUp" x="0" y="0" onmousedown="handlePan(0,-1)"/>
  <use id="arrowright" xlink:href="#arrowRight" x="0" y="0" onmousedown="handlePan(1,0)"/>
  <use id="arrowdown" xlink:href="#arrowDown" x="0" y="0" onmousedown="handlePan(0,1)"/>
  <use id="arrowleft" xlink:href="#arrowLeft" x="0" y="0" onmousedown="handlePan(-1,0)"/>
</g>
<svg viewBox="0 0 15 15" width="100%" height="30px" preserveAspectRatio="xMaxYMin meet">
 <g id="arrow_out" transform="scale(0.3 0.3)">
  <a xlink:href="ImplicitOperators_8hpp__dep__incl_org.svg" target="_base">
   <rect id="button" ry="5" rx="5" y="6" x="6" height="38" width="38"
        fill="#f2f5e9" fill-opacity="0.5" stroke="#606060" stroke-width="1.0"/>
   <path id="arrow"
     d="M 11.500037,31.436501 C 11.940474,20.09759 22.043105,11.32322 32.158766,21.979434 L 37.068811,17.246167 C 37.068811,17.246167 37.088388,32 37.088388,32 L 22.160133,31.978069 C 22.160133,31.978069 26.997745,27.140456 26.997745,27.140456 C 18.528582,18.264221 13.291696,25.230495 11.500037,31.436501 z"
     style="fill:#404040;"/>
  </a>
 </g>
</svg>

<style type='text/css'>
<![CDATA[
[data-mouse-over-selected='false'] { opacity: 0.7; }
[data-mouse-over-selected='true']  { opacity: 1.0; }
]]>
</style>
<script type="application/ecmascript"><![CDATA[
document.addEventListener('DOMContentLoaded', (event) => {
  highlightEdges();
  highlightAdjacentNodes();
});
]]></script>
</svg>
