<?xml version="1.0" encoding="UTF-8" standalone="no"?>
<!DOCTYPE svg PUBLIC "-//W3C//DTD SVG 1.1//EN"
 "http://www.w3.org/Graphics/SVG/1.1/DTD/svg11.dtd">
<!-- Generated by graphviz version 2.43.0 (0)
 -->
<!-- Title: Graphical Class Hierarchy Pages: 1 -->
<svg width="396pt" height="98pt"
 viewBox="0.00 0.00 396.00 97.50" xmlns="http://www.w3.org/2000/svg" xmlns:xlink="http://www.w3.org/1999/xlink">
<g id="graph0" class="graph" transform="scale(1 1) rotate(0) translate(4 93.5)">
<title>Graphical Class Hierarchy</title>
<!-- Node0 -->
<g id="Node000000" class="node">
<title>Node0</title>
<g id="a_Node000000"><a xlink:title=" ">
<polygon fill="#e0e0e0" stroke="#999999" points="99,-51.5 0,-51.5 0,-32.5 99,-32.5 99,-51.5"/>
<text text-anchor="middle" x="49.5" y="-39.5" font-family="Helvetica,sans-Serif" font-size="10.00">Eigen::JacobiSVD</text>
</a>
</g>
</g>
<!-- Node1 -->
<g id="Node000001" class="node">
<title>Node1</title>
<g id="a_Node000001"><a xlink:href="classmm_1_1JacobiSVDWrapper.html" target="_top" xlink:title=" ">
<polygon fill="white" stroke="#666666" points="388,-89.5 135,-89.5 135,-48.5 388,-48.5 388,-89.5"/>
<text text-anchor="start" x="143" y="-77.5" font-family="Helvetica,sans-Serif" font-size="10.00">mm::JacobiSVDWrapper</text>
<text text-anchor="start" x="143" y="-66.5" font-family="Helvetica,sans-Serif" font-size="10.00">&lt; typename basis_t::scalar</text>
<text text-anchor="middle" x="261.5" y="-55.5" font-family="Helvetica,sans-Serif" font-size="10.00">_t, Eigen::ColPivHouseholderQRPreconditioner &gt;</text>
</a>
</g>
</g>
<!-- Node0&#45;&gt;Node1 -->
<g id="edge1_Node000000_Node000001" class="edge">
<title>Node0&#45;&gt;Node1</title>
<g id="a_edge1_Node000000_Node000001"><a xlink:title=" ">
<path fill="none" stroke="#63b8ff" d="M109.2,-49.55C117.3,-50.59 125.87,-51.69 134.63,-52.82"/>
<polygon fill="#63b8ff" stroke="#63b8ff" points="109.57,-46.07 99.21,-48.26 108.68,-53.01 109.57,-46.07"/>
</a>
</g>
</g>
<!-- Node2 -->
<g id="Node000002" class="node">
<title>Node2</title>
<g id="a_Node000002"><a xlink:href="classmm_1_1JacobiSVDWrapper.html" target="_top" xlink:title="Extends Eigen&#39;s JacobiSVD to compute thin U and thin V by default.">
<polygon fill="white" stroke="#666666" points="345.5,-30 177.5,-30 177.5,0 345.5,0 345.5,-30"/>
<text text-anchor="start" x="185.5" y="-18" font-family="Helvetica,sans-Serif" font-size="10.00">mm::JacobiSVDWrapper</text>
<text text-anchor="middle" x="261.5" y="-7" font-family="Helvetica,sans-Serif" font-size="10.00">&lt; scalar_t, QRPreconditioner &gt;</text>
</a>
</g>
</g>
<!-- Node0&#45;&gt;Node2 -->
<g id="edge2_Node000000_Node000002" class="edge">
<title>Node0&#45;&gt;Node2</title>
<g id="a_edge2_Node000000_Node000002"><a xlink:title=" ">
<path fill="none" stroke="#63b8ff" d="M109.26,-34.45C130.28,-31.74 154.39,-28.64 177.09,-25.72"/>
<polygon fill="#63b8ff" stroke="#63b8ff" points="108.68,-30.99 99.21,-35.74 109.57,-37.93 108.68,-30.99"/>
</a>
</g>
</g>
</g>
</svg>
