<?xml version="1.0" encoding="UTF-8" standalone="no"?>
<!DOCTYPE svg PUBLIC "-//W3C//DTD SVG 1.1//EN"
 "http://www.w3.org/Graphics/SVG/1.1/DTD/svg11.dtd">
<!-- Generated by graphviz version 2.43.0 (0)
 -->
<!-- Title: Graphical Class Hierarchy Pages: 1 -->
<svg width="282pt" height="272pt"
 viewBox="0.00 0.00 282.00 272.00" xmlns="http://www.w3.org/2000/svg" xmlns:xlink="http://www.w3.org/1999/xlink">
<g id="graph0" class="graph" transform="scale(1 1) rotate(0) translate(4 268)">
<title>Graphical Class Hierarchy</title>
<!-- Node0 -->
<g id="Node000000" class="node">
<title>Node0</title>
<g id="a_Node000000"><a xlink:title=" ">
<polygon fill="#e0e0e0" stroke="#999999" points="68,-136 0,-136 0,-117 68,-117 68,-136"/>
<text text-anchor="middle" x="34" y="-124" font-family="Helvetica,sans-Serif" font-size="10.00">std::vector</text>
</a>
</g>
</g>
<!-- Node1 -->
<g id="Node000001" class="node">
<title>Node1</title>
<g id="a_Node000001"><a xlink:href="classmm_1_1Range.html" target="_top" xlink:title=" ">
<polygon fill="white" stroke="#666666" points="243,-264 135,-264 135,-245 243,-245 243,-264"/>
<text text-anchor="middle" x="189" y="-252" font-family="Helvetica,sans-Serif" font-size="10.00">mm::Range&lt; int &gt;</text>
</a>
</g>
</g>
<!-- Node0&#45;&gt;Node1 -->
<g id="edge38_Node000000_Node000001" class="edge">
<title>Node0&#45;&gt;Node1</title>
<g id="a_edge38_Node000000_Node000001"><a xlink:title=" ">
<path fill="none" stroke="#63b8ff" d="M41.65,-145.77C51.31,-170.78 71.68,-213.87 104,-236.5 113.04,-242.83 123.87,-247 134.71,-249.74"/>
<polygon fill="#63b8ff" stroke="#63b8ff" points="44.89,-144.46 38.16,-136.28 38.32,-146.87 44.89,-144.46"/>
</a>
</g>
</g>
<!-- Node2 -->
<g id="Node000002" class="node">
<title>Node2</title>
<g id="a_Node000002"><a xlink:href="classmm_1_1Range.html" target="_top" xlink:title=" ">
<polygon fill="white" stroke="#666666" points="250,-227 128,-227 128,-208 250,-208 250,-227"/>
<text text-anchor="middle" x="189" y="-215" font-family="Helvetica,sans-Serif" font-size="10.00">mm::Range&lt; vec_t &gt;</text>
</a>
</g>
</g>
<!-- Node0&#45;&gt;Node2 -->
<g id="edge39_Node000000_Node000002" class="edge">
<title>Node0&#45;&gt;Node2</title>
<g id="a_edge39_Node000000_Node000002"><a xlink:title=" ">
<path fill="none" stroke="#63b8ff" d="M47.37,-144.49C59.76,-161.09 80.35,-185.13 104,-198.5 111.29,-202.62 119.41,-205.85 127.65,-208.38"/>
<polygon fill="#63b8ff" stroke="#63b8ff" points="50.05,-142.22 41.37,-136.15 44.37,-146.31 50.05,-142.22"/>
</a>
</g>
</g>
<!-- Node3 -->
<g id="Node000003" class="node">
<title>Node3</title>
<g id="a_Node000003"><a xlink:href="classmm_1_1Range.html" target="_top" xlink:title=" ">
<polygon fill="white" stroke="#666666" points="259,-189.5 119,-189.5 119,-159.5 259,-159.5 259,-189.5"/>
<text text-anchor="start" x="127" y="-177.5" font-family="Helvetica,sans-Serif" font-size="10.00">mm::Range&lt; mm::Range</text>
<text text-anchor="middle" x="189" y="-166.5" font-family="Helvetica,sans-Serif" font-size="10.00">&lt; int &gt; &gt;</text>
</a>
</g>
</g>
<!-- Node0&#45;&gt;Node3 -->
<g id="edge40_Node000000_Node000003" class="edge">
<title>Node0&#45;&gt;Node3</title>
<g id="a_edge40_Node000000_Node000003"><a xlink:title=" ">
<path fill="none" stroke="#63b8ff" d="M71.16,-139.51C81.71,-143.19 93.28,-147.11 104,-150.5 113.54,-153.52 123.75,-156.58 133.64,-159.45"/>
<polygon fill="#63b8ff" stroke="#63b8ff" points="72.02,-136.1 61.42,-136.08 69.7,-142.7 72.02,-136.1"/>
</a>
</g>
</g>
<!-- Node4 -->
<g id="Node000004" class="node">
<title>Node4</title>
<g id="a_Node000004"><a xlink:href="classmm_1_1Range.html" target="_top" xlink:title=" ">
<polygon fill="white" stroke="#666666" points="274,-141.5 104,-141.5 104,-111.5 274,-111.5 274,-141.5"/>
<text text-anchor="start" x="112" y="-129.5" font-family="Helvetica,sans-Serif" font-size="10.00">mm::Range&lt; mm::NURBSPatch</text>
<text text-anchor="middle" x="189" y="-118.5" font-family="Helvetica,sans-Serif" font-size="10.00">&lt; vec_t, param_vec_t &gt; &gt;</text>
</a>
</g>
</g>
<!-- Node0&#45;&gt;Node4 -->
<g id="edge41_Node000000_Node000004" class="edge">
<title>Node0&#45;&gt;Node4</title>
<g id="a_edge41_Node000000_Node000004"><a xlink:title=" ">
<path fill="none" stroke="#63b8ff" d="M78.34,-126.5C86.35,-126.5 94.97,-126.5 103.72,-126.5"/>
<polygon fill="#63b8ff" stroke="#63b8ff" points="78.2,-123 68.2,-126.5 78.2,-130 78.2,-123"/>
</a>
</g>
</g>
<!-- Node5 -->
<g id="Node000005" class="node">
<title>Node5</title>
<g id="a_Node000005"><a xlink:href="classmm_1_1Range.html" target="_top" xlink:title=" ">
<polygon fill="white" stroke="#666666" points="254.5,-93 123.5,-93 123.5,-74 254.5,-74 254.5,-93"/>
<text text-anchor="middle" x="189" y="-81" font-family="Helvetica,sans-Serif" font-size="10.00">mm::Range&lt; value_t &gt;</text>
</a>
</g>
</g>
<!-- Node0&#45;&gt;Node5 -->
<g id="edge42_Node000000_Node000005" class="edge">
<title>Node0&#45;&gt;Node5</title>
<g id="a_edge42_Node000000_Node000005"><a xlink:title=" ">
<path fill="none" stroke="#63b8ff" d="M69.9,-113.51C80.75,-109.7 92.8,-105.7 104,-102.5 116.08,-99.05 129.27,-95.81 141.55,-93.03"/>
<polygon fill="#63b8ff" stroke="#63b8ff" points="68.58,-110.26 60.34,-116.92 70.94,-116.85 68.58,-110.26"/>
</a>
</g>
</g>
<!-- Node6 -->
<g id="Node000006" class="node">
<title>Node6</title>
<g id="a_Node000006"><a xlink:href="classmm_1_1Range.html" target="_top" xlink:title=" ">
<polygon fill="white" stroke="#666666" points="256.5,-56 121.5,-56 121.5,-37 256.5,-37 256.5,-56"/>
<text text-anchor="middle" x="189" y="-44" font-family="Helvetica,sans-Serif" font-size="10.00">mm::Range&lt; vector_t &gt;</text>
</a>
</g>
</g>
<!-- Node0&#45;&gt;Node6 -->
<g id="edge43_Node000000_Node000006" class="edge">
<title>Node0&#45;&gt;Node6</title>
<g id="a_edge43_Node000000_Node000006"><a xlink:title=" ">
<path fill="none" stroke="#63b8ff" d="M50.02,-109.07C62.95,-95.19 82.82,-76.34 104,-65.5 111.59,-61.62 119.96,-58.52 128.39,-56.05"/>
<polygon fill="#63b8ff" stroke="#63b8ff" points="47.36,-106.8 43.26,-116.57 52.55,-111.49 47.36,-106.8"/>
</a>
</g>
</g>
<!-- Node7 -->
<g id="Node000007" class="node">
<title>Node7</title>
<g id="a_Node000007"><a xlink:href="classmm_1_1Range.html" target="_top" xlink:title="An extension of std::vector&lt;T&gt; to support additional useful operations.">
<polygon fill="white" stroke="#666666" points="264.5,-19 113.5,-19 113.5,0 264.5,0 264.5,-19"/>
<text text-anchor="middle" x="189" y="-7" font-family="Helvetica,sans-Serif" font-size="10.00">mm::Range&lt; T, Allocator &gt;</text>
</a>
</g>
</g>
<!-- Node0&#45;&gt;Node7 -->
<g id="edge44_Node000000_Node000007" class="edge">
<title>Node0&#45;&gt;Node7</title>
<g id="a_edge44_Node000000_Node000007"><a xlink:title=" ">
<path fill="none" stroke="#63b8ff" d="M43.02,-107.74C53.62,-85.3 74.46,-48.27 104,-28.5 109.72,-24.67 116.09,-21.61 122.7,-19.16"/>
<polygon fill="#63b8ff" stroke="#63b8ff" points="39.8,-106.36 38.88,-116.92 46.18,-109.24 39.8,-106.36"/>
</a>
</g>
</g>
</g>
</svg>
