<?xml version="1.0" encoding="UTF-8" standalone="no"?>
<!DOCTYPE svg PUBLIC "-//W3C//DTD SVG 1.1//EN"
 "http://www.w3.org/Graphics/SVG/1.1/DTD/svg11.dtd">
<!-- Generated by graphviz version 2.43.0 (0)
 -->
<!-- Title: Graphical Class Hierarchy Pages: 1 -->
<svg width="273pt" height="76pt"
 viewBox="0.00 0.00 273.00 75.50" xmlns="http://www.w3.org/2000/svg" xmlns:xlink="http://www.w3.org/1999/xlink">
<g id="graph0" class="graph" transform="scale(1 1) rotate(0) translate(4 71.5)">
<title>Graphical Class Hierarchy</title>
<!-- Node0 -->
<g id="Node000000" class="node">
<title>Node0</title>
<g id="a_Node000000"><a xlink:title=" ">
<polygon fill="#e0e0e0" stroke="#999999" points="81,-45.5 0,-45.5 0,-26.5 81,-26.5 81,-45.5"/>
<text text-anchor="middle" x="40.5" y="-33.5" font-family="Helvetica,sans-Serif" font-size="10.00">Eigen::Matrix</text>
</a>
</g>
</g>
<!-- Node1 -->
<g id="Node000001" class="node">
<title>Node1</title>
<g id="a_Node000001"><a xlink:href="classmm_1_1ScalarField.html" target="_top" xlink:title="Represents a discretization of a scalar field, a finite collection of scalars.">
<polygon fill="white" stroke="#666666" points="265,-67.5 117,-67.5 117,-48.5 265,-48.5 265,-67.5"/>
<text text-anchor="middle" x="191" y="-55.5" font-family="Helvetica,sans-Serif" font-size="10.00">mm::ScalarField&lt; Scalar &gt;</text>
</a>
</g>
</g>
<!-- Node0&#45;&gt;Node1 -->
<g id="edge3_Node000000_Node000001" class="edge">
<title>Node0&#45;&gt;Node1</title>
<g id="a_edge3_Node000000_Node000001"><a xlink:title=" ">
<path fill="none" stroke="#63b8ff" d="M91.2,-43.36C102.27,-45 114.15,-46.76 125.71,-48.48"/>
<polygon fill="#63b8ff" stroke="#63b8ff" points="91.7,-39.9 81.3,-41.9 90.67,-46.82 91.7,-39.9"/>
</a>
</g>
</g>
<!-- Node2 -->
<g id="Node000002" class="node">
<title>Node2</title>
<g id="a_Node000002"><a xlink:href="classmm_1_1VectorField.html" target="_top" xlink:title="Represents a discretization of a vector field, a finite collection of vectors.">
<polygon fill="white" stroke="#666666" points="261,-30 121,-30 121,0 261,0 261,-30"/>
<text text-anchor="start" x="129" y="-18" font-family="Helvetica,sans-Serif" font-size="10.00">mm::VectorField&lt; Scalar,</text>
<text text-anchor="middle" x="191" y="-7" font-family="Helvetica,sans-Serif" font-size="10.00"> dimension &gt;</text>
</a>
</g>
</g>
<!-- Node0&#45;&gt;Node2 -->
<g id="edge4_Node000000_Node000002" class="edge">
<title>Node0&#45;&gt;Node2</title>
<g id="a_edge4_Node000000_Node000002"><a xlink:title=" ">
<path fill="none" stroke="#63b8ff" d="M91.32,-28.95C100.81,-27.61 110.89,-26.19 120.85,-24.78"/>
<polygon fill="#63b8ff" stroke="#63b8ff" points="90.71,-25.51 81.3,-30.37 91.69,-32.44 90.71,-25.51"/>
</a>
</g>
</g>
</g>
</svg>
