<?xml version="1.0" encoding="UTF-8" standalone="no"?>
<!DOCTYPE svg PUBLIC "-//W3C//DTD SVG 1.1//EN"
 "http://www.w3.org/Graphics/SVG/1.1/DTD/svg11.dtd">
<!-- Generated by graphviz version 2.43.0 (0)
 -->
<!-- Title: Graphical Class Hierarchy Pages: 1 -->
<svg width="262pt" height="130pt"
 viewBox="0.00 0.00 262.00 130.00" xmlns="http://www.w3.org/2000/svg" xmlns:xlink="http://www.w3.org/1999/xlink">
<g id="graph0" class="graph" transform="scale(1 1) rotate(0) translate(4 126)">
<title>Graphical Class Hierarchy</title>
<!-- Node0 -->
<g id="Node000000" class="node">
<title>Node0</title>
<g id="a_Node000000"><a xlink:title=" ">
<polygon fill="#e0e0e0" stroke="#999999" points="74,-65 0,-65 0,-46 74,-46 74,-65"/>
<text text-anchor="middle" x="37" y="-53" font-family="Helvetica,sans-Serif" font-size="10.00">std::iterator</text>
</a>
</g>
</g>
<!-- Node1 -->
<g id="Node000001" class="node">
<title>Node1</title>
<g id="a_Node000001"><a xlink:href="classmm_1_1AdamsBashforth_1_1Integrator_1_1IterationStep.html" target="_top" xlink:title="Class representing a step in the integration process.">
<polygon fill="white" stroke="#666666" points="243.5,-122 120.5,-122 120.5,-59 243.5,-59 243.5,-122"/>
<text text-anchor="start" x="128.5" y="-110" font-family="Helvetica,sans-Serif" font-size="10.00">mm::AdamsBashforth</text>
<text text-anchor="start" x="128.5" y="-99" font-family="Helvetica,sans-Serif" font-size="10.00">&lt; Scalar, num_steps</text>
<text text-anchor="start" x="128.5" y="-88" font-family="Helvetica,sans-Serif" font-size="10.00"> &gt;::Integrator&lt; func</text>
<text text-anchor="start" x="128.5" y="-77" font-family="Helvetica,sans-Serif" font-size="10.00">_t, initial_method_t &gt;</text>
<text text-anchor="middle" x="182" y="-66" font-family="Helvetica,sans-Serif" font-size="10.00">::IterationStep</text>
</a>
</g>
</g>
<!-- Node0&#45;&gt;Node1 -->
<g id="edge33_Node000000_Node000001" class="edge">
<title>Node0&#45;&gt;Node1</title>
<g id="a_edge33_Node000000_Node000001"><a xlink:title=" ">
<path fill="none" stroke="#63b8ff" d="M83.99,-66.76C95.6,-69.6 108.24,-72.69 120.45,-75.68"/>
<polygon fill="#63b8ff" stroke="#63b8ff" points="84.63,-63.31 74.08,-64.33 82.97,-70.11 84.63,-63.31"/>
</a>
</g>
</g>
<!-- Node2 -->
<g id="Node000002" class="node">
<title>Node2</title>
<g id="a_Node000002"><a xlink:href="classmm_1_1RKExplicit_1_1Integrator_1_1IterationStep.html" target="_top" xlink:title="Class representing a step in the integration process.">
<polygon fill="white" stroke="#666666" points="254,-41 110,-41 110,0 254,0 254,-41"/>
<text text-anchor="start" x="118" y="-29" font-family="Helvetica,sans-Serif" font-size="10.00">mm::RKExplicit&lt; Scalar,</text>
<text text-anchor="start" x="118" y="-18" font-family="Helvetica,sans-Serif" font-size="10.00"> num_stages &gt;::Integrator</text>
<text text-anchor="middle" x="182" y="-7" font-family="Helvetica,sans-Serif" font-size="10.00">&lt; func_t &gt;::IterationStep</text>
</a>
</g>
</g>
<!-- Node0&#45;&gt;Node2 -->
<g id="edge34_Node000000_Node000002" class="edge">
<title>Node0&#45;&gt;Node2</title>
<g id="a_edge34_Node000000_Node000002"><a xlink:title=" ">
<path fill="none" stroke="#63b8ff" d="M83.89,-44.27C92.17,-42.24 100.98,-40.08 109.79,-37.93"/>
<polygon fill="#63b8ff" stroke="#63b8ff" points="82.97,-40.89 74.08,-46.67 84.63,-47.69 82.97,-40.89"/>
</a>
</g>
</g>
</g>
</svg>
