<?xml version="1.0" encoding="UTF-8" standalone="no"?>
<!DOCTYPE svg PUBLIC "-//W3C//DTD SVG 1.1//EN"
 "http://www.w3.org/Graphics/SVG/1.1/DTD/svg11.dtd">
<!-- Generated by graphviz version 2.43.0 (0)
 -->
<!-- Title: include/medusa/bits/approximations/InverseMultiquadric_fwd.hpp Pages: 1 -->
<svg width="751pt" height="269pt"
 viewBox="0.00 0.00 751.00 269.00" xmlns="http://www.w3.org/2000/svg" xmlns:xlink="http://www.w3.org/1999/xlink">
<g id="graph0" class="graph" transform="scale(1 1) rotate(0) translate(4 265)">
<title>include/medusa/bits/approximations/InverseMultiquadric_fwd.hpp</title>
<!-- Node1 -->
<g id="Node000001" class="node">
<title>Node1</title>
<g id="a_Node000001"><a xlink:title="Declaration of InverseMultiQuadratic RBF.">
<polygon fill="#999999" stroke="#666666" points="705,-261 509,-261 509,-220 705,-220 705,-261"/>
<text text-anchor="start" x="517" y="-249" font-family="Helvetica,sans-Serif" font-size="10.00">include/medusa/bits</text>
<text text-anchor="start" x="517" y="-238" font-family="Helvetica,sans-Serif" font-size="10.00">/approximations/InverseMultiquadric</text>
<text text-anchor="middle" x="607" y="-227" font-family="Helvetica,sans-Serif" font-size="10.00">_fwd.hpp</text>
</a>
</g>
</g>
<!-- Node2 -->
<g id="Node000002" class="node">
<title>Node2</title>
<g id="a_Node000002"><a xlink:href="Config_8hpp.html" target="_top" xlink:title="Contains compile time settings for the project, such as Eigen plugins.">
<polygon fill="white" stroke="#666666" points="743,-74 633,-74 633,-55 743,-55 743,-74"/>
<text text-anchor="middle" x="688" y="-62" font-family="Helvetica,sans-Serif" font-size="10.00">medusa/Config.hpp</text>
</a>
</g>
</g>
<!-- Node1&#45;&gt;Node2 -->
<g id="edge1_Node000001_Node000002" class="edge">
<title>Node1&#45;&gt;Node2</title>
<g id="a_edge1_Node000001_Node000002"><a xlink:title=" ">
<path fill="none" stroke="#63b8ff" d="M616.13,-219.88C631.96,-185.87 664.26,-116.49 679.58,-83.58"/>
<polygon fill="#63b8ff" stroke="#63b8ff" points="682.87,-84.82 683.92,-74.27 676.52,-81.86 682.87,-84.82"/>
</a>
</g>
</g>
<!-- Node4 -->
<g id="Node000004" class="node">
<title>Node4</title>
<g id="a_Node000004"><a xlink:title=" ">
<polygon fill="#e0e0e0" stroke="#999999" points="615,-74 567,-74 567,-55 615,-55 615,-74"/>
<text text-anchor="middle" x="591" y="-62" font-family="Helvetica,sans-Serif" font-size="10.00">iosfwd</text>
</a>
</g>
</g>
<!-- Node1&#45;&gt;Node4 -->
<g id="edge3_Node000001_Node000004" class="edge">
<title>Node1&#45;&gt;Node4</title>
<g id="a_edge3_Node000001_Node000004"><a xlink:title=" ">
<path fill="none" stroke="#63b8ff" d="M605.2,-219.88C602.1,-186.17 595.8,-117.69 592.74,-84.45"/>
<polygon fill="#63b8ff" stroke="#63b8ff" points="596.21,-83.91 591.81,-74.27 589.24,-84.55 596.21,-83.91"/>
</a>
</g>
</g>
<!-- Node5 -->
<g id="Node000005" class="node">
<title>Node5</title>
<g id="a_Node000005"><a xlink:href="Operators__fwd_8hpp.html" target="_top" xlink:title="File defining basic differential operator families.">
<polygon fill="white" stroke="#666666" points="453,-184 345,-184 345,-165 453,-165 453,-184"/>
<text text-anchor="middle" x="399" y="-172" font-family="Helvetica,sans-Serif" font-size="10.00">Operators_fwd.hpp</text>
</a>
</g>
</g>
<!-- Node1&#45;&gt;Node5 -->
<g id="edge4_Node000001_Node000005" class="edge">
<title>Node1&#45;&gt;Node5</title>
<g id="a_edge4_Node000001_Node000005"><a xlink:title=" ">
<path fill="none" stroke="#63b8ff" d="M543.46,-219.95C508.36,-209.15 465.98,-196.11 436.23,-186.95"/>
<polygon fill="#63b8ff" stroke="#63b8ff" points="437.24,-183.6 426.65,-184.01 435.18,-190.29 437.24,-183.6"/>
</a>
</g>
</g>
<!-- Node3 -->
<g id="Node000003" class="node">
<title>Node3</title>
<g id="a_Node000003"><a xlink:title=" ">
<polygon fill="#e0e0e0" stroke="#999999" points="382.5,-19 335.5,-19 335.5,0 382.5,0 382.5,-19"/>
<text text-anchor="middle" x="359" y="-7" font-family="Helvetica,sans-Serif" font-size="10.00">vector</text>
</a>
</g>
</g>
<!-- Node2&#45;&gt;Node3 -->
<g id="edge2_Node000002_Node000003" class="edge">
<title>Node2&#45;&gt;Node3</title>
<g id="a_edge2_Node000002_Node000003"><a xlink:title=" ">
<path fill="none" stroke="#63b8ff" d="M635.14,-54.98C566.91,-43.99 450.17,-25.19 392.82,-15.95"/>
<polygon fill="#63b8ff" stroke="#63b8ff" points="393.25,-12.47 382.82,-14.34 392.14,-19.38 393.25,-12.47"/>
</a>
</g>
</g>
<!-- Node5&#45;&gt;Node2 -->
<g id="edge5_Node000005_Node000002" class="edge">
<title>Node5&#45;&gt;Node2</title>
<g id="a_edge5_Node000005_Node000002"><a xlink:title=" ">
<path fill="none" stroke="#63b8ff" d="M433.05,-164.98C463.95,-156.88 510.59,-143.78 550,-129 590.02,-113.98 634.69,-92.53 662.07,-78.8"/>
<polygon fill="#63b8ff" stroke="#63b8ff" points="663.99,-81.76 671.34,-74.12 660.83,-75.51 663.99,-81.76"/>
</a>
</g>
</g>
<!-- Node5&#45;&gt;Node3 -->
<g id="edge7_Node000005_Node000003" class="edge">
<title>Node5&#45;&gt;Node3</title>
<g id="a_edge7_Node000005_Node000003"><a xlink:title=" ">
<path fill="none" stroke="#63b8ff" d="M395.62,-164.87C389.07,-147.79 374.62,-108.37 367,-74 363.72,-59.22 361.67,-42.18 360.46,-29.47"/>
<polygon fill="#63b8ff" stroke="#63b8ff" points="363.92,-28.88 359.58,-19.22 356.95,-29.48 363.92,-28.88"/>
</a>
</g>
</g>
<!-- Node6 -->
<g id="Node000006" class="node">
<title>Node6</title>
<g id="a_Node000006"><a xlink:title=" ">
<polygon fill="#e0e0e0" stroke="#999999" points="317,-19 275,-19 275,0 317,0 317,-19"/>
<text text-anchor="middle" x="296" y="-7" font-family="Helvetica,sans-Serif" font-size="10.00">array</text>
</a>
</g>
</g>
<!-- Node5&#45;&gt;Node6 -->
<g id="edge6_Node000005_Node000006" class="edge">
<title>Node5&#45;&gt;Node6</title>
<g id="a_edge6_Node000005_Node000006"><a xlink:title=" ">
<path fill="none" stroke="#63b8ff" d="M393.46,-164.74C377.12,-138.87 328.85,-62.48 306.98,-27.88"/>
<polygon fill="#63b8ff" stroke="#63b8ff" points="309.87,-25.89 301.57,-19.31 303.95,-29.63 309.87,-25.89"/>
</a>
</g>
</g>
<!-- Node7 -->
<g id="Node000007" class="node">
<title>Node7</title>
<g id="a_Node000007"><a xlink:title=" ">
<polygon fill="#e0e0e0" stroke="#999999" points="444.5,-74 375.5,-74 375.5,-55 444.5,-55 444.5,-74"/>
<text text-anchor="middle" x="410" y="-62" font-family="Helvetica,sans-Serif" font-size="10.00">Eigen/Core</text>
</a>
</g>
</g>
<!-- Node5&#45;&gt;Node7 -->
<g id="edge8_Node000005_Node000007" class="edge">
<title>Node5&#45;&gt;Node7</title>
<g id="a_edge8_Node000005_Node000007"><a xlink:title=" ">
<path fill="none" stroke="#63b8ff" d="M399.9,-164.66C401.68,-147.17 405.69,-107.8 408.09,-84.27"/>
<polygon fill="#63b8ff" stroke="#63b8ff" points="411.59,-84.46 409.12,-74.16 404.62,-83.75 411.59,-84.46"/>
</a>
</g>
</g>
<!-- Node8 -->
<g id="Node000008" class="node">
<title>Node8</title>
<g id="a_Node000008"><a xlink:href="Monomials__fwd_8hpp.html" target="_top" xlink:title="Declaration of Monomial basis.">
<polygon fill="white" stroke="#666666" points="541,-129 427,-129 427,-110 541,-110 541,-129"/>
<text text-anchor="middle" x="484" y="-117" font-family="Helvetica,sans-Serif" font-size="10.00">Monomials_fwd.hpp</text>
</a>
</g>
</g>
<!-- Node5&#45;&gt;Node8 -->
<g id="edge9_Node000005_Node000008" class="edge">
<title>Node5&#45;&gt;Node8</title>
<g id="a_edge9_Node000005_Node000008"><a xlink:title=" ">
<path fill="none" stroke="#63b8ff" d="M412.66,-164.98C425.84,-156.77 446.03,-144.18 461.57,-134.49"/>
<polygon fill="#63b8ff" stroke="#63b8ff" points="463.46,-137.43 470.09,-129.17 459.76,-131.49 463.46,-137.43"/>
</a>
</g>
</g>
<!-- Node10 -->
<g id="Node000010" class="node">
<title>Node10</title>
<g id="a_Node000010"><a xlink:href="assert_8hpp.html" target="_top" xlink:title="Implementation of custom assert and debug utilities.">
<polygon fill="white" stroke="#666666" points="280.5,-129 125.5,-129 125.5,-110 280.5,-110 280.5,-129"/>
<text text-anchor="middle" x="203" y="-117" font-family="Helvetica,sans-Serif" font-size="10.00">medusa/bits/utils/assert.hpp</text>
</a>
</g>
</g>
<!-- Node5&#45;&gt;Node10 -->
<g id="edge15_Node000005_Node000010" class="edge">
<title>Node5&#45;&gt;Node10</title>
<g id="a_edge15_Node000005_Node000010"><a xlink:title=" ">
<path fill="none" stroke="#63b8ff" d="M367.51,-164.98C334.18,-155.97 281.4,-141.7 244.65,-131.76"/>
<polygon fill="#63b8ff" stroke="#63b8ff" points="245.3,-128.31 234.74,-129.08 243.48,-135.07 245.3,-128.31"/>
</a>
</g>
</g>
<!-- Node8&#45;&gt;Node2 -->
<g id="edge10_Node000008_Node000002" class="edge">
<title>Node8&#45;&gt;Node2</title>
<g id="a_edge10_Node000008_Node000002"><a xlink:title=" ">
<path fill="none" stroke="#63b8ff" d="M516.78,-109.98C551.62,-100.93 606.87,-86.58 645.14,-76.64"/>
<polygon fill="#63b8ff" stroke="#63b8ff" points="646.17,-79.98 654.97,-74.08 644.41,-73.21 646.17,-79.98"/>
</a>
</g>
</g>
<!-- Node8&#45;&gt;Node4 -->
<g id="edge14_Node000008_Node000004" class="edge">
<title>Node8&#45;&gt;Node4</title>
<g id="a_edge14_Node000008_Node000004"><a xlink:title=" ">
<path fill="none" stroke="#63b8ff" d="M501.19,-109.98C518.25,-101.54 544.63,-88.47 564.4,-78.68"/>
<polygon fill="#63b8ff" stroke="#63b8ff" points="566.09,-81.75 573.5,-74.17 562.98,-75.47 566.09,-81.75"/>
</a>
</g>
</g>
<!-- Node8&#45;&gt;Node6 -->
<g id="edge12_Node000008_Node000006" class="edge">
<title>Node8&#45;&gt;Node6</title>
<g id="a_edge12_Node000008_Node000006"><a xlink:title=" ">
<path fill="none" stroke="#63b8ff" d="M482.28,-109.69C479.13,-95.95 471.13,-69.49 454,-55 452.75,-53.95 372.42,-31.62 326.8,-19"/>
<polygon fill="#63b8ff" stroke="#63b8ff" points="327.67,-15.61 317.1,-16.32 325.8,-22.36 327.67,-15.61"/>
</a>
</g>
</g>
<!-- Node8&#45;&gt;Node7 -->
<g id="edge13_Node000008_Node000007" class="edge">
<title>Node8&#45;&gt;Node7</title>
<g id="a_edge13_Node000008_Node000007"><a xlink:title=" ">
<path fill="none" stroke="#63b8ff" d="M472.11,-109.98C460.85,-101.92 443.71,-89.65 430.29,-80.03"/>
<polygon fill="#63b8ff" stroke="#63b8ff" points="432.27,-77.15 422.11,-74.17 428.2,-82.84 432.27,-77.15"/>
</a>
</g>
</g>
<!-- Node9 -->
<g id="Node000009" class="node">
<title>Node9</title>
<g id="a_Node000009"><a xlink:title=" ">
<polygon fill="#e0e0e0" stroke="#999999" points="548.5,-74 501.5,-74 501.5,-55 548.5,-55 548.5,-74"/>
<text text-anchor="middle" x="525" y="-62" font-family="Helvetica,sans-Serif" font-size="10.00">cmath</text>
</a>
</g>
</g>
<!-- Node8&#45;&gt;Node9 -->
<g id="edge11_Node000008_Node000009" class="edge">
<title>Node8&#45;&gt;Node9</title>
<g id="a_edge11_Node000008_Node000009"><a xlink:title=" ">
<path fill="none" stroke="#63b8ff" d="M490.77,-109.75C496.56,-102.26 505.06,-91.28 512.14,-82.13"/>
<polygon fill="#63b8ff" stroke="#63b8ff" points="515.01,-84.14 518.36,-74.09 509.47,-79.86 515.01,-84.14"/>
</a>
</g>
</g>
<!-- Node11 -->
<g id="Node000011" class="node">
<title>Node11</title>
<g id="a_Node000011"><a xlink:title=" ">
<polygon fill="#e0e0e0" stroke="#999999" points="281,-74 149,-74 149,-55 281,-55 281,-74"/>
<text text-anchor="middle" x="215" y="-62" font-family="Helvetica,sans-Serif" font-size="10.00">tinyformat/tinyformat.h</text>
</a>
</g>
</g>
<!-- Node10&#45;&gt;Node11 -->
<g id="edge16_Node000010_Node000011" class="edge">
<title>Node10&#45;&gt;Node11</title>
<g id="a_edge16_Node000010_Node000011"><a xlink:title=" ">
<path fill="none" stroke="#63b8ff" d="M204.98,-109.75C206.57,-102.72 208.86,-92.62 210.85,-83.84"/>
<polygon fill="#63b8ff" stroke="#63b8ff" points="214.26,-84.62 213.06,-74.09 207.43,-83.07 214.26,-84.62"/>
</a>
</g>
</g>
<!-- Node12 -->
<g id="Node000012" class="node">
<title>Node12</title>
<g id="a_Node000012"><a xlink:href="print_8hpp.html" target="_top" xlink:title="Printing helpers for std types.">
<polygon fill="white" stroke="#666666" points="131,-74 71,-74 71,-55 131,-55 131,-74"/>
<text text-anchor="middle" x="101" y="-62" font-family="Helvetica,sans-Serif" font-size="10.00">print.hpp</text>
</a>
</g>
</g>
<!-- Node10&#45;&gt;Node12 -->
<g id="edge17_Node000010_Node000012" class="edge">
<title>Node10&#45;&gt;Node12</title>
<g id="a_edge17_Node000010_Node000012"><a xlink:title=" ">
<path fill="none" stroke="#63b8ff" d="M186.61,-109.98C170.43,-101.57 145.43,-88.59 126.62,-78.81"/>
<polygon fill="#63b8ff" stroke="#63b8ff" points="128.17,-75.68 117.69,-74.17 124.95,-81.89 128.17,-75.68"/>
</a>
</g>
</g>
<!-- Node12&#45;&gt;Node3 -->
<g id="edge19_Node000012_Node000003" class="edge">
<title>Node12&#45;&gt;Node3</title>
<g id="a_edge19_Node000012_Node000003"><a xlink:title=" ">
<path fill="none" stroke="#63b8ff" d="M131.22,-56.84C134.18,-56.21 137.15,-55.59 140,-55 219.41,-38.66 242.19,-37.57 325.36,-19.03"/>
<polygon fill="#63b8ff" stroke="#63b8ff" points="326.26,-22.41 335.25,-16.8 324.72,-15.58 326.26,-22.41"/>
</a>
</g>
</g>
<!-- Node12&#45;&gt;Node6 -->
<g id="edge20_Node000012_Node000006" class="edge">
<title>Node12&#45;&gt;Node6</title>
<g id="a_edge20_Node000012_Node000006"><a xlink:title=" ">
<path fill="none" stroke="#63b8ff" d="M131.04,-55.33C167.47,-45.43 228.53,-28.84 265.26,-18.85"/>
<polygon fill="#63b8ff" stroke="#63b8ff" points="266.21,-22.22 274.94,-16.22 264.37,-15.47 266.21,-22.22"/>
</a>
</g>
</g>
<!-- Node13 -->
<g id="Node000013" class="node">
<title>Node13</title>
<g id="a_Node000013"><a xlink:title=" ">
<polygon fill="#e0e0e0" stroke="#999999" points="60,-19 0,-19 0,0 60,0 60,-19"/>
<text text-anchor="middle" x="30" y="-7" font-family="Helvetica,sans-Serif" font-size="10.00">iostream</text>
</a>
</g>
</g>
<!-- Node12&#45;&gt;Node13 -->
<g id="edge18_Node000012_Node000013" class="edge">
<title>Node12&#45;&gt;Node13</title>
<g id="a_edge18_Node000012_Node000013"><a xlink:title=" ">
<path fill="none" stroke="#63b8ff" d="M89.59,-54.98C78.89,-47 62.66,-34.88 49.84,-25.31"/>
<polygon fill="#63b8ff" stroke="#63b8ff" points="51.72,-22.35 41.61,-19.17 47.53,-27.96 51.72,-22.35"/>
</a>
</g>
</g>
<!-- Node14 -->
<g id="Node000014" class="node">
<title>Node14</title>
<g id="a_Node000014"><a xlink:title=" ">
<polygon fill="#e0e0e0" stroke="#999999" points="123.5,-19 78.5,-19 78.5,0 123.5,0 123.5,-19"/>
<text text-anchor="middle" x="101" y="-7" font-family="Helvetica,sans-Serif" font-size="10.00">utility</text>
</a>
</g>
</g>
<!-- Node12&#45;&gt;Node14 -->
<g id="edge21_Node000012_Node000014" class="edge">
<title>Node12&#45;&gt;Node14</title>
<g id="a_edge21_Node000012_Node000014"><a xlink:title=" ">
<path fill="none" stroke="#63b8ff" d="M101,-54.75C101,-47.8 101,-37.85 101,-29.13"/>
<polygon fill="#63b8ff" stroke="#63b8ff" points="104.5,-29.09 101,-19.09 97.5,-29.09 104.5,-29.09"/>
</a>
</g>
</g>
<!-- Node15 -->
<g id="Node000015" class="node">
<title>Node15</title>
<g id="a_Node000015"><a xlink:title=" ">
<polygon fill="#e0e0e0" stroke="#999999" points="182.5,-19 141.5,-19 141.5,0 182.5,0 182.5,-19"/>
<text text-anchor="middle" x="162" y="-7" font-family="Helvetica,sans-Serif" font-size="10.00">tuple</text>
</a>
</g>
</g>
<!-- Node12&#45;&gt;Node15 -->
<g id="edge22_Node000012_Node000015" class="edge">
<title>Node12&#45;&gt;Node15</title>
<g id="a_edge22_Node000012_Node000015"><a xlink:title=" ">
<path fill="none" stroke="#63b8ff" d="M110.8,-54.98C119.82,-47.15 133.41,-35.34 144.32,-25.86"/>
<polygon fill="#63b8ff" stroke="#63b8ff" points="146.77,-28.37 152.02,-19.17 142.18,-23.09 146.77,-28.37"/>
</a>
</g>
</g>
</g>
</svg>
