<?xml version="1.0" encoding="UTF-8" standalone="no"?>
<!DOCTYPE svg PUBLIC "-//W3C//DTD SVG 1.1//EN"
 "http://www.w3.org/Graphics/SVG/1.1/DTD/svg11.dtd">
<!-- Generated by graphviz version 2.43.0 (0)
 -->
<!-- Title: src/approximations/InverseMultiquadric.cpp Pages: 1 -->
<!--zoomable 445 -->

<svg id="main" version="1.1" xmlns="http://www.w3.org/2000/svg" xmlns:xlink="http://www.w3.org/1999/xlink" xml:space="preserve" onload="init(evt)">
<style type="text/css"><![CDATA[
.node, .edge {opacity: 0.7;}
.node.selected, .edge.selected {opacity: 1;}
.edge:hover path { stroke: red; }
.edge:hover polygon { stroke: red; fill: red; }
]]></style>

<defs>
  <circle id="rim" cx="0" cy="0" r="7"/>
  <circle id="rim2" cx="0" cy="0" r="3.5"/>
  <g id="zoomPlus">
    <use xlink:href="#rim" fill="#404040"><set attributeName="fill" to="#808080" begin="zoomplus.mouseover" end="zoomplus.mouseout"/></use>
    <path d="M-4,0h8M0,-4v8" fill="none" stroke="white" stroke-width="1.5" pointer-events="none"/>
  </g>
  <g id="zoomMin">
    <use xlink:href="#rim" fill="#404040"><set attributeName="fill" to="#808080" begin="zoomminus.mouseover" end="zoomminus.mouseout"/></use>
    <path d="M-4,0h8" fill="none" stroke="white" stroke-width="1.5" pointer-events="none"/>
  </g>
  <g id="arrowUp" transform="translate(30 24)">
    <use xlink:href="#rim"/>
    <path pointer-events="none" fill="none" stroke="white" stroke-width="1.5" d="M0,-3.0v7 M-2.5,-0.5L0,-3.0L2.5,-0.5"/>
  </g>
  <g id="arrowRight" transform="rotate(90) translate(36 -43)">
    <use xlink:href="#rim"/>
    <path pointer-events="none" fill="none" stroke="white" stroke-width="1.5" d="M0,-3.0v7 M-2.5,-0.5L0,-3.0L2.5,-0.5"/>
  </g>
  <g id="arrowDown" transform="rotate(180) translate(-30 -48)">
    <use xlink:href="#rim"/>
    <path pointer-events="none" fill="none" stroke="white" stroke-width="1.5" d="M0,-3.0v7 M-2.5,-0.5L0,-3.0L2.5,-0.5"/>
  </g>
  <g id="arrowLeft" transform="rotate(270) translate(-36 17)">
    <use xlink:href="#rim"/>
    <path pointer-events="none" fill="none" stroke="white" stroke-width="1.5" d="M0,-3.0v7 M-2.5,-0.5L0,-3.0L2.5,-0.5"/>
  </g>
  <g id="resetDef">
    <use xlink:href="#rim2" fill="#404040"><set attributeName="fill" to="#808080" begin="reset.mouseover" end="reset.mouseout"/></use>
  </g>
</defs>
<script type="application/ecmascript">
var viewWidth = 859;
var viewHeight = 445;
var sectionId = 'dynsection-0';
</script>
<script type="application/ecmascript" xlink:href="svg.min.js"/>
<svg id="graph" class="graph">
<g id="viewport">
<title>src/approximations/InverseMultiquadric.cpp</title>
<!-- Node1 -->
<g id="Node000001" class="node">
<title>Node1</title>
<g id="a_Node000001"><a xlink:title="Explicit instantiations for common parameters.">
<polygon fill="#999999" stroke="#666666" points="644.78,-437 507.78,-437 507.78,-407 644.78,-407 644.78,-437"/>
<text text-anchor="start" x="515.78" y="-425" font-family="Helvetica,sans-Serif" font-size="10.00">src/approximations</text>
<text text-anchor="middle" x="576.28" y="-414" font-family="Helvetica,sans-Serif" font-size="10.00">/InverseMultiquadric.cpp</text>
</a>
</g>
</g>
<!-- Node2 -->
<g id="Node000002" class="node">
<title>Node2</title>
<g id="a_Node000002"><a xlink:href="InverseMultiquadric_8hpp.html" target="_top" xlink:title="Implementation of InverseMultiQuadratic RBF.">
<polygon fill="white" stroke="#666666" points="654.28,-371 498.28,-371 498.28,-341 654.28,-341 654.28,-371"/>
<text text-anchor="start" x="506.28" y="-359" font-family="Helvetica,sans-Serif" font-size="10.00">medusa/bits/approximations</text>
<text text-anchor="middle" x="576.28" y="-348" font-family="Helvetica,sans-Serif" font-size="10.00">/InverseMultiquadric.hpp</text>
</a>
</g>
</g>
<!-- Node1&#45;&gt;Node2 -->
<g id="edge1_Node000001_Node000002" class="edge">
<title>Node1&#45;&gt;Node2</title>
<g id="a_edge1_Node000001_Node000002"><a xlink:title=" ">
<path fill="none" stroke="#63b8ff" d="M576.28,-406.8C576.28,-399.34 576.28,-389.99 576.28,-381.41"/>
<polygon fill="#63b8ff" stroke="#63b8ff" points="579.78,-381.16 576.28,-371.16 572.78,-381.16 579.78,-381.16"/>
</a>
</g>
</g>
<!-- Node3 -->
<g id="Node000003" class="node">
<title>Node3</title>
<g id="a_Node000003"><a xlink:href="InverseMultiquadric__fwd_8hpp.html" target="_top" xlink:title="Declaration of InverseMultiQuadratic RBF.">
<polygon fill="white" stroke="#666666" points="316.78,-305 203.78,-305 203.78,-275 316.78,-275 316.78,-305"/>
<text text-anchor="start" x="211.78" y="-293" font-family="Helvetica,sans-Serif" font-size="10.00">InverseMultiquadric</text>
<text text-anchor="middle" x="260.28" y="-282" font-family="Helvetica,sans-Serif" font-size="10.00">_fwd.hpp</text>
</a>
</g>
</g>
<!-- Node2&#45;&gt;Node3 -->
<g id="edge2_Node000002_Node000003" class="edge">
<title>Node2&#45;&gt;Node3</title>
<g id="a_edge2_Node000002_Node000003"><a xlink:title=" ">
<path fill="none" stroke="#63b8ff" d="M506.93,-340.95C453.34,-330.1 379.62,-315.17 326.76,-304.47"/>
<polygon fill="#63b8ff" stroke="#63b8ff" points="327.31,-301.01 316.81,-302.45 325.92,-307.87 327.31,-301.01"/>
</a>
</g>
</g>
<!-- Node11 -->
<g id="Node000011" class="node">
<title>Node11</title>
<g id="a_Node000011"><a xlink:title=" ">
<polygon fill="#e0e0e0" stroke="#999999" points="850.78,-129 803.78,-129 803.78,-110 850.78,-110 850.78,-129"/>
<text text-anchor="middle" x="827.28" y="-117" font-family="Helvetica,sans-Serif" font-size="10.00">cmath</text>
</a>
</g>
</g>
<!-- Node2&#45;&gt;Node11 -->
<g id="edge25_Node000002_Node000011" class="edge">
<title>Node2&#45;&gt;Node11</title>
<g id="a_edge25_Node000002_Node000011"><a xlink:title=" ">
<path fill="none" stroke="#63b8ff" d="M642.44,-340.9C669.36,-333.14 699.82,-321.61 724.28,-305 779.51,-267.5 788.6,-246.03 813.28,-184 819.02,-169.56 822.64,-152.29 824.75,-139.4"/>
<polygon fill="#63b8ff" stroke="#63b8ff" points="828.23,-139.8 826.24,-129.39 821.31,-138.77 828.23,-139.8"/>
</a>
</g>
</g>
<!-- Node12 -->
<g id="Node000012" class="node">
<title>Node12</title>
<g id="a_Node000012"><a xlink:href="assert_8hpp.html" target="_top" xlink:title="Implementation of custom assert and debug utilities.">
<polygon fill="white" stroke="#666666" points="589.78,-129 434.78,-129 434.78,-110 589.78,-110 589.78,-129"/>
<text text-anchor="middle" x="512.28" y="-117" font-family="Helvetica,sans-Serif" font-size="10.00">medusa/bits/utils/assert.hpp</text>
</a>
</g>
</g>
<!-- Node2&#45;&gt;Node12 -->
<g id="edge26_Node000002_Node000012" class="edge">
<title>Node2&#45;&gt;Node12</title>
<g id="a_edge26_Node000002_Node000012"><a xlink:title=" ">
<path fill="none" stroke="#63b8ff" d="M563.23,-340.8C555.3,-331.35 545.69,-318.27 540.28,-305 516.97,-247.86 512.85,-173.62 512.26,-139.35"/>
<polygon fill="#63b8ff" stroke="#63b8ff" points="515.76,-139.31 512.18,-129.34 508.76,-139.37 515.76,-139.31"/>
</a>
</g>
</g>
<!-- Node18 -->
<g id="Node000018" class="node">
<title>Node18</title>
<g id="a_Node000018"><a xlink:href="numutils_8hpp.html" target="_top" xlink:title="Declaration of numerical utilities.">
<polygon fill="white" stroke="#666666" points="715.78,-299.5 548.78,-299.5 548.78,-280.5 715.78,-280.5 715.78,-299.5"/>
<text text-anchor="middle" x="632.28" y="-287.5" font-family="Helvetica,sans-Serif" font-size="10.00">medusa/bits/utils/numutils.hpp</text>
</a>
</g>
</g>
<!-- Node2&#45;&gt;Node18 -->
<g id="edge27_Node000002_Node000018" class="edge">
<title>Node2&#45;&gt;Node18</title>
<g id="a_edge27_Node000002_Node000018"><a xlink:title=" ">
<path fill="none" stroke="#63b8ff" d="M588.71,-340.8C597.35,-330.92 608.9,-317.72 617.93,-307.39"/>
<polygon fill="#63b8ff" stroke="#63b8ff" points="620.59,-309.67 624.54,-299.84 615.32,-305.07 620.59,-309.67"/>
</a>
</g>
</g>
<!-- Node4 -->
<g id="Node000004" class="node">
<title>Node4</title>
<g id="a_Node000004"><a xlink:href="Config_8hpp.html" target="_top" xlink:title="Contains compile time settings for the project, such as Eigen plugins.">
<polygon fill="white" stroke="#666666" points="350.28,-129 240.28,-129 240.28,-110 350.28,-110 350.28,-129"/>
<text text-anchor="middle" x="295.28" y="-117" font-family="Helvetica,sans-Serif" font-size="10.00">medusa/Config.hpp</text>
</a>
</g>
</g>
<!-- Node3&#45;&gt;Node4 -->
<g id="edge3_Node000003_Node000004" class="edge">
<title>Node3&#45;&gt;Node4</title>
<g id="a_edge3_Node000003_Node000004"><a xlink:title=" ">
<path fill="none" stroke="#63b8ff" d="M257.31,-274.88C254.99,-259.83 253.81,-236.02 265.28,-220 289.16,-186.64 327.62,-218.2 350.28,-184 362.5,-165.55 340.9,-146.66 321.29,-134.33"/>
<polygon fill="#63b8ff" stroke="#63b8ff" points="322.93,-131.24 312.55,-129.16 319.37,-137.26 322.93,-131.24"/>
</a>
</g>
</g>
<!-- Node6 -->
<g id="Node000006" class="node">
<title>Node6</title>
<g id="a_Node000006"><a xlink:title=" ">
<polygon fill="#e0e0e0" stroke="#999999" points="416.28,-129 368.28,-129 368.28,-110 416.28,-110 416.28,-129"/>
<text text-anchor="middle" x="392.28" y="-117" font-family="Helvetica,sans-Serif" font-size="10.00">iosfwd</text>
</a>
</g>
</g>
<!-- Node3&#45;&gt;Node6 -->
<g id="edge5_Node000003_Node000006" class="edge">
<title>Node3&#45;&gt;Node6</title>
<g id="a_edge5_Node000003_Node000006"><a xlink:title=" ">
<path fill="none" stroke="#63b8ff" d="M265.28,-274.76C271.19,-259.62 282.29,-235.73 298.28,-220 322.66,-196.02 343.31,-209.34 366.28,-184 377.77,-171.32 384.55,-152.89 388.29,-139.14"/>
<polygon fill="#63b8ff" stroke="#63b8ff" points="391.71,-139.87 390.67,-129.32 384.91,-138.22 391.71,-139.87"/>
</a>
</g>
</g>
<!-- Node7 -->
<g id="Node000007" class="node">
<title>Node7</title>
<g id="a_Node000007"><a xlink:href="Operators__fwd_8hpp.html" target="_top" xlink:title="File defining basic differential operator families.">
<polygon fill="white" stroke="#666666" points="213.28,-239 105.28,-239 105.28,-220 213.28,-220 213.28,-239"/>
<text text-anchor="middle" x="159.28" y="-227" font-family="Helvetica,sans-Serif" font-size="10.00">Operators_fwd.hpp</text>
</a>
</g>
</g>
<!-- Node3&#45;&gt;Node7 -->
<g id="edge6_Node000003_Node000007" class="edge">
<title>Node3&#45;&gt;Node7</title>
<g id="a_edge6_Node000003_Node000007"><a xlink:title=" ">
<path fill="none" stroke="#63b8ff" d="M236.09,-274.99C219.99,-265.66 198.94,-253.47 182.95,-244.21"/>
<polygon fill="#63b8ff" stroke="#63b8ff" points="184.6,-241.12 174.19,-239.14 181.09,-247.18 184.6,-241.12"/>
</a>
</g>
</g>
<!-- Node5 -->
<g id="Node000005" class="node">
<title>Node5</title>
<g id="a_Node000005"><a xlink:title=" ">
<polygon fill="#e0e0e0" stroke="#999999" points="471.78,-19 424.78,-19 424.78,0 471.78,0 471.78,-19"/>
<text text-anchor="middle" x="448.28" y="-7" font-family="Helvetica,sans-Serif" font-size="10.00">vector</text>
</a>
</g>
</g>
<!-- Node4&#45;&gt;Node5 -->
<g id="edge4_Node000004_Node000005" class="edge">
<title>Node4&#45;&gt;Node5</title>
<g id="a_edge4_Node000004_Node000005"><a xlink:title=" ">
<path fill="none" stroke="#63b8ff" d="M307.54,-109.84C333.73,-91.36 395.35,-47.86 427.67,-25.05"/>
<polygon fill="#63b8ff" stroke="#63b8ff" points="429.81,-27.82 435.96,-19.2 425.77,-22.1 429.81,-27.82"/>
</a>
</g>
</g>
<!-- Node7&#45;&gt;Node4 -->
<g id="edge7_Node000007_Node000004" class="edge">
<title>Node7&#45;&gt;Node4</title>
<g id="a_edge7_Node000007_Node000004"><a xlink:title=" ">
<path fill="none" stroke="#63b8ff" d="M165.85,-219.93C176.08,-206.97 196.86,-182.07 218.28,-165 233.67,-152.72 252.84,-141.64 268.2,-133.6"/>
<polygon fill="#63b8ff" stroke="#63b8ff" points="269.88,-136.67 277.2,-129 266.7,-130.43 269.88,-136.67"/>
</a>
</g>
</g>
<!-- Node7&#45;&gt;Node5 -->
<g id="edge9_Node000007_Node000005" class="edge">
<title>Node7&#45;&gt;Node5</title>
<g id="a_edge9_Node000007_Node000005"><a xlink:title=" ">
<path fill="none" stroke="#63b8ff" d="M139.47,-219.98C98.59,-201.21 11.5,-154.44 46.28,-110 92.11,-51.44 326.31,-22.56 414.57,-13.62"/>
<polygon fill="#63b8ff" stroke="#63b8ff" points="414.98,-17.1 424.59,-12.63 414.29,-10.13 414.98,-17.1"/>
</a>
</g>
</g>
<!-- Node8 -->
<g id="Node000008" class="node">
<title>Node8</title>
<g id="a_Node000008"><a xlink:title=" ">
<polygon fill="#e0e0e0" stroke="#999999" points="174.28,-19 132.28,-19 132.28,0 174.28,0 174.28,-19"/>
<text text-anchor="middle" x="153.28" y="-7" font-family="Helvetica,sans-Serif" font-size="10.00">array</text>
</a>
</g>
</g>
<!-- Node7&#45;&gt;Node8 -->
<g id="edge8_Node000007_Node000008" class="edge">
<title>Node7&#45;&gt;Node8</title>
<g id="a_edge8_Node000007_Node000008"><a xlink:title=" ">
<path fill="none" stroke="#63b8ff" d="M105.08,-227.17C72.84,-223.23 34.25,-212.32 13.28,-184 -6.3,-157.57 -1.81,-139.23 13.28,-110 36.18,-65.62 89.03,-36.73 122.85,-22.05"/>
<polygon fill="#63b8ff" stroke="#63b8ff" points="124.38,-25.2 132.26,-18.11 121.68,-18.74 124.38,-25.2"/>
</a>
</g>
</g>
<!-- Node9 -->
<g id="Node000009" class="node">
<title>Node9</title>
<g id="a_Node000009"><a xlink:title=" ">
<polygon fill="#e0e0e0" stroke="#999999" points="124.78,-129 55.78,-129 55.78,-110 124.78,-110 124.78,-129"/>
<text text-anchor="middle" x="90.28" y="-117" font-family="Helvetica,sans-Serif" font-size="10.00">Eigen/Core</text>
</a>
</g>
</g>
<!-- Node7&#45;&gt;Node9 -->
<g id="edge10_Node000007_Node000009" class="edge">
<title>Node7&#45;&gt;Node9</title>
<g id="a_edge10_Node000007_Node000009"><a xlink:title=" ">
<path fill="none" stroke="#63b8ff" d="M131.63,-219.98C114.7,-213.17 94.39,-201.76 84.28,-184 76.49,-170.33 79.19,-152.28 83.14,-138.92"/>
<polygon fill="#63b8ff" stroke="#63b8ff" points="86.48,-139.98 86.4,-129.39 79.85,-137.72 86.48,-139.98"/>
</a>
</g>
</g>
<!-- Node10 -->
<g id="Node000010" class="node">
<title>Node10</title>
<g id="a_Node000010"><a xlink:href="Monomials__fwd_8hpp.html" target="_top" xlink:title="Declaration of Monomial basis.">
<polygon fill="white" stroke="#666666" points="341.28,-184 227.28,-184 227.28,-165 341.28,-165 341.28,-184"/>
<text text-anchor="middle" x="284.28" y="-172" font-family="Helvetica,sans-Serif" font-size="10.00">Monomials_fwd.hpp</text>
</a>
</g>
</g>
<!-- Node7&#45;&gt;Node10 -->
<g id="edge11_Node000007_Node000010" class="edge">
<title>Node7&#45;&gt;Node10</title>
<g id="a_edge11_Node000007_Node000010"><a xlink:title=" ">
<path fill="none" stroke="#63b8ff" d="M179.36,-219.98C199.65,-211.38 231.23,-197.99 254.45,-188.15"/>
<polygon fill="#63b8ff" stroke="#63b8ff" points="255.99,-191.3 263.83,-184.17 253.26,-184.85 255.99,-191.3"/>
</a>
</g>
</g>
<!-- Node7&#45;&gt;Node12 -->
<g id="edge17_Node000007_Node000012" class="edge">
<title>Node7&#45;&gt;Node12</title>
<g id="a_edge17_Node000007_Node000012"><a xlink:title=" ">
<path fill="none" stroke="#63b8ff" d="M204.15,-219.96C243.17,-212.08 301.02,-199.3 350.28,-184 398.12,-169.14 451.96,-146.88 483.95,-133.05"/>
<polygon fill="#63b8ff" stroke="#63b8ff" points="485.38,-136.25 493.15,-129.04 482.58,-129.83 485.38,-136.25"/>
</a>
</g>
</g>
<!-- Node10&#45;&gt;Node4 -->
<g id="edge12_Node000010_Node000004" class="edge">
<title>Node10&#45;&gt;Node4</title>
<g id="a_edge12_Node000010_Node000004"><a xlink:title=" ">
<path fill="none" stroke="#63b8ff" d="M286.09,-164.75C287.54,-157.8 289.6,-147.85 291.41,-139.13"/>
<polygon fill="#63b8ff" stroke="#63b8ff" points="294.89,-139.59 293.49,-129.09 288.04,-138.17 294.89,-139.59"/>
</a>
</g>
</g>
<!-- Node10&#45;&gt;Node6 -->
<g id="edge16_Node000010_Node000006" class="edge">
<title>Node10&#45;&gt;Node6</title>
<g id="a_edge16_Node000010_Node000006"><a xlink:title=" ">
<path fill="none" stroke="#63b8ff" d="M301.63,-164.98C318.85,-156.54 345.48,-143.47 365.42,-133.68"/>
<polygon fill="#63b8ff" stroke="#63b8ff" points="367.17,-136.72 374.61,-129.17 364.09,-130.43 367.17,-136.72"/>
</a>
</g>
</g>
<!-- Node10&#45;&gt;Node8 -->
<g id="edge14_Node000010_Node000008" class="edge">
<title>Node10&#45;&gt;Node8</title>
<g id="a_edge14_Node000010_Node000008"><a xlink:title=" ">
<path fill="none" stroke="#63b8ff" d="M272.04,-164.84C260.69,-156.46 243.74,-143 231.28,-129 202.34,-96.48 176.18,-52.38 162.75,-28.19"/>
<polygon fill="#63b8ff" stroke="#63b8ff" points="165.67,-26.23 157.81,-19.13 159.53,-29.59 165.67,-26.23"/>
</a>
</g>
</g>
<!-- Node10&#45;&gt;Node9 -->
<g id="edge15_Node000010_Node000009" class="edge">
<title>Node10&#45;&gt;Node9</title>
<g id="a_edge15_Node000010_Node000009"><a xlink:title=" ">
<path fill="none" stroke="#63b8ff" d="M253.11,-164.98C220.11,-155.97 167.88,-141.7 131.5,-131.76"/>
<polygon fill="#63b8ff" stroke="#63b8ff" points="132.26,-128.34 121.69,-129.08 130.42,-135.09 132.26,-128.34"/>
</a>
</g>
</g>
<!-- Node10&#45;&gt;Node11 -->
<g id="edge13_Node000010_Node000011" class="edge">
<title>Node10&#45;&gt;Node11</title>
<g id="a_edge13_Node000010_Node000011"><a xlink:title=" ">
<path fill="none" stroke="#63b8ff" d="M341.41,-171.74C434.45,-168.18 624.51,-157.96 793.54,-129.03"/>
<polygon fill="#63b8ff" stroke="#63b8ff" points="794.36,-132.43 803.61,-127.27 793.16,-125.54 794.36,-132.43"/>
</a>
</g>
</g>
<!-- Node13 -->
<g id="Node000013" class="node">
<title>Node13</title>
<g id="a_Node000013"><a xlink:title=" ">
<polygon fill="#e0e0e0" stroke="#999999" points="578.28,-74 446.28,-74 446.28,-55 578.28,-55 578.28,-74"/>
<text text-anchor="middle" x="512.28" y="-62" font-family="Helvetica,sans-Serif" font-size="10.00">tinyformat/tinyformat.h</text>
</a>
</g>
</g>
<!-- Node12&#45;&gt;Node13 -->
<g id="edge18_Node000012_Node000013" class="edge">
<title>Node12&#45;&gt;Node13</title>
<g id="a_edge18_Node000012_Node000013"><a xlink:title=" ">
<path fill="none" stroke="#63b8ff" d="M512.28,-109.75C512.28,-102.8 512.28,-92.85 512.28,-84.13"/>
<polygon fill="#63b8ff" stroke="#63b8ff" points="515.78,-84.09 512.28,-74.09 508.78,-84.09 515.78,-84.09"/>
</a>
</g>
</g>
<!-- Node14 -->
<g id="Node000014" class="node">
<title>Node14</title>
<g id="a_Node000014"><a xlink:href="print_8hpp.html" target="_top" xlink:title="Printing helpers for std types.">
<polygon fill="white" stroke="#666666" points="700.28,-74 640.28,-74 640.28,-55 700.28,-55 700.28,-74"/>
<text text-anchor="middle" x="670.28" y="-62" font-family="Helvetica,sans-Serif" font-size="10.00">print.hpp</text>
</a>
</g>
</g>
<!-- Node12&#45;&gt;Node14 -->
<g id="edge19_Node000012_Node000014" class="edge">
<title>Node12&#45;&gt;Node14</title>
<g id="a_edge19_Node000012_Node000014"><a xlink:title=" ">
<path fill="none" stroke="#63b8ff" d="M537.66,-109.98C564.07,-101.13 605.62,-87.19 635.17,-77.28"/>
<polygon fill="#63b8ff" stroke="#63b8ff" points="636.33,-80.58 644.69,-74.08 634.1,-73.94 636.33,-80.58"/>
</a>
</g>
</g>
<!-- Node14&#45;&gt;Node5 -->
<g id="edge21_Node000014_Node000005" class="edge">
<title>Node14&#45;&gt;Node5</title>
<g id="a_edge21_Node000014_Node000005"><a xlink:title=" ">
<path fill="none" stroke="#63b8ff" d="M639.87,-56.24C598.52,-46.37 524.77,-28.76 481.83,-18.51"/>
<polygon fill="#63b8ff" stroke="#63b8ff" points="482.42,-15.05 471.88,-16.13 480.79,-21.86 482.42,-15.05"/>
</a>
</g>
</g>
<!-- Node14&#45;&gt;Node8 -->
<g id="edge22_Node000014_Node000008" class="edge">
<title>Node14&#45;&gt;Node8</title>
<g id="a_edge22_Node000014_Node000008"><a xlink:title=" ">
<path fill="none" stroke="#63b8ff" d="M640.25,-60.42C549.24,-51.09 277.1,-23.19 184.51,-13.7"/>
<polygon fill="#63b8ff" stroke="#63b8ff" points="184.69,-10.2 174.38,-12.66 183.97,-17.17 184.69,-10.2"/>
</a>
</g>
</g>
<!-- Node15 -->
<g id="Node000015" class="node">
<title>Node15</title>
<g id="a_Node000015"><a xlink:title=" ">
<polygon fill="#e0e0e0" stroke="#999999" points="700.28,-19 640.28,-19 640.28,0 700.28,0 700.28,-19"/>
<text text-anchor="middle" x="670.28" y="-7" font-family="Helvetica,sans-Serif" font-size="10.00">iostream</text>
</a>
</g>
</g>
<!-- Node14&#45;&gt;Node15 -->
<g id="edge20_Node000014_Node000015" class="edge">
<title>Node14&#45;&gt;Node15</title>
<g id="a_edge20_Node000014_Node000015"><a xlink:title=" ">
<path fill="none" stroke="#63b8ff" d="M670.28,-54.75C670.28,-47.8 670.28,-37.85 670.28,-29.13"/>
<polygon fill="#63b8ff" stroke="#63b8ff" points="673.78,-29.09 670.28,-19.09 666.78,-29.09 673.78,-29.09"/>
</a>
</g>
</g>
<!-- Node16 -->
<g id="Node000016" class="node">
<title>Node16</title>
<g id="a_Node000016"><a xlink:title=" ">
<polygon fill="#e0e0e0" stroke="#999999" points="763.78,-19 718.78,-19 718.78,0 763.78,0 763.78,-19"/>
<text text-anchor="middle" x="741.28" y="-7" font-family="Helvetica,sans-Serif" font-size="10.00">utility</text>
</a>
</g>
</g>
<!-- Node14&#45;&gt;Node16 -->
<g id="edge23_Node000014_Node000016" class="edge">
<title>Node14&#45;&gt;Node16</title>
<g id="a_edge23_Node000014_Node000016"><a xlink:title=" ">
<path fill="none" stroke="#63b8ff" d="M681.68,-54.98C692.39,-47 708.62,-34.88 721.44,-25.31"/>
<polygon fill="#63b8ff" stroke="#63b8ff" points="723.74,-27.96 729.66,-19.17 719.56,-22.35 723.74,-27.96"/>
</a>
</g>
</g>
<!-- Node17 -->
<g id="Node000017" class="node">
<title>Node17</title>
<g id="a_Node000017"><a xlink:title=" ">
<polygon fill="#e0e0e0" stroke="#999999" points="621.78,-19 580.78,-19 580.78,0 621.78,0 621.78,-19"/>
<text text-anchor="middle" x="601.28" y="-7" font-family="Helvetica,sans-Serif" font-size="10.00">tuple</text>
</a>
</g>
</g>
<!-- Node14&#45;&gt;Node17 -->
<g id="edge24_Node000014_Node000017" class="edge">
<title>Node14&#45;&gt;Node17</title>
<g id="a_edge24_Node000014_Node000017"><a xlink:title=" ">
<path fill="none" stroke="#63b8ff" d="M659.19,-54.98C648.79,-47 633.02,-34.88 620.56,-25.31"/>
<polygon fill="#63b8ff" stroke="#63b8ff" points="622.63,-22.49 612.57,-19.17 618.36,-28.04 622.63,-22.49"/>
</a>
</g>
</g>
<!-- Node18&#45;&gt;Node4 -->
<g id="edge28_Node000018_Node000004" class="edge">
<title>Node18&#45;&gt;Node4</title>
<g id="a_edge28_Node000018_Node000004"><a xlink:title=" ">
<path fill="none" stroke="#63b8ff" d="M615.1,-280.41C560,-252.86 387.43,-166.58 321.37,-133.54"/>
<polygon fill="#63b8ff" stroke="#63b8ff" points="322.93,-130.41 312.42,-129.07 319.8,-136.67 322.93,-130.41"/>
</a>
</g>
</g>
<!-- Node18&#45;&gt;Node11 -->
<g id="edge43_Node000018_Node000011" class="edge">
<title>Node18&#45;&gt;Node11</title>
<g id="a_edge43_Node000018_Node000011"><a xlink:title=" ">
<path fill="none" stroke="#63b8ff" d="M672.22,-280.43C698.97,-273.06 733.66,-260.19 758.28,-239 790.49,-211.28 811.33,-164.6 820.99,-138.88"/>
<polygon fill="#63b8ff" stroke="#63b8ff" points="824.36,-139.85 824.45,-129.26 817.77,-137.49 824.36,-139.85"/>
</a>
</g>
</g>
<!-- Node18&#45;&gt;Node12 -->
<g id="edge29_Node000018_Node000012" class="edge">
<title>Node18&#45;&gt;Node12</title>
<g id="a_edge29_Node000018_Node000012"><a xlink:title=" ">
<path fill="none" stroke="#63b8ff" d="M620.95,-280.31C609.29,-270.97 591.07,-255.27 578.28,-239 571.35,-230.19 538.22,-168.94 521.7,-138.12"/>
<polygon fill="#63b8ff" stroke="#63b8ff" points="524.77,-136.46 516.97,-129.29 518.6,-139.76 524.77,-136.46"/>
</a>
</g>
</g>
<!-- Node19 -->
<g id="Node000019" class="node">
<title>Node19</title>
<g id="a_Node000019"><a xlink:href="Vec_8hpp.html" target="_top" xlink:title="Implemetations for Vec.">
<polygon fill="white" stroke="#666666" points="455.28,-239 307.28,-239 307.28,-220 455.28,-220 455.28,-239"/>
<text text-anchor="middle" x="381.28" y="-227" font-family="Helvetica,sans-Serif" font-size="10.00">medusa/bits/types/Vec.hpp</text>
</a>
</g>
</g>
<!-- Node18&#45;&gt;Node19 -->
<g id="edge30_Node000018_Node000019" class="edge">
<title>Node18&#45;&gt;Node19</title>
<g id="a_edge30_Node000018_Node000019"><a xlink:title=" ">
<path fill="none" stroke="#63b8ff" d="M595.78,-280.49C551.35,-270.14 476.27,-252.64 427.75,-241.33"/>
<polygon fill="#63b8ff" stroke="#63b8ff" points="428.35,-237.88 417.82,-239.02 426.76,-244.7 428.35,-237.88"/>
</a>
</g>
</g>
<!-- Node21 -->
<g id="Node000021" class="node">
<title>Node21</title>
<g id="a_Node000021"><a xlink:href="Range_8hpp.html" target="_top" xlink:title="Implementation of Range.">
<polygon fill="white" stroke="#666666" points="748.78,-239 587.78,-239 587.78,-220 748.78,-220 748.78,-239"/>
<text text-anchor="middle" x="668.28" y="-227" font-family="Helvetica,sans-Serif" font-size="10.00">medusa/bits/types/Range.hpp</text>
</a>
</g>
</g>
<!-- Node18&#45;&gt;Node21 -->
<g id="edge34_Node000018_Node000021" class="edge">
<title>Node18&#45;&gt;Node21</title>
<g id="a_edge34_Node000018_Node000021"><a xlink:title=" ">
<path fill="none" stroke="#63b8ff" d="M637.59,-280.37C642.85,-271.81 651.06,-258.47 657.67,-247.74"/>
<polygon fill="#63b8ff" stroke="#63b8ff" points="660.68,-249.52 662.94,-239.17 654.72,-245.85 660.68,-249.52"/>
</a>
</g>
</g>
<!-- Node20 -->
<g id="Node000020" class="node">
<title>Node20</title>
<g id="a_Node000020"><a xlink:href="Vec__fwd_8hpp.html" target="_top" xlink:title="Declaration of Vec.">
<polygon fill="white" stroke="#666666" points="170.78,-184 93.78,-184 93.78,-165 170.78,-165 170.78,-184"/>
<text text-anchor="middle" x="132.28" y="-172" font-family="Helvetica,sans-Serif" font-size="10.00">Vec_fwd.hpp</text>
</a>
</g>
</g>
<!-- Node19&#45;&gt;Node20 -->
<g id="edge31_Node000019_Node000020" class="edge">
<title>Node19&#45;&gt;Node20</title>
<g id="a_edge31_Node000019_Node000020"><a xlink:title=" ">
<path fill="none" stroke="#63b8ff" d="M341.27,-219.98C297.6,-210.69 227.66,-195.8 180.86,-185.84"/>
<polygon fill="#63b8ff" stroke="#63b8ff" points="181.46,-182.39 170.96,-183.73 180.01,-189.24 181.46,-182.39"/>
</a>
</g>
</g>
<!-- Node20&#45;&gt;Node4 -->
<g id="edge32_Node000020_Node000004" class="edge">
<title>Node20&#45;&gt;Node4</title>
<g id="a_edge32_Node000020_Node000004"><a xlink:title=" ">
<path fill="none" stroke="#63b8ff" d="M158.47,-164.98C185.71,-156.13 228.58,-142.19 259.06,-132.28"/>
<polygon fill="#63b8ff" stroke="#63b8ff" points="260.46,-135.5 268.88,-129.08 258.29,-128.85 260.46,-135.5"/>
</a>
</g>
</g>
<!-- Node20&#45;&gt;Node9 -->
<g id="edge33_Node000020_Node000009" class="edge">
<title>Node20&#45;&gt;Node9</title>
<g id="a_edge33_Node000020_Node000009"><a xlink:title=" ">
<path fill="none" stroke="#63b8ff" d="M125.34,-164.75C119.41,-157.26 110.71,-146.28 103.45,-137.13"/>
<polygon fill="#63b8ff" stroke="#63b8ff" points="106.04,-134.75 97.08,-129.09 100.55,-139.1 106.04,-134.75"/>
</a>
</g>
</g>
<!-- Node22 -->
<g id="Node000022" class="node">
<title>Node22</title>
<g id="a_Node000022"><a xlink:href="Range__fwd_8hpp.html" target="_top" xlink:title="Declaration of Range.">
<polygon fill="white" stroke="#666666" points="760.78,-184 669.78,-184 669.78,-165 760.78,-165 760.78,-184"/>
<text text-anchor="middle" x="715.28" y="-172" font-family="Helvetica,sans-Serif" font-size="10.00">Range_fwd.hpp</text>
</a>
</g>
</g>
<!-- Node21&#45;&gt;Node22 -->
<g id="edge35_Node000021_Node000022" class="edge">
<title>Node21&#45;&gt;Node22</title>
<g id="a_edge35_Node000021_Node000022"><a xlink:title=" ">
<path fill="none" stroke="#63b8ff" d="M676.04,-219.75C682.75,-212.18 692.62,-201.05 700.78,-191.84"/>
<polygon fill="#63b8ff" stroke="#63b8ff" points="703.64,-193.89 707.66,-184.09 698.41,-189.25 703.64,-193.89"/>
</a>
</g>
</g>
<!-- Node25 -->
<g id="Node000025" class="node">
<title>Node25</title>
<g id="a_Node000025"><a xlink:title=" ">
<polygon fill="#e0e0e0" stroke="#999999" points="651.28,-184 587.28,-184 587.28,-165 651.28,-165 651.28,-184"/>
<text text-anchor="middle" x="619.28" y="-172" font-family="Helvetica,sans-Serif" font-size="10.00">algorithm</text>
</a>
</g>
</g>
<!-- Node21&#45;&gt;Node25 -->
<g id="edge42_Node000021_Node000025" class="edge">
<title>Node21&#45;&gt;Node25</title>
<g id="a_edge42_Node000021_Node000025"><a xlink:title=" ">
<path fill="none" stroke="#63b8ff" d="M660.19,-219.75C653.12,-212.11 642.69,-200.82 634.13,-191.56"/>
<polygon fill="#63b8ff" stroke="#63b8ff" points="636.58,-189.06 627.22,-184.09 631.44,-193.81 636.58,-189.06"/>
</a>
</g>
</g>
<!-- Node22&#45;&gt;Node4 -->
<g id="edge36_Node000022_Node000004" class="edge">
<title>Node22&#45;&gt;Node4</title>
<g id="a_edge36_Node000022_Node000004"><a xlink:title=" ">
<path fill="none" stroke="#63b8ff" d="M669.68,-166.33C666.5,-165.87 663.34,-165.42 660.28,-165 530.05,-147.15 494.66,-145.92 360.68,-129.16"/>
<polygon fill="#63b8ff" stroke="#63b8ff" points="360.79,-125.65 350.43,-127.87 359.91,-132.59 360.79,-125.65"/>
</a>
</g>
</g>
<!-- Node22&#45;&gt;Node5 -->
<g id="edge40_Node000022_Node000005" class="edge">
<title>Node22&#45;&gt;Node5</title>
<g id="a_edge40_Node000022_Node000005"><a xlink:title=" ">
<path fill="none" stroke="#63b8ff" d="M694.72,-164.95C677.94,-157.28 654.31,-144.79 637.28,-129 608.17,-102.02 619.04,-78.81 587.28,-55 555.99,-31.55 511.92,-20.2 481.84,-14.89"/>
<polygon fill="#63b8ff" stroke="#63b8ff" points="482.27,-11.41 471.83,-13.25 481.14,-18.32 482.27,-11.41"/>
</a>
</g>
</g>
<!-- Node22&#45;&gt;Node6 -->
<g id="edge41_Node000022_Node000006" class="edge">
<title>Node22&#45;&gt;Node6</title>
<g id="a_edge41_Node000022_Node000006"><a xlink:title=" ">
<path fill="none" stroke="#63b8ff" d="M669.66,-166.45C666.48,-165.96 663.33,-165.47 660.28,-165 559.01,-149.42 530.5,-150.14 426.34,-129.04"/>
<polygon fill="#63b8ff" stroke="#63b8ff" points="426.86,-125.58 416.36,-127 425.46,-132.43 426.86,-125.58"/>
</a>
</g>
</g>
<!-- Node22&#45;&gt;Node12 -->
<g id="edge37_Node000022_Node000012" class="edge">
<title>Node22&#45;&gt;Node12</title>
<g id="a_edge37_Node000022_Node000012"><a xlink:title=" ">
<path fill="none" stroke="#63b8ff" d="M682.66,-164.98C647.99,-155.93 593.01,-141.58 554.93,-131.64"/>
<polygon fill="#63b8ff" stroke="#63b8ff" points="555.71,-128.22 545.15,-129.08 553.94,-134.99 555.71,-128.22"/>
</a>
</g>
</g>
<!-- Node23 -->
<g id="Node000023" class="node">
<title>Node23</title>
<g id="a_Node000023"><a xlink:href="traits_8hpp.html" target="_top" xlink:title="Type traits definition for vector and scalar fields.">
<polygon fill="white" stroke="#666666" points="785.78,-129 722.78,-129 722.78,-110 785.78,-110 785.78,-129"/>
<text text-anchor="middle" x="754.28" y="-117" font-family="Helvetica,sans-Serif" font-size="10.00">traits.hpp</text>
</a>
</g>
</g>
<!-- Node22&#45;&gt;Node23 -->
<g id="edge38_Node000022_Node000023" class="edge">
<title>Node22&#45;&gt;Node23</title>
<g id="a_edge38_Node000022_Node000023"><a xlink:title=" ">
<path fill="none" stroke="#63b8ff" d="M721.72,-164.75C727.17,-157.34 735.14,-146.5 741.83,-137.41"/>
<polygon fill="#63b8ff" stroke="#63b8ff" points="744.85,-139.22 747.96,-129.09 739.21,-135.07 744.85,-139.22"/>
</a>
</g>
</g>
<!-- Node24 -->
<g id="Node000024" class="node">
<title>Node24</title>
<g id="a_Node000024"><a xlink:title=" ">
<polygon fill="#e0e0e0" stroke="#999999" points="704.28,-129 646.28,-129 646.28,-110 704.28,-110 704.28,-129"/>
<text text-anchor="middle" x="675.28" y="-117" font-family="Helvetica,sans-Serif" font-size="10.00">memory</text>
</a>
</g>
</g>
<!-- Node22&#45;&gt;Node24 -->
<g id="edge39_Node000022_Node000024" class="edge">
<title>Node22&#45;&gt;Node24</title>
<g id="a_edge39_Node000022_Node000024"><a xlink:title=" ">
<path fill="none" stroke="#63b8ff" d="M708.67,-164.75C703.02,-157.26 694.73,-146.28 687.83,-137.13"/>
<polygon fill="#63b8ff" stroke="#63b8ff" points="690.58,-134.96 681.76,-129.09 684.99,-139.18 690.58,-134.96"/>
</a>
</g>
</g>
</g>
</svg>

<g id="navigator" transform="translate(0 0)" fill="#404254">
  <rect fill="#f2f5e9" fill-opacity="0.5" stroke="#606060" stroke-width=".5" x="0" y="0" width="60" height="60"/>
  <use id="zoomplus" xlink:href="#zoomPlus" x="17" y="9" onmousedown="handleZoom(evt,'in')"/>
  <use id="zoomminus" xlink:href="#zoomMin" x="42" y="9" onmousedown="handleZoom(evt,'out')"/>
  <use id="reset" xlink:href="#resetDef" x="30" y="36" onmousedown="handleReset()"/>
   <use id="arrowup" xlink:href="#arrowUp" x="0" y="0" onmousedown="handlePan(0,-1)"/>
  <use id="arrowright" xlink:href="#arrowRight" x="0" y="0" onmousedown="handlePan(1,0)"/>
  <use id="arrowdown" xlink:href="#arrowDown" x="0" y="0" onmousedown="handlePan(0,1)"/>
  <use id="arrowleft" xlink:href="#arrowLeft" x="0" y="0" onmousedown="handlePan(-1,0)"/>
</g>
<svg viewBox="0 0 15 15" width="100%" height="30px" preserveAspectRatio="xMaxYMin meet">
 <g id="arrow_out" transform="scale(0.3 0.3)">
  <a xlink:href="InverseMultiquadric_8cpp__incl_org.svg" target="_base">
   <rect id="button" ry="5" rx="5" y="6" x="6" height="38" width="38"
        fill="#f2f5e9" fill-opacity="0.5" stroke="#606060" stroke-width="1.0"/>
   <path id="arrow"
     d="M 11.500037,31.436501 C 11.940474,20.09759 22.043105,11.32322 32.158766,21.979434 L 37.068811,17.246167 C 37.068811,17.246167 37.088388,32 37.088388,32 L 22.160133,31.978069 C 22.160133,31.978069 26.997745,27.140456 26.997745,27.140456 C 18.528582,18.264221 13.291696,25.230495 11.500037,31.436501 z"
     style="fill:#404040;"/>
  </a>
 </g>
</svg>

<style type='text/css'>
<![CDATA[
[data-mouse-over-selected='false'] { opacity: 0.7; }
[data-mouse-over-selected='true']  { opacity: 1.0; }
]]>
</style>
<script type="application/ecmascript"><![CDATA[
document.addEventListener('DOMContentLoaded', (event) => {
  highlightEdges();
  highlightAdjacentNodes();
});
]]></script>
</svg>
