<?xml version="1.0" encoding="UTF-8" standalone="no"?>
<!DOCTYPE svg PUBLIC "-//W3C//DTD SVG 1.1//EN"
 "http://www.w3.org/Graphics/SVG/1.1/DTD/svg11.dtd">
<!-- Generated by graphviz version 2.43.0 (0)
 -->
<!-- Title: include/medusa/IO.hpp Pages: 1 -->
<svg width="1140pt" height="302pt"
 viewBox="0.00 0.00 1139.50 302.00" xmlns="http://www.w3.org/2000/svg" xmlns:xlink="http://www.w3.org/1999/xlink">
<g id="graph0" class="graph" transform="scale(1 1) rotate(0) translate(4 298)">
<title>include/medusa/IO.hpp</title>
<!-- Node1 -->
<g id="Node000001" class="node">
<title>Node1</title>
<g id="a_Node000001"><a xlink:title="Header for IO module.">
<polygon fill="#999999" stroke="#666666" points="685.5,-294 557.5,-294 557.5,-275 685.5,-275 685.5,-294"/>
<text text-anchor="middle" x="621.5" y="-282" font-family="Helvetica,sans-Serif" font-size="10.00">include/medusa/IO.hpp</text>
</a>
</g>
</g>
<!-- Node2 -->
<g id="Node000002" class="node">
<title>Node2</title>
<g id="a_Node000002"><a xlink:href="Config_8hpp.html" target="_top" xlink:title="Contains compile time settings for the project, such as Eigen plugins.">
<polygon fill="white" stroke="#666666" points="636.5,-129 568.5,-129 568.5,-110 636.5,-110 636.5,-129"/>
<text text-anchor="middle" x="602.5" y="-117" font-family="Helvetica,sans-Serif" font-size="10.00">Config.hpp</text>
</a>
</g>
</g>
<!-- Node1&#45;&gt;Node2 -->
<g id="edge1_Node000001_Node000002" class="edge">
<title>Node1&#45;&gt;Node2</title>
<g id="a_edge1_Node000001_Node000002"><a xlink:title=" ">
<path fill="none" stroke="#63b8ff" d="M628.39,-274.93C634.77,-266.4 643.81,-252.65 647.5,-239 656.09,-207.25 660.17,-195.35 647.5,-165 642.64,-153.36 633.08,-143.2 624.02,-135.55"/>
<polygon fill="#63b8ff" stroke="#63b8ff" points="626.02,-132.67 615.99,-129.25 621.7,-138.17 626.02,-132.67"/>
</a>
</g>
</g>
<!-- Node4 -->
<g id="Node000004" class="node">
<title>Node4</title>
<g id="a_Node000004"><a xlink:href="CSV_8hpp.html" target="_top" xlink:title="Implementation of CSV I/O utilities.">
<polygon fill="white" stroke="#666666" points="894,-239 805,-239 805,-220 894,-220 894,-239"/>
<text text-anchor="middle" x="849.5" y="-227" font-family="Helvetica,sans-Serif" font-size="10.00">bits/io/CSV.hpp</text>
</a>
</g>
</g>
<!-- Node1&#45;&gt;Node4 -->
<g id="edge3_Node000001_Node000004" class="edge">
<title>Node1&#45;&gt;Node4</title>
<g id="a_edge3_Node000001_Node000004"><a xlink:title=" ">
<path fill="none" stroke="#63b8ff" d="M658.13,-274.98C697.41,-265.86 759.87,-251.33 802.69,-241.38"/>
<polygon fill="#63b8ff" stroke="#63b8ff" points="803.63,-244.76 812.58,-239.08 802.05,-237.94 803.63,-244.76"/>
</a>
</g>
</g>
<!-- Node18 -->
<g id="Node000018" class="node">
<title>Node18</title>
<g id="a_Node000018"><a xlink:href="CSV__Eigen_8hpp.html" target="_top" xlink:title="Implementation of CSV I/O utilities for Eigen types.">
<polygon fill="white" stroke="#666666" points="638.5,-239 516.5,-239 516.5,-220 638.5,-220 638.5,-239"/>
<text text-anchor="middle" x="577.5" y="-227" font-family="Helvetica,sans-Serif" font-size="10.00">bits/io/CSV_Eigen.hpp</text>
</a>
</g>
</g>
<!-- Node1&#45;&gt;Node18 -->
<g id="edge19_Node000001_Node000018" class="edge">
<title>Node1&#45;&gt;Node18</title>
<g id="a_edge19_Node000001_Node000018"><a xlink:title=" ">
<path fill="none" stroke="#63b8ff" d="M614.23,-274.75C607.96,-267.18 598.71,-256.05 591.07,-246.84"/>
<polygon fill="#63b8ff" stroke="#63b8ff" points="593.71,-244.55 584.63,-239.09 588.33,-249.02 593.71,-244.55"/>
</a>
</g>
</g>
<!-- Node20 -->
<g id="Node000020" class="node">
<title>Node20</title>
<g id="a_Node000020"><a xlink:href="HDF_8hpp.html" target="_top" xlink:title="Implementation of HDF I/O utilities.">
<polygon fill="white" stroke="#666666" points="224.5,-239 134.5,-239 134.5,-220 224.5,-220 224.5,-239"/>
<text text-anchor="middle" x="179.5" y="-227" font-family="Helvetica,sans-Serif" font-size="10.00">bits/io/HDF.hpp</text>
</a>
</g>
</g>
<!-- Node1&#45;&gt;Node20 -->
<g id="edge22_Node000001_Node000020" class="edge">
<title>Node1&#45;&gt;Node20</title>
<g id="a_edge22_Node000001_Node000020"><a xlink:title=" ">
<path fill="none" stroke="#63b8ff" d="M557.2,-276.96C482.27,-269.15 354.44,-255.25 234.64,-239.1"/>
<polygon fill="#63b8ff" stroke="#63b8ff" points="234.94,-235.61 224.56,-237.74 234,-242.55 234.94,-235.61"/>
</a>
</g>
</g>
<!-- Node25 -->
<g id="Node000025" class="node">
<title>Node25</title>
<g id="a_Node000025"><a xlink:href="HDF__Eigen_8hpp.html" target="_top" xlink:title="Implemetation of HDF IO with Eigen types.">
<polygon fill="white" stroke="#666666" points="366.5,-239 242.5,-239 242.5,-220 366.5,-220 366.5,-239"/>
<text text-anchor="middle" x="304.5" y="-227" font-family="Helvetica,sans-Serif" font-size="10.00">bits/io/HDF_Eigen.hpp</text>
</a>
</g>
</g>
<!-- Node1&#45;&gt;Node25 -->
<g id="edge34_Node000001_Node000025" class="edge">
<title>Node1&#45;&gt;Node25</title>
<g id="a_edge34_Node000001_Node000025"><a xlink:title=" ">
<path fill="none" stroke="#63b8ff" d="M570.57,-274.98C514.73,-265.65 425.17,-250.67 365.59,-240.71"/>
<polygon fill="#63b8ff" stroke="#63b8ff" points="366.01,-237.24 355.57,-239.04 364.85,-244.14 366.01,-237.24"/>
</a>
</g>
</g>
<!-- Node26 -->
<g id="Node000026" class="node">
<title>Node26</title>
<g id="a_Node000026"><a xlink:href="ioformat_8hpp.html" target="_top" xlink:title="File defining output formats for Eigen matrices.">
<polygon fill="white" stroke="#666666" points="498,-239 385,-239 385,-220 498,-220 498,-239"/>
<text text-anchor="middle" x="441.5" y="-227" font-family="Helvetica,sans-Serif" font-size="10.00">bits/io/ioformat.hpp</text>
</a>
</g>
</g>
<!-- Node1&#45;&gt;Node26 -->
<g id="edge38_Node000001_Node000026" class="edge">
<title>Node1&#45;&gt;Node26</title>
<g id="a_edge38_Node000001_Node000026"><a xlink:title=" ">
<path fill="none" stroke="#63b8ff" d="M592.58,-274.98C562.23,-266.05 514.33,-251.94 480.62,-242.02"/>
<polygon fill="#63b8ff" stroke="#63b8ff" points="481.23,-238.55 470.65,-239.08 479.25,-245.26 481.23,-238.55"/>
</a>
</g>
</g>
<!-- Node27 -->
<g id="Node000027" class="node">
<title>Node27</title>
<g id="a_Node000027"><a xlink:href="STL_8hpp.html" target="_top" xlink:title="Template implementations for STL files.">
<polygon fill="white" stroke="#666666" points="1055.5,-239 967.5,-239 967.5,-220 1055.5,-220 1055.5,-239"/>
<text text-anchor="middle" x="1011.5" y="-227" font-family="Helvetica,sans-Serif" font-size="10.00">bits/io/STL.hpp</text>
</a>
</g>
</g>
<!-- Node1&#45;&gt;Node27 -->
<g id="edge40_Node000001_Node000027" class="edge">
<title>Node1&#45;&gt;Node27</title>
<g id="a_edge40_Node000001_Node000027"><a xlink:title=" ">
<path fill="none" stroke="#63b8ff" d="M684.16,-274.98C759.79,-264.71 885.7,-247.6 957.31,-237.86"/>
<polygon fill="#63b8ff" stroke="#63b8ff" points="958.03,-241.3 967.47,-236.48 957.09,-234.36 958.03,-241.3"/>
</a>
</g>
</g>
<!-- Node31 -->
<g id="Node000031" class="node">
<title>Node31</title>
<g id="a_Node000031"><a xlink:href="XML_8hpp.html" target="_top" xlink:title="Implementation of XML I/O utilities.">
<polygon fill="white" stroke="#666666" points="786.5,-239 694.5,-239 694.5,-220 786.5,-220 786.5,-239"/>
<text text-anchor="middle" x="740.5" y="-227" font-family="Helvetica,sans-Serif" font-size="10.00">bits/io/XML.hpp</text>
</a>
</g>
</g>
<!-- Node1&#45;&gt;Node31 -->
<g id="edge46_Node000001_Node000031" class="edge">
<title>Node1&#45;&gt;Node31</title>
<g id="a_edge46_Node000001_Node000031"><a xlink:title=" ">
<path fill="none" stroke="#63b8ff" d="M640.62,-274.98C659.85,-266.42 689.73,-253.11 711.81,-243.28"/>
<polygon fill="#63b8ff" stroke="#63b8ff" points="713.32,-246.44 721.03,-239.17 710.47,-240.04 713.32,-246.44"/>
</a>
</g>
</g>
<!-- Node3 -->
<g id="Node000003" class="node">
<title>Node3</title>
<g id="a_Node000003"><a xlink:title=" ">
<polygon fill="#e0e0e0" stroke="#999999" points="626,-19 579,-19 579,0 626,0 626,-19"/>
<text text-anchor="middle" x="602.5" y="-7" font-family="Helvetica,sans-Serif" font-size="10.00">vector</text>
</a>
</g>
</g>
<!-- Node2&#45;&gt;Node3 -->
<g id="edge2_Node000002_Node000003" class="edge">
<title>Node2&#45;&gt;Node3</title>
<g id="a_edge2_Node000002_Node000003"><a xlink:title=" ">
<path fill="none" stroke="#63b8ff" d="M602.5,-109.66C602.5,-92.17 602.5,-52.8 602.5,-29.27"/>
<polygon fill="#63b8ff" stroke="#63b8ff" points="606,-29.16 602.5,-19.16 599,-29.16 606,-29.16"/>
</a>
</g>
</g>
<!-- Node5 -->
<g id="Node000005" class="node">
<title>Node5</title>
<g id="a_Node000005"><a xlink:href="CSV__fwd_8hpp.html" target="_top" xlink:title="Declarations for CSV I/O.">
<polygon fill="white" stroke="#666666" points="638.5,-184 558.5,-184 558.5,-165 638.5,-165 638.5,-184"/>
<text text-anchor="middle" x="598.5" y="-172" font-family="Helvetica,sans-Serif" font-size="10.00">CSV_fwd.hpp</text>
</a>
</g>
</g>
<!-- Node4&#45;&gt;Node5 -->
<g id="edge4_Node000004_Node000005" class="edge">
<title>Node4&#45;&gt;Node5</title>
<g id="a_edge4_Node000004_Node000005"><a xlink:title=" ">
<path fill="none" stroke="#63b8ff" d="M809.17,-219.98C765.54,-210.77 695.89,-196.06 648.73,-186.11"/>
<polygon fill="#63b8ff" stroke="#63b8ff" points="649.23,-182.64 638.73,-183.99 647.79,-189.48 649.23,-182.64"/>
</a>
</g>
</g>
<!-- Node13 -->
<g id="Node000013" class="node">
<title>Node13</title>
<g id="a_Node000013"><a xlink:title=" ">
<polygon fill="#e0e0e0" stroke="#999999" points="377,-129 322,-129 322,-110 377,-110 377,-129"/>
<text text-anchor="middle" x="349.5" y="-117" font-family="Helvetica,sans-Serif" font-size="10.00">fstream</text>
</a>
</g>
</g>
<!-- Node4&#45;&gt;Node13 -->
<g id="edge14_Node000004_Node000013" class="edge">
<title>Node4&#45;&gt;Node13</title>
<g id="a_edge14_Node000004_Node000013"><a xlink:title=" ">
<path fill="none" stroke="#63b8ff" d="M804.72,-221.41C801.6,-220.93 798.5,-220.46 795.5,-220 686.25,-203.41 654.92,-217.13 549.5,-184 531.49,-178.34 529.13,-171.76 511.5,-165 488.84,-156.32 427.19,-140.12 386.82,-129.85"/>
<polygon fill="#63b8ff" stroke="#63b8ff" points="387.6,-126.44 377.05,-127.37 385.88,-133.22 387.6,-126.44"/>
</a>
</g>
</g>
<!-- Node14 -->
<g id="Node000014" class="node">
<title>Node14</title>
<g id="a_Node000014"><a xlink:title=" ">
<polygon fill="#e0e0e0" stroke="#999999" points="1025.5,-129 975.5,-129 975.5,-110 1025.5,-110 1025.5,-129"/>
<text text-anchor="middle" x="1000.5" y="-117" font-family="Helvetica,sans-Serif" font-size="10.00">cstring</text>
</a>
</g>
</g>
<!-- Node4&#45;&gt;Node14 -->
<g id="edge15_Node000004_Node000014" class="edge">
<title>Node4&#45;&gt;Node14</title>
<g id="a_edge15_Node000004_Node000014"><a xlink:title=" ">
<path fill="none" stroke="#63b8ff" d="M885.63,-219.95C908.65,-213.13 938.07,-201.72 959.5,-184 974.47,-171.62 985.84,-152.32 992.77,-138.24"/>
<polygon fill="#63b8ff" stroke="#63b8ff" points="995.98,-139.64 997.01,-129.09 989.63,-136.69 995.98,-139.64"/>
</a>
</g>
</g>
<!-- Node15 -->
<g id="Node000015" class="node">
<title>Node15</title>
<g id="a_Node000015"><a xlink:title=" ">
<polygon fill="#e0e0e0" stroke="#999999" points="934,-184 869,-184 869,-165 934,-165 934,-184"/>
<text text-anchor="middle" x="901.5" y="-172" font-family="Helvetica,sans-Serif" font-size="10.00">exception</text>
</a>
</g>
</g>
<!-- Node4&#45;&gt;Node15 -->
<g id="edge16_Node000004_Node000015" class="edge">
<title>Node4&#45;&gt;Node15</title>
<g id="a_edge16_Node000004_Node000015"><a xlink:title=" ">
<path fill="none" stroke="#63b8ff" d="M858.09,-219.75C865.66,-212.03 876.88,-200.6 886.01,-191.28"/>
<polygon fill="#63b8ff" stroke="#63b8ff" points="888.57,-193.68 893.07,-184.09 883.57,-188.78 888.57,-193.68"/>
</a>
</g>
</g>
<!-- Node16 -->
<g id="Node000016" class="node">
<title>Node16</title>
<g id="a_Node000016"><a xlink:title=" ">
<polygon fill="#e0e0e0" stroke="#999999" points="844.5,-129 800.5,-129 800.5,-110 844.5,-110 844.5,-129"/>
<text text-anchor="middle" x="822.5" y="-117" font-family="Helvetica,sans-Serif" font-size="10.00">string</text>
</a>
</g>
</g>
<!-- Node4&#45;&gt;Node16 -->
<g id="edge17_Node000004_Node000016" class="edge">
<title>Node4&#45;&gt;Node16</title>
<g id="a_edge17_Node000004_Node000016"><a xlink:title=" ">
<path fill="none" stroke="#63b8ff" d="M884.67,-219.96C918.47,-209.99 961.92,-191.41 943.5,-165 923.65,-136.55 883.49,-126.24 854.89,-122.53"/>
<polygon fill="#63b8ff" stroke="#63b8ff" points="855.25,-119.05 844.93,-121.44 854.49,-126.01 855.25,-119.05"/>
</a>
</g>
</g>
<!-- Node17 -->
<g id="Node000017" class="node">
<title>Node17</title>
<g id="a_Node000017"><a xlink:title=" ">
<polygon fill="#e0e0e0" stroke="#999999" points="850.5,-184 794.5,-184 794.5,-165 850.5,-165 850.5,-184"/>
<text text-anchor="middle" x="822.5" y="-172" font-family="Helvetica,sans-Serif" font-size="10.00">iomanip</text>
</a>
</g>
</g>
<!-- Node4&#45;&gt;Node17 -->
<g id="edge18_Node000004_Node000017" class="edge">
<title>Node4&#45;&gt;Node17</title>
<g id="a_edge18_Node000004_Node000017"><a xlink:title=" ">
<path fill="none" stroke="#63b8ff" d="M845.04,-219.75C841.38,-212.57 836.09,-202.18 831.55,-193.27"/>
<polygon fill="#63b8ff" stroke="#63b8ff" points="834.53,-191.41 826.88,-184.09 828.3,-194.59 834.53,-191.41"/>
</a>
</g>
</g>
<!-- Node5&#45;&gt;Node2 -->
<g id="edge5_Node000005_Node000002" class="edge">
<title>Node5&#45;&gt;Node2</title>
<g id="a_edge5_Node000005_Node000002"><a xlink:title=" ">
<path fill="none" stroke="#63b8ff" d="M599.16,-164.75C599.68,-157.8 600.44,-147.85 601.09,-139.13"/>
<polygon fill="#63b8ff" stroke="#63b8ff" points="604.59,-139.32 601.85,-129.09 597.61,-138.8 604.59,-139.32"/>
</a>
</g>
</g>
<!-- Node6 -->
<g id="Node000006" class="node">
<title>Node6</title>
<g id="a_Node000006"><a xlink:href="assert_8hpp.html" target="_top" xlink:title="Implementation of custom assert and debug utilities.">
<polygon fill="white" stroke="#666666" points="550,-129 395,-129 395,-110 550,-110 550,-129"/>
<text text-anchor="middle" x="472.5" y="-117" font-family="Helvetica,sans-Serif" font-size="10.00">medusa/bits/utils/assert.hpp</text>
</a>
</g>
</g>
<!-- Node5&#45;&gt;Node6 -->
<g id="edge6_Node000005_Node000006" class="edge">
<title>Node5&#45;&gt;Node6</title>
<g id="a_edge6_Node000005_Node000006"><a xlink:title=" ">
<path fill="none" stroke="#63b8ff" d="M578.26,-164.98C557.8,-156.38 525.97,-142.99 502.57,-133.15"/>
<polygon fill="#63b8ff" stroke="#63b8ff" points="503.69,-129.82 493.11,-129.17 500.97,-136.27 503.69,-129.82"/>
</a>
</g>
</g>
<!-- Node7 -->
<g id="Node000007" class="node">
<title>Node7</title>
<g id="a_Node000007"><a xlink:title=" ">
<polygon fill="#e0e0e0" stroke="#999999" points="538.5,-74 406.5,-74 406.5,-55 538.5,-55 538.5,-74"/>
<text text-anchor="middle" x="472.5" y="-62" font-family="Helvetica,sans-Serif" font-size="10.00">tinyformat/tinyformat.h</text>
</a>
</g>
</g>
<!-- Node6&#45;&gt;Node7 -->
<g id="edge7_Node000006_Node000007" class="edge">
<title>Node6&#45;&gt;Node7</title>
<g id="a_edge7_Node000006_Node000007"><a xlink:title=" ">
<path fill="none" stroke="#63b8ff" d="M472.5,-109.75C472.5,-102.8 472.5,-92.85 472.5,-84.13"/>
<polygon fill="#63b8ff" stroke="#63b8ff" points="476,-84.09 472.5,-74.09 469,-84.09 476,-84.09"/>
</a>
</g>
</g>
<!-- Node8 -->
<g id="Node000008" class="node">
<title>Node8</title>
<g id="a_Node000008"><a xlink:href="print_8hpp.html" target="_top" xlink:title="Printing helpers for std types.">
<polygon fill="white" stroke="#666666" points="234.5,-74 174.5,-74 174.5,-55 234.5,-55 234.5,-74"/>
<text text-anchor="middle" x="204.5" y="-62" font-family="Helvetica,sans-Serif" font-size="10.00">print.hpp</text>
</a>
</g>
</g>
<!-- Node6&#45;&gt;Node8 -->
<g id="edge8_Node000006_Node000008" class="edge">
<title>Node6&#45;&gt;Node8</title>
<g id="a_edge8_Node000006_Node000008"><a xlink:title=" ">
<path fill="none" stroke="#63b8ff" d="M429.44,-109.98C378.47,-99.9 294.25,-83.25 244.61,-73.43"/>
<polygon fill="#63b8ff" stroke="#63b8ff" points="245.05,-69.95 234.56,-71.45 243.69,-76.82 245.05,-69.95"/>
</a>
</g>
</g>
<!-- Node8&#45;&gt;Node3 -->
<g id="edge10_Node000008_Node000003" class="edge">
<title>Node8&#45;&gt;Node3</title>
<g id="a_edge10_Node000008_Node000003"><a xlink:title=" ">
<path fill="none" stroke="#63b8ff" d="M234.74,-59.47C307.51,-49.78 491.99,-25.22 568.47,-15.03"/>
<polygon fill="#63b8ff" stroke="#63b8ff" points="569.07,-18.48 578.53,-13.69 568.15,-11.54 569.07,-18.48"/>
</a>
</g>
</g>
<!-- Node9 -->
<g id="Node000009" class="node">
<title>Node9</title>
<g id="a_Node000009"><a xlink:title=" ">
<polygon fill="#e0e0e0" stroke="#999999" points="305.5,-19 245.5,-19 245.5,0 305.5,0 305.5,-19"/>
<text text-anchor="middle" x="275.5" y="-7" font-family="Helvetica,sans-Serif" font-size="10.00">iostream</text>
</a>
</g>
</g>
<!-- Node8&#45;&gt;Node9 -->
<g id="edge9_Node000008_Node000009" class="edge">
<title>Node8&#45;&gt;Node9</title>
<g id="a_edge9_Node000008_Node000009"><a xlink:title=" ">
<path fill="none" stroke="#63b8ff" d="M215.91,-54.98C226.61,-47 242.84,-34.88 255.66,-25.31"/>
<polygon fill="#63b8ff" stroke="#63b8ff" points="257.97,-27.96 263.89,-19.17 253.78,-22.35 257.97,-27.96"/>
</a>
</g>
</g>
<!-- Node10 -->
<g id="Node000010" class="node">
<title>Node10</title>
<g id="a_Node000010"><a xlink:title=" ">
<polygon fill="#e0e0e0" stroke="#999999" points="163.5,-19 121.5,-19 121.5,0 163.5,0 163.5,-19"/>
<text text-anchor="middle" x="142.5" y="-7" font-family="Helvetica,sans-Serif" font-size="10.00">array</text>
</a>
</g>
</g>
<!-- Node8&#45;&gt;Node10 -->
<g id="edge11_Node000008_Node000010" class="edge">
<title>Node8&#45;&gt;Node10</title>
<g id="a_edge11_Node000008_Node000010"><a xlink:title=" ">
<path fill="none" stroke="#63b8ff" d="M194.54,-54.98C185.37,-47.15 171.56,-35.34 160.47,-25.86"/>
<polygon fill="#63b8ff" stroke="#63b8ff" points="162.52,-23.01 152.64,-19.17 157.97,-28.33 162.52,-23.01"/>
</a>
</g>
</g>
<!-- Node11 -->
<g id="Node000011" class="node">
<title>Node11</title>
<g id="a_Node000011"><a xlink:title=" ">
<polygon fill="#e0e0e0" stroke="#999999" points="227,-19 182,-19 182,0 227,0 227,-19"/>
<text text-anchor="middle" x="204.5" y="-7" font-family="Helvetica,sans-Serif" font-size="10.00">utility</text>
</a>
</g>
</g>
<!-- Node8&#45;&gt;Node11 -->
<g id="edge12_Node000008_Node000011" class="edge">
<title>Node8&#45;&gt;Node11</title>
<g id="a_edge12_Node000008_Node000011"><a xlink:title=" ">
<path fill="none" stroke="#63b8ff" d="M204.5,-54.75C204.5,-47.8 204.5,-37.85 204.5,-29.13"/>
<polygon fill="#63b8ff" stroke="#63b8ff" points="208,-29.09 204.5,-19.09 201,-29.09 208,-29.09"/>
</a>
</g>
</g>
<!-- Node12 -->
<g id="Node000012" class="node">
<title>Node12</title>
<g id="a_Node000012"><a xlink:title=" ">
<polygon fill="#e0e0e0" stroke="#999999" points="41,-19 0,-19 0,0 41,0 41,-19"/>
<text text-anchor="middle" x="20.5" y="-7" font-family="Helvetica,sans-Serif" font-size="10.00">tuple</text>
</a>
</g>
</g>
<!-- Node8&#45;&gt;Node12 -->
<g id="edge13_Node000008_Node000012" class="edge">
<title>Node8&#45;&gt;Node12</title>
<g id="a_edge13_Node000008_Node000012"><a xlink:title=" ">
<path fill="none" stroke="#63b8ff" d="M174.94,-54.98C140.97,-45.2 85.49,-29.22 51.09,-19.31"/>
<polygon fill="#63b8ff" stroke="#63b8ff" points="51.72,-15.85 41.14,-16.45 49.78,-22.58 51.72,-15.85"/>
</a>
</g>
</g>
<!-- Node18&#45;&gt;Node5 -->
<g id="edge20_Node000018_Node000005" class="edge">
<title>Node18&#45;&gt;Node5</title>
<g id="a_edge20_Node000018_Node000005"><a xlink:title=" ">
<path fill="none" stroke="#63b8ff" d="M580.97,-219.75C583.78,-212.65 587.84,-202.4 591.35,-193.56"/>
<polygon fill="#63b8ff" stroke="#63b8ff" points="594.67,-194.68 595.1,-184.09 588.16,-192.1 594.67,-194.68"/>
</a>
</g>
</g>
<!-- Node19 -->
<g id="Node000019" class="node">
<title>Node19</title>
<g id="a_Node000019"><a xlink:title=" ">
<polygon fill="#e0e0e0" stroke="#999999" points="390,-184 321,-184 321,-165 390,-165 390,-184"/>
<text text-anchor="middle" x="355.5" y="-172" font-family="Helvetica,sans-Serif" font-size="10.00">Eigen/Core</text>
</a>
</g>
</g>
<!-- Node18&#45;&gt;Node19 -->
<g id="edge21_Node000018_Node000019" class="edge">
<title>Node18&#45;&gt;Node19</title>
<g id="a_edge21_Node000018_Node000019"><a xlink:title=" ">
<path fill="none" stroke="#63b8ff" d="M541.83,-219.98C503.33,-210.79 441.94,-196.14 400.24,-186.18"/>
<polygon fill="#63b8ff" stroke="#63b8ff" points="400.89,-182.74 390.35,-183.82 399.26,-189.55 400.89,-182.74"/>
</a>
</g>
</g>
<!-- Node20&#45;&gt;Node6 -->
<g id="edge32_Node000020_Node000006" class="edge">
<title>Node20&#45;&gt;Node6</title>
<g id="a_edge32_Node000020_Node000006"><a xlink:title=" ">
<path fill="none" stroke="#63b8ff" d="M193.04,-219.97C214.76,-206.61 259.05,-180.65 299.5,-165 337.93,-150.13 383.08,-138.7 417.61,-131.16"/>
<polygon fill="#63b8ff" stroke="#63b8ff" points="418.47,-134.55 427.51,-129.04 417,-127.71 418.47,-134.55"/>
</a>
</g>
</g>
<!-- Node20&#45;&gt;Node12 -->
<g id="edge33_Node000020_Node000012" class="edge">
<title>Node20&#45;&gt;Node12</title>
<g id="a_edge33_Node000020_Node000012"><a xlink:title=" ">
<path fill="none" stroke="#63b8ff" d="M157.22,-219.91C124.71,-206.11 65.05,-175.71 36.5,-129 17.53,-97.96 17.03,-53.88 18.61,-29.17"/>
<polygon fill="#63b8ff" stroke="#63b8ff" points="22.11,-29.26 19.45,-19.01 15.14,-28.69 22.11,-29.26"/>
</a>
</g>
</g>
<!-- Node21 -->
<g id="Node000021" class="node">
<title>Node21</title>
<g id="a_Node000021"><a xlink:href="HDF__fwd_8hpp.html" target="_top" xlink:title="Declarations of CSV I/O utilities.">
<polygon fill="white" stroke="#666666" points="226,-184 145,-184 145,-165 226,-165 226,-184"/>
<text text-anchor="middle" x="185.5" y="-172" font-family="Helvetica,sans-Serif" font-size="10.00">HDF_fwd.hpp</text>
</a>
</g>
</g>
<!-- Node20&#45;&gt;Node21 -->
<g id="edge23_Node000020_Node000021" class="edge">
<title>Node20&#45;&gt;Node21</title>
<g id="a_edge23_Node000020_Node000021"><a xlink:title=" ">
<path fill="none" stroke="#63b8ff" d="M180.49,-219.75C181.28,-212.8 182.4,-202.85 183.39,-194.13"/>
<polygon fill="#63b8ff" stroke="#63b8ff" points="186.88,-194.42 184.53,-184.09 179.92,-193.63 186.88,-194.42"/>
</a>
</g>
</g>
<!-- Node21&#45;&gt;Node2 -->
<g id="edge24_Node000021_Node000002" class="edge">
<title>Node21&#45;&gt;Node2</title>
<g id="a_edge24_Node000021_Node000002"><a xlink:title=" ">
<path fill="none" stroke="#63b8ff" d="M226.04,-169.71C293.09,-163.21 431.46,-148.85 558.38,-129.07"/>
<polygon fill="#63b8ff" stroke="#63b8ff" points="558.94,-132.52 568.27,-127.51 557.85,-125.61 558.94,-132.52"/>
</a>
</g>
</g>
<!-- Node21&#45;&gt;Node3 -->
<g id="edge28_Node000021_Node000003" class="edge">
<title>Node21&#45;&gt;Node3</title>
<g id="a_edge28_Node000021_Node000003"><a xlink:title=" ">
<path fill="none" stroke="#63b8ff" d="M203.22,-164.99C221.13,-156.29 249.5,-142.21 273.5,-129 329.73,-98.06 337.8,-78.56 397.5,-55 455.31,-32.18 527.14,-20.01 568.61,-14.43"/>
<polygon fill="#63b8ff" stroke="#63b8ff" points="569.25,-17.88 578.72,-13.12 568.35,-10.94 569.25,-17.88"/>
</a>
</g>
</g>
<!-- Node21&#45;&gt;Node8 -->
<g id="edge25_Node000021_Node000008" class="edge">
<title>Node21&#45;&gt;Node8</title>
<g id="a_edge25_Node000021_Node000008"><a xlink:title=" ">
<path fill="none" stroke="#63b8ff" d="M144.57,-169.62C94.15,-163.19 18.39,-147.12 46.5,-110 60.72,-91.22 122.5,-78.13 164.46,-71.22"/>
<polygon fill="#63b8ff" stroke="#63b8ff" points="165.07,-74.67 174.4,-69.64 163.97,-67.75 165.07,-74.67"/>
</a>
</g>
</g>
<!-- Node21&#45;&gt;Node13 -->
<g id="edge29_Node000021_Node000013" class="edge">
<title>Node21&#45;&gt;Node13</title>
<g id="a_edge29_Node000021_Node000013"><a xlink:title=" ">
<path fill="none" stroke="#63b8ff" d="M211.85,-164.98C239.26,-156.13 282.39,-142.19 313.06,-132.28"/>
<polygon fill="#63b8ff" stroke="#63b8ff" points="314.5,-135.49 322.94,-129.08 312.35,-128.83 314.5,-135.49"/>
</a>
</g>
</g>
<!-- Node21&#45;&gt;Node16 -->
<g id="edge27_Node000021_Node000016" class="edge">
<title>Node21&#45;&gt;Node16</title>
<g id="a_edge27_Node000021_Node000016"><a xlink:title=" ">
<path fill="none" stroke="#63b8ff" d="M226.37,-170.72C350.25,-162.26 717.06,-137 790.16,-128.53"/>
<polygon fill="#63b8ff" stroke="#63b8ff" points="790.83,-131.97 800.27,-127.15 789.88,-125.04 790.83,-131.97"/>
</a>
</g>
</g>
<!-- Node22 -->
<g id="Node000022" class="node">
<title>Node22</title>
<g id="a_Node000022"><a xlink:title=" ">
<polygon fill="#e0e0e0" stroke="#999999" points="103,-129 56,-129 56,-110 103,-110 103,-129"/>
<text text-anchor="middle" x="79.5" y="-117" font-family="Helvetica,sans-Serif" font-size="10.00">hdf5.h</text>
</a>
</g>
</g>
<!-- Node21&#45;&gt;Node22 -->
<g id="edge26_Node000021_Node000022" class="edge">
<title>Node21&#45;&gt;Node22</title>
<g id="a_edge26_Node000021_Node000022"><a xlink:title=" ">
<path fill="none" stroke="#63b8ff" d="M168.47,-164.98C151.57,-156.54 125.44,-143.47 105.86,-133.68"/>
<polygon fill="#63b8ff" stroke="#63b8ff" points="107.35,-130.51 96.84,-129.17 104.22,-136.77 107.35,-130.51"/>
</a>
</g>
</g>
<!-- Node23 -->
<g id="Node000023" class="node">
<title>Node23</title>
<g id="a_Node000023"><a xlink:title=" ">
<polygon fill="#e0e0e0" stroke="#999999" points="178,-129 121,-129 121,-110 178,-110 178,-129"/>
<text text-anchor="middle" x="149.5" y="-117" font-family="Helvetica,sans-Serif" font-size="10.00">ostream</text>
</a>
</g>
</g>
<!-- Node21&#45;&gt;Node23 -->
<g id="edge30_Node000021_Node000023" class="edge">
<title>Node21&#45;&gt;Node23</title>
<g id="a_edge30_Node000021_Node000023"><a xlink:title=" ">
<path fill="none" stroke="#63b8ff" d="M179.56,-164.75C174.52,-157.34 167.16,-146.5 160.99,-137.41"/>
<polygon fill="#63b8ff" stroke="#63b8ff" points="163.85,-135.39 155.33,-129.09 158.06,-139.33 163.85,-135.39"/>
</a>
</g>
</g>
<!-- Node24 -->
<g id="Node000024" class="node">
<title>Node24</title>
<g id="a_Node000024"><a xlink:title=" ">
<polygon fill="#e0e0e0" stroke="#999999" points="265,-129 196,-129 196,-110 265,-110 265,-129"/>
<text text-anchor="middle" x="230.5" y="-117" font-family="Helvetica,sans-Serif" font-size="10.00">type_traits</text>
</a>
</g>
</g>
<!-- Node21&#45;&gt;Node24 -->
<g id="edge31_Node000021_Node000024" class="edge">
<title>Node21&#45;&gt;Node24</title>
<g id="a_edge31_Node000021_Node000024"><a xlink:title=" ">
<path fill="none" stroke="#63b8ff" d="M192.93,-164.75C199.35,-157.18 208.81,-146.05 216.62,-136.84"/>
<polygon fill="#63b8ff" stroke="#63b8ff" points="219.4,-138.98 223.21,-129.09 214.07,-134.45 219.4,-138.98"/>
</a>
</g>
</g>
<!-- Node25&#45;&gt;Node6 -->
<g id="edge37_Node000025_Node000006" class="edge">
<title>Node25&#45;&gt;Node6</title>
<g id="a_edge37_Node000025_Node000006"><a xlink:title=" ">
<path fill="none" stroke="#63b8ff" d="M302.71,-219.94C300.44,-206.54 298.27,-180.54 311.5,-165 324.19,-150.1 368.23,-138.55 407.05,-130.95"/>
<polygon fill="#63b8ff" stroke="#63b8ff" points="408.13,-134.31 417.31,-129.01 406.83,-127.43 408.13,-134.31"/>
</a>
</g>
</g>
<!-- Node25&#45;&gt;Node19 -->
<g id="edge35_Node000025_Node000019" class="edge">
<title>Node25&#45;&gt;Node19</title>
<g id="a_edge35_Node000025_Node000019"><a xlink:title=" ">
<path fill="none" stroke="#63b8ff" d="M312.92,-219.75C320.27,-212.11 331.13,-200.82 340.04,-191.56"/>
<polygon fill="#63b8ff" stroke="#63b8ff" points="342.82,-193.72 347.24,-184.09 337.78,-188.87 342.82,-193.72"/>
</a>
</g>
</g>
<!-- Node25&#45;&gt;Node21 -->
<g id="edge36_Node000025_Node000021" class="edge">
<title>Node25&#45;&gt;Node21</title>
<g id="a_edge36_Node000025_Node000021"><a xlink:title=" ">
<path fill="none" stroke="#63b8ff" d="M285.38,-219.98C266.15,-211.42 236.27,-198.11 214.19,-188.28"/>
<polygon fill="#63b8ff" stroke="#63b8ff" points="215.53,-185.04 204.97,-184.17 212.68,-191.44 215.53,-185.04"/>
</a>
</g>
</g>
<!-- Node26&#45;&gt;Node19 -->
<g id="edge39_Node000026_Node000019" class="edge">
<title>Node26&#45;&gt;Node19</title>
<g id="a_edge39_Node000026_Node000019"><a xlink:title=" ">
<path fill="none" stroke="#63b8ff" d="M427.68,-219.98C414.35,-211.77 393.92,-199.18 378.19,-189.49"/>
<polygon fill="#63b8ff" stroke="#63b8ff" points="379.92,-186.44 369.57,-184.17 376.25,-192.4 379.92,-186.44"/>
</a>
</g>
</g>
<!-- Node28 -->
<g id="Node000028" class="node">
<title>Node28</title>
<g id="a_Node000028"><a xlink:href="STL__fwd_8hpp.html" target="_top" xlink:title="Support for reading stereolithography files.">
<polygon fill="white" stroke="#666666" points="1106,-184 1029,-184 1029,-165 1106,-165 1106,-184"/>
<text text-anchor="middle" x="1067.5" y="-172" font-family="Helvetica,sans-Serif" font-size="10.00">STL_fwd.hpp</text>
</a>
</g>
</g>
<!-- Node27&#45;&gt;Node28 -->
<g id="edge41_Node000027_Node000028" class="edge">
<title>Node27&#45;&gt;Node28</title>
<g id="a_edge41_Node000027_Node000028"><a xlink:title=" ">
<path fill="none" stroke="#63b8ff" d="M1020.5,-219.98C1028.69,-212.23 1041.01,-200.58 1050.97,-191.14"/>
<polygon fill="#63b8ff" stroke="#63b8ff" points="1053.48,-193.59 1058.34,-184.17 1048.67,-188.5 1053.48,-193.59"/>
</a>
</g>
</g>
<!-- Node28&#45;&gt;Node3 -->
<g id="edge44_Node000028_Node000003" class="edge">
<title>Node28&#45;&gt;Node3</title>
<g id="a_edge44_Node000028_Node000003"><a xlink:title=" ">
<path fill="none" stroke="#63b8ff" d="M1065.39,-164.63C1061.62,-150.8 1052.4,-124.21 1034.5,-110 971.88,-60.29 726.34,-25.73 636.05,-14.47"/>
<polygon fill="#63b8ff" stroke="#63b8ff" points="636.43,-10.99 626.08,-13.24 635.57,-17.94 636.43,-10.99"/>
</a>
</g>
</g>
<!-- Node28&#45;&gt;Node14 -->
<g id="edge45_Node000028_Node000014" class="edge">
<title>Node28&#45;&gt;Node14</title>
<g id="a_edge45_Node000028_Node000014"><a xlink:title=" ">
<path fill="none" stroke="#63b8ff" d="M1056.74,-164.98C1046.73,-157.07 1031.61,-145.11 1019.57,-135.58"/>
<polygon fill="#63b8ff" stroke="#63b8ff" points="1021.47,-132.63 1011.46,-129.17 1017.13,-138.12 1021.47,-132.63"/>
</a>
</g>
</g>
<!-- Node29 -->
<g id="Node000029" class="node">
<title>Node29</title>
<g id="a_Node000029"><a xlink:title=" ">
<polygon fill="#e0e0e0" stroke="#999999" points="1131.5,-129 1081.5,-129 1081.5,-110 1131.5,-110 1131.5,-129"/>
<text text-anchor="middle" x="1106.5" y="-117" font-family="Helvetica,sans-Serif" font-size="10.00">cstdint</text>
</a>
</g>
</g>
<!-- Node28&#45;&gt;Node29 -->
<g id="edge42_Node000028_Node000029" class="edge">
<title>Node28&#45;&gt;Node29</title>
<g id="a_edge42_Node000028_Node000029"><a xlink:title=" ">
<path fill="none" stroke="#63b8ff" d="M1073.94,-164.75C1079.39,-157.34 1087.36,-146.5 1094.06,-137.41"/>
<polygon fill="#63b8ff" stroke="#63b8ff" points="1097.07,-139.22 1100.18,-129.09 1091.43,-135.07 1097.07,-139.22"/>
</a>
</g>
</g>
<!-- Node30 -->
<g id="Node000030" class="node">
<title>Node30</title>
<g id="a_Node000030"><a xlink:title=" ">
<polygon fill="#e0e0e0" stroke="#999999" points="954.5,-129 906.5,-129 906.5,-110 954.5,-110 954.5,-129"/>
<text text-anchor="middle" x="930.5" y="-117" font-family="Helvetica,sans-Serif" font-size="10.00">iosfwd</text>
</a>
</g>
</g>
<!-- Node28&#45;&gt;Node30 -->
<g id="edge43_Node000028_Node000030" class="edge">
<title>Node28&#45;&gt;Node30</title>
<g id="a_edge43_Node000028_Node000030"><a xlink:title=" ">
<path fill="none" stroke="#63b8ff" d="M1045.49,-164.98C1023.05,-156.3 988.02,-142.75 962.51,-132.88"/>
<polygon fill="#63b8ff" stroke="#63b8ff" points="963.5,-129.51 952.91,-129.17 960.98,-136.04 963.5,-129.51"/>
</a>
</g>
</g>
<!-- Node31&#45;&gt;Node6 -->
<g id="edge53_Node000031_Node000006" class="edge">
<title>Node31&#45;&gt;Node6</title>
<g id="a_edge53_Node000031_Node000006"><a xlink:title=" ">
<path fill="none" stroke="#63b8ff" d="M694.4,-223.32C611.68,-213.81 445.83,-193.64 437.5,-184 424.86,-169.37 439.98,-149.44 454.1,-135.84"/>
<polygon fill="#63b8ff" stroke="#63b8ff" points="456.59,-138.31 461.66,-129 451.9,-133.11 456.59,-138.31"/>
</a>
</g>
</g>
<!-- Node31&#45;&gt;Node17 -->
<g id="edge55_Node000031_Node000017" class="edge">
<title>Node31&#45;&gt;Node17</title>
<g id="a_edge55_Node000031_Node000017"><a xlink:title=" ">
<path fill="none" stroke="#63b8ff" d="M753.67,-219.98C766.27,-211.84 785.5,-199.41 800.44,-189.76"/>
<polygon fill="#63b8ff" stroke="#63b8ff" points="802.59,-192.54 809.09,-184.17 798.79,-186.66 802.59,-192.54"/>
</a>
</g>
</g>
<!-- Node32 -->
<g id="Node000032" class="node">
<title>Node32</title>
<g id="a_Node000032"><a xlink:href="XML__fwd_8hpp.html" target="_top" xlink:title="Declarations for XML I/O utilities.">
<polygon fill="white" stroke="#666666" points="776,-184 695,-184 695,-165 776,-165 776,-184"/>
<text text-anchor="middle" x="735.5" y="-172" font-family="Helvetica,sans-Serif" font-size="10.00">XML_fwd.hpp</text>
</a>
</g>
</g>
<!-- Node31&#45;&gt;Node32 -->
<g id="edge47_Node000031_Node000032" class="edge">
<title>Node31&#45;&gt;Node32</title>
<g id="a_edge47_Node000031_Node000032"><a xlink:title=" ">
<path fill="none" stroke="#63b8ff" d="M739.67,-219.75C739.02,-212.8 738.08,-202.85 737.26,-194.13"/>
<polygon fill="#63b8ff" stroke="#63b8ff" points="740.73,-193.72 736.31,-184.09 733.77,-194.37 740.73,-193.72"/>
</a>
</g>
</g>
<!-- Node34 -->
<g id="Node000034" class="node">
<title>Node34</title>
<g id="a_Node000034"><a xlink:title=" ">
<polygon fill="#e0e0e0" stroke="#999999" points="502.5,-184 446.5,-184 446.5,-165 502.5,-165 502.5,-184"/>
<text text-anchor="middle" x="474.5" y="-172" font-family="Helvetica,sans-Serif" font-size="10.00">sstream</text>
</a>
</g>
</g>
<!-- Node31&#45;&gt;Node34 -->
<g id="edge54_Node000031_Node000034" class="edge">
<title>Node31&#45;&gt;Node34</title>
<g id="a_edge54_Node000031_Node000034"><a xlink:title=" ">
<path fill="none" stroke="#63b8ff" d="M697.13,-219.93C652,-211 579.28,-196.59 516.5,-184 515.23,-183.74 513.93,-183.49 512.63,-183.22"/>
<polygon fill="#63b8ff" stroke="#63b8ff" points="513.01,-179.73 502.51,-181.18 511.62,-186.59 513.01,-179.73"/>
</a>
</g>
</g>
<!-- Node32&#45;&gt;Node2 -->
<g id="edge48_Node000032_Node000002" class="edge">
<title>Node32&#45;&gt;Node2</title>
<g id="a_edge48_Node000032_Node000002"><a xlink:title=" ">
<path fill="none" stroke="#63b8ff" d="M714.13,-164.98C692.35,-156.3 658.34,-142.75 633.58,-132.88"/>
<polygon fill="#63b8ff" stroke="#63b8ff" points="634.84,-129.62 624.26,-129.17 632.25,-136.12 634.84,-129.62"/>
</a>
</g>
</g>
<!-- Node32&#45;&gt;Node3 -->
<g id="edge50_Node000032_Node000003" class="edge">
<title>Node32&#45;&gt;Node3</title>
<g id="a_edge50_Node000032_Node000003"><a xlink:title=" ">
<path fill="none" stroke="#63b8ff" d="M770.7,-164.94C801.83,-156.58 843.75,-143.09 853.5,-129 858.3,-122.05 858.25,-116.99 853.5,-110 804.13,-37.33 692.52,-17.73 636.26,-12.45"/>
<polygon fill="#63b8ff" stroke="#63b8ff" points="636.36,-8.95 626.1,-11.6 635.77,-15.92 636.36,-8.95"/>
</a>
</g>
</g>
<!-- Node32&#45;&gt;Node16 -->
<g id="edge49_Node000032_Node000016" class="edge">
<title>Node32&#45;&gt;Node16</title>
<g id="a_edge49_Node000032_Node000016"><a xlink:title=" ">
<path fill="none" stroke="#63b8ff" d="M749.48,-164.98C762.97,-156.77 783.63,-144.18 799.54,-134.49"/>
<polygon fill="#63b8ff" stroke="#63b8ff" points="801.55,-137.36 808.27,-129.17 797.91,-131.38 801.55,-137.36"/>
</a>
</g>
</g>
<!-- Node32&#45;&gt;Node30 -->
<g id="edge51_Node000032_Node000030" class="edge">
<title>Node32&#45;&gt;Node30</title>
<g id="a_edge51_Node000032_Node000030"><a xlink:title=" ">
<path fill="none" stroke="#63b8ff" d="M766.83,-164.98C802.36,-155.33 860.07,-139.64 896.62,-129.71"/>
<polygon fill="#63b8ff" stroke="#63b8ff" points="897.6,-133.07 906.33,-127.07 895.76,-126.31 897.6,-133.07"/>
</a>
</g>
</g>
<!-- Node33 -->
<g id="Node000033" class="node">
<title>Node33</title>
<g id="a_Node000033"><a xlink:title=" ">
<polygon fill="#e0e0e0" stroke="#999999" points="782.5,-129 654.5,-129 654.5,-110 782.5,-110 782.5,-129"/>
<text text-anchor="middle" x="718.5" y="-117" font-family="Helvetica,sans-Serif" font-size="10.00">rapidxml/rapidxml.hpp</text>
</a>
</g>
</g>
<!-- Node32&#45;&gt;Node33 -->
<g id="edge52_Node000032_Node000033" class="edge">
<title>Node32&#45;&gt;Node33</title>
<g id="a_edge52_Node000032_Node000033"><a xlink:title=" ">
<path fill="none" stroke="#63b8ff" d="M732.69,-164.75C730.44,-157.72 727.2,-147.62 724.38,-138.84"/>
<polygon fill="#63b8ff" stroke="#63b8ff" points="727.64,-137.54 721.25,-129.09 720.98,-139.68 727.64,-137.54"/>
</a>
</g>
</g>
</g>
</svg>
