<?xml version="1.0" encoding="UTF-8" standalone="no"?>
<!DOCTYPE svg PUBLIC "-//W3C//DTD SVG 1.1//EN"
 "http://www.w3.org/Graphics/SVG/1.1/DTD/svg11.dtd">
<!-- Generated by graphviz version 2.43.0 (0)
 -->
<!-- Title: include/medusa/bits/approximations/JacobiSVDWrapper_fwd.hpp Pages: 1 -->
<svg width="608pt" height="302pt"
 viewBox="0.00 0.00 607.50 302.00" xmlns="http://www.w3.org/2000/svg" xmlns:xlink="http://www.w3.org/1999/xlink">
<g id="graph0" class="graph" transform="scale(1 1) rotate(0) translate(4 298)">
<title>include/medusa/bits/approximations/JacobiSVDWrapper_fwd.hpp</title>
<!-- Node1 -->
<g id="Node000001" class="node">
<title>Node1</title>
<g id="a_Node000001"><a xlink:title="Definition of JacobiSVDWrapper.">
<polygon fill="#999999" stroke="#666666" points="437.5,-294 247.5,-294 247.5,-253 437.5,-253 437.5,-294"/>
<text text-anchor="start" x="255.5" y="-282" font-family="Helvetica,sans-Serif" font-size="10.00">include/medusa/bits</text>
<text text-anchor="start" x="255.5" y="-271" font-family="Helvetica,sans-Serif" font-size="10.00">/approximations/JacobiSVDWrapper</text>
<text text-anchor="middle" x="342.5" y="-260" font-family="Helvetica,sans-Serif" font-size="10.00">_fwd.hpp</text>
</a>
</g>
</g>
<!-- Node2 -->
<g id="Node000002" class="node">
<title>Node2</title>
<g id="a_Node000002"><a xlink:href="JacobiSVDWrapper_8hpp.html" target="_top" xlink:title="Implementation of JacobiSVDWrapper.">
<polygon fill="white" stroke="#666666" points="447.5,-217 237.5,-217 237.5,-187 447.5,-187 447.5,-217"/>
<text text-anchor="start" x="245.5" y="-205" font-family="Helvetica,sans-Serif" font-size="10.00">include/medusa/bits</text>
<text text-anchor="middle" x="342.5" y="-194" font-family="Helvetica,sans-Serif" font-size="10.00">/approximations/JacobiSVDWrapper.hpp</text>
</a>
</g>
</g>
<!-- Node1&#45;&gt;Node2 -->
<g id="edge1_Node000001_Node000002" class="edge">
<title>Node1&#45;&gt;Node2</title>
<g id="a_edge1_Node000001_Node000002"><a xlink:title=" ">
<path fill="none" stroke="#63b8ff" d="M342.5,-242.66C342.5,-233.76 342.5,-224.42 342.5,-217.04"/>
<polygon fill="#63b8ff" stroke="#63b8ff" points="339,-242.77 342.5,-252.77 346,-242.77 339,-242.77"/>
</a>
</g>
</g>
<!-- Node3 -->
<g id="Node000003" class="node">
<title>Node3</title>
<g id="a_Node000003"><a xlink:href="Approximations_8hpp.html" target="_top" xlink:title="Header for Approximations module.">
<polygon fill="white" stroke="#666666" points="348,-79.5 153,-79.5 153,-60.5 348,-60.5 348,-79.5"/>
<text text-anchor="middle" x="250.5" y="-67.5" font-family="Helvetica,sans-Serif" font-size="10.00">include/medusa/Approximations.hpp</text>
</a>
</g>
</g>
<!-- Node2&#45;&gt;Node3 -->
<g id="edge2_Node000002_Node000003" class="edge">
<title>Node2&#45;&gt;Node3</title>
<g id="a_edge2_Node000002_Node000003"><a xlink:title=" ">
<path fill="none" stroke="#63b8ff" d="M297.53,-182C284.27,-174.26 271.04,-164.02 262.5,-151 247.79,-128.57 248.35,-95.08 249.58,-79.52"/>
<polygon fill="#63b8ff" stroke="#63b8ff" points="296.19,-185.26 306.65,-186.96 299.54,-179.11 296.19,-185.26"/>
</a>
</g>
</g>
<!-- Node5 -->
<g id="Node000005" class="node">
<title>Node5</title>
<g id="a_Node000005"><a xlink:href="Approximations__fwd_8hpp.html" target="_top" xlink:title="Header for Approximations module, declarations only.">
<polygon fill="white" stroke="#666666" points="215.5,-151 41.5,-151 41.5,-121 215.5,-121 215.5,-151"/>
<text text-anchor="start" x="49.5" y="-139" font-family="Helvetica,sans-Serif" font-size="10.00">include/medusa/Approximations</text>
<text text-anchor="middle" x="128.5" y="-128" font-family="Helvetica,sans-Serif" font-size="10.00">_fwd.hpp</text>
</a>
</g>
</g>
<!-- Node2&#45;&gt;Node5 -->
<g id="edge4_Node000002_Node000005" class="edge">
<title>Node2&#45;&gt;Node5</title>
<g id="a_edge4_Node000002_Node000005"><a xlink:title=" ">
<path fill="none" stroke="#63b8ff" d="M285.62,-183.99C251.19,-173.69 207.8,-160.72 175.35,-151.01"/>
<polygon fill="#63b8ff" stroke="#63b8ff" points="284.95,-187.44 295.54,-186.95 286.96,-180.74 284.95,-187.44"/>
</a>
</g>
</g>
<!-- Node7 -->
<g id="Node000007" class="node">
<title>Node7</title>
<g id="a_Node000007"><a xlink:href="WLS_8hpp.html" target="_top" xlink:title="Implementation of weighted least squares approximation.">
<polygon fill="white" stroke="#666666" points="413,-151 272,-151 272,-121 413,-121 413,-151"/>
<text text-anchor="start" x="280" y="-139" font-family="Helvetica,sans-Serif" font-size="10.00">include/medusa/bits</text>
<text text-anchor="middle" x="342.5" y="-128" font-family="Helvetica,sans-Serif" font-size="10.00">/approximations/WLS.hpp</text>
</a>
</g>
</g>
<!-- Node2&#45;&gt;Node7 -->
<g id="edge8_Node000002_Node000007" class="edge">
<title>Node2&#45;&gt;Node7</title>
<g id="a_edge8_Node000002_Node000007"><a xlink:title=" ">
<path fill="none" stroke="#63b8ff" d="M342.5,-176.54C342.5,-167.96 342.5,-158.61 342.5,-151.16"/>
<polygon fill="#63b8ff" stroke="#63b8ff" points="339,-176.8 342.5,-186.8 346,-176.8 339,-176.8"/>
</a>
</g>
</g>
<!-- Node8 -->
<g id="Node000008" class="node">
<title>Node8</title>
<g id="a_Node000008"><a xlink:href="WLS_8cpp.html" target="_top" xlink:title="Instantiations of commonly used WLS approximations.">
<polygon fill="white" stroke="#666666" points="489.5,-85 379.5,-85 379.5,-55 489.5,-55 489.5,-85"/>
<text text-anchor="start" x="387.5" y="-73" font-family="Helvetica,sans-Serif" font-size="10.00">src/approximations</text>
<text text-anchor="middle" x="434.5" y="-62" font-family="Helvetica,sans-Serif" font-size="10.00">/WLS.cpp</text>
</a>
</g>
</g>
<!-- Node2&#45;&gt;Node8 -->
<g id="edge12_Node000002_Node000008" class="edge">
<title>Node2&#45;&gt;Node8</title>
<g id="a_edge12_Node000002_Node000008"><a xlink:title=" ">
<path fill="none" stroke="#63b8ff" d="M387.47,-182C400.73,-174.26 413.96,-164.02 422.5,-151 435.6,-131.04 436.59,-102.31 435.78,-85.26"/>
<polygon fill="#63b8ff" stroke="#63b8ff" points="385.46,-179.11 378.35,-186.96 388.81,-185.26 385.46,-179.11"/>
</a>
</g>
</g>
<!-- Node9 -->
<g id="Node000009" class="node">
<title>Node9</title>
<g id="a_Node000009"><a xlink:href="JacobiSVDWrapper_8cpp.html" target="_top" xlink:title="Instantiations of common JacobiSVDWrappers.">
<polygon fill="white" stroke="#666666" points="599.5,-151 469.5,-151 469.5,-121 599.5,-121 599.5,-151"/>
<text text-anchor="start" x="477.5" y="-139" font-family="Helvetica,sans-Serif" font-size="10.00">src/approximations</text>
<text text-anchor="middle" x="534.5" y="-128" font-family="Helvetica,sans-Serif" font-size="10.00">/JacobiSVDWrapper.cpp</text>
</a>
</g>
</g>
<!-- Node2&#45;&gt;Node9 -->
<g id="edge11_Node000002_Node000009" class="edge">
<title>Node2&#45;&gt;Node9</title>
<g id="a_edge11_Node000002_Node000009"><a xlink:title=" ">
<path fill="none" stroke="#63b8ff" d="M394.33,-183.72C425.09,-173.47 463.6,-160.63 492.46,-151.01"/>
<polygon fill="#63b8ff" stroke="#63b8ff" points="393.02,-180.47 384.64,-186.95 395.23,-187.11 393.02,-180.47"/>
</a>
</g>
</g>
<!-- Node4 -->
<g id="Node000004" class="node">
<title>Node4</title>
<g id="a_Node000004"><a xlink:href="Medusa_8hpp.html" target="_top" xlink:title="Main header file that includes most other components.">
<polygon fill="white" stroke="#666666" points="236.5,-19 80.5,-19 80.5,0 236.5,0 236.5,-19"/>
<text text-anchor="middle" x="158.5" y="-7" font-family="Helvetica,sans-Serif" font-size="10.00">include/medusa/Medusa.hpp</text>
</a>
</g>
</g>
<!-- Node3&#45;&gt;Node4 -->
<g id="edge3_Node000003_Node000004" class="edge">
<title>Node3&#45;&gt;Node4</title>
<g id="a_edge3_Node000003_Node000004"><a xlink:title=" ">
<path fill="none" stroke="#63b8ff" d="M228.43,-54.97C210.91,-43.82 186.97,-28.6 172.13,-19.17"/>
<polygon fill="#63b8ff" stroke="#63b8ff" points="226.61,-57.96 236.93,-60.37 230.36,-52.05 226.61,-57.96"/>
</a>
</g>
</g>
<!-- Node5&#45;&gt;Node3 -->
<g id="edge5_Node000005_Node000003" class="edge">
<title>Node5&#45;&gt;Node3</title>
<g id="a_edge5_Node000005_Node000003"><a xlink:title=" ">
<path fill="none" stroke="#63b8ff" d="M164.15,-116.3C187.33,-104.14 216.46,-88.86 234.26,-79.52"/>
<polygon fill="#63b8ff" stroke="#63b8ff" points="162.5,-113.21 155.27,-120.95 165.75,-119.41 162.5,-113.21"/>
</a>
</g>
</g>
<!-- Node6 -->
<g id="Node000006" class="node">
<title>Node6</title>
<g id="a_Node000006"><a xlink:href="Medusa__fwd_8hpp.html" target="_top" xlink:title="Main header file that includes only declarations for some heavy classes such as mm::WLS to reduce com...">
<polygon fill="white" stroke="#666666" points="135,-85 0,-85 0,-55 135,-55 135,-85"/>
<text text-anchor="start" x="8" y="-73" font-family="Helvetica,sans-Serif" font-size="10.00">include/medusa/Medusa</text>
<text text-anchor="middle" x="67.5" y="-62" font-family="Helvetica,sans-Serif" font-size="10.00">_fwd.hpp</text>
</a>
</g>
</g>
<!-- Node5&#45;&gt;Node6 -->
<g id="edge6_Node000005_Node000006" class="edge">
<title>Node5&#45;&gt;Node6</title>
<g id="a_edge6_Node000005_Node000006"><a xlink:title=" ">
<path fill="none" stroke="#63b8ff" d="M107.88,-113.37C99.01,-104.06 88.89,-93.44 81,-85.16"/>
<polygon fill="#63b8ff" stroke="#63b8ff" points="105.53,-115.97 114.96,-120.8 110.6,-111.14 105.53,-115.97"/>
</a>
</g>
</g>
<!-- Node6&#45;&gt;Node4 -->
<g id="edge7_Node000006_Node000004" class="edge">
<title>Node6&#45;&gt;Node4</title>
<g id="a_edge7_Node000006_Node000004"><a xlink:title=" ">
<path fill="none" stroke="#63b8ff" d="M98.07,-49.35C114.05,-39.07 132.8,-27.02 145.13,-19.09"/>
<polygon fill="#63b8ff" stroke="#63b8ff" points="96.05,-46.49 89.53,-54.84 99.83,-52.38 96.05,-46.49"/>
</a>
</g>
</g>
<!-- Node7&#45;&gt;Node3 -->
<g id="edge9_Node000007_Node000003" class="edge">
<title>Node7&#45;&gt;Node3</title>
<g id="a_edge9_Node000007_Node000003"><a xlink:title=" ">
<path fill="none" stroke="#63b8ff" d="M313.57,-114.87C296.54,-103.03 275.87,-88.65 262.95,-79.66"/>
<polygon fill="#63b8ff" stroke="#63b8ff" points="311.87,-117.96 322.08,-120.8 315.87,-112.21 311.87,-117.96"/>
</a>
</g>
</g>
<!-- Node7&#45;&gt;Node8 -->
<g id="edge10_Node000007_Node000008" class="edge">
<title>Node7&#45;&gt;Node8</title>
<g id="a_edge10_Node000007_Node000008"><a xlink:title=" ">
<path fill="none" stroke="#63b8ff" d="M371.21,-115.03C385.13,-105.34 401.53,-93.94 414.14,-85.16"/>
<polygon fill="#63b8ff" stroke="#63b8ff" points="369.13,-112.21 362.92,-120.8 373.13,-117.96 369.13,-112.21"/>
</a>
</g>
</g>
</g>
</svg>
