<?xml version="1.0" encoding="UTF-8" standalone="no"?>
<!DOCTYPE svg PUBLIC "-//W3C//DTD SVG 1.1//EN"
 "http://www.w3.org/Graphics/SVG/1.1/DTD/svg11.dtd">
<!-- Generated by graphviz version 2.43.0 (0)
 -->
<!-- Title: src/spatial_search/KDGrid.cpp Pages: 1 -->
<!--zoomable 434 -->

<svg id="main" version="1.1" xmlns="http://www.w3.org/2000/svg" xmlns:xlink="http://www.w3.org/1999/xlink" xml:space="preserve" onload="init(evt)">
<style type="text/css"><![CDATA[
.node, .edge {opacity: 0.7;}
.node.selected, .edge.selected {opacity: 1;}
.edge:hover path { stroke: red; }
.edge:hover polygon { stroke: red; fill: red; }
]]></style>

<defs>
  <circle id="rim" cx="0" cy="0" r="7"/>
  <circle id="rim2" cx="0" cy="0" r="3.5"/>
  <g id="zoomPlus">
    <use xlink:href="#rim" fill="#404040"><set attributeName="fill" to="#808080" begin="zoomplus.mouseover" end="zoomplus.mouseout"/></use>
    <path d="M-4,0h8M0,-4v8" fill="none" stroke="white" stroke-width="1.5" pointer-events="none"/>
  </g>
  <g id="zoomMin">
    <use xlink:href="#rim" fill="#404040"><set attributeName="fill" to="#808080" begin="zoomminus.mouseover" end="zoomminus.mouseout"/></use>
    <path d="M-4,0h8" fill="none" stroke="white" stroke-width="1.5" pointer-events="none"/>
  </g>
  <g id="arrowUp" transform="translate(30 24)">
    <use xlink:href="#rim"/>
    <path pointer-events="none" fill="none" stroke="white" stroke-width="1.5" d="M0,-3.0v7 M-2.5,-0.5L0,-3.0L2.5,-0.5"/>
  </g>
  <g id="arrowRight" transform="rotate(90) translate(36 -43)">
    <use xlink:href="#rim"/>
    <path pointer-events="none" fill="none" stroke="white" stroke-width="1.5" d="M0,-3.0v7 M-2.5,-0.5L0,-3.0L2.5,-0.5"/>
  </g>
  <g id="arrowDown" transform="rotate(180) translate(-30 -48)">
    <use xlink:href="#rim"/>
    <path pointer-events="none" fill="none" stroke="white" stroke-width="1.5" d="M0,-3.0v7 M-2.5,-0.5L0,-3.0L2.5,-0.5"/>
  </g>
  <g id="arrowLeft" transform="rotate(270) translate(-36 17)">
    <use xlink:href="#rim"/>
    <path pointer-events="none" fill="none" stroke="white" stroke-width="1.5" d="M0,-3.0v7 M-2.5,-0.5L0,-3.0L2.5,-0.5"/>
  </g>
  <g id="resetDef">
    <use xlink:href="#rim2" fill="#404040"><set attributeName="fill" to="#808080" begin="reset.mouseover" end="reset.mouseout"/></use>
  </g>
</defs>
<script type="application/ecmascript">
var viewWidth = 916;
var viewHeight = 434;
var sectionId = 'dynsection-0';
</script>
<script type="application/ecmascript" xlink:href="svg.min.js"/>
<svg id="graph" class="graph">
<g id="viewport">
<title>src/spatial_search/KDGrid.cpp</title>
<!-- Node1 -->
<g id="Node000001" class="node">
<title>Node1</title>
<g id="a_Node000001"><a xlink:title="Instantiations of KDGrid.">
<polygon fill="#999999" stroke="#666666" points="713.5,-426 609.5,-426 609.5,-396 713.5,-396 713.5,-426"/>
<text text-anchor="start" x="617.5" y="-414" font-family="Helvetica,sans-Serif" font-size="10.00">src/spatial_search</text>
<text text-anchor="middle" x="661.5" y="-403" font-family="Helvetica,sans-Serif" font-size="10.00">/KDGrid.cpp</text>
</a>
</g>
</g>
<!-- Node2 -->
<g id="Node000002" class="node">
<title>Node2</title>
<g id="a_Node000002"><a xlink:href="KDGrid_8hpp.html" target="_top" xlink:title="Implementation of KDGrid.">
<polygon fill="white" stroke="#666666" points="718,-360 605,-360 605,-330 718,-330 718,-360"/>
<text text-anchor="start" x="613" y="-348" font-family="Helvetica,sans-Serif" font-size="10.00">medusa/bits/spatial</text>
<text text-anchor="middle" x="661.5" y="-337" font-family="Helvetica,sans-Serif" font-size="10.00">_search/KDGrid.hpp</text>
</a>
</g>
</g>
<!-- Node1&#45;&gt;Node2 -->
<g id="edge1_Node000001_Node000002" class="edge">
<title>Node1&#45;&gt;Node2</title>
<g id="a_edge1_Node000001_Node000002"><a xlink:title=" ">
<path fill="none" stroke="#63b8ff" d="M661.5,-395.8C661.5,-388.34 661.5,-378.99 661.5,-370.41"/>
<polygon fill="#63b8ff" stroke="#63b8ff" points="665,-370.16 661.5,-360.16 658,-370.16 665,-370.16"/>
</a>
</g>
</g>
<!-- Node3 -->
<g id="Node000003" class="node">
<title>Node3</title>
<g id="a_Node000003"><a xlink:href="KDGrid__fwd_8hpp.html" target="_top" xlink:title="Declaration of KDGrid.">
<polygon fill="white" stroke="#666666" points="95,-239 0,-239 0,-220 95,-220 95,-239"/>
<text text-anchor="middle" x="47.5" y="-227" font-family="Helvetica,sans-Serif" font-size="10.00">KDGrid_fwd.hpp</text>
</a>
</g>
</g>
<!-- Node2&#45;&gt;Node3 -->
<g id="edge2_Node000002_Node000003" class="edge">
<title>Node2&#45;&gt;Node3</title>
<g id="a_edge2_Node000002_Node000003"><a xlink:title=" ">
<path fill="none" stroke="#63b8ff" d="M604.83,-337.66C535.04,-329.46 413.01,-313.85 309.5,-294 230.42,-278.84 139.31,-255.38 88.05,-241.62"/>
<polygon fill="#63b8ff" stroke="#63b8ff" points="88.91,-238.23 78.34,-239 87.09,-244.99 88.91,-238.23"/>
</a>
</g>
</g>
<!-- Node9 -->
<g id="Node000009" class="node">
<title>Node9</title>
<g id="a_Node000009"><a xlink:href="Grid_8hpp.html" target="_top" xlink:title="Implementation of Grid.">
<polygon fill="white" stroke="#666666" points="690.5,-239 632.5,-239 632.5,-220 690.5,-220 690.5,-239"/>
<text text-anchor="middle" x="661.5" y="-227" font-family="Helvetica,sans-Serif" font-size="10.00">Grid.hpp</text>
</a>
</g>
</g>
<!-- Node2&#45;&gt;Node9 -->
<g id="edge11_Node000002_Node000009" class="edge">
<title>Node2&#45;&gt;Node9</title>
<g id="a_edge11_Node000002_Node000009"><a xlink:title=" ">
<path fill="none" stroke="#63b8ff" d="M661.5,-329.63C661.5,-309.21 661.5,-271.81 661.5,-249.24"/>
<polygon fill="#63b8ff" stroke="#63b8ff" points="665,-249.23 661.5,-239.23 658,-249.23 665,-249.23"/>
</a>
</g>
</g>
<!-- Node10 -->
<g id="Node000010" class="node">
<title>Node10</title>
<g id="a_Node000010"><a xlink:href="assert_8hpp.html" target="_top" xlink:title="Implementation of custom assert and debug utilities.">
<polygon fill="white" stroke="#666666" points="824,-129 669,-129 669,-110 824,-110 824,-129"/>
<text text-anchor="middle" x="746.5" y="-117" font-family="Helvetica,sans-Serif" font-size="10.00">medusa/bits/utils/assert.hpp</text>
</a>
</g>
</g>
<!-- Node2&#45;&gt;Node10 -->
<g id="edge43_Node000002_Node000010" class="edge">
<title>Node2&#45;&gt;Node10</title>
<g id="a_edge43_Node000002_Node000010"><a xlink:title=" ">
<path fill="none" stroke="#63b8ff" d="M680.05,-329.71C711.23,-304.38 773.04,-248.18 796.5,-184 799.4,-176.07 799.96,-172.7 796.5,-165 791,-152.74 780.27,-142.48 770.15,-134.91"/>
<polygon fill="#63b8ff" stroke="#63b8ff" points="772.14,-132.03 761.93,-129.2 768.15,-137.78 772.14,-132.03"/>
</a>
</g>
</g>
<!-- Node13 -->
<g id="Node000013" class="node">
<title>Node13</title>
<g id="a_Node000013"><a xlink:title=" ">
<polygon fill="#e0e0e0" stroke="#999999" points="907.5,-19 847.5,-19 847.5,0 907.5,0 907.5,-19"/>
<text text-anchor="middle" x="877.5" y="-7" font-family="Helvetica,sans-Serif" font-size="10.00">iostream</text>
</a>
</g>
</g>
<!-- Node2&#45;&gt;Node13 -->
<g id="edge44_Node000002_Node000013" class="edge">
<title>Node2&#45;&gt;Node13</title>
<g id="a_edge44_Node000002_Node000013"><a xlink:title=" ">
<path fill="none" stroke="#63b8ff" d="M718.27,-341.02C788.38,-333.92 898.5,-310.11 898.5,-230.5 898.5,-230.5 898.5,-230.5 898.5,-118.5 898.5,-86.46 889.48,-50.03 883.27,-28.73"/>
<polygon fill="#63b8ff" stroke="#63b8ff" points="886.59,-27.62 880.33,-19.07 879.89,-29.65 886.59,-27.62"/>
</a>
</g>
</g>
<!-- Node19 -->
<g id="Node000019" class="node">
<title>Node19</title>
<g id="a_Node000019"><a xlink:href="numutils_8hpp.html" target="_top" xlink:title="Declaration of numerical utilities.">
<polygon fill="white" stroke="#666666" points="486,-294 319,-294 319,-275 486,-275 486,-294"/>
<text text-anchor="middle" x="402.5" y="-282" font-family="Helvetica,sans-Serif" font-size="10.00">medusa/bits/utils/numutils.hpp</text>
</a>
</g>
</g>
<!-- Node2&#45;&gt;Node19 -->
<g id="edge26_Node000002_Node000019" class="edge">
<title>Node2&#45;&gt;Node19</title>
<g id="a_edge26_Node000002_Node000019"><a xlink:title=" ">
<path fill="none" stroke="#63b8ff" d="M604.98,-331.23C558.72,-320.79 494.02,-306.17 450.3,-296.3"/>
<polygon fill="#63b8ff" stroke="#63b8ff" points="451.01,-292.87 440.49,-294.08 449.47,-299.7 451.01,-292.87"/>
</a>
</g>
</g>
<!-- Node4 -->
<g id="Node000004" class="node">
<title>Node4</title>
<g id="a_Node000004"><a xlink:href="Grid__fwd_8hpp.html" target="_top" xlink:title="Declaration of Grid.">
<polygon fill="white" stroke="#666666" points="261.5,-184 181.5,-184 181.5,-165 261.5,-165 261.5,-184"/>
<text text-anchor="middle" x="221.5" y="-172" font-family="Helvetica,sans-Serif" font-size="10.00">Grid_fwd.hpp</text>
</a>
</g>
</g>
<!-- Node3&#45;&gt;Node4 -->
<g id="edge3_Node000003_Node000004" class="edge">
<title>Node3&#45;&gt;Node4</title>
<g id="a_edge3_Node000003_Node000004"><a xlink:title=" ">
<path fill="none" stroke="#63b8ff" d="M75.46,-219.98C104.8,-211.05 151.1,-196.94 183.69,-187.02"/>
<polygon fill="#63b8ff" stroke="#63b8ff" points="184.78,-190.34 193.32,-184.08 182.74,-183.65 184.78,-190.34"/>
</a>
</g>
</g>
<!-- Node6 -->
<g id="Node000006" class="node">
<title>Node6</title>
<g id="a_Node000006"><a xlink:title=" ">
<polygon fill="#e0e0e0" stroke="#999999" points="371,-19 324,-19 324,0 371,0 371,-19"/>
<text text-anchor="middle" x="347.5" y="-7" font-family="Helvetica,sans-Serif" font-size="10.00">vector</text>
</a>
</g>
</g>
<!-- Node3&#45;&gt;Node6 -->
<g id="edge10_Node000003_Node000006" class="edge">
<title>Node3&#45;&gt;Node6</title>
<g id="a_edge10_Node000003_Node000006"><a xlink:title=" ">
<path fill="none" stroke="#63b8ff" d="M45.02,-219.98C39.45,-198.91 28.3,-143.63 53.5,-110 115.67,-27.05 250.42,-12.58 313.56,-10.51"/>
<polygon fill="#63b8ff" stroke="#63b8ff" points="313.86,-14.01 323.78,-10.27 313.69,-7.01 313.86,-14.01"/>
</a>
</g>
</g>
<!-- Node8 -->
<g id="Node000008" class="node">
<title>Node8</title>
<g id="a_Node000008"><a xlink:title=" ">
<polygon fill="#e0e0e0" stroke="#999999" points="274.5,-129 226.5,-129 226.5,-110 274.5,-110 274.5,-129"/>
<text text-anchor="middle" x="250.5" y="-117" font-family="Helvetica,sans-Serif" font-size="10.00">iosfwd</text>
</a>
</g>
</g>
<!-- Node3&#45;&gt;Node8 -->
<g id="edge9_Node000003_Node000008" class="edge">
<title>Node3&#45;&gt;Node8</title>
<g id="a_edge9_Node000003_Node000008"><a xlink:title=" ">
<path fill="none" stroke="#63b8ff" d="M49.03,-219.65C51.9,-205.85 59.39,-179.3 76.5,-165 116.29,-131.73 177.85,-122.91 216.08,-120.81"/>
<polygon fill="#63b8ff" stroke="#63b8ff" points="216.36,-124.3 226.2,-120.38 216.06,-117.31 216.36,-124.3"/>
</a>
</g>
</g>
<!-- Node5 -->
<g id="Node000005" class="node">
<title>Node5</title>
<g id="a_Node000005"><a xlink:href="Config_8hpp.html" target="_top" xlink:title="Contains compile time settings for the project, such as Eigen plugins.">
<polygon fill="white" stroke="#666666" points="402.5,-129 292.5,-129 292.5,-110 402.5,-110 402.5,-129"/>
<text text-anchor="middle" x="347.5" y="-117" font-family="Helvetica,sans-Serif" font-size="10.00">medusa/Config.hpp</text>
</a>
</g>
</g>
<!-- Node4&#45;&gt;Node5 -->
<g id="edge4_Node000004_Node000005" class="edge">
<title>Node4&#45;&gt;Node5</title>
<g id="a_edge4_Node000004_Node000005"><a xlink:title=" ">
<path fill="none" stroke="#63b8ff" d="M241.74,-164.98C262.2,-156.38 294.03,-142.99 317.43,-133.15"/>
<polygon fill="#63b8ff" stroke="#63b8ff" points="319.03,-136.27 326.89,-129.17 316.31,-129.82 319.03,-136.27"/>
</a>
</g>
</g>
<!-- Node4&#45;&gt;Node6 -->
<g id="edge7_Node000004_Node000006" class="edge">
<title>Node4&#45;&gt;Node6</title>
<g id="a_edge7_Node000004_Node000006"><a xlink:title=" ">
<path fill="none" stroke="#63b8ff" d="M210.19,-164.92C195.62,-152.77 173.39,-129.81 184.5,-110 212.11,-60.79 275.05,-33.04 314.14,-19.96"/>
<polygon fill="#63b8ff" stroke="#63b8ff" points="315.31,-23.26 323.77,-16.87 313.18,-16.59 315.31,-23.26"/>
</a>
</g>
</g>
<!-- Node7 -->
<g id="Node000007" class="node">
<title>Node7</title>
<g id="a_Node000007"><a xlink:title=" ">
<polygon fill="#e0e0e0" stroke="#999999" points="566.5,-19 524.5,-19 524.5,0 566.5,0 566.5,-19"/>
<text text-anchor="middle" x="545.5" y="-7" font-family="Helvetica,sans-Serif" font-size="10.00">array</text>
</a>
</g>
</g>
<!-- Node4&#45;&gt;Node7 -->
<g id="edge6_Node000004_Node000007" class="edge">
<title>Node4&#45;&gt;Node7</title>
<g id="a_edge6_Node000004_Node000007"><a xlink:title=" ">
<path fill="none" stroke="#63b8ff" d="M217.69,-164.7C212.6,-151.43 205.52,-126.15 217.5,-110 253.48,-61.48 438.67,-27.34 513.79,-15.29"/>
<polygon fill="#63b8ff" stroke="#63b8ff" points="514.71,-18.69 524.04,-13.67 513.62,-11.77 514.71,-18.69"/>
</a>
</g>
</g>
<!-- Node4&#45;&gt;Node8 -->
<g id="edge8_Node000004_Node000008" class="edge">
<title>Node4&#45;&gt;Node8</title>
<g id="a_edge8_Node000004_Node000008"><a xlink:title=" ">
<path fill="none" stroke="#63b8ff" d="M226.29,-164.75C230.26,-157.49 236.03,-146.95 240.93,-137.98"/>
<polygon fill="#63b8ff" stroke="#63b8ff" points="244.07,-139.54 245.8,-129.09 237.93,-136.18 244.07,-139.54"/>
</a>
</g>
</g>
<!-- Node5&#45;&gt;Node6 -->
<g id="edge5_Node000005_Node000006" class="edge">
<title>Node5&#45;&gt;Node6</title>
<g id="a_edge5_Node000005_Node000006"><a xlink:title=" ">
<path fill="none" stroke="#63b8ff" d="M347.5,-109.66C347.5,-92.17 347.5,-52.8 347.5,-29.27"/>
<polygon fill="#63b8ff" stroke="#63b8ff" points="351,-29.16 347.5,-19.16 344,-29.16 351,-29.16"/>
</a>
</g>
</g>
<!-- Node9&#45;&gt;Node4 -->
<g id="edge12_Node000009_Node000004" class="edge">
<title>Node9&#45;&gt;Node4</title>
<g id="a_edge12_Node000009_Node000004"><a xlink:title=" ">
<path fill="none" stroke="#63b8ff" d="M632.29,-224.98C558.47,-216.09 363.78,-192.64 271.45,-181.52"/>
<polygon fill="#63b8ff" stroke="#63b8ff" points="271.85,-178.04 261.51,-180.32 271.01,-184.99 271.85,-178.04"/>
</a>
</g>
</g>
<!-- Node9&#45;&gt;Node10 -->
<g id="edge13_Node000009_Node000010" class="edge">
<title>Node9&#45;&gt;Node10</title>
<g id="a_edge13_Node000009_Node000010"><a xlink:title=" ">
<path fill="none" stroke="#63b8ff" d="M690.91,-224.77C715.48,-219.93 749.06,-208.92 765.5,-184 774.77,-169.95 767.25,-151.23 759.09,-137.76"/>
<polygon fill="#63b8ff" stroke="#63b8ff" points="761.99,-135.8 753.55,-129.4 756.16,-139.66 761.99,-135.8"/>
</a>
</g>
</g>
<!-- Node16 -->
<g id="Node000016" class="node">
<title>Node16</title>
<g id="a_Node000016"><a xlink:href="memutils_8hpp.html" target="_top" xlink:title="Declaration of memory related utilities.">
<polygon fill="white" stroke="#666666" points="681,-184 510,-184 510,-165 681,-165 681,-184"/>
<text text-anchor="middle" x="595.5" y="-172" font-family="Helvetica,sans-Serif" font-size="10.00">medusa/bits/utils/memutils.hpp</text>
</a>
</g>
</g>
<!-- Node9&#45;&gt;Node16 -->
<g id="edge21_Node000009_Node000016" class="edge">
<title>Node9&#45;&gt;Node16</title>
<g id="a_edge21_Node000009_Node000016"><a xlink:title=" ">
<path fill="none" stroke="#63b8ff" d="M650.9,-219.98C641.04,-212.07 626.15,-200.11 614.28,-190.58"/>
<polygon fill="#63b8ff" stroke="#63b8ff" points="616.29,-187.7 606.3,-184.17 611.9,-193.16 616.29,-187.7"/>
</a>
</g>
</g>
<!-- Node18 -->
<g id="Node000018" class="node">
<title>Node18</title>
<g id="a_Node000018"><a xlink:title=" ">
<polygon fill="#e0e0e0" stroke="#999999" points="756,-184 699,-184 699,-165 756,-165 756,-184"/>
<text text-anchor="middle" x="727.5" y="-172" font-family="Helvetica,sans-Serif" font-size="10.00">ostream</text>
</a>
</g>
</g>
<!-- Node9&#45;&gt;Node18 -->
<g id="edge25_Node000009_Node000018" class="edge">
<title>Node9&#45;&gt;Node18</title>
<g id="a_edge25_Node000009_Node000018"><a xlink:title=" ">
<path fill="none" stroke="#63b8ff" d="M672.1,-219.98C681.96,-212.07 696.85,-200.11 708.72,-190.58"/>
<polygon fill="#63b8ff" stroke="#63b8ff" points="711.1,-193.16 716.7,-184.17 706.71,-187.7 711.1,-193.16"/>
</a>
</g>
</g>
<!-- Node11 -->
<g id="Node000011" class="node">
<title>Node11</title>
<g id="a_Node000011"><a xlink:title=" ">
<polygon fill="#e0e0e0" stroke="#999999" points="698.5,-74 566.5,-74 566.5,-55 698.5,-55 698.5,-74"/>
<text text-anchor="middle" x="632.5" y="-62" font-family="Helvetica,sans-Serif" font-size="10.00">tinyformat/tinyformat.h</text>
</a>
</g>
</g>
<!-- Node10&#45;&gt;Node11 -->
<g id="edge14_Node000010_Node000011" class="edge">
<title>Node10&#45;&gt;Node11</title>
<g id="a_edge14_Node000010_Node000011"><a xlink:title=" ">
<path fill="none" stroke="#63b8ff" d="M728.18,-109.98C709.84,-101.46 681.39,-88.23 660.27,-78.41"/>
<polygon fill="#63b8ff" stroke="#63b8ff" points="661.69,-75.21 651.15,-74.17 658.74,-81.56 661.69,-75.21"/>
</a>
</g>
</g>
<!-- Node12 -->
<g id="Node000012" class="node">
<title>Node12</title>
<g id="a_Node000012"><a xlink:href="print_8hpp.html" target="_top" xlink:title="Printing helpers for std types.">
<polygon fill="white" stroke="#666666" points="776.5,-74 716.5,-74 716.5,-55 776.5,-55 776.5,-74"/>
<text text-anchor="middle" x="746.5" y="-62" font-family="Helvetica,sans-Serif" font-size="10.00">print.hpp</text>
</a>
</g>
</g>
<!-- Node10&#45;&gt;Node12 -->
<g id="edge15_Node000010_Node000012" class="edge">
<title>Node10&#45;&gt;Node12</title>
<g id="a_edge15_Node000010_Node000012"><a xlink:title=" ">
<path fill="none" stroke="#63b8ff" d="M746.5,-109.75C746.5,-102.8 746.5,-92.85 746.5,-84.13"/>
<polygon fill="#63b8ff" stroke="#63b8ff" points="750,-84.09 746.5,-74.09 743,-84.09 750,-84.09"/>
</a>
</g>
</g>
<!-- Node12&#45;&gt;Node6 -->
<g id="edge17_Node000012_Node000006" class="edge">
<title>Node12&#45;&gt;Node6</title>
<g id="a_edge17_Node000012_Node000006"><a xlink:title=" ">
<path fill="none" stroke="#63b8ff" d="M716.32,-56.64C713.35,-56.05 710.37,-55.49 707.5,-55 588.37,-34.7 445.55,-19.83 381.5,-13.65"/>
<polygon fill="#63b8ff" stroke="#63b8ff" points="381.48,-10.14 371.2,-12.67 380.82,-17.11 381.48,-10.14"/>
</a>
</g>
</g>
<!-- Node12&#45;&gt;Node7 -->
<g id="edge18_Node000012_Node000007" class="edge">
<title>Node12&#45;&gt;Node7</title>
<g id="a_edge18_Node000012_Node000007"><a xlink:title=" ">
<path fill="none" stroke="#63b8ff" d="M716.41,-55.57C678.77,-45.64 614.65,-28.73 576.56,-18.69"/>
<polygon fill="#63b8ff" stroke="#63b8ff" points="577.12,-15.22 566.55,-16.05 575.33,-21.99 577.12,-15.22"/>
</a>
</g>
</g>
<!-- Node12&#45;&gt;Node13 -->
<g id="edge16_Node000012_Node000013" class="edge">
<title>Node12&#45;&gt;Node13</title>
<g id="a_edge16_Node000012_Node000013"><a xlink:title=" ">
<path fill="none" stroke="#63b8ff" d="M767.55,-54.98C788.91,-46.34 822.2,-32.87 846.56,-23.02"/>
<polygon fill="#63b8ff" stroke="#63b8ff" points="848.11,-26.17 856.07,-19.17 845.49,-19.68 848.11,-26.17"/>
</a>
</g>
</g>
<!-- Node14 -->
<g id="Node000014" class="node">
<title>Node14</title>
<g id="a_Node000014"><a xlink:title=" ">
<polygon fill="#e0e0e0" stroke="#999999" points="789,-19 744,-19 744,0 789,0 789,-19"/>
<text text-anchor="middle" x="766.5" y="-7" font-family="Helvetica,sans-Serif" font-size="10.00">utility</text>
</a>
</g>
</g>
<!-- Node12&#45;&gt;Node14 -->
<g id="edge19_Node000012_Node000014" class="edge">
<title>Node12&#45;&gt;Node14</title>
<g id="a_edge19_Node000012_Node000014"><a xlink:title=" ">
<path fill="none" stroke="#63b8ff" d="M749.8,-54.75C752.48,-47.65 756.35,-37.4 759.69,-28.56"/>
<polygon fill="#63b8ff" stroke="#63b8ff" points="763,-29.68 763.26,-19.09 756.45,-27.21 763,-29.68"/>
</a>
</g>
</g>
<!-- Node15 -->
<g id="Node000015" class="node">
<title>Node15</title>
<g id="a_Node000015"><a xlink:title=" ">
<polygon fill="#e0e0e0" stroke="#999999" points="726,-19 685,-19 685,0 726,0 726,-19"/>
<text text-anchor="middle" x="705.5" y="-7" font-family="Helvetica,sans-Serif" font-size="10.00">tuple</text>
</a>
</g>
</g>
<!-- Node12&#45;&gt;Node15 -->
<g id="edge20_Node000012_Node000015" class="edge">
<title>Node12&#45;&gt;Node15</title>
<g id="a_edge20_Node000012_Node000015"><a xlink:title=" ">
<path fill="none" stroke="#63b8ff" d="M739.73,-54.75C733.94,-47.26 725.44,-36.28 718.36,-27.13"/>
<polygon fill="#63b8ff" stroke="#63b8ff" points="721.03,-24.86 712.14,-19.09 715.49,-29.14 721.03,-24.86"/>
</a>
</g>
</g>
<!-- Node16&#45;&gt;Node5 -->
<g id="edge23_Node000016_Node000005" class="edge">
<title>Node16&#45;&gt;Node5</title>
<g id="a_edge23_Node000016_Node000005"><a xlink:title=" ">
<path fill="none" stroke="#63b8ff" d="M555.65,-164.98C512.67,-155.8 444.13,-141.15 397.54,-131.19"/>
<polygon fill="#63b8ff" stroke="#63b8ff" points="398.17,-127.75 387.66,-129.08 396.71,-134.59 398.17,-127.75"/>
</a>
</g>
</g>
<!-- Node16&#45;&gt;Node10 -->
<g id="edge24_Node000016_Node000010" class="edge">
<title>Node16&#45;&gt;Node10</title>
<g id="a_edge24_Node000016_Node000010"><a xlink:title=" ">
<path fill="none" stroke="#63b8ff" d="M619.76,-164.98C644.82,-156.19 684.13,-142.39 712.33,-132.49"/>
<polygon fill="#63b8ff" stroke="#63b8ff" points="713.52,-135.78 721.8,-129.17 711.2,-129.18 713.52,-135.78"/>
</a>
</g>
</g>
<!-- Node17 -->
<g id="Node000017" class="node">
<title>Node17</title>
<g id="a_Node000017"><a xlink:title=" ">
<polygon fill="#e0e0e0" stroke="#999999" points="611.5,-129 553.5,-129 553.5,-110 611.5,-110 611.5,-129"/>
<text text-anchor="middle" x="582.5" y="-117" font-family="Helvetica,sans-Serif" font-size="10.00">memory</text>
</a>
</g>
</g>
<!-- Node16&#45;&gt;Node17 -->
<g id="edge22_Node000016_Node000017" class="edge">
<title>Node16&#45;&gt;Node17</title>
<g id="a_edge22_Node000016_Node000017"><a xlink:title=" ">
<path fill="none" stroke="#63b8ff" d="M593.35,-164.75C591.63,-157.72 589.15,-147.62 587,-138.84"/>
<polygon fill="#63b8ff" stroke="#63b8ff" points="590.39,-137.97 584.61,-129.09 583.59,-139.63 590.39,-137.97"/>
</a>
</g>
</g>
<!-- Node19&#45;&gt;Node5 -->
<g id="edge27_Node000019_Node000005" class="edge">
<title>Node19&#45;&gt;Node5</title>
<g id="a_edge27_Node000019_Node000005"><a xlink:title=" ">
<path fill="none" stroke="#63b8ff" d="M361.88,-274.99C342.18,-268.59 320.28,-257.61 308.5,-239 290.91,-211.21 296.92,-195.78 308.5,-165 312.68,-153.89 321.02,-143.75 328.93,-135.96"/>
<polygon fill="#63b8ff" stroke="#63b8ff" points="331.51,-138.35 336.51,-129.01 326.78,-133.19 331.51,-138.35"/>
</a>
</g>
</g>
<!-- Node19&#45;&gt;Node10 -->
<g id="edge28_Node000019_Node000010" class="edge">
<title>Node19&#45;&gt;Node10</title>
<g id="a_edge28_Node000019_Node000010"><a xlink:title=" ">
<path fill="none" stroke="#63b8ff" d="M486.31,-280.76C547.23,-276.45 630.71,-265.66 699.5,-239 740.42,-223.14 760.85,-222.72 781.5,-184 790.23,-167.63 777.3,-149.06 764.76,-136.25"/>
<polygon fill="#63b8ff" stroke="#63b8ff" points="766.87,-133.42 757.2,-129.09 762.06,-138.5 766.87,-133.42"/>
</a>
</g>
</g>
<!-- Node20 -->
<g id="Node000020" class="node">
<title>Node20</title>
<g id="a_Node000020"><a xlink:href="Vec_8hpp.html" target="_top" xlink:title="Implemetations for Vec.">
<polygon fill="white" stroke="#666666" points="261.5,-239 113.5,-239 113.5,-220 261.5,-220 261.5,-239"/>
<text text-anchor="middle" x="187.5" y="-227" font-family="Helvetica,sans-Serif" font-size="10.00">medusa/bits/types/Vec.hpp</text>
</a>
</g>
</g>
<!-- Node19&#45;&gt;Node20 -->
<g id="edge29_Node000019_Node000020" class="edge">
<title>Node19&#45;&gt;Node20</title>
<g id="a_edge29_Node000019_Node000020"><a xlink:title=" ">
<path fill="none" stroke="#63b8ff" d="M367.96,-274.98C331.08,-265.89 272.51,-251.46 232.16,-241.51"/>
<polygon fill="#63b8ff" stroke="#63b8ff" points="232.86,-238.08 222.31,-239.08 231.19,-244.87 232.86,-238.08"/>
</a>
</g>
</g>
<!-- Node23 -->
<g id="Node000023" class="node">
<title>Node23</title>
<g id="a_Node000023"><a xlink:href="Range_8hpp.html" target="_top" xlink:title="Implementation of Range.">
<polygon fill="white" stroke="#666666" points="544,-239 383,-239 383,-220 544,-220 544,-239"/>
<text text-anchor="middle" x="463.5" y="-227" font-family="Helvetica,sans-Serif" font-size="10.00">medusa/bits/types/Range.hpp</text>
</a>
</g>
</g>
<!-- Node19&#45;&gt;Node23 -->
<g id="edge33_Node000019_Node000023" class="edge">
<title>Node19&#45;&gt;Node23</title>
<g id="a_edge33_Node000019_Node000023"><a xlink:title=" ">
<path fill="none" stroke="#63b8ff" d="M412.3,-274.98C421.32,-267.15 434.91,-255.34 445.82,-245.86"/>
<polygon fill="#63b8ff" stroke="#63b8ff" points="448.27,-248.37 453.52,-239.17 443.68,-243.09 448.27,-248.37"/>
</a>
</g>
</g>
<!-- Node27 -->
<g id="Node000027" class="node">
<title>Node27</title>
<g id="a_Node000027"><a xlink:title=" ">
<polygon fill="#e0e0e0" stroke="#999999" points="365,-239 318,-239 318,-220 365,-220 365,-239"/>
<text text-anchor="middle" x="341.5" y="-227" font-family="Helvetica,sans-Serif" font-size="10.00">cmath</text>
</a>
</g>
</g>
<!-- Node19&#45;&gt;Node27 -->
<g id="edge42_Node000019_Node000027" class="edge">
<title>Node19&#45;&gt;Node27</title>
<g id="a_edge42_Node000019_Node000027"><a xlink:title=" ">
<path fill="none" stroke="#63b8ff" d="M392.7,-274.98C383.68,-267.15 370.09,-255.34 359.18,-245.86"/>
<polygon fill="#63b8ff" stroke="#63b8ff" points="361.32,-243.09 351.48,-239.17 356.73,-248.37 361.32,-243.09"/>
</a>
</g>
</g>
<!-- Node21 -->
<g id="Node000021" class="node">
<title>Node21</title>
<g id="a_Node000021"><a xlink:href="Vec__fwd_8hpp.html" target="_top" xlink:title="Declaration of Vec.">
<polygon fill="white" stroke="#666666" points="163,-184 86,-184 86,-165 163,-165 163,-184"/>
<text text-anchor="middle" x="124.5" y="-172" font-family="Helvetica,sans-Serif" font-size="10.00">Vec_fwd.hpp</text>
</a>
</g>
</g>
<!-- Node20&#45;&gt;Node21 -->
<g id="edge30_Node000020_Node000021" class="edge">
<title>Node20&#45;&gt;Node21</title>
<g id="a_edge30_Node000020_Node000021"><a xlink:title=" ">
<path fill="none" stroke="#63b8ff" d="M177.38,-219.98C168.06,-212.15 154.03,-200.34 142.76,-190.86"/>
<polygon fill="#63b8ff" stroke="#63b8ff" points="144.71,-187.93 134.81,-184.17 140.21,-193.29 144.71,-187.93"/>
</a>
</g>
</g>
<!-- Node21&#45;&gt;Node5 -->
<g id="edge31_Node000021_Node000005" class="edge">
<title>Node21&#45;&gt;Node5</title>
<g id="a_edge31_Node000021_Node000005"><a xlink:title=" ">
<path fill="none" stroke="#63b8ff" d="M160.33,-164.98C198.66,-155.87 259.58,-141.4 301.45,-131.45"/>
<polygon fill="#63b8ff" stroke="#63b8ff" points="302.47,-134.8 311.39,-129.08 300.85,-127.99 302.47,-134.8"/>
</a>
</g>
</g>
<!-- Node22 -->
<g id="Node000022" class="node">
<title>Node22</title>
<g id="a_Node000022"><a xlink:title=" ">
<polygon fill="#e0e0e0" stroke="#999999" points="132,-129 63,-129 63,-110 132,-110 132,-129"/>
<text text-anchor="middle" x="97.5" y="-117" font-family="Helvetica,sans-Serif" font-size="10.00">Eigen/Core</text>
</a>
</g>
</g>
<!-- Node21&#45;&gt;Node22 -->
<g id="edge32_Node000021_Node000022" class="edge">
<title>Node21&#45;&gt;Node22</title>
<g id="a_edge32_Node000021_Node000022"><a xlink:title=" ">
<path fill="none" stroke="#63b8ff" d="M120.04,-164.75C116.38,-157.57 111.09,-147.18 106.55,-138.27"/>
<polygon fill="#63b8ff" stroke="#63b8ff" points="109.53,-136.41 101.88,-129.09 103.3,-139.59 109.53,-136.41"/>
</a>
</g>
</g>
<!-- Node24 -->
<g id="Node000024" class="node">
<title>Node24</title>
<g id="a_Node000024"><a xlink:href="Range__fwd_8hpp.html" target="_top" xlink:title="Declaration of Range.">
<polygon fill="white" stroke="#666666" points="409,-184 318,-184 318,-165 409,-165 409,-184"/>
<text text-anchor="middle" x="363.5" y="-172" font-family="Helvetica,sans-Serif" font-size="10.00">Range_fwd.hpp</text>
</a>
</g>
</g>
<!-- Node23&#45;&gt;Node24 -->
<g id="edge34_Node000023_Node000024" class="edge">
<title>Node23&#45;&gt;Node24</title>
<g id="a_edge34_Node000023_Node000024"><a xlink:title=" ">
<path fill="none" stroke="#63b8ff" d="M447.43,-219.98C431.64,-211.61 407.28,-198.7 388.87,-188.95"/>
<polygon fill="#63b8ff" stroke="#63b8ff" points="390.33,-185.76 379.86,-184.17 387.06,-191.95 390.33,-185.76"/>
</a>
</g>
</g>
<!-- Node26 -->
<g id="Node000026" class="node">
<title>Node26</title>
<g id="a_Node000026"><a xlink:title=" ">
<polygon fill="#e0e0e0" stroke="#999999" points="491.5,-184 427.5,-184 427.5,-165 491.5,-165 491.5,-184"/>
<text text-anchor="middle" x="459.5" y="-172" font-family="Helvetica,sans-Serif" font-size="10.00">algorithm</text>
</a>
</g>
</g>
<!-- Node23&#45;&gt;Node26 -->
<g id="edge41_Node000023_Node000026" class="edge">
<title>Node23&#45;&gt;Node26</title>
<g id="a_edge41_Node000023_Node000026"><a xlink:title=" ">
<path fill="none" stroke="#63b8ff" d="M462.84,-219.75C462.32,-212.8 461.56,-202.85 460.91,-194.13"/>
<polygon fill="#63b8ff" stroke="#63b8ff" points="464.39,-193.8 460.15,-184.09 457.41,-194.32 464.39,-193.8"/>
</a>
</g>
</g>
<!-- Node24&#45;&gt;Node5 -->
<g id="edge35_Node000024_Node000005" class="edge">
<title>Node24&#45;&gt;Node5</title>
<g id="a_edge35_Node000024_Node000005"><a xlink:title=" ">
<path fill="none" stroke="#63b8ff" d="M360.86,-164.75C358.74,-157.72 355.69,-147.62 353.04,-138.84"/>
<polygon fill="#63b8ff" stroke="#63b8ff" points="356.33,-137.65 350.09,-129.09 349.63,-139.67 356.33,-137.65"/>
</a>
</g>
</g>
<!-- Node24&#45;&gt;Node6 -->
<g id="edge39_Node000024_Node000006" class="edge">
<title>Node24&#45;&gt;Node6</title>
<g id="a_edge39_Node000024_Node000006"><a xlink:title=" ">
<path fill="none" stroke="#63b8ff" d="M377.87,-164.96C389.37,-157.21 404.68,-144.62 411.5,-129 414.88,-121.26 413.88,-118.1 411.5,-110 401.95,-77.51 378.15,-45.59 362.42,-26.99"/>
<polygon fill="#63b8ff" stroke="#63b8ff" points="364.85,-24.45 355.64,-19.21 359.57,-29.05 364.85,-24.45"/>
</a>
</g>
</g>
<!-- Node24&#45;&gt;Node8 -->
<g id="edge40_Node000024_Node000008" class="edge">
<title>Node24&#45;&gt;Node8</title>
<g id="a_edge40_Node000024_Node000008"><a xlink:title=" ">
<path fill="none" stroke="#63b8ff" d="M345.34,-164.98C327.25,-156.5 299.22,-143.35 278.31,-133.54"/>
<polygon fill="#63b8ff" stroke="#63b8ff" points="279.53,-130.25 268.99,-129.17 276.55,-136.59 279.53,-130.25"/>
</a>
</g>
</g>
<!-- Node24&#45;&gt;Node10 -->
<g id="edge36_Node000024_Node000010" class="edge">
<title>Node24&#45;&gt;Node10</title>
<g id="a_edge36_Node000024_Node000010"><a xlink:title=" ">
<path fill="none" stroke="#63b8ff" d="M409.11,-166.38C412.29,-165.91 415.44,-165.44 418.5,-165 505.05,-152.44 604.61,-139.09 671.13,-130.32"/>
<polygon fill="#63b8ff" stroke="#63b8ff" points="671.65,-133.79 681.11,-129.01 670.74,-126.84 671.65,-133.79"/>
</a>
</g>
</g>
<!-- Node24&#45;&gt;Node17 -->
<g id="edge38_Node000024_Node000017" class="edge">
<title>Node24&#45;&gt;Node17</title>
<g id="a_edge38_Node000024_Node000017"><a xlink:title=" ">
<path fill="none" stroke="#63b8ff" d="M398.69,-164.98C438.26,-155.41 502.34,-139.9 543.43,-129.95"/>
<polygon fill="#63b8ff" stroke="#63b8ff" points="544.46,-133.31 553.36,-127.55 542.81,-126.5 544.46,-133.31"/>
</a>
</g>
</g>
<!-- Node25 -->
<g id="Node000025" class="node">
<title>Node25</title>
<g id="a_Node000025"><a xlink:href="traits_8hpp.html" target="_top" xlink:title="Type traits definition for vector and scalar fields.">
<polygon fill="white" stroke="#666666" points="522,-129 459,-129 459,-110 522,-110 522,-129"/>
<text text-anchor="middle" x="490.5" y="-117" font-family="Helvetica,sans-Serif" font-size="10.00">traits.hpp</text>
</a>
</g>
</g>
<!-- Node24&#45;&gt;Node25 -->
<g id="edge37_Node000024_Node000025" class="edge">
<title>Node24&#45;&gt;Node25</title>
<g id="a_edge37_Node000024_Node000025"><a xlink:title=" ">
<path fill="none" stroke="#63b8ff" d="M383.9,-164.98C404.52,-156.38 436.61,-142.99 460.19,-133.15"/>
<polygon fill="#63b8ff" stroke="#63b8ff" points="461.84,-136.25 469.72,-129.17 459.15,-129.79 461.84,-136.25"/>
</a>
</g>
</g>
</g>
</svg>

<g id="navigator" transform="translate(0 0)" fill="#404254">
  <rect fill="#f2f5e9" fill-opacity="0.5" stroke="#606060" stroke-width=".5" x="0" y="0" width="60" height="60"/>
  <use id="zoomplus" xlink:href="#zoomPlus" x="17" y="9" onmousedown="handleZoom(evt,'in')"/>
  <use id="zoomminus" xlink:href="#zoomMin" x="42" y="9" onmousedown="handleZoom(evt,'out')"/>
  <use id="reset" xlink:href="#resetDef" x="30" y="36" onmousedown="handleReset()"/>
   <use id="arrowup" xlink:href="#arrowUp" x="0" y="0" onmousedown="handlePan(0,-1)"/>
  <use id="arrowright" xlink:href="#arrowRight" x="0" y="0" onmousedown="handlePan(1,0)"/>
  <use id="arrowdown" xlink:href="#arrowDown" x="0" y="0" onmousedown="handlePan(0,1)"/>
  <use id="arrowleft" xlink:href="#arrowLeft" x="0" y="0" onmousedown="handlePan(-1,0)"/>
</g>
<svg viewBox="0 0 15 15" width="100%" height="30px" preserveAspectRatio="xMaxYMin meet">
 <g id="arrow_out" transform="scale(0.3 0.3)">
  <a xlink:href="KDGrid_8cpp__incl_org.svg" target="_base">
   <rect id="button" ry="5" rx="5" y="6" x="6" height="38" width="38"
        fill="#f2f5e9" fill-opacity="0.5" stroke="#606060" stroke-width="1.0"/>
   <path id="arrow"
     d="M 11.500037,31.436501 C 11.940474,20.09759 22.043105,11.32322 32.158766,21.979434 L 37.068811,17.246167 C 37.068811,17.246167 37.088388,32 37.088388,32 L 22.160133,31.978069 C 22.160133,31.978069 26.997745,27.140456 26.997745,27.140456 C 18.528582,18.264221 13.291696,25.230495 11.500037,31.436501 z"
     style="fill:#404040;"/>
  </a>
 </g>
</svg>

<style type='text/css'>
<![CDATA[
[data-mouse-over-selected='false'] { opacity: 0.7; }
[data-mouse-over-selected='true']  { opacity: 1.0; }
]]>
</style>
<script type="application/ecmascript"><![CDATA[
document.addEventListener('DOMContentLoaded', (event) => {
  highlightEdges();
  highlightAdjacentNodes();
});
]]></script>
</svg>
