<?xml version="1.0" encoding="UTF-8" standalone="no"?>
<!DOCTYPE svg PUBLIC "-//W3C//DTD SVG 1.1//EN"
 "http://www.w3.org/Graphics/SVG/1.1/DTD/svg11.dtd">
<!-- Generated by graphviz version 2.43.0 (0)
 -->
<!-- Title: include/medusa/bits/spatial_search/KDTreeMutable.hpp Pages: 1 -->
<!--zoomable 324 -->

<svg id="main" version="1.1" xmlns="http://www.w3.org/2000/svg" xmlns:xlink="http://www.w3.org/1999/xlink" xml:space="preserve" onload="init(evt)">
<style type="text/css"><![CDATA[
.node, .edge {opacity: 0.7;}
.node.selected, .edge.selected {opacity: 1;}
.edge:hover path { stroke: red; }
.edge:hover polygon { stroke: red; fill: red; }
]]></style>

<defs>
  <circle id="rim" cx="0" cy="0" r="7"/>
  <circle id="rim2" cx="0" cy="0" r="3.5"/>
  <g id="zoomPlus">
    <use xlink:href="#rim" fill="#404040"><set attributeName="fill" to="#808080" begin="zoomplus.mouseover" end="zoomplus.mouseout"/></use>
    <path d="M-4,0h8M0,-4v8" fill="none" stroke="white" stroke-width="1.5" pointer-events="none"/>
  </g>
  <g id="zoomMin">
    <use xlink:href="#rim" fill="#404040"><set attributeName="fill" to="#808080" begin="zoomminus.mouseover" end="zoomminus.mouseout"/></use>
    <path d="M-4,0h8" fill="none" stroke="white" stroke-width="1.5" pointer-events="none"/>
  </g>
  <g id="arrowUp" transform="translate(30 24)">
    <use xlink:href="#rim"/>
    <path pointer-events="none" fill="none" stroke="white" stroke-width="1.5" d="M0,-3.0v7 M-2.5,-0.5L0,-3.0L2.5,-0.5"/>
  </g>
  <g id="arrowRight" transform="rotate(90) translate(36 -43)">
    <use xlink:href="#rim"/>
    <path pointer-events="none" fill="none" stroke="white" stroke-width="1.5" d="M0,-3.0v7 M-2.5,-0.5L0,-3.0L2.5,-0.5"/>
  </g>
  <g id="arrowDown" transform="rotate(180) translate(-30 -48)">
    <use xlink:href="#rim"/>
    <path pointer-events="none" fill="none" stroke="white" stroke-width="1.5" d="M0,-3.0v7 M-2.5,-0.5L0,-3.0L2.5,-0.5"/>
  </g>
  <g id="arrowLeft" transform="rotate(270) translate(-36 17)">
    <use xlink:href="#rim"/>
    <path pointer-events="none" fill="none" stroke="white" stroke-width="1.5" d="M0,-3.0v7 M-2.5,-0.5L0,-3.0L2.5,-0.5"/>
  </g>
  <g id="resetDef">
    <use xlink:href="#rim2" fill="#404040"><set attributeName="fill" to="#808080" begin="reset.mouseover" end="reset.mouseout"/></use>
  </g>
</defs>
<script type="application/ecmascript">
var viewWidth = 730;
var viewHeight = 324;
var sectionId = 'dynsection-0';
</script>
<script type="application/ecmascript" xlink:href="svg.min.js"/>
<svg id="graph" class="graph">
<g id="viewport">
<title>include/medusa/bits/spatial_search/KDTreeMutable.hpp</title>
<!-- Node1 -->
<g id="Node000001" class="node">
<title>Node1</title>
<g id="a_Node000001"><a xlink:title="Implementation of KDTreeMutable.">
<polygon fill="#999999" stroke="#666666" points="721.65,-316 533.65,-316 533.65,-286 721.65,-286 721.65,-316"/>
<text text-anchor="start" x="541.65" y="-304" font-family="Helvetica,sans-Serif" font-size="10.00">include/medusa/bits</text>
<text text-anchor="middle" x="627.65" y="-293" font-family="Helvetica,sans-Serif" font-size="10.00">/spatial_search/KDTreeMutable.hpp</text>
</a>
</g>
</g>
<!-- Node2 -->
<g id="Node000002" class="node">
<title>Node2</title>
<g id="a_Node000002"><a xlink:href="KDTreeMutable__fwd_8hpp.html" target="_top" xlink:title="Declaration of KDTreeMutable.">
<polygon fill="white" stroke="#666666" points="416.65,-250 282.65,-250 282.65,-231 416.65,-231 416.65,-250"/>
<text text-anchor="middle" x="349.65" y="-238" font-family="Helvetica,sans-Serif" font-size="10.00">KDTreeMutable_fwd.hpp</text>
</a>
</g>
</g>
<!-- Node1&#45;&gt;Node2 -->
<g id="edge1_Node000001_Node000002" class="edge">
<title>Node1&#45;&gt;Node2</title>
<g id="a_edge1_Node000001_Node000002"><a xlink:title=" ">
<path fill="none" stroke="#63b8ff" d="M561.06,-285.99C511.63,-275.59 445.25,-261.62 400.15,-252.13"/>
<polygon fill="#63b8ff" stroke="#63b8ff" points="400.8,-248.69 390.29,-250.05 399.36,-255.54 400.8,-248.69"/>
</a>
</g>
</g>
<!-- Node6 -->
<g id="Node000006" class="node">
<title>Node6</title>
<g id="a_Node000006"><a xlink:href="assert_8hpp.html" target="_top" xlink:title="Implementation of custom assert and debug utilities.">
<polygon fill="white" stroke="#666666" points="561.15,-129 406.15,-129 406.15,-110 561.15,-110 561.15,-129"/>
<text text-anchor="middle" x="483.65" y="-117" font-family="Helvetica,sans-Serif" font-size="10.00">medusa/bits/utils/assert.hpp</text>
</a>
</g>
</g>
<!-- Node1&#45;&gt;Node6 -->
<g id="edge23_Node000001_Node000006" class="edge">
<title>Node1&#45;&gt;Node6</title>
<g id="a_edge23_Node000001_Node000006"><a xlink:title=" ">
<path fill="none" stroke="#63b8ff" d="M616.35,-285.91C590.06,-253.15 524.93,-171.97 496.87,-136.98"/>
<polygon fill="#63b8ff" stroke="#63b8ff" points="499.56,-134.75 490.57,-129.13 494.1,-139.13 499.56,-134.75"/>
</a>
</g>
</g>
<!-- Node18 -->
<g id="Node000018" class="node">
<title>Node18</title>
<g id="a_Node000018"><a xlink:title=" ">
<polygon fill="#e0e0e0" stroke="#999999" points="703.15,-250 656.15,-250 656.15,-231 703.15,-231 703.15,-250"/>
<text text-anchor="middle" x="679.65" y="-238" font-family="Helvetica,sans-Serif" font-size="10.00">cmath</text>
</a>
</g>
</g>
<!-- Node1&#45;&gt;Node18 -->
<g id="edge24_Node000001_Node000018" class="edge">
<title>Node1&#45;&gt;Node18</title>
<g id="a_edge24_Node000001_Node000018"><a xlink:title=" ">
<path fill="none" stroke="#63b8ff" d="M640.23,-285.84C647.71,-277.43 657.21,-266.74 665.02,-257.96"/>
<polygon fill="#63b8ff" stroke="#63b8ff" points="667.83,-260.07 671.85,-250.27 662.59,-255.41 667.83,-260.07"/>
</a>
</g>
</g>
<!-- Node3 -->
<g id="Node000003" class="node">
<title>Node3</title>
<g id="a_Node000003"><a xlink:href="Config_8hpp.html" target="_top" xlink:title="Contains compile time settings for the project, such as Eigen plugins.">
<polygon fill="white" stroke="#666666" points="387.65,-129 277.65,-129 277.65,-110 387.65,-110 387.65,-129"/>
<text text-anchor="middle" x="332.65" y="-117" font-family="Helvetica,sans-Serif" font-size="10.00">medusa/Config.hpp</text>
</a>
</g>
</g>
<!-- Node2&#45;&gt;Node3 -->
<g id="edge2_Node000002_Node000003" class="edge">
<title>Node2&#45;&gt;Node3</title>
<g id="a_edge2_Node000002_Node000003"><a xlink:title=" ">
<path fill="none" stroke="#63b8ff" d="M379.15,-230.97C396.59,-224.24 417.23,-212.93 427.65,-195 434.34,-183.47 434.8,-176.25 427.65,-165 417.76,-149.45 400.86,-139.25 384.02,-132.58"/>
<polygon fill="#63b8ff" stroke="#63b8ff" points="384.77,-129.13 374.17,-129.06 382.41,-135.72 384.77,-129.13"/>
</a>
</g>
</g>
<!-- Node5 -->
<g id="Node000005" class="node">
<title>Node5</title>
<g id="a_Node000005"><a xlink:href="Range__fwd_8hpp.html" target="_top" xlink:title="Declaration of Range.">
<polygon fill="white" stroke="#666666" points="262.65,-195 122.65,-195 122.65,-165 262.65,-165 262.65,-195"/>
<text text-anchor="start" x="130.65" y="-183" font-family="Helvetica,sans-Serif" font-size="10.00">medusa/bits/types/Range</text>
<text text-anchor="middle" x="192.65" y="-172" font-family="Helvetica,sans-Serif" font-size="10.00">_fwd.hpp</text>
</a>
</g>
</g>
<!-- Node2&#45;&gt;Node5 -->
<g id="edge4_Node000002_Node000005" class="edge">
<title>Node2&#45;&gt;Node5</title>
<g id="a_edge4_Node000002_Node000005"><a xlink:title=" ">
<path fill="none" stroke="#63b8ff" d="M326.82,-230.99C304.12,-222.54 268.64,-209.32 239.87,-198.59"/>
<polygon fill="#63b8ff" stroke="#63b8ff" points="240.98,-195.28 230.39,-195.06 238.54,-201.84 240.98,-195.28"/>
</a>
</g>
</g>
<!-- Node10 -->
<g id="Node000010" class="node">
<title>Node10</title>
<g id="a_Node000010"><a xlink:title=" ">
<polygon fill="#e0e0e0" stroke="#999999" points="610.65,-19 568.65,-19 568.65,0 610.65,0 610.65,-19"/>
<text text-anchor="middle" x="589.65" y="-7" font-family="Helvetica,sans-Serif" font-size="10.00">array</text>
</a>
</g>
</g>
<!-- Node2&#45;&gt;Node10 -->
<g id="edge19_Node000002_Node000010" class="edge">
<title>Node2&#45;&gt;Node10</title>
<g id="a_edge19_Node000002_Node000010"><a xlink:title=" ">
<path fill="none" stroke="#63b8ff" d="M391.47,-230.94C442.54,-218.14 527.46,-188.82 570.65,-129 592.11,-99.26 593.04,-54.39 591.53,-29.26"/>
<polygon fill="#63b8ff" stroke="#63b8ff" points="595.01,-28.91 590.72,-19.22 588.03,-29.47 595.01,-28.91"/>
</a>
</g>
</g>
<!-- Node15 -->
<g id="Node000015" class="node">
<title>Node15</title>
<g id="a_Node000015"><a xlink:title=" ">
<polygon fill="#e0e0e0" stroke="#999999" points="63.65,-129 15.65,-129 15.65,-110 63.65,-110 63.65,-129"/>
<text text-anchor="middle" x="39.65" y="-117" font-family="Helvetica,sans-Serif" font-size="10.00">iosfwd</text>
</a>
</g>
</g>
<!-- Node2&#45;&gt;Node15 -->
<g id="edge20_Node000002_Node000015" class="edge">
<title>Node2&#45;&gt;Node15</title>
<g id="a_edge20_Node000002_Node000015"><a xlink:title=" ">
<path fill="none" stroke="#63b8ff" d="M282.57,-237.43C233.32,-233.47 166.14,-222.83 113.65,-195 87.31,-181.04 64.43,-154.52 51.33,-137.18"/>
<polygon fill="#63b8ff" stroke="#63b8ff" points="54.13,-135.08 45.41,-129.07 48.48,-139.21 54.13,-135.08"/>
</a>
</g>
</g>
<!-- Node16 -->
<g id="Node000016" class="node">
<title>Node16</title>
<g id="a_Node000016"><a xlink:title=" ">
<polygon fill="#e0e0e0" stroke="#999999" points="418.15,-189.5 281.15,-189.5 281.15,-170.5 418.15,-170.5 418.15,-189.5"/>
<text text-anchor="middle" x="349.65" y="-177.5" font-family="Helvetica,sans-Serif" font-size="10.00">nanoflann/nanoflann.hpp</text>
</a>
</g>
</g>
<!-- Node2&#45;&gt;Node16 -->
<g id="edge18_Node000002_Node000016" class="edge">
<title>Node2&#45;&gt;Node16</title>
<g id="a_edge18_Node000002_Node000016"><a xlink:title=" ">
<path fill="none" stroke="#63b8ff" d="M349.65,-230.87C349.65,-222.75 349.65,-210.31 349.65,-199.89"/>
<polygon fill="#63b8ff" stroke="#63b8ff" points="353.15,-199.67 349.65,-189.67 346.15,-199.67 353.15,-199.67"/>
</a>
</g>
</g>
<!-- Node17 -->
<g id="Node000017" class="node">
<title>Node17</title>
<g id="a_Node000017"><a xlink:href="PointCloud_8hpp.html" target="_top" xlink:title="Implementation of KDTree storage class.">
<polygon fill="white" stroke="#666666" points="127.65,-74 37.65,-74 37.65,-55 127.65,-55 127.65,-74"/>
<text text-anchor="middle" x="82.65" y="-62" font-family="Helvetica,sans-Serif" font-size="10.00">PointCloud.hpp</text>
</a>
</g>
</g>
<!-- Node2&#45;&gt;Node17 -->
<g id="edge21_Node000002_Node000017" class="edge">
<title>Node2&#45;&gt;Node17</title>
<g id="a_edge21_Node000002_Node000017"><a xlink:title=" ">
<path fill="none" stroke="#63b8ff" d="M282.56,-233.71C212.07,-226.76 106.55,-213.67 70.65,-195 28.69,-173.19 -16.87,-151.03 6.65,-110 15.01,-95.42 30.2,-85.16 44.81,-78.19"/>
<polygon fill="#63b8ff" stroke="#63b8ff" points="46.49,-81.28 54.26,-74.08 43.69,-74.86 46.49,-81.28"/>
</a>
</g>
</g>
<!-- Node4 -->
<g id="Node000004" class="node">
<title>Node4</title>
<g id="a_Node000004"><a xlink:title=" ">
<polygon fill="#e0e0e0" stroke="#999999" points="292.15,-19 245.15,-19 245.15,0 292.15,0 292.15,-19"/>
<text text-anchor="middle" x="268.65" y="-7" font-family="Helvetica,sans-Serif" font-size="10.00">vector</text>
</a>
</g>
</g>
<!-- Node3&#45;&gt;Node4 -->
<g id="edge3_Node000003_Node000004" class="edge">
<title>Node3&#45;&gt;Node4</title>
<g id="a_edge3_Node000003_Node000004"><a xlink:title=" ">
<path fill="none" stroke="#63b8ff" d="M327.41,-109.66C316.86,-91.85 292.86,-51.37 279.02,-28.01"/>
<polygon fill="#63b8ff" stroke="#63b8ff" points="281.89,-25.98 273.78,-19.16 275.86,-29.55 281.89,-25.98"/>
</a>
</g>
</g>
<!-- Node5&#45;&gt;Node3 -->
<g id="edge5_Node000005_Node000003" class="edge">
<title>Node5&#45;&gt;Node3</title>
<g id="a_edge5_Node000005_Node000003"><a xlink:title=" ">
<path fill="none" stroke="#63b8ff" d="M226.18,-164.99C249.43,-155.27 280.14,-142.44 302.59,-133.06"/>
<polygon fill="#63b8ff" stroke="#63b8ff" points="304.09,-136.22 311.97,-129.14 301.4,-129.77 304.09,-136.22"/>
</a>
</g>
</g>
<!-- Node5&#45;&gt;Node4 -->
<g id="edge16_Node000005_Node000004" class="edge">
<title>Node5&#45;&gt;Node4</title>
<g id="a_edge16_Node000005_Node000004"><a xlink:title=" ">
<path fill="none" stroke="#63b8ff" d="M205.71,-164.59C213.8,-155.05 223.9,-141.96 230.65,-129 247.96,-95.75 259.26,-53.13 264.75,-29.12"/>
<polygon fill="#63b8ff" stroke="#63b8ff" points="268.19,-29.74 266.92,-19.23 261.36,-28.24 268.19,-29.74"/>
</a>
</g>
</g>
<!-- Node5&#45;&gt;Node6 -->
<g id="edge6_Node000005_Node000006" class="edge">
<title>Node5&#45;&gt;Node6</title>
<g id="a_edge6_Node000005_Node000006"><a xlink:title=" ">
<path fill="none" stroke="#63b8ff" d="M262.35,-164.99C314.2,-154.56 383.87,-140.56 431.08,-131.07"/>
<polygon fill="#63b8ff" stroke="#63b8ff" points="431.98,-134.46 441.1,-129.05 430.6,-127.59 431.98,-134.46"/>
</a>
</g>
</g>
<!-- Node13 -->
<g id="Node000013" class="node">
<title>Node13</title>
<g id="a_Node000013"><a xlink:href="traits_8hpp.html" target="_top" xlink:title="Type traits definition for vector and scalar fields.">
<polygon fill="white" stroke="#666666" points="145.15,-129 82.15,-129 82.15,-110 145.15,-110 145.15,-129"/>
<text text-anchor="middle" x="113.65" y="-117" font-family="Helvetica,sans-Serif" font-size="10.00">traits.hpp</text>
</a>
</g>
</g>
<!-- Node5&#45;&gt;Node13 -->
<g id="edge14_Node000005_Node000013" class="edge">
<title>Node5&#45;&gt;Node13</title>
<g id="a_edge14_Node000005_Node000013"><a xlink:title=" ">
<path fill="none" stroke="#63b8ff" d="M173.52,-164.84C161.47,-155.91 145.93,-144.41 133.71,-135.35"/>
<polygon fill="#63b8ff" stroke="#63b8ff" points="135.6,-132.4 125.48,-129.27 131.44,-138.03 135.6,-132.4"/>
</a>
</g>
</g>
<!-- Node14 -->
<g id="Node000014" class="node">
<title>Node14</title>
<g id="a_Node000014"><a xlink:title=" ">
<polygon fill="#e0e0e0" stroke="#999999" points="221.65,-129 163.65,-129 163.65,-110 221.65,-110 221.65,-129"/>
<text text-anchor="middle" x="192.65" y="-117" font-family="Helvetica,sans-Serif" font-size="10.00">memory</text>
</a>
</g>
</g>
<!-- Node5&#45;&gt;Node14 -->
<g id="edge15_Node000005_Node000014" class="edge">
<title>Node5&#45;&gt;Node14</title>
<g id="a_edge15_Node000005_Node000014"><a xlink:title=" ">
<path fill="none" stroke="#63b8ff" d="M192.65,-164.84C192.65,-157.21 192.65,-147.7 192.65,-139.45"/>
<polygon fill="#63b8ff" stroke="#63b8ff" points="196.15,-139.27 192.65,-129.27 189.15,-139.27 196.15,-139.27"/>
</a>
</g>
</g>
<!-- Node5&#45;&gt;Node15 -->
<g id="edge17_Node000005_Node000015" class="edge">
<title>Node5&#45;&gt;Node15</title>
<g id="a_edge17_Node000005_Node000015"><a xlink:title=" ">
<path fill="none" stroke="#63b8ff" d="M156,-164.99C130.36,-155.18 96.43,-142.21 71.83,-132.81"/>
<polygon fill="#63b8ff" stroke="#63b8ff" points="72.83,-129.44 62.24,-129.14 70.33,-135.98 72.83,-129.44"/>
</a>
</g>
</g>
<!-- Node7 -->
<g id="Node000007" class="node">
<title>Node7</title>
<g id="a_Node000007"><a xlink:title=" ">
<polygon fill="#e0e0e0" stroke="#999999" points="447.65,-74 315.65,-74 315.65,-55 447.65,-55 447.65,-74"/>
<text text-anchor="middle" x="381.65" y="-62" font-family="Helvetica,sans-Serif" font-size="10.00">tinyformat/tinyformat.h</text>
</a>
</g>
</g>
<!-- Node6&#45;&gt;Node7 -->
<g id="edge7_Node000006_Node000007" class="edge">
<title>Node6&#45;&gt;Node7</title>
<g id="a_edge7_Node000006_Node000007"><a xlink:title=" ">
<path fill="none" stroke="#63b8ff" d="M467.26,-109.98C451.07,-101.57 426.08,-88.59 407.27,-78.81"/>
<polygon fill="#63b8ff" stroke="#63b8ff" points="408.82,-75.68 398.33,-74.17 405.59,-81.89 408.82,-75.68"/>
</a>
</g>
</g>
<!-- Node8 -->
<g id="Node000008" class="node">
<title>Node8</title>
<g id="a_Node000008"><a xlink:href="print_8hpp.html" target="_top" xlink:title="Printing helpers for std types.">
<polygon fill="white" stroke="#666666" points="525.65,-74 465.65,-74 465.65,-55 525.65,-55 525.65,-74"/>
<text text-anchor="middle" x="495.65" y="-62" font-family="Helvetica,sans-Serif" font-size="10.00">print.hpp</text>
</a>
</g>
</g>
<!-- Node6&#45;&gt;Node8 -->
<g id="edge8_Node000006_Node000008" class="edge">
<title>Node6&#45;&gt;Node8</title>
<g id="a_edge8_Node000006_Node000008"><a xlink:title=" ">
<path fill="none" stroke="#63b8ff" d="M485.63,-109.75C487.22,-102.72 489.51,-92.62 491.49,-83.84"/>
<polygon fill="#63b8ff" stroke="#63b8ff" points="494.91,-84.62 493.7,-74.09 488.08,-83.07 494.91,-84.62"/>
</a>
</g>
</g>
<!-- Node8&#45;&gt;Node4 -->
<g id="edge10_Node000008_Node000004" class="edge">
<title>Node8&#45;&gt;Node4</title>
<g id="a_edge10_Node000008_Node000004"><a xlink:title=" ">
<path fill="none" stroke="#63b8ff" d="M465.5,-56.46C423.19,-46.58 346.42,-28.66 302.29,-18.36"/>
<polygon fill="#63b8ff" stroke="#63b8ff" points="302.88,-14.9 292.34,-16.03 301.29,-21.71 302.88,-14.9"/>
</a>
</g>
</g>
<!-- Node9 -->
<g id="Node000009" class="node">
<title>Node9</title>
<g id="a_Node000009"><a xlink:title=" ">
<polygon fill="#e0e0e0" stroke="#999999" points="486.65,-19 426.65,-19 426.65,0 486.65,0 486.65,-19"/>
<text text-anchor="middle" x="456.65" y="-7" font-family="Helvetica,sans-Serif" font-size="10.00">iostream</text>
</a>
</g>
</g>
<!-- Node8&#45;&gt;Node9 -->
<g id="edge9_Node000008_Node000009" class="edge">
<title>Node8&#45;&gt;Node9</title>
<g id="a_edge9_Node000008_Node000009"><a xlink:title=" ">
<path fill="none" stroke="#63b8ff" d="M489.21,-54.75C483.75,-47.34 475.78,-36.5 469.09,-27.41"/>
<polygon fill="#63b8ff" stroke="#63b8ff" points="471.71,-25.07 462.97,-19.09 466.07,-29.22 471.71,-25.07"/>
</a>
</g>
</g>
<!-- Node8&#45;&gt;Node10 -->
<g id="edge11_Node000008_Node000010" class="edge">
<title>Node8&#45;&gt;Node10</title>
<g id="a_edge11_Node000008_Node000010"><a xlink:title=" ">
<path fill="none" stroke="#63b8ff" d="M510.75,-54.98C525.46,-46.69 548.07,-33.94 565.32,-24.22"/>
<polygon fill="#63b8ff" stroke="#63b8ff" points="567.28,-27.13 574.27,-19.17 563.84,-21.03 567.28,-27.13"/>
</a>
</g>
</g>
<!-- Node11 -->
<g id="Node000011" class="node">
<title>Node11</title>
<g id="a_Node000011"><a xlink:title=" ">
<polygon fill="#e0e0e0" stroke="#999999" points="550.15,-19 505.15,-19 505.15,0 550.15,0 550.15,-19"/>
<text text-anchor="middle" x="527.65" y="-7" font-family="Helvetica,sans-Serif" font-size="10.00">utility</text>
</a>
</g>
</g>
<!-- Node8&#45;&gt;Node11 -->
<g id="edge12_Node000008_Node000011" class="edge">
<title>Node8&#45;&gt;Node11</title>
<g id="a_edge12_Node000008_Node000011"><a xlink:title=" ">
<path fill="none" stroke="#63b8ff" d="M500.93,-54.75C505.36,-47.42 511.81,-36.73 517.26,-27.7"/>
<polygon fill="#63b8ff" stroke="#63b8ff" points="520.29,-29.46 522.46,-19.09 514.3,-25.84 520.29,-29.46"/>
</a>
</g>
</g>
<!-- Node12 -->
<g id="Node000012" class="node">
<title>Node12</title>
<g id="a_Node000012"><a xlink:title=" ">
<polygon fill="#e0e0e0" stroke="#999999" points="408.15,-19 367.15,-19 367.15,0 408.15,0 408.15,-19"/>
<text text-anchor="middle" x="387.65" y="-7" font-family="Helvetica,sans-Serif" font-size="10.00">tuple</text>
</a>
</g>
</g>
<!-- Node8&#45;&gt;Node12 -->
<g id="edge13_Node000008_Node000012" class="edge">
<title>Node8&#45;&gt;Node12</title>
<g id="a_edge13_Node000008_Node000012"><a xlink:title=" ">
<path fill="none" stroke="#63b8ff" d="M478.29,-54.98C461.08,-46.54 434.45,-33.47 414.5,-23.68"/>
<polygon fill="#63b8ff" stroke="#63b8ff" points="415.83,-20.43 405.31,-19.17 412.75,-26.72 415.83,-20.43"/>
</a>
</g>
</g>
<!-- Node17&#45;&gt;Node4 -->
<g id="edge22_Node000017_Node000004" class="edge">
<title>Node17&#45;&gt;Node4</title>
<g id="a_edge22_Node000017_Node000004"><a xlink:title=" ">
<path fill="none" stroke="#63b8ff" d="M112.53,-54.98C146.08,-45.42 200.39,-29.95 235.3,-20"/>
<polygon fill="#63b8ff" stroke="#63b8ff" points="236.37,-23.34 245.03,-17.23 234.46,-16.6 236.37,-23.34"/>
</a>
</g>
</g>
</g>
</svg>

<g id="navigator" transform="translate(0 0)" fill="#404254">
  <rect fill="#f2f5e9" fill-opacity="0.5" stroke="#606060" stroke-width=".5" x="0" y="0" width="60" height="60"/>
  <use id="zoomplus" xlink:href="#zoomPlus" x="17" y="9" onmousedown="handleZoom(evt,'in')"/>
  <use id="zoomminus" xlink:href="#zoomMin" x="42" y="9" onmousedown="handleZoom(evt,'out')"/>
  <use id="reset" xlink:href="#resetDef" x="30" y="36" onmousedown="handleReset()"/>
   <use id="arrowup" xlink:href="#arrowUp" x="0" y="0" onmousedown="handlePan(0,-1)"/>
  <use id="arrowright" xlink:href="#arrowRight" x="0" y="0" onmousedown="handlePan(1,0)"/>
  <use id="arrowdown" xlink:href="#arrowDown" x="0" y="0" onmousedown="handlePan(0,1)"/>
  <use id="arrowleft" xlink:href="#arrowLeft" x="0" y="0" onmousedown="handlePan(-1,0)"/>
</g>
<svg viewBox="0 0 15 15" width="100%" height="30px" preserveAspectRatio="xMaxYMin meet">
 <g id="arrow_out" transform="scale(0.3 0.3)">
  <a xlink:href="KDTreeMutable_8hpp__incl_org.svg" target="_base">
   <rect id="button" ry="5" rx="5" y="6" x="6" height="38" width="38"
        fill="#f2f5e9" fill-opacity="0.5" stroke="#606060" stroke-width="1.0"/>
   <path id="arrow"
     d="M 11.500037,31.436501 C 11.940474,20.09759 22.043105,11.32322 32.158766,21.979434 L 37.068811,17.246167 C 37.068811,17.246167 37.088388,32 37.088388,32 L 22.160133,31.978069 C 22.160133,31.978069 26.997745,27.140456 26.997745,27.140456 C 18.528582,18.264221 13.291696,25.230495 11.500037,31.436501 z"
     style="fill:#404040;"/>
  </a>
 </g>
</svg>

<style type='text/css'>
<![CDATA[
[data-mouse-over-selected='false'] { opacity: 0.7; }
[data-mouse-over-selected='true']  { opacity: 1.0; }
]]>
</style>
<script type="application/ecmascript"><![CDATA[
document.addEventListener('DOMContentLoaded', (event) => {
  highlightEdges();
  highlightAdjacentNodes();
});
]]></script>
</svg>
