<?xml version="1.0" encoding="UTF-8" standalone="no"?>
<!DOCTYPE svg PUBLIC "-//W3C//DTD SVG 1.1//EN"
 "http://www.w3.org/Graphics/SVG/1.1/DTD/svg11.dtd">
<!-- Generated by graphviz version 2.43.0 (0)
 -->
<!-- Title: src/spatial_search/KDTree.cpp Pages: 1 -->
<svg width="817pt" height="390pt"
 viewBox="0.00 0.00 817.35 390.00" xmlns="http://www.w3.org/2000/svg" xmlns:xlink="http://www.w3.org/1999/xlink">
<g id="graph0" class="graph" transform="scale(1 1) rotate(0) translate(4 386)">
<title>src/spatial_search/KDTree.cpp</title>
<!-- Node1 -->
<g id="Node000001" class="node">
<title>Node1</title>
<g id="a_Node000001"><a xlink:title="Instantiations of KDTree.">
<polygon fill="#999999" stroke="#666666" points="225.35,-382 121.35,-382 121.35,-352 225.35,-352 225.35,-382"/>
<text text-anchor="start" x="129.35" y="-370" font-family="Helvetica,sans-Serif" font-size="10.00">src/spatial_search</text>
<text text-anchor="middle" x="173.35" y="-359" font-family="Helvetica,sans-Serif" font-size="10.00">/KDTree.cpp</text>
</a>
</g>
</g>
<!-- Node2 -->
<g id="Node000002" class="node">
<title>Node2</title>
<g id="a_Node000002"><a xlink:href="KDTree_8hpp.html" target="_top" xlink:title="Implementation of KDTree.">
<polygon fill="white" stroke="#666666" points="404.85,-316 291.85,-316 291.85,-286 404.85,-286 404.85,-316"/>
<text text-anchor="start" x="299.85" y="-304" font-family="Helvetica,sans-Serif" font-size="10.00">medusa/bits/spatial</text>
<text text-anchor="middle" x="348.35" y="-293" font-family="Helvetica,sans-Serif" font-size="10.00">_search/KDTree.hpp</text>
</a>
</g>
</g>
<!-- Node1&#45;&gt;Node2 -->
<g id="edge1_Node000001_Node000002" class="edge">
<title>Node1&#45;&gt;Node2</title>
<g id="a_edge1_Node000001_Node000002"><a xlink:title=" ">
<path fill="none" stroke="#63b8ff" d="M211.76,-351.95C237.86,-342.41 272.58,-329.71 300.48,-319.51"/>
<polygon fill="#63b8ff" stroke="#63b8ff" points="301.85,-322.73 310.04,-316.01 299.44,-316.16 301.85,-322.73"/>
</a>
</g>
</g>
<!-- Node20 -->
<g id="Node000020" class="node">
<title>Node20</title>
<g id="a_Node000020"><a xlink:href="Vec_8hpp.html" target="_top" xlink:title="Implemetations for Vec.">
<polygon fill="white" stroke="#666666" points="173.35,-310.5 25.35,-310.5 25.35,-291.5 173.35,-291.5 173.35,-310.5"/>
<text text-anchor="middle" x="99.35" y="-298.5" font-family="Helvetica,sans-Serif" font-size="10.00">medusa/bits/types/Vec.hpp</text>
</a>
</g>
</g>
<!-- Node1&#45;&gt;Node20 -->
<g id="edge29_Node000001_Node000020" class="edge">
<title>Node1&#45;&gt;Node20</title>
<g id="a_edge29_Node000001_Node000020"><a xlink:title=" ">
<path fill="none" stroke="#63b8ff" d="M156.93,-351.8C145.17,-341.62 129.34,-327.93 117.25,-317.48"/>
<polygon fill="#63b8ff" stroke="#63b8ff" points="119.43,-314.74 109.58,-310.84 114.85,-320.03 119.43,-314.74"/>
</a>
</g>
</g>
<!-- Node3 -->
<g id="Node000003" class="node">
<title>Node3</title>
<g id="a_Node000003"><a xlink:href="KDTree__fwd_8hpp.html" target="_top" xlink:title="Declaration of KDTree.">
<polygon fill="white" stroke="#666666" points="445.85,-250 350.85,-250 350.85,-231 445.85,-231 445.85,-250"/>
<text text-anchor="middle" x="398.35" y="-238" font-family="Helvetica,sans-Serif" font-size="10.00">KDTree_fwd.hpp</text>
</a>
</g>
</g>
<!-- Node2&#45;&gt;Node3 -->
<g id="edge2_Node000002_Node000003" class="edge">
<title>Node2&#45;&gt;Node3</title>
<g id="a_edge2_Node000002_Node000003"><a xlink:title=" ">
<path fill="none" stroke="#63b8ff" d="M360.46,-285.84C367.64,-277.43 376.78,-266.74 384.28,-257.96"/>
<polygon fill="#63b8ff" stroke="#63b8ff" points="387.02,-260.14 390.86,-250.27 381.7,-255.59 387.02,-260.14"/>
</a>
</g>
</g>
<!-- Node8 -->
<g id="Node000008" class="node">
<title>Node8</title>
<g id="a_Node000008"><a xlink:href="assert_8hpp.html" target="_top" xlink:title="Implementation of custom assert and debug utilities.">
<polygon fill="white" stroke="#666666" points="633.85,-129 478.85,-129 478.85,-110 633.85,-110 633.85,-129"/>
<text text-anchor="middle" x="556.35" y="-117" font-family="Helvetica,sans-Serif" font-size="10.00">medusa/bits/utils/assert.hpp</text>
</a>
</g>
</g>
<!-- Node2&#45;&gt;Node8 -->
<g id="edge27_Node000002_Node000008" class="edge">
<title>Node2&#45;&gt;Node8</title>
<g id="a_edge27_Node000002_Node000008"><a xlink:title=" ">
<path fill="none" stroke="#63b8ff" d="M404.88,-297.49C472.36,-291.1 582.58,-269.16 634.35,-195 641.99,-184.07 641.05,-176.53 634.35,-165 625.81,-150.29 610.38,-140.04 595.49,-133.11"/>
<polygon fill="#63b8ff" stroke="#63b8ff" points="596.43,-129.71 585.86,-129.03 593.7,-136.15 596.43,-129.71"/>
</a>
</g>
</g>
<!-- Node18 -->
<g id="Node000018" class="node">
<title>Node18</title>
<g id="a_Node000018"><a xlink:href="memutils_8hpp.html" target="_top" xlink:title="Declaration of memory related utilities.">
<polygon fill="white" stroke="#666666" points="311.85,-189.5 140.85,-189.5 140.85,-170.5 311.85,-170.5 311.85,-189.5"/>
<text text-anchor="middle" x="226.35" y="-177.5" font-family="Helvetica,sans-Serif" font-size="10.00">medusa/bits/utils/memutils.hpp</text>
</a>
</g>
</g>
<!-- Node2&#45;&gt;Node18 -->
<g id="edge28_Node000002_Node000018" class="edge">
<title>Node2&#45;&gt;Node18</title>
<g id="a_edge28_Node000002_Node000018"><a xlink:title=" ">
<path fill="none" stroke="#63b8ff" d="M333.88,-285.88C310.97,-263.54 266.5,-220.16 242.56,-196.81"/>
<polygon fill="#63b8ff" stroke="#63b8ff" points="244.89,-194.19 235.28,-189.71 240,-199.2 244.89,-194.19"/>
</a>
</g>
</g>
<!-- Node4 -->
<g id="Node000004" class="node">
<title>Node4</title>
<g id="a_Node000004"><a xlink:href="Config_8hpp.html" target="_top" xlink:title="Contains compile time settings for the project, such as Eigen plugins.">
<polygon fill="white" stroke="#666666" points="265.35,-129 155.35,-129 155.35,-110 265.35,-110 265.35,-129"/>
<text text-anchor="middle" x="210.35" y="-117" font-family="Helvetica,sans-Serif" font-size="10.00">medusa/Config.hpp</text>
</a>
</g>
</g>
<!-- Node3&#45;&gt;Node4 -->
<g id="edge3_Node000003_Node000004" class="edge">
<title>Node3&#45;&gt;Node4</title>
<g id="a_edge3_Node000003_Node000004"><a xlink:title=" ">
<path fill="none" stroke="#63b8ff" d="M350.68,-238.65C281.61,-236.31 158.92,-227.54 131.35,-195 122.73,-184.83 124.63,-176.51 131.35,-165 140.04,-150.14 155.71,-139.86 170.82,-132.95"/>
<polygon fill="#63b8ff" stroke="#63b8ff" points="172.21,-136.17 180.08,-129.08 169.51,-129.71 172.21,-136.17"/>
</a>
</g>
</g>
<!-- Node6 -->
<g id="Node000006" class="node">
<title>Node6</title>
<g id="a_Node000006"><a xlink:title=" ">
<polygon fill="#e0e0e0" stroke="#999999" points="466.85,-189.5 329.85,-189.5 329.85,-170.5 466.85,-170.5 466.85,-189.5"/>
<text text-anchor="middle" x="398.35" y="-177.5" font-family="Helvetica,sans-Serif" font-size="10.00">nanoflann/nanoflann.hpp</text>
</a>
</g>
</g>
<!-- Node3&#45;&gt;Node6 -->
<g id="edge5_Node000003_Node000006" class="edge">
<title>Node3&#45;&gt;Node6</title>
<g id="a_edge5_Node000003_Node000006"><a xlink:title=" ">
<path fill="none" stroke="#63b8ff" d="M398.35,-230.87C398.35,-222.75 398.35,-210.31 398.35,-199.89"/>
<polygon fill="#63b8ff" stroke="#63b8ff" points="401.85,-199.67 398.35,-189.67 394.85,-199.67 401.85,-199.67"/>
</a>
</g>
</g>
<!-- Node7 -->
<g id="Node000007" class="node">
<title>Node7</title>
<g id="a_Node000007"><a xlink:href="Range__fwd_8hpp.html" target="_top" xlink:title="Declaration of Range.">
<polygon fill="white" stroke="#666666" points="625.35,-195 485.35,-195 485.35,-165 625.35,-165 625.35,-195"/>
<text text-anchor="start" x="493.35" y="-183" font-family="Helvetica,sans-Serif" font-size="10.00">medusa/bits/types/Range</text>
<text text-anchor="middle" x="555.35" y="-172" font-family="Helvetica,sans-Serif" font-size="10.00">_fwd.hpp</text>
</a>
</g>
</g>
<!-- Node3&#45;&gt;Node7 -->
<g id="edge6_Node000003_Node000007" class="edge">
<title>Node3&#45;&gt;Node7</title>
<g id="a_edge6_Node000003_Node000007"><a xlink:title=" ">
<path fill="none" stroke="#63b8ff" d="M421.18,-230.99C443.88,-222.54 479.36,-209.32 508.13,-198.59"/>
<polygon fill="#63b8ff" stroke="#63b8ff" points="509.46,-201.84 517.61,-195.06 507.02,-195.28 509.46,-201.84"/>
</a>
</g>
</g>
<!-- Node17 -->
<g id="Node000017" class="node">
<title>Node17</title>
<g id="a_Node000017"><a xlink:title=" ">
<polygon fill="#e0e0e0" stroke="#999999" points="700.35,-129 652.35,-129 652.35,-110 700.35,-110 700.35,-129"/>
<text text-anchor="middle" x="676.35" y="-117" font-family="Helvetica,sans-Serif" font-size="10.00">iosfwd</text>
</a>
</g>
</g>
<!-- Node3&#45;&gt;Node17 -->
<g id="edge20_Node000003_Node000017" class="edge">
<title>Node3&#45;&gt;Node17</title>
<g id="a_edge20_Node000003_Node000017"><a xlink:title=" ">
<path fill="none" stroke="#63b8ff" d="M445.89,-235.29C505.87,-229.17 604.79,-216.19 634.35,-195 653.54,-181.25 665.1,-155.84 671.1,-138.56"/>
<polygon fill="#63b8ff" stroke="#63b8ff" points="674.43,-139.62 674.14,-129.03 667.76,-137.49 674.43,-139.62"/>
</a>
</g>
</g>
<!-- Node3&#45;&gt;Node18 -->
<g id="edge21_Node000003_Node000018" class="edge">
<title>Node3&#45;&gt;Node18</title>
<g id="a_edge21_Node000003_Node000018"><a xlink:title=" ">
<path fill="none" stroke="#63b8ff" d="M373.34,-230.99C343.79,-220.94 294.44,-204.16 261.16,-192.84"/>
<polygon fill="#63b8ff" stroke="#63b8ff" points="261.99,-189.42 251.39,-189.52 259.73,-196.05 261.99,-189.42"/>
</a>
</g>
</g>
<!-- Node19 -->
<g id="Node000019" class="node">
<title>Node19</title>
<g id="a_Node000019"><a xlink:href="PointCloud_8hpp.html" target="_top" xlink:title="Implementation of KDTree storage class.">
<polygon fill="white" stroke="#666666" points="637.35,-74 547.35,-74 547.35,-55 637.35,-55 637.35,-74"/>
<text text-anchor="middle" x="592.35" y="-62" font-family="Helvetica,sans-Serif" font-size="10.00">PointCloud.hpp</text>
</a>
</g>
</g>
<!-- Node3&#45;&gt;Node19 -->
<g id="edge25_Node000003_Node000019" class="edge">
<title>Node3&#45;&gt;Node19</title>
<g id="a_edge25_Node000003_Node000019"><a xlink:title=" ">
<path fill="none" stroke="#63b8ff" d="M445.92,-235.68C511.4,-229.71 625.2,-216.56 660.35,-195 697.52,-172.2 734.11,-145.9 709.35,-110 700.65,-97.38 666.02,-85.16 636.67,-76.73"/>
<polygon fill="#63b8ff" stroke="#63b8ff" points="637.54,-73.33 626.97,-74.02 635.66,-80.08 637.54,-73.33"/>
</a>
</g>
</g>
<!-- Node5 -->
<g id="Node000005" class="node">
<title>Node5</title>
<g id="a_Node000005"><a xlink:title=" ">
<polygon fill="#e0e0e0" stroke="#999999" points="487.85,-19 440.85,-19 440.85,0 487.85,0 487.85,-19"/>
<text text-anchor="middle" x="464.35" y="-7" font-family="Helvetica,sans-Serif" font-size="10.00">vector</text>
</a>
</g>
</g>
<!-- Node4&#45;&gt;Node5 -->
<g id="edge4_Node000004_Node000005" class="edge">
<title>Node4&#45;&gt;Node5</title>
<g id="a_edge4_Node000004_Node000005"><a xlink:title=" ">
<path fill="none" stroke="#63b8ff" d="M229.52,-109.92C257.21,-97.57 310.05,-74.16 355.35,-55 381.64,-43.88 411.67,-31.66 433.55,-22.84"/>
<polygon fill="#63b8ff" stroke="#63b8ff" points="435.01,-26.02 442.98,-19.04 432.4,-19.53 435.01,-26.02"/>
</a>
</g>
</g>
<!-- Node7&#45;&gt;Node4 -->
<g id="edge7_Node000007_Node000004" class="edge">
<title>Node7&#45;&gt;Node4</title>
<g id="a_edge7_Node000007_Node000004"><a xlink:title=" ">
<path fill="none" stroke="#63b8ff" d="M485.12,-166.68C481.82,-166.11 478.55,-165.55 475.35,-165 405.59,-153.04 325.44,-139.62 271.72,-130.68"/>
<polygon fill="#63b8ff" stroke="#63b8ff" points="272.11,-127.2 261.67,-129.01 270.96,-134.1 272.11,-127.2"/>
</a>
</g>
</g>
<!-- Node7&#45;&gt;Node5 -->
<g id="edge18_Node000007_Node000005" class="edge">
<title>Node7&#45;&gt;Node5</title>
<g id="a_edge18_Node000007_Node000005"><a xlink:title=" ">
<path fill="none" stroke="#63b8ff" d="M485.07,-166.64C444.98,-158.01 400.37,-145.14 388.35,-129 368.71,-102.62 372,-83.53 388.35,-55 397.61,-38.85 415.25,-28 431.2,-21.06"/>
<polygon fill="#63b8ff" stroke="#63b8ff" points="432.83,-24.18 440.83,-17.23 430.25,-17.67 432.83,-24.18"/>
</a>
</g>
</g>
<!-- Node7&#45;&gt;Node8 -->
<g id="edge8_Node000007_Node000008" class="edge">
<title>Node7&#45;&gt;Node8</title>
<g id="a_edge8_Node000007_Node000008"><a xlink:title=" ">
<path fill="none" stroke="#63b8ff" d="M555.6,-164.84C555.73,-157.21 555.89,-147.7 556.03,-139.45"/>
<polygon fill="#63b8ff" stroke="#63b8ff" points="559.53,-139.32 556.2,-129.27 552.53,-139.2 559.53,-139.32"/>
</a>
</g>
</g>
<!-- Node15 -->
<g id="Node000015" class="node">
<title>Node15</title>
<g id="a_Node000015"><a xlink:href="traits_8hpp.html" target="_top" xlink:title="Type traits definition for vector and scalar fields.">
<polygon fill="white" stroke="#666666" points="460.85,-129 397.85,-129 397.85,-110 460.85,-110 460.85,-129"/>
<text text-anchor="middle" x="429.35" y="-117" font-family="Helvetica,sans-Serif" font-size="10.00">traits.hpp</text>
</a>
</g>
</g>
<!-- Node7&#45;&gt;Node15 -->
<g id="edge16_Node000007_Node000015" class="edge">
<title>Node7&#45;&gt;Node15</title>
<g id="a_edge16_Node000007_Node000015"><a xlink:title=" ">
<path fill="none" stroke="#63b8ff" d="M525.17,-164.99C504.53,-155.4 477.35,-142.79 457.22,-133.44"/>
<polygon fill="#63b8ff" stroke="#63b8ff" points="458.5,-130.18 447.96,-129.14 455.56,-136.52 458.5,-130.18"/>
</a>
</g>
</g>
<!-- Node16 -->
<g id="Node000016" class="node">
<title>Node16</title>
<g id="a_Node000016"><a xlink:title=" ">
<polygon fill="#e0e0e0" stroke="#999999" points="341.35,-129 283.35,-129 283.35,-110 341.35,-110 341.35,-129"/>
<text text-anchor="middle" x="312.35" y="-117" font-family="Helvetica,sans-Serif" font-size="10.00">memory</text>
</a>
</g>
</g>
<!-- Node7&#45;&gt;Node16 -->
<g id="edge17_Node000007_Node000016" class="edge">
<title>Node7&#45;&gt;Node16</title>
<g id="a_edge17_Node000007_Node000016"><a xlink:title=" ">
<path fill="none" stroke="#63b8ff" d="M497.15,-164.99C451.94,-154.1 390.51,-139.32 351.14,-129.84"/>
<polygon fill="#63b8ff" stroke="#63b8ff" points="351.93,-126.43 341.39,-127.49 350.29,-133.23 351.93,-126.43"/>
</a>
</g>
</g>
<!-- Node7&#45;&gt;Node17 -->
<g id="edge19_Node000007_Node000017" class="edge">
<title>Node7&#45;&gt;Node17</title>
<g id="a_edge19_Node000007_Node000017"><a xlink:title=" ">
<path fill="none" stroke="#63b8ff" d="M584.34,-164.99C604.07,-155.45 630.02,-142.9 649.33,-133.57"/>
<polygon fill="#63b8ff" stroke="#63b8ff" points="651,-136.64 658.48,-129.14 647.96,-130.34 651,-136.64"/>
</a>
</g>
</g>
<!-- Node9 -->
<g id="Node000009" class="node">
<title>Node9</title>
<g id="a_Node000009"><a xlink:title=" ">
<polygon fill="#e0e0e0" stroke="#999999" points="529.35,-74 397.35,-74 397.35,-55 529.35,-55 529.35,-74"/>
<text text-anchor="middle" x="463.35" y="-62" font-family="Helvetica,sans-Serif" font-size="10.00">tinyformat/tinyformat.h</text>
</a>
</g>
</g>
<!-- Node8&#45;&gt;Node9 -->
<g id="edge9_Node000008_Node000009" class="edge">
<title>Node8&#45;&gt;Node9</title>
<g id="a_edge9_Node000008_Node000009"><a xlink:title=" ">
<path fill="none" stroke="#63b8ff" d="M541.41,-109.98C526.85,-101.69 504.49,-88.94 487.42,-79.22"/>
<polygon fill="#63b8ff" stroke="#63b8ff" points="488.99,-76.08 478.57,-74.17 485.52,-82.16 488.99,-76.08"/>
</a>
</g>
</g>
<!-- Node10 -->
<g id="Node000010" class="node">
<title>Node10</title>
<g id="a_Node000010"><a xlink:href="print_8hpp.html" target="_top" xlink:title="Printing helpers for std types.">
<polygon fill="white" stroke="#666666" points="715.35,-74 655.35,-74 655.35,-55 715.35,-55 715.35,-74"/>
<text text-anchor="middle" x="685.35" y="-62" font-family="Helvetica,sans-Serif" font-size="10.00">print.hpp</text>
</a>
</g>
</g>
<!-- Node8&#45;&gt;Node10 -->
<g id="edge10_Node000008_Node000010" class="edge">
<title>Node8&#45;&gt;Node10</title>
<g id="a_edge10_Node000008_Node000010"><a xlink:title=" ">
<path fill="none" stroke="#63b8ff" d="M577.08,-109.98C598.11,-101.34 630.9,-87.87 654.89,-78.02"/>
<polygon fill="#63b8ff" stroke="#63b8ff" points="656.33,-81.21 664.25,-74.17 653.67,-74.73 656.33,-81.21"/>
</a>
</g>
</g>
<!-- Node10&#45;&gt;Node5 -->
<g id="edge12_Node000010_Node000005" class="edge">
<title>Node10&#45;&gt;Node5</title>
<g id="a_edge12_Node000010_Node000005"><a xlink:title=" ">
<path fill="none" stroke="#63b8ff" d="M655.09,-56.24C614.02,-46.39 540.89,-28.85 498.1,-18.59"/>
<polygon fill="#63b8ff" stroke="#63b8ff" points="498.71,-15.14 488.17,-16.21 497.08,-21.95 498.71,-15.14"/>
</a>
</g>
</g>
<!-- Node11 -->
<g id="Node000011" class="node">
<title>Node11</title>
<g id="a_Node000011"><a xlink:title=" ">
<polygon fill="#e0e0e0" stroke="#999999" points="749.35,-19 689.35,-19 689.35,0 749.35,0 749.35,-19"/>
<text text-anchor="middle" x="719.35" y="-7" font-family="Helvetica,sans-Serif" font-size="10.00">iostream</text>
</a>
</g>
</g>
<!-- Node10&#45;&gt;Node11 -->
<g id="edge11_Node000010_Node000011" class="edge">
<title>Node10&#45;&gt;Node11</title>
<g id="a_edge11_Node000010_Node000011"><a xlink:title=" ">
<path fill="none" stroke="#63b8ff" d="M690.97,-54.75C695.67,-47.42 702.53,-36.73 708.32,-27.7"/>
<polygon fill="#63b8ff" stroke="#63b8ff" points="711.39,-29.4 713.84,-19.09 705.5,-25.62 711.39,-29.4"/>
</a>
</g>
</g>
<!-- Node12 -->
<g id="Node000012" class="node">
<title>Node12</title>
<g id="a_Node000012"><a xlink:title=" ">
<polygon fill="#e0e0e0" stroke="#999999" points="809.35,-19 767.35,-19 767.35,0 809.35,0 809.35,-19"/>
<text text-anchor="middle" x="788.35" y="-7" font-family="Helvetica,sans-Serif" font-size="10.00">array</text>
</a>
</g>
</g>
<!-- Node10&#45;&gt;Node12 -->
<g id="edge13_Node000010_Node000012" class="edge">
<title>Node10&#45;&gt;Node12</title>
<g id="a_edge13_Node000010_Node000012"><a xlink:title=" ">
<path fill="none" stroke="#63b8ff" d="M701.9,-54.98C718.25,-46.57 743.49,-33.59 762.48,-23.81"/>
<polygon fill="#63b8ff" stroke="#63b8ff" points="764.21,-26.86 771.5,-19.17 761.01,-20.63 764.21,-26.86"/>
</a>
</g>
</g>
<!-- Node13 -->
<g id="Node000013" class="node">
<title>Node13</title>
<g id="a_Node000013"><a xlink:title=" ">
<polygon fill="#e0e0e0" stroke="#999999" points="611.85,-19 566.85,-19 566.85,0 611.85,0 611.85,-19"/>
<text text-anchor="middle" x="589.35" y="-7" font-family="Helvetica,sans-Serif" font-size="10.00">utility</text>
</a>
</g>
</g>
<!-- Node10&#45;&gt;Node13 -->
<g id="edge14_Node000010_Node000013" class="edge">
<title>Node10&#45;&gt;Node13</title>
<g id="a_edge14_Node000010_Node000013"><a xlink:title=" ">
<path fill="none" stroke="#63b8ff" d="M669.93,-54.98C654.9,-46.69 631.81,-33.94 614.2,-24.22"/>
<polygon fill="#63b8ff" stroke="#63b8ff" points="615.5,-20.94 605.06,-19.17 612.12,-27.07 615.5,-20.94"/>
</a>
</g>
</g>
<!-- Node14 -->
<g id="Node000014" class="node">
<title>Node14</title>
<g id="a_Node000014"><a xlink:title=" ">
<polygon fill="#e0e0e0" stroke="#999999" points="670.85,-19 629.85,-19 629.85,0 670.85,0 670.85,-19"/>
<text text-anchor="middle" x="650.35" y="-7" font-family="Helvetica,sans-Serif" font-size="10.00">tuple</text>
</a>
</g>
</g>
<!-- Node10&#45;&gt;Node14 -->
<g id="edge15_Node000010_Node000014" class="edge">
<title>Node10&#45;&gt;Node14</title>
<g id="a_edge15_Node000010_Node000014"><a xlink:title=" ">
<path fill="none" stroke="#63b8ff" d="M679.57,-54.75C674.73,-47.42 667.67,-36.73 661.71,-27.7"/>
<polygon fill="#63b8ff" stroke="#63b8ff" points="664.46,-25.5 656.03,-19.09 658.62,-29.36 664.46,-25.5"/>
</a>
</g>
</g>
<!-- Node18&#45;&gt;Node4 -->
<g id="edge23_Node000018_Node000004" class="edge">
<title>Node18&#45;&gt;Node4</title>
<g id="a_edge23_Node000018_Node000004"><a xlink:title=" ">
<path fill="none" stroke="#63b8ff" d="M223.99,-170.37C221.75,-162.16 218.3,-149.54 215.43,-139.05"/>
<polygon fill="#63b8ff" stroke="#63b8ff" points="218.74,-137.89 212.72,-129.17 211.99,-139.74 218.74,-137.89"/>
</a>
</g>
</g>
<!-- Node18&#45;&gt;Node8 -->
<g id="edge24_Node000018_Node000008" class="edge">
<title>Node18&#45;&gt;Node8</title>
<g id="a_edge24_Node000018_Node000008"><a xlink:title=" ">
<path fill="none" stroke="#63b8ff" d="M274.34,-170.49C333.73,-159.97 434.78,-142.05 498.43,-130.77"/>
<polygon fill="#63b8ff" stroke="#63b8ff" points="499.07,-134.21 508.31,-129.02 497.85,-127.32 499.07,-134.21"/>
</a>
</g>
</g>
<!-- Node18&#45;&gt;Node16 -->
<g id="edge22_Node000018_Node000016" class="edge">
<title>Node18&#45;&gt;Node16</title>
<g id="a_edge22_Node000018_Node000016"><a xlink:title=" ">
<path fill="none" stroke="#63b8ff" d="M239.04,-170.37C252.76,-161.04 274.86,-146.01 291.21,-134.88"/>
<polygon fill="#63b8ff" stroke="#63b8ff" points="293.31,-137.69 299.61,-129.17 289.37,-131.9 293.31,-137.69"/>
</a>
</g>
</g>
<!-- Node19&#45;&gt;Node5 -->
<g id="edge26_Node000019_Node000005" class="edge">
<title>Node19&#45;&gt;Node5</title>
<g id="a_edge26_Node000019_Node000005"><a xlink:title=" ">
<path fill="none" stroke="#63b8ff" d="M571.79,-54.98C550.92,-46.34 518.38,-32.87 494.58,-23.02"/>
<polygon fill="#63b8ff" stroke="#63b8ff" points="495.87,-19.76 485.29,-19.17 493.19,-26.23 495.87,-19.76"/>
</a>
</g>
</g>
<!-- Node21 -->
<g id="Node000021" class="node">
<title>Node21</title>
<g id="a_Node000021"><a xlink:href="Vec__fwd_8hpp.html" target="_top" xlink:title="Declaration of Vec.">
<polygon fill="white" stroke="#666666" points="87.85,-250 10.85,-250 10.85,-231 87.85,-231 87.85,-250"/>
<text text-anchor="middle" x="49.35" y="-238" font-family="Helvetica,sans-Serif" font-size="10.00">Vec_fwd.hpp</text>
</a>
</g>
</g>
<!-- Node20&#45;&gt;Node21 -->
<g id="edge30_Node000020_Node000021" class="edge">
<title>Node20&#45;&gt;Node21</title>
<g id="a_edge30_Node000020_Node000021"><a xlink:title=" ">
<path fill="none" stroke="#63b8ff" d="M91.98,-291.37C84.44,-282.55 72.57,-268.66 63.26,-257.77"/>
<polygon fill="#63b8ff" stroke="#63b8ff" points="65.92,-255.5 56.76,-250.17 60.6,-260.04 65.92,-255.5"/>
</a>
</g>
</g>
<!-- Node21&#45;&gt;Node4 -->
<g id="edge31_Node000021_Node000004" class="edge">
<title>Node21&#45;&gt;Node4</title>
<g id="a_edge31_Node000021_Node000004"><a xlink:title=" ">
<path fill="none" stroke="#63b8ff" d="M37.64,-230.95C19.33,-216.54 -12.28,-186.87 5.35,-165 22.75,-143.43 91.91,-131.78 145.15,-125.87"/>
<polygon fill="#63b8ff" stroke="#63b8ff" points="145.65,-129.34 155.22,-124.8 144.91,-122.38 145.65,-129.34"/>
</a>
</g>
</g>
<!-- Node22 -->
<g id="Node000022" class="node">
<title>Node22</title>
<g id="a_Node000022"><a xlink:title=" ">
<polygon fill="#e0e0e0" stroke="#999999" points="83.85,-189.5 14.85,-189.5 14.85,-170.5 83.85,-170.5 83.85,-189.5"/>
<text text-anchor="middle" x="49.35" y="-177.5" font-family="Helvetica,sans-Serif" font-size="10.00">Eigen/Core</text>
</a>
</g>
</g>
<!-- Node21&#45;&gt;Node22 -->
<g id="edge32_Node000021_Node000022" class="edge">
<title>Node21&#45;&gt;Node22</title>
<g id="a_edge32_Node000021_Node000022"><a xlink:title=" ">
<path fill="none" stroke="#63b8ff" d="M49.35,-230.87C49.35,-222.75 49.35,-210.31 49.35,-199.89"/>
<polygon fill="#63b8ff" stroke="#63b8ff" points="52.85,-199.67 49.35,-189.67 45.85,-199.67 52.85,-199.67"/>
</a>
</g>
</g>
</g>
</svg>
