<?xml version="1.0" encoding="UTF-8" standalone="no"?>
<!DOCTYPE svg PUBLIC "-//W3C//DTD SVG 1.1//EN"
 "http://www.w3.org/Graphics/SVG/1.1/DTD/svg11.dtd">
<!-- Generated by graphviz version 2.43.0 (0)
 -->
<!-- Title: src/spatial_search/KDTreeMutable.cpp Pages: 1 -->
<svg width="698pt" height="390pt"
 viewBox="0.00 0.00 698.41 390.00" xmlns="http://www.w3.org/2000/svg" xmlns:xlink="http://www.w3.org/1999/xlink">
<g id="graph0" class="graph" transform="scale(1 1) rotate(0) translate(4 386)">
<title>src/spatial_search/KDTreeMutable.cpp</title>
<!-- Node1 -->
<g id="Node000001" class="node">
<title>Node1</title>
<g id="a_Node000001"><a xlink:title="Instantiations of KDTreeMutable.">
<polygon fill="#999999" stroke="#666666" points="468.91,-382 354.91,-382 354.91,-352 468.91,-352 468.91,-382"/>
<text text-anchor="start" x="362.91" y="-370" font-family="Helvetica,sans-Serif" font-size="10.00">src/spatial_search</text>
<text text-anchor="middle" x="411.91" y="-359" font-family="Helvetica,sans-Serif" font-size="10.00">/KDTreeMutable.cpp</text>
</a>
</g>
</g>
<!-- Node2 -->
<g id="Node000002" class="node">
<title>Node2</title>
<g id="a_Node000002"><a xlink:href="KDTreeMutable_8hpp.html" target="_top" xlink:title="Implementation of KDTreeMutable.">
<polygon fill="white" stroke="#666666" points="403.91,-316 251.91,-316 251.91,-286 403.91,-286 403.91,-316"/>
<text text-anchor="start" x="259.91" y="-304" font-family="Helvetica,sans-Serif" font-size="10.00">medusa/bits/spatial</text>
<text text-anchor="middle" x="327.91" y="-293" font-family="Helvetica,sans-Serif" font-size="10.00">_search/KDTreeMutable.hpp</text>
</a>
</g>
</g>
<!-- Node1&#45;&gt;Node2 -->
<g id="edge1_Node000001_Node000002" class="edge">
<title>Node1&#45;&gt;Node2</title>
<g id="a_edge1_Node000001_Node000002"><a xlink:title=" ">
<path fill="none" stroke="#63b8ff" d="M393.26,-351.8C381.95,-343.18 367.33,-332.04 354.78,-322.48"/>
<polygon fill="#63b8ff" stroke="#63b8ff" points="356.57,-319.44 346.5,-316.16 352.33,-325.01 356.57,-319.44"/>
</a>
</g>
</g>
<!-- Node20 -->
<g id="Node000020" class="node">
<title>Node20</title>
<g id="a_Node000020"><a xlink:href="Vec_8hpp.html" target="_top" xlink:title="Implemetations for Vec.">
<polygon fill="white" stroke="#666666" points="587.91,-310.5 439.91,-310.5 439.91,-291.5 587.91,-291.5 587.91,-310.5"/>
<text text-anchor="middle" x="513.91" y="-298.5" font-family="Helvetica,sans-Serif" font-size="10.00">medusa/bits/types/Vec.hpp</text>
</a>
</g>
</g>
<!-- Node1&#45;&gt;Node20 -->
<g id="edge26_Node000001_Node000020" class="edge">
<title>Node1&#45;&gt;Node20</title>
<g id="a_edge26_Node000001_Node000020"><a xlink:title=" ">
<path fill="none" stroke="#63b8ff" d="M434.29,-351.95C451.31,-341.27 474.62,-326.65 491.62,-315.98"/>
<polygon fill="#63b8ff" stroke="#63b8ff" points="493.72,-318.8 500.33,-310.52 490,-312.87 493.72,-318.8"/>
</a>
</g>
</g>
<!-- Node3 -->
<g id="Node000003" class="node">
<title>Node3</title>
<g id="a_Node000003"><a xlink:href="KDTreeMutable__fwd_8hpp.html" target="_top" xlink:title="Declaration of KDTreeMutable.">
<polygon fill="white" stroke="#666666" points="358.91,-250 224.91,-250 224.91,-231 358.91,-231 358.91,-250"/>
<text text-anchor="middle" x="291.91" y="-238" font-family="Helvetica,sans-Serif" font-size="10.00">KDTreeMutable_fwd.hpp</text>
</a>
</g>
</g>
<!-- Node2&#45;&gt;Node3 -->
<g id="edge2_Node000002_Node000003" class="edge">
<title>Node2&#45;&gt;Node3</title>
<g id="a_edge2_Node000002_Node000003"><a xlink:title=" ">
<path fill="none" stroke="#63b8ff" d="M319.19,-285.84C314.23,-277.78 307.98,-267.62 302.71,-259.06"/>
<polygon fill="#63b8ff" stroke="#63b8ff" points="305.52,-256.95 297.3,-250.27 299.56,-260.62 305.52,-256.95"/>
</a>
</g>
</g>
<!-- Node7 -->
<g id="Node000007" class="node">
<title>Node7</title>
<g id="a_Node000007"><a xlink:href="assert_8hpp.html" target="_top" xlink:title="Implementation of custom assert and debug utilities.">
<polygon fill="white" stroke="#666666" points="564.41,-129 409.41,-129 409.41,-110 564.41,-110 564.41,-129"/>
<text text-anchor="middle" x="486.91" y="-117" font-family="Helvetica,sans-Serif" font-size="10.00">medusa/bits/utils/assert.hpp</text>
</a>
</g>
</g>
<!-- Node2&#45;&gt;Node7 -->
<g id="edge24_Node000002_Node000007" class="edge">
<title>Node2&#45;&gt;Node7</title>
<g id="a_edge24_Node000002_Node000007"><a xlink:title=" ">
<path fill="none" stroke="#63b8ff" d="M340.38,-285.91C369.4,-253.15 441.32,-171.97 472.31,-136.98"/>
<polygon fill="#63b8ff" stroke="#63b8ff" points="475.25,-138.94 479.26,-129.13 470.01,-134.3 475.25,-138.94"/>
</a>
</g>
</g>
<!-- Node19 -->
<g id="Node000019" class="node">
<title>Node19</title>
<g id="a_Node000019"><a xlink:title=" ">
<polygon fill="#e0e0e0" stroke="#999999" points="206.41,-250 159.41,-250 159.41,-231 206.41,-231 206.41,-250"/>
<text text-anchor="middle" x="182.91" y="-238" font-family="Helvetica,sans-Serif" font-size="10.00">cmath</text>
</a>
</g>
</g>
<!-- Node2&#45;&gt;Node19 -->
<g id="edge25_Node000002_Node000019" class="edge">
<title>Node2&#45;&gt;Node19</title>
<g id="a_edge25_Node000002_Node000019"><a xlink:title=" ">
<path fill="none" stroke="#63b8ff" d="M293.18,-285.99C268.98,-276.23 237.01,-263.33 213.72,-253.93"/>
<polygon fill="#63b8ff" stroke="#63b8ff" points="214.9,-250.63 204.32,-250.14 212.28,-257.13 214.9,-250.63"/>
</a>
</g>
</g>
<!-- Node4 -->
<g id="Node000004" class="node">
<title>Node4</title>
<g id="a_Node000004"><a xlink:href="Config_8hpp.html" target="_top" xlink:title="Contains compile time settings for the project, such as Eigen plugins.">
<polygon fill="white" stroke="#666666" points="390.91,-129 280.91,-129 280.91,-110 390.91,-110 390.91,-129"/>
<text text-anchor="middle" x="335.91" y="-117" font-family="Helvetica,sans-Serif" font-size="10.00">medusa/Config.hpp</text>
</a>
</g>
</g>
<!-- Node3&#45;&gt;Node4 -->
<g id="edge3_Node000003_Node000004" class="edge">
<title>Node3&#45;&gt;Node4</title>
<g id="a_edge3_Node000003_Node000004"><a xlink:title=" ">
<path fill="none" stroke="#63b8ff" d="M316.72,-230.95C332.75,-223.99 352.34,-212.42 361.91,-195 372.16,-176.33 360.37,-152.86 349.53,-137.3"/>
<polygon fill="#63b8ff" stroke="#63b8ff" points="352.22,-135.06 343.43,-129.15 346.62,-139.26 352.22,-135.06"/>
</a>
</g>
</g>
<!-- Node6 -->
<g id="Node000006" class="node">
<title>Node6</title>
<g id="a_Node000006"><a xlink:href="Range__fwd_8hpp.html" target="_top" xlink:title="Declaration of Range.">
<polygon fill="white" stroke="#666666" points="352.91,-195 212.91,-195 212.91,-165 352.91,-165 352.91,-195"/>
<text text-anchor="start" x="220.91" y="-183" font-family="Helvetica,sans-Serif" font-size="10.00">medusa/bits/types/Range</text>
<text text-anchor="middle" x="282.91" y="-172" font-family="Helvetica,sans-Serif" font-size="10.00">_fwd.hpp</text>
</a>
</g>
</g>
<!-- Node3&#45;&gt;Node6 -->
<g id="edge5_Node000003_Node000006" class="edge">
<title>Node3&#45;&gt;Node6</title>
<g id="a_edge5_Node000003_Node000006"><a xlink:title=" ">
<path fill="none" stroke="#63b8ff" d="M290.58,-230.87C289.54,-224.11 288.04,-214.35 286.64,-205.26"/>
<polygon fill="#63b8ff" stroke="#63b8ff" points="290.06,-204.47 285.08,-195.11 283.14,-205.53 290.06,-204.47"/>
</a>
</g>
</g>
<!-- Node11 -->
<g id="Node000011" class="node">
<title>Node11</title>
<g id="a_Node000011"><a xlink:title=" ">
<polygon fill="#e0e0e0" stroke="#999999" points="613.91,-19 571.91,-19 571.91,0 613.91,0 613.91,-19"/>
<text text-anchor="middle" x="592.91" y="-7" font-family="Helvetica,sans-Serif" font-size="10.00">array</text>
</a>
</g>
</g>
<!-- Node3&#45;&gt;Node11 -->
<g id="edge20_Node000003_Node000011" class="edge">
<title>Node3&#45;&gt;Node11</title>
<g id="a_edge20_Node000003_Node000011"><a xlink:title=" ">
<path fill="none" stroke="#63b8ff" d="M359.13,-231.91C424.11,-220.84 520.22,-193.93 572.91,-129 596.16,-100.34 596.83,-54.7 595.02,-29.24"/>
<polygon fill="#63b8ff" stroke="#63b8ff" points="598.49,-28.73 594.09,-19.09 591.52,-29.37 598.49,-28.73"/>
</a>
</g>
</g>
<!-- Node16 -->
<g id="Node000016" class="node">
<title>Node16</title>
<g id="a_Node000016"><a xlink:title=" ">
<polygon fill="#e0e0e0" stroke="#999999" points="66.91,-129 18.91,-129 18.91,-110 66.91,-110 66.91,-129"/>
<text text-anchor="middle" x="42.91" y="-117" font-family="Helvetica,sans-Serif" font-size="10.00">iosfwd</text>
</a>
</g>
</g>
<!-- Node3&#45;&gt;Node16 -->
<g id="edge21_Node000003_Node000016" class="edge">
<title>Node3&#45;&gt;Node16</title>
<g id="a_edge21_Node000003_Node000016"><a xlink:title=" ">
<path fill="none" stroke="#63b8ff" d="M224.88,-231.53C156.79,-222.77 59.68,-208.19 47.91,-195 34.58,-180.07 35.51,-156.06 38.34,-139.34"/>
<polygon fill="#63b8ff" stroke="#63b8ff" points="41.86,-139.64 40.46,-129.14 35,-138.22 41.86,-139.64"/>
</a>
</g>
</g>
<!-- Node17 -->
<g id="Node000017" class="node">
<title>Node17</title>
<g id="a_Node000017"><a xlink:title=" ">
<polygon fill="#e0e0e0" stroke="#999999" points="194.41,-189.5 57.41,-189.5 57.41,-170.5 194.41,-170.5 194.41,-189.5"/>
<text text-anchor="middle" x="125.91" y="-177.5" font-family="Helvetica,sans-Serif" font-size="10.00">nanoflann/nanoflann.hpp</text>
</a>
</g>
</g>
<!-- Node3&#45;&gt;Node17 -->
<g id="edge19_Node000003_Node000017" class="edge">
<title>Node3&#45;&gt;Node17</title>
<g id="a_edge19_Node000003_Node000017"><a xlink:title=" ">
<path fill="none" stroke="#63b8ff" d="M267.77,-230.99C239.37,-220.99 192.03,-204.3 159.92,-192.99"/>
<polygon fill="#63b8ff" stroke="#63b8ff" points="160.67,-189.54 150.07,-189.52 158.34,-196.14 160.67,-189.54"/>
</a>
</g>
</g>
<!-- Node18 -->
<g id="Node000018" class="node">
<title>Node18</title>
<g id="a_Node000018"><a xlink:href="PointCloud_8hpp.html" target="_top" xlink:title="Implementation of KDTree storage class.">
<polygon fill="white" stroke="#666666" points="130.91,-74 40.91,-74 40.91,-55 130.91,-55 130.91,-74"/>
<text text-anchor="middle" x="85.91" y="-62" font-family="Helvetica,sans-Serif" font-size="10.00">PointCloud.hpp</text>
</a>
</g>
</g>
<!-- Node3&#45;&gt;Node18 -->
<g id="edge22_Node000003_Node000018" class="edge">
<title>Node3&#45;&gt;Node18</title>
<g id="a_edge22_Node000003_Node000018"><a xlink:title=" ">
<path fill="none" stroke="#63b8ff" d="M224.71,-231.53C152.91,-222.45 47.42,-207.29 32.91,-195 3.04,-169.7 -9.56,-143.95 9.91,-110 18.27,-95.42 33.46,-85.16 48.07,-78.19"/>
<polygon fill="#63b8ff" stroke="#63b8ff" points="49.75,-81.28 57.52,-74.08 46.95,-74.86 49.75,-81.28"/>
</a>
</g>
</g>
<!-- Node5 -->
<g id="Node000005" class="node">
<title>Node5</title>
<g id="a_Node000005"><a xlink:title=" ">
<polygon fill="#e0e0e0" stroke="#999999" points="295.41,-19 248.41,-19 248.41,0 295.41,0 295.41,-19"/>
<text text-anchor="middle" x="271.91" y="-7" font-family="Helvetica,sans-Serif" font-size="10.00">vector</text>
</a>
</g>
</g>
<!-- Node4&#45;&gt;Node5 -->
<g id="edge4_Node000004_Node000005" class="edge">
<title>Node4&#45;&gt;Node5</title>
<g id="a_edge4_Node000004_Node000005"><a xlink:title=" ">
<path fill="none" stroke="#63b8ff" d="M330.67,-109.66C320.12,-91.85 296.12,-51.37 282.28,-28.01"/>
<polygon fill="#63b8ff" stroke="#63b8ff" points="285.15,-25.98 277.04,-19.16 279.12,-29.55 285.15,-25.98"/>
</a>
</g>
</g>
<!-- Node6&#45;&gt;Node4 -->
<g id="edge6_Node000006_Node000004" class="edge">
<title>Node6&#45;&gt;Node4</title>
<g id="a_edge6_Node000006_Node000004"><a xlink:title=" ">
<path fill="none" stroke="#63b8ff" d="M295.74,-164.84C303.43,-156.35 313.24,-145.52 321.24,-136.69"/>
<polygon fill="#63b8ff" stroke="#63b8ff" points="323.84,-139.03 327.96,-129.27 318.66,-134.33 323.84,-139.03"/>
</a>
</g>
</g>
<!-- Node6&#45;&gt;Node5 -->
<g id="edge17_Node000006_Node000005" class="edge">
<title>Node6&#45;&gt;Node5</title>
<g id="a_edge17_Node000006_Node000005"><a xlink:title=" ">
<path fill="none" stroke="#63b8ff" d="M278.89,-164.7C276.32,-154.77 273.23,-141.19 271.91,-129 268.1,-94.01 269.38,-52.86 270.65,-29.41"/>
<polygon fill="#63b8ff" stroke="#63b8ff" points="274.16,-29.35 271.27,-19.16 267.17,-28.93 274.16,-29.35"/>
</a>
</g>
</g>
<!-- Node6&#45;&gt;Node7 -->
<g id="edge7_Node000006_Node000007" class="edge">
<title>Node6&#45;&gt;Node7</title>
<g id="a_edge7_Node000006_Node000007"><a xlink:title=" ">
<path fill="none" stroke="#63b8ff" d="M331.77,-164.99C367.13,-154.85 414.31,-141.32 447.32,-131.85"/>
<polygon fill="#63b8ff" stroke="#63b8ff" points="448.43,-135.17 457.08,-129.05 446.5,-128.45 448.43,-135.17"/>
</a>
</g>
</g>
<!-- Node14 -->
<g id="Node000014" class="node">
<title>Node14</title>
<g id="a_Node000014"><a xlink:href="traits_8hpp.html" target="_top" xlink:title="Type traits definition for vector and scalar fields.">
<polygon fill="white" stroke="#666666" points="224.41,-129 161.41,-129 161.41,-110 224.41,-110 224.41,-129"/>
<text text-anchor="middle" x="192.91" y="-117" font-family="Helvetica,sans-Serif" font-size="10.00">traits.hpp</text>
</a>
</g>
</g>
<!-- Node6&#45;&gt;Node14 -->
<g id="edge15_Node000006_Node000014" class="edge">
<title>Node6&#45;&gt;Node14</title>
<g id="a_edge15_Node000006_Node000014"><a xlink:title=" ">
<path fill="none" stroke="#63b8ff" d="M261.12,-164.84C247.04,-155.68 228.78,-143.82 214.69,-134.66"/>
<polygon fill="#63b8ff" stroke="#63b8ff" points="216.42,-131.61 206.13,-129.09 212.61,-137.48 216.42,-131.61"/>
</a>
</g>
</g>
<!-- Node15 -->
<g id="Node000015" class="node">
<title>Node15</title>
<g id="a_Node000015"><a xlink:title=" ">
<polygon fill="#e0e0e0" stroke="#999999" points="142.91,-129 84.91,-129 84.91,-110 142.91,-110 142.91,-129"/>
<text text-anchor="middle" x="113.91" y="-117" font-family="Helvetica,sans-Serif" font-size="10.00">memory</text>
</a>
</g>
</g>
<!-- Node6&#45;&gt;Node15 -->
<g id="edge16_Node000006_Node000015" class="edge">
<title>Node6&#45;&gt;Node15</title>
<g id="a_edge16_Node000006_Node000015"><a xlink:title=" ">
<path fill="none" stroke="#63b8ff" d="M242.43,-164.99C213.73,-155.05 175.63,-141.86 148.38,-132.43"/>
<polygon fill="#63b8ff" stroke="#63b8ff" points="149.46,-129.1 138.86,-129.14 147.17,-135.72 149.46,-129.1"/>
</a>
</g>
</g>
<!-- Node6&#45;&gt;Node16 -->
<g id="edge18_Node000006_Node000016" class="edge">
<title>Node6&#45;&gt;Node16</title>
<g id="a_edge18_Node000006_Node000016"><a xlink:title=" ">
<path fill="none" stroke="#63b8ff" d="M223.51,-164.9C184.45,-155.58 131.94,-142.93 76.97,-129.24"/>
<polygon fill="#63b8ff" stroke="#63b8ff" points="77.6,-125.79 67.05,-126.76 75.9,-132.58 77.6,-125.79"/>
</a>
</g>
</g>
<!-- Node8 -->
<g id="Node000008" class="node">
<title>Node8</title>
<g id="a_Node000008"><a xlink:title=" ">
<polygon fill="#e0e0e0" stroke="#999999" points="450.91,-74 318.91,-74 318.91,-55 450.91,-55 450.91,-74"/>
<text text-anchor="middle" x="384.91" y="-62" font-family="Helvetica,sans-Serif" font-size="10.00">tinyformat/tinyformat.h</text>
</a>
</g>
</g>
<!-- Node7&#45;&gt;Node8 -->
<g id="edge8_Node000007_Node000008" class="edge">
<title>Node7&#45;&gt;Node8</title>
<g id="a_edge8_Node000007_Node000008"><a xlink:title=" ">
<path fill="none" stroke="#63b8ff" d="M470.52,-109.98C454.33,-101.57 429.34,-88.59 410.53,-78.81"/>
<polygon fill="#63b8ff" stroke="#63b8ff" points="412.08,-75.68 401.59,-74.17 408.85,-81.89 412.08,-75.68"/>
</a>
</g>
</g>
<!-- Node9 -->
<g id="Node000009" class="node">
<title>Node9</title>
<g id="a_Node000009"><a xlink:href="print_8hpp.html" target="_top" xlink:title="Printing helpers for std types.">
<polygon fill="white" stroke="#666666" points="528.91,-74 468.91,-74 468.91,-55 528.91,-55 528.91,-74"/>
<text text-anchor="middle" x="498.91" y="-62" font-family="Helvetica,sans-Serif" font-size="10.00">print.hpp</text>
</a>
</g>
</g>
<!-- Node7&#45;&gt;Node9 -->
<g id="edge9_Node000007_Node000009" class="edge">
<title>Node7&#45;&gt;Node9</title>
<g id="a_edge9_Node000007_Node000009"><a xlink:title=" ">
<path fill="none" stroke="#63b8ff" d="M488.89,-109.75C490.48,-102.72 492.77,-92.62 494.75,-83.84"/>
<polygon fill="#63b8ff" stroke="#63b8ff" points="498.17,-84.62 496.96,-74.09 491.34,-83.07 498.17,-84.62"/>
</a>
</g>
</g>
<!-- Node9&#45;&gt;Node5 -->
<g id="edge11_Node000009_Node000005" class="edge">
<title>Node9&#45;&gt;Node5</title>
<g id="a_edge11_Node000009_Node000005"><a xlink:title=" ">
<path fill="none" stroke="#63b8ff" d="M468.76,-56.46C426.45,-46.58 349.68,-28.66 305.55,-18.36"/>
<polygon fill="#63b8ff" stroke="#63b8ff" points="306.14,-14.9 295.6,-16.03 304.54,-21.71 306.14,-14.9"/>
</a>
</g>
</g>
<!-- Node10 -->
<g id="Node000010" class="node">
<title>Node10</title>
<g id="a_Node000010"><a xlink:title=" ">
<polygon fill="#e0e0e0" stroke="#999999" points="430.91,-19 370.91,-19 370.91,0 430.91,0 430.91,-19"/>
<text text-anchor="middle" x="400.91" y="-7" font-family="Helvetica,sans-Serif" font-size="10.00">iostream</text>
</a>
</g>
</g>
<!-- Node9&#45;&gt;Node10 -->
<g id="edge10_Node000009_Node000010" class="edge">
<title>Node9&#45;&gt;Node10</title>
<g id="a_edge10_Node000009_Node000010"><a xlink:title=" ">
<path fill="none" stroke="#63b8ff" d="M483.16,-54.98C467.68,-46.61 443.81,-33.7 425.77,-23.95"/>
<polygon fill="#63b8ff" stroke="#63b8ff" points="427.4,-20.85 416.94,-19.17 424.07,-27.01 427.4,-20.85"/>
</a>
</g>
</g>
<!-- Node9&#45;&gt;Node11 -->
<g id="edge12_Node000009_Node000011" class="edge">
<title>Node9&#45;&gt;Node11</title>
<g id="a_edge12_Node000009_Node000011"><a xlink:title=" ">
<path fill="none" stroke="#63b8ff" d="M514.01,-54.98C528.72,-46.69 551.33,-33.94 568.58,-24.22"/>
<polygon fill="#63b8ff" stroke="#63b8ff" points="570.54,-27.13 577.53,-19.17 567.1,-21.03 570.54,-27.13"/>
</a>
</g>
</g>
<!-- Node12 -->
<g id="Node000012" class="node">
<title>Node12</title>
<g id="a_Node000012"><a xlink:title=" ">
<polygon fill="#e0e0e0" stroke="#999999" points="494.41,-19 449.41,-19 449.41,0 494.41,0 494.41,-19"/>
<text text-anchor="middle" x="471.91" y="-7" font-family="Helvetica,sans-Serif" font-size="10.00">utility</text>
</a>
</g>
</g>
<!-- Node9&#45;&gt;Node12 -->
<g id="edge13_Node000009_Node000012" class="edge">
<title>Node9&#45;&gt;Node12</title>
<g id="a_edge13_Node000009_Node000012"><a xlink:title=" ">
<path fill="none" stroke="#63b8ff" d="M494.45,-54.75C490.79,-47.57 485.5,-37.18 480.96,-28.27"/>
<polygon fill="#63b8ff" stroke="#63b8ff" points="483.94,-26.41 476.28,-19.09 477.7,-29.59 483.94,-26.41"/>
</a>
</g>
</g>
<!-- Node13 -->
<g id="Node000013" class="node">
<title>Node13</title>
<g id="a_Node000013"><a xlink:title=" ">
<polygon fill="#e0e0e0" stroke="#999999" points="553.41,-19 512.41,-19 512.41,0 553.41,0 553.41,-19"/>
<text text-anchor="middle" x="532.91" y="-7" font-family="Helvetica,sans-Serif" font-size="10.00">tuple</text>
</a>
</g>
</g>
<!-- Node9&#45;&gt;Node13 -->
<g id="edge14_Node000009_Node000013" class="edge">
<title>Node9&#45;&gt;Node13</title>
<g id="a_edge14_Node000009_Node000013"><a xlink:title=" ">
<path fill="none" stroke="#63b8ff" d="M504.52,-54.75C509.22,-47.42 516.08,-36.73 521.88,-27.7"/>
<polygon fill="#63b8ff" stroke="#63b8ff" points="524.94,-29.4 527.4,-19.09 519.05,-25.62 524.94,-29.4"/>
</a>
</g>
</g>
<!-- Node18&#45;&gt;Node5 -->
<g id="edge23_Node000018_Node000005" class="edge">
<title>Node18&#45;&gt;Node5</title>
<g id="a_edge23_Node000018_Node000005"><a xlink:title=" ">
<path fill="none" stroke="#63b8ff" d="M115.79,-54.98C149.34,-45.42 203.65,-29.95 238.56,-20"/>
<polygon fill="#63b8ff" stroke="#63b8ff" points="239.63,-23.34 248.29,-17.23 237.72,-16.6 239.63,-23.34"/>
</a>
</g>
</g>
<!-- Node21 -->
<g id="Node000021" class="node">
<title>Node21</title>
<g id="a_Node000021"><a xlink:href="Vec__fwd_8hpp.html" target="_top" xlink:title="Declaration of Vec.">
<polygon fill="white" stroke="#666666" points="562.41,-250 485.41,-250 485.41,-231 562.41,-231 562.41,-250"/>
<text text-anchor="middle" x="523.91" y="-238" font-family="Helvetica,sans-Serif" font-size="10.00">Vec_fwd.hpp</text>
</a>
</g>
</g>
<!-- Node20&#45;&gt;Node21 -->
<g id="edge27_Node000020_Node000021" class="edge">
<title>Node20&#45;&gt;Node21</title>
<g id="a_edge27_Node000020_Node000021"><a xlink:title=" ">
<path fill="none" stroke="#63b8ff" d="M515.38,-291.37C516.79,-283.16 518.94,-270.54 520.73,-260.05"/>
<polygon fill="#63b8ff" stroke="#63b8ff" points="524.19,-260.61 522.42,-250.17 517.29,-259.43 524.19,-260.61"/>
</a>
</g>
</g>
<!-- Node21&#45;&gt;Node4 -->
<g id="edge28_Node000021_Node000004" class="edge">
<title>Node21&#45;&gt;Node4</title>
<g id="a_edge28_Node000021_Node000004"><a xlink:title=" ">
<path fill="none" stroke="#63b8ff" d="M510.39,-230.94C478.35,-210.66 397.57,-159.53 358.18,-134.6"/>
<polygon fill="#63b8ff" stroke="#63b8ff" points="359.88,-131.53 349.56,-129.14 356.13,-137.45 359.88,-131.53"/>
</a>
</g>
</g>
<!-- Node22 -->
<g id="Node000022" class="node">
<title>Node22</title>
<g id="a_Node000022"><a xlink:title=" ">
<polygon fill="#e0e0e0" stroke="#999999" points="690.41,-189.5 621.41,-189.5 621.41,-170.5 690.41,-170.5 690.41,-189.5"/>
<text text-anchor="middle" x="655.91" y="-177.5" font-family="Helvetica,sans-Serif" font-size="10.00">Eigen/Core</text>
</a>
</g>
</g>
<!-- Node21&#45;&gt;Node22 -->
<g id="edge29_Node000021_Node000022" class="edge">
<title>Node21&#45;&gt;Node22</title>
<g id="a_edge29_Node000021_Node000022"><a xlink:title=" ">
<path fill="none" stroke="#63b8ff" d="M543.1,-230.99C565.29,-221.16 602.03,-204.88 627.52,-193.58"/>
<polygon fill="#63b8ff" stroke="#63b8ff" points="628.96,-196.77 636.69,-189.52 626.13,-190.37 628.96,-196.77"/>
</a>
</g>
</g>
</g>
</svg>
