<?xml version="1.0" encoding="UTF-8" standalone="no"?>
<!DOCTYPE svg PUBLIC "-//W3C//DTD SVG 1.1//EN"
 "http://www.w3.org/Graphics/SVG/1.1/DTD/svg11.dtd">
<!-- Generated by graphviz version 2.43.0 (0)
 -->
<!-- Title: include/medusa/bits/spatial_search/KDTreeMutable_fwd.hpp Pages: 1 -->
<!--zoomable 599 -->

<svg id="main" version="1.1" xmlns="http://www.w3.org/2000/svg" xmlns:xlink="http://www.w3.org/1999/xlink" xml:space="preserve" onload="init(evt)">
<style type="text/css"><![CDATA[
.node, .edge {opacity: 0.7;}
.node.selected, .edge.selected {opacity: 1;}
.edge:hover path { stroke: red; }
.edge:hover polygon { stroke: red; fill: red; }
]]></style>

<defs>
  <circle id="rim" cx="0" cy="0" r="7"/>
  <circle id="rim2" cx="0" cy="0" r="3.5"/>
  <g id="zoomPlus">
    <use xlink:href="#rim" fill="#404040"><set attributeName="fill" to="#808080" begin="zoomplus.mouseover" end="zoomplus.mouseout"/></use>
    <path d="M-4,0h8M0,-4v8" fill="none" stroke="white" stroke-width="1.5" pointer-events="none"/>
  </g>
  <g id="zoomMin">
    <use xlink:href="#rim" fill="#404040"><set attributeName="fill" to="#808080" begin="zoomminus.mouseover" end="zoomminus.mouseout"/></use>
    <path d="M-4,0h8" fill="none" stroke="white" stroke-width="1.5" pointer-events="none"/>
  </g>
  <g id="arrowUp" transform="translate(30 24)">
    <use xlink:href="#rim"/>
    <path pointer-events="none" fill="none" stroke="white" stroke-width="1.5" d="M0,-3.0v7 M-2.5,-0.5L0,-3.0L2.5,-0.5"/>
  </g>
  <g id="arrowRight" transform="rotate(90) translate(36 -43)">
    <use xlink:href="#rim"/>
    <path pointer-events="none" fill="none" stroke="white" stroke-width="1.5" d="M0,-3.0v7 M-2.5,-0.5L0,-3.0L2.5,-0.5"/>
  </g>
  <g id="arrowDown" transform="rotate(180) translate(-30 -48)">
    <use xlink:href="#rim"/>
    <path pointer-events="none" fill="none" stroke="white" stroke-width="1.5" d="M0,-3.0v7 M-2.5,-0.5L0,-3.0L2.5,-0.5"/>
  </g>
  <g id="arrowLeft" transform="rotate(270) translate(-36 17)">
    <use xlink:href="#rim"/>
    <path pointer-events="none" fill="none" stroke="white" stroke-width="1.5" d="M0,-3.0v7 M-2.5,-0.5L0,-3.0L2.5,-0.5"/>
  </g>
  <g id="resetDef">
    <use xlink:href="#rim2" fill="#404040"><set attributeName="fill" to="#808080" begin="reset.mouseover" end="reset.mouseout"/></use>
  </g>
</defs>
<script type="application/ecmascript">
var viewWidth = 1584;
var viewHeight = 599;
var sectionId = 'dynsection-1';
</script>
<script type="application/ecmascript" xlink:href="svg.min.js"/>
<svg id="graph" class="graph">
<g id="viewport">
<title>include/medusa/bits/spatial_search/KDTreeMutable_fwd.hpp</title>
<!-- Node1 -->
<g id="Node000001" class="node">
<title>Node1</title>
<g id="a_Node000001"><a xlink:title="Declaration of KDTreeMutable.">
<polygon fill="#999999" stroke="#666666" points="1280,-591 1113,-591 1113,-550 1280,-550 1280,-591"/>
<text text-anchor="start" x="1121" y="-579" font-family="Helvetica,sans-Serif" font-size="10.00">include/medusa/bits</text>
<text text-anchor="start" x="1121" y="-568" font-family="Helvetica,sans-Serif" font-size="10.00">/spatial_search/KDTreeMutable</text>
<text text-anchor="middle" x="1196.5" y="-557" font-family="Helvetica,sans-Serif" font-size="10.00">_fwd.hpp</text>
</a>
</g>
</g>
<!-- Node2 -->
<g id="Node000002" class="node">
<title>Node2</title>
<g id="a_Node000002"><a xlink:href="KDTreeMutable_8hpp.html" target="_top" xlink:title="Implementation of KDTreeMutable.">
<polygon fill="white" stroke="#666666" points="1290.5,-514 1102.5,-514 1102.5,-484 1290.5,-484 1290.5,-514"/>
<text text-anchor="start" x="1110.5" y="-502" font-family="Helvetica,sans-Serif" font-size="10.00">include/medusa/bits</text>
<text text-anchor="middle" x="1196.5" y="-491" font-family="Helvetica,sans-Serif" font-size="10.00">/spatial_search/KDTreeMutable.hpp</text>
</a>
</g>
</g>
<!-- Node1&#45;&gt;Node2 -->
<g id="edge1_Node000001_Node000002" class="edge">
<title>Node1&#45;&gt;Node2</title>
<g id="a_edge1_Node000001_Node000002"><a xlink:title=" ">
<path fill="none" stroke="#63b8ff" d="M1196.5,-539.66C1196.5,-530.76 1196.5,-521.42 1196.5,-514.04"/>
<polygon fill="#63b8ff" stroke="#63b8ff" points="1193,-539.77 1196.5,-549.77 1200,-539.77 1193,-539.77"/>
</a>
</g>
</g>
<!-- Node3 -->
<g id="Node000003" class="node">
<title>Node3</title>
<g id="a_Node000003"><a xlink:href="BasicRelax_8hpp.html" target="_top" xlink:title="Implementation of class for box shaped domains.">
<polygon fill="white" stroke="#666666" points="251.5,-448 111.5,-448 111.5,-418 251.5,-418 251.5,-448"/>
<text text-anchor="start" x="119.5" y="-436" font-family="Helvetica,sans-Serif" font-size="10.00">include/medusa/bits</text>
<text text-anchor="middle" x="181.5" y="-425" font-family="Helvetica,sans-Serif" font-size="10.00">/domains/BasicRelax.hpp</text>
</a>
</g>
</g>
<!-- Node2&#45;&gt;Node3 -->
<g id="edge2_Node000002_Node000003" class="edge">
<title>Node2&#45;&gt;Node3</title>
<g id="a_edge2_Node000002_Node000003"><a xlink:title=" ">
<path fill="none" stroke="#63b8ff" d="M1092.1,-491.42C884.97,-478.36 426.9,-449.47 251.61,-438.42"/>
<polygon fill="#63b8ff" stroke="#63b8ff" points="1092.18,-494.93 1102.38,-492.07 1092.62,-487.94 1092.18,-494.93"/>
</a>
</g>
</g>
<!-- Node7 -->
<g id="Node000007" class="node">
<title>Node7</title>
<g id="a_Node000007"><a xlink:href="GeneralFill_8hpp.html" target="_top" xlink:title="Implementation of the general node placing algorithm.">
<polygon fill="white" stroke="#666666" points="917.5,-448 779.5,-448 779.5,-418 917.5,-418 917.5,-448"/>
<text text-anchor="start" x="787.5" y="-436" font-family="Helvetica,sans-Serif" font-size="10.00">include/medusa/bits</text>
<text text-anchor="middle" x="848.5" y="-425" font-family="Helvetica,sans-Serif" font-size="10.00">/domains/GeneralFill.hpp</text>
</a>
</g>
</g>
<!-- Node2&#45;&gt;Node7 -->
<g id="edge6_Node000002_Node000007" class="edge">
<title>Node2&#45;&gt;Node7</title>
<g id="a_edge6_Node000002_Node000007"><a xlink:title=" ">
<path fill="none" stroke="#63b8ff" d="M1110.02,-482.09C1050.63,-471.17 972.86,-456.87 917.61,-446.71"/>
<polygon fill="#63b8ff" stroke="#63b8ff" points="1109.66,-485.59 1120.13,-483.95 1110.93,-478.7 1109.66,-485.59"/>
</a>
</g>
</g>
<!-- Node15 -->
<g id="Node000015" class="node">
<title>Node15</title>
<g id="a_Node000015"><a xlink:href="NURBSShape_8hpp.html" target="_top" xlink:title="Implementation of NURBSShape class.">
<polygon fill="white" stroke="#666666" points="1051.5,-151 901.5,-151 901.5,-121 1051.5,-121 1051.5,-151"/>
<text text-anchor="start" x="909.5" y="-139" font-family="Helvetica,sans-Serif" font-size="10.00">include/medusa/bits</text>
<text text-anchor="middle" x="976.5" y="-128" font-family="Helvetica,sans-Serif" font-size="10.00">/domains/NURBSShape.hpp</text>
</a>
</g>
</g>
<!-- Node2&#45;&gt;Node15 -->
<g id="edge44_Node000002_Node000015" class="edge">
<title>Node2&#45;&gt;Node15</title>
<g id="a_edge44_Node000002_Node000015"><a xlink:title=" ">
<path fill="none" stroke="#63b8ff" d="M1201.97,-473.78C1207.58,-446.78 1215.5,-401.75 1215.5,-362.5 1215.5,-362.5 1215.5,-362.5 1215.5,-283.5 1215.5,-239.79 1226.96,-218.36 1196.5,-187 1186.18,-176.38 1111.26,-160.85 1051.68,-149.93"/>
<polygon fill="#63b8ff" stroke="#63b8ff" points="1198.49,-473.34 1199.81,-483.85 1205.33,-474.81 1198.49,-473.34"/>
</a>
</g>
</g>
<!-- Node21 -->
<g id="Node000021" class="node">
<title>Node21</title>
<g id="a_Node000021"><a xlink:href="PolyhedronShape_8hpp_source.html" target="_top" xlink:title=" ">
<polygon fill="white" stroke="#666666" points="1187.5,-222.5 1017.5,-222.5 1017.5,-192.5 1187.5,-192.5 1187.5,-222.5"/>
<text text-anchor="start" x="1025.5" y="-210.5" font-family="Helvetica,sans-Serif" font-size="10.00">include/medusa/bits</text>
<text text-anchor="middle" x="1102.5" y="-199.5" font-family="Helvetica,sans-Serif" font-size="10.00">/domains/PolyhedronShape.hpp</text>
</a>
</g>
</g>
<!-- Node2&#45;&gt;Node21 -->
<g id="edge45_Node000002_Node000021" class="edge">
<title>Node2&#45;&gt;Node21</title>
<g id="a_edge45_Node000002_Node000021"><a xlink:title=" ">
<path fill="none" stroke="#63b8ff" d="M1197.36,-473.8C1197.92,-429.58 1194.45,-333.83 1158.5,-264 1149.92,-247.33 1134.48,-232.6 1121.99,-222.52"/>
<polygon fill="#63b8ff" stroke="#63b8ff" points="1193.85,-473.82 1197.14,-483.89 1200.85,-473.96 1193.85,-473.82"/>
</a>
</g>
</g>
<!-- Node24 -->
<g id="Node000024" class="node">
<title>Node24</title>
<g id="a_Node000024"><a xlink:href="STLShape_8hpp.html" target="_top" xlink:title="Implementation of STL shapes.">
<polygon fill="white" stroke="#666666" points="585,-299.5 452,-299.5 452,-269.5 585,-269.5 585,-299.5"/>
<text text-anchor="start" x="460" y="-287.5" font-family="Helvetica,sans-Serif" font-size="10.00">include/medusa/bits</text>
<text text-anchor="middle" x="518.5" y="-276.5" font-family="Helvetica,sans-Serif" font-size="10.00">/domains/STLShape.hpp</text>
</a>
</g>
</g>
<!-- Node2&#45;&gt;Node24 -->
<g id="edge46_Node000002_Node000024" class="edge">
<title>Node2&#45;&gt;Node24</title>
<g id="a_edge46_Node000002_Node000024"><a xlink:title=" ">
<path fill="none" stroke="#63b8ff" d="M1092.31,-493.81C1005.13,-488.4 878.11,-476.07 770.5,-448 696.46,-428.69 674.71,-425.12 611.5,-382 576.9,-358.4 544.98,-320.28 529.08,-299.72"/>
<polygon fill="#63b8ff" stroke="#63b8ff" points="1092.28,-497.31 1102.47,-494.42 1092.7,-490.33 1092.28,-497.31"/>
</a>
</g>
</g>
<!-- Node27 -->
<g id="Node000027" class="node">
<title>Node27</title>
<g id="a_Node000027"><a xlink:href="GeneralSurfaceFill_8hpp.html" target="_top" xlink:title="Implementation of the general node placing algorithm for parametrically given surfaces.">
<polygon fill="white" stroke="#666666" points="1419,-222.5 1244,-222.5 1244,-192.5 1419,-192.5 1419,-222.5"/>
<text text-anchor="start" x="1252" y="-210.5" font-family="Helvetica,sans-Serif" font-size="10.00">include/medusa/bits</text>
<text text-anchor="middle" x="1331.5" y="-199.5" font-family="Helvetica,sans-Serif" font-size="10.00">/domains/GeneralSurfaceFill.hpp</text>
</a>
</g>
</g>
<!-- Node2&#45;&gt;Node27 -->
<g id="edge38_Node000002_Node000027" class="edge">
<title>Node2&#45;&gt;Node27</title>
<g id="a_edge38_Node000002_Node000027"><a xlink:title=" ">
<path fill="none" stroke="#63b8ff" d="M1212.97,-475.16C1218.6,-466.83 1224.68,-457.2 1229.5,-448 1253.29,-402.6 1252.52,-388.2 1272.5,-341 1290.86,-297.64 1313.88,-246.93 1324.95,-222.74"/>
<polygon fill="#63b8ff" stroke="#63b8ff" points="1209.94,-473.39 1207.13,-483.6 1215.7,-477.37 1209.94,-473.39"/>
</a>
</g>
</g>
<!-- Node29 -->
<g id="Node000029" class="node">
<title>Node29</title>
<g id="a_Node000029"><a xlink:href="HalfLinksRefine_8hpp.html" target="_top" xlink:title="Implementation of the half&#45;link refinement algorithm.">
<polygon fill="white" stroke="#666666" points="1443.5,-448 1281.5,-448 1281.5,-418 1443.5,-418 1443.5,-448"/>
<text text-anchor="start" x="1289.5" y="-436" font-family="Helvetica,sans-Serif" font-size="10.00">include/medusa/bits</text>
<text text-anchor="middle" x="1362.5" y="-425" font-family="Helvetica,sans-Serif" font-size="10.00">/domains/HalfLinksRefine.hpp</text>
</a>
</g>
</g>
<!-- Node2&#45;&gt;Node29 -->
<g id="edge42_Node000002_Node000029" class="edge">
<title>Node2&#45;&gt;Node29</title>
<g id="a_edge42_Node000002_Node000029"><a xlink:title=" ">
<path fill="none" stroke="#63b8ff" d="M1242.35,-480.32C1268.77,-470.14 1301.52,-457.51 1326.16,-448.01"/>
<polygon fill="#63b8ff" stroke="#63b8ff" points="1241,-477.09 1232.93,-483.95 1243.52,-483.62 1241,-477.09"/>
</a>
</g>
</g>
<!-- Node31 -->
<g id="Node000031" class="node">
<title>Node31</title>
<g id="a_Node000031"><a xlink:href="KDTreeMutable_8cpp.html" target="_top" xlink:title="Instantiations of KDTreeMutable.">
<polygon fill="white" stroke="#666666" points="1575.5,-448 1461.5,-448 1461.5,-418 1575.5,-418 1575.5,-448"/>
<text text-anchor="start" x="1469.5" y="-436" font-family="Helvetica,sans-Serif" font-size="10.00">src/spatial_search</text>
<text text-anchor="middle" x="1518.5" y="-425" font-family="Helvetica,sans-Serif" font-size="10.00">/KDTreeMutable.cpp</text>
</a>
</g>
</g>
<!-- Node2&#45;&gt;Node31 -->
<g id="edge47_Node000002_Node000031" class="edge">
<title>Node2&#45;&gt;Node31</title>
<g id="a_edge47_Node000002_Node000031"><a xlink:title=" ">
<path fill="none" stroke="#63b8ff" d="M1280.07,-482.03C1330.13,-472.38 1395,-459.71 1452.5,-448 1455.37,-447.42 1458.31,-446.81 1461.27,-446.2"/>
<polygon fill="#63b8ff" stroke="#63b8ff" points="1279.1,-478.65 1269.94,-483.98 1280.43,-485.53 1279.1,-478.65"/>
</a>
</g>
</g>
<!-- Node4 -->
<g id="Node000004" class="node">
<title>Node4</title>
<g id="a_Node000004"><a xlink:href="Domain_8hpp.html" target="_top" xlink:title="Header for Domain module.">
<polygon fill="white" stroke="#666666" points="617.5,-79.5 461.5,-79.5 461.5,-60.5 617.5,-60.5 617.5,-79.5"/>
<text text-anchor="middle" x="539.5" y="-67.5" font-family="Helvetica,sans-Serif" font-size="10.00">include/medusa/Domain.hpp</text>
</a>
</g>
</g>
<!-- Node3&#45;&gt;Node4 -->
<g id="edge3_Node000003_Node000004" class="edge">
<title>Node3&#45;&gt;Node4</title>
<g id="a_edge3_Node000003_Node000004"><a xlink:title=" ">
<path fill="none" stroke="#63b8ff" d="M181.5,-407.82C181.5,-378.78 181.5,-328.58 181.5,-285.5 181.5,-285.5 181.5,-285.5 181.5,-206.5 181.5,-161.07 199.44,-145.8 237.5,-121 273.51,-97.54 384.58,-83.76 461.48,-76.8"/>
<polygon fill="#63b8ff" stroke="#63b8ff" points="178,-407.86 181.5,-417.86 185,-407.86 178,-407.86"/>
</a>
</g>
</g>
<!-- Node6 -->
<g id="Node000006" class="node">
<title>Node6</title>
<g id="a_Node000006"><a xlink:href="BasicRelax_8cpp.html" target="_top" xlink:title="Instantiation of class for node relaxation.">
<polygon fill="white" stroke="#666666" points="153,-371 0,-371 0,-352 153,-352 153,-371"/>
<text text-anchor="middle" x="76.5" y="-359" font-family="Helvetica,sans-Serif" font-size="10.00">src/domains/BasicRelax.cpp</text>
</a>
</g>
</g>
<!-- Node3&#45;&gt;Node6 -->
<g id="edge5_Node000003_Node000006" class="edge">
<title>Node3&#45;&gt;Node6</title>
<g id="a_edge5_Node000003_Node000006"><a xlink:title=" ">
<path fill="none" stroke="#63b8ff" d="M151.84,-412.37C131.28,-398.76 104.91,-381.31 89.44,-371.07"/>
<polygon fill="#63b8ff" stroke="#63b8ff" points="149.98,-415.33 160.25,-417.94 153.84,-409.5 149.98,-415.33"/>
</a>
</g>
</g>
<!-- Node5 -->
<g id="Node000005" class="node">
<title>Node5</title>
<g id="a_Node000005"><a xlink:href="Medusa_8hpp.html" target="_top" xlink:title="Main header file that includes most other components.">
<polygon fill="white" stroke="#666666" points="699.5,-19 543.5,-19 543.5,0 699.5,0 699.5,-19"/>
<text text-anchor="middle" x="621.5" y="-7" font-family="Helvetica,sans-Serif" font-size="10.00">include/medusa/Medusa.hpp</text>
</a>
</g>
</g>
<!-- Node4&#45;&gt;Node5 -->
<g id="edge4_Node000004_Node000005" class="edge">
<title>Node4&#45;&gt;Node5</title>
<g id="a_edge4_Node000004_Node000005"><a xlink:title=" ">
<path fill="none" stroke="#63b8ff" d="M560.04,-54.35C575.57,-43.27 596.37,-28.43 609.35,-19.17"/>
<polygon fill="#63b8ff" stroke="#63b8ff" points="557.71,-51.71 551.6,-60.37 561.77,-57.41 557.71,-51.71"/>
</a>
</g>
</g>
<!-- Node7&#45;&gt;Node4 -->
<g id="edge7_Node000007_Node000004" class="edge">
<title>Node7&#45;&gt;Node4</title>
<g id="a_edge7_Node000007_Node000004"><a xlink:title=" ">
<path fill="none" stroke="#63b8ff" d="M769.26,-428.78C623.57,-422.31 324.25,-406.25 283.5,-382 239.27,-355.69 219.5,-336.96 219.5,-285.5 219.5,-285.5 219.5,-285.5 219.5,-206.5 219.5,-101.83 366.48,-76.8 461.22,-71.53"/>
<polygon fill="#63b8ff" stroke="#63b8ff" points="769.34,-432.29 779.48,-429.23 769.64,-425.3 769.34,-432.29"/>
</a>
</g>
</g>
<!-- Node8 -->
<g id="Node000008" class="node">
<title>Node8</title>
<g id="a_Node000008"><a xlink:href="BallShape_8hpp.html" target="_top" xlink:title="Implementation of class for ball shaped domains.">
<polygon fill="white" stroke="#666666" points="426.5,-376.5 292.5,-376.5 292.5,-346.5 426.5,-346.5 426.5,-376.5"/>
<text text-anchor="start" x="300.5" y="-364.5" font-family="Helvetica,sans-Serif" font-size="10.00">include/medusa/bits</text>
<text text-anchor="middle" x="359.5" y="-353.5" font-family="Helvetica,sans-Serif" font-size="10.00">/domains/BallShape.hpp</text>
</a>
</g>
</g>
<!-- Node7&#45;&gt;Node8 -->
<g id="edge8_Node000007_Node000008" class="edge">
<title>Node7&#45;&gt;Node8</title>
<g id="a_edge8_Node000007_Node000008"><a xlink:title=" ">
<path fill="none" stroke="#63b8ff" d="M769.33,-420.75C674.14,-407.22 516.06,-384.75 426.6,-372.04"/>
<polygon fill="#63b8ff" stroke="#63b8ff" points="769.08,-424.25 779.48,-422.19 770.07,-417.32 769.08,-424.25"/>
</a>
</g>
</g>
<!-- Node10 -->
<g id="Node000010" class="node">
<title>Node10</title>
<g id="a_Node000010"><a xlink:href="BoxShape_8hpp.html" target="_top" xlink:title="Implementation of class for box shaped domains.">
<polygon fill="white" stroke="#666666" points="754.5,-376.5 620.5,-376.5 620.5,-346.5 754.5,-346.5 754.5,-376.5"/>
<text text-anchor="start" x="628.5" y="-364.5" font-family="Helvetica,sans-Serif" font-size="10.00">include/medusa/bits</text>
<text text-anchor="middle" x="687.5" y="-353.5" font-family="Helvetica,sans-Serif" font-size="10.00">/domains/BoxShape.hpp</text>
</a>
</g>
</g>
<!-- Node7&#45;&gt;Node10 -->
<g id="edge11_Node000007_Node000010" class="edge">
<title>Node7&#45;&gt;Node10</title>
<g id="a_edge11_Node000007_Node000010"><a xlink:title=" ">
<path fill="none" stroke="#63b8ff" d="M806.71,-413.96C779.68,-402.29 745.01,-387.32 720.03,-376.54"/>
<polygon fill="#63b8ff" stroke="#63b8ff" points="805.35,-417.19 815.92,-417.94 808.13,-410.76 805.35,-417.19"/>
</a>
</g>
</g>
<!-- Node20 -->
<g id="Node000020" class="node">
<title>Node20</title>
<g id="a_Node000020"><a xlink:href="PolyhedronShape__fwd_8hpp.html" target="_top" xlink:title="Implementation of shape representing polyhedrons.">
<polygon fill="white" stroke="#666666" points="1150,-305 1001,-305 1001,-264 1150,-264 1150,-305"/>
<text text-anchor="start" x="1009" y="-293" font-family="Helvetica,sans-Serif" font-size="10.00">include/medusa/bits</text>
<text text-anchor="start" x="1009" y="-282" font-family="Helvetica,sans-Serif" font-size="10.00">/domains/PolyhedronShape</text>
<text text-anchor="middle" x="1075.5" y="-271" font-family="Helvetica,sans-Serif" font-size="10.00">_fwd.hpp</text>
</a>
</g>
</g>
<!-- Node7&#45;&gt;Node20 -->
<g id="edge29_Node000007_Node000020" class="edge">
<title>Node7&#45;&gt;Node20</title>
<g id="a_edge29_Node000007_Node000020"><a xlink:title=" ">
<path fill="none" stroke="#63b8ff" d="M927.76,-425.6C987.8,-418.91 1063.14,-405.93 1082.5,-382 1099.93,-360.45 1091.98,-326.59 1084.13,-305.24"/>
<polygon fill="#63b8ff" stroke="#63b8ff" points="927.08,-422.15 917.51,-426.7 927.83,-429.11 927.08,-422.15"/>
</a>
</g>
</g>
<!-- Node23 -->
<g id="Node000023" class="node">
<title>Node23</title>
<g id="a_Node000023"><a xlink:href="discretization__helpers__advanced_8hpp.html" target="_top" xlink:title="Contains helpers for discretizing various geometric objects that need more advanced parts of Medusa t...">
<polygon fill="white" stroke="#666666" points="1074,-382 943,-382 943,-341 1074,-341 1074,-382"/>
<text text-anchor="start" x="951" y="-370" font-family="Helvetica,sans-Serif" font-size="10.00">include/medusa/bits</text>
<text text-anchor="start" x="951" y="-359" font-family="Helvetica,sans-Serif" font-size="10.00">/domains/discretization</text>
<text text-anchor="middle" x="1008.5" y="-348" font-family="Helvetica,sans-Serif" font-size="10.00">_helpers_advanced.hpp</text>
</a>
</g>
</g>
<!-- Node7&#45;&gt;Node23 -->
<g id="edge32_Node000007_Node000023" class="edge">
<title>Node7&#45;&gt;Node23</title>
<g id="a_edge32_Node000007_Node000023"><a xlink:title=" ">
<path fill="none" stroke="#63b8ff" d="M890.16,-413.9C912.66,-404.13 940.44,-392.06 963.44,-382.07"/>
<polygon fill="#63b8ff" stroke="#63b8ff" points="888.66,-410.74 880.88,-417.94 891.44,-417.16 888.66,-410.74"/>
</a>
</g>
</g>
<!-- Node26 -->
<g id="Node000026" class="node">
<title>Node26</title>
<g id="a_Node000026"><a xlink:href="GeneralFill_8cpp.html" target="_top" xlink:title="Instantiations of Poisson disk sampling algorithm.">
<polygon fill="white" stroke="#666666" points="924.5,-371 772.5,-371 772.5,-352 924.5,-352 924.5,-371"/>
<text text-anchor="middle" x="848.5" y="-359" font-family="Helvetica,sans-Serif" font-size="10.00">src/domains/GeneralFill.cpp</text>
</a>
</g>
</g>
<!-- Node7&#45;&gt;Node26 -->
<g id="edge37_Node000007_Node000026" class="edge">
<title>Node7&#45;&gt;Node26</title>
<g id="a_edge37_Node000007_Node000026"><a xlink:title=" ">
<path fill="none" stroke="#63b8ff" d="M848.5,-407.56C848.5,-394.95 848.5,-380.35 848.5,-371.27"/>
<polygon fill="#63b8ff" stroke="#63b8ff" points="845,-407.94 848.5,-417.94 852,-407.94 845,-407.94"/>
</a>
</g>
</g>
<!-- Node8&#45;&gt;Node4 -->
<g id="edge9_Node000008_Node000004" class="edge">
<title>Node8&#45;&gt;Node4</title>
<g id="a_edge9_Node000008_Node000004"><a xlink:title=" ">
<path fill="none" stroke="#63b8ff" d="M314.51,-341.31C299.66,-332.54 284.82,-320.57 276.5,-305 267.91,-288.93 269.01,-280.61 276.5,-264 323.31,-160.23 458.75,-100.43 514.78,-79.53"/>
<polygon fill="#63b8ff" stroke="#63b8ff" points="313.26,-344.61 323.71,-346.35 316.62,-338.47 313.26,-344.61"/>
</a>
</g>
</g>
<!-- Node9 -->
<g id="Node000009" class="node">
<title>Node9</title>
<g id="a_Node000009"><a xlink:href="BallShape_8cpp.html" target="_top" xlink:title="Instantiation of class for ball shaped domains.">
<polygon fill="white" stroke="#666666" points="433.5,-294 285.5,-294 285.5,-275 433.5,-275 433.5,-294"/>
<text text-anchor="middle" x="359.5" y="-282" font-family="Helvetica,sans-Serif" font-size="10.00">src/domains/BallShape.cpp</text>
</a>
</g>
</g>
<!-- Node8&#45;&gt;Node9 -->
<g id="edge10_Node000008_Node000009" class="edge">
<title>Node8&#45;&gt;Node9</title>
<g id="a_edge10_Node000008_Node000009"><a xlink:title=" ">
<path fill="none" stroke="#63b8ff" d="M359.5,-336.18C359.5,-321.86 359.5,-304.61 359.5,-294.37"/>
<polygon fill="#63b8ff" stroke="#63b8ff" points="356,-336.39 359.5,-346.39 363,-336.39 356,-336.39"/>
</a>
</g>
</g>
<!-- Node10&#45;&gt;Node4 -->
<g id="edge12_Node000010_Node000004" class="edge">
<title>Node10&#45;&gt;Node4</title>
<g id="a_edge12_Node000010_Node000004"><a xlink:title=" ">
<path fill="none" stroke="#63b8ff" d="M662.78,-339.44C652.46,-329.72 640.93,-317.57 632.5,-305 600.77,-257.7 619.87,-229.99 582.5,-187 562.1,-163.53 537.82,-178.06 522.5,-151 509.21,-127.52 525.01,-94.83 534.04,-79.53"/>
<polygon fill="#63b8ff" stroke="#63b8ff" points="660.62,-342.21 670.37,-346.36 665.34,-337.03 660.62,-342.21"/>
</a>
</g>
</g>
<!-- Node11 -->
<g id="Node000011" class="node">
<title>Node11</title>
<g id="a_Node000011"><a xlink:href="NURBSPatch__fwd_8hpp.html" target="_top" xlink:title="Declaration of the NURBS patch class.">
<polygon fill="white" stroke="#666666" points="933,-305 808,-305 808,-264 933,-264 933,-305"/>
<text text-anchor="start" x="816" y="-293" font-family="Helvetica,sans-Serif" font-size="10.00">include/medusa/bits</text>
<text text-anchor="start" x="816" y="-282" font-family="Helvetica,sans-Serif" font-size="10.00">/domains/NURBSPatch</text>
<text text-anchor="middle" x="870.5" y="-271" font-family="Helvetica,sans-Serif" font-size="10.00">_fwd.hpp</text>
</a>
</g>
</g>
<!-- Node10&#45;&gt;Node11 -->
<g id="edge13_Node000010_Node000011" class="edge">
<title>Node10&#45;&gt;Node11</title>
<g id="a_edge13_Node000010_Node000011"><a xlink:title=" ">
<path fill="none" stroke="#63b8ff" d="M731.31,-342.54C758.89,-331.24 794.48,-316.66 822.77,-305.06"/>
<polygon fill="#63b8ff" stroke="#63b8ff" points="729.85,-339.36 721.92,-346.39 732.5,-345.84 729.85,-339.36"/>
</a>
</g>
</g>
<!-- Node10&#45;&gt;Node15 -->
<g id="edge27_Node000010_Node000015" class="edge">
<title>Node10&#45;&gt;Node15</title>
<g id="a_edge27_Node000010_Node000015"><a xlink:title=" ">
<path fill="none" stroke="#63b8ff" d="M750.91,-343.97C755.17,-342.94 759.39,-341.94 763.5,-341 842.17,-322.96 880.33,-357.66 941.5,-305 987.11,-265.74 982.53,-183.84 978.57,-151.03"/>
<polygon fill="#63b8ff" stroke="#63b8ff" points="749.85,-340.63 740.98,-346.41 751.52,-347.42 749.85,-340.63"/>
</a>
</g>
</g>
<!-- Node19 -->
<g id="Node000019" class="node">
<title>Node19</title>
<g id="a_Node000019"><a xlink:href="BoxShape_8cpp.html" target="_top" xlink:title="Instantiation of class for box shaped domains.">
<polygon fill="white" stroke="#666666" points="789.5,-294 641.5,-294 641.5,-275 789.5,-275 789.5,-294"/>
<text text-anchor="middle" x="715.5" y="-282" font-family="Helvetica,sans-Serif" font-size="10.00">src/domains/BoxShape.cpp</text>
</a>
</g>
</g>
<!-- Node10&#45;&gt;Node19 -->
<g id="edge28_Node000010_Node000019" class="edge">
<title>Node10&#45;&gt;Node19</title>
<g id="a_edge28_Node000010_Node000019"><a xlink:title=" ">
<path fill="none" stroke="#63b8ff" d="M696.27,-337.02C701.67,-322.54 708.29,-304.81 712.19,-294.37"/>
<polygon fill="#63b8ff" stroke="#63b8ff" points="692.99,-335.8 692.77,-346.39 699.54,-338.25 692.99,-335.8"/>
</a>
</g>
</g>
<!-- Node12 -->
<g id="Node000012" class="node">
<title>Node12</title>
<g id="a_Node000012"><a xlink:href="Domain__fwd_8hpp.html" target="_top" xlink:title="Header for Domain module, declarations only.">
<polygon fill="white" stroke="#666666" points="883,-151 748,-151 748,-121 883,-121 883,-151"/>
<text text-anchor="start" x="756" y="-139" font-family="Helvetica,sans-Serif" font-size="10.00">include/medusa/Domain</text>
<text text-anchor="middle" x="815.5" y="-128" font-family="Helvetica,sans-Serif" font-size="10.00">_fwd.hpp</text>
</a>
</g>
</g>
<!-- Node11&#45;&gt;Node12 -->
<g id="edge14_Node000011_Node000012" class="edge">
<title>Node11&#45;&gt;Node12</title>
<g id="a_edge14_Node000011_Node000012"><a xlink:title=" ">
<path fill="none" stroke="#63b8ff" d="M840.98,-256.29C833.7,-247.95 826.77,-238.25 822.5,-228 811.89,-202.55 812.47,-169.66 813.93,-151.2"/>
<polygon fill="#63b8ff" stroke="#63b8ff" points="838.62,-258.9 847.99,-263.84 843.75,-254.13 838.62,-258.9"/>
</a>
</g>
</g>
<!-- Node14 -->
<g id="Node000014" class="node">
<title>Node14</title>
<g id="a_Node000014"><a xlink:href="NURBSPatch_8hpp.html" target="_top" xlink:title="Implementation of the NURBS patch class.">
<polygon fill="white" stroke="#666666" points="775.5,-222.5 629.5,-222.5 629.5,-192.5 775.5,-192.5 775.5,-222.5"/>
<text text-anchor="start" x="637.5" y="-210.5" font-family="Helvetica,sans-Serif" font-size="10.00">include/medusa/bits</text>
<text text-anchor="middle" x="702.5" y="-199.5" font-family="Helvetica,sans-Serif" font-size="10.00">/domains/NURBSPatch.hpp</text>
</a>
</g>
</g>
<!-- Node11&#45;&gt;Node14 -->
<g id="edge18_Node000011_Node000014" class="edge">
<title>Node11&#45;&gt;Node14</title>
<g id="a_edge18_Node000011_Node000014"><a xlink:title=" ">
<path fill="none" stroke="#63b8ff" d="M817.34,-259.77C789.94,-247.54 757.46,-233.04 734.04,-222.58"/>
<polygon fill="#63b8ff" stroke="#63b8ff" points="816.24,-263.11 826.8,-263.99 819.09,-256.72 816.24,-263.11"/>
</a>
</g>
</g>
<!-- Node18 -->
<g id="Node000018" class="node">
<title>Node18</title>
<g id="a_Node000018"><a xlink:href="NURBSShape__fwd_8hpp.html" target="_top" xlink:title="Declaration of NURBSShape class.">
<polygon fill="white" stroke="#666666" points="961,-228 832,-228 832,-187 961,-187 961,-228"/>
<text text-anchor="start" x="840" y="-216" font-family="Helvetica,sans-Serif" font-size="10.00">include/medusa/bits</text>
<text text-anchor="start" x="840" y="-205" font-family="Helvetica,sans-Serif" font-size="10.00">/domains/NURBSShape</text>
<text text-anchor="middle" x="896.5" y="-194" font-family="Helvetica,sans-Serif" font-size="10.00">_fwd.hpp</text>
</a>
</g>
</g>
<!-- Node11&#45;&gt;Node18 -->
<g id="edge24_Node000011_Node000018" class="edge">
<title>Node11&#45;&gt;Node18</title>
<g id="a_edge24_Node000011_Node000018"><a xlink:title=" ">
<path fill="none" stroke="#63b8ff" d="M880.64,-254.26C883.68,-245.48 886.94,-236.07 889.71,-228.07"/>
<polygon fill="#63b8ff" stroke="#63b8ff" points="877.3,-253.2 877.33,-263.79 883.91,-255.49 877.3,-253.2"/>
</a>
</g>
</g>
<!-- Node12&#45;&gt;Node4 -->
<g id="edge15_Node000012_Node000004" class="edge">
<title>Node12&#45;&gt;Node4</title>
<g id="a_edge15_Node000012_Node000004"><a xlink:title=" ">
<path fill="none" stroke="#63b8ff" d="M745.1,-118.68C691.26,-106.19 619.19,-89.48 576.23,-79.52"/>
<polygon fill="#63b8ff" stroke="#63b8ff" points="744.4,-122.11 754.93,-120.95 745.98,-115.29 744.4,-122.11"/>
</a>
</g>
</g>
<!-- Node13 -->
<g id="Node000013" class="node">
<title>Node13</title>
<g id="a_Node000013"><a xlink:href="Medusa__fwd_8hpp.html" target="_top" xlink:title="Main header file that includes only declarations for some heavy classes such as mm::WLS to reduce com...">
<polygon fill="white" stroke="#666666" points="841,-85 706,-85 706,-55 841,-55 841,-85"/>
<text text-anchor="start" x="714" y="-73" font-family="Helvetica,sans-Serif" font-size="10.00">include/medusa/Medusa</text>
<text text-anchor="middle" x="773.5" y="-62" font-family="Helvetica,sans-Serif" font-size="10.00">_fwd.hpp</text>
</a>
</g>
</g>
<!-- Node12&#45;&gt;Node13 -->
<g id="edge16_Node000012_Node000013" class="edge">
<title>Node12&#45;&gt;Node13</title>
<g id="a_edge16_Node000012_Node000013"><a xlink:title=" ">
<path fill="none" stroke="#63b8ff" d="M800.57,-112.24C794.64,-103.21 788.01,-93.11 782.8,-85.16"/>
<polygon fill="#63b8ff" stroke="#63b8ff" points="797.77,-114.36 806.18,-120.8 803.62,-110.52 797.77,-114.36"/>
</a>
</g>
</g>
<!-- Node13&#45;&gt;Node5 -->
<g id="edge17_Node000013_Node000005" class="edge">
<title>Node13&#45;&gt;Node5</title>
<g id="a_edge17_Node000013_Node000005"><a xlink:title=" ">
<path fill="none" stroke="#63b8ff" d="M727.6,-51.33C699.92,-40.68 665.88,-27.58 643.95,-19.14"/>
<polygon fill="#63b8ff" stroke="#63b8ff" points="726.5,-54.66 737.09,-54.99 729.02,-48.13 726.5,-54.66"/>
</a>
</g>
</g>
<!-- Node14&#45;&gt;Node4 -->
<g id="edge19_Node000014_Node000004" class="edge">
<title>Node14&#45;&gt;Node4</title>
<g id="a_edge19_Node000014_Node000004"><a xlink:title=" ">
<path fill="none" stroke="#63b8ff" d="M708.87,-182.66C712.36,-164.02 713.65,-138.42 700.5,-121 681.02,-95.19 648.36,-82.34 617.52,-76.08"/>
<polygon fill="#63b8ff" stroke="#63b8ff" points="705.45,-181.95 706.73,-192.47 712.29,-183.45 705.45,-181.95"/>
</a>
</g>
</g>
<!-- Node14&#45;&gt;Node15 -->
<g id="edge20_Node000014_Node000015" class="edge">
<title>Node14&#45;&gt;Node15</title>
<g id="a_edge20_Node000014_Node000015"><a xlink:title=" ">
<path fill="none" stroke="#63b8ff" d="M767.68,-189.97C814.44,-178.11 876.78,-162.3 921.13,-151.04"/>
<polygon fill="#63b8ff" stroke="#63b8ff" points="766.78,-186.58 757.95,-192.44 768.5,-193.37 766.78,-186.58"/>
</a>
</g>
</g>
<!-- Node17 -->
<g id="Node000017" class="node">
<title>Node17</title>
<g id="a_Node000017"><a xlink:href="NURBSPatch_8cpp.html" target="_top" xlink:title="Instantiations of commonly used NURBSPatch instances.">
<polygon fill="white" stroke="#666666" points="691.5,-145.5 531.5,-145.5 531.5,-126.5 691.5,-126.5 691.5,-145.5"/>
<text text-anchor="middle" x="611.5" y="-133.5" font-family="Helvetica,sans-Serif" font-size="10.00">src/domains/NURBSPatch.cpp</text>
</a>
</g>
</g>
<!-- Node14&#45;&gt;Node17 -->
<g id="edge23_Node000014_Node000017" class="edge">
<title>Node14&#45;&gt;Node17</title>
<g id="a_edge23_Node000014_Node000017"><a xlink:title=" ">
<path fill="none" stroke="#63b8ff" d="M675.84,-186.14C658.16,-172.64 635.88,-155.62 622.72,-145.57"/>
<polygon fill="#63b8ff" stroke="#63b8ff" points="674.01,-189.15 684.08,-192.44 678.26,-183.58 674.01,-189.15"/>
</a>
</g>
</g>
<!-- Node15&#45;&gt;Node4 -->
<g id="edge21_Node000015_Node000004" class="edge">
<title>Node15&#45;&gt;Node4</title>
<g id="a_edge21_Node000015_Node000004"><a xlink:title=" ">
<path fill="none" stroke="#63b8ff" d="M891.81,-121.05C891.7,-121.03 891.6,-121.02 891.5,-121 790.53,-105.52 672.99,-89.15 602.51,-79.52"/>
<polygon fill="#63b8ff" stroke="#63b8ff" points="891.01,-124.46 901.43,-122.54 892.08,-117.55 891.01,-124.46"/>
</a>
</g>
</g>
<!-- Node16 -->
<g id="Node000016" class="node">
<title>Node16</title>
<g id="a_Node000016"><a xlink:href="NURBSShape_8cpp.html" target="_top" xlink:title="Instantiations of commonly used NURBSShape instances.">
<polygon fill="white" stroke="#666666" points="1058.5,-79.5 894.5,-79.5 894.5,-60.5 1058.5,-60.5 1058.5,-79.5"/>
<text text-anchor="middle" x="976.5" y="-67.5" font-family="Helvetica,sans-Serif" font-size="10.00">src/domains/NURBSShape.cpp</text>
</a>
</g>
</g>
<!-- Node15&#45;&gt;Node16 -->
<g id="edge22_Node000015_Node000016" class="edge">
<title>Node15&#45;&gt;Node16</title>
<g id="a_edge22_Node000015_Node000016"><a xlink:title=" ">
<path fill="none" stroke="#63b8ff" d="M976.5,-110.6C976.5,-99.8 976.5,-87.78 976.5,-79.84"/>
<polygon fill="#63b8ff" stroke="#63b8ff" points="973,-110.8 976.5,-120.8 980,-110.8 973,-110.8"/>
</a>
</g>
</g>
<!-- Node18&#45;&gt;Node12 -->
<g id="edge25_Node000018_Node000012" class="edge">
<title>Node18&#45;&gt;Node12</title>
<g id="a_edge25_Node000018_Node000012"><a xlink:title=" ">
<path fill="none" stroke="#63b8ff" d="M865.76,-180.12C854.23,-170.23 841.58,-159.38 831.86,-151.04"/>
<polygon fill="#63b8ff" stroke="#63b8ff" points="863.64,-182.91 873.51,-186.77 868.2,-177.6 863.64,-182.91"/>
</a>
</g>
</g>
<!-- Node18&#45;&gt;Node15 -->
<g id="edge26_Node000018_Node000015" class="edge">
<title>Node18&#45;&gt;Node15</title>
<g id="a_edge26_Node000018_Node000015"><a xlink:title=" ">
<path fill="none" stroke="#63b8ff" d="M926.87,-180.12C938.25,-170.23 950.74,-159.38 960.34,-151.04"/>
<polygon fill="#63b8ff" stroke="#63b8ff" points="924.46,-177.57 919.21,-186.77 929.06,-182.85 924.46,-177.57"/>
</a>
</g>
</g>
<!-- Node20&#45;&gt;Node21 -->
<g id="edge30_Node000020_Node000021" class="edge">
<title>Node20&#45;&gt;Node21</title>
<g id="a_edge30_Node000020_Node000021"><a xlink:title=" ">
<path fill="none" stroke="#63b8ff" d="M1086.02,-254.27C1089.9,-243.49 1094.13,-231.75 1097.33,-222.86"/>
<polygon fill="#63b8ff" stroke="#63b8ff" points="1082.69,-253.2 1082.59,-263.79 1089.27,-255.57 1082.69,-253.2"/>
</a>
</g>
</g>
<!-- Node22 -->
<g id="Node000022" class="node">
<title>Node22</title>
<g id="a_Node000022"><a xlink:href="PolyhedronShape_8cpp.html" target="_top" xlink:title="Instantiation of PolyhedronShape class.">
<polygon fill="white" stroke="#666666" points="1253.5,-145.5 1069.5,-145.5 1069.5,-126.5 1253.5,-126.5 1253.5,-145.5"/>
<text text-anchor="middle" x="1161.5" y="-133.5" font-family="Helvetica,sans-Serif" font-size="10.00">src/domains/PolyhedronShape.cpp</text>
</a>
</g>
</g>
<!-- Node21&#45;&gt;Node22 -->
<g id="edge31_Node000021_Node000022" class="edge">
<title>Node21&#45;&gt;Node22</title>
<g id="a_edge31_Node000021_Node000022"><a xlink:title=" ">
<path fill="none" stroke="#63b8ff" d="M1121.01,-184.7C1132.18,-171.54 1145.8,-155.49 1154.06,-145.77"/>
<polygon fill="#63b8ff" stroke="#63b8ff" points="1118.24,-182.55 1114.44,-192.44 1123.58,-187.08 1118.24,-182.55"/>
</a>
</g>
</g>
<!-- Node23&#45;&gt;Node20 -->
<g id="edge33_Node000023_Node000020" class="edge">
<title>Node23&#45;&gt;Node20</title>
<g id="a_edge33_Node000023_Node000020"><a xlink:title=" ">
<path fill="none" stroke="#63b8ff" d="M1032.86,-333.23C1041.19,-323.91 1050.34,-313.67 1058.01,-305.07"/>
<polygon fill="#63b8ff" stroke="#63b8ff" points="1030.16,-331.01 1026.1,-340.79 1035.38,-335.67 1030.16,-331.01"/>
</a>
</g>
</g>
<!-- Node23&#45;&gt;Node24 -->
<g id="edge34_Node000023_Node000024" class="edge">
<title>Node23&#45;&gt;Node24</title>
<g id="a_edge34_Node000023_Node000024"><a xlink:title=" ">
<path fill="none" stroke="#63b8ff" d="M932.58,-340.96C799.33,-316.38 762.58,-323.89 632.5,-305 617.1,-302.76 600.58,-300.09 585.02,-297.46"/>
<polygon fill="#63b8ff" stroke="#63b8ff" points="932.29,-344.47 942.76,-342.87 933.58,-337.59 932.29,-344.47"/>
</a>
</g>
</g>
<!-- Node24&#45;&gt;Node4 -->
<g id="edge35_Node000024_Node000004" class="edge">
<title>Node24&#45;&gt;Node4</title>
<g id="a_edge35_Node000024_Node000004"><a xlink:title=" ">
<path fill="none" stroke="#63b8ff" d="M462.02,-265.08C445,-256.59 428.27,-244.6 418.5,-228 409.26,-212.3 411.35,-203.76 418.5,-187 440.31,-135.88 496.93,-96.47 524.28,-79.75"/>
<polygon fill="#63b8ff" stroke="#63b8ff" points="460.91,-268.43 471.45,-269.45 463.84,-262.07 460.91,-268.43"/>
</a>
</g>
</g>
<!-- Node25 -->
<g id="Node000025" class="node">
<title>Node25</title>
<g id="a_Node000025"><a xlink:href="STLShape_8cpp.html" target="_top" xlink:title="Instantiation of class for STL domains.">
<polygon fill="white" stroke="#666666" points="573.5,-217 427.5,-217 427.5,-198 573.5,-198 573.5,-217"/>
<text text-anchor="middle" x="500.5" y="-205" font-family="Helvetica,sans-Serif" font-size="10.00">src/domains/STLShape.cpp</text>
</a>
</g>
</g>
<!-- Node24&#45;&gt;Node25 -->
<g id="edge36_Node000024_Node000025" class="edge">
<title>Node24&#45;&gt;Node25</title>
<g id="a_edge36_Node000024_Node000025"><a xlink:title=" ">
<path fill="none" stroke="#63b8ff" d="M512.76,-259.6C509.31,-245.2 505.11,-227.71 502.63,-217.37"/>
<polygon fill="#63b8ff" stroke="#63b8ff" points="509.38,-260.49 515.11,-269.39 516.18,-258.85 509.38,-260.49"/>
</a>
</g>
</g>
<!-- Node27&#45;&gt;Node4 -->
<g id="edge39_Node000027_Node000004" class="edge">
<title>Node27&#45;&gt;Node4</title>
<g id="a_edge39_Node000027_Node000004"><a xlink:title=" ">
<path fill="none" stroke="#63b8ff" d="M1319.91,-183.24C1308.39,-162.89 1288.68,-134.55 1262.5,-121 1206.54,-92.03 759.33,-89.8 696.5,-85 670.85,-83.04 642.87,-80.63 617.73,-78.37"/>
<polygon fill="#63b8ff" stroke="#63b8ff" points="1316.92,-185.07 1324.76,-192.21 1323.08,-181.75 1316.92,-185.07"/>
</a>
</g>
</g>
<!-- Node27&#45;&gt;Node15 -->
<g id="edge40_Node000027_Node000015" class="edge">
<title>Node27&#45;&gt;Node15</title>
<g id="a_edge40_Node000027_Node000015"><a xlink:title=" ">
<path fill="none" stroke="#63b8ff" d="M1249.7,-190.49C1188.83,-178.57 1106.55,-162.46 1048.23,-151.04"/>
<polygon fill="#63b8ff" stroke="#63b8ff" points="1249.17,-193.95 1259.66,-192.44 1250.52,-187.08 1249.17,-193.95"/>
</a>
</g>
</g>
<!-- Node28 -->
<g id="Node000028" class="node">
<title>Node28</title>
<g id="a_Node000028"><a xlink:href="GeneralSurfaceFill_8cpp.html" target="_top" xlink:title="Instantiations of commonly used GeneralSurfaceFill instances.">
<polygon fill="white" stroke="#666666" points="1463.5,-151 1309.5,-151 1309.5,-121 1463.5,-121 1463.5,-151"/>
<text text-anchor="start" x="1317.5" y="-139" font-family="Helvetica,sans-Serif" font-size="10.00">src/domains/GeneralSurface</text>
<text text-anchor="middle" x="1386.5" y="-128" font-family="Helvetica,sans-Serif" font-size="10.00">Fill.cpp</text>
</a>
</g>
</g>
<!-- Node27&#45;&gt;Node28 -->
<g id="edge41_Node000027_Node000028" class="edge">
<title>Node27&#45;&gt;Node28</title>
<g id="a_edge41_Node000027_Node000028"><a xlink:title=" ">
<path fill="none" stroke="#63b8ff" d="M1348.89,-184.53C1357.56,-173.57 1367.79,-160.65 1375.39,-151.04"/>
<polygon fill="#63b8ff" stroke="#63b8ff" points="1346.09,-182.42 1342.63,-192.44 1351.58,-186.77 1346.09,-182.42"/>
</a>
</g>
</g>
<!-- Node30 -->
<g id="Node000030" class="node">
<title>Node30</title>
<g id="a_Node000030"><a xlink:href="HalfLinksRefine_8cpp.html" target="_top" xlink:title="Explicit instantiations for common parameters.">
<polygon fill="white" stroke="#666666" points="1457.5,-371 1281.5,-371 1281.5,-352 1457.5,-352 1457.5,-371"/>
<text text-anchor="middle" x="1369.5" y="-359" font-family="Helvetica,sans-Serif" font-size="10.00">src/domains/HalfLinksRefine.cpp</text>
</a>
</g>
</g>
<!-- Node29&#45;&gt;Node30 -->
<g id="edge43_Node000029_Node000030" class="edge">
<title>Node29&#45;&gt;Node30</title>
<g id="a_edge43_Node000029_Node000030"><a xlink:title=" ">
<path fill="none" stroke="#63b8ff" d="M1364.92,-407.94C1366.2,-395.24 1367.69,-380.44 1368.62,-371.27"/>
<polygon fill="#63b8ff" stroke="#63b8ff" points="1361.44,-407.64 1363.92,-417.94 1368.4,-408.34 1361.44,-407.64"/>
</a>
</g>
</g>
</g>
</svg>

<g id="navigator" transform="translate(0 0)" fill="#404254">
  <rect fill="#f2f5e9" fill-opacity="0.5" stroke="#606060" stroke-width=".5" x="0" y="0" width="60" height="60"/>
  <use id="zoomplus" xlink:href="#zoomPlus" x="17" y="9" onmousedown="handleZoom(evt,'in')"/>
  <use id="zoomminus" xlink:href="#zoomMin" x="42" y="9" onmousedown="handleZoom(evt,'out')"/>
  <use id="reset" xlink:href="#resetDef" x="30" y="36" onmousedown="handleReset()"/>
   <use id="arrowup" xlink:href="#arrowUp" x="0" y="0" onmousedown="handlePan(0,-1)"/>
  <use id="arrowright" xlink:href="#arrowRight" x="0" y="0" onmousedown="handlePan(1,0)"/>
  <use id="arrowdown" xlink:href="#arrowDown" x="0" y="0" onmousedown="handlePan(0,1)"/>
  <use id="arrowleft" xlink:href="#arrowLeft" x="0" y="0" onmousedown="handlePan(-1,0)"/>
</g>
<svg viewBox="0 0 15 15" width="100%" height="30px" preserveAspectRatio="xMaxYMin meet">
 <g id="arrow_out" transform="scale(0.3 0.3)">
  <a xlink:href="KDTreeMutable__fwd_8hpp__dep__incl_org.svg" target="_base">
   <rect id="button" ry="5" rx="5" y="6" x="6" height="38" width="38"
        fill="#f2f5e9" fill-opacity="0.5" stroke="#606060" stroke-width="1.0"/>
   <path id="arrow"
     d="M 11.500037,31.436501 C 11.940474,20.09759 22.043105,11.32322 32.158766,21.979434 L 37.068811,17.246167 C 37.068811,17.246167 37.088388,32 37.088388,32 L 22.160133,31.978069 C 22.160133,31.978069 26.997745,27.140456 26.997745,27.140456 C 18.528582,18.264221 13.291696,25.230495 11.500037,31.436501 z"
     style="fill:#404040;"/>
  </a>
 </g>
</svg>

<style type='text/css'>
<![CDATA[
[data-mouse-over-selected='false'] { opacity: 0.7; }
[data-mouse-over-selected='true']  { opacity: 1.0; }
]]>
</style>
<script type="application/ecmascript"><![CDATA[
document.addEventListener('DOMContentLoaded', (event) => {
  highlightEdges();
  highlightAdjacentNodes();
});
]]></script>
</svg>
