<?xml version="1.0" encoding="UTF-8" standalone="no"?>
<!DOCTYPE svg PUBLIC "-//W3C//DTD SVG 1.1//EN"
 "http://www.w3.org/Graphics/SVG/1.1/DTD/svg11.dtd">
<!-- Generated by graphviz version 2.43.0 (0)
 -->
<!-- Title: include/medusa/bits/spatial_search/KDTree.hpp Pages: 1 -->
<!--zoomable 324 -->

<svg id="main" version="1.1" xmlns="http://www.w3.org/2000/svg" xmlns:xlink="http://www.w3.org/1999/xlink" xml:space="preserve" onload="init(evt)">
<style type="text/css"><![CDATA[
.node, .edge {opacity: 0.7;}
.node.selected, .edge.selected {opacity: 1;}
.edge:hover path { stroke: red; }
.edge:hover polygon { stroke: red; fill: red; }
]]></style>

<defs>
  <circle id="rim" cx="0" cy="0" r="7"/>
  <circle id="rim2" cx="0" cy="0" r="3.5"/>
  <g id="zoomPlus">
    <use xlink:href="#rim" fill="#404040"><set attributeName="fill" to="#808080" begin="zoomplus.mouseover" end="zoomplus.mouseout"/></use>
    <path d="M-4,0h8M0,-4v8" fill="none" stroke="white" stroke-width="1.5" pointer-events="none"/>
  </g>
  <g id="zoomMin">
    <use xlink:href="#rim" fill="#404040"><set attributeName="fill" to="#808080" begin="zoomminus.mouseover" end="zoomminus.mouseout"/></use>
    <path d="M-4,0h8" fill="none" stroke="white" stroke-width="1.5" pointer-events="none"/>
  </g>
  <g id="arrowUp" transform="translate(30 24)">
    <use xlink:href="#rim"/>
    <path pointer-events="none" fill="none" stroke="white" stroke-width="1.5" d="M0,-3.0v7 M-2.5,-0.5L0,-3.0L2.5,-0.5"/>
  </g>
  <g id="arrowRight" transform="rotate(90) translate(36 -43)">
    <use xlink:href="#rim"/>
    <path pointer-events="none" fill="none" stroke="white" stroke-width="1.5" d="M0,-3.0v7 M-2.5,-0.5L0,-3.0L2.5,-0.5"/>
  </g>
  <g id="arrowDown" transform="rotate(180) translate(-30 -48)">
    <use xlink:href="#rim"/>
    <path pointer-events="none" fill="none" stroke="white" stroke-width="1.5" d="M0,-3.0v7 M-2.5,-0.5L0,-3.0L2.5,-0.5"/>
  </g>
  <g id="arrowLeft" transform="rotate(270) translate(-36 17)">
    <use xlink:href="#rim"/>
    <path pointer-events="none" fill="none" stroke="white" stroke-width="1.5" d="M0,-3.0v7 M-2.5,-0.5L0,-3.0L2.5,-0.5"/>
  </g>
  <g id="resetDef">
    <use xlink:href="#rim2" fill="#404040"><set attributeName="fill" to="#808080" begin="reset.mouseover" end="reset.mouseout"/></use>
  </g>
</defs>
<script type="application/ecmascript">
var viewWidth = 599;
var viewHeight = 324;
var sectionId = 'dynsection-0';
</script>
<script type="application/ecmascript" xlink:href="svg.min.js"/>
<svg id="graph" class="graph">
<g id="viewport">
<title>include/medusa/bits/spatial_search/KDTree.hpp</title>
<!-- Node1 -->
<g id="Node000001" class="node">
<title>Node1</title>
<g id="a_Node000001"><a xlink:title="Implementation of KDTree.">
<polygon fill="#999999" stroke="#666666" points="563.14,-316 414.14,-316 414.14,-286 563.14,-286 563.14,-316"/>
<text text-anchor="start" x="422.14" y="-304" font-family="Helvetica,sans-Serif" font-size="10.00">include/medusa/bits</text>
<text text-anchor="middle" x="488.64" y="-293" font-family="Helvetica,sans-Serif" font-size="10.00">/spatial_search/KDTree.hpp</text>
</a>
</g>
</g>
<!-- Node2 -->
<g id="Node000002" class="node">
<title>Node2</title>
<g id="a_Node000002"><a xlink:href="KDTree__fwd_8hpp.html" target="_top" xlink:title="Declaration of KDTree.">
<polygon fill="white" stroke="#666666" points="325.14,-250 230.14,-250 230.14,-231 325.14,-231 325.14,-250"/>
<text text-anchor="middle" x="277.64" y="-238" font-family="Helvetica,sans-Serif" font-size="10.00">KDTree_fwd.hpp</text>
</a>
</g>
</g>
<!-- Node1&#45;&gt;Node2 -->
<g id="edge1_Node000001_Node000002" class="edge">
<title>Node1&#45;&gt;Node2</title>
<g id="a_edge1_Node000001_Node000002"><a xlink:title=" ">
<path fill="none" stroke="#63b8ff" d="M438.1,-285.99C401.37,-275.8 352.31,-262.2 318.15,-252.73"/>
<polygon fill="#63b8ff" stroke="#63b8ff" points="319.07,-249.35 308.49,-250.05 317.2,-256.1 319.07,-249.35"/>
</a>
</g>
</g>
<!-- Node7 -->
<g id="Node000007" class="node">
<title>Node7</title>
<g id="a_Node000007"><a xlink:href="assert_8hpp.html" target="_top" xlink:title="Implementation of custom assert and debug utilities.">
<polygon fill="white" stroke="#666666" points="566.14,-129 411.14,-129 411.14,-110 566.14,-110 566.14,-129"/>
<text text-anchor="middle" x="488.64" y="-117" font-family="Helvetica,sans-Serif" font-size="10.00">medusa/bits/utils/assert.hpp</text>
</a>
</g>
</g>
<!-- Node1&#45;&gt;Node7 -->
<g id="edge26_Node000001_Node000007" class="edge">
<title>Node1&#45;&gt;Node7</title>
<g id="a_edge26_Node000001_Node000007"><a xlink:title=" ">
<path fill="none" stroke="#63b8ff" d="M511.6,-285.92C548.11,-261.69 612.48,-210.35 583.64,-165 573.76,-149.45 556.85,-139.25 540.02,-132.58"/>
<polygon fill="#63b8ff" stroke="#63b8ff" points="540.76,-129.13 530.17,-129.06 538.41,-135.72 540.76,-129.13"/>
</a>
</g>
</g>
<!-- Node17 -->
<g id="Node000017" class="node">
<title>Node17</title>
<g id="a_Node000017"><a xlink:href="memutils_8hpp.html" target="_top" xlink:title="Declaration of memory related utilities.">
<polygon fill="white" stroke="#666666" points="574.14,-189.5 403.14,-189.5 403.14,-170.5 574.14,-170.5 574.14,-189.5"/>
<text text-anchor="middle" x="488.64" y="-177.5" font-family="Helvetica,sans-Serif" font-size="10.00">medusa/bits/utils/memutils.hpp</text>
</a>
</g>
</g>
<!-- Node1&#45;&gt;Node17 -->
<g id="edge27_Node000001_Node000017" class="edge">
<title>Node1&#45;&gt;Node17</title>
<g id="a_edge27_Node000001_Node000017"><a xlink:title=" ">
<path fill="none" stroke="#63b8ff" d="M488.64,-285.88C488.64,-264.51 488.64,-223.89 488.64,-199.96"/>
<polygon fill="#63b8ff" stroke="#63b8ff" points="492.14,-199.71 488.64,-189.71 485.14,-199.71 492.14,-199.71"/>
</a>
</g>
</g>
<!-- Node3 -->
<g id="Node000003" class="node">
<title>Node3</title>
<g id="a_Node000003"><a xlink:href="Config_8hpp.html" target="_top" xlink:title="Contains compile time settings for the project, such as Eigen plugins.">
<polygon fill="white" stroke="#666666" points="392.64,-129 282.64,-129 282.64,-110 392.64,-110 392.64,-129"/>
<text text-anchor="middle" x="337.64" y="-117" font-family="Helvetica,sans-Serif" font-size="10.00">medusa/Config.hpp</text>
</a>
</g>
</g>
<!-- Node2&#45;&gt;Node3 -->
<g id="edge2_Node000002_Node000003" class="edge">
<title>Node2&#45;&gt;Node3</title>
<g id="a_edge2_Node000002_Node000003"><a xlink:title=" ">
<path fill="none" stroke="#63b8ff" d="M307.15,-230.97C324.58,-224.24 345.23,-212.93 355.64,-195 365.94,-177.28 357.33,-153.91 348.83,-138.11"/>
<polygon fill="#63b8ff" stroke="#63b8ff" points="351.8,-136.24 343.73,-129.36 345.75,-139.77 351.8,-136.24"/>
</a>
</g>
</g>
<!-- Node5 -->
<g id="Node000005" class="node">
<title>Node5</title>
<g id="a_Node000005"><a xlink:title=" ">
<polygon fill="#e0e0e0" stroke="#999999" points="346.14,-189.5 209.14,-189.5 209.14,-170.5 346.14,-170.5 346.14,-189.5"/>
<text text-anchor="middle" x="277.64" y="-177.5" font-family="Helvetica,sans-Serif" font-size="10.00">nanoflann/nanoflann.hpp</text>
</a>
</g>
</g>
<!-- Node2&#45;&gt;Node5 -->
<g id="edge4_Node000002_Node000005" class="edge">
<title>Node2&#45;&gt;Node5</title>
<g id="a_edge4_Node000002_Node000005"><a xlink:title=" ">
<path fill="none" stroke="#63b8ff" d="M277.64,-230.87C277.64,-222.75 277.64,-210.31 277.64,-199.89"/>
<polygon fill="#63b8ff" stroke="#63b8ff" points="281.14,-199.67 277.64,-189.67 274.14,-199.67 281.14,-199.67"/>
</a>
</g>
</g>
<!-- Node6 -->
<g id="Node000006" class="node">
<title>Node6</title>
<g id="a_Node000006"><a xlink:href="Range__fwd_8hpp.html" target="_top" xlink:title="Declaration of Range.">
<polygon fill="white" stroke="#666666" points="190.64,-195 50.64,-195 50.64,-165 190.64,-165 190.64,-195"/>
<text text-anchor="start" x="58.64" y="-183" font-family="Helvetica,sans-Serif" font-size="10.00">medusa/bits/types/Range</text>
<text text-anchor="middle" x="120.64" y="-172" font-family="Helvetica,sans-Serif" font-size="10.00">_fwd.hpp</text>
</a>
</g>
</g>
<!-- Node2&#45;&gt;Node6 -->
<g id="edge5_Node000002_Node000006" class="edge">
<title>Node2&#45;&gt;Node6</title>
<g id="a_edge5_Node000002_Node000006"><a xlink:title=" ">
<path fill="none" stroke="#63b8ff" d="M254.81,-230.99C232.12,-222.54 196.64,-209.32 167.86,-198.59"/>
<polygon fill="#63b8ff" stroke="#63b8ff" points="168.98,-195.28 158.39,-195.06 166.54,-201.84 168.98,-195.28"/>
</a>
</g>
</g>
<!-- Node16 -->
<g id="Node000016" class="node">
<title>Node16</title>
<g id="a_Node000016"><a xlink:title=" ">
<polygon fill="#e0e0e0" stroke="#999999" points="64.64,-129 16.64,-129 16.64,-110 64.64,-110 64.64,-129"/>
<text text-anchor="middle" x="40.64" y="-117" font-family="Helvetica,sans-Serif" font-size="10.00">iosfwd</text>
</a>
</g>
</g>
<!-- Node2&#45;&gt;Node16 -->
<g id="edge19_Node000002_Node000016" class="edge">
<title>Node2&#45;&gt;Node16</title>
<g id="a_edge19_Node000002_Node000016"><a xlink:title=" ">
<path fill="none" stroke="#63b8ff" d="M230.09,-237.42C168.24,-233.62 65.28,-223.13 41.64,-195 28.79,-179.71 31.08,-155.77 34.92,-139.17"/>
<polygon fill="#63b8ff" stroke="#63b8ff" points="38.42,-139.62 37.65,-129.05 31.66,-137.79 38.42,-139.62"/>
</a>
</g>
</g>
<!-- Node2&#45;&gt;Node17 -->
<g id="edge20_Node000002_Node000017" class="edge">
<title>Node2&#45;&gt;Node17</title>
<g id="a_edge20_Node000002_Node000017"><a xlink:title=" ">
<path fill="none" stroke="#63b8ff" d="M308.32,-230.99C345.2,-220.77 407.21,-203.58 448.03,-192.26"/>
<polygon fill="#63b8ff" stroke="#63b8ff" points="449.22,-195.56 457.92,-189.52 447.35,-188.82 449.22,-195.56"/>
</a>
</g>
</g>
<!-- Node18 -->
<g id="Node000018" class="node">
<title>Node18</title>
<g id="a_Node000018"><a xlink:href="PointCloud_8hpp.html" target="_top" xlink:title="Implementation of KDTree storage class.">
<polygon fill="white" stroke="#666666" points="90.64,-74 0.64,-74 0.64,-55 90.64,-55 90.64,-74"/>
<text text-anchor="middle" x="45.64" y="-62" font-family="Helvetica,sans-Serif" font-size="10.00">PointCloud.hpp</text>
</a>
</g>
</g>
<!-- Node2&#45;&gt;Node18 -->
<g id="edge24_Node000002_Node000018" class="edge">
<title>Node2&#45;&gt;Node18</title>
<g id="a_edge24_Node000002_Node000018"><a xlink:title=" ">
<path fill="none" stroke="#63b8ff" d="M230.06,-236.86C166.07,-232.36 56.93,-221.02 27.64,-195 -1.37,-169.22 -5.79,-146.41 7.64,-110 11.7,-98.99 19.84,-88.86 27.54,-81.05"/>
<polygon fill="#63b8ff" stroke="#63b8ff" points="30.06,-83.48 34.93,-74.07 25.26,-78.39 30.06,-83.48"/>
</a>
</g>
</g>
<!-- Node4 -->
<g id="Node000004" class="node">
<title>Node4</title>
<g id="a_Node000004"><a xlink:title=" ">
<polygon fill="#e0e0e0" stroke="#999999" points="234.14,-19 187.14,-19 187.14,0 234.14,0 234.14,-19"/>
<text text-anchor="middle" x="210.64" y="-7" font-family="Helvetica,sans-Serif" font-size="10.00">vector</text>
</a>
</g>
</g>
<!-- Node3&#45;&gt;Node4 -->
<g id="edge3_Node000003_Node000004" class="edge">
<title>Node3&#45;&gt;Node4</title>
<g id="a_edge3_Node000003_Node000004"><a xlink:title=" ">
<path fill="none" stroke="#63b8ff" d="M327.25,-109.66C305.65,-91.3 255.7,-48.81 228.71,-25.87"/>
<polygon fill="#63b8ff" stroke="#63b8ff" points="230.71,-22.97 220.82,-19.16 226.17,-28.3 230.71,-22.97"/>
</a>
</g>
</g>
<!-- Node6&#45;&gt;Node3 -->
<g id="edge6_Node000006_Node000003" class="edge">
<title>Node6&#45;&gt;Node3</title>
<g id="a_edge6_Node000006_Node000003"><a xlink:title=" ">
<path fill="none" stroke="#63b8ff" d="M172.62,-164.99C210.39,-154.8 260.85,-141.2 295.98,-131.73"/>
<polygon fill="#63b8ff" stroke="#63b8ff" points="297.17,-135.04 305.91,-129.05 295.35,-128.28 297.17,-135.04"/>
</a>
</g>
</g>
<!-- Node6&#45;&gt;Node4 -->
<g id="edge17_Node000006_Node000004" class="edge">
<title>Node6&#45;&gt;Node4</title>
<g id="a_edge17_Node000006_Node000004"><a xlink:title=" ">
<path fill="none" stroke="#63b8ff" d="M133.29,-164.83C141.49,-155.19 152.02,-141.88 159.64,-129 179.53,-95.4 195.98,-52.62 204.45,-28.74"/>
<polygon fill="#63b8ff" stroke="#63b8ff" points="207.79,-29.79 207.77,-19.19 201.18,-27.49 207.79,-29.79"/>
</a>
</g>
</g>
<!-- Node6&#45;&gt;Node7 -->
<g id="edge7_Node000006_Node000007" class="edge">
<title>Node6&#45;&gt;Node7</title>
<g id="a_edge7_Node000006_Node000007"><a xlink:title=" ">
<path fill="none" stroke="#63b8ff" d="M190.87,-166.63C194.17,-166.07 197.44,-165.53 200.64,-165 275.99,-152.59 362.61,-139.34 421.01,-130.56"/>
<polygon fill="#63b8ff" stroke="#63b8ff" points="421.84,-133.97 431.21,-129.03 420.81,-127.05 421.84,-133.97"/>
</a>
</g>
</g>
<!-- Node14 -->
<g id="Node000014" class="node">
<title>Node14</title>
<g id="a_Node000014"><a xlink:href="traits_8hpp.html" target="_top" xlink:title="Type traits definition for vector and scalar fields.">
<polygon fill="white" stroke="#666666" points="150.14,-129 87.14,-129 87.14,-110 150.14,-110 150.14,-129"/>
<text text-anchor="middle" x="118.64" y="-117" font-family="Helvetica,sans-Serif" font-size="10.00">traits.hpp</text>
</a>
</g>
</g>
<!-- Node6&#45;&gt;Node14 -->
<g id="edge15_Node000006_Node000014" class="edge">
<title>Node6&#45;&gt;Node14</title>
<g id="a_edge15_Node000006_Node000014"><a xlink:title=" ">
<path fill="none" stroke="#63b8ff" d="M120.16,-164.84C119.9,-157.21 119.57,-147.7 119.29,-139.45"/>
<polygon fill="#63b8ff" stroke="#63b8ff" points="122.78,-139.14 118.94,-129.27 115.79,-139.38 122.78,-139.14"/>
</a>
</g>
</g>
<!-- Node15 -->
<g id="Node000015" class="node">
<title>Node15</title>
<g id="a_Node000015"><a xlink:title=" ">
<polygon fill="#e0e0e0" stroke="#999999" points="264.64,-129 206.64,-129 206.64,-110 264.64,-110 264.64,-129"/>
<text text-anchor="middle" x="235.64" y="-117" font-family="Helvetica,sans-Serif" font-size="10.00">memory</text>
</a>
</g>
</g>
<!-- Node6&#45;&gt;Node15 -->
<g id="edge16_Node000006_Node000015" class="edge">
<title>Node6&#45;&gt;Node15</title>
<g id="a_edge16_Node000006_Node000015"><a xlink:title=" ">
<path fill="none" stroke="#63b8ff" d="M148.19,-164.99C166.86,-155.49 191.38,-143.02 209.71,-133.69"/>
<polygon fill="#63b8ff" stroke="#63b8ff" points="211.33,-136.79 218.66,-129.14 208.16,-130.55 211.33,-136.79"/>
</a>
</g>
</g>
<!-- Node6&#45;&gt;Node16 -->
<g id="edge18_Node000006_Node000016" class="edge">
<title>Node6&#45;&gt;Node16</title>
<g id="a_edge18_Node000006_Node000016"><a xlink:title=" ">
<path fill="none" stroke="#63b8ff" d="M101.28,-164.84C89.07,-155.91 73.34,-144.41 60.96,-135.35"/>
<polygon fill="#63b8ff" stroke="#63b8ff" points="62.77,-132.34 52.63,-129.27 58.64,-137.99 62.77,-132.34"/>
</a>
</g>
</g>
<!-- Node8 -->
<g id="Node000008" class="node">
<title>Node8</title>
<g id="a_Node000008"><a xlink:title=" ">
<polygon fill="#e0e0e0" stroke="#999999" points="554.64,-74 422.64,-74 422.64,-55 554.64,-55 554.64,-74"/>
<text text-anchor="middle" x="488.64" y="-62" font-family="Helvetica,sans-Serif" font-size="10.00">tinyformat/tinyformat.h</text>
</a>
</g>
</g>
<!-- Node7&#45;&gt;Node8 -->
<g id="edge8_Node000007_Node000008" class="edge">
<title>Node7&#45;&gt;Node8</title>
<g id="a_edge8_Node000007_Node000008"><a xlink:title=" ">
<path fill="none" stroke="#63b8ff" d="M488.64,-109.75C488.64,-102.8 488.64,-92.85 488.64,-84.13"/>
<polygon fill="#63b8ff" stroke="#63b8ff" points="492.14,-84.09 488.64,-74.09 485.14,-84.09 492.14,-84.09"/>
</a>
</g>
</g>
<!-- Node9 -->
<g id="Node000009" class="node">
<title>Node9</title>
<g id="a_Node000009"><a xlink:href="print_8hpp.html" target="_top" xlink:title="Printing helpers for std types.">
<polygon fill="white" stroke="#666666" points="396.64,-74 336.64,-74 336.64,-55 396.64,-55 396.64,-74"/>
<text text-anchor="middle" x="366.64" y="-62" font-family="Helvetica,sans-Serif" font-size="10.00">print.hpp</text>
</a>
</g>
</g>
<!-- Node7&#45;&gt;Node9 -->
<g id="edge9_Node000007_Node000009" class="edge">
<title>Node7&#45;&gt;Node9</title>
<g id="a_edge9_Node000007_Node000009"><a xlink:title=" ">
<path fill="none" stroke="#63b8ff" d="M469.04,-109.98C449.33,-101.42 418.69,-88.11 396.06,-78.28"/>
<polygon fill="#63b8ff" stroke="#63b8ff" points="397.17,-74.94 386.6,-74.17 394.38,-81.37 397.17,-74.94"/>
</a>
</g>
</g>
<!-- Node9&#45;&gt;Node4 -->
<g id="edge11_Node000009_Node000004" class="edge">
<title>Node9&#45;&gt;Node4</title>
<g id="a_edge11_Node000009_Node000004"><a xlink:title=" ">
<path fill="none" stroke="#63b8ff" d="M341.58,-54.98C315.15,-46.01 273.38,-31.81 244.14,-21.88"/>
<polygon fill="#63b8ff" stroke="#63b8ff" points="244.96,-18.46 234.37,-18.56 242.71,-25.09 244.96,-18.46"/>
</a>
</g>
</g>
<!-- Node10 -->
<g id="Node000010" class="node">
<title>Node10</title>
<g id="a_Node000010"><a xlink:title=" ">
<polygon fill="#e0e0e0" stroke="#999999" points="387.64,-19 327.64,-19 327.64,0 387.64,0 387.64,-19"/>
<text text-anchor="middle" x="357.64" y="-7" font-family="Helvetica,sans-Serif" font-size="10.00">iostream</text>
</a>
</g>
</g>
<!-- Node9&#45;&gt;Node10 -->
<g id="edge10_Node000009_Node000010" class="edge">
<title>Node9&#45;&gt;Node10</title>
<g id="a_edge10_Node000009_Node000010"><a xlink:title=" ">
<path fill="none" stroke="#63b8ff" d="M365.16,-54.75C363.98,-47.8 362.29,-37.85 360.81,-29.13"/>
<polygon fill="#63b8ff" stroke="#63b8ff" points="364.23,-28.36 359.1,-19.09 357.32,-29.53 364.23,-28.36"/>
</a>
</g>
</g>
<!-- Node11 -->
<g id="Node000011" class="node">
<title>Node11</title>
<g id="a_Node000011"><a xlink:title=" ">
<polygon fill="#e0e0e0" stroke="#999999" points="447.64,-19 405.64,-19 405.64,0 447.64,0 447.64,-19"/>
<text text-anchor="middle" x="426.64" y="-7" font-family="Helvetica,sans-Serif" font-size="10.00">array</text>
</a>
</g>
</g>
<!-- Node9&#45;&gt;Node11 -->
<g id="edge12_Node000009_Node000011" class="edge">
<title>Node9&#45;&gt;Node11</title>
<g id="a_edge12_Node000009_Node000011"><a xlink:title=" ">
<path fill="none" stroke="#63b8ff" d="M376.28,-54.98C385.15,-47.15 398.52,-35.34 409.25,-25.86"/>
<polygon fill="#63b8ff" stroke="#63b8ff" points="411.65,-28.41 416.83,-19.17 407.02,-23.17 411.65,-28.41"/>
</a>
</g>
</g>
<!-- Node12 -->
<g id="Node000012" class="node">
<title>Node12</title>
<g id="a_Node000012"><a xlink:title=" ">
<polygon fill="#e0e0e0" stroke="#999999" points="511.14,-19 466.14,-19 466.14,0 511.14,0 511.14,-19"/>
<text text-anchor="middle" x="488.64" y="-7" font-family="Helvetica,sans-Serif" font-size="10.00">utility</text>
</a>
</g>
</g>
<!-- Node9&#45;&gt;Node12 -->
<g id="edge13_Node000009_Node000012" class="edge">
<title>Node9&#45;&gt;Node12</title>
<g id="a_edge13_Node000009_Node000012"><a xlink:title=" ">
<path fill="none" stroke="#63b8ff" d="M386.24,-54.98C405.96,-46.42 436.6,-33.11 459.23,-23.28"/>
<polygon fill="#63b8ff" stroke="#63b8ff" points="460.91,-26.37 468.68,-19.17 458.12,-19.94 460.91,-26.37"/>
</a>
</g>
</g>
<!-- Node13 -->
<g id="Node000013" class="node">
<title>Node13</title>
<g id="a_Node000013"><a xlink:title=" ">
<polygon fill="#e0e0e0" stroke="#999999" points="309.14,-19 268.14,-19 268.14,0 309.14,0 309.14,-19"/>
<text text-anchor="middle" x="288.64" y="-7" font-family="Helvetica,sans-Serif" font-size="10.00">tuple</text>
</a>
</g>
</g>
<!-- Node9&#45;&gt;Node13 -->
<g id="edge14_Node000009_Node000013" class="edge">
<title>Node9&#45;&gt;Node13</title>
<g id="a_edge14_Node000009_Node000013"><a xlink:title=" ">
<path fill="none" stroke="#63b8ff" d="M354.11,-54.98C342.24,-46.92 324.18,-34.65 310.03,-25.03"/>
<polygon fill="#63b8ff" stroke="#63b8ff" points="311.64,-21.9 301.4,-19.17 307.71,-27.69 311.64,-21.9"/>
</a>
</g>
</g>
<!-- Node17&#45;&gt;Node3 -->
<g id="edge22_Node000017_Node000003" class="edge">
<title>Node17&#45;&gt;Node3</title>
<g id="a_edge22_Node000017_Node000003"><a xlink:title=" ">
<path fill="none" stroke="#63b8ff" d="M466.69,-170.49C440.96,-160.53 398.16,-143.95 368.96,-132.63"/>
<polygon fill="#63b8ff" stroke="#63b8ff" points="370.21,-129.37 359.63,-129.02 367.69,-135.89 370.21,-129.37"/>
</a>
</g>
</g>
<!-- Node17&#45;&gt;Node7 -->
<g id="edge23_Node000017_Node000007" class="edge">
<title>Node17&#45;&gt;Node7</title>
<g id="a_edge23_Node000017_Node000007"><a xlink:title=" ">
<path fill="none" stroke="#63b8ff" d="M488.64,-170.37C488.64,-162.25 488.64,-149.81 488.64,-139.39"/>
<polygon fill="#63b8ff" stroke="#63b8ff" points="492.14,-139.17 488.64,-129.17 485.14,-139.17 492.14,-139.17"/>
</a>
</g>
</g>
<!-- Node17&#45;&gt;Node15 -->
<g id="edge21_Node000017_Node000015" class="edge">
<title>Node17&#45;&gt;Node15</title>
<g id="a_edge21_Node000017_Node000015"><a xlink:title=" ">
<path fill="none" stroke="#63b8ff" d="M451.85,-170.49C404.64,-159.58 323.08,-140.72 274.77,-129.55"/>
<polygon fill="#63b8ff" stroke="#63b8ff" points="275.52,-126.13 264.98,-127.28 273.94,-132.95 275.52,-126.13"/>
</a>
</g>
</g>
<!-- Node18&#45;&gt;Node4 -->
<g id="edge25_Node000018_Node000004" class="edge">
<title>Node18&#45;&gt;Node4</title>
<g id="a_edge25_Node000018_Node000004"><a xlink:title=" ">
<path fill="none" stroke="#63b8ff" d="M72.15,-54.98C100.72,-45.81 146.24,-31.19 177.23,-21.23"/>
<polygon fill="#63b8ff" stroke="#63b8ff" points="178.69,-24.44 187.14,-18.05 176.55,-17.78 178.69,-24.44"/>
</a>
</g>
</g>
</g>
</svg>

<g id="navigator" transform="translate(0 0)" fill="#404254">
  <rect fill="#f2f5e9" fill-opacity="0.5" stroke="#606060" stroke-width=".5" x="0" y="0" width="60" height="60"/>
  <use id="zoomplus" xlink:href="#zoomPlus" x="17" y="9" onmousedown="handleZoom(evt,'in')"/>
  <use id="zoomminus" xlink:href="#zoomMin" x="42" y="9" onmousedown="handleZoom(evt,'out')"/>
  <use id="reset" xlink:href="#resetDef" x="30" y="36" onmousedown="handleReset()"/>
   <use id="arrowup" xlink:href="#arrowUp" x="0" y="0" onmousedown="handlePan(0,-1)"/>
  <use id="arrowright" xlink:href="#arrowRight" x="0" y="0" onmousedown="handlePan(1,0)"/>
  <use id="arrowdown" xlink:href="#arrowDown" x="0" y="0" onmousedown="handlePan(0,1)"/>
  <use id="arrowleft" xlink:href="#arrowLeft" x="0" y="0" onmousedown="handlePan(-1,0)"/>
</g>
<svg viewBox="0 0 15 15" width="100%" height="30px" preserveAspectRatio="xMaxYMin meet">
 <g id="arrow_out" transform="scale(0.3 0.3)">
  <a xlink:href="KDTree_8hpp__incl_org.svg" target="_base">
   <rect id="button" ry="5" rx="5" y="6" x="6" height="38" width="38"
        fill="#f2f5e9" fill-opacity="0.5" stroke="#606060" stroke-width="1.0"/>
   <path id="arrow"
     d="M 11.500037,31.436501 C 11.940474,20.09759 22.043105,11.32322 32.158766,21.979434 L 37.068811,17.246167 C 37.068811,17.246167 37.088388,32 37.088388,32 L 22.160133,31.978069 C 22.160133,31.978069 26.997745,27.140456 26.997745,27.140456 C 18.528582,18.264221 13.291696,25.230495 11.500037,31.436501 z"
     style="fill:#404040;"/>
  </a>
 </g>
</svg>

<style type='text/css'>
<![CDATA[
[data-mouse-over-selected='false'] { opacity: 0.7; }
[data-mouse-over-selected='true']  { opacity: 1.0; }
]]>
</style>
<script type="application/ecmascript"><![CDATA[
document.addEventListener('DOMContentLoaded', (event) => {
  highlightEdges();
  highlightAdjacentNodes();
});
]]></script>
</svg>
