<?xml version="1.0" encoding="UTF-8" standalone="no"?>
<!DOCTYPE svg PUBLIC "-//W3C//DTD SVG 1.1//EN"
 "http://www.w3.org/Graphics/SVG/1.1/DTD/svg11.dtd">
<!-- Generated by graphviz version 2.43.0 (0)
 -->
<!-- Title: include/medusa/bits/spatial_search/KDTree_fwd.hpp Pages: 1 -->
<svg width="627pt" height="280pt"
 viewBox="0.00 0.00 626.72 280.00" xmlns="http://www.w3.org/2000/svg" xmlns:xlink="http://www.w3.org/1999/xlink">
<g id="graph0" class="graph" transform="scale(1 1) rotate(0) translate(4 276)">
<title>include/medusa/bits/spatial_search/KDTree_fwd.hpp</title>
<!-- Node1 -->
<g id="Node000001" class="node">
<title>Node1</title>
<g id="a_Node000001"><a xlink:title="Declaration of KDTree.">
<polygon fill="#999999" stroke="#666666" points="406.72,-272 278.72,-272 278.72,-231 406.72,-231 406.72,-272"/>
<text text-anchor="start" x="286.72" y="-260" font-family="Helvetica,sans-Serif" font-size="10.00">include/medusa/bits</text>
<text text-anchor="start" x="286.72" y="-249" font-family="Helvetica,sans-Serif" font-size="10.00">/spatial_search/KDTree</text>
<text text-anchor="middle" x="342.72" y="-238" font-family="Helvetica,sans-Serif" font-size="10.00">_fwd.hpp</text>
</a>
</g>
</g>
<!-- Node2 -->
<g id="Node000002" class="node">
<title>Node2</title>
<g id="a_Node000002"><a xlink:href="Config_8hpp.html" target="_top" xlink:title="Contains compile time settings for the project, such as Eigen plugins.">
<polygon fill="white" stroke="#666666" points="125.72,-129 15.72,-129 15.72,-110 125.72,-110 125.72,-129"/>
<text text-anchor="middle" x="70.72" y="-117" font-family="Helvetica,sans-Serif" font-size="10.00">medusa/Config.hpp</text>
</a>
</g>
</g>
<!-- Node1&#45;&gt;Node2 -->
<g id="edge1_Node000001_Node000002" class="edge">
<title>Node1&#45;&gt;Node2</title>
<g id="a_edge1_Node000001_Node000002"><a xlink:title=" ">
<path fill="none" stroke="#63b8ff" d="M278.55,-249.43C190.72,-246.44 40.01,-235.4 5.72,-195 -2.91,-184.83 -0.5,-176.79 5.72,-165 12.96,-151.27 26.55,-140.97 39.44,-133.76"/>
<polygon fill="#63b8ff" stroke="#63b8ff" points="41.31,-136.73 48.6,-129.05 38.1,-130.51 41.31,-136.73"/>
</a>
</g>
</g>
<!-- Node4 -->
<g id="Node000004" class="node">
<title>Node4</title>
<g id="a_Node000004"><a xlink:title=" ">
<polygon fill="#e0e0e0" stroke="#999999" points="152.22,-189.5 15.22,-189.5 15.22,-170.5 152.22,-170.5 152.22,-189.5"/>
<text text-anchor="middle" x="83.72" y="-177.5" font-family="Helvetica,sans-Serif" font-size="10.00">nanoflann/nanoflann.hpp</text>
</a>
</g>
</g>
<!-- Node1&#45;&gt;Node4 -->
<g id="edge3_Node000001_Node000004" class="edge">
<title>Node1&#45;&gt;Node4</title>
<g id="a_edge3_Node000001_Node000004"><a xlink:title=" ">
<path fill="none" stroke="#63b8ff" d="M278.7,-233.32C230.81,-220.47 166.72,-203.27 125.33,-192.16"/>
<polygon fill="#63b8ff" stroke="#63b8ff" points="126.14,-188.76 115.57,-189.55 124.32,-195.52 126.14,-188.76"/>
</a>
</g>
</g>
<!-- Node5 -->
<g id="Node000005" class="node">
<title>Node5</title>
<g id="a_Node000005"><a xlink:href="Range__fwd_8hpp.html" target="_top" xlink:title="Declaration of Range.">
<polygon fill="white" stroke="#666666" points="499.72,-195 359.72,-195 359.72,-165 499.72,-165 499.72,-195"/>
<text text-anchor="start" x="367.72" y="-183" font-family="Helvetica,sans-Serif" font-size="10.00">medusa/bits/types/Range</text>
<text text-anchor="middle" x="429.72" y="-172" font-family="Helvetica,sans-Serif" font-size="10.00">_fwd.hpp</text>
</a>
</g>
</g>
<!-- Node1&#45;&gt;Node5 -->
<g id="edge4_Node000001_Node000005" class="edge">
<title>Node1&#45;&gt;Node5</title>
<g id="a_edge4_Node000001_Node000005"><a xlink:title=" ">
<path fill="none" stroke="#63b8ff" d="M367.42,-230.77C378.9,-221.6 392.54,-210.7 404.13,-201.44"/>
<polygon fill="#63b8ff" stroke="#63b8ff" points="406.52,-204.01 412.15,-195.04 402.15,-198.55 406.52,-204.01"/>
</a>
</g>
</g>
<!-- Node15 -->
<g id="Node000015" class="node">
<title>Node15</title>
<g id="a_Node000015"><a xlink:title=" ">
<polygon fill="#e0e0e0" stroke="#999999" points="561.72,-129 513.72,-129 513.72,-110 561.72,-110 561.72,-129"/>
<text text-anchor="middle" x="537.72" y="-117" font-family="Helvetica,sans-Serif" font-size="10.00">iosfwd</text>
</a>
</g>
</g>
<!-- Node1&#45;&gt;Node15 -->
<g id="edge18_Node000001_Node000015" class="edge">
<title>Node1&#45;&gt;Node15</title>
<g id="a_edge18_Node000001_Node000015"><a xlink:title=" ">
<path fill="none" stroke="#63b8ff" d="M407.03,-242.36C440.99,-235.05 481.22,-221.2 508.72,-195 524.23,-180.22 531.58,-156.18 534.97,-139.41"/>
<polygon fill="#63b8ff" stroke="#63b8ff" points="538.49,-139.62 536.74,-129.18 531.59,-138.43 538.49,-139.62"/>
</a>
</g>
</g>
<!-- Node16 -->
<g id="Node000016" class="node">
<title>Node16</title>
<g id="a_Node000016"><a xlink:href="memutils_8hpp.html" target="_top" xlink:title="Declaration of memory related utilities.">
<polygon fill="white" stroke="#666666" points="341.22,-189.5 170.22,-189.5 170.22,-170.5 341.22,-170.5 341.22,-189.5"/>
<text text-anchor="middle" x="255.72" y="-177.5" font-family="Helvetica,sans-Serif" font-size="10.00">medusa/bits/utils/memutils.hpp</text>
</a>
</g>
</g>
<!-- Node1&#45;&gt;Node16 -->
<g id="edge19_Node000001_Node000016" class="edge">
<title>Node1&#45;&gt;Node16</title>
<g id="a_edge19_Node000001_Node000016"><a xlink:title=" ">
<path fill="none" stroke="#63b8ff" d="M318.02,-230.77C304.31,-219.81 287.5,-206.39 274.81,-196.25"/>
<polygon fill="#63b8ff" stroke="#63b8ff" points="276.76,-193.33 266.76,-189.82 272.39,-198.8 276.76,-193.33"/>
</a>
</g>
</g>
<!-- Node17 -->
<g id="Node000017" class="node">
<title>Node17</title>
<g id="a_Node000017"><a xlink:href="PointCloud_8hpp.html" target="_top" xlink:title="Implementation of KDTree storage class.">
<polygon fill="white" stroke="#666666" points="618.72,-74 528.72,-74 528.72,-55 618.72,-55 618.72,-74"/>
<text text-anchor="middle" x="573.72" y="-62" font-family="Helvetica,sans-Serif" font-size="10.00">PointCloud.hpp</text>
</a>
</g>
</g>
<!-- Node1&#45;&gt;Node17 -->
<g id="edge23_Node000001_Node000017" class="edge">
<title>Node1&#45;&gt;Node17</title>
<g id="a_edge23_Node000001_Node000017"><a xlink:title=" ">
<path fill="none" stroke="#63b8ff" d="M406.83,-243.72C446.21,-236.82 495.82,-222.94 531.72,-195 558.61,-174.07 560.96,-161.64 570.72,-129 575.03,-114.59 575.6,-97.53 575.19,-84.72"/>
<polygon fill="#63b8ff" stroke="#63b8ff" points="578.66,-84.14 574.62,-74.35 571.67,-84.53 578.66,-84.14"/>
</a>
</g>
</g>
<!-- Node3 -->
<g id="Node000003" class="node">
<title>Node3</title>
<g id="a_Node000003"><a xlink:title=" ">
<polygon fill="#e0e0e0" stroke="#999999" points="454.22,-19 407.22,-19 407.22,0 454.22,0 454.22,-19"/>
<text text-anchor="middle" x="430.72" y="-7" font-family="Helvetica,sans-Serif" font-size="10.00">vector</text>
</a>
</g>
</g>
<!-- Node2&#45;&gt;Node3 -->
<g id="edge2_Node000002_Node000003" class="edge">
<title>Node2&#45;&gt;Node3</title>
<g id="a_edge2_Node000002_Node000003"><a xlink:title=" ">
<path fill="none" stroke="#63b8ff" d="M121.25,-110C160.08,-102.67 214.68,-90.64 260.72,-74 278.48,-67.58 281.29,-62.26 298.72,-55 331.58,-41.32 370.29,-28.66 397.26,-20.37"/>
<polygon fill="#63b8ff" stroke="#63b8ff" points="398.44,-23.67 406.99,-17.41 396.4,-16.97 398.44,-23.67"/>
</a>
</g>
</g>
<!-- Node5&#45;&gt;Node2 -->
<g id="edge5_Node000005_Node000002" class="edge">
<title>Node5&#45;&gt;Node2</title>
<g id="a_edge5_Node000005_Node000002"><a xlink:title=" ">
<path fill="none" stroke="#63b8ff" d="M359.49,-166.65C356.19,-166.09 352.92,-165.53 349.72,-165 276.47,-152.75 192.27,-139.42 135.7,-130.58"/>
<polygon fill="#63b8ff" stroke="#63b8ff" points="136.23,-127.12 125.81,-129.04 135.15,-134.04 136.23,-127.12"/>
</a>
</g>
</g>
<!-- Node5&#45;&gt;Node3 -->
<g id="edge16_Node000005_Node000003" class="edge">
<title>Node5&#45;&gt;Node3</title>
<g id="a_edge16_Node000005_Node000003"><a xlink:title=" ">
<path fill="none" stroke="#63b8ff" d="M444.21,-164.7C452.56,-155.41 462.25,-142.54 466.72,-129 478.55,-93.11 457.16,-50.63 442.59,-27.54"/>
<polygon fill="#63b8ff" stroke="#63b8ff" points="445.5,-25.58 437.07,-19.17 439.65,-29.44 445.5,-25.58"/>
</a>
</g>
</g>
<!-- Node6 -->
<g id="Node000006" class="node">
<title>Node6</title>
<g id="a_Node000006"><a xlink:href="assert_8hpp.html" target="_top" xlink:title="Implementation of custom assert and debug utilities.">
<polygon fill="white" stroke="#666666" points="299.22,-129 144.22,-129 144.22,-110 299.22,-110 299.22,-129"/>
<text text-anchor="middle" x="221.72" y="-117" font-family="Helvetica,sans-Serif" font-size="10.00">medusa/bits/utils/assert.hpp</text>
</a>
</g>
</g>
<!-- Node5&#45;&gt;Node6 -->
<g id="edge6_Node000005_Node000006" class="edge">
<title>Node5&#45;&gt;Node6</title>
<g id="a_edge6_Node000005_Node000006"><a xlink:title=" ">
<path fill="none" stroke="#63b8ff" d="M379.9,-164.99C343.85,-154.85 295.74,-141.32 262.08,-131.85"/>
<polygon fill="#63b8ff" stroke="#63b8ff" points="262.71,-128.39 252.13,-129.05 260.81,-135.13 262.71,-128.39"/>
</a>
</g>
</g>
<!-- Node13 -->
<g id="Node000013" class="node">
<title>Node13</title>
<g id="a_Node000013"><a xlink:href="traits_8hpp.html" target="_top" xlink:title="Type traits definition for vector and scalar fields.">
<polygon fill="white" stroke="#666666" points="457.22,-129 394.22,-129 394.22,-110 457.22,-110 457.22,-129"/>
<text text-anchor="middle" x="425.72" y="-117" font-family="Helvetica,sans-Serif" font-size="10.00">traits.hpp</text>
</a>
</g>
</g>
<!-- Node5&#45;&gt;Node13 -->
<g id="edge14_Node000005_Node000013" class="edge">
<title>Node5&#45;&gt;Node13</title>
<g id="a_edge14_Node000005_Node000013"><a xlink:title=" ">
<path fill="none" stroke="#63b8ff" d="M428.75,-164.84C428.23,-157.21 427.58,-147.7 427.01,-139.45"/>
<polygon fill="#63b8ff" stroke="#63b8ff" points="430.49,-139 426.32,-129.27 423.51,-139.48 430.49,-139"/>
</a>
</g>
</g>
<!-- Node14 -->
<g id="Node000014" class="node">
<title>Node14</title>
<g id="a_Node000014"><a xlink:title=" ">
<polygon fill="#e0e0e0" stroke="#999999" points="375.72,-129 317.72,-129 317.72,-110 375.72,-110 375.72,-129"/>
<text text-anchor="middle" x="346.72" y="-117" font-family="Helvetica,sans-Serif" font-size="10.00">memory</text>
</a>
</g>
</g>
<!-- Node5&#45;&gt;Node14 -->
<g id="edge15_Node000005_Node000014" class="edge">
<title>Node5&#45;&gt;Node14</title>
<g id="a_edge15_Node000005_Node000014"><a xlink:title=" ">
<path fill="none" stroke="#63b8ff" d="M409.63,-164.84C396.84,-155.83 380.32,-144.18 367.42,-135.09"/>
<polygon fill="#63b8ff" stroke="#63b8ff" points="369.35,-132.17 359.16,-129.27 365.31,-137.89 369.35,-132.17"/>
</a>
</g>
</g>
<!-- Node5&#45;&gt;Node15 -->
<g id="edge17_Node000005_Node000015" class="edge">
<title>Node5&#45;&gt;Node15</title>
<g id="a_edge17_Node000005_Node000015"><a xlink:title=" ">
<path fill="none" stroke="#63b8ff" d="M455.59,-164.99C472.96,-155.58 495.73,-143.24 512.89,-133.95"/>
<polygon fill="#63b8ff" stroke="#63b8ff" points="514.64,-136.98 521.77,-129.14 511.31,-130.82 514.64,-136.98"/>
</a>
</g>
</g>
<!-- Node7 -->
<g id="Node000007" class="node">
<title>Node7</title>
<g id="a_Node000007"><a xlink:title=" ">
<polygon fill="#e0e0e0" stroke="#999999" points="439.72,-74 307.72,-74 307.72,-55 439.72,-55 439.72,-74"/>
<text text-anchor="middle" x="373.72" y="-62" font-family="Helvetica,sans-Serif" font-size="10.00">tinyformat/tinyformat.h</text>
</a>
</g>
</g>
<!-- Node6&#45;&gt;Node7 -->
<g id="edge7_Node000006_Node000007" class="edge">
<title>Node6&#45;&gt;Node7</title>
<g id="a_edge7_Node000006_Node000007"><a xlink:title=" ">
<path fill="none" stroke="#63b8ff" d="M246.14,-109.98C271.44,-101.16 311.17,-87.31 339.57,-77.41"/>
<polygon fill="#63b8ff" stroke="#63b8ff" points="340.82,-80.68 349.11,-74.08 338.51,-74.07 340.82,-80.68"/>
</a>
</g>
</g>
<!-- Node8 -->
<g id="Node000008" class="node">
<title>Node8</title>
<g id="a_Node000008"><a xlink:href="print_8hpp.html" target="_top" xlink:title="Printing helpers for std types.">
<polygon fill="white" stroke="#666666" points="251.72,-74 191.72,-74 191.72,-55 251.72,-55 251.72,-74"/>
<text text-anchor="middle" x="221.72" y="-62" font-family="Helvetica,sans-Serif" font-size="10.00">print.hpp</text>
</a>
</g>
</g>
<!-- Node6&#45;&gt;Node8 -->
<g id="edge8_Node000006_Node000008" class="edge">
<title>Node6&#45;&gt;Node8</title>
<g id="a_edge8_Node000006_Node000008"><a xlink:title=" ">
<path fill="none" stroke="#63b8ff" d="M221.72,-109.75C221.72,-102.8 221.72,-92.85 221.72,-84.13"/>
<polygon fill="#63b8ff" stroke="#63b8ff" points="225.22,-84.09 221.72,-74.09 218.22,-84.09 225.22,-84.09"/>
</a>
</g>
</g>
<!-- Node8&#45;&gt;Node3 -->
<g id="edge10_Node000008_Node000003" class="edge">
<title>Node8&#45;&gt;Node3</title>
<g id="a_edge10_Node000008_Node000003"><a xlink:title=" ">
<path fill="none" stroke="#63b8ff" d="M252.11,-55.79C290.75,-45.99 357.24,-29.13 397.28,-18.98"/>
<polygon fill="#63b8ff" stroke="#63b8ff" points="398.27,-22.34 407.1,-16.49 396.54,-15.56 398.27,-22.34"/>
</a>
</g>
</g>
<!-- Node9 -->
<g id="Node000009" class="node">
<title>Node9</title>
<g id="a_Node000009"><a xlink:title=" ">
<polygon fill="#e0e0e0" stroke="#999999" points="151.72,-19 91.72,-19 91.72,0 151.72,0 151.72,-19"/>
<text text-anchor="middle" x="121.72" y="-7" font-family="Helvetica,sans-Serif" font-size="10.00">iostream</text>
</a>
</g>
</g>
<!-- Node8&#45;&gt;Node9 -->
<g id="edge9_Node000008_Node000009" class="edge">
<title>Node8&#45;&gt;Node9</title>
<g id="a_edge9_Node000008_Node000009"><a xlink:title=" ">
<path fill="none" stroke="#63b8ff" d="M205.65,-54.98C189.85,-46.61 165.5,-33.7 147.09,-23.95"/>
<polygon fill="#63b8ff" stroke="#63b8ff" points="148.55,-20.76 138.08,-19.17 145.27,-26.95 148.55,-20.76"/>
</a>
</g>
</g>
<!-- Node10 -->
<g id="Node000010" class="node">
<title>Node10</title>
<g id="a_Node000010"><a xlink:title=" ">
<polygon fill="#e0e0e0" stroke="#999999" points="211.72,-19 169.72,-19 169.72,0 211.72,0 211.72,-19"/>
<text text-anchor="middle" x="190.72" y="-7" font-family="Helvetica,sans-Serif" font-size="10.00">array</text>
</a>
</g>
</g>
<!-- Node8&#45;&gt;Node10 -->
<g id="edge11_Node000008_Node000010" class="edge">
<title>Node8&#45;&gt;Node10</title>
<g id="a_edge11_Node000008_Node000010"><a xlink:title=" ">
<path fill="none" stroke="#63b8ff" d="M216.6,-54.75C212.36,-47.49 206.19,-36.95 200.94,-27.98"/>
<polygon fill="#63b8ff" stroke="#63b8ff" points="203.81,-25.95 195.74,-19.09 197.77,-29.49 203.81,-25.95"/>
</a>
</g>
</g>
<!-- Node11 -->
<g id="Node000011" class="node">
<title>Node11</title>
<g id="a_Node000011"><a xlink:title=" ">
<polygon fill="#e0e0e0" stroke="#999999" points="275.22,-19 230.22,-19 230.22,0 275.22,0 275.22,-19"/>
<text text-anchor="middle" x="252.72" y="-7" font-family="Helvetica,sans-Serif" font-size="10.00">utility</text>
</a>
</g>
</g>
<!-- Node8&#45;&gt;Node11 -->
<g id="edge12_Node000008_Node000011" class="edge">
<title>Node8&#45;&gt;Node11</title>
<g id="a_edge12_Node000008_Node000011"><a xlink:title=" ">
<path fill="none" stroke="#63b8ff" d="M226.84,-54.75C231.08,-47.49 237.25,-36.95 242.49,-27.98"/>
<polygon fill="#63b8ff" stroke="#63b8ff" points="245.67,-29.49 247.69,-19.09 239.62,-25.95 245.67,-29.49"/>
</a>
</g>
</g>
<!-- Node12 -->
<g id="Node000012" class="node">
<title>Node12</title>
<g id="a_Node000012"><a xlink:title=" ">
<polygon fill="#e0e0e0" stroke="#999999" points="334.22,-19 293.22,-19 293.22,0 334.22,0 334.22,-19"/>
<text text-anchor="middle" x="313.72" y="-7" font-family="Helvetica,sans-Serif" font-size="10.00">tuple</text>
</a>
</g>
</g>
<!-- Node8&#45;&gt;Node12 -->
<g id="edge13_Node000008_Node000012" class="edge">
<title>Node8&#45;&gt;Node12</title>
<g id="a_edge13_Node000008_Node000012"><a xlink:title=" ">
<path fill="none" stroke="#63b8ff" d="M236.5,-54.98C250.9,-46.69 273.03,-33.94 289.91,-24.22"/>
<polygon fill="#63b8ff" stroke="#63b8ff" points="291.75,-27.19 298.67,-19.17 288.26,-21.13 291.75,-27.19"/>
</a>
</g>
</g>
<!-- Node16&#45;&gt;Node2 -->
<g id="edge21_Node000016_Node000002" class="edge">
<title>Node16&#45;&gt;Node2</title>
<g id="a_edge21_Node000016_Node000002"><a xlink:title=" ">
<path fill="none" stroke="#63b8ff" d="M228.82,-170.49C196.76,-160.36 143.04,-143.37 107.24,-132.05"/>
<polygon fill="#63b8ff" stroke="#63b8ff" points="108.24,-128.69 97.65,-129.02 106.13,-135.37 108.24,-128.69"/>
</a>
</g>
</g>
<!-- Node16&#45;&gt;Node6 -->
<g id="edge22_Node000016_Node000006" class="edge">
<title>Node16&#45;&gt;Node6</title>
<g id="a_edge22_Node000016_Node000006"><a xlink:title=" ">
<path fill="none" stroke="#63b8ff" d="M250.7,-170.37C245.78,-161.9 238.13,-148.74 231.93,-138.07"/>
<polygon fill="#63b8ff" stroke="#63b8ff" points="234.81,-136.05 226.76,-129.17 228.75,-139.57 234.81,-136.05"/>
</a>
</g>
</g>
<!-- Node16&#45;&gt;Node14 -->
<g id="edge20_Node000016_Node000014" class="edge">
<title>Node16&#45;&gt;Node14</title>
<g id="a_edge20_Node000016_Node000014"><a xlink:title=" ">
<path fill="none" stroke="#63b8ff" d="M269.15,-170.37C283.8,-160.95 307.48,-145.73 324.82,-134.58"/>
<polygon fill="#63b8ff" stroke="#63b8ff" points="326.72,-137.52 333.24,-129.17 322.93,-131.63 326.72,-137.52"/>
</a>
</g>
</g>
<!-- Node17&#45;&gt;Node3 -->
<g id="edge24_Node000017_Node000003" class="edge">
<title>Node17&#45;&gt;Node3</title>
<g id="a_edge24_Node000017_Node000003"><a xlink:title=" ">
<path fill="none" stroke="#63b8ff" d="M550.74,-54.98C527.22,-46.27 490.43,-32.63 463.78,-22.75"/>
<polygon fill="#63b8ff" stroke="#63b8ff" points="464.7,-19.36 454.11,-19.17 462.27,-25.93 464.7,-19.36"/>
</a>
</g>
</g>
</g>
</svg>
