<?xml version="1.0" encoding="UTF-8" standalone="no"?>
<!DOCTYPE svg PUBLIC "-//W3C//DTD SVG 1.1//EN"
 "http://www.w3.org/Graphics/SVG/1.1/DTD/svg11.dtd">
<!-- Generated by graphviz version 2.43.0 (0)
 -->
<!-- Title: include/medusa/bits/approximations/Monomials.hpp Pages: 1 -->
<!--zoomable 368 -->

<svg id="main" version="1.1" xmlns="http://www.w3.org/2000/svg" xmlns:xlink="http://www.w3.org/1999/xlink" xml:space="preserve" onload="init(evt)">
<style type="text/css"><![CDATA[
.node, .edge {opacity: 0.7;}
.node.selected, .edge.selected {opacity: 1;}
.edge:hover path { stroke: red; }
.edge:hover polygon { stroke: red; fill: red; }
]]></style>

<defs>
  <circle id="rim" cx="0" cy="0" r="7"/>
  <circle id="rim2" cx="0" cy="0" r="3.5"/>
  <g id="zoomPlus">
    <use xlink:href="#rim" fill="#404040"><set attributeName="fill" to="#808080" begin="zoomplus.mouseover" end="zoomplus.mouseout"/></use>
    <path d="M-4,0h8M0,-4v8" fill="none" stroke="white" stroke-width="1.5" pointer-events="none"/>
  </g>
  <g id="zoomMin">
    <use xlink:href="#rim" fill="#404040"><set attributeName="fill" to="#808080" begin="zoomminus.mouseover" end="zoomminus.mouseout"/></use>
    <path d="M-4,0h8" fill="none" stroke="white" stroke-width="1.5" pointer-events="none"/>
  </g>
  <g id="arrowUp" transform="translate(30 24)">
    <use xlink:href="#rim"/>
    <path pointer-events="none" fill="none" stroke="white" stroke-width="1.5" d="M0,-3.0v7 M-2.5,-0.5L0,-3.0L2.5,-0.5"/>
  </g>
  <g id="arrowRight" transform="rotate(90) translate(36 -43)">
    <use xlink:href="#rim"/>
    <path pointer-events="none" fill="none" stroke="white" stroke-width="1.5" d="M0,-3.0v7 M-2.5,-0.5L0,-3.0L2.5,-0.5"/>
  </g>
  <g id="arrowDown" transform="rotate(180) translate(-30 -48)">
    <use xlink:href="#rim"/>
    <path pointer-events="none" fill="none" stroke="white" stroke-width="1.5" d="M0,-3.0v7 M-2.5,-0.5L0,-3.0L2.5,-0.5"/>
  </g>
  <g id="arrowLeft" transform="rotate(270) translate(-36 17)">
    <use xlink:href="#rim"/>
    <path pointer-events="none" fill="none" stroke="white" stroke-width="1.5" d="M0,-3.0v7 M-2.5,-0.5L0,-3.0L2.5,-0.5"/>
  </g>
  <g id="resetDef">
    <use xlink:href="#rim2" fill="#404040"><set attributeName="fill" to="#808080" begin="reset.mouseover" end="reset.mouseout"/></use>
  </g>
</defs>
<script type="application/ecmascript">
var viewWidth = 849;
var viewHeight = 368;
var sectionId = 'dynsection-0';
</script>
<script type="application/ecmascript" xlink:href="svg.min.js"/>
<svg id="graph" class="graph">
<g id="viewport">
<title>include/medusa/bits/approximations/Monomials.hpp</title>
<!-- Node1 -->
<g id="Node000001" class="node">
<title>Node1</title>
<g id="a_Node000001"><a xlink:title="Implementation of Monomial basis.">
<polygon fill="#999999" stroke="#666666" points="717.5,-360 543.5,-360 543.5,-330 717.5,-330 717.5,-360"/>
<text text-anchor="start" x="551.5" y="-348" font-family="Helvetica,sans-Serif" font-size="10.00">include/medusa/bits</text>
<text text-anchor="middle" x="630.5" y="-337" font-family="Helvetica,sans-Serif" font-size="10.00">/approximations/Monomials.hpp</text>
</a>
</g>
</g>
<!-- Node2 -->
<g id="Node000002" class="node">
<title>Node2</title>
<g id="a_Node000002"><a xlink:href="Monomials__fwd_8hpp.html" target="_top" xlink:title="Declaration of Monomial basis.">
<polygon fill="white" stroke="#666666" points="695.5,-184 581.5,-184 581.5,-165 695.5,-165 695.5,-184"/>
<text text-anchor="middle" x="638.5" y="-172" font-family="Helvetica,sans-Serif" font-size="10.00">Monomials_fwd.hpp</text>
</a>
</g>
</g>
<!-- Node1&#45;&gt;Node2 -->
<g id="edge1_Node000001_Node000002" class="edge">
<title>Node1&#45;&gt;Node2</title>
<g id="a_edge1_Node000001_Node000002"><a xlink:title=" ">
<path fill="none" stroke="#63b8ff" d="M631.17,-329.92C632.61,-299.65 635.99,-228.35 637.61,-194.27"/>
<polygon fill="#63b8ff" stroke="#63b8ff" points="641.11,-194.41 638.08,-184.25 634.11,-194.08 641.11,-194.41"/>
</a>
</g>
</g>
<!-- Node9 -->
<g id="Node000009" class="node">
<title>Node9</title>
<g id="a_Node000009"><a xlink:href="assert_8hpp.html" target="_top" xlink:title="Implementation of custom assert and debug utilities.">
<polygon fill="white" stroke="#666666" points="155,-129 0,-129 0,-110 155,-110 155,-129"/>
<text text-anchor="middle" x="77.5" y="-117" font-family="Helvetica,sans-Serif" font-size="10.00">medusa/bits/utils/assert.hpp</text>
</a>
</g>
</g>
<!-- Node1&#45;&gt;Node9 -->
<g id="edge8_Node000001_Node000009" class="edge">
<title>Node1&#45;&gt;Node9</title>
<g id="a_edge8_Node000001_Node000009"><a xlink:title=" ">
<path fill="none" stroke="#63b8ff" d="M543.08,-343.36C441.42,-338.67 272.38,-318.26 153.5,-239 126.01,-220.68 121.14,-211.93 103.5,-184 94.56,-169.84 87.59,-152.07 83.13,-138.94"/>
<polygon fill="#63b8ff" stroke="#63b8ff" points="86.39,-137.62 79.99,-129.17 79.72,-139.76 86.39,-137.62"/>
</a>
</g>
</g>
<!-- Node12 -->
<g id="Node000012" class="node">
<title>Node12</title>
<g id="a_Node000012"><a xlink:title=" ">
<polygon fill="#e0e0e0" stroke="#999999" points="803.5,-19 743.5,-19 743.5,0 803.5,0 803.5,-19"/>
<text text-anchor="middle" x="773.5" y="-7" font-family="Helvetica,sans-Serif" font-size="10.00">iostream</text>
</a>
</g>
</g>
<!-- Node1&#45;&gt;Node12 -->
<g id="edge33_Node000001_Node000012" class="edge">
<title>Node1&#45;&gt;Node12</title>
<g id="a_edge33_Node000001_Node000012"><a xlink:title=" ">
<path fill="none" stroke="#63b8ff" d="M717.73,-331.68C775.43,-318.03 840.5,-289.56 840.5,-230.5 840.5,-230.5 840.5,-230.5 840.5,-118.5 840.5,-80.91 810.82,-45.51 790.97,-26.04"/>
<polygon fill="#63b8ff" stroke="#63b8ff" points="793.35,-23.48 783.68,-19.17 788.55,-28.57 793.35,-23.48"/>
</a>
</g>
</g>
<!-- Node15 -->
<g id="Node000015" class="node">
<title>Node15</title>
<g id="a_Node000015"><a xlink:href="numutils_8hpp.html" target="_top" xlink:title="Declaration of numerical utilities.">
<polygon fill="white" stroke="#666666" points="484,-294 317,-294 317,-275 484,-275 484,-294"/>
<text text-anchor="middle" x="400.5" y="-282" font-family="Helvetica,sans-Serif" font-size="10.00">medusa/bits/utils/numutils.hpp</text>
</a>
</g>
</g>
<!-- Node1&#45;&gt;Node15 -->
<g id="edge16_Node000001_Node000015" class="edge">
<title>Node1&#45;&gt;Node15</title>
<g id="a_edge16_Node000001_Node000015"><a xlink:title=" ">
<path fill="none" stroke="#63b8ff" d="M575.41,-329.99C535.2,-319.76 481.44,-306.09 444.18,-296.61"/>
<polygon fill="#63b8ff" stroke="#63b8ff" points="444.68,-293.13 434.13,-294.05 442.96,-299.91 444.68,-293.13"/>
</a>
</g>
</g>
<!-- Node23 -->
<g id="Node000023" class="node">
<title>Node23</title>
<g id="a_Node000023"><a xlink:href="Operators__fwd_8hpp.html" target="_top" xlink:title="File defining basic differential operator families.">
<polygon fill="white" stroke="#666666" points="766.5,-239 658.5,-239 658.5,-220 766.5,-220 766.5,-239"/>
<text text-anchor="middle" x="712.5" y="-227" font-family="Helvetica,sans-Serif" font-size="10.00">Operators_fwd.hpp</text>
</a>
</g>
</g>
<!-- Node1&#45;&gt;Node23 -->
<g id="edge34_Node000001_Node000023" class="edge">
<title>Node1&#45;&gt;Node23</title>
<g id="a_edge34_Node000001_Node000023"><a xlink:title=" ">
<path fill="none" stroke="#63b8ff" d="M640.89,-329.63C656.04,-308.65 684.15,-269.75 700.27,-247.42"/>
<polygon fill="#63b8ff" stroke="#63b8ff" points="703.17,-249.38 706.19,-239.23 697.5,-245.29 703.17,-249.38"/>
</a>
</g>
</g>
<!-- Node3 -->
<g id="Node000003" class="node">
<title>Node3</title>
<g id="a_Node000003"><a xlink:href="Config_8hpp.html" target="_top" xlink:title="Contains compile time settings for the project, such as Eigen plugins.">
<polygon fill="white" stroke="#666666" points="478.5,-129 368.5,-129 368.5,-110 478.5,-110 478.5,-129"/>
<text text-anchor="middle" x="423.5" y="-117" font-family="Helvetica,sans-Serif" font-size="10.00">medusa/Config.hpp</text>
</a>
</g>
</g>
<!-- Node2&#45;&gt;Node3 -->
<g id="edge2_Node000002_Node000003" class="edge">
<title>Node2&#45;&gt;Node3</title>
<g id="a_edge2_Node000002_Node000003"><a xlink:title=" ">
<path fill="none" stroke="#63b8ff" d="M603.96,-164.98C567.08,-155.89 508.51,-141.46 468.16,-131.51"/>
<polygon fill="#63b8ff" stroke="#63b8ff" points="468.86,-128.08 458.31,-129.08 467.19,-134.87 468.86,-128.08"/>
</a>
</g>
</g>
<!-- Node5 -->
<g id="Node000005" class="node">
<title>Node5</title>
<g id="a_Node000005"><a xlink:title=" ">
<polygon fill="#e0e0e0" stroke="#999999" points="610,-129 563,-129 563,-110 610,-110 610,-129"/>
<text text-anchor="middle" x="586.5" y="-117" font-family="Helvetica,sans-Serif" font-size="10.00">cmath</text>
</a>
</g>
</g>
<!-- Node2&#45;&gt;Node5 -->
<g id="edge4_Node000002_Node000005" class="edge">
<title>Node2&#45;&gt;Node5</title>
<g id="a_edge4_Node000002_Node000005"><a xlink:title=" ">
<path fill="none" stroke="#63b8ff" d="M629.91,-164.75C622.34,-157.03 611.12,-145.6 601.99,-136.28"/>
<polygon fill="#63b8ff" stroke="#63b8ff" points="604.43,-133.78 594.93,-129.09 599.43,-138.68 604.43,-133.78"/>
</a>
</g>
</g>
<!-- Node6 -->
<g id="Node000006" class="node">
<title>Node6</title>
<g id="a_Node000006"><a xlink:title=" ">
<polygon fill="#e0e0e0" stroke="#999999" points="659.5,-19 617.5,-19 617.5,0 659.5,0 659.5,-19"/>
<text text-anchor="middle" x="638.5" y="-7" font-family="Helvetica,sans-Serif" font-size="10.00">array</text>
</a>
</g>
</g>
<!-- Node2&#45;&gt;Node6 -->
<g id="edge5_Node000002_Node000006" class="edge">
<title>Node2&#45;&gt;Node6</title>
<g id="a_edge5_Node000002_Node000006"><a xlink:title=" ">
<path fill="none" stroke="#63b8ff" d="M638.5,-164.74C638.5,-139.31 638.5,-65.08 638.5,-29.69"/>
<polygon fill="#63b8ff" stroke="#63b8ff" points="642,-29.31 638.5,-19.31 635,-29.31 642,-29.31"/>
</a>
</g>
</g>
<!-- Node7 -->
<g id="Node000007" class="node">
<title>Node7</title>
<g id="a_Node000007"><a xlink:title=" ">
<polygon fill="#e0e0e0" stroke="#999999" points="736,-129 667,-129 667,-110 736,-110 736,-129"/>
<text text-anchor="middle" x="701.5" y="-117" font-family="Helvetica,sans-Serif" font-size="10.00">Eigen/Core</text>
</a>
</g>
</g>
<!-- Node2&#45;&gt;Node7 -->
<g id="edge6_Node000002_Node000007" class="edge">
<title>Node2&#45;&gt;Node7</title>
<g id="a_edge6_Node000002_Node000007"><a xlink:title=" ">
<path fill="none" stroke="#63b8ff" d="M648.62,-164.98C657.94,-157.15 671.97,-145.34 683.24,-135.86"/>
<polygon fill="#63b8ff" stroke="#63b8ff" points="685.79,-138.29 691.19,-129.17 681.29,-132.93 685.79,-138.29"/>
</a>
</g>
</g>
<!-- Node8 -->
<g id="Node000008" class="node">
<title>Node8</title>
<g id="a_Node000008"><a xlink:title=" ">
<polygon fill="#e0e0e0" stroke="#999999" points="544.5,-129 496.5,-129 496.5,-110 544.5,-110 544.5,-129"/>
<text text-anchor="middle" x="520.5" y="-117" font-family="Helvetica,sans-Serif" font-size="10.00">iosfwd</text>
</a>
</g>
</g>
<!-- Node2&#45;&gt;Node8 -->
<g id="edge7_Node000002_Node000008" class="edge">
<title>Node2&#45;&gt;Node8</title>
<g id="a_edge7_Node000002_Node000008"><a xlink:title=" ">
<path fill="none" stroke="#63b8ff" d="M619.54,-164.98C600.47,-156.42 570.84,-143.11 548.95,-133.28"/>
<polygon fill="#63b8ff" stroke="#63b8ff" points="550.36,-130.07 539.8,-129.17 547.49,-136.46 550.36,-130.07"/>
</a>
</g>
</g>
<!-- Node4 -->
<g id="Node000004" class="node">
<title>Node4</title>
<g id="a_Node000004"><a xlink:title=" ">
<polygon fill="#e0e0e0" stroke="#999999" points="394,-19 347,-19 347,0 394,0 394,-19"/>
<text text-anchor="middle" x="370.5" y="-7" font-family="Helvetica,sans-Serif" font-size="10.00">vector</text>
</a>
</g>
</g>
<!-- Node3&#45;&gt;Node4 -->
<g id="edge3_Node000003_Node000004" class="edge">
<title>Node3&#45;&gt;Node4</title>
<g id="a_edge3_Node000003_Node000004"><a xlink:title=" ">
<path fill="none" stroke="#63b8ff" d="M419.16,-109.66C410.46,-91.93 390.73,-51.73 379.24,-28.32"/>
<polygon fill="#63b8ff" stroke="#63b8ff" points="382.3,-26.59 374.75,-19.16 376.01,-29.68 382.3,-26.59"/>
</a>
</g>
</g>
<!-- Node10 -->
<g id="Node000010" class="node">
<title>Node10</title>
<g id="a_Node000010"><a xlink:title=" ">
<polygon fill="#e0e0e0" stroke="#999999" points="312.5,-74 180.5,-74 180.5,-55 312.5,-55 312.5,-74"/>
<text text-anchor="middle" x="246.5" y="-62" font-family="Helvetica,sans-Serif" font-size="10.00">tinyformat/tinyformat.h</text>
</a>
</g>
</g>
<!-- Node9&#45;&gt;Node10 -->
<g id="edge9_Node000009_Node000010" class="edge">
<title>Node9&#45;&gt;Node10</title>
<g id="a_edge9_Node000009_Node000010"><a xlink:title=" ">
<path fill="none" stroke="#63b8ff" d="M104.65,-109.98C133.03,-101.09 177.73,-87.07 209.36,-77.15"/>
<polygon fill="#63b8ff" stroke="#63b8ff" points="210.64,-80.41 219.13,-74.08 208.55,-73.73 210.64,-80.41"/>
</a>
</g>
</g>
<!-- Node11 -->
<g id="Node000011" class="node">
<title>Node11</title>
<g id="a_Node000011"><a xlink:href="print_8hpp.html" target="_top" xlink:title="Printing helpers for std types.">
<polygon fill="white" stroke="#666666" points="162.5,-74 102.5,-74 102.5,-55 162.5,-55 162.5,-74"/>
<text text-anchor="middle" x="132.5" y="-62" font-family="Helvetica,sans-Serif" font-size="10.00">print.hpp</text>
</a>
</g>
</g>
<!-- Node9&#45;&gt;Node11 -->
<g id="edge10_Node000009_Node000011" class="edge">
<title>Node9&#45;&gt;Node11</title>
<g id="a_edge10_Node000009_Node000011"><a xlink:title=" ">
<path fill="none" stroke="#63b8ff" d="M86.58,-109.75C94.59,-102.03 106.46,-90.6 116.12,-81.28"/>
<polygon fill="#63b8ff" stroke="#63b8ff" points="118.81,-83.55 123.59,-74.09 113.96,-78.51 118.81,-83.55"/>
</a>
</g>
</g>
<!-- Node11&#45;&gt;Node4 -->
<g id="edge12_Node000011_Node000004" class="edge">
<title>Node11&#45;&gt;Node4</title>
<g id="a_edge12_Node000011_Node000004"><a xlink:title=" ">
<path fill="none" stroke="#63b8ff" d="M162.64,-56.79C207.18,-46.87 290.3,-28.36 336.8,-18"/>
<polygon fill="#63b8ff" stroke="#63b8ff" points="337.69,-21.39 346.69,-15.8 336.17,-14.56 337.69,-21.39"/>
</a>
</g>
</g>
<!-- Node11&#45;&gt;Node6 -->
<g id="edge13_Node000011_Node000006" class="edge">
<title>Node11&#45;&gt;Node6</title>
<g id="a_edge13_Node000011_Node000006"><a xlink:title=" ">
<path fill="none" stroke="#63b8ff" d="M162.67,-56.55C165.64,-55.98 168.62,-55.45 171.5,-55 334.48,-29.57 531.89,-16.52 607.23,-12.18"/>
<polygon fill="#63b8ff" stroke="#63b8ff" points="607.66,-15.67 617.44,-11.61 607.26,-8.68 607.66,-15.67"/>
</a>
</g>
</g>
<!-- Node11&#45;&gt;Node12 -->
<g id="edge11_Node000011_Node000012" class="edge">
<title>Node11&#45;&gt;Node12</title>
<g id="a_edge11_Node000011_Node000012"><a xlink:title=" ">
<path fill="none" stroke="#63b8ff" d="M162.66,-56.48C165.63,-55.92 168.62,-55.42 171.5,-55 390.69,-23.34 447.68,-35.94 668.5,-19 689.83,-17.36 713.59,-15.45 733.11,-13.85"/>
<polygon fill="#63b8ff" stroke="#63b8ff" points="733.5,-17.33 743.18,-13.02 732.93,-10.35 733.5,-17.33"/>
</a>
</g>
</g>
<!-- Node13 -->
<g id="Node000013" class="node">
<title>Node13</title>
<g id="a_Node000013"><a xlink:title=" ">
<polygon fill="#e0e0e0" stroke="#999999" points="186,-19 141,-19 141,0 186,0 186,-19"/>
<text text-anchor="middle" x="163.5" y="-7" font-family="Helvetica,sans-Serif" font-size="10.00">utility</text>
</a>
</g>
</g>
<!-- Node11&#45;&gt;Node13 -->
<g id="edge14_Node000011_Node000013" class="edge">
<title>Node11&#45;&gt;Node13</title>
<g id="a_edge14_Node000011_Node000013"><a xlink:title=" ">
<path fill="none" stroke="#63b8ff" d="M137.62,-54.75C141.86,-47.49 148.03,-36.95 153.28,-27.98"/>
<polygon fill="#63b8ff" stroke="#63b8ff" points="156.45,-29.49 158.48,-19.09 150.41,-25.95 156.45,-29.49"/>
</a>
</g>
</g>
<!-- Node14 -->
<g id="Node000014" class="node">
<title>Node14</title>
<g id="a_Node000014"><a xlink:title=" ">
<polygon fill="#e0e0e0" stroke="#999999" points="123,-19 82,-19 82,0 123,0 123,-19"/>
<text text-anchor="middle" x="102.5" y="-7" font-family="Helvetica,sans-Serif" font-size="10.00">tuple</text>
</a>
</g>
</g>
<!-- Node11&#45;&gt;Node14 -->
<g id="edge15_Node000011_Node000014" class="edge">
<title>Node11&#45;&gt;Node14</title>
<g id="a_edge15_Node000011_Node000014"><a xlink:title=" ">
<path fill="none" stroke="#63b8ff" d="M127.55,-54.75C123.44,-47.49 117.47,-36.95 112.4,-27.98"/>
<polygon fill="#63b8ff" stroke="#63b8ff" points="115.33,-26.07 107.36,-19.09 109.24,-29.52 115.33,-26.07"/>
</a>
</g>
</g>
<!-- Node15&#45;&gt;Node3 -->
<g id="edge17_Node000015_Node000003" class="edge">
<title>Node15&#45;&gt;Node3</title>
<g id="a_edge17_Node000015_Node000003"><a xlink:title=" ">
<path fill="none" stroke="#63b8ff" d="M399.86,-274.75C398.63,-254.94 396.78,-205.25 405.5,-165 407.48,-155.84 411.2,-146.13 414.74,-138.13"/>
<polygon fill="#63b8ff" stroke="#63b8ff" points="417.91,-139.62 419,-129.08 411.58,-136.65 417.91,-139.62"/>
</a>
</g>
</g>
<!-- Node15&#45;&gt;Node5 -->
<g id="edge32_Node000015_Node000005" class="edge">
<title>Node15&#45;&gt;Node5</title>
<g id="a_edge32_Node000015_Node000005"><a xlink:title=" ">
<path fill="none" stroke="#63b8ff" d="M402.17,-274.94C407.11,-250.45 422.31,-180.89 438.5,-165 442.7,-160.88 510.72,-141.49 553.07,-129.7"/>
<polygon fill="#63b8ff" stroke="#63b8ff" points="554.27,-133 562.97,-126.96 552.4,-126.26 554.27,-133"/>
</a>
</g>
</g>
<!-- Node15&#45;&gt;Node9 -->
<g id="edge18_Node000015_Node000009" class="edge">
<title>Node15&#45;&gt;Node9</title>
<g id="a_edge18_Node000015_Node000009"><a xlink:title=" ">
<path fill="none" stroke="#63b8ff" d="M316.99,-278.77C274.47,-273.41 223.29,-262.2 182.5,-239 138.86,-214.18 104.04,-164.45 87.67,-137.99"/>
<polygon fill="#63b8ff" stroke="#63b8ff" points="90.47,-135.86 82.32,-129.09 84.47,-139.47 90.47,-135.86"/>
</a>
</g>
</g>
<!-- Node16 -->
<g id="Node000016" class="node">
<title>Node16</title>
<g id="a_Node000016"><a xlink:href="Vec_8hpp.html" target="_top" xlink:title="Implemetations for Vec.">
<polygon fill="white" stroke="#666666" points="595.5,-239 447.5,-239 447.5,-220 595.5,-220 595.5,-239"/>
<text text-anchor="middle" x="521.5" y="-227" font-family="Helvetica,sans-Serif" font-size="10.00">medusa/bits/types/Vec.hpp</text>
</a>
</g>
</g>
<!-- Node15&#45;&gt;Node16 -->
<g id="edge19_Node000015_Node000016" class="edge">
<title>Node15&#45;&gt;Node16</title>
<g id="a_edge19_Node000015_Node000016"><a xlink:title=" ">
<path fill="none" stroke="#63b8ff" d="M419.94,-274.98C439.49,-266.42 469.88,-253.11 492.32,-243.28"/>
<polygon fill="#63b8ff" stroke="#63b8ff" points="493.95,-246.39 501.71,-239.17 491.14,-239.98 493.95,-246.39"/>
</a>
</g>
</g>
<!-- Node18 -->
<g id="Node000018" class="node">
<title>Node18</title>
<g id="a_Node000018"><a xlink:href="Range_8hpp.html" target="_top" xlink:title="Implementation of Range.">
<polygon fill="white" stroke="#666666" points="353,-239 192,-239 192,-220 353,-220 353,-239"/>
<text text-anchor="middle" x="272.5" y="-227" font-family="Helvetica,sans-Serif" font-size="10.00">medusa/bits/types/Range.hpp</text>
</a>
</g>
</g>
<!-- Node15&#45;&gt;Node18 -->
<g id="edge23_Node000015_Node000018" class="edge">
<title>Node15&#45;&gt;Node18</title>
<g id="a_edge23_Node000015_Node000018"><a xlink:title=" ">
<path fill="none" stroke="#63b8ff" d="M379.93,-274.98C359.07,-266.34 326.53,-252.87 302.73,-243.02"/>
<polygon fill="#63b8ff" stroke="#63b8ff" points="304.02,-239.76 293.44,-239.17 301.34,-246.23 304.02,-239.76"/>
</a>
</g>
</g>
<!-- Node17 -->
<g id="Node000017" class="node">
<title>Node17</title>
<g id="a_Node000017"><a xlink:href="Vec__fwd_8hpp.html" target="_top" xlink:title="Declaration of Vec.">
<polygon fill="white" stroke="#666666" points="525,-184 448,-184 448,-165 525,-165 525,-184"/>
<text text-anchor="middle" x="486.5" y="-172" font-family="Helvetica,sans-Serif" font-size="10.00">Vec_fwd.hpp</text>
</a>
</g>
</g>
<!-- Node16&#45;&gt;Node17 -->
<g id="edge20_Node000016_Node000017" class="edge">
<title>Node16&#45;&gt;Node17</title>
<g id="a_edge20_Node000016_Node000017"><a xlink:title=" ">
<path fill="none" stroke="#63b8ff" d="M515.72,-219.75C510.88,-212.42 503.82,-201.73 497.86,-192.7"/>
<polygon fill="#63b8ff" stroke="#63b8ff" points="500.6,-190.5 492.17,-184.09 494.76,-194.36 500.6,-190.5"/>
</a>
</g>
</g>
<!-- Node17&#45;&gt;Node3 -->
<g id="edge21_Node000017_Node000003" class="edge">
<title>Node17&#45;&gt;Node3</title>
<g id="a_edge21_Node000017_Node000003"><a xlink:title=" ">
<path fill="none" stroke="#63b8ff" d="M476.38,-164.98C467.06,-157.15 453.03,-145.34 441.76,-135.86"/>
<polygon fill="#63b8ff" stroke="#63b8ff" points="443.71,-132.93 433.81,-129.17 439.21,-138.29 443.71,-132.93"/>
</a>
</g>
</g>
<!-- Node17&#45;&gt;Node7 -->
<g id="edge22_Node000017_Node000007" class="edge">
<title>Node17&#45;&gt;Node7</title>
<g id="a_edge22_Node000017_Node000007"><a xlink:title=" ">
<path fill="none" stroke="#63b8ff" d="M521.04,-164.98C557.92,-155.89 616.49,-141.46 656.84,-131.51"/>
<polygon fill="#63b8ff" stroke="#63b8ff" points="657.81,-134.87 666.69,-129.08 656.14,-128.08 657.81,-134.87"/>
</a>
</g>
</g>
<!-- Node19 -->
<g id="Node000019" class="node">
<title>Node19</title>
<g id="a_Node000019"><a xlink:href="Range__fwd_8hpp.html" target="_top" xlink:title="Declaration of Range.">
<polygon fill="white" stroke="#666666" points="353,-184 262,-184 262,-165 353,-165 353,-184"/>
<text text-anchor="middle" x="307.5" y="-172" font-family="Helvetica,sans-Serif" font-size="10.00">Range_fwd.hpp</text>
</a>
</g>
</g>
<!-- Node18&#45;&gt;Node19 -->
<g id="edge24_Node000018_Node000019" class="edge">
<title>Node18&#45;&gt;Node19</title>
<g id="a_edge24_Node000018_Node000019"><a xlink:title=" ">
<path fill="none" stroke="#63b8ff" d="M278.28,-219.75C283.12,-212.42 290.18,-201.73 296.14,-192.7"/>
<polygon fill="#63b8ff" stroke="#63b8ff" points="299.24,-194.36 301.83,-184.09 293.4,-190.5 299.24,-194.36"/>
</a>
</g>
</g>
<!-- Node22 -->
<g id="Node000022" class="node">
<title>Node22</title>
<g id="a_Node000022"><a xlink:title=" ">
<polygon fill="#e0e0e0" stroke="#999999" points="205.5,-184 141.5,-184 141.5,-165 205.5,-165 205.5,-184"/>
<text text-anchor="middle" x="173.5" y="-172" font-family="Helvetica,sans-Serif" font-size="10.00">algorithm</text>
</a>
</g>
</g>
<!-- Node18&#45;&gt;Node22 -->
<g id="edge31_Node000018_Node000022" class="edge">
<title>Node18&#45;&gt;Node22</title>
<g id="a_edge31_Node000018_Node000022"><a xlink:title=" ">
<path fill="none" stroke="#63b8ff" d="M256.59,-219.98C240.95,-211.61 216.84,-198.7 198.62,-188.95"/>
<polygon fill="#63b8ff" stroke="#63b8ff" points="200.16,-185.8 189.7,-184.17 196.86,-191.98 200.16,-185.8"/>
</a>
</g>
</g>
<!-- Node19&#45;&gt;Node3 -->
<g id="edge25_Node000019_Node000003" class="edge">
<title>Node19&#45;&gt;Node3</title>
<g id="a_edge25_Node000019_Node000003"><a xlink:title=" ">
<path fill="none" stroke="#63b8ff" d="M326.14,-164.98C344.8,-156.46 373.75,-143.23 395.24,-133.41"/>
<polygon fill="#63b8ff" stroke="#63b8ff" points="396.88,-136.51 404.52,-129.17 393.97,-130.14 396.88,-136.51"/>
</a>
</g>
</g>
<!-- Node19&#45;&gt;Node4 -->
<g id="edge29_Node000019_Node000004" class="edge">
<title>Node19&#45;&gt;Node4</title>
<g id="a_edge29_Node000019_Node000004"><a xlink:title=" ">
<path fill="none" stroke="#63b8ff" d="M310.89,-164.74C320.8,-139.09 349.91,-63.78 363.44,-28.78"/>
<polygon fill="#63b8ff" stroke="#63b8ff" points="366.76,-29.9 367.1,-19.31 360.23,-27.37 366.76,-29.9"/>
</a>
</g>
</g>
<!-- Node19&#45;&gt;Node8 -->
<g id="edge30_Node000019_Node000008" class="edge">
<title>Node19&#45;&gt;Node8</title>
<g id="a_edge30_Node000019_Node000008"><a xlink:title=" ">
<path fill="none" stroke="#63b8ff" d="M342.37,-164.99C376.66,-156.59 430.77,-143.28 486.64,-129.2"/>
<polygon fill="#63b8ff" stroke="#63b8ff" points="487.52,-132.59 496.36,-126.75 485.8,-125.8 487.52,-132.59"/>
</a>
</g>
</g>
<!-- Node19&#45;&gt;Node9 -->
<g id="edge26_Node000019_Node000009" class="edge">
<title>Node19&#45;&gt;Node9</title>
<g id="a_edge26_Node000019_Node000009"><a xlink:title=" ">
<path fill="none" stroke="#63b8ff" d="M270.55,-164.98C230.93,-155.86 167.91,-141.33 124.73,-131.38"/>
<polygon fill="#63b8ff" stroke="#63b8ff" points="125.27,-127.92 114.74,-129.08 123.7,-134.74 125.27,-127.92"/>
</a>
</g>
</g>
<!-- Node20 -->
<g id="Node000020" class="node">
<title>Node20</title>
<g id="a_Node000020"><a xlink:href="traits_8hpp.html" target="_top" xlink:title="Type traits definition for vector and scalar fields.">
<polygon fill="white" stroke="#666666" points="236,-129 173,-129 173,-110 236,-110 236,-129"/>
<text text-anchor="middle" x="204.5" y="-117" font-family="Helvetica,sans-Serif" font-size="10.00">traits.hpp</text>
</a>
</g>
</g>
<!-- Node19&#45;&gt;Node20 -->
<g id="edge27_Node000019_Node000020" class="edge">
<title>Node19&#45;&gt;Node20</title>
<g id="a_edge27_Node000019_Node000020"><a xlink:title=" ">
<path fill="none" stroke="#63b8ff" d="M290.95,-164.98C274.61,-156.57 249.37,-143.59 230.37,-133.81"/>
<polygon fill="#63b8ff" stroke="#63b8ff" points="231.84,-130.63 221.35,-129.17 228.64,-136.86 231.84,-130.63"/>
</a>
</g>
</g>
<!-- Node21 -->
<g id="Node000021" class="node">
<title>Node21</title>
<g id="a_Node000021"><a xlink:title=" ">
<polygon fill="#e0e0e0" stroke="#999999" points="312.5,-129 254.5,-129 254.5,-110 312.5,-110 312.5,-129"/>
<text text-anchor="middle" x="283.5" y="-117" font-family="Helvetica,sans-Serif" font-size="10.00">memory</text>
</a>
</g>
</g>
<!-- Node19&#45;&gt;Node21 -->
<g id="edge28_Node000019_Node000021" class="edge">
<title>Node19&#45;&gt;Node21</title>
<g id="a_edge28_Node000019_Node000021"><a xlink:title=" ">
<path fill="none" stroke="#63b8ff" d="M303.54,-164.75C300.29,-157.57 295.58,-147.18 291.55,-138.27"/>
<polygon fill="#63b8ff" stroke="#63b8ff" points="294.7,-136.75 287.39,-129.09 288.33,-139.64 294.7,-136.75"/>
</a>
</g>
</g>
<!-- Node23&#45;&gt;Node2 -->
<g id="edge39_Node000023_Node000002" class="edge">
<title>Node23&#45;&gt;Node2</title>
<g id="a_edge39_Node000023_Node000002"><a xlink:title=" ">
<path fill="none" stroke="#63b8ff" d="M700.61,-219.98C689.35,-211.92 672.21,-199.65 658.79,-190.03"/>
<polygon fill="#63b8ff" stroke="#63b8ff" points="660.77,-187.15 650.61,-184.17 656.7,-192.84 660.77,-187.15"/>
</a>
</g>
</g>
<!-- Node23&#45;&gt;Node3 -->
<g id="edge35_Node000023_Node000003" class="edge">
<title>Node23&#45;&gt;Node3</title>
<g id="a_edge35_Node000023_Node000003"><a xlink:title=" ">
<path fill="none" stroke="#63b8ff" d="M681.18,-219.96C652.5,-211.81 609.08,-198.64 572.5,-184 554.6,-176.84 551.11,-172.84 533.5,-165 507.55,-153.45 477.64,-141.43 455.57,-132.8"/>
<polygon fill="#63b8ff" stroke="#63b8ff" points="456.61,-129.45 446.02,-129.09 454.07,-135.97 456.61,-129.45"/>
</a>
</g>
</g>
<!-- Node23&#45;&gt;Node4 -->
<g id="edge37_Node000023_Node000004" class="edge">
<title>Node23&#45;&gt;Node4</title>
<g id="a_edge37_Node000023_Node000004"><a xlink:title=" ">
<path fill="none" stroke="#63b8ff" d="M719.44,-219.78C735.3,-198.71 770.86,-144.3 744.5,-110 702.53,-55.4 487.98,-24.45 404.14,-14.28"/>
<polygon fill="#63b8ff" stroke="#63b8ff" points="404.47,-10.79 394.12,-13.08 403.64,-17.74 404.47,-10.79"/>
</a>
</g>
</g>
<!-- Node23&#45;&gt;Node6 -->
<g id="edge36_Node000023_Node000006" class="edge">
<title>Node23&#45;&gt;Node6</title>
<g id="a_edge36_Node000023_Node000006"><a xlink:title=" ">
<path fill="none" stroke="#63b8ff" d="M735.28,-219.89C750.53,-212.79 769.42,-201.08 778.5,-184 793.94,-154.96 793.58,-139.23 778.5,-110 755.6,-65.62 702.75,-36.73 668.93,-22.05"/>
<polygon fill="#63b8ff" stroke="#63b8ff" points="670.1,-18.74 659.52,-18.11 667.4,-25.2 670.1,-18.74"/>
</a>
</g>
</g>
<!-- Node23&#45;&gt;Node7 -->
<g id="edge38_Node000023_Node000007" class="edge">
<title>Node23&#45;&gt;Node7</title>
<g id="a_edge38_Node000023_Node000007"><a xlink:title=" ">
<path fill="none" stroke="#63b8ff" d="M711.6,-219.66C709.82,-202.17 705.81,-162.8 703.41,-139.27"/>
<polygon fill="#63b8ff" stroke="#63b8ff" points="706.88,-138.75 702.38,-129.16 699.91,-139.46 706.88,-138.75"/>
</a>
</g>
</g>
<!-- Node23&#45;&gt;Node9 -->
<g id="edge40_Node000023_Node000009" class="edge">
<title>Node23&#45;&gt;Node9</title>
<g id="a_edge40_Node000023_Node000009"><a xlink:title=" ">
<path fill="none" stroke="#63b8ff" d="M658.42,-223.8C541.02,-213.53 271.75,-189.54 252.5,-184 234.35,-178.78 231.97,-172.16 214.5,-165 182.66,-151.95 145.47,-140.08 117.87,-131.88"/>
<polygon fill="#63b8ff" stroke="#63b8ff" points="118.75,-128.49 108.17,-129.03 116.78,-135.21 118.75,-128.49"/>
</a>
</g>
</g>
</g>
</svg>

<g id="navigator" transform="translate(0 0)" fill="#404254">
  <rect fill="#f2f5e9" fill-opacity="0.5" stroke="#606060" stroke-width=".5" x="0" y="0" width="60" height="60"/>
  <use id="zoomplus" xlink:href="#zoomPlus" x="17" y="9" onmousedown="handleZoom(evt,'in')"/>
  <use id="zoomminus" xlink:href="#zoomMin" x="42" y="9" onmousedown="handleZoom(evt,'out')"/>
  <use id="reset" xlink:href="#resetDef" x="30" y="36" onmousedown="handleReset()"/>
   <use id="arrowup" xlink:href="#arrowUp" x="0" y="0" onmousedown="handlePan(0,-1)"/>
  <use id="arrowright" xlink:href="#arrowRight" x="0" y="0" onmousedown="handlePan(1,0)"/>
  <use id="arrowdown" xlink:href="#arrowDown" x="0" y="0" onmousedown="handlePan(0,1)"/>
  <use id="arrowleft" xlink:href="#arrowLeft" x="0" y="0" onmousedown="handlePan(-1,0)"/>
</g>
<svg viewBox="0 0 15 15" width="100%" height="30px" preserveAspectRatio="xMaxYMin meet">
 <g id="arrow_out" transform="scale(0.3 0.3)">
  <a xlink:href="Monomials_8hpp__incl_org.svg" target="_base">
   <rect id="button" ry="5" rx="5" y="6" x="6" height="38" width="38"
        fill="#f2f5e9" fill-opacity="0.5" stroke="#606060" stroke-width="1.0"/>
   <path id="arrow"
     d="M 11.500037,31.436501 C 11.940474,20.09759 22.043105,11.32322 32.158766,21.979434 L 37.068811,17.246167 C 37.068811,17.246167 37.088388,32 37.088388,32 L 22.160133,31.978069 C 22.160133,31.978069 26.997745,27.140456 26.997745,27.140456 C 18.528582,18.264221 13.291696,25.230495 11.500037,31.436501 z"
     style="fill:#404040;"/>
  </a>
 </g>
</svg>

<style type='text/css'>
<![CDATA[
[data-mouse-over-selected='false'] { opacity: 0.7; }
[data-mouse-over-selected='true']  { opacity: 1.0; }
]]>
</style>
<script type="application/ecmascript"><![CDATA[
document.addEventListener('DOMContentLoaded', (event) => {
  highlightEdges();
  highlightAdjacentNodes();
});
]]></script>
</svg>
