<?xml version="1.0" encoding="UTF-8" standalone="no"?>
<!DOCTYPE svg PUBLIC "-//W3C//DTD SVG 1.1//EN"
 "http://www.w3.org/Graphics/SVG/1.1/DTD/svg11.dtd">
<!-- Generated by graphviz version 2.43.0 (0)
 -->
<!-- Title: include/medusa/bits/approximations/Monomials.hpp Pages: 1 -->
<!--zoomable 379 -->

<svg id="main" version="1.1" xmlns="http://www.w3.org/2000/svg" xmlns:xlink="http://www.w3.org/1999/xlink" xml:space="preserve" onload="init(evt)">
<style type="text/css"><![CDATA[
.node, .edge {opacity: 0.7;}
.node.selected, .edge.selected {opacity: 1;}
.edge:hover path { stroke: red; }
.edge:hover polygon { stroke: red; fill: red; }
]]></style>

<defs>
  <circle id="rim" cx="0" cy="0" r="7"/>
  <circle id="rim2" cx="0" cy="0" r="3.5"/>
  <g id="zoomPlus">
    <use xlink:href="#rim" fill="#404040"><set attributeName="fill" to="#808080" begin="zoomplus.mouseover" end="zoomplus.mouseout"/></use>
    <path d="M-4,0h8M0,-4v8" fill="none" stroke="white" stroke-width="1.5" pointer-events="none"/>
  </g>
  <g id="zoomMin">
    <use xlink:href="#rim" fill="#404040"><set attributeName="fill" to="#808080" begin="zoomminus.mouseover" end="zoomminus.mouseout"/></use>
    <path d="M-4,0h8" fill="none" stroke="white" stroke-width="1.5" pointer-events="none"/>
  </g>
  <g id="arrowUp" transform="translate(30 24)">
    <use xlink:href="#rim"/>
    <path pointer-events="none" fill="none" stroke="white" stroke-width="1.5" d="M0,-3.0v7 M-2.5,-0.5L0,-3.0L2.5,-0.5"/>
  </g>
  <g id="arrowRight" transform="rotate(90) translate(36 -43)">
    <use xlink:href="#rim"/>
    <path pointer-events="none" fill="none" stroke="white" stroke-width="1.5" d="M0,-3.0v7 M-2.5,-0.5L0,-3.0L2.5,-0.5"/>
  </g>
  <g id="arrowDown" transform="rotate(180) translate(-30 -48)">
    <use xlink:href="#rim"/>
    <path pointer-events="none" fill="none" stroke="white" stroke-width="1.5" d="M0,-3.0v7 M-2.5,-0.5L0,-3.0L2.5,-0.5"/>
  </g>
  <g id="arrowLeft" transform="rotate(270) translate(-36 17)">
    <use xlink:href="#rim"/>
    <path pointer-events="none" fill="none" stroke="white" stroke-width="1.5" d="M0,-3.0v7 M-2.5,-0.5L0,-3.0L2.5,-0.5"/>
  </g>
  <g id="resetDef">
    <use xlink:href="#rim2" fill="#404040"><set attributeName="fill" to="#808080" begin="reset.mouseover" end="reset.mouseout"/></use>
  </g>
</defs>
<script type="application/ecmascript">
var viewWidth = 804;
var viewHeight = 379;
var sectionId = 'dynsection-1';
</script>
<script type="application/ecmascript" xlink:href="svg.min.js"/>
<svg id="graph" class="graph">
<g id="viewport">
<title>include/medusa/bits/approximations/Monomials.hpp</title>
<!-- Node1 -->
<g id="Node000001" class="node">
<title>Node1</title>
<g id="a_Node000001"><a xlink:title="Implementation of Monomial basis.">
<polygon fill="#999999" stroke="#666666" points="617.24,-371 443.24,-371 443.24,-341 617.24,-341 617.24,-371"/>
<text text-anchor="start" x="451.24" y="-359" font-family="Helvetica,sans-Serif" font-size="10.00">include/medusa/bits</text>
<text text-anchor="middle" x="530.24" y="-348" font-family="Helvetica,sans-Serif" font-size="10.00">/approximations/Monomials.hpp</text>
</a>
</g>
</g>
<!-- Node2 -->
<g id="Node000002" class="node">
<title>Node2</title>
<g id="a_Node000002"><a xlink:href="Approximations_8hpp.html" target="_top" xlink:title="Header for Approximations module.">
<polygon fill="white" stroke="#666666" points="303.74,-79.5 108.74,-79.5 108.74,-60.5 303.74,-60.5 303.74,-79.5"/>
<text text-anchor="middle" x="206.24" y="-67.5" font-family="Helvetica,sans-Serif" font-size="10.00">include/medusa/Approximations.hpp</text>
</a>
</g>
</g>
<!-- Node1&#45;&gt;Node2 -->
<g id="edge1_Node000001_Node000002" class="edge">
<title>Node1&#45;&gt;Node2</title>
<g id="a_edge1_Node000001_Node000002"><a xlink:title=" ">
<path fill="none" stroke="#63b8ff" d="M433.05,-345.93C296,-330.85 56.96,-295.41 6.24,-228 -1.2,-218.11 -3.13,-134.09 7.24,-121 23.36,-100.65 85.63,-87.27 136.27,-79.51"/>
<polygon fill="#63b8ff" stroke="#63b8ff" points="432.82,-349.42 443.14,-347.02 433.58,-342.46 432.82,-349.42"/>
</a>
</g>
</g>
<!-- Node4 -->
<g id="Node000004" class="node">
<title>Node4</title>
<g id="a_Node000004"><a xlink:href="RBFInterpolant__fwd_8hpp.html" target="_top" xlink:title="RBFInterpolant class definition.">
<polygon fill="white" stroke="#666666" points="454.24,-305 282.24,-305 282.24,-264 454.24,-264 454.24,-305"/>
<text text-anchor="start" x="290.24" y="-293" font-family="Helvetica,sans-Serif" font-size="10.00">include/medusa/bits</text>
<text text-anchor="start" x="290.24" y="-282" font-family="Helvetica,sans-Serif" font-size="10.00">/approximations/RBFInterpolant</text>
<text text-anchor="middle" x="368.24" y="-271" font-family="Helvetica,sans-Serif" font-size="10.00">_fwd.hpp</text>
</a>
</g>
</g>
<!-- Node1&#45;&gt;Node4 -->
<g id="edge3_Node000001_Node000004" class="edge">
<title>Node1&#45;&gt;Node4</title>
<g id="a_edge3_Node000001_Node000004"><a xlink:title=" ">
<path fill="none" stroke="#63b8ff" d="M488.05,-336.9C465.28,-327.13 437.15,-315.06 413.86,-305.07"/>
<polygon fill="#63b8ff" stroke="#63b8ff" points="486.89,-340.21 497.46,-340.94 489.65,-333.78 486.89,-340.21"/>
</a>
</g>
</g>
<!-- Node9 -->
<g id="Node000009" class="node">
<title>Node9</title>
<g id="a_Node000009"><a xlink:href="RBFFD_8cpp.html" target="_top" xlink:title="Instantiations of common RBFFD approximations.">
<polygon fill="white" stroke="#666666" points="585.24,-85 475.24,-85 475.24,-55 585.24,-55 585.24,-85"/>
<text text-anchor="start" x="483.24" y="-73" font-family="Helvetica,sans-Serif" font-size="10.00">src/approximations</text>
<text text-anchor="middle" x="530.24" y="-62" font-family="Helvetica,sans-Serif" font-size="10.00">/RBFFD.cpp</text>
</a>
</g>
</g>
<!-- Node1&#45;&gt;Node9 -->
<g id="edge18_Node000001_Node000009" class="edge">
<title>Node1&#45;&gt;Node9</title>
<g id="a_edge18_Node000001_Node000009"><a xlink:title=" ">
<path fill="none" stroke="#63b8ff" d="M530.24,-330.61C530.24,-273.13 530.24,-130.62 530.24,-85.17"/>
<polygon fill="#63b8ff" stroke="#63b8ff" points="526.74,-330.92 530.24,-340.92 533.74,-330.92 526.74,-330.92"/>
</a>
</g>
</g>
<!-- Node12 -->
<g id="Node000012" class="node">
<title>Node12</title>
<g id="a_Node000012"><a xlink:href="Monomials_8cpp.html" target="_top" xlink:title="Instantiations of most commonly used Monomial bases.">
<polygon fill="white" stroke="#666666" points="668.24,-299.5 558.24,-299.5 558.24,-269.5 668.24,-269.5 668.24,-299.5"/>
<text text-anchor="start" x="566.24" y="-287.5" font-family="Helvetica,sans-Serif" font-size="10.00">src/approximations</text>
<text text-anchor="middle" x="613.24" y="-276.5" font-family="Helvetica,sans-Serif" font-size="10.00">/Monomials.cpp</text>
</a>
</g>
</g>
<!-- Node1&#45;&gt;Node12 -->
<g id="edge17_Node000001_Node000012" class="edge">
<title>Node1&#45;&gt;Node12</title>
<g id="a_edge17_Node000001_Node000012"><a xlink:title=" ">
<path fill="none" stroke="#63b8ff" d="M554.95,-334.31C568.35,-323.09 584.55,-309.52 596.47,-299.54"/>
<polygon fill="#63b8ff" stroke="#63b8ff" points="552.45,-331.83 547.03,-340.94 556.95,-337.2 552.45,-331.83"/>
</a>
</g>
</g>
<!-- Node13 -->
<g id="Node000013" class="node">
<title>Node13</title>
<g id="a_Node000013"><a xlink:href="WLS_8cpp.html" target="_top" xlink:title="Instantiations of commonly used WLS approximations.">
<polygon fill="white" stroke="#666666" points="796.24,-299.5 686.24,-299.5 686.24,-269.5 796.24,-269.5 796.24,-299.5"/>
<text text-anchor="start" x="694.24" y="-287.5" font-family="Helvetica,sans-Serif" font-size="10.00">src/approximations</text>
<text text-anchor="middle" x="741.24" y="-276.5" font-family="Helvetica,sans-Serif" font-size="10.00">/WLS.cpp</text>
</a>
</g>
</g>
<!-- Node1&#45;&gt;Node13 -->
<g id="edge19_Node000001_Node000013" class="edge">
<title>Node1&#45;&gt;Node13</title>
<g id="a_edge19_Node000001_Node000013"><a xlink:title=" ">
<path fill="none" stroke="#63b8ff" d="M582.71,-337.72C618.45,-325.95 665.16,-310.56 698.6,-299.54"/>
<polygon fill="#63b8ff" stroke="#63b8ff" points="581.34,-334.48 572.94,-340.94 583.53,-341.13 581.34,-334.48"/>
</a>
</g>
</g>
<!-- Node3 -->
<g id="Node000003" class="node">
<title>Node3</title>
<g id="a_Node000003"><a xlink:href="Medusa_8hpp.html" target="_top" xlink:title="Main header file that includes most other components.">
<polygon fill="white" stroke="#666666" points="375.24,-19 219.24,-19 219.24,0 375.24,0 375.24,-19"/>
<text text-anchor="middle" x="297.24" y="-7" font-family="Helvetica,sans-Serif" font-size="10.00">include/medusa/Medusa.hpp</text>
</a>
</g>
</g>
<!-- Node2&#45;&gt;Node3 -->
<g id="edge2_Node000002_Node000003" class="edge">
<title>Node2&#45;&gt;Node3</title>
<g id="a_edge2_Node000002_Node000003"><a xlink:title=" ">
<path fill="none" stroke="#63b8ff" d="M228.55,-54.66C245.83,-43.55 269.22,-28.51 283.76,-19.17"/>
<polygon fill="#63b8ff" stroke="#63b8ff" points="226.19,-52.02 219.67,-60.37 229.97,-57.9 226.19,-52.02"/>
</a>
</g>
</g>
<!-- Node5 -->
<g id="Node000005" class="node">
<title>Node5</title>
<g id="a_Node000005"><a xlink:href="Approximations__fwd_8hpp.html" target="_top" xlink:title="Header for Approximations module, declarations only.">
<polygon fill="white" stroke="#666666" points="502.24,-151 328.24,-151 328.24,-121 502.24,-121 502.24,-151"/>
<text text-anchor="start" x="336.24" y="-139" font-family="Helvetica,sans-Serif" font-size="10.00">include/medusa/Approximations</text>
<text text-anchor="middle" x="415.24" y="-128" font-family="Helvetica,sans-Serif" font-size="10.00">_fwd.hpp</text>
</a>
</g>
</g>
<!-- Node4&#45;&gt;Node5 -->
<g id="edge4_Node000004_Node000005" class="edge">
<title>Node4&#45;&gt;Node5</title>
<g id="a_edge4_Node000004_Node000005"><a xlink:title=" ">
<path fill="none" stroke="#63b8ff" d="M384.55,-254.72C388.82,-246.31 393.11,-236.96 396.24,-228 405.46,-201.65 410.89,-169.35 413.45,-151.18"/>
<polygon fill="#63b8ff" stroke="#63b8ff" points="381.35,-253.28 379.79,-263.76 387.55,-256.54 381.35,-253.28"/>
</a>
</g>
</g>
<!-- Node7 -->
<g id="Node000007" class="node">
<title>Node7</title>
<g id="a_Node000007"><a xlink:href="RBFFD__fwd_8hpp.html" target="_top" xlink:title="Declaration of Radial Basis Function Finite Difference approximation.">
<polygon fill="white" stroke="#666666" points="387.24,-228 255.24,-228 255.24,-187 387.24,-187 387.24,-228"/>
<text text-anchor="start" x="263.24" y="-216" font-family="Helvetica,sans-Serif" font-size="10.00">include/medusa/bits</text>
<text text-anchor="start" x="263.24" y="-205" font-family="Helvetica,sans-Serif" font-size="10.00">/approximations/RBFFD</text>
<text text-anchor="middle" x="321.24" y="-194" font-family="Helvetica,sans-Serif" font-size="10.00">_fwd.hpp</text>
</a>
</g>
</g>
<!-- Node4&#45;&gt;Node7 -->
<g id="edge8_Node000004_Node000007" class="edge">
<title>Node4&#45;&gt;Node7</title>
<g id="a_edge8_Node000004_Node000007"><a xlink:title=" ">
<path fill="none" stroke="#63b8ff" d="M350.45,-255.11C344.8,-246.09 338.68,-236.33 333.5,-228.07"/>
<polygon fill="#63b8ff" stroke="#63b8ff" points="347.61,-257.18 355.89,-263.79 353.55,-253.46 347.61,-257.18"/>
</a>
</g>
</g>
<!-- Node10 -->
<g id="Node000010" class="node">
<title>Node10</title>
<g id="a_Node000010"><a xlink:href="RBFInterpolant_8hpp.html" target="_top" xlink:title="Implementation of the RBFInterpolant class.">
<polygon fill="white" stroke="#666666" points="208.74,-222.5 15.74,-222.5 15.74,-192.5 208.74,-192.5 208.74,-222.5"/>
<text text-anchor="start" x="23.74" y="-210.5" font-family="Helvetica,sans-Serif" font-size="10.00">include/medusa/bits</text>
<text text-anchor="middle" x="112.24" y="-199.5" font-family="Helvetica,sans-Serif" font-size="10.00">/approximations/RBFInterpolant.hpp</text>
</a>
</g>
</g>
<!-- Node4&#45;&gt;Node10 -->
<g id="edge13_Node000004_Node000010" class="edge">
<title>Node4&#45;&gt;Node10</title>
<g id="a_edge13_Node000004_Node000010"><a xlink:title=" ">
<path fill="none" stroke="#63b8ff" d="M291.85,-261.12C249.18,-248.62 197.31,-233.42 160.31,-222.58"/>
<polygon fill="#63b8ff" stroke="#63b8ff" points="291.07,-264.54 301.65,-263.99 293.03,-257.82 291.07,-264.54"/>
</a>
</g>
</g>
<!-- Node5&#45;&gt;Node2 -->
<g id="edge5_Node000005_Node000002" class="edge">
<title>Node5&#45;&gt;Node2</title>
<g id="a_edge5_Node000005_Node000002"><a xlink:title=" ">
<path fill="none" stroke="#63b8ff" d="M359.63,-117.97C319.13,-105.57 265.97,-89.29 234.05,-79.52"/>
<polygon fill="#63b8ff" stroke="#63b8ff" points="358.79,-121.37 369.37,-120.95 360.84,-114.68 358.79,-121.37"/>
</a>
</g>
</g>
<!-- Node6 -->
<g id="Node000006" class="node">
<title>Node6</title>
<g id="a_Node000006"><a xlink:href="Medusa__fwd_8hpp.html" target="_top" xlink:title="Main header file that includes only declarations for some heavy classes such as mm::WLS to reduce com...">
<polygon fill="white" stroke="#666666" points="456.74,-85 321.74,-85 321.74,-55 456.74,-55 456.74,-85"/>
<text text-anchor="start" x="329.74" y="-73" font-family="Helvetica,sans-Serif" font-size="10.00">include/medusa/Medusa</text>
<text text-anchor="middle" x="389.24" y="-62" font-family="Helvetica,sans-Serif" font-size="10.00">_fwd.hpp</text>
</a>
</g>
</g>
<!-- Node5&#45;&gt;Node6 -->
<g id="edge6_Node000005_Node000006" class="edge">
<title>Node5&#45;&gt;Node6</title>
<g id="a_edge6_Node000005_Node000006"><a xlink:title=" ">
<path fill="none" stroke="#63b8ff" d="M405.65,-111.39C402.07,-102.59 398.12,-92.86 394.99,-85.16"/>
<polygon fill="#63b8ff" stroke="#63b8ff" points="402.46,-112.85 409.47,-120.8 408.95,-110.21 402.46,-112.85"/>
</a>
</g>
</g>
<!-- Node6&#45;&gt;Node3 -->
<g id="edge7_Node000006_Node000003" class="edge">
<title>Node6&#45;&gt;Node3</title>
<g id="a_edge7_Node000006_Node000003"><a xlink:title=" ">
<path fill="none" stroke="#63b8ff" d="M358.34,-49.35C342.17,-39.07 323.22,-27.02 310.75,-19.09"/>
<polygon fill="#63b8ff" stroke="#63b8ff" points="356.65,-52.43 366.97,-54.84 360.41,-46.52 356.65,-52.43"/>
</a>
</g>
</g>
<!-- Node7&#45;&gt;Node5 -->
<g id="edge9_Node000007_Node000005" class="edge">
<title>Node7&#45;&gt;Node5</title>
<g id="a_edge9_Node000007_Node000005"><a xlink:title=" ">
<path fill="none" stroke="#63b8ff" d="M355.91,-180.87C369.51,-170.81 384.59,-159.66 396.15,-151.11"/>
<polygon fill="#63b8ff" stroke="#63b8ff" points="353.63,-178.2 347.67,-186.96 357.79,-183.82 353.63,-178.2"/>
</a>
</g>
</g>
<!-- Node8 -->
<g id="Node000008" class="node">
<title>Node8</title>
<g id="a_Node000008"><a xlink:href="RBFFD_8hpp.html" target="_top" xlink:title="Implementation of Radial Basis Function Finite Difference approximation.">
<polygon fill="white" stroke="#666666" points="309.74,-151 156.74,-151 156.74,-121 309.74,-121 309.74,-151"/>
<text text-anchor="start" x="164.74" y="-139" font-family="Helvetica,sans-Serif" font-size="10.00">include/medusa/bits</text>
<text text-anchor="middle" x="233.24" y="-128" font-family="Helvetica,sans-Serif" font-size="10.00">/approximations/RBFFD.hpp</text>
</a>
</g>
</g>
<!-- Node7&#45;&gt;Node8 -->
<g id="edge10_Node000007_Node000008" class="edge">
<title>Node7&#45;&gt;Node8</title>
<g id="a_edge10_Node000007_Node000008"><a xlink:title=" ">
<path fill="none" stroke="#63b8ff" d="M288.2,-180.41C275.58,-170.44 261.68,-159.46 251.01,-151.04"/>
<polygon fill="#63b8ff" stroke="#63b8ff" points="286.24,-183.32 296.26,-186.77 290.58,-177.83 286.24,-183.32"/>
</a>
</g>
</g>
<!-- Node8&#45;&gt;Node2 -->
<g id="edge11_Node000008_Node000002" class="edge">
<title>Node8&#45;&gt;Node2</title>
<g id="a_edge11_Node000008_Node000002"><a xlink:title=" ">
<path fill="none" stroke="#63b8ff" d="M223.23,-111.28C218.6,-100.31 213.39,-87.94 209.97,-79.84"/>
<polygon fill="#63b8ff" stroke="#63b8ff" points="220.13,-112.94 227.25,-120.8 226.58,-110.22 220.13,-112.94"/>
</a>
</g>
</g>
<!-- Node8&#45;&gt;Node9 -->
<g id="edge12_Node000008_Node000009" class="edge">
<title>Node8&#45;&gt;Node9</title>
<g id="a_edge12_Node000008_Node000009"><a xlink:title=" ">
<path fill="none" stroke="#63b8ff" d="M308.85,-118.85C354.44,-109.1 413.69,-96.39 466.24,-85 469.13,-84.37 472.09,-83.73 475.08,-83.08"/>
<polygon fill="#63b8ff" stroke="#63b8ff" points="308.08,-115.44 299.04,-120.95 309.55,-122.28 308.08,-115.44"/>
</a>
</g>
</g>
<!-- Node10&#45;&gt;Node2 -->
<g id="edge14_Node000010_Node000002" class="edge">
<title>Node10&#45;&gt;Node2</title>
<g id="a_edge14_Node000010_Node000002"><a xlink:title=" ">
<path fill="none" stroke="#63b8ff" d="M65.61,-188.12C32,-172.13 -4.13,-147.42 16.24,-121 31.65,-101.01 92.74,-87.42 141.55,-79.51"/>
<polygon fill="#63b8ff" stroke="#63b8ff" points="64.42,-191.43 74.97,-192.4 67.33,-185.06 64.42,-191.43"/>
</a>
</g>
</g>
<!-- Node10&#45;&gt;Node8 -->
<g id="edge15_Node000010_Node000008" class="edge">
<title>Node10&#45;&gt;Node8</title>
<g id="a_edge15_Node000010_Node000008"><a xlink:title=" ">
<path fill="none" stroke="#63b8ff" d="M145.53,-187.38C165.55,-175.88 190.59,-161.49 208.79,-151.04"/>
<polygon fill="#63b8ff" stroke="#63b8ff" points="143.65,-184.42 136.72,-192.44 147.14,-190.49 143.65,-184.42"/>
</a>
</g>
</g>
<!-- Node11 -->
<g id="Node000011" class="node">
<title>Node11</title>
<g id="a_Node000011"><a xlink:href="RBFInterpolant_8cpp.html" target="_top" xlink:title="Instantiations of commonly used RBFInterpolant instances.">
<polygon fill="white" stroke="#666666" points="138.74,-151 25.74,-151 25.74,-121 138.74,-121 138.74,-151"/>
<text text-anchor="start" x="33.74" y="-139" font-family="Helvetica,sans-Serif" font-size="10.00">src/approximations</text>
<text text-anchor="middle" x="82.24" y="-128" font-family="Helvetica,sans-Serif" font-size="10.00">/RBFInterpolant.cpp</text>
</a>
</g>
</g>
<!-- Node10&#45;&gt;Node11 -->
<g id="edge16_Node000010_Node000011" class="edge">
<title>Node10&#45;&gt;Node11</title>
<g id="a_edge16_Node000010_Node000011"><a xlink:title=" ">
<path fill="none" stroke="#63b8ff" d="M102.19,-183.23C97.59,-172.56 92.28,-160.27 88.3,-151.04"/>
<polygon fill="#63b8ff" stroke="#63b8ff" points="98.99,-184.64 106.17,-192.44 105.42,-181.87 98.99,-184.64"/>
</a>
</g>
</g>
</g>
</svg>

<g id="navigator" transform="translate(0 0)" fill="#404254">
  <rect fill="#f2f5e9" fill-opacity="0.5" stroke="#606060" stroke-width=".5" x="0" y="0" width="60" height="60"/>
  <use id="zoomplus" xlink:href="#zoomPlus" x="17" y="9" onmousedown="handleZoom(evt,'in')"/>
  <use id="zoomminus" xlink:href="#zoomMin" x="42" y="9" onmousedown="handleZoom(evt,'out')"/>
  <use id="reset" xlink:href="#resetDef" x="30" y="36" onmousedown="handleReset()"/>
   <use id="arrowup" xlink:href="#arrowUp" x="0" y="0" onmousedown="handlePan(0,-1)"/>
  <use id="arrowright" xlink:href="#arrowRight" x="0" y="0" onmousedown="handlePan(1,0)"/>
  <use id="arrowdown" xlink:href="#arrowDown" x="0" y="0" onmousedown="handlePan(0,1)"/>
  <use id="arrowleft" xlink:href="#arrowLeft" x="0" y="0" onmousedown="handlePan(-1,0)"/>
</g>
<svg viewBox="0 0 15 15" width="100%" height="30px" preserveAspectRatio="xMaxYMin meet">
 <g id="arrow_out" transform="scale(0.3 0.3)">
  <a xlink:href="Monomials_8hpp__dep__incl_org.svg" target="_base">
   <rect id="button" ry="5" rx="5" y="6" x="6" height="38" width="38"
        fill="#f2f5e9" fill-opacity="0.5" stroke="#606060" stroke-width="1.0"/>
   <path id="arrow"
     d="M 11.500037,31.436501 C 11.940474,20.09759 22.043105,11.32322 32.158766,21.979434 L 37.068811,17.246167 C 37.068811,17.246167 37.088388,32 37.088388,32 L 22.160133,31.978069 C 22.160133,31.978069 26.997745,27.140456 26.997745,27.140456 C 18.528582,18.264221 13.291696,25.230495 11.500037,31.436501 z"
     style="fill:#404040;"/>
  </a>
 </g>
</svg>

<style type='text/css'>
<![CDATA[
[data-mouse-over-selected='false'] { opacity: 0.7; }
[data-mouse-over-selected='true']  { opacity: 1.0; }
]]>
</style>
<script type="application/ecmascript"><![CDATA[
document.addEventListener('DOMContentLoaded', (event) => {
  highlightEdges();
  highlightAdjacentNodes();
});
]]></script>
</svg>
