<?xml version="1.0" encoding="UTF-8" standalone="no"?>
<!DOCTYPE svg PUBLIC "-//W3C//DTD SVG 1.1//EN"
 "http://www.w3.org/Graphics/SVG/1.1/DTD/svg11.dtd">
<!-- Generated by graphviz version 2.43.0 (0)
 -->
<!-- Title: src/approximations/Monomials.cpp Pages: 1 -->
<svg width="855pt" height="434pt"
 viewBox="0.00 0.00 855.00 434.00" xmlns="http://www.w3.org/2000/svg" xmlns:xlink="http://www.w3.org/1999/xlink">
<g id="graph0" class="graph" transform="scale(1 1) rotate(0) translate(4 430)">
<title>src/approximations/Monomials.cpp</title>
<!-- Node1 -->
<g id="Node000001" class="node">
<title>Node1</title>
<g id="a_Node000001"><a xlink:title="Instantiations of most commonly used Monomial bases.">
<polygon fill="#999999" stroke="#666666" points="629,-426 519,-426 519,-396 629,-396 629,-426"/>
<text text-anchor="start" x="527" y="-414" font-family="Helvetica,sans-Serif" font-size="10.00">src/approximations</text>
<text text-anchor="middle" x="574" y="-403" font-family="Helvetica,sans-Serif" font-size="10.00">/Monomials.cpp</text>
</a>
</g>
</g>
<!-- Node2 -->
<g id="Node000002" class="node">
<title>Node2</title>
<g id="a_Node000002"><a xlink:href="Monomials_8hpp.html" target="_top" xlink:title="Implementation of Monomial basis.">
<polygon fill="white" stroke="#666666" points="599,-360 443,-360 443,-330 599,-330 599,-360"/>
<text text-anchor="start" x="451" y="-348" font-family="Helvetica,sans-Serif" font-size="10.00">medusa/bits/approximations</text>
<text text-anchor="middle" x="521" y="-337" font-family="Helvetica,sans-Serif" font-size="10.00">/Monomials.hpp</text>
</a>
</g>
</g>
<!-- Node1&#45;&gt;Node2 -->
<g id="edge1_Node000001_Node000002" class="edge">
<title>Node1&#45;&gt;Node2</title>
<g id="a_edge1_Node000001_Node000002"><a xlink:title=" ">
<path fill="none" stroke="#63b8ff" d="M562.24,-395.8C555.44,-387.59 546.76,-377.1 539.11,-367.87"/>
<polygon fill="#63b8ff" stroke="#63b8ff" points="541.8,-365.63 532.73,-360.16 536.41,-370.1 541.8,-365.63"/>
</a>
</g>
</g>
<!-- Node17 -->
<g id="Node000017" class="node">
<title>Node17</title>
<g id="a_Node000017"><a xlink:href="Vec_8hpp.html" target="_top" xlink:title="Implemetations for Vec.">
<polygon fill="white" stroke="#666666" points="847,-239 699,-239 699,-220 847,-220 847,-239"/>
<text text-anchor="middle" x="773" y="-227" font-family="Helvetica,sans-Serif" font-size="10.00">medusa/bits/types/Vec.hpp</text>
</a>
</g>
</g>
<!-- Node1&#45;&gt;Node17 -->
<g id="edge42_Node000001_Node000017" class="edge">
<title>Node1&#45;&gt;Node17</title>
<g id="a_edge42_Node000001_Node000017"><a xlink:title=" ">
<path fill="none" stroke="#63b8ff" d="M589.62,-395.91C626.24,-362.88 717.47,-280.59 755.71,-246.1"/>
<polygon fill="#63b8ff" stroke="#63b8ff" points="758.35,-248.43 763.43,-239.13 753.66,-243.23 758.35,-248.43"/>
</a>
</g>
</g>
<!-- Node3 -->
<g id="Node000003" class="node">
<title>Node3</title>
<g id="a_Node000003"><a xlink:href="Monomials__fwd_8hpp.html" target="_top" xlink:title="Declaration of Monomial basis.">
<polygon fill="white" stroke="#666666" points="626,-184 512,-184 512,-165 626,-165 626,-184"/>
<text text-anchor="middle" x="569" y="-172" font-family="Helvetica,sans-Serif" font-size="10.00">Monomials_fwd.hpp</text>
</a>
</g>
</g>
<!-- Node2&#45;&gt;Node3 -->
<g id="edge2_Node000002_Node000003" class="edge">
<title>Node2&#45;&gt;Node3</title>
<g id="a_edge2_Node000002_Node000003"><a xlink:title=" ">
<path fill="none" stroke="#63b8ff" d="M525.01,-329.92C533.63,-299.65 553.95,-228.35 563.65,-194.27"/>
<polygon fill="#63b8ff" stroke="#63b8ff" points="567.13,-194.83 566.51,-184.25 560.4,-192.91 567.13,-194.83"/>
</a>
</g>
</g>
<!-- Node10 -->
<g id="Node000010" class="node">
<title>Node10</title>
<g id="a_Node000010"><a xlink:href="assert_8hpp.html" target="_top" xlink:title="Implementation of custom assert and debug utilities.">
<polygon fill="white" stroke="#666666" points="203.5,-129 48.5,-129 48.5,-110 203.5,-110 203.5,-129"/>
<text text-anchor="middle" x="126" y="-117" font-family="Helvetica,sans-Serif" font-size="10.00">medusa/bits/utils/assert.hpp</text>
</a>
</g>
</g>
<!-- Node2&#45;&gt;Node10 -->
<g id="edge9_Node000002_Node000010" class="edge">
<title>Node2&#45;&gt;Node10</title>
<g id="a_edge9_Node000002_Node000010"><a xlink:title=" ">
<path fill="none" stroke="#63b8ff" d="M448.56,-329.96C383.66,-314.96 287.89,-286.64 216,-239 186.39,-219.38 179.2,-212.51 158,-184 147.54,-169.93 138.83,-151.93 133.16,-138.68"/>
<polygon fill="#63b8ff" stroke="#63b8ff" points="136.32,-137.17 129.28,-129.25 129.85,-139.83 136.32,-137.17"/>
</a>
</g>
</g>
<!-- Node13 -->
<g id="Node000013" class="node">
<title>Node13</title>
<g id="a_Node000013"><a xlink:title=" ">
<polygon fill="#e0e0e0" stroke="#999999" points="60,-19 0,-19 0,0 60,0 60,-19"/>
<text text-anchor="middle" x="30" y="-7" font-family="Helvetica,sans-Serif" font-size="10.00">iostream</text>
</a>
</g>
</g>
<!-- Node2&#45;&gt;Node13 -->
<g id="edge34_Node000002_Node000013" class="edge">
<title>Node2&#45;&gt;Node13</title>
<g id="a_edge34_Node000002_Node000013"><a xlink:title=" ">
<path fill="none" stroke="#63b8ff" d="M442.99,-342.33C302.18,-337.18 20,-316.17 20,-230.5 20,-230.5 20,-230.5 20,-118.5 20,-87.06 24.25,-50.68 27.21,-29.19"/>
<polygon fill="#63b8ff" stroke="#63b8ff" points="30.7,-29.55 28.65,-19.15 23.77,-28.56 30.7,-29.55"/>
</a>
</g>
</g>
<!-- Node16 -->
<g id="Node000016" class="node">
<title>Node16</title>
<g id="a_Node000016"><a xlink:href="numutils_8hpp.html" target="_top" xlink:title="Declaration of numerical utilities.">
<polygon fill="white" stroke="#666666" points="517.5,-294 350.5,-294 350.5,-275 517.5,-275 517.5,-294"/>
<text text-anchor="middle" x="434" y="-282" font-family="Helvetica,sans-Serif" font-size="10.00">medusa/bits/utils/numutils.hpp</text>
</a>
</g>
</g>
<!-- Node2&#45;&gt;Node16 -->
<g id="edge17_Node000002_Node000016" class="edge">
<title>Node2&#45;&gt;Node16</title>
<g id="a_edge17_Node000002_Node000016"><a xlink:title=" ">
<path fill="none" stroke="#63b8ff" d="M499.94,-329.84C486.46,-320.77 469.01,-309.04 455.45,-299.92"/>
<polygon fill="#63b8ff" stroke="#63b8ff" points="457.03,-296.77 446.78,-294.09 453.13,-302.58 457.03,-296.77"/>
</a>
</g>
</g>
<!-- Node24 -->
<g id="Node000024" class="node">
<title>Node24</title>
<g id="a_Node000024"><a xlink:href="Operators__fwd_8hpp.html" target="_top" xlink:title="File defining basic differential operator families.">
<polygon fill="white" stroke="#666666" points="681,-239 573,-239 573,-220 681,-220 681,-239"/>
<text text-anchor="middle" x="627" y="-227" font-family="Helvetica,sans-Serif" font-size="10.00">Operators_fwd.hpp</text>
</a>
</g>
</g>
<!-- Node2&#45;&gt;Node24 -->
<g id="edge35_Node000002_Node000024" class="edge">
<title>Node2&#45;&gt;Node24</title>
<g id="a_edge35_Node000002_Node000024"><a xlink:title=" ">
<path fill="none" stroke="#63b8ff" d="M534.42,-329.63C554.27,-308.37 591.32,-268.71 612.02,-246.54"/>
<polygon fill="#63b8ff" stroke="#63b8ff" points="614.58,-248.93 618.85,-239.23 609.46,-244.15 614.58,-248.93"/>
</a>
</g>
</g>
<!-- Node4 -->
<g id="Node000004" class="node">
<title>Node4</title>
<g id="a_Node000004"><a xlink:href="Config_8hpp.html" target="_top" xlink:title="Contains compile time settings for the project, such as Eigen plugins.">
<polygon fill="white" stroke="#666666" points="659,-129 549,-129 549,-110 659,-110 659,-129"/>
<text text-anchor="middle" x="604" y="-117" font-family="Helvetica,sans-Serif" font-size="10.00">medusa/Config.hpp</text>
</a>
</g>
</g>
<!-- Node3&#45;&gt;Node4 -->
<g id="edge3_Node000003_Node000004" class="edge">
<title>Node3&#45;&gt;Node4</title>
<g id="a_edge3_Node000003_Node000004"><a xlink:title=" ">
<path fill="none" stroke="#63b8ff" d="M574.78,-164.75C579.62,-157.42 586.68,-146.73 592.64,-137.7"/>
<polygon fill="#63b8ff" stroke="#63b8ff" points="595.74,-139.36 598.33,-129.09 589.9,-135.5 595.74,-139.36"/>
</a>
</g>
</g>
<!-- Node6 -->
<g id="Node000006" class="node">
<title>Node6</title>
<g id="a_Node000006"><a xlink:title=" ">
<polygon fill="#e0e0e0" stroke="#999999" points="530.5,-129 483.5,-129 483.5,-110 530.5,-110 530.5,-129"/>
<text text-anchor="middle" x="507" y="-117" font-family="Helvetica,sans-Serif" font-size="10.00">cmath</text>
</a>
</g>
</g>
<!-- Node3&#45;&gt;Node6 -->
<g id="edge5_Node000003_Node000006" class="edge">
<title>Node3&#45;&gt;Node6</title>
<g id="a_edge5_Node000003_Node000006"><a xlink:title=" ">
<path fill="none" stroke="#63b8ff" d="M559.04,-164.98C549.87,-157.15 536.06,-145.34 524.97,-135.86"/>
<polygon fill="#63b8ff" stroke="#63b8ff" points="527.02,-133.01 517.14,-129.17 522.47,-138.33 527.02,-133.01"/>
</a>
</g>
</g>
<!-- Node7 -->
<g id="Node000007" class="node">
<title>Node7</title>
<g id="a_Node000007"><a xlink:title=" ">
<polygon fill="#e0e0e0" stroke="#999999" points="708,-19 666,-19 666,0 708,0 708,-19"/>
<text text-anchor="middle" x="687" y="-7" font-family="Helvetica,sans-Serif" font-size="10.00">array</text>
</a>
</g>
</g>
<!-- Node3&#45;&gt;Node7 -->
<g id="edge6_Node000003_Node000007" class="edge">
<title>Node3&#45;&gt;Node7</title>
<g id="a_edge6_Node000003_Node000007"><a xlink:title=" ">
<path fill="none" stroke="#63b8ff" d="M609.74,-164.92C630.31,-158.48 653.85,-147.47 668,-129 690.41,-99.74 690.92,-54.33 689.1,-29.07"/>
<polygon fill="#63b8ff" stroke="#63b8ff" points="692.57,-28.64 688.17,-19 685.6,-29.29 692.57,-28.64"/>
</a>
</g>
</g>
<!-- Node8 -->
<g id="Node000008" class="node">
<title>Node8</title>
<g id="a_Node000008"><a xlink:title=" ">
<polygon fill="#e0e0e0" stroke="#999999" points="822.5,-129 753.5,-129 753.5,-110 822.5,-110 822.5,-129"/>
<text text-anchor="middle" x="788" y="-117" font-family="Helvetica,sans-Serif" font-size="10.00">Eigen/Core</text>
</a>
</g>
</g>
<!-- Node3&#45;&gt;Node8 -->
<g id="edge7_Node000003_Node000008" class="edge">
<title>Node3&#45;&gt;Node8</title>
<g id="a_edge7_Node000003_Node000008"><a xlink:title=" ">
<path fill="none" stroke="#63b8ff" d="M604.19,-164.98C642.05,-155.82 702.37,-141.22 743.5,-131.27"/>
<polygon fill="#63b8ff" stroke="#63b8ff" points="744.37,-134.66 753.26,-128.91 742.72,-127.86 744.37,-134.66"/>
</a>
</g>
</g>
<!-- Node9 -->
<g id="Node000009" class="node">
<title>Node9</title>
<g id="a_Node000009"><a xlink:title=" ">
<polygon fill="#e0e0e0" stroke="#999999" points="465,-129 417,-129 417,-110 465,-110 465,-129"/>
<text text-anchor="middle" x="441" y="-117" font-family="Helvetica,sans-Serif" font-size="10.00">iosfwd</text>
</a>
</g>
</g>
<!-- Node3&#45;&gt;Node9 -->
<g id="edge8_Node000003_Node000009" class="edge">
<title>Node3&#45;&gt;Node9</title>
<g id="a_edge8_Node000003_Node000009"><a xlink:title=" ">
<path fill="none" stroke="#63b8ff" d="M548.43,-164.98C527.57,-156.34 495.03,-142.87 471.23,-133.02"/>
<polygon fill="#63b8ff" stroke="#63b8ff" points="472.52,-129.76 461.94,-129.17 469.84,-136.23 472.52,-129.76"/>
</a>
</g>
</g>
<!-- Node5 -->
<g id="Node000005" class="node">
<title>Node5</title>
<g id="a_Node000005"><a xlink:title=" ">
<polygon fill="#e0e0e0" stroke="#999999" points="475.5,-19 428.5,-19 428.5,0 475.5,0 475.5,-19"/>
<text text-anchor="middle" x="452" y="-7" font-family="Helvetica,sans-Serif" font-size="10.00">vector</text>
</a>
</g>
</g>
<!-- Node4&#45;&gt;Node5 -->
<g id="edge4_Node000004_Node000005" class="edge">
<title>Node4&#45;&gt;Node5</title>
<g id="a_edge4_Node000004_Node000005"><a xlink:title=" ">
<path fill="none" stroke="#63b8ff" d="M591.82,-109.84C565.8,-91.36 504.58,-47.86 472.47,-25.05"/>
<polygon fill="#63b8ff" stroke="#63b8ff" points="474.42,-22.14 464.24,-19.2 470.36,-27.84 474.42,-22.14"/>
</a>
</g>
</g>
<!-- Node11 -->
<g id="Node000011" class="node">
<title>Node11</title>
<g id="a_Node000011"><a xlink:title=" ">
<polygon fill="#e0e0e0" stroke="#999999" points="306,-74 174,-74 174,-55 306,-55 306,-74"/>
<text text-anchor="middle" x="240" y="-62" font-family="Helvetica,sans-Serif" font-size="10.00">tinyformat/tinyformat.h</text>
</a>
</g>
</g>
<!-- Node10&#45;&gt;Node11 -->
<g id="edge10_Node000010_Node000011" class="edge">
<title>Node10&#45;&gt;Node11</title>
<g id="a_edge10_Node000010_Node000011"><a xlink:title=" ">
<path fill="none" stroke="#63b8ff" d="M144.32,-109.98C162.66,-101.46 191.11,-88.23 212.23,-78.41"/>
<polygon fill="#63b8ff" stroke="#63b8ff" points="213.76,-81.56 221.35,-74.17 210.81,-75.21 213.76,-81.56"/>
</a>
</g>
</g>
<!-- Node12 -->
<g id="Node000012" class="node">
<title>Node12</title>
<g id="a_Node000012"><a xlink:href="print_8hpp.html" target="_top" xlink:title="Printing helpers for std types.">
<polygon fill="white" stroke="#666666" points="156,-74 96,-74 96,-55 156,-55 156,-74"/>
<text text-anchor="middle" x="126" y="-62" font-family="Helvetica,sans-Serif" font-size="10.00">print.hpp</text>
</a>
</g>
</g>
<!-- Node10&#45;&gt;Node12 -->
<g id="edge11_Node000010_Node000012" class="edge">
<title>Node10&#45;&gt;Node12</title>
<g id="a_edge11_Node000010_Node000012"><a xlink:title=" ">
<path fill="none" stroke="#63b8ff" d="M126,-109.75C126,-102.8 126,-92.85 126,-84.13"/>
<polygon fill="#63b8ff" stroke="#63b8ff" points="129.5,-84.09 126,-74.09 122.5,-84.09 129.5,-84.09"/>
</a>
</g>
</g>
<!-- Node12&#45;&gt;Node5 -->
<g id="edge13_Node000012_Node000005" class="edge">
<title>Node12&#45;&gt;Node5</title>
<g id="a_edge13_Node000012_Node000005"><a xlink:title=" ">
<path fill="none" stroke="#63b8ff" d="M156.2,-56.73C159.17,-56.12 162.14,-55.53 165,-55 256.31,-37.99 364.83,-22.42 418.5,-15.02"/>
<polygon fill="#63b8ff" stroke="#63b8ff" points="419.05,-18.48 428.48,-13.65 418.1,-11.54 419.05,-18.48"/>
</a>
</g>
</g>
<!-- Node12&#45;&gt;Node7 -->
<g id="edge14_Node000012_Node000007" class="edge">
<title>Node12&#45;&gt;Node7</title>
<g id="a_edge14_Node000012_Node000007"><a xlink:title=" ">
<path fill="none" stroke="#63b8ff" d="M156.16,-56.52C159.14,-55.96 162.12,-55.43 165,-55 350.05,-27.07 574.86,-15.29 655.96,-11.74"/>
<polygon fill="#63b8ff" stroke="#63b8ff" points="656.16,-15.24 666,-11.31 655.86,-8.24 656.16,-15.24"/>
</a>
</g>
</g>
<!-- Node12&#45;&gt;Node13 -->
<g id="edge12_Node000012_Node000013" class="edge">
<title>Node12&#45;&gt;Node13</title>
<g id="a_edge12_Node000012_Node000013"><a xlink:title=" ">
<path fill="none" stroke="#63b8ff" d="M110.58,-54.98C95.55,-46.69 72.46,-33.94 54.84,-24.22"/>
<polygon fill="#63b8ff" stroke="#63b8ff" points="56.15,-20.94 45.7,-19.17 52.77,-27.07 56.15,-20.94"/>
</a>
</g>
</g>
<!-- Node14 -->
<g id="Node000014" class="node">
<title>Node14</title>
<g id="a_Node000014"><a xlink:title=" ">
<polygon fill="#e0e0e0" stroke="#999999" points="200.5,-19 155.5,-19 155.5,0 200.5,0 200.5,-19"/>
<text text-anchor="middle" x="178" y="-7" font-family="Helvetica,sans-Serif" font-size="10.00">utility</text>
</a>
</g>
</g>
<!-- Node12&#45;&gt;Node14 -->
<g id="edge15_Node000012_Node000014" class="edge">
<title>Node12&#45;&gt;Node14</title>
<g id="a_edge15_Node000012_Node000014"><a xlink:title=" ">
<path fill="none" stroke="#63b8ff" d="M134.59,-54.75C142.16,-47.03 153.38,-35.6 162.51,-26.28"/>
<polygon fill="#63b8ff" stroke="#63b8ff" points="165.07,-28.68 169.57,-19.09 160.07,-23.78 165.07,-28.68"/>
</a>
</g>
</g>
<!-- Node15 -->
<g id="Node000015" class="node">
<title>Node15</title>
<g id="a_Node000015"><a xlink:title=" ">
<polygon fill="#e0e0e0" stroke="#999999" points="137.5,-19 96.5,-19 96.5,0 137.5,0 137.5,-19"/>
<text text-anchor="middle" x="117" y="-7" font-family="Helvetica,sans-Serif" font-size="10.00">tuple</text>
</a>
</g>
</g>
<!-- Node12&#45;&gt;Node15 -->
<g id="edge16_Node000012_Node000015" class="edge">
<title>Node12&#45;&gt;Node15</title>
<g id="a_edge16_Node000012_Node000015"><a xlink:title=" ">
<path fill="none" stroke="#63b8ff" d="M124.51,-54.75C123.33,-47.8 121.64,-37.85 120.16,-29.13"/>
<polygon fill="#63b8ff" stroke="#63b8ff" points="123.58,-28.36 118.46,-19.09 116.68,-29.53 123.58,-28.36"/>
</a>
</g>
</g>
<!-- Node16&#45;&gt;Node4 -->
<g id="edge18_Node000016_Node000004" class="edge">
<title>Node16&#45;&gt;Node4</title>
<g id="a_edge18_Node000016_Node000004"><a xlink:title=" ">
<path fill="none" stroke="#63b8ff" d="M438.79,-274.95C453.65,-248.45 498.27,-169.22 503,-165 519.75,-150.04 542.33,-139.45 561.89,-132.36"/>
<polygon fill="#63b8ff" stroke="#63b8ff" points="563.18,-135.62 571.51,-129.07 560.91,-129 563.18,-135.62"/>
</a>
</g>
</g>
<!-- Node16&#45;&gt;Node6 -->
<g id="edge33_Node000016_Node000006" class="edge">
<title>Node16&#45;&gt;Node6</title>
<g id="a_edge33_Node000016_Node000006"><a xlink:title=" ">
<path fill="none" stroke="#63b8ff" d="M435.43,-274.71C439,-254.4 449.5,-203.04 470,-165 475.52,-154.76 483.61,-144.68 490.83,-136.71"/>
<polygon fill="#63b8ff" stroke="#63b8ff" points="493.55,-138.92 497.88,-129.25 488.46,-134.11 493.55,-138.92"/>
</a>
</g>
</g>
<!-- Node16&#45;&gt;Node10 -->
<g id="edge19_Node000016_Node000010" class="edge">
<title>Node16&#45;&gt;Node10</title>
<g id="a_edge19_Node000016_Node000010"><a xlink:title=" ">
<path fill="none" stroke="#63b8ff" d="M358.26,-274.99C322.82,-268.69 281.04,-257.79 247,-239 199.79,-212.95 158.13,-163.41 138.29,-137.41"/>
<polygon fill="#63b8ff" stroke="#63b8ff" points="141,-135.18 132.21,-129.27 135.39,-139.37 141,-135.18"/>
</a>
</g>
</g>
<!-- Node16&#45;&gt;Node17 -->
<g id="edge20_Node000016_Node000017" class="edge">
<title>Node16&#45;&gt;Node17</title>
<g id="a_edge20_Node000016_Node000017"><a xlink:title=" ">
<path fill="none" stroke="#63b8ff" d="M488.47,-274.98C548.43,-265.61 644.75,-250.55 708.45,-240.59"/>
<polygon fill="#63b8ff" stroke="#63b8ff" points="709.05,-244.04 718.39,-239.04 707.97,-237.12 709.05,-244.04"/>
</a>
</g>
</g>
<!-- Node19 -->
<g id="Node000019" class="node">
<title>Node19</title>
<g id="a_Node000019"><a xlink:href="Range_8hpp.html" target="_top" xlink:title="Implementation of Range.">
<polygon fill="white" stroke="#666666" points="417.5,-239 256.5,-239 256.5,-220 417.5,-220 417.5,-239"/>
<text text-anchor="middle" x="337" y="-227" font-family="Helvetica,sans-Serif" font-size="10.00">medusa/bits/types/Range.hpp</text>
</a>
</g>
</g>
<!-- Node16&#45;&gt;Node19 -->
<g id="edge24_Node000016_Node000019" class="edge">
<title>Node16&#45;&gt;Node19</title>
<g id="a_edge24_Node000016_Node000019"><a xlink:title=" ">
<path fill="none" stroke="#63b8ff" d="M418.42,-274.98C403.23,-266.69 379.9,-253.94 362.1,-244.22"/>
<polygon fill="#63b8ff" stroke="#63b8ff" points="363.32,-240.89 352.87,-239.17 359.97,-247.04 363.32,-240.89"/>
</a>
</g>
</g>
<!-- Node18 -->
<g id="Node000018" class="node">
<title>Node18</title>
<g id="a_Node000018"><a xlink:href="Vec__fwd_8hpp.html" target="_top" xlink:title="Declaration of Vec.">
<polygon fill="white" stroke="#666666" points="799.5,-184 722.5,-184 722.5,-165 799.5,-165 799.5,-184"/>
<text text-anchor="middle" x="761" y="-172" font-family="Helvetica,sans-Serif" font-size="10.00">Vec_fwd.hpp</text>
</a>
</g>
</g>
<!-- Node17&#45;&gt;Node18 -->
<g id="edge21_Node000017_Node000018" class="edge">
<title>Node17&#45;&gt;Node18</title>
<g id="a_edge21_Node000017_Node000018"><a xlink:title=" ">
<path fill="none" stroke="#63b8ff" d="M771.02,-219.75C769.43,-212.72 767.14,-202.62 765.15,-193.84"/>
<polygon fill="#63b8ff" stroke="#63b8ff" points="768.57,-193.07 762.94,-184.09 761.74,-194.62 768.57,-193.07"/>
</a>
</g>
</g>
<!-- Node18&#45;&gt;Node4 -->
<g id="edge22_Node000018_Node000004" class="edge">
<title>Node18&#45;&gt;Node4</title>
<g id="a_edge22_Node000018_Node000004"><a xlink:title=" ">
<path fill="none" stroke="#63b8ff" d="M735.78,-164.98C709.64,-156.16 668.6,-142.31 639.27,-132.41"/>
<polygon fill="#63b8ff" stroke="#63b8ff" points="640.02,-128.96 629.42,-129.08 637.78,-135.6 640.02,-128.96"/>
</a>
</g>
</g>
<!-- Node18&#45;&gt;Node8 -->
<g id="edge23_Node000018_Node000008" class="edge">
<title>Node18&#45;&gt;Node8</title>
<g id="a_edge23_Node000018_Node000008"><a xlink:title=" ">
<path fill="none" stroke="#63b8ff" d="M765.46,-164.75C769.12,-157.57 774.41,-147.18 778.95,-138.27"/>
<polygon fill="#63b8ff" stroke="#63b8ff" points="782.2,-139.59 783.62,-129.09 775.97,-136.41 782.2,-139.59"/>
</a>
</g>
</g>
<!-- Node20 -->
<g id="Node000020" class="node">
<title>Node20</title>
<g id="a_Node000020"><a xlink:href="Range__fwd_8hpp.html" target="_top" xlink:title="Declaration of Range.">
<polygon fill="white" stroke="#666666" points="413.5,-184 322.5,-184 322.5,-165 413.5,-165 413.5,-184"/>
<text text-anchor="middle" x="368" y="-172" font-family="Helvetica,sans-Serif" font-size="10.00">Range_fwd.hpp</text>
</a>
</g>
</g>
<!-- Node19&#45;&gt;Node20 -->
<g id="edge25_Node000019_Node000020" class="edge">
<title>Node19&#45;&gt;Node20</title>
<g id="a_edge25_Node000019_Node000020"><a xlink:title=" ">
<path fill="none" stroke="#63b8ff" d="M342.12,-219.75C346.36,-212.49 352.53,-201.95 357.78,-192.98"/>
<polygon fill="#63b8ff" stroke="#63b8ff" points="360.95,-194.49 362.98,-184.09 354.91,-190.95 360.95,-194.49"/>
</a>
</g>
</g>
<!-- Node23 -->
<g id="Node000023" class="node">
<title>Node23</title>
<g id="a_Node000023"><a xlink:title=" ">
<polygon fill="#e0e0e0" stroke="#999999" points="266,-184 202,-184 202,-165 266,-165 266,-184"/>
<text text-anchor="middle" x="234" y="-172" font-family="Helvetica,sans-Serif" font-size="10.00">algorithm</text>
</a>
</g>
</g>
<!-- Node19&#45;&gt;Node23 -->
<g id="edge32_Node000019_Node000023" class="edge">
<title>Node19&#45;&gt;Node23</title>
<g id="a_edge32_Node000019_Node000023"><a xlink:title=" ">
<path fill="none" stroke="#63b8ff" d="M320.45,-219.98C304.11,-211.57 278.87,-198.59 259.87,-188.81"/>
<polygon fill="#63b8ff" stroke="#63b8ff" points="261.34,-185.63 250.85,-184.17 258.14,-191.86 261.34,-185.63"/>
</a>
</g>
</g>
<!-- Node20&#45;&gt;Node4 -->
<g id="edge26_Node000020_Node000004" class="edge">
<title>Node20&#45;&gt;Node4</title>
<g id="a_edge26_Node000020_Node000004"><a xlink:title=" ">
<path fill="none" stroke="#63b8ff" d="M405.92,-164.98C446.65,-155.84 511.5,-141.27 555.82,-131.32"/>
<polygon fill="#63b8ff" stroke="#63b8ff" points="556.8,-134.69 565.79,-129.08 555.26,-127.86 556.8,-134.69"/>
</a>
</g>
</g>
<!-- Node20&#45;&gt;Node5 -->
<g id="edge30_Node000020_Node000005" class="edge">
<title>Node20&#45;&gt;Node5</title>
<g id="a_edge30_Node000020_Node000005"><a xlink:title=" ">
<path fill="none" stroke="#63b8ff" d="M372.52,-164.74C385.79,-138.98 424.88,-63.13 442.81,-28.33"/>
<polygon fill="#63b8ff" stroke="#63b8ff" points="445.99,-29.8 447.46,-19.31 439.77,-26.59 445.99,-29.8"/>
</a>
</g>
</g>
<!-- Node20&#45;&gt;Node9 -->
<g id="edge31_Node000020_Node000009" class="edge">
<title>Node20&#45;&gt;Node9</title>
<g id="a_edge31_Node000020_Node000009"><a xlink:title=" ">
<path fill="none" stroke="#63b8ff" d="M379.73,-164.98C390.73,-157 407.42,-144.88 420.6,-135.31"/>
<polygon fill="#63b8ff" stroke="#63b8ff" points="423.02,-137.88 429.06,-129.17 418.91,-132.21 423.02,-137.88"/>
</a>
</g>
</g>
<!-- Node20&#45;&gt;Node10 -->
<g id="edge27_Node000020_Node000010" class="edge">
<title>Node20&#45;&gt;Node10</title>
<g id="a_edge27_Node000020_Node000010"><a xlink:title=" ">
<path fill="none" stroke="#63b8ff" d="M329.12,-164.98C287.26,-155.82 220.57,-141.21 175.12,-131.26"/>
<polygon fill="#63b8ff" stroke="#63b8ff" points="175.7,-127.8 165.19,-129.08 174.21,-134.64 175.7,-127.8"/>
</a>
</g>
</g>
<!-- Node21 -->
<g id="Node000021" class="node">
<title>Node21</title>
<g id="a_Node000021"><a xlink:href="traits_8hpp.html" target="_top" xlink:title="Type traits definition for vector and scalar fields.">
<polygon fill="white" stroke="#666666" points="284.5,-129 221.5,-129 221.5,-110 284.5,-110 284.5,-129"/>
<text text-anchor="middle" x="253" y="-117" font-family="Helvetica,sans-Serif" font-size="10.00">traits.hpp</text>
</a>
</g>
</g>
<!-- Node20&#45;&gt;Node21 -->
<g id="edge28_Node000020_Node000021" class="edge">
<title>Node20&#45;&gt;Node21</title>
<g id="a_edge28_Node000020_Node000021"><a xlink:title=" ">
<path fill="none" stroke="#63b8ff" d="M349.52,-164.98C331.02,-156.46 302.32,-143.23 281.02,-133.41"/>
<polygon fill="#63b8ff" stroke="#63b8ff" points="282.36,-130.18 271.81,-129.17 279.43,-136.53 282.36,-130.18"/>
</a>
</g>
</g>
<!-- Node22 -->
<g id="Node000022" class="node">
<title>Node22</title>
<g id="a_Node000022"><a xlink:title=" ">
<polygon fill="#e0e0e0" stroke="#999999" points="361,-129 303,-129 303,-110 361,-110 361,-129"/>
<text text-anchor="middle" x="332" y="-117" font-family="Helvetica,sans-Serif" font-size="10.00">memory</text>
</a>
</g>
</g>
<!-- Node20&#45;&gt;Node22 -->
<g id="edge29_Node000020_Node000022" class="edge">
<title>Node20&#45;&gt;Node22</title>
<g id="a_edge29_Node000020_Node000022"><a xlink:title=" ">
<path fill="none" stroke="#63b8ff" d="M362.06,-164.75C357.02,-157.34 349.66,-146.5 343.49,-137.41"/>
<polygon fill="#63b8ff" stroke="#63b8ff" points="346.35,-135.39 337.83,-129.09 340.56,-139.33 346.35,-135.39"/>
</a>
</g>
</g>
<!-- Node24&#45;&gt;Node3 -->
<g id="edge40_Node000024_Node000003" class="edge">
<title>Node24&#45;&gt;Node3</title>
<g id="a_edge40_Node000024_Node000003"><a xlink:title=" ">
<path fill="none" stroke="#63b8ff" d="M617.68,-219.98C609.19,-212.23 596.44,-200.58 586.12,-191.14"/>
<polygon fill="#63b8ff" stroke="#63b8ff" points="588.23,-188.33 578.49,-184.17 583.51,-193.5 588.23,-188.33"/>
</a>
</g>
</g>
<!-- Node24&#45;&gt;Node4 -->
<g id="edge36_Node000024_Node000004" class="edge">
<title>Node24&#45;&gt;Node4</title>
<g id="a_edge36_Node000024_Node000004"><a xlink:title=" ">
<path fill="none" stroke="#63b8ff" d="M630.43,-219.66C634.74,-207.2 640.92,-183.87 635,-165 631.77,-154.71 625.22,-144.72 618.97,-136.82"/>
<polygon fill="#63b8ff" stroke="#63b8ff" points="621.61,-134.52 612.48,-129.15 616.27,-139.04 621.61,-134.52"/>
</a>
</g>
</g>
<!-- Node24&#45;&gt;Node5 -->
<g id="edge38_Node000024_Node000005" class="edge">
<title>Node24&#45;&gt;Node5</title>
<g id="a_edge38_Node000024_Node000005"><a xlink:title=" ">
<path fill="none" stroke="#63b8ff" d="M634.87,-219.85C652.48,-199.4 691.71,-147.03 668,-110 627.47,-46.7 535.35,-23.11 485.51,-14.77"/>
<polygon fill="#63b8ff" stroke="#63b8ff" points="485.97,-11.3 475.55,-13.21 484.89,-18.21 485.97,-11.3"/>
</a>
</g>
</g>
<!-- Node24&#45;&gt;Node7 -->
<g id="edge37_Node000024_Node000007" class="edge">
<title>Node24&#45;&gt;Node7</title>
<g id="a_edge37_Node000024_Node000007"><a xlink:title=" ">
<path fill="none" stroke="#63b8ff" d="M679.06,-219.96C734.34,-210.41 815.13,-194.85 825,-184 847.23,-159.56 847.39,-139.23 832,-110 808.05,-64.51 752.88,-35.82 717.91,-21.5"/>
<polygon fill="#63b8ff" stroke="#63b8ff" points="718.79,-18.09 708.2,-17.68 716.23,-24.6 718.79,-18.09"/>
</a>
</g>
</g>
<!-- Node24&#45;&gt;Node8 -->
<g id="edge39_Node000024_Node000008" class="edge">
<title>Node24&#45;&gt;Node8</title>
<g id="a_edge39_Node000024_Node000008"><a xlink:title=" ">
<path fill="none" stroke="#63b8ff" d="M674.66,-219.98C725.72,-210.36 800.61,-194.68 809,-184 819.7,-170.36 810.78,-151.04 801.48,-137.29"/>
<polygon fill="#63b8ff" stroke="#63b8ff" points="804.26,-135.17 795.52,-129.18 798.62,-139.31 804.26,-135.17"/>
</a>
</g>
</g>
<!-- Node24&#45;&gt;Node10 -->
<g id="edge41_Node000024_Node000010" class="edge">
<title>Node24&#45;&gt;Node10</title>
<g id="a_edge41_Node000024_Node000010"><a xlink:title=" ">
<path fill="none" stroke="#63b8ff" d="M572.79,-226.12C509.26,-222.12 401.44,-211.57 313,-184 294.97,-178.38 292.56,-171.95 275,-165 240.61,-151.39 200.35,-139.6 170.36,-131.58"/>
<polygon fill="#63b8ff" stroke="#63b8ff" points="171.16,-128.17 160.6,-129.01 169.38,-134.94 171.16,-128.17"/>
</a>
</g>
</g>
</g>
</svg>
