<?xml version="1.0" encoding="UTF-8" standalone="no"?>
<!DOCTYPE svg PUBLIC "-//W3C//DTD SVG 1.1//EN"
 "http://www.w3.org/Graphics/SVG/1.1/DTD/svg11.dtd">
<!-- Generated by graphviz version 2.43.0 (0)
 -->
<!-- Title: include/medusa/bits/approximations/Multiquadric.hpp Pages: 1 -->
<svg width="716pt" height="159pt"
 viewBox="0.00 0.00 715.50 159.00" xmlns="http://www.w3.org/2000/svg" xmlns:xlink="http://www.w3.org/1999/xlink">
<g id="graph0" class="graph" transform="scale(1 1) rotate(0) translate(4 155)">
<title>include/medusa/bits/approximations/Multiquadric.hpp</title>
<!-- Node1 -->
<g id="Node000001" class="node">
<title>Node1</title>
<g id="a_Node000001"><a xlink:title="Implementation of MultiQuadratic RBF.">
<polygon fill="#999999" stroke="#666666" points="487,-151 306,-151 306,-121 487,-121 487,-151"/>
<text text-anchor="start" x="314" y="-139" font-family="Helvetica,sans-Serif" font-size="10.00">include/medusa/bits</text>
<text text-anchor="middle" x="396.5" y="-128" font-family="Helvetica,sans-Serif" font-size="10.00">/approximations/Multiquadric.hpp</text>
</a>
</g>
</g>
<!-- Node2 -->
<g id="Node000002" class="node">
<title>Node2</title>
<g id="a_Node000002"><a xlink:href="Approximations_8hpp.html" target="_top" xlink:title="Header for Approximations module.">
<polygon fill="white" stroke="#666666" points="195,-79.5 0,-79.5 0,-60.5 195,-60.5 195,-79.5"/>
<text text-anchor="middle" x="97.5" y="-67.5" font-family="Helvetica,sans-Serif" font-size="10.00">include/medusa/Approximations.hpp</text>
</a>
</g>
</g>
<!-- Node1&#45;&gt;Node2 -->
<g id="edge1_Node000001_Node000002" class="edge">
<title>Node1&#45;&gt;Node2</title>
<g id="a_edge1_Node000001_Node000002"><a xlink:title=" ">
<path fill="none" stroke="#63b8ff" d="M320.96,-118.83C262.55,-106.33 184.02,-89.52 137.29,-79.52"/>
<polygon fill="#63b8ff" stroke="#63b8ff" points="320.37,-122.28 330.88,-120.95 321.84,-115.44 320.37,-122.28"/>
</a>
</g>
</g>
<!-- Node4 -->
<g id="Node000004" class="node">
<title>Node4</title>
<g id="a_Node000004"><a xlink:href="Multiquadric_8cpp.html" target="_top" xlink:title="Explicit instantiations for common parameters.">
<polygon fill="white" stroke="#666666" points="323.5,-85 213.5,-85 213.5,-55 323.5,-55 323.5,-85"/>
<text text-anchor="start" x="221.5" y="-73" font-family="Helvetica,sans-Serif" font-size="10.00">src/approximations</text>
<text text-anchor="middle" x="268.5" y="-62" font-family="Helvetica,sans-Serif" font-size="10.00">/Multiquadric.cpp</text>
</a>
</g>
</g>
<!-- Node1&#45;&gt;Node4 -->
<g id="edge3_Node000001_Node000004" class="edge">
<title>Node1&#45;&gt;Node4</title>
<g id="a_edge3_Node000001_Node000004"><a xlink:title=" ">
<path fill="none" stroke="#63b8ff" d="M359.26,-116.38C339.23,-106.36 314.93,-94.22 296.52,-85.01"/>
<polygon fill="#63b8ff" stroke="#63b8ff" points="357.9,-119.61 368.41,-120.95 361.03,-113.35 357.9,-119.61"/>
</a>
</g>
</g>
<!-- Node5 -->
<g id="Node000005" class="node">
<title>Node5</title>
<g id="a_Node000005"><a xlink:href="RBFBasis_8cpp.html" target="_top" xlink:title="Instantiation of commonly used RBF bases.">
<polygon fill="white" stroke="#666666" points="451.5,-85 341.5,-85 341.5,-55 451.5,-55 451.5,-85"/>
<text text-anchor="start" x="349.5" y="-73" font-family="Helvetica,sans-Serif" font-size="10.00">src/approximations</text>
<text text-anchor="middle" x="396.5" y="-62" font-family="Helvetica,sans-Serif" font-size="10.00">/RBFBasis.cpp</text>
</a>
</g>
</g>
<!-- Node1&#45;&gt;Node5 -->
<g id="edge4_Node000001_Node000005" class="edge">
<title>Node1&#45;&gt;Node5</title>
<g id="a_edge4_Node000001_Node000005"><a xlink:title=" ">
<path fill="none" stroke="#63b8ff" d="M396.5,-110.54C396.5,-101.96 396.5,-92.61 396.5,-85.16"/>
<polygon fill="#63b8ff" stroke="#63b8ff" points="393,-110.8 396.5,-120.8 400,-110.8 393,-110.8"/>
</a>
</g>
</g>
<!-- Node6 -->
<g id="Node000006" class="node">
<title>Node6</title>
<g id="a_Node000006"><a xlink:href="RBFFD_8cpp.html" target="_top" xlink:title="Instantiations of common RBFFD approximations.">
<polygon fill="white" stroke="#666666" points="579.5,-85 469.5,-85 469.5,-55 579.5,-55 579.5,-85"/>
<text text-anchor="start" x="477.5" y="-73" font-family="Helvetica,sans-Serif" font-size="10.00">src/approximations</text>
<text text-anchor="middle" x="524.5" y="-62" font-family="Helvetica,sans-Serif" font-size="10.00">/RBFFD.cpp</text>
</a>
</g>
</g>
<!-- Node1&#45;&gt;Node6 -->
<g id="edge5_Node000001_Node000006" class="edge">
<title>Node1&#45;&gt;Node6</title>
<g id="a_edge5_Node000001_Node000006"><a xlink:title=" ">
<path fill="none" stroke="#63b8ff" d="M433.74,-116.38C453.77,-106.36 478.07,-94.22 496.48,-85.01"/>
<polygon fill="#63b8ff" stroke="#63b8ff" points="431.97,-113.35 424.59,-120.95 435.1,-119.61 431.97,-113.35"/>
</a>
</g>
</g>
<!-- Node7 -->
<g id="Node000007" class="node">
<title>Node7</title>
<g id="a_Node000007"><a xlink:href="WLS_8cpp.html" target="_top" xlink:title="Instantiations of commonly used WLS approximations.">
<polygon fill="white" stroke="#666666" points="707.5,-85 597.5,-85 597.5,-55 707.5,-55 707.5,-85"/>
<text text-anchor="start" x="605.5" y="-73" font-family="Helvetica,sans-Serif" font-size="10.00">src/approximations</text>
<text text-anchor="middle" x="652.5" y="-62" font-family="Helvetica,sans-Serif" font-size="10.00">/WLS.cpp</text>
</a>
</g>
</g>
<!-- Node1&#45;&gt;Node7 -->
<g id="edge6_Node000001_Node000007" class="edge">
<title>Node1&#45;&gt;Node7</title>
<g id="a_edge6_Node000001_Node000007"><a xlink:title=" ">
<path fill="none" stroke="#63b8ff" d="M462.5,-118.5C504.32,-108.05 557.78,-94.68 597.33,-84.79"/>
<polygon fill="#63b8ff" stroke="#63b8ff" points="461.53,-115.13 452.68,-120.95 463.23,-121.92 461.53,-115.13"/>
</a>
</g>
</g>
<!-- Node3 -->
<g id="Node000003" class="node">
<title>Node3</title>
<g id="a_Node000003"><a xlink:href="Medusa_8hpp.html" target="_top" xlink:title="Main header file that includes most other components.">
<polygon fill="white" stroke="#666666" points="175.5,-19 19.5,-19 19.5,0 175.5,0 175.5,-19"/>
<text text-anchor="middle" x="97.5" y="-7" font-family="Helvetica,sans-Serif" font-size="10.00">include/medusa/Medusa.hpp</text>
</a>
</g>
</g>
<!-- Node2&#45;&gt;Node3 -->
<g id="edge2_Node000002_Node000003" class="edge">
<title>Node2&#45;&gt;Node3</title>
<g id="a_edge2_Node000002_Node000003"><a xlink:title=" ">
<path fill="none" stroke="#63b8ff" d="M97.5,-50.16C97.5,-39.74 97.5,-27.3 97.5,-19.17"/>
<polygon fill="#63b8ff" stroke="#63b8ff" points="94,-50.37 97.5,-60.37 101,-50.37 94,-50.37"/>
</a>
</g>
</g>
</g>
</svg>
