<?xml version="1.0" encoding="UTF-8" standalone="no"?>
<!DOCTYPE svg PUBLIC "-//W3C//DTD SVG 1.1//EN"
 "http://www.w3.org/Graphics/SVG/1.1/DTD/svg11.dtd">
<!-- Generated by graphviz version 2.43.0 (0)
 -->
<!-- Title: include/medusa/bits/domains/NURBSPatch_fwd.hpp Pages: 1 -->
<svg width="610pt" height="313pt"
 viewBox="0.00 0.00 609.50 313.00" xmlns="http://www.w3.org/2000/svg" xmlns:xlink="http://www.w3.org/1999/xlink">
<g id="graph0" class="graph" transform="scale(1 1) rotate(0) translate(4 309)">
<title>include/medusa/bits/domains/NURBSPatch_fwd.hpp</title>
<!-- Node1 -->
<g id="Node000001" class="node">
<title>Node1</title>
<g id="a_Node000001"><a xlink:title="Declaration of the NURBS patch class.">
<polygon fill="#999999" stroke="#666666" points="316,-305 191,-305 191,-264 316,-264 316,-305"/>
<text text-anchor="start" x="199" y="-293" font-family="Helvetica,sans-Serif" font-size="10.00">include/medusa/bits</text>
<text text-anchor="start" x="199" y="-282" font-family="Helvetica,sans-Serif" font-size="10.00">/domains/NURBSPatch</text>
<text text-anchor="middle" x="253.5" y="-271" font-family="Helvetica,sans-Serif" font-size="10.00">_fwd.hpp</text>
</a>
</g>
</g>
<!-- Node2 -->
<g id="Node000002" class="node">
<title>Node2</title>
<g id="a_Node000002"><a xlink:href="Domain__fwd_8hpp.html" target="_top" xlink:title="Header for Domain module, declarations only.">
<polygon fill="white" stroke="#666666" points="217,-151 82,-151 82,-121 217,-121 217,-151"/>
<text text-anchor="start" x="90" y="-139" font-family="Helvetica,sans-Serif" font-size="10.00">include/medusa/Domain</text>
<text text-anchor="middle" x="149.5" y="-128" font-family="Helvetica,sans-Serif" font-size="10.00">_fwd.hpp</text>
</a>
</g>
</g>
<!-- Node1&#45;&gt;Node2 -->
<g id="edge1_Node000001_Node000002" class="edge">
<title>Node1&#45;&gt;Node2</title>
<g id="a_edge1_Node000001_Node000002"><a xlink:title=" ">
<path fill="none" stroke="#63b8ff" d="M210.9,-257.75C199.79,-249.4 188.66,-239.32 180.5,-228 163.32,-204.17 155.11,-170.09 151.66,-151.12"/>
<polygon fill="#63b8ff" stroke="#63b8ff" points="209.18,-260.82 219.34,-263.8 213.25,-255.13 209.18,-260.82"/>
</a>
</g>
</g>
<!-- Node6 -->
<g id="Node000006" class="node">
<title>Node6</title>
<g id="a_Node000006"><a xlink:href="NURBSPatch_8hpp.html" target="_top" xlink:title="Implementation of the NURBS patch class.">
<polygon fill="white" stroke="#666666" points="484.5,-222.5 338.5,-222.5 338.5,-192.5 484.5,-192.5 484.5,-222.5"/>
<text text-anchor="start" x="346.5" y="-210.5" font-family="Helvetica,sans-Serif" font-size="10.00">include/medusa/bits</text>
<text text-anchor="middle" x="411.5" y="-199.5" font-family="Helvetica,sans-Serif" font-size="10.00">/domains/NURBSPatch.hpp</text>
</a>
</g>
</g>
<!-- Node1&#45;&gt;Node6 -->
<g id="edge6_Node000001_Node000006" class="edge">
<title>Node1&#45;&gt;Node6</title>
<g id="a_edge6_Node000001_Node000006"><a xlink:title=" ">
<path fill="none" stroke="#63b8ff" d="M303.8,-259.62C329.41,-247.47 359.67,-233.1 381.59,-222.7"/>
<polygon fill="#63b8ff" stroke="#63b8ff" points="302.13,-256.54 294.6,-263.99 305.13,-262.86 302.13,-256.54"/>
</a>
</g>
</g>
<!-- Node10 -->
<g id="Node000010" class="node">
<title>Node10</title>
<g id="a_Node000010"><a xlink:href="NURBSShape__fwd_8hpp.html" target="_top" xlink:title="Declaration of NURBSShape class.">
<polygon fill="white" stroke="#666666" points="318,-228 189,-228 189,-187 318,-187 318,-228"/>
<text text-anchor="start" x="197" y="-216" font-family="Helvetica,sans-Serif" font-size="10.00">include/medusa/bits</text>
<text text-anchor="start" x="197" y="-205" font-family="Helvetica,sans-Serif" font-size="10.00">/domains/NURBSShape</text>
<text text-anchor="middle" x="253.5" y="-194" font-family="Helvetica,sans-Serif" font-size="10.00">_fwd.hpp</text>
</a>
</g>
</g>
<!-- Node1&#45;&gt;Node10 -->
<g id="edge12_Node000001_Node000010" class="edge">
<title>Node1&#45;&gt;Node10</title>
<g id="a_edge12_Node000001_Node000010"><a xlink:title=" ">
<path fill="none" stroke="#63b8ff" d="M253.5,-253.69C253.5,-245.08 253.5,-235.9 253.5,-228.07"/>
<polygon fill="#63b8ff" stroke="#63b8ff" points="250,-253.79 253.5,-263.79 257,-253.79 250,-253.79"/>
</a>
</g>
</g>
<!-- Node3 -->
<g id="Node000003" class="node">
<title>Node3</title>
<g id="a_Node000003"><a xlink:href="Domain_8hpp.html" target="_top" xlink:title="Header for Domain module.">
<polygon fill="white" stroke="#666666" points="491.5,-79.5 335.5,-79.5 335.5,-60.5 491.5,-60.5 491.5,-79.5"/>
<text text-anchor="middle" x="413.5" y="-67.5" font-family="Helvetica,sans-Serif" font-size="10.00">include/medusa/Domain.hpp</text>
</a>
</g>
</g>
<!-- Node2&#45;&gt;Node3 -->
<g id="edge2_Node000002_Node000003" class="edge">
<title>Node2&#45;&gt;Node3</title>
<g id="a_edge2_Node000002_Node000003"><a xlink:title=" ">
<path fill="none" stroke="#63b8ff" d="M217.16,-118.6C268.62,-106.12 337.36,-89.46 378.37,-79.52"/>
<polygon fill="#63b8ff" stroke="#63b8ff" points="216.33,-115.2 207.44,-120.95 217.98,-122 216.33,-115.2"/>
</a>
</g>
</g>
<!-- Node5 -->
<g id="Node000005" class="node">
<title>Node5</title>
<g id="a_Node000005"><a xlink:href="Medusa__fwd_8hpp.html" target="_top" xlink:title="Main header file that includes only declarations for some heavy classes such as mm::WLS to reduce com...">
<polygon fill="white" stroke="#666666" points="135,-85 0,-85 0,-55 135,-55 135,-85"/>
<text text-anchor="start" x="8" y="-73" font-family="Helvetica,sans-Serif" font-size="10.00">include/medusa/Medusa</text>
<text text-anchor="middle" x="67.5" y="-62" font-family="Helvetica,sans-Serif" font-size="10.00">_fwd.hpp</text>
</a>
</g>
</g>
<!-- Node2&#45;&gt;Node5 -->
<g id="edge4_Node000002_Node000005" class="edge">
<title>Node2&#45;&gt;Node5</title>
<g id="a_edge4_Node000002_Node000005"><a xlink:title=" ">
<path fill="none" stroke="#63b8ff" d="M123.21,-114.48C110.95,-104.91 96.68,-93.77 85.65,-85.16"/>
<polygon fill="#63b8ff" stroke="#63b8ff" points="121.26,-117.4 131.3,-120.8 125.57,-111.88 121.26,-117.4"/>
</a>
</g>
</g>
<!-- Node4 -->
<g id="Node000004" class="node">
<title>Node4</title>
<g id="a_Node000004"><a xlink:href="Medusa_8hpp.html" target="_top" xlink:title="Main header file that includes most other components.">
<polygon fill="white" stroke="#666666" points="318.5,-19 162.5,-19 162.5,0 318.5,0 318.5,-19"/>
<text text-anchor="middle" x="240.5" y="-7" font-family="Helvetica,sans-Serif" font-size="10.00">include/medusa/Medusa.hpp</text>
</a>
</g>
</g>
<!-- Node3&#45;&gt;Node4 -->
<g id="edge3_Node000003_Node000004" class="edge">
<title>Node3&#45;&gt;Node4</title>
<g id="a_edge3_Node000003_Node000004"><a xlink:title=" ">
<path fill="none" stroke="#63b8ff" d="M378.52,-57.17C345.06,-45.86 295.42,-29.07 265.69,-19.02"/>
<polygon fill="#63b8ff" stroke="#63b8ff" points="377.75,-60.61 388.34,-60.49 379.99,-53.97 377.75,-60.61"/>
</a>
</g>
</g>
<!-- Node5&#45;&gt;Node4 -->
<g id="edge5_Node000005_Node000004" class="edge">
<title>Node5&#45;&gt;Node4</title>
<g id="a_edge5_Node000005_Node000004"><a xlink:title=" ">
<path fill="none" stroke="#63b8ff" d="M118.54,-51.74C150.36,-40.98 189.93,-27.6 215.2,-19.05"/>
<polygon fill="#63b8ff" stroke="#63b8ff" points="117.29,-48.47 108.94,-54.99 119.53,-55.1 117.29,-48.47"/>
</a>
</g>
</g>
<!-- Node6&#45;&gt;Node3 -->
<g id="edge7_Node000006_Node000003" class="edge">
<title>Node6&#45;&gt;Node3</title>
<g id="a_edge7_Node000006_Node000003"><a xlink:title=" ">
<path fill="none" stroke="#63b8ff" d="M411.86,-181.91C412.32,-151.05 413.08,-99.73 413.37,-79.53"/>
<polygon fill="#63b8ff" stroke="#63b8ff" points="408.36,-182.2 411.71,-192.26 415.36,-182.31 408.36,-182.2"/>
</a>
</g>
</g>
<!-- Node7 -->
<g id="Node000007" class="node">
<title>Node7</title>
<g id="a_Node000007"><a xlink:href="NURBSShape_8hpp.html" target="_top" xlink:title="Implementation of NURBSShape class.">
<polygon fill="white" stroke="#666666" points="385.5,-151 235.5,-151 235.5,-121 385.5,-121 385.5,-151"/>
<text text-anchor="start" x="243.5" y="-139" font-family="Helvetica,sans-Serif" font-size="10.00">include/medusa/bits</text>
<text text-anchor="middle" x="310.5" y="-128" font-family="Helvetica,sans-Serif" font-size="10.00">/domains/NURBSShape.hpp</text>
</a>
</g>
</g>
<!-- Node6&#45;&gt;Node7 -->
<g id="edge8_Node000006_Node000007" class="edge">
<title>Node6&#45;&gt;Node7</title>
<g id="a_edge8_Node000006_Node000007"><a xlink:title=" ">
<path fill="none" stroke="#63b8ff" d="M382.81,-186.75C366.25,-175.36 345.82,-161.31 330.91,-151.04"/>
<polygon fill="#63b8ff" stroke="#63b8ff" points="380.84,-189.65 391.06,-192.44 384.81,-183.88 380.84,-189.65"/>
</a>
</g>
</g>
<!-- Node9 -->
<g id="Node000009" class="node">
<title>Node9</title>
<g id="a_Node000009"><a xlink:href="NURBSPatch_8cpp.html" target="_top" xlink:title="Instantiations of commonly used NURBSPatch instances.">
<polygon fill="white" stroke="#666666" points="601.5,-145.5 441.5,-145.5 441.5,-126.5 601.5,-126.5 601.5,-145.5"/>
<text text-anchor="middle" x="521.5" y="-133.5" font-family="Helvetica,sans-Serif" font-size="10.00">src/domains/NURBSPatch.cpp</text>
</a>
</g>
</g>
<!-- Node6&#45;&gt;Node9 -->
<g id="edge11_Node000006_Node000009" class="edge">
<title>Node6&#45;&gt;Node9</title>
<g id="a_edge11_Node000006_Node000009"><a xlink:title=" ">
<path fill="none" stroke="#63b8ff" d="M442.28,-187.05C463.86,-173.42 491.66,-155.85 507.94,-145.57"/>
<polygon fill="#63b8ff" stroke="#63b8ff" points="440.34,-184.14 433.76,-192.44 444.08,-190.05 440.34,-184.14"/>
</a>
</g>
</g>
<!-- Node7&#45;&gt;Node3 -->
<g id="edge9_Node000007_Node000003" class="edge">
<title>Node7&#45;&gt;Node3</title>
<g id="a_edge9_Node000007_Node000003"><a xlink:title=" ">
<path fill="none" stroke="#63b8ff" d="M341.64,-115.65C361.04,-103.6 385.03,-88.69 399.79,-79.52"/>
<polygon fill="#63b8ff" stroke="#63b8ff" points="339.75,-112.7 333.1,-120.95 343.44,-118.65 339.75,-112.7"/>
</a>
</g>
</g>
<!-- Node8 -->
<g id="Node000008" class="node">
<title>Node8</title>
<g id="a_Node000008"><a xlink:href="NURBSShape_8cpp.html" target="_top" xlink:title="Instantiations of commonly used NURBSShape instances.">
<polygon fill="white" stroke="#666666" points="317.5,-79.5 153.5,-79.5 153.5,-60.5 317.5,-60.5 317.5,-79.5"/>
<text text-anchor="middle" x="235.5" y="-67.5" font-family="Helvetica,sans-Serif" font-size="10.00">src/domains/NURBSShape.cpp</text>
</a>
</g>
</g>
<!-- Node7&#45;&gt;Node8 -->
<g id="edge10_Node000007_Node000008" class="edge">
<title>Node7&#45;&gt;Node8</title>
<g id="a_edge10_Node000007_Node000008"><a xlink:title=" ">
<path fill="none" stroke="#63b8ff" d="M286.19,-114.26C272.55,-102.61 256.23,-88.69 245.86,-79.84"/>
<polygon fill="#63b8ff" stroke="#63b8ff" points="283.98,-116.97 293.86,-120.8 288.52,-111.64 283.98,-116.97"/>
</a>
</g>
</g>
<!-- Node10&#45;&gt;Node2 -->
<g id="edge13_Node000010_Node000002" class="edge">
<title>Node10&#45;&gt;Node2</title>
<g id="a_edge13_Node000010_Node000002"><a xlink:title=" ">
<path fill="none" stroke="#63b8ff" d="M215.57,-181.15C200.41,-171.02 183.52,-159.74 170.62,-151.11"/>
<polygon fill="#63b8ff" stroke="#63b8ff" points="213.99,-184.31 224.25,-186.96 217.88,-178.49 213.99,-184.31"/>
</a>
</g>
</g>
<!-- Node10&#45;&gt;Node7 -->
<g id="edge14_Node000010_Node000007" class="edge">
<title>Node10&#45;&gt;Node7</title>
<g id="a_edge14_Node000010_Node000007"><a xlink:title=" ">
<path fill="none" stroke="#63b8ff" d="M276.07,-178.98C283.93,-169.4 292.41,-159.06 298.99,-151.04"/>
<polygon fill="#63b8ff" stroke="#63b8ff" points="273.32,-176.82 269.68,-186.77 278.73,-181.26 273.32,-176.82"/>
</a>
</g>
</g>
</g>
</svg>
