<?xml version="1.0" encoding="UTF-8" standalone="no"?>
<!DOCTYPE svg PUBLIC "-//W3C//DTD SVG 1.1//EN"
 "http://www.w3.org/Graphics/SVG/1.1/DTD/svg11.dtd">
<!-- Generated by graphviz version 2.43.0 (0)
 -->
<!-- Title: include/medusa/bits/approximations/Operators_fwd.hpp Pages: 1 -->
<svg width="655pt" height="214pt"
 viewBox="0.00 0.00 654.55 214.00" xmlns="http://www.w3.org/2000/svg" xmlns:xlink="http://www.w3.org/1999/xlink">
<g id="graph0" class="graph" transform="scale(1 1) rotate(0) translate(4 210)">
<title>include/medusa/bits/approximations/Operators_fwd.hpp</title>
<!-- Node1 -->
<g id="Node000001" class="node">
<title>Node1</title>
<g id="a_Node000001"><a xlink:title="File defining basic differential operator families.">
<polygon fill="#999999" stroke="#666666" points="361.05,-206 214.05,-206 214.05,-165 361.05,-165 361.05,-206"/>
<text text-anchor="start" x="222.05" y="-194" font-family="Helvetica,sans-Serif" font-size="10.00">include/medusa/bits</text>
<text text-anchor="start" x="222.05" y="-183" font-family="Helvetica,sans-Serif" font-size="10.00">/approximations/Operators</text>
<text text-anchor="middle" x="287.55" y="-172" font-family="Helvetica,sans-Serif" font-size="10.00">_fwd.hpp</text>
</a>
</g>
</g>
<!-- Node2 -->
<g id="Node000002" class="node">
<title>Node2</title>
<g id="a_Node000002"><a xlink:href="Config_8hpp.html" target="_top" xlink:title="Contains compile time settings for the project, such as Eigen plugins.">
<polygon fill="white" stroke="#666666" points="122.55,-74 12.55,-74 12.55,-55 122.55,-55 122.55,-74"/>
<text text-anchor="middle" x="67.55" y="-62" font-family="Helvetica,sans-Serif" font-size="10.00">medusa/Config.hpp</text>
</a>
</g>
</g>
<!-- Node1&#45;&gt;Node2 -->
<g id="edge1_Node000001_Node000002" class="edge">
<title>Node1&#45;&gt;Node2</title>
<g id="a_edge1_Node000001_Node000002"><a xlink:title=" ">
<path fill="none" stroke="#63b8ff" d="M229.63,-164.98C204.59,-155.55 175.4,-143.19 150.55,-129 126.14,-115.05 100.86,-94.72 84.72,-80.84"/>
<polygon fill="#63b8ff" stroke="#63b8ff" points="87,-78.19 77.16,-74.24 82.39,-83.46 87,-78.19"/>
</a>
</g>
</g>
<!-- Node3 -->
<g id="Node000003" class="node">
<title>Node3</title>
<g id="a_Node000003"><a xlink:title=" ">
<polygon fill="#e0e0e0" stroke="#999999" points="91.05,-19 44.05,-19 44.05,0 91.05,0 91.05,-19"/>
<text text-anchor="middle" x="67.55" y="-7" font-family="Helvetica,sans-Serif" font-size="10.00">vector</text>
</a>
</g>
</g>
<!-- Node1&#45;&gt;Node3 -->
<g id="edge4_Node000001_Node000003" class="edge">
<title>Node1&#45;&gt;Node3</title>
<g id="a_edge4_Node000001_Node000003"><a xlink:title=" ">
<path fill="none" stroke="#63b8ff" d="M213.83,-179.37C145.55,-170.16 48.05,-144.61 3.55,-74 -9.06,-53.98 15.54,-35.46 37.8,-23.65"/>
<polygon fill="#63b8ff" stroke="#63b8ff" points="39.39,-26.77 46.77,-19.17 36.26,-20.51 39.39,-26.77"/>
</a>
</g>
</g>
<!-- Node4 -->
<g id="Node000004" class="node">
<title>Node4</title>
<g id="a_Node000004"><a xlink:title=" ">
<polygon fill="#e0e0e0" stroke="#999999" points="382.55,-19 340.55,-19 340.55,0 382.55,0 382.55,-19"/>
<text text-anchor="middle" x="361.55" y="-7" font-family="Helvetica,sans-Serif" font-size="10.00">array</text>
</a>
</g>
</g>
<!-- Node1&#45;&gt;Node4 -->
<g id="edge3_Node000001_Node000004" class="edge">
<title>Node1&#45;&gt;Node4</title>
<g id="a_edge3_Node000001_Node000004"><a xlink:title=" ">
<path fill="none" stroke="#63b8ff" d="M314.56,-164.77C339.15,-144.98 373.79,-112.04 388.55,-74 394.82,-57.85 385.39,-39.68 376,-26.93"/>
<polygon fill="#63b8ff" stroke="#63b8ff" points="378.68,-24.67 369.7,-19.06 373.21,-29.05 378.68,-24.67"/>
</a>
</g>
</g>
<!-- Node5 -->
<g id="Node000005" class="node">
<title>Node5</title>
<g id="a_Node000005"><a xlink:title=" ">
<polygon fill="#e0e0e0" stroke="#999999" points="380.05,-74 311.05,-74 311.05,-55 380.05,-55 380.05,-74"/>
<text text-anchor="middle" x="345.55" y="-62" font-family="Helvetica,sans-Serif" font-size="10.00">Eigen/Core</text>
</a>
</g>
</g>
<!-- Node1&#45;&gt;Node5 -->
<g id="edge5_Node000001_Node000005" class="edge">
<title>Node1&#45;&gt;Node5</title>
<g id="a_edge5_Node000001_Node000005"><a xlink:title=" ">
<path fill="none" stroke="#63b8ff" d="M297.13,-164.85C308.19,-142.17 326.21,-105.19 336.87,-83.31"/>
<polygon fill="#63b8ff" stroke="#63b8ff" points="340.09,-84.7 341.33,-74.18 333.8,-81.63 340.09,-84.7"/>
</a>
</g>
</g>
<!-- Node6 -->
<g id="Node000006" class="node">
<title>Node6</title>
<g id="a_Node000006"><a xlink:href="Monomials__fwd_8hpp.html" target="_top" xlink:title="Declaration of Monomial basis.">
<polygon fill="white" stroke="#666666" points="273.55,-129 159.55,-129 159.55,-110 273.55,-110 273.55,-129"/>
<text text-anchor="middle" x="216.55" y="-117" font-family="Helvetica,sans-Serif" font-size="10.00">Monomials_fwd.hpp</text>
</a>
</g>
</g>
<!-- Node1&#45;&gt;Node6 -->
<g id="edge6_Node000001_Node000006" class="edge">
<title>Node1&#45;&gt;Node6</title>
<g id="a_edge6_Node000001_Node000006"><a xlink:title=" ">
<path fill="none" stroke="#63b8ff" d="M265.87,-164.95C255.54,-155.65 243.38,-144.68 233.71,-135.96"/>
<polygon fill="#63b8ff" stroke="#63b8ff" points="236.04,-133.36 226.27,-129.26 231.36,-138.56 236.04,-133.36"/>
</a>
</g>
</g>
<!-- Node9 -->
<g id="Node000009" class="node">
<title>Node9</title>
<g id="a_Node000009"><a xlink:href="assert_8hpp.html" target="_top" xlink:title="Implementation of custom assert and debug utilities.">
<polygon fill="white" stroke="#666666" points="592.05,-129 437.05,-129 437.05,-110 592.05,-110 592.05,-129"/>
<text text-anchor="middle" x="514.55" y="-117" font-family="Helvetica,sans-Serif" font-size="10.00">medusa/bits/utils/assert.hpp</text>
</a>
</g>
</g>
<!-- Node1&#45;&gt;Node9 -->
<g id="edge12_Node000001_Node000009" class="edge">
<title>Node1&#45;&gt;Node9</title>
<g id="a_edge12_Node000001_Node000009"><a xlink:title=" ">
<path fill="none" stroke="#63b8ff" d="M356.9,-164.95C395.37,-154.1 441.86,-141 474.35,-131.84"/>
<polygon fill="#63b8ff" stroke="#63b8ff" points="475.7,-135.09 484.38,-129.01 473.8,-128.35 475.7,-135.09"/>
</a>
</g>
</g>
<!-- Node2&#45;&gt;Node3 -->
<g id="edge2_Node000002_Node000003" class="edge">
<title>Node2&#45;&gt;Node3</title>
<g id="a_edge2_Node000002_Node000003"><a xlink:title=" ">
<path fill="none" stroke="#63b8ff" d="M67.55,-54.75C67.55,-47.8 67.55,-37.85 67.55,-29.13"/>
<polygon fill="#63b8ff" stroke="#63b8ff" points="71.05,-29.09 67.55,-19.09 64.05,-29.09 71.05,-29.09"/>
</a>
</g>
</g>
<!-- Node6&#45;&gt;Node2 -->
<g id="edge7_Node000006_Node000002" class="edge">
<title>Node6&#45;&gt;Node2</title>
<g id="a_edge7_Node000006_Node000002"><a xlink:title=" ">
<path fill="none" stroke="#63b8ff" d="M192.62,-109.98C168,-101.23 129.44,-87.51 101.64,-77.62"/>
<polygon fill="#63b8ff" stroke="#63b8ff" points="102.52,-74.22 91.93,-74.17 100.18,-80.82 102.52,-74.22"/>
</a>
</g>
</g>
<!-- Node6&#45;&gt;Node4 -->
<g id="edge9_Node000006_Node000004" class="edge">
<title>Node6&#45;&gt;Node4</title>
<g id="a_edge9_Node000006_Node000004"><a xlink:title=" ">
<path fill="none" stroke="#63b8ff" d="M202.21,-109.94C183.34,-97.61 154.28,-74.22 169.55,-55 189.29,-30.17 281.14,-17.96 330.3,-13.12"/>
<polygon fill="#63b8ff" stroke="#63b8ff" points="330.76,-16.59 340.39,-12.17 330.1,-9.62 330.76,-16.59"/>
</a>
</g>
</g>
<!-- Node6&#45;&gt;Node5 -->
<g id="edge10_Node000006_Node000005" class="edge">
<title>Node6&#45;&gt;Node5</title>
<g id="a_edge10_Node000006_Node000005"><a xlink:title=" ">
<path fill="none" stroke="#63b8ff" d="M237.28,-109.98C258.31,-101.34 291.1,-87.87 315.09,-78.02"/>
<polygon fill="#63b8ff" stroke="#63b8ff" points="316.53,-81.21 324.45,-74.17 313.87,-74.73 316.53,-81.21"/>
</a>
</g>
</g>
<!-- Node7 -->
<g id="Node000007" class="node">
<title>Node7</title>
<g id="a_Node000007"><a xlink:title=" ">
<polygon fill="#e0e0e0" stroke="#999999" points="226.05,-74 179.05,-74 179.05,-55 226.05,-55 226.05,-74"/>
<text text-anchor="middle" x="202.55" y="-62" font-family="Helvetica,sans-Serif" font-size="10.00">cmath</text>
</a>
</g>
</g>
<!-- Node6&#45;&gt;Node7 -->
<g id="edge8_Node000006_Node000007" class="edge">
<title>Node6&#45;&gt;Node7</title>
<g id="a_edge8_Node000006_Node000007"><a xlink:title=" ">
<path fill="none" stroke="#63b8ff" d="M214.24,-109.75C212.39,-102.72 209.72,-92.62 207.4,-83.84"/>
<polygon fill="#63b8ff" stroke="#63b8ff" points="210.76,-82.86 204.82,-74.09 203.99,-84.65 210.76,-82.86"/>
</a>
</g>
</g>
<!-- Node8 -->
<g id="Node000008" class="node">
<title>Node8</title>
<g id="a_Node000008"><a xlink:title=" ">
<polygon fill="#e0e0e0" stroke="#999999" points="292.55,-74 244.55,-74 244.55,-55 292.55,-55 292.55,-74"/>
<text text-anchor="middle" x="268.55" y="-62" font-family="Helvetica,sans-Serif" font-size="10.00">iosfwd</text>
</a>
</g>
</g>
<!-- Node6&#45;&gt;Node8 -->
<g id="edge11_Node000006_Node000008" class="edge">
<title>Node6&#45;&gt;Node8</title>
<g id="a_edge11_Node000006_Node000008"><a xlink:title=" ">
<path fill="none" stroke="#63b8ff" d="M225.14,-109.75C232.71,-102.03 243.93,-90.6 253.07,-81.28"/>
<polygon fill="#63b8ff" stroke="#63b8ff" points="255.62,-83.68 260.13,-74.09 250.63,-78.78 255.62,-83.68"/>
</a>
</g>
</g>
<!-- Node10 -->
<g id="Node000010" class="node">
<title>Node10</title>
<g id="a_Node000010"><a xlink:title=" ">
<polygon fill="#e0e0e0" stroke="#999999" points="646.55,-74 514.55,-74 514.55,-55 646.55,-55 646.55,-74"/>
<text text-anchor="middle" x="580.55" y="-62" font-family="Helvetica,sans-Serif" font-size="10.00">tinyformat/tinyformat.h</text>
</a>
</g>
</g>
<!-- Node9&#45;&gt;Node10 -->
<g id="edge13_Node000009_Node000010" class="edge">
<title>Node9&#45;&gt;Node10</title>
<g id="a_edge13_Node000009_Node000010"><a xlink:title=" ">
<path fill="none" stroke="#63b8ff" d="M525.16,-109.98C535.01,-102.07 549.91,-90.11 561.77,-80.58"/>
<polygon fill="#63b8ff" stroke="#63b8ff" points="564.15,-83.16 569.76,-74.17 559.77,-77.7 564.15,-83.16"/>
</a>
</g>
</g>
<!-- Node11 -->
<g id="Node000011" class="node">
<title>Node11</title>
<g id="a_Node000011"><a xlink:href="print_8hpp.html" target="_top" xlink:title="Printing helpers for std types.">
<polygon fill="white" stroke="#666666" points="496.55,-74 436.55,-74 436.55,-55 496.55,-55 496.55,-74"/>
<text text-anchor="middle" x="466.55" y="-62" font-family="Helvetica,sans-Serif" font-size="10.00">print.hpp</text>
</a>
</g>
</g>
<!-- Node9&#45;&gt;Node11 -->
<g id="edge14_Node000009_Node000011" class="edge">
<title>Node9&#45;&gt;Node11</title>
<g id="a_edge14_Node000009_Node000011"><a xlink:title=" ">
<path fill="none" stroke="#63b8ff" d="M506.63,-109.75C499.71,-102.11 489.49,-90.82 481.1,-81.56"/>
<polygon fill="#63b8ff" stroke="#63b8ff" points="483.64,-79.15 474.33,-74.09 478.45,-83.85 483.64,-79.15"/>
</a>
</g>
</g>
<!-- Node11&#45;&gt;Node3 -->
<g id="edge16_Node000011_Node000003" class="edge">
<title>Node11&#45;&gt;Node3</title>
<g id="a_edge16_Node000011_Node000003"><a xlink:title=" ">
<path fill="none" stroke="#63b8ff" d="M436.24,-59.47C363.11,-49.76 177.46,-25.1 101.12,-14.96"/>
<polygon fill="#63b8ff" stroke="#63b8ff" points="101.47,-11.47 91.1,-13.63 100.55,-18.41 101.47,-11.47"/>
</a>
</g>
</g>
<!-- Node11&#45;&gt;Node4 -->
<g id="edge17_Node000011_Node000004" class="edge">
<title>Node11&#45;&gt;Node4</title>
<g id="a_edge17_Node000011_Node000004"><a xlink:title=" ">
<path fill="none" stroke="#63b8ff" d="M449.68,-54.98C432.95,-46.54 407.06,-33.47 387.66,-23.68"/>
<polygon fill="#63b8ff" stroke="#63b8ff" points="389.24,-20.55 378.73,-19.17 386.08,-26.8 389.24,-20.55"/>
</a>
</g>
</g>
<!-- Node12 -->
<g id="Node000012" class="node">
<title>Node12</title>
<g id="a_Node000012"><a xlink:title=" ">
<polygon fill="#e0e0e0" stroke="#999999" points="460.55,-19 400.55,-19 400.55,0 460.55,0 460.55,-19"/>
<text text-anchor="middle" x="430.55" y="-7" font-family="Helvetica,sans-Serif" font-size="10.00">iostream</text>
</a>
</g>
</g>
<!-- Node11&#45;&gt;Node12 -->
<g id="edge15_Node000011_Node000012" class="edge">
<title>Node11&#45;&gt;Node12</title>
<g id="a_edge15_Node000011_Node000012"><a xlink:title=" ">
<path fill="none" stroke="#63b8ff" d="M460.61,-54.75C455.58,-47.34 448.22,-36.5 442.04,-27.41"/>
<polygon fill="#63b8ff" stroke="#63b8ff" points="444.9,-25.39 436.39,-19.09 439.11,-29.33 444.9,-25.39"/>
</a>
</g>
</g>
<!-- Node13 -->
<g id="Node000013" class="node">
<title>Node13</title>
<g id="a_Node000013"><a xlink:title=" ">
<polygon fill="#e0e0e0" stroke="#999999" points="524.05,-19 479.05,-19 479.05,0 524.05,0 524.05,-19"/>
<text text-anchor="middle" x="501.55" y="-7" font-family="Helvetica,sans-Serif" font-size="10.00">utility</text>
</a>
</g>
</g>
<!-- Node11&#45;&gt;Node13 -->
<g id="edge18_Node000011_Node000013" class="edge">
<title>Node11&#45;&gt;Node13</title>
<g id="a_edge18_Node000011_Node000013"><a xlink:title=" ">
<path fill="none" stroke="#63b8ff" d="M472.33,-54.75C477.18,-47.42 484.23,-36.73 490.2,-27.7"/>
<polygon fill="#63b8ff" stroke="#63b8ff" points="493.29,-29.36 495.88,-19.09 487.45,-25.5 493.29,-29.36"/>
</a>
</g>
</g>
<!-- Node14 -->
<g id="Node000014" class="node">
<title>Node14</title>
<g id="a_Node000014"><a xlink:title=" ">
<polygon fill="#e0e0e0" stroke="#999999" points="583.05,-19 542.05,-19 542.05,0 583.05,0 583.05,-19"/>
<text text-anchor="middle" x="562.55" y="-7" font-family="Helvetica,sans-Serif" font-size="10.00">tuple</text>
</a>
</g>
</g>
<!-- Node11&#45;&gt;Node14 -->
<g id="edge19_Node000011_Node000014" class="edge">
<title>Node11&#45;&gt;Node14</title>
<g id="a_edge19_Node000011_Node000014"><a xlink:title=" ">
<path fill="none" stroke="#63b8ff" d="M481.98,-54.98C497,-46.69 520.1,-33.94 537.71,-24.22"/>
<polygon fill="#63b8ff" stroke="#63b8ff" points="539.79,-27.07 546.85,-19.17 536.4,-20.94 539.79,-27.07"/>
</a>
</g>
</g>
</g>
</svg>
