<?xml version="1.0" encoding="UTF-8" standalone="no"?>
<!DOCTYPE svg PUBLIC "-//W3C//DTD SVG 1.1//EN"
 "http://www.w3.org/Graphics/SVG/1.1/DTD/svg11.dtd">
<!-- Generated by graphviz version 2.43.0 (0)
 -->
<!-- Title: include/medusa/bits/domains/PolygonShape.hpp Pages: 1 -->
<svg width="786pt" height="313pt"
 viewBox="0.00 0.00 786.00 313.00" xmlns="http://www.w3.org/2000/svg" xmlns:xlink="http://www.w3.org/1999/xlink">
<g id="graph0" class="graph" transform="scale(1 1) rotate(0) translate(4 309)">
<title>include/medusa/bits/domains/PolygonShape.hpp</title>
<!-- Node1 -->
<g id="Node000001" class="node">
<title>Node1</title>
<g id="a_Node000001"><a xlink:title="Implementation of PolygonShape class.">
<polygon fill="#999999" stroke="#666666" points="611.5,-305 456.5,-305 456.5,-275 611.5,-275 611.5,-305"/>
<text text-anchor="start" x="464.5" y="-293" font-family="Helvetica,sans-Serif" font-size="10.00">include/medusa/bits</text>
<text text-anchor="middle" x="534" y="-282" font-family="Helvetica,sans-Serif" font-size="10.00">/domains/PolygonShape.hpp</text>
</a>
</g>
</g>
<!-- Node2 -->
<g id="Node000002" class="node">
<title>Node2</title>
<g id="a_Node000002"><a xlink:href="Domain_8hpp.html" target="_top" xlink:title="Header for Domain module.">
<polygon fill="white" stroke="#666666" points="660,-79.5 504,-79.5 504,-60.5 660,-60.5 660,-79.5"/>
<text text-anchor="middle" x="582" y="-67.5" font-family="Helvetica,sans-Serif" font-size="10.00">include/medusa/Domain.hpp</text>
</a>
</g>
</g>
<!-- Node1&#45;&gt;Node2 -->
<g id="edge1_Node000001_Node000002" class="edge">
<title>Node1&#45;&gt;Node2</title>
<g id="a_edge1_Node000001_Node000002"><a xlink:title=" ">
<path fill="none" stroke="#63b8ff" d="M549.27,-266.17C554.09,-257.93 558.96,-248.35 562,-239 581.08,-180.34 582.32,-104.87 582.14,-79.64"/>
<polygon fill="#63b8ff" stroke="#63b8ff" points="546.2,-264.47 543.93,-274.82 552.16,-268.15 546.2,-264.47"/>
</a>
</g>
</g>
<!-- Node4 -->
<g id="Node000004" class="node">
<title>Node4</title>
<g id="a_Node000004"><a xlink:href="PolytopeShape_8hpp_source.html" target="_top" xlink:title=" ">
<polygon fill="white" stroke="#666666" points="316,-233.5 158,-233.5 158,-203.5 316,-203.5 316,-233.5"/>
<text text-anchor="start" x="166" y="-221.5" font-family="Helvetica,sans-Serif" font-size="10.00">include/medusa/bits</text>
<text text-anchor="middle" x="237" y="-210.5" font-family="Helvetica,sans-Serif" font-size="10.00">/domains/PolytopeShape.hpp</text>
</a>
</g>
</g>
<!-- Node1&#45;&gt;Node4 -->
<g id="edge3_Node000001_Node000004" class="edge">
<title>Node1&#45;&gt;Node4</title>
<g id="a_edge3_Node000001_Node000004"><a xlink:title=" ">
<path fill="none" stroke="#63b8ff" d="M463.99,-272.62C413.22,-260.74 345.3,-244.84 297.01,-233.54"/>
<polygon fill="#63b8ff" stroke="#63b8ff" points="463.36,-276.06 473.9,-274.94 464.96,-269.25 463.36,-276.06"/>
</a>
</g>
</g>
<!-- Node9 -->
<g id="Node000009" class="node">
<title>Node9</title>
<g id="a_Node000009"><a xlink:href="discretization__helpers__advanced_8hpp.html" target="_top" xlink:title="Contains helpers for discretizing various geometric objects that need more advanced parts of Medusa t...">
<polygon fill="white" stroke="#666666" points="552.5,-239 421.5,-239 421.5,-198 552.5,-198 552.5,-239"/>
<text text-anchor="start" x="429.5" y="-227" font-family="Helvetica,sans-Serif" font-size="10.00">include/medusa/bits</text>
<text text-anchor="start" x="429.5" y="-216" font-family="Helvetica,sans-Serif" font-size="10.00">/domains/discretization</text>
<text text-anchor="middle" x="487" y="-205" font-family="Helvetica,sans-Serif" font-size="10.00">_helpers_advanced.hpp</text>
</a>
</g>
</g>
<!-- Node1&#45;&gt;Node9 -->
<g id="edge9_Node000001_Node000009" class="edge">
<title>Node1&#45;&gt;Node9</title>
<g id="a_edge9_Node000001_Node000009"><a xlink:title=" ">
<path fill="none" stroke="#63b8ff" d="M518.84,-266.59C512.85,-257.73 506.03,-247.63 500.24,-239.07"/>
<polygon fill="#63b8ff" stroke="#63b8ff" points="515.99,-268.61 524.49,-274.94 521.79,-264.69 515.99,-268.61"/>
</a>
</g>
</g>
<!-- Node12 -->
<g id="Node000012" class="node">
<title>Node12</title>
<g id="a_Node000012"><a xlink:href="PolygonShape_8cpp.html" target="_top" xlink:title="Instantiation of PolygonShape class.">
<polygon fill="white" stroke="#666666" points="778,-228 610,-228 610,-209 778,-209 778,-228"/>
<text text-anchor="middle" x="694" y="-216" font-family="Helvetica,sans-Serif" font-size="10.00">src/domains/PolygonShape.cpp</text>
</a>
</g>
</g>
<!-- Node1&#45;&gt;Node12 -->
<g id="edge14_Node000001_Node000012" class="edge">
<title>Node1&#45;&gt;Node12</title>
<g id="a_edge14_Node000001_Node000012"><a xlink:title=" ">
<path fill="none" stroke="#63b8ff" d="M575.87,-270.81C607.63,-257.02 649.86,-238.67 674.28,-228.07"/>
<polygon fill="#63b8ff" stroke="#63b8ff" points="574.16,-267.74 566.38,-274.94 576.94,-274.16 574.16,-267.74"/>
</a>
</g>
</g>
<!-- Node3 -->
<g id="Node000003" class="node">
<title>Node3</title>
<g id="a_Node000003"><a xlink:href="Medusa_8hpp.html" target="_top" xlink:title="Main header file that includes most other components.">
<polygon fill="white" stroke="#666666" points="660,-19 504,-19 504,0 660,0 660,-19"/>
<text text-anchor="middle" x="582" y="-7" font-family="Helvetica,sans-Serif" font-size="10.00">include/medusa/Medusa.hpp</text>
</a>
</g>
</g>
<!-- Node2&#45;&gt;Node3 -->
<g id="edge2_Node000002_Node000003" class="edge">
<title>Node2&#45;&gt;Node3</title>
<g id="a_edge2_Node000002_Node000003"><a xlink:title=" ">
<path fill="none" stroke="#63b8ff" d="M582,-50.16C582,-39.74 582,-27.3 582,-19.17"/>
<polygon fill="#63b8ff" stroke="#63b8ff" points="578.5,-50.37 582,-60.37 585.5,-50.37 578.5,-50.37"/>
</a>
</g>
</g>
<!-- Node5 -->
<g id="Node000005" class="node">
<title>Node5</title>
<g id="a_Node000005"><a xlink:href="PolyhedronShape__fwd_8hpp.html" target="_top" xlink:title="Implementation of shape representing polyhedrons.">
<polygon fill="white" stroke="#666666" points="402.5,-162 253.5,-162 253.5,-121 402.5,-121 402.5,-162"/>
<text text-anchor="start" x="261.5" y="-150" font-family="Helvetica,sans-Serif" font-size="10.00">include/medusa/bits</text>
<text text-anchor="start" x="261.5" y="-139" font-family="Helvetica,sans-Serif" font-size="10.00">/domains/PolyhedronShape</text>
<text text-anchor="middle" x="328" y="-128" font-family="Helvetica,sans-Serif" font-size="10.00">_fwd.hpp</text>
</a>
</g>
</g>
<!-- Node4&#45;&gt;Node5 -->
<g id="edge4_Node000004_Node000005" class="edge">
<title>Node4&#45;&gt;Node5</title>
<g id="a_edge4_Node000004_Node000005"><a xlink:title=" ">
<path fill="none" stroke="#63b8ff" d="M261.87,-197C275.02,-186.16 291.09,-172.92 304.09,-162.2"/>
<polygon fill="#63b8ff" stroke="#63b8ff" points="259.61,-194.33 254.12,-203.39 264.06,-199.73 259.61,-194.33"/>
</a>
</g>
</g>
<!-- Node7 -->
<g id="Node000007" class="node">
<title>Node7</title>
<g id="a_Node000007"><a xlink:href="PolyhedronShape_8cpp.html" target="_top" xlink:title="Instantiation of PolyhedronShape class.">
<polygon fill="white" stroke="#666666" points="184,-19 0,-19 0,0 184,0 184,-19"/>
<text text-anchor="middle" x="92" y="-7" font-family="Helvetica,sans-Serif" font-size="10.00">src/domains/PolyhedronShape.cpp</text>
</a>
</g>
</g>
<!-- Node4&#45;&gt;Node7 -->
<g id="edge7_Node000004_Node000007" class="edge">
<title>Node4&#45;&gt;Node7</title>
<g id="a_edge7_Node000004_Node000007"><a xlink:title=" ">
<path fill="none" stroke="#63b8ff" d="M147.68,-212.58C112.69,-205.74 75.78,-191.37 54,-162 20.24,-116.48 66.93,-44.31 85.21,-19.34"/>
<polygon fill="#63b8ff" stroke="#63b8ff" points="147.51,-216.11 157.97,-214.39 148.73,-209.21 147.51,-216.11"/>
</a>
</g>
</g>
<!-- Node8 -->
<g id="Node000008" class="node">
<title>Node8</title>
<g id="a_Node000008"><a xlink:href="PolytopeShape_8cpp.html" target="_top" xlink:title="Instantiation of PolytopeShape class.">
<polygon fill="white" stroke="#666666" points="235,-151 63,-151 63,-132 235,-132 235,-151"/>
<text text-anchor="middle" x="149" y="-139" font-family="Helvetica,sans-Serif" font-size="10.00">src/domains/PolytopeShape.cpp</text>
</a>
</g>
</g>
<!-- Node4&#45;&gt;Node8 -->
<g id="edge8_Node000004_Node000008" class="edge">
<title>Node4&#45;&gt;Node8</title>
<g id="a_edge8_Node000004_Node000008"><a xlink:title=" ">
<path fill="none" stroke="#63b8ff" d="M212.83,-196.9C195.3,-181.96 172.48,-162.51 159.41,-151.37"/>
<polygon fill="#63b8ff" stroke="#63b8ff" points="210.57,-199.57 220.45,-203.39 215.11,-194.24 210.57,-199.57"/>
</a>
</g>
</g>
<!-- Node6 -->
<g id="Node000006" class="node">
<title>Node6</title>
<g id="a_Node000006"><a xlink:href="PolyhedronShape_8hpp_source.html" target="_top" xlink:title=" ">
<polygon fill="white" stroke="#666666" points="278,-85 108,-85 108,-55 278,-55 278,-85"/>
<text text-anchor="start" x="116" y="-73" font-family="Helvetica,sans-Serif" font-size="10.00">include/medusa/bits</text>
<text text-anchor="middle" x="193" y="-62" font-family="Helvetica,sans-Serif" font-size="10.00">/domains/PolyhedronShape.hpp</text>
</a>
</g>
</g>
<!-- Node5&#45;&gt;Node6 -->
<g id="edge5_Node000005_Node000006" class="edge">
<title>Node5&#45;&gt;Node6</title>
<g id="a_edge5_Node000005_Node000006"><a xlink:title=" ">
<path fill="none" stroke="#63b8ff" d="M280.96,-116.28C260.73,-105.87 237.79,-94.06 220.41,-85.11"/>
<polygon fill="#63b8ff" stroke="#63b8ff" points="279.54,-119.49 290.04,-120.96 282.75,-113.27 279.54,-119.49"/>
</a>
</g>
</g>
<!-- Node6&#45;&gt;Node7 -->
<g id="edge6_Node000006_Node000007" class="edge">
<title>Node6&#45;&gt;Node7</title>
<g id="a_edge6_Node000006_Node000007"><a xlink:title=" ">
<path fill="none" stroke="#63b8ff" d="M159.82,-49.78C141.95,-39.43 120.79,-27.18 106.92,-19.14"/>
<polygon fill="#63b8ff" stroke="#63b8ff" points="158.4,-53 168.81,-54.99 161.91,-46.95 158.4,-53"/>
</a>
</g>
</g>
<!-- Node9&#45;&gt;Node5 -->
<g id="edge10_Node000009_Node000005" class="edge">
<title>Node9&#45;&gt;Node5</title>
<g id="a_edge10_Node000009_Node000005"><a xlink:title=" ">
<path fill="none" stroke="#63b8ff" d="M436.59,-193.72C414.95,-183.51 389.97,-171.73 369.43,-162.04"/>
<polygon fill="#63b8ff" stroke="#63b8ff" points="435.1,-196.89 445.64,-197.99 438.09,-190.56 435.1,-196.89"/>
</a>
</g>
</g>
<!-- Node10 -->
<g id="Node000010" class="node">
<title>Node10</title>
<g id="a_Node000010"><a xlink:href="STLShape_8hpp.html" target="_top" xlink:title="Implementation of STL shapes.">
<polygon fill="white" stroke="#666666" points="553.5,-156.5 420.5,-156.5 420.5,-126.5 553.5,-126.5 553.5,-156.5"/>
<text text-anchor="start" x="428.5" y="-144.5" font-family="Helvetica,sans-Serif" font-size="10.00">include/medusa/bits</text>
<text text-anchor="middle" x="487" y="-133.5" font-family="Helvetica,sans-Serif" font-size="10.00">/domains/STLShape.hpp</text>
</a>
</g>
</g>
<!-- Node9&#45;&gt;Node10 -->
<g id="edge11_Node000009_Node000010" class="edge">
<title>Node9&#45;&gt;Node10</title>
<g id="a_edge11_Node000009_Node000010"><a xlink:title=" ">
<path fill="none" stroke="#63b8ff" d="M487,-187.61C487,-177.01 487,-165.57 487,-156.86"/>
<polygon fill="#63b8ff" stroke="#63b8ff" points="483.5,-187.79 487,-197.79 490.5,-187.79 483.5,-187.79"/>
</a>
</g>
</g>
<!-- Node10&#45;&gt;Node2 -->
<g id="edge12_Node000010_Node000002" class="edge">
<title>Node10&#45;&gt;Node2</title>
<g id="a_edge12_Node000010_Node000002"><a xlink:title=" ">
<path fill="none" stroke="#63b8ff" d="M514.33,-120.5C532.86,-106.95 556.42,-89.71 570.29,-79.57"/>
<polygon fill="#63b8ff" stroke="#63b8ff" points="512.23,-117.71 506.22,-126.44 516.36,-123.36 512.23,-117.71"/>
</a>
</g>
</g>
<!-- Node11 -->
<g id="Node000011" class="node">
<title>Node11</title>
<g id="a_Node000011"><a xlink:href="STLShape_8cpp.html" target="_top" xlink:title="Instantiation of class for STL domains.">
<polygon fill="white" stroke="#666666" points="486,-79.5 340,-79.5 340,-60.5 486,-60.5 486,-79.5"/>
<text text-anchor="middle" x="413" y="-67.5" font-family="Helvetica,sans-Serif" font-size="10.00">src/domains/STLShape.cpp</text>
</a>
</g>
</g>
<!-- Node10&#45;&gt;Node11 -->
<g id="edge13_Node000010_Node000011" class="edge">
<title>Node10&#45;&gt;Node11</title>
<g id="a_edge13_Node000010_Node000011"><a xlink:title=" ">
<path fill="none" stroke="#63b8ff" d="M464.58,-119.44C450.42,-106.15 432.88,-89.67 422.33,-79.77"/>
<polygon fill="#63b8ff" stroke="#63b8ff" points="462.34,-122.14 472.02,-126.44 467.13,-117.04 462.34,-122.14"/>
</a>
</g>
</g>
</g>
</svg>
