<?xml version="1.0" encoding="UTF-8" standalone="no"?>
<!DOCTYPE svg PUBLIC "-//W3C//DTD SVG 1.1//EN"
 "http://www.w3.org/Graphics/SVG/1.1/DTD/svg11.dtd">
<!-- Generated by graphviz version 2.43.0 (0)
 -->
<!-- Title: include/medusa/bits/domains/PolyhedronShape_fwd.hpp Pages: 1 -->
<svg width="192pt" height="170pt"
 viewBox="0.00 0.00 192.00 170.00" xmlns="http://www.w3.org/2000/svg" xmlns:xlink="http://www.w3.org/1999/xlink">
<g id="graph0" class="graph" transform="scale(1 1) rotate(0) translate(4 166)">
<title>include/medusa/bits/domains/PolyhedronShape_fwd.hpp</title>
<!-- Node1 -->
<g id="Node000001" class="node">
<title>Node1</title>
<g id="a_Node000001"><a xlink:title="Implementation of shape representing polyhedrons.">
<polygon fill="#999999" stroke="#666666" points="166.5,-162 17.5,-162 17.5,-121 166.5,-121 166.5,-162"/>
<text text-anchor="start" x="25.5" y="-150" font-family="Helvetica,sans-Serif" font-size="10.00">include/medusa/bits</text>
<text text-anchor="start" x="25.5" y="-139" font-family="Helvetica,sans-Serif" font-size="10.00">/domains/PolyhedronShape</text>
<text text-anchor="middle" x="92" y="-128" font-family="Helvetica,sans-Serif" font-size="10.00">_fwd.hpp</text>
</a>
</g>
</g>
<!-- Node2 -->
<g id="Node000002" class="node">
<title>Node2</title>
<g id="a_Node000002"><a xlink:href="PolyhedronShape_8hpp_source.html" target="_top" xlink:title=" ">
<polygon fill="white" stroke="#666666" points="177,-85 7,-85 7,-55 177,-55 177,-85"/>
<text text-anchor="start" x="15" y="-73" font-family="Helvetica,sans-Serif" font-size="10.00">include/medusa/bits</text>
<text text-anchor="middle" x="92" y="-62" font-family="Helvetica,sans-Serif" font-size="10.00">/domains/PolyhedronShape.hpp</text>
</a>
</g>
</g>
<!-- Node1&#45;&gt;Node2 -->
<g id="edge1_Node000001_Node000002" class="edge">
<title>Node1&#45;&gt;Node2</title>
<g id="a_edge1_Node000001_Node000002"><a xlink:title=" ">
<path fill="none" stroke="#63b8ff" d="M92,-110.66C92,-101.76 92,-92.42 92,-85.04"/>
<polygon fill="#63b8ff" stroke="#63b8ff" points="88.5,-110.77 92,-120.77 95.5,-110.77 88.5,-110.77"/>
</a>
</g>
</g>
<!-- Node3 -->
<g id="Node000003" class="node">
<title>Node3</title>
<g id="a_Node000003"><a xlink:href="PolyhedronShape_8cpp.html" target="_top" xlink:title="Instantiation of PolyhedronShape class.">
<polygon fill="white" stroke="#666666" points="184,-19 0,-19 0,0 184,0 184,-19"/>
<text text-anchor="middle" x="92" y="-7" font-family="Helvetica,sans-Serif" font-size="10.00">src/domains/PolyhedronShape.cpp</text>
</a>
</g>
</g>
<!-- Node2&#45;&gt;Node3 -->
<g id="edge2_Node000002_Node000003" class="edge">
<title>Node2&#45;&gt;Node3</title>
<g id="a_edge2_Node000002_Node000003"><a xlink:title=" ">
<path fill="none" stroke="#63b8ff" d="M92,-44.75C92,-35.72 92,-26.03 92,-19.27"/>
<polygon fill="#63b8ff" stroke="#63b8ff" points="88.5,-44.84 92,-54.84 95.5,-44.84 88.5,-44.84"/>
</a>
</g>
</g>
</g>
</svg>
