<?xml version="1.0" encoding="UTF-8" standalone="no"?>
<!DOCTYPE svg PUBLIC "-//W3C//DTD SVG 1.1//EN"
 "http://www.w3.org/Graphics/SVG/1.1/DTD/svg11.dtd">
<!-- Generated by graphviz version 2.43.0 (0)
 -->
<!-- Title: include/medusa/bits/domains/PolytopeShape_fwd.hpp Pages: 1 -->
<svg width="406pt" height="313pt"
 viewBox="0.00 0.00 406.00 313.00" xmlns="http://www.w3.org/2000/svg" xmlns:xlink="http://www.w3.org/1999/xlink">

<svg id="main" version="1.1" xmlns="http://www.w3.org/2000/svg" xmlns:xlink="http://www.w3.org/1999/xlink" xml:space="preserve" onload="init(evt)">
<style type="text/css"><![CDATA[
.node, .edge {opacity: 0.7;}
.node.selected, .edge.selected {opacity: 1;}
.edge:hover path { stroke: red; }
.edge:hover polygon { stroke: red; fill: red; }
]]></style>
<script type="application/ecmascript" xlink:href="svg.min.js"/>
<svg id="graph" class="graph">
<g id="graph0" class="graph" transform="scale(1 1) rotate(0) translate(4 309)">
<title>include/medusa/bits/domains/PolytopeShape_fwd.hpp</title>
<!-- Node1 -->
<g id="Node000001" class="node">
<title>Node1</title>
<g id="a_Node000001"><a xlink:title="Declaration of PolytopeShape class.">
<polygon fill="#999999" stroke="#666666" points="266.5,-305 129.5,-305 129.5,-264 266.5,-264 266.5,-305"/>
<text text-anchor="start" x="137.5" y="-293" font-family="Helvetica,sans-Serif" font-size="10.00">include/medusa/bits</text>
<text text-anchor="start" x="137.5" y="-282" font-family="Helvetica,sans-Serif" font-size="10.00">/domains/PolytopeShape</text>
<text text-anchor="middle" x="198" y="-271" font-family="Helvetica,sans-Serif" font-size="10.00">_fwd.hpp</text>
</a>
</g>
</g>
<!-- Node2 -->
<g id="Node000002" class="node">
<title>Node2</title>
<g id="a_Node000002"><a xlink:href="PolytopeShape_8hpp_source.html" target="_top" xlink:title=" ">
<polygon fill="white" stroke="#666666" points="277,-228 119,-228 119,-198 277,-198 277,-228"/>
<text text-anchor="start" x="127" y="-216" font-family="Helvetica,sans-Serif" font-size="10.00">include/medusa/bits</text>
<text text-anchor="middle" x="198" y="-205" font-family="Helvetica,sans-Serif" font-size="10.00">/domains/PolytopeShape.hpp</text>
</a>
</g>
</g>
<!-- Node1&#45;&gt;Node2 -->
<g id="edge1_Node000001_Node000002" class="edge">
<title>Node1&#45;&gt;Node2</title>
<g id="a_edge1_Node000001_Node000002"><a xlink:title=" ">
<path fill="none" stroke="#63b8ff" d="M198,-253.66C198,-244.76 198,-235.42 198,-228.04"/>
<polygon fill="#63b8ff" stroke="#63b8ff" points="194.5,-253.77 198,-263.77 201.5,-253.77 194.5,-253.77"/>
</a>
</g>
</g>
<!-- Node3 -->
<g id="Node000003" class="node">
<title>Node3</title>
<g id="a_Node000003"><a xlink:href="PolyhedronShape__fwd_8hpp.html" target="_top" xlink:title="Implementation of shape representing polyhedrons.">
<polygon fill="white" stroke="#666666" points="165.5,-162 16.5,-162 16.5,-121 165.5,-121 165.5,-162"/>
<text text-anchor="start" x="24.5" y="-150" font-family="Helvetica,sans-Serif" font-size="10.00">include/medusa/bits</text>
<text text-anchor="start" x="24.5" y="-139" font-family="Helvetica,sans-Serif" font-size="10.00">/domains/PolyhedronShape</text>
<text text-anchor="middle" x="91" y="-128" font-family="Helvetica,sans-Serif" font-size="10.00">_fwd.hpp</text>
</a>
</g>
</g>
<!-- Node2&#45;&gt;Node3 -->
<g id="edge2_Node000002_Node000003" class="edge">
<title>Node2&#45;&gt;Node3</title>
<g id="a_edge2_Node000002_Node000003"><a xlink:title=" ">
<path fill="none" stroke="#63b8ff" d="M167.69,-192.31C153.11,-182.84 135.69,-171.53 121.13,-162.07"/>
<polygon fill="#63b8ff" stroke="#63b8ff" points="166.05,-195.42 176.35,-197.94 169.87,-189.55 166.05,-195.42"/>
</a>
</g>
</g>
<!-- Node5 -->
<g id="Node000005" class="node">
<title>Node5</title>
<g id="a_Node000005"><a xlink:href="PolyhedronShape_8cpp.html" target="_top" xlink:title="Instantiation of PolyhedronShape class.">
<polygon fill="white" stroke="#666666" points="233,-19 49,-19 49,0 233,0 233,-19"/>
<text text-anchor="middle" x="141" y="-7" font-family="Helvetica,sans-Serif" font-size="10.00">src/domains/PolyhedronShape.cpp</text>
</a>
</g>
</g>
<!-- Node2&#45;&gt;Node5 -->
<g id="edge5_Node000002_Node000005" class="edge">
<title>Node2&#45;&gt;Node5</title>
<g id="a_edge5_Node000002_Node000005"><a xlink:title=" ">
<path fill="none" stroke="#63b8ff" d="M199.3,-187.7C200.09,-155.84 198.25,-98.85 179,-55 172.71,-40.67 160.24,-27.48 151.3,-19.24"/>
<polygon fill="#63b8ff" stroke="#63b8ff" points="195.8,-187.74 198.94,-197.86 202.8,-187.99 195.8,-187.74"/>
</a>
</g>
</g>
<!-- Node6 -->
<g id="Node000006" class="node">
<title>Node6</title>
<g id="a_Node000006"><a xlink:href="PolytopeShape_8cpp.html" target="_top" xlink:title="Instantiation of PolytopeShape class.">
<polygon fill="white" stroke="#666666" points="398,-151 226,-151 226,-132 398,-132 398,-151"/>
<text text-anchor="middle" x="312" y="-139" font-family="Helvetica,sans-Serif" font-size="10.00">src/domains/PolytopeShape.cpp</text>
</a>
</g>
</g>
<!-- Node2&#45;&gt;Node6 -->
<g id="edge6_Node000002_Node000006" class="edge">
<title>Node2&#45;&gt;Node6</title>
<g id="a_edge6_Node000002_Node000006"><a xlink:title=" ">
<path fill="none" stroke="#63b8ff" d="M229.9,-192.55C252.27,-178.92 281.08,-161.35 297.95,-151.07"/>
<polygon fill="#63b8ff" stroke="#63b8ff" points="227.79,-189.74 221.07,-197.94 231.43,-195.72 227.79,-189.74"/>
</a>
</g>
</g>
<!-- Node4 -->
<g id="Node000004" class="node">
<title>Node4</title>
<g id="a_Node000004"><a xlink:href="PolyhedronShape_8hpp_source.html" target="_top" xlink:title=" ">
<polygon fill="white" stroke="#666666" points="170,-85 0,-85 0,-55 170,-55 170,-85"/>
<text text-anchor="start" x="8" y="-73" font-family="Helvetica,sans-Serif" font-size="10.00">include/medusa/bits</text>
<text text-anchor="middle" x="85" y="-62" font-family="Helvetica,sans-Serif" font-size="10.00">/domains/PolyhedronShape.hpp</text>
</a>
</g>
</g>
<!-- Node3&#45;&gt;Node4 -->
<g id="edge3_Node000003_Node000004" class="edge">
<title>Node3&#45;&gt;Node4</title>
<g id="a_edge3_Node000003_Node000004"><a xlink:title=" ">
<path fill="none" stroke="#63b8ff" d="M88.42,-110.66C87.66,-101.76 86.85,-92.42 86.21,-85.04"/>
<polygon fill="#63b8ff" stroke="#63b8ff" points="84.95,-111.11 89.3,-120.77 91.92,-110.51 84.95,-111.11"/>
</a>
</g>
</g>
<!-- Node4&#45;&gt;Node5 -->
<g id="edge4_Node000004_Node000005" class="edge">
<title>Node4&#45;&gt;Node5</title>
<g id="a_edge4_Node000004_Node000005"><a xlink:title=" ">
<path fill="none" stroke="#63b8ff" d="M105.7,-47.38C115.02,-37.64 125.51,-26.69 132.61,-19.27"/>
<polygon fill="#63b8ff" stroke="#63b8ff" points="102.94,-45.19 98.56,-54.84 108,-50.04 102.94,-45.19"/>
</a>
</g>
</g>
</g>
</svg>
</svg>

<style type='text/css'>
<![CDATA[
[data-mouse-over-selected='false'] { opacity: 0.7; }
[data-mouse-over-selected='true']  { opacity: 1.0; }
]]>
</style>
<script type="application/ecmascript"><![CDATA[
document.addEventListener('DOMContentLoaded', (event) => {
  highlightEdges();
  highlightAdjacentNodes();
});
]]></script>
</svg>
