<?xml version="1.0" encoding="UTF-8" standalone="no"?>
<!DOCTYPE svg PUBLIC "-//W3C//DTD SVG 1.1//EN"
 "http://www.w3.org/Graphics/SVG/1.1/DTD/svg11.dtd">
<!-- Generated by graphviz version 2.43.0 (0)
 -->
<!-- Title: src/approximations/Polyharmonic.cpp Pages: 1 -->
<!--zoomable 489 -->

<svg id="main" version="1.1" xmlns="http://www.w3.org/2000/svg" xmlns:xlink="http://www.w3.org/1999/xlink" xml:space="preserve" onload="init(evt)">
<style type="text/css"><![CDATA[
.node, .edge {opacity: 0.7;}
.node.selected, .edge.selected {opacity: 1;}
.edge:hover path { stroke: red; }
.edge:hover polygon { stroke: red; fill: red; }
]]></style>

<defs>
  <circle id="rim" cx="0" cy="0" r="7"/>
  <circle id="rim2" cx="0" cy="0" r="3.5"/>
  <g id="zoomPlus">
    <use xlink:href="#rim" fill="#404040"><set attributeName="fill" to="#808080" begin="zoomplus.mouseover" end="zoomplus.mouseout"/></use>
    <path d="M-4,0h8M0,-4v8" fill="none" stroke="white" stroke-width="1.5" pointer-events="none"/>
  </g>
  <g id="zoomMin">
    <use xlink:href="#rim" fill="#404040"><set attributeName="fill" to="#808080" begin="zoomminus.mouseover" end="zoomminus.mouseout"/></use>
    <path d="M-4,0h8" fill="none" stroke="white" stroke-width="1.5" pointer-events="none"/>
  </g>
  <g id="arrowUp" transform="translate(30 24)">
    <use xlink:href="#rim"/>
    <path pointer-events="none" fill="none" stroke="white" stroke-width="1.5" d="M0,-3.0v7 M-2.5,-0.5L0,-3.0L2.5,-0.5"/>
  </g>
  <g id="arrowRight" transform="rotate(90) translate(36 -43)">
    <use xlink:href="#rim"/>
    <path pointer-events="none" fill="none" stroke="white" stroke-width="1.5" d="M0,-3.0v7 M-2.5,-0.5L0,-3.0L2.5,-0.5"/>
  </g>
  <g id="arrowDown" transform="rotate(180) translate(-30 -48)">
    <use xlink:href="#rim"/>
    <path pointer-events="none" fill="none" stroke="white" stroke-width="1.5" d="M0,-3.0v7 M-2.5,-0.5L0,-3.0L2.5,-0.5"/>
  </g>
  <g id="arrowLeft" transform="rotate(270) translate(-36 17)">
    <use xlink:href="#rim"/>
    <path pointer-events="none" fill="none" stroke="white" stroke-width="1.5" d="M0,-3.0v7 M-2.5,-0.5L0,-3.0L2.5,-0.5"/>
  </g>
  <g id="resetDef">
    <use xlink:href="#rim2" fill="#404040"><set attributeName="fill" to="#808080" begin="reset.mouseover" end="reset.mouseout"/></use>
  </g>
</defs>
<script type="application/ecmascript">
var viewWidth = 864;
var viewHeight = 489;
var sectionId = 'dynsection-0';
</script>
<script type="application/ecmascript" xlink:href="svg.min.js"/>
<svg id="graph" class="graph">
<g id="viewport">
<title>src/approximations/Polyharmonic.cpp</title>
<!-- Node1 -->
<g id="Node000001" class="node">
<title>Node1</title>
<g id="a_Node000001"><a xlink:title="Explicit instantiations for common parameters.">
<polygon fill="#999999" stroke="#666666" points="400.5,-481 290.5,-481 290.5,-451 400.5,-451 400.5,-481"/>
<text text-anchor="start" x="298.5" y="-469" font-family="Helvetica,sans-Serif" font-size="10.00">src/approximations</text>
<text text-anchor="middle" x="345.5" y="-458" font-family="Helvetica,sans-Serif" font-size="10.00">/Polyharmonic.cpp</text>
</a>
</g>
</g>
<!-- Node2 -->
<g id="Node000002" class="node">
<title>Node2</title>
<g id="a_Node000002"><a xlink:href="Polyharmonic_8hpp.html" target="_top" xlink:title="Implementation of Polyharmonic RBF.">
<polygon fill="white" stroke="#666666" points="423.5,-415 267.5,-415 267.5,-385 423.5,-385 423.5,-415"/>
<text text-anchor="start" x="275.5" y="-403" font-family="Helvetica,sans-Serif" font-size="10.00">medusa/bits/approximations</text>
<text text-anchor="middle" x="345.5" y="-392" font-family="Helvetica,sans-Serif" font-size="10.00">/Polyharmonic.hpp</text>
</a>
</g>
</g>
<!-- Node1&#45;&gt;Node2 -->
<g id="edge1_Node000001_Node000002" class="edge">
<title>Node1&#45;&gt;Node2</title>
<g id="a_edge1_Node000001_Node000002"><a xlink:title=" ">
<path fill="none" stroke="#63b8ff" d="M345.5,-450.8C345.5,-443.34 345.5,-433.99 345.5,-425.41"/>
<polygon fill="#63b8ff" stroke="#63b8ff" points="349,-425.16 345.5,-415.16 342,-425.16 349,-425.16"/>
</a>
</g>
</g>
<!-- Node3 -->
<g id="Node000003" class="node">
<title>Node3</title>
<g id="a_Node000003"><a xlink:href="Polyharmonic__fwd_8hpp.html" target="_top" xlink:title="Declaration of Polyharmonic RBF.">
<polygon fill="white" stroke="#666666" points="464,-349 337,-349 337,-330 464,-330 464,-349"/>
<text text-anchor="middle" x="400.5" y="-337" font-family="Helvetica,sans-Serif" font-size="10.00">Polyharmonic_fwd.hpp</text>
</a>
</g>
</g>
<!-- Node2&#45;&gt;Node3 -->
<g id="edge2_Node000002_Node000003" class="edge">
<title>Node2&#45;&gt;Node3</title>
<g id="a_edge2_Node000002_Node000003"><a xlink:title=" ">
<path fill="none" stroke="#63b8ff" d="M358.81,-384.84C366.8,-376.35 376.98,-365.52 385.28,-356.69"/>
<polygon fill="#63b8ff" stroke="#63b8ff" points="387.96,-358.95 392.26,-349.27 382.86,-354.15 387.96,-358.95"/>
</a>
</g>
</g>
<!-- Node6 -->
<g id="Node000006" class="node">
<title>Node6</title>
<g id="a_Node000006"><a xlink:href="numutils_8hpp.html" target="_top" xlink:title="Declaration of numerical utilities.">
<polygon fill="white" stroke="#666666" points="373,-294 206,-294 206,-275 373,-275 373,-294"/>
<text text-anchor="middle" x="289.5" y="-282" font-family="Helvetica,sans-Serif" font-size="10.00">medusa/bits/utils/numutils.hpp</text>
</a>
</g>
</g>
<!-- Node2&#45;&gt;Node6 -->
<g id="edge42_Node000002_Node000006" class="edge">
<title>Node2&#45;&gt;Node6</title>
<g id="a_edge42_Node000002_Node000006"><a xlink:title=" ">
<path fill="none" stroke="#63b8ff" d="M338.41,-384.63C328.2,-363.93 309.37,-325.78 298.29,-303.32"/>
<polygon fill="#63b8ff" stroke="#63b8ff" points="301.37,-301.65 293.81,-294.23 295.09,-304.75 301.37,-301.65"/>
</a>
</g>
</g>
<!-- Node4 -->
<g id="Node000004" class="node">
<title>Node4</title>
<g id="a_Node000004"><a xlink:href="Config_8hpp.html" target="_top" xlink:title="Contains compile time settings for the project, such as Eigen plugins.">
<polygon fill="white" stroke="#666666" points="478.5,-129 368.5,-129 368.5,-110 478.5,-110 478.5,-129"/>
<text text-anchor="middle" x="423.5" y="-117" font-family="Helvetica,sans-Serif" font-size="10.00">medusa/Config.hpp</text>
</a>
</g>
</g>
<!-- Node3&#45;&gt;Node4 -->
<g id="edge3_Node000003_Node000004" class="edge">
<title>Node3&#45;&gt;Node4</title>
<g id="a_edge3_Node000003_Node000004"><a xlink:title=" ">
<path fill="none" stroke="#63b8ff" d="M401.4,-329.95C404.78,-297.95 416.73,-184.68 421.51,-139.4"/>
<polygon fill="#63b8ff" stroke="#63b8ff" points="425.01,-139.54 422.58,-129.22 418.05,-138.8 425.01,-139.54"/>
</a>
</g>
</g>
<!-- Node3&#45;&gt;Node6 -->
<g id="edge5_Node000003_Node000006" class="edge">
<title>Node3&#45;&gt;Node6</title>
<g id="a_edge5_Node000003_Node000006"><a xlink:title=" ">
<path fill="none" stroke="#63b8ff" d="M382.67,-329.98C364.89,-321.5 337.35,-308.35 316.82,-298.54"/>
<polygon fill="#63b8ff" stroke="#63b8ff" points="318.19,-295.32 307.66,-294.17 315.17,-301.64 318.19,-295.32"/>
</a>
</g>
</g>
<!-- Node23 -->
<g id="Node000023" class="node">
<title>Node23</title>
<g id="a_Node000023"><a xlink:title=" ">
<polygon fill="#e0e0e0" stroke="#999999" points="856,-129 809,-129 809,-110 856,-110 856,-129"/>
<text text-anchor="middle" x="832.5" y="-117" font-family="Helvetica,sans-Serif" font-size="10.00">cmath</text>
</a>
</g>
</g>
<!-- Node3&#45;&gt;Node23 -->
<g id="edge29_Node000003_Node000023" class="edge">
<title>Node3&#45;&gt;Node23</title>
<g id="a_edge29_Node000003_Node000023"><a xlink:title=" ">
<path fill="none" stroke="#63b8ff" d="M452.5,-329.97C522.12,-317.13 648.13,-288.88 745.5,-239 780.71,-220.96 793.71,-217.03 815.5,-184 824.44,-170.46 828.69,-152.37 830.71,-138.96"/>
<polygon fill="#63b8ff" stroke="#63b8ff" points="834.18,-139.36 831.93,-129 827.24,-138.5 834.18,-139.36"/>
</a>
</g>
</g>
<!-- Node24 -->
<g id="Node000024" class="node">
<title>Node24</title>
<g id="a_Node000024"><a xlink:href="Operators__fwd_8hpp.html" target="_top" xlink:title="File defining basic differential operator families.">
<polygon fill="white" stroke="#666666" points="702.5,-239 594.5,-239 594.5,-220 702.5,-220 702.5,-239"/>
<text text-anchor="middle" x="648.5" y="-227" font-family="Helvetica,sans-Serif" font-size="10.00">Operators_fwd.hpp</text>
</a>
</g>
</g>
<!-- Node3&#45;&gt;Node24 -->
<g id="edge30_Node000003_Node000024" class="edge">
<title>Node3&#45;&gt;Node24</title>
<g id="a_edge30_Node000003_Node000024"><a xlink:title=" ">
<path fill="none" stroke="#63b8ff" d="M420.38,-329.84C464.02,-310.84 568.39,-265.39 619.41,-243.17"/>
<polygon fill="#63b8ff" stroke="#63b8ff" points="621.1,-246.25 628.87,-239.05 618.31,-239.83 621.1,-246.25"/>
</a>
</g>
</g>
<!-- Node5 -->
<g id="Node000005" class="node">
<title>Node5</title>
<g id="a_Node000005"><a xlink:title=" ">
<polygon fill="#e0e0e0" stroke="#999999" points="394,-19 347,-19 347,0 394,0 394,-19"/>
<text text-anchor="middle" x="370.5" y="-7" font-family="Helvetica,sans-Serif" font-size="10.00">vector</text>
</a>
</g>
</g>
<!-- Node4&#45;&gt;Node5 -->
<g id="edge4_Node000004_Node000005" class="edge">
<title>Node4&#45;&gt;Node5</title>
<g id="a_edge4_Node000004_Node000005"><a xlink:title=" ">
<path fill="none" stroke="#63b8ff" d="M419.16,-109.66C410.46,-91.93 390.73,-51.73 379.24,-28.32"/>
<polygon fill="#63b8ff" stroke="#63b8ff" points="382.3,-26.59 374.75,-19.16 376.01,-29.68 382.3,-26.59"/>
</a>
</g>
</g>
<!-- Node6&#45;&gt;Node4 -->
<g id="edge6_Node000006_Node000004" class="edge">
<title>Node6&#45;&gt;Node4</title>
<g id="a_edge6_Node000006_Node000004"><a xlink:title=" ">
<path fill="none" stroke="#63b8ff" d="M296.54,-274.86C312.49,-255.27 352.66,-206.02 386.5,-165 394.19,-155.68 402.82,-145.3 409.81,-136.91"/>
<polygon fill="#63b8ff" stroke="#63b8ff" points="412.67,-138.94 416.39,-129.01 407.3,-134.45 412.67,-138.94"/>
</a>
</g>
</g>
<!-- Node7 -->
<g id="Node000007" class="node">
<title>Node7</title>
<g id="a_Node000007"><a xlink:href="assert_8hpp.html" target="_top" xlink:title="Implementation of custom assert and debug utilities.">
<polygon fill="white" stroke="#666666" points="155,-129 0,-129 0,-110 155,-110 155,-129"/>
<text text-anchor="middle" x="77.5" y="-117" font-family="Helvetica,sans-Serif" font-size="10.00">medusa/bits/utils/assert.hpp</text>
</a>
</g>
</g>
<!-- Node6&#45;&gt;Node7 -->
<g id="edge7_Node000006_Node000007" class="edge">
<title>Node6&#45;&gt;Node7</title>
<g id="a_edge7_Node000006_Node000007"><a xlink:title=" ">
<path fill="none" stroke="#63b8ff" d="M205.61,-275.87C177.43,-269.65 147.57,-258.57 125.5,-239 95.84,-212.7 84.2,-165.43 79.88,-139.25"/>
<polygon fill="#63b8ff" stroke="#63b8ff" points="83.31,-138.53 78.4,-129.14 76.38,-139.54 83.31,-138.53"/>
</a>
</g>
</g>
<!-- Node14 -->
<g id="Node000014" class="node">
<title>Node14</title>
<g id="a_Node000014"><a xlink:href="Vec_8hpp.html" target="_top" xlink:title="Implemetations for Vec.">
<polygon fill="white" stroke="#666666" points="576.5,-239 428.5,-239 428.5,-220 576.5,-220 576.5,-239"/>
<text text-anchor="middle" x="502.5" y="-227" font-family="Helvetica,sans-Serif" font-size="10.00">medusa/bits/types/Vec.hpp</text>
</a>
</g>
</g>
<!-- Node6&#45;&gt;Node14 -->
<g id="edge15_Node000006_Node000014" class="edge">
<title>Node6&#45;&gt;Node14</title>
<g id="a_edge15_Node000006_Node000014"><a xlink:title=" ">
<path fill="none" stroke="#63b8ff" d="M323.72,-274.98C360.26,-265.89 418.28,-251.46 458.26,-241.51"/>
<polygon fill="#63b8ff" stroke="#63b8ff" points="459.15,-244.89 468.01,-239.08 457.46,-238.1 459.15,-244.89"/>
</a>
</g>
</g>
<!-- Node17 -->
<g id="Node000017" class="node">
<title>Node17</title>
<g id="a_Node000017"><a xlink:href="Range_8hpp.html" target="_top" xlink:title="Implementation of Range.">
<polygon fill="white" stroke="#666666" points="296,-239 135,-239 135,-220 296,-220 296,-239"/>
<text text-anchor="middle" x="215.5" y="-227" font-family="Helvetica,sans-Serif" font-size="10.00">medusa/bits/types/Range.hpp</text>
</a>
</g>
</g>
<!-- Node6&#45;&gt;Node17 -->
<g id="edge19_Node000006_Node000017" class="edge">
<title>Node6&#45;&gt;Node17</title>
<g id="a_edge19_Node000006_Node000017"><a xlink:title=" ">
<path fill="none" stroke="#63b8ff" d="M277.61,-274.98C266.35,-266.92 249.21,-254.65 235.79,-245.03"/>
<polygon fill="#63b8ff" stroke="#63b8ff" points="237.77,-242.15 227.61,-239.17 233.7,-247.84 237.77,-242.15"/>
</a>
</g>
</g>
<!-- Node6&#45;&gt;Node23 -->
<g id="edge28_Node000006_Node000023" class="edge">
<title>Node6&#45;&gt;Node23</title>
<g id="a_edge28_Node000006_Node000023"><a xlink:title=" ">
<path fill="none" stroke="#63b8ff" d="M373.09,-279.4C477.91,-273.45 651.19,-260.68 711.5,-239 753.14,-224.03 763.94,-216 794.5,-184 807.37,-170.53 817.85,-151.94 824.52,-138.35"/>
<polygon fill="#63b8ff" stroke="#63b8ff" points="827.78,-139.65 828.86,-129.11 821.44,-136.68 827.78,-139.65"/>
</a>
</g>
</g>
<!-- Node8 -->
<g id="Node000008" class="node">
<title>Node8</title>
<g id="a_Node000008"><a xlink:title=" ">
<polygon fill="#e0e0e0" stroke="#999999" points="285.5,-74 153.5,-74 153.5,-55 285.5,-55 285.5,-74"/>
<text text-anchor="middle" x="219.5" y="-62" font-family="Helvetica,sans-Serif" font-size="10.00">tinyformat/tinyformat.h</text>
</a>
</g>
</g>
<!-- Node7&#45;&gt;Node8 -->
<g id="edge8_Node000007_Node000008" class="edge">
<title>Node7&#45;&gt;Node8</title>
<g id="a_edge8_Node000007_Node000008"><a xlink:title=" ">
<path fill="none" stroke="#63b8ff" d="M100.31,-109.98C123.67,-101.27 160.2,-87.63 186.67,-77.75"/>
<polygon fill="#63b8ff" stroke="#63b8ff" points="188.13,-80.95 196.27,-74.17 185.68,-74.39 188.13,-80.95"/>
</a>
</g>
</g>
<!-- Node9 -->
<g id="Node000009" class="node">
<title>Node9</title>
<g id="a_Node000009"><a xlink:href="print_8hpp.html" target="_top" xlink:title="Printing helpers for std types.">
<polygon fill="white" stroke="#666666" points="135.5,-74 75.5,-74 75.5,-55 135.5,-55 135.5,-74"/>
<text text-anchor="middle" x="105.5" y="-62" font-family="Helvetica,sans-Serif" font-size="10.00">print.hpp</text>
</a>
</g>
</g>
<!-- Node7&#45;&gt;Node9 -->
<g id="edge9_Node000007_Node000009" class="edge">
<title>Node7&#45;&gt;Node9</title>
<g id="a_edge9_Node000007_Node000009"><a xlink:title=" ">
<path fill="none" stroke="#63b8ff" d="M82.12,-109.75C85.96,-102.49 91.52,-91.95 96.26,-82.98"/>
<polygon fill="#63b8ff" stroke="#63b8ff" points="99.39,-84.57 100.96,-74.09 93.2,-81.3 99.39,-84.57"/>
</a>
</g>
</g>
<!-- Node9&#45;&gt;Node5 -->
<g id="edge11_Node000009_Node000005" class="edge">
<title>Node9&#45;&gt;Node5</title>
<g id="a_edge11_Node000009_Node000005"><a xlink:title=" ">
<path fill="none" stroke="#63b8ff" d="M135.72,-56.85C138.69,-56.22 141.65,-55.59 144.5,-55 212.65,-40.87 292.6,-25.38 336.8,-16.92"/>
<polygon fill="#63b8ff" stroke="#63b8ff" points="337.55,-20.34 346.72,-15.02 336.24,-13.46 337.55,-20.34"/>
</a>
</g>
</g>
<!-- Node10 -->
<g id="Node000010" class="node">
<title>Node10</title>
<g id="a_Node000010"><a xlink:title=" ">
<polygon fill="#e0e0e0" stroke="#999999" points="135.5,-19 75.5,-19 75.5,0 135.5,0 135.5,-19"/>
<text text-anchor="middle" x="105.5" y="-7" font-family="Helvetica,sans-Serif" font-size="10.00">iostream</text>
</a>
</g>
</g>
<!-- Node9&#45;&gt;Node10 -->
<g id="edge10_Node000009_Node000010" class="edge">
<title>Node9&#45;&gt;Node10</title>
<g id="a_edge10_Node000009_Node000010"><a xlink:title=" ">
<path fill="none" stroke="#63b8ff" d="M105.5,-54.75C105.5,-47.8 105.5,-37.85 105.5,-29.13"/>
<polygon fill="#63b8ff" stroke="#63b8ff" points="109,-29.09 105.5,-19.09 102,-29.09 109,-29.09"/>
</a>
</g>
</g>
<!-- Node11 -->
<g id="Node000011" class="node">
<title>Node11</title>
<g id="a_Node000011"><a xlink:title=" ">
<polygon fill="#e0e0e0" stroke="#999999" points="719.5,-19 677.5,-19 677.5,0 719.5,0 719.5,-19"/>
<text text-anchor="middle" x="698.5" y="-7" font-family="Helvetica,sans-Serif" font-size="10.00">array</text>
</a>
</g>
</g>
<!-- Node9&#45;&gt;Node11 -->
<g id="edge12_Node000009_Node000011" class="edge">
<title>Node9&#45;&gt;Node11</title>
<g id="a_edge12_Node000009_Node000011"><a xlink:title=" ">
<path fill="none" stroke="#63b8ff" d="M135.66,-56.51C138.64,-55.94 141.62,-55.43 144.5,-55 342,-25.68 582.19,-14.68 667.01,-11.55"/>
<polygon fill="#63b8ff" stroke="#63b8ff" points="667.38,-15.04 677.25,-11.18 667.13,-8.04 667.38,-15.04"/>
</a>
</g>
</g>
<!-- Node12 -->
<g id="Node000012" class="node">
<title>Node12</title>
<g id="a_Node000012"><a xlink:title=" ">
<polygon fill="#e0e0e0" stroke="#999999" points="199,-19 154,-19 154,0 199,0 199,-19"/>
<text text-anchor="middle" x="176.5" y="-7" font-family="Helvetica,sans-Serif" font-size="10.00">utility</text>
</a>
</g>
</g>
<!-- Node9&#45;&gt;Node12 -->
<g id="edge13_Node000009_Node000012" class="edge">
<title>Node9&#45;&gt;Node12</title>
<g id="a_edge13_Node000009_Node000012"><a xlink:title=" ">
<path fill="none" stroke="#63b8ff" d="M116.91,-54.98C127.61,-47 143.84,-34.88 156.66,-25.31"/>
<polygon fill="#63b8ff" stroke="#63b8ff" points="158.97,-27.96 164.89,-19.17 154.78,-22.35 158.97,-27.96"/>
</a>
</g>
</g>
<!-- Node13 -->
<g id="Node000013" class="node">
<title>Node13</title>
<g id="a_Node000013"><a xlink:title=" ">
<polygon fill="#e0e0e0" stroke="#999999" points="57,-19 16,-19 16,0 57,0 57,-19"/>
<text text-anchor="middle" x="36.5" y="-7" font-family="Helvetica,sans-Serif" font-size="10.00">tuple</text>
</a>
</g>
</g>
<!-- Node9&#45;&gt;Node13 -->
<g id="edge14_Node000009_Node000013" class="edge">
<title>Node9&#45;&gt;Node13</title>
<g id="a_edge14_Node000009_Node000013"><a xlink:title=" ">
<path fill="none" stroke="#63b8ff" d="M94.41,-54.98C84.01,-47 68.24,-34.88 55.78,-25.31"/>
<polygon fill="#63b8ff" stroke="#63b8ff" points="57.85,-22.49 47.79,-19.17 53.59,-28.04 57.85,-22.49"/>
</a>
</g>
</g>
<!-- Node15 -->
<g id="Node000015" class="node">
<title>Node15</title>
<g id="a_Node000015"><a xlink:href="Vec__fwd_8hpp.html" target="_top" xlink:title="Declaration of Vec.">
<polygon fill="white" stroke="#666666" points="506,-184 429,-184 429,-165 506,-165 506,-184"/>
<text text-anchor="middle" x="467.5" y="-172" font-family="Helvetica,sans-Serif" font-size="10.00">Vec_fwd.hpp</text>
</a>
</g>
</g>
<!-- Node14&#45;&gt;Node15 -->
<g id="edge16_Node000014_Node000015" class="edge">
<title>Node14&#45;&gt;Node15</title>
<g id="a_edge16_Node000014_Node000015"><a xlink:title=" ">
<path fill="none" stroke="#63b8ff" d="M496.72,-219.75C491.88,-212.42 484.82,-201.73 478.86,-192.7"/>
<polygon fill="#63b8ff" stroke="#63b8ff" points="481.6,-190.5 473.17,-184.09 475.76,-194.36 481.6,-190.5"/>
</a>
</g>
</g>
<!-- Node15&#45;&gt;Node4 -->
<g id="edge17_Node000015_Node000004" class="edge">
<title>Node15&#45;&gt;Node4</title>
<g id="a_edge17_Node000015_Node000004"><a xlink:title=" ">
<path fill="none" stroke="#63b8ff" d="M460.23,-164.75C453.96,-157.18 444.71,-146.05 437.07,-136.84"/>
<polygon fill="#63b8ff" stroke="#63b8ff" points="439.71,-134.55 430.63,-129.09 434.33,-139.02 439.71,-134.55"/>
</a>
</g>
</g>
<!-- Node16 -->
<g id="Node000016" class="node">
<title>Node16</title>
<g id="a_Node000016"><a xlink:title=" ">
<polygon fill="#e0e0e0" stroke="#999999" points="670,-129 601,-129 601,-110 670,-110 670,-129"/>
<text text-anchor="middle" x="635.5" y="-117" font-family="Helvetica,sans-Serif" font-size="10.00">Eigen/Core</text>
</a>
</g>
</g>
<!-- Node15&#45;&gt;Node16 -->
<g id="edge18_Node000015_Node000016" class="edge">
<title>Node15&#45;&gt;Node16</title>
<g id="a_edge18_Node000015_Node000016"><a xlink:title=" ">
<path fill="none" stroke="#63b8ff" d="M494.49,-164.98C522.7,-156.09 567.14,-142.07 598.58,-132.15"/>
<polygon fill="#63b8ff" stroke="#63b8ff" points="599.81,-135.43 608.3,-129.08 597.71,-128.75 599.81,-135.43"/>
</a>
</g>
</g>
<!-- Node18 -->
<g id="Node000018" class="node">
<title>Node18</title>
<g id="a_Node000018"><a xlink:href="Range__fwd_8hpp.html" target="_top" xlink:title="Declaration of Range.">
<polygon fill="white" stroke="#666666" points="296,-184 205,-184 205,-165 296,-165 296,-184"/>
<text text-anchor="middle" x="250.5" y="-172" font-family="Helvetica,sans-Serif" font-size="10.00">Range_fwd.hpp</text>
</a>
</g>
</g>
<!-- Node17&#45;&gt;Node18 -->
<g id="edge20_Node000017_Node000018" class="edge">
<title>Node17&#45;&gt;Node18</title>
<g id="a_edge20_Node000017_Node000018"><a xlink:title=" ">
<path fill="none" stroke="#63b8ff" d="M221.28,-219.75C226.12,-212.42 233.18,-201.73 239.14,-192.7"/>
<polygon fill="#63b8ff" stroke="#63b8ff" points="242.24,-194.36 244.83,-184.09 236.4,-190.5 242.24,-194.36"/>
</a>
</g>
</g>
<!-- Node22 -->
<g id="Node000022" class="node">
<title>Node22</title>
<g id="a_Node000022"><a xlink:title=" ">
<polygon fill="#e0e0e0" stroke="#999999" points="186.5,-184 122.5,-184 122.5,-165 186.5,-165 186.5,-184"/>
<text text-anchor="middle" x="154.5" y="-172" font-family="Helvetica,sans-Serif" font-size="10.00">algorithm</text>
</a>
</g>
</g>
<!-- Node17&#45;&gt;Node22 -->
<g id="edge27_Node000017_Node000022" class="edge">
<title>Node17&#45;&gt;Node22</title>
<g id="a_edge27_Node000017_Node000022"><a xlink:title=" ">
<path fill="none" stroke="#63b8ff" d="M205.7,-219.98C196.68,-212.15 183.09,-200.34 172.18,-190.86"/>
<polygon fill="#63b8ff" stroke="#63b8ff" points="174.32,-188.09 164.48,-184.17 169.73,-193.37 174.32,-188.09"/>
</a>
</g>
</g>
<!-- Node18&#45;&gt;Node4 -->
<g id="edge21_Node000018_Node000004" class="edge">
<title>Node18&#45;&gt;Node4</title>
<g id="a_edge21_Node000018_Node000004"><a xlink:title=" ">
<path fill="none" stroke="#63b8ff" d="M278.3,-164.98C307.47,-156.05 353.5,-141.94 385.9,-132.02"/>
<polygon fill="#63b8ff" stroke="#63b8ff" points="386.95,-135.36 395.49,-129.08 384.9,-128.66 386.95,-135.36"/>
</a>
</g>
</g>
<!-- Node18&#45;&gt;Node5 -->
<g id="edge25_Node000018_Node000005" class="edge">
<title>Node18&#45;&gt;Node5</title>
<g id="a_edge25_Node000018_Node000005"><a xlink:title=" ">
<path fill="none" stroke="#63b8ff" d="M270.97,-164.9C286.63,-157.42 307.79,-145.22 321.5,-129 346.79,-99.06 360.47,-54.26 366.55,-29.2"/>
<polygon fill="#63b8ff" stroke="#63b8ff" points="370.02,-29.72 368.82,-19.2 363.19,-28.17 370.02,-29.72"/>
</a>
</g>
</g>
<!-- Node18&#45;&gt;Node7 -->
<g id="edge22_Node000018_Node000007" class="edge">
<title>Node18&#45;&gt;Node7</title>
<g id="a_edge22_Node000018_Node000007"><a xlink:title=" ">
<path fill="none" stroke="#63b8ff" d="M222.7,-164.98C193.53,-156.05 147.5,-141.94 115.1,-132.02"/>
<polygon fill="#63b8ff" stroke="#63b8ff" points="116.1,-128.66 105.51,-129.08 114.05,-135.36 116.1,-128.66"/>
</a>
</g>
</g>
<!-- Node19 -->
<g id="Node000019" class="node">
<title>Node19</title>
<g id="a_Node000019"><a xlink:href="traits_8hpp.html" target="_top" xlink:title="Type traits definition for vector and scalar fields.">
<polygon fill="white" stroke="#666666" points="236,-129 173,-129 173,-110 236,-110 236,-129"/>
<text text-anchor="middle" x="204.5" y="-117" font-family="Helvetica,sans-Serif" font-size="10.00">traits.hpp</text>
</a>
</g>
</g>
<!-- Node18&#45;&gt;Node19 -->
<g id="edge23_Node000018_Node000019" class="edge">
<title>Node18&#45;&gt;Node19</title>
<g id="a_edge23_Node000018_Node000019"><a xlink:title=" ">
<path fill="none" stroke="#63b8ff" d="M242.9,-164.75C236.34,-157.18 226.68,-146.05 218.69,-136.84"/>
<polygon fill="#63b8ff" stroke="#63b8ff" points="221.15,-134.35 211.95,-129.09 215.87,-138.94 221.15,-134.35"/>
</a>
</g>
</g>
<!-- Node20 -->
<g id="Node000020" class="node">
<title>Node20</title>
<g id="a_Node000020"><a xlink:title=" ">
<polygon fill="#e0e0e0" stroke="#999999" points="312.5,-129 254.5,-129 254.5,-110 312.5,-110 312.5,-129"/>
<text text-anchor="middle" x="283.5" y="-117" font-family="Helvetica,sans-Serif" font-size="10.00">memory</text>
</a>
</g>
</g>
<!-- Node18&#45;&gt;Node20 -->
<g id="edge24_Node000018_Node000020" class="edge">
<title>Node18&#45;&gt;Node20</title>
<g id="a_edge24_Node000018_Node000020"><a xlink:title=" ">
<path fill="none" stroke="#63b8ff" d="M255.95,-164.75C260.51,-157.42 267.17,-146.73 272.79,-137.7"/>
<polygon fill="#63b8ff" stroke="#63b8ff" points="275.84,-139.43 278.15,-129.09 269.9,-135.73 275.84,-139.43"/>
</a>
</g>
</g>
<!-- Node21 -->
<g id="Node000021" class="node">
<title>Node21</title>
<g id="a_Node000021"><a xlink:title=" ">
<polygon fill="#e0e0e0" stroke="#999999" points="544.5,-129 496.5,-129 496.5,-110 544.5,-110 544.5,-129"/>
<text text-anchor="middle" x="520.5" y="-117" font-family="Helvetica,sans-Serif" font-size="10.00">iosfwd</text>
</a>
</g>
</g>
<!-- Node18&#45;&gt;Node21 -->
<g id="edge26_Node000018_Node000021" class="edge">
<title>Node18&#45;&gt;Node21</title>
<g id="a_edge26_Node000018_Node000021"><a xlink:title=" ">
<path fill="none" stroke="#63b8ff" d="M296.12,-165.86C341.83,-158 414.41,-144.96 486.26,-129.15"/>
<polygon fill="#63b8ff" stroke="#63b8ff" points="487.39,-132.49 496.39,-126.91 485.87,-125.66 487.39,-132.49"/>
</a>
</g>
</g>
<!-- Node24&#45;&gt;Node4 -->
<g id="edge31_Node000024_Node000004" class="edge">
<title>Node24&#45;&gt;Node4</title>
<g id="a_edge31_Node000024_Node000004"><a xlink:title=" ">
<path fill="none" stroke="#63b8ff" d="M630.47,-219.84C591.04,-200.92 496.97,-155.77 450.47,-133.45"/>
<polygon fill="#63b8ff" stroke="#63b8ff" points="451.84,-130.22 441.31,-129.05 448.81,-136.53 451.84,-130.22"/>
</a>
</g>
</g>
<!-- Node24&#45;&gt;Node5 -->
<g id="edge33_Node000024_Node000005" class="edge">
<title>Node24&#45;&gt;Node5</title>
<g id="a_edge33_Node000024_Node000005"><a xlink:title=" ">
<path fill="none" stroke="#63b8ff" d="M643.25,-219.78C630.24,-198.73 594.56,-144.34 553.5,-110 506.14,-70.39 440.55,-39.35 402.11,-23.08"/>
<polygon fill="#63b8ff" stroke="#63b8ff" points="403.07,-19.68 392.49,-19.07 400.38,-26.15 403.07,-19.68"/>
</a>
</g>
</g>
<!-- Node24&#45;&gt;Node7 -->
<g id="edge41_Node000024_Node000007" class="edge">
<title>Node24&#45;&gt;Node7</title>
<g id="a_edge41_Node000024_Node000007"><a xlink:title=" ">
<path fill="none" stroke="#63b8ff" d="M603.22,-219.94C499.62,-200.34 245.63,-152.3 132.92,-130.98"/>
<polygon fill="#63b8ff" stroke="#63b8ff" points="133.26,-127.49 122.79,-129.07 131.96,-134.36 133.26,-127.49"/>
</a>
</g>
</g>
<!-- Node24&#45;&gt;Node11 -->
<g id="edge32_Node000024_Node000011" class="edge">
<title>Node24&#45;&gt;Node11</title>
<g id="a_edge32_Node000024_Node000011"><a xlink:title=" ">
<path fill="none" stroke="#63b8ff" d="M702.63,-220.71C724.71,-214.57 748.15,-203.61 761.5,-184 796.6,-132.45 741.93,-59.01 713.69,-26.75"/>
<polygon fill="#63b8ff" stroke="#63b8ff" points="716.12,-24.23 706.83,-19.14 710.92,-28.91 716.12,-24.23"/>
</a>
</g>
</g>
<!-- Node24&#45;&gt;Node16 -->
<g id="edge34_Node000024_Node000016" class="edge">
<title>Node24&#45;&gt;Node16</title>
<g id="a_edge34_Node000024_Node000016"><a xlink:title=" ">
<path fill="none" stroke="#63b8ff" d="M643.62,-219.98C638.94,-211.26 632.19,-197.17 629.5,-184 626.44,-169.06 628.41,-151.83 630.88,-139.09"/>
<polygon fill="#63b8ff" stroke="#63b8ff" points="634.32,-139.73 633.07,-129.21 627.49,-138.22 634.32,-139.73"/>
</a>
</g>
</g>
<!-- Node25 -->
<g id="Node000025" class="node">
<title>Node25</title>
<g id="a_Node000025"><a xlink:href="Monomials__fwd_8hpp.html" target="_top" xlink:title="Declaration of Monomial basis.">
<polygon fill="white" stroke="#666666" points="752.5,-184 638.5,-184 638.5,-165 752.5,-165 752.5,-184"/>
<text text-anchor="middle" x="695.5" y="-172" font-family="Helvetica,sans-Serif" font-size="10.00">Monomials_fwd.hpp</text>
</a>
</g>
</g>
<!-- Node24&#45;&gt;Node25 -->
<g id="edge35_Node000024_Node000025" class="edge">
<title>Node24&#45;&gt;Node25</title>
<g id="a_edge35_Node000024_Node000025"><a xlink:title=" ">
<path fill="none" stroke="#63b8ff" d="M656.26,-219.75C662.97,-212.18 672.84,-201.05 681.01,-191.84"/>
<polygon fill="#63b8ff" stroke="#63b8ff" points="683.87,-193.89 687.88,-184.09 678.63,-189.25 683.87,-193.89"/>
</a>
</g>
</g>
<!-- Node25&#45;&gt;Node4 -->
<g id="edge36_Node000025_Node000004" class="edge">
<title>Node25&#45;&gt;Node4</title>
<g id="a_edge36_Node000025_Node000004"><a xlink:title=" ">
<path fill="none" stroke="#63b8ff" d="M651.8,-164.98C604.35,-155.74 528.53,-140.97 477.42,-131.01"/>
<polygon fill="#63b8ff" stroke="#63b8ff" points="478.03,-127.56 467.54,-129.08 476.69,-134.43 478.03,-127.56"/>
</a>
</g>
</g>
<!-- Node25&#45;&gt;Node11 -->
<g id="edge38_Node000025_Node000011" class="edge">
<title>Node25&#45;&gt;Node11</title>
<g id="a_edge38_Node000025_Node000011"><a xlink:title=" ">
<path fill="none" stroke="#63b8ff" d="M695.66,-164.74C696.13,-139.31 697.5,-65.08 698.15,-29.69"/>
<polygon fill="#63b8ff" stroke="#63b8ff" points="701.65,-29.37 698.34,-19.31 694.65,-29.24 701.65,-29.37"/>
</a>
</g>
</g>
<!-- Node25&#45;&gt;Node16 -->
<g id="edge39_Node000025_Node000016" class="edge">
<title>Node25&#45;&gt;Node16</title>
<g id="a_edge39_Node000025_Node000016"><a xlink:title=" ">
<path fill="none" stroke="#63b8ff" d="M685.86,-164.98C676.99,-157.15 663.63,-145.34 652.89,-135.86"/>
<polygon fill="#63b8ff" stroke="#63b8ff" points="655.13,-133.17 645.32,-129.17 650.49,-138.41 655.13,-133.17"/>
</a>
</g>
</g>
<!-- Node25&#45;&gt;Node21 -->
<g id="edge40_Node000025_Node000021" class="edge">
<title>Node25&#45;&gt;Node21</title>
<g id="a_edge40_Node000025_Node000021"><a xlink:title=" ">
<path fill="none" stroke="#63b8ff" d="M667.38,-164.98C636.56,-155.65 587.13,-140.68 554.24,-130.72"/>
<polygon fill="#63b8ff" stroke="#63b8ff" points="555.19,-127.35 544.6,-127.8 553.16,-134.05 555.19,-127.35"/>
</a>
</g>
</g>
<!-- Node25&#45;&gt;Node23 -->
<g id="edge37_Node000025_Node000023" class="edge">
<title>Node25&#45;&gt;Node23</title>
<g id="a_edge37_Node000025_Node000023"><a xlink:title=" ">
<path fill="none" stroke="#63b8ff" d="M717.51,-164.98C739.95,-156.3 774.98,-142.75 800.49,-132.88"/>
<polygon fill="#63b8ff" stroke="#63b8ff" points="802.02,-136.04 810.09,-129.17 799.5,-129.51 802.02,-136.04"/>
</a>
</g>
</g>
</g>
</svg>

<g id="navigator" transform="translate(0 0)" fill="#404254">
  <rect fill="#f2f5e9" fill-opacity="0.5" stroke="#606060" stroke-width=".5" x="0" y="0" width="60" height="60"/>
  <use id="zoomplus" xlink:href="#zoomPlus" x="17" y="9" onmousedown="handleZoom(evt,'in')"/>
  <use id="zoomminus" xlink:href="#zoomMin" x="42" y="9" onmousedown="handleZoom(evt,'out')"/>
  <use id="reset" xlink:href="#resetDef" x="30" y="36" onmousedown="handleReset()"/>
   <use id="arrowup" xlink:href="#arrowUp" x="0" y="0" onmousedown="handlePan(0,-1)"/>
  <use id="arrowright" xlink:href="#arrowRight" x="0" y="0" onmousedown="handlePan(1,0)"/>
  <use id="arrowdown" xlink:href="#arrowDown" x="0" y="0" onmousedown="handlePan(0,1)"/>
  <use id="arrowleft" xlink:href="#arrowLeft" x="0" y="0" onmousedown="handlePan(-1,0)"/>
</g>
<svg viewBox="0 0 15 15" width="100%" height="30px" preserveAspectRatio="xMaxYMin meet">
 <g id="arrow_out" transform="scale(0.3 0.3)">
  <a xlink:href="Polyharmonic_8cpp__incl_org.svg" target="_base">
   <rect id="button" ry="5" rx="5" y="6" x="6" height="38" width="38"
        fill="#f2f5e9" fill-opacity="0.5" stroke="#606060" stroke-width="1.0"/>
   <path id="arrow"
     d="M 11.500037,31.436501 C 11.940474,20.09759 22.043105,11.32322 32.158766,21.979434 L 37.068811,17.246167 C 37.068811,17.246167 37.088388,32 37.088388,32 L 22.160133,31.978069 C 22.160133,31.978069 26.997745,27.140456 26.997745,27.140456 C 18.528582,18.264221 13.291696,25.230495 11.500037,31.436501 z"
     style="fill:#404040;"/>
  </a>
 </g>
</svg>

<style type='text/css'>
<![CDATA[
[data-mouse-over-selected='false'] { opacity: 0.7; }
[data-mouse-over-selected='true']  { opacity: 1.0; }
]]>
</style>
<script type="application/ecmascript"><![CDATA[
document.addEventListener('DOMContentLoaded', (event) => {
  highlightEdges();
  highlightAdjacentNodes();
});
]]></script>
</svg>
