<?xml version="1.0" encoding="UTF-8" standalone="no"?>
<!DOCTYPE svg PUBLIC "-//W3C//DTD SVG 1.1//EN"
 "http://www.w3.org/Graphics/SVG/1.1/DTD/svg11.dtd">
<!-- Generated by graphviz version 2.43.0 (0)
 -->
<!-- Title: include/medusa/bits/approximations/Polyharmonic_fwd.hpp Pages: 1 -->
<svg width="865pt" height="379pt"
 viewBox="0.00 0.00 865.00 379.00" xmlns="http://www.w3.org/2000/svg" xmlns:xlink="http://www.w3.org/1999/xlink">
<g id="graph0" class="graph" transform="scale(1 1) rotate(0) translate(4 375)">
<title>include/medusa/bits/approximations/Polyharmonic_fwd.hpp</title>
<!-- Node1 -->
<g id="Node000001" class="node">
<title>Node1</title>
<g id="a_Node000001"><a xlink:title="Declaration of Polyharmonic RBF.">
<polygon fill="#999999" stroke="#666666" points="654.5,-371 488.5,-371 488.5,-330 654.5,-330 654.5,-371"/>
<text text-anchor="start" x="496.5" y="-359" font-family="Helvetica,sans-Serif" font-size="10.00">include/medusa/bits</text>
<text text-anchor="start" x="496.5" y="-348" font-family="Helvetica,sans-Serif" font-size="10.00">/approximations/Polyharmonic</text>
<text text-anchor="middle" x="571.5" y="-337" font-family="Helvetica,sans-Serif" font-size="10.00">_fwd.hpp</text>
</a>
</g>
</g>
<!-- Node2 -->
<g id="Node000002" class="node">
<title>Node2</title>
<g id="a_Node000002"><a xlink:href="Config_8hpp.html" target="_top" xlink:title="Contains compile time settings for the project, such as Eigen plugins.">
<polygon fill="white" stroke="#666666" points="545.5,-129 435.5,-129 435.5,-110 545.5,-110 545.5,-129"/>
<text text-anchor="middle" x="490.5" y="-117" font-family="Helvetica,sans-Serif" font-size="10.00">medusa/Config.hpp</text>
</a>
</g>
</g>
<!-- Node1&#45;&gt;Node2 -->
<g id="edge1_Node000001_Node000002" class="edge">
<title>Node1&#45;&gt;Node2</title>
<g id="a_edge1_Node000001_Node000002"><a xlink:title=" ">
<path fill="none" stroke="#63b8ff" d="M488.16,-345.07C452.43,-338.53 413.83,-324.26 391.5,-294 371.61,-267.05 320.39,-291.99 410.5,-165 420.86,-150.4 437.59,-140.04 453.07,-133"/>
<polygon fill="#63b8ff" stroke="#63b8ff" points="454.63,-136.15 462.49,-129.05 451.91,-129.69 454.63,-136.15"/>
</a>
</g>
</g>
<!-- Node4 -->
<g id="Node000004" class="node">
<title>Node4</title>
<g id="a_Node000004"><a xlink:href="numutils_8hpp.html" target="_top" xlink:title="Declaration of numerical utilities.">
<polygon fill="white" stroke="#666666" points="568,-294 401,-294 401,-275 568,-275 568,-294"/>
<text text-anchor="middle" x="484.5" y="-282" font-family="Helvetica,sans-Serif" font-size="10.00">medusa/bits/utils/numutils.hpp</text>
</a>
</g>
</g>
<!-- Node1&#45;&gt;Node4 -->
<g id="edge3_Node000001_Node000004" class="edge">
<title>Node1&#45;&gt;Node4</title>
<g id="a_edge3_Node000001_Node000004"><a xlink:title=" ">
<path fill="none" stroke="#63b8ff" d="M544.92,-329.95C532.02,-320.46 516.77,-309.24 504.81,-300.44"/>
<polygon fill="#63b8ff" stroke="#63b8ff" points="506.54,-297.37 496.41,-294.26 502.39,-303.01 506.54,-297.37"/>
</a>
</g>
</g>
<!-- Node21 -->
<g id="Node000021" class="node">
<title>Node21</title>
<g id="a_Node000021"><a xlink:title=" ">
<polygon fill="#e0e0e0" stroke="#999999" points="857,-129 810,-129 810,-110 857,-110 857,-129"/>
<text text-anchor="middle" x="833.5" y="-117" font-family="Helvetica,sans-Serif" font-size="10.00">cmath</text>
</a>
</g>
</g>
<!-- Node1&#45;&gt;Node21 -->
<g id="edge27_Node000001_Node000021" class="edge">
<title>Node1&#45;&gt;Node21</title>
<g id="a_edge27_Node000001_Node000021"><a xlink:title=" ">
<path fill="none" stroke="#63b8ff" d="M621.51,-329.93C678.41,-304.95 769.61,-256.16 817.5,-184 826.44,-170.53 830.38,-152.44 832.13,-139.01"/>
<polygon fill="#63b8ff" stroke="#63b8ff" points="835.61,-139.33 833.13,-129.03 828.65,-138.63 835.61,-139.33"/>
</a>
</g>
</g>
<!-- Node22 -->
<g id="Node000022" class="node">
<title>Node22</title>
<g id="a_Node000022"><a xlink:href="Operators__fwd_8hpp.html" target="_top" xlink:title="File defining basic differential operator families.">
<polygon fill="white" stroke="#666666" points="699.5,-239 591.5,-239 591.5,-220 699.5,-220 699.5,-239"/>
<text text-anchor="middle" x="645.5" y="-227" font-family="Helvetica,sans-Serif" font-size="10.00">Operators_fwd.hpp</text>
</a>
</g>
</g>
<!-- Node1&#45;&gt;Node22 -->
<g id="edge28_Node000001_Node000022" class="edge">
<title>Node1&#45;&gt;Node22</title>
<g id="a_edge28_Node000001_Node000022"><a xlink:title=" ">
<path fill="none" stroke="#63b8ff" d="M583.72,-329.85C597.95,-306.96 621.24,-269.52 634.79,-247.72"/>
<polygon fill="#63b8ff" stroke="#63b8ff" points="637.8,-249.52 640.11,-239.18 631.85,-245.82 637.8,-249.52"/>
</a>
</g>
</g>
<!-- Node3 -->
<g id="Node000003" class="node">
<title>Node3</title>
<g id="a_Node000003"><a xlink:title=" ">
<polygon fill="#e0e0e0" stroke="#999999" points="412,-19 365,-19 365,0 412,0 412,-19"/>
<text text-anchor="middle" x="388.5" y="-7" font-family="Helvetica,sans-Serif" font-size="10.00">vector</text>
</a>
</g>
</g>
<!-- Node2&#45;&gt;Node3 -->
<g id="edge2_Node000002_Node000003" class="edge">
<title>Node2&#45;&gt;Node3</title>
<g id="a_edge2_Node000002_Node000003"><a xlink:title=" ">
<path fill="none" stroke="#63b8ff" d="M482.15,-109.66C464.96,-91.46 425.38,-49.55 403.58,-26.47"/>
<polygon fill="#63b8ff" stroke="#63b8ff" points="406.09,-24.03 396.68,-19.16 401,-28.83 406.09,-24.03"/>
</a>
</g>
</g>
<!-- Node4&#45;&gt;Node2 -->
<g id="edge4_Node000004_Node000002" class="edge">
<title>Node4&#45;&gt;Node2</title>
<g id="a_edge4_Node000004_Node000002"><a xlink:title=" ">
<path fill="none" stroke="#63b8ff" d="M460.72,-274.92C445.07,-267.89 425.83,-256.25 416.5,-239 412.48,-231.57 416.19,-228.44 416.5,-220 417.39,-195.51 407.93,-186.04 420.5,-165 428.84,-151.04 443.45,-140.73 457.17,-133.58"/>
<polygon fill="#63b8ff" stroke="#63b8ff" points="458.94,-136.61 466.43,-129.12 455.91,-130.3 458.94,-136.61"/>
</a>
</g>
</g>
<!-- Node5 -->
<g id="Node000005" class="node">
<title>Node5</title>
<g id="a_Node000005"><a xlink:href="assert_8hpp.html" target="_top" xlink:title="Implementation of custom assert and debug utilities.">
<polygon fill="white" stroke="#666666" points="155,-129 0,-129 0,-110 155,-110 155,-129"/>
<text text-anchor="middle" x="77.5" y="-117" font-family="Helvetica,sans-Serif" font-size="10.00">medusa/bits/utils/assert.hpp</text>
</a>
</g>
</g>
<!-- Node4&#45;&gt;Node5 -->
<g id="edge5_Node000004_Node000005" class="edge">
<title>Node4&#45;&gt;Node5</title>
<g id="a_edge5_Node000004_Node000005"><a xlink:title=" ">
<path fill="none" stroke="#63b8ff" d="M400.93,-278.33C319.18,-272.15 201.21,-259.93 160.5,-239 119.68,-218.01 94.84,-166.6 83.97,-138.9"/>
<polygon fill="#63b8ff" stroke="#63b8ff" points="87.15,-137.4 80.38,-129.25 80.59,-139.84 87.15,-137.4"/>
</a>
</g>
</g>
<!-- Node12 -->
<g id="Node000012" class="node">
<title>Node12</title>
<g id="a_Node000012"><a xlink:href="Vec_8hpp.html" target="_top" xlink:title="Implemetations for Vec.">
<polygon fill="white" stroke="#666666" points="573.5,-239 425.5,-239 425.5,-220 573.5,-220 573.5,-239"/>
<text text-anchor="middle" x="499.5" y="-227" font-family="Helvetica,sans-Serif" font-size="10.00">medusa/bits/types/Vec.hpp</text>
</a>
</g>
</g>
<!-- Node4&#45;&gt;Node12 -->
<g id="edge13_Node000004_Node000012" class="edge">
<title>Node4&#45;&gt;Node12</title>
<g id="a_edge13_Node000004_Node000012"><a xlink:title=" ">
<path fill="none" stroke="#63b8ff" d="M486.98,-274.75C488.96,-267.72 491.82,-257.62 494.31,-248.84"/>
<polygon fill="#63b8ff" stroke="#63b8ff" points="497.71,-249.66 497.07,-239.09 490.98,-247.76 497.71,-249.66"/>
</a>
</g>
</g>
<!-- Node15 -->
<g id="Node000015" class="node">
<title>Node15</title>
<g id="a_Node000015"><a xlink:href="Range_8hpp.html" target="_top" xlink:title="Implementation of Range.">
<polygon fill="white" stroke="#666666" points="331,-239 170,-239 170,-220 331,-220 331,-239"/>
<text text-anchor="middle" x="250.5" y="-227" font-family="Helvetica,sans-Serif" font-size="10.00">medusa/bits/types/Range.hpp</text>
</a>
</g>
</g>
<!-- Node4&#45;&gt;Node15 -->
<g id="edge17_Node000004_Node000015" class="edge">
<title>Node4&#45;&gt;Node15</title>
<g id="a_edge17_Node000004_Node000015"><a xlink:title=" ">
<path fill="none" stroke="#63b8ff" d="M446.9,-274.98C406.51,-265.84 342.22,-251.27 298.27,-241.32"/>
<polygon fill="#63b8ff" stroke="#63b8ff" points="298.92,-237.88 288.39,-239.08 297.37,-244.7 298.92,-237.88"/>
</a>
</g>
</g>
<!-- Node4&#45;&gt;Node21 -->
<g id="edge26_Node000004_Node000021" class="edge">
<title>Node4&#45;&gt;Node21</title>
<g id="a_edge26_Node000004_Node000021"><a xlink:title=" ">
<path fill="none" stroke="#63b8ff" d="M563.76,-274.98C607.55,-268.51 662.29,-257.45 708.5,-239 750.98,-222.04 763.55,-216.74 795.5,-184 808.51,-170.66 818.98,-152.06 825.61,-138.43"/>
<polygon fill="#63b8ff" stroke="#63b8ff" points="828.88,-139.7 829.9,-129.16 822.52,-136.76 828.88,-139.7"/>
</a>
</g>
</g>
<!-- Node6 -->
<g id="Node000006" class="node">
<title>Node6</title>
<g id="a_Node000006"><a xlink:title=" ">
<polygon fill="#e0e0e0" stroke="#999999" points="285.5,-74 153.5,-74 153.5,-55 285.5,-55 285.5,-74"/>
<text text-anchor="middle" x="219.5" y="-62" font-family="Helvetica,sans-Serif" font-size="10.00">tinyformat/tinyformat.h</text>
</a>
</g>
</g>
<!-- Node5&#45;&gt;Node6 -->
<g id="edge6_Node000005_Node000006" class="edge">
<title>Node5&#45;&gt;Node6</title>
<g id="a_edge6_Node000005_Node000006"><a xlink:title=" ">
<path fill="none" stroke="#63b8ff" d="M100.31,-109.98C123.67,-101.27 160.2,-87.63 186.67,-77.75"/>
<polygon fill="#63b8ff" stroke="#63b8ff" points="188.13,-80.95 196.27,-74.17 185.68,-74.39 188.13,-80.95"/>
</a>
</g>
</g>
<!-- Node7 -->
<g id="Node000007" class="node">
<title>Node7</title>
<g id="a_Node000007"><a xlink:href="print_8hpp.html" target="_top" xlink:title="Printing helpers for std types.">
<polygon fill="white" stroke="#666666" points="135.5,-74 75.5,-74 75.5,-55 135.5,-55 135.5,-74"/>
<text text-anchor="middle" x="105.5" y="-62" font-family="Helvetica,sans-Serif" font-size="10.00">print.hpp</text>
</a>
</g>
</g>
<!-- Node5&#45;&gt;Node7 -->
<g id="edge7_Node000005_Node000007" class="edge">
<title>Node5&#45;&gt;Node7</title>
<g id="a_edge7_Node000005_Node000007"><a xlink:title=" ">
<path fill="none" stroke="#63b8ff" d="M82.12,-109.75C85.96,-102.49 91.52,-91.95 96.26,-82.98"/>
<polygon fill="#63b8ff" stroke="#63b8ff" points="99.39,-84.57 100.96,-74.09 93.2,-81.3 99.39,-84.57"/>
</a>
</g>
</g>
<!-- Node7&#45;&gt;Node3 -->
<g id="edge9_Node000007_Node000003" class="edge">
<title>Node7&#45;&gt;Node3</title>
<g id="a_edge9_Node000007_Node000003"><a xlink:title=" ">
<path fill="none" stroke="#63b8ff" d="M135.71,-56.81C138.68,-56.18 141.65,-55.57 144.5,-55 219.48,-40 307.83,-24.4 354.94,-16.25"/>
<polygon fill="#63b8ff" stroke="#63b8ff" points="355.64,-19.68 364.89,-14.53 354.44,-12.78 355.64,-19.68"/>
</a>
</g>
</g>
<!-- Node8 -->
<g id="Node000008" class="node">
<title>Node8</title>
<g id="a_Node000008"><a xlink:title=" ">
<polygon fill="#e0e0e0" stroke="#999999" points="204.5,-19 144.5,-19 144.5,0 204.5,0 204.5,-19"/>
<text text-anchor="middle" x="174.5" y="-7" font-family="Helvetica,sans-Serif" font-size="10.00">iostream</text>
</a>
</g>
</g>
<!-- Node7&#45;&gt;Node8 -->
<g id="edge8_Node000007_Node000008" class="edge">
<title>Node7&#45;&gt;Node8</title>
<g id="a_edge8_Node000007_Node000008"><a xlink:title=" ">
<path fill="none" stroke="#63b8ff" d="M116.59,-54.98C126.99,-47 142.76,-34.88 155.22,-25.31"/>
<polygon fill="#63b8ff" stroke="#63b8ff" points="157.41,-28.04 163.21,-19.17 153.15,-22.49 157.41,-28.04"/>
</a>
</g>
</g>
<!-- Node9 -->
<g id="Node000009" class="node">
<title>Node9</title>
<g id="a_Node000009"><a xlink:title=" ">
<polygon fill="#e0e0e0" stroke="#999999" points="720.5,-19 678.5,-19 678.5,0 720.5,0 720.5,-19"/>
<text text-anchor="middle" x="699.5" y="-7" font-family="Helvetica,sans-Serif" font-size="10.00">array</text>
</a>
</g>
</g>
<!-- Node7&#45;&gt;Node9 -->
<g id="edge10_Node000007_Node000009" class="edge">
<title>Node7&#45;&gt;Node9</title>
<g id="a_edge10_Node000007_Node000009"><a xlink:title=" ">
<path fill="none" stroke="#63b8ff" d="M135.66,-56.51C138.64,-55.94 141.62,-55.43 144.5,-55 342.59,-25.61 583.53,-14.64 668.25,-11.53"/>
<polygon fill="#63b8ff" stroke="#63b8ff" points="668.6,-15.02 678.47,-11.17 668.35,-8.03 668.6,-15.02"/>
</a>
</g>
</g>
<!-- Node10 -->
<g id="Node000010" class="node">
<title>Node10</title>
<g id="a_Node000010"><a xlink:title=" ">
<polygon fill="#e0e0e0" stroke="#999999" points="67,-19 22,-19 22,0 67,0 67,-19"/>
<text text-anchor="middle" x="44.5" y="-7" font-family="Helvetica,sans-Serif" font-size="10.00">utility</text>
</a>
</g>
</g>
<!-- Node7&#45;&gt;Node10 -->
<g id="edge11_Node000007_Node000010" class="edge">
<title>Node7&#45;&gt;Node10</title>
<g id="a_edge11_Node000007_Node000010"><a xlink:title=" ">
<path fill="none" stroke="#63b8ff" d="M95.7,-54.98C86.68,-47.15 73.09,-35.34 62.18,-25.86"/>
<polygon fill="#63b8ff" stroke="#63b8ff" points="64.32,-23.09 54.48,-19.17 59.73,-28.37 64.32,-23.09"/>
</a>
</g>
</g>
<!-- Node11 -->
<g id="Node000011" class="node">
<title>Node11</title>
<g id="a_Node000011"><a xlink:title=" ">
<polygon fill="#e0e0e0" stroke="#999999" points="126,-19 85,-19 85,0 126,0 126,-19"/>
<text text-anchor="middle" x="105.5" y="-7" font-family="Helvetica,sans-Serif" font-size="10.00">tuple</text>
</a>
</g>
</g>
<!-- Node7&#45;&gt;Node11 -->
<g id="edge12_Node000007_Node000011" class="edge">
<title>Node7&#45;&gt;Node11</title>
<g id="a_edge12_Node000007_Node000011"><a xlink:title=" ">
<path fill="none" stroke="#63b8ff" d="M105.5,-54.75C105.5,-47.8 105.5,-37.85 105.5,-29.13"/>
<polygon fill="#63b8ff" stroke="#63b8ff" points="109,-29.09 105.5,-19.09 102,-29.09 109,-29.09"/>
</a>
</g>
</g>
<!-- Node13 -->
<g id="Node000013" class="node">
<title>Node13</title>
<g id="a_Node000013"><a xlink:href="Vec__fwd_8hpp.html" target="_top" xlink:title="Declaration of Vec.">
<polygon fill="white" stroke="#666666" points="507,-184 430,-184 430,-165 507,-165 507,-184"/>
<text text-anchor="middle" x="468.5" y="-172" font-family="Helvetica,sans-Serif" font-size="10.00">Vec_fwd.hpp</text>
</a>
</g>
</g>
<!-- Node12&#45;&gt;Node13 -->
<g id="edge14_Node000012_Node000013" class="edge">
<title>Node12&#45;&gt;Node13</title>
<g id="a_edge14_Node000012_Node000013"><a xlink:title=" ">
<path fill="none" stroke="#63b8ff" d="M494.38,-219.75C490.14,-212.49 483.97,-201.95 478.72,-192.98"/>
<polygon fill="#63b8ff" stroke="#63b8ff" points="481.59,-190.95 473.52,-184.09 475.55,-194.49 481.59,-190.95"/>
</a>
</g>
</g>
<!-- Node13&#45;&gt;Node2 -->
<g id="edge15_Node000013_Node000002" class="edge">
<title>Node13&#45;&gt;Node2</title>
<g id="a_edge15_Node000013_Node000002"><a xlink:title=" ">
<path fill="none" stroke="#63b8ff" d="M472.13,-164.75C475.08,-157.65 479.33,-147.4 483.01,-138.56"/>
<polygon fill="#63b8ff" stroke="#63b8ff" points="486.33,-139.67 486.93,-129.09 479.87,-136.98 486.33,-139.67"/>
</a>
</g>
</g>
<!-- Node14 -->
<g id="Node000014" class="node">
<title>Node14</title>
<g id="a_Node000014"><a xlink:title=" ">
<polygon fill="#e0e0e0" stroke="#999999" points="671,-129 602,-129 602,-110 671,-110 671,-129"/>
<text text-anchor="middle" x="636.5" y="-117" font-family="Helvetica,sans-Serif" font-size="10.00">Eigen/Core</text>
</a>
</g>
</g>
<!-- Node13&#45;&gt;Node14 -->
<g id="edge16_Node000013_Node000014" class="edge">
<title>Node13&#45;&gt;Node14</title>
<g id="a_edge16_Node000013_Node000014"><a xlink:title=" ">
<path fill="none" stroke="#63b8ff" d="M495.49,-164.98C523.7,-156.09 568.14,-142.07 599.58,-132.15"/>
<polygon fill="#63b8ff" stroke="#63b8ff" points="600.81,-135.43 609.3,-129.08 598.71,-128.75 600.81,-135.43"/>
</a>
</g>
</g>
<!-- Node16 -->
<g id="Node000016" class="node">
<title>Node16</title>
<g id="a_Node000016"><a xlink:href="Range__fwd_8hpp.html" target="_top" xlink:title="Declaration of Range.">
<polygon fill="white" stroke="#666666" points="329,-184 238,-184 238,-165 329,-165 329,-184"/>
<text text-anchor="middle" x="283.5" y="-172" font-family="Helvetica,sans-Serif" font-size="10.00">Range_fwd.hpp</text>
</a>
</g>
</g>
<!-- Node15&#45;&gt;Node16 -->
<g id="edge18_Node000015_Node000016" class="edge">
<title>Node15&#45;&gt;Node16</title>
<g id="a_edge18_Node000015_Node000016"><a xlink:title=" ">
<path fill="none" stroke="#63b8ff" d="M255.95,-219.75C260.51,-212.42 267.17,-201.73 272.79,-192.7"/>
<polygon fill="#63b8ff" stroke="#63b8ff" points="275.84,-194.43 278.15,-184.09 269.9,-190.73 275.84,-194.43"/>
</a>
</g>
</g>
<!-- Node20 -->
<g id="Node000020" class="node">
<title>Node20</title>
<g id="a_Node000020"><a xlink:title=" ">
<polygon fill="#e0e0e0" stroke="#999999" points="181.5,-184 117.5,-184 117.5,-165 181.5,-165 181.5,-184"/>
<text text-anchor="middle" x="149.5" y="-172" font-family="Helvetica,sans-Serif" font-size="10.00">algorithm</text>
</a>
</g>
</g>
<!-- Node15&#45;&gt;Node20 -->
<g id="edge25_Node000015_Node000020" class="edge">
<title>Node15&#45;&gt;Node20</title>
<g id="a_edge25_Node000015_Node000020"><a xlink:title=" ">
<path fill="none" stroke="#63b8ff" d="M234.27,-219.98C218.32,-211.61 193.72,-198.7 175.12,-188.95"/>
<polygon fill="#63b8ff" stroke="#63b8ff" points="176.5,-185.72 166.02,-184.17 173.25,-191.92 176.5,-185.72"/>
</a>
</g>
</g>
<!-- Node16&#45;&gt;Node2 -->
<g id="edge19_Node000016_Node000002" class="edge">
<title>Node16&#45;&gt;Node2</title>
<g id="a_edge19_Node000016_Node000002"><a xlink:title=" ">
<path fill="none" stroke="#63b8ff" d="M316.76,-164.98C352.11,-155.93 408.17,-141.58 447.01,-131.64"/>
<polygon fill="#63b8ff" stroke="#63b8ff" points="448.16,-134.95 456.98,-129.08 446.43,-128.17 448.16,-134.95"/>
</a>
</g>
</g>
<!-- Node16&#45;&gt;Node3 -->
<g id="edge23_Node000016_Node000003" class="edge">
<title>Node16&#45;&gt;Node3</title>
<g id="a_edge23_Node000016_Node000003"><a xlink:title=" ">
<path fill="none" stroke="#63b8ff" d="M291.9,-164.71C299.98,-156.02 312.3,-142.15 321.5,-129 345.23,-95.1 367.84,-52.14 379.76,-28.37"/>
<polygon fill="#63b8ff" stroke="#63b8ff" points="383.02,-29.68 384.32,-19.17 376.75,-26.58 383.02,-29.68"/>
</a>
</g>
</g>
<!-- Node16&#45;&gt;Node5 -->
<g id="edge20_Node000016_Node000005" class="edge">
<title>Node16&#45;&gt;Node5</title>
<g id="a_edge20_Node000016_Node000005"><a xlink:title=" ">
<path fill="none" stroke="#63b8ff" d="M250.4,-164.98C215.22,-155.93 159.43,-141.58 120.78,-131.64"/>
<polygon fill="#63b8ff" stroke="#63b8ff" points="121.41,-128.18 110.86,-129.08 119.67,-134.96 121.41,-128.18"/>
</a>
</g>
</g>
<!-- Node17 -->
<g id="Node000017" class="node">
<title>Node17</title>
<g id="a_Node000017"><a xlink:href="traits_8hpp.html" target="_top" xlink:title="Type traits definition for vector and scalar fields.">
<polygon fill="white" stroke="#666666" points="313,-129 250,-129 250,-110 313,-110 313,-129"/>
<text text-anchor="middle" x="281.5" y="-117" font-family="Helvetica,sans-Serif" font-size="10.00">traits.hpp</text>
</a>
</g>
</g>
<!-- Node16&#45;&gt;Node17 -->
<g id="edge21_Node000016_Node000017" class="edge">
<title>Node16&#45;&gt;Node17</title>
<g id="a_edge21_Node000016_Node000017"><a xlink:title=" ">
<path fill="none" stroke="#63b8ff" d="M283.17,-164.75C282.91,-157.8 282.53,-147.85 282.2,-139.13"/>
<polygon fill="#63b8ff" stroke="#63b8ff" points="285.7,-138.95 281.82,-129.09 278.7,-139.21 285.7,-138.95"/>
</a>
</g>
</g>
<!-- Node18 -->
<g id="Node000018" class="node">
<title>Node18</title>
<g id="a_Node000018"><a xlink:title=" ">
<polygon fill="#e0e0e0" stroke="#999999" points="231.5,-129 173.5,-129 173.5,-110 231.5,-110 231.5,-129"/>
<text text-anchor="middle" x="202.5" y="-117" font-family="Helvetica,sans-Serif" font-size="10.00">memory</text>
</a>
</g>
</g>
<!-- Node16&#45;&gt;Node18 -->
<g id="edge22_Node000016_Node000018" class="edge">
<title>Node16&#45;&gt;Node18</title>
<g id="a_edge22_Node000016_Node000018"><a xlink:title=" ">
<path fill="none" stroke="#63b8ff" d="M270.49,-164.98C258.04,-156.84 239.04,-144.41 224.29,-134.76"/>
<polygon fill="#63b8ff" stroke="#63b8ff" points="226.04,-131.72 215.75,-129.17 222.2,-137.57 226.04,-131.72"/>
</a>
</g>
</g>
<!-- Node19 -->
<g id="Node000019" class="node">
<title>Node19</title>
<g id="a_Node000019"><a xlink:title=" ">
<polygon fill="#e0e0e0" stroke="#999999" points="417.5,-129 369.5,-129 369.5,-110 417.5,-110 417.5,-129"/>
<text text-anchor="middle" x="393.5" y="-117" font-family="Helvetica,sans-Serif" font-size="10.00">iosfwd</text>
</a>
</g>
</g>
<!-- Node16&#45;&gt;Node19 -->
<g id="edge24_Node000016_Node000019" class="edge">
<title>Node16&#45;&gt;Node19</title>
<g id="a_edge24_Node000016_Node000019"><a xlink:title=" ">
<path fill="none" stroke="#63b8ff" d="M301.17,-164.98C318.79,-156.5 346.08,-143.35 366.43,-133.54"/>
<polygon fill="#63b8ff" stroke="#63b8ff" points="368.02,-136.66 375.51,-129.17 364.98,-130.36 368.02,-136.66"/>
</a>
</g>
</g>
<!-- Node22&#45;&gt;Node2 -->
<g id="edge29_Node000022_Node000002" class="edge">
<title>Node22&#45;&gt;Node2</title>
<g id="a_edge29_Node000022_Node000002"><a xlink:title=" ">
<path fill="none" stroke="#63b8ff" d="M625.17,-219.85C607.17,-211.76 580.57,-198.75 559.5,-184 539.21,-169.8 518.67,-150.05 505.34,-136.36"/>
<polygon fill="#63b8ff" stroke="#63b8ff" points="507.82,-133.9 498.38,-129.09 502.76,-138.74 507.82,-133.9"/>
</a>
</g>
</g>
<!-- Node22&#45;&gt;Node3 -->
<g id="edge31_Node000022_Node000003" class="edge">
<title>Node22&#45;&gt;Node3</title>
<g id="a_edge31_Node000022_Node000003"><a xlink:title=" ">
<path fill="none" stroke="#63b8ff" d="M640.47,-219.87C628,-199.02 593.81,-145.03 554.5,-110 511.51,-71.69 451.68,-40.08 416.83,-23.37"/>
<polygon fill="#63b8ff" stroke="#63b8ff" points="418.23,-20.16 407.69,-19.06 415.24,-26.49 418.23,-20.16"/>
</a>
</g>
</g>
<!-- Node22&#45;&gt;Node5 -->
<g id="edge39_Node000022_Node000005" class="edge">
<title>Node22&#45;&gt;Node5</title>
<g id="a_edge39_Node000022_Node000005"><a xlink:title=" ">
<path fill="none" stroke="#63b8ff" d="M591.22,-221.06C588.27,-220.69 585.35,-220.34 582.5,-220 425.45,-201.42 380.38,-228.08 228.5,-184 210.37,-178.74 207.75,-172.69 190.5,-165 164,-153.18 133.33,-141.21 110.64,-132.66"/>
<polygon fill="#63b8ff" stroke="#63b8ff" points="111.72,-129.33 101.12,-129.11 109.26,-135.89 111.72,-129.33"/>
</a>
</g>
</g>
<!-- Node22&#45;&gt;Node9 -->
<g id="edge30_Node000022_Node000009" class="edge">
<title>Node22&#45;&gt;Node9</title>
<g id="a_edge30_Node000022_Node000009"><a xlink:title=" ">
<path fill="none" stroke="#63b8ff" d="M680.11,-219.98C711,-211.6 752.82,-198.04 762.5,-184 797.9,-132.66 743.07,-59.11 714.74,-26.79"/>
<polygon fill="#63b8ff" stroke="#63b8ff" points="717.16,-24.24 707.86,-19.16 711.96,-28.93 717.16,-24.24"/>
</a>
</g>
</g>
<!-- Node22&#45;&gt;Node14 -->
<g id="edge32_Node000022_Node000014" class="edge">
<title>Node22&#45;&gt;Node14</title>
<g id="a_edge32_Node000022_Node000014"><a xlink:title=" ">
<path fill="none" stroke="#63b8ff" d="M641.64,-219.85C637.94,-211.04 632.61,-196.87 630.5,-184 628.03,-168.96 629.95,-151.73 632.26,-139.02"/>
<polygon fill="#63b8ff" stroke="#63b8ff" points="635.7,-139.68 634.28,-129.18 628.84,-138.27 635.7,-139.68"/>
</a>
</g>
</g>
<!-- Node23 -->
<g id="Node000023" class="node">
<title>Node23</title>
<g id="a_Node000023"><a xlink:href="Monomials__fwd_8hpp.html" target="_top" xlink:title="Declaration of Monomial basis.">
<polygon fill="white" stroke="#666666" points="753.5,-184 639.5,-184 639.5,-165 753.5,-165 753.5,-184"/>
<text text-anchor="middle" x="696.5" y="-172" font-family="Helvetica,sans-Serif" font-size="10.00">Monomials_fwd.hpp</text>
</a>
</g>
</g>
<!-- Node22&#45;&gt;Node23 -->
<g id="edge33_Node000022_Node000023" class="edge">
<title>Node22&#45;&gt;Node23</title>
<g id="a_edge33_Node000022_Node000023"><a xlink:title=" ">
<path fill="none" stroke="#63b8ff" d="M653.92,-219.75C661.27,-212.11 672.13,-200.82 681.04,-191.56"/>
<polygon fill="#63b8ff" stroke="#63b8ff" points="683.82,-193.72 688.24,-184.09 678.78,-188.87 683.82,-193.72"/>
</a>
</g>
</g>
<!-- Node23&#45;&gt;Node2 -->
<g id="edge34_Node000023_Node000002" class="edge">
<title>Node23&#45;&gt;Node2</title>
<g id="a_edge34_Node000023_Node000002"><a xlink:title=" ">
<path fill="none" stroke="#63b8ff" d="M663.4,-164.98C628.22,-155.93 572.43,-141.58 533.78,-131.64"/>
<polygon fill="#63b8ff" stroke="#63b8ff" points="534.41,-128.18 523.86,-129.08 532.67,-134.96 534.41,-128.18"/>
</a>
</g>
</g>
<!-- Node23&#45;&gt;Node9 -->
<g id="edge36_Node000023_Node000009" class="edge">
<title>Node23&#45;&gt;Node9</title>
<g id="a_edge36_Node000023_Node000009"><a xlink:title=" ">
<path fill="none" stroke="#63b8ff" d="M696.66,-164.74C697.13,-139.31 698.5,-65.08 699.15,-29.69"/>
<polygon fill="#63b8ff" stroke="#63b8ff" points="702.65,-29.37 699.34,-19.31 695.65,-29.24 702.65,-29.37"/>
</a>
</g>
</g>
<!-- Node23&#45;&gt;Node14 -->
<g id="edge37_Node000023_Node000014" class="edge">
<title>Node23&#45;&gt;Node14</title>
<g id="a_edge37_Node000023_Node000014"><a xlink:title=" ">
<path fill="none" stroke="#63b8ff" d="M686.86,-164.98C677.99,-157.15 664.63,-145.34 653.89,-135.86"/>
<polygon fill="#63b8ff" stroke="#63b8ff" points="656.13,-133.17 646.32,-129.17 651.49,-138.41 656.13,-133.17"/>
</a>
</g>
</g>
<!-- Node23&#45;&gt;Node19 -->
<g id="edge38_Node000023_Node000019" class="edge">
<title>Node23&#45;&gt;Node19</title>
<g id="a_edge38_Node000023_Node000019"><a xlink:title=" ">
<path fill="none" stroke="#63b8ff" d="M639.34,-165.58C586.75,-157.96 506.41,-145.46 427.68,-129.09"/>
<polygon fill="#63b8ff" stroke="#63b8ff" points="428.1,-125.6 417.59,-126.97 426.66,-132.45 428.1,-125.6"/>
</a>
</g>
</g>
<!-- Node23&#45;&gt;Node21 -->
<g id="edge35_Node000023_Node000021" class="edge">
<title>Node23&#45;&gt;Node21</title>
<g id="a_edge35_Node000023_Node000021"><a xlink:title=" ">
<path fill="none" stroke="#63b8ff" d="M718.51,-164.98C740.95,-156.3 775.98,-142.75 801.49,-132.88"/>
<polygon fill="#63b8ff" stroke="#63b8ff" points="803.02,-136.04 811.09,-129.17 800.5,-129.51 803.02,-136.04"/>
</a>
</g>
</g>
</g>
</svg>
