<?xml version="1.0" encoding="UTF-8" standalone="no"?>
<!DOCTYPE svg PUBLIC "-//W3C//DTD SVG 1.1//EN"
 "http://www.w3.org/Graphics/SVG/1.1/DTD/svg11.dtd">
<!-- Generated by graphviz version 2.43.0 (0)
 -->
<!-- Title: include/medusa/bits/domains/PolytopeShape_fwd.hpp Pages: 1 -->
<svg width="672pt" height="390pt"
 viewBox="0.00 0.00 671.72 390.00" xmlns="http://www.w3.org/2000/svg" xmlns:xlink="http://www.w3.org/1999/xlink">
<g id="graph0" class="graph" transform="scale(1 1) rotate(0) translate(4 386)">
<title>include/medusa/bits/domains/PolytopeShape_fwd.hpp</title>
<!-- Node1 -->
<g id="Node000001" class="node">
<title>Node1</title>
<g id="a_Node000001"><a xlink:title="Declaration of PolytopeShape class.">
<polygon fill="#999999" stroke="#666666" points="656,-382 519,-382 519,-341 656,-341 656,-382"/>
<text text-anchor="start" x="527" y="-370" font-family="Helvetica,sans-Serif" font-size="10.00">include/medusa/bits</text>
<text text-anchor="start" x="527" y="-359" font-family="Helvetica,sans-Serif" font-size="10.00">/domains/PolytopeShape</text>
<text text-anchor="middle" x="587.5" y="-348" font-family="Helvetica,sans-Serif" font-size="10.00">_fwd.hpp</text>
</a>
</g>
</g>
<!-- Node2 -->
<g id="Node000002" class="node">
<title>Node2</title>
<g id="a_Node000002"><a xlink:href="Config_8hpp.html" target="_top" xlink:title="Contains compile time settings for the project, such as Eigen plugins.">
<polygon fill="white" stroke="#666666" points="630.5,-129 520.5,-129 520.5,-110 630.5,-110 630.5,-129"/>
<text text-anchor="middle" x="575.5" y="-117" font-family="Helvetica,sans-Serif" font-size="10.00">medusa/Config.hpp</text>
</a>
</g>
</g>
<!-- Node1&#45;&gt;Node2 -->
<g id="edge1_Node000001_Node000002" class="edge">
<title>Node1&#45;&gt;Node2</title>
<g id="a_edge1_Node000001_Node000002"><a xlink:title=" ">
<path fill="none" stroke="#63b8ff" d="M626.88,-340.84C640.42,-331.9 654.03,-319.94 661.5,-305 665.28,-297.45 662.84,-294.34 661.5,-286 652.5,-230.08 651.62,-212.97 621.5,-165 614.53,-153.9 604.23,-143.59 595.13,-135.69"/>
<polygon fill="#63b8ff" stroke="#63b8ff" points="597.19,-132.85 587.26,-129.16 592.72,-138.24 597.19,-132.85"/>
</a>
</g>
</g>
<!-- Node4 -->
<g id="Node000004" class="node">
<title>Node4</title>
<g id="a_Node000004"><a xlink:href="DomainShape__fwd_8hpp.html" target="_top" xlink:title="Declaration of base class for domain shapes.">
<polygon fill="white" stroke="#666666" points="544.5,-250 416.5,-250 416.5,-231 544.5,-231 544.5,-250"/>
<text text-anchor="middle" x="480.5" y="-238" font-family="Helvetica,sans-Serif" font-size="10.00">DomainShape_fwd.hpp</text>
</a>
</g>
</g>
<!-- Node1&#45;&gt;Node4 -->
<g id="edge3_Node000001_Node000004" class="edge">
<title>Node1&#45;&gt;Node4</title>
<g id="a_edge3_Node000001_Node000004"><a xlink:title=" ">
<path fill="none" stroke="#63b8ff" d="M555.91,-340.96C542.04,-331.33 526.28,-318.81 514.5,-305 502.85,-291.34 493.57,-273.02 487.67,-259.57"/>
<polygon fill="#63b8ff" stroke="#63b8ff" points="490.76,-257.89 483.68,-250.01 484.3,-260.59 490.76,-257.89"/>
</a>
</g>
</g>
<!-- Node19 -->
<g id="Node000019" class="node">
<title>Node19</title>
<g id="a_Node000019"><a xlink:href="PolygonShape__fwd_8hpp.html" target="_top" xlink:title="Declaration of PolygonShape class.">
<polygon fill="white" stroke="#666666" points="652,-305 523,-305 523,-286 652,-286 652,-305"/>
<text text-anchor="middle" x="587.5" y="-293" font-family="Helvetica,sans-Serif" font-size="10.00">PolygonShape_fwd.hpp</text>
</a>
</g>
</g>
<!-- Node1&#45;&gt;Node19 -->
<g id="edge23_Node000001_Node000019" class="edge">
<title>Node1&#45;&gt;Node19</title>
<g id="a_edge23_Node000001_Node000019"><a xlink:title=" ">
<path fill="none" stroke="#63b8ff" d="M587.5,-340.95C587.5,-332.85 587.5,-323.5 587.5,-315.47"/>
<polygon fill="#63b8ff" stroke="#63b8ff" points="591,-315.26 587.5,-305.26 584,-315.26 591,-315.26"/>
</a>
</g>
</g>
<!-- Node3 -->
<g id="Node000003" class="node">
<title>Node3</title>
<g id="a_Node000003"><a xlink:title=" ">
<polygon fill="#e0e0e0" stroke="#999999" points="425,-19 378,-19 378,0 425,0 425,-19"/>
<text text-anchor="middle" x="401.5" y="-7" font-family="Helvetica,sans-Serif" font-size="10.00">vector</text>
</a>
</g>
</g>
<!-- Node2&#45;&gt;Node3 -->
<g id="edge2_Node000002_Node000003" class="edge">
<title>Node2&#45;&gt;Node3</title>
<g id="a_edge2_Node000002_Node000003"><a xlink:title=" ">
<path fill="none" stroke="#63b8ff" d="M561.55,-109.84C531.65,-91.28 461.09,-47.49 424.46,-24.75"/>
<polygon fill="#63b8ff" stroke="#63b8ff" points="425.85,-21.5 415.51,-19.2 422.16,-27.44 425.85,-21.5"/>
</a>
</g>
</g>
<!-- Node4&#45;&gt;Node2 -->
<g id="edge4_Node000004_Node000002" class="edge">
<title>Node4&#45;&gt;Node2</title>
<g id="a_edge4_Node000004_Node000002"><a xlink:title=" ">
<path fill="none" stroke="#63b8ff" d="M533.62,-230.97C554.67,-224.7 576.85,-213.83 589.5,-195 600.93,-177.99 593.28,-154.12 585.53,-138.02"/>
<polygon fill="#63b8ff" stroke="#63b8ff" points="588.61,-136.36 580.86,-129.13 582.41,-139.61 588.61,-136.36"/>
</a>
</g>
</g>
<!-- Node5 -->
<g id="Node000005" class="node">
<title>Node5</title>
<g id="a_Node000005"><a xlink:href="memutils_8hpp.html" target="_top" xlink:title="Declaration of memory related utilities.">
<polygon fill="white" stroke="#666666" points="438,-189.5 267,-189.5 267,-170.5 438,-170.5 438,-189.5"/>
<text text-anchor="middle" x="352.5" y="-177.5" font-family="Helvetica,sans-Serif" font-size="10.00">medusa/bits/utils/memutils.hpp</text>
</a>
</g>
</g>
<!-- Node4&#45;&gt;Node5 -->
<g id="edge5_Node000004_Node000005" class="edge">
<title>Node4&#45;&gt;Node5</title>
<g id="a_edge5_Node000004_Node000005"><a xlink:title=" ">
<path fill="none" stroke="#63b8ff" d="M461.89,-230.99C440.46,-221.2 405.06,-205.02 380.35,-193.73"/>
<polygon fill="#63b8ff" stroke="#63b8ff" points="381.68,-190.49 371.13,-189.52 378.78,-196.86 381.68,-190.49"/>
</a>
</g>
</g>
<!-- Node12 -->
<g id="Node000012" class="node">
<title>Node12</title>
<g id="a_Node000012"><a xlink:title=" ">
<polygon fill="#e0e0e0" stroke="#999999" points="118,-19 73,-19 73,0 118,0 118,-19"/>
<text text-anchor="middle" x="95.5" y="-7" font-family="Helvetica,sans-Serif" font-size="10.00">utility</text>
</a>
</g>
</g>
<!-- Node4&#45;&gt;Node12 -->
<g id="edge20_Node000004_Node000012" class="edge">
<title>Node4&#45;&gt;Node12</title>
<g id="a_edge20_Node000004_Node000012"><a xlink:title=" ">
<path fill="none" stroke="#63b8ff" d="M416.47,-236.08C316.68,-230.12 133.27,-216.37 112.5,-195 68.82,-150.06 81.78,-66.65 90.47,-29.36"/>
<polygon fill="#63b8ff" stroke="#63b8ff" points="93.94,-29.91 92.96,-19.37 87.15,-28.22 93.94,-29.91"/>
</a>
</g>
</g>
<!-- Node14 -->
<g id="Node000014" class="node">
<title>Node14</title>
<g id="a_Node000014"><a xlink:href="Vec__fwd_8hpp.html" target="_top" xlink:title="Declaration of Vec.">
<polygon fill="white" stroke="#666666" points="249,-195 122,-195 122,-165 249,-165 249,-195"/>
<text text-anchor="start" x="130" y="-183" font-family="Helvetica,sans-Serif" font-size="10.00">medusa/bits/types/Vec</text>
<text text-anchor="middle" x="185.5" y="-172" font-family="Helvetica,sans-Serif" font-size="10.00">_fwd.hpp</text>
</a>
</g>
</g>
<!-- Node4&#45;&gt;Node14 -->
<g id="edge16_Node000004_Node000014" class="edge">
<title>Node4&#45;&gt;Node14</title>
<g id="a_edge16_Node000004_Node000014"><a xlink:title=" ">
<path fill="none" stroke="#63b8ff" d="M437.6,-230.99C390.87,-221.73 315.28,-206.74 259.04,-195.58"/>
<polygon fill="#63b8ff" stroke="#63b8ff" points="259.62,-192.13 249.13,-193.62 258.26,-199 259.62,-192.13"/>
</a>
</g>
</g>
<!-- Node16 -->
<g id="Node000016" class="node">
<title>Node16</title>
<g id="a_Node000016"><a xlink:title=" ">
<polygon fill="#e0e0e0" stroke="#999999" points="504.5,-189.5 456.5,-189.5 456.5,-170.5 504.5,-170.5 504.5,-189.5"/>
<text text-anchor="middle" x="480.5" y="-177.5" font-family="Helvetica,sans-Serif" font-size="10.00">iosfwd</text>
</a>
</g>
</g>
<!-- Node4&#45;&gt;Node16 -->
<g id="edge19_Node000004_Node000016" class="edge">
<title>Node4&#45;&gt;Node16</title>
<g id="a_edge19_Node000004_Node000016"><a xlink:title=" ">
<path fill="none" stroke="#63b8ff" d="M480.5,-230.87C480.5,-222.75 480.5,-210.31 480.5,-199.89"/>
<polygon fill="#63b8ff" stroke="#63b8ff" points="484,-199.67 480.5,-189.67 477,-199.67 484,-199.67"/>
</a>
</g>
</g>
<!-- Node17 -->
<g id="Node000017" class="node">
<title>Node17</title>
<g id="a_Node000017"><a xlink:title=" ">
<polygon fill="#e0e0e0" stroke="#999999" points="580,-189.5 523,-189.5 523,-170.5 580,-170.5 580,-189.5"/>
<text text-anchor="middle" x="551.5" y="-177.5" font-family="Helvetica,sans-Serif" font-size="10.00">ostream</text>
</a>
</g>
</g>
<!-- Node4&#45;&gt;Node17 -->
<g id="edge21_Node000004_Node000017" class="edge">
<title>Node4&#45;&gt;Node17</title>
<g id="a_edge21_Node000004_Node000017"><a xlink:title=" ">
<path fill="none" stroke="#63b8ff" d="M490.98,-230.87C501.99,-221.8 519.54,-207.34 532.91,-196.32"/>
<polygon fill="#63b8ff" stroke="#63b8ff" points="535.49,-198.73 540.98,-189.67 531.04,-193.33 535.49,-198.73"/>
</a>
</g>
</g>
<!-- Node18 -->
<g id="Node000018" class="node">
<title>Node18</title>
<g id="a_Node000018"><a xlink:title=" ">
<polygon fill="#e0e0e0" stroke="#999999" points="65,-189.5 0,-189.5 0,-170.5 65,-170.5 65,-189.5"/>
<text text-anchor="middle" x="32.5" y="-177.5" font-family="Helvetica,sans-Serif" font-size="10.00">functional</text>
</a>
</g>
</g>
<!-- Node4&#45;&gt;Node18 -->
<g id="edge22_Node000004_Node000018" class="edge">
<title>Node4&#45;&gt;Node18</title>
<g id="a_edge22_Node000004_Node000018"><a xlink:title=" ">
<path fill="none" stroke="#63b8ff" d="M416.41,-235.93C336.78,-230.69 197.06,-218.83 79.5,-195 75.78,-194.25 71.92,-193.33 68.1,-192.33"/>
<polygon fill="#63b8ff" stroke="#63b8ff" points="68.72,-188.87 58.15,-189.54 66.83,-195.61 68.72,-188.87"/>
</a>
</g>
</g>
<!-- Node5&#45;&gt;Node2 -->
<g id="edge7_Node000005_Node000002" class="edge">
<title>Node5&#45;&gt;Node2</title>
<g id="a_edge7_Node000005_Node000002"><a xlink:title=" ">
<path fill="none" stroke="#63b8ff" d="M384.93,-170.49C424.07,-160.23 489.99,-142.93 533.13,-131.62"/>
<polygon fill="#63b8ff" stroke="#63b8ff" points="534.25,-134.94 543.03,-129.02 532.47,-128.17 534.25,-134.94"/>
</a>
</g>
</g>
<!-- Node6 -->
<g id="Node000006" class="node">
<title>Node6</title>
<g id="a_Node000006"><a xlink:title=" ">
<polygon fill="#e0e0e0" stroke="#999999" points="487.5,-129 429.5,-129 429.5,-110 487.5,-110 487.5,-129"/>
<text text-anchor="middle" x="458.5" y="-117" font-family="Helvetica,sans-Serif" font-size="10.00">memory</text>
</a>
</g>
</g>
<!-- Node5&#45;&gt;Node6 -->
<g id="edge6_Node000005_Node000006" class="edge">
<title>Node5&#45;&gt;Node6</title>
<g id="a_edge6_Node000005_Node000006"><a xlink:title=" ">
<path fill="none" stroke="#63b8ff" d="M368.14,-170.37C385.44,-160.82 413.55,-145.31 433.83,-134.12"/>
<polygon fill="#63b8ff" stroke="#63b8ff" points="435.73,-137.06 442.8,-129.17 432.35,-130.93 435.73,-137.06"/>
</a>
</g>
</g>
<!-- Node7 -->
<g id="Node000007" class="node">
<title>Node7</title>
<g id="a_Node000007"><a xlink:href="assert_8hpp.html" target="_top" xlink:title="Implementation of custom assert and debug utilities.">
<polygon fill="white" stroke="#666666" points="411,-129 256,-129 256,-110 411,-110 411,-129"/>
<text text-anchor="middle" x="333.5" y="-117" font-family="Helvetica,sans-Serif" font-size="10.00">medusa/bits/utils/assert.hpp</text>
</a>
</g>
</g>
<!-- Node5&#45;&gt;Node7 -->
<g id="edge8_Node000005_Node000007" class="edge">
<title>Node5&#45;&gt;Node7</title>
<g id="a_edge8_Node000005_Node000007"><a xlink:title=" ">
<path fill="none" stroke="#63b8ff" d="M349.7,-170.37C347,-162.07 342.85,-149.28 339.42,-138.72"/>
<polygon fill="#63b8ff" stroke="#63b8ff" points="342.73,-137.6 336.32,-129.17 336.08,-139.76 342.73,-137.6"/>
</a>
</g>
</g>
<!-- Node8 -->
<g id="Node000008" class="node">
<title>Node8</title>
<g id="a_Node000008"><a xlink:title=" ">
<polygon fill="#e0e0e0" stroke="#999999" points="416.5,-74 284.5,-74 284.5,-55 416.5,-55 416.5,-74"/>
<text text-anchor="middle" x="350.5" y="-62" font-family="Helvetica,sans-Serif" font-size="10.00">tinyformat/tinyformat.h</text>
</a>
</g>
</g>
<!-- Node7&#45;&gt;Node8 -->
<g id="edge9_Node000007_Node000008" class="edge">
<title>Node7&#45;&gt;Node8</title>
<g id="a_edge9_Node000007_Node000008"><a xlink:title=" ">
<path fill="none" stroke="#63b8ff" d="M336.31,-109.75C338.56,-102.72 341.8,-92.62 344.62,-83.84"/>
<polygon fill="#63b8ff" stroke="#63b8ff" points="348.02,-84.68 347.75,-74.09 341.36,-82.54 348.02,-84.68"/>
</a>
</g>
</g>
<!-- Node9 -->
<g id="Node000009" class="node">
<title>Node9</title>
<g id="a_Node000009"><a xlink:href="print_8hpp.html" target="_top" xlink:title="Printing helpers for std types.">
<polygon fill="white" stroke="#666666" points="266.5,-74 206.5,-74 206.5,-55 266.5,-55 266.5,-74"/>
<text text-anchor="middle" x="236.5" y="-62" font-family="Helvetica,sans-Serif" font-size="10.00">print.hpp</text>
</a>
</g>
</g>
<!-- Node7&#45;&gt;Node9 -->
<g id="edge10_Node000007_Node000009" class="edge">
<title>Node7&#45;&gt;Node9</title>
<g id="a_edge10_Node000007_Node000009"><a xlink:title=" ">
<path fill="none" stroke="#63b8ff" d="M317.92,-109.98C302.73,-101.69 279.4,-88.94 261.6,-79.22"/>
<polygon fill="#63b8ff" stroke="#63b8ff" points="262.82,-75.89 252.37,-74.17 259.47,-82.04 262.82,-75.89"/>
</a>
</g>
</g>
<!-- Node9&#45;&gt;Node3 -->
<g id="edge12_Node000009_Node000003" class="edge">
<title>Node9&#45;&gt;Node3</title>
<g id="a_edge12_Node000009_Node000003"><a xlink:title=" ">
<path fill="none" stroke="#63b8ff" d="M263.01,-54.98C291.57,-45.81 337.09,-31.19 368.09,-21.23"/>
<polygon fill="#63b8ff" stroke="#63b8ff" points="369.54,-24.44 378,-18.05 367.4,-17.78 369.54,-24.44"/>
</a>
</g>
</g>
<!-- Node10 -->
<g id="Node000010" class="node">
<title>Node10</title>
<g id="a_Node000010"><a xlink:title=" ">
<polygon fill="#e0e0e0" stroke="#999999" points="197.5,-19 137.5,-19 137.5,0 197.5,0 197.5,-19"/>
<text text-anchor="middle" x="167.5" y="-7" font-family="Helvetica,sans-Serif" font-size="10.00">iostream</text>
</a>
</g>
</g>
<!-- Node9&#45;&gt;Node10 -->
<g id="edge11_Node000009_Node000010" class="edge">
<title>Node9&#45;&gt;Node10</title>
<g id="a_edge11_Node000009_Node000010"><a xlink:title=" ">
<path fill="none" stroke="#63b8ff" d="M225.41,-54.98C215.01,-47 199.24,-34.88 186.78,-25.31"/>
<polygon fill="#63b8ff" stroke="#63b8ff" points="188.85,-22.49 178.79,-19.17 184.59,-28.04 188.85,-22.49"/>
</a>
</g>
</g>
<!-- Node11 -->
<g id="Node000011" class="node">
<title>Node11</title>
<g id="a_Node000011"><a xlink:title=" ">
<polygon fill="#e0e0e0" stroke="#999999" points="257.5,-19 215.5,-19 215.5,0 257.5,0 257.5,-19"/>
<text text-anchor="middle" x="236.5" y="-7" font-family="Helvetica,sans-Serif" font-size="10.00">array</text>
</a>
</g>
</g>
<!-- Node9&#45;&gt;Node11 -->
<g id="edge13_Node000009_Node000011" class="edge">
<title>Node9&#45;&gt;Node11</title>
<g id="a_edge13_Node000009_Node000011"><a xlink:title=" ">
<path fill="none" stroke="#63b8ff" d="M236.5,-54.75C236.5,-47.8 236.5,-37.85 236.5,-29.13"/>
<polygon fill="#63b8ff" stroke="#63b8ff" points="240,-29.09 236.5,-19.09 233,-29.09 240,-29.09"/>
</a>
</g>
</g>
<!-- Node9&#45;&gt;Node12 -->
<g id="edge14_Node000009_Node000012" class="edge">
<title>Node9&#45;&gt;Node12</title>
<g id="a_edge14_Node000009_Node000012"><a xlink:title=" ">
<path fill="none" stroke="#63b8ff" d="M213.85,-54.98C190.51,-46.21 153.95,-32.47 127.63,-22.58"/>
<polygon fill="#63b8ff" stroke="#63b8ff" points="128.69,-19.24 118.1,-18.99 126.23,-25.79 128.69,-19.24"/>
</a>
</g>
</g>
<!-- Node13 -->
<g id="Node000013" class="node">
<title>Node13</title>
<g id="a_Node000013"><a xlink:title=" ">
<polygon fill="#e0e0e0" stroke="#999999" points="317,-19 276,-19 276,0 317,0 317,-19"/>
<text text-anchor="middle" x="296.5" y="-7" font-family="Helvetica,sans-Serif" font-size="10.00">tuple</text>
</a>
</g>
</g>
<!-- Node9&#45;&gt;Node13 -->
<g id="edge15_Node000009_Node000013" class="edge">
<title>Node9&#45;&gt;Node13</title>
<g id="a_edge15_Node000009_Node000013"><a xlink:title=" ">
<path fill="none" stroke="#63b8ff" d="M246.14,-54.98C255.01,-47.15 268.37,-35.34 279.11,-25.86"/>
<polygon fill="#63b8ff" stroke="#63b8ff" points="281.51,-28.41 286.68,-19.17 276.87,-23.17 281.51,-28.41"/>
</a>
</g>
</g>
<!-- Node14&#45;&gt;Node2 -->
<g id="edge17_Node000014_Node000002" class="edge">
<title>Node14&#45;&gt;Node2</title>
<g id="a_edge17_Node000014_Node000002"><a xlink:title=" ">
<path fill="none" stroke="#63b8ff" d="M249.07,-166.45C251.92,-165.95 254.74,-165.46 257.5,-165 344.79,-150.42 446.11,-136.81 510.49,-128.57"/>
<polygon fill="#63b8ff" stroke="#63b8ff" points="511.02,-132.03 520.5,-127.3 510.14,-125.09 511.02,-132.03"/>
</a>
</g>
</g>
<!-- Node15 -->
<g id="Node000015" class="node">
<title>Node15</title>
<g id="a_Node000015"><a xlink:title=" ">
<polygon fill="#e0e0e0" stroke="#999999" points="220,-129 151,-129 151,-110 220,-110 220,-129"/>
<text text-anchor="middle" x="185.5" y="-117" font-family="Helvetica,sans-Serif" font-size="10.00">Eigen/Core</text>
</a>
</g>
</g>
<!-- Node14&#45;&gt;Node15 -->
<g id="edge18_Node000014_Node000015" class="edge">
<title>Node14&#45;&gt;Node15</title>
<g id="a_edge18_Node000014_Node000015"><a xlink:title=" ">
<path fill="none" stroke="#63b8ff" d="M185.5,-164.84C185.5,-157.21 185.5,-147.7 185.5,-139.45"/>
<polygon fill="#63b8ff" stroke="#63b8ff" points="189,-139.27 185.5,-129.27 182,-139.27 189,-139.27"/>
</a>
</g>
</g>
<!-- Node19&#45;&gt;Node2 -->
<g id="edge24_Node000019_Node000002" class="edge">
<title>Node19&#45;&gt;Node2</title>
<g id="a_edge24_Node000019_Node000002"><a xlink:title=" ">
<path fill="none" stroke="#63b8ff" d="M591.23,-285.81C599.76,-264.68 618.97,-209.07 605.5,-165 602.41,-154.9 596.18,-145.02 590.19,-137.15"/>
<polygon fill="#63b8ff" stroke="#63b8ff" points="592.74,-134.74 583.71,-129.2 587.32,-139.16 592.74,-134.74"/>
</a>
</g>
</g>
<!-- Node19&#45;&gt;Node4 -->
<g id="edge25_Node000019_Node000004" class="edge">
<title>Node19&#45;&gt;Node4</title>
<g id="a_edge25_Node000019_Node000004"><a xlink:title=" ">
<path fill="none" stroke="#63b8ff" d="M570.31,-285.98C553.25,-277.54 526.87,-264.47 507.1,-254.68"/>
<polygon fill="#63b8ff" stroke="#63b8ff" points="508.52,-251.47 498,-250.17 505.41,-257.75 508.52,-251.47"/>
</a>
</g>
</g>
</g>
</svg>
