<?xml version="1.0" encoding="UTF-8" standalone="no"?>
<!DOCTYPE svg PUBLIC "-//W3C//DTD SVG 1.1//EN"
 "http://www.w3.org/Graphics/SVG/1.1/DTD/svg11.dtd">
<!-- Generated by graphviz version 2.43.0 (0)
 -->
<!-- Title: include/medusa/bits/approximations/Polyharmonic.hpp Pages: 1 -->
<svg width="460pt" height="159pt"
 viewBox="0.00 0.00 459.50 159.00" xmlns="http://www.w3.org/2000/svg" xmlns:xlink="http://www.w3.org/1999/xlink">
<g id="graph0" class="graph" transform="scale(1 1) rotate(0) translate(4 155)">
<title>include/medusa/bits/approximations/Polyharmonic.hpp</title>
<!-- Node1 -->
<g id="Node000001" class="node">
<title>Node1</title>
<g id="a_Node000001"><a xlink:title="Implementation of Polyharmonic RBF.">
<polygon fill="#999999" stroke="#666666" points="362,-151 175,-151 175,-121 362,-121 362,-151"/>
<text text-anchor="start" x="183" y="-139" font-family="Helvetica,sans-Serif" font-size="10.00">include/medusa/bits</text>
<text text-anchor="middle" x="268.5" y="-128" font-family="Helvetica,sans-Serif" font-size="10.00">/approximations/Polyharmonic.hpp</text>
</a>
</g>
</g>
<!-- Node2 -->
<g id="Node000002" class="node">
<title>Node2</title>
<g id="a_Node000002"><a xlink:href="Approximations_8hpp.html" target="_top" xlink:title="Header for Approximations module.">
<polygon fill="white" stroke="#666666" points="195,-79.5 0,-79.5 0,-60.5 195,-60.5 195,-79.5"/>
<text text-anchor="middle" x="97.5" y="-67.5" font-family="Helvetica,sans-Serif" font-size="10.00">include/medusa/Approximations.hpp</text>
</a>
</g>
</g>
<!-- Node1&#45;&gt;Node2 -->
<g id="edge1_Node000001_Node000002" class="edge">
<title>Node1&#45;&gt;Node2</title>
<g id="a_edge1_Node000001_Node000002"><a xlink:title=" ">
<path fill="none" stroke="#63b8ff" d="M221.52,-117.42C188.58,-105.09 145.99,-89.15 120.26,-79.52"/>
<polygon fill="#63b8ff" stroke="#63b8ff" points="220.38,-120.73 230.97,-120.95 222.83,-114.17 220.38,-120.73"/>
</a>
</g>
</g>
<!-- Node4 -->
<g id="Node000004" class="node">
<title>Node4</title>
<g id="a_Node000004"><a xlink:href="Polyharmonic_8cpp.html" target="_top" xlink:title="Explicit instantiations for common parameters.">
<polygon fill="white" stroke="#666666" points="323.5,-85 213.5,-85 213.5,-55 323.5,-55 323.5,-85"/>
<text text-anchor="start" x="221.5" y="-73" font-family="Helvetica,sans-Serif" font-size="10.00">src/approximations</text>
<text text-anchor="middle" x="268.5" y="-62" font-family="Helvetica,sans-Serif" font-size="10.00">/Polyharmonic.cpp</text>
</a>
</g>
</g>
<!-- Node1&#45;&gt;Node4 -->
<g id="edge3_Node000001_Node000004" class="edge">
<title>Node1&#45;&gt;Node4</title>
<g id="a_edge3_Node000001_Node000004"><a xlink:title=" ">
<path fill="none" stroke="#63b8ff" d="M268.5,-110.54C268.5,-101.96 268.5,-92.61 268.5,-85.16"/>
<polygon fill="#63b8ff" stroke="#63b8ff" points="265,-110.8 268.5,-120.8 272,-110.8 265,-110.8"/>
</a>
</g>
</g>
<!-- Node5 -->
<g id="Node000005" class="node">
<title>Node5</title>
<g id="a_Node000005"><a xlink:href="RBFFD_8cpp.html" target="_top" xlink:title="Instantiations of common RBFFD approximations.">
<polygon fill="white" stroke="#666666" points="451.5,-85 341.5,-85 341.5,-55 451.5,-55 451.5,-85"/>
<text text-anchor="start" x="349.5" y="-73" font-family="Helvetica,sans-Serif" font-size="10.00">src/approximations</text>
<text text-anchor="middle" x="396.5" y="-62" font-family="Helvetica,sans-Serif" font-size="10.00">/RBFFD.cpp</text>
</a>
</g>
</g>
<!-- Node1&#45;&gt;Node5 -->
<g id="edge4_Node000001_Node000005" class="edge">
<title>Node1&#45;&gt;Node5</title>
<g id="a_edge4_Node000001_Node000005"><a xlink:title=" ">
<path fill="none" stroke="#63b8ff" d="M305.74,-116.38C325.77,-106.36 350.07,-94.22 368.48,-85.01"/>
<polygon fill="#63b8ff" stroke="#63b8ff" points="303.97,-113.35 296.59,-120.95 307.1,-119.61 303.97,-113.35"/>
</a>
</g>
</g>
<!-- Node3 -->
<g id="Node000003" class="node">
<title>Node3</title>
<g id="a_Node000003"><a xlink:href="Medusa_8hpp.html" target="_top" xlink:title="Main header file that includes most other components.">
<polygon fill="white" stroke="#666666" points="175.5,-19 19.5,-19 19.5,0 175.5,0 175.5,-19"/>
<text text-anchor="middle" x="97.5" y="-7" font-family="Helvetica,sans-Serif" font-size="10.00">include/medusa/Medusa.hpp</text>
</a>
</g>
</g>
<!-- Node2&#45;&gt;Node3 -->
<g id="edge2_Node000002_Node000003" class="edge">
<title>Node2&#45;&gt;Node3</title>
<g id="a_edge2_Node000002_Node000003"><a xlink:title=" ">
<path fill="none" stroke="#63b8ff" d="M97.5,-50.16C97.5,-39.74 97.5,-27.3 97.5,-19.17"/>
<polygon fill="#63b8ff" stroke="#63b8ff" points="94,-50.37 97.5,-60.37 101,-50.37 94,-50.37"/>
</a>
</g>
</g>
</g>
</svg>
