<?xml version="1.0" encoding="UTF-8" standalone="no"?>
<!DOCTYPE svg PUBLIC "-//W3C//DTD SVG 1.1//EN"
 "http://www.w3.org/Graphics/SVG/1.1/DTD/svg11.dtd">
<!-- Generated by graphviz version 2.43.0 (0)
 -->
<!-- Title: include/medusa/bits/operators/printShapes.hpp Pages: 1 -->
<svg width="774pt" height="434pt"
 viewBox="0.00 0.00 774.27 434.00" xmlns="http://www.w3.org/2000/svg" xmlns:xlink="http://www.w3.org/1999/xlink">
<g id="graph0" class="graph" transform="scale(1 1) rotate(0) translate(4 430)">
<title>include/medusa/bits/operators/printShapes.hpp</title>
<!-- Node1 -->
<g id="Node000001" class="node">
<title>Node1</title>
<g id="a_Node000001"><a xlink:title="Suppport functions for shape printing.">
<polygon fill="#999999" stroke="#666666" points="766.27,-426 618.27,-426 618.27,-396 766.27,-396 766.27,-426"/>
<text text-anchor="start" x="626.27" y="-414" font-family="Helvetica,sans-Serif" font-size="10.00">include/medusa/bits</text>
<text text-anchor="middle" x="692.27" y="-403" font-family="Helvetica,sans-Serif" font-size="10.00">/operators/printShapes.hpp</text>
</a>
</g>
</g>
<!-- Node2 -->
<g id="Node000002" class="node">
<title>Node2</title>
<g id="a_Node000002"><a xlink:href="shape__flags_8hpp.html" target="_top" xlink:title="Definition of flags related to shape computation.">
<polygon fill="white" stroke="#666666" points="657.77,-360 562.77,-360 562.77,-341 657.77,-341 657.77,-360"/>
<text text-anchor="middle" x="610.27" y="-348" font-family="Helvetica,sans-Serif" font-size="10.00">shape_flags.hpp</text>
</a>
</g>
</g>
<!-- Node1&#45;&gt;Node2 -->
<g id="edge1_Node000001_Node000002" class="edge">
<title>Node1&#45;&gt;Node2</title>
<g id="a_edge1_Node000001_Node000002"><a xlink:title=" ">
<path fill="none" stroke="#63b8ff" d="M672.42,-395.84C659.79,-386.83 643.47,-375.18 630.72,-366.09"/>
<polygon fill="#63b8ff" stroke="#63b8ff" points="632.73,-363.22 622.56,-360.27 628.66,-368.92 632.73,-363.22"/>
</a>
</g>
</g>
<!-- Node17 -->
<g id="Node000017" class="node">
<title>Node17</title>
<g id="a_Node000017"><a xlink:title=" ">
<polygon fill="#e0e0e0" stroke="#999999" points="753.27,-19 693.27,-19 693.27,0 753.27,0 753.27,-19"/>
<text text-anchor="middle" x="723.27" y="-7" font-family="Helvetica,sans-Serif" font-size="10.00">iostream</text>
</a>
</g>
</g>
<!-- Node1&#45;&gt;Node17 -->
<g id="edge31_Node000001_Node000017" class="edge">
<title>Node1&#45;&gt;Node17</title>
<g id="a_edge31_Node000001_Node000017"><a xlink:title=" ">
<path fill="none" stroke="#63b8ff" d="M704.36,-395.67C721.09,-374.31 749.27,-332.23 749.27,-291 749.27,-291 749.27,-291 749.27,-118.5 749.27,-86.15 738.1,-49.82 730.41,-28.62"/>
<polygon fill="#63b8ff" stroke="#63b8ff" points="733.59,-27.13 726.78,-19.01 727.04,-29.6 733.59,-27.13"/>
</a>
</g>
</g>
<!-- Node20 -->
<g id="Node000020" class="node">
<title>Node20</title>
<g id="a_Node000020"><a xlink:href="memutils_8hpp.html" target="_top" xlink:title="Declaration of memory related utilities.">
<polygon fill="white" stroke="#666666" points="648.77,-184 477.77,-184 477.77,-165 648.77,-165 648.77,-184"/>
<text text-anchor="middle" x="563.27" y="-172" font-family="Helvetica,sans-Serif" font-size="10.00">medusa/bits/utils/memutils.hpp</text>
</a>
</g>
</g>
<!-- Node1&#45;&gt;Node20 -->
<g id="edge32_Node000001_Node000020" class="edge">
<title>Node1&#45;&gt;Node20</title>
<g id="a_edge32_Node000001_Node000020"><a xlink:title=" ">
<path fill="none" stroke="#63b8ff" d="M687.31,-395.86C682.3,-381.83 674.19,-359.75 666.27,-341 653.66,-311.15 651.73,-302.92 635.27,-275 617.23,-244.4 592.17,-211.48 576.87,-192.23"/>
<polygon fill="#63b8ff" stroke="#63b8ff" points="579.4,-189.78 570.41,-184.17 573.94,-194.16 579.4,-189.78"/>
</a>
</g>
</g>
<!-- Node3 -->
<g id="Node000003" class="node">
<title>Node3</title>
<g id="a_Node000003"><a xlink:title=" ">
<polygon fill="#e0e0e0" stroke="#999999" points="626.27,-299.5 582.27,-299.5 582.27,-280.5 626.27,-280.5 626.27,-299.5"/>
<text text-anchor="middle" x="604.27" y="-287.5" font-family="Helvetica,sans-Serif" font-size="10.00">string</text>
</a>
</g>
</g>
<!-- Node2&#45;&gt;Node3 -->
<g id="edge2_Node000002_Node000003" class="edge">
<title>Node2&#45;&gt;Node3</title>
<g id="a_edge2_Node000002_Node000003"><a xlink:title=" ">
<path fill="none" stroke="#63b8ff" d="M609.38,-340.87C608.55,-332.75 607.28,-320.31 606.21,-309.89"/>
<polygon fill="#63b8ff" stroke="#63b8ff" points="609.66,-309.26 605.16,-299.67 602.7,-309.97 609.66,-309.26"/>
</a>
</g>
</g>
<!-- Node4 -->
<g id="Node000004" class="node">
<title>Node4</title>
<g id="a_Node000004"><a xlink:title=" ">
<polygon fill="#e0e0e0" stroke="#999999" points="645.77,-19 604.77,-19 604.77,0 645.77,0 645.77,-19"/>
<text text-anchor="middle" x="625.27" y="-7" font-family="Helvetica,sans-Serif" font-size="10.00">tuple</text>
</a>
</g>
</g>
<!-- Node2&#45;&gt;Node4 -->
<g id="edge3_Node000002_Node000004" class="edge">
<title>Node2&#45;&gt;Node4</title>
<g id="a_edge3_Node000002_Node000004"><a xlink:title=" ">
<path fill="none" stroke="#63b8ff" d="M619.95,-340.76C645.23,-316.94 711.27,-247.8 711.27,-175.5 711.27,-175.5 711.27,-175.5 711.27,-118.5 711.27,-89.04 709.81,-78.67 692.27,-55 682.41,-41.69 667.3,-31.16 653.92,-23.69"/>
<polygon fill="#63b8ff" stroke="#63b8ff" points="655.51,-20.57 645.03,-19.01 652.25,-26.77 655.51,-20.57"/>
</a>
</g>
</g>
<!-- Node5 -->
<g id="Node000005" class="node">
<title>Node5</title>
<g id="a_Node000005"><a xlink:href="bits_2approximations_2Operators_8hpp.html" target="_top" xlink:title="Implementations of differential operator families.">
<polygon fill="white" stroke="#666666" points="328.27,-305 172.27,-305 172.27,-275 328.27,-275 328.27,-305"/>
<text text-anchor="start" x="180.27" y="-293" font-family="Helvetica,sans-Serif" font-size="10.00">medusa/bits/approximations</text>
<text text-anchor="middle" x="250.27" y="-282" font-family="Helvetica,sans-Serif" font-size="10.00">/Operators.hpp</text>
</a>
</g>
</g>
<!-- Node2&#45;&gt;Node5 -->
<g id="edge4_Node000002_Node000005" class="edge">
<title>Node2&#45;&gt;Node5</title>
<g id="a_edge4_Node000002_Node000005"><a xlink:title=" ">
<path fill="none" stroke="#63b8ff" d="M562.46,-341.73C505.5,-332.47 409.16,-316.82 338.53,-305.34"/>
<polygon fill="#63b8ff" stroke="#63b8ff" points="338.74,-301.83 328.31,-303.68 337.61,-308.74 338.74,-301.83"/>
</a>
</g>
</g>
<!-- Node6 -->
<g id="Node000006" class="node">
<title>Node6</title>
<g id="a_Node000006"><a xlink:href="Operators__fwd_8hpp.html" target="_top" xlink:title="File defining basic differential operator families.">
<polygon fill="white" stroke="#666666" points="345.27,-184 237.27,-184 237.27,-165 345.27,-165 345.27,-184"/>
<text text-anchor="middle" x="291.27" y="-172" font-family="Helvetica,sans-Serif" font-size="10.00">Operators_fwd.hpp</text>
</a>
</g>
</g>
<!-- Node5&#45;&gt;Node6 -->
<g id="edge5_Node000005_Node000006" class="edge">
<title>Node5&#45;&gt;Node6</title>
<g id="a_edge5_Node000005_Node000006"><a xlink:title=" ">
<path fill="none" stroke="#63b8ff" d="M256.69,-274.7C261.04,-264.78 266.8,-251.2 271.27,-239 276.75,-224.06 282.12,-206.82 285.91,-194.08"/>
<polygon fill="#63b8ff" stroke="#63b8ff" points="289.35,-194.79 288.8,-184.21 282.63,-192.83 289.35,-194.79"/>
</a>
</g>
</g>
<!-- Node11 -->
<g id="Node000011" class="node">
<title>Node11</title>
<g id="a_Node000011"><a xlink:href="Monomials__fwd_8hpp.html" target="_top" xlink:title="Declaration of Monomial basis.">
<polygon fill="white" stroke="#666666" points="181.27,-129 67.27,-129 67.27,-110 181.27,-110 181.27,-129"/>
<text text-anchor="middle" x="124.27" y="-117" font-family="Helvetica,sans-Serif" font-size="10.00">Monomials_fwd.hpp</text>
</a>
</g>
</g>
<!-- Node5&#45;&gt;Node11 -->
<g id="edge25_Node000005_Node000011" class="edge">
<title>Node5&#45;&gt;Node11</title>
<g id="a_edge25_Node000005_Node000011"><a xlink:title=" ">
<path fill="none" stroke="#63b8ff" d="M199.11,-274.93C180.16,-267.26 160.17,-255.78 147.27,-239 124.79,-209.75 122.35,-164.69 123.02,-139.4"/>
<polygon fill="#63b8ff" stroke="#63b8ff" points="126.52,-139.45 123.49,-129.3 119.53,-139.13 126.52,-139.45"/>
</a>
</g>
</g>
<!-- Node19 -->
<g id="Node000019" class="node">
<title>Node19</title>
<g id="a_Node000019"><a xlink:href="RBFBasis__fwd_8hpp.html" target="_top" xlink:title="Declaration of RBF basis.">
<polygon fill="white" stroke="#666666" points="262.27,-239 156.27,-239 156.27,-220 262.27,-220 262.27,-239"/>
<text text-anchor="middle" x="209.27" y="-227" font-family="Helvetica,sans-Serif" font-size="10.00">RBFBasis_fwd.hpp</text>
</a>
</g>
</g>
<!-- Node5&#45;&gt;Node19 -->
<g id="edge26_Node000005_Node000019" class="edge">
<title>Node5&#45;&gt;Node19</title>
<g id="a_edge26_Node000005_Node000019"><a xlink:title=" ">
<path fill="none" stroke="#63b8ff" d="M240.34,-274.84C234.58,-266.61 227.27,-256.18 221.19,-247.51"/>
<polygon fill="#63b8ff" stroke="#63b8ff" points="224.02,-245.45 215.41,-239.27 218.29,-249.46 224.02,-245.45"/>
</a>
</g>
</g>
<!-- Node7 -->
<g id="Node000007" class="node">
<title>Node7</title>
<g id="a_Node000007"><a xlink:href="Config_8hpp.html" target="_top" xlink:title="Contains compile time settings for the project, such as Eigen plugins.">
<polygon fill="white" stroke="#666666" points="417.27,-74 307.27,-74 307.27,-55 417.27,-55 417.27,-74"/>
<text text-anchor="middle" x="362.27" y="-62" font-family="Helvetica,sans-Serif" font-size="10.00">medusa/Config.hpp</text>
</a>
</g>
</g>
<!-- Node6&#45;&gt;Node7 -->
<g id="edge6_Node000006_Node000007" class="edge">
<title>Node6&#45;&gt;Node7</title>
<g id="a_edge6_Node000006_Node000007"><a xlink:title=" ">
<path fill="none" stroke="#63b8ff" d="M297.08,-164.66C308.84,-146.77 335.64,-106 350.97,-82.69"/>
<polygon fill="#63b8ff" stroke="#63b8ff" points="354.01,-84.44 356.58,-74.16 348.16,-80.59 354.01,-84.44"/>
</a>
</g>
</g>
<!-- Node8 -->
<g id="Node000008" class="node">
<title>Node8</title>
<g id="a_Node000008"><a xlink:title=" ">
<polygon fill="#e0e0e0" stroke="#999999" points="465.77,-19 418.77,-19 418.77,0 465.77,0 465.77,-19"/>
<text text-anchor="middle" x="442.27" y="-7" font-family="Helvetica,sans-Serif" font-size="10.00">vector</text>
</a>
</g>
</g>
<!-- Node6&#45;&gt;Node8 -->
<g id="edge9_Node000006_Node000008" class="edge">
<title>Node6&#45;&gt;Node8</title>
<g id="a_edge9_Node000006_Node000008"><a xlink:title=" ">
<path fill="none" stroke="#63b8ff" d="M310.21,-164.87C339.73,-150.42 396.41,-118.48 426.27,-74 435.28,-60.58 439.22,-42.48 440.94,-29.03"/>
<polygon fill="#63b8ff" stroke="#63b8ff" points="444.42,-29.34 441.92,-19.04 437.46,-28.65 444.42,-29.34"/>
</a>
</g>
</g>
<!-- Node9 -->
<g id="Node000009" class="node">
<title>Node9</title>
<g id="a_Node000009"><a xlink:title=" ">
<polygon fill="#e0e0e0" stroke="#999999" points="205.27,-19 163.27,-19 163.27,0 205.27,0 205.27,-19"/>
<text text-anchor="middle" x="184.27" y="-7" font-family="Helvetica,sans-Serif" font-size="10.00">array</text>
</a>
</g>
</g>
<!-- Node6&#45;&gt;Node9 -->
<g id="edge8_Node000006_Node000009" class="edge">
<title>Node6&#45;&gt;Node9</title>
<g id="a_edge8_Node000006_Node000009"><a xlink:title=" ">
<path fill="none" stroke="#63b8ff" d="M291.09,-164.8C290.22,-143.78 285.43,-89.45 259.27,-55 247.97,-40.12 230.14,-29.25 214.7,-21.98"/>
<polygon fill="#63b8ff" stroke="#63b8ff" points="216.04,-18.74 205.47,-17.91 213.21,-25.14 216.04,-18.74"/>
</a>
</g>
</g>
<!-- Node10 -->
<g id="Node000010" class="node">
<title>Node10</title>
<g id="a_Node000010"><a xlink:title=" ">
<polygon fill="#e0e0e0" stroke="#999999" points="250.77,-74 181.77,-74 181.77,-55 250.77,-55 250.77,-74"/>
<text text-anchor="middle" x="216.27" y="-62" font-family="Helvetica,sans-Serif" font-size="10.00">Eigen/Core</text>
</a>
</g>
</g>
<!-- Node6&#45;&gt;Node10 -->
<g id="edge10_Node000006_Node000010" class="edge">
<title>Node6&#45;&gt;Node10</title>
<g id="a_edge10_Node000006_Node000010"><a xlink:title=" ">
<path fill="none" stroke="#63b8ff" d="M285.13,-164.66C272.65,-146.69 244.15,-105.64 227.99,-82.38"/>
<polygon fill="#63b8ff" stroke="#63b8ff" points="230.86,-80.38 222.28,-74.16 225.11,-84.37 230.86,-80.38"/>
</a>
</g>
</g>
<!-- Node6&#45;&gt;Node11 -->
<g id="edge11_Node000006_Node000011" class="edge">
<title>Node6&#45;&gt;Node11</title>
<g id="a_edge11_Node000006_Node000011"><a xlink:title=" ">
<path fill="none" stroke="#63b8ff" d="M264.44,-164.98C236.4,-156.09 192.22,-142.07 160.97,-132.15"/>
<polygon fill="#63b8ff" stroke="#63b8ff" points="161.9,-128.77 151.31,-129.08 159.78,-135.44 161.9,-128.77"/>
</a>
</g>
</g>
<!-- Node14 -->
<g id="Node000014" class="node">
<title>Node14</title>
<g id="a_Node000014"><a xlink:href="assert_8hpp.html" target="_top" xlink:title="Implementation of custom assert and debug utilities.">
<polygon fill="white" stroke="#666666" points="606.77,-129 451.77,-129 451.77,-110 606.77,-110 606.77,-129"/>
<text text-anchor="middle" x="529.27" y="-117" font-family="Helvetica,sans-Serif" font-size="10.00">medusa/bits/utils/assert.hpp</text>
</a>
</g>
</g>
<!-- Node6&#45;&gt;Node14 -->
<g id="edge17_Node000006_Node000014" class="edge">
<title>Node6&#45;&gt;Node14</title>
<g id="a_edge17_Node000006_Node000014"><a xlink:title=" ">
<path fill="none" stroke="#63b8ff" d="M329.51,-164.98C370.68,-155.82 436.26,-141.21 480.97,-131.26"/>
<polygon fill="#63b8ff" stroke="#63b8ff" points="481.73,-134.67 490.73,-129.08 480.21,-127.84 481.73,-134.67"/>
</a>
</g>
</g>
<!-- Node7&#45;&gt;Node8 -->
<g id="edge7_Node000007_Node000008" class="edge">
<title>Node7&#45;&gt;Node8</title>
<g id="a_edge7_Node000007_Node000008"><a xlink:title=" ">
<path fill="none" stroke="#63b8ff" d="M375.12,-54.98C387.41,-46.84 406.18,-34.41 420.75,-24.76"/>
<polygon fill="#63b8ff" stroke="#63b8ff" points="422.78,-27.61 429.18,-19.17 418.91,-21.78 422.78,-27.61"/>
</a>
</g>
</g>
<!-- Node11&#45;&gt;Node7 -->
<g id="edge12_Node000011_Node000007" class="edge">
<title>Node11&#45;&gt;Node7</title>
<g id="a_edge12_Node000011_Node000007"><a xlink:title=" ">
<path fill="none" stroke="#63b8ff" d="M162.51,-109.98C203.68,-100.82 269.26,-86.21 313.97,-76.26"/>
<polygon fill="#63b8ff" stroke="#63b8ff" points="314.73,-79.67 323.73,-74.08 313.21,-72.84 314.73,-79.67"/>
</a>
</g>
</g>
<!-- Node11&#45;&gt;Node9 -->
<g id="edge14_Node000011_Node000009" class="edge">
<title>Node11&#45;&gt;Node9</title>
<g id="a_edge14_Node000011_Node000009"><a xlink:title=" ">
<path fill="none" stroke="#63b8ff" d="M117.95,-109.74C109.58,-96.96 97,-72.79 107.27,-55 117.2,-37.78 136.62,-26.63 153.47,-19.79"/>
<polygon fill="#63b8ff" stroke="#63b8ff" points="154.84,-23.02 163,-16.26 152.41,-16.45 154.84,-23.02"/>
</a>
</g>
</g>
<!-- Node11&#45;&gt;Node10 -->
<g id="edge15_Node000011_Node000010" class="edge">
<title>Node11&#45;&gt;Node10</title>
<g id="a_edge15_Node000011_Node000010"><a xlink:title=" ">
<path fill="none" stroke="#63b8ff" d="M139.05,-109.98C153.45,-101.69 175.58,-88.94 192.46,-79.22"/>
<polygon fill="#63b8ff" stroke="#63b8ff" points="194.3,-82.19 201.22,-74.17 190.81,-76.13 194.3,-82.19"/>
</a>
</g>
</g>
<!-- Node12 -->
<g id="Node000012" class="node">
<title>Node12</title>
<g id="a_Node000012"><a xlink:title=" ">
<polygon fill="#e0e0e0" stroke="#999999" points="163.77,-74 116.77,-74 116.77,-55 163.77,-55 163.77,-74"/>
<text text-anchor="middle" x="140.27" y="-62" font-family="Helvetica,sans-Serif" font-size="10.00">cmath</text>
</a>
</g>
</g>
<!-- Node11&#45;&gt;Node12 -->
<g id="edge13_Node000011_Node000012" class="edge">
<title>Node11&#45;&gt;Node12</title>
<g id="a_edge13_Node000011_Node000012"><a xlink:title=" ">
<path fill="none" stroke="#63b8ff" d="M126.91,-109.75C129.03,-102.72 132.08,-92.62 134.73,-83.84"/>
<polygon fill="#63b8ff" stroke="#63b8ff" points="138.14,-84.67 137.68,-74.09 131.44,-82.65 138.14,-84.67"/>
</a>
</g>
</g>
<!-- Node13 -->
<g id="Node000013" class="node">
<title>Node13</title>
<g id="a_Node000013"><a xlink:title=" ">
<polygon fill="#e0e0e0" stroke="#999999" points="60.27,-74 12.27,-74 12.27,-55 60.27,-55 60.27,-74"/>
<text text-anchor="middle" x="36.27" y="-62" font-family="Helvetica,sans-Serif" font-size="10.00">iosfwd</text>
</a>
</g>
</g>
<!-- Node11&#45;&gt;Node13 -->
<g id="edge16_Node000011_Node000013" class="edge">
<title>Node11&#45;&gt;Node13</title>
<g id="a_edge16_Node000011_Node000013"><a xlink:title=" ">
<path fill="none" stroke="#63b8ff" d="M110.13,-109.98C96.48,-101.77 75.58,-89.18 59.49,-79.49"/>
<polygon fill="#63b8ff" stroke="#63b8ff" points="61.04,-76.33 50.67,-74.17 57.43,-82.33 61.04,-76.33"/>
</a>
</g>
</g>
<!-- Node15 -->
<g id="Node000015" class="node">
<title>Node15</title>
<g id="a_Node000015"><a xlink:title=" ">
<polygon fill="#e0e0e0" stroke="#999999" points="683.27,-74 551.27,-74 551.27,-55 683.27,-55 683.27,-74"/>
<text text-anchor="middle" x="617.27" y="-62" font-family="Helvetica,sans-Serif" font-size="10.00">tinyformat/tinyformat.h</text>
</a>
</g>
</g>
<!-- Node14&#45;&gt;Node15 -->
<g id="edge18_Node000014_Node000015" class="edge">
<title>Node14&#45;&gt;Node15</title>
<g id="a_edge18_Node000014_Node000015"><a xlink:title=" ">
<path fill="none" stroke="#63b8ff" d="M543.41,-109.98C557.05,-101.77 577.96,-89.18 594.05,-79.49"/>
<polygon fill="#63b8ff" stroke="#63b8ff" points="596.11,-82.33 602.87,-74.17 592.5,-76.33 596.11,-82.33"/>
</a>
</g>
</g>
<!-- Node16 -->
<g id="Node000016" class="node">
<title>Node16</title>
<g id="a_Node000016"><a xlink:href="print_8hpp.html" target="_top" xlink:title="Printing helpers for std types.">
<polygon fill="white" stroke="#666666" points="533.27,-74 473.27,-74 473.27,-55 533.27,-55 533.27,-74"/>
<text text-anchor="middle" x="503.27" y="-62" font-family="Helvetica,sans-Serif" font-size="10.00">print.hpp</text>
</a>
</g>
</g>
<!-- Node14&#45;&gt;Node16 -->
<g id="edge19_Node000014_Node000016" class="edge">
<title>Node14&#45;&gt;Node16</title>
<g id="a_edge19_Node000014_Node000016"><a xlink:title=" ">
<path fill="none" stroke="#63b8ff" d="M524.98,-109.75C521.46,-102.57 516.36,-92.18 511.99,-83.27"/>
<polygon fill="#63b8ff" stroke="#63b8ff" points="515.03,-81.53 507.48,-74.09 508.75,-84.61 515.03,-81.53"/>
</a>
</g>
</g>
<!-- Node16&#45;&gt;Node4 -->
<g id="edge24_Node000016_Node000004" class="edge">
<title>Node16&#45;&gt;Node4</title>
<g id="a_edge24_Node000016_Node000004"><a xlink:title=" ">
<path fill="none" stroke="#63b8ff" d="M522.87,-54.98C542.59,-46.42 573.22,-33.11 595.85,-23.28"/>
<polygon fill="#63b8ff" stroke="#63b8ff" points="597.53,-26.37 605.31,-19.17 594.75,-19.94 597.53,-26.37"/>
</a>
</g>
</g>
<!-- Node16&#45;&gt;Node8 -->
<g id="edge21_Node000016_Node000008" class="edge">
<title>Node16&#45;&gt;Node8</title>
<g id="a_edge21_Node000016_Node000008"><a xlink:title=" ">
<path fill="none" stroke="#63b8ff" d="M493.47,-54.98C484.45,-47.15 470.86,-35.34 459.95,-25.86"/>
<polygon fill="#63b8ff" stroke="#63b8ff" points="462.09,-23.09 452.25,-19.17 457.5,-28.37 462.09,-23.09"/>
</a>
</g>
</g>
<!-- Node16&#45;&gt;Node9 -->
<g id="edge22_Node000016_Node000009" class="edge">
<title>Node16&#45;&gt;Node9</title>
<g id="a_edge22_Node000016_Node000009"><a xlink:title=" ">
<path fill="none" stroke="#63b8ff" d="M473.26,-58.51C412.83,-48.47 277.03,-25.91 215.56,-15.7"/>
<polygon fill="#63b8ff" stroke="#63b8ff" points="215.76,-12.18 205.32,-14 214.61,-19.09 215.76,-12.18"/>
</a>
</g>
</g>
<!-- Node16&#45;&gt;Node17 -->
<g id="edge20_Node000016_Node000017" class="edge">
<title>Node16&#45;&gt;Node17</title>
<g id="a_edge20_Node000016_Node000017"><a xlink:title=" ">
<path fill="none" stroke="#63b8ff" d="M533.4,-56.24C572.29,-46.87 640.09,-30.54 683.27,-20.14"/>
<polygon fill="#63b8ff" stroke="#63b8ff" points="684.25,-23.5 693.15,-17.76 682.61,-16.69 684.25,-23.5"/>
</a>
</g>
</g>
<!-- Node18 -->
<g id="Node000018" class="node">
<title>Node18</title>
<g id="a_Node000018"><a xlink:title=" ">
<polygon fill="#e0e0e0" stroke="#999999" points="528.77,-19 483.77,-19 483.77,0 528.77,0 528.77,-19"/>
<text text-anchor="middle" x="506.27" y="-7" font-family="Helvetica,sans-Serif" font-size="10.00">utility</text>
</a>
</g>
</g>
<!-- Node16&#45;&gt;Node18 -->
<g id="edge23_Node000016_Node000018" class="edge">
<title>Node16&#45;&gt;Node18</title>
<g id="a_edge23_Node000016_Node000018"><a xlink:title=" ">
<path fill="none" stroke="#63b8ff" d="M503.76,-54.75C504.16,-47.8 504.72,-37.85 505.21,-29.13"/>
<polygon fill="#63b8ff" stroke="#63b8ff" points="508.71,-29.27 505.78,-19.09 501.72,-28.88 508.71,-29.27"/>
</a>
</g>
</g>
<!-- Node19&#45;&gt;Node6 -->
<g id="edge30_Node000019_Node000006" class="edge">
<title>Node19&#45;&gt;Node6</title>
<g id="a_edge30_Node000019_Node000006"><a xlink:title=" ">
<path fill="none" stroke="#63b8ff" d="M222.44,-219.98C235.04,-211.84 254.27,-199.41 269.21,-189.76"/>
<polygon fill="#63b8ff" stroke="#63b8ff" points="271.36,-192.54 277.86,-184.17 267.56,-186.66 271.36,-192.54"/>
</a>
</g>
</g>
<!-- Node19&#45;&gt;Node7 -->
<g id="edge27_Node000019_Node000007" class="edge">
<title>Node19&#45;&gt;Node7</title>
<g id="a_edge27_Node000019_Node000007"><a xlink:title=" ">
<path fill="none" stroke="#63b8ff" d="M210.1,-219.95C211.72,-207.01 216.25,-182.15 228.27,-165 256.04,-125.39 304.57,-95.13 334.98,-78.87"/>
<polygon fill="#63b8ff" stroke="#63b8ff" points="336.91,-81.81 344.17,-74.09 333.68,-75.6 336.91,-81.81"/>
</a>
</g>
</g>
<!-- Node19&#45;&gt;Node9 -->
<g id="edge29_Node000019_Node000009" class="edge">
<title>Node19&#45;&gt;Node9</title>
<g id="a_edge29_Node000019_Node000009"><a xlink:title=" ">
<path fill="none" stroke="#63b8ff" d="M173.83,-219.93C149.42,-212.9 117.06,-201.26 92.27,-184 40.67,-148.06 23.07,-133.69 3.27,-74 0.61,-65.99 -1.94,-61.65 3.27,-55 21.51,-31.73 105.96,-19 152.78,-13.63"/>
<polygon fill="#63b8ff" stroke="#63b8ff" points="153.44,-17.08 162.99,-12.5 152.67,-10.12 153.44,-17.08"/>
</a>
</g>
</g>
<!-- Node19&#45;&gt;Node13 -->
<g id="edge28_Node000019_Node000013" class="edge">
<title>Node19&#45;&gt;Node13</title>
<g id="a_edge28_Node000019_Node000013"><a xlink:title=" ">
<path fill="none" stroke="#63b8ff" d="M188.04,-219.91C155.54,-205.71 93.53,-174.36 58.27,-129 48.09,-115.9 42.43,-97.77 39.41,-84.23"/>
<polygon fill="#63b8ff" stroke="#63b8ff" points="42.8,-83.3 37.45,-74.15 35.92,-84.63 42.8,-83.3"/>
</a>
</g>
</g>
<!-- Node20&#45;&gt;Node7 -->
<g id="edge34_Node000020_Node000007" class="edge">
<title>Node20&#45;&gt;Node7</title>
<g id="a_edge34_Node000020_Node000007"><a xlink:title=" ">
<path fill="none" stroke="#63b8ff" d="M531.74,-164.93C506.6,-157.39 470.96,-145.11 442.27,-129 418.53,-115.67 394.48,-95.48 379.04,-81.46"/>
<polygon fill="#63b8ff" stroke="#63b8ff" points="381.12,-78.62 371.4,-74.39 376.36,-83.75 381.12,-78.62"/>
</a>
</g>
</g>
<!-- Node20&#45;&gt;Node14 -->
<g id="edge35_Node000020_Node000014" class="edge">
<title>Node20&#45;&gt;Node14</title>
<g id="a_edge35_Node000020_Node000014"><a xlink:title=" ">
<path fill="none" stroke="#63b8ff" d="M557.66,-164.75C552.95,-157.42 546.1,-146.73 540.3,-137.7"/>
<polygon fill="#63b8ff" stroke="#63b8ff" points="543.13,-135.62 534.78,-129.09 537.23,-139.4 543.13,-135.62"/>
</a>
</g>
</g>
<!-- Node21 -->
<g id="Node000021" class="node">
<title>Node21</title>
<g id="a_Node000021"><a xlink:title=" ">
<polygon fill="#e0e0e0" stroke="#999999" points="683.27,-129 625.27,-129 625.27,-110 683.27,-110 683.27,-129"/>
<text text-anchor="middle" x="654.27" y="-117" font-family="Helvetica,sans-Serif" font-size="10.00">memory</text>
</a>
</g>
</g>
<!-- Node20&#45;&gt;Node21 -->
<g id="edge33_Node000020_Node000021" class="edge">
<title>Node20&#45;&gt;Node21</title>
<g id="a_edge33_Node000020_Node000021"><a xlink:title=" ">
<path fill="none" stroke="#63b8ff" d="M577.89,-164.98C592.13,-156.69 614.02,-143.94 630.72,-134.22"/>
<polygon fill="#63b8ff" stroke="#63b8ff" points="632.5,-137.23 639.38,-129.17 628.98,-131.18 632.5,-137.23"/>
</a>
</g>
</g>
</g>
</svg>
