<?xml version="1.0" encoding="UTF-8" standalone="no"?>
<!DOCTYPE svg PUBLIC "-//W3C//DTD SVG 1.1//EN"
 "http://www.w3.org/Graphics/SVG/1.1/DTD/svg11.dtd">
<!-- Generated by graphviz version 2.43.0 (0)
 -->
<!-- Title: include/medusa/bits/operators/RaggedShapeStorage_fwd.hpp Pages: 1 -->
<svg width="475pt" height="368pt"
 viewBox="0.00 0.00 475.00 368.00" xmlns="http://www.w3.org/2000/svg" xmlns:xlink="http://www.w3.org/1999/xlink">
<g id="graph0" class="graph" transform="scale(1 1) rotate(0) translate(4 364)">
<title>include/medusa/bits/operators/RaggedShapeStorage_fwd.hpp</title>
<!-- Node1 -->
<g id="Node000001" class="node">
<title>Node1</title>
<g id="a_Node000001"><a xlink:title="Declaration of shape storage for shapes of different sizes.">
<polygon fill="#999999" stroke="#666666" points="318.5,-360 145.5,-360 145.5,-319 318.5,-319 318.5,-360"/>
<text text-anchor="start" x="153.5" y="-348" font-family="Helvetica,sans-Serif" font-size="10.00">include/medusa/bits</text>
<text text-anchor="start" x="153.5" y="-337" font-family="Helvetica,sans-Serif" font-size="10.00">/operators/RaggedShapeStorage</text>
<text text-anchor="middle" x="232" y="-326" font-family="Helvetica,sans-Serif" font-size="10.00">_fwd.hpp</text>
</a>
</g>
</g>
<!-- Node2 -->
<g id="Node000002" class="node">
<title>Node2</title>
<g id="a_Node000002"><a xlink:href="ExplicitOperators__fwd_8hpp.html" target="_top" xlink:title="Explicit operators declarations.">
<polygon fill="white" stroke="#666666" points="212.5,-283 59.5,-283 59.5,-242 212.5,-242 212.5,-283"/>
<text text-anchor="start" x="67.5" y="-271" font-family="Helvetica,sans-Serif" font-size="10.00">include/medusa/bits</text>
<text text-anchor="start" x="67.5" y="-260" font-family="Helvetica,sans-Serif" font-size="10.00">/operators/ExplicitOperators</text>
<text text-anchor="middle" x="136" y="-249" font-family="Helvetica,sans-Serif" font-size="10.00">_fwd.hpp</text>
</a>
</g>
</g>
<!-- Node1&#45;&gt;Node2 -->
<g id="edge1_Node000001_Node000002" class="edge">
<title>Node1&#45;&gt;Node2</title>
<g id="a_edge1_Node000001_Node000002"><a xlink:title=" ">
<path fill="none" stroke="#63b8ff" d="M199.12,-312.82C186.71,-303.11 172.78,-292.24 161.18,-283.17"/>
<polygon fill="#63b8ff" stroke="#63b8ff" points="196.99,-315.59 207.03,-318.99 201.3,-310.08 196.99,-315.59"/>
</a>
</g>
</g>
<!-- Node8 -->
<g id="Node000008" class="node">
<title>Node8</title>
<g id="a_Node000008"><a xlink:href="RaggedShapeStorage_8hpp.html" target="_top" xlink:title="Implementation of shape storage for shapes of different sizes.">
<polygon fill="white" stroke="#666666" points="425,-277.5 231,-277.5 231,-247.5 425,-247.5 425,-277.5"/>
<text text-anchor="start" x="239" y="-265.5" font-family="Helvetica,sans-Serif" font-size="10.00">include/medusa/bits</text>
<text text-anchor="middle" x="328" y="-254.5" font-family="Helvetica,sans-Serif" font-size="10.00">/operators/RaggedShapeStorage.hpp</text>
</a>
</g>
</g>
<!-- Node1&#45;&gt;Node8 -->
<g id="edge8_Node000001_Node000008" class="edge">
<title>Node1&#45;&gt;Node8</title>
<g id="a_edge8_Node000001_Node000008"><a xlink:title=" ">
<path fill="none" stroke="#63b8ff" d="M265.04,-312.69C280.04,-300.97 297.21,-287.56 309.82,-277.7"/>
<polygon fill="#63b8ff" stroke="#63b8ff" points="262.7,-310.08 256.97,-318.99 267.01,-315.59 262.7,-310.08"/>
</a>
</g>
</g>
<!-- Node3 -->
<g id="Node000003" class="node">
<title>Node3</title>
<g id="a_Node000003"><a xlink:href="ExplicitOperators_8hpp.html" target="_top" xlink:title="Explicit operators implementation.">
<polygon fill="white" stroke="#666666" points="223,-206 49,-206 49,-176 223,-176 223,-206"/>
<text text-anchor="start" x="57" y="-194" font-family="Helvetica,sans-Serif" font-size="10.00">include/medusa/bits</text>
<text text-anchor="middle" x="136" y="-183" font-family="Helvetica,sans-Serif" font-size="10.00">/operators/ExplicitOperators.hpp</text>
</a>
</g>
</g>
<!-- Node2&#45;&gt;Node3 -->
<g id="edge2_Node000002_Node000003" class="edge">
<title>Node2&#45;&gt;Node3</title>
<g id="a_edge2_Node000002_Node000003"><a xlink:title=" ">
<path fill="none" stroke="#63b8ff" d="M136,-231.66C136,-222.76 136,-213.42 136,-206.04"/>
<polygon fill="#63b8ff" stroke="#63b8ff" points="132.5,-231.77 136,-241.77 139.5,-231.77 132.5,-231.77"/>
</a>
</g>
</g>
<!-- Node4 -->
<g id="Node000004" class="node">
<title>Node4</title>
<g id="a_Node000004"><a xlink:href="Operators_8hpp.html" target="_top" xlink:title="Header for Operators module.">
<polygon fill="white" stroke="#666666" points="372,-140 206,-140 206,-121 372,-121 372,-140"/>
<text text-anchor="middle" x="289" y="-128" font-family="Helvetica,sans-Serif" font-size="10.00">include/medusa/Operators.hpp</text>
</a>
</g>
</g>
<!-- Node3&#45;&gt;Node4 -->
<g id="edge3_Node000003_Node000004" class="edge">
<title>Node3&#45;&gt;Node4</title>
<g id="a_edge3_Node000003_Node000004"><a xlink:title=" ">
<path fill="none" stroke="#63b8ff" d="M182.21,-172.33C210.07,-161.68 244.33,-148.58 266.41,-140.14"/>
<polygon fill="#63b8ff" stroke="#63b8ff" points="180.74,-169.15 172.65,-175.99 183.24,-175.69 180.74,-169.15"/>
</a>
</g>
</g>
<!-- Node7 -->
<g id="Node000007" class="node">
<title>Node7</title>
<g id="a_Node000007"><a xlink:href="ExplicitOperators_8cpp.html" target="_top" xlink:title="Explicit operators implementation.">
<polygon fill="white" stroke="#666666" points="188,-140 0,-140 0,-121 188,-121 188,-140"/>
<text text-anchor="middle" x="94" y="-128" font-family="Helvetica,sans-Serif" font-size="10.00">src/operators/ExplicitOperators.cpp</text>
</a>
</g>
</g>
<!-- Node3&#45;&gt;Node7 -->
<g id="edge7_Node000003_Node000007" class="edge">
<title>Node3&#45;&gt;Node7</title>
<g id="a_edge7_Node000003_Node000007"><a xlink:title=" ">
<path fill="none" stroke="#63b8ff" d="M119.85,-167.51C113.02,-157.99 105.46,-147.47 100.29,-140.27"/>
<polygon fill="#63b8ff" stroke="#63b8ff" points="117.16,-169.76 125.83,-175.84 122.84,-165.67 117.16,-169.76"/>
</a>
</g>
</g>
<!-- Node5 -->
<g id="Node000005" class="node">
<title>Node5</title>
<g id="a_Node000005"><a xlink:href="Medusa_8hpp.html" target="_top" xlink:title="Main header file that includes most other components.">
<polygon fill="white" stroke="#666666" points="367,-19 211,-19 211,0 367,0 367,-19"/>
<text text-anchor="middle" x="289" y="-7" font-family="Helvetica,sans-Serif" font-size="10.00">include/medusa/Medusa.hpp</text>
</a>
</g>
</g>
<!-- Node4&#45;&gt;Node5 -->
<g id="edge4_Node000004_Node000005" class="edge">
<title>Node4&#45;&gt;Node5</title>
<g id="a_edge4_Node000004_Node000005"><a xlink:title=" ">
<path fill="none" stroke="#63b8ff" d="M275.28,-112.71C269.68,-104.8 263.87,-94.94 261,-85 257.3,-72.19 257.3,-67.81 261,-55 264.95,-41.32 274.48,-27.79 281.33,-19.3"/>
<polygon fill="#63b8ff" stroke="#63b8ff" points="272.5,-114.84 281.33,-120.7 278.08,-110.61 272.5,-114.84"/>
</a>
</g>
</g>
<!-- Node6 -->
<g id="Node000006" class="node">
<title>Node6</title>
<g id="a_Node000006"><a xlink:href="Medusa__fwd_8hpp.html" target="_top" xlink:title="Main header file that includes only declarations for some heavy classes such as mm::WLS to reduce com...">
<polygon fill="white" stroke="#666666" points="404.5,-85 269.5,-85 269.5,-55 404.5,-55 404.5,-85"/>
<text text-anchor="start" x="277.5" y="-73" font-family="Helvetica,sans-Serif" font-size="10.00">include/medusa/Medusa</text>
<text text-anchor="middle" x="337" y="-62" font-family="Helvetica,sans-Serif" font-size="10.00">_fwd.hpp</text>
</a>
</g>
</g>
<!-- Node4&#45;&gt;Node6 -->
<g id="edge5_Node000004_Node000006" class="edge">
<title>Node4&#45;&gt;Node6</title>
<g id="a_edge5_Node000004_Node000006"><a xlink:title=" ">
<path fill="none" stroke="#63b8ff" d="M302.64,-112.88C309.83,-104.11 318.56,-93.48 325.42,-85.11"/>
<polygon fill="#63b8ff" stroke="#63b8ff" points="299.72,-110.92 296.08,-120.87 305.13,-115.36 299.72,-110.92"/>
</a>
</g>
</g>
<!-- Node6&#45;&gt;Node5 -->
<g id="edge6_Node000006_Node000005" class="edge">
<title>Node6&#45;&gt;Node5</title>
<g id="a_edge6_Node000006_Node000005"><a xlink:title=" ">
<path fill="none" stroke="#63b8ff" d="M319.02,-47.09C311.09,-37.42 302.22,-26.61 296.19,-19.27"/>
<polygon fill="#63b8ff" stroke="#63b8ff" points="316.33,-49.33 325.38,-54.84 321.74,-44.89 316.33,-49.33"/>
</a>
</g>
</g>
<!-- Node8&#45;&gt;Node4 -->
<g id="edge9_Node000008_Node000004" class="edge">
<title>Node8&#45;&gt;Node4</title>
<g id="a_edge9_Node000008_Node000004"><a xlink:title=" ">
<path fill="none" stroke="#63b8ff" d="M318.97,-238C315.34,-228.18 311.26,-216.61 308,-206 300.79,-182.52 294.13,-154.31 290.95,-140.29"/>
<polygon fill="#63b8ff" stroke="#63b8ff" points="315.73,-239.35 322.53,-247.48 322.29,-236.89 315.73,-239.35"/>
</a>
</g>
</g>
<!-- Node9 -->
<g id="Node000009" class="node">
<title>Node9</title>
<g id="a_Node000009"><a xlink:href="RaggedShapeStorage_8cpp.html" target="_top" xlink:title="Instantiations of shape storage for shapes of different sizes.">
<polygon fill="white" stroke="#666666" points="467,-206 317,-206 317,-176 467,-176 467,-206"/>
<text text-anchor="start" x="325" y="-194" font-family="Helvetica,sans-Serif" font-size="10.00">src/operators/RaggedShape</text>
<text text-anchor="middle" x="392" y="-183" font-family="Helvetica,sans-Serif" font-size="10.00">Storage.cpp</text>
</a>
</g>
</g>
<!-- Node8&#45;&gt;Node9 -->
<g id="edge10_Node000008_Node000009" class="edge">
<title>Node8&#45;&gt;Node9</title>
<g id="a_edge10_Node000008_Node000009"><a xlink:title=" ">
<path fill="none" stroke="#63b8ff" d="M347.94,-239.85C358.09,-228.83 370.14,-215.74 379.07,-206.04"/>
<polygon fill="#63b8ff" stroke="#63b8ff" points="345.15,-237.71 340.95,-247.44 350.3,-242.45 345.15,-237.71"/>
</a>
</g>
</g>
</g>
</svg>
