<?xml version="1.0" encoding="UTF-8" standalone="no"?>
<!DOCTYPE svg PUBLIC "-//W3C//DTD SVG 1.1//EN"
 "http://www.w3.org/Graphics/SVG/1.1/DTD/svg11.dtd">
<!-- Generated by graphviz version 2.43.0 (0)
 -->
<!-- Title: include/medusa/bits/operators/RaggedShapeStorage_fwd.hpp Pages: 1 -->
<svg width="1319pt" height="478pt"
 viewBox="0.00 0.00 1319.46 478.00" xmlns="http://www.w3.org/2000/svg" xmlns:xlink="http://www.w3.org/1999/xlink">
<g id="graph0" class="graph" transform="scale(1 1) rotate(0) translate(4 474)">
<title>include/medusa/bits/operators/RaggedShapeStorage_fwd.hpp</title>
<!-- Node1 -->
<g id="Node000001" class="node">
<title>Node1</title>
<g id="a_Node000001"><a xlink:title="Declaration of shape storage for shapes of different sizes.">
<polygon fill="#999999" stroke="#666666" points="625.96,-470 452.96,-470 452.96,-429 625.96,-429 625.96,-470"/>
<text text-anchor="start" x="460.96" y="-458" font-family="Helvetica,sans-Serif" font-size="10.00">include/medusa/bits</text>
<text text-anchor="start" x="460.96" y="-447" font-family="Helvetica,sans-Serif" font-size="10.00">/operators/RaggedShapeStorage</text>
<text text-anchor="middle" x="539.46" y="-436" font-family="Helvetica,sans-Serif" font-size="10.00">_fwd.hpp</text>
</a>
</g>
</g>
<!-- Node2 -->
<g id="Node000002" class="node">
<title>Node2</title>
<g id="a_Node000002"><a xlink:href="Config_8hpp.html" target="_top" xlink:title="Contains compile time settings for the project, such as Eigen plugins.">
<polygon fill="white" stroke="#666666" points="580.46,-74 470.46,-74 470.46,-55 580.46,-55 580.46,-74"/>
<text text-anchor="middle" x="525.46" y="-62" font-family="Helvetica,sans-Serif" font-size="10.00">medusa/Config.hpp</text>
</a>
</g>
</g>
<!-- Node1&#45;&gt;Node2 -->
<g id="edge1_Node000001_Node000002" class="edge">
<title>Node1&#45;&gt;Node2</title>
<g id="a_edge1_Node000001_Node000002"><a xlink:title=" ">
<path fill="none" stroke="#63b8ff" d="M545.15,-428.95C552.24,-402.78 563.46,-354.81 563.46,-313 563.46,-313 563.46,-313 563.46,-179 563.46,-143.48 546.52,-104.79 535.26,-83"/>
<polygon fill="#63b8ff" stroke="#63b8ff" points="538.24,-81.16 530.43,-74 532.07,-84.47 538.24,-81.16"/>
</a>
</g>
</g>
<!-- Node4 -->
<g id="Node000004" class="node">
<title>Node4</title>
<g id="a_Node000004"><a xlink:href="ShapeStorage__fwd_8hpp.html" target="_top" xlink:title="Base class and interface for storing and accessing computed shapes.">
<polygon fill="white" stroke="#666666" points="534.96,-261 403.96,-261 403.96,-231 534.96,-231 534.96,-261"/>
<text text-anchor="start" x="411.96" y="-249" font-family="Helvetica,sans-Serif" font-size="10.00">medusa/bits/operators</text>
<text text-anchor="middle" x="469.46" y="-238" font-family="Helvetica,sans-Serif" font-size="10.00">/ShapeStorage_fwd.hpp</text>
</a>
</g>
</g>
<!-- Node1&#45;&gt;Node4 -->
<g id="edge3_Node000001_Node000004" class="edge">
<title>Node1&#45;&gt;Node4</title>
<g id="a_edge3_Node000001_Node000004"><a xlink:title=" ">
<path fill="none" stroke="#63b8ff" d="M532.62,-428.81C519.68,-391.55 491.65,-310.87 477.7,-270.71"/>
<polygon fill="#63b8ff" stroke="#63b8ff" points="480.98,-269.49 474.39,-261.2 474.37,-271.79 480.98,-269.49"/>
</a>
</g>
</g>
<!-- Node20 -->
<g id="Node000020" class="node">
<title>Node20</title>
<g id="a_Node000020"><a xlink:title=" ">
<polygon fill="#e0e0e0" stroke="#999999" points="92.96,-74 23.96,-74 23.96,-55 92.96,-55 92.96,-74"/>
<text text-anchor="middle" x="58.46" y="-62" font-family="Helvetica,sans-Serif" font-size="10.00">Eigen/Core</text>
</a>
</g>
</g>
<!-- Node1&#45;&gt;Node20 -->
<g id="edge52_Node000001_Node000020" class="edge">
<title>Node1&#45;&gt;Node20</title>
<g id="a_edge52_Node000001_Node000020"><a xlink:title=" ">
<path fill="none" stroke="#63b8ff" d="M452.9,-444.01C303.58,-433.87 13.46,-402.64 13.46,-313 13.46,-313 13.46,-313 13.46,-179 13.46,-142.79 33.5,-104.36 46.83,-82.8"/>
<polygon fill="#63b8ff" stroke="#63b8ff" points="49.93,-84.46 52.39,-74.15 44.04,-80.67 49.93,-84.46"/>
</a>
</g>
</g>
<!-- Node23 -->
<g id="Node000023" class="node">
<title>Node23</title>
<g id="a_Node000023"><a xlink:href="shape__flags_8hpp.html" target="_top" xlink:title="Definition of flags related to shape computation.">
<polygon fill="white" stroke="#666666" points="864.46,-393 738.46,-393 738.46,-363 864.46,-363 864.46,-393"/>
<text text-anchor="start" x="746.46" y="-381" font-family="Helvetica,sans-Serif" font-size="10.00">medusa/bits/operators</text>
<text text-anchor="middle" x="801.46" y="-370" font-family="Helvetica,sans-Serif" font-size="10.00">/shape_flags.hpp</text>
</a>
</g>
</g>
<!-- Node1&#45;&gt;Node23 -->
<g id="edge41_Node000001_Node000023" class="edge">
<title>Node1&#45;&gt;Node23</title>
<g id="a_edge41_Node000001_Node000023"><a xlink:title=" ">
<path fill="none" stroke="#63b8ff" d="M613.14,-428.96C652.74,-418.45 701.04,-405.64 738.81,-395.62"/>
<polygon fill="#63b8ff" stroke="#63b8ff" points="739.9,-398.95 748.67,-393 738.1,-392.18 739.9,-398.95"/>
</a>
</g>
</g>
<!-- Node3 -->
<g id="Node000003" class="node">
<title>Node3</title>
<g id="a_Node000003"><a xlink:title=" ">
<polygon fill="#e0e0e0" stroke="#999999" points="744.96,-19 697.96,-19 697.96,0 744.96,0 744.96,-19"/>
<text text-anchor="middle" x="721.46" y="-7" font-family="Helvetica,sans-Serif" font-size="10.00">vector</text>
</a>
</g>
</g>
<!-- Node2&#45;&gt;Node3 -->
<g id="edge2_Node000002_Node000003" class="edge">
<title>Node2&#45;&gt;Node3</title>
<g id="a_edge2_Node000002_Node000003"><a xlink:title=" ">
<path fill="none" stroke="#63b8ff" d="M556.95,-54.98C592.86,-45.28 651.31,-29.47 688.01,-19.54"/>
<polygon fill="#63b8ff" stroke="#63b8ff" points="689.01,-22.9 697.75,-16.91 687.18,-16.14 689.01,-22.9"/>
</a>
</g>
</g>
<!-- Node4&#45;&gt;Node2 -->
<g id="edge4_Node000004_Node000002" class="edge">
<title>Node4&#45;&gt;Node2</title>
<g id="a_edge4_Node000004_Node000002"><a xlink:title=" ">
<path fill="none" stroke="#63b8ff" d="M473.85,-230.91C483.9,-198.71 508.55,-119.7 519.75,-83.8"/>
<polygon fill="#63b8ff" stroke="#63b8ff" points="523.13,-84.72 522.77,-74.13 516.45,-82.64 523.13,-84.72"/>
</a>
</g>
</g>
<!-- Node5 -->
<g id="Node000005" class="node">
<title>Node5</title>
<g id="a_Node000005"><a xlink:href="Range__fwd_8hpp.html" target="_top" xlink:title="Declaration of Range.">
<polygon fill="white" stroke="#666666" points="731.46,-195 591.46,-195 591.46,-165 731.46,-165 731.46,-195"/>
<text text-anchor="start" x="599.46" y="-183" font-family="Helvetica,sans-Serif" font-size="10.00">medusa/bits/types/Range</text>
<text text-anchor="middle" x="661.46" y="-172" font-family="Helvetica,sans-Serif" font-size="10.00">_fwd.hpp</text>
</a>
</g>
</g>
<!-- Node4&#45;&gt;Node5 -->
<g id="edge5_Node000004_Node000005" class="edge">
<title>Node4&#45;&gt;Node5</title>
<g id="a_edge5_Node000004_Node000005"><a xlink:title=" ">
<path fill="none" stroke="#63b8ff" d="M511.59,-230.95C540.48,-221.33 578.99,-208.49 609.73,-198.24"/>
<polygon fill="#63b8ff" stroke="#63b8ff" points="611.04,-201.5 619.42,-195.01 608.83,-194.85 611.04,-201.5"/>
</a>
</g>
</g>
<!-- Node12 -->
<g id="Node000012" class="node">
<title>Node12</title>
<g id="a_Node000012"><a xlink:title=" ">
<polygon fill="#e0e0e0" stroke="#999999" points="1283.96,-19 1242.96,-19 1242.96,0 1283.96,0 1283.96,-19"/>
<text text-anchor="middle" x="1263.46" y="-7" font-family="Helvetica,sans-Serif" font-size="10.00">tuple</text>
</a>
</g>
</g>
<!-- Node4&#45;&gt;Node12 -->
<g id="edge39_Node000004_Node000012" class="edge">
<title>Node4&#45;&gt;Node12</title>
<g id="a_edge39_Node000004_Node000012"><a xlink:title=" ">
<path fill="none" stroke="#63b8ff" d="M535.18,-243.03C699.2,-237.75 1117.52,-221.79 1174.46,-195 1233.93,-167.02 1245.01,-138.11 1259.46,-74 1262.77,-59.31 1263.69,-42.27 1263.83,-29.54"/>
<polygon fill="#63b8ff" stroke="#63b8ff" points="1267.32,-29.23 1263.78,-19.25 1260.32,-29.27 1267.32,-29.23"/>
</a>
</g>
</g>
<!-- Node15 -->
<g id="Node000015" class="node">
<title>Node15</title>
<g id="a_Node000015"><a xlink:title=" ">
<polygon fill="#e0e0e0" stroke="#999999" points="269.46,-74 221.46,-74 221.46,-55 269.46,-55 269.46,-74"/>
<text text-anchor="middle" x="245.46" y="-62" font-family="Helvetica,sans-Serif" font-size="10.00">iosfwd</text>
</a>
</g>
</g>
<!-- Node4&#45;&gt;Node15 -->
<g id="edge38_Node000004_Node000015" class="edge">
<title>Node4&#45;&gt;Node15</title>
<g id="a_edge38_Node000004_Node000015"><a xlink:title=" ">
<path fill="none" stroke="#63b8ff" d="M459.7,-230.85C447.57,-213.91 425.63,-185.29 402.46,-165 360.7,-128.43 304.17,-96.08 271.58,-78.79"/>
<polygon fill="#63b8ff" stroke="#63b8ff" points="273.15,-75.66 262.66,-74.12 269.9,-81.86 273.15,-75.66"/>
</a>
</g>
</g>
<!-- Node16 -->
<g id="Node000016" class="node">
<title>Node16</title>
<g id="a_Node000016"><a xlink:href="stdtypesutils_8hpp.html" target="_top" xlink:title="Declaration of utilities for std types.">
<polygon fill="white" stroke="#666666" points="1165.46,-189.5 977.46,-189.5 977.46,-170.5 1165.46,-170.5 1165.46,-189.5"/>
<text text-anchor="middle" x="1071.46" y="-177.5" font-family="Helvetica,sans-Serif" font-size="10.00">medusa/bits/utils/stdtypesutils.hpp</text>
</a>
</g>
</g>
<!-- Node4&#45;&gt;Node16 -->
<g id="edge19_Node000004_Node000016" class="edge">
<title>Node4&#45;&gt;Node16</title>
<g id="a_edge19_Node000004_Node000016"><a xlink:title=" ">
<path fill="none" stroke="#63b8ff" d="M535.03,-238.03C643.07,-226.54 858.69,-203.62 981.11,-190.61"/>
<polygon fill="#63b8ff" stroke="#63b8ff" points="981.63,-194.07 991.21,-189.53 980.89,-187.11 981.63,-194.07"/>
</a>
</g>
</g>
<!-- Node19 -->
<g id="Node000019" class="node">
<title>Node19</title>
<g id="a_Node000019"><a xlink:href="Operators__fwd_8hpp.html" target="_top" xlink:title="File defining basic differential operator families.">
<polygon fill="white" stroke="#666666" points="393.46,-195 237.46,-195 237.46,-165 393.46,-165 393.46,-195"/>
<text text-anchor="start" x="245.46" y="-183" font-family="Helvetica,sans-Serif" font-size="10.00">medusa/bits/approximations</text>
<text text-anchor="middle" x="315.46" y="-172" font-family="Helvetica,sans-Serif" font-size="10.00">/Operators_fwd.hpp</text>
</a>
</g>
</g>
<!-- Node4&#45;&gt;Node19 -->
<g id="edge26_Node000004_Node000019" class="edge">
<title>Node4&#45;&gt;Node19</title>
<g id="a_edge26_Node000004_Node000019"><a xlink:title=" ">
<path fill="none" stroke="#63b8ff" d="M435.66,-230.95C413,-221.53 382.94,-209.04 358.56,-198.91"/>
<polygon fill="#63b8ff" stroke="#63b8ff" points="359.75,-195.62 349.18,-195.01 357.07,-202.08 359.75,-195.62"/>
</a>
</g>
</g>
<!-- Node4&#45;&gt;Node20 -->
<g id="edge40_Node000004_Node000020" class="edge">
<title>Node4&#45;&gt;Node20</title>
<g id="a_edge40_Node000004_Node000020"><a xlink:title=" ">
<path fill="none" stroke="#63b8ff" d="M403.74,-235.43C354.7,-227.31 286.44,-213.95 228.46,-195 161.16,-173.01 132.21,-180.35 83.46,-129 71.75,-116.66 65.31,-98.18 61.91,-84.34"/>
<polygon fill="#63b8ff" stroke="#63b8ff" points="65.31,-83.48 59.8,-74.43 58.46,-84.94 65.31,-83.48"/>
</a>
</g>
</g>
<!-- Node5&#45;&gt;Node2 -->
<g id="edge6_Node000005_Node000002" class="edge">
<title>Node5&#45;&gt;Node2</title>
<g id="a_edge6_Node000005_Node000002"><a xlink:title=" ">
<path fill="none" stroke="#63b8ff" d="M644.51,-164.85C618.81,-143.41 570.18,-102.82 543.72,-80.74"/>
<polygon fill="#63b8ff" stroke="#63b8ff" points="545.89,-77.99 535.97,-74.27 541.4,-83.37 545.89,-77.99"/>
</a>
</g>
</g>
<!-- Node5&#45;&gt;Node3 -->
<g id="edge17_Node000005_Node000003" class="edge">
<title>Node5&#45;&gt;Node3</title>
<g id="a_edge17_Node000005_Node000003"><a xlink:title=" ">
<path fill="none" stroke="#63b8ff" d="M676.72,-164.68C685.67,-155.38 696.38,-142.51 702.46,-129 717.23,-96.18 720.72,-53.7 721.42,-29.54"/>
<polygon fill="#63b8ff" stroke="#63b8ff" points="724.93,-29.32 721.59,-19.27 717.93,-29.21 724.93,-29.32"/>
</a>
</g>
</g>
<!-- Node6 -->
<g id="Node000006" class="node">
<title>Node6</title>
<g id="a_Node000006"><a xlink:href="assert_8hpp.html" target="_top" xlink:title="Implementation of custom assert and debug utilities.">
<polygon fill="white" stroke="#666666" points="904.96,-129 749.96,-129 749.96,-110 904.96,-110 904.96,-129"/>
<text text-anchor="middle" x="827.46" y="-117" font-family="Helvetica,sans-Serif" font-size="10.00">medusa/bits/utils/assert.hpp</text>
</a>
</g>
</g>
<!-- Node5&#45;&gt;Node6 -->
<g id="edge7_Node000005_Node000006" class="edge">
<title>Node5&#45;&gt;Node6</title>
<g id="a_edge7_Node000005_Node000006"><a xlink:title=" ">
<path fill="none" stroke="#63b8ff" d="M701.22,-164.99C729.29,-155.1 766.51,-141.98 793.25,-132.56"/>
<polygon fill="#63b8ff" stroke="#63b8ff" points="794.68,-135.76 802.94,-129.14 792.35,-129.16 794.68,-135.76"/>
</a>
</g>
</g>
<!-- Node13 -->
<g id="Node000013" class="node">
<title>Node13</title>
<g id="a_Node000013"><a xlink:href="traits_8hpp.html" target="_top" xlink:title="Type traits definition for vector and scalar fields.">
<polygon fill="white" stroke="#666666" points="692.96,-129 629.96,-129 629.96,-110 692.96,-110 692.96,-129"/>
<text text-anchor="middle" x="661.46" y="-117" font-family="Helvetica,sans-Serif" font-size="10.00">traits.hpp</text>
</a>
</g>
</g>
<!-- Node5&#45;&gt;Node13 -->
<g id="edge15_Node000005_Node000013" class="edge">
<title>Node5&#45;&gt;Node13</title>
<g id="a_edge15_Node000005_Node000013"><a xlink:title=" ">
<path fill="none" stroke="#63b8ff" d="M661.46,-164.84C661.46,-157.21 661.46,-147.7 661.46,-139.45"/>
<polygon fill="#63b8ff" stroke="#63b8ff" points="664.96,-139.27 661.46,-129.27 657.96,-139.27 664.96,-139.27"/>
</a>
</g>
</g>
<!-- Node14 -->
<g id="Node000014" class="node">
<title>Node14</title>
<g id="a_Node000014"><a xlink:title=" ">
<polygon fill="#e0e0e0" stroke="#999999" points="981.46,-129 923.46,-129 923.46,-110 981.46,-110 981.46,-129"/>
<text text-anchor="middle" x="952.46" y="-117" font-family="Helvetica,sans-Serif" font-size="10.00">memory</text>
</a>
</g>
</g>
<!-- Node5&#45;&gt;Node14 -->
<g id="edge16_Node000005_Node000014" class="edge">
<title>Node5&#45;&gt;Node14</title>
<g id="a_edge16_Node000005_Node000014"><a xlink:title=" ">
<path fill="none" stroke="#63b8ff" d="M731.63,-165.62C780.08,-156.27 846.24,-143.27 913.5,-129.16"/>
<polygon fill="#63b8ff" stroke="#63b8ff" points="914.36,-132.56 923.43,-127.07 912.92,-125.71 914.36,-132.56"/>
</a>
</g>
</g>
<!-- Node5&#45;&gt;Node15 -->
<g id="edge18_Node000005_Node000015" class="edge">
<title>Node5&#45;&gt;Node15</title>
<g id="a_edge18_Node000005_Node000015"><a xlink:title=" ">
<path fill="none" stroke="#63b8ff" d="M610.03,-164.97C523.84,-141.45 352.5,-94.71 279.59,-74.81"/>
<polygon fill="#63b8ff" stroke="#63b8ff" points="280.13,-71.33 269.57,-72.08 278.29,-78.09 280.13,-71.33"/>
</a>
</g>
</g>
<!-- Node7 -->
<g id="Node000007" class="node">
<title>Node7</title>
<g id="a_Node000007"><a xlink:title=" ">
<polygon fill="#e0e0e0" stroke="#999999" points="893.46,-74 761.46,-74 761.46,-55 893.46,-55 893.46,-74"/>
<text text-anchor="middle" x="827.46" y="-62" font-family="Helvetica,sans-Serif" font-size="10.00">tinyformat/tinyformat.h</text>
</a>
</g>
</g>
<!-- Node6&#45;&gt;Node7 -->
<g id="edge8_Node000006_Node000007" class="edge">
<title>Node6&#45;&gt;Node7</title>
<g id="a_edge8_Node000006_Node000007"><a xlink:title=" ">
<path fill="none" stroke="#63b8ff" d="M827.46,-109.75C827.46,-102.8 827.46,-92.85 827.46,-84.13"/>
<polygon fill="#63b8ff" stroke="#63b8ff" points="830.96,-84.09 827.46,-74.09 823.96,-84.09 830.96,-84.09"/>
</a>
</g>
</g>
<!-- Node8 -->
<g id="Node000008" class="node">
<title>Node8</title>
<g id="a_Node000008"><a xlink:href="print_8hpp.html" target="_top" xlink:title="Printing helpers for std types.">
<polygon fill="white" stroke="#666666" points="1197.46,-74 1137.46,-74 1137.46,-55 1197.46,-55 1197.46,-74"/>
<text text-anchor="middle" x="1167.46" y="-62" font-family="Helvetica,sans-Serif" font-size="10.00">print.hpp</text>
</a>
</g>
</g>
<!-- Node6&#45;&gt;Node8 -->
<g id="edge9_Node000006_Node000008" class="edge">
<title>Node6&#45;&gt;Node8</title>
<g id="a_edge9_Node000006_Node000008"><a xlink:title=" ">
<path fill="none" stroke="#63b8ff" d="M882.09,-109.98C950.58,-99.31 1066.39,-81.25 1127.28,-71.76"/>
<polygon fill="#63b8ff" stroke="#63b8ff" points="1127.94,-75.2 1137.28,-70.2 1126.86,-68.29 1127.94,-75.2"/>
</a>
</g>
</g>
<!-- Node8&#45;&gt;Node3 -->
<g id="edge11_Node000008_Node000003" class="edge">
<title>Node8&#45;&gt;Node3</title>
<g id="a_edge11_Node000008_Node000003"><a xlink:title=" ">
<path fill="none" stroke="#63b8ff" d="M1137.22,-57.33C1132.62,-56.48 1127.92,-55.68 1123.46,-55 987.71,-34.41 824.8,-19.31 755.42,-13.33"/>
<polygon fill="#63b8ff" stroke="#63b8ff" points="755.37,-9.81 745.11,-12.45 754.77,-16.79 755.37,-9.81"/>
</a>
</g>
</g>
<!-- Node9 -->
<g id="Node000009" class="node">
<title>Node9</title>
<g id="a_Node000009"><a xlink:title=" ">
<polygon fill="#e0e0e0" stroke="#999999" points="1206.46,-19 1146.46,-19 1146.46,0 1206.46,0 1206.46,-19"/>
<text text-anchor="middle" x="1176.46" y="-7" font-family="Helvetica,sans-Serif" font-size="10.00">iostream</text>
</a>
</g>
</g>
<!-- Node8&#45;&gt;Node9 -->
<g id="edge10_Node000008_Node000009" class="edge">
<title>Node8&#45;&gt;Node9</title>
<g id="a_edge10_Node000008_Node000009"><a xlink:title=" ">
<path fill="none" stroke="#63b8ff" d="M1168.95,-54.75C1170.13,-47.8 1171.82,-37.85 1173.29,-29.13"/>
<polygon fill="#63b8ff" stroke="#63b8ff" points="1176.78,-29.53 1175,-19.09 1169.88,-28.36 1176.78,-29.53"/>
</a>
</g>
</g>
<!-- Node10 -->
<g id="Node000010" class="node">
<title>Node10</title>
<g id="a_Node000010"><a xlink:title=" ">
<polygon fill="#e0e0e0" stroke="#999999" points="266.46,-19 224.46,-19 224.46,0 266.46,0 266.46,-19"/>
<text text-anchor="middle" x="245.46" y="-7" font-family="Helvetica,sans-Serif" font-size="10.00">array</text>
</a>
</g>
</g>
<!-- Node8&#45;&gt;Node10 -->
<g id="edge12_Node000008_Node000010" class="edge">
<title>Node8&#45;&gt;Node10</title>
<g id="a_edge12_Node000008_Node000010"><a xlink:title=" ">
<path fill="none" stroke="#63b8ff" d="M1137.31,-61.77C998.17,-53.77 418.9,-20.47 276.96,-12.31"/>
<polygon fill="#63b8ff" stroke="#63b8ff" points="276.96,-8.8 266.77,-11.73 276.55,-15.79 276.96,-8.8"/>
</a>
</g>
</g>
<!-- Node11 -->
<g id="Node000011" class="node">
<title>Node11</title>
<g id="a_Node000011"><a xlink:title=" ">
<polygon fill="#e0e0e0" stroke="#999999" points="1127.96,-19 1082.96,-19 1082.96,0 1127.96,0 1127.96,-19"/>
<text text-anchor="middle" x="1105.46" y="-7" font-family="Helvetica,sans-Serif" font-size="10.00">utility</text>
</a>
</g>
</g>
<!-- Node8&#45;&gt;Node11 -->
<g id="edge13_Node000008_Node000011" class="edge">
<title>Node8&#45;&gt;Node11</title>
<g id="a_edge13_Node000008_Node000011"><a xlink:title=" ">
<path fill="none" stroke="#63b8ff" d="M1157.5,-54.98C1148.33,-47.15 1134.52,-35.34 1123.43,-25.86"/>
<polygon fill="#63b8ff" stroke="#63b8ff" points="1125.48,-23.01 1115.6,-19.17 1120.93,-28.33 1125.48,-23.01"/>
</a>
</g>
</g>
<!-- Node8&#45;&gt;Node12 -->
<g id="edge14_Node000008_Node000012" class="edge">
<title>Node8&#45;&gt;Node12</title>
<g id="a_edge14_Node000008_Node000012"><a xlink:title=" ">
<path fill="none" stroke="#63b8ff" d="M1182.88,-54.98C1197.91,-46.69 1221,-33.94 1238.62,-24.22"/>
<polygon fill="#63b8ff" stroke="#63b8ff" points="1240.69,-27.07 1247.75,-19.17 1237.31,-20.94 1240.69,-27.07"/>
</a>
</g>
</g>
<!-- Node16&#45;&gt;Node2 -->
<g id="edge20_Node000016_Node000002" class="edge">
<title>Node16&#45;&gt;Node2</title>
<g id="a_edge20_Node000016_Node000002"><a xlink:title=" ">
<path fill="none" stroke="#63b8ff" d="M1071.95,-170.14C1072.25,-155.14 1070.43,-124.93 1052.46,-110 1034.95,-95.45 728.25,-76.74 590.97,-69.04"/>
<polygon fill="#63b8ff" stroke="#63b8ff" points="590.77,-65.53 580.59,-68.46 590.38,-72.52 590.77,-65.53"/>
</a>
</g>
</g>
<!-- Node16&#45;&gt;Node3 -->
<g id="edge23_Node000016_Node000003" class="edge">
<title>Node16&#45;&gt;Node3</title>
<g id="a_edge23_Node000016_Node000003"><a xlink:title=" ">
<path fill="none" stroke="#63b8ff" d="M1074.58,-170.39C1079.1,-156.28 1085.57,-128.02 1072.46,-110 1034.57,-57.92 835.37,-25.79 755.06,-14.78"/>
<polygon fill="#63b8ff" stroke="#63b8ff" points="755.37,-11.29 744.99,-13.43 754.43,-18.23 755.37,-11.29"/>
</a>
</g>
</g>
<!-- Node16&#45;&gt;Node6 -->
<g id="edge21_Node000016_Node000006" class="edge">
<title>Node16&#45;&gt;Node6</title>
<g id="a_edge21_Node000016_Node000006"><a xlink:title=" ">
<path fill="none" stroke="#63b8ff" d="M1035.98,-170.49C992.88,-160.16 920.1,-142.71 872.93,-131.4"/>
<polygon fill="#63b8ff" stroke="#63b8ff" points="873.52,-127.94 862.98,-129.02 871.89,-134.75 873.52,-127.94"/>
</a>
</g>
</g>
<!-- Node16&#45;&gt;Node12 -->
<g id="edge24_Node000016_Node000012" class="edge">
<title>Node16&#45;&gt;Node12</title>
<g id="a_edge24_Node000016_Node000012"><a xlink:title=" ">
<path fill="none" stroke="#63b8ff" d="M1130.83,-170.44C1159.77,-163.54 1193.26,-151.17 1216.46,-129 1245.03,-101.7 1256.61,-54.82 1261,-28.97"/>
<polygon fill="#63b8ff" stroke="#63b8ff" points="1264.48,-29.41 1262.51,-19 1257.56,-28.37 1264.48,-29.41"/>
</a>
</g>
</g>
<!-- Node17 -->
<g id="Node000017" class="node">
<title>Node17</title>
<g id="a_Node000017"><a xlink:title=" ">
<polygon fill="#e0e0e0" stroke="#999999" points="1043.46,-129 999.46,-129 999.46,-110 1043.46,-110 1043.46,-129"/>
<text text-anchor="middle" x="1021.46" y="-117" font-family="Helvetica,sans-Serif" font-size="10.00">string</text>
</a>
</g>
</g>
<!-- Node16&#45;&gt;Node17 -->
<g id="edge22_Node000016_Node000017" class="edge">
<title>Node16&#45;&gt;Node17</title>
<g id="a_edge22_Node000016_Node000017"><a xlink:title=" ">
<path fill="none" stroke="#63b8ff" d="M1064.08,-170.37C1056.55,-161.55 1044.67,-147.66 1035.37,-136.77"/>
<polygon fill="#63b8ff" stroke="#63b8ff" points="1038.03,-134.5 1028.87,-129.17 1032.7,-139.04 1038.03,-134.5"/>
</a>
</g>
</g>
<!-- Node18 -->
<g id="Node000018" class="node">
<title>Node18</title>
<g id="a_Node000018"><a xlink:title=" ">
<polygon fill="#e0e0e0" stroke="#999999" points="1206.96,-129 1137.96,-129 1137.96,-110 1206.96,-110 1206.96,-129"/>
<text text-anchor="middle" x="1172.46" y="-117" font-family="Helvetica,sans-Serif" font-size="10.00">type_traits</text>
</a>
</g>
</g>
<!-- Node16&#45;&gt;Node18 -->
<g id="edge25_Node000016_Node000018" class="edge">
<title>Node16&#45;&gt;Node18</title>
<g id="a_edge25_Node000016_Node000018"><a xlink:title=" ">
<path fill="none" stroke="#63b8ff" d="M1086.36,-170.37C1102.77,-160.86 1129.39,-145.45 1148.69,-134.27"/>
<polygon fill="#63b8ff" stroke="#63b8ff" points="1150.6,-137.21 1157.5,-129.17 1147.09,-131.15 1150.6,-137.21"/>
</a>
</g>
</g>
<!-- Node19&#45;&gt;Node2 -->
<g id="edge27_Node000019_Node000002" class="edge">
<title>Node19&#45;&gt;Node2</title>
<g id="a_edge27_Node000019_Node000002"><a xlink:title=" ">
<path fill="none" stroke="#63b8ff" d="M339.12,-164.81C363.15,-150.54 401.54,-128.11 435.46,-110 456.22,-98.91 480.11,-87.15 498.06,-78.5"/>
<polygon fill="#63b8ff" stroke="#63b8ff" points="499.86,-81.52 507.36,-74.04 496.83,-75.2 499.86,-81.52"/>
</a>
</g>
</g>
<!-- Node19&#45;&gt;Node3 -->
<g id="edge29_Node000019_Node000003" class="edge">
<title>Node19&#45;&gt;Node3</title>
<g id="a_edge29_Node000019_Node000003"><a xlink:title=" ">
<path fill="none" stroke="#63b8ff" d="M327.42,-164.69C350.41,-138.26 403.6,-82.01 461.46,-55 536.81,-19.82 636.08,-12.16 687.42,-10.68"/>
<polygon fill="#63b8ff" stroke="#63b8ff" points="687.71,-14.17 697.63,-10.45 687.55,-7.17 687.71,-14.17"/>
</a>
</g>
</g>
<!-- Node19&#45;&gt;Node6 -->
<g id="edge37_Node000019_Node000006" class="edge">
<title>Node19&#45;&gt;Node6</title>
<g id="a_edge37_Node000019_Node000006"><a xlink:title=" ">
<path fill="none" stroke="#63b8ff" d="M393.5,-170.08C487.72,-159.32 645.61,-141.28 742.73,-130.18"/>
<polygon fill="#63b8ff" stroke="#63b8ff" points="743.27,-133.64 752.81,-129.03 742.48,-126.69 743.27,-133.64"/>
</a>
</g>
</g>
<!-- Node19&#45;&gt;Node10 -->
<g id="edge28_Node000019_Node000010" class="edge">
<title>Node19&#45;&gt;Node10</title>
<g id="a_edge28_Node000019_Node000010"><a xlink:title=" ">
<path fill="none" stroke="#63b8ff" d="M312.87,-164.64C308.22,-140.89 297.16,-92.37 278.46,-55 273.46,-45.02 266.22,-34.95 259.79,-26.91"/>
<polygon fill="#63b8ff" stroke="#63b8ff" points="262.37,-24.54 253.27,-19.1 256.99,-29.02 262.37,-24.54"/>
</a>
</g>
</g>
<!-- Node19&#45;&gt;Node20 -->
<g id="edge30_Node000019_Node000020" class="edge">
<title>Node19&#45;&gt;Node20</title>
<g id="a_edge30_Node000019_Node000020"><a xlink:title=" ">
<path fill="none" stroke="#63b8ff" d="M237.39,-172.5C196.42,-166.16 146.89,-153.65 108.46,-129 90.8,-117.67 76.72,-97.92 68.05,-83.44"/>
<polygon fill="#63b8ff" stroke="#63b8ff" points="70.92,-81.41 62.94,-74.44 64.83,-84.86 70.92,-81.41"/>
</a>
</g>
</g>
<!-- Node21 -->
<g id="Node000021" class="node">
<title>Node21</title>
<g id="a_Node000021"><a xlink:href="Monomials__fwd_8hpp.html" target="_top" xlink:title="Declaration of Monomial basis.">
<polygon fill="white" stroke="#666666" points="231.46,-129 117.46,-129 117.46,-110 231.46,-110 231.46,-129"/>
<text text-anchor="middle" x="174.46" y="-117" font-family="Helvetica,sans-Serif" font-size="10.00">Monomials_fwd.hpp</text>
</a>
</g>
</g>
<!-- Node19&#45;&gt;Node21 -->
<g id="edge31_Node000019_Node000021" class="edge">
<title>Node19&#45;&gt;Node21</title>
<g id="a_edge31_Node000019_Node000021"><a xlink:title=" ">
<path fill="none" stroke="#63b8ff" d="M281.69,-164.99C258.27,-155.27 227.34,-142.44 204.73,-133.06"/>
<polygon fill="#63b8ff" stroke="#63b8ff" points="205.86,-129.74 195.28,-129.14 203.18,-136.2 205.86,-129.74"/>
</a>
</g>
</g>
<!-- Node21&#45;&gt;Node2 -->
<g id="edge32_Node000021_Node000002" class="edge">
<title>Node21&#45;&gt;Node2</title>
<g id="a_edge32_Node000021_Node000002"><a xlink:title=" ">
<path fill="none" stroke="#63b8ff" d="M230.85,-109.98C293.4,-100.54 394.15,-85.33 460.09,-75.37"/>
<polygon fill="#63b8ff" stroke="#63b8ff" points="461,-78.77 470.36,-73.82 459.95,-71.85 461,-78.77"/>
</a>
</g>
</g>
<!-- Node21&#45;&gt;Node10 -->
<g id="edge34_Node000021_Node000010" class="edge">
<title>Node21&#45;&gt;Node10</title>
<g id="a_edge34_Node000021_Node000010"><a xlink:title=" ">
<path fill="none" stroke="#63b8ff" d="M179.36,-109.7C186.35,-97.29 199.76,-74.02 212.46,-55 218.73,-45.6 226.2,-35.46 232.44,-27.23"/>
<polygon fill="#63b8ff" stroke="#63b8ff" points="235.31,-29.24 238.62,-19.18 229.76,-24.98 235.31,-29.24"/>
</a>
</g>
</g>
<!-- Node21&#45;&gt;Node15 -->
<g id="edge36_Node000021_Node000015" class="edge">
<title>Node21&#45;&gt;Node15</title>
<g id="a_edge36_Node000021_Node000015"><a xlink:title=" ">
<path fill="none" stroke="#63b8ff" d="M185.87,-109.98C196.57,-102 212.8,-89.88 225.62,-80.31"/>
<polygon fill="#63b8ff" stroke="#63b8ff" points="227.92,-82.96 233.84,-74.17 223.74,-77.35 227.92,-82.96"/>
</a>
</g>
</g>
<!-- Node21&#45;&gt;Node20 -->
<g id="edge35_Node000021_Node000020" class="edge">
<title>Node21&#45;&gt;Node20</title>
<g id="a_edge35_Node000021_Node000020"><a xlink:title=" ">
<path fill="none" stroke="#63b8ff" d="M155.82,-109.98C137.16,-101.46 108.21,-88.23 86.72,-78.41"/>
<polygon fill="#63b8ff" stroke="#63b8ff" points="87.99,-75.14 77.44,-74.17 85.08,-81.51 87.99,-75.14"/>
</a>
</g>
</g>
<!-- Node22 -->
<g id="Node000022" class="node">
<title>Node22</title>
<g id="a_Node000022"><a xlink:title=" ">
<polygon fill="#e0e0e0" stroke="#999999" points="164.96,-74 117.96,-74 117.96,-55 164.96,-55 164.96,-74"/>
<text text-anchor="middle" x="141.46" y="-62" font-family="Helvetica,sans-Serif" font-size="10.00">cmath</text>
</a>
</g>
</g>
<!-- Node21&#45;&gt;Node22 -->
<g id="edge33_Node000021_Node000022" class="edge">
<title>Node21&#45;&gt;Node22</title>
<g id="a_edge33_Node000021_Node000022"><a xlink:title=" ">
<path fill="none" stroke="#63b8ff" d="M169.01,-109.75C164.44,-102.42 157.79,-91.73 152.17,-82.7"/>
<polygon fill="#63b8ff" stroke="#63b8ff" points="155.06,-80.73 146.81,-74.09 149.12,-84.43 155.06,-80.73"/>
</a>
</g>
</g>
<!-- Node23&#45;&gt;Node12 -->
<g id="edge43_Node000023_Node000012" class="edge">
<title>Node23&#45;&gt;Node12</title>
<g id="a_edge43_Node000023_Node000012"><a xlink:title=" ">
<path fill="none" stroke="#63b8ff" d="M864.51,-374.15C1000.96,-366.25 1311.46,-338.26 1311.46,-247 1311.46,-247 1311.46,-247 1311.46,-118.5 1311.46,-83.8 1290.52,-47.82 1276.3,-27.39"/>
<polygon fill="#63b8ff" stroke="#63b8ff" points="1279.04,-25.21 1270.34,-19.16 1273.37,-29.31 1279.04,-25.21"/>
</a>
</g>
</g>
<!-- Node23&#45;&gt;Node17 -->
<g id="edge42_Node000023_Node000017" class="edge">
<title>Node23&#45;&gt;Node17</title>
<g id="a_edge42_Node000023_Node000017"><a xlink:title=" ">
<path fill="none" stroke="#63b8ff" d="M811.1,-362.81C835.39,-327.5 901.94,-233.63 968.46,-165 978.78,-154.35 991.47,-143.63 1001.85,-135.37"/>
<polygon fill="#63b8ff" stroke="#63b8ff" points="1004.18,-137.99 1009.91,-129.08 999.88,-132.47 1004.18,-137.99"/>
</a>
</g>
</g>
<!-- Node24 -->
<g id="Node000024" class="node">
<title>Node24</title>
<g id="a_Node000024"><a xlink:href="bits_2approximations_2Operators_8hpp.html" target="_top" xlink:title="Implementations of differential operator families.">
<polygon fill="white" stroke="#666666" points="352.46,-327 196.46,-327 196.46,-297 352.46,-297 352.46,-327"/>
<text text-anchor="start" x="204.46" y="-315" font-family="Helvetica,sans-Serif" font-size="10.00">medusa/bits/approximations</text>
<text text-anchor="middle" x="274.46" y="-304" font-family="Helvetica,sans-Serif" font-size="10.00">/Operators.hpp</text>
</a>
</g>
</g>
<!-- Node23&#45;&gt;Node24 -->
<g id="edge44_Node000023_Node000024" class="edge">
<title>Node23&#45;&gt;Node24</title>
<g id="a_edge44_Node000023_Node000024"><a xlink:title=" ">
<path fill="none" stroke="#63b8ff" d="M738.41,-369.34C644.85,-357.98 468.89,-336.61 362.61,-323.71"/>
<polygon fill="#63b8ff" stroke="#63b8ff" points="362.9,-320.21 352.55,-322.48 362.06,-327.16 362.9,-320.21"/>
</a>
</g>
</g>
<!-- Node24&#45;&gt;Node19 -->
<g id="edge45_Node000024_Node000019" class="edge">
<title>Node24&#45;&gt;Node19</title>
<g id="a_edge45_Node000024_Node000019"><a xlink:title=" ">
<path fill="none" stroke="#63b8ff" d="M281.52,-296.83C286.23,-286.97 292.29,-273.41 296.46,-261 302.62,-242.64 307.59,-221.27 310.9,-205.23"/>
<polygon fill="#63b8ff" stroke="#63b8ff" points="314.4,-205.58 312.92,-195.09 307.53,-204.21 314.4,-205.58"/>
</a>
</g>
</g>
<!-- Node24&#45;&gt;Node21 -->
<g id="edge46_Node000024_Node000021" class="edge">
<title>Node24&#45;&gt;Node21</title>
<g id="a_edge46_Node000024_Node000021"><a xlink:title=" ">
<path fill="none" stroke="#63b8ff" d="M219.42,-296.91C201.28,-289.36 183.05,-277.99 172.46,-261 148.87,-223.17 159.98,-167.76 168.27,-139.14"/>
<polygon fill="#63b8ff" stroke="#63b8ff" points="171.71,-139.85 171.33,-129.26 165.03,-137.78 171.71,-139.85"/>
</a>
</g>
</g>
<!-- Node25 -->
<g id="Node000025" class="node">
<title>Node25</title>
<g id="a_Node000025"><a xlink:href="RBFBasis__fwd_8hpp.html" target="_top" xlink:title="Declaration of RBF basis.">
<polygon fill="white" stroke="#666666" points="287.46,-255.5 181.46,-255.5 181.46,-236.5 287.46,-236.5 287.46,-255.5"/>
<text text-anchor="middle" x="234.46" y="-243.5" font-family="Helvetica,sans-Serif" font-size="10.00">RBFBasis_fwd.hpp</text>
</a>
</g>
</g>
<!-- Node24&#45;&gt;Node25 -->
<g id="edge47_Node000024_Node000025" class="edge">
<title>Node24&#45;&gt;Node25</title>
<g id="a_edge47_Node000024_Node000025"><a xlink:title=" ">
<path fill="none" stroke="#63b8ff" d="M265.58,-296.8C259.65,-287.31 251.81,-274.76 245.48,-264.63"/>
<polygon fill="#63b8ff" stroke="#63b8ff" points="248.26,-262.47 239.99,-255.84 242.32,-266.18 248.26,-262.47"/>
</a>
</g>
</g>
<!-- Node25&#45;&gt;Node2 -->
<g id="edge48_Node000025_Node000002" class="edge">
<title>Node25&#45;&gt;Node2</title>
<g id="a_edge48_Node000025_Node000002"><a xlink:title=" ">
<path fill="none" stroke="#63b8ff" d="M287.72,-236.53C322.3,-229.3 367.31,-216.56 402.46,-195 451.62,-164.85 494.27,-110.16 513.92,-82.5"/>
<polygon fill="#63b8ff" stroke="#63b8ff" points="516.84,-84.43 519.68,-74.23 511.09,-80.43 516.84,-84.43"/>
</a>
</g>
</g>
<!-- Node25&#45;&gt;Node10 -->
<g id="edge50_Node000025_Node000010" class="edge">
<title>Node25&#45;&gt;Node10</title>
<g id="a_edge50_Node000025_Node000010"><a xlink:title=" ">
<path fill="none" stroke="#63b8ff" d="M208.4,-236.45C136.89,-211.68 -52.78,-136.43 14.46,-55 39.44,-24.75 157.02,-14.84 214.15,-11.78"/>
<polygon fill="#63b8ff" stroke="#63b8ff" points="214.59,-15.26 224.4,-11.27 214.24,-8.27 214.59,-15.26"/>
</a>
</g>
</g>
<!-- Node25&#45;&gt;Node15 -->
<g id="edge49_Node000025_Node000015" class="edge">
<title>Node25&#45;&gt;Node15</title>
<g id="a_edge49_Node000025_Node000015"><a xlink:title=" ">
<path fill="none" stroke="#63b8ff" d="M233.08,-236.18C231.59,-226.21 229.33,-209.49 228.46,-195 227.66,-181.69 226.32,-178.16 228.46,-165 231.16,-148.35 237.11,-145.53 240.46,-129 243.46,-114.23 244.68,-97.19 245.17,-84.48"/>
<polygon fill="#63b8ff" stroke="#63b8ff" points="248.67,-84.31 245.44,-74.22 241.68,-84.12 248.67,-84.31"/>
</a>
</g>
</g>
<!-- Node25&#45;&gt;Node19 -->
<g id="edge51_Node000025_Node000019" class="edge">
<title>Node25&#45;&gt;Node19</title>
<g id="a_edge51_Node000025_Node000019"><a xlink:title=" ">
<path fill="none" stroke="#63b8ff" d="M245.38,-236.37C256.68,-227.44 274.72,-213.19 289.67,-201.38"/>
<polygon fill="#63b8ff" stroke="#63b8ff" points="291.92,-204.06 297.59,-195.12 287.58,-198.57 291.92,-204.06"/>
</a>
</g>
</g>
</g>
</svg>
