<?xml version="1.0" encoding="UTF-8" standalone="no"?>
<!DOCTYPE svg PUBLIC "-//W3C//DTD SVG 1.1//EN"
 "http://www.w3.org/Graphics/SVG/1.1/DTD/svg11.dtd">
<!-- Generated by graphviz version 2.43.0 (0)
 -->
<!-- Title: src/operators/RaggedShapeStorage.cpp Pages: 1 -->
<!--zoomable 654 -->

<svg id="main" version="1.1" xmlns="http://www.w3.org/2000/svg" xmlns:xlink="http://www.w3.org/1999/xlink" xml:space="preserve" onload="init(evt)">
<style type="text/css"><![CDATA[
.node, .edge {opacity: 0.7;}
.node.selected, .edge.selected {opacity: 1;}
.edge:hover path { stroke: red; }
.edge:hover polygon { stroke: red; fill: red; }
]]></style>

<defs>
  <circle id="rim" cx="0" cy="0" r="7"/>
  <circle id="rim2" cx="0" cy="0" r="3.5"/>
  <g id="zoomPlus">
    <use xlink:href="#rim" fill="#404040"><set attributeName="fill" to="#808080" begin="zoomplus.mouseover" end="zoomplus.mouseout"/></use>
    <path d="M-4,0h8M0,-4v8" fill="none" stroke="white" stroke-width="1.5" pointer-events="none"/>
  </g>
  <g id="zoomMin">
    <use xlink:href="#rim" fill="#404040"><set attributeName="fill" to="#808080" begin="zoomminus.mouseover" end="zoomminus.mouseout"/></use>
    <path d="M-4,0h8" fill="none" stroke="white" stroke-width="1.5" pointer-events="none"/>
  </g>
  <g id="arrowUp" transform="translate(30 24)">
    <use xlink:href="#rim"/>
    <path pointer-events="none" fill="none" stroke="white" stroke-width="1.5" d="M0,-3.0v7 M-2.5,-0.5L0,-3.0L2.5,-0.5"/>
  </g>
  <g id="arrowRight" transform="rotate(90) translate(36 -43)">
    <use xlink:href="#rim"/>
    <path pointer-events="none" fill="none" stroke="white" stroke-width="1.5" d="M0,-3.0v7 M-2.5,-0.5L0,-3.0L2.5,-0.5"/>
  </g>
  <g id="arrowDown" transform="rotate(180) translate(-30 -48)">
    <use xlink:href="#rim"/>
    <path pointer-events="none" fill="none" stroke="white" stroke-width="1.5" d="M0,-3.0v7 M-2.5,-0.5L0,-3.0L2.5,-0.5"/>
  </g>
  <g id="arrowLeft" transform="rotate(270) translate(-36 17)">
    <use xlink:href="#rim"/>
    <path pointer-events="none" fill="none" stroke="white" stroke-width="1.5" d="M0,-3.0v7 M-2.5,-0.5L0,-3.0L2.5,-0.5"/>
  </g>
  <g id="resetDef">
    <use xlink:href="#rim2" fill="#404040"><set attributeName="fill" to="#808080" begin="reset.mouseover" end="reset.mouseout"/></use>
  </g>
</defs>
<script type="application/ecmascript">
var viewWidth = 1561;
var viewHeight = 654;
var sectionId = 'dynsection-0';
</script>
<script type="application/ecmascript" xlink:href="svg.min.js"/>
<svg id="graph" class="graph">
<g id="viewport">
<title>src/operators/RaggedShapeStorage.cpp</title>
<!-- Node1 -->
<g id="Node000001" class="node">
<title>Node1</title>
<g id="a_Node000001"><a xlink:title="Instantiations of shape storage for shapes of different sizes.">
<polygon fill="#999999" stroke="#666666" points="939,-646 789,-646 789,-616 939,-616 939,-646"/>
<text text-anchor="start" x="797" y="-634" font-family="Helvetica,sans-Serif" font-size="10.00">src/operators/RaggedShape</text>
<text text-anchor="middle" x="864" y="-623" font-family="Helvetica,sans-Serif" font-size="10.00">Storage.cpp</text>
</a>
</g>
</g>
<!-- Node2 -->
<g id="Node000002" class="node">
<title>Node2</title>
<g id="a_Node000002"><a xlink:href="RaggedShapeStorage_8hpp.html" target="_top" xlink:title="Implementation of shape storage for shapes of different sizes.">
<polygon fill="white" stroke="#666666" points="854.5,-580 709.5,-580 709.5,-550 854.5,-550 854.5,-580"/>
<text text-anchor="start" x="717.5" y="-568" font-family="Helvetica,sans-Serif" font-size="10.00">medusa/bits/operators</text>
<text text-anchor="middle" x="782" y="-557" font-family="Helvetica,sans-Serif" font-size="10.00">/RaggedShapeStorage.hpp</text>
</a>
</g>
</g>
<!-- Node1&#45;&gt;Node2 -->
<g id="edge1_Node000001_Node000002" class="edge">
<title>Node1&#45;&gt;Node2</title>
<g id="a_edge1_Node000001_Node000002"><a xlink:title=" ">
<path fill="none" stroke="#63b8ff" d="M845.8,-615.8C834.76,-607.18 820.49,-596.04 808.24,-586.48"/>
<polygon fill="#63b8ff" stroke="#63b8ff" points="810.18,-583.56 800.15,-580.16 805.88,-589.08 810.18,-583.56"/>
</a>
</g>
</g>
<!-- Node32 -->
<g id="Node000032" class="node">
<title>Node32</title>
<g id="a_Node000032"><a xlink:href="Vec_8hpp.html" target="_top" xlink:title="Implemetations for Vec.">
<polygon fill="white" stroke="#666666" points="1326,-574.5 1178,-574.5 1178,-555.5 1326,-555.5 1326,-574.5"/>
<text text-anchor="middle" x="1252" y="-562.5" font-family="Helvetica,sans-Serif" font-size="10.00">medusa/bits/types/Vec.hpp</text>
</a>
</g>
</g>
<!-- Node1&#45;&gt;Node32 -->
<g id="edge68_Node000001_Node000032" class="edge">
<title>Node1&#45;&gt;Node32</title>
<g id="a_edge68_Node000001_Node000032"><a xlink:title=" ">
<path fill="none" stroke="#63b8ff" d="M939.27,-617.58C1012.32,-605.53 1121.87,-587.47 1190.03,-576.22"/>
<polygon fill="#63b8ff" stroke="#63b8ff" points="1190.89,-579.63 1200.19,-574.55 1189.75,-572.72 1190.89,-579.63"/>
</a>
</g>
</g>
<!-- Node3 -->
<g id="Node000003" class="node">
<title>Node3</title>
<g id="a_Node000003"><a xlink:href="RaggedShapeStorage__fwd_8hpp.html" target="_top" xlink:title="Declaration of shape storage for shapes of different sizes.">
<polygon fill="white" stroke="#666666" points="868.5,-459 747.5,-459 747.5,-429 868.5,-429 868.5,-459"/>
<text text-anchor="start" x="755.5" y="-447" font-family="Helvetica,sans-Serif" font-size="10.00">RaggedShapeStorage</text>
<text text-anchor="middle" x="808" y="-436" font-family="Helvetica,sans-Serif" font-size="10.00">_fwd.hpp</text>
</a>
</g>
</g>
<!-- Node2&#45;&gt;Node3 -->
<g id="edge2_Node000002_Node000003" class="edge">
<title>Node2&#45;&gt;Node3</title>
<g id="a_edge2_Node000002_Node000003"><a xlink:title=" ">
<path fill="none" stroke="#63b8ff" d="M785.08,-549.88C789.44,-529.93 797.46,-493.22 802.77,-468.96"/>
<polygon fill="#63b8ff" stroke="#63b8ff" points="806.2,-469.62 804.92,-459.1 799.37,-468.12 806.2,-469.62"/>
</a>
</g>
</g>
<!-- Node8 -->
<g id="Node000008" class="node">
<title>Node8</title>
<g id="a_Node000008"><a xlink:href="assert_8hpp.html" target="_top" xlink:title="Implementation of custom assert and debug utilities.">
<polygon fill="white" stroke="#666666" points="412.5,-129 257.5,-129 257.5,-110 412.5,-110 412.5,-129"/>
<text text-anchor="middle" x="335" y="-117" font-family="Helvetica,sans-Serif" font-size="10.00">medusa/bits/utils/assert.hpp</text>
</a>
</g>
</g>
<!-- Node2&#45;&gt;Node8 -->
<g id="edge65_Node000002_Node000008" class="edge">
<title>Node2&#45;&gt;Node8</title>
<g id="a_edge65_Node000002_Node000008"><a xlink:title=" ">
<path fill="none" stroke="#63b8ff" d="M709.11,-558.02C590.55,-546.27 369,-514.95 369,-445 369,-445 369,-445 369,-245 369,-205.95 353.24,-162.36 343.18,-138.51"/>
<polygon fill="#63b8ff" stroke="#63b8ff" points="346.25,-136.79 339.03,-129.03 339.83,-139.6 346.25,-136.79"/>
</a>
</g>
</g>
<!-- Node22 -->
<g id="Node000022" class="node">
<title>Node22</title>
<g id="a_Node000022"><a xlink:title=" ">
<polygon fill="#e0e0e0" stroke="#999999" points="1485.5,-74 1416.5,-74 1416.5,-55 1485.5,-55 1485.5,-74"/>
<text text-anchor="middle" x="1451" y="-62" font-family="Helvetica,sans-Serif" font-size="10.00">Eigen/Core</text>
</a>
</g>
</g>
<!-- Node2&#45;&gt;Node22 -->
<g id="edge67_Node000002_Node000022" class="edge">
<title>Node2&#45;&gt;Node22</title>
<g id="a_edge67_Node000002_Node000022"><a xlink:title=" ">
<path fill="none" stroke="#63b8ff" d="M854.56,-550.08C1045.27,-511.44 1546,-395.81 1546,-247 1546,-247 1546,-247 1546,-179 1546,-134.71 1502.94,-98.61 1474.8,-79.75"/>
<polygon fill="#63b8ff" stroke="#63b8ff" points="1476.56,-76.72 1466.26,-74.24 1472.77,-82.6 1476.56,-76.72"/>
</a>
</g>
</g>
<!-- Node25 -->
<g id="Node000025" class="node">
<title>Node25</title>
<g id="a_Node000025"><a xlink:href="shape__flags_8hpp.html" target="_top" xlink:title="Definition of flags related to shape computation.">
<polygon fill="white" stroke="#666666" points="780,-393 654,-393 654,-363 780,-363 780,-393"/>
<text text-anchor="start" x="662" y="-381" font-family="Helvetica,sans-Serif" font-size="10.00">medusa/bits/operators</text>
<text text-anchor="middle" x="717" y="-370" font-family="Helvetica,sans-Serif" font-size="10.00">/shape_flags.hpp</text>
</a>
</g>
</g>
<!-- Node2&#45;&gt;Node25 -->
<g id="edge55_Node000002_Node000025" class="edge">
<title>Node2&#45;&gt;Node25</title>
<g id="a_edge55_Node000002_Node000025"><a xlink:title=" ">
<path fill="none" stroke="#63b8ff" d="M775.61,-549.94C766.68,-529.99 750.31,-492.19 739,-459 732.69,-440.5 726.89,-419.14 722.83,-403.14"/>
<polygon fill="#63b8ff" stroke="#63b8ff" points="726.13,-401.89 720.31,-393.03 719.33,-403.58 726.13,-401.89"/>
</a>
</g>
</g>
<!-- Node28 -->
<g id="Node000028" class="node">
<title>Node28</title>
<g id="a_Node000028"><a xlink:href="ShapeStorage_8hpp.html" target="_top" xlink:title="Implementations of the ShapeStorage interface.">
<polygon fill="white" stroke="#666666" points="678.5,-514 573.5,-514 573.5,-495 678.5,-495 678.5,-514"/>
<text text-anchor="middle" x="626" y="-502" font-family="Helvetica,sans-Serif" font-size="10.00">ShapeStorage.hpp</text>
</a>
</g>
</g>
<!-- Node2&#45;&gt;Node28 -->
<g id="edge56_Node000002_Node000028" class="edge">
<title>Node2&#45;&gt;Node28</title>
<g id="a_edge56_Node000002_Node000028"><a xlink:title=" ">
<path fill="none" stroke="#63b8ff" d="M744.63,-549.99C718.37,-540.14 683.59,-527.1 658.48,-517.68"/>
<polygon fill="#63b8ff" stroke="#63b8ff" points="659.63,-514.37 649.04,-514.14 657.17,-520.93 659.63,-514.37"/>
</a>
</g>
</g>
<!-- Node31 -->
<g id="Node000031" class="node">
<title>Node31</title>
<g id="a_Node000031"><a xlink:title=" ">
<polygon fill="#e0e0e0" stroke="#999999" points="860,-514 810,-514 810,-495 860,-495 860,-514"/>
<text text-anchor="middle" x="835" y="-502" font-family="Helvetica,sans-Serif" font-size="10.00">cstring</text>
</a>
</g>
</g>
<!-- Node2&#45;&gt;Node31 -->
<g id="edge66_Node000002_Node000031" class="edge">
<title>Node2&#45;&gt;Node31</title>
<g id="a_edge66_Node000002_Node000031"><a xlink:title=" ">
<path fill="none" stroke="#63b8ff" d="M794.83,-549.84C802.52,-541.35 812.33,-530.52 820.33,-521.69"/>
<polygon fill="#63b8ff" stroke="#63b8ff" points="822.94,-524.03 827.06,-514.27 817.75,-519.33 822.94,-524.03"/>
</a>
</g>
</g>
<!-- Node4 -->
<g id="Node000004" class="node">
<title>Node4</title>
<g id="a_Node000004"><a xlink:href="Config_8hpp.html" target="_top" xlink:title="Contains compile time settings for the project, such as Eigen plugins.">
<polygon fill="white" stroke="#666666" points="1008,-74 898,-74 898,-55 1008,-55 1008,-74"/>
<text text-anchor="middle" x="953" y="-62" font-family="Helvetica,sans-Serif" font-size="10.00">medusa/Config.hpp</text>
</a>
</g>
</g>
<!-- Node3&#45;&gt;Node4 -->
<g id="edge3_Node000003_Node000004" class="edge">
<title>Node3&#45;&gt;Node4</title>
<g id="a_edge3_Node000003_Node000004"><a xlink:title=" ">
<path fill="none" stroke="#63b8ff" d="M868.78,-436.89C984.71,-423.55 1226,-386.91 1226,-313 1226,-313 1226,-313 1226,-245 1226,-201.34 1202.62,-192.85 1169,-165 1115.68,-120.84 1039.53,-91.84 993.34,-77.09"/>
<polygon fill="#63b8ff" stroke="#63b8ff" points="994.26,-73.71 983.67,-74.07 992.18,-80.39 994.26,-73.71"/>
</a>
</g>
</g>
<!-- Node6 -->
<g id="Node000006" class="node">
<title>Node6</title>
<g id="a_Node000006"><a xlink:href="ShapeStorage__fwd_8hpp.html" target="_top" xlink:title="Base class and interface for storing and accessing computed shapes.">
<polygon fill="white" stroke="#666666" points="781.5,-261 650.5,-261 650.5,-231 781.5,-231 781.5,-261"/>
<text text-anchor="start" x="658.5" y="-249" font-family="Helvetica,sans-Serif" font-size="10.00">medusa/bits/operators</text>
<text text-anchor="middle" x="716" y="-238" font-family="Helvetica,sans-Serif" font-size="10.00">/ShapeStorage_fwd.hpp</text>
</a>
</g>
</g>
<!-- Node3&#45;&gt;Node6 -->
<g id="edge5_Node000003_Node000006" class="edge">
<title>Node3&#45;&gt;Node6</title>
<g id="a_edge5_Node000003_Node000006"><a xlink:title=" ">
<path fill="none" stroke="#63b8ff" d="M806.1,-428.98C803.56,-412.66 798.28,-385.11 789,-363 774.36,-328.14 749.77,-291.86 733.22,-269.36"/>
<polygon fill="#63b8ff" stroke="#63b8ff" points="735.89,-267.08 727.1,-261.16 730.28,-271.26 735.89,-267.08"/>
</a>
</g>
</g>
<!-- Node3&#45;&gt;Node22 -->
<g id="edge54_Node000003_Node000022" class="edge">
<title>Node3&#45;&gt;Node22</title>
<g id="a_edge54_Node000003_Node000022"><a xlink:title=" ">
<path fill="none" stroke="#63b8ff" d="M868.53,-438.57C955.48,-431.51 1110.88,-416.1 1162,-393 1235.9,-359.6 1407.41,-237.18 1455,-129 1461.25,-114.78 1459.43,-97.02 1456.52,-83.9"/>
<polygon fill="#63b8ff" stroke="#63b8ff" points="1459.88,-82.94 1453.97,-74.15 1453.11,-84.71 1459.88,-82.94"/>
</a>
</g>
</g>
<!-- Node3&#45;&gt;Node25 -->
<g id="edge43_Node000003_Node000025" class="edge">
<title>Node3&#45;&gt;Node25</title>
<g id="a_edge43_Node000003_Node000025"><a xlink:title=" ">
<path fill="none" stroke="#63b8ff" d="M787.8,-428.8C775.32,-420.01 759.1,-408.61 745.34,-398.93"/>
<polygon fill="#63b8ff" stroke="#63b8ff" points="747.33,-396.05 737.14,-393.16 743.31,-401.78 747.33,-396.05"/>
</a>
</g>
</g>
<!-- Node5 -->
<g id="Node000005" class="node">
<title>Node5</title>
<g id="a_Node000005"><a xlink:title=" ">
<polygon fill="#e0e0e0" stroke="#999999" points="809.5,-19 762.5,-19 762.5,0 809.5,0 809.5,-19"/>
<text text-anchor="middle" x="786" y="-7" font-family="Helvetica,sans-Serif" font-size="10.00">vector</text>
</a>
</g>
</g>
<!-- Node4&#45;&gt;Node5 -->
<g id="edge4_Node000004_Node000005" class="edge">
<title>Node4&#45;&gt;Node5</title>
<g id="a_edge4_Node000004_Node000005"><a xlink:title=" ">
<path fill="none" stroke="#63b8ff" d="M926.17,-54.98C897.05,-45.74 850.52,-30.98 819.14,-21.02"/>
<polygon fill="#63b8ff" stroke="#63b8ff" points="820.12,-17.66 809.53,-17.97 818,-24.33 820.12,-17.66"/>
</a>
</g>
</g>
<!-- Node6&#45;&gt;Node4 -->
<g id="edge6_Node000006_Node000004" class="edge">
<title>Node6&#45;&gt;Node4</title>
<g id="a_edge6_Node000006_Node000004"><a xlink:title=" ">
<path fill="none" stroke="#63b8ff" d="M740,-230.86C755.93,-221.23 777.1,-207.92 795,-195 848.16,-156.61 906.94,-106.13 935.5,-81.04"/>
<polygon fill="#63b8ff" stroke="#63b8ff" points="938.17,-83.36 943.35,-74.12 933.54,-78.11 938.17,-83.36"/>
</a>
</g>
</g>
<!-- Node7 -->
<g id="Node000007" class="node">
<title>Node7</title>
<g id="a_Node000007"><a xlink:href="Range__fwd_8hpp.html" target="_top" xlink:title="Declaration of Range.">
<polygon fill="white" stroke="#666666" points="786,-195 646,-195 646,-165 786,-165 786,-195"/>
<text text-anchor="start" x="654" y="-183" font-family="Helvetica,sans-Serif" font-size="10.00">medusa/bits/types/Range</text>
<text text-anchor="middle" x="716" y="-172" font-family="Helvetica,sans-Serif" font-size="10.00">_fwd.hpp</text>
</a>
</g>
</g>
<!-- Node6&#45;&gt;Node7 -->
<g id="edge7_Node000006_Node000007" class="edge">
<title>Node6&#45;&gt;Node7</title>
<g id="a_edge7_Node000006_Node000007"><a xlink:title=" ">
<path fill="none" stroke="#63b8ff" d="M716,-230.8C716,-223.34 716,-213.99 716,-205.41"/>
<polygon fill="#63b8ff" stroke="#63b8ff" points="719.5,-205.16 716,-195.16 712.5,-205.16 719.5,-205.16"/>
</a>
</g>
</g>
<!-- Node14 -->
<g id="Node000014" class="node">
<title>Node14</title>
<g id="a_Node000014"><a xlink:title=" ">
<polygon fill="#e0e0e0" stroke="#999999" points="164.5,-19 123.5,-19 123.5,0 164.5,0 164.5,-19"/>
<text text-anchor="middle" x="144" y="-7" font-family="Helvetica,sans-Serif" font-size="10.00">tuple</text>
</a>
</g>
</g>
<!-- Node6&#45;&gt;Node14 -->
<g id="edge41_Node000006_Node000014" class="edge">
<title>Node6&#45;&gt;Node14</title>
<g id="a_edge41_Node000006_Node000014"><a xlink:title=" ">
<path fill="none" stroke="#63b8ff" d="M650.3,-244.33C503.88,-242.14 160.91,-232.99 126,-195 83.21,-148.43 116.72,-64.63 134.61,-28.21"/>
<polygon fill="#63b8ff" stroke="#63b8ff" points="137.74,-29.76 139.16,-19.26 131.51,-26.59 137.74,-29.76"/>
</a>
</g>
</g>
<!-- Node17 -->
<g id="Node000017" class="node">
<title>Node17</title>
<g id="a_Node000017"><a xlink:title=" ">
<polygon fill="#e0e0e0" stroke="#999999" points="879,-74 831,-74 831,-55 879,-55 879,-74"/>
<text text-anchor="middle" x="855" y="-62" font-family="Helvetica,sans-Serif" font-size="10.00">iosfwd</text>
</a>
</g>
</g>
<!-- Node6&#45;&gt;Node17 -->
<g id="edge40_Node000006_Node000017" class="edge">
<title>Node6&#45;&gt;Node17</title>
<g id="a_edge40_Node000006_Node000017"><a xlink:title=" ">
<path fill="none" stroke="#63b8ff" d="M650.37,-244.25C505.49,-241.9 168.35,-232.43 134,-195 124.98,-185.18 130.8,-177.94 134,-165 140.64,-138.18 139.81,-125.03 163,-110 218.46,-74.07 687.88,-67.04 820.33,-65.76"/>
<polygon fill="#63b8ff" stroke="#63b8ff" points="820.72,-69.26 830.69,-65.67 820.65,-62.26 820.72,-69.26"/>
</a>
</g>
</g>
<!-- Node18 -->
<g id="Node000018" class="node">
<title>Node18</title>
<g id="a_Node000018"><a xlink:href="stdtypesutils_8hpp.html" target="_top" xlink:title="Declaration of utilities for std types.">
<polygon fill="white" stroke="#666666" points="611,-189.5 423,-189.5 423,-170.5 611,-170.5 611,-189.5"/>
<text text-anchor="middle" x="517" y="-177.5" font-family="Helvetica,sans-Serif" font-size="10.00">medusa/bits/utils/stdtypesutils.hpp</text>
</a>
</g>
</g>
<!-- Node6&#45;&gt;Node18 -->
<g id="edge21_Node000006_Node000018" class="edge">
<title>Node6&#45;&gt;Node18</title>
<g id="a_edge21_Node000006_Node000018"><a xlink:title=" ">
<path fill="none" stroke="#63b8ff" d="M672.33,-230.95C636.66,-219.48 586.84,-203.46 553.33,-192.68"/>
<polygon fill="#63b8ff" stroke="#63b8ff" points="554.07,-189.25 543.48,-189.52 551.93,-195.91 554.07,-189.25"/>
</a>
</g>
</g>
<!-- Node21 -->
<g id="Node000021" class="node">
<title>Node21</title>
<g id="a_Node000021"><a xlink:href="Operators__fwd_8hpp.html" target="_top" xlink:title="File defining basic differential operator families.">
<polygon fill="white" stroke="#666666" points="1160,-195 1004,-195 1004,-165 1160,-165 1160,-195"/>
<text text-anchor="start" x="1012" y="-183" font-family="Helvetica,sans-Serif" font-size="10.00">medusa/bits/approximations</text>
<text text-anchor="middle" x="1082" y="-172" font-family="Helvetica,sans-Serif" font-size="10.00">/Operators_fwd.hpp</text>
</a>
</g>
</g>
<!-- Node6&#45;&gt;Node21 -->
<g id="edge28_Node000006_Node000021" class="edge">
<title>Node6&#45;&gt;Node21</title>
<g id="a_edge28_Node000006_Node000021"><a xlink:title=" ">
<path fill="none" stroke="#63b8ff" d="M781.86,-233.48C841.17,-223.11 928.81,-207.79 994.09,-196.37"/>
<polygon fill="#63b8ff" stroke="#63b8ff" points="994.72,-199.82 1003.97,-194.65 993.51,-192.92 994.72,-199.82"/>
</a>
</g>
</g>
<!-- Node6&#45;&gt;Node22 -->
<g id="edge42_Node000006_Node000022" class="edge">
<title>Node6&#45;&gt;Node22</title>
<g id="a_edge42_Node000006_Node000022"><a xlink:title=" ">
<path fill="none" stroke="#63b8ff" d="M781.65,-240.5C870.12,-233.8 1032.29,-219.33 1169,-195 1289.35,-173.58 1350.01,-215.88 1436,-129 1447.57,-117.31 1450.84,-98.46 1451.5,-84.32"/>
<polygon fill="#63b8ff" stroke="#63b8ff" points="1455.01,-84.26 1451.59,-74.23 1448.01,-84.2 1455.01,-84.26"/>
</a>
</g>
</g>
<!-- Node7&#45;&gt;Node4 -->
<g id="edge8_Node000007_Node000004" class="edge">
<title>Node7&#45;&gt;Node4</title>
<g id="a_edge8_Node000007_Node000004"><a xlink:title=" ">
<path fill="none" stroke="#63b8ff" d="M746.51,-164.91C767.95,-154.97 797.28,-141.29 823,-129 858.97,-111.81 900.31,-91.53 926.53,-78.59"/>
<polygon fill="#63b8ff" stroke="#63b8ff" points="928.39,-81.58 935.8,-74.02 925.29,-75.31 928.39,-81.58"/>
</a>
</g>
</g>
<!-- Node7&#45;&gt;Node5 -->
<g id="edge19_Node000007_Node000005" class="edge">
<title>Node7&#45;&gt;Node5</title>
<g id="a_edge19_Node000007_Node000005"><a xlink:title=" ">
<path fill="none" stroke="#63b8ff" d="M735.52,-164.99C746.56,-155.99 759.6,-143.32 767,-129 783.69,-96.72 786.46,-53.43 786.53,-29.11"/>
<polygon fill="#63b8ff" stroke="#63b8ff" points="790.03,-29.06 786.4,-19.1 783.03,-29.15 790.03,-29.06"/>
</a>
</g>
</g>
<!-- Node7&#45;&gt;Node8 -->
<g id="edge9_Node000007_Node000008" class="edge">
<title>Node7&#45;&gt;Node8</title>
<g id="a_edge9_Node000007_Node000008"><a xlink:title=" ">
<path fill="none" stroke="#63b8ff" d="M645.67,-168.2C575.63,-157.45 468.94,-141.07 400.6,-130.57"/>
<polygon fill="#63b8ff" stroke="#63b8ff" points="400.81,-127.06 390.39,-129 399.74,-133.98 400.81,-127.06"/>
</a>
</g>
</g>
<!-- Node15 -->
<g id="Node000015" class="node">
<title>Node15</title>
<g id="a_Node000015"><a xlink:href="traits_8hpp.html" target="_top" xlink:title="Type traits definition for vector and scalar fields.">
<polygon fill="white" stroke="#666666" points="695.5,-129 632.5,-129 632.5,-110 695.5,-110 695.5,-129"/>
<text text-anchor="middle" x="664" y="-117" font-family="Helvetica,sans-Serif" font-size="10.00">traits.hpp</text>
</a>
</g>
</g>
<!-- Node7&#45;&gt;Node15 -->
<g id="edge17_Node000007_Node000015" class="edge">
<title>Node7&#45;&gt;Node15</title>
<g id="a_edge17_Node000007_Node000015"><a xlink:title=" ">
<path fill="none" stroke="#63b8ff" d="M703.41,-164.84C695.94,-156.43 686.44,-145.74 678.63,-136.96"/>
<polygon fill="#63b8ff" stroke="#63b8ff" points="681.05,-134.41 671.79,-129.27 675.82,-139.07 681.05,-134.41"/>
</a>
</g>
</g>
<!-- Node16 -->
<g id="Node000016" class="node">
<title>Node16</title>
<g id="a_Node000016"><a xlink:title=" ">
<polygon fill="#e0e0e0" stroke="#999999" points="239,-129 181,-129 181,-110 239,-110 239,-129"/>
<text text-anchor="middle" x="210" y="-117" font-family="Helvetica,sans-Serif" font-size="10.00">memory</text>
</a>
</g>
</g>
<!-- Node7&#45;&gt;Node16 -->
<g id="edge18_Node000007_Node000016" class="edge">
<title>Node7&#45;&gt;Node16</title>
<g id="a_edge18_Node000007_Node000016"><a xlink:title=" ">
<path fill="none" stroke="#63b8ff" d="M645.8,-168.36C637.12,-167.17 628.36,-166.01 620,-165 458.32,-145.4 413.76,-154.79 249.36,-129.03"/>
<polygon fill="#63b8ff" stroke="#63b8ff" points="249.81,-125.56 239.39,-127.45 248.72,-132.47 249.81,-125.56"/>
</a>
</g>
</g>
<!-- Node7&#45;&gt;Node17 -->
<g id="edge20_Node000007_Node000017" class="edge">
<title>Node7&#45;&gt;Node17</title>
<g id="a_edge20_Node000007_Node000017"><a xlink:title=" ">
<path fill="none" stroke="#63b8ff" d="M744.72,-164.88C761.69,-155.83 783.08,-143.16 800,-129 816.7,-115.02 832.62,-95.75 843,-82.11"/>
<polygon fill="#63b8ff" stroke="#63b8ff" points="845.82,-84.19 848.97,-74.08 840.2,-80.02 845.82,-84.19"/>
</a>
</g>
</g>
<!-- Node9 -->
<g id="Node000009" class="node">
<title>Node9</title>
<g id="a_Node000009"><a xlink:title=" ">
<polygon fill="#e0e0e0" stroke="#999999" points="407,-74 275,-74 275,-55 407,-55 407,-74"/>
<text text-anchor="middle" x="341" y="-62" font-family="Helvetica,sans-Serif" font-size="10.00">tinyformat/tinyformat.h</text>
</a>
</g>
</g>
<!-- Node8&#45;&gt;Node9 -->
<g id="edge10_Node000008_Node000009" class="edge">
<title>Node8&#45;&gt;Node9</title>
<g id="a_edge10_Node000008_Node000009"><a xlink:title=" ">
<path fill="none" stroke="#63b8ff" d="M335.99,-109.75C336.78,-102.8 337.9,-92.85 338.89,-84.13"/>
<polygon fill="#63b8ff" stroke="#63b8ff" points="342.38,-84.42 340.03,-74.09 335.42,-83.63 342.38,-84.42"/>
</a>
</g>
</g>
<!-- Node10 -->
<g id="Node000010" class="node">
<title>Node10</title>
<g id="a_Node000010"><a xlink:href="print_8hpp.html" target="_top" xlink:title="Printing helpers for std types.">
<polygon fill="white" stroke="#666666" points="257,-74 197,-74 197,-55 257,-55 257,-74"/>
<text text-anchor="middle" x="227" y="-62" font-family="Helvetica,sans-Serif" font-size="10.00">print.hpp</text>
</a>
</g>
</g>
<!-- Node8&#45;&gt;Node10 -->
<g id="edge11_Node000008_Node000010" class="edge">
<title>Node8&#45;&gt;Node10</title>
<g id="a_edge11_Node000008_Node000010"><a xlink:title=" ">
<path fill="none" stroke="#63b8ff" d="M317.65,-109.98C300.43,-101.54 273.8,-88.47 253.85,-78.68"/>
<polygon fill="#63b8ff" stroke="#63b8ff" points="255.19,-75.43 244.67,-74.17 252.1,-81.72 255.19,-75.43"/>
</a>
</g>
</g>
<!-- Node10&#45;&gt;Node5 -->
<g id="edge13_Node000010_Node000005" class="edge">
<title>Node10&#45;&gt;Node5</title>
<g id="a_edge13_Node000010_Node000005"><a xlink:title=" ">
<path fill="none" stroke="#63b8ff" d="M257.16,-56.52C260.14,-55.96 263.12,-55.43 266,-55 448.17,-27.47 669.01,-15.6 752.16,-11.88"/>
<polygon fill="#63b8ff" stroke="#63b8ff" points="752.45,-15.37 762.29,-11.44 752.15,-8.38 752.45,-15.37"/>
</a>
</g>
</g>
<!-- Node11 -->
<g id="Node000011" class="node">
<title>Node11</title>
<g id="a_Node000011"><a xlink:title=" ">
<polygon fill="#e0e0e0" stroke="#999999" points="60,-19 0,-19 0,0 60,0 60,-19"/>
<text text-anchor="middle" x="30" y="-7" font-family="Helvetica,sans-Serif" font-size="10.00">iostream</text>
</a>
</g>
</g>
<!-- Node10&#45;&gt;Node11 -->
<g id="edge12_Node000010_Node000011" class="edge">
<title>Node10&#45;&gt;Node11</title>
<g id="a_edge12_Node000010_Node000011"><a xlink:title=" ">
<path fill="none" stroke="#63b8ff" d="M196.65,-55.33C162.71,-46.2 107.61,-31.38 70.13,-21.3"/>
<polygon fill="#63b8ff" stroke="#63b8ff" points="70.63,-17.81 60.06,-18.59 68.81,-24.57 70.63,-17.81"/>
</a>
</g>
</g>
<!-- Node12 -->
<g id="Node000012" class="node">
<title>Node12</title>
<g id="a_Node000012"><a xlink:title=" ">
<polygon fill="#e0e0e0" stroke="#999999" points="1138,-19 1096,-19 1096,0 1138,0 1138,-19"/>
<text text-anchor="middle" x="1117" y="-7" font-family="Helvetica,sans-Serif" font-size="10.00">array</text>
</a>
</g>
</g>
<!-- Node10&#45;&gt;Node12 -->
<g id="edge14_Node000010_Node000012" class="edge">
<title>Node10&#45;&gt;Node12</title>
<g id="a_edge14_Node000010_Node000012"><a xlink:title=" ">
<path fill="none" stroke="#63b8ff" d="M257.15,-56.42C260.13,-55.88 263.12,-55.39 266,-55 429.12,-33.11 951.52,-15.66 1085.47,-11.46"/>
<polygon fill="#63b8ff" stroke="#63b8ff" points="1085.94,-14.95 1095.83,-11.14 1085.72,-7.95 1085.94,-14.95"/>
</a>
</g>
</g>
<!-- Node13 -->
<g id="Node000013" class="node">
<title>Node13</title>
<g id="a_Node000013"><a xlink:title=" ">
<polygon fill="#e0e0e0" stroke="#999999" points="249.5,-19 204.5,-19 204.5,0 249.5,0 249.5,-19"/>
<text text-anchor="middle" x="227" y="-7" font-family="Helvetica,sans-Serif" font-size="10.00">utility</text>
</a>
</g>
</g>
<!-- Node10&#45;&gt;Node13 -->
<g id="edge15_Node000010_Node000013" class="edge">
<title>Node10&#45;&gt;Node13</title>
<g id="a_edge15_Node000010_Node000013"><a xlink:title=" ">
<path fill="none" stroke="#63b8ff" d="M227,-54.75C227,-47.8 227,-37.85 227,-29.13"/>
<polygon fill="#63b8ff" stroke="#63b8ff" points="230.5,-29.09 227,-19.09 223.5,-29.09 230.5,-29.09"/>
</a>
</g>
</g>
<!-- Node10&#45;&gt;Node14 -->
<g id="edge16_Node000010_Node000014" class="edge">
<title>Node10&#45;&gt;Node14</title>
<g id="a_edge16_Node000010_Node000014"><a xlink:title=" ">
<path fill="none" stroke="#63b8ff" d="M213.66,-54.98C200.91,-46.84 181.45,-34.41 166.33,-24.76"/>
<polygon fill="#63b8ff" stroke="#63b8ff" points="167.89,-21.6 157.58,-19.17 164.12,-27.5 167.89,-21.6"/>
</a>
</g>
</g>
<!-- Node18&#45;&gt;Node4 -->
<g id="edge22_Node000018_Node000004" class="edge">
<title>Node18&#45;&gt;Node4</title>
<g id="a_edge22_Node000018_Node000004"><a xlink:title=" ">
<path fill="none" stroke="#63b8ff" d="M516.67,-170.16C516.65,-155.19 519,-125.02 537,-110 595.03,-61.58 794.93,-81.49 887.72,-73.82"/>
<polygon fill="#63b8ff" stroke="#63b8ff" points="888.09,-77.3 897.69,-72.84 887.4,-70.34 888.09,-77.3"/>
</a>
</g>
</g>
<!-- Node18&#45;&gt;Node5 -->
<g id="edge25_Node000018_Node000005" class="edge">
<title>Node18&#45;&gt;Node5</title>
<g id="a_edge25_Node000018_Node000005"><a xlink:title=" ">
<path fill="none" stroke="#63b8ff" d="M514.46,-170.41C510.85,-156.34 506.02,-128.12 519,-110 573.5,-33.9 693.31,-15.94 752.1,-11.74"/>
<polygon fill="#63b8ff" stroke="#63b8ff" points="752.58,-15.22 762.34,-11.11 752.14,-8.24 752.58,-15.22"/>
</a>
</g>
</g>
<!-- Node18&#45;&gt;Node8 -->
<g id="edge23_Node000018_Node000008" class="edge">
<title>Node18&#45;&gt;Node8</title>
<g id="a_edge23_Node000018_Node000008"><a xlink:title=" ">
<path fill="none" stroke="#63b8ff" d="M490.54,-170.49C459.13,-160.4 406.6,-143.51 371.38,-132.19"/>
<polygon fill="#63b8ff" stroke="#63b8ff" points="372.09,-128.74 361.5,-129.02 369.95,-135.41 372.09,-128.74"/>
</a>
</g>
</g>
<!-- Node18&#45;&gt;Node14 -->
<g id="edge26_Node000018_Node000014" class="edge">
<title>Node18&#45;&gt;Node14</title>
<g id="a_edge26_Node000018_Node000014"><a xlink:title=" ">
<path fill="none" stroke="#63b8ff" d="M512.78,-170.27C501.08,-147.09 465.75,-83.78 416,-55 329.85,-5.17 293.19,-35.18 195,-19 188.49,-17.93 181.51,-16.77 174.88,-15.66"/>
<polygon fill="#63b8ff" stroke="#63b8ff" points="175.28,-12.18 164.84,-13.99 174.13,-19.09 175.28,-12.18"/>
</a>
</g>
</g>
<!-- Node19 -->
<g id="Node000019" class="node">
<title>Node19</title>
<g id="a_Node000019"><a xlink:title=" ">
<polygon fill="#e0e0e0" stroke="#999999" points="758,-129 714,-129 714,-110 758,-110 758,-129"/>
<text text-anchor="middle" x="736" y="-117" font-family="Helvetica,sans-Serif" font-size="10.00">string</text>
</a>
</g>
</g>
<!-- Node18&#45;&gt;Node19 -->
<g id="edge24_Node000018_Node000019" class="edge">
<title>Node18&#45;&gt;Node19</title>
<g id="a_edge24_Node000018_Node000019"><a xlink:title=" ">
<path fill="none" stroke="#63b8ff" d="M549.29,-170.49C584.85,-161.11 643.99,-145.44 704.3,-129.17"/>
<polygon fill="#63b8ff" stroke="#63b8ff" points="705.25,-132.54 713.99,-126.56 703.42,-125.79 705.25,-132.54"/>
</a>
</g>
</g>
<!-- Node20 -->
<g id="Node000020" class="node">
<title>Node20</title>
<g id="a_Node000020"><a xlink:title=" ">
<polygon fill="#e0e0e0" stroke="#999999" points="614.5,-129 545.5,-129 545.5,-110 614.5,-110 614.5,-129"/>
<text text-anchor="middle" x="580" y="-117" font-family="Helvetica,sans-Serif" font-size="10.00">type_traits</text>
</a>
</g>
</g>
<!-- Node18&#45;&gt;Node20 -->
<g id="edge27_Node000018_Node000020" class="edge">
<title>Node18&#45;&gt;Node20</title>
<g id="a_edge27_Node000018_Node000020"><a xlink:title=" ">
<path fill="none" stroke="#63b8ff" d="M526.3,-170.37C535.97,-161.38 551.34,-147.11 563.16,-136.14"/>
<polygon fill="#63b8ff" stroke="#63b8ff" points="565.72,-138.54 570.67,-129.17 560.96,-133.41 565.72,-138.54"/>
</a>
</g>
</g>
<!-- Node21&#45;&gt;Node4 -->
<g id="edge29_Node000021_Node000004" class="edge">
<title>Node21&#45;&gt;Node4</title>
<g id="a_edge29_Node000021_Node000004"><a xlink:title=" ">
<path fill="none" stroke="#63b8ff" d="M1065.92,-164.85C1041.65,-143.5 995.82,-103.17 970.65,-81.03"/>
<polygon fill="#63b8ff" stroke="#63b8ff" points="972.79,-78.25 962.97,-74.27 968.16,-83.5 972.79,-78.25"/>
</a>
</g>
</g>
<!-- Node21&#45;&gt;Node5 -->
<g id="edge31_Node000021_Node000005" class="edge">
<title>Node21&#45;&gt;Node5</title>
<g id="a_edge31_Node000021_Node000005"><a xlink:title=" ">
<path fill="none" stroke="#63b8ff" d="M1078.87,-164.84C1072.29,-138.67 1054.46,-82.84 1017,-55 986.21,-32.11 876.18,-18.85 819.81,-13.41"/>
<polygon fill="#63b8ff" stroke="#63b8ff" points="819.9,-9.91 809.62,-12.46 819.25,-16.88 819.9,-9.91"/>
</a>
</g>
</g>
<!-- Node21&#45;&gt;Node8 -->
<g id="edge39_Node000021_Node000008" class="edge">
<title>Node21&#45;&gt;Node8</title>
<g id="a_edge39_Node000021_Node000008"><a xlink:title=" ">
<path fill="none" stroke="#63b8ff" d="M1003.82,-172.88C863.52,-161.89 569.95,-138.9 422.9,-127.38"/>
<polygon fill="#63b8ff" stroke="#63b8ff" points="422.81,-123.87 412.57,-126.57 422.26,-130.84 422.81,-123.87"/>
</a>
</g>
</g>
<!-- Node21&#45;&gt;Node12 -->
<g id="edge30_Node000021_Node000012" class="edge">
<title>Node21&#45;&gt;Node12</title>
<g id="a_edge30_Node000021_Node000012"><a xlink:title=" ">
<path fill="none" stroke="#63b8ff" d="M1084.92,-164.92C1091.21,-134.65 1106.02,-63.35 1113.1,-29.27"/>
<polygon fill="#63b8ff" stroke="#63b8ff" points="1116.57,-29.76 1115.18,-19.25 1109.72,-28.33 1116.57,-29.76"/>
</a>
</g>
</g>
<!-- Node21&#45;&gt;Node22 -->
<g id="edge32_Node000021_Node000022" class="edge">
<title>Node21&#45;&gt;Node22</title>
<g id="a_edge32_Node000021_Node000022"><a xlink:title=" ">
<path fill="none" stroke="#63b8ff" d="M1160.02,-170.75C1251.2,-160.55 1392.34,-142.86 1413,-129 1428.97,-118.29 1439.26,-98.4 1445.04,-83.72"/>
<polygon fill="#63b8ff" stroke="#63b8ff" points="1448.39,-84.76 1448.48,-74.16 1441.8,-82.39 1448.39,-84.76"/>
</a>
</g>
</g>
<!-- Node23 -->
<g id="Node000023" class="node">
<title>Node23</title>
<g id="a_Node000023"><a xlink:href="Monomials__fwd_8hpp.html" target="_top" xlink:title="Declaration of Monomial basis.">
<polygon fill="white" stroke="#666666" points="1270,-129 1156,-129 1156,-110 1270,-110 1270,-129"/>
<text text-anchor="middle" x="1213" y="-117" font-family="Helvetica,sans-Serif" font-size="10.00">Monomials_fwd.hpp</text>
</a>
</g>
</g>
<!-- Node21&#45;&gt;Node23 -->
<g id="edge33_Node000021_Node000023" class="edge">
<title>Node21&#45;&gt;Node23</title>
<g id="a_edge33_Node000021_Node000023"><a xlink:title=" ">
<path fill="none" stroke="#63b8ff" d="M1113.38,-164.99C1134.94,-155.36 1163.35,-142.67 1184.31,-133.31"/>
<polygon fill="#63b8ff" stroke="#63b8ff" points="1185.95,-136.41 1193.65,-129.14 1183.1,-130.02 1185.95,-136.41"/>
</a>
</g>
</g>
<!-- Node23&#45;&gt;Node4 -->
<g id="edge34_Node000023_Node000004" class="edge">
<title>Node23&#45;&gt;Node4</title>
<g id="a_edge34_Node000023_Node000004"><a xlink:title=" ">
<path fill="none" stroke="#63b8ff" d="M1171.23,-109.98C1126.06,-100.78 1054,-86.09 1005.15,-76.13"/>
<polygon fill="#63b8ff" stroke="#63b8ff" points="1005.6,-72.65 995.1,-74.08 1004.2,-79.51 1005.6,-72.65"/>
</a>
</g>
</g>
<!-- Node23&#45;&gt;Node12 -->
<g id="edge36_Node000023_Node000012" class="edge">
<title>Node23&#45;&gt;Node12</title>
<g id="a_edge36_Node000023_Node000012"><a xlink:title=" ">
<path fill="none" stroke="#63b8ff" d="M1205.14,-109.66C1189.03,-91.54 1152.03,-49.91 1131.46,-26.77"/>
<polygon fill="#63b8ff" stroke="#63b8ff" points="1133.96,-24.31 1124.7,-19.16 1128.72,-28.96 1133.96,-24.31"/>
</a>
</g>
</g>
<!-- Node23&#45;&gt;Node17 -->
<g id="edge38_Node000023_Node000017" class="edge">
<title>Node23&#45;&gt;Node17</title>
<g id="a_edge38_Node000023_Node000017"><a xlink:title=" ">
<path fill="none" stroke="#63b8ff" d="M1155.92,-112.56C1090.96,-105.36 981.82,-91.92 889,-74 888.9,-73.98 888.8,-73.96 888.7,-73.94"/>
<polygon fill="#63b8ff" stroke="#63b8ff" points="889.59,-70.55 879.07,-71.86 888.11,-77.4 889.59,-70.55"/>
</a>
</g>
</g>
<!-- Node23&#45;&gt;Node22 -->
<g id="edge37_Node000023_Node000022" class="edge">
<title>Node23&#45;&gt;Node22</title>
<g id="a_edge37_Node000023_Node000022"><a xlink:title=" ">
<path fill="none" stroke="#63b8ff" d="M1251.24,-109.98C1293.54,-100.56 1361.62,-85.4 1406.34,-75.45"/>
<polygon fill="#63b8ff" stroke="#63b8ff" points="1407.34,-78.81 1416.34,-73.22 1405.82,-71.98 1407.34,-78.81"/>
</a>
</g>
</g>
<!-- Node24 -->
<g id="Node000024" class="node">
<title>Node24</title>
<g id="a_Node000024"><a xlink:title=" ">
<polygon fill="#e0e0e0" stroke="#999999" points="1236.5,-74 1189.5,-74 1189.5,-55 1236.5,-55 1236.5,-74"/>
<text text-anchor="middle" x="1213" y="-62" font-family="Helvetica,sans-Serif" font-size="10.00">cmath</text>
</a>
</g>
</g>
<!-- Node23&#45;&gt;Node24 -->
<g id="edge35_Node000023_Node000024" class="edge">
<title>Node23&#45;&gt;Node24</title>
<g id="a_edge35_Node000023_Node000024"><a xlink:title=" ">
<path fill="none" stroke="#63b8ff" d="M1213,-109.75C1213,-102.8 1213,-92.85 1213,-84.13"/>
<polygon fill="#63b8ff" stroke="#63b8ff" points="1216.5,-84.09 1213,-74.09 1209.5,-84.09 1216.5,-84.09"/>
</a>
</g>
</g>
<!-- Node25&#45;&gt;Node14 -->
<g id="edge45_Node000025_Node000014" class="edge">
<title>Node25&#45;&gt;Node14</title>
<g id="a_edge45_Node000025_Node000014"><a xlink:title=" ">
<path fill="none" stroke="#63b8ff" d="M653.82,-367.43C511.96,-344.56 175.11,-282.07 106,-195 67.27,-146.2 88.57,-112.31 113,-55 117.24,-45.06 123.91,-35.08 129.98,-27.11"/>
<polygon fill="#63b8ff" stroke="#63b8ff" points="132.9,-29.05 136.41,-19.05 127.44,-24.68 132.9,-29.05"/>
</a>
</g>
</g>
<!-- Node25&#45;&gt;Node19 -->
<g id="edge44_Node000025_Node000019" class="edge">
<title>Node25&#45;&gt;Node19</title>
<g id="a_edge44_Node000025_Node000019"><a xlink:title=" ">
<path fill="none" stroke="#63b8ff" d="M729.47,-362.87C746.87,-342.18 777.79,-301.67 791,-261 804.2,-220.39 814.05,-203.22 795,-165 788.43,-151.82 775.9,-141.52 764.07,-134.16"/>
<polygon fill="#63b8ff" stroke="#63b8ff" points="765.68,-131.05 755.27,-129.1 762.2,-137.12 765.68,-131.05"/>
</a>
</g>
</g>
<!-- Node26 -->
<g id="Node000026" class="node">
<title>Node26</title>
<g id="a_Node000026"><a xlink:href="bits_2approximations_2Operators_8hpp.html" target="_top" xlink:title="Implementations of differential operator families.">
<polygon fill="white" stroke="#666666" points="1119,-327 963,-327 963,-297 1119,-297 1119,-327"/>
<text text-anchor="start" x="971" y="-315" font-family="Helvetica,sans-Serif" font-size="10.00">medusa/bits/approximations</text>
<text text-anchor="middle" x="1041" y="-304" font-family="Helvetica,sans-Serif" font-size="10.00">/Operators.hpp</text>
</a>
</g>
</g>
<!-- Node25&#45;&gt;Node26 -->
<g id="edge46_Node000025_Node000026" class="edge">
<title>Node25&#45;&gt;Node26</title>
<g id="a_edge46_Node000025_Node000026"><a xlink:title=" ">
<path fill="none" stroke="#63b8ff" d="M780.24,-364.51C831.66,-354.35 904.56,-339.95 960.21,-328.96"/>
<polygon fill="#63b8ff" stroke="#63b8ff" points="960.9,-332.39 970.03,-327.02 959.55,-325.52 960.9,-332.39"/>
</a>
</g>
</g>
<!-- Node26&#45;&gt;Node21 -->
<g id="edge47_Node000026_Node000021" class="edge">
<title>Node26&#45;&gt;Node21</title>
<g id="a_edge47_Node000026_Node000021"><a xlink:title=" ">
<path fill="none" stroke="#63b8ff" d="M1048.06,-296.83C1052.77,-286.97 1058.84,-273.41 1063,-261 1069.16,-242.64 1074.13,-221.27 1077.44,-205.23"/>
<polygon fill="#63b8ff" stroke="#63b8ff" points="1080.94,-205.58 1079.46,-195.09 1074.07,-204.21 1080.94,-205.58"/>
</a>
</g>
</g>
<!-- Node26&#45;&gt;Node23 -->
<g id="edge48_Node000026_Node000023" class="edge">
<title>Node26&#45;&gt;Node23</title>
<g id="a_edge48_Node000026_Node000023"><a xlink:title=" ">
<path fill="none" stroke="#63b8ff" d="M1060.01,-296.78C1086.56,-276.29 1135.27,-236.37 1169,-195 1183.48,-177.24 1196.33,-154.18 1204.35,-138.46"/>
<polygon fill="#63b8ff" stroke="#63b8ff" points="1207.58,-139.82 1208.89,-129.31 1201.31,-136.71 1207.58,-139.82"/>
</a>
</g>
</g>
<!-- Node27 -->
<g id="Node000027" class="node">
<title>Node27</title>
<g id="a_Node000027"><a xlink:href="RBFBasis__fwd_8hpp.html" target="_top" xlink:title="Declaration of RBF basis.">
<polygon fill="white" stroke="#666666" points="1054,-255.5 948,-255.5 948,-236.5 1054,-236.5 1054,-255.5"/>
<text text-anchor="middle" x="1001" y="-243.5" font-family="Helvetica,sans-Serif" font-size="10.00">RBFBasis_fwd.hpp</text>
</a>
</g>
</g>
<!-- Node26&#45;&gt;Node27 -->
<g id="edge49_Node000026_Node000027" class="edge">
<title>Node26&#45;&gt;Node27</title>
<g id="a_edge49_Node000026_Node000027"><a xlink:title=" ">
<path fill="none" stroke="#63b8ff" d="M1032.12,-296.8C1026.19,-287.31 1018.35,-274.76 1012.02,-264.63"/>
<polygon fill="#63b8ff" stroke="#63b8ff" points="1014.8,-262.47 1006.53,-255.84 1008.86,-266.18 1014.8,-262.47"/>
</a>
</g>
</g>
<!-- Node27&#45;&gt;Node4 -->
<g id="edge50_Node000027_Node000004" class="edge">
<title>Node27&#45;&gt;Node4</title>
<g id="a_edge50_Node000027_Node000004"><a xlink:title=" ">
<path fill="none" stroke="#63b8ff" d="M998.68,-236.34C991.29,-208.68 968.11,-122.01 957.91,-83.85"/>
<polygon fill="#63b8ff" stroke="#63b8ff" points="961.26,-82.83 955.29,-74.07 954.49,-84.64 961.26,-82.83"/>
</a>
</g>
</g>
<!-- Node27&#45;&gt;Node12 -->
<g id="edge52_Node000027_Node000012" class="edge">
<title>Node27&#45;&gt;Node12</title>
<g id="a_edge52_Node000027_Node000012"><a xlink:title=" ">
<path fill="none" stroke="#63b8ff" d="M1054.21,-241.33C1121.53,-233.39 1234.1,-208.3 1279,-129 1295.14,-100.5 1252.13,-59.97 1246,-55 1217.61,-31.98 1176.58,-20.54 1148.46,-15.09"/>
<polygon fill="#63b8ff" stroke="#63b8ff" points="1148.83,-11.6 1138.37,-13.28 1147.6,-18.49 1148.83,-11.6"/>
</a>
</g>
</g>
<!-- Node27&#45;&gt;Node17 -->
<g id="edge51_Node000027_Node000017" class="edge">
<title>Node27&#45;&gt;Node17</title>
<g id="a_edge51_Node000027_Node000017"><a xlink:title=" ">
<path fill="none" stroke="#63b8ff" d="M993.96,-236.34C971.07,-208.2 898.53,-119.02 868.36,-81.93"/>
<polygon fill="#63b8ff" stroke="#63b8ff" points="871,-79.62 861.97,-74.07 865.57,-84.04 871,-79.62"/>
</a>
</g>
</g>
<!-- Node27&#45;&gt;Node21 -->
<g id="edge53_Node000027_Node000021" class="edge">
<title>Node27&#45;&gt;Node21</title>
<g id="a_edge53_Node000027_Node000021"><a xlink:title=" ">
<path fill="none" stroke="#63b8ff" d="M1011.92,-236.37C1023.22,-227.44 1041.26,-213.19 1056.21,-201.38"/>
<polygon fill="#63b8ff" stroke="#63b8ff" points="1058.46,-204.06 1064.13,-195.12 1054.12,-198.57 1058.46,-204.06"/>
</a>
</g>
</g>
<!-- Node28&#45;&gt;Node6 -->
<g id="edge57_Node000028_Node000006" class="edge">
<title>Node28&#45;&gt;Node6</title>
<g id="a_edge57_Node000028_Node000006"><a xlink:title=" ">
<path fill="none" stroke="#63b8ff" d="M625.95,-494.98C626.06,-472.64 628,-410.77 645,-363 657.58,-327.65 681.9,-291.49 698.54,-269.15"/>
<polygon fill="#63b8ff" stroke="#63b8ff" points="701.45,-271.09 704.71,-261.01 695.88,-266.86 701.45,-271.09"/>
</a>
</g>
</g>
<!-- Node29 -->
<g id="Node000029" class="node">
<title>Node29</title>
<g id="a_Node000029"><a xlink:href="printShapes_8hpp.html" target="_top" xlink:title="Suppport functions for shape printing.">
<polygon fill="white" stroke="#666666" points="550.5,-453.5 455.5,-453.5 455.5,-434.5 550.5,-434.5 550.5,-453.5"/>
<text text-anchor="middle" x="503" y="-441.5" font-family="Helvetica,sans-Serif" font-size="10.00">printShapes.hpp</text>
</a>
</g>
</g>
<!-- Node28&#45;&gt;Node29 -->
<g id="edge58_Node000028_Node000029" class="edge">
<title>Node28&#45;&gt;Node29</title>
<g id="a_edge58_Node000028_Node000029"><a xlink:title=" ">
<path fill="none" stroke="#63b8ff" d="M608.11,-494.99C587.62,-485.25 553.81,-469.16 530.08,-457.88"/>
<polygon fill="#63b8ff" stroke="#63b8ff" points="531.44,-454.65 520.91,-453.52 528.43,-460.97 531.44,-454.65"/>
</a>
</g>
</g>
<!-- Node29&#45;&gt;Node11 -->
<g id="edge60_Node000029_Node000011" class="edge">
<title>Node29&#45;&gt;Node11</title>
<g id="a_edge60_Node000029_Node000011"><a xlink:title=" ">
<path fill="none" stroke="#63b8ff" d="M455.32,-440.8C330.01,-433.73 1,-406.29 1,-313 1,-313 1,-313 1,-118.5 1,-85.95 13.44,-49.71 22.03,-28.57"/>
<polygon fill="#63b8ff" stroke="#63b8ff" points="25.3,-29.82 25.97,-19.25 18.85,-27.09 25.3,-29.82"/>
</a>
</g>
</g>
<!-- Node29&#45;&gt;Node25 -->
<g id="edge59_Node000029_Node000025" class="edge">
<title>Node29&#45;&gt;Node25</title>
<g id="a_edge59_Node000029_Node000025"><a xlink:title=" ">
<path fill="none" stroke="#63b8ff" d="M531.86,-434.37C564.6,-424.58 618.81,-408.37 660.13,-396.01"/>
<polygon fill="#63b8ff" stroke="#63b8ff" points="661.22,-399.33 669.8,-393.12 659.22,-392.63 661.22,-399.33"/>
</a>
</g>
</g>
<!-- Node30 -->
<g id="Node000030" class="node">
<title>Node30</title>
<g id="a_Node000030"><a xlink:href="memutils_8hpp.html" target="_top" xlink:title="Declaration of memory related utilities.">
<polygon fill="white" stroke="#666666" points="314.5,-189.5 143.5,-189.5 143.5,-170.5 314.5,-170.5 314.5,-189.5"/>
<text text-anchor="middle" x="229" y="-177.5" font-family="Helvetica,sans-Serif" font-size="10.00">medusa/bits/utils/memutils.hpp</text>
</a>
</g>
</g>
<!-- Node29&#45;&gt;Node30 -->
<g id="edge61_Node000029_Node000030" class="edge">
<title>Node29&#45;&gt;Node30</title>
<g id="a_edge61_Node000029_Node000030"><a xlink:title=" ">
<path fill="none" stroke="#63b8ff" d="M493.88,-434.28C454.31,-396.44 297.08,-246.09 245.49,-196.77"/>
<polygon fill="#63b8ff" stroke="#63b8ff" points="247.8,-194.13 238.15,-189.75 242.96,-199.19 247.8,-194.13"/>
</a>
</g>
</g>
<!-- Node30&#45;&gt;Node4 -->
<g id="edge63_Node000030_Node000004" class="edge">
<title>Node30&#45;&gt;Node4</title>
<g id="a_edge63_Node000030_Node000004"><a xlink:title=" ">
<path fill="none" stroke="#63b8ff" d="M212.96,-170.39C189.95,-157.01 152.41,-130.6 172,-110 198.21,-82.44 791.29,-77.96 887.54,-73.64"/>
<polygon fill="#63b8ff" stroke="#63b8ff" points="887.94,-77.13 897.71,-73.03 887.52,-70.14 887.94,-77.13"/>
</a>
</g>
</g>
<!-- Node30&#45;&gt;Node8 -->
<g id="edge64_Node000030_Node000008" class="edge">
<title>Node30&#45;&gt;Node8</title>
<g id="a_edge64_Node000030_Node000008"><a xlink:title=" ">
<path fill="none" stroke="#63b8ff" d="M244.64,-170.37C261.94,-160.82 290.05,-145.31 310.33,-134.12"/>
<polygon fill="#63b8ff" stroke="#63b8ff" points="312.23,-137.06 319.3,-129.17 308.85,-130.93 312.23,-137.06"/>
</a>
</g>
</g>
<!-- Node30&#45;&gt;Node16 -->
<g id="edge62_Node000030_Node000016" class="edge">
<title>Node30&#45;&gt;Node16</title>
<g id="a_edge62_Node000030_Node000016"><a xlink:title=" ">
<path fill="none" stroke="#63b8ff" d="M226.2,-170.37C223.5,-162.07 219.35,-149.28 215.92,-138.72"/>
<polygon fill="#63b8ff" stroke="#63b8ff" points="219.23,-137.6 212.82,-129.17 212.58,-139.76 219.23,-137.6"/>
</a>
</g>
</g>
<!-- Node33 -->
<g id="Node000033" class="node">
<title>Node33</title>
<g id="a_Node000033"><a xlink:href="Vec__fwd_8hpp.html" target="_top" xlink:title="Declaration of Vec.">
<polygon fill="white" stroke="#666666" points="1403.5,-129 1326.5,-129 1326.5,-110 1403.5,-110 1403.5,-129"/>
<text text-anchor="middle" x="1365" y="-117" font-family="Helvetica,sans-Serif" font-size="10.00">Vec_fwd.hpp</text>
</a>
</g>
</g>
<!-- Node32&#45;&gt;Node33 -->
<g id="edge69_Node000032_Node000033" class="edge">
<title>Node32&#45;&gt;Node33</title>
<g id="a_edge69_Node000032_Node000033"><a xlink:title=" ">
<path fill="none" stroke="#63b8ff" d="M1326.14,-560.62C1397.31,-555.64 1497.5,-543.46 1522,-514 1624.2,-391.13 1439.82,-193.36 1381.7,-136.35"/>
<polygon fill="#63b8ff" stroke="#63b8ff" points="1384,-133.7 1374.38,-129.26 1379.13,-138.73 1384,-133.7"/>
</a>
</g>
</g>
<!-- Node33&#45;&gt;Node4 -->
<g id="edge70_Node000033_Node000004" class="edge">
<title>Node33&#45;&gt;Node4</title>
<g id="a_edge70_Node000033_Node000004"><a xlink:title=" ">
<path fill="none" stroke="#63b8ff" d="M1326.24,-113.51C1255.52,-104.42 1104.88,-85.04 1018.15,-73.88"/>
<polygon fill="#63b8ff" stroke="#63b8ff" points="1018.53,-70.4 1008.16,-72.6 1017.63,-77.34 1018.53,-70.4"/>
</a>
</g>
</g>
<!-- Node33&#45;&gt;Node22 -->
<g id="edge71_Node000033_Node000022" class="edge">
<title>Node33&#45;&gt;Node22</title>
<g id="a_edge71_Node000033_Node000022"><a xlink:title=" ">
<path fill="none" stroke="#63b8ff" d="M1378.82,-109.98C1392.15,-101.77 1412.58,-89.18 1428.31,-79.49"/>
<polygon fill="#63b8ff" stroke="#63b8ff" points="1430.25,-82.4 1436.93,-74.17 1426.58,-76.44 1430.25,-82.4"/>
</a>
</g>
</g>
</g>
</svg>

<g id="navigator" transform="translate(0 0)" fill="#404254">
  <rect fill="#f2f5e9" fill-opacity="0.5" stroke="#606060" stroke-width=".5" x="0" y="0" width="60" height="60"/>
  <use id="zoomplus" xlink:href="#zoomPlus" x="17" y="9" onmousedown="handleZoom(evt,'in')"/>
  <use id="zoomminus" xlink:href="#zoomMin" x="42" y="9" onmousedown="handleZoom(evt,'out')"/>
  <use id="reset" xlink:href="#resetDef" x="30" y="36" onmousedown="handleReset()"/>
   <use id="arrowup" xlink:href="#arrowUp" x="0" y="0" onmousedown="handlePan(0,-1)"/>
  <use id="arrowright" xlink:href="#arrowRight" x="0" y="0" onmousedown="handlePan(1,0)"/>
  <use id="arrowdown" xlink:href="#arrowDown" x="0" y="0" onmousedown="handlePan(0,1)"/>
  <use id="arrowleft" xlink:href="#arrowLeft" x="0" y="0" onmousedown="handlePan(-1,0)"/>
</g>
<svg viewBox="0 0 15 15" width="100%" height="30px" preserveAspectRatio="xMaxYMin meet">
 <g id="arrow_out" transform="scale(0.3 0.3)">
  <a xlink:href="RaggedShapeStorage_8cpp__incl_org.svg" target="_base">
   <rect id="button" ry="5" rx="5" y="6" x="6" height="38" width="38"
        fill="#f2f5e9" fill-opacity="0.5" stroke="#606060" stroke-width="1.0"/>
   <path id="arrow"
     d="M 11.500037,31.436501 C 11.940474,20.09759 22.043105,11.32322 32.158766,21.979434 L 37.068811,17.246167 C 37.068811,17.246167 37.088388,32 37.088388,32 L 22.160133,31.978069 C 22.160133,31.978069 26.997745,27.140456 26.997745,27.140456 C 18.528582,18.264221 13.291696,25.230495 11.500037,31.436501 z"
     style="fill:#404040;"/>
  </a>
 </g>
</svg>

<style type='text/css'>
<![CDATA[
[data-mouse-over-selected='false'] { opacity: 0.7; }
[data-mouse-over-selected='true']  { opacity: 1.0; }
]]>
</style>
<script type="application/ecmascript"><![CDATA[
document.addEventListener('DOMContentLoaded', (event) => {
  highlightEdges();
  highlightAdjacentNodes();
});
]]></script>
</svg>
