<?xml version="1.0" encoding="UTF-8" standalone="no"?>
<!DOCTYPE svg PUBLIC "-//W3C//DTD SVG 1.1//EN"
 "http://www.w3.org/Graphics/SVG/1.1/DTD/svg11.dtd">
<!-- Generated by graphviz version 2.43.0 (0)
 -->
<!-- Title: include/medusa/bits/operators/RaggedShapeStorage.hpp Pages: 1 -->
<svg width="1429pt" height="588pt"
 viewBox="0.00 0.00 1428.50 588.00" xmlns="http://www.w3.org/2000/svg" xmlns:xlink="http://www.w3.org/1999/xlink">
<g id="graph0" class="graph" transform="scale(1 1) rotate(0) translate(4 584)">
<title>include/medusa/bits/operators/RaggedShapeStorage.hpp</title>
<!-- Node1 -->
<g id="Node000001" class="node">
<title>Node1</title>
<g id="a_Node000001"><a xlink:title="Implementation of shape storage for shapes of different sizes.">
<polygon fill="#999999" stroke="#666666" points="1085,-580 891,-580 891,-550 1085,-550 1085,-580"/>
<text text-anchor="start" x="899" y="-568" font-family="Helvetica,sans-Serif" font-size="10.00">include/medusa/bits</text>
<text text-anchor="middle" x="988" y="-557" font-family="Helvetica,sans-Serif" font-size="10.00">/operators/RaggedShapeStorage.hpp</text>
</a>
</g>
</g>
<!-- Node2 -->
<g id="Node000002" class="node">
<title>Node2</title>
<g id="a_Node000002"><a xlink:href="RaggedShapeStorage__fwd_8hpp.html" target="_top" xlink:title="Declaration of shape storage for shapes of different sizes.">
<polygon fill="white" stroke="#666666" points="799.5,-459 678.5,-459 678.5,-429 799.5,-429 799.5,-459"/>
<text text-anchor="start" x="686.5" y="-447" font-family="Helvetica,sans-Serif" font-size="10.00">RaggedShapeStorage</text>
<text text-anchor="middle" x="739" y="-436" font-family="Helvetica,sans-Serif" font-size="10.00">_fwd.hpp</text>
</a>
</g>
</g>
<!-- Node1&#45;&gt;Node2 -->
<g id="edge1_Node000001_Node000002" class="edge">
<title>Node1&#45;&gt;Node2</title>
<g id="a_edge1_Node000001_Node000002"><a xlink:title=" ">
<path fill="none" stroke="#63b8ff" d="M958.46,-549.88C913.44,-528.37 827.63,-487.36 777.69,-463.49"/>
<polygon fill="#63b8ff" stroke="#63b8ff" points="779.03,-460.25 768.5,-459.1 776.02,-466.57 779.03,-460.25"/>
</a>
</g>
</g>
<!-- Node7 -->
<g id="Node000007" class="node">
<title>Node7</title>
<g id="a_Node000007"><a xlink:href="assert_8hpp.html" target="_top" xlink:title="Implementation of custom assert and debug utilities.">
<polygon fill="white" stroke="#666666" points="1269.5,-129 1114.5,-129 1114.5,-110 1269.5,-110 1269.5,-129"/>
<text text-anchor="middle" x="1192" y="-117" font-family="Helvetica,sans-Serif" font-size="10.00">medusa/bits/utils/assert.hpp</text>
</a>
</g>
</g>
<!-- Node1&#45;&gt;Node7 -->
<g id="edge64_Node000001_Node000007" class="edge">
<title>Node1&#45;&gt;Node7</title>
<g id="a_edge64_Node000001_Node000007"><a xlink:title=" ">
<path fill="none" stroke="#63b8ff" d="M1083.1,-549.92C1142.2,-535.17 1207,-505.26 1207,-445 1207,-445 1207,-445 1207,-377 1207,-287.92 1197.87,-181.74 1193.86,-139.34"/>
<polygon fill="#63b8ff" stroke="#63b8ff" points="1197.34,-138.97 1192.89,-129.35 1190.37,-139.64 1197.34,-138.97"/>
</a>
</g>
</g>
<!-- Node21 -->
<g id="Node000021" class="node">
<title>Node21</title>
<g id="a_Node000021"><a xlink:title=" ">
<polygon fill="#e0e0e0" stroke="#999999" points="186.5,-74 117.5,-74 117.5,-55 186.5,-55 186.5,-74"/>
<text text-anchor="middle" x="152" y="-62" font-family="Helvetica,sans-Serif" font-size="10.00">Eigen/Core</text>
</a>
</g>
</g>
<!-- Node1&#45;&gt;Node21 -->
<g id="edge66_Node000001_Node000021" class="edge">
<title>Node1&#45;&gt;Node21</title>
<g id="a_edge66_Node000001_Node000021"><a xlink:title=" ">
<path fill="none" stroke="#63b8ff" d="M890.56,-562.36C641.31,-556.87 0,-534.08 0,-445 0,-445 0,-445 0,-179 0,-123.92 64.86,-92.37 109.84,-77.11"/>
<polygon fill="#63b8ff" stroke="#63b8ff" points="110.96,-80.43 119.39,-74.01 108.8,-73.77 110.96,-80.43"/>
</a>
</g>
</g>
<!-- Node24 -->
<g id="Node000024" class="node">
<title>Node24</title>
<g id="a_Node000024"><a xlink:href="shape__flags_8hpp.html" target="_top" xlink:title="Definition of flags related to shape computation.">
<polygon fill="white" stroke="#666666" points="680,-393 554,-393 554,-363 680,-363 680,-393"/>
<text text-anchor="start" x="562" y="-381" font-family="Helvetica,sans-Serif" font-size="10.00">medusa/bits/operators</text>
<text text-anchor="middle" x="617" y="-370" font-family="Helvetica,sans-Serif" font-size="10.00">/shape_flags.hpp</text>
</a>
</g>
</g>
<!-- Node1&#45;&gt;Node24 -->
<g id="edge54_Node000001_Node000024" class="edge">
<title>Node1&#45;&gt;Node24</title>
<g id="a_edge54_Node000001_Node000024"><a xlink:title=" ">
<path fill="none" stroke="#63b8ff" d="M892.87,-549.98C824.93,-536.11 734.37,-509.34 669,-459 649.84,-444.25 635.63,-420.31 626.94,-402.46"/>
<polygon fill="#63b8ff" stroke="#63b8ff" points="630.07,-400.87 622.69,-393.26 623.71,-403.81 630.07,-400.87"/>
</a>
</g>
</g>
<!-- Node27 -->
<g id="Node000027" class="node">
<title>Node27</title>
<g id="a_Node000027"><a xlink:href="ShapeStorage_8hpp.html" target="_top" xlink:title="Implementations of the ShapeStorage interface.">
<polygon fill="white" stroke="#666666" points="1104.5,-514 999.5,-514 999.5,-495 1104.5,-495 1104.5,-514"/>
<text text-anchor="middle" x="1052" y="-502" font-family="Helvetica,sans-Serif" font-size="10.00">ShapeStorage.hpp</text>
</a>
</g>
</g>
<!-- Node1&#45;&gt;Node27 -->
<g id="edge55_Node000001_Node000027" class="edge">
<title>Node1&#45;&gt;Node27</title>
<g id="a_edge55_Node000001_Node000027"><a xlink:title=" ">
<path fill="none" stroke="#63b8ff" d="M1003.49,-549.84C1012.97,-541.17 1025.11,-530.08 1034.88,-521.15"/>
<polygon fill="#63b8ff" stroke="#63b8ff" points="1037.39,-523.6 1042.41,-514.27 1032.67,-518.43 1037.39,-523.6"/>
</a>
</g>
</g>
<!-- Node30 -->
<g id="Node000030" class="node">
<title>Node30</title>
<g id="a_Node000030"><a xlink:title=" ">
<polygon fill="#e0e0e0" stroke="#999999" points="1285,-514 1235,-514 1235,-495 1285,-495 1285,-514"/>
<text text-anchor="middle" x="1260" y="-502" font-family="Helvetica,sans-Serif" font-size="10.00">cstring</text>
</a>
</g>
</g>
<!-- Node1&#45;&gt;Node30 -->
<g id="edge65_Node000001_Node000030" class="edge">
<title>Node1&#45;&gt;Node30</title>
<g id="a_edge65_Node000001_Node000030"><a xlink:title=" ">
<path fill="none" stroke="#63b8ff" d="M1053.54,-549.99C1100.24,-540 1164.49,-526.22 1221,-514 1222.26,-513.73 1223.54,-513.45 1224.83,-513.17"/>
<polygon fill="#63b8ff" stroke="#63b8ff" points="1225.8,-516.54 1234.83,-511 1224.31,-509.7 1225.8,-516.54"/>
</a>
</g>
</g>
<!-- Node3 -->
<g id="Node000003" class="node">
<title>Node3</title>
<g id="a_Node000003"><a xlink:href="Config_8hpp.html" target="_top" xlink:title="Contains compile time settings for the project, such as Eigen plugins.">
<polygon fill="white" stroke="#666666" points="952,-74 842,-74 842,-55 952,-55 952,-74"/>
<text text-anchor="middle" x="897" y="-62" font-family="Helvetica,sans-Serif" font-size="10.00">medusa/Config.hpp</text>
</a>
</g>
</g>
<!-- Node2&#45;&gt;Node3 -->
<g id="edge2_Node000002_Node000003" class="edge">
<title>Node2&#45;&gt;Node3</title>
<g id="a_edge2_Node000002_Node000003"><a xlink:title=" ">
<path fill="none" stroke="#63b8ff" d="M775.58,-428.95C848,-398.86 1008.06,-320.58 1071,-195 1078.1,-180.84 1071.19,-116.14 1066,-110 1052.43,-93.95 1004.03,-82.24 962.48,-74.87"/>
<polygon fill="#63b8ff" stroke="#63b8ff" points="962.82,-71.37 952.37,-73.13 961.64,-78.27 962.82,-71.37"/>
</a>
</g>
</g>
<!-- Node5 -->
<g id="Node000005" class="node">
<title>Node5</title>
<g id="a_Node000005"><a xlink:href="ShapeStorage__fwd_8hpp.html" target="_top" xlink:title="Base class and interface for storing and accessing computed shapes.">
<polygon fill="white" stroke="#666666" points="804.5,-261 673.5,-261 673.5,-231 804.5,-231 804.5,-261"/>
<text text-anchor="start" x="681.5" y="-249" font-family="Helvetica,sans-Serif" font-size="10.00">medusa/bits/operators</text>
<text text-anchor="middle" x="739" y="-238" font-family="Helvetica,sans-Serif" font-size="10.00">/ShapeStorage_fwd.hpp</text>
</a>
</g>
</g>
<!-- Node2&#45;&gt;Node5 -->
<g id="edge4_Node000002_Node000005" class="edge">
<title>Node2&#45;&gt;Node5</title>
<g id="a_edge4_Node000002_Node000005"><a xlink:title=" ">
<path fill="none" stroke="#63b8ff" d="M739,-428.9C739,-395.79 739,-312.7 739,-271.27"/>
<polygon fill="#63b8ff" stroke="#63b8ff" points="742.5,-271.23 739,-261.23 735.5,-271.23 742.5,-271.23"/>
</a>
</g>
</g>
<!-- Node2&#45;&gt;Node21 -->
<g id="edge53_Node000002_Node000021" class="edge">
<title>Node2&#45;&gt;Node21</title>
<g id="a_edge53_Node000002_Node000021"><a xlink:title=" ">
<path fill="none" stroke="#63b8ff" d="M678.22,-441.91C584.58,-437.31 403.36,-416.49 284,-327 200,-264.02 165.64,-132.55 155.48,-84.02"/>
<polygon fill="#63b8ff" stroke="#63b8ff" points="158.88,-83.15 153.49,-74.02 152.01,-84.52 158.88,-83.15"/>
</a>
</g>
</g>
<!-- Node2&#45;&gt;Node24 -->
<g id="edge42_Node000002_Node000024" class="edge">
<title>Node2&#45;&gt;Node24</title>
<g id="a_edge42_Node000002_Node000024"><a xlink:title=" ">
<path fill="none" stroke="#63b8ff" d="M712.23,-428.95C694.75,-419.78 671.72,-407.71 652.69,-397.72"/>
<polygon fill="#63b8ff" stroke="#63b8ff" points="654.19,-394.56 643.71,-393.01 650.94,-400.76 654.19,-394.56"/>
</a>
</g>
</g>
<!-- Node4 -->
<g id="Node000004" class="node">
<title>Node4</title>
<g id="a_Node000004"><a xlink:title=" ">
<polygon fill="#e0e0e0" stroke="#999999" points="920.5,-19 873.5,-19 873.5,0 920.5,0 920.5,-19"/>
<text text-anchor="middle" x="897" y="-7" font-family="Helvetica,sans-Serif" font-size="10.00">vector</text>
</a>
</g>
</g>
<!-- Node3&#45;&gt;Node4 -->
<g id="edge3_Node000003_Node000004" class="edge">
<title>Node3&#45;&gt;Node4</title>
<g id="a_edge3_Node000003_Node000004"><a xlink:title=" ">
<path fill="none" stroke="#63b8ff" d="M897,-54.75C897,-47.8 897,-37.85 897,-29.13"/>
<polygon fill="#63b8ff" stroke="#63b8ff" points="900.5,-29.09 897,-19.09 893.5,-29.09 900.5,-29.09"/>
</a>
</g>
</g>
<!-- Node5&#45;&gt;Node3 -->
<g id="edge5_Node000005_Node000003" class="edge">
<title>Node5&#45;&gt;Node3</title>
<g id="a_edge5_Node000005_Node000003"><a xlink:title=" ">
<path fill="none" stroke="#63b8ff" d="M804.69,-235.33C830.22,-228.28 857.47,-216.09 875,-195 901.27,-163.39 901.45,-112.09 899.26,-84.5"/>
<polygon fill="#63b8ff" stroke="#63b8ff" points="902.72,-83.86 898.25,-74.26 895.75,-84.55 902.72,-83.86"/>
</a>
</g>
</g>
<!-- Node6 -->
<g id="Node000006" class="node">
<title>Node6</title>
<g id="a_Node000006"><a xlink:href="Range__fwd_8hpp.html" target="_top" xlink:title="Declaration of Range.">
<polygon fill="white" stroke="#666666" points="1062,-195 922,-195 922,-165 1062,-165 1062,-195"/>
<text text-anchor="start" x="930" y="-183" font-family="Helvetica,sans-Serif" font-size="10.00">medusa/bits/types/Range</text>
<text text-anchor="middle" x="992" y="-172" font-family="Helvetica,sans-Serif" font-size="10.00">_fwd.hpp</text>
</a>
</g>
</g>
<!-- Node5&#45;&gt;Node6 -->
<g id="edge6_Node000005_Node000006" class="edge">
<title>Node5&#45;&gt;Node6</title>
<g id="a_edge6_Node000005_Node000006"><a xlink:title=" ">
<path fill="none" stroke="#63b8ff" d="M794.52,-230.95C833.49,-221.1 885.75,-207.88 926.72,-197.51"/>
<polygon fill="#63b8ff" stroke="#63b8ff" points="927.77,-200.86 936.61,-195.01 926.05,-194.07 927.77,-200.86"/>
</a>
</g>
</g>
<!-- Node13 -->
<g id="Node000013" class="node">
<title>Node13</title>
<g id="a_Node000013"><a xlink:title=" ">
<polygon fill="#e0e0e0" stroke="#999999" points="689.5,-19 648.5,-19 648.5,0 689.5,0 689.5,-19"/>
<text text-anchor="middle" x="669" y="-7" font-family="Helvetica,sans-Serif" font-size="10.00">tuple</text>
</a>
</g>
</g>
<!-- Node5&#45;&gt;Node13 -->
<g id="edge40_Node000005_Node000013" class="edge">
<title>Node5&#45;&gt;Node13</title>
<g id="a_edge40_Node000005_Node000013"><a xlink:title=" ">
<path fill="none" stroke="#63b8ff" d="M707.3,-230.94C692.83,-222.72 677.13,-210.8 669,-195 640.83,-140.26 654.96,-63.72 663.75,-28.97"/>
<polygon fill="#63b8ff" stroke="#63b8ff" points="667.15,-29.8 666.36,-19.23 660.39,-27.99 667.15,-29.8"/>
</a>
</g>
</g>
<!-- Node16 -->
<g id="Node000016" class="node">
<title>Node16</title>
<g id="a_Node000016"><a xlink:title=" ">
<polygon fill="#e0e0e0" stroke="#999999" points="486,-74 438,-74 438,-55 486,-55 486,-74"/>
<text text-anchor="middle" x="462" y="-62" font-family="Helvetica,sans-Serif" font-size="10.00">iosfwd</text>
</a>
</g>
</g>
<!-- Node5&#45;&gt;Node16 -->
<g id="edge39_Node000005_Node000016" class="edge">
<title>Node5&#45;&gt;Node16</title>
<g id="a_edge39_Node000005_Node000016"><a xlink:title=" ">
<path fill="none" stroke="#63b8ff" d="M706.16,-230.97C685.51,-221.68 658.6,-208.73 636,-195 575.69,-158.37 510.45,-105.98 479.8,-80.53"/>
<polygon fill="#63b8ff" stroke="#63b8ff" points="482.03,-77.83 472.11,-74.1 477.54,-83.2 482.03,-77.83"/>
</a>
</g>
</g>
<!-- Node17 -->
<g id="Node000017" class="node">
<title>Node17</title>
<g id="a_Node000017"><a xlink:href="stdtypesutils_8hpp.html" target="_top" xlink:title="Declaration of utilities for std types.">
<polygon fill="white" stroke="#666666" points="866,-189.5 678,-189.5 678,-170.5 866,-170.5 866,-189.5"/>
<text text-anchor="middle" x="772" y="-177.5" font-family="Helvetica,sans-Serif" font-size="10.00">medusa/bits/utils/stdtypesutils.hpp</text>
</a>
</g>
</g>
<!-- Node5&#45;&gt;Node17 -->
<g id="edge20_Node000005_Node000017" class="edge">
<title>Node5&#45;&gt;Node17</title>
<g id="a_edge20_Node000005_Node000017"><a xlink:title=" ">
<path fill="none" stroke="#63b8ff" d="M746.32,-230.8C751.17,-221.41 757.55,-209.02 762.75,-198.95"/>
<polygon fill="#63b8ff" stroke="#63b8ff" points="765.97,-200.34 767.44,-189.84 759.75,-197.13 765.97,-200.34"/>
</a>
</g>
</g>
<!-- Node20 -->
<g id="Node000020" class="node">
<title>Node20</title>
<g id="a_Node000020"><a xlink:href="Operators__fwd_8hpp.html" target="_top" xlink:title="File defining basic differential operator families.">
<polygon fill="white" stroke="#666666" points="408,-195 252,-195 252,-165 408,-165 408,-195"/>
<text text-anchor="start" x="260" y="-183" font-family="Helvetica,sans-Serif" font-size="10.00">medusa/bits/approximations</text>
<text text-anchor="middle" x="330" y="-172" font-family="Helvetica,sans-Serif" font-size="10.00">/Operators_fwd.hpp</text>
</a>
</g>
</g>
<!-- Node5&#45;&gt;Node20 -->
<g id="edge27_Node000005_Node000020" class="edge">
<title>Node5&#45;&gt;Node20</title>
<g id="a_edge27_Node000005_Node000020"><a xlink:title=" ">
<path fill="none" stroke="#63b8ff" d="M673.29,-234.72C604.13,-223.9 494.89,-206.8 418.25,-194.81"/>
<polygon fill="#63b8ff" stroke="#63b8ff" points="418.55,-191.31 408.13,-193.23 417.47,-198.23 418.55,-191.31"/>
</a>
</g>
</g>
<!-- Node5&#45;&gt;Node21 -->
<g id="edge41_Node000005_Node000021" class="edge">
<title>Node5&#45;&gt;Node21</title>
<g id="a_edge41_Node000005_Node000021"><a xlink:title=" ">
<path fill="none" stroke="#63b8ff" d="M673.31,-241.15C547.17,-233.35 280.17,-214.74 243,-195 197.83,-171.01 170.24,-113.44 158.54,-83.81"/>
<polygon fill="#63b8ff" stroke="#63b8ff" points="161.75,-82.39 154.95,-74.27 155.2,-84.86 161.75,-82.39"/>
</a>
</g>
</g>
<!-- Node6&#45;&gt;Node3 -->
<g id="edge7_Node000006_Node000003" class="edge">
<title>Node6&#45;&gt;Node3</title>
<g id="a_edge7_Node000006_Node000003"><a xlink:title=" ">
<path fill="none" stroke="#63b8ff" d="M982.68,-164.75C973.09,-150.43 957.41,-127.97 942,-110 933.35,-99.91 922.82,-89.42 914.13,-81.16"/>
<polygon fill="#63b8ff" stroke="#63b8ff" points="916.46,-78.55 906.77,-74.28 911.68,-83.66 916.46,-78.55"/>
</a>
</g>
</g>
<!-- Node6&#45;&gt;Node4 -->
<g id="edge18_Node000006_Node000004" class="edge">
<title>Node6&#45;&gt;Node4</title>
<g id="a_edge18_Node000006_Node000004"><a xlink:title=" ">
<path fill="none" stroke="#63b8ff" d="M1062.19,-176.74C1137.8,-172.65 1250.96,-161.17 1278,-129 1291.11,-113.4 1289.38,-75.71 1267,-55 1266.81,-54.82 1022.07,-25.48 930.79,-14.55"/>
<polygon fill="#63b8ff" stroke="#63b8ff" points="931.04,-11.05 920.69,-13.34 930.21,-18 931.04,-11.05"/>
</a>
</g>
</g>
<!-- Node6&#45;&gt;Node7 -->
<g id="edge8_Node000006_Node000007" class="edge">
<title>Node6&#45;&gt;Node7</title>
<g id="a_edge8_Node000006_Node000007"><a xlink:title=" ">
<path fill="none" stroke="#63b8ff" d="M1039.9,-164.99C1074.42,-154.89 1120.42,-141.44 1152.77,-131.98"/>
<polygon fill="#63b8ff" stroke="#63b8ff" points="1154.14,-135.22 1162.76,-129.05 1152.18,-128.5 1154.14,-135.22"/>
</a>
</g>
</g>
<!-- Node14 -->
<g id="Node000014" class="node">
<title>Node14</title>
<g id="a_Node000014"><a xlink:href="traits_8hpp.html" target="_top" xlink:title="Type traits definition for vector and scalar fields.">
<polygon fill="white" stroke="#666666" points="1057.5,-129 994.5,-129 994.5,-110 1057.5,-110 1057.5,-129"/>
<text text-anchor="middle" x="1026" y="-117" font-family="Helvetica,sans-Serif" font-size="10.00">traits.hpp</text>
</a>
</g>
</g>
<!-- Node6&#45;&gt;Node14 -->
<g id="edge16_Node000006_Node000014" class="edge">
<title>Node6&#45;&gt;Node14</title>
<g id="a_edge16_Node000006_Node000014"><a xlink:title=" ">
<path fill="none" stroke="#63b8ff" d="M1000.23,-164.84C1004.91,-156.78 1010.82,-146.62 1015.8,-138.06"/>
<polygon fill="#63b8ff" stroke="#63b8ff" points="1018.91,-139.67 1020.91,-129.27 1012.85,-136.15 1018.91,-139.67"/>
</a>
</g>
</g>
<!-- Node15 -->
<g id="Node000015" class="node">
<title>Node15</title>
<g id="a_Node000015"><a xlink:title=" ">
<polygon fill="#e0e0e0" stroke="#999999" points="1384,-129 1326,-129 1326,-110 1384,-110 1384,-129"/>
<text text-anchor="middle" x="1355" y="-117" font-family="Helvetica,sans-Serif" font-size="10.00">memory</text>
</a>
</g>
</g>
<!-- Node6&#45;&gt;Node15 -->
<g id="edge17_Node000006_Node000015" class="edge">
<title>Node6&#45;&gt;Node15</title>
<g id="a_edge17_Node000006_Node000015"><a xlink:title=" ">
<path fill="none" stroke="#63b8ff" d="M1062.05,-168.88C1126.97,-159.31 1226.18,-144.18 1312,-129 1313.26,-128.78 1314.55,-128.55 1315.85,-128.31"/>
<polygon fill="#63b8ff" stroke="#63b8ff" points="1316.71,-131.71 1325.89,-126.42 1315.41,-124.83 1316.71,-131.71"/>
</a>
</g>
</g>
<!-- Node6&#45;&gt;Node16 -->
<g id="edge19_Node000006_Node000016" class="edge">
<title>Node6&#45;&gt;Node16</title>
<g id="a_edge19_Node000006_Node000016"><a xlink:title=" ">
<path fill="none" stroke="#63b8ff" d="M958.29,-164.9C919.37,-149.18 853.13,-124.11 794,-110 687.01,-84.47 556.88,-72.37 496.21,-67.8"/>
<polygon fill="#63b8ff" stroke="#63b8ff" points="496.28,-64.29 486.06,-67.05 495.77,-71.27 496.28,-64.29"/>
</a>
</g>
</g>
<!-- Node8 -->
<g id="Node000008" class="node">
<title>Node8</title>
<g id="a_Node000008"><a xlink:title=" ">
<polygon fill="#e0e0e0" stroke="#999999" points="1258,-74 1126,-74 1126,-55 1258,-55 1258,-74"/>
<text text-anchor="middle" x="1192" y="-62" font-family="Helvetica,sans-Serif" font-size="10.00">tinyformat/tinyformat.h</text>
</a>
</g>
</g>
<!-- Node7&#45;&gt;Node8 -->
<g id="edge9_Node000007_Node000008" class="edge">
<title>Node7&#45;&gt;Node8</title>
<g id="a_edge9_Node000007_Node000008"><a xlink:title=" ">
<path fill="none" stroke="#63b8ff" d="M1192,-109.75C1192,-102.8 1192,-92.85 1192,-84.13"/>
<polygon fill="#63b8ff" stroke="#63b8ff" points="1195.5,-84.09 1192,-74.09 1188.5,-84.09 1195.5,-84.09"/>
</a>
</g>
</g>
<!-- Node9 -->
<g id="Node000009" class="node">
<title>Node9</title>
<g id="a_Node000009"><a xlink:href="print_8hpp.html" target="_top" xlink:title="Printing helpers for std types.">
<polygon fill="white" stroke="#666666" points="1030,-74 970,-74 970,-55 1030,-55 1030,-74"/>
<text text-anchor="middle" x="1000" y="-62" font-family="Helvetica,sans-Serif" font-size="10.00">print.hpp</text>
</a>
</g>
</g>
<!-- Node7&#45;&gt;Node9 -->
<g id="edge10_Node000007_Node000009" class="edge">
<title>Node7&#45;&gt;Node9</title>
<g id="a_edge10_Node000007_Node000009"><a xlink:title=" ">
<path fill="none" stroke="#63b8ff" d="M1161.15,-109.98C1128.21,-100.89 1075.88,-86.45 1039.84,-76.5"/>
<polygon fill="#63b8ff" stroke="#63b8ff" points="1040.71,-73.11 1030.14,-73.82 1038.85,-79.85 1040.71,-73.11"/>
</a>
</g>
</g>
<!-- Node9&#45;&gt;Node4 -->
<g id="edge12_Node000009_Node000004" class="edge">
<title>Node9&#45;&gt;Node4</title>
<g id="a_edge12_Node000009_Node000004"><a xlink:title=" ">
<path fill="none" stroke="#63b8ff" d="M983.45,-54.98C967.11,-46.57 941.87,-33.59 922.87,-23.81"/>
<polygon fill="#63b8ff" stroke="#63b8ff" points="924.34,-20.63 913.85,-19.17 921.14,-26.86 924.34,-20.63"/>
</a>
</g>
</g>
<!-- Node10 -->
<g id="Node000010" class="node">
<title>Node10</title>
<g id="a_Node000010"><a xlink:title=" ">
<polygon fill="#e0e0e0" stroke="#999999" points="1290,-19 1230,-19 1230,0 1290,0 1290,-19"/>
<text text-anchor="middle" x="1260" y="-7" font-family="Helvetica,sans-Serif" font-size="10.00">iostream</text>
</a>
</g>
</g>
<!-- Node9&#45;&gt;Node10 -->
<g id="edge11_Node000009_Node000010" class="edge">
<title>Node9&#45;&gt;Node10</title>
<g id="a_edge11_Node000009_Node000010"><a xlink:title=" ">
<path fill="none" stroke="#63b8ff" d="M1030.08,-57.37C1076.95,-47.81 1167.45,-29.37 1219.84,-18.69"/>
<polygon fill="#63b8ff" stroke="#63b8ff" points="1220.69,-22.09 1229.79,-16.66 1219.29,-15.23 1220.69,-22.09"/>
</a>
</g>
</g>
<!-- Node11 -->
<g id="Node000011" class="node">
<title>Node11</title>
<g id="a_Node000011"><a xlink:title=" ">
<polygon fill="#e0e0e0" stroke="#999999" points="268,-19 226,-19 226,0 268,0 268,-19"/>
<text text-anchor="middle" x="247" y="-7" font-family="Helvetica,sans-Serif" font-size="10.00">array</text>
</a>
</g>
</g>
<!-- Node9&#45;&gt;Node11 -->
<g id="edge13_Node000009_Node000011" class="edge">
<title>Node9&#45;&gt;Node11</title>
<g id="a_edge13_Node000009_Node000011"><a xlink:title=" ">
<path fill="none" stroke="#63b8ff" d="M969.85,-56.45C966.87,-55.9 963.88,-55.4 961,-55 698.7,-18.46 378,-11.92 278.16,-10.75"/>
<polygon fill="#63b8ff" stroke="#63b8ff" points="278.18,-7.25 268.14,-10.64 278.11,-14.25 278.18,-7.25"/>
</a>
</g>
</g>
<!-- Node12 -->
<g id="Node000012" class="node">
<title>Node12</title>
<g id="a_Node000012"><a xlink:title=" ">
<polygon fill="#e0e0e0" stroke="#999999" points="1022.5,-19 977.5,-19 977.5,0 1022.5,0 1022.5,-19"/>
<text text-anchor="middle" x="1000" y="-7" font-family="Helvetica,sans-Serif" font-size="10.00">utility</text>
</a>
</g>
</g>
<!-- Node9&#45;&gt;Node12 -->
<g id="edge14_Node000009_Node000012" class="edge">
<title>Node9&#45;&gt;Node12</title>
<g id="a_edge14_Node000009_Node000012"><a xlink:title=" ">
<path fill="none" stroke="#63b8ff" d="M1000,-54.75C1000,-47.8 1000,-37.85 1000,-29.13"/>
<polygon fill="#63b8ff" stroke="#63b8ff" points="1003.5,-29.09 1000,-19.09 996.5,-29.09 1003.5,-29.09"/>
</a>
</g>
</g>
<!-- Node9&#45;&gt;Node13 -->
<g id="edge15_Node000009_Node000013" class="edge">
<title>Node9&#45;&gt;Node13</title>
<g id="a_edge15_Node000009_Node000013"><a xlink:title=" ">
<path fill="none" stroke="#63b8ff" d="M969.8,-56.72C966.83,-56.11 963.86,-55.53 961,-55 866.18,-37.46 753.11,-21.68 699.76,-14.53"/>
<polygon fill="#63b8ff" stroke="#63b8ff" points="699.98,-11.03 689.61,-13.18 699.06,-17.97 699.98,-11.03"/>
</a>
</g>
</g>
<!-- Node17&#45;&gt;Node3 -->
<g id="edge21_Node000017_Node000003" class="edge">
<title>Node17&#45;&gt;Node3</title>
<g id="a_edge21_Node000017_Node000003"><a xlink:title=" ">
<path fill="none" stroke="#63b8ff" d="M781.95,-170.19C793.18,-160.24 811.97,-143.53 828,-129 845.95,-112.73 866.34,-93.92 880.28,-81.02"/>
<polygon fill="#63b8ff" stroke="#63b8ff" points="882.71,-83.54 887.67,-74.17 877.95,-78.4 882.71,-83.54"/>
</a>
</g>
</g>
<!-- Node17&#45;&gt;Node4 -->
<g id="edge24_Node000017_Node000004" class="edge">
<title>Node17&#45;&gt;Node4</title>
<g id="a_edge24_Node000017_Node000004"><a xlink:title=" ">
<path fill="none" stroke="#63b8ff" d="M775.88,-170.5C787.97,-144.1 824.67,-64.69 833,-55 843.65,-42.61 858.48,-32.02 871.19,-24.27"/>
<polygon fill="#63b8ff" stroke="#63b8ff" points="873.1,-27.21 879.98,-19.15 869.57,-21.16 873.1,-27.21"/>
</a>
</g>
</g>
<!-- Node17&#45;&gt;Node7 -->
<g id="edge22_Node000017_Node000007" class="edge">
<title>Node17&#45;&gt;Node7</title>
<g id="a_edge22_Node000017_Node000007"><a xlink:title=" ">
<path fill="none" stroke="#63b8ff" d="M833.07,-170.49C909.43,-159.86 1039.93,-141.68 1120.76,-130.42"/>
<polygon fill="#63b8ff" stroke="#63b8ff" points="1121.43,-133.86 1130.85,-129.02 1120.47,-126.93 1121.43,-133.86"/>
</a>
</g>
</g>
<!-- Node17&#45;&gt;Node13 -->
<g id="edge25_Node000017_Node000013" class="edge">
<title>Node17&#45;&gt;Node13</title>
<g id="a_edge25_Node000017_Node000013"><a xlink:title=" ">
<path fill="none" stroke="#63b8ff" d="M755.84,-170.39C741.12,-161.76 719.77,-147.17 707,-129 685.23,-98.03 675.46,-53.93 671.46,-29.19"/>
<polygon fill="#63b8ff" stroke="#63b8ff" points="674.88,-28.41 669.97,-19.02 667.96,-29.42 674.88,-28.41"/>
</a>
</g>
</g>
<!-- Node18 -->
<g id="Node000018" class="node">
<title>Node18</title>
<g id="a_Node000018"><a xlink:title=" ">
<polygon fill="#e0e0e0" stroke="#999999" points="622,-129 578,-129 578,-110 622,-110 622,-129"/>
<text text-anchor="middle" x="600" y="-117" font-family="Helvetica,sans-Serif" font-size="10.00">string</text>
</a>
</g>
</g>
<!-- Node17&#45;&gt;Node18 -->
<g id="edge23_Node000017_Node000018" class="edge">
<title>Node17&#45;&gt;Node18</title>
<g id="a_edge23_Node000017_Node000018"><a xlink:title=" ">
<path fill="none" stroke="#63b8ff" d="M746.99,-170.49C716.51,-160.13 664.97,-142.6 631.72,-131.29"/>
<polygon fill="#63b8ff" stroke="#63b8ff" points="632.63,-127.9 622.04,-128 630.38,-134.53 632.63,-127.9"/>
</a>
</g>
</g>
<!-- Node19 -->
<g id="Node000019" class="node">
<title>Node19</title>
<g id="a_Node000019"><a xlink:title=" ">
<polygon fill="#e0e0e0" stroke="#999999" points="785.5,-129 716.5,-129 716.5,-110 785.5,-110 785.5,-129"/>
<text text-anchor="middle" x="751" y="-117" font-family="Helvetica,sans-Serif" font-size="10.00">type_traits</text>
</a>
</g>
</g>
<!-- Node17&#45;&gt;Node19 -->
<g id="edge26_Node000017_Node000019" class="edge">
<title>Node17&#45;&gt;Node19</title>
<g id="a_edge26_Node000017_Node000019"><a xlink:title=" ">
<path fill="none" stroke="#63b8ff" d="M768.9,-170.37C765.92,-162.07 761.33,-149.28 757.54,-138.72"/>
<polygon fill="#63b8ff" stroke="#63b8ff" points="760.78,-137.4 754.11,-129.17 754.2,-139.76 760.78,-137.4"/>
</a>
</g>
</g>
<!-- Node20&#45;&gt;Node3 -->
<g id="edge28_Node000020_Node000003" class="edge">
<title>Node20&#45;&gt;Node3</title>
<g id="a_edge28_Node000020_Node000003"><a xlink:title=" ">
<path fill="none" stroke="#63b8ff" d="M364.75,-164.97C405.21,-149.2 474.39,-123.97 536,-110 637.84,-86.91 758.75,-75.08 831.59,-69.6"/>
<polygon fill="#63b8ff" stroke="#63b8ff" points="832.26,-73.06 841.98,-68.84 831.75,-66.08 832.26,-73.06"/>
</a>
</g>
</g>
<!-- Node20&#45;&gt;Node4 -->
<g id="edge30_Node000020_Node000004" class="edge">
<title>Node20&#45;&gt;Node4</title>
<g id="a_edge30_Node000020_Node000004"><a xlink:title=" ">
<path fill="none" stroke="#63b8ff" d="M345.31,-164.78C355.37,-155.11 368.55,-141.8 379,-129 404.1,-98.26 394.87,-75.26 429,-55 466.15,-32.95 762.05,-16.93 863.22,-12.05"/>
<polygon fill="#63b8ff" stroke="#63b8ff" points="863.39,-15.55 873.21,-11.58 863.06,-8.56 863.39,-15.55"/>
</a>
</g>
</g>
<!-- Node20&#45;&gt;Node7 -->
<g id="edge38_Node000020_Node000007" class="edge">
<title>Node20&#45;&gt;Node7</title>
<g id="a_edge38_Node000020_Node000007"><a xlink:title=" ">
<path fill="none" stroke="#63b8ff" d="M408.02,-173.71C568.75,-162.8 935.8,-137.89 1104.39,-126.45"/>
<polygon fill="#63b8ff" stroke="#63b8ff" points="1104.73,-129.93 1114.47,-125.76 1104.26,-122.95 1104.73,-129.93"/>
</a>
</g>
</g>
<!-- Node20&#45;&gt;Node11 -->
<g id="edge29_Node000020_Node000011" class="edge">
<title>Node20&#45;&gt;Node11</title>
<g id="a_edge29_Node000020_Node000011"><a xlink:title=" ">
<path fill="none" stroke="#63b8ff" d="M289.56,-164.91C273.31,-157.02 256.27,-145.4 247,-129 229.27,-97.62 235.81,-53.7 241.7,-29.1"/>
<polygon fill="#63b8ff" stroke="#63b8ff" points="245.13,-29.82 244.27,-19.26 238.35,-28.05 245.13,-29.82"/>
</a>
</g>
</g>
<!-- Node20&#45;&gt;Node21 -->
<g id="edge31_Node000020_Node000021" class="edge">
<title>Node20&#45;&gt;Node21</title>
<g id="a_edge31_Node000020_Node000021"><a xlink:title=" ">
<path fill="none" stroke="#63b8ff" d="M286.6,-164.91C263.88,-156.42 236.23,-144.28 214,-129 194.86,-115.85 176.77,-96.17 165.12,-82.21"/>
<polygon fill="#63b8ff" stroke="#63b8ff" points="167.77,-79.92 158.75,-74.37 162.34,-84.34 167.77,-79.92"/>
</a>
</g>
</g>
<!-- Node22 -->
<g id="Node000022" class="node">
<title>Node22</title>
<g id="a_Node000022"><a xlink:href="Monomials__fwd_8hpp.html" target="_top" xlink:title="Declaration of Monomial basis.">
<polygon fill="white" stroke="#666666" points="370,-129 256,-129 256,-110 370,-110 370,-129"/>
<text text-anchor="middle" x="313" y="-117" font-family="Helvetica,sans-Serif" font-size="10.00">Monomials_fwd.hpp</text>
</a>
</g>
</g>
<!-- Node20&#45;&gt;Node22 -->
<g id="edge32_Node000020_Node000022" class="edge">
<title>Node20&#45;&gt;Node22</title>
<g id="a_edge32_Node000020_Node000022"><a xlink:title=" ">
<path fill="none" stroke="#63b8ff" d="M325.88,-164.84C323.62,-157.04 320.78,-147.27 318.34,-138.89"/>
<polygon fill="#63b8ff" stroke="#63b8ff" points="321.7,-137.89 315.55,-129.27 314.98,-139.85 321.7,-137.89"/>
</a>
</g>
</g>
<!-- Node22&#45;&gt;Node3 -->
<g id="edge33_Node000022_Node000003" class="edge">
<title>Node22&#45;&gt;Node3</title>
<g id="a_edge33_Node000022_Node000003"><a xlink:title=" ">
<path fill="none" stroke="#63b8ff" d="M370.06,-113.32C479.13,-103.42 716.59,-81.87 831.76,-71.42"/>
<polygon fill="#63b8ff" stroke="#63b8ff" points="832.21,-74.89 841.85,-70.51 831.57,-67.92 832.21,-74.89"/>
</a>
</g>
</g>
<!-- Node22&#45;&gt;Node11 -->
<g id="edge35_Node000022_Node000011" class="edge">
<title>Node22&#45;&gt;Node11</title>
<g id="a_edge35_Node000022_Node000011"><a xlink:title=" ">
<path fill="none" stroke="#63b8ff" d="M307.36,-109.67C301.67,-100.72 292.64,-86.45 285,-74 275.47,-58.47 264.83,-40.65 257.24,-27.85"/>
<polygon fill="#63b8ff" stroke="#63b8ff" points="260.21,-25.99 252.1,-19.16 254.18,-29.55 260.21,-25.99"/>
</a>
</g>
</g>
<!-- Node22&#45;&gt;Node16 -->
<g id="edge37_Node000022_Node000016" class="edge">
<title>Node22&#45;&gt;Node16</title>
<g id="a_edge37_Node000022_Node000016"><a xlink:title=" ">
<path fill="none" stroke="#63b8ff" d="M336.94,-109.98C361.56,-101.23 400.12,-87.51 427.92,-77.62"/>
<polygon fill="#63b8ff" stroke="#63b8ff" points="429.38,-80.82 437.62,-74.17 427.03,-74.22 429.38,-80.82"/>
</a>
</g>
</g>
<!-- Node22&#45;&gt;Node21 -->
<g id="edge36_Node000022_Node000021" class="edge">
<title>Node22&#45;&gt;Node21</title>
<g id="a_edge36_Node000022_Node000021"><a xlink:title=" ">
<path fill="none" stroke="#63b8ff" d="M287.13,-109.98C260.22,-101.13 217.88,-87.19 187.77,-77.28"/>
<polygon fill="#63b8ff" stroke="#63b8ff" points="188.66,-73.88 178.07,-74.08 186.47,-80.53 188.66,-73.88"/>
</a>
</g>
</g>
<!-- Node23 -->
<g id="Node000023" class="node">
<title>Node23</title>
<g id="a_Node000023"><a xlink:title=" ">
<polygon fill="#e0e0e0" stroke="#999999" points="341.5,-74 294.5,-74 294.5,-55 341.5,-55 341.5,-74"/>
<text text-anchor="middle" x="318" y="-62" font-family="Helvetica,sans-Serif" font-size="10.00">cmath</text>
</a>
</g>
</g>
<!-- Node22&#45;&gt;Node23 -->
<g id="edge34_Node000022_Node000023" class="edge">
<title>Node22&#45;&gt;Node23</title>
<g id="a_edge34_Node000022_Node000023"><a xlink:title=" ">
<path fill="none" stroke="#63b8ff" d="M313.83,-109.75C314.48,-102.8 315.42,-92.85 316.24,-84.13"/>
<polygon fill="#63b8ff" stroke="#63b8ff" points="319.73,-84.37 317.19,-74.09 312.77,-83.72 319.73,-84.37"/>
</a>
</g>
</g>
<!-- Node24&#45;&gt;Node13 -->
<g id="edge44_Node000024_Node000013" class="edge">
<title>Node24&#45;&gt;Node13</title>
<g id="a_edge44_Node000024_Node000013"><a xlink:title=" ">
<path fill="none" stroke="#63b8ff" d="M553.82,-372.46C470.67,-365.64 329.69,-350.95 284,-327 156.47,-260.15 10.29,-160.76 108,-55 144.13,-15.89 525.51,-11.12 637.96,-10.57"/>
<polygon fill="#63b8ff" stroke="#63b8ff" points="638.29,-14.06 648.28,-10.52 638.26,-7.06 638.29,-14.06"/>
</a>
</g>
</g>
<!-- Node24&#45;&gt;Node18 -->
<g id="edge43_Node000024_Node000018" class="edge">
<title>Node24&#45;&gt;Node18</title>
<g id="a_edge43_Node000024_Node000018"><a xlink:title=" ">
<path fill="none" stroke="#63b8ff" d="M616.06,-362.84C613.19,-319.48 604.5,-188.45 601.25,-139.35"/>
<polygon fill="#63b8ff" stroke="#63b8ff" points="604.73,-138.95 600.58,-129.21 597.75,-139.42 604.73,-138.95"/>
</a>
</g>
</g>
<!-- Node25 -->
<g id="Node000025" class="node">
<title>Node25</title>
<g id="a_Node000025"><a xlink:href="bits_2approximations_2Operators_8hpp.html" target="_top" xlink:title="Implementations of differential operator families.">
<polygon fill="white" stroke="#666666" points="449,-327 293,-327 293,-297 449,-297 449,-327"/>
<text text-anchor="start" x="301" y="-315" font-family="Helvetica,sans-Serif" font-size="10.00">medusa/bits/approximations</text>
<text text-anchor="middle" x="371" y="-304" font-family="Helvetica,sans-Serif" font-size="10.00">/Operators.hpp</text>
</a>
</g>
</g>
<!-- Node24&#45;&gt;Node25 -->
<g id="edge45_Node000024_Node000025" class="edge">
<title>Node24&#45;&gt;Node25</title>
<g id="a_edge45_Node000024_Node000025"><a xlink:title=" ">
<path fill="none" stroke="#63b8ff" d="M563.01,-362.95C525.2,-353.12 474.53,-339.93 434.73,-329.58"/>
<polygon fill="#63b8ff" stroke="#63b8ff" points="435.42,-326.14 424.86,-327.01 433.66,-332.92 435.42,-326.14"/>
</a>
</g>
</g>
<!-- Node25&#45;&gt;Node20 -->
<g id="edge46_Node000025_Node000020" class="edge">
<title>Node25&#45;&gt;Node20</title>
<g id="a_edge46_Node000025_Node000020"><a xlink:title=" ">
<path fill="none" stroke="#63b8ff" d="M363.94,-296.83C359.23,-286.97 353.16,-273.41 349,-261 342.84,-242.64 337.87,-221.27 334.56,-205.23"/>
<polygon fill="#63b8ff" stroke="#63b8ff" points="337.93,-204.21 332.54,-195.09 331.06,-205.58 337.93,-204.21"/>
</a>
</g>
</g>
<!-- Node25&#45;&gt;Node22 -->
<g id="edge47_Node000025_Node000022" class="edge">
<title>Node25&#45;&gt;Node22</title>
<g id="a_edge47_Node000025_Node000022"><a xlink:title=" ">
<path fill="none" stroke="#63b8ff" d="M345.45,-296.96C314.5,-278.31 263.9,-242.16 243,-195 237.6,-182.81 236.58,-176.69 243,-165 250.77,-150.85 265.17,-140.56 278.89,-133.46"/>
<polygon fill="#63b8ff" stroke="#63b8ff" points="280.66,-136.49 288.19,-129.05 277.66,-130.17 280.66,-136.49"/>
</a>
</g>
</g>
<!-- Node26 -->
<g id="Node000026" class="node">
<title>Node26</title>
<g id="a_Node000026"><a xlink:href="RBFBasis__fwd_8hpp.html" target="_top" xlink:title="Declaration of RBF basis.">
<polygon fill="white" stroke="#666666" points="464,-255.5 358,-255.5 358,-236.5 464,-236.5 464,-255.5"/>
<text text-anchor="middle" x="411" y="-243.5" font-family="Helvetica,sans-Serif" font-size="10.00">RBFBasis_fwd.hpp</text>
</a>
</g>
</g>
<!-- Node25&#45;&gt;Node26 -->
<g id="edge48_Node000025_Node000026" class="edge">
<title>Node25&#45;&gt;Node26</title>
<g id="a_edge48_Node000025_Node000026"><a xlink:title=" ">
<path fill="none" stroke="#63b8ff" d="M379.88,-296.8C385.81,-287.31 393.65,-274.76 399.98,-264.63"/>
<polygon fill="#63b8ff" stroke="#63b8ff" points="403.14,-266.18 405.47,-255.84 397.2,-262.47 403.14,-266.18"/>
</a>
</g>
</g>
<!-- Node26&#45;&gt;Node3 -->
<g id="edge49_Node000026_Node000003" class="edge">
<title>Node26&#45;&gt;Node3</title>
<g id="a_edge49_Node000026_Node000003"><a xlink:title=" ">
<path fill="none" stroke="#63b8ff" d="M417.77,-236.49C437.83,-211.97 499.85,-140.96 569,-110 614.65,-89.56 749.85,-76.35 831.72,-69.98"/>
<polygon fill="#63b8ff" stroke="#63b8ff" points="832.22,-73.45 841.93,-69.2 831.69,-66.47 832.22,-73.45"/>
</a>
</g>
</g>
<!-- Node26&#45;&gt;Node11 -->
<g id="edge51_Node000026_Node000011" class="edge">
<title>Node26&#45;&gt;Node11</title>
<g id="a_edge51_Node000026_Node000011"><a xlink:title=" ">
<path fill="none" stroke="#63b8ff" d="M357.96,-241.74C313.77,-236.89 250.73,-224.86 204,-195 146.15,-158.04 130.59,-138.82 108,-74 92,-28.1 170.11,-15.37 215.81,-11.85"/>
<polygon fill="#63b8ff" stroke="#63b8ff" points="216.09,-15.34 225.84,-11.18 215.63,-8.35 216.09,-15.34"/>
</a>
</g>
</g>
<!-- Node26&#45;&gt;Node16 -->
<g id="edge50_Node000026_Node000016" class="edge">
<title>Node26&#45;&gt;Node16</title>
<g id="a_edge50_Node000026_Node000016"><a xlink:title=" ">
<path fill="none" stroke="#63b8ff" d="M413.46,-236.34C421.32,-208.68 445.94,-122.01 456.79,-83.85"/>
<polygon fill="#63b8ff" stroke="#63b8ff" points="460.2,-84.65 459.56,-74.07 453.46,-82.73 460.2,-84.65"/>
</a>
</g>
</g>
<!-- Node26&#45;&gt;Node20 -->
<g id="edge52_Node000026_Node000020" class="edge">
<title>Node26&#45;&gt;Node20</title>
<g id="a_edge52_Node000026_Node000020"><a xlink:title=" ">
<path fill="none" stroke="#63b8ff" d="M400.08,-236.37C388.78,-227.44 370.74,-213.19 355.79,-201.38"/>
<polygon fill="#63b8ff" stroke="#63b8ff" points="357.88,-198.57 347.87,-195.12 353.54,-204.06 357.88,-198.57"/>
</a>
</g>
</g>
<!-- Node27&#45;&gt;Node5 -->
<g id="edge56_Node000027_Node000005" class="edge">
<title>Node27&#45;&gt;Node5</title>
<g id="a_edge56_Node000027_Node000005"><a xlink:title=" ">
<path fill="none" stroke="#63b8ff" d="M1041.59,-494.97C997.93,-459.19 828.97,-320.73 764.34,-267.77"/>
<polygon fill="#63b8ff" stroke="#63b8ff" points="766.24,-264.8 756.29,-261.17 761.8,-270.21 766.24,-264.8"/>
</a>
</g>
</g>
<!-- Node28 -->
<g id="Node000028" class="node">
<title>Node28</title>
<g id="a_Node000028"><a xlink:href="printShapes_8hpp.html" target="_top" xlink:title="Suppport functions for shape printing.">
<polygon fill="white" stroke="#666666" points="1177.5,-453.5 1082.5,-453.5 1082.5,-434.5 1177.5,-434.5 1177.5,-453.5"/>
<text text-anchor="middle" x="1130" y="-441.5" font-family="Helvetica,sans-Serif" font-size="10.00">printShapes.hpp</text>
</a>
</g>
</g>
<!-- Node27&#45;&gt;Node28 -->
<g id="edge57_Node000027_Node000028" class="edge">
<title>Node27&#45;&gt;Node28</title>
<g id="a_edge57_Node000027_Node000028"><a xlink:title=" ">
<path fill="none" stroke="#63b8ff" d="M1063.51,-494.87C1075.84,-485.62 1095.62,-470.78 1110.41,-459.69"/>
<polygon fill="#63b8ff" stroke="#63b8ff" points="1112.54,-462.47 1118.44,-453.67 1108.34,-456.87 1112.54,-462.47"/>
</a>
</g>
</g>
<!-- Node28&#45;&gt;Node10 -->
<g id="edge59_Node000028_Node000010" class="edge">
<title>Node28&#45;&gt;Node10</title>
<g id="a_edge59_Node000028_Node000010"><a xlink:title=" ">
<path fill="none" stroke="#63b8ff" d="M1148.19,-434.44C1201.95,-407.97 1359.97,-321.55 1418,-195 1426.05,-177.45 1409.79,-111.23 1409,-110 1381.21,-66.85 1327.35,-37.99 1292.57,-22.93"/>
<polygon fill="#63b8ff" stroke="#63b8ff" points="1293.88,-19.68 1283.3,-19.04 1291.17,-26.13 1293.88,-19.68"/>
</a>
</g>
</g>
<!-- Node28&#45;&gt;Node24 -->
<g id="edge58_Node000028_Node000024" class="edge">
<title>Node28&#45;&gt;Node24</title>
<g id="a_edge58_Node000028_Node000024"><a xlink:title=" ">
<path fill="none" stroke="#63b8ff" d="M1082.2,-437.04C992.2,-425.81 797.08,-401.47 690.36,-388.15"/>
<polygon fill="#63b8ff" stroke="#63b8ff" points="690.67,-384.66 680.31,-386.9 689.8,-391.61 690.67,-384.66"/>
</a>
</g>
</g>
<!-- Node29 -->
<g id="Node000029" class="node">
<title>Node29</title>
<g id="a_Node000029"><a xlink:href="memutils_8hpp.html" target="_top" xlink:title="Declaration of memory related utilities.">
<polygon fill="white" stroke="#666666" points="1408.5,-189.5 1237.5,-189.5 1237.5,-170.5 1408.5,-170.5 1408.5,-189.5"/>
<text text-anchor="middle" x="1323" y="-177.5" font-family="Helvetica,sans-Serif" font-size="10.00">medusa/bits/utils/memutils.hpp</text>
</a>
</g>
</g>
<!-- Node28&#45;&gt;Node29 -->
<g id="edge60_Node000028_Node000029" class="edge">
<title>Node28&#45;&gt;Node29</title>
<g id="a_edge60_Node000028_Node000029"><a xlink:title=" ">
<path fill="none" stroke="#63b8ff" d="M1129.27,-434.28C1127.7,-410.29 1126.22,-342.09 1155,-297 1187.87,-245.49 1252.65,-210.75 1291.46,-193.56"/>
<polygon fill="#63b8ff" stroke="#63b8ff" points="1292.94,-196.73 1300.74,-189.56 1290.17,-190.3 1292.94,-196.73"/>
</a>
</g>
</g>
<!-- Node29&#45;&gt;Node3 -->
<g id="edge62_Node000029_Node000003" class="edge">
<title>Node29&#45;&gt;Node3</title>
<g id="a_edge62_Node000029_Node000003"><a xlink:title=" ">
<path fill="none" stroke="#63b8ff" d="M1343.34,-170.34C1370.74,-157.53 1413.8,-132.6 1393,-110 1361.98,-76.29 1042.45,-78.82 962.49,-73.83"/>
<polygon fill="#63b8ff" stroke="#63b8ff" points="962.39,-70.31 952.14,-73 961.82,-77.29 962.39,-70.31"/>
</a>
</g>
</g>
<!-- Node29&#45;&gt;Node7 -->
<g id="edge63_Node000029_Node000007" class="edge">
<title>Node29&#45;&gt;Node7</title>
<g id="a_edge63_Node000029_Node000007"><a xlink:title=" ">
<path fill="none" stroke="#63b8ff" d="M1303.95,-170.49C1282.03,-160.7 1245.79,-144.52 1220.5,-133.23"/>
<polygon fill="#63b8ff" stroke="#63b8ff" points="1221.63,-129.9 1211.07,-129.02 1218.78,-136.29 1221.63,-129.9"/>
</a>
</g>
</g>
<!-- Node29&#45;&gt;Node15 -->
<g id="edge61_Node000029_Node000015" class="edge">
<title>Node29&#45;&gt;Node15</title>
<g id="a_edge61_Node000029_Node000015"><a xlink:title=" ">
<path fill="none" stroke="#63b8ff" d="M1327.72,-170.37C1332.35,-161.9 1339.55,-148.74 1345.39,-138.07"/>
<polygon fill="#63b8ff" stroke="#63b8ff" points="1348.53,-139.62 1350.26,-129.17 1342.39,-136.26 1348.53,-139.62"/>
</a>
</g>
</g>
</g>
</svg>
