<?xml version="1.0" encoding="UTF-8" standalone="no"?>
<!DOCTYPE svg PUBLIC "-//W3C//DTD SVG 1.1//EN"
 "http://www.w3.org/Graphics/SVG/1.1/DTD/svg11.dtd">
<!-- Generated by graphviz version 2.43.0 (0)
 -->
<!-- Title: src/utils/randutils.cpp Pages: 1 -->
<svg width="588pt" height="357pt"
 viewBox="0.00 0.00 587.50 357.00" xmlns="http://www.w3.org/2000/svg" xmlns:xlink="http://www.w3.org/1999/xlink">
<g id="graph0" class="graph" transform="scale(1 1) rotate(0) translate(4 353)">
<title>src/utils/randutils.cpp</title>
<!-- Node1 -->
<g id="Node000001" class="node">
<title>Node1</title>
<g id="a_Node000001"><a xlink:title="Implementation of utilities for randomization.">
<polygon fill="#999999" stroke="#666666" points="470.5,-349 349.5,-349 349.5,-330 470.5,-330 470.5,-349"/>
<text text-anchor="middle" x="410" y="-337" font-family="Helvetica,sans-Serif" font-size="10.00">src/utils/randutils.cpp</text>
</a>
</g>
</g>
<!-- Node2 -->
<g id="Node000002" class="node">
<title>Node2</title>
<g id="a_Node000002"><a xlink:href="randutils_8hpp.html" target="_top" xlink:title="Utilities for randomization.">
<polygon fill="white" stroke="#666666" points="493.5,-294 326.5,-294 326.5,-275 493.5,-275 493.5,-294"/>
<text text-anchor="middle" x="410" y="-282" font-family="Helvetica,sans-Serif" font-size="10.00">medusa/bits/utils/randutils.hpp</text>
</a>
</g>
</g>
<!-- Node1&#45;&gt;Node2 -->
<g id="edge1_Node000001_Node000002" class="edge">
<title>Node1&#45;&gt;Node2</title>
<g id="a_edge1_Node000001_Node000002"><a xlink:title=" ">
<path fill="none" stroke="#63b8ff" d="M410,-329.75C410,-322.8 410,-312.85 410,-304.13"/>
<polygon fill="#63b8ff" stroke="#63b8ff" points="413.5,-304.09 410,-294.09 406.5,-304.09 413.5,-304.09"/>
</a>
</g>
</g>
<!-- Node3 -->
<g id="Node000003" class="node">
<title>Node3</title>
<g id="a_Node000003"><a xlink:href="Config_8hpp.html" target="_top" xlink:title="Contains compile time settings for the project, such as Eigen plugins.">
<polygon fill="white" stroke="#666666" points="110,-129 0,-129 0,-110 110,-110 110,-129"/>
<text text-anchor="middle" x="55" y="-117" font-family="Helvetica,sans-Serif" font-size="10.00">medusa/Config.hpp</text>
</a>
</g>
</g>
<!-- Node2&#45;&gt;Node3 -->
<g id="edge2_Node000002_Node000003" class="edge">
<title>Node2&#45;&gt;Node3</title>
<g id="a_edge2_Node000002_Node000003"><a xlink:title=" ">
<path fill="none" stroke="#63b8ff" d="M337.59,-274.96C298.75,-268.51 250.81,-257.49 211,-239 153.69,-212.38 97.4,-161.99 70.84,-136.35"/>
<polygon fill="#63b8ff" stroke="#63b8ff" points="73.17,-133.73 63.58,-129.24 68.27,-138.74 73.17,-133.73"/>
</a>
</g>
</g>
<!-- Node5 -->
<g id="Node000005" class="node">
<title>Node5</title>
<g id="a_Node000005"><a xlink:href="assert_8hpp.html" target="_top" xlink:title="Implementation of custom assert and debug utilities.">
<polygon fill="white" stroke="#666666" points="544.5,-129 389.5,-129 389.5,-110 544.5,-110 544.5,-129"/>
<text text-anchor="middle" x="467" y="-117" font-family="Helvetica,sans-Serif" font-size="10.00">medusa/bits/utils/assert.hpp</text>
</a>
</g>
</g>
<!-- Node2&#45;&gt;Node5 -->
<g id="edge4_Node000002_Node000005" class="edge">
<title>Node2&#45;&gt;Node5</title>
<g id="a_edge4_Node000002_Node000005"><a xlink:title=" ">
<path fill="none" stroke="#63b8ff" d="M412.38,-274.81C415.8,-262.52 422.41,-239.39 429,-220 438.79,-191.21 451.68,-158.35 459.65,-138.53"/>
<polygon fill="#63b8ff" stroke="#63b8ff" points="462.92,-139.79 463.43,-129.21 456.43,-137.16 462.92,-139.79"/>
</a>
</g>
</g>
<!-- Node12 -->
<g id="Node000012" class="node">
<title>Node12</title>
<g id="a_Node000012"><a xlink:href="Range_8hpp.html" target="_top" xlink:title="Implementation of Range.">
<polygon fill="white" stroke="#666666" points="381.5,-239 220.5,-239 220.5,-220 381.5,-220 381.5,-239"/>
<text text-anchor="middle" x="301" y="-227" font-family="Helvetica,sans-Serif" font-size="10.00">medusa/bits/types/Range.hpp</text>
</a>
</g>
</g>
<!-- Node2&#45;&gt;Node12 -->
<g id="edge12_Node000002_Node000012" class="edge">
<title>Node2&#45;&gt;Node12</title>
<g id="a_edge12_Node000002_Node000012"><a xlink:title=" ">
<path fill="none" stroke="#63b8ff" d="M392.49,-274.98C375.03,-266.5 347.99,-253.35 327.83,-243.54"/>
<polygon fill="#63b8ff" stroke="#63b8ff" points="329.36,-240.4 318.83,-239.17 326.29,-246.69 329.36,-240.4"/>
</a>
</g>
</g>
<!-- Node18 -->
<g id="Node000018" class="node">
<title>Node18</title>
<g id="a_Node000018"><a xlink:title=" ">
<polygon fill="#e0e0e0" stroke="#999999" points="492,-239 438,-239 438,-220 492,-220 492,-239"/>
<text text-anchor="middle" x="465" y="-227" font-family="Helvetica,sans-Serif" font-size="10.00">random</text>
</a>
</g>
</g>
<!-- Node2&#45;&gt;Node18 -->
<g id="edge21_Node000002_Node000018" class="edge">
<title>Node2&#45;&gt;Node18</title>
<g id="a_edge21_Node000002_Node000018"><a xlink:title=" ">
<path fill="none" stroke="#63b8ff" d="M419.08,-274.75C427.09,-267.03 438.96,-255.6 448.62,-246.28"/>
<polygon fill="#63b8ff" stroke="#63b8ff" points="451.31,-248.55 456.09,-239.09 446.46,-243.51 451.31,-248.55"/>
</a>
</g>
</g>
<!-- Node19 -->
<g id="Node000019" class="node">
<title>Node19</title>
<g id="a_Node000019"><a xlink:title=" ">
<polygon fill="#e0e0e0" stroke="#999999" points="560,-239 510,-239 510,-220 560,-220 560,-239"/>
<text text-anchor="middle" x="535" y="-227" font-family="Helvetica,sans-Serif" font-size="10.00">chrono</text>
</a>
</g>
</g>
<!-- Node2&#45;&gt;Node19 -->
<g id="edge22_Node000002_Node000019" class="edge">
<title>Node2&#45;&gt;Node19</title>
<g id="a_edge22_Node000002_Node000019"><a xlink:title=" ">
<path fill="none" stroke="#63b8ff" d="M430.08,-274.98C450.37,-266.38 481.96,-252.99 505.17,-243.15"/>
<polygon fill="#63b8ff" stroke="#63b8ff" points="506.71,-246.3 514.55,-239.17 503.98,-239.85 506.71,-246.3"/>
</a>
</g>
</g>
<!-- Node4 -->
<g id="Node000004" class="node">
<title>Node4</title>
<g id="a_Node000004"><a xlink:title=" ">
<polygon fill="#e0e0e0" stroke="#999999" points="161.5,-19 114.5,-19 114.5,0 161.5,0 161.5,-19"/>
<text text-anchor="middle" x="138" y="-7" font-family="Helvetica,sans-Serif" font-size="10.00">vector</text>
</a>
</g>
</g>
<!-- Node3&#45;&gt;Node4 -->
<g id="edge3_Node000003_Node000004" class="edge">
<title>Node3&#45;&gt;Node4</title>
<g id="a_edge3_Node000003_Node000004"><a xlink:title=" ">
<path fill="none" stroke="#63b8ff" d="M61.79,-109.66C75.6,-91.69 107.15,-50.64 125.02,-27.38"/>
<polygon fill="#63b8ff" stroke="#63b8ff" points="128.03,-29.22 131.35,-19.16 122.48,-24.95 128.03,-29.22"/>
</a>
</g>
</g>
<!-- Node6 -->
<g id="Node000006" class="node">
<title>Node6</title>
<g id="a_Node000006"><a xlink:title=" ">
<polygon fill="#e0e0e0" stroke="#999999" points="419,-74 287,-74 287,-55 419,-55 419,-74"/>
<text text-anchor="middle" x="353" y="-62" font-family="Helvetica,sans-Serif" font-size="10.00">tinyformat/tinyformat.h</text>
</a>
</g>
</g>
<!-- Node5&#45;&gt;Node6 -->
<g id="edge5_Node000005_Node000006" class="edge">
<title>Node5&#45;&gt;Node6</title>
<g id="a_edge5_Node000005_Node000006"><a xlink:title=" ">
<path fill="none" stroke="#63b8ff" d="M448.68,-109.98C430.34,-101.46 401.89,-88.23 380.77,-78.41"/>
<polygon fill="#63b8ff" stroke="#63b8ff" points="382.19,-75.21 371.65,-74.17 379.24,-81.56 382.19,-75.21"/>
</a>
</g>
</g>
<!-- Node7 -->
<g id="Node000007" class="node">
<title>Node7</title>
<g id="a_Node000007"><a xlink:href="print_8hpp.html" target="_top" xlink:title="Printing helpers for std types.">
<polygon fill="white" stroke="#666666" points="497,-74 437,-74 437,-55 497,-55 497,-74"/>
<text text-anchor="middle" x="467" y="-62" font-family="Helvetica,sans-Serif" font-size="10.00">print.hpp</text>
</a>
</g>
</g>
<!-- Node5&#45;&gt;Node7 -->
<g id="edge6_Node000005_Node000007" class="edge">
<title>Node5&#45;&gt;Node7</title>
<g id="a_edge6_Node000005_Node000007"><a xlink:title=" ">
<path fill="none" stroke="#63b8ff" d="M467,-109.75C467,-102.8 467,-92.85 467,-84.13"/>
<polygon fill="#63b8ff" stroke="#63b8ff" points="470.5,-84.09 467,-74.09 463.5,-84.09 470.5,-84.09"/>
</a>
</g>
</g>
<!-- Node7&#45;&gt;Node4 -->
<g id="edge8_Node000007_Node000004" class="edge">
<title>Node7&#45;&gt;Node4</title>
<g id="a_edge8_Node000007_Node000004"><a xlink:title=" ">
<path fill="none" stroke="#63b8ff" d="M436.8,-56.72C433.83,-56.12 430.86,-55.53 428,-55 335.74,-37.88 226.09,-22.36 171.85,-15"/>
<polygon fill="#63b8ff" stroke="#63b8ff" points="172.15,-11.5 161.77,-13.64 171.21,-18.44 172.15,-11.5"/>
</a>
</g>
</g>
<!-- Node8 -->
<g id="Node000008" class="node">
<title>Node8</title>
<g id="a_Node000008"><a xlink:title=" ">
<polygon fill="#e0e0e0" stroke="#999999" points="397,-19 337,-19 337,0 397,0 397,-19"/>
<text text-anchor="middle" x="367" y="-7" font-family="Helvetica,sans-Serif" font-size="10.00">iostream</text>
</a>
</g>
</g>
<!-- Node7&#45;&gt;Node8 -->
<g id="edge7_Node000007_Node000008" class="edge">
<title>Node7&#45;&gt;Node8</title>
<g id="a_edge7_Node000007_Node000008"><a xlink:title=" ">
<path fill="none" stroke="#63b8ff" d="M450.93,-54.98C435.14,-46.61 410.78,-33.7 392.37,-23.95"/>
<polygon fill="#63b8ff" stroke="#63b8ff" points="393.83,-20.76 383.36,-19.17 390.56,-26.95 393.83,-20.76"/>
</a>
</g>
</g>
<!-- Node9 -->
<g id="Node000009" class="node">
<title>Node9</title>
<g id="a_Node000009"><a xlink:title=" ">
<polygon fill="#e0e0e0" stroke="#999999" points="457,-19 415,-19 415,0 457,0 457,-19"/>
<text text-anchor="middle" x="436" y="-7" font-family="Helvetica,sans-Serif" font-size="10.00">array</text>
</a>
</g>
</g>
<!-- Node7&#45;&gt;Node9 -->
<g id="edge9_Node000007_Node000009" class="edge">
<title>Node7&#45;&gt;Node9</title>
<g id="a_edge9_Node000007_Node000009"><a xlink:title=" ">
<path fill="none" stroke="#63b8ff" d="M461.88,-54.75C457.64,-47.49 451.47,-36.95 446.22,-27.98"/>
<polygon fill="#63b8ff" stroke="#63b8ff" points="449.09,-25.95 441.02,-19.09 443.05,-29.49 449.09,-25.95"/>
</a>
</g>
</g>
<!-- Node10 -->
<g id="Node000010" class="node">
<title>Node10</title>
<g id="a_Node000010"><a xlink:title=" ">
<polygon fill="#e0e0e0" stroke="#999999" points="520.5,-19 475.5,-19 475.5,0 520.5,0 520.5,-19"/>
<text text-anchor="middle" x="498" y="-7" font-family="Helvetica,sans-Serif" font-size="10.00">utility</text>
</a>
</g>
</g>
<!-- Node7&#45;&gt;Node10 -->
<g id="edge10_Node000007_Node000010" class="edge">
<title>Node7&#45;&gt;Node10</title>
<g id="a_edge10_Node000007_Node000010"><a xlink:title=" ">
<path fill="none" stroke="#63b8ff" d="M472.12,-54.75C476.36,-47.49 482.53,-36.95 487.78,-27.98"/>
<polygon fill="#63b8ff" stroke="#63b8ff" points="490.95,-29.49 492.98,-19.09 484.91,-25.95 490.95,-29.49"/>
</a>
</g>
</g>
<!-- Node11 -->
<g id="Node000011" class="node">
<title>Node11</title>
<g id="a_Node000011"><a xlink:title=" ">
<polygon fill="#e0e0e0" stroke="#999999" points="579.5,-19 538.5,-19 538.5,0 579.5,0 579.5,-19"/>
<text text-anchor="middle" x="559" y="-7" font-family="Helvetica,sans-Serif" font-size="10.00">tuple</text>
</a>
</g>
</g>
<!-- Node7&#45;&gt;Node11 -->
<g id="edge11_Node000007_Node000011" class="edge">
<title>Node7&#45;&gt;Node11</title>
<g id="a_edge11_Node000007_Node000011"><a xlink:title=" ">
<path fill="none" stroke="#63b8ff" d="M481.78,-54.98C496.18,-46.69 518.31,-33.94 535.19,-24.22"/>
<polygon fill="#63b8ff" stroke="#63b8ff" points="537.03,-27.19 543.95,-19.17 533.54,-21.13 537.03,-27.19"/>
</a>
</g>
</g>
<!-- Node13 -->
<g id="Node000013" class="node">
<title>Node13</title>
<g id="a_Node000013"><a xlink:href="Range__fwd_8hpp.html" target="_top" xlink:title="Declaration of Range.">
<polygon fill="white" stroke="#666666" points="275.5,-184 184.5,-184 184.5,-165 275.5,-165 275.5,-184"/>
<text text-anchor="middle" x="230" y="-172" font-family="Helvetica,sans-Serif" font-size="10.00">Range_fwd.hpp</text>
</a>
</g>
</g>
<!-- Node12&#45;&gt;Node13 -->
<g id="edge13_Node000012_Node000013" class="edge">
<title>Node12&#45;&gt;Node13</title>
<g id="a_edge13_Node000012_Node000013"><a xlink:title=" ">
<path fill="none" stroke="#63b8ff" d="M289.59,-219.98C278.89,-212 262.66,-199.88 249.84,-190.31"/>
<polygon fill="#63b8ff" stroke="#63b8ff" points="251.72,-187.35 241.61,-184.17 247.53,-192.96 251.72,-187.35"/>
</a>
</g>
</g>
<!-- Node17 -->
<g id="Node000017" class="node">
<title>Node17</title>
<g id="a_Node000017"><a xlink:title=" ">
<polygon fill="#e0e0e0" stroke="#999999" points="358,-184 294,-184 294,-165 358,-165 358,-184"/>
<text text-anchor="middle" x="326" y="-172" font-family="Helvetica,sans-Serif" font-size="10.00">algorithm</text>
</a>
</g>
</g>
<!-- Node12&#45;&gt;Node17 -->
<g id="edge20_Node000012_Node000017" class="edge">
<title>Node12&#45;&gt;Node17</title>
<g id="a_edge20_Node000012_Node000017"><a xlink:title=" ">
<path fill="none" stroke="#63b8ff" d="M305.13,-219.75C308.51,-212.57 313.42,-202.18 317.62,-193.27"/>
<polygon fill="#63b8ff" stroke="#63b8ff" points="320.85,-194.63 321.95,-184.09 314.52,-191.64 320.85,-194.63"/>
</a>
</g>
</g>
<!-- Node13&#45;&gt;Node3 -->
<g id="edge14_Node000013_Node000003" class="edge">
<title>Node13&#45;&gt;Node3</title>
<g id="a_edge14_Node000013_Node000003"><a xlink:title=" ">
<path fill="none" stroke="#63b8ff" d="M201.88,-164.98C172.38,-156.05 125.81,-141.94 93.03,-132.02"/>
<polygon fill="#63b8ff" stroke="#63b8ff" points="93.92,-128.63 83.34,-129.08 91.89,-135.33 93.92,-128.63"/>
</a>
</g>
</g>
<!-- Node13&#45;&gt;Node4 -->
<g id="edge18_Node000013_Node000004" class="edge">
<title>Node13&#45;&gt;Node4</title>
<g id="a_edge18_Node000013_Node000004"><a xlink:title=" ">
<path fill="none" stroke="#63b8ff" d="M205.75,-165C189.33,-157.94 168.58,-146.25 157,-129 136.65,-98.68 135.26,-54.34 136.4,-29.39"/>
<polygon fill="#63b8ff" stroke="#63b8ff" points="139.92,-29.33 137.07,-19.12 132.93,-28.87 139.92,-29.33"/>
</a>
</g>
</g>
<!-- Node13&#45;&gt;Node5 -->
<g id="edge15_Node000013_Node000005" class="edge">
<title>Node13&#45;&gt;Node5</title>
<g id="a_edge15_Node000013_Node000005"><a xlink:title=" ">
<path fill="none" stroke="#63b8ff" d="M268.08,-164.98C308.99,-155.84 374.11,-141.27 418.62,-131.32"/>
<polygon fill="#63b8ff" stroke="#63b8ff" points="419.63,-134.68 428.62,-129.08 418.1,-127.85 419.63,-134.68"/>
</a>
</g>
</g>
<!-- Node14 -->
<g id="Node000014" class="node">
<title>Node14</title>
<g id="a_Node000014"><a xlink:href="traits_8hpp.html" target="_top" xlink:title="Type traits definition for vector and scalar fields.">
<polygon fill="white" stroke="#666666" points="371.5,-129 308.5,-129 308.5,-110 371.5,-110 371.5,-129"/>
<text text-anchor="middle" x="340" y="-117" font-family="Helvetica,sans-Serif" font-size="10.00">traits.hpp</text>
</a>
</g>
</g>
<!-- Node13&#45;&gt;Node14 -->
<g id="edge16_Node000013_Node000014" class="edge">
<title>Node13&#45;&gt;Node14</title>
<g id="a_edge16_Node000013_Node000014"><a xlink:title=" ">
<path fill="none" stroke="#63b8ff" d="M247.67,-164.98C265.29,-156.5 292.58,-143.35 312.93,-133.54"/>
<polygon fill="#63b8ff" stroke="#63b8ff" points="314.52,-136.66 322.01,-129.17 311.48,-130.36 314.52,-136.66"/>
</a>
</g>
</g>
<!-- Node15 -->
<g id="Node000015" class="node">
<title>Node15</title>
<g id="a_Node000015"><a xlink:title=" ">
<polygon fill="#e0e0e0" stroke="#999999" points="224,-129 166,-129 166,-110 224,-110 224,-129"/>
<text text-anchor="middle" x="195" y="-117" font-family="Helvetica,sans-Serif" font-size="10.00">memory</text>
</a>
</g>
</g>
<!-- Node13&#45;&gt;Node15 -->
<g id="edge17_Node000013_Node000015" class="edge">
<title>Node13&#45;&gt;Node15</title>
<g id="a_edge17_Node000013_Node000015"><a xlink:title=" ">
<path fill="none" stroke="#63b8ff" d="M224.22,-164.75C219.38,-157.42 212.32,-146.73 206.36,-137.7"/>
<polygon fill="#63b8ff" stroke="#63b8ff" points="209.1,-135.5 200.67,-129.09 203.26,-139.36 209.1,-135.5"/>
</a>
</g>
</g>
<!-- Node16 -->
<g id="Node000016" class="node">
<title>Node16</title>
<g id="a_Node000016"><a xlink:title=" ">
<polygon fill="#e0e0e0" stroke="#999999" points="290,-129 242,-129 242,-110 290,-110 290,-129"/>
<text text-anchor="middle" x="266" y="-117" font-family="Helvetica,sans-Serif" font-size="10.00">iosfwd</text>
</a>
</g>
</g>
<!-- Node13&#45;&gt;Node16 -->
<g id="edge19_Node000013_Node000016" class="edge">
<title>Node13&#45;&gt;Node16</title>
<g id="a_edge19_Node000013_Node000016"><a xlink:title=" ">
<path fill="none" stroke="#63b8ff" d="M235.94,-164.75C240.98,-157.34 248.34,-146.5 254.51,-137.41"/>
<polygon fill="#63b8ff" stroke="#63b8ff" points="257.44,-139.33 260.17,-129.09 251.65,-135.39 257.44,-139.33"/>
</a>
</g>
</g>
</g>
</svg>
