<?xml version="1.0" encoding="UTF-8" standalone="no"?>
<!DOCTYPE svg PUBLIC "-//W3C//DTD SVG 1.1//EN"
 "http://www.w3.org/Graphics/SVG/1.1/DTD/svg11.dtd">
<!-- Generated by graphviz version 2.43.0 (0)
 -->
<!-- Title: src/types/Range.cpp Pages: 1 -->
<!--zoomable 302 -->

<svg id="main" version="1.1" xmlns="http://www.w3.org/2000/svg" xmlns:xlink="http://www.w3.org/1999/xlink" xml:space="preserve" onload="init(evt)">
<style type="text/css"><![CDATA[
.node, .edge {opacity: 0.7;}
.node.selected, .edge.selected {opacity: 1;}
.edge:hover path { stroke: red; }
.edge:hover polygon { stroke: red; fill: red; }
]]></style>

<defs>
  <circle id="rim" cx="0" cy="0" r="7"/>
  <circle id="rim2" cx="0" cy="0" r="3.5"/>
  <g id="zoomPlus">
    <use xlink:href="#rim" fill="#404040"><set attributeName="fill" to="#808080" begin="zoomplus.mouseover" end="zoomplus.mouseout"/></use>
    <path d="M-4,0h8M0,-4v8" fill="none" stroke="white" stroke-width="1.5" pointer-events="none"/>
  </g>
  <g id="zoomMin">
    <use xlink:href="#rim" fill="#404040"><set attributeName="fill" to="#808080" begin="zoomminus.mouseover" end="zoomminus.mouseout"/></use>
    <path d="M-4,0h8" fill="none" stroke="white" stroke-width="1.5" pointer-events="none"/>
  </g>
  <g id="arrowUp" transform="translate(30 24)">
    <use xlink:href="#rim"/>
    <path pointer-events="none" fill="none" stroke="white" stroke-width="1.5" d="M0,-3.0v7 M-2.5,-0.5L0,-3.0L2.5,-0.5"/>
  </g>
  <g id="arrowRight" transform="rotate(90) translate(36 -43)">
    <use xlink:href="#rim"/>
    <path pointer-events="none" fill="none" stroke="white" stroke-width="1.5" d="M0,-3.0v7 M-2.5,-0.5L0,-3.0L2.5,-0.5"/>
  </g>
  <g id="arrowDown" transform="rotate(180) translate(-30 -48)">
    <use xlink:href="#rim"/>
    <path pointer-events="none" fill="none" stroke="white" stroke-width="1.5" d="M0,-3.0v7 M-2.5,-0.5L0,-3.0L2.5,-0.5"/>
  </g>
  <g id="arrowLeft" transform="rotate(270) translate(-36 17)">
    <use xlink:href="#rim"/>
    <path pointer-events="none" fill="none" stroke="white" stroke-width="1.5" d="M0,-3.0v7 M-2.5,-0.5L0,-3.0L2.5,-0.5"/>
  </g>
  <g id="resetDef">
    <use xlink:href="#rim2" fill="#404040"><set attributeName="fill" to="#808080" begin="reset.mouseover" end="reset.mouseout"/></use>
  </g>
</defs>
<script type="application/ecmascript">
var viewWidth = 640;
var viewHeight = 302;
var sectionId = 'dynsection-0';
</script>
<script type="application/ecmascript" xlink:href="svg.min.js"/>
<svg id="graph" class="graph">
<g id="viewport">
<title>src/types/Range.cpp</title>
<!-- Node1 -->
<g id="Node000001" class="node">
<title>Node1</title>
<g id="a_Node000001"><a xlink:title="Instantiation of common Range instances.">
<polygon fill="#999999" stroke="#666666" points="469,-294 354,-294 354,-275 469,-275 469,-294"/>
<text text-anchor="middle" x="411.5" y="-282" font-family="Helvetica,sans-Serif" font-size="10.00">src/types/Range.cpp</text>
</a>
</g>
</g>
<!-- Node2 -->
<g id="Node000002" class="node">
<title>Node2</title>
<g id="a_Node000002"><a xlink:href="Range_8hpp.html" target="_top" xlink:title="Implementation of Range.">
<polygon fill="white" stroke="#666666" points="406,-239 245,-239 245,-220 406,-220 406,-239"/>
<text text-anchor="middle" x="325.5" y="-227" font-family="Helvetica,sans-Serif" font-size="10.00">medusa/bits/types/Range.hpp</text>
</a>
</g>
</g>
<!-- Node1&#45;&gt;Node2 -->
<g id="edge1_Node000001_Node000002" class="edge">
<title>Node1&#45;&gt;Node2</title>
<g id="a_edge1_Node000001_Node000002"><a xlink:title=" ">
<path fill="none" stroke="#63b8ff" d="M397.68,-274.98C384.35,-266.77 363.92,-254.18 348.19,-244.49"/>
<polygon fill="#63b8ff" stroke="#63b8ff" points="349.92,-241.44 339.57,-239.17 346.25,-247.4 349.92,-241.44"/>
</a>
</g>
</g>
<!-- Node17 -->
<g id="Node000017" class="node">
<title>Node17</title>
<g id="a_Node000017"><a xlink:href="Vec_8hpp.html" target="_top" xlink:title="Implemetations for Vec.">
<polygon fill="white" stroke="#666666" points="572.5,-239 424.5,-239 424.5,-220 572.5,-220 572.5,-239"/>
<text text-anchor="middle" x="498.5" y="-227" font-family="Helvetica,sans-Serif" font-size="10.00">medusa/bits/types/Vec.hpp</text>
</a>
</g>
</g>
<!-- Node1&#45;&gt;Node17 -->
<g id="edge18_Node000001_Node000017" class="edge">
<title>Node1&#45;&gt;Node17</title>
<g id="a_edge18_Node000001_Node000017"><a xlink:title=" ">
<path fill="none" stroke="#63b8ff" d="M425.48,-274.98C438.97,-266.77 459.63,-254.18 475.54,-244.49"/>
<polygon fill="#63b8ff" stroke="#63b8ff" points="477.55,-247.36 484.27,-239.17 473.91,-241.38 477.55,-247.36"/>
</a>
</g>
</g>
<!-- Node3 -->
<g id="Node000003" class="node">
<title>Node3</title>
<g id="a_Node000003"><a xlink:href="Range__fwd_8hpp.html" target="_top" xlink:title="Declaration of Range.">
<polygon fill="white" stroke="#666666" points="381,-184 290,-184 290,-165 381,-165 381,-184"/>
<text text-anchor="middle" x="335.5" y="-172" font-family="Helvetica,sans-Serif" font-size="10.00">Range_fwd.hpp</text>
</a>
</g>
</g>
<!-- Node2&#45;&gt;Node3 -->
<g id="edge2_Node000002_Node000003" class="edge">
<title>Node2&#45;&gt;Node3</title>
<g id="a_edge2_Node000002_Node000003"><a xlink:title=" ">
<path fill="none" stroke="#63b8ff" d="M327.15,-219.75C328.46,-212.8 330.34,-202.85 331.98,-194.13"/>
<polygon fill="#63b8ff" stroke="#63b8ff" points="335.46,-194.56 333.88,-184.09 328.59,-193.27 335.46,-194.56"/>
</a>
</g>
</g>
<!-- Node16 -->
<g id="Node000016" class="node">
<title>Node16</title>
<g id="a_Node000016"><a xlink:title=" ">
<polygon fill="#e0e0e0" stroke="#999999" points="271.5,-184 207.5,-184 207.5,-165 271.5,-165 271.5,-184"/>
<text text-anchor="middle" x="239.5" y="-172" font-family="Helvetica,sans-Serif" font-size="10.00">algorithm</text>
</a>
</g>
</g>
<!-- Node2&#45;&gt;Node16 -->
<g id="edge17_Node000002_Node000016" class="edge">
<title>Node2&#45;&gt;Node16</title>
<g id="a_edge17_Node000002_Node000016"><a xlink:title=" ">
<path fill="none" stroke="#63b8ff" d="M311.68,-219.98C298.35,-211.77 277.92,-199.18 262.19,-189.49"/>
<polygon fill="#63b8ff" stroke="#63b8ff" points="263.92,-186.44 253.57,-184.17 260.25,-192.4 263.92,-186.44"/>
</a>
</g>
</g>
<!-- Node4 -->
<g id="Node000004" class="node">
<title>Node4</title>
<g id="a_Node000004"><a xlink:href="Config_8hpp.html" target="_top" xlink:title="Contains compile time settings for the project, such as Eigen plugins.">
<polygon fill="white" stroke="#666666" points="544.5,-129 434.5,-129 434.5,-110 544.5,-110 544.5,-129"/>
<text text-anchor="middle" x="489.5" y="-117" font-family="Helvetica,sans-Serif" font-size="10.00">medusa/Config.hpp</text>
</a>
</g>
</g>
<!-- Node3&#45;&gt;Node4 -->
<g id="edge3_Node000003_Node000004" class="edge">
<title>Node3&#45;&gt;Node4</title>
<g id="a_edge3_Node000003_Node000004"><a xlink:title=" ">
<path fill="none" stroke="#63b8ff" d="M360.24,-164.98C385.87,-156.16 426.13,-142.31 454.91,-132.41"/>
<polygon fill="#63b8ff" stroke="#63b8ff" points="456.25,-135.65 464.56,-129.08 453.97,-129.03 456.25,-135.65"/>
</a>
</g>
</g>
<!-- Node5 -->
<g id="Node000005" class="node">
<title>Node5</title>
<g id="a_Node000005"><a xlink:title=" ">
<polygon fill="#e0e0e0" stroke="#999999" points="430,-19 383,-19 383,0 430,0 430,-19"/>
<text text-anchor="middle" x="406.5" y="-7" font-family="Helvetica,sans-Serif" font-size="10.00">vector</text>
</a>
</g>
</g>
<!-- Node3&#45;&gt;Node5 -->
<g id="edge15_Node000003_Node000005" class="edge">
<title>Node3&#45;&gt;Node5</title>
<g id="a_edge15_Node000003_Node000005"><a xlink:title=" ">
<path fill="none" stroke="#63b8ff" d="M350.38,-164.93C362.43,-157.15 378.78,-144.55 387.5,-129 405.27,-97.31 407.65,-53.81 407.36,-29.29"/>
<polygon fill="#63b8ff" stroke="#63b8ff" points="410.85,-29.09 407.07,-19.19 403.85,-29.29 410.85,-29.09"/>
</a>
</g>
</g>
<!-- Node6 -->
<g id="Node000006" class="node">
<title>Node6</title>
<g id="a_Node000006"><a xlink:href="assert_8hpp.html" target="_top" xlink:title="Implementation of custom assert and debug utilities.">
<polygon fill="white" stroke="#666666" points="155,-129 0,-129 0,-110 155,-110 155,-129"/>
<text text-anchor="middle" x="77.5" y="-117" font-family="Helvetica,sans-Serif" font-size="10.00">medusa/bits/utils/assert.hpp</text>
</a>
</g>
</g>
<!-- Node3&#45;&gt;Node6 -->
<g id="edge5_Node000003_Node000006" class="edge">
<title>Node3&#45;&gt;Node6</title>
<g id="a_edge5_Node000003_Node000006"><a xlink:title=" ">
<path fill="none" stroke="#63b8ff" d="M294.05,-164.98C249.23,-155.78 177.73,-141.09 129.25,-131.13"/>
<polygon fill="#63b8ff" stroke="#63b8ff" points="129.78,-127.67 119.28,-129.08 128.37,-134.52 129.78,-127.67"/>
</a>
</g>
</g>
<!-- Node13 -->
<g id="Node000013" class="node">
<title>Node13</title>
<g id="a_Node000013"><a xlink:href="traits_8hpp.html" target="_top" xlink:title="Type traits definition for vector and scalar fields.">
<polygon fill="white" stroke="#666666" points="236,-129 173,-129 173,-110 236,-110 236,-129"/>
<text text-anchor="middle" x="204.5" y="-117" font-family="Helvetica,sans-Serif" font-size="10.00">traits.hpp</text>
</a>
</g>
</g>
<!-- Node3&#45;&gt;Node13 -->
<g id="edge13_Node000003_Node000013" class="edge">
<title>Node3&#45;&gt;Node13</title>
<g id="a_edge13_Node000003_Node000013"><a xlink:title=" ">
<path fill="none" stroke="#63b8ff" d="M314.45,-164.98C293.09,-156.34 259.8,-142.87 235.44,-133.02"/>
<polygon fill="#63b8ff" stroke="#63b8ff" points="236.51,-129.68 225.93,-129.17 233.89,-136.17 236.51,-129.68"/>
</a>
</g>
</g>
<!-- Node14 -->
<g id="Node000014" class="node">
<title>Node14</title>
<g id="a_Node000014"><a xlink:title=" ">
<polygon fill="#e0e0e0" stroke="#999999" points="312.5,-129 254.5,-129 254.5,-110 312.5,-110 312.5,-129"/>
<text text-anchor="middle" x="283.5" y="-117" font-family="Helvetica,sans-Serif" font-size="10.00">memory</text>
</a>
</g>
</g>
<!-- Node3&#45;&gt;Node14 -->
<g id="edge14_Node000003_Node000014" class="edge">
<title>Node3&#45;&gt;Node14</title>
<g id="a_edge14_Node000003_Node000014"><a xlink:title=" ">
<path fill="none" stroke="#63b8ff" d="M326.91,-164.75C319.34,-157.03 308.12,-145.6 298.99,-136.28"/>
<polygon fill="#63b8ff" stroke="#63b8ff" points="301.43,-133.78 291.93,-129.09 296.43,-138.68 301.43,-133.78"/>
</a>
</g>
</g>
<!-- Node15 -->
<g id="Node000015" class="node">
<title>Node15</title>
<g id="a_Node000015"><a xlink:title=" ">
<polygon fill="#e0e0e0" stroke="#999999" points="378.5,-129 330.5,-129 330.5,-110 378.5,-110 378.5,-129"/>
<text text-anchor="middle" x="354.5" y="-117" font-family="Helvetica,sans-Serif" font-size="10.00">iosfwd</text>
</a>
</g>
</g>
<!-- Node3&#45;&gt;Node15 -->
<g id="edge16_Node000003_Node000015" class="edge">
<title>Node3&#45;&gt;Node15</title>
<g id="a_edge16_Node000003_Node000015"><a xlink:title=" ">
<path fill="none" stroke="#63b8ff" d="M338.64,-164.75C341.18,-157.65 344.86,-147.4 348.03,-138.56"/>
<polygon fill="#63b8ff" stroke="#63b8ff" points="351.34,-139.68 351.42,-129.09 344.75,-137.32 351.34,-139.68"/>
</a>
</g>
</g>
<!-- Node4&#45;&gt;Node5 -->
<g id="edge4_Node000004_Node000005" class="edge">
<title>Node4&#45;&gt;Node5</title>
<g id="a_edge4_Node000004_Node000005"><a xlink:title=" ">
<path fill="none" stroke="#63b8ff" d="M482.71,-109.66C468.9,-91.69 437.35,-50.64 419.48,-27.38"/>
<polygon fill="#63b8ff" stroke="#63b8ff" points="422.02,-24.95 413.15,-19.16 416.47,-29.22 422.02,-24.95"/>
</a>
</g>
</g>
<!-- Node7 -->
<g id="Node000007" class="node">
<title>Node7</title>
<g id="a_Node000007"><a xlink:title=" ">
<polygon fill="#e0e0e0" stroke="#999999" points="143.5,-74 11.5,-74 11.5,-55 143.5,-55 143.5,-74"/>
<text text-anchor="middle" x="77.5" y="-62" font-family="Helvetica,sans-Serif" font-size="10.00">tinyformat/tinyformat.h</text>
</a>
</g>
</g>
<!-- Node6&#45;&gt;Node7 -->
<g id="edge6_Node000006_Node000007" class="edge">
<title>Node6&#45;&gt;Node7</title>
<g id="a_edge6_Node000006_Node000007"><a xlink:title=" ">
<path fill="none" stroke="#63b8ff" d="M77.5,-109.75C77.5,-102.8 77.5,-92.85 77.5,-84.13"/>
<polygon fill="#63b8ff" stroke="#63b8ff" points="81,-84.09 77.5,-74.09 74,-84.09 81,-84.09"/>
</a>
</g>
</g>
<!-- Node8 -->
<g id="Node000008" class="node">
<title>Node8</title>
<g id="a_Node000008"><a xlink:href="print_8hpp.html" target="_top" xlink:title="Printing helpers for std types.">
<polygon fill="white" stroke="#666666" points="244.5,-74 184.5,-74 184.5,-55 244.5,-55 244.5,-74"/>
<text text-anchor="middle" x="214.5" y="-62" font-family="Helvetica,sans-Serif" font-size="10.00">print.hpp</text>
</a>
</g>
</g>
<!-- Node6&#45;&gt;Node8 -->
<g id="edge7_Node000006_Node000008" class="edge">
<title>Node6&#45;&gt;Node8</title>
<g id="a_edge7_Node000006_Node000008"><a xlink:title=" ">
<path fill="none" stroke="#63b8ff" d="M99.51,-109.98C121.95,-101.3 156.98,-87.75 182.49,-77.88"/>
<polygon fill="#63b8ff" stroke="#63b8ff" points="184.02,-81.04 192.09,-74.17 181.5,-74.51 184.02,-81.04"/>
</a>
</g>
</g>
<!-- Node8&#45;&gt;Node5 -->
<g id="edge9_Node000008_Node000005" class="edge">
<title>Node8&#45;&gt;Node5</title>
<g id="a_edge9_Node000008_Node000005"><a xlink:title=" ">
<path fill="none" stroke="#63b8ff" d="M244.5,-55.22C279.25,-45.63 336.36,-29.86 372.66,-19.84"/>
<polygon fill="#63b8ff" stroke="#63b8ff" points="374.06,-23.09 382.76,-17.05 372.19,-16.34 374.06,-23.09"/>
</a>
</g>
</g>
<!-- Node9 -->
<g id="Node000009" class="node">
<title>Node9</title>
<g id="a_Node000009"><a xlink:title=" ">
<polygon fill="#e0e0e0" stroke="#999999" points="136.5,-19 76.5,-19 76.5,0 136.5,0 136.5,-19"/>
<text text-anchor="middle" x="106.5" y="-7" font-family="Helvetica,sans-Serif" font-size="10.00">iostream</text>
</a>
</g>
</g>
<!-- Node8&#45;&gt;Node9 -->
<g id="edge8_Node000008_Node000009" class="edge">
<title>Node8&#45;&gt;Node9</title>
<g id="a_edge8_Node000008_Node000009"><a xlink:title=" ">
<path fill="none" stroke="#63b8ff" d="M197.15,-54.98C179.93,-46.54 153.3,-33.47 133.35,-23.68"/>
<polygon fill="#63b8ff" stroke="#63b8ff" points="134.69,-20.43 124.17,-19.17 131.6,-26.72 134.69,-20.43"/>
</a>
</g>
</g>
<!-- Node10 -->
<g id="Node000010" class="node">
<title>Node10</title>
<g id="a_Node000010"><a xlink:title=" ">
<polygon fill="#e0e0e0" stroke="#999999" points="196.5,-19 154.5,-19 154.5,0 196.5,0 196.5,-19"/>
<text text-anchor="middle" x="175.5" y="-7" font-family="Helvetica,sans-Serif" font-size="10.00">array</text>
</a>
</g>
</g>
<!-- Node8&#45;&gt;Node10 -->
<g id="edge10_Node000008_Node000010" class="edge">
<title>Node8&#45;&gt;Node10</title>
<g id="a_edge10_Node000008_Node000010"><a xlink:title=" ">
<path fill="none" stroke="#63b8ff" d="M208.06,-54.75C202.61,-47.34 194.64,-36.5 187.94,-27.41"/>
<polygon fill="#63b8ff" stroke="#63b8ff" points="190.57,-25.07 181.82,-19.09 184.93,-29.22 190.57,-25.07"/>
</a>
</g>
</g>
<!-- Node11 -->
<g id="Node000011" class="node">
<title>Node11</title>
<g id="a_Node000011"><a xlink:title=" ">
<polygon fill="#e0e0e0" stroke="#999999" points="260,-19 215,-19 215,0 260,0 260,-19"/>
<text text-anchor="middle" x="237.5" y="-7" font-family="Helvetica,sans-Serif" font-size="10.00">utility</text>
</a>
</g>
</g>
<!-- Node8&#45;&gt;Node11 -->
<g id="edge11_Node000008_Node000011" class="edge">
<title>Node8&#45;&gt;Node11</title>
<g id="a_edge11_Node000008_Node000011"><a xlink:title=" ">
<path fill="none" stroke="#63b8ff" d="M218.3,-54.75C221.41,-47.57 225.92,-37.18 229.79,-28.27"/>
<polygon fill="#63b8ff" stroke="#63b8ff" points="233,-29.66 233.77,-19.09 226.58,-26.87 233,-29.66"/>
</a>
</g>
</g>
<!-- Node12 -->
<g id="Node000012" class="node">
<title>Node12</title>
<g id="a_Node000012"><a xlink:title=" ">
<polygon fill="#e0e0e0" stroke="#999999" points="319,-19 278,-19 278,0 319,0 319,-19"/>
<text text-anchor="middle" x="298.5" y="-7" font-family="Helvetica,sans-Serif" font-size="10.00">tuple</text>
</a>
</g>
</g>
<!-- Node8&#45;&gt;Node12 -->
<g id="edge12_Node000008_Node000012" class="edge">
<title>Node8&#45;&gt;Node12</title>
<g id="a_edge12_Node000008_Node000012"><a xlink:title=" ">
<path fill="none" stroke="#63b8ff" d="M228,-54.98C240.9,-46.84 260.6,-34.41 275.9,-24.76"/>
<polygon fill="#63b8ff" stroke="#63b8ff" points="278.17,-27.47 284.76,-19.17 274.43,-21.55 278.17,-27.47"/>
</a>
</g>
</g>
<!-- Node18 -->
<g id="Node000018" class="node">
<title>Node18</title>
<g id="a_Node000018"><a xlink:href="Vec__fwd_8hpp.html" target="_top" xlink:title="Declaration of Vec.">
<polygon fill="white" stroke="#666666" points="537,-184 460,-184 460,-165 537,-165 537,-184"/>
<text text-anchor="middle" x="498.5" y="-172" font-family="Helvetica,sans-Serif" font-size="10.00">Vec_fwd.hpp</text>
</a>
</g>
</g>
<!-- Node17&#45;&gt;Node18 -->
<g id="edge19_Node000017_Node000018" class="edge">
<title>Node17&#45;&gt;Node18</title>
<g id="a_edge19_Node000017_Node000018"><a xlink:title=" ">
<path fill="none" stroke="#63b8ff" d="M498.5,-219.75C498.5,-212.8 498.5,-202.85 498.5,-194.13"/>
<polygon fill="#63b8ff" stroke="#63b8ff" points="502,-194.09 498.5,-184.09 495,-194.09 502,-194.09"/>
</a>
</g>
</g>
<!-- Node18&#45;&gt;Node4 -->
<g id="edge20_Node000018_Node000004" class="edge">
<title>Node18&#45;&gt;Node4</title>
<g id="a_edge20_Node000018_Node000004"><a xlink:title=" ">
<path fill="none" stroke="#63b8ff" d="M497.01,-164.75C495.83,-157.8 494.14,-147.85 492.66,-139.13"/>
<polygon fill="#63b8ff" stroke="#63b8ff" points="496.08,-138.36 490.96,-129.09 489.18,-139.53 496.08,-138.36"/>
</a>
</g>
</g>
<!-- Node19 -->
<g id="Node000019" class="node">
<title>Node19</title>
<g id="a_Node000019"><a xlink:title=" ">
<polygon fill="#e0e0e0" stroke="#999999" points="632,-129 563,-129 563,-110 632,-110 632,-129"/>
<text text-anchor="middle" x="597.5" y="-117" font-family="Helvetica,sans-Serif" font-size="10.00">Eigen/Core</text>
</a>
</g>
</g>
<!-- Node18&#45;&gt;Node19 -->
<g id="edge21_Node000018_Node000019" class="edge">
<title>Node18&#45;&gt;Node19</title>
<g id="a_edge21_Node000018_Node000019"><a xlink:title=" ">
<path fill="none" stroke="#63b8ff" d="M514.41,-164.98C530.05,-156.61 554.16,-143.7 572.38,-133.95"/>
<polygon fill="#63b8ff" stroke="#63b8ff" points="574.14,-136.98 581.3,-129.17 570.84,-130.8 574.14,-136.98"/>
</a>
</g>
</g>
</g>
</svg>

<g id="navigator" transform="translate(0 0)" fill="#404254">
  <rect fill="#f2f5e9" fill-opacity="0.5" stroke="#606060" stroke-width=".5" x="0" y="0" width="60" height="60"/>
  <use id="zoomplus" xlink:href="#zoomPlus" x="17" y="9" onmousedown="handleZoom(evt,'in')"/>
  <use id="zoomminus" xlink:href="#zoomMin" x="42" y="9" onmousedown="handleZoom(evt,'out')"/>
  <use id="reset" xlink:href="#resetDef" x="30" y="36" onmousedown="handleReset()"/>
   <use id="arrowup" xlink:href="#arrowUp" x="0" y="0" onmousedown="handlePan(0,-1)"/>
  <use id="arrowright" xlink:href="#arrowRight" x="0" y="0" onmousedown="handlePan(1,0)"/>
  <use id="arrowdown" xlink:href="#arrowDown" x="0" y="0" onmousedown="handlePan(0,1)"/>
  <use id="arrowleft" xlink:href="#arrowLeft" x="0" y="0" onmousedown="handlePan(-1,0)"/>
</g>
<svg viewBox="0 0 15 15" width="100%" height="30px" preserveAspectRatio="xMaxYMin meet">
 <g id="arrow_out" transform="scale(0.3 0.3)">
  <a xlink:href="Range_8cpp__incl_org.svg" target="_base">
   <rect id="button" ry="5" rx="5" y="6" x="6" height="38" width="38"
        fill="#f2f5e9" fill-opacity="0.5" stroke="#606060" stroke-width="1.0"/>
   <path id="arrow"
     d="M 11.500037,31.436501 C 11.940474,20.09759 22.043105,11.32322 32.158766,21.979434 L 37.068811,17.246167 C 37.068811,17.246167 37.088388,32 37.088388,32 L 22.160133,31.978069 C 22.160133,31.978069 26.997745,27.140456 26.997745,27.140456 C 18.528582,18.264221 13.291696,25.230495 11.500037,31.436501 z"
     style="fill:#404040;"/>
  </a>
 </g>
</svg>

<style type='text/css'>
<![CDATA[
[data-mouse-over-selected='false'] { opacity: 0.7; }
[data-mouse-over-selected='true']  { opacity: 1.0; }
]]>
</style>
<script type="application/ecmascript"><![CDATA[
document.addEventListener('DOMContentLoaded', (event) => {
  highlightEdges();
  highlightAdjacentNodes();
});
]]></script>
</svg>
