<?xml version="1.0" encoding="UTF-8" standalone="no"?>
<!DOCTYPE svg PUBLIC "-//W3C//DTD SVG 1.1//EN"
 "http://www.w3.org/Graphics/SVG/1.1/DTD/svg11.dtd">
<!-- Generated by graphviz version 2.43.0 (0)
 -->
<!-- Title: src/approximations/RBFBasis.cpp Pages: 1 -->
<!--zoomable 445 -->

<svg id="main" version="1.1" xmlns="http://www.w3.org/2000/svg" xmlns:xlink="http://www.w3.org/1999/xlink" xml:space="preserve" onload="init(evt)">
<style type="text/css"><![CDATA[
.node, .edge {opacity: 0.7;}
.node.selected, .edge.selected {opacity: 1;}
.edge:hover path { stroke: red; }
.edge:hover polygon { stroke: red; fill: red; }
]]></style>

<defs>
  <circle id="rim" cx="0" cy="0" r="7"/>
  <circle id="rim2" cx="0" cy="0" r="3.5"/>
  <g id="zoomPlus">
    <use xlink:href="#rim" fill="#404040"><set attributeName="fill" to="#808080" begin="zoomplus.mouseover" end="zoomplus.mouseout"/></use>
    <path d="M-4,0h8M0,-4v8" fill="none" stroke="white" stroke-width="1.5" pointer-events="none"/>
  </g>
  <g id="zoomMin">
    <use xlink:href="#rim" fill="#404040"><set attributeName="fill" to="#808080" begin="zoomminus.mouseover" end="zoomminus.mouseout"/></use>
    <path d="M-4,0h8" fill="none" stroke="white" stroke-width="1.5" pointer-events="none"/>
  </g>
  <g id="arrowUp" transform="translate(30 24)">
    <use xlink:href="#rim"/>
    <path pointer-events="none" fill="none" stroke="white" stroke-width="1.5" d="M0,-3.0v7 M-2.5,-0.5L0,-3.0L2.5,-0.5"/>
  </g>
  <g id="arrowRight" transform="rotate(90) translate(36 -43)">
    <use xlink:href="#rim"/>
    <path pointer-events="none" fill="none" stroke="white" stroke-width="1.5" d="M0,-3.0v7 M-2.5,-0.5L0,-3.0L2.5,-0.5"/>
  </g>
  <g id="arrowDown" transform="rotate(180) translate(-30 -48)">
    <use xlink:href="#rim"/>
    <path pointer-events="none" fill="none" stroke="white" stroke-width="1.5" d="M0,-3.0v7 M-2.5,-0.5L0,-3.0L2.5,-0.5"/>
  </g>
  <g id="arrowLeft" transform="rotate(270) translate(-36 17)">
    <use xlink:href="#rim"/>
    <path pointer-events="none" fill="none" stroke="white" stroke-width="1.5" d="M0,-3.0v7 M-2.5,-0.5L0,-3.0L2.5,-0.5"/>
  </g>
  <g id="resetDef">
    <use xlink:href="#rim2" fill="#404040"><set attributeName="fill" to="#808080" begin="reset.mouseover" end="reset.mouseout"/></use>
  </g>
</defs>
<script type="application/ecmascript">
var viewWidth = 1347;
var viewHeight = 445;
var sectionId = 'dynsection-0';
</script>
<script type="application/ecmascript" xlink:href="svg.min.js"/>
<svg id="graph" class="graph">
<g id="viewport">
<title>src/approximations/RBFBasis.cpp</title>
<!-- Node1 -->
<g id="Node000001" class="node">
<title>Node1</title>
<g id="a_Node000001"><a xlink:title="Instantiation of commonly used RBF bases.">
<polygon fill="#999999" stroke="#666666" points="816.97,-437 706.97,-437 706.97,-407 816.97,-407 816.97,-437"/>
<text text-anchor="start" x="714.97" y="-425" font-family="Helvetica,sans-Serif" font-size="10.00">src/approximations</text>
<text text-anchor="middle" x="761.97" y="-414" font-family="Helvetica,sans-Serif" font-size="10.00">/RBFBasis.cpp</text>
</a>
</g>
</g>
<!-- Node2 -->
<g id="Node000002" class="node">
<title>Node2</title>
<g id="a_Node000002"><a xlink:href="RBFBasis_8hpp.html" target="_top" xlink:title="Implementation of RBF basis.">
<polygon fill="white" stroke="#666666" points="1187.97,-371 1031.97,-371 1031.97,-341 1187.97,-341 1187.97,-371"/>
<text text-anchor="start" x="1039.97" y="-359" font-family="Helvetica,sans-Serif" font-size="10.00">medusa/bits/approximations</text>
<text text-anchor="middle" x="1109.97" y="-348" font-family="Helvetica,sans-Serif" font-size="10.00">/RBFBasis.hpp</text>
</a>
</g>
</g>
<!-- Node1&#45;&gt;Node2 -->
<g id="edge1_Node000001_Node000002" class="edge">
<title>Node1&#45;&gt;Node2</title>
<g id="a_edge1_Node000001_Node000002"><a xlink:title=" ">
<path fill="none" stroke="#63b8ff" d="M817.11,-410.86C872.6,-400.65 958.97,-384.77 1023.56,-372.89"/>
<polygon fill="#63b8ff" stroke="#63b8ff" points="1024.53,-376.27 1033.73,-371.02 1023.26,-369.39 1024.53,-376.27"/>
</a>
</g>
</g>
<!-- Node18 -->
<g id="Node000018" class="node">
<title>Node18</title>
<g id="a_Node000018"><a xlink:href="Vec_8hpp.html" target="_top" xlink:title="Implemetations for Vec.">
<polygon fill="white" stroke="#666666" points="652.97,-239 504.97,-239 504.97,-220 652.97,-220 652.97,-239"/>
<text text-anchor="middle" x="578.97" y="-227" font-family="Helvetica,sans-Serif" font-size="10.00">medusa/bits/types/Vec.hpp</text>
</a>
</g>
</g>
<!-- Node1&#45;&gt;Node18 -->
<g id="edge27_Node000001_Node000018" class="edge">
<title>Node1&#45;&gt;Node18</title>
<g id="a_edge27_Node000001_Node000018"><a xlink:title=" ">
<path fill="none" stroke="#63b8ff" d="M706.96,-418.44C638.25,-413.95 526.58,-401.98 500.97,-371 473.79,-338.11 479.54,-311.9 500.97,-275 509.51,-260.29 524.94,-250.04 539.83,-243.11"/>
<polygon fill="#63b8ff" stroke="#63b8ff" points="541.63,-246.15 549.47,-239.03 538.89,-239.71 541.63,-246.15"/>
</a>
</g>
</g>
<!-- Node20 -->
<g id="Node000020" class="node">
<title>Node20</title>
<g id="a_Node000020"><a xlink:href="Gaussian_8hpp.html" target="_top" xlink:title="Implementation of Gaussian RBF.">
<polygon fill="white" stroke="#666666" points="665.97,-371 509.97,-371 509.97,-341 665.97,-341 665.97,-371"/>
<text text-anchor="start" x="517.97" y="-359" font-family="Helvetica,sans-Serif" font-size="10.00">medusa/bits/approximations</text>
<text text-anchor="middle" x="587.97" y="-348" font-family="Helvetica,sans-Serif" font-size="10.00">/Gaussian.hpp</text>
</a>
</g>
</g>
<!-- Node1&#45;&gt;Node20 -->
<g id="edge31_Node000001_Node000020" class="edge">
<title>Node1&#45;&gt;Node20</title>
<g id="a_edge31_Node000001_Node000020"><a xlink:title=" ">
<path fill="none" stroke="#63b8ff" d="M723.78,-406.95C697.83,-397.41 663.31,-384.71 635.57,-374.51"/>
<polygon fill="#63b8ff" stroke="#63b8ff" points="636.66,-371.18 626.07,-371.01 634.24,-377.75 636.66,-371.18"/>
</a>
</g>
</g>
<!-- Node28 -->
<g id="Node000028" class="node">
<title>Node28</title>
<g id="a_Node000028"><a xlink:href="Multiquadric_8hpp.html" target="_top" xlink:title="Implementation of MultiQuadratic RBF.">
<polygon fill="white" stroke="#666666" points="839.97,-371 683.97,-371 683.97,-341 839.97,-341 839.97,-371"/>
<text text-anchor="start" x="691.97" y="-359" font-family="Helvetica,sans-Serif" font-size="10.00">medusa/bits/approximations</text>
<text text-anchor="middle" x="761.97" y="-348" font-family="Helvetica,sans-Serif" font-size="10.00">/Multiquadric.hpp</text>
</a>
</g>
</g>
<!-- Node1&#45;&gt;Node28 -->
<g id="edge53_Node000001_Node000028" class="edge">
<title>Node1&#45;&gt;Node28</title>
<g id="a_edge53_Node000001_Node000028"><a xlink:title=" ">
<path fill="none" stroke="#63b8ff" d="M761.97,-406.8C761.97,-399.34 761.97,-389.99 761.97,-381.41"/>
<polygon fill="#63b8ff" stroke="#63b8ff" points="765.47,-381.16 761.97,-371.16 758.47,-381.16 765.47,-381.16"/>
</a>
</g>
</g>
<!-- Node30 -->
<g id="Node000030" class="node">
<title>Node30</title>
<g id="a_Node000030"><a xlink:href="InverseMultiquadric_8hpp.html" target="_top" xlink:title="Implementation of InverseMultiQuadratic RBF.">
<polygon fill="white" stroke="#666666" points="1013.97,-371 857.97,-371 857.97,-341 1013.97,-341 1013.97,-371"/>
<text text-anchor="start" x="865.97" y="-359" font-family="Helvetica,sans-Serif" font-size="10.00">medusa/bits/approximations</text>
<text text-anchor="middle" x="935.97" y="-348" font-family="Helvetica,sans-Serif" font-size="10.00">/InverseMultiquadric.hpp</text>
</a>
</g>
</g>
<!-- Node1&#45;&gt;Node30 -->
<g id="edge61_Node000001_Node000030" class="edge">
<title>Node1&#45;&gt;Node30</title>
<g id="a_edge61_Node000001_Node000030"><a xlink:title=" ">
<path fill="none" stroke="#63b8ff" d="M800.15,-406.95C826.11,-397.41 860.63,-384.71 888.37,-374.51"/>
<polygon fill="#63b8ff" stroke="#63b8ff" points="889.7,-377.75 897.87,-371.01 887.28,-371.18 889.7,-377.75"/>
</a>
</g>
</g>
<!-- Node3 -->
<g id="Node000003" class="node">
<title>Node3</title>
<g id="a_Node000003"><a xlink:href="assert_8hpp.html" target="_top" xlink:title="Implementation of custom assert and debug utilities.">
<polygon fill="white" stroke="#666666" points="1260.47,-129 1105.47,-129 1105.47,-110 1260.47,-110 1260.47,-129"/>
<text text-anchor="middle" x="1182.97" y="-117" font-family="Helvetica,sans-Serif" font-size="10.00">medusa/bits/utils/assert.hpp</text>
</a>
</g>
</g>
<!-- Node2&#45;&gt;Node3 -->
<g id="edge2_Node000002_Node000003" class="edge">
<title>Node2&#45;&gt;Node3</title>
<g id="a_edge2_Node000002_Node000003"><a xlink:title=" ">
<path fill="none" stroke="#63b8ff" d="M1188.17,-345.51C1237.85,-337.69 1295.61,-324.65 1310.97,-305 1349.29,-255.98 1347.03,-215.71 1310.97,-165 1299.65,-149.08 1282.21,-138.81 1263.81,-132.19"/>
<polygon fill="#63b8ff" stroke="#63b8ff" points="1264.72,-128.81 1254.13,-129.05 1262.56,-135.46 1264.72,-128.81"/>
</a>
</g>
</g>
<!-- Node11 -->
<g id="Node000011" class="node">
<title>Node11</title>
<g id="a_Node000011"><a xlink:href="RBFBasis__fwd_8hpp.html" target="_top" xlink:title="Declaration of RBF basis.">
<polygon fill="white" stroke="#666666" points="615.97,-299.5 509.97,-299.5 509.97,-280.5 615.97,-280.5 615.97,-299.5"/>
<text text-anchor="middle" x="562.97" y="-287.5" font-family="Helvetica,sans-Serif" font-size="10.00">RBFBasis_fwd.hpp</text>
</a>
</g>
</g>
<!-- Node2&#45;&gt;Node11 -->
<g id="edge10_Node000002_Node000011" class="edge">
<title>Node2&#45;&gt;Node11</title>
<g id="a_edge10_Node000002_Node000011"><a xlink:title=" ">
<path fill="none" stroke="#63b8ff" d="M1031.75,-342.15C1028.79,-341.75 1025.85,-341.36 1022.97,-341 846.74,-318.88 800.42,-332.62 624.97,-305 619.1,-304.08 612.96,-302.92 606.93,-301.68"/>
<polygon fill="#63b8ff" stroke="#63b8ff" points="607.44,-298.21 596.92,-299.52 605.96,-305.05 607.44,-298.21"/>
</a>
</g>
</g>
<!-- Node4 -->
<g id="Node000004" class="node">
<title>Node4</title>
<g id="a_Node000004"><a xlink:title=" ">
<polygon fill="#e0e0e0" stroke="#999999" points="1101.97,-74 969.97,-74 969.97,-55 1101.97,-55 1101.97,-74"/>
<text text-anchor="middle" x="1035.97" y="-62" font-family="Helvetica,sans-Serif" font-size="10.00">tinyformat/tinyformat.h</text>
</a>
</g>
</g>
<!-- Node3&#45;&gt;Node4 -->
<g id="edge3_Node000003_Node000004" class="edge">
<title>Node3&#45;&gt;Node4</title>
<g id="a_edge3_Node000003_Node000004"><a xlink:title=" ">
<path fill="none" stroke="#63b8ff" d="M1159.35,-109.98C1135.06,-101.23 1097.02,-87.51 1069.6,-77.62"/>
<polygon fill="#63b8ff" stroke="#63b8ff" points="1070.61,-74.27 1060.02,-74.17 1068.24,-80.85 1070.61,-74.27"/>
</a>
</g>
</g>
<!-- Node5 -->
<g id="Node000005" class="node">
<title>Node5</title>
<g id="a_Node000005"><a xlink:href="print_8hpp.html" target="_top" xlink:title="Printing helpers for std types.">
<polygon fill="white" stroke="#666666" points="1179.97,-74 1119.97,-74 1119.97,-55 1179.97,-55 1179.97,-74"/>
<text text-anchor="middle" x="1149.97" y="-62" font-family="Helvetica,sans-Serif" font-size="10.00">print.hpp</text>
</a>
</g>
</g>
<!-- Node3&#45;&gt;Node5 -->
<g id="edge4_Node000003_Node000005" class="edge">
<title>Node3&#45;&gt;Node5</title>
<g id="a_edge4_Node000003_Node000005"><a xlink:title=" ">
<path fill="none" stroke="#63b8ff" d="M1177.52,-109.75C1172.96,-102.42 1166.3,-91.73 1160.68,-82.7"/>
<polygon fill="#63b8ff" stroke="#63b8ff" points="1163.57,-80.73 1155.32,-74.09 1157.63,-84.43 1163.57,-80.73"/>
</a>
</g>
</g>
<!-- Node6 -->
<g id="Node000006" class="node">
<title>Node6</title>
<g id="a_Node000006"><a xlink:title=" ">
<polygon fill="#e0e0e0" stroke="#999999" points="1248.97,-19 1188.97,-19 1188.97,0 1248.97,0 1248.97,-19"/>
<text text-anchor="middle" x="1218.97" y="-7" font-family="Helvetica,sans-Serif" font-size="10.00">iostream</text>
</a>
</g>
</g>
<!-- Node5&#45;&gt;Node6 -->
<g id="edge5_Node000005_Node000006" class="edge">
<title>Node5&#45;&gt;Node6</title>
<g id="a_edge5_Node000005_Node000006"><a xlink:title=" ">
<path fill="none" stroke="#63b8ff" d="M1161.06,-54.98C1171.46,-47 1187.23,-34.88 1199.69,-25.31"/>
<polygon fill="#63b8ff" stroke="#63b8ff" points="1201.88,-28.04 1207.68,-19.17 1197.62,-22.49 1201.88,-28.04"/>
</a>
</g>
</g>
<!-- Node7 -->
<g id="Node000007" class="node">
<title>Node7</title>
<g id="a_Node000007"><a xlink:title=" ">
<polygon fill="#e0e0e0" stroke="#999999" points="903.47,-19 856.47,-19 856.47,0 903.47,0 903.47,-19"/>
<text text-anchor="middle" x="879.97" y="-7" font-family="Helvetica,sans-Serif" font-size="10.00">vector</text>
</a>
</g>
</g>
<!-- Node5&#45;&gt;Node7 -->
<g id="edge6_Node000005_Node000007" class="edge">
<title>Node5&#45;&gt;Node7</title>
<g id="a_edge6_Node000005_Node000007"><a xlink:title=" ">
<path fill="none" stroke="#63b8ff" d="M1119.75,-56.84C1116.79,-56.21 1113.82,-55.59 1110.97,-55 1040.97,-40.63 958.74,-25.12 913.71,-16.73"/>
<polygon fill="#63b8ff" stroke="#63b8ff" points="914.09,-13.24 903.62,-14.86 912.81,-20.13 914.09,-13.24"/>
</a>
</g>
</g>
<!-- Node8 -->
<g id="Node000008" class="node">
<title>Node8</title>
<g id="a_Node000008"><a xlink:title=" ">
<polygon fill="#e0e0e0" stroke="#999999" points="235.97,-19 193.97,-19 193.97,0 235.97,0 235.97,-19"/>
<text text-anchor="middle" x="214.97" y="-7" font-family="Helvetica,sans-Serif" font-size="10.00">array</text>
</a>
</g>
</g>
<!-- Node5&#45;&gt;Node8 -->
<g id="edge7_Node000005_Node000008" class="edge">
<title>Node5&#45;&gt;Node8</title>
<g id="a_edge7_Node000005_Node000008"><a xlink:title=" ">
<path fill="none" stroke="#63b8ff" d="M1119.82,-56.42C1116.84,-55.87 1113.85,-55.38 1110.97,-55 774.82,-10.33 362.34,-9.46 246.52,-10.19"/>
<polygon fill="#63b8ff" stroke="#63b8ff" points="246.23,-6.69 236.25,-10.27 246.28,-13.69 246.23,-6.69"/>
</a>
</g>
</g>
<!-- Node9 -->
<g id="Node000009" class="node">
<title>Node9</title>
<g id="a_Node000009"><a xlink:title=" ">
<polygon fill="#e0e0e0" stroke="#999999" points="1111.47,-19 1066.47,-19 1066.47,0 1111.47,0 1111.47,-19"/>
<text text-anchor="middle" x="1088.97" y="-7" font-family="Helvetica,sans-Serif" font-size="10.00">utility</text>
</a>
</g>
</g>
<!-- Node5&#45;&gt;Node9 -->
<g id="edge8_Node000005_Node000009" class="edge">
<title>Node5&#45;&gt;Node9</title>
<g id="a_edge8_Node000005_Node000009"><a xlink:title=" ">
<path fill="none" stroke="#63b8ff" d="M1140.17,-54.98C1131.15,-47.15 1117.56,-35.34 1106.65,-25.86"/>
<polygon fill="#63b8ff" stroke="#63b8ff" points="1108.79,-23.09 1098.95,-19.17 1104.2,-28.37 1108.79,-23.09"/>
</a>
</g>
</g>
<!-- Node10 -->
<g id="Node000010" class="node">
<title>Node10</title>
<g id="a_Node000010"><a xlink:title=" ">
<polygon fill="#e0e0e0" stroke="#999999" points="1170.47,-19 1129.47,-19 1129.47,0 1170.47,0 1170.47,-19"/>
<text text-anchor="middle" x="1149.97" y="-7" font-family="Helvetica,sans-Serif" font-size="10.00">tuple</text>
</a>
</g>
</g>
<!-- Node5&#45;&gt;Node10 -->
<g id="edge9_Node000005_Node000010" class="edge">
<title>Node5&#45;&gt;Node10</title>
<g id="a_edge9_Node000005_Node000010"><a xlink:title=" ">
<path fill="none" stroke="#63b8ff" d="M1149.97,-54.75C1149.97,-47.8 1149.97,-37.85 1149.97,-29.13"/>
<polygon fill="#63b8ff" stroke="#63b8ff" points="1153.47,-29.09 1149.97,-19.09 1146.47,-29.09 1153.47,-29.09"/>
</a>
</g>
</g>
<!-- Node11&#45;&gt;Node8 -->
<g id="edge14_Node000011_Node000008" class="edge">
<title>Node11&#45;&gt;Node8</title>
<g id="a_edge14_Node000011_Node000008"><a xlink:title=" ">
<path fill="none" stroke="#63b8ff" d="M509.63,-285.37C399.04,-276.38 154.97,-248.29 154.97,-175.5 154.97,-175.5 154.97,-175.5 154.97,-118.5 154.97,-82.09 181.35,-46.48 199.13,-26.62"/>
<polygon fill="#63b8ff" stroke="#63b8ff" points="201.86,-28.82 206.12,-19.11 196.74,-24.05 201.86,-28.82"/>
</a>
</g>
</g>
<!-- Node12 -->
<g id="Node000012" class="node">
<title>Node12</title>
<g id="a_Node000012"><a xlink:href="Config_8hpp.html" target="_top" xlink:title="Contains compile time settings for the project, such as Eigen plugins.">
<polygon fill="white" stroke="#666666" points="859.97,-129 749.97,-129 749.97,-110 859.97,-110 859.97,-129"/>
<text text-anchor="middle" x="804.97" y="-117" font-family="Helvetica,sans-Serif" font-size="10.00">medusa/Config.hpp</text>
</a>
</g>
</g>
<!-- Node11&#45;&gt;Node12 -->
<g id="edge11_Node000011_Node000012" class="edge">
<title>Node11&#45;&gt;Node12</title>
<g id="a_edge11_Node000011_Node000012"><a xlink:title=" ">
<path fill="none" stroke="#63b8ff" d="M590.35,-280.41C614.97,-271.98 651.54,-257.68 679.97,-239 725.58,-209.04 769.68,-161.58 791.25,-136.79"/>
<polygon fill="#63b8ff" stroke="#63b8ff" points="794.05,-138.9 797.9,-129.04 788.74,-134.35 794.05,-138.9"/>
</a>
</g>
</g>
<!-- Node13 -->
<g id="Node000013" class="node">
<title>Node13</title>
<g id="a_Node000013"><a xlink:title=" ">
<polygon fill="#e0e0e0" stroke="#999999" points="672.97,-129 624.97,-129 624.97,-110 672.97,-110 672.97,-129"/>
<text text-anchor="middle" x="648.97" y="-117" font-family="Helvetica,sans-Serif" font-size="10.00">iosfwd</text>
</a>
</g>
</g>
<!-- Node11&#45;&gt;Node13 -->
<g id="edge13_Node000011_Node000013" class="edge">
<title>Node11&#45;&gt;Node13</title>
<g id="a_edge13_Node000011_Node000013"><a xlink:title=" ">
<path fill="none" stroke="#63b8ff" d="M600.78,-280.41C622.75,-273.26 648.65,-260.65 661.97,-239 681.23,-207.69 667.51,-162.78 657.3,-138.22"/>
<polygon fill="#63b8ff" stroke="#63b8ff" points="660.48,-136.77 653.24,-129.03 654.08,-139.59 660.48,-136.77"/>
</a>
</g>
</g>
<!-- Node14 -->
<g id="Node000014" class="node">
<title>Node14</title>
<g id="a_Node000014"><a xlink:href="Operators__fwd_8hpp.html" target="_top" xlink:title="File defining basic differential operator families.">
<polygon fill="white" stroke="#666666" points="448.97,-239 340.97,-239 340.97,-220 448.97,-220 448.97,-239"/>
<text text-anchor="middle" x="394.97" y="-227" font-family="Helvetica,sans-Serif" font-size="10.00">Operators_fwd.hpp</text>
</a>
</g>
</g>
<!-- Node11&#45;&gt;Node14 -->
<g id="edge15_Node000011_Node000014" class="edge">
<title>Node11&#45;&gt;Node14</title>
<g id="a_edge15_Node000011_Node000014"><a xlink:title=" ">
<path fill="none" stroke="#63b8ff" d="M538.54,-280.49C509.68,-270.44 461.47,-253.66 428.97,-242.34"/>
<polygon fill="#63b8ff" stroke="#63b8ff" points="430.02,-239 419.43,-239.02 427.72,-245.61 430.02,-239"/>
</a>
</g>
</g>
<!-- Node12&#45;&gt;Node7 -->
<g id="edge12_Node000012_Node000007" class="edge">
<title>Node12&#45;&gt;Node7</title>
<g id="a_edge12_Node000012_Node000007"><a xlink:title=" ">
<path fill="none" stroke="#63b8ff" d="M811.11,-109.66C823.58,-91.69 852.09,-50.64 868.24,-27.38"/>
<polygon fill="#63b8ff" stroke="#63b8ff" points="871.13,-29.37 873.96,-19.16 865.38,-25.38 871.13,-29.37"/>
</a>
</g>
</g>
<!-- Node14&#45;&gt;Node3 -->
<g id="edge26_Node000014_Node000003" class="edge">
<title>Node14&#45;&gt;Node3</title>
<g id="a_edge26_Node000014_Node000003"><a xlink:title=" ">
<path fill="none" stroke="#63b8ff" d="M449.21,-223.75C464.34,-222.48 480.79,-221.14 495.97,-220 738.92,-201.78 807.49,-246.52 1042.97,-184 1061.6,-179.05 1064.48,-173.11 1081.97,-165 1105.87,-153.92 1133.24,-141.9 1153.45,-133.15"/>
<polygon fill="#63b8ff" stroke="#63b8ff" points="1154.95,-136.32 1162.75,-129.14 1152.18,-129.89 1154.95,-136.32"/>
</a>
</g>
</g>
<!-- Node14&#45;&gt;Node7 -->
<g id="edge18_Node000014_Node000007" class="edge">
<title>Node14&#45;&gt;Node7</title>
<g id="a_edge18_Node000014_Node000007"><a xlink:title=" ">
<path fill="none" stroke="#63b8ff" d="M407.4,-219.93C426.16,-207.19 462.99,-182.83 495.97,-165 619.54,-98.21 778.28,-43.34 846.44,-21.13"/>
<polygon fill="#63b8ff" stroke="#63b8ff" points="847.77,-24.38 856.2,-17.97 845.61,-17.72 847.77,-24.38"/>
</a>
</g>
</g>
<!-- Node14&#45;&gt;Node8 -->
<g id="edge17_Node000014_Node000008" class="edge">
<title>Node14&#45;&gt;Node8</title>
<g id="a_edge17_Node000014_Node000008"><a xlink:title=" ">
<path fill="none" stroke="#63b8ff" d="M340.69,-222.67C292.65,-216.27 227.78,-204.12 211.97,-184 176.19,-138.48 195.83,-63.51 207.84,-28.98"/>
<polygon fill="#63b8ff" stroke="#63b8ff" points="211.24,-29.86 211.39,-19.27 204.66,-27.46 211.24,-29.86"/>
</a>
</g>
</g>
<!-- Node14&#45;&gt;Node12 -->
<g id="edge16_Node000014_Node000012" class="edge">
<title>Node14&#45;&gt;Node12</title>
<g id="a_edge16_Node000014_Node000012"><a xlink:title=" ">
<path fill="none" stroke="#63b8ff" d="M449.03,-223.63C503.82,-217.74 590.6,-205.8 662.97,-184 705.76,-171.11 752.57,-148.35 780.32,-133.87"/>
<polygon fill="#63b8ff" stroke="#63b8ff" points="782.09,-136.89 789.3,-129.12 778.82,-130.7 782.09,-136.89"/>
</a>
</g>
</g>
<!-- Node15 -->
<g id="Node000015" class="node">
<title>Node15</title>
<g id="a_Node000015"><a xlink:title=" ">
<polygon fill="#e0e0e0" stroke="#999999" points="410.47,-129 341.47,-129 341.47,-110 410.47,-110 410.47,-129"/>
<text text-anchor="middle" x="375.97" y="-117" font-family="Helvetica,sans-Serif" font-size="10.00">Eigen/Core</text>
</a>
</g>
</g>
<!-- Node14&#45;&gt;Node15 -->
<g id="edge19_Node000014_Node000015" class="edge">
<title>Node14&#45;&gt;Node15</title>
<g id="a_edge19_Node000014_Node000015"><a xlink:title=" ">
<path fill="none" stroke="#63b8ff" d="M393.41,-219.66C390.34,-202.17 383.41,-162.8 379.27,-139.27"/>
<polygon fill="#63b8ff" stroke="#63b8ff" points="382.67,-138.4 377.49,-129.16 375.78,-139.61 382.67,-138.4"/>
</a>
</g>
</g>
<!-- Node16 -->
<g id="Node000016" class="node">
<title>Node16</title>
<g id="a_Node000016"><a xlink:href="Monomials__fwd_8hpp.html" target="_top" xlink:title="Declaration of Monomial basis.">
<polygon fill="white" stroke="#666666" points="334.97,-184 220.97,-184 220.97,-165 334.97,-165 334.97,-184"/>
<text text-anchor="middle" x="277.97" y="-172" font-family="Helvetica,sans-Serif" font-size="10.00">Monomials_fwd.hpp</text>
</a>
</g>
</g>
<!-- Node14&#45;&gt;Node16 -->
<g id="edge20_Node000014_Node000016" class="edge">
<title>Node14&#45;&gt;Node16</title>
<g id="a_edge20_Node000014_Node000016"><a xlink:title=" ">
<path fill="none" stroke="#63b8ff" d="M376.17,-219.98C357.35,-211.46 328.15,-198.23 306.47,-188.41"/>
<polygon fill="#63b8ff" stroke="#63b8ff" points="307.66,-185.11 297.11,-184.17 304.77,-191.48 307.66,-185.11"/>
</a>
</g>
</g>
<!-- Node16&#45;&gt;Node8 -->
<g id="edge23_Node000016_Node000008" class="edge">
<title>Node16&#45;&gt;Node8</title>
<g id="a_edge23_Node000016_Node000008"><a xlink:title=" ">
<path fill="none" stroke="#63b8ff" d="M274.58,-164.74C264.67,-139.09 235.56,-63.78 222.03,-28.78"/>
<polygon fill="#63b8ff" stroke="#63b8ff" points="225.24,-27.37 218.37,-19.31 218.71,-29.9 225.24,-27.37"/>
</a>
</g>
</g>
<!-- Node16&#45;&gt;Node12 -->
<g id="edge21_Node000016_Node000012" class="edge">
<title>Node16&#45;&gt;Node12</title>
<g id="a_edge21_Node000016_Node000012"><a xlink:title=" ">
<path fill="none" stroke="#63b8ff" d="M335.12,-167.75C433.89,-157.82 635.89,-137.5 739.9,-127.04"/>
<polygon fill="#63b8ff" stroke="#63b8ff" points="740.36,-130.52 749.96,-126.03 739.66,-123.55 740.36,-130.52"/>
</a>
</g>
</g>
<!-- Node16&#45;&gt;Node13 -->
<g id="edge25_Node000016_Node000013" class="edge">
<title>Node16&#45;&gt;Node13</title>
<g id="a_edge25_Node000016_Node000013"><a xlink:title=" ">
<path fill="none" stroke="#63b8ff" d="M335.13,-165.33C413.3,-154.17 551.11,-134.48 614.86,-125.37"/>
<polygon fill="#63b8ff" stroke="#63b8ff" points="615.39,-128.83 624.8,-123.95 614.4,-121.9 615.39,-128.83"/>
</a>
</g>
</g>
<!-- Node16&#45;&gt;Node15 -->
<g id="edge24_Node000016_Node000015" class="edge">
<title>Node16&#45;&gt;Node15</title>
<g id="a_edge24_Node000016_Node000015"><a xlink:title=" ">
<path fill="none" stroke="#63b8ff" d="M293.72,-164.98C309.2,-156.61 333.06,-143.7 351.11,-133.95"/>
<polygon fill="#63b8ff" stroke="#63b8ff" points="352.81,-137.01 359.94,-129.17 349.48,-130.85 352.81,-137.01"/>
</a>
</g>
</g>
<!-- Node17 -->
<g id="Node000017" class="node">
<title>Node17</title>
<g id="a_Node000017"><a xlink:title=" ">
<polygon fill="#e0e0e0" stroke="#999999" points="114.47,-129 67.47,-129 67.47,-110 114.47,-110 114.47,-129"/>
<text text-anchor="middle" x="90.97" y="-117" font-family="Helvetica,sans-Serif" font-size="10.00">cmath</text>
</a>
</g>
</g>
<!-- Node16&#45;&gt;Node17 -->
<g id="edge22_Node000016_Node000017" class="edge">
<title>Node16&#45;&gt;Node17</title>
<g id="a_edge22_Node000016_Node000017"><a xlink:title=" ">
<path fill="none" stroke="#63b8ff" d="M247.92,-164.98C214.19,-155.42 159.59,-139.95 124.5,-130"/>
<polygon fill="#63b8ff" stroke="#63b8ff" points="125.29,-126.59 114.71,-127.23 123.38,-133.32 125.29,-126.59"/>
</a>
</g>
</g>
<!-- Node19 -->
<g id="Node000019" class="node">
<title>Node19</title>
<g id="a_Node000019"><a xlink:href="Vec__fwd_8hpp.html" target="_top" xlink:title="Declaration of Vec.">
<polygon fill="white" stroke="#666666" points="582.47,-184 505.47,-184 505.47,-165 582.47,-165 582.47,-184"/>
<text text-anchor="middle" x="543.97" y="-172" font-family="Helvetica,sans-Serif" font-size="10.00">Vec_fwd.hpp</text>
</a>
</g>
</g>
<!-- Node18&#45;&gt;Node19 -->
<g id="edge28_Node000018_Node000019" class="edge">
<title>Node18&#45;&gt;Node19</title>
<g id="a_edge28_Node000018_Node000019"><a xlink:title=" ">
<path fill="none" stroke="#63b8ff" d="M573.19,-219.75C568.35,-212.42 561.29,-201.73 555.33,-192.7"/>
<polygon fill="#63b8ff" stroke="#63b8ff" points="558.07,-190.5 549.64,-184.09 552.23,-194.36 558.07,-190.5"/>
</a>
</g>
</g>
<!-- Node19&#45;&gt;Node12 -->
<g id="edge29_Node000019_Node000012" class="edge">
<title>Node19&#45;&gt;Node12</title>
<g id="a_edge29_Node000019_Node000012"><a xlink:title=" ">
<path fill="none" stroke="#63b8ff" d="M582.48,-165.68C627.59,-156.52 702.52,-141.3 752.81,-131.09"/>
<polygon fill="#63b8ff" stroke="#63b8ff" points="753.73,-134.48 762.84,-129.06 752.34,-127.62 753.73,-134.48"/>
</a>
</g>
</g>
<!-- Node19&#45;&gt;Node15 -->
<g id="edge30_Node000019_Node000015" class="edge">
<title>Node19&#45;&gt;Node15</title>
<g id="a_edge30_Node000019_Node000015"><a xlink:title=" ">
<path fill="none" stroke="#63b8ff" d="M516.98,-164.98C488.77,-156.09 444.33,-142.07 412.89,-132.15"/>
<polygon fill="#63b8ff" stroke="#63b8ff" points="413.76,-128.75 403.17,-129.08 411.66,-135.43 413.76,-128.75"/>
</a>
</g>
</g>
<!-- Node20&#45;&gt;Node3 -->
<g id="edge38_Node000020_Node000003" class="edge">
<title>Node20&#45;&gt;Node3</title>
<g id="a_edge38_Node000020_Node000003"><a xlink:title=" ">
<path fill="none" stroke="#63b8ff" d="M666.19,-342.15C669.15,-341.74 672.09,-341.36 674.97,-341 764.63,-329.82 999.21,-345.52 1079.97,-305 1142.84,-273.46 1158.54,-250.32 1181.97,-184 1187.08,-169.53 1186.93,-152.02 1185.73,-139.05"/>
<polygon fill="#63b8ff" stroke="#63b8ff" points="1189.19,-138.52 1184.51,-129.02 1182.24,-139.37 1189.19,-138.52"/>
</a>
</g>
</g>
<!-- Node20&#45;&gt;Node17 -->
<g id="edge37_Node000020_Node000017" class="edge">
<title>Node20&#45;&gt;Node17</title>
<g id="a_edge37_Node000020_Node000017"><a xlink:title=" ">
<path fill="none" stroke="#63b8ff" d="M509.69,-353.76C363.07,-350.61 58.9,-339.9 26.97,-305 -15.03,-259.09 -1.85,-220.14 26.97,-165 34.08,-151.39 47.46,-141.1 60.16,-133.87"/>
<polygon fill="#63b8ff" stroke="#63b8ff" points="61.95,-136.88 69.18,-129.13 58.7,-130.68 61.95,-136.88"/>
</a>
</g>
</g>
<!-- Node21 -->
<g id="Node000021" class="node">
<title>Node21</title>
<g id="a_Node000021"><a xlink:href="Gaussian__fwd_8hpp.html" target="_top" xlink:title="Declaration of Gaussian RBF.">
<polygon fill="white" stroke="#666666" points="365.47,-299.5 260.47,-299.5 260.47,-280.5 365.47,-280.5 365.47,-299.5"/>
<text text-anchor="middle" x="312.97" y="-287.5" font-family="Helvetica,sans-Serif" font-size="10.00">Gaussian_fwd.hpp</text>
</a>
</g>
</g>
<!-- Node20&#45;&gt;Node21 -->
<g id="edge32_Node000020_Node000021" class="edge">
<title>Node20&#45;&gt;Node21</title>
<g id="a_edge32_Node000020_Node000021"><a xlink:title=" ">
<path fill="none" stroke="#63b8ff" d="M527.62,-340.95C476.95,-329.16 405.61,-312.56 359.33,-301.79"/>
<polygon fill="#63b8ff" stroke="#63b8ff" points="360.1,-298.38 349.57,-299.52 358.51,-305.19 360.1,-298.38"/>
</a>
</g>
</g>
<!-- Node22 -->
<g id="Node000022" class="node">
<title>Node22</title>
<g id="a_Node000022"><a xlink:href="numutils_8hpp.html" target="_top" xlink:title="Declaration of numerical utilities.">
<polygon fill="white" stroke="#666666" points="1071.47,-299.5 904.47,-299.5 904.47,-280.5 1071.47,-280.5 1071.47,-299.5"/>
<text text-anchor="middle" x="987.97" y="-287.5" font-family="Helvetica,sans-Serif" font-size="10.00">medusa/bits/utils/numutils.hpp</text>
</a>
</g>
</g>
<!-- Node20&#45;&gt;Node22 -->
<g id="edge39_Node000020_Node000022" class="edge">
<title>Node20&#45;&gt;Node22</title>
<g id="a_edge39_Node000020_Node000022"><a xlink:title=" ">
<path fill="none" stroke="#63b8ff" d="M666.22,-342.4C669.18,-341.93 672.1,-341.46 674.97,-341 761.31,-327.16 861.06,-311.23 924.31,-301.15"/>
<polygon fill="#63b8ff" stroke="#63b8ff" points="925.2,-304.55 934.52,-299.52 924.1,-297.64 925.2,-304.55"/>
</a>
</g>
</g>
<!-- Node21&#45;&gt;Node12 -->
<g id="edge33_Node000021_Node000012" class="edge">
<title>Node21&#45;&gt;Node12</title>
<g id="a_edge33_Node000021_Node000012"><a xlink:title=" ">
<path fill="none" stroke="#63b8ff" d="M312.56,-280.24C312.39,-265.4 314.41,-235.4 331.97,-220 375.65,-181.68 534.18,-196.3 590.97,-184 624.97,-176.64 716.53,-148.37 768.2,-132.14"/>
<polygon fill="#63b8ff" stroke="#63b8ff" points="769.48,-135.41 777.97,-129.07 767.38,-128.73 769.48,-135.41"/>
</a>
</g>
</g>
<!-- Node21&#45;&gt;Node13 -->
<g id="edge34_Node000021_Node000013" class="edge">
<title>Node21&#45;&gt;Node13</title>
<g id="a_edge34_Node000021_Node000013"><a xlink:title=" ">
<path fill="none" stroke="#63b8ff" d="M307.33,-280.41C298.87,-266.35 285.27,-238.14 298.97,-220 337.55,-168.92 534.37,-136.36 614.73,-125.01"/>
<polygon fill="#63b8ff" stroke="#63b8ff" points="615.4,-128.45 624.83,-123.61 614.44,-121.51 615.4,-128.45"/>
</a>
</g>
</g>
<!-- Node21&#45;&gt;Node14 -->
<g id="edge36_Node000021_Node000014" class="edge">
<title>Node21&#45;&gt;Node14</title>
<g id="a_edge36_Node000021_Node000014"><a xlink:title=" ">
<path fill="none" stroke="#63b8ff" d="M325.07,-280.37C338.03,-271.12 358.83,-256.28 374.37,-245.19"/>
<polygon fill="#63b8ff" stroke="#63b8ff" points="376.71,-247.82 382.82,-239.17 372.65,-242.13 376.71,-247.82"/>
</a>
</g>
</g>
<!-- Node21&#45;&gt;Node17 -->
<g id="edge35_Node000021_Node000017" class="edge">
<title>Node21&#45;&gt;Node17</title>
<g id="a_edge35_Node000021_Node000017"><a xlink:title=" ">
<path fill="none" stroke="#63b8ff" d="M260.25,-285.5C222.92,-280.44 173.84,-268.25 140.97,-239 111.18,-212.49 98.62,-165.31 93.75,-139.19"/>
<polygon fill="#63b8ff" stroke="#63b8ff" points="97.17,-138.4 92.06,-129.11 90.26,-139.55 97.17,-138.4"/>
</a>
</g>
</g>
<!-- Node22&#45;&gt;Node3 -->
<g id="edge41_Node000022_Node000003" class="edge">
<title>Node22&#45;&gt;Node3</title>
<g id="a_edge41_Node000022_Node000003"><a xlink:title=" ">
<path fill="none" stroke="#63b8ff" d="M1020.76,-280.48C1047.44,-272.53 1085.23,-258.89 1113.97,-239 1141.13,-220.2 1147.72,-212.76 1163.97,-184 1171.85,-170.05 1176.78,-152.49 1179.64,-139.38"/>
<polygon fill="#63b8ff" stroke="#63b8ff" points="1183.14,-139.69 1181.63,-129.2 1176.27,-138.34 1183.14,-139.69"/>
</a>
</g>
</g>
<!-- Node22&#45;&gt;Node12 -->
<g id="edge40_Node000022_Node000012" class="edge">
<title>Node22&#45;&gt;Node12</title>
<g id="a_edge40_Node000022_Node000012"><a xlink:title=" ">
<path fill="none" stroke="#63b8ff" d="M978.08,-280.48C967,-270.79 948.65,-254.31 933.97,-239 904.07,-207.83 903.17,-193.78 870.97,-165 858.12,-153.51 842.12,-142.66 829.1,-134.54"/>
<polygon fill="#63b8ff" stroke="#63b8ff" points="830.59,-131.35 820.23,-129.15 826.95,-137.33 830.59,-131.35"/>
</a>
</g>
</g>
<!-- Node22&#45;&gt;Node17 -->
<g id="edge52_Node000022_Node000017" class="edge">
<title>Node22&#45;&gt;Node17</title>
<g id="a_edge52_Node000022_Node000017"><a xlink:title=" ">
<path fill="none" stroke="#63b8ff" d="M934.93,-280.46C921.88,-278.51 907.94,-276.56 894.97,-275 718.19,-253.74 667.25,-287.66 495.97,-239 477.81,-233.84 474.92,-228.32 457.97,-220 407.48,-195.2 397.51,-182.26 343.97,-165 267.65,-140.4 173.73,-128.4 124.58,-123.44"/>
<polygon fill="#63b8ff" stroke="#63b8ff" points="124.8,-119.95 114.51,-122.46 124.12,-126.91 124.8,-119.95"/>
</a>
</g>
</g>
<!-- Node22&#45;&gt;Node18 -->
<g id="edge42_Node000022_Node000018" class="edge">
<title>Node22&#45;&gt;Node18</title>
<g id="a_edge42_Node000022_Node000018"><a xlink:title=" ">
<path fill="none" stroke="#63b8ff" d="M931.92,-280.47C919.74,-278.65 906.93,-276.74 894.97,-275 811.19,-262.79 714.82,-249.3 650.75,-240.41"/>
<polygon fill="#63b8ff" stroke="#63b8ff" points="651.14,-236.93 640.76,-239.02 650.18,-243.86 651.14,-236.93"/>
</a>
</g>
</g>
<!-- Node23 -->
<g id="Node000023" class="node">
<title>Node23</title>
<g id="a_Node000023"><a xlink:href="Range_8hpp.html" target="_top" xlink:title="Implementation of Range.">
<polygon fill="white" stroke="#666666" points="1104.47,-239 943.47,-239 943.47,-220 1104.47,-220 1104.47,-239"/>
<text text-anchor="middle" x="1023.97" y="-227" font-family="Helvetica,sans-Serif" font-size="10.00">medusa/bits/types/Range.hpp</text>
</a>
</g>
</g>
<!-- Node22&#45;&gt;Node23 -->
<g id="edge43_Node000022_Node000023" class="edge">
<title>Node22&#45;&gt;Node23</title>
<g id="a_edge43_Node000022_Node000023"><a xlink:title=" ">
<path fill="none" stroke="#63b8ff" d="M993.28,-280.37C998.55,-271.81 1006.76,-258.47 1013.36,-247.74"/>
<polygon fill="#63b8ff" stroke="#63b8ff" points="1016.38,-249.52 1018.64,-239.17 1010.41,-245.85 1016.38,-249.52"/>
</a>
</g>
</g>
<!-- Node24 -->
<g id="Node000024" class="node">
<title>Node24</title>
<g id="a_Node000024"><a xlink:href="Range__fwd_8hpp.html" target="_top" xlink:title="Declaration of Range.">
<polygon fill="white" stroke="#666666" points="1034.47,-184 943.47,-184 943.47,-165 1034.47,-165 1034.47,-184"/>
<text text-anchor="middle" x="988.97" y="-172" font-family="Helvetica,sans-Serif" font-size="10.00">Range_fwd.hpp</text>
</a>
</g>
</g>
<!-- Node23&#45;&gt;Node24 -->
<g id="edge44_Node000023_Node000024" class="edge">
<title>Node23&#45;&gt;Node24</title>
<g id="a_edge44_Node000023_Node000024"><a xlink:title=" ">
<path fill="none" stroke="#63b8ff" d="M1018.19,-219.75C1013.35,-212.42 1006.29,-201.73 1000.33,-192.7"/>
<polygon fill="#63b8ff" stroke="#63b8ff" points="1003.07,-190.5 994.64,-184.09 997.23,-194.36 1003.07,-190.5"/>
</a>
</g>
</g>
<!-- Node27 -->
<g id="Node000027" class="node">
<title>Node27</title>
<g id="a_Node000027"><a xlink:title=" ">
<polygon fill="#e0e0e0" stroke="#999999" points="1154.97,-184 1090.97,-184 1090.97,-165 1154.97,-165 1154.97,-184"/>
<text text-anchor="middle" x="1122.97" y="-172" font-family="Helvetica,sans-Serif" font-size="10.00">algorithm</text>
</a>
</g>
</g>
<!-- Node23&#45;&gt;Node27 -->
<g id="edge51_Node000023_Node000027" class="edge">
<title>Node23&#45;&gt;Node27</title>
<g id="a_edge51_Node000023_Node000027"><a xlink:title=" ">
<path fill="none" stroke="#63b8ff" d="M1039.88,-219.98C1055.51,-211.61 1079.62,-198.7 1097.85,-188.95"/>
<polygon fill="#63b8ff" stroke="#63b8ff" points="1099.61,-191.98 1106.77,-184.17 1096.31,-185.8 1099.61,-191.98"/>
</a>
</g>
</g>
<!-- Node24&#45;&gt;Node3 -->
<g id="edge46_Node000024_Node000003" class="edge">
<title>Node24&#45;&gt;Node3</title>
<g id="a_edge46_Node000024_Node000003"><a xlink:title=" ">
<path fill="none" stroke="#63b8ff" d="M1020.14,-164.98C1053.13,-155.97 1105.37,-141.7 1141.74,-131.76"/>
<polygon fill="#63b8ff" stroke="#63b8ff" points="1142.83,-135.09 1151.56,-129.08 1140.99,-128.34 1142.83,-135.09"/>
</a>
</g>
</g>
<!-- Node24&#45;&gt;Node7 -->
<g id="edge49_Node000024_Node000007" class="edge">
<title>Node24&#45;&gt;Node7</title>
<g id="a_edge49_Node000024_Node000007"><a xlink:title=" ">
<path fill="none" stroke="#63b8ff" d="M973.05,-164.98C959.72,-157.15 941.01,-144.44 928.97,-129 904.87,-98.1 890.74,-53.66 884.27,-28.92"/>
<polygon fill="#63b8ff" stroke="#63b8ff" points="887.63,-27.92 881.83,-19.05 880.83,-29.6 887.63,-27.92"/>
</a>
</g>
</g>
<!-- Node24&#45;&gt;Node12 -->
<g id="edge45_Node000024_Node000012" class="edge">
<title>Node24&#45;&gt;Node12</title>
<g id="a_edge45_Node000024_Node000012"><a xlink:title=" ">
<path fill="none" stroke="#63b8ff" d="M959.41,-164.98C928.25,-156.01 879,-141.82 844.51,-131.89"/>
<polygon fill="#63b8ff" stroke="#63b8ff" points="845.34,-128.49 834.76,-129.08 843.4,-135.21 845.34,-128.49"/>
</a>
</g>
</g>
<!-- Node24&#45;&gt;Node13 -->
<g id="edge50_Node000024_Node000013" class="edge">
<title>Node24&#45;&gt;Node13</title>
<g id="a_edge50_Node000024_Node000013"><a xlink:title=" ">
<path fill="none" stroke="#63b8ff" d="M943.47,-166.41C874.36,-155.63 744.5,-135.39 682.96,-125.8"/>
<polygon fill="#63b8ff" stroke="#63b8ff" points="683.41,-122.33 672.99,-124.25 682.34,-129.24 683.41,-122.33"/>
</a>
</g>
</g>
<!-- Node25 -->
<g id="Node000025" class="node">
<title>Node25</title>
<g id="a_Node000025"><a xlink:href="traits_8hpp.html" target="_top" xlink:title="Type traits definition for vector and scalar fields.">
<polygon fill="white" stroke="#666666" points="1001.47,-129 938.47,-129 938.47,-110 1001.47,-110 1001.47,-129"/>
<text text-anchor="middle" x="969.97" y="-117" font-family="Helvetica,sans-Serif" font-size="10.00">traits.hpp</text>
</a>
</g>
</g>
<!-- Node24&#45;&gt;Node25 -->
<g id="edge47_Node000024_Node000025" class="edge">
<title>Node24&#45;&gt;Node25</title>
<g id="a_edge47_Node000024_Node000025"><a xlink:title=" ">
<path fill="none" stroke="#63b8ff" d="M985.83,-164.75C983.29,-157.65 979.61,-147.4 976.44,-138.56"/>
<polygon fill="#63b8ff" stroke="#63b8ff" points="979.72,-137.32 973.05,-129.09 973.13,-139.68 979.72,-137.32"/>
</a>
</g>
</g>
<!-- Node26 -->
<g id="Node000026" class="node">
<title>Node26</title>
<g id="a_Node000026"><a xlink:title=" ">
<polygon fill="#e0e0e0" stroke="#999999" points="1077.97,-129 1019.97,-129 1019.97,-110 1077.97,-110 1077.97,-129"/>
<text text-anchor="middle" x="1048.97" y="-117" font-family="Helvetica,sans-Serif" font-size="10.00">memory</text>
</a>
</g>
</g>
<!-- Node24&#45;&gt;Node26 -->
<g id="edge48_Node000024_Node000026" class="edge">
<title>Node24&#45;&gt;Node26</title>
<g id="a_edge48_Node000024_Node000026"><a xlink:title=" ">
<path fill="none" stroke="#63b8ff" d="M998.61,-164.98C1007.48,-157.15 1020.84,-145.34 1031.58,-135.86"/>
<polygon fill="#63b8ff" stroke="#63b8ff" points="1033.98,-138.41 1039.15,-129.17 1029.34,-133.17 1033.98,-138.41"/>
</a>
</g>
</g>
<!-- Node28&#45;&gt;Node3 -->
<g id="edge58_Node000028_Node000003" class="edge">
<title>Node28&#45;&gt;Node3</title>
<g id="a_edge58_Node000028_Node000003"><a xlink:title=" ">
<path fill="none" stroke="#63b8ff" d="M840.19,-342.16C843.15,-341.75 846.09,-341.37 848.97,-341 891.7,-335.58 1205.96,-336.84 1234.97,-305 1276.87,-259 1260.99,-221.52 1234.97,-165 1229.22,-152.52 1218.06,-142.24 1207.55,-134.71"/>
<polygon fill="#63b8ff" stroke="#63b8ff" points="1209.27,-131.65 1199,-129.05 1205.4,-137.49 1209.27,-131.65"/>
</a>
</g>
</g>
<!-- Node28&#45;&gt;Node17 -->
<g id="edge59_Node000028_Node000017" class="edge">
<title>Node28&#45;&gt;Node17</title>
<g id="a_edge59_Node000028_Node000017"><a xlink:title=" ">
<path fill="none" stroke="#63b8ff" d="M683.77,-342.03C680.8,-341.66 677.86,-341.32 674.97,-341 607.48,-333.6 111.54,-354.4 64.97,-305 22.29,-259.72 48.71,-225.06 64.97,-165 67.63,-155.19 73.04,-145.33 78.25,-137.39"/>
<polygon fill="#63b8ff" stroke="#63b8ff" points="81.2,-139.27 84.08,-129.07 75.47,-135.25 81.2,-139.27"/>
</a>
</g>
</g>
<!-- Node28&#45;&gt;Node22 -->
<g id="edge60_Node000028_Node000022" class="edge">
<title>Node28&#45;&gt;Node22</title>
<g id="a_edge60_Node000028_Node000022"><a xlink:title=" ">
<path fill="none" stroke="#63b8ff" d="M811.57,-340.95C852.6,-329.34 910.12,-313.05 948.18,-302.27"/>
<polygon fill="#63b8ff" stroke="#63b8ff" points="949.23,-305.61 957.89,-299.52 947.32,-298.87 949.23,-305.61"/>
</a>
</g>
</g>
<!-- Node29 -->
<g id="Node000029" class="node">
<title>Node29</title>
<g id="a_Node000029"><a xlink:href="Multiquadric__fwd_8hpp.html" target="_top" xlink:title="Declaration of MultiQuadratic RBF.">
<polygon fill="white" stroke="#666666" points="755.47,-299.5 634.47,-299.5 634.47,-280.5 755.47,-280.5 755.47,-299.5"/>
<text text-anchor="middle" x="694.97" y="-287.5" font-family="Helvetica,sans-Serif" font-size="10.00">Multiquadric_fwd.hpp</text>
</a>
</g>
</g>
<!-- Node28&#45;&gt;Node29 -->
<g id="edge54_Node000028_Node000029" class="edge">
<title>Node28&#45;&gt;Node29</title>
<g id="a_edge54_Node000028_Node000029"><a xlink:title=" ">
<path fill="none" stroke="#63b8ff" d="M747.1,-340.8C736.55,-330.72 722.39,-317.19 711.49,-306.78"/>
<polygon fill="#63b8ff" stroke="#63b8ff" points="713.88,-304.22 704.23,-299.84 709.04,-309.28 713.88,-304.22"/>
</a>
</g>
</g>
<!-- Node29&#45;&gt;Node12 -->
<g id="edge55_Node000029_Node000012" class="edge">
<title>Node29&#45;&gt;Node12</title>
<g id="a_edge55_Node000029_Node000012"><a xlink:title=" ">
<path fill="none" stroke="#63b8ff" d="M712.21,-280.26C739.99,-265.07 793.69,-230.89 814.97,-184 821.52,-169.57 817.72,-151.6 813.05,-138.47"/>
<polygon fill="#63b8ff" stroke="#63b8ff" points="816.27,-137.1 809.29,-129.13 809.77,-139.71 816.27,-137.1"/>
</a>
</g>
</g>
<!-- Node29&#45;&gt;Node13 -->
<g id="edge56_Node000029_Node000013" class="edge">
<title>Node29&#45;&gt;Node13</title>
<g id="a_edge56_Node000029_Node000013"><a xlink:title=" ">
<path fill="none" stroke="#63b8ff" d="M696.14,-280.37C697.68,-267.18 699.65,-241.29 694.97,-220 688.25,-189.45 671.2,-157.12 659.85,-137.88"/>
<polygon fill="#63b8ff" stroke="#63b8ff" points="662.7,-135.83 654.52,-129.09 656.72,-139.46 662.7,-135.83"/>
</a>
</g>
</g>
<!-- Node29&#45;&gt;Node14 -->
<g id="edge57_Node000029_Node000014" class="edge">
<title>Node29&#45;&gt;Node14</title>
<g id="a_edge57_Node000029_Node000014"><a xlink:title=" ">
<path fill="none" stroke="#63b8ff" d="M652.41,-280.44C643.35,-278.64 633.85,-276.75 624.97,-275 564.93,-263.19 496.01,-249.89 449.4,-240.93"/>
<polygon fill="#63b8ff" stroke="#63b8ff" points="449.99,-237.48 439.51,-239.03 448.67,-244.35 449.99,-237.48"/>
</a>
</g>
</g>
<!-- Node30&#45;&gt;Node3 -->
<g id="edge67_Node000030_Node000003" class="edge">
<title>Node30&#45;&gt;Node3</title>
<g id="a_edge67_Node000030_Node000003"><a xlink:title=" ">
<path fill="none" stroke="#63b8ff" d="M1014.21,-342.35C1017.17,-341.89 1020.1,-341.44 1022.97,-341 1078.46,-332.54 1236.22,-347.42 1272.97,-305 1313.71,-257.97 1305.8,-217.86 1272.97,-165 1263.44,-149.65 1246.87,-139.44 1230.52,-132.71"/>
<polygon fill="#63b8ff" stroke="#63b8ff" points="1231.57,-129.37 1220.98,-129.15 1229.12,-135.93 1231.57,-129.37"/>
</a>
</g>
</g>
<!-- Node30&#45;&gt;Node17 -->
<g id="edge66_Node000030_Node000017" class="edge">
<title>Node30&#45;&gt;Node17</title>
<g id="a_edge66_Node000030_Node000017"><a xlink:title=" ">
<path fill="none" stroke="#63b8ff" d="M857.77,-342.04C854.8,-341.67 851.86,-341.32 848.97,-341 584.32,-311.81 507.94,-374.72 250.97,-305 188.43,-288.03 165.79,-285.8 120.97,-239 94.88,-211.76 90.56,-165.24 90.35,-139.33"/>
<polygon fill="#63b8ff" stroke="#63b8ff" points="93.85,-139.35 90.47,-129.31 86.85,-139.27 93.85,-139.35"/>
</a>
</g>
</g>
<!-- Node30&#45;&gt;Node22 -->
<g id="edge68_Node000030_Node000022" class="edge">
<title>Node30&#45;&gt;Node22</title>
<g id="a_edge68_Node000030_Node000022"><a xlink:title=" ">
<path fill="none" stroke="#63b8ff" d="M947.51,-340.8C955.46,-331.01 966.05,-317.98 974.4,-307.7"/>
<polygon fill="#63b8ff" stroke="#63b8ff" points="977.19,-309.81 980.78,-299.84 971.76,-305.4 977.19,-309.81"/>
</a>
</g>
</g>
<!-- Node31 -->
<g id="Node000031" class="node">
<title>Node31</title>
<g id="a_Node000031"><a xlink:href="InverseMultiquadric__fwd_8hpp.html" target="_top" xlink:title="Declaration of InverseMultiQuadratic RBF.">
<polygon fill="white" stroke="#666666" points="886.47,-305 773.47,-305 773.47,-275 886.47,-275 886.47,-305"/>
<text text-anchor="start" x="781.47" y="-293" font-family="Helvetica,sans-Serif" font-size="10.00">InverseMultiquadric</text>
<text text-anchor="middle" x="829.97" y="-282" font-family="Helvetica,sans-Serif" font-size="10.00">_fwd.hpp</text>
</a>
</g>
</g>
<!-- Node30&#45;&gt;Node31 -->
<g id="edge62_Node000030_Node000031" class="edge">
<title>Node30&#45;&gt;Node31</title>
<g id="a_edge62_Node000030_Node000031"><a xlink:title=" ">
<path fill="none" stroke="#63b8ff" d="M912.71,-340.95C897.8,-331.95 878.24,-320.14 861.88,-310.27"/>
<polygon fill="#63b8ff" stroke="#63b8ff" points="863.55,-307.18 853.18,-305.01 859.93,-313.18 863.55,-307.18"/>
</a>
</g>
</g>
<!-- Node31&#45;&gt;Node12 -->
<g id="edge63_Node000031_Node000012" class="edge">
<title>Node31&#45;&gt;Node12</title>
<g id="a_edge63_Node000031_Node000012"><a xlink:title=" ">
<path fill="none" stroke="#63b8ff" d="M838.56,-274.71C843.87,-265.01 850.19,-251.69 852.97,-239 860,-206.87 866.13,-195.14 852.97,-165 847.7,-152.92 837.34,-142.65 827.6,-135.03"/>
<polygon fill="#63b8ff" stroke="#63b8ff" points="829.49,-132.07 819.34,-129.04 825.38,-137.74 829.49,-132.07"/>
</a>
</g>
</g>
<!-- Node31&#45;&gt;Node13 -->
<g id="edge64_Node000031_Node000013" class="edge">
<title>Node31&#45;&gt;Node13</title>
<g id="a_edge64_Node000031_Node000013"><a xlink:title=" ">
<path fill="none" stroke="#63b8ff" d="M814.85,-274.92C781.34,-243.73 701.03,-168.97 665.9,-136.27"/>
<polygon fill="#63b8ff" stroke="#63b8ff" points="668.08,-133.51 658.37,-129.25 663.31,-138.63 668.08,-133.51"/>
</a>
</g>
</g>
<!-- Node31&#45;&gt;Node14 -->
<g id="edge65_Node000031_Node000014" class="edge">
<title>Node31&#45;&gt;Node14</title>
<g id="a_edge65_Node000031_Node000014"><a xlink:title=" ">
<path fill="none" stroke="#63b8ff" d="M773.15,-276.61C770.05,-276.04 766.97,-275.5 763.97,-275 631.05,-253 596.7,-255.36 462.97,-239 461.71,-238.85 460.43,-238.69 459.15,-238.53"/>
<polygon fill="#63b8ff" stroke="#63b8ff" points="459.51,-235.05 449.16,-237.3 458.65,-242 459.51,-235.05"/>
</a>
</g>
</g>
</g>
</svg>

<g id="navigator" transform="translate(0 0)" fill="#404254">
  <rect fill="#f2f5e9" fill-opacity="0.5" stroke="#606060" stroke-width=".5" x="0" y="0" width="60" height="60"/>
  <use id="zoomplus" xlink:href="#zoomPlus" x="17" y="9" onmousedown="handleZoom(evt,'in')"/>
  <use id="zoomminus" xlink:href="#zoomMin" x="42" y="9" onmousedown="handleZoom(evt,'out')"/>
  <use id="reset" xlink:href="#resetDef" x="30" y="36" onmousedown="handleReset()"/>
   <use id="arrowup" xlink:href="#arrowUp" x="0" y="0" onmousedown="handlePan(0,-1)"/>
  <use id="arrowright" xlink:href="#arrowRight" x="0" y="0" onmousedown="handlePan(1,0)"/>
  <use id="arrowdown" xlink:href="#arrowDown" x="0" y="0" onmousedown="handlePan(0,1)"/>
  <use id="arrowleft" xlink:href="#arrowLeft" x="0" y="0" onmousedown="handlePan(-1,0)"/>
</g>
<svg viewBox="0 0 15 15" width="100%" height="30px" preserveAspectRatio="xMaxYMin meet">
 <g id="arrow_out" transform="scale(0.3 0.3)">
  <a xlink:href="RBFBasis_8cpp__incl_org.svg" target="_base">
   <rect id="button" ry="5" rx="5" y="6" x="6" height="38" width="38"
        fill="#f2f5e9" fill-opacity="0.5" stroke="#606060" stroke-width="1.0"/>
   <path id="arrow"
     d="M 11.500037,31.436501 C 11.940474,20.09759 22.043105,11.32322 32.158766,21.979434 L 37.068811,17.246167 C 37.068811,17.246167 37.088388,32 37.088388,32 L 22.160133,31.978069 C 22.160133,31.978069 26.997745,27.140456 26.997745,27.140456 C 18.528582,18.264221 13.291696,25.230495 11.500037,31.436501 z"
     style="fill:#404040;"/>
  </a>
 </g>
</svg>

<style type='text/css'>
<![CDATA[
[data-mouse-over-selected='false'] { opacity: 0.7; }
[data-mouse-over-selected='true']  { opacity: 1.0; }
]]>
</style>
<script type="application/ecmascript"><![CDATA[
document.addEventListener('DOMContentLoaded', (event) => {
  highlightEdges();
  highlightAdjacentNodes();
});
]]></script>
</svg>
