<?xml version="1.0" encoding="UTF-8" standalone="no"?>
<!DOCTYPE svg PUBLIC "-//W3C//DTD SVG 1.1//EN"
 "http://www.w3.org/Graphics/SVG/1.1/DTD/svg11.dtd">
<!-- Generated by graphviz version 2.43.0 (0)
 -->
<!-- Title: include/medusa/bits/approximations/RBFBasis.hpp Pages: 1 -->
<svg width="669pt" height="313pt"
 viewBox="0.00 0.00 669.17 313.00" xmlns="http://www.w3.org/2000/svg" xmlns:xlink="http://www.w3.org/1999/xlink">
<g id="graph0" class="graph" transform="scale(1 1) rotate(0) translate(4 309)">
<title>include/medusa/bits/approximations/RBFBasis.hpp</title>
<!-- Node1 -->
<g id="Node000001" class="node">
<title>Node1</title>
<g id="a_Node000001"><a xlink:title="Implementation of RBF basis.">
<polygon fill="#999999" stroke="#666666" points="424,-305 258,-305 258,-275 424,-275 424,-305"/>
<text text-anchor="start" x="266" y="-293" font-family="Helvetica,sans-Serif" font-size="10.00">include/medusa/bits</text>
<text text-anchor="middle" x="341" y="-282" font-family="Helvetica,sans-Serif" font-size="10.00">/approximations/RBFBasis.hpp</text>
</a>
</g>
</g>
<!-- Node2 -->
<g id="Node000002" class="node">
<title>Node2</title>
<g id="a_Node000002"><a xlink:href="assert_8hpp.html" target="_top" xlink:title="Implementation of custom assert and debug utilities.">
<polygon fill="white" stroke="#666666" points="209.5,-129 54.5,-129 54.5,-110 209.5,-110 209.5,-129"/>
<text text-anchor="middle" x="132" y="-117" font-family="Helvetica,sans-Serif" font-size="10.00">medusa/bits/utils/assert.hpp</text>
</a>
</g>
</g>
<!-- Node1&#45;&gt;Node2 -->
<g id="edge1_Node000001_Node000002" class="edge">
<title>Node1&#45;&gt;Node2</title>
<g id="a_edge1_Node000001_Node000002"><a xlink:title=" ">
<path fill="none" stroke="#63b8ff" d="M323.54,-274.92C284.6,-243.53 190.94,-168.02 150.79,-135.65"/>
<polygon fill="#63b8ff" stroke="#63b8ff" points="152.84,-132.81 142.86,-129.25 148.45,-138.26 152.84,-132.81"/>
</a>
</g>
</g>
<!-- Node10 -->
<g id="Node000010" class="node">
<title>Node10</title>
<g id="a_Node000010"><a xlink:href="RBFBasis__fwd_8hpp.html" target="_top" xlink:title="Declaration of RBF basis.">
<polygon fill="white" stroke="#666666" points="584,-239 478,-239 478,-220 584,-220 584,-239"/>
<text text-anchor="middle" x="531" y="-227" font-family="Helvetica,sans-Serif" font-size="10.00">RBFBasis_fwd.hpp</text>
</a>
</g>
</g>
<!-- Node1&#45;&gt;Node10 -->
<g id="edge9_Node000001_Node000010" class="edge">
<title>Node1&#45;&gt;Node10</title>
<g id="a_edge9_Node000001_Node000010"><a xlink:title=" ">
<path fill="none" stroke="#63b8ff" d="M386.51,-274.99C419.16,-264.94 462.63,-251.55 493.33,-242.1"/>
<polygon fill="#63b8ff" stroke="#63b8ff" points="494.69,-245.34 503.22,-239.05 492.63,-238.65 494.69,-245.34"/>
</a>
</g>
</g>
<!-- Node3 -->
<g id="Node000003" class="node">
<title>Node3</title>
<g id="a_Node000003"><a xlink:title=" ">
<polygon fill="#e0e0e0" stroke="#999999" points="132,-74 0,-74 0,-55 132,-55 132,-74"/>
<text text-anchor="middle" x="66" y="-62" font-family="Helvetica,sans-Serif" font-size="10.00">tinyformat/tinyformat.h</text>
</a>
</g>
</g>
<!-- Node2&#45;&gt;Node3 -->
<g id="edge2_Node000002_Node000003" class="edge">
<title>Node2&#45;&gt;Node3</title>
<g id="a_edge2_Node000002_Node000003"><a xlink:title=" ">
<path fill="none" stroke="#63b8ff" d="M121.4,-109.98C111.54,-102.07 96.65,-90.11 84.78,-80.58"/>
<polygon fill="#63b8ff" stroke="#63b8ff" points="86.79,-77.7 76.8,-74.17 82.4,-83.16 86.79,-77.7"/>
</a>
</g>
</g>
<!-- Node4 -->
<g id="Node000004" class="node">
<title>Node4</title>
<g id="a_Node000004"><a xlink:href="print_8hpp.html" target="_top" xlink:title="Printing helpers for std types.">
<polygon fill="white" stroke="#666666" points="210,-74 150,-74 150,-55 210,-55 210,-74"/>
<text text-anchor="middle" x="180" y="-62" font-family="Helvetica,sans-Serif" font-size="10.00">print.hpp</text>
</a>
</g>
</g>
<!-- Node2&#45;&gt;Node4 -->
<g id="edge3_Node000002_Node000004" class="edge">
<title>Node2&#45;&gt;Node4</title>
<g id="a_edge3_Node000002_Node000004"><a xlink:title=" ">
<path fill="none" stroke="#63b8ff" d="M139.93,-109.75C146.85,-102.11 157.07,-90.82 165.45,-81.56"/>
<polygon fill="#63b8ff" stroke="#63b8ff" points="168.1,-83.85 172.22,-74.09 162.91,-79.15 168.1,-83.85"/>
</a>
</g>
</g>
<!-- Node5 -->
<g id="Node000005" class="node">
<title>Node5</title>
<g id="a_Node000005"><a xlink:title=" ">
<polygon fill="#e0e0e0" stroke="#999999" points="244,-19 184,-19 184,0 244,0 244,-19"/>
<text text-anchor="middle" x="214" y="-7" font-family="Helvetica,sans-Serif" font-size="10.00">iostream</text>
</a>
</g>
</g>
<!-- Node4&#45;&gt;Node5 -->
<g id="edge4_Node000004_Node000005" class="edge">
<title>Node4&#45;&gt;Node5</title>
<g id="a_edge4_Node000004_Node000005"><a xlink:title=" ">
<path fill="none" stroke="#63b8ff" d="M185.61,-54.75C190.32,-47.42 197.17,-36.73 202.97,-27.7"/>
<polygon fill="#63b8ff" stroke="#63b8ff" points="206.04,-29.4 208.49,-19.09 200.14,-25.62 206.04,-29.4"/>
</a>
</g>
</g>
<!-- Node6 -->
<g id="Node000006" class="node">
<title>Node6</title>
<g id="a_Node000006"><a xlink:title=" ">
<polygon fill="#e0e0e0" stroke="#999999" points="309.5,-19 262.5,-19 262.5,0 309.5,0 309.5,-19"/>
<text text-anchor="middle" x="286" y="-7" font-family="Helvetica,sans-Serif" font-size="10.00">vector</text>
</a>
</g>
</g>
<!-- Node4&#45;&gt;Node6 -->
<g id="edge5_Node000004_Node000006" class="edge">
<title>Node4&#45;&gt;Node6</title>
<g id="a_edge5_Node000004_Node000006"><a xlink:title=" ">
<path fill="none" stroke="#63b8ff" d="M197.03,-54.98C213.93,-46.54 240.06,-33.47 259.64,-23.68"/>
<polygon fill="#63b8ff" stroke="#63b8ff" points="261.28,-26.77 268.66,-19.17 258.15,-20.51 261.28,-26.77"/>
</a>
</g>
</g>
<!-- Node7 -->
<g id="Node000007" class="node">
<title>Node7</title>
<g id="a_Node000007"><a xlink:title=" ">
<polygon fill="#e0e0e0" stroke="#999999" points="566,-19 524,-19 524,0 566,0 566,-19"/>
<text text-anchor="middle" x="545" y="-7" font-family="Helvetica,sans-Serif" font-size="10.00">array</text>
</a>
</g>
</g>
<!-- Node4&#45;&gt;Node7 -->
<g id="edge6_Node000004_Node000007" class="edge">
<title>Node4&#45;&gt;Node7</title>
<g id="a_edge6_Node000004_Node000007"><a xlink:title=" ">
<path fill="none" stroke="#63b8ff" d="M210.18,-59.12C278.44,-49.21 444.11,-25.15 513.55,-15.07"/>
<polygon fill="#63b8ff" stroke="#63b8ff" points="514.45,-18.47 523.84,-13.57 513.44,-11.55 514.45,-18.47"/>
</a>
</g>
</g>
<!-- Node8 -->
<g id="Node000008" class="node">
<title>Node8</title>
<g id="a_Node000008"><a xlink:title=" ">
<polygon fill="#e0e0e0" stroke="#999999" points="106.5,-19 61.5,-19 61.5,0 106.5,0 106.5,-19"/>
<text text-anchor="middle" x="84" y="-7" font-family="Helvetica,sans-Serif" font-size="10.00">utility</text>
</a>
</g>
</g>
<!-- Node4&#45;&gt;Node8 -->
<g id="edge7_Node000004_Node000008" class="edge">
<title>Node4&#45;&gt;Node8</title>
<g id="a_edge7_Node000004_Node000008"><a xlink:title=" ">
<path fill="none" stroke="#63b8ff" d="M164.58,-54.98C149.55,-46.69 126.46,-33.94 108.84,-24.22"/>
<polygon fill="#63b8ff" stroke="#63b8ff" points="110.15,-20.94 99.7,-19.17 106.77,-27.07 110.15,-20.94"/>
</a>
</g>
</g>
<!-- Node9 -->
<g id="Node000009" class="node">
<title>Node9</title>
<g id="a_Node000009"><a xlink:title=" ">
<polygon fill="#e0e0e0" stroke="#999999" points="165.5,-19 124.5,-19 124.5,0 165.5,0 165.5,-19"/>
<text text-anchor="middle" x="145" y="-7" font-family="Helvetica,sans-Serif" font-size="10.00">tuple</text>
</a>
</g>
</g>
<!-- Node4&#45;&gt;Node9 -->
<g id="edge8_Node000004_Node000009" class="edge">
<title>Node4&#45;&gt;Node9</title>
<g id="a_edge8_Node000004_Node000009"><a xlink:title=" ">
<path fill="none" stroke="#63b8ff" d="M174.22,-54.75C169.38,-47.42 162.32,-36.73 156.36,-27.7"/>
<polygon fill="#63b8ff" stroke="#63b8ff" points="159.1,-25.5 150.67,-19.09 153.26,-29.36 159.1,-25.5"/>
</a>
</g>
</g>
<!-- Node10&#45;&gt;Node7 -->
<g id="edge13_Node000010_Node000007" class="edge">
<title>Node10&#45;&gt;Node7</title>
<g id="a_edge13_Node000010_Node000007"><a xlink:title=" ">
<path fill="none" stroke="#63b8ff" d="M542.18,-219.96C568.82,-198.78 635.59,-140.72 659,-74 672.09,-36.68 614.31,-20.73 576.23,-14.36"/>
<polygon fill="#63b8ff" stroke="#63b8ff" points="576.5,-10.86 566.09,-12.81 575.44,-17.78 576.5,-10.86"/>
</a>
</g>
</g>
<!-- Node11 -->
<g id="Node000011" class="node">
<title>Node11</title>
<g id="a_Node000011"><a xlink:href="Config_8hpp.html" target="_top" xlink:title="Contains compile time settings for the project, such as Eigen plugins.">
<polygon fill="white" stroke="#666666" points="567,-74 457,-74 457,-55 567,-55 567,-74"/>
<text text-anchor="middle" x="512" y="-62" font-family="Helvetica,sans-Serif" font-size="10.00">medusa/Config.hpp</text>
</a>
</g>
</g>
<!-- Node10&#45;&gt;Node11 -->
<g id="edge10_Node000010_Node000011" class="edge">
<title>Node10&#45;&gt;Node11</title>
<g id="a_edge10_Node000010_Node000011"><a xlink:title=" ">
<path fill="none" stroke="#63b8ff" d="M529.98,-219.74C527.01,-194.31 518.36,-120.08 514.24,-84.69"/>
<polygon fill="#63b8ff" stroke="#63b8ff" points="517.66,-83.83 513.03,-74.31 510.71,-84.64 517.66,-83.83"/>
</a>
</g>
</g>
<!-- Node12 -->
<g id="Node000012" class="node">
<title>Node12</title>
<g id="a_Node000012"><a xlink:title=" ">
<polygon fill="#e0e0e0" stroke="#999999" points="633,-74 585,-74 585,-55 633,-55 633,-74"/>
<text text-anchor="middle" x="609" y="-62" font-family="Helvetica,sans-Serif" font-size="10.00">iosfwd</text>
</a>
</g>
</g>
<!-- Node10&#45;&gt;Node12 -->
<g id="edge12_Node000010_Node000012" class="edge">
<title>Node10&#45;&gt;Node12</title>
<g id="a_edge12_Node000010_Node000012"><a xlink:title=" ">
<path fill="none" stroke="#63b8ff" d="M535.19,-219.74C547.47,-194.09 583.5,-118.78 600.25,-83.78"/>
<polygon fill="#63b8ff" stroke="#63b8ff" points="603.63,-84.84 604.79,-74.31 597.31,-81.82 603.63,-84.84"/>
</a>
</g>
</g>
<!-- Node13 -->
<g id="Node000013" class="node">
<title>Node13</title>
<g id="a_Node000013"><a xlink:href="Operators__fwd_8hpp.html" target="_top" xlink:title="File defining basic differential operator families.">
<polygon fill="white" stroke="#666666" points="462,-184 354,-184 354,-165 462,-165 462,-184"/>
<text text-anchor="middle" x="408" y="-172" font-family="Helvetica,sans-Serif" font-size="10.00">Operators_fwd.hpp</text>
</a>
</g>
</g>
<!-- Node10&#45;&gt;Node13 -->
<g id="edge14_Node000010_Node000013" class="edge">
<title>Node10&#45;&gt;Node13</title>
<g id="a_edge14_Node000010_Node000013"><a xlink:title=" ">
<path fill="none" stroke="#63b8ff" d="M511.24,-219.98C491.27,-211.38 460.2,-197.99 437.35,-188.15"/>
<polygon fill="#63b8ff" stroke="#63b8ff" points="438.69,-184.91 428.12,-184.17 435.92,-191.34 438.69,-184.91"/>
</a>
</g>
</g>
<!-- Node11&#45;&gt;Node6 -->
<g id="edge11_Node000011_Node000006" class="edge">
<title>Node11&#45;&gt;Node6</title>
<g id="a_edge11_Node000011_Node000006"><a xlink:title=" ">
<path fill="none" stroke="#63b8ff" d="M475.69,-54.98C432.67,-44.9 361.57,-28.22 319.72,-18.41"/>
<polygon fill="#63b8ff" stroke="#63b8ff" points="320.28,-14.94 309.74,-16.07 318.68,-21.76 320.28,-14.94"/>
</a>
</g>
</g>
<!-- Node13&#45;&gt;Node2 -->
<g id="edge25_Node000013_Node000002" class="edge">
<title>Node13&#45;&gt;Node2</title>
<g id="a_edge25_Node000013_Node000002"><a xlink:title=" ">
<path fill="none" stroke="#63b8ff" d="M363.66,-164.98C315.51,-155.74 238.58,-140.97 186.71,-131.01"/>
<polygon fill="#63b8ff" stroke="#63b8ff" points="187.17,-127.53 176.69,-129.08 185.85,-134.41 187.17,-127.53"/>
</a>
</g>
</g>
<!-- Node13&#45;&gt;Node6 -->
<g id="edge17_Node000013_Node000006" class="edge">
<title>Node13&#45;&gt;Node6</title>
<g id="a_edge17_Node000013_Node000006"><a xlink:title=" ">
<path fill="none" stroke="#63b8ff" d="M379.58,-164.95C342.78,-152.09 280.55,-123.81 257,-74 249.43,-58 259.93,-39.6 270.35,-26.73"/>
<polygon fill="#63b8ff" stroke="#63b8ff" points="273.03,-28.99 277,-19.16 267.77,-24.37 273.03,-28.99"/>
</a>
</g>
</g>
<!-- Node13&#45;&gt;Node7 -->
<g id="edge16_Node000013_Node000007" class="edge">
<title>Node13&#45;&gt;Node7</title>
<g id="a_edge16_Node000013_Node000007"><a xlink:title=" ">
<path fill="none" stroke="#63b8ff" d="M462.23,-167.45C518.03,-158.02 602.24,-134.11 642,-74 661.05,-45.2 611,-26.48 575.91,-17.27"/>
<polygon fill="#63b8ff" stroke="#63b8ff" points="576.59,-13.83 566.04,-14.82 574.9,-20.62 576.59,-13.83"/>
</a>
</g>
</g>
<!-- Node13&#45;&gt;Node11 -->
<g id="edge15_Node000013_Node000011" class="edge">
<title>Node13&#45;&gt;Node11</title>
<g id="a_edge15_Node000013_Node000011"><a xlink:title=" ">
<path fill="none" stroke="#63b8ff" d="M424.67,-164.98C438.99,-157.08 459.55,-144.25 474,-129 486.82,-115.47 497.31,-96.89 503.99,-83.33"/>
<polygon fill="#63b8ff" stroke="#63b8ff" points="507.25,-84.63 508.34,-74.1 500.91,-81.65 507.25,-84.63"/>
</a>
</g>
</g>
<!-- Node14 -->
<g id="Node000014" class="node">
<title>Node14</title>
<g id="a_Node000014"><a xlink:title=" ">
<polygon fill="#e0e0e0" stroke="#999999" points="335.5,-74 266.5,-74 266.5,-55 335.5,-55 335.5,-74"/>
<text text-anchor="middle" x="301" y="-62" font-family="Helvetica,sans-Serif" font-size="10.00">Eigen/Core</text>
</a>
</g>
</g>
<!-- Node13&#45;&gt;Node14 -->
<g id="edge18_Node000013_Node000014" class="edge">
<title>Node13&#45;&gt;Node14</title>
<g id="a_edge18_Node000013_Node000014"><a xlink:title=" ">
<path fill="none" stroke="#63b8ff" d="M391.45,-164.86C377.22,-156.88 356.7,-144 342,-129 328.68,-115.41 317.29,-96.84 309.92,-83.29"/>
<polygon fill="#63b8ff" stroke="#63b8ff" points="312.84,-81.32 305.11,-74.07 306.64,-84.56 312.84,-81.32"/>
</a>
</g>
</g>
<!-- Node15 -->
<g id="Node000015" class="node">
<title>Node15</title>
<g id="a_Node000015"><a xlink:href="Monomials__fwd_8hpp.html" target="_top" xlink:title="Declaration of Monomial basis.">
<polygon fill="white" stroke="#666666" points="465,-129 351,-129 351,-110 465,-110 465,-129"/>
<text text-anchor="middle" x="408" y="-117" font-family="Helvetica,sans-Serif" font-size="10.00">Monomials_fwd.hpp</text>
</a>
</g>
</g>
<!-- Node13&#45;&gt;Node15 -->
<g id="edge19_Node000013_Node000015" class="edge">
<title>Node13&#45;&gt;Node15</title>
<g id="a_edge19_Node000013_Node000015"><a xlink:title=" ">
<path fill="none" stroke="#63b8ff" d="M408,-164.75C408,-157.8 408,-147.85 408,-139.13"/>
<polygon fill="#63b8ff" stroke="#63b8ff" points="411.5,-139.09 408,-129.09 404.5,-139.09 411.5,-139.09"/>
</a>
</g>
</g>
<!-- Node15&#45;&gt;Node7 -->
<g id="edge22_Node000015_Node000007" class="edge">
<title>Node15&#45;&gt;Node7</title>
<g id="a_edge22_Node000015_Node000007"><a xlink:title=" ">
<path fill="none" stroke="#63b8ff" d="M411.62,-109.57C417.47,-96.13 430.16,-70.63 448,-55 467.16,-38.21 493.72,-26.62 514.21,-19.49"/>
<polygon fill="#63b8ff" stroke="#63b8ff" points="515.32,-22.8 523.72,-16.34 513.12,-16.16 515.32,-22.8"/>
</a>
</g>
</g>
<!-- Node15&#45;&gt;Node11 -->
<g id="edge20_Node000015_Node000011" class="edge">
<title>Node15&#45;&gt;Node11</title>
<g id="a_edge20_Node000015_Node000011"><a xlink:title=" ">
<path fill="none" stroke="#63b8ff" d="M424.71,-109.98C441.21,-101.57 466.7,-88.59 485.88,-78.81"/>
<polygon fill="#63b8ff" stroke="#63b8ff" points="487.67,-81.83 494.99,-74.17 484.49,-75.59 487.67,-81.83"/>
</a>
</g>
</g>
<!-- Node15&#45;&gt;Node12 -->
<g id="edge24_Node000015_Node000012" class="edge">
<title>Node15&#45;&gt;Node12</title>
<g id="a_edge24_Node000015_Node000012"><a xlink:title=" ">
<path fill="none" stroke="#63b8ff" d="M440.29,-109.98C477.22,-100.25 537.4,-84.38 575.01,-74.46"/>
<polygon fill="#63b8ff" stroke="#63b8ff" points="576.21,-77.77 584.99,-71.83 574.42,-71 576.21,-77.77"/>
</a>
</g>
</g>
<!-- Node15&#45;&gt;Node14 -->
<g id="edge23_Node000015_Node000014" class="edge">
<title>Node15&#45;&gt;Node14</title>
<g id="a_edge23_Node000015_Node000014"><a xlink:title=" ">
<path fill="none" stroke="#63b8ff" d="M390.81,-109.98C373.75,-101.54 347.37,-88.47 327.6,-78.68"/>
<polygon fill="#63b8ff" stroke="#63b8ff" points="329.02,-75.47 318.5,-74.17 325.91,-81.75 329.02,-75.47"/>
</a>
</g>
</g>
<!-- Node16 -->
<g id="Node000016" class="node">
<title>Node16</title>
<g id="a_Node000016"><a xlink:title=" ">
<polygon fill="#e0e0e0" stroke="#999999" points="400.5,-74 353.5,-74 353.5,-55 400.5,-55 400.5,-74"/>
<text text-anchor="middle" x="377" y="-62" font-family="Helvetica,sans-Serif" font-size="10.00">cmath</text>
</a>
</g>
</g>
<!-- Node15&#45;&gt;Node16 -->
<g id="edge21_Node000015_Node000016" class="edge">
<title>Node15&#45;&gt;Node16</title>
<g id="a_edge21_Node000015_Node000016"><a xlink:title=" ">
<path fill="none" stroke="#63b8ff" d="M402.88,-109.75C398.64,-102.49 392.47,-91.95 387.22,-82.98"/>
<polygon fill="#63b8ff" stroke="#63b8ff" points="390.09,-80.95 382.02,-74.09 384.05,-84.49 390.09,-80.95"/>
</a>
</g>
</g>
</g>
</svg>
