<?xml version="1.0" encoding="UTF-8" standalone="no"?>
<!DOCTYPE svg PUBLIC "-//W3C//DTD SVG 1.1//EN"
 "http://www.w3.org/Graphics/SVG/1.1/DTD/svg11.dtd">
<!-- Generated by graphviz version 2.43.0 (0)
 -->
<!-- Title: include/medusa/bits/approximations/RBFFD_fwd.hpp Pages: 1 -->
<svg width="485pt" height="236pt"
 viewBox="0.00 0.00 484.50 236.00" xmlns="http://www.w3.org/2000/svg" xmlns:xlink="http://www.w3.org/1999/xlink">
<g id="graph0" class="graph" transform="scale(1 1) rotate(0) translate(4 232)">
<title>include/medusa/bits/approximations/RBFFD_fwd.hpp</title>
<!-- Node1 -->
<g id="Node000001" class="node">
<title>Node1</title>
<g id="a_Node000001"><a xlink:title="Declaration of Radial Basis Function Finite Difference approximation.">
<polygon fill="#999999" stroke="#666666" points="310.5,-228 178.5,-228 178.5,-187 310.5,-187 310.5,-228"/>
<text text-anchor="start" x="186.5" y="-216" font-family="Helvetica,sans-Serif" font-size="10.00">include/medusa/bits</text>
<text text-anchor="start" x="186.5" y="-205" font-family="Helvetica,sans-Serif" font-size="10.00">/approximations/RBFFD</text>
<text text-anchor="middle" x="244.5" y="-194" font-family="Helvetica,sans-Serif" font-size="10.00">_fwd.hpp</text>
</a>
</g>
</g>
<!-- Node2 -->
<g id="Node000002" class="node">
<title>Node2</title>
<g id="a_Node000002"><a xlink:href="Approximations__fwd_8hpp.html" target="_top" xlink:title="Header for Approximations module, declarations only.">
<polygon fill="white" stroke="#666666" points="240.5,-151 66.5,-151 66.5,-121 240.5,-121 240.5,-151"/>
<text text-anchor="start" x="74.5" y="-139" font-family="Helvetica,sans-Serif" font-size="10.00">include/medusa/Approximations</text>
<text text-anchor="middle" x="153.5" y="-128" font-family="Helvetica,sans-Serif" font-size="10.00">_fwd.hpp</text>
</a>
</g>
</g>
<!-- Node1&#45;&gt;Node2 -->
<g id="edge1_Node000001_Node000002" class="edge">
<title>Node1&#45;&gt;Node2</title>
<g id="a_edge1_Node000001_Node000002"><a xlink:title=" ">
<path fill="none" stroke="#63b8ff" d="M210.71,-180.69C197.56,-170.65 183.01,-159.54 171.88,-151.04"/>
<polygon fill="#63b8ff" stroke="#63b8ff" points="208.59,-183.48 218.67,-186.77 212.84,-177.92 208.59,-183.48"/>
</a>
</g>
</g>
<!-- Node6 -->
<g id="Node000006" class="node">
<title>Node6</title>
<g id="a_Node000006"><a xlink:href="RBFFD_8hpp.html" target="_top" xlink:title="Implementation of Radial Basis Function Finite Difference approximation.">
<polygon fill="white" stroke="#666666" points="412,-151 259,-151 259,-121 412,-121 412,-151"/>
<text text-anchor="start" x="267" y="-139" font-family="Helvetica,sans-Serif" font-size="10.00">include/medusa/bits</text>
<text text-anchor="middle" x="335.5" y="-128" font-family="Helvetica,sans-Serif" font-size="10.00">/approximations/RBFFD.hpp</text>
</a>
</g>
</g>
<!-- Node1&#45;&gt;Node6 -->
<g id="edge6_Node000001_Node000006" class="edge">
<title>Node1&#45;&gt;Node6</title>
<g id="a_edge6_Node000001_Node000006"><a xlink:title=" ">
<path fill="none" stroke="#63b8ff" d="M278.29,-180.69C291.44,-170.65 305.99,-159.54 317.12,-151.04"/>
<polygon fill="#63b8ff" stroke="#63b8ff" points="276.16,-177.92 270.33,-186.77 280.41,-183.48 276.16,-177.92"/>
</a>
</g>
</g>
<!-- Node3 -->
<g id="Node000003" class="node">
<title>Node3</title>
<g id="a_Node000003"><a xlink:href="Approximations_8hpp.html" target="_top" xlink:title="Header for Approximations module.">
<polygon fill="white" stroke="#666666" points="348,-79.5 153,-79.5 153,-60.5 348,-60.5 348,-79.5"/>
<text text-anchor="middle" x="250.5" y="-67.5" font-family="Helvetica,sans-Serif" font-size="10.00">include/medusa/Approximations.hpp</text>
</a>
</g>
</g>
<!-- Node2&#45;&gt;Node3 -->
<g id="edge2_Node000002_Node000003" class="edge">
<title>Node2&#45;&gt;Node3</title>
<g id="a_edge2_Node000002_Node000003"><a xlink:title=" ">
<path fill="none" stroke="#63b8ff" d="M183.51,-115.2C201.56,-103.29 223.63,-88.73 237.38,-79.66"/>
<polygon fill="#63b8ff" stroke="#63b8ff" points="181.45,-112.37 175.03,-120.8 185.3,-118.21 181.45,-112.37"/>
</a>
</g>
</g>
<!-- Node5 -->
<g id="Node000005" class="node">
<title>Node5</title>
<g id="a_Node000005"><a xlink:href="Medusa__fwd_8hpp.html" target="_top" xlink:title="Main header file that includes only declarations for some heavy classes such as mm::WLS to reduce com...">
<polygon fill="white" stroke="#666666" points="135,-85 0,-85 0,-55 135,-55 135,-85"/>
<text text-anchor="start" x="8" y="-73" font-family="Helvetica,sans-Serif" font-size="10.00">include/medusa/Medusa</text>
<text text-anchor="middle" x="67.5" y="-62" font-family="Helvetica,sans-Serif" font-size="10.00">_fwd.hpp</text>
</a>
</g>
</g>
<!-- Node2&#45;&gt;Node5 -->
<g id="edge4_Node000002_Node000005" class="edge">
<title>Node2&#45;&gt;Node5</title>
<g id="a_edge4_Node000002_Node000005"><a xlink:title=" ">
<path fill="none" stroke="#63b8ff" d="M126.29,-114.75C113.36,-105.13 98.21,-93.86 86.53,-85.16"/>
<polygon fill="#63b8ff" stroke="#63b8ff" points="124.3,-117.63 134.41,-120.8 128.48,-112.02 124.3,-117.63"/>
</a>
</g>
</g>
<!-- Node4 -->
<g id="Node000004" class="node">
<title>Node4</title>
<g id="a_Node000004"><a xlink:href="Medusa_8hpp.html" target="_top" xlink:title="Main header file that includes most other components.">
<polygon fill="white" stroke="#666666" points="236.5,-19 80.5,-19 80.5,0 236.5,0 236.5,-19"/>
<text text-anchor="middle" x="158.5" y="-7" font-family="Helvetica,sans-Serif" font-size="10.00">include/medusa/Medusa.hpp</text>
</a>
</g>
</g>
<!-- Node3&#45;&gt;Node4 -->
<g id="edge3_Node000003_Node000004" class="edge">
<title>Node3&#45;&gt;Node4</title>
<g id="a_edge3_Node000003_Node000004"><a xlink:title=" ">
<path fill="none" stroke="#63b8ff" d="M228.43,-54.97C210.91,-43.82 186.97,-28.6 172.13,-19.17"/>
<polygon fill="#63b8ff" stroke="#63b8ff" points="226.61,-57.96 236.93,-60.37 230.36,-52.05 226.61,-57.96"/>
</a>
</g>
</g>
<!-- Node5&#45;&gt;Node4 -->
<g id="edge5_Node000005_Node000004" class="edge">
<title>Node5&#45;&gt;Node4</title>
<g id="a_edge5_Node000005_Node000004"><a xlink:title=" ">
<path fill="none" stroke="#63b8ff" d="M98.07,-49.35C114.05,-39.07 132.8,-27.02 145.13,-19.09"/>
<polygon fill="#63b8ff" stroke="#63b8ff" points="96.05,-46.49 89.53,-54.84 99.83,-52.38 96.05,-46.49"/>
</a>
</g>
</g>
<!-- Node6&#45;&gt;Node3 -->
<g id="edge7_Node000006_Node000003" class="edge">
<title>Node6&#45;&gt;Node3</title>
<g id="a_edge7_Node000006_Node000003"><a xlink:title=" ">
<path fill="none" stroke="#63b8ff" d="M308.39,-114.58C292.83,-102.87 274.1,-88.77 262.25,-79.84"/>
<polygon fill="#63b8ff" stroke="#63b8ff" points="306.54,-117.58 316.64,-120.8 310.75,-111.99 306.54,-117.58"/>
</a>
</g>
</g>
<!-- Node7 -->
<g id="Node000007" class="node">
<title>Node7</title>
<g id="a_Node000007"><a xlink:href="RBFFD_8cpp.html" target="_top" xlink:title="Instantiations of common RBFFD approximations.">
<polygon fill="white" stroke="#666666" points="476.5,-85 366.5,-85 366.5,-55 476.5,-55 476.5,-85"/>
<text text-anchor="start" x="374.5" y="-73" font-family="Helvetica,sans-Serif" font-size="10.00">src/approximations</text>
<text text-anchor="middle" x="421.5" y="-62" font-family="Helvetica,sans-Serif" font-size="10.00">/RBFFD.cpp</text>
</a>
</g>
</g>
<!-- Node6&#45;&gt;Node7 -->
<g id="edge8_Node000006_Node000007" class="edge">
<title>Node6&#45;&gt;Node7</title>
<g id="a_edge8_Node000006_Node000007"><a xlink:title=" ">
<path fill="none" stroke="#63b8ff" d="M362.71,-114.75C375.64,-105.13 390.79,-93.86 402.47,-85.16"/>
<polygon fill="#63b8ff" stroke="#63b8ff" points="360.52,-112.02 354.59,-120.8 364.7,-117.63 360.52,-112.02"/>
</a>
</g>
</g>
</g>
</svg>
