<?xml version="1.0" encoding="UTF-8" standalone="no"?>
<!DOCTYPE svg PUBLIC "-//W3C//DTD SVG 1.1//EN"
 "http://www.w3.org/Graphics/SVG/1.1/DTD/svg11.dtd">
<!-- Generated by graphviz version 2.43.0 (0)
 -->
<!-- Title: include/medusa/bits/approximations/RBFFD.hpp Pages: 1 -->
<!--zoomable 544 -->

<svg id="main" version="1.1" xmlns="http://www.w3.org/2000/svg" xmlns:xlink="http://www.w3.org/1999/xlink" xml:space="preserve" onload="init(evt)">
<style type="text/css"><![CDATA[
.node, .edge {opacity: 0.7;}
.node.selected, .edge.selected {opacity: 1;}
.edge:hover path { stroke: red; }
.edge:hover polygon { stroke: red; fill: red; }
]]></style>

<defs>
  <circle id="rim" cx="0" cy="0" r="7"/>
  <circle id="rim2" cx="0" cy="0" r="3.5"/>
  <g id="zoomPlus">
    <use xlink:href="#rim" fill="#404040"><set attributeName="fill" to="#808080" begin="zoomplus.mouseover" end="zoomplus.mouseout"/></use>
    <path d="M-4,0h8M0,-4v8" fill="none" stroke="white" stroke-width="1.5" pointer-events="none"/>
  </g>
  <g id="zoomMin">
    <use xlink:href="#rim" fill="#404040"><set attributeName="fill" to="#808080" begin="zoomminus.mouseover" end="zoomminus.mouseout"/></use>
    <path d="M-4,0h8" fill="none" stroke="white" stroke-width="1.5" pointer-events="none"/>
  </g>
  <g id="arrowUp" transform="translate(30 24)">
    <use xlink:href="#rim"/>
    <path pointer-events="none" fill="none" stroke="white" stroke-width="1.5" d="M0,-3.0v7 M-2.5,-0.5L0,-3.0L2.5,-0.5"/>
  </g>
  <g id="arrowRight" transform="rotate(90) translate(36 -43)">
    <use xlink:href="#rim"/>
    <path pointer-events="none" fill="none" stroke="white" stroke-width="1.5" d="M0,-3.0v7 M-2.5,-0.5L0,-3.0L2.5,-0.5"/>
  </g>
  <g id="arrowDown" transform="rotate(180) translate(-30 -48)">
    <use xlink:href="#rim"/>
    <path pointer-events="none" fill="none" stroke="white" stroke-width="1.5" d="M0,-3.0v7 M-2.5,-0.5L0,-3.0L2.5,-0.5"/>
  </g>
  <g id="arrowLeft" transform="rotate(270) translate(-36 17)">
    <use xlink:href="#rim"/>
    <path pointer-events="none" fill="none" stroke="white" stroke-width="1.5" d="M0,-3.0v7 M-2.5,-0.5L0,-3.0L2.5,-0.5"/>
  </g>
  <g id="resetDef">
    <use xlink:href="#rim2" fill="#404040"><set attributeName="fill" to="#808080" begin="reset.mouseover" end="reset.mouseout"/></use>
  </g>
</defs>
<script type="application/ecmascript">
var viewWidth = 1305;
var viewHeight = 544;
var sectionId = 'dynsection-0';
</script>
<script type="application/ecmascript" xlink:href="svg.min.js"/>
<svg id="graph" class="graph">
<g id="viewport">
<title>include/medusa/bits/approximations/RBFFD.hpp</title>
<!-- Node1 -->
<g id="Node000001" class="node">
<title>Node1</title>
<g id="a_Node000001"><a xlink:title="Implementation of Radial Basis Function Finite Difference approximation.">
<polygon fill="#999999" stroke="#666666" points="603.5,-536 450.5,-536 450.5,-506 603.5,-506 603.5,-536"/>
<text text-anchor="start" x="458.5" y="-524" font-family="Helvetica,sans-Serif" font-size="10.00">include/medusa/bits</text>
<text text-anchor="middle" x="527" y="-513" font-family="Helvetica,sans-Serif" font-size="10.00">/approximations/RBFFD.hpp</text>
</a>
</g>
</g>
<!-- Node2 -->
<g id="Node000002" class="node">
<title>Node2</title>
<g id="a_Node000002"><a xlink:href="RBFFD__fwd_8hpp.html" target="_top" xlink:title="Declaration of Radial Basis Function Finite Difference approximation.">
<polygon fill="white" stroke="#666666" points="573.5,-470 480.5,-470 480.5,-451 573.5,-451 573.5,-470"/>
<text text-anchor="middle" x="527" y="-458" font-family="Helvetica,sans-Serif" font-size="10.00">RBFFD_fwd.hpp</text>
</a>
</g>
</g>
<!-- Node1&#45;&gt;Node2 -->
<g id="edge1_Node000001_Node000002" class="edge">
<title>Node1&#45;&gt;Node2</title>
<g id="a_edge1_Node000001_Node000002"><a xlink:title=" ">
<path fill="none" stroke="#63b8ff" d="M527,-505.84C527,-498.21 527,-488.7 527,-480.45"/>
<polygon fill="#63b8ff" stroke="#63b8ff" points="530.5,-480.27 527,-470.27 523.5,-480.27 530.5,-480.27"/>
</a>
</g>
</g>
<!-- Node4 -->
<g id="Node000004" class="node">
<title>Node4</title>
<g id="a_Node000004"><a xlink:title=" ">
<polygon fill="#e0e0e0" stroke="#999999" points="436.5,-19 389.5,-19 389.5,0 436.5,0 436.5,-19"/>
<text text-anchor="middle" x="413" y="-7" font-family="Helvetica,sans-Serif" font-size="10.00">vector</text>
</a>
</g>
</g>
<!-- Node1&#45;&gt;Node4 -->
<g id="edge59_Node000001_Node000004" class="edge">
<title>Node1&#45;&gt;Node4</title>
<g id="a_edge59_Node000001_Node000004"><a xlink:title=" ">
<path fill="none" stroke="#63b8ff" d="M450.37,-519.25C304.21,-515.75 0,-497.52 0,-406.5 0,-406.5 0,-406.5 0,-118.5 0,-40.29 280.72,-17.63 379.29,-12.09"/>
<polygon fill="#63b8ff" stroke="#63b8ff" points="379.51,-15.58 389.31,-11.55 379.14,-8.59 379.51,-15.58"/>
</a>
</g>
</g>
<!-- Node26 -->
<g id="Node000026" class="node">
<title>Node26</title>
<g id="a_Node000026"><a xlink:href="numutils_8hpp.html" target="_top" xlink:title="Declaration of numerical utilities.">
<polygon fill="white" stroke="#666666" points="653.5,-305 486.5,-305 486.5,-286 653.5,-286 653.5,-305"/>
<text text-anchor="middle" x="570" y="-293" font-family="Helvetica,sans-Serif" font-size="10.00">medusa/bits/utils/numutils.hpp</text>
</a>
</g>
</g>
<!-- Node1&#45;&gt;Node26 -->
<g id="edge60_Node000001_Node000026" class="edge">
<title>Node1&#45;&gt;Node26</title>
<g id="a_edge60_Node000001_Node000026"><a xlink:title=" ">
<path fill="none" stroke="#63b8ff" d="M503.94,-505.92C492,-497.21 478.58,-484.87 472,-470 468.58,-462.28 469.64,-459.11 472,-451 488.39,-394.57 532.26,-339.02 555.34,-312.55"/>
<polygon fill="#63b8ff" stroke="#63b8ff" points="558.02,-314.81 562.04,-305.01 552.78,-310.16 558.02,-314.81"/>
</a>
</g>
</g>
<!-- Node29 -->
<g id="Node000029" class="node">
<title>Node29</title>
<g id="a_Node000029"><a xlink:title=" ">
<polygon fill="#e0e0e0" stroke="#999999" points="650.5,-470 591.5,-470 591.5,-451 650.5,-451 650.5,-470"/>
<text text-anchor="middle" x="621" y="-458" font-family="Helvetica,sans-Serif" font-size="10.00">Eigen/LU</text>
</a>
</g>
</g>
<!-- Node1&#45;&gt;Node29 -->
<g id="edge61_Node000001_Node000029" class="edge">
<title>Node1&#45;&gt;Node29</title>
<g id="a_edge61_Node000001_Node000029"><a xlink:title=" ">
<path fill="none" stroke="#63b8ff" d="M549.75,-505.84C564.6,-496.6 583.9,-484.59 598.66,-475.4"/>
<polygon fill="#63b8ff" stroke="#63b8ff" points="600.55,-478.35 607.19,-470.09 596.85,-472.41 600.55,-478.35"/>
</a>
</g>
</g>
<!-- Node30 -->
<g id="Node000030" class="node">
<title>Node30</title>
<g id="a_Node000030"><a xlink:href="RBFInterpolant_8hpp.html" target="_top" xlink:title="Implementation of the RBFInterpolant class.">
<polygon fill="white" stroke="#666666" points="1108,-470 998,-470 998,-451 1108,-451 1108,-470"/>
<text text-anchor="middle" x="1053" y="-458" font-family="Helvetica,sans-Serif" font-size="10.00">RBFInterpolant.hpp</text>
</a>
</g>
</g>
<!-- Node1&#45;&gt;Node30 -->
<g id="edge62_Node000001_Node000030" class="edge">
<title>Node1&#45;&gt;Node30</title>
<g id="a_edge62_Node000001_Node000030"><a xlink:title=" ">
<path fill="none" stroke="#63b8ff" d="M603.77,-511.46C707.45,-499.93 890.46,-479.58 987.81,-468.75"/>
<polygon fill="#63b8ff" stroke="#63b8ff" points="988.27,-472.22 997.82,-467.64 987.49,-465.26 988.27,-472.22"/>
</a>
</g>
</g>
<!-- Node3 -->
<g id="Node000003" class="node">
<title>Node3</title>
<g id="a_Node000003"><a xlink:href="Config_8hpp.html" target="_top" xlink:title="Contains compile time settings for the project, such as Eigen plugins.">
<polygon fill="white" stroke="#666666" points="468,-129 358,-129 358,-110 468,-110 468,-129"/>
<text text-anchor="middle" x="413" y="-117" font-family="Helvetica,sans-Serif" font-size="10.00">medusa/Config.hpp</text>
</a>
</g>
</g>
<!-- Node2&#45;&gt;Node3 -->
<g id="edge2_Node000002_Node000003" class="edge">
<title>Node2&#45;&gt;Node3</title>
<g id="a_edge2_Node000002_Node000003"><a xlink:title=" ">
<path fill="none" stroke="#63b8ff" d="M486.18,-450.93C406.76,-431.63 235.06,-376.19 187,-250 176.08,-221.32 203.26,-170.98 210,-165 230.24,-147.04 296.46,-134.85 347.82,-127.83"/>
<polygon fill="#63b8ff" stroke="#63b8ff" points="348.43,-131.28 357.88,-126.5 347.51,-124.35 348.43,-131.28"/>
</a>
</g>
</g>
<!-- Node5 -->
<g id="Node000005" class="node">
<title>Node5</title>
<g id="a_Node000005"><a xlink:href="Range__fwd_8hpp.html" target="_top" xlink:title="Declaration of Range.">
<polygon fill="white" stroke="#666666" points="168,-195 28,-195 28,-165 168,-165 168,-195"/>
<text text-anchor="start" x="36" y="-183" font-family="Helvetica,sans-Serif" font-size="10.00">medusa/bits/types/Range</text>
<text text-anchor="middle" x="98" y="-172" font-family="Helvetica,sans-Serif" font-size="10.00">_fwd.hpp</text>
</a>
</g>
</g>
<!-- Node2&#45;&gt;Node5 -->
<g id="edge4_Node000002_Node000005" class="edge">
<title>Node2&#45;&gt;Node5</title>
<g id="a_edge4_Node000002_Node000005"><a xlink:title=" ">
<path fill="none" stroke="#63b8ff" d="M480.27,-457.6C369.09,-451.8 98,-429.65 98,-351.5 98,-351.5 98,-351.5 98,-294.5 98,-263.85 98,-228.54 98,-205.56"/>
<polygon fill="#63b8ff" stroke="#63b8ff" points="101.5,-205.33 98,-195.33 94.5,-205.33 101.5,-205.33"/>
</a>
</g>
</g>
<!-- Node16 -->
<g id="Node000016" class="node">
<title>Node16</title>
<g id="a_Node000016"><a xlink:title=" ">
<polygon fill="#e0e0e0" stroke="#999999" points="954.5,-129 885.5,-129 885.5,-110 954.5,-110 954.5,-129"/>
<text text-anchor="middle" x="920" y="-117" font-family="Helvetica,sans-Serif" font-size="10.00">Eigen/Core</text>
</a>
</g>
</g>
<!-- Node2&#45;&gt;Node16 -->
<g id="edge18_Node000002_Node000016" class="edge">
<title>Node2&#45;&gt;Node16</title>
<g id="a_edge18_Node000002_Node000016"><a xlink:title=" ">
<path fill="none" stroke="#63b8ff" d="M573.92,-451.03C626.27,-441.33 707.48,-425.42 737,-415 795.76,-394.25 862,-413.81 862,-351.5 862,-351.5 862,-351.5 862,-294.5 862,-234.71 893.2,-169.02 909.84,-138.25"/>
<polygon fill="#63b8ff" stroke="#63b8ff" points="913.06,-139.65 914.85,-129.21 906.94,-136.26 913.06,-139.65"/>
</a>
</g>
</g>
<!-- Node17 -->
<g id="Node000017" class="node">
<title>Node17</title>
<g id="a_Node000017"><a xlink:href="RBFBasis__fwd_8hpp.html" target="_top" xlink:title="Declaration of RBF basis.">
<polygon fill="white" stroke="#666666" points="834,-305 728,-305 728,-286 834,-286 834,-305"/>
<text text-anchor="middle" x="781" y="-293" font-family="Helvetica,sans-Serif" font-size="10.00">RBFBasis_fwd.hpp</text>
</a>
</g>
</g>
<!-- Node2&#45;&gt;Node17 -->
<g id="edge19_Node000002_Node000017" class="edge">
<title>Node2&#45;&gt;Node17</title>
<g id="a_edge19_Node000002_Node000017"><a xlink:title=" ">
<path fill="none" stroke="#63b8ff" d="M570.93,-450.97C622.53,-440.65 702.57,-423.6 714,-415 747.88,-389.52 767.17,-341.57 775.69,-315.14"/>
<polygon fill="#63b8ff" stroke="#63b8ff" points="779.13,-315.85 778.69,-305.27 772.44,-313.82 779.13,-315.85"/>
</a>
</g>
</g>
<!-- Node19 -->
<g id="Node000019" class="node">
<title>Node19</title>
<g id="a_Node000019"><a xlink:href="Monomials__fwd_8hpp.html" target="_top" xlink:title="Declaration of Monomial basis.">
<polygon fill="white" stroke="#666666" points="841,-189.5 727,-189.5 727,-170.5 841,-170.5 841,-189.5"/>
<text text-anchor="middle" x="784" y="-177.5" font-family="Helvetica,sans-Serif" font-size="10.00">Monomials_fwd.hpp</text>
</a>
</g>
</g>
<!-- Node2&#45;&gt;Node19 -->
<g id="edge35_Node000002_Node000019" class="edge">
<title>Node2&#45;&gt;Node19</title>
<g id="a_edge35_Node000002_Node000019"><a xlink:title=" ">
<path fill="none" stroke="#63b8ff" d="M534.97,-450.86C571.25,-411.55 721,-249.27 769.07,-197.17"/>
<polygon fill="#63b8ff" stroke="#63b8ff" points="771.91,-199.26 776.12,-189.54 766.77,-194.52 771.91,-199.26"/>
</a>
</g>
</g>
<!-- Node21 -->
<g id="Node000021" class="node">
<title>Node21</title>
<g id="a_Node000021"><a xlink:href="ScaleFunction_8hpp.html" target="_top" xlink:title="Scale function definition and implementation.">
<polygon fill="white" stroke="#666666" points="349.5,-305 244.5,-305 244.5,-286 349.5,-286 349.5,-305"/>
<text text-anchor="middle" x="297" y="-293" font-family="Helvetica,sans-Serif" font-size="10.00">ScaleFunction.hpp</text>
</a>
</g>
</g>
<!-- Node2&#45;&gt;Node21 -->
<g id="edge36_Node000002_Node000021" class="edge">
<title>Node2&#45;&gt;Node21</title>
<g id="a_edge36_Node000002_Node000021"><a xlink:title=" ">
<path fill="none" stroke="#63b8ff" d="M513.2,-450.79C486.62,-433.89 426.62,-395.21 378,-360 356.14,-344.17 331.88,-324.92 315.66,-311.79"/>
<polygon fill="#63b8ff" stroke="#63b8ff" points="317.51,-308.78 307.55,-305.19 313.09,-314.21 317.51,-308.78"/>
</a>
</g>
</g>
<!-- Node24 -->
<g id="Node000024" class="node">
<title>Node24</title>
<g id="a_Node000024"><a xlink:href="RBFInterpolant__fwd_8hpp.html" target="_top" xlink:title="RBFInterpolant class definition.">
<polygon fill="white" stroke="#666666" points="1048.5,-415 915.5,-415 915.5,-396 1048.5,-396 1048.5,-415"/>
<text text-anchor="middle" x="982" y="-403" font-family="Helvetica,sans-Serif" font-size="10.00">RBFInterpolant_fwd.hpp</text>
</a>
</g>
</g>
<!-- Node2&#45;&gt;Node24 -->
<g id="edge42_Node000002_Node000024" class="edge">
<title>Node2&#45;&gt;Node24</title>
<g id="a_edge42_Node000002_Node000024"><a xlink:title=" ">
<path fill="none" stroke="#63b8ff" d="M573.73,-452.27C576.87,-451.82 579.98,-451.4 583,-451 694.83,-436.28 824.72,-422.39 905.14,-414.16"/>
<polygon fill="#63b8ff" stroke="#63b8ff" points="905.59,-417.63 915.19,-413.14 904.88,-410.67 905.59,-417.63"/>
</a>
</g>
</g>
<!-- Node3&#45;&gt;Node4 -->
<g id="edge3_Node000003_Node000004" class="edge">
<title>Node3&#45;&gt;Node4</title>
<g id="a_edge3_Node000003_Node000004"><a xlink:title=" ">
<path fill="none" stroke="#63b8ff" d="M413,-109.66C413,-92.17 413,-52.8 413,-29.27"/>
<polygon fill="#63b8ff" stroke="#63b8ff" points="416.5,-29.16 413,-19.16 409.5,-29.16 416.5,-29.16"/>
</a>
</g>
</g>
<!-- Node5&#45;&gt;Node3 -->
<g id="edge5_Node000005_Node000003" class="edge">
<title>Node5&#45;&gt;Node3</title>
<g id="a_edge5_Node000005_Node000003"><a xlink:title=" ">
<path fill="none" stroke="#63b8ff" d="M168.3,-165.94C225.2,-155.38 304.26,-140.69 356.95,-130.91"/>
<polygon fill="#63b8ff" stroke="#63b8ff" points="357.6,-134.35 366.8,-129.08 356.33,-127.47 357.6,-134.35"/>
</a>
</g>
</g>
<!-- Node5&#45;&gt;Node4 -->
<g id="edge16_Node000005_Node000004" class="edge">
<title>Node5&#45;&gt;Node4</title>
<g id="a_edge16_Node000005_Node000004"><a xlink:title=" ">
<path fill="none" stroke="#63b8ff" d="M127.04,-164.86C147.08,-155.01 174.29,-141.46 198,-129 267.91,-92.27 349.26,-46.63 388.86,-24.22"/>
<polygon fill="#63b8ff" stroke="#63b8ff" points="391.02,-27.02 397.99,-19.04 387.57,-20.93 391.02,-27.02"/>
</a>
</g>
</g>
<!-- Node6 -->
<g id="Node000006" class="node">
<title>Node6</title>
<g id="a_Node000006"><a xlink:href="assert_8hpp.html" target="_top" xlink:title="Implementation of custom assert and debug utilities.">
<polygon fill="white" stroke="#666666" points="1269.5,-129 1114.5,-129 1114.5,-110 1269.5,-110 1269.5,-129"/>
<text text-anchor="middle" x="1192" y="-117" font-family="Helvetica,sans-Serif" font-size="10.00">medusa/bits/utils/assert.hpp</text>
</a>
</g>
</g>
<!-- Node5&#45;&gt;Node6 -->
<g id="edge6_Node000005_Node000006" class="edge">
<title>Node5&#45;&gt;Node6</title>
<g id="a_edge6_Node000005_Node000006"><a xlink:title=" ">
<path fill="none" stroke="#63b8ff" d="M168.16,-172.02C194.72,-169.55 225.24,-166.91 253,-165 416.84,-153.72 903.39,-132.68 1104.01,-124.19"/>
<polygon fill="#63b8ff" stroke="#63b8ff" points="1104.37,-127.68 1114.21,-123.76 1104.07,-120.68 1104.37,-127.68"/>
</a>
</g>
</g>
<!-- Node13 -->
<g id="Node000013" class="node">
<title>Node13</title>
<g id="a_Node000013"><a xlink:href="traits_8hpp.html" target="_top" xlink:title="Type traits definition for vector and scalar fields.">
<polygon fill="white" stroke="#666666" points="188.5,-129 125.5,-129 125.5,-110 188.5,-110 188.5,-129"/>
<text text-anchor="middle" x="157" y="-117" font-family="Helvetica,sans-Serif" font-size="10.00">traits.hpp</text>
</a>
</g>
</g>
<!-- Node5&#45;&gt;Node13 -->
<g id="edge14_Node000005_Node000013" class="edge">
<title>Node5&#45;&gt;Node13</title>
<g id="a_edge14_Node000005_Node000013"><a xlink:title=" ">
<path fill="none" stroke="#63b8ff" d="M112.28,-164.84C120.93,-156.26 131.99,-145.3 140.94,-136.42"/>
<polygon fill="#63b8ff" stroke="#63b8ff" points="143.52,-138.79 148.16,-129.27 138.59,-133.82 143.52,-138.79"/>
</a>
</g>
</g>
<!-- Node14 -->
<g id="Node000014" class="node">
<title>Node14</title>
<g id="a_Node000014"><a xlink:title=" ">
<polygon fill="#e0e0e0" stroke="#999999" points="107,-129 49,-129 49,-110 107,-110 107,-129"/>
<text text-anchor="middle" x="78" y="-117" font-family="Helvetica,sans-Serif" font-size="10.00">memory</text>
</a>
</g>
</g>
<!-- Node5&#45;&gt;Node14 -->
<g id="edge15_Node000005_Node000014" class="edge">
<title>Node5&#45;&gt;Node14</title>
<g id="a_edge15_Node000005_Node000014"><a xlink:title=" ">
<path fill="none" stroke="#63b8ff" d="M93.16,-164.84C90.49,-157.04 87.15,-147.27 84.29,-138.89"/>
<polygon fill="#63b8ff" stroke="#63b8ff" points="87.54,-137.6 81,-129.27 80.92,-139.86 87.54,-137.6"/>
</a>
</g>
</g>
<!-- Node15 -->
<g id="Node000015" class="node">
<title>Node15</title>
<g id="a_Node000015"><a xlink:title=" ">
<polygon fill="#e0e0e0" stroke="#999999" points="591,-129 543,-129 543,-110 591,-110 591,-129"/>
<text text-anchor="middle" x="567" y="-117" font-family="Helvetica,sans-Serif" font-size="10.00">iosfwd</text>
</a>
</g>
</g>
<!-- Node5&#45;&gt;Node15 -->
<g id="edge17_Node000005_Node000015" class="edge">
<title>Node5&#45;&gt;Node15</title>
<g id="a_edge17_Node000005_Node000015"><a xlink:title=" ">
<path fill="none" stroke="#63b8ff" d="M168.21,-170.24C270.47,-157.49 456.5,-134.28 532.88,-124.76"/>
<polygon fill="#63b8ff" stroke="#63b8ff" points="533.42,-128.22 542.91,-123.51 532.55,-121.27 533.42,-128.22"/>
</a>
</g>
</g>
<!-- Node7 -->
<g id="Node000007" class="node">
<title>Node7</title>
<g id="a_Node000007"><a xlink:title=" ">
<polygon fill="#e0e0e0" stroke="#999999" points="1297,-74 1165,-74 1165,-55 1297,-55 1297,-74"/>
<text text-anchor="middle" x="1231" y="-62" font-family="Helvetica,sans-Serif" font-size="10.00">tinyformat/tinyformat.h</text>
</a>
</g>
</g>
<!-- Node6&#45;&gt;Node7 -->
<g id="edge7_Node000006_Node000007" class="edge">
<title>Node6&#45;&gt;Node7</title>
<g id="a_edge7_Node000006_Node000007"><a xlink:title=" ">
<path fill="none" stroke="#63b8ff" d="M1198.44,-109.75C1203.89,-102.34 1211.86,-91.5 1218.56,-82.41"/>
<polygon fill="#63b8ff" stroke="#63b8ff" points="1221.57,-84.22 1224.68,-74.09 1215.93,-80.07 1221.57,-84.22"/>
</a>
</g>
</g>
<!-- Node8 -->
<g id="Node000008" class="node">
<title>Node8</title>
<g id="a_Node000008"><a xlink:href="print_8hpp.html" target="_top" xlink:title="Printing helpers for std types.">
<polygon fill="white" stroke="#666666" points="1147,-74 1087,-74 1087,-55 1147,-55 1147,-74"/>
<text text-anchor="middle" x="1117" y="-62" font-family="Helvetica,sans-Serif" font-size="10.00">print.hpp</text>
</a>
</g>
</g>
<!-- Node6&#45;&gt;Node8 -->
<g id="edge8_Node000006_Node000008" class="edge">
<title>Node6&#45;&gt;Node8</title>
<g id="a_edge8_Node000006_Node000008"><a xlink:title=" ">
<path fill="none" stroke="#63b8ff" d="M1179.95,-109.98C1168.54,-101.92 1151.17,-89.65 1137.57,-80.03"/>
<polygon fill="#63b8ff" stroke="#63b8ff" points="1139.46,-77.08 1129.27,-74.17 1135.42,-82.8 1139.46,-77.08"/>
</a>
</g>
</g>
<!-- Node8&#45;&gt;Node4 -->
<g id="edge10_Node000008_Node000004" class="edge">
<title>Node8&#45;&gt;Node4</title>
<g id="a_edge10_Node000008_Node000004"><a xlink:title=" ">
<path fill="none" stroke="#63b8ff" d="M1086.75,-61.22C972.43,-52.62 567.12,-22.1 446.87,-13.05"/>
<polygon fill="#63b8ff" stroke="#63b8ff" points="447.01,-9.55 436.78,-12.29 446.49,-16.53 447.01,-9.55"/>
</a>
</g>
</g>
<!-- Node9 -->
<g id="Node000009" class="node">
<title>Node9</title>
<g id="a_Node000009"><a xlink:title=" ">
<polygon fill="#e0e0e0" stroke="#999999" points="1082,-19 1022,-19 1022,0 1082,0 1082,-19"/>
<text text-anchor="middle" x="1052" y="-7" font-family="Helvetica,sans-Serif" font-size="10.00">iostream</text>
</a>
</g>
</g>
<!-- Node8&#45;&gt;Node9 -->
<g id="edge9_Node000008_Node000009" class="edge">
<title>Node8&#45;&gt;Node9</title>
<g id="a_edge9_Node000008_Node000009"><a xlink:title=" ">
<path fill="none" stroke="#63b8ff" d="M1106.56,-54.98C1096.85,-47.07 1082.18,-35.11 1070.5,-25.58"/>
<polygon fill="#63b8ff" stroke="#63b8ff" points="1072.6,-22.78 1062.63,-19.17 1068.17,-28.2 1072.6,-22.78"/>
</a>
</g>
</g>
<!-- Node10 -->
<g id="Node000010" class="node">
<title>Node10</title>
<g id="a_Node000010"><a xlink:title=" ">
<polygon fill="#e0e0e0" stroke="#999999" points="941,-19 899,-19 899,0 941,0 941,-19"/>
<text text-anchor="middle" x="920" y="-7" font-family="Helvetica,sans-Serif" font-size="10.00">array</text>
</a>
</g>
</g>
<!-- Node8&#45;&gt;Node10 -->
<g id="edge11_Node000008_Node000010" class="edge">
<title>Node8&#45;&gt;Node10</title>
<g id="a_edge11_Node000008_Node000010"><a xlink:title=" ">
<path fill="none" stroke="#63b8ff" d="M1086.65,-55.33C1049.85,-45.43 988.16,-28.84 951.05,-18.85"/>
<polygon fill="#63b8ff" stroke="#63b8ff" points="951.84,-15.44 941.28,-16.22 950.02,-22.2 951.84,-15.44"/>
</a>
</g>
</g>
<!-- Node11 -->
<g id="Node000011" class="node">
<title>Node11</title>
<g id="a_Node000011"><a xlink:title=" ">
<polygon fill="#e0e0e0" stroke="#999999" points="1145.5,-19 1100.5,-19 1100.5,0 1145.5,0 1145.5,-19"/>
<text text-anchor="middle" x="1123" y="-7" font-family="Helvetica,sans-Serif" font-size="10.00">utility</text>
</a>
</g>
</g>
<!-- Node8&#45;&gt;Node11 -->
<g id="edge12_Node000008_Node000011" class="edge">
<title>Node8&#45;&gt;Node11</title>
<g id="a_edge12_Node000008_Node000011"><a xlink:title=" ">
<path fill="none" stroke="#63b8ff" d="M1117.99,-54.75C1118.78,-47.8 1119.9,-37.85 1120.89,-29.13"/>
<polygon fill="#63b8ff" stroke="#63b8ff" points="1124.38,-29.42 1122.03,-19.09 1117.42,-28.63 1124.38,-29.42"/>
</a>
</g>
</g>
<!-- Node12 -->
<g id="Node000012" class="node">
<title>Node12</title>
<g id="a_Node000012"><a xlink:title=" ">
<polygon fill="#e0e0e0" stroke="#999999" points="1204.5,-19 1163.5,-19 1163.5,0 1204.5,0 1204.5,-19"/>
<text text-anchor="middle" x="1184" y="-7" font-family="Helvetica,sans-Serif" font-size="10.00">tuple</text>
</a>
</g>
</g>
<!-- Node8&#45;&gt;Node12 -->
<g id="edge13_Node000008_Node000012" class="edge">
<title>Node8&#45;&gt;Node12</title>
<g id="a_edge13_Node000008_Node000012"><a xlink:title=" ">
<path fill="none" stroke="#63b8ff" d="M1127.76,-54.98C1137.77,-47.07 1152.89,-35.11 1164.93,-25.58"/>
<polygon fill="#63b8ff" stroke="#63b8ff" points="1167.37,-28.12 1173.04,-19.17 1163.03,-22.63 1167.37,-28.12"/>
</a>
</g>
</g>
<!-- Node17&#45;&gt;Node3 -->
<g id="edge20_Node000017_Node000003" class="edge">
<title>Node17&#45;&gt;Node3</title>
<g id="a_edge20_Node000017_Node000003"><a xlink:title=" ">
<path fill="none" stroke="#63b8ff" d="M766.48,-286C743.22,-272.67 695.83,-246.77 653,-231 591.09,-208.21 568.33,-223.84 509,-195 477.57,-179.72 446.63,-153.03 428.69,-136.09"/>
<polygon fill="#63b8ff" stroke="#63b8ff" points="431.04,-133.49 421.42,-129.06 426.18,-138.52 431.04,-133.49"/>
</a>
</g>
</g>
<!-- Node17&#45;&gt;Node10 -->
<g id="edge22_Node000017_Node000010" class="edge">
<title>Node17&#45;&gt;Node10</title>
<g id="a_edge22_Node000017_Node000010"><a xlink:title=" ">
<path fill="none" stroke="#63b8ff" d="M788.44,-285.74C802.28,-269.08 832.19,-231.22 850,-195 867.49,-159.43 863.12,-147.13 877,-110 887.84,-81.01 902.49,-48.21 911.59,-28.45"/>
<polygon fill="#63b8ff" stroke="#63b8ff" points="914.87,-29.71 915.9,-19.16 908.52,-26.76 914.87,-29.71"/>
</a>
</g>
</g>
<!-- Node17&#45;&gt;Node15 -->
<g id="edge21_Node000017_Node000015" class="edge">
<title>Node17&#45;&gt;Node15</title>
<g id="a_edge21_Node000017_Node000015"><a xlink:title=" ">
<path fill="none" stroke="#63b8ff" d="M774.18,-285.72C764.02,-272.91 743.94,-248.71 724,-231 680,-191.92 622.01,-154.18 590.26,-134.52"/>
<polygon fill="#63b8ff" stroke="#63b8ff" points="592.01,-131.5 581.66,-129.25 588.35,-137.46 592.01,-131.5"/>
</a>
</g>
</g>
<!-- Node18 -->
<g id="Node000018" class="node">
<title>Node18</title>
<g id="a_Node000018"><a xlink:href="Operators__fwd_8hpp.html" target="_top" xlink:title="File defining basic differential operator families.">
<polygon fill="white" stroke="#666666" points="1036,-250 928,-250 928,-231 1036,-231 1036,-250"/>
<text text-anchor="middle" x="982" y="-238" font-family="Helvetica,sans-Serif" font-size="10.00">Operators_fwd.hpp</text>
</a>
</g>
</g>
<!-- Node17&#45;&gt;Node18 -->
<g id="edge23_Node000017_Node000018" class="edge">
<title>Node17&#45;&gt;Node18</title>
<g id="a_edge23_Node000017_Node000018"><a xlink:title=" ">
<path fill="none" stroke="#63b8ff" d="M813.29,-285.98C847.62,-276.93 902.06,-262.58 939.77,-252.64"/>
<polygon fill="#63b8ff" stroke="#63b8ff" points="940.68,-256.02 949.45,-250.08 938.89,-249.25 940.68,-256.02"/>
</a>
</g>
</g>
<!-- Node18&#45;&gt;Node3 -->
<g id="edge24_Node000018_Node000003" class="edge">
<title>Node18&#45;&gt;Node3</title>
<g id="a_edge24_Node000018_Node000003"><a xlink:title=" ">
<path fill="none" stroke="#63b8ff" d="M927.88,-231.84C874.32,-223.92 790.13,-210.54 718,-195 666.78,-183.97 654.85,-177.61 604,-165 555.46,-152.96 499.75,-140.09 461.07,-131.3"/>
<polygon fill="#63b8ff" stroke="#63b8ff" points="461.65,-127.85 451.13,-129.05 460.11,-134.67 461.65,-127.85"/>
</a>
</g>
</g>
<!-- Node18&#45;&gt;Node4 -->
<g id="edge26_Node000018_Node000004" class="edge">
<title>Node18&#45;&gt;Node4</title>
<g id="a_edge26_Node000018_Node000004"><a xlink:title=" ">
<path fill="none" stroke="#63b8ff" d="M983.85,-230.81C988.23,-207.64 996.54,-143.89 964,-110 891.92,-34.94 554.95,-15.83 446.63,-11.59"/>
<polygon fill="#63b8ff" stroke="#63b8ff" points="446.71,-8.09 436.58,-11.21 446.45,-15.09 446.71,-8.09"/>
</a>
</g>
</g>
<!-- Node18&#45;&gt;Node6 -->
<g id="edge34_Node000018_Node000006" class="edge">
<title>Node18&#45;&gt;Node6</title>
<g id="a_edge34_Node000018_Node000006"><a xlink:title=" ">
<path fill="none" stroke="#63b8ff" d="M997.1,-230.94C1033.11,-210.54 1124.27,-158.88 1167.94,-134.13"/>
<polygon fill="#63b8ff" stroke="#63b8ff" points="1169.78,-137.12 1176.75,-129.14 1166.33,-131.03 1169.78,-137.12"/>
</a>
</g>
</g>
<!-- Node18&#45;&gt;Node10 -->
<g id="edge25_Node000018_Node000010" class="edge">
<title>Node18&#45;&gt;Node10</title>
<g id="a_edge25_Node000018_Node000010"><a xlink:title=" ">
<path fill="none" stroke="#63b8ff" d="M986.02,-230.65C998.11,-202.64 1031.21,-114.29 997,-55 987.07,-37.78 967.65,-26.63 950.8,-19.79"/>
<polygon fill="#63b8ff" stroke="#63b8ff" points="951.86,-16.45 941.27,-16.26 949.43,-23.02 951.86,-16.45"/>
</a>
</g>
</g>
<!-- Node18&#45;&gt;Node16 -->
<g id="edge27_Node000018_Node000016" class="edge">
<title>Node18&#45;&gt;Node16</title>
<g id="a_edge27_Node000018_Node000016"><a xlink:title=" ">
<path fill="none" stroke="#63b8ff" d="M977.54,-230.94C967.49,-211.65 942.89,-164.44 929.34,-138.43"/>
<polygon fill="#63b8ff" stroke="#63b8ff" points="932.31,-136.55 924.59,-129.3 926.1,-139.79 932.31,-136.55"/>
</a>
</g>
</g>
<!-- Node18&#45;&gt;Node19 -->
<g id="edge28_Node000018_Node000019" class="edge">
<title>Node18&#45;&gt;Node19</title>
<g id="a_edge28_Node000018_Node000019"><a xlink:title=" ">
<path fill="none" stroke="#63b8ff" d="M953.21,-230.99C918.75,-220.81 860.91,-203.72 822.6,-192.4"/>
<polygon fill="#63b8ff" stroke="#63b8ff" points="823.41,-188.99 812.83,-189.52 821.42,-195.71 823.41,-188.99"/>
</a>
</g>
</g>
<!-- Node19&#45;&gt;Node3 -->
<g id="edge29_Node000019_Node000003" class="edge">
<title>Node19&#45;&gt;Node3</title>
<g id="a_edge29_Node000019_Node000003"><a xlink:title=" ">
<path fill="none" stroke="#63b8ff" d="M730.05,-170.49C663.01,-159.92 548.74,-141.9 477.24,-130.63"/>
<polygon fill="#63b8ff" stroke="#63b8ff" points="477.43,-127.12 467.01,-129.02 476.34,-134.03 477.43,-127.12"/>
</a>
</g>
</g>
<!-- Node19&#45;&gt;Node10 -->
<g id="edge31_Node000019_Node000010" class="edge">
<title>Node19&#45;&gt;Node10</title>
<g id="a_edge31_Node000019_Node000010"><a xlink:title=" ">
<path fill="none" stroke="#63b8ff" d="M786.14,-170.47C791.96,-148.82 809.85,-90.91 843,-55 855.84,-41.1 874.03,-30.3 889.51,-22.83"/>
<polygon fill="#63b8ff" stroke="#63b8ff" points="891.09,-25.96 898.73,-18.61 888.18,-19.59 891.09,-25.96"/>
</a>
</g>
</g>
<!-- Node19&#45;&gt;Node15 -->
<g id="edge33_Node000019_Node000015" class="edge">
<title>Node19&#45;&gt;Node15</title>
<g id="a_edge33_Node000019_Node000015"><a xlink:title=" ">
<path fill="none" stroke="#63b8ff" d="M752.45,-170.49C712.13,-159.63 642.63,-140.89 601.12,-129.7"/>
<polygon fill="#63b8ff" stroke="#63b8ff" points="601.77,-126.25 591.21,-127.03 599.95,-133.01 601.77,-126.25"/>
</a>
</g>
</g>
<!-- Node19&#45;&gt;Node16 -->
<g id="edge32_Node000019_Node000016" class="edge">
<title>Node19&#45;&gt;Node16</title>
<g id="a_edge32_Node000019_Node000016"><a xlink:title=" ">
<path fill="none" stroke="#63b8ff" d="M803.78,-170.49C826.64,-160.66 864.49,-144.38 890.76,-133.08"/>
<polygon fill="#63b8ff" stroke="#63b8ff" points="892.4,-136.18 900.2,-129.02 889.63,-129.75 892.4,-136.18"/>
</a>
</g>
</g>
<!-- Node20 -->
<g id="Node000020" class="node">
<title>Node20</title>
<g id="a_Node000020"><a xlink:title=" ">
<polygon fill="#e0e0e0" stroke="#999999" points="747.5,-129 700.5,-129 700.5,-110 747.5,-110 747.5,-129"/>
<text text-anchor="middle" x="724" y="-117" font-family="Helvetica,sans-Serif" font-size="10.00">cmath</text>
</a>
</g>
</g>
<!-- Node19&#45;&gt;Node20 -->
<g id="edge30_Node000019_Node000020" class="edge">
<title>Node19&#45;&gt;Node20</title>
<g id="a_edge30_Node000019_Node000020"><a xlink:title=" ">
<path fill="none" stroke="#63b8ff" d="M775.15,-170.37C766.02,-161.47 751.58,-147.39 740.36,-136.45"/>
<polygon fill="#63b8ff" stroke="#63b8ff" points="742.49,-133.64 732.89,-129.17 737.61,-138.65 742.49,-133.64"/>
</a>
</g>
</g>
<!-- Node21&#45;&gt;Node3 -->
<g id="edge37_Node000021_Node000003" class="edge">
<title>Node21&#45;&gt;Node3</title>
<g id="a_edge37_Node000021_Node000003"><a xlink:title=" ">
<path fill="none" stroke="#63b8ff" d="M252.87,-286C220.05,-277.18 182.76,-260.44 194,-231 208.03,-194.24 219.59,-185.78 253,-165 281.49,-147.29 317.13,-136.48 347.54,-129.97"/>
<polygon fill="#63b8ff" stroke="#63b8ff" points="348.53,-133.34 357.63,-127.92 347.14,-126.48 348.53,-133.34"/>
</a>
</g>
</g>
<!-- Node21&#45;&gt;Node15 -->
<g id="edge41_Node000021_Node000015" class="edge">
<title>Node21&#45;&gt;Node15</title>
<g id="a_edge41_Node000021_Node000015"><a xlink:title=" ">
<path fill="none" stroke="#63b8ff" d="M312.3,-285.89C327.76,-277.12 352.26,-262.98 373,-250 436.97,-209.97 510.6,-159.6 545.94,-135.15"/>
<polygon fill="#63b8ff" stroke="#63b8ff" points="548.23,-137.82 554.46,-129.25 544.25,-132.07 548.23,-137.82"/>
</a>
</g>
</g>
<!-- Node22 -->
<g id="Node000022" class="node">
<title>Node22</title>
<g id="a_Node000022"><a xlink:href="Range_8hpp.html" target="_top" xlink:title="Implementation of Range.">
<polygon fill="white" stroke="#666666" points="363.5,-250 202.5,-250 202.5,-231 363.5,-231 363.5,-250"/>
<text text-anchor="middle" x="283" y="-238" font-family="Helvetica,sans-Serif" font-size="10.00">medusa/bits/types/Range.hpp</text>
</a>
</g>
</g>
<!-- Node21&#45;&gt;Node22 -->
<g id="edge38_Node000021_Node000022" class="edge">
<title>Node21&#45;&gt;Node22</title>
<g id="a_edge38_Node000021_Node000022"><a xlink:title=" ">
<path fill="none" stroke="#63b8ff" d="M294.69,-285.75C292.83,-278.72 290.16,-268.62 287.85,-259.84"/>
<polygon fill="#63b8ff" stroke="#63b8ff" points="291.21,-258.86 285.27,-250.09 284.44,-260.65 291.21,-258.86"/>
</a>
</g>
</g>
<!-- Node22&#45;&gt;Node5 -->
<g id="edge39_Node000022_Node000005" class="edge">
<title>Node22&#45;&gt;Node5</title>
<g id="a_edge39_Node000022_Node000005"><a xlink:title=" ">
<path fill="none" stroke="#63b8ff" d="M256.1,-230.99C229.01,-222.43 186.46,-208.97 152.32,-198.18"/>
<polygon fill="#63b8ff" stroke="#63b8ff" points="153.07,-194.74 142.48,-195.06 150.96,-201.42 153.07,-194.74"/>
</a>
</g>
</g>
<!-- Node23 -->
<g id="Node000023" class="node">
<title>Node23</title>
<g id="a_Node000023"><a xlink:title=" ">
<polygon fill="#e0e0e0" stroke="#999999" points="326,-189.5 262,-189.5 262,-170.5 326,-170.5 326,-189.5"/>
<text text-anchor="middle" x="294" y="-177.5" font-family="Helvetica,sans-Serif" font-size="10.00">algorithm</text>
</a>
</g>
</g>
<!-- Node22&#45;&gt;Node23 -->
<g id="edge40_Node000022_Node000023" class="edge">
<title>Node22&#45;&gt;Node23</title>
<g id="a_edge40_Node000022_Node000023"><a xlink:title=" ">
<path fill="none" stroke="#63b8ff" d="M284.62,-230.87C286.17,-222.66 288.54,-210.04 290.51,-199.55"/>
<polygon fill="#63b8ff" stroke="#63b8ff" points="293.96,-200.14 292.37,-189.67 287.08,-198.85 293.96,-200.14"/>
</a>
</g>
</g>
<!-- Node24&#45;&gt;Node3 -->
<g id="edge43_Node000024_Node000003" class="edge">
<title>Node24&#45;&gt;Node3</title>
<g id="a_edge43_Node000024_Node000003"><a xlink:title=" ">
<path fill="none" stroke="#63b8ff" d="M915.18,-398.45C794.54,-386.38 546.49,-356.02 478,-305 424.69,-265.29 414.9,-178.43 413.25,-139.75"/>
<polygon fill="#63b8ff" stroke="#63b8ff" points="416.74,-139.29 412.96,-129.4 409.74,-139.49 416.74,-139.29"/>
</a>
</g>
</g>
<!-- Node24&#45;&gt;Node16 -->
<g id="edge44_Node000024_Node000016" class="edge">
<title>Node24&#45;&gt;Node16</title>
<g id="a_edge44_Node000024_Node000016"><a xlink:title=" ">
<path fill="none" stroke="#63b8ff" d="M998.1,-396C1028.87,-378.47 1091.78,-335.76 1078,-286 1058.12,-214.23 982.63,-158.82 943.63,-134.3"/>
<polygon fill="#63b8ff" stroke="#63b8ff" points="945.36,-131.25 935,-129.01 941.7,-137.22 945.36,-131.25"/>
</a>
</g>
</g>
<!-- Node25 -->
<g id="Node000025" class="node">
<title>Node25</title>
<g id="a_Node000025"><a xlink:href="Monomials_8hpp.html" target="_top" xlink:title="Implementation of Monomial basis.">
<polygon fill="white" stroke="#666666" points="1028,-360 936,-360 936,-341 1028,-341 1028,-360"/>
<text text-anchor="middle" x="982" y="-348" font-family="Helvetica,sans-Serif" font-size="10.00">Monomials.hpp</text>
</a>
</g>
</g>
<!-- Node24&#45;&gt;Node25 -->
<g id="edge45_Node000024_Node000025" class="edge">
<title>Node24&#45;&gt;Node25</title>
<g id="a_edge45_Node000024_Node000025"><a xlink:title=" ">
<path fill="none" stroke="#63b8ff" d="M982,-395.75C982,-388.8 982,-378.85 982,-370.13"/>
<polygon fill="#63b8ff" stroke="#63b8ff" points="985.5,-370.09 982,-360.09 978.5,-370.09 985.5,-370.09"/>
</a>
</g>
</g>
<!-- Node25&#45;&gt;Node6 -->
<g id="edge47_Node000025_Node000006" class="edge">
<title>Node25&#45;&gt;Node6</title>
<g id="a_edge47_Node000025_Node000006"><a xlink:title=" ">
<path fill="none" stroke="#63b8ff" d="M1010.29,-340.88C1030.7,-333.66 1058.05,-321.81 1078,-305 1134.11,-257.73 1170.84,-175.54 1185.2,-138.96"/>
<polygon fill="#63b8ff" stroke="#63b8ff" points="1188.64,-139.76 1188.93,-129.17 1182.1,-137.27 1188.64,-139.76"/>
</a>
</g>
</g>
<!-- Node25&#45;&gt;Node9 -->
<g id="edge57_Node000025_Node000009" class="edge">
<title>Node25&#45;&gt;Node9</title>
<g id="a_edge57_Node000025_Node000009"><a xlink:title=" ">
<path fill="none" stroke="#63b8ff" d="M989.69,-340.99C1003.82,-324.74 1033.52,-287.54 1045,-250 1069.19,-170.9 1060.03,-70.19 1054.73,-29.16"/>
<polygon fill="#63b8ff" stroke="#63b8ff" points="1058.16,-28.46 1053.34,-19.03 1051.23,-29.42 1058.16,-28.46"/>
</a>
</g>
</g>
<!-- Node25&#45;&gt;Node18 -->
<g id="edge58_Node000025_Node000018" class="edge">
<title>Node25&#45;&gt;Node18</title>
<g id="a_edge58_Node000025_Node000018"><a xlink:title=" ">
<path fill="none" stroke="#63b8ff" d="M982,-340.66C982,-323.17 982,-283.8 982,-260.27"/>
<polygon fill="#63b8ff" stroke="#63b8ff" points="985.5,-260.16 982,-250.16 978.5,-260.16 985.5,-260.16"/>
</a>
</g>
</g>
<!-- Node25&#45;&gt;Node19 -->
<g id="edge46_Node000025_Node000019" class="edge">
<title>Node25&#45;&gt;Node19</title>
<g id="a_edge46_Node000025_Node000019"><a xlink:title=" ">
<path fill="none" stroke="#63b8ff" d="M971.91,-340.91C940.27,-313.99 842.73,-230.98 802.07,-196.38"/>
<polygon fill="#63b8ff" stroke="#63b8ff" points="804.19,-193.59 794.31,-189.77 799.66,-198.92 804.19,-193.59"/>
</a>
</g>
</g>
<!-- Node25&#45;&gt;Node26 -->
<g id="edge48_Node000025_Node000026" class="edge">
<title>Node25&#45;&gt;Node26</title>
<g id="a_edge48_Node000025_Node000026"><a xlink:title=" ">
<path fill="none" stroke="#63b8ff" d="M935.94,-343.57C865.72,-334.54 731.12,-317.23 646.19,-306.3"/>
<polygon fill="#63b8ff" stroke="#63b8ff" points="646.46,-302.81 636.09,-305 645.56,-309.75 646.46,-302.81"/>
</a>
</g>
</g>
<!-- Node26&#45;&gt;Node3 -->
<g id="edge49_Node000026_Node000003" class="edge">
<title>Node26&#45;&gt;Node3</title>
<g id="a_edge49_Node000026_Node000003"><a xlink:title=" ">
<path fill="none" stroke="#63b8ff" d="M549.39,-285.85C531.84,-277.94 506.47,-265.19 487,-250 460.95,-229.68 453.55,-223.59 437,-195 426.81,-177.4 420.33,-154.91 416.71,-139.27"/>
<polygon fill="#63b8ff" stroke="#63b8ff" points="420.08,-138.3 414.56,-129.26 413.24,-139.77 420.08,-138.3"/>
</a>
</g>
</g>
<!-- Node26&#45;&gt;Node6 -->
<g id="edge50_Node000026_Node000006" class="edge">
<title>Node26&#45;&gt;Node6</title>
<g id="a_edge50_Node000026_Node000006"><a xlink:title=" ">
<path fill="none" stroke="#63b8ff" d="M653.54,-289.49C780.25,-281.47 1010.05,-265.1 1045,-250 1104.14,-224.45 1156.24,-165.82 1179.34,-137.04"/>
<polygon fill="#63b8ff" stroke="#63b8ff" points="1182.12,-139.17 1185.55,-129.14 1176.62,-134.84 1182.12,-139.17"/>
</a>
</g>
</g>
<!-- Node26&#45;&gt;Node20 -->
<g id="edge56_Node000026_Node000020" class="edge">
<title>Node26&#45;&gt;Node20</title>
<g id="a_edge56_Node000026_Node000020"><a xlink:title=" ">
<path fill="none" stroke="#63b8ff" d="M594.15,-285.92C612.1,-278.58 636.27,-266.57 653,-250 685.98,-217.33 707.82,-166.1 717.79,-138.9"/>
<polygon fill="#63b8ff" stroke="#63b8ff" points="721.2,-139.73 721.23,-129.14 714.6,-137.4 721.2,-139.73"/>
</a>
</g>
</g>
<!-- Node26&#45;&gt;Node22 -->
<g id="edge55_Node000026_Node000022" class="edge">
<title>Node26&#45;&gt;Node22</title>
<g id="a_edge55_Node000026_Node000022"><a xlink:title=" ">
<path fill="none" stroke="#63b8ff" d="M523.89,-285.98C473.72,-276.72 393.49,-261.9 339.56,-251.94"/>
<polygon fill="#63b8ff" stroke="#63b8ff" points="339.94,-248.46 329.47,-250.08 338.67,-255.34 339.94,-248.46"/>
</a>
</g>
</g>
<!-- Node27 -->
<g id="Node000027" class="node">
<title>Node27</title>
<g id="a_Node000027"><a xlink:href="Vec_8hpp.html" target="_top" xlink:title="Implemetations for Vec.">
<polygon fill="white" stroke="#666666" points="644,-250 496,-250 496,-231 644,-231 644,-250"/>
<text text-anchor="middle" x="570" y="-238" font-family="Helvetica,sans-Serif" font-size="10.00">medusa/bits/types/Vec.hpp</text>
</a>
</g>
</g>
<!-- Node26&#45;&gt;Node27 -->
<g id="edge51_Node000026_Node000027" class="edge">
<title>Node26&#45;&gt;Node27</title>
<g id="a_edge51_Node000026_Node000027"><a xlink:title=" ">
<path fill="none" stroke="#63b8ff" d="M570,-285.75C570,-278.8 570,-268.85 570,-260.13"/>
<polygon fill="#63b8ff" stroke="#63b8ff" points="573.5,-260.09 570,-250.09 566.5,-260.09 573.5,-260.09"/>
</a>
</g>
</g>
<!-- Node28 -->
<g id="Node000028" class="node">
<title>Node28</title>
<g id="a_Node000028"><a xlink:href="Vec__fwd_8hpp.html" target="_top" xlink:title="Declaration of Vec.">
<polygon fill="white" stroke="#666666" points="594.5,-189.5 517.5,-189.5 517.5,-170.5 594.5,-170.5 594.5,-189.5"/>
<text text-anchor="middle" x="556" y="-177.5" font-family="Helvetica,sans-Serif" font-size="10.00">Vec_fwd.hpp</text>
</a>
</g>
</g>
<!-- Node27&#45;&gt;Node28 -->
<g id="edge52_Node000027_Node000028" class="edge">
<title>Node27&#45;&gt;Node28</title>
<g id="a_edge52_Node000027_Node000028"><a xlink:title=" ">
<path fill="none" stroke="#63b8ff" d="M567.93,-230.87C565.97,-222.66 562.95,-210.04 560.44,-199.55"/>
<polygon fill="#63b8ff" stroke="#63b8ff" points="563.81,-198.58 558.07,-189.67 557,-200.21 563.81,-198.58"/>
</a>
</g>
</g>
<!-- Node28&#45;&gt;Node3 -->
<g id="edge53_Node000028_Node000003" class="edge">
<title>Node28&#45;&gt;Node3</title>
<g id="a_edge53_Node000028_Node000003"><a xlink:title=" ">
<path fill="none" stroke="#63b8ff" d="M535.21,-170.49C511.06,-160.62 471.02,-144.23 443.38,-132.93"/>
<polygon fill="#63b8ff" stroke="#63b8ff" points="444.4,-129.56 433.82,-129.02 441.75,-136.04 444.4,-129.56"/>
</a>
</g>
</g>
<!-- Node28&#45;&gt;Node16 -->
<g id="edge54_Node000028_Node000016" class="edge">
<title>Node28&#45;&gt;Node16</title>
<g id="a_edge54_Node000028_Node000016"><a xlink:title=" ">
<path fill="none" stroke="#63b8ff" d="M594.61,-172.79C662.54,-161.88 803.03,-139.3 875.14,-127.71"/>
<polygon fill="#63b8ff" stroke="#63b8ff" points="875.95,-131.12 885.27,-126.08 874.84,-124.21 875.95,-131.12"/>
</a>
</g>
</g>
<!-- Node30&#45;&gt;Node6 -->
<g id="edge67_Node000030_Node000006" class="edge">
<title>Node30&#45;&gt;Node6</title>
<g id="a_edge67_Node000030_Node000006"><a xlink:title=" ">
<path fill="none" stroke="#63b8ff" d="M1108.16,-457.45C1177.34,-451.58 1287,-429.91 1287,-351.5 1287,-351.5 1287,-351.5 1287,-239.5 1287,-193.22 1242.58,-154.59 1214.49,-134.79"/>
<polygon fill="#63b8ff" stroke="#63b8ff" points="1216.26,-131.76 1206.02,-129.03 1212.32,-137.55 1216.26,-131.76"/>
</a>
</g>
</g>
<!-- Node30&#45;&gt;Node24 -->
<g id="edge63_Node000030_Node000024" class="edge">
<title>Node30&#45;&gt;Node24</title>
<g id="a_edge63_Node000030_Node000024"><a xlink:title=" ">
<path fill="none" stroke="#63b8ff" d="M1041.59,-450.98C1030.89,-443 1014.66,-430.88 1001.84,-421.31"/>
<polygon fill="#63b8ff" stroke="#63b8ff" points="1003.72,-418.35 993.61,-415.17 999.53,-423.96 1003.72,-418.35"/>
</a>
</g>
</g>
<!-- Node31 -->
<g id="Node000031" class="node">
<title>Node31</title>
<g id="a_Node000031"><a xlink:href="RBFBasis_8hpp.html" target="_top" xlink:title="Implementation of RBF basis.">
<polygon fill="white" stroke="#666666" points="1213.5,-360 1130.5,-360 1130.5,-341 1213.5,-341 1213.5,-360"/>
<text text-anchor="middle" x="1172" y="-348" font-family="Helvetica,sans-Serif" font-size="10.00">RBFBasis.hpp</text>
</a>
</g>
</g>
<!-- Node30&#45;&gt;Node31 -->
<g id="edge64_Node000030_Node000031" class="edge">
<title>Node30&#45;&gt;Node31</title>
<g id="a_edge64_Node000030_Node000031"><a xlink:title=" ">
<path fill="none" stroke="#63b8ff" d="M1062.74,-450.66C1082.89,-432.38 1129.38,-390.18 1154.74,-367.17"/>
<polygon fill="#63b8ff" stroke="#63b8ff" points="1157.41,-369.47 1162.46,-360.16 1152.7,-364.29 1157.41,-369.47"/>
</a>
</g>
</g>
<!-- Node31&#45;&gt;Node6 -->
<g id="edge65_Node000031_Node000006" class="edge">
<title>Node31&#45;&gt;Node6</title>
<g id="a_edge65_Node000031_Node000006"><a xlink:title=" ">
<path fill="none" stroke="#63b8ff" d="M1188.58,-340.87C1201.17,-333.3 1217.54,-321.01 1225,-305 1251.29,-248.6 1244.52,-224.08 1225,-165 1221.54,-154.54 1214.57,-144.53 1207.92,-136.66"/>
<polygon fill="#63b8ff" stroke="#63b8ff" points="1210.33,-134.1 1201.02,-129.04 1205.14,-138.8 1210.33,-134.1"/>
</a>
</g>
</g>
<!-- Node31&#45;&gt;Node17 -->
<g id="edge66_Node000031_Node000017" class="edge">
<title>Node31&#45;&gt;Node17</title>
<g id="a_edge66_Node000031_Node000017"><a xlink:title=" ">
<path fill="none" stroke="#63b8ff" d="M1130.16,-343.83C1061.48,-334.52 924.47,-315.95 844.01,-305.04"/>
<polygon fill="#63b8ff" stroke="#63b8ff" points="844.38,-301.56 834.01,-303.68 843.44,-308.5 844.38,-301.56"/>
</a>
</g>
</g>
</g>
</svg>

<g id="navigator" transform="translate(0 0)" fill="#404254">
  <rect fill="#f2f5e9" fill-opacity="0.5" stroke="#606060" stroke-width=".5" x="0" y="0" width="60" height="60"/>
  <use id="zoomplus" xlink:href="#zoomPlus" x="17" y="9" onmousedown="handleZoom(evt,'in')"/>
  <use id="zoomminus" xlink:href="#zoomMin" x="42" y="9" onmousedown="handleZoom(evt,'out')"/>
  <use id="reset" xlink:href="#resetDef" x="30" y="36" onmousedown="handleReset()"/>
   <use id="arrowup" xlink:href="#arrowUp" x="0" y="0" onmousedown="handlePan(0,-1)"/>
  <use id="arrowright" xlink:href="#arrowRight" x="0" y="0" onmousedown="handlePan(1,0)"/>
  <use id="arrowdown" xlink:href="#arrowDown" x="0" y="0" onmousedown="handlePan(0,1)"/>
  <use id="arrowleft" xlink:href="#arrowLeft" x="0" y="0" onmousedown="handlePan(-1,0)"/>
</g>
<svg viewBox="0 0 15 15" width="100%" height="30px" preserveAspectRatio="xMaxYMin meet">
 <g id="arrow_out" transform="scale(0.3 0.3)">
  <a xlink:href="RBFFD_8hpp__incl_org.svg" target="_base">
   <rect id="button" ry="5" rx="5" y="6" x="6" height="38" width="38"
        fill="#f2f5e9" fill-opacity="0.5" stroke="#606060" stroke-width="1.0"/>
   <path id="arrow"
     d="M 11.500037,31.436501 C 11.940474,20.09759 22.043105,11.32322 32.158766,21.979434 L 37.068811,17.246167 C 37.068811,17.246167 37.088388,32 37.088388,32 L 22.160133,31.978069 C 22.160133,31.978069 26.997745,27.140456 26.997745,27.140456 C 18.528582,18.264221 13.291696,25.230495 11.500037,31.436501 z"
     style="fill:#404040;"/>
  </a>
 </g>
</svg>

<style type='text/css'>
<![CDATA[
[data-mouse-over-selected='false'] { opacity: 0.7; }
[data-mouse-over-selected='true']  { opacity: 1.0; }
]]>
</style>
<script type="application/ecmascript"><![CDATA[
document.addEventListener('DOMContentLoaded', (event) => {
  highlightEdges();
  highlightAdjacentNodes();
});
]]></script>
</svg>
