<?xml version="1.0" encoding="UTF-8" standalone="no"?>
<!DOCTYPE svg PUBLIC "-//W3C//DTD SVG 1.1//EN"
 "http://www.w3.org/Graphics/SVG/1.1/DTD/svg11.dtd">
<!-- Generated by graphviz version 2.43.0 (0)
 -->
<!-- Title: include/medusa/bits/approximations/RBFInterpolant_fwd.hpp Pages: 1 -->
<!--zoomable 434 -->

<svg id="main" version="1.1" xmlns="http://www.w3.org/2000/svg" xmlns:xlink="http://www.w3.org/1999/xlink" xml:space="preserve" onload="init(evt)">
<style type="text/css"><![CDATA[
.node, .edge {opacity: 0.7;}
.node.selected, .edge.selected {opacity: 1;}
.edge:hover path { stroke: red; }
.edge:hover polygon { stroke: red; fill: red; }
]]></style>

<defs>
  <circle id="rim" cx="0" cy="0" r="7"/>
  <circle id="rim2" cx="0" cy="0" r="3.5"/>
  <g id="zoomPlus">
    <use xlink:href="#rim" fill="#404040"><set attributeName="fill" to="#808080" begin="zoomplus.mouseover" end="zoomplus.mouseout"/></use>
    <path d="M-4,0h8M0,-4v8" fill="none" stroke="white" stroke-width="1.5" pointer-events="none"/>
  </g>
  <g id="zoomMin">
    <use xlink:href="#rim" fill="#404040"><set attributeName="fill" to="#808080" begin="zoomminus.mouseover" end="zoomminus.mouseout"/></use>
    <path d="M-4,0h8" fill="none" stroke="white" stroke-width="1.5" pointer-events="none"/>
  </g>
  <g id="arrowUp" transform="translate(30 24)">
    <use xlink:href="#rim"/>
    <path pointer-events="none" fill="none" stroke="white" stroke-width="1.5" d="M0,-3.0v7 M-2.5,-0.5L0,-3.0L2.5,-0.5"/>
  </g>
  <g id="arrowRight" transform="rotate(90) translate(36 -43)">
    <use xlink:href="#rim"/>
    <path pointer-events="none" fill="none" stroke="white" stroke-width="1.5" d="M0,-3.0v7 M-2.5,-0.5L0,-3.0L2.5,-0.5"/>
  </g>
  <g id="arrowDown" transform="rotate(180) translate(-30 -48)">
    <use xlink:href="#rim"/>
    <path pointer-events="none" fill="none" stroke="white" stroke-width="1.5" d="M0,-3.0v7 M-2.5,-0.5L0,-3.0L2.5,-0.5"/>
  </g>
  <g id="arrowLeft" transform="rotate(270) translate(-36 17)">
    <use xlink:href="#rim"/>
    <path pointer-events="none" fill="none" stroke="white" stroke-width="1.5" d="M0,-3.0v7 M-2.5,-0.5L0,-3.0L2.5,-0.5"/>
  </g>
  <g id="resetDef">
    <use xlink:href="#rim2" fill="#404040"><set attributeName="fill" to="#808080" begin="reset.mouseover" end="reset.mouseout"/></use>
  </g>
</defs>
<script type="application/ecmascript">
var viewWidth = 994;
var viewHeight = 434;
var sectionId = 'dynsection-0';
</script>
<script type="application/ecmascript" xlink:href="svg.min.js"/>
<svg id="graph" class="graph">
<g id="viewport">
<title>include/medusa/bits/approximations/RBFInterpolant_fwd.hpp</title>
<!-- Node1 -->
<g id="Node000001" class="node">
<title>Node1</title>
<g id="a_Node000001"><a xlink:title="RBFInterpolant class definition.">
<polygon fill="#999999" stroke="#666666" points="629.5,-426 457.5,-426 457.5,-385 629.5,-385 629.5,-426"/>
<text text-anchor="start" x="465.5" y="-414" font-family="Helvetica,sans-Serif" font-size="10.00">include/medusa/bits</text>
<text text-anchor="start" x="465.5" y="-403" font-family="Helvetica,sans-Serif" font-size="10.00">/approximations/RBFInterpolant</text>
<text text-anchor="middle" x="543.5" y="-392" font-family="Helvetica,sans-Serif" font-size="10.00">_fwd.hpp</text>
</a>
</g>
</g>
<!-- Node2 -->
<g id="Node000002" class="node">
<title>Node2</title>
<g id="a_Node000002"><a xlink:href="Config_8hpp.html" target="_top" xlink:title="Contains compile time settings for the project, such as Eigen plugins.">
<polygon fill="white" stroke="#666666" points="417.5,-129 307.5,-129 307.5,-110 417.5,-110 417.5,-129"/>
<text text-anchor="middle" x="362.5" y="-117" font-family="Helvetica,sans-Serif" font-size="10.00">medusa/Config.hpp</text>
</a>
</g>
</g>
<!-- Node1&#45;&gt;Node2 -->
<g id="edge1_Node000001_Node000002" class="edge">
<title>Node1&#45;&gt;Node2</title>
<g id="a_edge1_Node000001_Node000002"><a xlink:title=" ">
<path fill="none" stroke="#63b8ff" d="M457.2,-388.16C367.32,-368.61 239.5,-332.54 239.5,-285.5 239.5,-285.5 239.5,-285.5 239.5,-228.5 239.5,-180.63 292.75,-149 329.18,-132.96"/>
<polygon fill="#63b8ff" stroke="#63b8ff" points="330.64,-136.14 338.49,-129.03 327.92,-129.69 330.64,-136.14"/>
</a>
</g>
</g>
<!-- Node4 -->
<g id="Node000004" class="node">
<title>Node4</title>
<g id="a_Node000004"><a xlink:title=" ">
<polygon fill="#e0e0e0" stroke="#999999" points="614,-129 545,-129 545,-110 614,-110 614,-129"/>
<text text-anchor="middle" x="579.5" y="-117" font-family="Helvetica,sans-Serif" font-size="10.00">Eigen/Core</text>
</a>
</g>
</g>
<!-- Node1&#45;&gt;Node4 -->
<g id="edge3_Node000001_Node000004" class="edge">
<title>Node1&#45;&gt;Node4</title>
<g id="a_edge3_Node000001_Node000004"><a xlink:title=" ">
<path fill="none" stroke="#63b8ff" d="M543.5,-384.71C543.5,-361.09 543.5,-320.41 543.5,-285.5 543.5,-285.5 543.5,-285.5 543.5,-228.5 543.5,-195.21 559.08,-158.97 569.75,-138.08"/>
<polygon fill="#63b8ff" stroke="#63b8ff" points="572.9,-139.61 574.49,-129.13 566.71,-136.32 572.9,-139.61"/>
</a>
</g>
</g>
<!-- Node5 -->
<g id="Node000005" class="node">
<title>Node5</title>
<g id="a_Node000005"><a xlink:href="Monomials_8hpp.html" target="_top" xlink:title="Implementation of Monomial basis.">
<polygon fill="white" stroke="#666666" points="664.5,-349 572.5,-349 572.5,-330 664.5,-330 664.5,-349"/>
<text text-anchor="middle" x="618.5" y="-337" font-family="Helvetica,sans-Serif" font-size="10.00">Monomials.hpp</text>
</a>
</g>
</g>
<!-- Node1&#45;&gt;Node5 -->
<g id="edge4_Node000001_Node000005" class="edge">
<title>Node1&#45;&gt;Node5</title>
<g id="a_edge4_Node000001_Node000005"><a xlink:title=" ">
<path fill="none" stroke="#63b8ff" d="M566.41,-384.95C577.31,-375.65 590.17,-364.68 600.38,-355.96"/>
<polygon fill="#63b8ff" stroke="#63b8ff" points="602.9,-358.41 608.23,-349.26 598.35,-353.09 602.9,-358.41"/>
</a>
</g>
</g>
<!-- Node3 -->
<g id="Node000003" class="node">
<title>Node3</title>
<g id="a_Node000003"><a xlink:title=" ">
<polygon fill="#e0e0e0" stroke="#999999" points="507,-19 460,-19 460,0 507,0 507,-19"/>
<text text-anchor="middle" x="483.5" y="-7" font-family="Helvetica,sans-Serif" font-size="10.00">vector</text>
</a>
</g>
</g>
<!-- Node2&#45;&gt;Node3 -->
<g id="edge2_Node000002_Node000003" class="edge">
<title>Node2&#45;&gt;Node3</title>
<g id="a_edge2_Node000002_Node000003"><a xlink:title=" ">
<path fill="none" stroke="#63b8ff" d="M372.4,-109.66C392.98,-91.3 440.57,-48.81 466.28,-25.87"/>
<polygon fill="#63b8ff" stroke="#63b8ff" points="468.67,-28.43 473.8,-19.16 464.01,-23.21 468.67,-28.43"/>
</a>
</g>
</g>
<!-- Node6 -->
<g id="Node000006" class="node">
<title>Node6</title>
<g id="a_Node000006"><a xlink:href="Monomials__fwd_8hpp.html" target="_top" xlink:title="Declaration of Monomial basis.">
<polygon fill="white" stroke="#666666" points="419.5,-184 305.5,-184 305.5,-165 419.5,-165 419.5,-184"/>
<text text-anchor="middle" x="362.5" y="-172" font-family="Helvetica,sans-Serif" font-size="10.00">Monomials_fwd.hpp</text>
</a>
</g>
</g>
<!-- Node5&#45;&gt;Node6 -->
<g id="edge5_Node000005_Node000006" class="edge">
<title>Node5&#45;&gt;Node6</title>
<g id="a_edge5_Node000005_Node000006"><a xlink:title=" ">
<path fill="none" stroke="#63b8ff" d="M610.13,-329.98C589.05,-308.89 531.37,-253.58 474.5,-220 451.12,-206.19 422.65,-194.95 400.27,-187.21"/>
<polygon fill="#63b8ff" stroke="#63b8ff" points="401.37,-183.89 390.77,-184.02 399.13,-190.52 401.37,-183.89"/>
</a>
</g>
</g>
<!-- Node10 -->
<g id="Node000010" class="node">
<title>Node10</title>
<g id="a_Node000010"><a xlink:href="assert_8hpp.html" target="_top" xlink:title="Implementation of custom assert and debug utilities.">
<polygon fill="white" stroke="#666666" points="864,-129 709,-129 709,-110 864,-110 864,-129"/>
<text text-anchor="middle" x="786.5" y="-117" font-family="Helvetica,sans-Serif" font-size="10.00">medusa/bits/utils/assert.hpp</text>
</a>
</g>
</g>
<!-- Node5&#45;&gt;Node10 -->
<g id="edge11_Node000005_Node000010" class="edge">
<title>Node5&#45;&gt;Node10</title>
<g id="a_edge11_Node000005_Node000010"><a xlink:title=" ">
<path fill="none" stroke="#63b8ff" d="M630.42,-329.9C659.04,-308.6 732.05,-250.29 769.5,-184 777.31,-170.17 781.66,-152.6 783.99,-139.45"/>
<polygon fill="#63b8ff" stroke="#63b8ff" points="787.5,-139.65 785.57,-129.24 780.58,-138.59 787.5,-139.65"/>
</a>
</g>
</g>
<!-- Node13 -->
<g id="Node000013" class="node">
<title>Node13</title>
<g id="a_Node000013"><a xlink:title=" ">
<polygon fill="#e0e0e0" stroke="#999999" points="985.5,-19 925.5,-19 925.5,0 985.5,0 985.5,-19"/>
<text text-anchor="middle" x="955.5" y="-7" font-family="Helvetica,sans-Serif" font-size="10.00">iostream</text>
</a>
</g>
</g>
<!-- Node5&#45;&gt;Node13 -->
<g id="edge36_Node000005_Node000013" class="edge">
<title>Node5&#45;&gt;Node13</title>
<g id="a_edge36_Node000005_Node000013"><a xlink:title=" ">
<path fill="none" stroke="#63b8ff" d="M664.59,-333.37C756.22,-321.88 952.5,-290.3 952.5,-230.5 952.5,-230.5 952.5,-230.5 952.5,-118.5 952.5,-87.18 953.78,-50.77 954.66,-29.23"/>
<polygon fill="#63b8ff" stroke="#63b8ff" points="958.16,-29.32 955.1,-19.18 951.17,-29.02 958.16,-29.32"/>
</a>
</g>
</g>
<!-- Node16 -->
<g id="Node000016" class="node">
<title>Node16</title>
<g id="a_Node000016"><a xlink:href="numutils_8hpp.html" target="_top" xlink:title="Declaration of numerical utilities.">
<polygon fill="white" stroke="#666666" points="455,-294 288,-294 288,-275 455,-275 455,-294"/>
<text text-anchor="middle" x="371.5" y="-282" font-family="Helvetica,sans-Serif" font-size="10.00">medusa/bits/utils/numutils.hpp</text>
</a>
</g>
</g>
<!-- Node5&#45;&gt;Node16 -->
<g id="edge19_Node000005_Node000016" class="edge">
<title>Node5&#45;&gt;Node16</title>
<g id="a_edge19_Node000005_Node000016"><a xlink:title=" ">
<path fill="none" stroke="#63b8ff" d="M578.82,-329.98C536,-320.8 467.74,-306.15 421.34,-296.19"/>
<polygon fill="#63b8ff" stroke="#63b8ff" points="422.01,-292.76 411.5,-294.08 420.54,-299.6 422.01,-292.76"/>
</a>
</g>
</g>
<!-- Node24 -->
<g id="Node000024" class="node">
<title>Node24</title>
<g id="a_Node000024"><a xlink:href="Operators__fwd_8hpp.html" target="_top" xlink:title="File defining basic differential operator families.">
<polygon fill="white" stroke="#666666" points="679.5,-239 571.5,-239 571.5,-220 679.5,-220 679.5,-239"/>
<text text-anchor="middle" x="625.5" y="-227" font-family="Helvetica,sans-Serif" font-size="10.00">Operators_fwd.hpp</text>
</a>
</g>
</g>
<!-- Node5&#45;&gt;Node24 -->
<g id="edge37_Node000005_Node000024" class="edge">
<title>Node5&#45;&gt;Node24</title>
<g id="a_edge37_Node000005_Node000024"><a xlink:title=" ">
<path fill="none" stroke="#63b8ff" d="M619.07,-329.66C620.21,-312.17 622.76,-272.8 624.28,-249.27"/>
<polygon fill="#63b8ff" stroke="#63b8ff" points="627.78,-249.36 624.94,-239.16 620.8,-248.91 627.78,-249.36"/>
</a>
</g>
</g>
<!-- Node6&#45;&gt;Node2 -->
<g id="edge6_Node000006_Node000002" class="edge">
<title>Node6&#45;&gt;Node2</title>
<g id="a_edge6_Node000006_Node000002"><a xlink:title=" ">
<path fill="none" stroke="#63b8ff" d="M362.5,-164.75C362.5,-157.8 362.5,-147.85 362.5,-139.13"/>
<polygon fill="#63b8ff" stroke="#63b8ff" points="366,-139.09 362.5,-129.09 359,-139.09 366,-139.09"/>
</a>
</g>
</g>
<!-- Node6&#45;&gt;Node4 -->
<g id="edge9_Node000006_Node000004" class="edge">
<title>Node6&#45;&gt;Node4</title>
<g id="a_edge9_Node000006_Node000004"><a xlink:title=" ">
<path fill="none" stroke="#63b8ff" d="M397.36,-164.98C434.7,-155.87 494.05,-141.37 534.79,-131.42"/>
<polygon fill="#63b8ff" stroke="#63b8ff" points="535.84,-134.77 544.72,-128.99 534.18,-127.97 535.84,-134.77"/>
</a>
</g>
</g>
<!-- Node7 -->
<g id="Node000007" class="node">
<title>Node7</title>
<g id="a_Node000007"><a xlink:title=" ">
<polygon fill="#e0e0e0" stroke="#999999" points="289,-129 242,-129 242,-110 289,-110 289,-129"/>
<text text-anchor="middle" x="265.5" y="-117" font-family="Helvetica,sans-Serif" font-size="10.00">cmath</text>
</a>
</g>
</g>
<!-- Node6&#45;&gt;Node7 -->
<g id="edge7_Node000006_Node000007" class="edge">
<title>Node6&#45;&gt;Node7</title>
<g id="a_edge7_Node000006_Node000007"><a xlink:title=" ">
<path fill="none" stroke="#63b8ff" d="M346.92,-164.98C331.73,-156.69 308.4,-143.94 290.6,-134.22"/>
<polygon fill="#63b8ff" stroke="#63b8ff" points="291.82,-130.89 281.37,-129.17 288.47,-137.04 291.82,-130.89"/>
</a>
</g>
</g>
<!-- Node8 -->
<g id="Node000008" class="node">
<title>Node8</title>
<g id="a_Node000008"><a xlink:title=" ">
<polygon fill="#e0e0e0" stroke="#999999" points="701.5,-19 659.5,-19 659.5,0 701.5,0 701.5,-19"/>
<text text-anchor="middle" x="680.5" y="-7" font-family="Helvetica,sans-Serif" font-size="10.00">array</text>
</a>
</g>
</g>
<!-- Node6&#45;&gt;Node8 -->
<g id="edge8_Node000006_Node000008" class="edge">
<title>Node6&#45;&gt;Node8</title>
<g id="a_edge8_Node000006_Node000008"><a xlink:title=" ">
<path fill="none" stroke="#63b8ff" d="M379.15,-164.97C431.3,-138.24 591.73,-56 654.73,-23.71"/>
<polygon fill="#63b8ff" stroke="#63b8ff" points="656.33,-26.82 663.63,-19.15 653.14,-20.59 656.33,-26.82"/>
</a>
</g>
</g>
<!-- Node9 -->
<g id="Node000009" class="node">
<title>Node9</title>
<g id="a_Node000009"><a xlink:title=" ">
<polygon fill="#e0e0e0" stroke="#999999" points="222.5,-129 174.5,-129 174.5,-110 222.5,-110 222.5,-129"/>
<text text-anchor="middle" x="198.5" y="-117" font-family="Helvetica,sans-Serif" font-size="10.00">iosfwd</text>
</a>
</g>
</g>
<!-- Node6&#45;&gt;Node9 -->
<g id="edge10_Node000006_Node000009" class="edge">
<title>Node6&#45;&gt;Node9</title>
<g id="a_edge10_Node000006_Node000009"><a xlink:title=" ">
<path fill="none" stroke="#63b8ff" d="M336.15,-164.98C308,-155.89 263.29,-141.44 232.51,-131.49"/>
<polygon fill="#63b8ff" stroke="#63b8ff" points="233.24,-128.05 222.65,-128.3 231.09,-134.71 233.24,-128.05"/>
</a>
</g>
</g>
<!-- Node11 -->
<g id="Node000011" class="node">
<title>Node11</title>
<g id="a_Node000011"><a xlink:title=" ">
<polygon fill="#e0e0e0" stroke="#999999" points="840.5,-74 708.5,-74 708.5,-55 840.5,-55 840.5,-74"/>
<text text-anchor="middle" x="774.5" y="-62" font-family="Helvetica,sans-Serif" font-size="10.00">tinyformat/tinyformat.h</text>
</a>
</g>
</g>
<!-- Node10&#45;&gt;Node11 -->
<g id="edge12_Node000010_Node000011" class="edge">
<title>Node10&#45;&gt;Node11</title>
<g id="a_edge12_Node000010_Node000011"><a xlink:title=" ">
<path fill="none" stroke="#63b8ff" d="M784.52,-109.75C782.93,-102.72 780.64,-92.62 778.65,-83.84"/>
<polygon fill="#63b8ff" stroke="#63b8ff" points="782.07,-83.07 776.44,-74.09 775.24,-84.62 782.07,-83.07"/>
</a>
</g>
</g>
<!-- Node12 -->
<g id="Node000012" class="node">
<title>Node12</title>
<g id="a_Node000012"><a xlink:href="print_8hpp.html" target="_top" xlink:title="Printing helpers for std types.">
<polygon fill="white" stroke="#666666" points="918.5,-74 858.5,-74 858.5,-55 918.5,-55 918.5,-74"/>
<text text-anchor="middle" x="888.5" y="-62" font-family="Helvetica,sans-Serif" font-size="10.00">print.hpp</text>
</a>
</g>
</g>
<!-- Node10&#45;&gt;Node12 -->
<g id="edge13_Node000010_Node000012" class="edge">
<title>Node10&#45;&gt;Node12</title>
<g id="a_edge13_Node000010_Node000012"><a xlink:title=" ">
<path fill="none" stroke="#63b8ff" d="M802.89,-109.98C819.07,-101.57 844.07,-88.59 862.88,-78.81"/>
<polygon fill="#63b8ff" stroke="#63b8ff" points="864.55,-81.89 871.81,-74.17 861.33,-75.68 864.55,-81.89"/>
</a>
</g>
</g>
<!-- Node12&#45;&gt;Node3 -->
<g id="edge15_Node000012_Node000003" class="edge">
<title>Node12&#45;&gt;Node3</title>
<g id="a_edge15_Node000012_Node000003"><a xlink:title=" ">
<path fill="none" stroke="#63b8ff" d="M858.32,-56.63C855.35,-56.04 852.37,-55.49 849.5,-55 727.84,-34.39 581.88,-19.59 517.19,-13.53"/>
<polygon fill="#63b8ff" stroke="#63b8ff" points="517.44,-10.04 507.16,-12.6 516.8,-17.01 517.44,-10.04"/>
</a>
</g>
</g>
<!-- Node12&#45;&gt;Node8 -->
<g id="edge16_Node000012_Node000008" class="edge">
<title>Node12&#45;&gt;Node8</title>
<g id="a_edge16_Node000012_Node000008"><a xlink:title=" ">
<path fill="none" stroke="#63b8ff" d="M858.26,-55.79C819.06,-45.8 751.05,-28.48 711.49,-18.4"/>
<polygon fill="#63b8ff" stroke="#63b8ff" points="712.16,-14.96 701.61,-15.88 710.43,-21.74 712.16,-14.96"/>
</a>
</g>
</g>
<!-- Node12&#45;&gt;Node13 -->
<g id="edge14_Node000012_Node000013" class="edge">
<title>Node12&#45;&gt;Node13</title>
<g id="a_edge14_Node000012_Node000013"><a xlink:title=" ">
<path fill="none" stroke="#63b8ff" d="M899.26,-54.98C909.27,-47.07 924.39,-35.11 936.43,-25.58"/>
<polygon fill="#63b8ff" stroke="#63b8ff" points="938.87,-28.12 944.54,-19.17 934.53,-22.63 938.87,-28.12"/>
</a>
</g>
</g>
<!-- Node14 -->
<g id="Node000014" class="node">
<title>Node14</title>
<g id="a_Node000014"><a xlink:title=" ">
<polygon fill="#e0e0e0" stroke="#999999" points="907,-19 862,-19 862,0 907,0 907,-19"/>
<text text-anchor="middle" x="884.5" y="-7" font-family="Helvetica,sans-Serif" font-size="10.00">utility</text>
</a>
</g>
</g>
<!-- Node12&#45;&gt;Node14 -->
<g id="edge17_Node000012_Node000014" class="edge">
<title>Node12&#45;&gt;Node14</title>
<g id="a_edge17_Node000012_Node000014"><a xlink:title=" ">
<path fill="none" stroke="#63b8ff" d="M887.84,-54.75C887.32,-47.8 886.56,-37.85 885.91,-29.13"/>
<polygon fill="#63b8ff" stroke="#63b8ff" points="889.39,-28.8 885.15,-19.09 882.41,-29.32 889.39,-28.8"/>
</a>
</g>
</g>
<!-- Node15 -->
<g id="Node000015" class="node">
<title>Node15</title>
<g id="a_Node000015"><a xlink:title=" ">
<polygon fill="#e0e0e0" stroke="#999999" points="844,-19 803,-19 803,0 844,0 844,-19"/>
<text text-anchor="middle" x="823.5" y="-7" font-family="Helvetica,sans-Serif" font-size="10.00">tuple</text>
</a>
</g>
</g>
<!-- Node12&#45;&gt;Node15 -->
<g id="edge18_Node000012_Node000015" class="edge">
<title>Node12&#45;&gt;Node15</title>
<g id="a_edge18_Node000012_Node000015"><a xlink:title=" ">
<path fill="none" stroke="#63b8ff" d="M878.06,-54.98C868.35,-47.07 853.68,-35.11 842,-25.58"/>
<polygon fill="#63b8ff" stroke="#63b8ff" points="844.1,-22.78 834.13,-19.17 839.67,-28.2 844.1,-22.78"/>
</a>
</g>
</g>
<!-- Node16&#45;&gt;Node2 -->
<g id="edge20_Node000016_Node000002" class="edge">
<title>Node16&#45;&gt;Node2</title>
<g id="a_edge20_Node000016_Node000002"><a xlink:title=" ">
<path fill="none" stroke="#63b8ff" d="M352.58,-274.94C338.27,-267.48 319.3,-255.3 308.5,-239 294.68,-218.15 299.18,-208.88 296.5,-184 295.59,-175.6 292.53,-172.46 296.5,-165 303.81,-151.25 317.47,-140.99 330.47,-133.8"/>
<polygon fill="#63b8ff" stroke="#63b8ff" points="332.39,-136.75 339.72,-129.11 329.22,-130.51 332.39,-136.75"/>
</a>
</g>
</g>
<!-- Node16&#45;&gt;Node7 -->
<g id="edge35_Node000016_Node000007" class="edge">
<title>Node16&#45;&gt;Node7</title>
<g id="a_edge35_Node000016_Node000007"><a xlink:title=" ">
<path fill="none" stroke="#63b8ff" d="M347.47,-274.95C330.79,-267.82 309.34,-256.05 296.5,-239 273.98,-209.1 267.77,-164.29 266.09,-139.21"/>
<polygon fill="#63b8ff" stroke="#63b8ff" points="269.59,-139.02 265.6,-129.2 262.6,-139.36 269.59,-139.02"/>
</a>
</g>
</g>
<!-- Node16&#45;&gt;Node10 -->
<g id="edge21_Node000016_Node000010" class="edge">
<title>Node16&#45;&gt;Node10</title>
<g id="a_edge21_Node000016_Node000010"><a xlink:title=" ">
<path fill="none" stroke="#63b8ff" d="M455.31,-278.35C535.35,-272.26 649.41,-260.17 688.5,-239 731.38,-215.78 762.96,-165.36 777.54,-138.38"/>
<polygon fill="#63b8ff" stroke="#63b8ff" points="780.76,-139.78 782.28,-129.3 774.55,-136.54 780.76,-139.78"/>
</a>
</g>
</g>
<!-- Node17 -->
<g id="Node000017" class="node">
<title>Node17</title>
<g id="a_Node000017"><a xlink:href="Vec_8hpp.html" target="_top" xlink:title="Implemetations for Vec.">
<polygon fill="white" stroke="#666666" points="465.5,-239 317.5,-239 317.5,-220 465.5,-220 465.5,-239"/>
<text text-anchor="middle" x="391.5" y="-227" font-family="Helvetica,sans-Serif" font-size="10.00">medusa/bits/types/Vec.hpp</text>
</a>
</g>
</g>
<!-- Node16&#45;&gt;Node17 -->
<g id="edge22_Node000016_Node000017" class="edge">
<title>Node16&#45;&gt;Node17</title>
<g id="a_edge22_Node000016_Node000017"><a xlink:title=" ">
<path fill="none" stroke="#63b8ff" d="M374.8,-274.75C377.48,-267.65 381.35,-257.4 384.69,-248.56"/>
<polygon fill="#63b8ff" stroke="#63b8ff" points="388,-249.68 388.26,-239.09 381.45,-247.21 388,-249.68"/>
</a>
</g>
</g>
<!-- Node19 -->
<g id="Node000019" class="node">
<title>Node19</title>
<g id="a_Node000019"><a xlink:href="Range_8hpp.html" target="_top" xlink:title="Implementation of Range.">
<polygon fill="white" stroke="#666666" points="173,-239 12,-239 12,-220 173,-220 173,-239"/>
<text text-anchor="middle" x="92.5" y="-227" font-family="Helvetica,sans-Serif" font-size="10.00">medusa/bits/types/Range.hpp</text>
</a>
</g>
</g>
<!-- Node16&#45;&gt;Node19 -->
<g id="edge26_Node000016_Node000019" class="edge">
<title>Node16&#45;&gt;Node19</title>
<g id="a_edge26_Node000016_Node000019"><a xlink:title=" ">
<path fill="none" stroke="#63b8ff" d="M326.67,-274.98C278.01,-265.74 200.24,-250.97 147.81,-241.01"/>
<polygon fill="#63b8ff" stroke="#63b8ff" points="148.16,-237.51 137.68,-239.08 146.85,-244.39 148.16,-237.51"/>
</a>
</g>
</g>
<!-- Node18 -->
<g id="Node000018" class="node">
<title>Node18</title>
<g id="a_Node000018"><a xlink:href="Vec__fwd_8hpp.html" target="_top" xlink:title="Declaration of Vec.">
<polygon fill="white" stroke="#666666" points="515,-184 438,-184 438,-165 515,-165 515,-184"/>
<text text-anchor="middle" x="476.5" y="-172" font-family="Helvetica,sans-Serif" font-size="10.00">Vec_fwd.hpp</text>
</a>
</g>
</g>
<!-- Node17&#45;&gt;Node18 -->
<g id="edge23_Node000017_Node000018" class="edge">
<title>Node17&#45;&gt;Node18</title>
<g id="a_edge23_Node000017_Node000018"><a xlink:title=" ">
<path fill="none" stroke="#63b8ff" d="M405.16,-219.98C418.34,-211.77 438.53,-199.18 454.07,-189.49"/>
<polygon fill="#63b8ff" stroke="#63b8ff" points="455.96,-192.43 462.59,-184.17 452.26,-186.49 455.96,-192.43"/>
</a>
</g>
</g>
<!-- Node18&#45;&gt;Node2 -->
<g id="edge24_Node000018_Node000002" class="edge">
<title>Node18&#45;&gt;Node2</title>
<g id="a_edge24_Node000018_Node000002"><a xlink:title=" ">
<path fill="none" stroke="#63b8ff" d="M458.18,-164.98C439.84,-156.46 411.39,-143.23 390.27,-133.41"/>
<polygon fill="#63b8ff" stroke="#63b8ff" points="391.69,-130.21 381.15,-129.17 388.74,-136.56 391.69,-130.21"/>
</a>
</g>
</g>
<!-- Node18&#45;&gt;Node4 -->
<g id="edge25_Node000018_Node000004" class="edge">
<title>Node18&#45;&gt;Node4</title>
<g id="a_edge25_Node000018_Node000004"><a xlink:title=" ">
<path fill="none" stroke="#63b8ff" d="M493.05,-164.98C509.39,-156.57 534.63,-143.59 553.63,-133.81"/>
<polygon fill="#63b8ff" stroke="#63b8ff" points="555.36,-136.86 562.65,-129.17 552.16,-130.63 555.36,-136.86"/>
</a>
</g>
</g>
<!-- Node20 -->
<g id="Node000020" class="node">
<title>Node20</title>
<g id="a_Node000020"><a xlink:href="Range__fwd_8hpp.html" target="_top" xlink:title="Declaration of Range.">
<polygon fill="white" stroke="#666666" points="91,-184 0,-184 0,-165 91,-165 91,-184"/>
<text text-anchor="middle" x="45.5" y="-172" font-family="Helvetica,sans-Serif" font-size="10.00">Range_fwd.hpp</text>
</a>
</g>
</g>
<!-- Node19&#45;&gt;Node20 -->
<g id="edge27_Node000019_Node000020" class="edge">
<title>Node19&#45;&gt;Node20</title>
<g id="a_edge27_Node000019_Node000020"><a xlink:title=" ">
<path fill="none" stroke="#63b8ff" d="M84.74,-219.75C78.03,-212.18 68.16,-201.05 59.99,-191.84"/>
<polygon fill="#63b8ff" stroke="#63b8ff" points="62.37,-189.25 53.12,-184.09 57.13,-193.89 62.37,-189.25"/>
</a>
</g>
</g>
<!-- Node23 -->
<g id="Node000023" class="node">
<title>Node23</title>
<g id="a_Node000023"><a xlink:title=" ">
<polygon fill="#e0e0e0" stroke="#999999" points="173.5,-184 109.5,-184 109.5,-165 173.5,-165 173.5,-184"/>
<text text-anchor="middle" x="141.5" y="-172" font-family="Helvetica,sans-Serif" font-size="10.00">algorithm</text>
</a>
</g>
</g>
<!-- Node19&#45;&gt;Node23 -->
<g id="edge34_Node000019_Node000023" class="edge">
<title>Node19&#45;&gt;Node23</title>
<g id="a_edge34_Node000019_Node000023"><a xlink:title=" ">
<path fill="none" stroke="#63b8ff" d="M100.59,-219.75C107.66,-212.11 118.09,-200.82 126.65,-191.56"/>
<polygon fill="#63b8ff" stroke="#63b8ff" points="129.34,-193.81 133.56,-184.09 124.2,-189.06 129.34,-193.81"/>
</a>
</g>
</g>
<!-- Node20&#45;&gt;Node2 -->
<g id="edge28_Node000020_Node000002" class="edge">
<title>Node20&#45;&gt;Node2</title>
<g id="a_edge28_Node000020_Node000002"><a xlink:title=" ">
<path fill="none" stroke="#63b8ff" d="M91.26,-165.85C146.64,-156.59 240.1,-140.96 301.55,-130.69"/>
<polygon fill="#63b8ff" stroke="#63b8ff" points="302.22,-134.13 311.51,-129.03 301.07,-127.22 302.22,-134.13"/>
</a>
</g>
</g>
<!-- Node20&#45;&gt;Node3 -->
<g id="edge32_Node000020_Node000003" class="edge">
<title>Node20&#45;&gt;Node3</title>
<g id="a_edge32_Node000020_Node000003"><a xlink:title=" ">
<path fill="none" stroke="#63b8ff" d="M33.1,-164.84C16.49,-152.2 -9.3,-128.19 5.5,-110 61.94,-40.6 350.22,-18 449.7,-12.21"/>
<polygon fill="#63b8ff" stroke="#63b8ff" points="450.01,-15.69 459.8,-11.64 449.62,-8.71 450.01,-15.69"/>
</a>
</g>
</g>
<!-- Node20&#45;&gt;Node9 -->
<g id="edge33_Node000020_Node000009" class="edge">
<title>Node20&#45;&gt;Node9</title>
<g id="a_edge33_Node000020_Node000009"><a xlink:title=" ">
<path fill="none" stroke="#63b8ff" d="M70.08,-164.98C95.77,-156.09 136.26,-142.06 164.89,-132.14"/>
<polygon fill="#63b8ff" stroke="#63b8ff" points="166.18,-135.4 174.48,-128.82 163.89,-128.79 166.18,-135.4"/>
</a>
</g>
</g>
<!-- Node20&#45;&gt;Node10 -->
<g id="edge29_Node000020_Node000010" class="edge">
<title>Node20&#45;&gt;Node10</title>
<g id="a_edge29_Node000020_Node000010"><a xlink:title=" ">
<path fill="none" stroke="#63b8ff" d="M91.08,-166.14C94.26,-165.72 97.43,-165.34 100.5,-165 213.91,-152.58 540.51,-133.89 698.64,-125.23"/>
<polygon fill="#63b8ff" stroke="#63b8ff" points="699.01,-128.71 708.8,-124.67 698.63,-121.72 699.01,-128.71"/>
</a>
</g>
</g>
<!-- Node21 -->
<g id="Node000021" class="node">
<title>Node21</title>
<g id="a_Node000021"><a xlink:href="traits_8hpp.html" target="_top" xlink:title="Type traits definition for vector and scalar fields.">
<polygon fill="white" stroke="#666666" points="78,-129 15,-129 15,-110 78,-110 78,-129"/>
<text text-anchor="middle" x="46.5" y="-117" font-family="Helvetica,sans-Serif" font-size="10.00">traits.hpp</text>
</a>
</g>
</g>
<!-- Node20&#45;&gt;Node21 -->
<g id="edge30_Node000020_Node000021" class="edge">
<title>Node20&#45;&gt;Node21</title>
<g id="a_edge30_Node000020_Node000021"><a xlink:title=" ">
<path fill="none" stroke="#63b8ff" d="M45.67,-164.75C45.8,-157.8 45.98,-147.85 46.15,-139.13"/>
<polygon fill="#63b8ff" stroke="#63b8ff" points="49.65,-139.15 46.34,-129.09 42.65,-139.02 49.65,-139.15"/>
</a>
</g>
</g>
<!-- Node22 -->
<g id="Node000022" class="node">
<title>Node22</title>
<g id="a_Node000022"><a xlink:title=" ">
<polygon fill="#e0e0e0" stroke="#999999" points="154.5,-129 96.5,-129 96.5,-110 154.5,-110 154.5,-129"/>
<text text-anchor="middle" x="125.5" y="-117" font-family="Helvetica,sans-Serif" font-size="10.00">memory</text>
</a>
</g>
</g>
<!-- Node20&#45;&gt;Node22 -->
<g id="edge31_Node000020_Node000022" class="edge">
<title>Node20&#45;&gt;Node22</title>
<g id="a_edge31_Node000020_Node000022"><a xlink:title=" ">
<path fill="none" stroke="#63b8ff" d="M58.35,-164.98C70.64,-156.84 89.41,-144.41 103.98,-134.76"/>
<polygon fill="#63b8ff" stroke="#63b8ff" points="106.01,-137.61 112.41,-129.17 102.14,-131.78 106.01,-137.61"/>
</a>
</g>
</g>
<!-- Node24&#45;&gt;Node2 -->
<g id="edge38_Node000024_Node000002" class="edge">
<title>Node24&#45;&gt;Node2</title>
<g id="a_edge38_Node000024_Node000002"><a xlink:title=" ">
<path fill="none" stroke="#63b8ff" d="M614.17,-219.91C595.97,-206.47 558.65,-180.41 523.5,-165 489.11,-149.92 448.32,-138.71 416.4,-131.31"/>
<polygon fill="#63b8ff" stroke="#63b8ff" points="416.9,-127.84 406.37,-129.05 415.35,-134.66 416.9,-127.84"/>
</a>
</g>
</g>
<!-- Node24&#45;&gt;Node3 -->
<g id="edge40_Node000024_Node000003" class="edge">
<title>Node24&#45;&gt;Node3</title>
<g id="a_edge40_Node000024_Node000003"><a xlink:title=" ">
<path fill="none" stroke="#63b8ff" d="M627.75,-219.81C632.58,-199.28 641.97,-146.73 622.5,-110 599.67,-66.92 548.9,-38.16 515.45,-23.08"/>
<polygon fill="#63b8ff" stroke="#63b8ff" points="516.66,-19.79 506.09,-19.01 513.87,-26.21 516.66,-19.79"/>
</a>
</g>
</g>
<!-- Node24&#45;&gt;Node4 -->
<g id="edge41_Node000024_Node000004" class="edge">
<title>Node24&#45;&gt;Node4</title>
<g id="a_edge41_Node000024_Node000004"><a xlink:title=" ">
<path fill="none" stroke="#63b8ff" d="M621.74,-219.66C614.22,-202.01 597.21,-162.09 587.22,-138.64"/>
<polygon fill="#63b8ff" stroke="#63b8ff" points="590.33,-136.99 583.19,-129.16 583.89,-139.73 590.33,-136.99"/>
</a>
</g>
</g>
<!-- Node24&#45;&gt;Node6 -->
<g id="edge42_Node000024_Node000006" class="edge">
<title>Node24&#45;&gt;Node6</title>
<g id="a_edge42_Node000024_Node000006"><a xlink:title=" ">
<path fill="none" stroke="#63b8ff" d="M583.24,-219.98C537.46,-210.76 464.36,-196.03 414.95,-186.07"/>
<polygon fill="#63b8ff" stroke="#63b8ff" points="415.58,-182.63 405.09,-184.08 414.2,-189.49 415.58,-182.63"/>
</a>
</g>
</g>
<!-- Node24&#45;&gt;Node8 -->
<g id="edge39_Node000024_Node000008" class="edge">
<title>Node24&#45;&gt;Node8</title>
<g id="a_edge39_Node000024_Node000008"><a xlink:title=" ">
<path fill="none" stroke="#63b8ff" d="M639.08,-219.73C649.99,-211.84 664.6,-199.17 671.5,-184 695.07,-132.18 688.78,-62.46 683.84,-29.4"/>
<polygon fill="#63b8ff" stroke="#63b8ff" points="687.27,-28.64 682.21,-19.33 680.36,-29.76 687.27,-28.64"/>
</a>
</g>
</g>
<!-- Node24&#45;&gt;Node10 -->
<g id="edge43_Node000024_Node000010" class="edge">
<title>Node24&#45;&gt;Node10</title>
<g id="a_edge43_Node000024_Node000010"><a xlink:title=" ">
<path fill="none" stroke="#63b8ff" d="M644.14,-219.98C661.58,-211.69 688.08,-198.29 709.5,-184 731.39,-169.39 754.41,-149.77 769.51,-136.22"/>
<polygon fill="#63b8ff" stroke="#63b8ff" points="771.98,-138.7 777.03,-129.39 767.28,-133.52 771.98,-138.7"/>
</a>
</g>
</g>
</g>
</svg>

<g id="navigator" transform="translate(0 0)" fill="#404254">
  <rect fill="#f2f5e9" fill-opacity="0.5" stroke="#606060" stroke-width=".5" x="0" y="0" width="60" height="60"/>
  <use id="zoomplus" xlink:href="#zoomPlus" x="17" y="9" onmousedown="handleZoom(evt,'in')"/>
  <use id="zoomminus" xlink:href="#zoomMin" x="42" y="9" onmousedown="handleZoom(evt,'out')"/>
  <use id="reset" xlink:href="#resetDef" x="30" y="36" onmousedown="handleReset()"/>
   <use id="arrowup" xlink:href="#arrowUp" x="0" y="0" onmousedown="handlePan(0,-1)"/>
  <use id="arrowright" xlink:href="#arrowRight" x="0" y="0" onmousedown="handlePan(1,0)"/>
  <use id="arrowdown" xlink:href="#arrowDown" x="0" y="0" onmousedown="handlePan(0,1)"/>
  <use id="arrowleft" xlink:href="#arrowLeft" x="0" y="0" onmousedown="handlePan(-1,0)"/>
</g>
<svg viewBox="0 0 15 15" width="100%" height="30px" preserveAspectRatio="xMaxYMin meet">
 <g id="arrow_out" transform="scale(0.3 0.3)">
  <a xlink:href="RBFInterpolant__fwd_8hpp__incl_org.svg" target="_base">
   <rect id="button" ry="5" rx="5" y="6" x="6" height="38" width="38"
        fill="#f2f5e9" fill-opacity="0.5" stroke="#606060" stroke-width="1.0"/>
   <path id="arrow"
     d="M 11.500037,31.436501 C 11.940474,20.09759 22.043105,11.32322 32.158766,21.979434 L 37.068811,17.246167 C 37.068811,17.246167 37.088388,32 37.088388,32 L 22.160133,31.978069 C 22.160133,31.978069 26.997745,27.140456 26.997745,27.140456 C 18.528582,18.264221 13.291696,25.230495 11.500037,31.436501 z"
     style="fill:#404040;"/>
  </a>
 </g>
</svg>

<style type='text/css'>
<![CDATA[
[data-mouse-over-selected='false'] { opacity: 0.7; }
[data-mouse-over-selected='true']  { opacity: 1.0; }
]]>
</style>
<script type="application/ecmascript"><![CDATA[
document.addEventListener('DOMContentLoaded', (event) => {
  highlightEdges();
  highlightAdjacentNodes();
});
]]></script>
</svg>
