<?xml version="1.0" encoding="UTF-8" standalone="no"?>
<!DOCTYPE svg PUBLIC "-//W3C//DTD SVG 1.1//EN"
 "http://www.w3.org/Graphics/SVG/1.1/DTD/svg11.dtd">
<!-- Generated by graphviz version 2.43.0 (0)
 -->
<!-- Title: src/approximations/RBFInterpolant.cpp Pages: 1 -->
<!--zoomable 544 -->

<svg id="main" version="1.1" xmlns="http://www.w3.org/2000/svg" xmlns:xlink="http://www.w3.org/1999/xlink" xml:space="preserve" onload="init(evt)">
<style type="text/css"><![CDATA[
.node, .edge {opacity: 0.7;}
.node.selected, .edge.selected {opacity: 1;}
.edge:hover path { stroke: red; }
.edge:hover polygon { stroke: red; fill: red; }
]]></style>

<defs>
  <circle id="rim" cx="0" cy="0" r="7"/>
  <circle id="rim2" cx="0" cy="0" r="3.5"/>
  <g id="zoomPlus">
    <use xlink:href="#rim" fill="#404040"><set attributeName="fill" to="#808080" begin="zoomplus.mouseover" end="zoomplus.mouseout"/></use>
    <path d="M-4,0h8M0,-4v8" fill="none" stroke="white" stroke-width="1.5" pointer-events="none"/>
  </g>
  <g id="zoomMin">
    <use xlink:href="#rim" fill="#404040"><set attributeName="fill" to="#808080" begin="zoomminus.mouseover" end="zoomminus.mouseout"/></use>
    <path d="M-4,0h8" fill="none" stroke="white" stroke-width="1.5" pointer-events="none"/>
  </g>
  <g id="arrowUp" transform="translate(30 24)">
    <use xlink:href="#rim"/>
    <path pointer-events="none" fill="none" stroke="white" stroke-width="1.5" d="M0,-3.0v7 M-2.5,-0.5L0,-3.0L2.5,-0.5"/>
  </g>
  <g id="arrowRight" transform="rotate(90) translate(36 -43)">
    <use xlink:href="#rim"/>
    <path pointer-events="none" fill="none" stroke="white" stroke-width="1.5" d="M0,-3.0v7 M-2.5,-0.5L0,-3.0L2.5,-0.5"/>
  </g>
  <g id="arrowDown" transform="rotate(180) translate(-30 -48)">
    <use xlink:href="#rim"/>
    <path pointer-events="none" fill="none" stroke="white" stroke-width="1.5" d="M0,-3.0v7 M-2.5,-0.5L0,-3.0L2.5,-0.5"/>
  </g>
  <g id="arrowLeft" transform="rotate(270) translate(-36 17)">
    <use xlink:href="#rim"/>
    <path pointer-events="none" fill="none" stroke="white" stroke-width="1.5" d="M0,-3.0v7 M-2.5,-0.5L0,-3.0L2.5,-0.5"/>
  </g>
  <g id="resetDef">
    <use xlink:href="#rim2" fill="#404040"><set attributeName="fill" to="#808080" begin="reset.mouseover" end="reset.mouseout"/></use>
  </g>
</defs>
<script type="application/ecmascript">
var viewWidth = 1036;
var viewHeight = 544;
var sectionId = 'dynsection-0';
</script>
<script type="application/ecmascript" xlink:href="svg.min.js"/>
<svg id="graph" class="graph">
<g id="viewport">
<title>src/approximations/RBFInterpolant.cpp</title>
<!-- Node1 -->
<g id="Node000001" class="node">
<title>Node1</title>
<g id="a_Node000001"><a xlink:title="Instantiations of commonly used RBFInterpolant instances.">
<polygon fill="#999999" stroke="#666666" points="511.5,-536 398.5,-536 398.5,-506 511.5,-506 511.5,-536"/>
<text text-anchor="start" x="406.5" y="-524" font-family="Helvetica,sans-Serif" font-size="10.00">src/approximations</text>
<text text-anchor="middle" x="455" y="-513" font-family="Helvetica,sans-Serif" font-size="10.00">/RBFInterpolant.cpp</text>
</a>
</g>
</g>
<!-- Node2 -->
<g id="Node000002" class="node">
<title>Node2</title>
<g id="a_Node000002"><a xlink:href="RBFInterpolant_8hpp.html" target="_top" xlink:title="Implementation of the RBFInterpolant class.">
<polygon fill="white" stroke="#666666" points="533,-470 377,-470 377,-440 533,-440 533,-470"/>
<text text-anchor="start" x="385" y="-458" font-family="Helvetica,sans-Serif" font-size="10.00">medusa/bits/approximations</text>
<text text-anchor="middle" x="455" y="-447" font-family="Helvetica,sans-Serif" font-size="10.00">/RBFInterpolant.hpp</text>
</a>
</g>
</g>
<!-- Node1&#45;&gt;Node2 -->
<g id="edge1_Node000001_Node000002" class="edge">
<title>Node1&#45;&gt;Node2</title>
<g id="a_edge1_Node000001_Node000002"><a xlink:title=" ">
<path fill="none" stroke="#63b8ff" d="M455,-505.8C455,-498.34 455,-488.99 455,-480.41"/>
<polygon fill="#63b8ff" stroke="#63b8ff" points="458.5,-480.16 455,-470.16 451.5,-480.16 458.5,-480.16"/>
</a>
</g>
</g>
<!-- Node3 -->
<g id="Node000003" class="node">
<title>Node3</title>
<g id="a_Node000003"><a xlink:href="RBFInterpolant__fwd_8hpp.html" target="_top" xlink:title="RBFInterpolant class definition.">
<polygon fill="white" stroke="#666666" points="521.5,-404 388.5,-404 388.5,-385 521.5,-385 521.5,-404"/>
<text text-anchor="middle" x="455" y="-392" font-family="Helvetica,sans-Serif" font-size="10.00">RBFInterpolant_fwd.hpp</text>
</a>
</g>
</g>
<!-- Node2&#45;&gt;Node3 -->
<g id="edge2_Node000002_Node000003" class="edge">
<title>Node2&#45;&gt;Node3</title>
<g id="a_edge2_Node000002_Node000003"><a xlink:title=" ">
<path fill="none" stroke="#63b8ff" d="M455,-439.84C455,-432.21 455,-422.7 455,-414.45"/>
<polygon fill="#63b8ff" stroke="#63b8ff" points="458.5,-414.27 455,-404.27 451.5,-414.27 458.5,-414.27"/>
</a>
</g>
</g>
<!-- Node12 -->
<g id="Node000012" class="node">
<title>Node12</title>
<g id="a_Node000012"><a xlink:href="assert_8hpp.html" target="_top" xlink:title="Implementation of custom assert and debug utilities.">
<polygon fill="white" stroke="#666666" points="221.5,-129 66.5,-129 66.5,-110 221.5,-110 221.5,-129"/>
<text text-anchor="middle" x="144" y="-117" font-family="Helvetica,sans-Serif" font-size="10.00">medusa/bits/utils/assert.hpp</text>
</a>
</g>
</g>
<!-- Node2&#45;&gt;Node12 -->
<g id="edge53_Node000002_Node000012" class="edge">
<title>Node2&#45;&gt;Node12</title>
<g id="a_edge53_Node000002_Node000012"><a xlink:title=" ">
<path fill="none" stroke="#63b8ff" d="M376.78,-450.49C246.69,-442.5 0,-417.23 0,-340.5 0,-340.5 0,-340.5 0,-283.5 0,-212.74 77.17,-158.23 118.52,-134.1"/>
<polygon fill="#63b8ff" stroke="#63b8ff" points="120.51,-136.99 127.48,-129.02 117.06,-130.9 120.51,-136.99"/>
</a>
</g>
</g>
<!-- Node27 -->
<g id="Node000027" class="node">
<title>Node27</title>
<g id="a_Node000027"><a xlink:href="RBFBasis_8hpp.html" target="_top" xlink:title="Implementation of RBF basis.">
<polygon fill="white" stroke="#666666" points="591.5,-349 508.5,-349 508.5,-330 591.5,-330 591.5,-349"/>
<text text-anchor="middle" x="550" y="-337" font-family="Helvetica,sans-Serif" font-size="10.00">RBFBasis.hpp</text>
</a>
</g>
</g>
<!-- Node2&#45;&gt;Node27 -->
<g id="edge46_Node000002_Node000027" class="edge">
<title>Node2&#45;&gt;Node27</title>
<g id="a_edge46_Node000002_Node000027"><a xlink:title=" ">
<path fill="none" stroke="#63b8ff" d="M486.21,-439.95C501.7,-431.54 519.5,-419.46 531,-404 540.77,-390.87 545.55,-372.74 547.87,-359.21"/>
<polygon fill="#63b8ff" stroke="#63b8ff" points="551.35,-359.53 549.29,-349.14 544.42,-358.55 551.35,-359.53"/>
</a>
</g>
</g>
<!-- Node4 -->
<g id="Node000004" class="node">
<title>Node4</title>
<g id="a_Node000004"><a xlink:href="Config_8hpp.html" target="_top" xlink:title="Contains compile time settings for the project, such as Eigen plugins.">
<polygon fill="white" stroke="#666666" points="614,-129 504,-129 504,-110 614,-110 614,-129"/>
<text text-anchor="middle" x="559" y="-117" font-family="Helvetica,sans-Serif" font-size="10.00">medusa/Config.hpp</text>
</a>
</g>
</g>
<!-- Node3&#45;&gt;Node4 -->
<g id="edge3_Node000003_Node000004" class="edge">
<title>Node3&#45;&gt;Node4</title>
<g id="a_edge3_Node000003_Node000004"><a xlink:title=" ">
<path fill="none" stroke="#63b8ff" d="M451.74,-384.67C442.53,-358.24 418.66,-277.96 445,-220 447.58,-214.32 509.21,-162.19 540.75,-135.75"/>
<polygon fill="#63b8ff" stroke="#63b8ff" points="543.36,-138.13 548.78,-129.03 538.86,-132.76 543.36,-138.13"/>
</a>
</g>
</g>
<!-- Node6 -->
<g id="Node000006" class="node">
<title>Node6</title>
<g id="a_Node000006"><a xlink:title=" ">
<polygon fill="#e0e0e0" stroke="#999999" points="885.5,-129 816.5,-129 816.5,-110 885.5,-110 885.5,-129"/>
<text text-anchor="middle" x="851" y="-117" font-family="Helvetica,sans-Serif" font-size="10.00">Eigen/Core</text>
</a>
</g>
</g>
<!-- Node3&#45;&gt;Node6 -->
<g id="edge5_Node000003_Node000006" class="edge">
<title>Node3&#45;&gt;Node6</title>
<g id="a_edge5_Node000003_Node000006"><a xlink:title=" ">
<path fill="none" stroke="#63b8ff" d="M521.57,-387.86C672.56,-374.17 1028,-336.53 1028,-285.5 1028,-285.5 1028,-285.5 1028,-228.5 1028,-166.57 948.07,-139.1 895.64,-127.75"/>
<polygon fill="#63b8ff" stroke="#63b8ff" points="896.05,-124.26 885.55,-125.69 894.64,-131.12 896.05,-124.26"/>
</a>
</g>
</g>
<!-- Node7 -->
<g id="Node000007" class="node">
<title>Node7</title>
<g id="a_Node000007"><a xlink:href="Monomials_8hpp.html" target="_top" xlink:title="Implementation of Monomial basis.">
<polygon fill="white" stroke="#666666" points="402,-349 310,-349 310,-330 402,-330 402,-349"/>
<text text-anchor="middle" x="356" y="-337" font-family="Helvetica,sans-Serif" font-size="10.00">Monomials.hpp</text>
</a>
</g>
</g>
<!-- Node3&#45;&gt;Node7 -->
<g id="edge6_Node000003_Node000007" class="edge">
<title>Node3&#45;&gt;Node7</title>
<g id="a_edge6_Node000003_Node000007"><a xlink:title=" ">
<path fill="none" stroke="#63b8ff" d="M439.09,-384.98C423.45,-376.61 399.34,-363.7 381.12,-353.95"/>
<polygon fill="#63b8ff" stroke="#63b8ff" points="382.66,-350.8 372.2,-349.17 379.36,-356.98 382.66,-350.8"/>
</a>
</g>
</g>
<!-- Node5 -->
<g id="Node000005" class="node">
<title>Node5</title>
<g id="a_Node000005"><a xlink:title=" ">
<polygon fill="#e0e0e0" stroke="#999999" points="519.5,-19 472.5,-19 472.5,0 519.5,0 519.5,-19"/>
<text text-anchor="middle" x="496" y="-7" font-family="Helvetica,sans-Serif" font-size="10.00">vector</text>
</a>
</g>
</g>
<!-- Node4&#45;&gt;Node5 -->
<g id="edge4_Node000004_Node000005" class="edge">
<title>Node4&#45;&gt;Node5</title>
<g id="a_edge4_Node000004_Node000005"><a xlink:title=" ">
<path fill="none" stroke="#63b8ff" d="M553.84,-109.66C543.46,-91.85 519.84,-51.37 506.21,-28.01"/>
<polygon fill="#63b8ff" stroke="#63b8ff" points="509.11,-26.03 501.05,-19.16 503.07,-29.56 509.11,-26.03"/>
</a>
</g>
</g>
<!-- Node8 -->
<g id="Node000008" class="node">
<title>Node8</title>
<g id="a_Node000008"><a xlink:href="Monomials__fwd_8hpp.html" target="_top" xlink:title="Declaration of Monomial basis.">
<polygon fill="white" stroke="#666666" points="848,-184 734,-184 734,-165 848,-165 848,-184"/>
<text text-anchor="middle" x="791" y="-172" font-family="Helvetica,sans-Serif" font-size="10.00">Monomials_fwd.hpp</text>
</a>
</g>
</g>
<!-- Node7&#45;&gt;Node8 -->
<g id="edge7_Node000007_Node000008" class="edge">
<title>Node7&#45;&gt;Node8</title>
<g id="a_edge7_Node000007_Node000008"><a xlink:title=" ">
<path fill="none" stroke="#63b8ff" d="M381.25,-329.98C430.5,-313.25 542.76,-274.64 636,-239 680.12,-222.13 730.65,-201.11 761.69,-187.99"/>
<polygon fill="#63b8ff" stroke="#63b8ff" points="763.21,-191.15 771.06,-184.02 760.48,-184.7 763.21,-191.15"/>
</a>
</g>
</g>
<!-- Node7&#45;&gt;Node12 -->
<g id="edge13_Node000007_Node000012" class="edge">
<title>Node7&#45;&gt;Node12</title>
<g id="a_edge13_Node000007_Node000012"><a xlink:title=" ">
<path fill="none" stroke="#63b8ff" d="M310,-337.34C243.69,-334.58 126.32,-325.29 100,-294 63.09,-250.12 78.21,-218.03 100,-165 104.81,-153.31 114.33,-143.05 123.3,-135.34"/>
<polygon fill="#63b8ff" stroke="#63b8ff" points="125.6,-137.98 131.22,-129 121.23,-132.51 125.6,-137.98"/>
</a>
</g>
</g>
<!-- Node15 -->
<g id="Node000015" class="node">
<title>Node15</title>
<g id="a_Node000015"><a xlink:title=" ">
<polygon fill="#e0e0e0" stroke="#999999" points="93,-19 33,-19 33,0 93,0 93,-19"/>
<text text-anchor="middle" x="63" y="-7" font-family="Helvetica,sans-Serif" font-size="10.00">iostream</text>
</a>
</g>
</g>
<!-- Node7&#45;&gt;Node15 -->
<g id="edge38_Node000007_Node000015" class="edge">
<title>Node7&#45;&gt;Node15</title>
<g id="a_edge38_Node000007_Node000015"><a xlink:title=" ">
<path fill="none" stroke="#63b8ff" d="M309.88,-337.19C240.8,-334.24 115.23,-324.68 84,-294 10.68,-221.97 42.75,-79.52 57.27,-28.89"/>
<polygon fill="#63b8ff" stroke="#63b8ff" points="60.7,-29.63 60.21,-19.05 53.99,-27.63 60.7,-29.63"/>
</a>
</g>
</g>
<!-- Node18 -->
<g id="Node000018" class="node">
<title>Node18</title>
<g id="a_Node000018"><a xlink:href="numutils_8hpp.html" target="_top" xlink:title="Declaration of numerical utilities.">
<polygon fill="white" stroke="#666666" points="402.5,-294 235.5,-294 235.5,-275 402.5,-275 402.5,-294"/>
<text text-anchor="middle" x="319" y="-282" font-family="Helvetica,sans-Serif" font-size="10.00">medusa/bits/utils/numutils.hpp</text>
</a>
</g>
</g>
<!-- Node7&#45;&gt;Node18 -->
<g id="edge21_Node000007_Node000018" class="edge">
<title>Node7&#45;&gt;Node18</title>
<g id="a_edge21_Node000007_Node000018"><a xlink:title=" ">
<path fill="none" stroke="#63b8ff" d="M349.89,-329.75C344.72,-322.34 337.15,-311.5 330.81,-302.41"/>
<polygon fill="#63b8ff" stroke="#63b8ff" points="333.59,-300.29 325,-294.09 327.85,-304.29 333.59,-300.29"/>
</a>
</g>
</g>
<!-- Node26 -->
<g id="Node000026" class="node">
<title>Node26</title>
<g id="a_Node000026"><a xlink:href="Operators__fwd_8hpp.html" target="_top" xlink:title="File defining basic differential operator families.">
<polygon fill="white" stroke="#666666" points="880,-239 772,-239 772,-220 880,-220 880,-239"/>
<text text-anchor="middle" x="826" y="-227" font-family="Helvetica,sans-Serif" font-size="10.00">Operators_fwd.hpp</text>
</a>
</g>
</g>
<!-- Node7&#45;&gt;Node26 -->
<g id="edge39_Node000007_Node000026" class="edge">
<title>Node7&#45;&gt;Node26</title>
<g id="a_edge39_Node000007_Node000026"><a xlink:title=" ">
<path fill="none" stroke="#63b8ff" d="M393.27,-329.94C478.11,-310.44 685.51,-262.78 778.97,-241.31"/>
<polygon fill="#63b8ff" stroke="#63b8ff" points="779.76,-244.72 788.72,-239.07 778.19,-237.89 779.76,-244.72"/>
</a>
</g>
</g>
<!-- Node8&#45;&gt;Node4 -->
<g id="edge8_Node000008_Node000004" class="edge">
<title>Node8&#45;&gt;Node4</title>
<g id="a_edge8_Node000008_Node000004"><a xlink:title=" ">
<path fill="none" stroke="#63b8ff" d="M753.73,-164.98C713.68,-155.84 649.93,-141.27 606.36,-131.32"/>
<polygon fill="#63b8ff" stroke="#63b8ff" points="607.1,-127.9 596.57,-129.08 605.54,-134.72 607.1,-127.9"/>
</a>
</g>
</g>
<!-- Node8&#45;&gt;Node6 -->
<g id="edge11_Node000008_Node000006" class="edge">
<title>Node8&#45;&gt;Node6</title>
<g id="a_edge11_Node000008_Node000006"><a xlink:title=" ">
<path fill="none" stroke="#63b8ff" d="M800.64,-164.98C809.51,-157.15 822.87,-145.34 833.61,-135.86"/>
<polygon fill="#63b8ff" stroke="#63b8ff" points="836.01,-138.41 841.18,-129.17 831.37,-133.17 836.01,-138.41"/>
</a>
</g>
</g>
<!-- Node9 -->
<g id="Node000009" class="node">
<title>Node9</title>
<g id="a_Node000009"><a xlink:title=" ">
<polygon fill="#e0e0e0" stroke="#999999" points="719.5,-129 672.5,-129 672.5,-110 719.5,-110 719.5,-129"/>
<text text-anchor="middle" x="696" y="-117" font-family="Helvetica,sans-Serif" font-size="10.00">cmath</text>
</a>
</g>
</g>
<!-- Node8&#45;&gt;Node9 -->
<g id="edge9_Node000008_Node000009" class="edge">
<title>Node8&#45;&gt;Node9</title>
<g id="a_edge9_Node000008_Node000009"><a xlink:title=" ">
<path fill="none" stroke="#63b8ff" d="M775.74,-164.98C760.87,-156.69 738.02,-143.94 720.58,-134.22"/>
<polygon fill="#63b8ff" stroke="#63b8ff" points="721.98,-130.99 711.54,-129.17 718.57,-137.1 721.98,-130.99"/>
</a>
</g>
</g>
<!-- Node10 -->
<g id="Node000010" class="node">
<title>Node10</title>
<g id="a_Node000010"><a xlink:title=" ">
<polygon fill="#e0e0e0" stroke="#999999" points="932,-19 890,-19 890,0 932,0 932,-19"/>
<text text-anchor="middle" x="911" y="-7" font-family="Helvetica,sans-Serif" font-size="10.00">array</text>
</a>
</g>
</g>
<!-- Node8&#45;&gt;Node10 -->
<g id="edge10_Node000008_Node000010" class="edge">
<title>Node8&#45;&gt;Node10</title>
<g id="a_edge10_Node000008_Node000010"><a xlink:title=" ">
<path fill="none" stroke="#63b8ff" d="M791.85,-164.71C793.41,-151.9 797.58,-127.7 808,-110 829.14,-74.09 866.74,-42.56 890.2,-25.06"/>
<polygon fill="#63b8ff" stroke="#63b8ff" points="892.41,-27.78 898.43,-19.06 888.28,-22.12 892.41,-27.78"/>
</a>
</g>
</g>
<!-- Node11 -->
<g id="Node000011" class="node">
<title>Node11</title>
<g id="a_Node000011"><a xlink:title=" ">
<polygon fill="#e0e0e0" stroke="#999999" points="484,-129 436,-129 436,-110 484,-110 484,-129"/>
<text text-anchor="middle" x="460" y="-117" font-family="Helvetica,sans-Serif" font-size="10.00">iosfwd</text>
</a>
</g>
</g>
<!-- Node8&#45;&gt;Node11 -->
<g id="edge12_Node000008_Node000011" class="edge">
<title>Node8&#45;&gt;Node11</title>
<g id="a_edge12_Node000008_Node000011"><a xlink:title=" ">
<path fill="none" stroke="#63b8ff" d="M734,-166.46C674.2,-158.72 577.61,-145.21 495,-129 494.67,-128.93 494.33,-128.87 493.99,-128.8"/>
<polygon fill="#63b8ff" stroke="#63b8ff" points="494.55,-125.34 484.04,-126.64 493.07,-132.18 494.55,-125.34"/>
</a>
</g>
</g>
<!-- Node13 -->
<g id="Node000013" class="node">
<title>Node13</title>
<g id="a_Node000013"><a xlink:title=" ">
<polygon fill="#e0e0e0" stroke="#999999" points="210,-74 78,-74 78,-55 210,-55 210,-74"/>
<text text-anchor="middle" x="144" y="-62" font-family="Helvetica,sans-Serif" font-size="10.00">tinyformat/tinyformat.h</text>
</a>
</g>
</g>
<!-- Node12&#45;&gt;Node13 -->
<g id="edge14_Node000012_Node000013" class="edge">
<title>Node12&#45;&gt;Node13</title>
<g id="a_edge14_Node000012_Node000013"><a xlink:title=" ">
<path fill="none" stroke="#63b8ff" d="M144,-109.75C144,-102.8 144,-92.85 144,-84.13"/>
<polygon fill="#63b8ff" stroke="#63b8ff" points="147.5,-84.09 144,-74.09 140.5,-84.09 147.5,-84.09"/>
</a>
</g>
</g>
<!-- Node14 -->
<g id="Node000014" class="node">
<title>Node14</title>
<g id="a_Node000014"><a xlink:href="print_8hpp.html" target="_top" xlink:title="Printing helpers for std types.">
<polygon fill="white" stroke="#666666" points="334,-74 274,-74 274,-55 334,-55 334,-74"/>
<text text-anchor="middle" x="304" y="-62" font-family="Helvetica,sans-Serif" font-size="10.00">print.hpp</text>
</a>
</g>
</g>
<!-- Node12&#45;&gt;Node14 -->
<g id="edge15_Node000012_Node000014" class="edge">
<title>Node12&#45;&gt;Node14</title>
<g id="a_edge15_Node000012_Node000014"><a xlink:title=" ">
<path fill="none" stroke="#63b8ff" d="M169.71,-109.98C196.45,-101.13 238.53,-87.19 268.45,-77.28"/>
<polygon fill="#63b8ff" stroke="#63b8ff" points="269.7,-80.55 278.09,-74.08 267.5,-73.9 269.7,-80.55"/>
</a>
</g>
</g>
<!-- Node14&#45;&gt;Node5 -->
<g id="edge17_Node000014_Node000005" class="edge">
<title>Node14&#45;&gt;Node5</title>
<g id="a_edge17_Node000014_Node000005"><a xlink:title=" ">
<path fill="none" stroke="#63b8ff" d="M334,-55.22C368.75,-45.63 425.86,-29.86 462.16,-19.84"/>
<polygon fill="#63b8ff" stroke="#63b8ff" points="463.56,-23.09 472.26,-17.05 461.69,-16.34 463.56,-23.09"/>
</a>
</g>
</g>
<!-- Node14&#45;&gt;Node10 -->
<g id="edge18_Node000014_Node000010" class="edge">
<title>Node14&#45;&gt;Node10</title>
<g id="a_edge18_Node000014_Node000010"><a xlink:title=" ">
<path fill="none" stroke="#63b8ff" d="M334.1,-60.87C437.03,-51.88 774.39,-22.43 879.46,-13.25"/>
<polygon fill="#63b8ff" stroke="#63b8ff" points="880.07,-16.71 889.73,-12.36 879.46,-9.74 880.07,-16.71"/>
</a>
</g>
</g>
<!-- Node14&#45;&gt;Node15 -->
<g id="edge16_Node000014_Node000015" class="edge">
<title>Node14&#45;&gt;Node15</title>
<g id="a_edge16_Node000014_Node000015"><a xlink:title=" ">
<path fill="none" stroke="#63b8ff" d="M273.96,-56.89C230.82,-47.41 151.22,-29.9 103.09,-19.32"/>
<polygon fill="#63b8ff" stroke="#63b8ff" points="103.55,-15.83 93.03,-17.11 102.05,-22.67 103.55,-15.83"/>
</a>
</g>
</g>
<!-- Node16 -->
<g id="Node000016" class="node">
<title>Node16</title>
<g id="a_Node000016"><a xlink:title=" ">
<polygon fill="#e0e0e0" stroke="#999999" points="296.5,-19 251.5,-19 251.5,0 296.5,0 296.5,-19"/>
<text text-anchor="middle" x="274" y="-7" font-family="Helvetica,sans-Serif" font-size="10.00">utility</text>
</a>
</g>
</g>
<!-- Node14&#45;&gt;Node16 -->
<g id="edge19_Node000014_Node000016" class="edge">
<title>Node14&#45;&gt;Node16</title>
<g id="a_edge19_Node000014_Node000016"><a xlink:title=" ">
<path fill="none" stroke="#63b8ff" d="M299.05,-54.75C294.94,-47.49 288.97,-36.95 283.9,-27.98"/>
<polygon fill="#63b8ff" stroke="#63b8ff" points="286.83,-26.07 278.86,-19.09 280.74,-29.52 286.83,-26.07"/>
</a>
</g>
</g>
<!-- Node17 -->
<g id="Node000017" class="node">
<title>Node17</title>
<g id="a_Node000017"><a xlink:title=" ">
<polygon fill="#e0e0e0" stroke="#999999" points="355.5,-19 314.5,-19 314.5,0 355.5,0 355.5,-19"/>
<text text-anchor="middle" x="335" y="-7" font-family="Helvetica,sans-Serif" font-size="10.00">tuple</text>
</a>
</g>
</g>
<!-- Node14&#45;&gt;Node17 -->
<g id="edge20_Node000014_Node000017" class="edge">
<title>Node14&#45;&gt;Node17</title>
<g id="a_edge20_Node000014_Node000017"><a xlink:title=" ">
<path fill="none" stroke="#63b8ff" d="M309.12,-54.75C313.36,-47.49 319.53,-36.95 324.78,-27.98"/>
<polygon fill="#63b8ff" stroke="#63b8ff" points="327.95,-29.49 329.98,-19.09 321.91,-25.95 327.95,-29.49"/>
</a>
</g>
</g>
<!-- Node18&#45;&gt;Node4 -->
<g id="edge22_Node000018_Node000004" class="edge">
<title>Node18&#45;&gt;Node4</title>
<g id="a_edge22_Node000018_Node000004"><a xlink:title=" ">
<path fill="none" stroke="#63b8ff" d="M330.17,-274.75C356.18,-254.52 423.04,-203.32 482,-165 499.05,-153.92 518.93,-142.47 534.22,-133.95"/>
<polygon fill="#63b8ff" stroke="#63b8ff" points="536.02,-136.96 543.08,-129.06 532.63,-130.83 536.02,-136.96"/>
</a>
</g>
</g>
<!-- Node18&#45;&gt;Node9 -->
<g id="edge37_Node000018_Node000009" class="edge">
<title>Node18&#45;&gt;Node9</title>
<g id="a_edge37_Node000018_Node000009"><a xlink:title=" ">
<path fill="none" stroke="#63b8ff" d="M395.17,-274.99C475.47,-265.53 592.86,-250.12 611,-239 650.26,-214.94 676.63,-165.26 688.62,-138.51"/>
<polygon fill="#63b8ff" stroke="#63b8ff" points="691.9,-139.75 692.63,-129.18 685.46,-136.98 691.9,-139.75"/>
</a>
</g>
</g>
<!-- Node18&#45;&gt;Node12 -->
<g id="edge23_Node000018_Node000012" class="edge">
<title>Node18&#45;&gt;Node12</title>
<g id="a_edge23_Node000018_Node000012"><a xlink:title=" ">
<path fill="none" stroke="#63b8ff" d="M261.09,-274.98C236.22,-268.71 208.46,-257.83 189,-239 160.76,-211.68 150.02,-164.81 146.11,-138.96"/>
<polygon fill="#63b8ff" stroke="#63b8ff" points="149.57,-138.45 144.79,-129 142.63,-139.37 149.57,-138.45"/>
</a>
</g>
</g>
<!-- Node19 -->
<g id="Node000019" class="node">
<title>Node19</title>
<g id="a_Node000019"><a xlink:href="Vec_8hpp.html" target="_top" xlink:title="Implemetations for Vec.">
<polygon fill="white" stroke="#666666" points="602,-239 454,-239 454,-220 602,-220 602,-239"/>
<text text-anchor="middle" x="528" y="-227" font-family="Helvetica,sans-Serif" font-size="10.00">medusa/bits/types/Vec.hpp</text>
</a>
</g>
</g>
<!-- Node18&#45;&gt;Node19 -->
<g id="edge24_Node000018_Node000019" class="edge">
<title>Node18&#45;&gt;Node19</title>
<g id="a_edge24_Node000018_Node000019"><a xlink:title=" ">
<path fill="none" stroke="#63b8ff" d="M352.58,-274.98C388.35,-265.91 445.12,-251.52 484.34,-241.57"/>
<polygon fill="#63b8ff" stroke="#63b8ff" points="485.32,-244.93 494.16,-239.08 483.6,-238.15 485.32,-244.93"/>
</a>
</g>
</g>
<!-- Node21 -->
<g id="Node000021" class="node">
<title>Node21</title>
<g id="a_Node000021"><a xlink:href="Range_8hpp.html" target="_top" xlink:title="Implementation of Range.">
<polygon fill="white" stroke="#666666" points="359.5,-239 198.5,-239 198.5,-220 359.5,-220 359.5,-239"/>
<text text-anchor="middle" x="279" y="-227" font-family="Helvetica,sans-Serif" font-size="10.00">medusa/bits/types/Range.hpp</text>
</a>
</g>
</g>
<!-- Node18&#45;&gt;Node21 -->
<g id="edge28_Node000018_Node000021" class="edge">
<title>Node18&#45;&gt;Node21</title>
<g id="a_edge28_Node000018_Node000021"><a xlink:title=" ">
<path fill="none" stroke="#63b8ff" d="M312.39,-274.75C306.74,-267.26 298.46,-256.28 291.55,-247.13"/>
<polygon fill="#63b8ff" stroke="#63b8ff" points="294.3,-244.96 285.48,-239.09 288.71,-249.18 294.3,-244.96"/>
</a>
</g>
</g>
<!-- Node20 -->
<g id="Node000020" class="node">
<title>Node20</title>
<g id="a_Node000020"><a xlink:href="Vec__fwd_8hpp.html" target="_top" xlink:title="Declaration of Vec.">
<polygon fill="white" stroke="#666666" points="601.5,-184 524.5,-184 524.5,-165 601.5,-165 601.5,-184"/>
<text text-anchor="middle" x="563" y="-172" font-family="Helvetica,sans-Serif" font-size="10.00">Vec_fwd.hpp</text>
</a>
</g>
</g>
<!-- Node19&#45;&gt;Node20 -->
<g id="edge25_Node000019_Node000020" class="edge">
<title>Node19&#45;&gt;Node20</title>
<g id="a_edge25_Node000019_Node000020"><a xlink:title=" ">
<path fill="none" stroke="#63b8ff" d="M533.78,-219.75C538.62,-212.42 545.68,-201.73 551.64,-192.7"/>
<polygon fill="#63b8ff" stroke="#63b8ff" points="554.74,-194.36 557.33,-184.09 548.9,-190.5 554.74,-194.36"/>
</a>
</g>
</g>
<!-- Node20&#45;&gt;Node4 -->
<g id="edge26_Node000020_Node000004" class="edge">
<title>Node20&#45;&gt;Node4</title>
<g id="a_edge26_Node000020_Node000004"><a xlink:title=" ">
<path fill="none" stroke="#63b8ff" d="M562.34,-164.75C561.82,-157.8 561.06,-147.85 560.41,-139.13"/>
<polygon fill="#63b8ff" stroke="#63b8ff" points="563.89,-138.8 559.65,-129.09 556.91,-139.32 563.89,-138.8"/>
</a>
</g>
</g>
<!-- Node20&#45;&gt;Node6 -->
<g id="edge27_Node000020_Node000006" class="edge">
<title>Node20&#45;&gt;Node6</title>
<g id="a_edge27_Node000020_Node000006"><a xlink:title=" ">
<path fill="none" stroke="#63b8ff" d="M601.54,-166.41C654.64,-156.64 750.09,-139.07 806.27,-128.73"/>
<polygon fill="#63b8ff" stroke="#63b8ff" points="807.09,-132.14 816.29,-126.89 805.82,-125.26 807.09,-132.14"/>
</a>
</g>
</g>
<!-- Node22 -->
<g id="Node000022" class="node">
<title>Node22</title>
<g id="a_Node000022"><a xlink:href="Range__fwd_8hpp.html" target="_top" xlink:title="Declaration of Range.">
<polygon fill="white" stroke="#666666" points="391.5,-184 300.5,-184 300.5,-165 391.5,-165 391.5,-184"/>
<text text-anchor="middle" x="346" y="-172" font-family="Helvetica,sans-Serif" font-size="10.00">Range_fwd.hpp</text>
</a>
</g>
</g>
<!-- Node21&#45;&gt;Node22 -->
<g id="edge29_Node000021_Node000022" class="edge">
<title>Node21&#45;&gt;Node22</title>
<g id="a_edge29_Node000021_Node000022"><a xlink:title=" ">
<path fill="none" stroke="#63b8ff" d="M289.76,-219.98C299.77,-212.07 314.89,-200.11 326.93,-190.58"/>
<polygon fill="#63b8ff" stroke="#63b8ff" points="329.37,-193.12 335.04,-184.17 325.03,-187.63 329.37,-193.12"/>
</a>
</g>
</g>
<!-- Node25 -->
<g id="Node000025" class="node">
<title>Node25</title>
<g id="a_Node000025"><a xlink:title=" ">
<polygon fill="#e0e0e0" stroke="#999999" points="244,-184 180,-184 180,-165 244,-165 244,-184"/>
<text text-anchor="middle" x="212" y="-172" font-family="Helvetica,sans-Serif" font-size="10.00">algorithm</text>
</a>
</g>
</g>
<!-- Node21&#45;&gt;Node25 -->
<g id="edge36_Node000021_Node000025" class="edge">
<title>Node21&#45;&gt;Node25</title>
<g id="a_edge36_Node000021_Node000025"><a xlink:title=" ">
<path fill="none" stroke="#63b8ff" d="M268.24,-219.98C258.23,-212.07 243.11,-200.11 231.07,-190.58"/>
<polygon fill="#63b8ff" stroke="#63b8ff" points="232.97,-187.63 222.96,-184.17 228.63,-193.12 232.97,-187.63"/>
</a>
</g>
</g>
<!-- Node22&#45;&gt;Node4 -->
<g id="edge30_Node000022_Node000004" class="edge">
<title>Node22&#45;&gt;Node4</title>
<g id="a_edge30_Node000022_Node000004"><a xlink:title=" ">
<path fill="none" stroke="#63b8ff" d="M380.22,-164.98C416.76,-155.89 474.78,-141.46 514.76,-131.51"/>
<polygon fill="#63b8ff" stroke="#63b8ff" points="515.65,-134.89 524.51,-129.08 513.96,-128.1 515.65,-134.89"/>
</a>
</g>
</g>
<!-- Node22&#45;&gt;Node5 -->
<g id="edge34_Node000022_Node000005" class="edge">
<title>Node22&#45;&gt;Node5</title>
<g id="a_edge34_Node000022_Node000005"><a xlink:title=" ">
<path fill="none" stroke="#63b8ff" d="M354.41,-164.68C362.92,-155.73 376.44,-141.46 388,-129 421.72,-92.65 460.8,-49.51 481.46,-26.63"/>
<polygon fill="#63b8ff" stroke="#63b8ff" points="484.09,-28.94 488.19,-19.17 478.89,-24.25 484.09,-28.94"/>
</a>
</g>
</g>
<!-- Node22&#45;&gt;Node11 -->
<g id="edge35_Node000022_Node000011" class="edge">
<title>Node22&#45;&gt;Node11</title>
<g id="a_edge35_Node000022_Node000011"><a xlink:title=" ">
<path fill="none" stroke="#63b8ff" d="M364.32,-164.98C382.66,-156.46 411.11,-143.23 432.23,-133.41"/>
<polygon fill="#63b8ff" stroke="#63b8ff" points="433.76,-136.56 441.35,-129.17 430.81,-130.21 433.76,-136.56"/>
</a>
</g>
</g>
<!-- Node22&#45;&gt;Node12 -->
<g id="edge31_Node000022_Node000012" class="edge">
<title>Node22&#45;&gt;Node12</title>
<g id="a_edge31_Node000022_Node000012"><a xlink:title=" ">
<path fill="none" stroke="#63b8ff" d="M313.55,-164.98C279.04,-155.93 224.34,-141.58 186.44,-131.64"/>
<polygon fill="#63b8ff" stroke="#63b8ff" points="187.27,-128.23 176.71,-129.08 185.49,-135.01 187.27,-128.23"/>
</a>
</g>
</g>
<!-- Node23 -->
<g id="Node000023" class="node">
<title>Node23</title>
<g id="a_Node000023"><a xlink:href="traits_8hpp.html" target="_top" xlink:title="Type traits definition for vector and scalar fields.">
<polygon fill="white" stroke="#666666" points="379.5,-129 316.5,-129 316.5,-110 379.5,-110 379.5,-129"/>
<text text-anchor="middle" x="348" y="-117" font-family="Helvetica,sans-Serif" font-size="10.00">traits.hpp</text>
</a>
</g>
</g>
<!-- Node22&#45;&gt;Node23 -->
<g id="edge32_Node000022_Node000023" class="edge">
<title>Node22&#45;&gt;Node23</title>
<g id="a_edge32_Node000022_Node000023"><a xlink:title=" ">
<path fill="none" stroke="#63b8ff" d="M346.33,-164.75C346.59,-157.8 346.97,-147.85 347.3,-139.13"/>
<polygon fill="#63b8ff" stroke="#63b8ff" points="350.8,-139.21 347.68,-129.09 343.8,-138.95 350.8,-139.21"/>
</a>
</g>
</g>
<!-- Node24 -->
<g id="Node000024" class="node">
<title>Node24</title>
<g id="a_Node000024"><a xlink:title=" ">
<polygon fill="#e0e0e0" stroke="#999999" points="298,-129 240,-129 240,-110 298,-110 298,-129"/>
<text text-anchor="middle" x="269" y="-117" font-family="Helvetica,sans-Serif" font-size="10.00">memory</text>
</a>
</g>
</g>
<!-- Node22&#45;&gt;Node24 -->
<g id="edge33_Node000022_Node000024" class="edge">
<title>Node22&#45;&gt;Node24</title>
<g id="a_edge33_Node000022_Node000024"><a xlink:title=" ">
<path fill="none" stroke="#63b8ff" d="M333.63,-164.98C321.91,-156.92 304.08,-144.65 290.11,-135.03"/>
<polygon fill="#63b8ff" stroke="#63b8ff" points="291.82,-131.96 281.6,-129.17 287.85,-137.72 291.82,-131.96"/>
</a>
</g>
</g>
<!-- Node26&#45;&gt;Node4 -->
<g id="edge40_Node000026_Node000004" class="edge">
<title>Node26&#45;&gt;Node4</title>
<g id="a_edge40_Node000026_Node000004"><a xlink:title=" ">
<path fill="none" stroke="#63b8ff" d="M806.63,-219.98C786.3,-211.02 753.4,-196.53 725,-184 705.88,-175.57 701.39,-172.78 682,-165 652.55,-153.18 618.6,-141.01 593.84,-132.38"/>
<polygon fill="#63b8ff" stroke="#63b8ff" points="594.76,-129 584.16,-129.03 592.47,-135.61 594.76,-129"/>
</a>
</g>
</g>
<!-- Node26&#45;&gt;Node5 -->
<g id="edge42_Node000026_Node000005" class="edge">
<title>Node26&#45;&gt;Node5</title>
<g id="a_edge42_Node000026_Node000005"><a xlink:title=" ">
<path fill="none" stroke="#63b8ff" d="M837.87,-219.96C864.53,-199.77 924.61,-147.9 895,-110 849.59,-51.88 617.54,-22.76 529.73,-13.69"/>
<polygon fill="#63b8ff" stroke="#63b8ff" points="529.82,-10.18 519.52,-12.66 529.11,-17.15 529.82,-10.18"/>
</a>
</g>
</g>
<!-- Node26&#45;&gt;Node6 -->
<g id="edge43_Node000026_Node000006" class="edge">
<title>Node26&#45;&gt;Node6</title>
<g id="a_edge43_Node000026_Node000006"><a xlink:title=" ">
<path fill="none" stroke="#63b8ff" d="M834.48,-219.85C842.05,-211.47 852.6,-198.01 857,-184 861.57,-169.46 859.49,-152.19 856.59,-139.34"/>
<polygon fill="#63b8ff" stroke="#63b8ff" points="859.89,-138.14 853.98,-129.36 853.12,-139.92 859.89,-138.14"/>
</a>
</g>
</g>
<!-- Node26&#45;&gt;Node8 -->
<g id="edge44_Node000026_Node000008" class="edge">
<title>Node26&#45;&gt;Node8</title>
<g id="a_edge44_Node000026_Node000008"><a xlink:title=" ">
<path fill="none" stroke="#63b8ff" d="M820.22,-219.75C815.38,-212.42 808.32,-201.73 802.36,-192.7"/>
<polygon fill="#63b8ff" stroke="#63b8ff" points="805.1,-190.5 796.67,-184.09 799.26,-194.36 805.1,-190.5"/>
</a>
</g>
</g>
<!-- Node26&#45;&gt;Node10 -->
<g id="edge41_Node000026_Node000010" class="edge">
<title>Node26&#45;&gt;Node10</title>
<g id="a_edge41_Node000026_Node000010"><a xlink:title=" ">
<path fill="none" stroke="#63b8ff" d="M873.14,-219.95C893.63,-213.64 915.72,-202.75 928,-184 959.72,-135.56 934.54,-62.63 919.79,-28.86"/>
<polygon fill="#63b8ff" stroke="#63b8ff" points="922.78,-27 915.45,-19.36 916.42,-29.91 922.78,-27"/>
</a>
</g>
</g>
<!-- Node26&#45;&gt;Node12 -->
<g id="edge45_Node000026_Node000012" class="edge">
<title>Node26&#45;&gt;Node12</title>
<g id="a_edge45_Node000026_Node000012"><a xlink:title=" ">
<path fill="none" stroke="#63b8ff" d="M771.96,-226.6C654.73,-222.07 380.41,-209.06 291,-184 272.82,-178.9 270.2,-172.8 253,-165 227.33,-153.36 197.69,-141.35 175.81,-132.75"/>
<polygon fill="#63b8ff" stroke="#63b8ff" points="176.93,-129.43 166.34,-129.05 174.38,-135.95 176.93,-129.43"/>
</a>
</g>
</g>
<!-- Node27&#45;&gt;Node12 -->
<g id="edge47_Node000027_Node000012" class="edge">
<title>Node27&#45;&gt;Node12</title>
<g id="a_edge47_Node000027_Node000012"><a xlink:title=" ">
<path fill="none" stroke="#63b8ff" d="M508.25,-336.03C432.3,-331.01 274.86,-317.99 226,-294 172.2,-267.58 161.18,-242.47 148,-184 144.69,-169.31 143.77,-152.27 143.63,-139.54"/>
<polygon fill="#63b8ff" stroke="#63b8ff" points="147.14,-139.27 143.68,-129.25 140.14,-139.23 147.14,-139.27"/>
</a>
</g>
</g>
<!-- Node28 -->
<g id="Node000028" class="node">
<title>Node28</title>
<g id="a_Node000028"><a xlink:href="RBFBasis__fwd_8hpp.html" target="_top" xlink:title="Declaration of RBF basis.">
<polygon fill="white" stroke="#666666" points="759,-294 653,-294 653,-275 759,-275 759,-294"/>
<text text-anchor="middle" x="706" y="-282" font-family="Helvetica,sans-Serif" font-size="10.00">RBFBasis_fwd.hpp</text>
</a>
</g>
</g>
<!-- Node27&#45;&gt;Node28 -->
<g id="edge48_Node000027_Node000028" class="edge">
<title>Node27&#45;&gt;Node28</title>
<g id="a_edge48_Node000027_Node000028"><a xlink:title=" ">
<path fill="none" stroke="#63b8ff" d="M575.06,-329.98C601.03,-321.16 641.81,-307.31 670.96,-297.41"/>
<polygon fill="#63b8ff" stroke="#63b8ff" points="672.4,-300.61 680.74,-294.08 670.15,-293.99 672.4,-300.61"/>
</a>
</g>
</g>
<!-- Node28&#45;&gt;Node4 -->
<g id="edge49_Node000028_Node000004" class="edge">
<title>Node28&#45;&gt;Node4</title>
<g id="a_edge49_Node000028_Node000004"><a xlink:title=" ">
<path fill="none" stroke="#63b8ff" d="M704.2,-274.58C701.25,-261.6 694.43,-237.19 682,-220 654.96,-182.6 610.44,-151.44 583.02,-134.43"/>
<polygon fill="#63b8ff" stroke="#63b8ff" points="584.8,-131.41 574.43,-129.22 581.16,-137.4 584.8,-131.41"/>
</a>
</g>
</g>
<!-- Node28&#45;&gt;Node10 -->
<g id="edge51_Node000028_Node000010" class="edge">
<title>Node28&#45;&gt;Node10</title>
<g id="a_edge51_Node000028_Node000010"><a xlink:title=" ">
<path fill="none" stroke="#63b8ff" d="M756.77,-274.94C838.46,-259.71 990,-224.82 990,-175.5 990,-175.5 990,-175.5 990,-118.5 990,-78.78 954.75,-43.93 931.34,-25.17"/>
<polygon fill="#63b8ff" stroke="#63b8ff" points="933.4,-22.34 923.34,-19.01 929.13,-27.89 933.4,-22.34"/>
</a>
</g>
</g>
<!-- Node28&#45;&gt;Node11 -->
<g id="edge50_Node000028_Node000011" class="edge">
<title>Node28&#45;&gt;Node11</title>
<g id="a_edge50_Node000028_Node000011"><a xlink:title=" ">
<path fill="none" stroke="#63b8ff" d="M694.82,-274.79C677.57,-261.65 643.1,-236.54 611,-220 570.86,-199.32 553.13,-209.69 516,-184 497.75,-171.38 481.56,-151.57 471.33,-137.43"/>
<polygon fill="#63b8ff" stroke="#63b8ff" points="474.11,-135.29 465.52,-129.09 468.37,-139.3 474.11,-135.29"/>
</a>
</g>
</g>
<!-- Node28&#45;&gt;Node26 -->
<g id="edge52_Node000028_Node000026" class="edge">
<title>Node28&#45;&gt;Node26</title>
<g id="a_edge52_Node000028_Node000026"><a xlink:title=" ">
<path fill="none" stroke="#63b8ff" d="M725.28,-274.98C744.67,-266.42 774.81,-253.11 797.07,-243.28"/>
<polygon fill="#63b8ff" stroke="#63b8ff" points="798.64,-246.41 806.37,-239.17 795.81,-240.01 798.64,-246.41"/>
</a>
</g>
</g>
</g>
</svg>

<g id="navigator" transform="translate(0 0)" fill="#404254">
  <rect fill="#f2f5e9" fill-opacity="0.5" stroke="#606060" stroke-width=".5" x="0" y="0" width="60" height="60"/>
  <use id="zoomplus" xlink:href="#zoomPlus" x="17" y="9" onmousedown="handleZoom(evt,'in')"/>
  <use id="zoomminus" xlink:href="#zoomMin" x="42" y="9" onmousedown="handleZoom(evt,'out')"/>
  <use id="reset" xlink:href="#resetDef" x="30" y="36" onmousedown="handleReset()"/>
   <use id="arrowup" xlink:href="#arrowUp" x="0" y="0" onmousedown="handlePan(0,-1)"/>
  <use id="arrowright" xlink:href="#arrowRight" x="0" y="0" onmousedown="handlePan(1,0)"/>
  <use id="arrowdown" xlink:href="#arrowDown" x="0" y="0" onmousedown="handlePan(0,1)"/>
  <use id="arrowleft" xlink:href="#arrowLeft" x="0" y="0" onmousedown="handlePan(-1,0)"/>
</g>
<svg viewBox="0 0 15 15" width="100%" height="30px" preserveAspectRatio="xMaxYMin meet">
 <g id="arrow_out" transform="scale(0.3 0.3)">
  <a xlink:href="RBFInterpolant_8cpp__incl_org.svg" target="_base">
   <rect id="button" ry="5" rx="5" y="6" x="6" height="38" width="38"
        fill="#f2f5e9" fill-opacity="0.5" stroke="#606060" stroke-width="1.0"/>
   <path id="arrow"
     d="M 11.500037,31.436501 C 11.940474,20.09759 22.043105,11.32322 32.158766,21.979434 L 37.068811,17.246167 C 37.068811,17.246167 37.088388,32 37.088388,32 L 22.160133,31.978069 C 22.160133,31.978069 26.997745,27.140456 26.997745,27.140456 C 18.528582,18.264221 13.291696,25.230495 11.500037,31.436501 z"
     style="fill:#404040;"/>
  </a>
 </g>
</svg>

<style type='text/css'>
<![CDATA[
[data-mouse-over-selected='false'] { opacity: 0.7; }
[data-mouse-over-selected='true']  { opacity: 1.0; }
]]>
</style>
<script type="application/ecmascript"><![CDATA[
document.addEventListener('DOMContentLoaded', (event) => {
  highlightEdges();
  highlightAdjacentNodes();
});
]]></script>
</svg>
