<?xml version="1.0" encoding="UTF-8" standalone="no"?>
<!DOCTYPE svg PUBLIC "-//W3C//DTD SVG 1.1//EN"
 "http://www.w3.org/Graphics/SVG/1.1/DTD/svg11.dtd">
<!-- Generated by graphviz version 2.43.0 (0)
 -->
<!-- Title: include/medusa/bits/approximations/RBFInterpolant_fwd.hpp Pages: 1 -->
<svg width="529pt" height="313pt"
 viewBox="0.00 0.00 529.00 313.00" xmlns="http://www.w3.org/2000/svg" xmlns:xlink="http://www.w3.org/1999/xlink">
<g id="graph0" class="graph" transform="scale(1 1) rotate(0) translate(4 309)">
<title>include/medusa/bits/approximations/RBFInterpolant_fwd.hpp</title>
<!-- Node1 -->
<g id="Node000001" class="node">
<title>Node1</title>
<g id="a_Node000001"><a xlink:title="RBFInterpolant class definition.">
<polygon fill="#999999" stroke="#666666" points="281.5,-305 109.5,-305 109.5,-264 281.5,-264 281.5,-305"/>
<text text-anchor="start" x="117.5" y="-293" font-family="Helvetica,sans-Serif" font-size="10.00">include/medusa/bits</text>
<text text-anchor="start" x="117.5" y="-282" font-family="Helvetica,sans-Serif" font-size="10.00">/approximations/RBFInterpolant</text>
<text text-anchor="middle" x="195.5" y="-271" font-family="Helvetica,sans-Serif" font-size="10.00">_fwd.hpp</text>
</a>
</g>
</g>
<!-- Node2 -->
<g id="Node000002" class="node">
<title>Node2</title>
<g id="a_Node000002"><a xlink:href="Approximations__fwd_8hpp.html" target="_top" xlink:title="Header for Approximations module, declarations only.">
<polygon fill="white" stroke="#666666" points="179.5,-151 5.5,-151 5.5,-121 179.5,-121 179.5,-151"/>
<text text-anchor="start" x="13.5" y="-139" font-family="Helvetica,sans-Serif" font-size="10.00">include/medusa/Approximations</text>
<text text-anchor="middle" x="92.5" y="-128" font-family="Helvetica,sans-Serif" font-size="10.00">_fwd.hpp</text>
</a>
</g>
</g>
<!-- Node1&#45;&gt;Node2 -->
<g id="edge1_Node000001_Node000002" class="edge">
<title>Node1&#45;&gt;Node2</title>
<g id="a_edge1_Node000001_Node000002"><a xlink:title=" ">
<path fill="none" stroke="#63b8ff" d="M151.52,-258.11C140.1,-249.76 128.71,-239.6 120.5,-228 103.69,-204.26 96.76,-170.15 94.07,-151.15"/>
<polygon fill="#63b8ff" stroke="#63b8ff" points="149.6,-261.04 159.8,-263.87 153.59,-255.29 149.6,-261.04"/>
</a>
</g>
</g>
<!-- Node6 -->
<g id="Node000006" class="node">
<title>Node6</title>
<g id="a_Node000006"><a xlink:href="RBFFD__fwd_8hpp.html" target="_top" xlink:title="Declaration of Radial Basis Function Finite Difference approximation.">
<polygon fill="white" stroke="#666666" points="261.5,-228 129.5,-228 129.5,-187 261.5,-187 261.5,-228"/>
<text text-anchor="start" x="137.5" y="-216" font-family="Helvetica,sans-Serif" font-size="10.00">include/medusa/bits</text>
<text text-anchor="start" x="137.5" y="-205" font-family="Helvetica,sans-Serif" font-size="10.00">/approximations/RBFFD</text>
<text text-anchor="middle" x="195.5" y="-194" font-family="Helvetica,sans-Serif" font-size="10.00">_fwd.hpp</text>
</a>
</g>
</g>
<!-- Node1&#45;&gt;Node6 -->
<g id="edge6_Node000001_Node000006" class="edge">
<title>Node1&#45;&gt;Node6</title>
<g id="a_edge6_Node000001_Node000006"><a xlink:title=" ">
<path fill="none" stroke="#63b8ff" d="M195.5,-253.69C195.5,-245.08 195.5,-235.9 195.5,-228.07"/>
<polygon fill="#63b8ff" stroke="#63b8ff" points="192,-253.79 195.5,-263.79 199,-253.79 192,-253.79"/>
</a>
</g>
</g>
<!-- Node9 -->
<g id="Node000009" class="node">
<title>Node9</title>
<g id="a_Node000009"><a xlink:href="RBFInterpolant_8hpp.html" target="_top" xlink:title="Implementation of the RBFInterpolant class.">
<polygon fill="white" stroke="#666666" points="474,-222.5 281,-222.5 281,-192.5 474,-192.5 474,-222.5"/>
<text text-anchor="start" x="289" y="-210.5" font-family="Helvetica,sans-Serif" font-size="10.00">include/medusa/bits</text>
<text text-anchor="middle" x="377.5" y="-199.5" font-family="Helvetica,sans-Serif" font-size="10.00">/approximations/RBFInterpolant.hpp</text>
</a>
</g>
</g>
<!-- Node1&#45;&gt;Node9 -->
<g id="edge11_Node000001_Node000009" class="edge">
<title>Node1&#45;&gt;Node9</title>
<g id="a_edge11_Node000001_Node000009"><a xlink:title=" ">
<path fill="none" stroke="#63b8ff" d="M252.31,-260.09C282.15,-247.79 317.74,-233.13 343.33,-222.58"/>
<polygon fill="#63b8ff" stroke="#63b8ff" points="250.76,-256.94 242.84,-263.99 253.42,-263.42 250.76,-256.94"/>
</a>
</g>
</g>
<!-- Node3 -->
<g id="Node000003" class="node">
<title>Node3</title>
<g id="a_Node000003"><a xlink:href="Approximations_8hpp.html" target="_top" xlink:title="Header for Approximations module.">
<polygon fill="white" stroke="#666666" points="477,-79.5 282,-79.5 282,-60.5 477,-60.5 477,-79.5"/>
<text text-anchor="middle" x="379.5" y="-67.5" font-family="Helvetica,sans-Serif" font-size="10.00">include/medusa/Approximations.hpp</text>
</a>
</g>
</g>
<!-- Node2&#45;&gt;Node3 -->
<g id="edge2_Node000002_Node000003" class="edge">
<title>Node2&#45;&gt;Node3</title>
<g id="a_edge2_Node000002_Node000003"><a xlink:title=" ">
<path fill="none" stroke="#63b8ff" d="M165.36,-118.75C221.38,-106.26 296.55,-89.5 341.31,-79.52"/>
<polygon fill="#63b8ff" stroke="#63b8ff" points="164.48,-115.36 155.48,-120.95 166.01,-122.19 164.48,-115.36"/>
</a>
</g>
</g>
<!-- Node5 -->
<g id="Node000005" class="node">
<title>Node5</title>
<g id="a_Node000005"><a xlink:href="Medusa__fwd_8hpp.html" target="_top" xlink:title="Main header file that includes only declarations for some heavy classes such as mm::WLS to reduce com...">
<polygon fill="white" stroke="#666666" points="135,-85 0,-85 0,-55 135,-55 135,-85"/>
<text text-anchor="start" x="8" y="-73" font-family="Helvetica,sans-Serif" font-size="10.00">include/medusa/Medusa</text>
<text text-anchor="middle" x="67.5" y="-62" font-family="Helvetica,sans-Serif" font-size="10.00">_fwd.hpp</text>
</a>
</g>
</g>
<!-- Node2&#45;&gt;Node5 -->
<g id="edge4_Node000002_Node000005" class="edge">
<title>Node2&#45;&gt;Node5</title>
<g id="a_edge4_Node000002_Node000005"><a xlink:title=" ">
<path fill="none" stroke="#63b8ff" d="M83.28,-111.39C79.84,-102.59 76.04,-92.86 73.03,-85.16"/>
<polygon fill="#63b8ff" stroke="#63b8ff" points="80.05,-112.76 86.95,-120.8 86.57,-110.21 80.05,-112.76"/>
</a>
</g>
</g>
<!-- Node4 -->
<g id="Node000004" class="node">
<title>Node4</title>
<g id="a_Node000004"><a xlink:href="Medusa_8hpp.html" target="_top" xlink:title="Main header file that includes most other components.">
<polygon fill="white" stroke="#666666" points="301.5,-19 145.5,-19 145.5,0 301.5,0 301.5,-19"/>
<text text-anchor="middle" x="223.5" y="-7" font-family="Helvetica,sans-Serif" font-size="10.00">include/medusa/Medusa.hpp</text>
</a>
</g>
</g>
<!-- Node3&#45;&gt;Node4 -->
<g id="edge3_Node000003_Node000004" class="edge">
<title>Node3&#45;&gt;Node4</title>
<g id="a_edge3_Node000003_Node000004"><a xlink:title=" ">
<path fill="none" stroke="#63b8ff" d="M347.17,-56.88C317.02,-45.57 272.8,-28.99 246.21,-19.02"/>
<polygon fill="#63b8ff" stroke="#63b8ff" points="346.22,-60.26 356.82,-60.49 348.68,-53.71 346.22,-60.26"/>
</a>
</g>
</g>
<!-- Node5&#45;&gt;Node4 -->
<g id="edge5_Node000005_Node000004" class="edge">
<title>Node5&#45;&gt;Node4</title>
<g id="a_edge5_Node000005_Node000004"><a xlink:title=" ">
<path fill="none" stroke="#63b8ff" d="M114.24,-51.47C142.72,-40.79 177.85,-27.62 200.46,-19.14"/>
<polygon fill="#63b8ff" stroke="#63b8ff" points="113,-48.2 104.87,-54.99 115.46,-54.75 113,-48.2"/>
</a>
</g>
</g>
<!-- Node6&#45;&gt;Node2 -->
<g id="edge7_Node000006_Node000002" class="edge">
<title>Node6&#45;&gt;Node2</title>
<g id="a_edge7_Node000006_Node000002"><a xlink:title=" ">
<path fill="none" stroke="#63b8ff" d="M157.93,-181.15C142.92,-171.02 126.2,-159.74 113.42,-151.11"/>
<polygon fill="#63b8ff" stroke="#63b8ff" points="156.29,-184.26 166.53,-186.96 160.2,-178.46 156.29,-184.26"/>
</a>
</g>
</g>
<!-- Node7 -->
<g id="Node000007" class="node">
<title>Node7</title>
<g id="a_Node000007"><a xlink:href="RBFFD_8hpp.html" target="_top" xlink:title="Implementation of Radial Basis Function Finite Difference approximation.">
<polygon fill="white" stroke="#666666" points="351,-151 198,-151 198,-121 351,-121 351,-151"/>
<text text-anchor="start" x="206" y="-139" font-family="Helvetica,sans-Serif" font-size="10.00">include/medusa/bits</text>
<text text-anchor="middle" x="274.5" y="-128" font-family="Helvetica,sans-Serif" font-size="10.00">/approximations/RBFFD.hpp</text>
</a>
</g>
</g>
<!-- Node6&#45;&gt;Node7 -->
<g id="edge8_Node000006_Node000007" class="edge">
<title>Node6&#45;&gt;Node7</title>
<g id="a_edge8_Node000006_Node000007"><a xlink:title=" ">
<path fill="none" stroke="#63b8ff" d="M225.49,-180.12C236.73,-170.23 249.06,-159.38 258.54,-151.04"/>
<polygon fill="#63b8ff" stroke="#63b8ff" points="223.12,-177.54 217.93,-186.77 227.75,-182.79 223.12,-177.54"/>
</a>
</g>
</g>
<!-- Node7&#45;&gt;Node3 -->
<g id="edge9_Node000007_Node000003" class="edge">
<title>Node7&#45;&gt;Node3</title>
<g id="a_edge9_Node000007_Node000003"><a xlink:title=" ">
<path fill="none" stroke="#63b8ff" d="M306.25,-115.65C326.02,-103.6 350.47,-88.69 365.53,-79.52"/>
<polygon fill="#63b8ff" stroke="#63b8ff" points="304.26,-112.76 297.54,-120.95 307.9,-118.74 304.26,-112.76"/>
</a>
</g>
</g>
<!-- Node8 -->
<g id="Node000008" class="node">
<title>Node8</title>
<g id="a_Node000008"><a xlink:href="RBFFD_8cpp.html" target="_top" xlink:title="Instantiations of common RBFFD approximations.">
<polygon fill="white" stroke="#666666" points="263.5,-85 153.5,-85 153.5,-55 263.5,-55 263.5,-85"/>
<text text-anchor="start" x="161.5" y="-73" font-family="Helvetica,sans-Serif" font-size="10.00">src/approximations</text>
<text text-anchor="middle" x="208.5" y="-62" font-family="Helvetica,sans-Serif" font-size="10.00">/RBFFD.cpp</text>
</a>
</g>
</g>
<!-- Node7&#45;&gt;Node8 -->
<g id="edge10_Node000007_Node000008" class="edge">
<title>Node7&#45;&gt;Node8</title>
<g id="a_edge10_Node000007_Node000008"><a xlink:title=" ">
<path fill="none" stroke="#63b8ff" d="M252.48,-113.65C242.81,-104.27 231.73,-93.53 223.11,-85.16"/>
<polygon fill="#63b8ff" stroke="#63b8ff" points="250.24,-116.35 259.85,-120.8 255.11,-111.32 250.24,-116.35"/>
</a>
</g>
</g>
<!-- Node9&#45;&gt;Node3 -->
<g id="edge12_Node000009_Node000003" class="edge">
<title>Node9&#45;&gt;Node3</title>
<g id="a_edge12_Node000009_Node000003"><a xlink:title=" ">
<path fill="none" stroke="#63b8ff" d="M377.86,-181.91C378.32,-151.05 379.08,-99.73 379.37,-79.53"/>
<polygon fill="#63b8ff" stroke="#63b8ff" points="374.36,-182.2 377.71,-192.26 381.36,-182.31 374.36,-182.2"/>
</a>
</g>
</g>
<!-- Node9&#45;&gt;Node7 -->
<g id="edge13_Node000009_Node000007" class="edge">
<title>Node9&#45;&gt;Node7</title>
<g id="a_edge13_Node000009_Node000007"><a xlink:title=" ">
<path fill="none" stroke="#63b8ff" d="M348.24,-186.75C331.35,-175.36 310.52,-161.31 295.31,-151.04"/>
<polygon fill="#63b8ff" stroke="#63b8ff" points="346.41,-189.74 356.66,-192.44 350.32,-183.94 346.41,-189.74"/>
</a>
</g>
</g>
<!-- Node10 -->
<g id="Node000010" class="node">
<title>Node10</title>
<g id="a_Node000010"><a xlink:href="RBFInterpolant_8cpp.html" target="_top" xlink:title="Instantiations of commonly used RBFInterpolant instances.">
<polygon fill="white" stroke="#666666" points="521,-151 408,-151 408,-121 521,-121 521,-151"/>
<text text-anchor="start" x="416" y="-139" font-family="Helvetica,sans-Serif" font-size="10.00">src/approximations</text>
<text text-anchor="middle" x="464.5" y="-128" font-family="Helvetica,sans-Serif" font-size="10.00">/RBFInterpolant.cpp</text>
</a>
</g>
</g>
<!-- Node9&#45;&gt;Node10 -->
<g id="edge14_Node000009_Node000010" class="edge">
<title>Node9&#45;&gt;Node10</title>
<g id="a_edge14_Node000009_Node000010"><a xlink:title=" ">
<path fill="none" stroke="#63b8ff" d="M403.01,-186.13C417.12,-174.85 434.31,-161.12 446.92,-151.04"/>
<polygon fill="#63b8ff" stroke="#63b8ff" points="400.73,-183.46 395.11,-192.44 405.1,-188.93 400.73,-183.46"/>
</a>
</g>
</g>
</g>
</svg>
