<?xml version="1.0" encoding="UTF-8" standalone="no"?>
<!DOCTYPE svg PUBLIC "-//W3C//DTD SVG 1.1//EN"
 "http://www.w3.org/Graphics/SVG/1.1/DTD/svg11.dtd">
<!-- Generated by graphviz version 2.43.0 (0)
 -->
<!-- Title: include/medusa/bits/integrators/RKExplicit_fwd.hpp Pages: 1 -->
<svg width="491pt" height="368pt"
 viewBox="0.00 0.00 490.50 368.00" xmlns="http://www.w3.org/2000/svg" xmlns:xlink="http://www.w3.org/1999/xlink">
<g id="graph0" class="graph" transform="scale(1 1) rotate(0) translate(4 364)">
<title>include/medusa/bits/integrators/RKExplicit_fwd.hpp</title>
<!-- Node1 -->
<g id="Node000001" class="node">
<title>Node1</title>
<g id="a_Node000001"><a xlink:title="Runge&#45;Kutta integrator declarations.">
<polygon fill="#999999" stroke="#666666" points="286,-360 161,-360 161,-319 286,-319 286,-360"/>
<text text-anchor="start" x="169" y="-348" font-family="Helvetica,sans-Serif" font-size="10.00">include/medusa/bits</text>
<text text-anchor="start" x="169" y="-337" font-family="Helvetica,sans-Serif" font-size="10.00">/integrators/RKExplicit</text>
<text text-anchor="middle" x="223.5" y="-326" font-family="Helvetica,sans-Serif" font-size="10.00">_fwd.hpp</text>
</a>
</g>
</g>
<!-- Node1&#45;&gt;Node1 -->
<g id="edge12_Node000001_Node000001" class="edge">
<title>Node1&#45;&gt;Node1</title>
<g id="a_edge12_Node000001_Node000001"><a xlink:title=" ">
<path fill="none" stroke="#63b8ff" d="M296.14,-349.75C301.03,-347.39 304,-343.97 304,-339.5 304,-332.52 296.76,-328.11 286.28,-326.26"/>
<polygon fill="#63b8ff" stroke="#63b8ff" points="294.83,-346.49 286.28,-352.74 296.86,-353.19 294.83,-346.49"/>
</a>
</g>
</g>
<!-- Node2 -->
<g id="Node000002" class="node">
<title>Node2</title>
<g id="a_Node000002"><a xlink:href="AdamsBashforth__fwd_8hpp.html" target="_top" xlink:title="Adams&#45;Bashforth integrator declarations.">
<polygon fill="white" stroke="#666666" points="217,-283 60,-283 60,-242 217,-242 217,-283"/>
<text text-anchor="start" x="68" y="-271" font-family="Helvetica,sans-Serif" font-size="10.00">include/medusa/bits</text>
<text text-anchor="start" x="68" y="-260" font-family="Helvetica,sans-Serif" font-size="10.00">/integrators/AdamsBashforth</text>
<text text-anchor="middle" x="138.5" y="-249" font-family="Helvetica,sans-Serif" font-size="10.00">_fwd.hpp</text>
</a>
</g>
</g>
<!-- Node1&#45;&gt;Node2 -->
<g id="edge1_Node000001_Node000002" class="edge">
<title>Node1&#45;&gt;Node2</title>
<g id="a_edge1_Node000001_Node000002"><a xlink:title=" ">
<path fill="none" stroke="#63b8ff" d="M193.55,-312.07C182.73,-302.52 170.72,-291.93 160.68,-283.07"/>
<polygon fill="#63b8ff" stroke="#63b8ff" points="191.35,-314.8 201.17,-318.79 195.98,-309.55 191.35,-314.8"/>
</a>
</g>
</g>
<!-- Node8 -->
<g id="Node000008" class="node">
<title>Node8</title>
<g id="a_Node000008"><a xlink:href="RKExplicit_8hpp.html" target="_top" xlink:title="Runge&#45;Kutta integrator implementation.">
<polygon fill="white" stroke="#666666" points="381.5,-277.5 235.5,-277.5 235.5,-247.5 381.5,-247.5 381.5,-277.5"/>
<text text-anchor="start" x="243.5" y="-265.5" font-family="Helvetica,sans-Serif" font-size="10.00">include/medusa/bits</text>
<text text-anchor="middle" x="308.5" y="-254.5" font-family="Helvetica,sans-Serif" font-size="10.00">/integrators/RKExplicit.hpp</text>
</a>
</g>
</g>
<!-- Node1&#45;&gt;Node8 -->
<g id="edge8_Node000001_Node000008" class="edge">
<title>Node1&#45;&gt;Node8</title>
<g id="a_edge8_Node000001_Node000008"><a xlink:title=" ">
<path fill="none" stroke="#63b8ff" d="M253.34,-312.17C266.52,-300.55 281.48,-287.34 292.49,-277.63"/>
<polygon fill="#63b8ff" stroke="#63b8ff" points="251.02,-309.55 245.83,-318.79 255.65,-314.8 251.02,-309.55"/>
</a>
</g>
</g>
<!-- Node3 -->
<g id="Node000003" class="node">
<title>Node3</title>
<g id="a_Node000003"><a xlink:href="AdamsBashforth_8hpp.html" target="_top" xlink:title="Adams&#45;Bashforth integrator implementation.">
<polygon fill="white" stroke="#666666" points="253.5,-206 75.5,-206 75.5,-176 253.5,-176 253.5,-206"/>
<text text-anchor="start" x="83.5" y="-194" font-family="Helvetica,sans-Serif" font-size="10.00">include/medusa/bits</text>
<text text-anchor="middle" x="164.5" y="-183" font-family="Helvetica,sans-Serif" font-size="10.00">/integrators/AdamsBashforth.hpp</text>
</a>
</g>
</g>
<!-- Node2&#45;&gt;Node3 -->
<g id="edge2_Node000002_Node000003" class="edge">
<title>Node2&#45;&gt;Node3</title>
<g id="a_edge2_Node000002_Node000003"><a xlink:title=" ">
<path fill="none" stroke="#63b8ff" d="M149.44,-232.24C152.84,-223.17 156.43,-213.58 159.25,-206.04"/>
<polygon fill="#63b8ff" stroke="#63b8ff" points="146.11,-231.18 145.88,-241.77 152.66,-233.63 146.11,-231.18"/>
</a>
</g>
</g>
<!-- Node4 -->
<g id="Node000004" class="node">
<title>Node4</title>
<g id="a_Node000004"><a xlink:href="Integrators_8hpp.html" target="_top" xlink:title="Header for Integrators module.">
<polygon fill="white" stroke="#666666" points="380,-140 209,-140 209,-121 380,-121 380,-140"/>
<text text-anchor="middle" x="294.5" y="-128" font-family="Helvetica,sans-Serif" font-size="10.00">include/medusa/Integrators.hpp</text>
</a>
</g>
</g>
<!-- Node3&#45;&gt;Node4 -->
<g id="edge3_Node000003_Node000004" class="edge">
<title>Node3&#45;&gt;Node4</title>
<g id="a_edge3_Node000003_Node000004"><a xlink:title=" ">
<path fill="none" stroke="#63b8ff" d="M205.01,-171.77C228.45,-161.22 256.87,-148.43 275.3,-140.14"/>
<polygon fill="#63b8ff" stroke="#63b8ff" points="203.32,-168.69 195.64,-175.99 206.19,-175.08 203.32,-168.69"/>
</a>
</g>
</g>
<!-- Node7 -->
<g id="Node000007" class="node">
<title>Node7</title>
<g id="a_Node000007"><a xlink:href="AdamsBashforth_8cpp.html" target="_top" xlink:title="Adams&#45;Bashforth integrator implementation.">
<polygon fill="white" stroke="#666666" points="191,-140 0,-140 0,-121 191,-121 191,-140"/>
<text text-anchor="middle" x="95.5" y="-128" font-family="Helvetica,sans-Serif" font-size="10.00">src/integrators/AdamsBashforth.cpp</text>
</a>
</g>
</g>
<!-- Node3&#45;&gt;Node7 -->
<g id="edge7_Node000003_Node000007" class="edge">
<title>Node3&#45;&gt;Node7</title>
<g id="a_edge7_Node000003_Node000007"><a xlink:title=" ">
<path fill="none" stroke="#63b8ff" d="M140.02,-169.24C128.28,-159.29 114.85,-147.91 105.84,-140.27"/>
<polygon fill="#63b8ff" stroke="#63b8ff" points="137.91,-172.04 147.8,-175.84 142.43,-166.7 137.91,-172.04"/>
</a>
</g>
</g>
<!-- Node5 -->
<g id="Node000005" class="node">
<title>Node5</title>
<g id="a_Node000005"><a xlink:href="Medusa_8hpp.html" target="_top" xlink:title="Main header file that includes most other components.">
<polygon fill="white" stroke="#666666" points="372.5,-19 216.5,-19 216.5,0 372.5,0 372.5,-19"/>
<text text-anchor="middle" x="294.5" y="-7" font-family="Helvetica,sans-Serif" font-size="10.00">include/medusa/Medusa.hpp</text>
</a>
</g>
</g>
<!-- Node4&#45;&gt;Node5 -->
<g id="edge4_Node000004_Node000005" class="edge">
<title>Node4&#45;&gt;Node5</title>
<g id="a_edge4_Node000004_Node000005"><a xlink:title=" ">
<path fill="none" stroke="#63b8ff" d="M280.78,-112.71C275.18,-104.8 269.37,-94.94 266.5,-85 262.8,-72.19 262.8,-67.81 266.5,-55 270.45,-41.32 279.98,-27.79 286.83,-19.3"/>
<polygon fill="#63b8ff" stroke="#63b8ff" points="278,-114.84 286.83,-120.7 283.58,-110.61 278,-114.84"/>
</a>
</g>
</g>
<!-- Node6 -->
<g id="Node000006" class="node">
<title>Node6</title>
<g id="a_Node000006"><a xlink:href="Medusa__fwd_8hpp.html" target="_top" xlink:title="Main header file that includes only declarations for some heavy classes such as mm::WLS to reduce com...">
<polygon fill="white" stroke="#666666" points="410,-85 275,-85 275,-55 410,-55 410,-85"/>
<text text-anchor="start" x="283" y="-73" font-family="Helvetica,sans-Serif" font-size="10.00">include/medusa/Medusa</text>
<text text-anchor="middle" x="342.5" y="-62" font-family="Helvetica,sans-Serif" font-size="10.00">_fwd.hpp</text>
</a>
</g>
</g>
<!-- Node4&#45;&gt;Node6 -->
<g id="edge5_Node000004_Node000006" class="edge">
<title>Node4&#45;&gt;Node6</title>
<g id="a_edge5_Node000004_Node000006"><a xlink:title=" ">
<path fill="none" stroke="#63b8ff" d="M308.14,-112.88C315.33,-104.11 324.06,-93.48 330.92,-85.11"/>
<polygon fill="#63b8ff" stroke="#63b8ff" points="305.22,-110.92 301.58,-120.87 310.63,-115.36 305.22,-110.92"/>
</a>
</g>
</g>
<!-- Node6&#45;&gt;Node5 -->
<g id="edge6_Node000006_Node000005" class="edge">
<title>Node6&#45;&gt;Node5</title>
<g id="a_edge6_Node000006_Node000005"><a xlink:title=" ">
<path fill="none" stroke="#63b8ff" d="M324.52,-47.09C316.59,-37.42 307.72,-26.61 301.69,-19.27"/>
<polygon fill="#63b8ff" stroke="#63b8ff" points="321.83,-49.33 330.88,-54.84 327.24,-44.89 321.83,-49.33"/>
</a>
</g>
</g>
<!-- Node8&#45;&gt;Node3 -->
<g id="edge10_Node000008_Node000003" class="edge">
<title>Node8&#45;&gt;Node3</title>
<g id="a_edge10_Node000008_Node000003"><a xlink:title=" ">
<path fill="none" stroke="#63b8ff" d="M270.17,-243C246.13,-231.4 215.64,-216.68 193.6,-206.04"/>
<polygon fill="#63b8ff" stroke="#63b8ff" points="268.83,-246.24 279.36,-247.44 271.87,-239.94 268.83,-246.24"/>
</a>
</g>
</g>
<!-- Node8&#45;&gt;Node4 -->
<g id="edge9_Node000008_Node000004" class="edge">
<title>Node8&#45;&gt;Node4</title>
<g id="a_edge9_Node000008_Node000004"><a xlink:title=" ">
<path fill="none" stroke="#63b8ff" d="M305.87,-237.07C302.7,-207.67 297.55,-159.81 295.44,-140.25"/>
<polygon fill="#63b8ff" stroke="#63b8ff" points="302.42,-237.77 306.98,-247.34 309.38,-237.02 302.42,-237.77"/>
</a>
</g>
</g>
<!-- Node9 -->
<g id="Node000009" class="node">
<title>Node9</title>
<g id="a_Node000009"><a xlink:href="RKExplicit_8cpp.html" target="_top" xlink:title="Runge&#45;Kutta integrator implementation.">
<polygon fill="white" stroke="#666666" points="482.5,-200.5 322.5,-200.5 322.5,-181.5 482.5,-181.5 482.5,-200.5"/>
<text text-anchor="middle" x="402.5" y="-188.5" font-family="Helvetica,sans-Serif" font-size="10.00">src/integrators/RKExplicit.cpp</text>
</a>
</g>
</g>
<!-- Node8&#45;&gt;Node9 -->
<g id="edge11_Node000008_Node000009" class="edge">
<title>Node8&#45;&gt;Node9</title>
<g id="a_edge11_Node000008_Node000009"><a xlink:title=" ">
<path fill="none" stroke="#63b8ff" d="M336.04,-241.14C354.3,-227.64 377.31,-210.62 390.91,-200.57"/>
<polygon fill="#63b8ff" stroke="#63b8ff" points="333.48,-238.68 327.52,-247.44 337.64,-244.3 333.48,-238.68"/>
</a>
</g>
</g>
</g>
</svg>
