<?xml version="1.0" encoding="UTF-8" standalone="no"?>
<!DOCTYPE svg PUBLIC "-//W3C//DTD SVG 1.1//EN"
 "http://www.w3.org/Graphics/SVG/1.1/DTD/svg11.dtd">
<!-- Generated by graphviz version 2.43.0 (0)
 -->
<!-- Title: include/medusa/bits/integrators/RKExplicit.hpp Pages: 1 -->
<svg width="478pt" height="280pt"
 viewBox="0.00 0.00 477.50 280.00" xmlns="http://www.w3.org/2000/svg" xmlns:xlink="http://www.w3.org/1999/xlink">

<svg id="main" version="1.1" xmlns="http://www.w3.org/2000/svg" xmlns:xlink="http://www.w3.org/1999/xlink" xml:space="preserve" onload="init(evt)">
<style type="text/css"><![CDATA[
.node, .edge {opacity: 0.7;}
.node.selected, .edge.selected {opacity: 1;}
.edge:hover path { stroke: red; }
.edge:hover polygon { stroke: red; fill: red; }
]]></style>
<script type="application/ecmascript" xlink:href="svg.min.js"/>
<svg id="graph" class="graph">
<g id="graph0" class="graph" transform="scale(1 1) rotate(0) translate(4 276)">
<title>include/medusa/bits/integrators/RKExplicit.hpp</title>
<!-- Node1 -->
<g id="Node000001" class="node">
<title>Node1</title>
<g id="a_Node000001"><a xlink:title="Runge&#45;Kutta integrator implementation.">
<polygon fill="#999999" stroke="#666666" points="275.5,-272 129.5,-272 129.5,-242 275.5,-242 275.5,-272"/>
<text text-anchor="start" x="137.5" y="-260" font-family="Helvetica,sans-Serif" font-size="10.00">include/medusa/bits</text>
<text text-anchor="middle" x="202.5" y="-249" font-family="Helvetica,sans-Serif" font-size="10.00">/integrators/RKExplicit.hpp</text>
</a>
</g>
</g>
<!-- Node2 -->
<g id="Node000002" class="node">
<title>Node2</title>
<g id="a_Node000002"><a xlink:href="Integrators_8hpp.html" target="_top" xlink:title="Header for Integrators module.">
<polygon fill="white" stroke="#666666" points="171,-140 0,-140 0,-121 171,-121 171,-140"/>
<text text-anchor="middle" x="85.5" y="-128" font-family="Helvetica,sans-Serif" font-size="10.00">include/medusa/Integrators.hpp</text>
</a>
</g>
</g>
<!-- Node1&#45;&gt;Node2 -->
<g id="edge1_Node000001_Node000002" class="edge">
<title>Node1&#45;&gt;Node2</title>
<g id="a_edge1_Node000001_Node000002"><a xlink:title=" ">
<path fill="none" stroke="#63b8ff" d="M147.29,-237.83C131.49,-230.22 115.57,-219.84 104.5,-206 88.83,-186.4 85.93,-155.41 85.49,-140.33"/>
<polygon fill="#63b8ff" stroke="#63b8ff" points="145.98,-241.08 156.54,-241.99 148.85,-234.69 145.98,-241.08"/>
</a>
</g>
</g>
<!-- Node5 -->
<g id="Node000005" class="node">
<title>Node5</title>
<g id="a_Node000005"><a xlink:href="AdamsBashforth_8hpp.html" target="_top" xlink:title="Adams&#45;Bashforth integrator implementation.">
<polygon fill="white" stroke="#666666" points="291.5,-206 113.5,-206 113.5,-176 291.5,-176 291.5,-206"/>
<text text-anchor="start" x="121.5" y="-194" font-family="Helvetica,sans-Serif" font-size="10.00">include/medusa/bits</text>
<text text-anchor="middle" x="202.5" y="-183" font-family="Helvetica,sans-Serif" font-size="10.00">/integrators/AdamsBashforth.hpp</text>
</a>
</g>
</g>
<!-- Node1&#45;&gt;Node5 -->
<g id="edge5_Node000001_Node000005" class="edge">
<title>Node1&#45;&gt;Node5</title>
<g id="a_edge5_Node000001_Node000005"><a xlink:title=" ">
<path fill="none" stroke="#63b8ff" d="M202.5,-231.54C202.5,-222.96 202.5,-213.61 202.5,-206.16"/>
<polygon fill="#63b8ff" stroke="#63b8ff" points="199,-231.8 202.5,-241.8 206,-231.8 199,-231.8"/>
</a>
</g>
</g>
<!-- Node7 -->
<g id="Node000007" class="node">
<title>Node7</title>
<g id="a_Node000007"><a xlink:href="RKExplicit_8cpp.html" target="_top" xlink:title="Runge&#45;Kutta integrator implementation.">
<polygon fill="white" stroke="#666666" points="469.5,-200.5 309.5,-200.5 309.5,-181.5 469.5,-181.5 469.5,-200.5"/>
<text text-anchor="middle" x="389.5" y="-188.5" font-family="Helvetica,sans-Serif" font-size="10.00">src/integrators/RKExplicit.cpp</text>
</a>
</g>
</g>
<!-- Node1&#45;&gt;Node7 -->
<g id="edge8_Node000001_Node000007" class="edge">
<title>Node1&#45;&gt;Node7</title>
<g id="a_edge8_Node000001_Node000007"><a xlink:title=" ">
<path fill="none" stroke="#63b8ff" d="M253.41,-238.58C289.5,-226.23 336.36,-210.19 364.61,-200.52"/>
<polygon fill="#63b8ff" stroke="#63b8ff" points="251.87,-235.41 243.54,-241.95 254.13,-242.03 251.87,-235.41"/>
</a>
</g>
</g>
<!-- Node3 -->
<g id="Node000003" class="node">
<title>Node3</title>
<g id="a_Node000003"><a xlink:href="Medusa_8hpp.html" target="_top" xlink:title="Main header file that includes most other components.">
<polygon fill="white" stroke="#666666" points="163.5,-19 7.5,-19 7.5,0 163.5,0 163.5,-19"/>
<text text-anchor="middle" x="85.5" y="-7" font-family="Helvetica,sans-Serif" font-size="10.00">include/medusa/Medusa.hpp</text>
</a>
</g>
</g>
<!-- Node2&#45;&gt;Node3 -->
<g id="edge2_Node000002_Node000003" class="edge">
<title>Node2&#45;&gt;Node3</title>
<g id="a_edge2_Node000002_Node000003"><a xlink:title=" ">
<path fill="none" stroke="#63b8ff" d="M71.29,-112.78C65.5,-104.89 59.48,-95.02 56.5,-85 52.7,-72.22 52.7,-67.78 56.5,-55 60.6,-41.21 70.47,-27.7 77.56,-19.25"/>
<polygon fill="#63b8ff" stroke="#63b8ff" points="68.63,-115.05 77.56,-120.75 74.13,-110.72 68.63,-115.05"/>
</a>
</g>
</g>
<!-- Node4 -->
<g id="Node000004" class="node">
<title>Node4</title>
<g id="a_Node000004"><a xlink:href="Medusa__fwd_8hpp.html" target="_top" xlink:title="Main header file that includes only declarations for some heavy classes such as mm::WLS to reduce com...">
<polygon fill="white" stroke="#666666" points="201,-85 66,-85 66,-55 201,-55 201,-85"/>
<text text-anchor="start" x="74" y="-73" font-family="Helvetica,sans-Serif" font-size="10.00">include/medusa/Medusa</text>
<text text-anchor="middle" x="133.5" y="-62" font-family="Helvetica,sans-Serif" font-size="10.00">_fwd.hpp</text>
</a>
</g>
</g>
<!-- Node2&#45;&gt;Node4 -->
<g id="edge3_Node000002_Node000004" class="edge">
<title>Node2&#45;&gt;Node4</title>
<g id="a_edge3_Node000002_Node000004"><a xlink:title=" ">
<path fill="none" stroke="#63b8ff" d="M99.14,-112.88C106.33,-104.11 115.06,-93.48 121.92,-85.11"/>
<polygon fill="#63b8ff" stroke="#63b8ff" points="96.22,-110.92 92.58,-120.87 101.63,-115.36 96.22,-110.92"/>
</a>
</g>
</g>
<!-- Node4&#45;&gt;Node3 -->
<g id="edge4_Node000004_Node000003" class="edge">
<title>Node4&#45;&gt;Node3</title>
<g id="a_edge4_Node000004_Node000003"><a xlink:title=" ">
<path fill="none" stroke="#63b8ff" d="M115.52,-47.09C107.59,-37.42 98.72,-26.61 92.69,-19.27"/>
<polygon fill="#63b8ff" stroke="#63b8ff" points="112.83,-49.33 121.88,-54.84 118.24,-44.89 112.83,-49.33"/>
</a>
</g>
</g>
<!-- Node5&#45;&gt;Node2 -->
<g id="edge6_Node000005_Node000002" class="edge">
<title>Node5&#45;&gt;Node2</title>
<g id="a_edge6_Node000005_Node000002"><a xlink:title=" ">
<path fill="none" stroke="#63b8ff" d="M165.48,-171.49C144.49,-161 119.22,-148.36 102.78,-140.14"/>
<polygon fill="#63b8ff" stroke="#63b8ff" points="163.97,-174.65 174.48,-175.99 167.1,-168.39 163.97,-174.65"/>
</a>
</g>
</g>
<!-- Node6 -->
<g id="Node000006" class="node">
<title>Node6</title>
<g id="a_Node000006"><a xlink:href="AdamsBashforth_8cpp.html" target="_top" xlink:title="Adams&#45;Bashforth integrator implementation.">
<polygon fill="white" stroke="#666666" points="380,-140 189,-140 189,-121 380,-121 380,-140"/>
<text text-anchor="middle" x="284.5" y="-128" font-family="Helvetica,sans-Serif" font-size="10.00">src/integrators/AdamsBashforth.cpp</text>
</a>
</g>
</g>
<!-- Node5&#45;&gt;Node6 -->
<g id="edge7_Node000005_Node000006" class="edge">
<title>Node5&#45;&gt;Node6</title>
<g id="a_edge7_Node000005_Node000006"><a xlink:title=" ">
<path fill="none" stroke="#63b8ff" d="M230.79,-169.82C244.93,-159.73 261.3,-148.05 272.21,-140.27"/>
<polygon fill="#63b8ff" stroke="#63b8ff" points="228.46,-167.18 222.35,-175.84 232.52,-172.88 228.46,-167.18"/>
</a>
</g>
</g>
</g>
</svg>
</svg>

<style type='text/css'>
<![CDATA[
[data-mouse-over-selected='false'] { opacity: 0.7; }
[data-mouse-over-selected='true']  { opacity: 1.0; }
]]>
</style>
<script type="application/ecmascript"><![CDATA[
document.addEventListener('DOMContentLoaded', (event) => {
  highlightEdges();
  highlightAdjacentNodes();
});
]]></script>
</svg>
