<?xml version="1.0" encoding="UTF-8" standalone="no"?>
<!DOCTYPE svg PUBLIC "-//W3C//DTD SVG 1.1//EN"
 "http://www.w3.org/Graphics/SVG/1.1/DTD/svg11.dtd">
<!-- Generated by graphviz version 2.43.0 (0)
 -->
<!-- Title: include/medusa/bits/integrators/RKExplicit.hpp Pages: 1 -->
<!--zoomable 423 -->

<svg id="main" version="1.1" xmlns="http://www.w3.org/2000/svg" xmlns:xlink="http://www.w3.org/1999/xlink" xml:space="preserve" onload="init(evt)">
<style type="text/css"><![CDATA[
.node, .edge {opacity: 0.7;}
.node.selected, .edge.selected {opacity: 1;}
.edge:hover path { stroke: red; }
.edge:hover polygon { stroke: red; fill: red; }
]]></style>

<defs>
  <circle id="rim" cx="0" cy="0" r="7"/>
  <circle id="rim2" cx="0" cy="0" r="3.5"/>
  <g id="zoomPlus">
    <use xlink:href="#rim" fill="#404040"><set attributeName="fill" to="#808080" begin="zoomplus.mouseover" end="zoomplus.mouseout"/></use>
    <path d="M-4,0h8M0,-4v8" fill="none" stroke="white" stroke-width="1.5" pointer-events="none"/>
  </g>
  <g id="zoomMin">
    <use xlink:href="#rim" fill="#404040"><set attributeName="fill" to="#808080" begin="zoomminus.mouseover" end="zoomminus.mouseout"/></use>
    <path d="M-4,0h8" fill="none" stroke="white" stroke-width="1.5" pointer-events="none"/>
  </g>
  <g id="arrowUp" transform="translate(30 24)">
    <use xlink:href="#rim"/>
    <path pointer-events="none" fill="none" stroke="white" stroke-width="1.5" d="M0,-3.0v7 M-2.5,-0.5L0,-3.0L2.5,-0.5"/>
  </g>
  <g id="arrowRight" transform="rotate(90) translate(36 -43)">
    <use xlink:href="#rim"/>
    <path pointer-events="none" fill="none" stroke="white" stroke-width="1.5" d="M0,-3.0v7 M-2.5,-0.5L0,-3.0L2.5,-0.5"/>
  </g>
  <g id="arrowDown" transform="rotate(180) translate(-30 -48)">
    <use xlink:href="#rim"/>
    <path pointer-events="none" fill="none" stroke="white" stroke-width="1.5" d="M0,-3.0v7 M-2.5,-0.5L0,-3.0L2.5,-0.5"/>
  </g>
  <g id="arrowLeft" transform="rotate(270) translate(-36 17)">
    <use xlink:href="#rim"/>
    <path pointer-events="none" fill="none" stroke="white" stroke-width="1.5" d="M0,-3.0v7 M-2.5,-0.5L0,-3.0L2.5,-0.5"/>
  </g>
  <g id="resetDef">
    <use xlink:href="#rim2" fill="#404040"><set attributeName="fill" to="#808080" begin="reset.mouseover" end="reset.mouseout"/></use>
  </g>
</defs>
<script type="application/ecmascript">
var viewWidth = 696;
var viewHeight = 423;
var sectionId = 'dynsection-0';
</script>
<script type="application/ecmascript" xlink:href="svg.min.js"/>
<svg id="graph" class="graph">
<g id="viewport">
<title>include/medusa/bits/integrators/RKExplicit.hpp</title>
<!-- Node1 -->
<g id="Node000001" class="node">
<title>Node1</title>
<g id="a_Node000001"><a xlink:title="Runge&#45;Kutta integrator implementation.">
<polygon fill="#999999" stroke="#666666" points="225.5,-415 79.5,-415 79.5,-385 225.5,-385 225.5,-415"/>
<text text-anchor="start" x="87.5" y="-403" font-family="Helvetica,sans-Serif" font-size="10.00">include/medusa/bits</text>
<text text-anchor="middle" x="152.5" y="-392" font-family="Helvetica,sans-Serif" font-size="10.00">/integrators/RKExplicit.hpp</text>
</a>
</g>
</g>
<!-- Node2 -->
<g id="Node000002" class="node">
<title>Node2</title>
<g id="a_Node000002"><a xlink:href="RKExplicit__fwd_8hpp.html" target="_top" xlink:title="Runge&#45;Kutta integrator declarations.">
<polygon fill="white" stroke="#666666" points="207.5,-349 97.5,-349 97.5,-330 207.5,-330 207.5,-349"/>
<text text-anchor="middle" x="152.5" y="-337" font-family="Helvetica,sans-Serif" font-size="10.00">RKExplicit_fwd.hpp</text>
</a>
</g>
</g>
<!-- Node1&#45;&gt;Node2 -->
<g id="edge1_Node000001_Node000002" class="edge">
<title>Node1&#45;&gt;Node2</title>
<g id="a_edge1_Node000001_Node000002"><a xlink:title=" ">
<path fill="none" stroke="#63b8ff" d="M152.5,-384.84C152.5,-377.21 152.5,-367.7 152.5,-359.45"/>
<polygon fill="#63b8ff" stroke="#63b8ff" points="156,-359.27 152.5,-349.27 149,-359.27 156,-359.27"/>
</a>
</g>
</g>
<!-- Node2&#45;&gt;Node2 -->
<g id="edge29_Node000002_Node000002" class="edge">
<title>Node2&#45;&gt;Node2</title>
<g id="a_edge29_Node000002_Node000002"><a xlink:title=" ">
<path fill="none" stroke="#63b8ff" d="M186.67,-349.03C206.73,-351.06 225.5,-347.88 225.5,-339.5 225.5,-332.56 212.63,-329.18 196.81,-329.38"/>
<polygon fill="#63b8ff" stroke="#63b8ff" points="196.45,-325.9 186.67,-329.97 196.85,-332.89 196.45,-325.9"/>
</a>
</g>
</g>
<!-- Node3 -->
<g id="Node000003" class="node">
<title>Node3</title>
<g id="a_Node000003"><a xlink:href="Config_8hpp.html" target="_top" xlink:title="Contains compile time settings for the project, such as Eigen plugins.">
<polygon fill="white" stroke="#666666" points="218.5,-129 108.5,-129 108.5,-110 218.5,-110 218.5,-129"/>
<text text-anchor="middle" x="163.5" y="-117" font-family="Helvetica,sans-Serif" font-size="10.00">medusa/Config.hpp</text>
</a>
</g>
</g>
<!-- Node2&#45;&gt;Node3 -->
<g id="edge2_Node000002_Node000003" class="edge">
<title>Node2&#45;&gt;Node3</title>
<g id="a_edge2_Node000002_Node000003"><a xlink:title=" ">
<path fill="none" stroke="#63b8ff" d="M138.69,-329.81C111.7,-311.62 55.74,-267.27 69.5,-220 77.6,-192.18 84.84,-186.29 104.5,-165 115.18,-153.43 129.18,-142.73 140.86,-134.72"/>
<polygon fill="#63b8ff" stroke="#63b8ff" points="142.85,-137.6 149.25,-129.15 138.98,-131.77 142.85,-137.6"/>
</a>
</g>
</g>
<!-- Node5 -->
<g id="Node000005" class="node">
<title>Node5</title>
<g id="a_Node000005"><a xlink:title=" ">
<polygon fill="#e0e0e0" stroke="#999999" points="69,-129 0,-129 0,-110 69,-110 69,-129"/>
<text text-anchor="middle" x="34.5" y="-117" font-family="Helvetica,sans-Serif" font-size="10.00">Eigen/Core</text>
</a>
</g>
</g>
<!-- Node2&#45;&gt;Node5 -->
<g id="edge4_Node000002_Node000005" class="edge">
<title>Node2&#45;&gt;Node5</title>
<g id="a_edge4_Node000002_Node000005"><a xlink:title=" ">
<path fill="none" stroke="#63b8ff" d="M129.19,-329.98C112.71,-322.81 91.35,-310.97 78.5,-294 42.77,-246.79 35.85,-173.74 34.65,-139.47"/>
<polygon fill="#63b8ff" stroke="#63b8ff" points="38.14,-139 34.43,-129.07 31.14,-139.15 38.14,-139"/>
</a>
</g>
</g>
<!-- Node6 -->
<g id="Node000006" class="node">
<title>Node6</title>
<g id="a_Node000006"><a xlink:href="numutils_8hpp.html" target="_top" xlink:title="Declaration of numerical utilities.">
<polygon fill="white" stroke="#666666" points="364,-294 197,-294 197,-275 364,-275 364,-294"/>
<text text-anchor="middle" x="280.5" y="-282" font-family="Helvetica,sans-Serif" font-size="10.00">medusa/bits/utils/numutils.hpp</text>
</a>
</g>
</g>
<!-- Node2&#45;&gt;Node6 -->
<g id="edge5_Node000002_Node000006" class="edge">
<title>Node2&#45;&gt;Node6</title>
<g id="a_edge5_Node000002_Node000006"><a xlink:title=" ">
<path fill="none" stroke="#63b8ff" d="M173.07,-329.98C193.93,-321.34 226.47,-307.87 250.27,-298.02"/>
<polygon fill="#63b8ff" stroke="#63b8ff" points="251.66,-301.23 259.56,-294.17 248.98,-294.76 251.66,-301.23"/>
</a>
</g>
</g>
<!-- Node7 -->
<g id="Node000007" class="node">
<title>Node7</title>
<g id="a_Node000007"><a xlink:href="assert_8hpp.html" target="_top" xlink:title="Implementation of custom assert and debug utilities.">
<polygon fill="white" stroke="#666666" points="653,-129 498,-129 498,-110 653,-110 653,-129"/>
<text text-anchor="middle" x="575.5" y="-117" font-family="Helvetica,sans-Serif" font-size="10.00">medusa/bits/utils/assert.hpp</text>
</a>
</g>
</g>
<!-- Node2&#45;&gt;Node7 -->
<g id="edge30_Node000002_Node000007" class="edge">
<title>Node2&#45;&gt;Node7</title>
<g id="a_edge30_Node000002_Node000007"><a xlink:title=" ">
<path fill="none" stroke="#63b8ff" d="M207.75,-330.81C302.5,-316.59 490.47,-283.51 538.5,-239 566.73,-212.84 573.58,-165.52 575.14,-139.28"/>
<polygon fill="#63b8ff" stroke="#63b8ff" points="578.64,-139.29 575.54,-129.16 571.65,-139.01 578.64,-139.29"/>
</a>
</g>
</g>
<!-- Node4 -->
<g id="Node000004" class="node">
<title>Node4</title>
<g id="a_Node000004"><a xlink:title=" ">
<polygon fill="#e0e0e0" stroke="#999999" points="270,-19 223,-19 223,0 270,0 270,-19"/>
<text text-anchor="middle" x="246.5" y="-7" font-family="Helvetica,sans-Serif" font-size="10.00">vector</text>
</a>
</g>
</g>
<!-- Node3&#45;&gt;Node4 -->
<g id="edge3_Node000003_Node000004" class="edge">
<title>Node3&#45;&gt;Node4</title>
<g id="a_edge3_Node000003_Node000004"><a xlink:title=" ">
<path fill="none" stroke="#63b8ff" d="M170.29,-109.66C184.1,-91.69 215.65,-50.64 233.52,-27.38"/>
<polygon fill="#63b8ff" stroke="#63b8ff" points="236.53,-29.22 239.85,-19.16 230.98,-24.95 236.53,-29.22"/>
</a>
</g>
</g>
<!-- Node6&#45;&gt;Node3 -->
<g id="edge6_Node000006_Node000003" class="edge">
<title>Node6&#45;&gt;Node3</title>
<g id="a_edge6_Node000006_Node000003"><a xlink:title=" ">
<path fill="none" stroke="#63b8ff" d="M274.84,-274.71C261.96,-254.82 229.26,-204.98 199.5,-165 192.45,-155.53 184.2,-145.27 177.37,-137"/>
<polygon fill="#63b8ff" stroke="#63b8ff" points="179.97,-134.65 170.89,-129.2 174.59,-139.13 179.97,-134.65"/>
</a>
</g>
</g>
<!-- Node6&#45;&gt;Node7 -->
<g id="edge7_Node000006_Node000007" class="edge">
<title>Node6&#45;&gt;Node7</title>
<g id="a_edge7_Node000006_Node000007"><a xlink:title=" ">
<path fill="none" stroke="#63b8ff" d="M364.12,-275.9C422.67,-269.1 494.56,-257.34 518.5,-239 535.45,-226.02 558.06,-168.75 569.01,-138.84"/>
<polygon fill="#63b8ff" stroke="#63b8ff" points="572.39,-139.79 572.48,-129.19 565.8,-137.41 572.39,-139.79"/>
</a>
</g>
</g>
<!-- Node14 -->
<g id="Node000014" class="node">
<title>Node14</title>
<g id="a_Node000014"><a xlink:href="Vec_8hpp.html" target="_top" xlink:title="Implemetations for Vec.">
<polygon fill="white" stroke="#666666" points="226.5,-239 78.5,-239 78.5,-220 226.5,-220 226.5,-239"/>
<text text-anchor="middle" x="152.5" y="-227" font-family="Helvetica,sans-Serif" font-size="10.00">medusa/bits/types/Vec.hpp</text>
</a>
</g>
</g>
<!-- Node6&#45;&gt;Node14 -->
<g id="edge15_Node000006_Node000014" class="edge">
<title>Node6&#45;&gt;Node14</title>
<g id="a_edge15_Node000006_Node000014"><a xlink:title=" ">
<path fill="none" stroke="#63b8ff" d="M259.93,-274.98C239.07,-266.34 206.53,-252.87 182.73,-243.02"/>
<polygon fill="#63b8ff" stroke="#63b8ff" points="184.02,-239.76 173.44,-239.17 181.34,-246.23 184.02,-239.76"/>
</a>
</g>
</g>
<!-- Node16 -->
<g id="Node000016" class="node">
<title>Node16</title>
<g id="a_Node000016"><a xlink:href="Range_8hpp.html" target="_top" xlink:title="Implementation of Range.">
<polygon fill="white" stroke="#666666" points="509,-239 348,-239 348,-220 509,-220 509,-239"/>
<text text-anchor="middle" x="428.5" y="-227" font-family="Helvetica,sans-Serif" font-size="10.00">medusa/bits/types/Range.hpp</text>
</a>
</g>
</g>
<!-- Node6&#45;&gt;Node16 -->
<g id="edge19_Node000006_Node000016" class="edge">
<title>Node6&#45;&gt;Node16</title>
<g id="a_edge19_Node000006_Node000016"><a xlink:title=" ">
<path fill="none" stroke="#63b8ff" d="M304.28,-274.98C328.73,-266.23 367.03,-252.51 394.65,-242.62"/>
<polygon fill="#63b8ff" stroke="#63b8ff" points="396.05,-245.84 404.29,-239.17 393.69,-239.25 396.05,-245.84"/>
</a>
</g>
</g>
<!-- Node22 -->
<g id="Node000022" class="node">
<title>Node22</title>
<g id="a_Node000022"><a xlink:title=" ">
<polygon fill="#e0e0e0" stroke="#999999" points="330,-239 283,-239 283,-220 330,-220 330,-239"/>
<text text-anchor="middle" x="306.5" y="-227" font-family="Helvetica,sans-Serif" font-size="10.00">cmath</text>
</a>
</g>
</g>
<!-- Node6&#45;&gt;Node22 -->
<g id="edge28_Node000006_Node000022" class="edge">
<title>Node6&#45;&gt;Node22</title>
<g id="a_edge28_Node000006_Node000022"><a xlink:title=" ">
<path fill="none" stroke="#63b8ff" d="M284.79,-274.75C288.31,-267.57 293.41,-257.18 297.78,-248.27"/>
<polygon fill="#63b8ff" stroke="#63b8ff" points="301.02,-249.61 302.29,-239.09 294.74,-246.53 301.02,-249.61"/>
</a>
</g>
</g>
<!-- Node8 -->
<g id="Node000008" class="node">
<title>Node8</title>
<g id="a_Node000008"><a xlink:title=" ">
<polygon fill="#e0e0e0" stroke="#999999" points="527.5,-74 395.5,-74 395.5,-55 527.5,-55 527.5,-74"/>
<text text-anchor="middle" x="461.5" y="-62" font-family="Helvetica,sans-Serif" font-size="10.00">tinyformat/tinyformat.h</text>
</a>
</g>
</g>
<!-- Node7&#45;&gt;Node8 -->
<g id="edge8_Node000007_Node000008" class="edge">
<title>Node7&#45;&gt;Node8</title>
<g id="a_edge8_Node000007_Node000008"><a xlink:title=" ">
<path fill="none" stroke="#63b8ff" d="M557.18,-109.98C538.84,-101.46 510.39,-88.23 489.27,-78.41"/>
<polygon fill="#63b8ff" stroke="#63b8ff" points="490.69,-75.21 480.15,-74.17 487.74,-81.56 490.69,-75.21"/>
</a>
</g>
</g>
<!-- Node9 -->
<g id="Node000009" class="node">
<title>Node9</title>
<g id="a_Node000009"><a xlink:href="print_8hpp.html" target="_top" xlink:title="Printing helpers for std types.">
<polygon fill="white" stroke="#666666" points="605.5,-74 545.5,-74 545.5,-55 605.5,-55 605.5,-74"/>
<text text-anchor="middle" x="575.5" y="-62" font-family="Helvetica,sans-Serif" font-size="10.00">print.hpp</text>
</a>
</g>
</g>
<!-- Node7&#45;&gt;Node9 -->
<g id="edge9_Node000007_Node000009" class="edge">
<title>Node7&#45;&gt;Node9</title>
<g id="a_edge9_Node000007_Node000009"><a xlink:title=" ">
<path fill="none" stroke="#63b8ff" d="M575.5,-109.75C575.5,-102.8 575.5,-92.85 575.5,-84.13"/>
<polygon fill="#63b8ff" stroke="#63b8ff" points="579,-84.09 575.5,-74.09 572,-84.09 579,-84.09"/>
</a>
</g>
</g>
<!-- Node9&#45;&gt;Node4 -->
<g id="edge11_Node000009_Node000004" class="edge">
<title>Node9&#45;&gt;Node4</title>
<g id="a_edge11_Node000009_Node000004"><a xlink:title=" ">
<path fill="none" stroke="#63b8ff" d="M545.3,-56.72C542.33,-56.12 539.36,-55.53 536.5,-55 444.24,-37.88 334.59,-22.36 280.35,-15"/>
<polygon fill="#63b8ff" stroke="#63b8ff" points="280.65,-11.5 270.27,-13.64 279.71,-18.44 280.65,-11.5"/>
</a>
</g>
</g>
<!-- Node10 -->
<g id="Node000010" class="node">
<title>Node10</title>
<g id="a_Node000010"><a xlink:title=" ">
<polygon fill="#e0e0e0" stroke="#999999" points="505.5,-19 445.5,-19 445.5,0 505.5,0 505.5,-19"/>
<text text-anchor="middle" x="475.5" y="-7" font-family="Helvetica,sans-Serif" font-size="10.00">iostream</text>
</a>
</g>
</g>
<!-- Node9&#45;&gt;Node10 -->
<g id="edge10_Node000009_Node000010" class="edge">
<title>Node9&#45;&gt;Node10</title>
<g id="a_edge10_Node000009_Node000010"><a xlink:title=" ">
<path fill="none" stroke="#63b8ff" d="M559.43,-54.98C543.64,-46.61 519.28,-33.7 500.87,-23.95"/>
<polygon fill="#63b8ff" stroke="#63b8ff" points="502.33,-20.76 491.86,-19.17 499.06,-26.95 502.33,-20.76"/>
</a>
</g>
</g>
<!-- Node11 -->
<g id="Node000011" class="node">
<title>Node11</title>
<g id="a_Node000011"><a xlink:title=" ">
<polygon fill="#e0e0e0" stroke="#999999" points="565.5,-19 523.5,-19 523.5,0 565.5,0 565.5,-19"/>
<text text-anchor="middle" x="544.5" y="-7" font-family="Helvetica,sans-Serif" font-size="10.00">array</text>
</a>
</g>
</g>
<!-- Node9&#45;&gt;Node11 -->
<g id="edge12_Node000009_Node000011" class="edge">
<title>Node9&#45;&gt;Node11</title>
<g id="a_edge12_Node000009_Node000011"><a xlink:title=" ">
<path fill="none" stroke="#63b8ff" d="M570.38,-54.75C566.14,-47.49 559.97,-36.95 554.72,-27.98"/>
<polygon fill="#63b8ff" stroke="#63b8ff" points="557.59,-25.95 549.52,-19.09 551.55,-29.49 557.59,-25.95"/>
</a>
</g>
</g>
<!-- Node12 -->
<g id="Node000012" class="node">
<title>Node12</title>
<g id="a_Node000012"><a xlink:title=" ">
<polygon fill="#e0e0e0" stroke="#999999" points="629,-19 584,-19 584,0 629,0 629,-19"/>
<text text-anchor="middle" x="606.5" y="-7" font-family="Helvetica,sans-Serif" font-size="10.00">utility</text>
</a>
</g>
</g>
<!-- Node9&#45;&gt;Node12 -->
<g id="edge13_Node000009_Node000012" class="edge">
<title>Node9&#45;&gt;Node12</title>
<g id="a_edge13_Node000009_Node000012"><a xlink:title=" ">
<path fill="none" stroke="#63b8ff" d="M580.62,-54.75C584.86,-47.49 591.03,-36.95 596.28,-27.98"/>
<polygon fill="#63b8ff" stroke="#63b8ff" points="599.45,-29.49 601.48,-19.09 593.41,-25.95 599.45,-29.49"/>
</a>
</g>
</g>
<!-- Node13 -->
<g id="Node000013" class="node">
<title>Node13</title>
<g id="a_Node000013"><a xlink:title=" ">
<polygon fill="#e0e0e0" stroke="#999999" points="688,-19 647,-19 647,0 688,0 688,-19"/>
<text text-anchor="middle" x="667.5" y="-7" font-family="Helvetica,sans-Serif" font-size="10.00">tuple</text>
</a>
</g>
</g>
<!-- Node9&#45;&gt;Node13 -->
<g id="edge14_Node000009_Node000013" class="edge">
<title>Node9&#45;&gt;Node13</title>
<g id="a_edge14_Node000009_Node000013"><a xlink:title=" ">
<path fill="none" stroke="#63b8ff" d="M590.28,-54.98C604.68,-46.69 626.81,-33.94 643.69,-24.22"/>
<polygon fill="#63b8ff" stroke="#63b8ff" points="645.53,-27.19 652.45,-19.17 642.04,-21.13 645.53,-27.19"/>
</a>
</g>
</g>
<!-- Node15 -->
<g id="Node000015" class="node">
<title>Node15</title>
<g id="a_Node000015"><a xlink:href="Vec__fwd_8hpp.html" target="_top" xlink:title="Declaration of Vec.">
<polygon fill="white" stroke="#666666" points="191,-184 114,-184 114,-165 191,-165 191,-184"/>
<text text-anchor="middle" x="152.5" y="-172" font-family="Helvetica,sans-Serif" font-size="10.00">Vec_fwd.hpp</text>
</a>
</g>
</g>
<!-- Node14&#45;&gt;Node15 -->
<g id="edge16_Node000014_Node000015" class="edge">
<title>Node14&#45;&gt;Node15</title>
<g id="a_edge16_Node000014_Node000015"><a xlink:title=" ">
<path fill="none" stroke="#63b8ff" d="M152.5,-219.75C152.5,-212.8 152.5,-202.85 152.5,-194.13"/>
<polygon fill="#63b8ff" stroke="#63b8ff" points="156,-194.09 152.5,-184.09 149,-194.09 156,-194.09"/>
</a>
</g>
</g>
<!-- Node15&#45;&gt;Node3 -->
<g id="edge17_Node000015_Node000003" class="edge">
<title>Node15&#45;&gt;Node3</title>
<g id="a_edge17_Node000015_Node000003"><a xlink:title=" ">
<path fill="none" stroke="#63b8ff" d="M154.32,-164.75C155.76,-157.8 157.82,-147.85 159.63,-139.13"/>
<polygon fill="#63b8ff" stroke="#63b8ff" points="163.11,-139.59 161.72,-129.09 156.26,-138.17 163.11,-139.59"/>
</a>
</g>
</g>
<!-- Node15&#45;&gt;Node5 -->
<g id="edge18_Node000015_Node000005" class="edge">
<title>Node15&#45;&gt;Node5</title>
<g id="a_edge18_Node000015_Node000005"><a xlink:title=" ">
<path fill="none" stroke="#63b8ff" d="M133.54,-164.98C114.47,-156.42 84.84,-143.11 62.95,-133.28"/>
<polygon fill="#63b8ff" stroke="#63b8ff" points="64.36,-130.07 53.8,-129.17 61.49,-136.46 64.36,-130.07"/>
</a>
</g>
</g>
<!-- Node17 -->
<g id="Node000017" class="node">
<title>Node17</title>
<g id="a_Node000017"><a xlink:href="Range__fwd_8hpp.html" target="_top" xlink:title="Declaration of Range.">
<polygon fill="white" stroke="#666666" points="465,-184 374,-184 374,-165 465,-165 465,-184"/>
<text text-anchor="middle" x="419.5" y="-172" font-family="Helvetica,sans-Serif" font-size="10.00">Range_fwd.hpp</text>
</a>
</g>
</g>
<!-- Node16&#45;&gt;Node17 -->
<g id="edge20_Node000016_Node000017" class="edge">
<title>Node16&#45;&gt;Node17</title>
<g id="a_edge20_Node000016_Node000017"><a xlink:title=" ">
<path fill="none" stroke="#63b8ff" d="M427.01,-219.75C425.83,-212.8 424.14,-202.85 422.66,-194.13"/>
<polygon fill="#63b8ff" stroke="#63b8ff" points="426.08,-193.36 420.96,-184.09 419.18,-194.53 426.08,-193.36"/>
</a>
</g>
</g>
<!-- Node21 -->
<g id="Node000021" class="node">
<title>Node21</title>
<g id="a_Node000021"><a xlink:title=" ">
<polygon fill="#e0e0e0" stroke="#999999" points="355.5,-184 291.5,-184 291.5,-165 355.5,-165 355.5,-184"/>
<text text-anchor="middle" x="323.5" y="-172" font-family="Helvetica,sans-Serif" font-size="10.00">algorithm</text>
</a>
</g>
</g>
<!-- Node16&#45;&gt;Node21 -->
<g id="edge27_Node000016_Node000021" class="edge">
<title>Node16&#45;&gt;Node21</title>
<g id="a_edge27_Node000016_Node000021"><a xlink:title=" ">
<path fill="none" stroke="#63b8ff" d="M411.63,-219.98C394.89,-211.54 369,-198.47 349.61,-188.68"/>
<polygon fill="#63b8ff" stroke="#63b8ff" points="351.18,-185.55 340.68,-184.17 348.03,-191.8 351.18,-185.55"/>
</a>
</g>
</g>
<!-- Node17&#45;&gt;Node3 -->
<g id="edge21_Node000017_Node000003" class="edge">
<title>Node17&#45;&gt;Node3</title>
<g id="a_edge21_Node000017_Node000003"><a xlink:title=" ">
<path fill="none" stroke="#63b8ff" d="M378.37,-164.98C333.9,-155.78 262.95,-141.09 214.85,-131.13"/>
<polygon fill="#63b8ff" stroke="#63b8ff" points="215.46,-127.68 204.95,-129.08 214.04,-134.54 215.46,-127.68"/>
</a>
</g>
</g>
<!-- Node17&#45;&gt;Node4 -->
<g id="edge25_Node000017_Node000004" class="edge">
<title>Node17&#45;&gt;Node4</title>
<g id="a_edge25_Node000017_Node000004"><a xlink:title=" ">
<path fill="none" stroke="#63b8ff" d="M373.95,-165.88C333.92,-158.23 279.88,-145.26 265.5,-129 240.97,-101.27 241.34,-54.94 243.86,-29.19"/>
<polygon fill="#63b8ff" stroke="#63b8ff" points="247.34,-29.59 245.05,-19.24 240.39,-28.76 247.34,-29.59"/>
</a>
</g>
</g>
<!-- Node17&#45;&gt;Node7 -->
<g id="edge22_Node000017_Node000007" class="edge">
<title>Node17&#45;&gt;Node7</title>
<g id="a_edge22_Node000017_Node000007"><a xlink:title=" ">
<path fill="none" stroke="#63b8ff" d="M444.56,-164.98C470.53,-156.16 511.31,-142.31 540.46,-132.41"/>
<polygon fill="#63b8ff" stroke="#63b8ff" points="541.9,-135.61 550.24,-129.08 539.65,-128.99 541.9,-135.61"/>
</a>
</g>
</g>
<!-- Node18 -->
<g id="Node000018" class="node">
<title>Node18</title>
<g id="a_Node000018"><a xlink:href="traits_8hpp.html" target="_top" xlink:title="Type traits definition for vector and scalar fields.">
<polygon fill="white" stroke="#666666" points="480,-129 417,-129 417,-110 480,-110 480,-129"/>
<text text-anchor="middle" x="448.5" y="-117" font-family="Helvetica,sans-Serif" font-size="10.00">traits.hpp</text>
</a>
</g>
</g>
<!-- Node17&#45;&gt;Node18 -->
<g id="edge23_Node000017_Node000018" class="edge">
<title>Node17&#45;&gt;Node18</title>
<g id="a_edge23_Node000017_Node000018"><a xlink:title=" ">
<path fill="none" stroke="#63b8ff" d="M424.29,-164.75C428.26,-157.49 434.03,-146.95 438.93,-137.98"/>
<polygon fill="#63b8ff" stroke="#63b8ff" points="442.07,-139.54 443.8,-129.09 435.93,-136.18 442.07,-139.54"/>
</a>
</g>
</g>
<!-- Node19 -->
<g id="Node000019" class="node">
<title>Node19</title>
<g id="a_Node000019"><a xlink:title=" ">
<polygon fill="#e0e0e0" stroke="#999999" points="332.5,-129 274.5,-129 274.5,-110 332.5,-110 332.5,-129"/>
<text text-anchor="middle" x="303.5" y="-117" font-family="Helvetica,sans-Serif" font-size="10.00">memory</text>
</a>
</g>
</g>
<!-- Node17&#45;&gt;Node19 -->
<g id="edge24_Node000017_Node000019" class="edge">
<title>Node17&#45;&gt;Node19</title>
<g id="a_edge24_Node000017_Node000019"><a xlink:title=" ">
<path fill="none" stroke="#63b8ff" d="M400.86,-164.98C382.2,-156.46 353.25,-143.23 331.76,-133.41"/>
<polygon fill="#63b8ff" stroke="#63b8ff" points="333.03,-130.14 322.48,-129.17 330.12,-136.51 333.03,-130.14"/>
</a>
</g>
</g>
<!-- Node20 -->
<g id="Node000020" class="node">
<title>Node20</title>
<g id="a_Node000020"><a xlink:title=" ">
<polygon fill="#e0e0e0" stroke="#999999" points="398.5,-129 350.5,-129 350.5,-110 398.5,-110 398.5,-129"/>
<text text-anchor="middle" x="374.5" y="-117" font-family="Helvetica,sans-Serif" font-size="10.00">iosfwd</text>
</a>
</g>
</g>
<!-- Node17&#45;&gt;Node20 -->
<g id="edge26_Node000017_Node000020" class="edge">
<title>Node17&#45;&gt;Node20</title>
<g id="a_edge26_Node000017_Node000020"><a xlink:title=" ">
<path fill="none" stroke="#63b8ff" d="M412.07,-164.75C405.65,-157.18 396.19,-146.05 388.38,-136.84"/>
<polygon fill="#63b8ff" stroke="#63b8ff" points="390.93,-134.45 381.79,-129.09 385.6,-138.98 390.93,-134.45"/>
</a>
</g>
</g>
</g>
</svg>

<g id="navigator" transform="translate(0 0)" fill="#404254">
  <rect fill="#f2f5e9" fill-opacity="0.5" stroke="#606060" stroke-width=".5" x="0" y="0" width="60" height="60"/>
  <use id="zoomplus" xlink:href="#zoomPlus" x="17" y="9" onmousedown="handleZoom(evt,'in')"/>
  <use id="zoomminus" xlink:href="#zoomMin" x="42" y="9" onmousedown="handleZoom(evt,'out')"/>
  <use id="reset" xlink:href="#resetDef" x="30" y="36" onmousedown="handleReset()"/>
   <use id="arrowup" xlink:href="#arrowUp" x="0" y="0" onmousedown="handlePan(0,-1)"/>
  <use id="arrowright" xlink:href="#arrowRight" x="0" y="0" onmousedown="handlePan(1,0)"/>
  <use id="arrowdown" xlink:href="#arrowDown" x="0" y="0" onmousedown="handlePan(0,1)"/>
  <use id="arrowleft" xlink:href="#arrowLeft" x="0" y="0" onmousedown="handlePan(-1,0)"/>
</g>
<svg viewBox="0 0 15 15" width="100%" height="30px" preserveAspectRatio="xMaxYMin meet">
 <g id="arrow_out" transform="scale(0.3 0.3)">
  <a xlink:href="RKExplicit_8hpp__incl_org.svg" target="_base">
   <rect id="button" ry="5" rx="5" y="6" x="6" height="38" width="38"
        fill="#f2f5e9" fill-opacity="0.5" stroke="#606060" stroke-width="1.0"/>
   <path id="arrow"
     d="M 11.500037,31.436501 C 11.940474,20.09759 22.043105,11.32322 32.158766,21.979434 L 37.068811,17.246167 C 37.068811,17.246167 37.088388,32 37.088388,32 L 22.160133,31.978069 C 22.160133,31.978069 26.997745,27.140456 26.997745,27.140456 C 18.528582,18.264221 13.291696,25.230495 11.500037,31.436501 z"
     style="fill:#404040;"/>
  </a>
 </g>
</svg>

<style type='text/css'>
<![CDATA[
[data-mouse-over-selected='false'] { opacity: 0.7; }
[data-mouse-over-selected='true']  { opacity: 1.0; }
]]>
</style>
<script type="application/ecmascript"><![CDATA[
document.addEventListener('DOMContentLoaded', (event) => {
  highlightEdges();
  highlightAdjacentNodes();
});
]]></script>
</svg>
