<?xml version="1.0" encoding="UTF-8" standalone="no"?>
<!DOCTYPE svg PUBLIC "-//W3C//DTD SVG 1.1//EN"
 "http://www.w3.org/Graphics/SVG/1.1/DTD/svg11.dtd">
<!-- Generated by graphviz version 2.43.0 (0)
 -->
<!-- Title: include/medusa/bits/integrators/RKExplicit_fwd.hpp Pages: 1 -->
<svg width="696pt" height="379pt"
 viewBox="0.00 0.00 696.00 379.00" xmlns="http://www.w3.org/2000/svg" xmlns:xlink="http://www.w3.org/1999/xlink">
<g id="graph0" class="graph" transform="scale(1 1) rotate(0) translate(4 375)">
<title>include/medusa/bits/integrators/RKExplicit_fwd.hpp</title>
<!-- Node1 -->
<g id="Node000001" class="node">
<title>Node1</title>
<g id="a_Node000001"><a xlink:title="Runge&#45;Kutta integrator declarations.">
<polygon fill="#999999" stroke="#666666" points="215,-371 90,-371 90,-330 215,-330 215,-371"/>
<text text-anchor="start" x="98" y="-359" font-family="Helvetica,sans-Serif" font-size="10.00">include/medusa/bits</text>
<text text-anchor="start" x="98" y="-348" font-family="Helvetica,sans-Serif" font-size="10.00">/integrators/RKExplicit</text>
<text text-anchor="middle" x="152.5" y="-337" font-family="Helvetica,sans-Serif" font-size="10.00">_fwd.hpp</text>
</a>
</g>
</g>
<!-- Node1&#45;&gt;Node1 -->
<g id="edge28_Node000001_Node000001" class="edge">
<title>Node1&#45;&gt;Node1</title>
<g id="a_edge28_Node000001_Node000001"><a xlink:title=" ">
<path fill="none" stroke="#63b8ff" d="M215.28,-362C225.76,-360.39 233,-356.56 233,-350.5 233,-346.62 230.03,-343.65 225.14,-341.6"/>
<polygon fill="#63b8ff" stroke="#63b8ff" points="225.84,-338.16 215.28,-339 224.06,-344.93 225.84,-338.16"/>
</a>
</g>
</g>
<!-- Node2 -->
<g id="Node000002" class="node">
<title>Node2</title>
<g id="a_Node000002"><a xlink:href="Config_8hpp.html" target="_top" xlink:title="Contains compile time settings for the project, such as Eigen plugins.">
<polygon fill="white" stroke="#666666" points="218.5,-129 108.5,-129 108.5,-110 218.5,-110 218.5,-129"/>
<text text-anchor="middle" x="163.5" y="-117" font-family="Helvetica,sans-Serif" font-size="10.00">medusa/Config.hpp</text>
</a>
</g>
</g>
<!-- Node1&#45;&gt;Node2 -->
<g id="edge1_Node000001_Node000002" class="edge">
<title>Node1&#45;&gt;Node2</title>
<g id="a_edge1_Node000001_Node000002"><a xlink:title=" ">
<path fill="none" stroke="#63b8ff" d="M125.89,-329.81C97.1,-305.89 56.88,-263.33 69.5,-220 77.6,-192.18 84.84,-186.29 104.5,-165 115.18,-153.43 129.18,-142.73 140.86,-134.72"/>
<polygon fill="#63b8ff" stroke="#63b8ff" points="142.85,-137.6 149.25,-129.15 138.98,-131.77 142.85,-137.6"/>
</a>
</g>
</g>
<!-- Node4 -->
<g id="Node000004" class="node">
<title>Node4</title>
<g id="a_Node000004"><a xlink:title=" ">
<polygon fill="#e0e0e0" stroke="#999999" points="69,-129 0,-129 0,-110 69,-110 69,-129"/>
<text text-anchor="middle" x="34.5" y="-117" font-family="Helvetica,sans-Serif" font-size="10.00">Eigen/Core</text>
</a>
</g>
</g>
<!-- Node1&#45;&gt;Node4 -->
<g id="edge3_Node000001_Node000004" class="edge">
<title>Node1&#45;&gt;Node4</title>
<g id="a_edge3_Node000001_Node000004"><a xlink:title=" ">
<path fill="none" stroke="#63b8ff" d="M114.57,-329.88C100.36,-320.76 85.3,-308.66 75.5,-294 42.88,-245.2 36.09,-173.49 34.76,-139.59"/>
<polygon fill="#63b8ff" stroke="#63b8ff" points="38.25,-139.18 34.49,-129.28 31.25,-139.37 38.25,-139.18"/>
</a>
</g>
</g>
<!-- Node5 -->
<g id="Node000005" class="node">
<title>Node5</title>
<g id="a_Node000005"><a xlink:href="numutils_8hpp.html" target="_top" xlink:title="Declaration of numerical utilities.">
<polygon fill="white" stroke="#666666" points="364,-294 197,-294 197,-275 364,-275 364,-294"/>
<text text-anchor="middle" x="280.5" y="-282" font-family="Helvetica,sans-Serif" font-size="10.00">medusa/bits/utils/numutils.hpp</text>
</a>
</g>
</g>
<!-- Node1&#45;&gt;Node5 -->
<g id="edge4_Node000001_Node000005" class="edge">
<title>Node1&#45;&gt;Node5</title>
<g id="a_edge4_Node000001_Node000005"><a xlink:title=" ">
<path fill="none" stroke="#63b8ff" d="M191.6,-329.95C211.82,-319.84 235.97,-307.76 254,-298.75"/>
<polygon fill="#63b8ff" stroke="#63b8ff" points="255.94,-301.69 263.32,-294.09 252.81,-295.43 255.94,-301.69"/>
</a>
</g>
</g>
<!-- Node6 -->
<g id="Node000006" class="node">
<title>Node6</title>
<g id="a_Node000006"><a xlink:href="assert_8hpp.html" target="_top" xlink:title="Implementation of custom assert and debug utilities.">
<polygon fill="white" stroke="#666666" points="653,-129 498,-129 498,-110 653,-110 653,-129"/>
<text text-anchor="middle" x="575.5" y="-117" font-family="Helvetica,sans-Serif" font-size="10.00">medusa/bits/utils/assert.hpp</text>
</a>
</g>
</g>
<!-- Node1&#45;&gt;Node6 -->
<g id="edge29_Node000001_Node000006" class="edge">
<title>Node1&#45;&gt;Node6</title>
<g id="a_edge29_Node000001_Node000006"><a xlink:title=" ">
<path fill="none" stroke="#63b8ff" d="M215.3,-348.32C299.39,-343.4 448.38,-322.5 538.5,-239 566.73,-212.84 573.58,-165.52 575.14,-139.28"/>
<polygon fill="#63b8ff" stroke="#63b8ff" points="578.64,-139.29 575.54,-129.16 571.65,-139.01 578.64,-139.29"/>
</a>
</g>
</g>
<!-- Node3 -->
<g id="Node000003" class="node">
<title>Node3</title>
<g id="a_Node000003"><a xlink:title=" ">
<polygon fill="#e0e0e0" stroke="#999999" points="270,-19 223,-19 223,0 270,0 270,-19"/>
<text text-anchor="middle" x="246.5" y="-7" font-family="Helvetica,sans-Serif" font-size="10.00">vector</text>
</a>
</g>
</g>
<!-- Node2&#45;&gt;Node3 -->
<g id="edge2_Node000002_Node000003" class="edge">
<title>Node2&#45;&gt;Node3</title>
<g id="a_edge2_Node000002_Node000003"><a xlink:title=" ">
<path fill="none" stroke="#63b8ff" d="M170.29,-109.66C184.1,-91.69 215.65,-50.64 233.52,-27.38"/>
<polygon fill="#63b8ff" stroke="#63b8ff" points="236.53,-29.22 239.85,-19.16 230.98,-24.95 236.53,-29.22"/>
</a>
</g>
</g>
<!-- Node5&#45;&gt;Node2 -->
<g id="edge5_Node000005_Node000002" class="edge">
<title>Node5&#45;&gt;Node2</title>
<g id="a_edge5_Node000005_Node000002"><a xlink:title=" ">
<path fill="none" stroke="#63b8ff" d="M274.84,-274.71C261.96,-254.82 229.26,-204.98 199.5,-165 192.45,-155.53 184.2,-145.27 177.37,-137"/>
<polygon fill="#63b8ff" stroke="#63b8ff" points="179.97,-134.65 170.89,-129.2 174.59,-139.13 179.97,-134.65"/>
</a>
</g>
</g>
<!-- Node5&#45;&gt;Node6 -->
<g id="edge6_Node000005_Node000006" class="edge">
<title>Node5&#45;&gt;Node6</title>
<g id="a_edge6_Node000005_Node000006"><a xlink:title=" ">
<path fill="none" stroke="#63b8ff" d="M364.12,-275.9C422.67,-269.1 494.56,-257.34 518.5,-239 535.45,-226.02 558.06,-168.75 569.01,-138.84"/>
<polygon fill="#63b8ff" stroke="#63b8ff" points="572.39,-139.79 572.48,-129.19 565.8,-137.41 572.39,-139.79"/>
</a>
</g>
</g>
<!-- Node13 -->
<g id="Node000013" class="node">
<title>Node13</title>
<g id="a_Node000013"><a xlink:href="Vec_8hpp.html" target="_top" xlink:title="Implemetations for Vec.">
<polygon fill="white" stroke="#666666" points="226.5,-239 78.5,-239 78.5,-220 226.5,-220 226.5,-239"/>
<text text-anchor="middle" x="152.5" y="-227" font-family="Helvetica,sans-Serif" font-size="10.00">medusa/bits/types/Vec.hpp</text>
</a>
</g>
</g>
<!-- Node5&#45;&gt;Node13 -->
<g id="edge14_Node000005_Node000013" class="edge">
<title>Node5&#45;&gt;Node13</title>
<g id="a_edge14_Node000005_Node000013"><a xlink:title=" ">
<path fill="none" stroke="#63b8ff" d="M259.93,-274.98C239.07,-266.34 206.53,-252.87 182.73,-243.02"/>
<polygon fill="#63b8ff" stroke="#63b8ff" points="184.02,-239.76 173.44,-239.17 181.34,-246.23 184.02,-239.76"/>
</a>
</g>
</g>
<!-- Node15 -->
<g id="Node000015" class="node">
<title>Node15</title>
<g id="a_Node000015"><a xlink:href="Range_8hpp.html" target="_top" xlink:title="Implementation of Range.">
<polygon fill="white" stroke="#666666" points="509,-239 348,-239 348,-220 509,-220 509,-239"/>
<text text-anchor="middle" x="428.5" y="-227" font-family="Helvetica,sans-Serif" font-size="10.00">medusa/bits/types/Range.hpp</text>
</a>
</g>
</g>
<!-- Node5&#45;&gt;Node15 -->
<g id="edge18_Node000005_Node000015" class="edge">
<title>Node5&#45;&gt;Node15</title>
<g id="a_edge18_Node000005_Node000015"><a xlink:title=" ">
<path fill="none" stroke="#63b8ff" d="M304.28,-274.98C328.73,-266.23 367.03,-252.51 394.65,-242.62"/>
<polygon fill="#63b8ff" stroke="#63b8ff" points="396.05,-245.84 404.29,-239.17 393.69,-239.25 396.05,-245.84"/>
</a>
</g>
</g>
<!-- Node21 -->
<g id="Node000021" class="node">
<title>Node21</title>
<g id="a_Node000021"><a xlink:title=" ">
<polygon fill="#e0e0e0" stroke="#999999" points="330,-239 283,-239 283,-220 330,-220 330,-239"/>
<text text-anchor="middle" x="306.5" y="-227" font-family="Helvetica,sans-Serif" font-size="10.00">cmath</text>
</a>
</g>
</g>
<!-- Node5&#45;&gt;Node21 -->
<g id="edge27_Node000005_Node000021" class="edge">
<title>Node5&#45;&gt;Node21</title>
<g id="a_edge27_Node000005_Node000021"><a xlink:title=" ">
<path fill="none" stroke="#63b8ff" d="M284.79,-274.75C288.31,-267.57 293.41,-257.18 297.78,-248.27"/>
<polygon fill="#63b8ff" stroke="#63b8ff" points="301.02,-249.61 302.29,-239.09 294.74,-246.53 301.02,-249.61"/>
</a>
</g>
</g>
<!-- Node7 -->
<g id="Node000007" class="node">
<title>Node7</title>
<g id="a_Node000007"><a xlink:title=" ">
<polygon fill="#e0e0e0" stroke="#999999" points="527.5,-74 395.5,-74 395.5,-55 527.5,-55 527.5,-74"/>
<text text-anchor="middle" x="461.5" y="-62" font-family="Helvetica,sans-Serif" font-size="10.00">tinyformat/tinyformat.h</text>
</a>
</g>
</g>
<!-- Node6&#45;&gt;Node7 -->
<g id="edge7_Node000006_Node000007" class="edge">
<title>Node6&#45;&gt;Node7</title>
<g id="a_edge7_Node000006_Node000007"><a xlink:title=" ">
<path fill="none" stroke="#63b8ff" d="M557.18,-109.98C538.84,-101.46 510.39,-88.23 489.27,-78.41"/>
<polygon fill="#63b8ff" stroke="#63b8ff" points="490.69,-75.21 480.15,-74.17 487.74,-81.56 490.69,-75.21"/>
</a>
</g>
</g>
<!-- Node8 -->
<g id="Node000008" class="node">
<title>Node8</title>
<g id="a_Node000008"><a xlink:href="print_8hpp.html" target="_top" xlink:title="Printing helpers for std types.">
<polygon fill="white" stroke="#666666" points="605.5,-74 545.5,-74 545.5,-55 605.5,-55 605.5,-74"/>
<text text-anchor="middle" x="575.5" y="-62" font-family="Helvetica,sans-Serif" font-size="10.00">print.hpp</text>
</a>
</g>
</g>
<!-- Node6&#45;&gt;Node8 -->
<g id="edge8_Node000006_Node000008" class="edge">
<title>Node6&#45;&gt;Node8</title>
<g id="a_edge8_Node000006_Node000008"><a xlink:title=" ">
<path fill="none" stroke="#63b8ff" d="M575.5,-109.75C575.5,-102.8 575.5,-92.85 575.5,-84.13"/>
<polygon fill="#63b8ff" stroke="#63b8ff" points="579,-84.09 575.5,-74.09 572,-84.09 579,-84.09"/>
</a>
</g>
</g>
<!-- Node8&#45;&gt;Node3 -->
<g id="edge10_Node000008_Node000003" class="edge">
<title>Node8&#45;&gt;Node3</title>
<g id="a_edge10_Node000008_Node000003"><a xlink:title=" ">
<path fill="none" stroke="#63b8ff" d="M545.3,-56.72C542.33,-56.12 539.36,-55.53 536.5,-55 444.24,-37.88 334.59,-22.36 280.35,-15"/>
<polygon fill="#63b8ff" stroke="#63b8ff" points="280.65,-11.5 270.27,-13.64 279.71,-18.44 280.65,-11.5"/>
</a>
</g>
</g>
<!-- Node9 -->
<g id="Node000009" class="node">
<title>Node9</title>
<g id="a_Node000009"><a xlink:title=" ">
<polygon fill="#e0e0e0" stroke="#999999" points="505.5,-19 445.5,-19 445.5,0 505.5,0 505.5,-19"/>
<text text-anchor="middle" x="475.5" y="-7" font-family="Helvetica,sans-Serif" font-size="10.00">iostream</text>
</a>
</g>
</g>
<!-- Node8&#45;&gt;Node9 -->
<g id="edge9_Node000008_Node000009" class="edge">
<title>Node8&#45;&gt;Node9</title>
<g id="a_edge9_Node000008_Node000009"><a xlink:title=" ">
<path fill="none" stroke="#63b8ff" d="M559.43,-54.98C543.64,-46.61 519.28,-33.7 500.87,-23.95"/>
<polygon fill="#63b8ff" stroke="#63b8ff" points="502.33,-20.76 491.86,-19.17 499.06,-26.95 502.33,-20.76"/>
</a>
</g>
</g>
<!-- Node10 -->
<g id="Node000010" class="node">
<title>Node10</title>
<g id="a_Node000010"><a xlink:title=" ">
<polygon fill="#e0e0e0" stroke="#999999" points="565.5,-19 523.5,-19 523.5,0 565.5,0 565.5,-19"/>
<text text-anchor="middle" x="544.5" y="-7" font-family="Helvetica,sans-Serif" font-size="10.00">array</text>
</a>
</g>
</g>
<!-- Node8&#45;&gt;Node10 -->
<g id="edge11_Node000008_Node000010" class="edge">
<title>Node8&#45;&gt;Node10</title>
<g id="a_edge11_Node000008_Node000010"><a xlink:title=" ">
<path fill="none" stroke="#63b8ff" d="M570.38,-54.75C566.14,-47.49 559.97,-36.95 554.72,-27.98"/>
<polygon fill="#63b8ff" stroke="#63b8ff" points="557.59,-25.95 549.52,-19.09 551.55,-29.49 557.59,-25.95"/>
</a>
</g>
</g>
<!-- Node11 -->
<g id="Node000011" class="node">
<title>Node11</title>
<g id="a_Node000011"><a xlink:title=" ">
<polygon fill="#e0e0e0" stroke="#999999" points="629,-19 584,-19 584,0 629,0 629,-19"/>
<text text-anchor="middle" x="606.5" y="-7" font-family="Helvetica,sans-Serif" font-size="10.00">utility</text>
</a>
</g>
</g>
<!-- Node8&#45;&gt;Node11 -->
<g id="edge12_Node000008_Node000011" class="edge">
<title>Node8&#45;&gt;Node11</title>
<g id="a_edge12_Node000008_Node000011"><a xlink:title=" ">
<path fill="none" stroke="#63b8ff" d="M580.62,-54.75C584.86,-47.49 591.03,-36.95 596.28,-27.98"/>
<polygon fill="#63b8ff" stroke="#63b8ff" points="599.45,-29.49 601.48,-19.09 593.41,-25.95 599.45,-29.49"/>
</a>
</g>
</g>
<!-- Node12 -->
<g id="Node000012" class="node">
<title>Node12</title>
<g id="a_Node000012"><a xlink:title=" ">
<polygon fill="#e0e0e0" stroke="#999999" points="688,-19 647,-19 647,0 688,0 688,-19"/>
<text text-anchor="middle" x="667.5" y="-7" font-family="Helvetica,sans-Serif" font-size="10.00">tuple</text>
</a>
</g>
</g>
<!-- Node8&#45;&gt;Node12 -->
<g id="edge13_Node000008_Node000012" class="edge">
<title>Node8&#45;&gt;Node12</title>
<g id="a_edge13_Node000008_Node000012"><a xlink:title=" ">
<path fill="none" stroke="#63b8ff" d="M590.28,-54.98C604.68,-46.69 626.81,-33.94 643.69,-24.22"/>
<polygon fill="#63b8ff" stroke="#63b8ff" points="645.53,-27.19 652.45,-19.17 642.04,-21.13 645.53,-27.19"/>
</a>
</g>
</g>
<!-- Node14 -->
<g id="Node000014" class="node">
<title>Node14</title>
<g id="a_Node000014"><a xlink:href="Vec__fwd_8hpp.html" target="_top" xlink:title="Declaration of Vec.">
<polygon fill="white" stroke="#666666" points="191,-184 114,-184 114,-165 191,-165 191,-184"/>
<text text-anchor="middle" x="152.5" y="-172" font-family="Helvetica,sans-Serif" font-size="10.00">Vec_fwd.hpp</text>
</a>
</g>
</g>
<!-- Node13&#45;&gt;Node14 -->
<g id="edge15_Node000013_Node000014" class="edge">
<title>Node13&#45;&gt;Node14</title>
<g id="a_edge15_Node000013_Node000014"><a xlink:title=" ">
<path fill="none" stroke="#63b8ff" d="M152.5,-219.75C152.5,-212.8 152.5,-202.85 152.5,-194.13"/>
<polygon fill="#63b8ff" stroke="#63b8ff" points="156,-194.09 152.5,-184.09 149,-194.09 156,-194.09"/>
</a>
</g>
</g>
<!-- Node14&#45;&gt;Node2 -->
<g id="edge16_Node000014_Node000002" class="edge">
<title>Node14&#45;&gt;Node2</title>
<g id="a_edge16_Node000014_Node000002"><a xlink:title=" ">
<path fill="none" stroke="#63b8ff" d="M154.32,-164.75C155.76,-157.8 157.82,-147.85 159.63,-139.13"/>
<polygon fill="#63b8ff" stroke="#63b8ff" points="163.11,-139.59 161.72,-129.09 156.26,-138.17 163.11,-139.59"/>
</a>
</g>
</g>
<!-- Node14&#45;&gt;Node4 -->
<g id="edge17_Node000014_Node000004" class="edge">
<title>Node14&#45;&gt;Node4</title>
<g id="a_edge17_Node000014_Node000004"><a xlink:title=" ">
<path fill="none" stroke="#63b8ff" d="M133.54,-164.98C114.47,-156.42 84.84,-143.11 62.95,-133.28"/>
<polygon fill="#63b8ff" stroke="#63b8ff" points="64.36,-130.07 53.8,-129.17 61.49,-136.46 64.36,-130.07"/>
</a>
</g>
</g>
<!-- Node16 -->
<g id="Node000016" class="node">
<title>Node16</title>
<g id="a_Node000016"><a xlink:href="Range__fwd_8hpp.html" target="_top" xlink:title="Declaration of Range.">
<polygon fill="white" stroke="#666666" points="465,-184 374,-184 374,-165 465,-165 465,-184"/>
<text text-anchor="middle" x="419.5" y="-172" font-family="Helvetica,sans-Serif" font-size="10.00">Range_fwd.hpp</text>
</a>
</g>
</g>
<!-- Node15&#45;&gt;Node16 -->
<g id="edge19_Node000015_Node000016" class="edge">
<title>Node15&#45;&gt;Node16</title>
<g id="a_edge19_Node000015_Node000016"><a xlink:title=" ">
<path fill="none" stroke="#63b8ff" d="M427.01,-219.75C425.83,-212.8 424.14,-202.85 422.66,-194.13"/>
<polygon fill="#63b8ff" stroke="#63b8ff" points="426.08,-193.36 420.96,-184.09 419.18,-194.53 426.08,-193.36"/>
</a>
</g>
</g>
<!-- Node20 -->
<g id="Node000020" class="node">
<title>Node20</title>
<g id="a_Node000020"><a xlink:title=" ">
<polygon fill="#e0e0e0" stroke="#999999" points="355.5,-184 291.5,-184 291.5,-165 355.5,-165 355.5,-184"/>
<text text-anchor="middle" x="323.5" y="-172" font-family="Helvetica,sans-Serif" font-size="10.00">algorithm</text>
</a>
</g>
</g>
<!-- Node15&#45;&gt;Node20 -->
<g id="edge26_Node000015_Node000020" class="edge">
<title>Node15&#45;&gt;Node20</title>
<g id="a_edge26_Node000015_Node000020"><a xlink:title=" ">
<path fill="none" stroke="#63b8ff" d="M411.63,-219.98C394.89,-211.54 369,-198.47 349.61,-188.68"/>
<polygon fill="#63b8ff" stroke="#63b8ff" points="351.18,-185.55 340.68,-184.17 348.03,-191.8 351.18,-185.55"/>
</a>
</g>
</g>
<!-- Node16&#45;&gt;Node2 -->
<g id="edge20_Node000016_Node000002" class="edge">
<title>Node16&#45;&gt;Node2</title>
<g id="a_edge20_Node000016_Node000002"><a xlink:title=" ">
<path fill="none" stroke="#63b8ff" d="M378.37,-164.98C333.9,-155.78 262.95,-141.09 214.85,-131.13"/>
<polygon fill="#63b8ff" stroke="#63b8ff" points="215.46,-127.68 204.95,-129.08 214.04,-134.54 215.46,-127.68"/>
</a>
</g>
</g>
<!-- Node16&#45;&gt;Node3 -->
<g id="edge24_Node000016_Node000003" class="edge">
<title>Node16&#45;&gt;Node3</title>
<g id="a_edge24_Node000016_Node000003"><a xlink:title=" ">
<path fill="none" stroke="#63b8ff" d="M373.95,-165.88C333.92,-158.23 279.88,-145.26 265.5,-129 240.97,-101.27 241.34,-54.94 243.86,-29.19"/>
<polygon fill="#63b8ff" stroke="#63b8ff" points="247.34,-29.59 245.05,-19.24 240.39,-28.76 247.34,-29.59"/>
</a>
</g>
</g>
<!-- Node16&#45;&gt;Node6 -->
<g id="edge21_Node000016_Node000006" class="edge">
<title>Node16&#45;&gt;Node6</title>
<g id="a_edge21_Node000016_Node000006"><a xlink:title=" ">
<path fill="none" stroke="#63b8ff" d="M444.56,-164.98C470.53,-156.16 511.31,-142.31 540.46,-132.41"/>
<polygon fill="#63b8ff" stroke="#63b8ff" points="541.9,-135.61 550.24,-129.08 539.65,-128.99 541.9,-135.61"/>
</a>
</g>
</g>
<!-- Node17 -->
<g id="Node000017" class="node">
<title>Node17</title>
<g id="a_Node000017"><a xlink:href="traits_8hpp.html" target="_top" xlink:title="Type traits definition for vector and scalar fields.">
<polygon fill="white" stroke="#666666" points="480,-129 417,-129 417,-110 480,-110 480,-129"/>
<text text-anchor="middle" x="448.5" y="-117" font-family="Helvetica,sans-Serif" font-size="10.00">traits.hpp</text>
</a>
</g>
</g>
<!-- Node16&#45;&gt;Node17 -->
<g id="edge22_Node000016_Node000017" class="edge">
<title>Node16&#45;&gt;Node17</title>
<g id="a_edge22_Node000016_Node000017"><a xlink:title=" ">
<path fill="none" stroke="#63b8ff" d="M424.29,-164.75C428.26,-157.49 434.03,-146.95 438.93,-137.98"/>
<polygon fill="#63b8ff" stroke="#63b8ff" points="442.07,-139.54 443.8,-129.09 435.93,-136.18 442.07,-139.54"/>
</a>
</g>
</g>
<!-- Node18 -->
<g id="Node000018" class="node">
<title>Node18</title>
<g id="a_Node000018"><a xlink:title=" ">
<polygon fill="#e0e0e0" stroke="#999999" points="332.5,-129 274.5,-129 274.5,-110 332.5,-110 332.5,-129"/>
<text text-anchor="middle" x="303.5" y="-117" font-family="Helvetica,sans-Serif" font-size="10.00">memory</text>
</a>
</g>
</g>
<!-- Node16&#45;&gt;Node18 -->
<g id="edge23_Node000016_Node000018" class="edge">
<title>Node16&#45;&gt;Node18</title>
<g id="a_edge23_Node000016_Node000018"><a xlink:title=" ">
<path fill="none" stroke="#63b8ff" d="M400.86,-164.98C382.2,-156.46 353.25,-143.23 331.76,-133.41"/>
<polygon fill="#63b8ff" stroke="#63b8ff" points="333.03,-130.14 322.48,-129.17 330.12,-136.51 333.03,-130.14"/>
</a>
</g>
</g>
<!-- Node19 -->
<g id="Node000019" class="node">
<title>Node19</title>
<g id="a_Node000019"><a xlink:title=" ">
<polygon fill="#e0e0e0" stroke="#999999" points="398.5,-129 350.5,-129 350.5,-110 398.5,-110 398.5,-129"/>
<text text-anchor="middle" x="374.5" y="-117" font-family="Helvetica,sans-Serif" font-size="10.00">iosfwd</text>
</a>
</g>
</g>
<!-- Node16&#45;&gt;Node19 -->
<g id="edge25_Node000016_Node000019" class="edge">
<title>Node16&#45;&gt;Node19</title>
<g id="a_edge25_Node000016_Node000019"><a xlink:title=" ">
<path fill="none" stroke="#63b8ff" d="M412.07,-164.75C405.65,-157.18 396.19,-146.05 388.38,-136.84"/>
<polygon fill="#63b8ff" stroke="#63b8ff" points="390.93,-134.45 381.79,-129.09 385.6,-138.98 390.93,-134.45"/>
</a>
</g>
</g>
</g>
</svg>
