<?xml version="1.0" encoding="UTF-8" standalone="no"?>
<!DOCTYPE svg PUBLIC "-//W3C//DTD SVG 1.1//EN"
 "http://www.w3.org/Graphics/SVG/1.1/DTD/svg11.dtd">
<!-- Generated by graphviz version 2.43.0 (0)
 -->
<!-- Title: include/medusa/bits/types/ScalarField_fwd.hpp Pages: 1 -->
<svg width="315pt" height="280pt"
 viewBox="0.00 0.00 314.50 280.00" xmlns="http://www.w3.org/2000/svg" xmlns:xlink="http://www.w3.org/1999/xlink">
<g id="graph0" class="graph" transform="scale(1 1) rotate(0) translate(4 276)">
<title>include/medusa/bits/types/ScalarField_fwd.hpp</title>
<!-- Node1 -->
<g id="Node000001" class="node">
<title>Node1</title>
<g id="a_Node000001"><a xlink:title="Declaration of ScalarField.">
<polygon fill="#999999" stroke="#666666" points="222,-272 76,-272 76,-242 222,-242 222,-272"/>
<text text-anchor="start" x="84" y="-260" font-family="Helvetica,sans-Serif" font-size="10.00">include/medusa/bits</text>
<text text-anchor="middle" x="149" y="-249" font-family="Helvetica,sans-Serif" font-size="10.00">/types/ScalarField_fwd.hpp</text>
</a>
</g>
</g>
<!-- Node2 -->
<g id="Node000002" class="node">
<title>Node2</title>
<g id="a_Node000002"><a xlink:href="Types__fwd_8hpp.html" target="_top" xlink:title="Header for Types module, declarations only.">
<polygon fill="white" stroke="#666666" points="140.5,-206 15.5,-206 15.5,-176 140.5,-176 140.5,-206"/>
<text text-anchor="start" x="23.5" y="-194" font-family="Helvetica,sans-Serif" font-size="10.00">include/medusa/Types</text>
<text text-anchor="middle" x="78" y="-183" font-family="Helvetica,sans-Serif" font-size="10.00">_fwd.hpp</text>
</a>
</g>
</g>
<!-- Node1&#45;&gt;Node2 -->
<g id="edge1_Node000001_Node000002" class="edge">
<title>Node1&#45;&gt;Node2</title>
<g id="a_edge1_Node000001_Node000002"><a xlink:title=" ">
<path fill="none" stroke="#63b8ff" d="M125.62,-234.92C115.15,-225.49 103.08,-214.61 93.71,-206.16"/>
<polygon fill="#63b8ff" stroke="#63b8ff" points="123.47,-237.7 133.24,-241.8 128.16,-232.5 123.47,-237.7"/>
</a>
</g>
</g>
<!-- Node6 -->
<g id="Node000006" class="node">
<title>Node6</title>
<g id="a_Node000006"><a xlink:href="ScalarField_8hpp.html" target="_top" xlink:title="Implementation of ScalarField.">
<polygon fill="white" stroke="#666666" points="283,-206 159,-206 159,-176 283,-176 283,-206"/>
<text text-anchor="start" x="167" y="-194" font-family="Helvetica,sans-Serif" font-size="10.00">include/medusa/bits</text>
<text text-anchor="middle" x="221" y="-183" font-family="Helvetica,sans-Serif" font-size="10.00">/types/ScalarField.hpp</text>
</a>
</g>
</g>
<!-- Node1&#45;&gt;Node6 -->
<g id="edge6_Node000001_Node000006" class="edge">
<title>Node1&#45;&gt;Node6</title>
<g id="a_edge6_Node000001_Node000006"><a xlink:title=" ">
<path fill="none" stroke="#63b8ff" d="M172.71,-234.92C183.33,-225.49 195.57,-214.61 205.07,-206.16"/>
<polygon fill="#63b8ff" stroke="#63b8ff" points="170.13,-232.54 164.98,-241.8 174.78,-237.77 170.13,-232.54"/>
</a>
</g>
</g>
<!-- Node3 -->
<g id="Node000003" class="node">
<title>Node3</title>
<g id="a_Node000003"><a xlink:href="Types_8hpp.html" target="_top" xlink:title="Header for Types module.">
<polygon fill="white" stroke="#666666" points="151,-140 5,-140 5,-121 151,-121 151,-140"/>
<text text-anchor="middle" x="78" y="-128" font-family="Helvetica,sans-Serif" font-size="10.00">include/medusa/Types.hpp</text>
</a>
</g>
</g>
<!-- Node2&#45;&gt;Node3 -->
<g id="edge2_Node000002_Node000003" class="edge">
<title>Node2&#45;&gt;Node3</title>
<g id="a_edge2_Node000002_Node000003"><a xlink:title=" ">
<path fill="none" stroke="#63b8ff" d="M78,-165.75C78,-156.72 78,-147.03 78,-140.27"/>
<polygon fill="#63b8ff" stroke="#63b8ff" points="74.5,-165.84 78,-175.84 81.5,-165.84 74.5,-165.84"/>
</a>
</g>
</g>
<!-- Node4 -->
<g id="Node000004" class="node">
<title>Node4</title>
<g id="a_Node000004"><a xlink:href="Medusa_8hpp.html" target="_top" xlink:title="Main header file that includes most other components.">
<polygon fill="white" stroke="#666666" points="156,-19 0,-19 0,0 156,0 156,-19"/>
<text text-anchor="middle" x="78" y="-7" font-family="Helvetica,sans-Serif" font-size="10.00">include/medusa/Medusa.hpp</text>
</a>
</g>
</g>
<!-- Node3&#45;&gt;Node4 -->
<g id="edge3_Node000003_Node000004" class="edge">
<title>Node3&#45;&gt;Node4</title>
<g id="a_edge3_Node000003_Node000004"><a xlink:title=" ">
<path fill="none" stroke="#63b8ff" d="M63.79,-112.78C58,-104.89 51.98,-95.02 49,-85 45.2,-72.22 45.2,-67.78 49,-55 53.1,-41.21 62.97,-27.7 70.06,-19.25"/>
<polygon fill="#63b8ff" stroke="#63b8ff" points="61.13,-115.05 70.06,-120.75 66.63,-110.72 61.13,-115.05"/>
</a>
</g>
</g>
<!-- Node5 -->
<g id="Node000005" class="node">
<title>Node5</title>
<g id="a_Node000005"><a xlink:href="Medusa__fwd_8hpp.html" target="_top" xlink:title="Main header file that includes only declarations for some heavy classes such as mm::WLS to reduce com...">
<polygon fill="white" stroke="#666666" points="193.5,-85 58.5,-85 58.5,-55 193.5,-55 193.5,-85"/>
<text text-anchor="start" x="66.5" y="-73" font-family="Helvetica,sans-Serif" font-size="10.00">include/medusa/Medusa</text>
<text text-anchor="middle" x="126" y="-62" font-family="Helvetica,sans-Serif" font-size="10.00">_fwd.hpp</text>
</a>
</g>
</g>
<!-- Node3&#45;&gt;Node5 -->
<g id="edge4_Node000003_Node000005" class="edge">
<title>Node3&#45;&gt;Node5</title>
<g id="a_edge4_Node000003_Node000005"><a xlink:title=" ">
<path fill="none" stroke="#63b8ff" d="M91.64,-112.88C98.83,-104.11 107.56,-93.48 114.42,-85.11"/>
<polygon fill="#63b8ff" stroke="#63b8ff" points="88.72,-110.92 85.08,-120.87 94.13,-115.36 88.72,-110.92"/>
</a>
</g>
</g>
<!-- Node5&#45;&gt;Node4 -->
<g id="edge5_Node000005_Node000004" class="edge">
<title>Node5&#45;&gt;Node4</title>
<g id="a_edge5_Node000005_Node000004"><a xlink:title=" ">
<path fill="none" stroke="#63b8ff" d="M108.02,-47.09C100.09,-37.42 91.22,-26.61 85.19,-19.27"/>
<polygon fill="#63b8ff" stroke="#63b8ff" points="105.33,-49.33 114.38,-54.84 110.74,-44.89 105.33,-49.33"/>
</a>
</g>
</g>
<!-- Node6&#45;&gt;Node3 -->
<g id="edge7_Node000006_Node000003" class="edge">
<title>Node6&#45;&gt;Node3</title>
<g id="a_edge7_Node000006_Node000003"><a xlink:title=" ">
<path fill="none" stroke="#63b8ff" d="M177.47,-172.19C151.49,-161.57 119.66,-148.54 99.12,-140.14"/>
<polygon fill="#63b8ff" stroke="#63b8ff" points="176.17,-175.44 186.75,-175.99 178.82,-168.96 176.17,-175.44"/>
</a>
</g>
</g>
<!-- Node7 -->
<g id="Node000007" class="node">
<title>Node7</title>
<g id="a_Node000007"><a xlink:href="ScalarField_8cpp.html" target="_top" xlink:title="Instantiations of most commonly used ScalarFields.">
<polygon fill="white" stroke="#666666" points="306.5,-140 169.5,-140 169.5,-121 306.5,-121 306.5,-140"/>
<text text-anchor="middle" x="238" y="-128" font-family="Helvetica,sans-Serif" font-size="10.00">src/types/ScalarField.cpp</text>
</a>
</g>
</g>
<!-- Node6&#45;&gt;Node7 -->
<g id="edge8_Node000006_Node000007" class="edge">
<title>Node6&#45;&gt;Node7</title>
<g id="a_edge8_Node000006_Node000007"><a xlink:title=" ">
<path fill="none" stroke="#63b8ff" d="M227.96,-166.04C230.61,-156.93 233.47,-147.1 235.45,-140.27"/>
<polygon fill="#63b8ff" stroke="#63b8ff" points="224.54,-165.26 225.12,-175.84 231.27,-167.21 224.54,-165.26"/>
</a>
</g>
</g>
</g>
</svg>
