<?xml version="1.0" encoding="UTF-8" standalone="no"?>
<!DOCTYPE svg PUBLIC "-//W3C//DTD SVG 1.1//EN"
 "http://www.w3.org/Graphics/SVG/1.1/DTD/svg11.dtd">
<!-- Generated by graphviz version 2.43.0 (0)
 -->
<!-- Title: include/medusa/bits/operators/shape_flags.hpp Pages: 1 -->
<svg width="806pt" height="379pt"
 viewBox="0.00 0.00 805.99 379.00" xmlns="http://www.w3.org/2000/svg" xmlns:xlink="http://www.w3.org/1999/xlink">
<g id="graph0" class="graph" transform="scale(1 1) rotate(0) translate(4 375)">
<title>include/medusa/bits/operators/shape_flags.hpp</title>
<!-- Node1 -->
<g id="Node000001" class="node">
<title>Node1</title>
<g id="a_Node000001"><a xlink:title="Definition of flags related to shape computation.">
<polygon fill="#999999" stroke="#666666" points="148,-371 0,-371 0,-341 148,-341 148,-371"/>
<text text-anchor="start" x="8" y="-359" font-family="Helvetica,sans-Serif" font-size="10.00">include/medusa/bits</text>
<text text-anchor="middle" x="74" y="-348" font-family="Helvetica,sans-Serif" font-size="10.00">/operators/shape_flags.hpp</text>
</a>
</g>
</g>
<!-- Node2 -->
<g id="Node000002" class="node">
<title>Node2</title>
<g id="a_Node000002"><a xlink:title=" ">
<polygon fill="#e0e0e0" stroke="#999999" points="46,-299.5 2,-299.5 2,-280.5 46,-280.5 46,-299.5"/>
<text text-anchor="middle" x="24" y="-287.5" font-family="Helvetica,sans-Serif" font-size="10.00">string</text>
</a>
</g>
</g>
<!-- Node1&#45;&gt;Node2 -->
<g id="edge1_Node000001_Node000002" class="edge">
<title>Node1&#45;&gt;Node2</title>
<g id="a_edge1_Node000001_Node000002"><a xlink:title=" ">
<path fill="none" stroke="#63b8ff" d="M62.9,-340.8C55.34,-331.11 45.28,-318.24 37.29,-308.01"/>
<polygon fill="#63b8ff" stroke="#63b8ff" points="39.82,-305.57 30.91,-299.84 34.31,-309.88 39.82,-305.57"/>
</a>
</g>
</g>
<!-- Node3 -->
<g id="Node000003" class="node">
<title>Node3</title>
<g id="a_Node000003"><a xlink:title=" ">
<polygon fill="#e0e0e0" stroke="#999999" points="93.5,-19 52.5,-19 52.5,0 93.5,0 93.5,-19"/>
<text text-anchor="middle" x="73" y="-7" font-family="Helvetica,sans-Serif" font-size="10.00">tuple</text>
</a>
</g>
</g>
<!-- Node1&#45;&gt;Node3 -->
<g id="edge2_Node000001_Node000003" class="edge">
<title>Node1&#45;&gt;Node3</title>
<g id="a_edge2_Node000001_Node000003"><a xlink:title=" ">
<path fill="none" stroke="#63b8ff" d="M74,-340.81C74,-317.7 74,-270.49 74,-230.5 74,-230.5 74,-230.5 74,-118.5 74,-87.19 73.57,-50.77 73.28,-29.23"/>
<polygon fill="#63b8ff" stroke="#63b8ff" points="76.78,-29.13 73.13,-19.18 69.78,-29.23 76.78,-29.13"/>
</a>
</g>
</g>
<!-- Node4 -->
<g id="Node000004" class="node">
<title>Node4</title>
<g id="a_Node000004"><a xlink:href="bits_2approximations_2Operators_8hpp.html" target="_top" xlink:title="Implementations of differential operator families.">
<polygon fill="white" stroke="#666666" points="597,-305 441,-305 441,-275 597,-275 597,-305"/>
<text text-anchor="start" x="449" y="-293" font-family="Helvetica,sans-Serif" font-size="10.00">medusa/bits/approximations</text>
<text text-anchor="middle" x="519" y="-282" font-family="Helvetica,sans-Serif" font-size="10.00">/Operators.hpp</text>
</a>
</g>
</g>
<!-- Node1&#45;&gt;Node4 -->
<g id="edge3_Node000001_Node000004" class="edge">
<title>Node1&#45;&gt;Node4</title>
<g id="a_edge3_Node000001_Node000004"><a xlink:title=" ">
<path fill="none" stroke="#63b8ff" d="M148.23,-344.32C225.98,-333.14 348.04,-315.59 430.68,-303.7"/>
<polygon fill="#63b8ff" stroke="#63b8ff" points="431.41,-307.13 440.81,-302.25 430.41,-300.2 431.41,-307.13"/>
</a>
</g>
</g>
<!-- Node5 -->
<g id="Node000005" class="node">
<title>Node5</title>
<g id="a_Node000005"><a xlink:href="Operators__fwd_8hpp.html" target="_top" xlink:title="File defining basic differential operator families.">
<polygon fill="white" stroke="#666666" points="512,-184 404,-184 404,-165 512,-165 512,-184"/>
<text text-anchor="middle" x="458" y="-172" font-family="Helvetica,sans-Serif" font-size="10.00">Operators_fwd.hpp</text>
</a>
</g>
</g>
<!-- Node4&#45;&gt;Node5 -->
<g id="edge4_Node000004_Node000005" class="edge">
<title>Node4&#45;&gt;Node5</title>
<g id="a_edge4_Node000004_Node000005"><a xlink:title=" ">
<path fill="none" stroke="#63b8ff" d="M509.61,-274.82C503.22,-264.94 494.73,-251.38 488,-239 479.82,-223.96 471.58,-206.31 465.82,-193.44"/>
<polygon fill="#63b8ff" stroke="#63b8ff" points="469.01,-192.01 461.77,-184.28 462.61,-194.84 469.01,-192.01"/>
</a>
</g>
</g>
<!-- Node10 -->
<g id="Node000010" class="node">
<title>Node10</title>
<g id="a_Node000010"><a xlink:href="Monomials__fwd_8hpp.html" target="_top" xlink:title="Declaration of Monomial basis.">
<polygon fill="white" stroke="#666666" points="704,-129 590,-129 590,-110 704,-110 704,-129"/>
<text text-anchor="middle" x="647" y="-117" font-family="Helvetica,sans-Serif" font-size="10.00">Monomials_fwd.hpp</text>
</a>
</g>
</g>
<!-- Node4&#45;&gt;Node10 -->
<g id="edge24_Node000004_Node000010" class="edge">
<title>Node4&#45;&gt;Node10</title>
<g id="a_edge24_Node000004_Node000010"><a xlink:title=" ">
<path fill="none" stroke="#63b8ff" d="M560.93,-274.89C578.94,-266.91 598.82,-255.22 612,-239 635.81,-209.69 643.43,-164.66 645.86,-139.38"/>
<polygon fill="#63b8ff" stroke="#63b8ff" points="649.36,-139.53 646.65,-129.29 642.38,-138.98 649.36,-139.53"/>
</a>
</g>
</g>
<!-- Node18 -->
<g id="Node000018" class="node">
<title>Node18</title>
<g id="a_Node000018"><a xlink:href="RBFBasis__fwd_8hpp.html" target="_top" xlink:title="Declaration of RBF basis.">
<polygon fill="white" stroke="#666666" points="603,-239 497,-239 497,-220 603,-220 603,-239"/>
<text text-anchor="middle" x="550" y="-227" font-family="Helvetica,sans-Serif" font-size="10.00">RBFBasis_fwd.hpp</text>
</a>
</g>
</g>
<!-- Node4&#45;&gt;Node18 -->
<g id="edge25_Node000004_Node000018" class="edge">
<title>Node4&#45;&gt;Node18</title>
<g id="a_edge25_Node000004_Node000018"><a xlink:title=" ">
<path fill="none" stroke="#63b8ff" d="M526.5,-274.84C530.73,-266.87 536.04,-256.84 540.55,-248.33"/>
<polygon fill="#63b8ff" stroke="#63b8ff" points="543.77,-249.74 545.35,-239.27 537.58,-246.46 543.77,-249.74"/>
</a>
</g>
</g>
<!-- Node6 -->
<g id="Node000006" class="node">
<title>Node6</title>
<g id="a_Node000006"><a xlink:href="Config_8hpp.html" target="_top" xlink:title="Contains compile time settings for the project, such as Eigen plugins.">
<polygon fill="white" stroke="#666666" points="605,-74 495,-74 495,-55 605,-55 605,-74"/>
<text text-anchor="middle" x="550" y="-62" font-family="Helvetica,sans-Serif" font-size="10.00">medusa/Config.hpp</text>
</a>
</g>
</g>
<!-- Node5&#45;&gt;Node6 -->
<g id="edge5_Node000005_Node000006" class="edge">
<title>Node5&#45;&gt;Node6</title>
<g id="a_edge5_Node000005_Node000006"><a xlink:title=" ">
<path fill="none" stroke="#63b8ff" d="M465.53,-164.66C480.9,-146.61 516.12,-105.28 535.88,-82.08"/>
<polygon fill="#63b8ff" stroke="#63b8ff" points="538.8,-84.04 542.62,-74.16 533.48,-79.5 538.8,-84.04"/>
</a>
</g>
</g>
<!-- Node7 -->
<g id="Node000007" class="node">
<title>Node7</title>
<g id="a_Node000007"><a xlink:title=" ">
<polygon fill="#e0e0e0" stroke="#999999" points="364.5,-19 317.5,-19 317.5,0 364.5,0 364.5,-19"/>
<text text-anchor="middle" x="341" y="-7" font-family="Helvetica,sans-Serif" font-size="10.00">vector</text>
</a>
</g>
</g>
<!-- Node5&#45;&gt;Node7 -->
<g id="edge8_Node000005_Node000007" class="edge">
<title>Node5&#45;&gt;Node7</title>
<g id="a_edge8_Node000005_Node000007"><a xlink:title=" ">
<path fill="none" stroke="#63b8ff" d="M441.7,-164.96C428.04,-157.13 408.76,-144.41 396,-129 370.54,-98.24 354.09,-53.75 346.29,-28.96"/>
<polygon fill="#63b8ff" stroke="#63b8ff" points="349.55,-27.64 343.32,-19.07 342.85,-29.66 349.55,-27.64"/>
</a>
</g>
</g>
<!-- Node8 -->
<g id="Node000008" class="node">
<title>Node8</title>
<g id="a_Node000008"><a xlink:title=" ">
<polygon fill="#e0e0e0" stroke="#999999" points="572,-19 530,-19 530,0 572,0 572,-19"/>
<text text-anchor="middle" x="551" y="-7" font-family="Helvetica,sans-Serif" font-size="10.00">array</text>
</a>
</g>
</g>
<!-- Node5&#45;&gt;Node8 -->
<g id="edge7_Node000005_Node000008" class="edge">
<title>Node5&#45;&gt;Node8</title>
<g id="a_edge7_Node000005_Node000008"><a xlink:title=" ">
<path fill="none" stroke="#63b8ff" d="M447.52,-164.87C423.99,-144.45 371.16,-92.15 399,-55 413.49,-35.66 479.75,-21.9 519.85,-15.17"/>
<polygon fill="#63b8ff" stroke="#63b8ff" points="520.61,-18.59 529.92,-13.54 519.49,-11.69 520.61,-18.59"/>
</a>
</g>
</g>
<!-- Node9 -->
<g id="Node000009" class="node">
<title>Node9</title>
<g id="a_Node000009"><a xlink:title=" ">
<polygon fill="#e0e0e0" stroke="#999999" points="476.5,-74 407.5,-74 407.5,-55 476.5,-55 476.5,-74"/>
<text text-anchor="middle" x="442" y="-62" font-family="Helvetica,sans-Serif" font-size="10.00">Eigen/Core</text>
</a>
</g>
</g>
<!-- Node5&#45;&gt;Node9 -->
<g id="edge9_Node000005_Node000009" class="edge">
<title>Node5&#45;&gt;Node9</title>
<g id="a_edge9_Node000005_Node000009"><a xlink:title=" ">
<path fill="none" stroke="#63b8ff" d="M456.69,-164.66C454.1,-147.17 448.27,-107.8 444.78,-84.27"/>
<polygon fill="#63b8ff" stroke="#63b8ff" points="448.21,-83.54 443.28,-74.16 441.29,-84.56 448.21,-83.54"/>
</a>
</g>
</g>
<!-- Node5&#45;&gt;Node10 -->
<g id="edge10_Node000005_Node000010" class="edge">
<title>Node5&#45;&gt;Node10</title>
<g id="a_edge10_Node000005_Node000010"><a xlink:title=" ">
<path fill="none" stroke="#63b8ff" d="M488.37,-164.98C520.37,-156.01 570.96,-141.82 606.38,-131.89"/>
<polygon fill="#63b8ff" stroke="#63b8ff" points="607.71,-135.15 616.4,-129.08 605.82,-128.41 607.71,-135.15"/>
</a>
</g>
</g>
<!-- Node13 -->
<g id="Node000013" class="node">
<title>Node13</title>
<g id="a_Node000013"><a xlink:href="assert_8hpp.html" target="_top" xlink:title="Implementation of custom assert and debug utilities.">
<polygon fill="white" stroke="#666666" points="312.5,-129 157.5,-129 157.5,-110 312.5,-110 312.5,-129"/>
<text text-anchor="middle" x="235" y="-117" font-family="Helvetica,sans-Serif" font-size="10.00">medusa/bits/utils/assert.hpp</text>
</a>
</g>
</g>
<!-- Node5&#45;&gt;Node13 -->
<g id="edge16_Node000005_Node000013" class="edge">
<title>Node5&#45;&gt;Node13</title>
<g id="a_edge16_Node000005_Node000013"><a xlink:title=" ">
<path fill="none" stroke="#63b8ff" d="M422.17,-164.98C383.84,-155.87 322.92,-141.4 281.05,-131.45"/>
<polygon fill="#63b8ff" stroke="#63b8ff" points="281.65,-127.99 271.11,-129.08 280.03,-134.8 281.65,-127.99"/>
</a>
</g>
</g>
<!-- Node6&#45;&gt;Node7 -->
<g id="edge6_Node000006_Node000007" class="edge">
<title>Node6&#45;&gt;Node7</title>
<g id="a_edge6_Node000006_Node000007"><a xlink:title=" ">
<path fill="none" stroke="#63b8ff" d="M516.42,-54.98C477.44,-45.1 413.53,-28.89 374.56,-19.01"/>
<polygon fill="#63b8ff" stroke="#63b8ff" points="375.3,-15.59 364.75,-16.52 373.58,-22.37 375.3,-15.59"/>
</a>
</g>
</g>
<!-- Node10&#45;&gt;Node6 -->
<g id="edge11_Node000010_Node000006" class="edge">
<title>Node10&#45;&gt;Node6</title>
<g id="a_edge11_Node000010_Node000006"><a xlink:title=" ">
<path fill="none" stroke="#63b8ff" d="M631.42,-109.98C616.23,-101.69 592.9,-88.94 575.1,-79.22"/>
<polygon fill="#63b8ff" stroke="#63b8ff" points="576.32,-75.89 565.87,-74.17 572.97,-82.04 576.32,-75.89"/>
</a>
</g>
</g>
<!-- Node10&#45;&gt;Node8 -->
<g id="edge13_Node000010_Node000008" class="edge">
<title>Node10&#45;&gt;Node8</title>
<g id="a_edge13_Node000010_Node000008"><a xlink:title=" ">
<path fill="none" stroke="#63b8ff" d="M657.43,-109.85C671.39,-97.21 692.98,-73.21 680,-55 657.92,-24.02 612.79,-14.4 582.21,-11.53"/>
<polygon fill="#63b8ff" stroke="#63b8ff" points="582.29,-8.02 572.06,-10.77 581.77,-15.01 582.29,-8.02"/>
</a>
</g>
</g>
<!-- Node10&#45;&gt;Node9 -->
<g id="edge14_Node000010_Node000009" class="edge">
<title>Node10&#45;&gt;Node9</title>
<g id="a_edge14_Node000010_Node000009"><a xlink:title=" ">
<path fill="none" stroke="#63b8ff" d="M614.06,-109.98C579.05,-100.93 523.53,-86.58 485.07,-76.64"/>
<polygon fill="#63b8ff" stroke="#63b8ff" points="485.75,-73.2 475.19,-74.08 484,-79.97 485.75,-73.2"/>
</a>
</g>
</g>
<!-- Node11 -->
<g id="Node000011" class="node">
<title>Node11</title>
<g id="a_Node000011"><a xlink:title=" ">
<polygon fill="#e0e0e0" stroke="#999999" points="670.5,-74 623.5,-74 623.5,-55 670.5,-55 670.5,-74"/>
<text text-anchor="middle" x="647" y="-62" font-family="Helvetica,sans-Serif" font-size="10.00">cmath</text>
</a>
</g>
</g>
<!-- Node10&#45;&gt;Node11 -->
<g id="edge12_Node000010_Node000011" class="edge">
<title>Node10&#45;&gt;Node11</title>
<g id="a_edge12_Node000010_Node000011"><a xlink:title=" ">
<path fill="none" stroke="#63b8ff" d="M647,-109.75C647,-102.8 647,-92.85 647,-84.13"/>
<polygon fill="#63b8ff" stroke="#63b8ff" points="650.5,-84.09 647,-74.09 643.5,-84.09 650.5,-84.09"/>
</a>
</g>
</g>
<!-- Node12 -->
<g id="Node000012" class="node">
<title>Node12</title>
<g id="a_Node000012"><a xlink:title=" ">
<polygon fill="#e0e0e0" stroke="#999999" points="775,-74 727,-74 727,-55 775,-55 775,-74"/>
<text text-anchor="middle" x="751" y="-62" font-family="Helvetica,sans-Serif" font-size="10.00">iosfwd</text>
</a>
</g>
</g>
<!-- Node10&#45;&gt;Node12 -->
<g id="edge15_Node000010_Node000012" class="edge">
<title>Node10&#45;&gt;Node12</title>
<g id="a_edge15_Node000010_Node000012"><a xlink:title=" ">
<path fill="none" stroke="#63b8ff" d="M663.71,-109.98C680.21,-101.57 705.7,-88.59 724.88,-78.81"/>
<polygon fill="#63b8ff" stroke="#63b8ff" points="726.67,-81.83 733.99,-74.17 723.49,-75.59 726.67,-81.83"/>
</a>
</g>
</g>
<!-- Node14 -->
<g id="Node000014" class="node">
<title>Node14</title>
<g id="a_Node000014"><a xlink:title=" ">
<polygon fill="#e0e0e0" stroke="#999999" points="313,-74 181,-74 181,-55 313,-55 313,-74"/>
<text text-anchor="middle" x="247" y="-62" font-family="Helvetica,sans-Serif" font-size="10.00">tinyformat/tinyformat.h</text>
</a>
</g>
</g>
<!-- Node13&#45;&gt;Node14 -->
<g id="edge17_Node000013_Node000014" class="edge">
<title>Node13&#45;&gt;Node14</title>
<g id="a_edge17_Node000013_Node000014"><a xlink:title=" ">
<path fill="none" stroke="#63b8ff" d="M236.98,-109.75C238.57,-102.72 240.86,-92.62 242.85,-83.84"/>
<polygon fill="#63b8ff" stroke="#63b8ff" points="246.26,-84.62 245.06,-74.09 239.43,-83.07 246.26,-84.62"/>
</a>
</g>
</g>
<!-- Node15 -->
<g id="Node000015" class="node">
<title>Node15</title>
<g id="a_Node000015"><a xlink:href="print_8hpp.html" target="_top" xlink:title="Printing helpers for std types.">
<polygon fill="white" stroke="#666666" points="163,-74 103,-74 103,-55 163,-55 163,-74"/>
<text text-anchor="middle" x="133" y="-62" font-family="Helvetica,sans-Serif" font-size="10.00">print.hpp</text>
</a>
</g>
</g>
<!-- Node13&#45;&gt;Node15 -->
<g id="edge18_Node000013_Node000015" class="edge">
<title>Node13&#45;&gt;Node15</title>
<g id="a_edge18_Node000013_Node000015"><a xlink:title=" ">
<path fill="none" stroke="#63b8ff" d="M218.61,-109.98C202.43,-101.57 177.43,-88.59 158.62,-78.81"/>
<polygon fill="#63b8ff" stroke="#63b8ff" points="160.17,-75.68 149.69,-74.17 156.95,-81.89 160.17,-75.68"/>
</a>
</g>
</g>
<!-- Node15&#45;&gt;Node3 -->
<g id="edge23_Node000015_Node000003" class="edge">
<title>Node15&#45;&gt;Node3</title>
<g id="a_edge23_Node000015_Node000003"><a xlink:title=" ">
<path fill="none" stroke="#63b8ff" d="M123.36,-54.98C114.49,-47.15 101.13,-35.34 90.39,-25.86"/>
<polygon fill="#63b8ff" stroke="#63b8ff" points="92.63,-23.17 82.82,-19.17 87.99,-28.41 92.63,-23.17"/>
</a>
</g>
</g>
<!-- Node15&#45;&gt;Node7 -->
<g id="edge20_Node000015_Node000007" class="edge">
<title>Node15&#45;&gt;Node7</title>
<g id="a_edge20_Node000015_Node000007"><a xlink:title=" ">
<path fill="none" stroke="#63b8ff" d="M163.24,-55.79C201.7,-45.99 267.87,-29.13 307.72,-18.98"/>
<polygon fill="#63b8ff" stroke="#63b8ff" points="308.67,-22.35 317.49,-16.49 306.94,-15.57 308.67,-22.35"/>
</a>
</g>
</g>
<!-- Node15&#45;&gt;Node8 -->
<g id="edge21_Node000015_Node000008" class="edge">
<title>Node15&#45;&gt;Node8</title>
<g id="a_edge21_Node000015_Node000008"><a xlink:title=" ">
<path fill="none" stroke="#63b8ff" d="M163.18,-56.62C166.15,-56.03 169.13,-55.48 172,-55 300.44,-33.52 455.07,-18.79 519.96,-13.11"/>
<polygon fill="#63b8ff" stroke="#63b8ff" points="520.28,-16.59 529.94,-12.24 519.68,-9.62 520.28,-16.59"/>
</a>
</g>
</g>
<!-- Node16 -->
<g id="Node000016" class="node">
<title>Node16</title>
<g id="a_Node000016"><a xlink:title=" ">
<polygon fill="#e0e0e0" stroke="#999999" points="235,-19 175,-19 175,0 235,0 235,-19"/>
<text text-anchor="middle" x="205" y="-7" font-family="Helvetica,sans-Serif" font-size="10.00">iostream</text>
</a>
</g>
</g>
<!-- Node15&#45;&gt;Node16 -->
<g id="edge19_Node000015_Node000016" class="edge">
<title>Node15&#45;&gt;Node16</title>
<g id="a_edge19_Node000015_Node000016"><a xlink:title=" ">
<path fill="none" stroke="#63b8ff" d="M144.57,-54.98C155.42,-47 171.88,-34.88 184.88,-25.31"/>
<polygon fill="#63b8ff" stroke="#63b8ff" points="187.24,-27.92 193.22,-19.17 183.09,-22.28 187.24,-27.92"/>
</a>
</g>
</g>
<!-- Node17 -->
<g id="Node000017" class="node">
<title>Node17</title>
<g id="a_Node000017"><a xlink:title=" ">
<polygon fill="#e0e0e0" stroke="#999999" points="156.5,-19 111.5,-19 111.5,0 156.5,0 156.5,-19"/>
<text text-anchor="middle" x="134" y="-7" font-family="Helvetica,sans-Serif" font-size="10.00">utility</text>
</a>
</g>
</g>
<!-- Node15&#45;&gt;Node17 -->
<g id="edge22_Node000015_Node000017" class="edge">
<title>Node15&#45;&gt;Node17</title>
<g id="a_edge22_Node000015_Node000017"><a xlink:title=" ">
<path fill="none" stroke="#63b8ff" d="M133.17,-54.75C133.3,-47.8 133.48,-37.85 133.65,-29.13"/>
<polygon fill="#63b8ff" stroke="#63b8ff" points="137.15,-29.15 133.84,-19.09 130.15,-29.02 137.15,-29.15"/>
</a>
</g>
</g>
<!-- Node18&#45;&gt;Node5 -->
<g id="edge29_Node000018_Node000005" class="edge">
<title>Node18&#45;&gt;Node5</title>
<g id="a_edge29_Node000018_Node000005"><a xlink:title=" ">
<path fill="none" stroke="#63b8ff" d="M535.22,-219.98C520.82,-211.69 498.69,-198.94 481.81,-189.22"/>
<polygon fill="#63b8ff" stroke="#63b8ff" points="483.46,-186.13 473.05,-184.17 479.97,-192.19 483.46,-186.13"/>
</a>
</g>
</g>
<!-- Node18&#45;&gt;Node6 -->
<g id="edge26_Node000018_Node000006" class="edge">
<title>Node18&#45;&gt;Node6</title>
<g id="a_edge26_Node000018_Node000006"><a xlink:title=" ">
<path fill="none" stroke="#63b8ff" d="M550,-219.74C550,-194.31 550,-120.08 550,-84.69"/>
<polygon fill="#63b8ff" stroke="#63b8ff" points="553.5,-84.31 550,-74.31 546.5,-84.31 553.5,-84.31"/>
</a>
</g>
</g>
<!-- Node18&#45;&gt;Node8 -->
<g id="edge28_Node000018_Node000008" class="edge">
<title>Node18&#45;&gt;Node8</title>
<g id="a_edge28_Node000018_Node000008"><a xlink:title=" ">
<path fill="none" stroke="#63b8ff" d="M582.6,-219.94C661.2,-197.78 849.92,-134.7 784,-55 758.79,-24.52 640.19,-14.72 582.58,-11.74"/>
<polygon fill="#63b8ff" stroke="#63b8ff" points="582.39,-8.22 572.24,-11.24 582.06,-15.21 582.39,-8.22"/>
</a>
</g>
</g>
<!-- Node18&#45;&gt;Node12 -->
<g id="edge27_Node000018_Node000012" class="edge">
<title>Node18&#45;&gt;Node12</title>
<g id="a_edge27_Node000018_Node000012"><a xlink:title=" ">
<path fill="none" stroke="#63b8ff" d="M570.43,-219.96C603.57,-205.3 669.7,-172.68 713,-129 726.12,-115.77 736.57,-97.15 743.16,-83.49"/>
<polygon fill="#63b8ff" stroke="#63b8ff" points="746.44,-84.74 747.44,-74.19 740.08,-81.81 746.44,-84.74"/>
</a>
</g>
</g>
</g>
</svg>
