<?xml version="1.0" encoding="UTF-8" standalone="no"?>
<!DOCTYPE svg PUBLIC "-//W3C//DTD SVG 1.1//EN"
 "http://www.w3.org/Graphics/SVG/1.1/DTD/svg11.dtd">
<!-- Generated by graphviz version 2.43.0 (0)
 -->
<!-- Title: include/medusa/bits/domains/ShapeDifference_fwd.hpp Pages: 1 -->
<!--zoomable 335 -->

<svg id="main" version="1.1" xmlns="http://www.w3.org/2000/svg" xmlns:xlink="http://www.w3.org/1999/xlink" xml:space="preserve" onload="init(evt)">
<style type="text/css"><![CDATA[
.node, .edge {opacity: 0.7;}
.node.selected, .edge.selected {opacity: 1;}
.edge:hover path { stroke: red; }
.edge:hover polygon { stroke: red; fill: red; }
]]></style>

<defs>
  <circle id="rim" cx="0" cy="0" r="7"/>
  <circle id="rim2" cx="0" cy="0" r="3.5"/>
  <g id="zoomPlus">
    <use xlink:href="#rim" fill="#404040"><set attributeName="fill" to="#808080" begin="zoomplus.mouseover" end="zoomplus.mouseout"/></use>
    <path d="M-4,0h8M0,-4v8" fill="none" stroke="white" stroke-width="1.5" pointer-events="none"/>
  </g>
  <g id="zoomMin">
    <use xlink:href="#rim" fill="#404040"><set attributeName="fill" to="#808080" begin="zoomminus.mouseover" end="zoomminus.mouseout"/></use>
    <path d="M-4,0h8" fill="none" stroke="white" stroke-width="1.5" pointer-events="none"/>
  </g>
  <g id="arrowUp" transform="translate(30 24)">
    <use xlink:href="#rim"/>
    <path pointer-events="none" fill="none" stroke="white" stroke-width="1.5" d="M0,-3.0v7 M-2.5,-0.5L0,-3.0L2.5,-0.5"/>
  </g>
  <g id="arrowRight" transform="rotate(90) translate(36 -43)">
    <use xlink:href="#rim"/>
    <path pointer-events="none" fill="none" stroke="white" stroke-width="1.5" d="M0,-3.0v7 M-2.5,-0.5L0,-3.0L2.5,-0.5"/>
  </g>
  <g id="arrowDown" transform="rotate(180) translate(-30 -48)">
    <use xlink:href="#rim"/>
    <path pointer-events="none" fill="none" stroke="white" stroke-width="1.5" d="M0,-3.0v7 M-2.5,-0.5L0,-3.0L2.5,-0.5"/>
  </g>
  <g id="arrowLeft" transform="rotate(270) translate(-36 17)">
    <use xlink:href="#rim"/>
    <path pointer-events="none" fill="none" stroke="white" stroke-width="1.5" d="M0,-3.0v7 M-2.5,-0.5L0,-3.0L2.5,-0.5"/>
  </g>
  <g id="resetDef">
    <use xlink:href="#rim2" fill="#404040"><set attributeName="fill" to="#808080" begin="reset.mouseover" end="reset.mouseout"/></use>
  </g>
</defs>
<script type="application/ecmascript">
var viewWidth = 724;
var viewHeight = 335;
var sectionId = 'dynsection-0';
</script>
<script type="application/ecmascript" xlink:href="svg.min.js"/>
<svg id="graph" class="graph">
<g id="viewport">
<title>include/medusa/bits/domains/ShapeDifference_fwd.hpp</title>
<!-- Node1 -->
<g id="Node000001" class="node">
<title>Node1</title>
<g id="a_Node000001"><a xlink:title="Declaration of ShapeDifference class.">
<polygon fill="#999999" stroke="#666666" points="412,-327 267,-327 267,-286 412,-286 412,-327"/>
<text text-anchor="start" x="275" y="-315" font-family="Helvetica,sans-Serif" font-size="10.00">include/medusa/bits</text>
<text text-anchor="start" x="275" y="-304" font-family="Helvetica,sans-Serif" font-size="10.00">/domains/ShapeDifference</text>
<text text-anchor="middle" x="339.5" y="-293" font-family="Helvetica,sans-Serif" font-size="10.00">_fwd.hpp</text>
</a>
</g>
</g>
<!-- Node2 -->
<g id="Node000002" class="node">
<title>Node2</title>
<g id="a_Node000002"><a xlink:href="Config_8hpp.html" target="_top" xlink:title="Contains compile time settings for the project, such as Eigen plugins.">
<polygon fill="white" stroke="#666666" points="359.5,-129 249.5,-129 249.5,-110 359.5,-110 359.5,-129"/>
<text text-anchor="middle" x="304.5" y="-117" font-family="Helvetica,sans-Serif" font-size="10.00">medusa/Config.hpp</text>
</a>
</g>
</g>
<!-- Node1&#45;&gt;Node2 -->
<g id="edge1_Node000001_Node000002" class="edge">
<title>Node1&#45;&gt;Node2</title>
<g id="a_edge1_Node000001_Node000002"><a xlink:title=" ">
<path fill="none" stroke="#63b8ff" d="M333.19,-285.77C326.45,-263.84 315.99,-227.26 310.5,-195 307.31,-176.24 305.81,-154.53 305.1,-139.41"/>
<polygon fill="#63b8ff" stroke="#63b8ff" points="308.59,-139.13 304.71,-129.28 301.6,-139.41 308.59,-139.13"/>
</a>
</g>
</g>
<!-- Node4 -->
<g id="Node000004" class="node">
<title>Node4</title>
<g id="a_Node000004"><a xlink:href="DomainShape__fwd_8hpp.html" target="_top" xlink:title="Declaration of base class for domain shapes.">
<polygon fill="white" stroke="#666666" points="521.5,-250 393.5,-250 393.5,-231 521.5,-231 521.5,-250"/>
<text text-anchor="middle" x="457.5" y="-238" font-family="Helvetica,sans-Serif" font-size="10.00">DomainShape_fwd.hpp</text>
</a>
</g>
</g>
<!-- Node1&#45;&gt;Node4 -->
<g id="edge3_Node000001_Node000004" class="edge">
<title>Node1&#45;&gt;Node4</title>
<g id="a_edge3_Node000001_Node000004"><a xlink:title=" ">
<path fill="none" stroke="#63b8ff" d="M375.55,-285.95C394.02,-275.93 416.04,-263.99 432.61,-255"/>
<polygon fill="#63b8ff" stroke="#63b8ff" points="434.54,-257.94 441.66,-250.09 431.2,-251.78 434.54,-257.94"/>
</a>
</g>
</g>
<!-- Node3 -->
<g id="Node000003" class="node">
<title>Node3</title>
<g id="a_Node000003"><a xlink:title=" ">
<polygon fill="#e0e0e0" stroke="#999999" points="328,-19 281,-19 281,0 328,0 328,-19"/>
<text text-anchor="middle" x="304.5" y="-7" font-family="Helvetica,sans-Serif" font-size="10.00">vector</text>
</a>
</g>
</g>
<!-- Node2&#45;&gt;Node3 -->
<g id="edge2_Node000002_Node000003" class="edge">
<title>Node2&#45;&gt;Node3</title>
<g id="a_edge2_Node000002_Node000003"><a xlink:title=" ">
<path fill="none" stroke="#63b8ff" d="M304.5,-109.66C304.5,-92.17 304.5,-52.8 304.5,-29.27"/>
<polygon fill="#63b8ff" stroke="#63b8ff" points="308,-29.16 304.5,-19.16 301,-29.16 308,-29.16"/>
</a>
</g>
</g>
<!-- Node4&#45;&gt;Node2 -->
<g id="edge4_Node000004_Node000002" class="edge">
<title>Node4&#45;&gt;Node2</title>
<g id="a_edge4_Node000004_Node000002"><a xlink:title=" ">
<path fill="none" stroke="#63b8ff" d="M402.17,-230.97C377.79,-224.68 350.44,-213.79 331.5,-195 316.42,-180.04 309.71,-156.03 306.76,-139.33"/>
<polygon fill="#63b8ff" stroke="#63b8ff" points="310.18,-138.52 305.26,-129.13 303.25,-139.53 310.18,-138.52"/>
</a>
</g>
</g>
<!-- Node5 -->
<g id="Node000005" class="node">
<title>Node5</title>
<g id="a_Node000005"><a xlink:href="memutils_8hpp.html" target="_top" xlink:title="Declaration of memory related utilities.">
<polygon fill="white" stroke="#666666" points="246,-189.5 75,-189.5 75,-170.5 246,-170.5 246,-189.5"/>
<text text-anchor="middle" x="160.5" y="-177.5" font-family="Helvetica,sans-Serif" font-size="10.00">medusa/bits/utils/memutils.hpp</text>
</a>
</g>
</g>
<!-- Node4&#45;&gt;Node5 -->
<g id="edge5_Node000004_Node000005" class="edge">
<title>Node4&#45;&gt;Node5</title>
<g id="a_edge5_Node000004_Node000005"><a xlink:title=" ">
<path fill="none" stroke="#63b8ff" d="M414.31,-230.99C361.19,-220.53 271.03,-202.77 213.7,-191.48"/>
<polygon fill="#63b8ff" stroke="#63b8ff" points="214.23,-188.02 203.74,-189.52 212.87,-194.88 214.23,-188.02"/>
</a>
</g>
</g>
<!-- Node12 -->
<g id="Node000012" class="node">
<title>Node12</title>
<g id="a_Node000012"><a xlink:title=" ">
<polygon fill="#e0e0e0" stroke="#999999" points="572,-19 527,-19 527,0 572,0 572,-19"/>
<text text-anchor="middle" x="549.5" y="-7" font-family="Helvetica,sans-Serif" font-size="10.00">utility</text>
</a>
</g>
</g>
<!-- Node4&#45;&gt;Node12 -->
<g id="edge20_Node000004_Node000012" class="edge">
<title>Node4&#45;&gt;Node12</title>
<g id="a_edge20_Node000004_Node000012"><a xlink:title=" ">
<path fill="none" stroke="#63b8ff" d="M521.77,-236.88C586.48,-232.73 679.89,-222.09 702.5,-195 755.81,-131.13 632.53,-54.49 575.97,-23.98"/>
<polygon fill="#63b8ff" stroke="#63b8ff" points="577.35,-20.75 566.87,-19.16 574.07,-26.94 577.35,-20.75"/>
</a>
</g>
</g>
<!-- Node14 -->
<g id="Node000014" class="node">
<title>Node14</title>
<g id="a_Node000014"><a xlink:href="Vec__fwd_8hpp.html" target="_top" xlink:title="Declaration of Vec.">
<polygon fill="white" stroke="#666666" points="468,-195 341,-195 341,-165 468,-165 468,-195"/>
<text text-anchor="start" x="349" y="-183" font-family="Helvetica,sans-Serif" font-size="10.00">medusa/bits/types/Vec</text>
<text text-anchor="middle" x="404.5" y="-172" font-family="Helvetica,sans-Serif" font-size="10.00">_fwd.hpp</text>
</a>
</g>
</g>
<!-- Node4&#45;&gt;Node14 -->
<g id="edge16_Node000004_Node000014" class="edge">
<title>Node4&#45;&gt;Node14</title>
<g id="a_edge16_Node000004_Node000014"><a xlink:title=" ">
<path fill="none" stroke="#63b8ff" d="M449.68,-230.87C442.95,-223.44 432.96,-212.42 424.09,-202.62"/>
<polygon fill="#63b8ff" stroke="#63b8ff" points="426.6,-200.18 417.29,-195.11 421.41,-204.88 426.6,-200.18"/>
</a>
</g>
</g>
<!-- Node16 -->
<g id="Node000016" class="node">
<title>Node16</title>
<g id="a_Node000016"><a xlink:title=" ">
<polygon fill="#e0e0e0" stroke="#999999" points="534.5,-189.5 486.5,-189.5 486.5,-170.5 534.5,-170.5 534.5,-189.5"/>
<text text-anchor="middle" x="510.5" y="-177.5" font-family="Helvetica,sans-Serif" font-size="10.00">iosfwd</text>
</a>
</g>
</g>
<!-- Node4&#45;&gt;Node16 -->
<g id="edge19_Node000004_Node000016" class="edge">
<title>Node4&#45;&gt;Node16</title>
<g id="a_edge19_Node000004_Node000016"><a xlink:title=" ">
<path fill="none" stroke="#63b8ff" d="M465.32,-230.87C473.31,-222.05 485.89,-208.16 495.76,-197.27"/>
<polygon fill="#63b8ff" stroke="#63b8ff" points="498.53,-199.43 502.65,-189.67 493.34,-194.73 498.53,-199.43"/>
</a>
</g>
</g>
<!-- Node17 -->
<g id="Node000017" class="node">
<title>Node17</title>
<g id="a_Node000017"><a xlink:title=" ">
<polygon fill="#e0e0e0" stroke="#999999" points="610,-189.5 553,-189.5 553,-170.5 610,-170.5 610,-189.5"/>
<text text-anchor="middle" x="581.5" y="-177.5" font-family="Helvetica,sans-Serif" font-size="10.00">ostream</text>
</a>
</g>
</g>
<!-- Node4&#45;&gt;Node17 -->
<g id="edge21_Node000004_Node000017" class="edge">
<title>Node4&#45;&gt;Node17</title>
<g id="a_edge21_Node000004_Node000017"><a xlink:title=" ">
<path fill="none" stroke="#63b8ff" d="M475.53,-230.99C496.19,-221.25 530.28,-205.16 554.2,-193.88"/>
<polygon fill="#63b8ff" stroke="#63b8ff" points="555.9,-196.95 563.45,-189.52 552.91,-190.62 555.9,-196.95"/>
</a>
</g>
</g>
<!-- Node18 -->
<g id="Node000018" class="node">
<title>Node18</title>
<g id="a_Node000018"><a xlink:title=" ">
<polygon fill="#e0e0e0" stroke="#999999" points="693,-189.5 628,-189.5 628,-170.5 693,-170.5 693,-189.5"/>
<text text-anchor="middle" x="660.5" y="-177.5" font-family="Helvetica,sans-Serif" font-size="10.00">functional</text>
</a>
</g>
</g>
<!-- Node4&#45;&gt;Node18 -->
<g id="edge22_Node000004_Node000018" class="edge">
<title>Node4&#45;&gt;Node18</title>
<g id="a_edge22_Node000004_Node000018"><a xlink:title=" ">
<path fill="none" stroke="#63b8ff" d="M490.87,-230.97C523.74,-222.42 575.32,-208.6 619.5,-195 621.8,-194.29 624.18,-193.54 626.56,-192.77"/>
<polygon fill="#63b8ff" stroke="#63b8ff" points="627.91,-196.01 636.3,-189.54 625.7,-189.36 627.91,-196.01"/>
</a>
</g>
</g>
<!-- Node5&#45;&gt;Node2 -->
<g id="edge7_Node000005_Node000002" class="edge">
<title>Node5&#45;&gt;Node2</title>
<g id="a_edge7_Node000005_Node000002"><a xlink:title=" ">
<path fill="none" stroke="#63b8ff" d="M181.44,-170.49C205.86,-160.57 246.43,-144.09 274.27,-132.78"/>
<polygon fill="#63b8ff" stroke="#63b8ff" points="275.59,-136.02 283.54,-129.02 272.95,-129.54 275.59,-136.02"/>
</a>
</g>
</g>
<!-- Node6 -->
<g id="Node000006" class="node">
<title>Node6</title>
<g id="a_Node000006"><a xlink:title=" ">
<polygon fill="#e0e0e0" stroke="#999999" points="231.5,-129 173.5,-129 173.5,-110 231.5,-110 231.5,-129"/>
<text text-anchor="middle" x="202.5" y="-117" font-family="Helvetica,sans-Serif" font-size="10.00">memory</text>
</a>
</g>
</g>
<!-- Node5&#45;&gt;Node6 -->
<g id="edge6_Node000005_Node000006" class="edge">
<title>Node5&#45;&gt;Node6</title>
<g id="a_edge6_Node000005_Node000006"><a xlink:title=" ">
<path fill="none" stroke="#63b8ff" d="M166.7,-170.37C172.9,-161.73 182.61,-148.2 190.36,-137.42"/>
<polygon fill="#63b8ff" stroke="#63b8ff" points="193.29,-139.33 196.28,-129.17 187.6,-135.25 193.29,-139.33"/>
</a>
</g>
</g>
<!-- Node7 -->
<g id="Node000007" class="node">
<title>Node7</title>
<g id="a_Node000007"><a xlink:href="assert_8hpp.html" target="_top" xlink:title="Implementation of custom assert and debug utilities.">
<polygon fill="white" stroke="#666666" points="155,-129 0,-129 0,-110 155,-110 155,-129"/>
<text text-anchor="middle" x="77.5" y="-117" font-family="Helvetica,sans-Serif" font-size="10.00">medusa/bits/utils/assert.hpp</text>
</a>
</g>
</g>
<!-- Node5&#45;&gt;Node7 -->
<g id="edge8_Node000005_Node000007" class="edge">
<title>Node5&#45;&gt;Node7</title>
<g id="a_edge8_Node000005_Node000007"><a xlink:title=" ">
<path fill="none" stroke="#63b8ff" d="M148.25,-170.37C135.14,-161.12 114.08,-146.28 98.35,-135.19"/>
<polygon fill="#63b8ff" stroke="#63b8ff" points="99.99,-132.07 89.8,-129.17 95.95,-137.79 99.99,-132.07"/>
</a>
</g>
</g>
<!-- Node8 -->
<g id="Node000008" class="node">
<title>Node8</title>
<g id="a_Node000008"><a xlink:title=" ">
<polygon fill="#e0e0e0" stroke="#999999" points="143.5,-74 11.5,-74 11.5,-55 143.5,-55 143.5,-74"/>
<text text-anchor="middle" x="77.5" y="-62" font-family="Helvetica,sans-Serif" font-size="10.00">tinyformat/tinyformat.h</text>
</a>
</g>
</g>
<!-- Node7&#45;&gt;Node8 -->
<g id="edge9_Node000007_Node000008" class="edge">
<title>Node7&#45;&gt;Node8</title>
<g id="a_edge9_Node000007_Node000008"><a xlink:title=" ">
<path fill="none" stroke="#63b8ff" d="M77.5,-109.75C77.5,-102.8 77.5,-92.85 77.5,-84.13"/>
<polygon fill="#63b8ff" stroke="#63b8ff" points="81,-84.09 77.5,-74.09 74,-84.09 81,-84.09"/>
</a>
</g>
</g>
<!-- Node9 -->
<g id="Node000009" class="node">
<title>Node9</title>
<g id="a_Node000009"><a xlink:href="print_8hpp.html" target="_top" xlink:title="Printing helpers for std types.">
<polygon fill="white" stroke="#666666" points="242.5,-74 182.5,-74 182.5,-55 242.5,-55 242.5,-74"/>
<text text-anchor="middle" x="212.5" y="-62" font-family="Helvetica,sans-Serif" font-size="10.00">print.hpp</text>
</a>
</g>
</g>
<!-- Node7&#45;&gt;Node9 -->
<g id="edge10_Node000007_Node000009" class="edge">
<title>Node7&#45;&gt;Node9</title>
<g id="a_edge10_Node000007_Node000009"><a xlink:title=" ">
<path fill="none" stroke="#63b8ff" d="M99.19,-109.98C121.3,-101.3 155.82,-87.75 180.95,-77.88"/>
<polygon fill="#63b8ff" stroke="#63b8ff" points="182.39,-81.08 190.42,-74.17 179.83,-74.57 182.39,-81.08"/>
</a>
</g>
</g>
<!-- Node9&#45;&gt;Node3 -->
<g id="edge12_Node000009_Node000003" class="edge">
<title>Node9&#45;&gt;Node3</title>
<g id="a_edge12_Node000009_Node000003"><a xlink:title=" ">
<path fill="none" stroke="#63b8ff" d="M227.28,-54.98C241.68,-46.69 263.81,-33.94 280.69,-24.22"/>
<polygon fill="#63b8ff" stroke="#63b8ff" points="282.53,-27.19 289.45,-19.17 279.04,-21.13 282.53,-27.19"/>
</a>
</g>
</g>
<!-- Node10 -->
<g id="Node000010" class="node">
<title>Node10</title>
<g id="a_Node000010"><a xlink:title=" ">
<polygon fill="#e0e0e0" stroke="#999999" points="262.5,-19 202.5,-19 202.5,0 262.5,0 262.5,-19"/>
<text text-anchor="middle" x="232.5" y="-7" font-family="Helvetica,sans-Serif" font-size="10.00">iostream</text>
</a>
</g>
</g>
<!-- Node9&#45;&gt;Node10 -->
<g id="edge11_Node000009_Node000010" class="edge">
<title>Node9&#45;&gt;Node10</title>
<g id="a_edge11_Node000009_Node000010"><a xlink:title=" ">
<path fill="none" stroke="#63b8ff" d="M215.8,-54.75C218.48,-47.65 222.35,-37.4 225.69,-28.56"/>
<polygon fill="#63b8ff" stroke="#63b8ff" points="229,-29.68 229.26,-19.09 222.45,-27.21 229,-29.68"/>
</a>
</g>
</g>
<!-- Node11 -->
<g id="Node000011" class="node">
<title>Node11</title>
<g id="a_Node000011"><a xlink:title=" ">
<polygon fill="#e0e0e0" stroke="#999999" points="124.5,-19 82.5,-19 82.5,0 124.5,0 124.5,-19"/>
<text text-anchor="middle" x="103.5" y="-7" font-family="Helvetica,sans-Serif" font-size="10.00">array</text>
</a>
</g>
</g>
<!-- Node9&#45;&gt;Node11 -->
<g id="edge13_Node000009_Node000011" class="edge">
<title>Node9&#45;&gt;Node11</title>
<g id="a_edge13_Node000009_Node000011"><a xlink:title=" ">
<path fill="none" stroke="#63b8ff" d="M194.99,-54.98C177.53,-46.5 150.49,-33.35 130.33,-23.54"/>
<polygon fill="#63b8ff" stroke="#63b8ff" points="131.86,-20.4 121.33,-19.17 128.79,-26.69 131.86,-20.4"/>
</a>
</g>
</g>
<!-- Node9&#45;&gt;Node12 -->
<g id="edge14_Node000009_Node000012" class="edge">
<title>Node9&#45;&gt;Node12</title>
<g id="a_edge14_Node000009_Node000012"><a xlink:title=" ">
<path fill="none" stroke="#63b8ff" d="M242.7,-58.75C305.75,-48.83 450.94,-26 516.41,-15.7"/>
<polygon fill="#63b8ff" stroke="#63b8ff" points="517.24,-19.12 526.58,-14.1 516.16,-12.2 517.24,-19.12"/>
</a>
</g>
</g>
<!-- Node13 -->
<g id="Node000013" class="node">
<title>Node13</title>
<g id="a_Node000013"><a xlink:title=" ">
<polygon fill="#e0e0e0" stroke="#999999" points="184,-19 143,-19 143,0 184,0 184,-19"/>
<text text-anchor="middle" x="163.5" y="-7" font-family="Helvetica,sans-Serif" font-size="10.00">tuple</text>
</a>
</g>
</g>
<!-- Node9&#45;&gt;Node13 -->
<g id="edge15_Node000009_Node000013" class="edge">
<title>Node9&#45;&gt;Node13</title>
<g id="a_edge15_Node000009_Node000013"><a xlink:title=" ">
<path fill="none" stroke="#63b8ff" d="M204.41,-54.75C197.34,-47.11 186.91,-35.82 178.35,-26.56"/>
<polygon fill="#63b8ff" stroke="#63b8ff" points="180.8,-24.06 171.44,-19.09 175.66,-28.81 180.8,-24.06"/>
</a>
</g>
</g>
<!-- Node14&#45;&gt;Node2 -->
<g id="edge17_Node000014_Node000002" class="edge">
<title>Node14&#45;&gt;Node2</title>
<g id="a_edge17_Node000014_Node000002"><a xlink:title=" ">
<path fill="none" stroke="#63b8ff" d="M380.55,-164.99C364.61,-155.66 343.77,-143.47 327.94,-134.21"/>
<polygon fill="#63b8ff" stroke="#63b8ff" points="329.67,-131.17 319.27,-129.14 326.13,-137.21 329.67,-131.17"/>
</a>
</g>
</g>
<!-- Node15 -->
<g id="Node000015" class="node">
<title>Node15</title>
<g id="a_Node000015"><a xlink:title=" ">
<polygon fill="#e0e0e0" stroke="#999999" points="447,-129 378,-129 378,-110 447,-110 447,-129"/>
<text text-anchor="middle" x="412.5" y="-117" font-family="Helvetica,sans-Serif" font-size="10.00">Eigen/Core</text>
</a>
</g>
</g>
<!-- Node14&#45;&gt;Node15 -->
<g id="edge18_Node000014_Node000015" class="edge">
<title>Node14&#45;&gt;Node15</title>
<g id="a_edge18_Node000014_Node000015"><a xlink:title=" ">
<path fill="none" stroke="#63b8ff" d="M406.44,-164.84C407.48,-157.21 408.78,-147.7 409.91,-139.45"/>
<polygon fill="#63b8ff" stroke="#63b8ff" points="413.41,-139.65 411.3,-129.27 406.48,-138.7 413.41,-139.65"/>
</a>
</g>
</g>
</g>
</svg>

<g id="navigator" transform="translate(0 0)" fill="#404254">
  <rect fill="#f2f5e9" fill-opacity="0.5" stroke="#606060" stroke-width=".5" x="0" y="0" width="60" height="60"/>
  <use id="zoomplus" xlink:href="#zoomPlus" x="17" y="9" onmousedown="handleZoom(evt,'in')"/>
  <use id="zoomminus" xlink:href="#zoomMin" x="42" y="9" onmousedown="handleZoom(evt,'out')"/>
  <use id="reset" xlink:href="#resetDef" x="30" y="36" onmousedown="handleReset()"/>
   <use id="arrowup" xlink:href="#arrowUp" x="0" y="0" onmousedown="handlePan(0,-1)"/>
  <use id="arrowright" xlink:href="#arrowRight" x="0" y="0" onmousedown="handlePan(1,0)"/>
  <use id="arrowdown" xlink:href="#arrowDown" x="0" y="0" onmousedown="handlePan(0,1)"/>
  <use id="arrowleft" xlink:href="#arrowLeft" x="0" y="0" onmousedown="handlePan(-1,0)"/>
</g>
<svg viewBox="0 0 15 15" width="100%" height="30px" preserveAspectRatio="xMaxYMin meet">
 <g id="arrow_out" transform="scale(0.3 0.3)">
  <a xlink:href="ShapeDifference__fwd_8hpp__incl_org.svg" target="_base">
   <rect id="button" ry="5" rx="5" y="6" x="6" height="38" width="38"
        fill="#f2f5e9" fill-opacity="0.5" stroke="#606060" stroke-width="1.0"/>
   <path id="arrow"
     d="M 11.500037,31.436501 C 11.940474,20.09759 22.043105,11.32322 32.158766,21.979434 L 37.068811,17.246167 C 37.068811,17.246167 37.088388,32 37.088388,32 L 22.160133,31.978069 C 22.160133,31.978069 26.997745,27.140456 26.997745,27.140456 C 18.528582,18.264221 13.291696,25.230495 11.500037,31.436501 z"
     style="fill:#404040;"/>
  </a>
 </g>
</svg>

<style type='text/css'>
<![CDATA[
[data-mouse-over-selected='false'] { opacity: 0.7; }
[data-mouse-over-selected='true']  { opacity: 1.0; }
]]>
</style>
<script type="application/ecmascript"><![CDATA[
document.addEventListener('DOMContentLoaded', (event) => {
  highlightEdges();
  highlightAdjacentNodes();
});
]]></script>
</svg>
