<?xml version="1.0" encoding="UTF-8" standalone="no"?>
<!DOCTYPE svg PUBLIC "-//W3C//DTD SVG 1.1//EN"
 "http://www.w3.org/Graphics/SVG/1.1/DTD/svg11.dtd">
<!-- Generated by graphviz version 2.43.0 (0)
 -->
<!-- Title: include/medusa/bits/operators/ShapeStorage_fwd.hpp Pages: 1 -->
<svg width="1120pt" height="280pt"
 viewBox="0.00 0.00 1120.00 280.00" xmlns="http://www.w3.org/2000/svg" xmlns:xlink="http://www.w3.org/1999/xlink">
<g id="graph0" class="graph" transform="scale(1 1) rotate(0) translate(4 276)">
<title>include/medusa/bits/operators/ShapeStorage_fwd.hpp</title>
<!-- Node1 -->
<g id="Node000001" class="node">
<title>Node1</title>
<g id="a_Node000001"><a xlink:title="Base class and interface for storing and accessing computed shapes.">
<polygon fill="#999999" stroke="#666666" points="589,-272 452,-272 452,-231 589,-231 589,-272"/>
<text text-anchor="start" x="460" y="-260" font-family="Helvetica,sans-Serif" font-size="10.00">include/medusa/bits</text>
<text text-anchor="start" x="460" y="-249" font-family="Helvetica,sans-Serif" font-size="10.00">/operators/ShapeStorage</text>
<text text-anchor="middle" x="520.5" y="-238" font-family="Helvetica,sans-Serif" font-size="10.00">_fwd.hpp</text>
</a>
</g>
</g>
<!-- Node2 -->
<g id="Node000002" class="node">
<title>Node2</title>
<g id="a_Node000002"><a xlink:href="Config_8hpp.html" target="_top" xlink:title="Contains compile time settings for the project, such as Eigen plugins.">
<polygon fill="white" stroke="#666666" points="439.5,-74 329.5,-74 329.5,-55 439.5,-55 439.5,-74"/>
<text text-anchor="middle" x="384.5" y="-62" font-family="Helvetica,sans-Serif" font-size="10.00">medusa/Config.hpp</text>
</a>
</g>
</g>
<!-- Node1&#45;&gt;Node2 -->
<g id="edge1_Node000001_Node000002" class="edge">
<title>Node1&#45;&gt;Node2</title>
<g id="a_edge1_Node000001_Node000002"><a xlink:title=" ">
<path fill="none" stroke="#63b8ff" d="M475.99,-231C437.66,-211.43 385.07,-177.27 362.5,-129 355.42,-113.86 363.15,-95.78 371.33,-82.8"/>
<polygon fill="#63b8ff" stroke="#63b8ff" points="374.36,-84.57 377.17,-74.35 368.6,-80.59 374.36,-84.57"/>
</a>
</g>
</g>
<!-- Node4 -->
<g id="Node000004" class="node">
<title>Node4</title>
<g id="a_Node000004"><a xlink:href="Range__fwd_8hpp.html" target="_top" xlink:title="Declaration of Range.">
<polygon fill="white" stroke="#666666" points="590.5,-195 450.5,-195 450.5,-165 590.5,-165 590.5,-195"/>
<text text-anchor="start" x="458.5" y="-183" font-family="Helvetica,sans-Serif" font-size="10.00">medusa/bits/types/Range</text>
<text text-anchor="middle" x="520.5" y="-172" font-family="Helvetica,sans-Serif" font-size="10.00">_fwd.hpp</text>
</a>
</g>
</g>
<!-- Node1&#45;&gt;Node4 -->
<g id="edge3_Node000001_Node000004" class="edge">
<title>Node1&#45;&gt;Node4</title>
<g id="a_edge3_Node000001_Node000004"><a xlink:title=" ">
<path fill="none" stroke="#63b8ff" d="M520.5,-230.77C520.5,-222.85 520.5,-213.63 520.5,-205.3"/>
<polygon fill="#63b8ff" stroke="#63b8ff" points="524,-205.04 520.5,-195.04 517,-205.04 524,-205.04"/>
</a>
</g>
</g>
<!-- Node11 -->
<g id="Node000011" class="node">
<title>Node11</title>
<g id="a_Node000011"><a xlink:title=" ">
<polygon fill="#e0e0e0" stroke="#999999" points="1112,-19 1071,-19 1071,0 1112,0 1112,-19"/>
<text text-anchor="middle" x="1091.5" y="-7" font-family="Helvetica,sans-Serif" font-size="10.00">tuple</text>
</a>
</g>
</g>
<!-- Node1&#45;&gt;Node11 -->
<g id="edge37_Node000001_Node000011" class="edge">
<title>Node1&#45;&gt;Node11</title>
<g id="a_edge37_Node000001_Node000011"><a xlink:title=" ">
<path fill="none" stroke="#63b8ff" d="M589.05,-247.23C704.52,-240.98 932.48,-225.17 1006.5,-195 1050.79,-176.95 1064.29,-168.33 1091.5,-129 1110.7,-101.25 1114.62,-88.19 1108.5,-55 1106.83,-45.95 1103.4,-36.36 1100.06,-28.41"/>
<polygon fill="#63b8ff" stroke="#63b8ff" points="1103.16,-26.78 1095.87,-19.09 1096.77,-29.65 1103.16,-26.78"/>
</a>
</g>
</g>
<!-- Node14 -->
<g id="Node000014" class="node">
<title>Node14</title>
<g id="a_Node000014"><a xlink:title=" ">
<polygon fill="#e0e0e0" stroke="#999999" points="577.5,-74 529.5,-74 529.5,-55 577.5,-55 577.5,-74"/>
<text text-anchor="middle" x="553.5" y="-62" font-family="Helvetica,sans-Serif" font-size="10.00">iosfwd</text>
</a>
</g>
</g>
<!-- Node1&#45;&gt;Node14 -->
<g id="edge36_Node000001_Node000014" class="edge">
<title>Node1&#45;&gt;Node14</title>
<g id="a_edge36_Node000001_Node000014"><a xlink:title=" ">
<path fill="none" stroke="#63b8ff" d="M555.58,-230.94C570.41,-221.46 587.08,-209.08 599.5,-195 621.47,-170.1 626.49,-161.22 634.5,-129 636.54,-120.81 638.8,-117.27 634.5,-110 624.32,-92.8 604.88,-81.8 587.59,-75.04"/>
<polygon fill="#63b8ff" stroke="#63b8ff" points="588.34,-71.6 577.74,-71.54 585.99,-78.19 588.34,-71.6"/>
</a>
</g>
</g>
<!-- Node15 -->
<g id="Node000015" class="node">
<title>Node15</title>
<g id="a_Node000015"><a xlink:href="stdtypesutils_8hpp.html" target="_top" xlink:title="Declaration of utilities for std types.">
<polygon fill="white" stroke="#666666" points="997.5,-189.5 809.5,-189.5 809.5,-170.5 997.5,-170.5 997.5,-189.5"/>
<text text-anchor="middle" x="903.5" y="-177.5" font-family="Helvetica,sans-Serif" font-size="10.00">medusa/bits/utils/stdtypesutils.hpp</text>
</a>
</g>
</g>
<!-- Node1&#45;&gt;Node15 -->
<g id="edge17_Node000001_Node000015" class="edge">
<title>Node1&#45;&gt;Node15</title>
<g id="a_edge17_Node000001_Node000015"><a xlink:title=" ">
<path fill="none" stroke="#63b8ff" d="M589.42,-237.99C662.85,-224.67 777.79,-203.81 846.37,-191.37"/>
<polygon fill="#63b8ff" stroke="#63b8ff" points="847.34,-194.75 856.55,-189.52 846.09,-187.86 847.34,-194.75"/>
</a>
</g>
</g>
<!-- Node18 -->
<g id="Node000018" class="node">
<title>Node18</title>
<g id="a_Node000018"><a xlink:href="Operators__fwd_8hpp.html" target="_top" xlink:title="File defining basic differential operator families.">
<polygon fill="white" stroke="#666666" points="315.5,-195 159.5,-195 159.5,-165 315.5,-165 315.5,-195"/>
<text text-anchor="start" x="167.5" y="-183" font-family="Helvetica,sans-Serif" font-size="10.00">medusa/bits/approximations</text>
<text text-anchor="middle" x="237.5" y="-172" font-family="Helvetica,sans-Serif" font-size="10.00">/Operators_fwd.hpp</text>
</a>
</g>
</g>
<!-- Node1&#45;&gt;Node18 -->
<g id="edge24_Node000001_Node000018" class="edge">
<title>Node1&#45;&gt;Node18</title>
<g id="a_edge24_Node000001_Node000018"><a xlink:title=" ">
<path fill="none" stroke="#63b8ff" d="M451.99,-233.68C407.28,-222.7 349.18,-208.43 304.73,-197.51"/>
<polygon fill="#63b8ff" stroke="#63b8ff" points="305.43,-194.08 294.89,-195.09 303.76,-200.88 305.43,-194.08"/>
</a>
</g>
</g>
<!-- Node19 -->
<g id="Node000019" class="node">
<title>Node19</title>
<g id="a_Node000019"><a xlink:title=" ">
<polygon fill="#e0e0e0" stroke="#999999" points="69,-74 0,-74 0,-55 69,-55 69,-74"/>
<text text-anchor="middle" x="34.5" y="-62" font-family="Helvetica,sans-Serif" font-size="10.00">Eigen/Core</text>
</a>
</g>
</g>
<!-- Node1&#45;&gt;Node19 -->
<g id="edge38_Node000001_Node000019" class="edge">
<title>Node1&#45;&gt;Node19</title>
<g id="a_edge38_Node000001_Node000019"><a xlink:title=" ">
<path fill="none" stroke="#63b8ff" d="M451.74,-249.95C375.41,-247.15 249.89,-235.95 150.5,-195 104.64,-176.1 91.04,-168.08 60.5,-129 50.07,-115.65 43.21,-97.54 39.16,-84.08"/>
<polygon fill="#63b8ff" stroke="#63b8ff" points="42.44,-82.78 36.42,-74.07 35.69,-84.64 42.44,-82.78"/>
</a>
</g>
</g>
<!-- Node3 -->
<g id="Node000003" class="node">
<title>Node3</title>
<g id="a_Node000003"><a xlink:title=" ">
<polygon fill="#e0e0e0" stroke="#999999" points="525,-19 478,-19 478,0 525,0 525,-19"/>
<text text-anchor="middle" x="501.5" y="-7" font-family="Helvetica,sans-Serif" font-size="10.00">vector</text>
</a>
</g>
</g>
<!-- Node2&#45;&gt;Node3 -->
<g id="edge2_Node000002_Node000003" class="edge">
<title>Node2&#45;&gt;Node3</title>
<g id="a_edge2_Node000002_Node000003"><a xlink:title=" ">
<path fill="none" stroke="#63b8ff" d="M403.3,-54.98C422.12,-46.46 451.32,-33.23 473,-23.41"/>
<polygon fill="#63b8ff" stroke="#63b8ff" points="474.7,-26.48 482.36,-19.17 471.81,-20.11 474.7,-26.48"/>
</a>
</g>
</g>
<!-- Node4&#45;&gt;Node2 -->
<g id="edge4_Node000004_Node000002" class="edge">
<title>Node4&#45;&gt;Node2</title>
<g id="a_edge4_Node000004_Node000002"><a xlink:title=" ">
<path fill="none" stroke="#63b8ff" d="M505.49,-164.87C490.21,-150.64 465.68,-128.25 443.5,-110 430.87,-99.61 416.18,-88.53 404.62,-80.02"/>
<polygon fill="#63b8ff" stroke="#63b8ff" points="406.62,-77.15 396.48,-74.08 402.49,-82.8 406.62,-77.15"/>
</a>
</g>
</g>
<!-- Node4&#45;&gt;Node3 -->
<g id="edge15_Node000004_Node000003" class="edge">
<title>Node4&#45;&gt;Node3</title>
<g id="a_edge15_Node000004_Node000003"><a xlink:title=" ">
<path fill="none" stroke="#63b8ff" d="M518.91,-164.92C515.5,-134.65 507.46,-63.35 503.62,-29.27"/>
<polygon fill="#63b8ff" stroke="#63b8ff" points="507.09,-28.8 502.49,-19.25 500.13,-29.58 507.09,-28.8"/>
</a>
</g>
</g>
<!-- Node5 -->
<g id="Node000005" class="node">
<title>Node5</title>
<g id="a_Node000005"><a xlink:href="assert_8hpp.html" target="_top" xlink:title="Implementation of custom assert and debug utilities.">
<polygon fill="white" stroke="#666666" points="837,-129 682,-129 682,-110 837,-110 837,-129"/>
<text text-anchor="middle" x="759.5" y="-117" font-family="Helvetica,sans-Serif" font-size="10.00">medusa/bits/utils/assert.hpp</text>
</a>
</g>
</g>
<!-- Node4&#45;&gt;Node5 -->
<g id="edge5_Node000004_Node000005" class="edge">
<title>Node4&#45;&gt;Node5</title>
<g id="a_edge5_Node000004_Node000005"><a xlink:title=" ">
<path fill="none" stroke="#63b8ff" d="M577.75,-164.99C619.71,-154.72 675.88,-140.97 714.61,-131.49"/>
<polygon fill="#63b8ff" stroke="#63b8ff" points="715.67,-134.83 724.55,-129.05 714.01,-128.03 715.67,-134.83"/>
</a>
</g>
</g>
<!-- Node12 -->
<g id="Node000012" class="node">
<title>Node12</title>
<g id="a_Node000012"><a xlink:href="traits_8hpp.html" target="_top" xlink:title="Type traits definition for vector and scalar fields.">
<polygon fill="white" stroke="#666666" points="435,-129 372,-129 372,-110 435,-110 435,-129"/>
<text text-anchor="middle" x="403.5" y="-117" font-family="Helvetica,sans-Serif" font-size="10.00">traits.hpp</text>
</a>
</g>
</g>
<!-- Node4&#45;&gt;Node12 -->
<g id="edge13_Node000004_Node000012" class="edge">
<title>Node4&#45;&gt;Node12</title>
<g id="a_edge13_Node000004_Node000012"><a xlink:title=" ">
<path fill="none" stroke="#63b8ff" d="M492.48,-164.99C473.48,-155.49 448.53,-143.02 429.89,-133.69"/>
<polygon fill="#63b8ff" stroke="#63b8ff" points="431.29,-130.48 420.78,-129.14 428.16,-136.74 431.29,-130.48"/>
</a>
</g>
</g>
<!-- Node13 -->
<g id="Node000013" class="node">
<title>Node13</title>
<g id="a_Node000013"><a xlink:title=" ">
<polygon fill="#e0e0e0" stroke="#999999" points="625.5,-129 567.5,-129 567.5,-110 625.5,-110 625.5,-129"/>
<text text-anchor="middle" x="596.5" y="-117" font-family="Helvetica,sans-Serif" font-size="10.00">memory</text>
</a>
</g>
</g>
<!-- Node4&#45;&gt;Node13 -->
<g id="edge14_Node000004_Node000013" class="edge">
<title>Node4&#45;&gt;Node13</title>
<g id="a_edge14_Node000004_Node000013"><a xlink:title=" ">
<path fill="none" stroke="#63b8ff" d="M538.9,-164.84C550.38,-156 565.15,-144.63 576.86,-135.62"/>
<polygon fill="#63b8ff" stroke="#63b8ff" points="579.32,-138.14 585.11,-129.27 575.05,-132.59 579.32,-138.14"/>
</a>
</g>
</g>
<!-- Node4&#45;&gt;Node14 -->
<g id="edge16_Node000004_Node000014" class="edge">
<title>Node4&#45;&gt;Node14</title>
<g id="a_edge16_Node000004_Node000014"><a xlink:title=" ">
<path fill="none" stroke="#63b8ff" d="M524.68,-164.63C530.64,-144.12 541.59,-106.47 548.14,-83.93"/>
<polygon fill="#63b8ff" stroke="#63b8ff" points="551.53,-84.81 550.96,-74.23 544.81,-82.85 551.53,-84.81"/>
</a>
</g>
</g>
<!-- Node6 -->
<g id="Node000006" class="node">
<title>Node6</title>
<g id="a_Node000006"><a xlink:title=" ">
<polygon fill="#e0e0e0" stroke="#999999" points="825.5,-74 693.5,-74 693.5,-55 825.5,-55 825.5,-74"/>
<text text-anchor="middle" x="759.5" y="-62" font-family="Helvetica,sans-Serif" font-size="10.00">tinyformat/tinyformat.h</text>
</a>
</g>
</g>
<!-- Node5&#45;&gt;Node6 -->
<g id="edge6_Node000005_Node000006" class="edge">
<title>Node5&#45;&gt;Node6</title>
<g id="a_edge6_Node000005_Node000006"><a xlink:title=" ">
<path fill="none" stroke="#63b8ff" d="M759.5,-109.75C759.5,-102.8 759.5,-92.85 759.5,-84.13"/>
<polygon fill="#63b8ff" stroke="#63b8ff" points="763,-84.09 759.5,-74.09 756,-84.09 763,-84.09"/>
</a>
</g>
</g>
<!-- Node7 -->
<g id="Node000007" class="node">
<title>Node7</title>
<g id="a_Node000007"><a xlink:href="print_8hpp.html" target="_top" xlink:title="Printing helpers for std types.">
<polygon fill="white" stroke="#666666" points="991.5,-74 931.5,-74 931.5,-55 991.5,-55 991.5,-74"/>
<text text-anchor="middle" x="961.5" y="-62" font-family="Helvetica,sans-Serif" font-size="10.00">print.hpp</text>
</a>
</g>
</g>
<!-- Node5&#45;&gt;Node7 -->
<g id="edge7_Node000005_Node000007" class="edge">
<title>Node5&#45;&gt;Node7</title>
<g id="a_edge7_Node000005_Node000007"><a xlink:title=" ">
<path fill="none" stroke="#63b8ff" d="M791.95,-109.98C827.27,-100.72 883.77,-85.89 921.73,-75.93"/>
<polygon fill="#63b8ff" stroke="#63b8ff" points="922.65,-79.31 931.43,-73.39 920.87,-72.54 922.65,-79.31"/>
</a>
</g>
</g>
<!-- Node7&#45;&gt;Node3 -->
<g id="edge9_Node000007_Node000003" class="edge">
<title>Node7&#45;&gt;Node3</title>
<g id="a_edge9_Node000007_Node000003"><a xlink:title=" ">
<path fill="none" stroke="#63b8ff" d="M931.26,-57.31C926.66,-56.47 921.96,-55.67 917.5,-55 776.07,-33.81 606.11,-18.89 535.17,-13.13"/>
<polygon fill="#63b8ff" stroke="#63b8ff" points="535.29,-9.63 525.05,-12.32 534.73,-16.61 535.29,-9.63"/>
</a>
</g>
</g>
<!-- Node8 -->
<g id="Node000008" class="node">
<title>Node8</title>
<g id="a_Node000008"><a xlink:title=" ">
<polygon fill="#e0e0e0" stroke="#999999" points="954.5,-19 894.5,-19 894.5,0 954.5,0 954.5,-19"/>
<text text-anchor="middle" x="924.5" y="-7" font-family="Helvetica,sans-Serif" font-size="10.00">iostream</text>
</a>
</g>
</g>
<!-- Node7&#45;&gt;Node8 -->
<g id="edge8_Node000007_Node000008" class="edge">
<title>Node7&#45;&gt;Node8</title>
<g id="a_edge8_Node000007_Node000008"><a xlink:title=" ">
<path fill="none" stroke="#63b8ff" d="M955.39,-54.75C950.22,-47.34 942.65,-36.5 936.31,-27.41"/>
<polygon fill="#63b8ff" stroke="#63b8ff" points="939.09,-25.29 930.5,-19.09 933.35,-29.29 939.09,-25.29"/>
</a>
</g>
</g>
<!-- Node9 -->
<g id="Node000009" class="node">
<title>Node9</title>
<g id="a_Node000009"><a xlink:title=" ">
<polygon fill="#e0e0e0" stroke="#999999" points="236.5,-19 194.5,-19 194.5,0 236.5,0 236.5,-19"/>
<text text-anchor="middle" x="215.5" y="-7" font-family="Helvetica,sans-Serif" font-size="10.00">array</text>
</a>
</g>
</g>
<!-- Node7&#45;&gt;Node9 -->
<g id="edge10_Node000007_Node000009" class="edge">
<title>Node7&#45;&gt;Node9</title>
<g id="a_edge10_Node000007_Node000009"><a xlink:title=" ">
<path fill="none" stroke="#63b8ff" d="M931.33,-61.36C811.34,-52.83 368.51,-21.37 246.69,-12.72"/>
<polygon fill="#63b8ff" stroke="#63b8ff" points="246.78,-9.21 236.56,-12 246.29,-16.2 246.78,-9.21"/>
</a>
</g>
</g>
<!-- Node10 -->
<g id="Node000010" class="node">
<title>Node10</title>
<g id="a_Node000010"><a xlink:title=" ">
<polygon fill="#e0e0e0" stroke="#999999" points="1018,-19 973,-19 973,0 1018,0 1018,-19"/>
<text text-anchor="middle" x="995.5" y="-7" font-family="Helvetica,sans-Serif" font-size="10.00">utility</text>
</a>
</g>
</g>
<!-- Node7&#45;&gt;Node10 -->
<g id="edge11_Node000007_Node000010" class="edge">
<title>Node7&#45;&gt;Node10</title>
<g id="a_edge11_Node000007_Node000010"><a xlink:title=" ">
<path fill="none" stroke="#63b8ff" d="M967.11,-54.75C971.82,-47.42 978.67,-36.73 984.47,-27.7"/>
<polygon fill="#63b8ff" stroke="#63b8ff" points="987.54,-29.4 989.99,-19.09 981.64,-25.62 987.54,-29.4"/>
</a>
</g>
</g>
<!-- Node7&#45;&gt;Node11 -->
<g id="edge12_Node000007_Node000011" class="edge">
<title>Node7&#45;&gt;Node11</title>
<g id="a_edge12_Node000007_Node000011"><a xlink:title=" ">
<path fill="none" stroke="#63b8ff" d="M982.39,-54.98C1003.71,-46.29 1037.02,-32.71 1061.23,-22.84"/>
<polygon fill="#63b8ff" stroke="#63b8ff" points="1062.73,-26.01 1070.67,-18.99 1060.08,-19.53 1062.73,-26.01"/>
</a>
</g>
</g>
<!-- Node15&#45;&gt;Node2 -->
<g id="edge18_Node000015_Node000002" class="edge">
<title>Node15&#45;&gt;Node2</title>
<g id="a_edge18_Node000015_Node000002"><a xlink:title=" ">
<path fill="none" stroke="#63b8ff" d="M899.17,-170.36C891.02,-155.14 871.82,-123.84 845.5,-110 828.26,-100.94 572.92,-80.09 449.86,-70.5"/>
<polygon fill="#63b8ff" stroke="#63b8ff" points="450.05,-67 439.81,-69.72 449.5,-73.98 450.05,-67"/>
</a>
</g>
</g>
<!-- Node15&#45;&gt;Node3 -->
<g id="edge21_Node000015_Node000003" class="edge">
<title>Node15&#45;&gt;Node3</title>
<g id="a_edge21_Node000015_Node000003"><a xlink:title=" ">
<path fill="none" stroke="#63b8ff" d="M901.72,-170.41C896.38,-147 878.03,-82.03 834.5,-55 785.03,-24.28 610.14,-14.41 535.58,-11.55"/>
<polygon fill="#63b8ff" stroke="#63b8ff" points="535.45,-8.05 525.33,-11.18 535.2,-15.04 535.45,-8.05"/>
</a>
</g>
</g>
<!-- Node15&#45;&gt;Node5 -->
<g id="edge19_Node000015_Node000005" class="edge">
<title>Node15&#45;&gt;Node5</title>
<g id="a_edge19_Node000015_Node000005"><a xlink:title=" ">
<path fill="none" stroke="#63b8ff" d="M882.56,-170.49C858.14,-160.57 817.57,-144.09 789.73,-132.78"/>
<polygon fill="#63b8ff" stroke="#63b8ff" points="791.05,-129.54 780.46,-129.02 788.41,-136.02 791.05,-129.54"/>
</a>
</g>
</g>
<!-- Node15&#45;&gt;Node11 -->
<g id="edge22_Node000015_Node000011" class="edge">
<title>Node15&#45;&gt;Node11</title>
<g id="a_edge22_Node000015_Node000011"><a xlink:title=" ">
<path fill="none" stroke="#63b8ff" d="M997.18,-170.45C1025.09,-163.35 1053.31,-150.83 1072.5,-129 1096.94,-101.19 1096.61,-54.89 1094.11,-29.17"/>
<polygon fill="#63b8ff" stroke="#63b8ff" points="1097.59,-28.75 1092.94,-19.23 1090.64,-29.57 1097.59,-28.75"/>
</a>
</g>
</g>
<!-- Node16 -->
<g id="Node000016" class="node">
<title>Node16</title>
<g id="a_Node000016"><a xlink:title=" ">
<polygon fill="#e0e0e0" stroke="#999999" points="975.5,-129 931.5,-129 931.5,-110 975.5,-110 975.5,-129"/>
<text text-anchor="middle" x="953.5" y="-117" font-family="Helvetica,sans-Serif" font-size="10.00">string</text>
</a>
</g>
</g>
<!-- Node15&#45;&gt;Node16 -->
<g id="edge20_Node000015_Node000016" class="edge">
<title>Node15&#45;&gt;Node16</title>
<g id="a_edge20_Node000015_Node000016"><a xlink:title=" ">
<path fill="none" stroke="#63b8ff" d="M910.88,-170.37C918.41,-161.55 930.29,-147.66 939.59,-136.77"/>
<polygon fill="#63b8ff" stroke="#63b8ff" points="942.26,-139.04 946.09,-129.17 936.93,-134.5 942.26,-139.04"/>
</a>
</g>
</g>
<!-- Node17 -->
<g id="Node000017" class="node">
<title>Node17</title>
<g id="a_Node000017"><a xlink:title=" ">
<polygon fill="#e0e0e0" stroke="#999999" points="1063,-129 994,-129 994,-110 1063,-110 1063,-129"/>
<text text-anchor="middle" x="1028.5" y="-117" font-family="Helvetica,sans-Serif" font-size="10.00">type_traits</text>
</a>
</g>
</g>
<!-- Node15&#45;&gt;Node17 -->
<g id="edge23_Node000015_Node000017" class="edge">
<title>Node15&#45;&gt;Node17</title>
<g id="a_edge23_Node000015_Node000017"><a xlink:title=" ">
<path fill="none" stroke="#63b8ff" d="M921.68,-170.49C942.51,-160.75 976.87,-144.66 1000.98,-133.38"/>
<polygon fill="#63b8ff" stroke="#63b8ff" points="1002.73,-136.43 1010.3,-129.02 999.76,-130.09 1002.73,-136.43"/>
</a>
</g>
</g>
<!-- Node18&#45;&gt;Node2 -->
<g id="edge25_Node000018_Node000002" class="edge">
<title>Node18&#45;&gt;Node2</title>
<g id="a_edge25_Node000018_Node000002"><a xlink:title=" ">
<path fill="none" stroke="#63b8ff" d="M255.82,-164.85C283.72,-143.31 336.62,-102.47 365.13,-80.46"/>
<polygon fill="#63b8ff" stroke="#63b8ff" points="367.36,-83.15 373.14,-74.27 363.09,-77.61 367.36,-83.15"/>
</a>
</g>
</g>
<!-- Node18&#45;&gt;Node3 -->
<g id="edge27_Node000018_Node000003" class="edge">
<title>Node18&#45;&gt;Node3</title>
<g id="a_edge27_Node000018_Node000003"><a xlink:title=" ">
<path fill="none" stroke="#63b8ff" d="M242.83,-164.98C253.44,-139.02 279.76,-83.53 320.5,-55 364.96,-23.86 428.86,-14.42 467.64,-11.62"/>
<polygon fill="#63b8ff" stroke="#63b8ff" points="468.11,-15.1 477.87,-10.99 467.68,-8.11 468.11,-15.1"/>
</a>
</g>
</g>
<!-- Node18&#45;&gt;Node5 -->
<g id="edge35_Node000018_Node000005" class="edge">
<title>Node18&#45;&gt;Node5</title>
<g id="a_edge35_Node000018_Node000005"><a xlink:title=" ">
<path fill="none" stroke="#63b8ff" d="M315.65,-170.24C411.61,-159.49 573.86,-141.3 673.34,-130.16"/>
<polygon fill="#63b8ff" stroke="#63b8ff" points="673.82,-133.62 683.37,-129.03 673.04,-126.67 673.82,-133.62"/>
</a>
</g>
</g>
<!-- Node18&#45;&gt;Node9 -->
<g id="edge26_Node000018_Node000009" class="edge">
<title>Node18&#45;&gt;Node9</title>
<g id="a_edge26_Node000018_Node000009"><a xlink:title=" ">
<path fill="none" stroke="#63b8ff" d="M165.83,-164.89C146.61,-157.48 128,-146.19 116.5,-129 104.89,-111.64 116.56,-72.63 130.5,-55 144.18,-37.69 166.46,-26.38 184.78,-19.49"/>
<polygon fill="#63b8ff" stroke="#63b8ff" points="186.18,-22.71 194.47,-16.11 183.88,-16.1 186.18,-22.71"/>
</a>
</g>
</g>
<!-- Node18&#45;&gt;Node19 -->
<g id="edge28_Node000018_Node000019" class="edge">
<title>Node18&#45;&gt;Node19</title>
<g id="a_edge28_Node000018_Node000019"><a xlink:title=" ">
<path fill="none" stroke="#63b8ff" d="M164.76,-164.97C137.58,-157.36 107.51,-145.92 83.5,-129 66.48,-117.01 52.63,-97.37 44.05,-83.1"/>
<polygon fill="#63b8ff" stroke="#63b8ff" points="46.98,-81.18 38.98,-74.24 40.91,-84.66 46.98,-81.18"/>
</a>
</g>
</g>
<!-- Node20 -->
<g id="Node000020" class="node">
<title>Node20</title>
<g id="a_Node000020"><a xlink:href="Monomials__fwd_8hpp.html" target="_top" xlink:title="Declaration of Monomial basis.">
<polygon fill="white" stroke="#666666" points="239.5,-129 125.5,-129 125.5,-110 239.5,-110 239.5,-129"/>
<text text-anchor="middle" x="182.5" y="-117" font-family="Helvetica,sans-Serif" font-size="10.00">Monomials_fwd.hpp</text>
</a>
</g>
</g>
<!-- Node18&#45;&gt;Node20 -->
<g id="edge29_Node000018_Node000020" class="edge">
<title>Node18&#45;&gt;Node20</title>
<g id="a_edge29_Node000018_Node000020"><a xlink:title=" ">
<path fill="none" stroke="#63b8ff" d="M224.19,-164.84C216.2,-156.35 206.02,-145.52 197.72,-136.69"/>
<polygon fill="#63b8ff" stroke="#63b8ff" points="200.14,-134.15 190.74,-129.27 195.04,-138.95 200.14,-134.15"/>
</a>
</g>
</g>
<!-- Node20&#45;&gt;Node2 -->
<g id="edge30_Node000020_Node000002" class="edge">
<title>Node20&#45;&gt;Node2</title>
<g id="a_edge30_Node000020_Node000002"><a xlink:title=" ">
<path fill="none" stroke="#63b8ff" d="M214.95,-109.98C249.46,-100.93 304.16,-86.58 342.06,-76.64"/>
<polygon fill="#63b8ff" stroke="#63b8ff" points="343.01,-80.01 351.79,-74.08 341.23,-73.23 343.01,-80.01"/>
</a>
</g>
</g>
<!-- Node20&#45;&gt;Node9 -->
<g id="edge32_Node000020_Node000009" class="edge">
<title>Node20&#45;&gt;Node9</title>
<g id="a_edge32_Node000020_Node000009"><a xlink:title=" ">
<path fill="none" stroke="#63b8ff" d="M185.2,-109.66C190.57,-92.09 202.68,-52.45 209.86,-28.95"/>
<polygon fill="#63b8ff" stroke="#63b8ff" points="213.28,-29.74 212.85,-19.16 206.58,-27.7 213.28,-29.74"/>
</a>
</g>
</g>
<!-- Node20&#45;&gt;Node14 -->
<g id="edge34_Node000020_Node000014" class="edge">
<title>Node20&#45;&gt;Node14</title>
<g id="a_edge34_Node000020_Node000014"><a xlink:title=" ">
<path fill="none" stroke="#63b8ff" d="M239.66,-110.33C317.83,-99.17 455.64,-79.48 519.39,-70.37"/>
<polygon fill="#63b8ff" stroke="#63b8ff" points="519.92,-73.83 529.33,-68.95 518.93,-66.9 519.92,-73.83"/>
</a>
</g>
</g>
<!-- Node20&#45;&gt;Node19 -->
<g id="edge33_Node000020_Node000019" class="edge">
<title>Node20&#45;&gt;Node19</title>
<g id="a_edge33_Node000020_Node000019"><a xlink:title=" ">
<path fill="none" stroke="#63b8ff" d="M158.72,-109.98C134.27,-101.23 95.97,-87.51 68.35,-77.62"/>
<polygon fill="#63b8ff" stroke="#63b8ff" points="69.31,-74.25 58.71,-74.17 66.95,-80.84 69.31,-74.25"/>
</a>
</g>
</g>
<!-- Node21 -->
<g id="Node000021" class="node">
<title>Node21</title>
<g id="a_Node000021"><a xlink:title=" ">
<polygon fill="#e0e0e0" stroke="#999999" points="187,-74 140,-74 140,-55 187,-55 187,-74"/>
<text text-anchor="middle" x="163.5" y="-62" font-family="Helvetica,sans-Serif" font-size="10.00">cmath</text>
</a>
</g>
</g>
<!-- Node20&#45;&gt;Node21 -->
<g id="edge31_Node000020_Node000021" class="edge">
<title>Node20&#45;&gt;Node21</title>
<g id="a_edge31_Node000020_Node000021"><a xlink:title=" ">
<path fill="none" stroke="#63b8ff" d="M179.36,-109.75C176.82,-102.65 173.14,-92.4 169.97,-83.56"/>
<polygon fill="#63b8ff" stroke="#63b8ff" points="173.25,-82.32 166.58,-74.09 166.66,-84.68 173.25,-82.32"/>
</a>
</g>
</g>
</g>
</svg>
