<?xml version="1.0" encoding="UTF-8" standalone="no"?>
<!DOCTYPE svg PUBLIC "-//W3C//DTD SVG 1.1//EN"
 "http://www.w3.org/Graphics/SVG/1.1/DTD/svg11.dtd">
<!-- Generated by graphviz version 2.43.0 (0)
 -->
<!-- Title: include/medusa/bits/operators/ShapeStorage.hpp Pages: 1 -->
<!--zoomable 500 -->

<svg id="main" version="1.1" xmlns="http://www.w3.org/2000/svg" xmlns:xlink="http://www.w3.org/1999/xlink" xml:space="preserve" onload="init(evt)">
<style type="text/css"><![CDATA[
.node, .edge {opacity: 0.7;}
.node.selected, .edge.selected {opacity: 1;}
.edge:hover path { stroke: red; }
.edge:hover polygon { stroke: red; fill: red; }
]]></style>

<defs>
  <circle id="rim" cx="0" cy="0" r="7"/>
  <circle id="rim2" cx="0" cy="0" r="3.5"/>
  <g id="zoomPlus">
    <use xlink:href="#rim" fill="#404040"><set attributeName="fill" to="#808080" begin="zoomplus.mouseover" end="zoomplus.mouseout"/></use>
    <path d="M-4,0h8M0,-4v8" fill="none" stroke="white" stroke-width="1.5" pointer-events="none"/>
  </g>
  <g id="zoomMin">
    <use xlink:href="#rim" fill="#404040"><set attributeName="fill" to="#808080" begin="zoomminus.mouseover" end="zoomminus.mouseout"/></use>
    <path d="M-4,0h8" fill="none" stroke="white" stroke-width="1.5" pointer-events="none"/>
  </g>
  <g id="arrowUp" transform="translate(30 24)">
    <use xlink:href="#rim"/>
    <path pointer-events="none" fill="none" stroke="white" stroke-width="1.5" d="M0,-3.0v7 M-2.5,-0.5L0,-3.0L2.5,-0.5"/>
  </g>
  <g id="arrowRight" transform="rotate(90) translate(36 -43)">
    <use xlink:href="#rim"/>
    <path pointer-events="none" fill="none" stroke="white" stroke-width="1.5" d="M0,-3.0v7 M-2.5,-0.5L0,-3.0L2.5,-0.5"/>
  </g>
  <g id="arrowDown" transform="rotate(180) translate(-30 -48)">
    <use xlink:href="#rim"/>
    <path pointer-events="none" fill="none" stroke="white" stroke-width="1.5" d="M0,-3.0v7 M-2.5,-0.5L0,-3.0L2.5,-0.5"/>
  </g>
  <g id="arrowLeft" transform="rotate(270) translate(-36 17)">
    <use xlink:href="#rim"/>
    <path pointer-events="none" fill="none" stroke="white" stroke-width="1.5" d="M0,-3.0v7 M-2.5,-0.5L0,-3.0L2.5,-0.5"/>
  </g>
  <g id="resetDef">
    <use xlink:href="#rim2" fill="#404040"><set attributeName="fill" to="#808080" begin="reset.mouseover" end="reset.mouseout"/></use>
  </g>
</defs>
<script type="application/ecmascript">
var viewWidth = 1344;
var viewHeight = 500;
var sectionId = 'dynsection-0';
</script>
<script type="application/ecmascript" xlink:href="svg.min.js"/>
<svg id="graph" class="graph">
<g id="viewport">
<title>include/medusa/bits/operators/ShapeStorage.hpp</title>
<!-- Node1 -->
<g id="Node000001" class="node">
<title>Node1</title>
<g id="a_Node000001"><a xlink:title="Implementations of the ShapeStorage interface.">
<polygon fill="#999999" stroke="#666666" points="671,-492 513,-492 513,-462 671,-462 671,-492"/>
<text text-anchor="start" x="521" y="-480" font-family="Helvetica,sans-Serif" font-size="10.00">include/medusa/bits</text>
<text text-anchor="middle" x="592" y="-469" font-family="Helvetica,sans-Serif" font-size="10.00">/operators/ShapeStorage.hpp</text>
</a>
</g>
</g>
<!-- Node2 -->
<g id="Node000002" class="node">
<title>Node2</title>
<g id="a_Node000002"><a xlink:href="ShapeStorage__fwd_8hpp.html" target="_top" xlink:title="Base class and interface for storing and accessing computed shapes.">
<polygon fill="white" stroke="#666666" points="611,-250 483,-250 483,-231 611,-231 611,-250"/>
<text text-anchor="middle" x="547" y="-238" font-family="Helvetica,sans-Serif" font-size="10.00">ShapeStorage_fwd.hpp</text>
</a>
</g>
</g>
<!-- Node1&#45;&gt;Node2 -->
<g id="edge1_Node000001_Node000002" class="edge">
<title>Node1&#45;&gt;Node2</title>
<g id="a_edge1_Node000001_Node000002"><a xlink:title=" ">
<path fill="none" stroke="#63b8ff" d="M589.25,-461.68C581.48,-421.17 559.32,-305.68 550.59,-260.22"/>
<polygon fill="#63b8ff" stroke="#63b8ff" points="554,-259.42 548.68,-250.26 547.13,-260.74 554,-259.42"/>
</a>
</g>
</g>
<!-- Node23 -->
<g id="Node000023" class="node">
<title>Node23</title>
<g id="a_Node000023"><a xlink:href="printShapes_8hpp.html" target="_top" xlink:title="Suppport functions for shape printing.">
<polygon fill="white" stroke="#666666" points="726.5,-426 631.5,-426 631.5,-407 726.5,-407 726.5,-426"/>
<text text-anchor="middle" x="679" y="-414" font-family="Helvetica,sans-Serif" font-size="10.00">printShapes.hpp</text>
</a>
</g>
</g>
<!-- Node1&#45;&gt;Node23 -->
<g id="edge40_Node000001_Node000023" class="edge">
<title>Node1&#45;&gt;Node23</title>
<g id="a_edge40_Node000001_Node000023"><a xlink:title=" ">
<path fill="none" stroke="#63b8ff" d="M613.06,-461.84C626.54,-452.77 643.99,-441.04 657.55,-431.92"/>
<polygon fill="#63b8ff" stroke="#63b8ff" points="659.87,-434.58 666.22,-426.09 655.97,-428.77 659.87,-434.58"/>
</a>
</g>
</g>
<!-- Node3 -->
<g id="Node000003" class="node">
<title>Node3</title>
<g id="a_Node000003"><a xlink:href="Config_8hpp.html" target="_top" xlink:title="Contains compile time settings for the project, such as Eigen plugins.">
<polygon fill="white" stroke="#666666" points="802,-74 692,-74 692,-55 802,-55 802,-74"/>
<text text-anchor="middle" x="747" y="-62" font-family="Helvetica,sans-Serif" font-size="10.00">medusa/Config.hpp</text>
</a>
</g>
</g>
<!-- Node2&#45;&gt;Node3 -->
<g id="edge2_Node000002_Node000003" class="edge">
<title>Node2&#45;&gt;Node3</title>
<g id="a_edge2_Node000002_Node000003"><a xlink:title=" ">
<path fill="none" stroke="#63b8ff" d="M521.68,-230.89C468.07,-211.38 351.63,-161.5 397,-110 397.59,-109.34 580.39,-86.36 681.53,-73.69"/>
<polygon fill="#63b8ff" stroke="#63b8ff" points="682.17,-77.14 691.66,-72.42 681.3,-70.19 682.17,-77.14"/>
</a>
</g>
</g>
<!-- Node5 -->
<g id="Node000005" class="node">
<title>Node5</title>
<g id="a_Node000005"><a xlink:href="Range__fwd_8hpp.html" target="_top" xlink:title="Declaration of Range.">
<polygon fill="white" stroke="#666666" points="593,-195 453,-195 453,-165 593,-165 593,-195"/>
<text text-anchor="start" x="461" y="-183" font-family="Helvetica,sans-Serif" font-size="10.00">medusa/bits/types/Range</text>
<text text-anchor="middle" x="523" y="-172" font-family="Helvetica,sans-Serif" font-size="10.00">_fwd.hpp</text>
</a>
</g>
</g>
<!-- Node2&#45;&gt;Node5 -->
<g id="edge4_Node000002_Node000005" class="edge">
<title>Node2&#45;&gt;Node5</title>
<g id="a_edge4_Node000002_Node000005"><a xlink:title=" ">
<path fill="none" stroke="#63b8ff" d="M543.46,-230.87C540.59,-223.89 536.42,-213.71 532.59,-204.38"/>
<polygon fill="#63b8ff" stroke="#63b8ff" points="535.82,-203.04 528.79,-195.11 529.35,-205.69 535.82,-203.04"/>
</a>
</g>
</g>
<!-- Node12 -->
<g id="Node000012" class="node">
<title>Node12</title>
<g id="a_Node000012"><a xlink:title=" ">
<polygon fill="#e0e0e0" stroke="#999999" points="108.5,-19 67.5,-19 67.5,0 108.5,0 108.5,-19"/>
<text text-anchor="middle" x="88" y="-7" font-family="Helvetica,sans-Serif" font-size="10.00">tuple</text>
</a>
</g>
</g>
<!-- Node2&#45;&gt;Node12 -->
<g id="edge38_Node000002_Node000012" class="edge">
<title>Node2&#45;&gt;Node12</title>
<g id="a_edge38_Node000002_Node000012"><a xlink:title=" ">
<path fill="none" stroke="#63b8ff" d="M482.58,-238.57C378.2,-236.12 177.48,-227.23 115,-195 80.29,-177.1 70.77,-165.54 57,-129 43.81,-94 63.37,-51.16 76.91,-27.77"/>
<polygon fill="#63b8ff" stroke="#63b8ff" points="80.03,-29.38 82.23,-19.02 74.05,-25.75 80.03,-29.38"/>
</a>
</g>
</g>
<!-- Node15 -->
<g id="Node000015" class="node">
<title>Node15</title>
<g id="a_Node000015"><a xlink:title=" ">
<polygon fill="#e0e0e0" stroke="#999999" points="1175,-74 1127,-74 1127,-55 1175,-55 1175,-74"/>
<text text-anchor="middle" x="1151" y="-62" font-family="Helvetica,sans-Serif" font-size="10.00">iosfwd</text>
</a>
</g>
</g>
<!-- Node2&#45;&gt;Node15 -->
<g id="edge37_Node000002_Node000015" class="edge">
<title>Node2&#45;&gt;Node15</title>
<g id="a_edge37_Node000002_Node000015"><a xlink:title=" ">
<path fill="none" stroke="#63b8ff" d="M611.42,-237.41C726.78,-233.06 963.87,-221.18 1042,-195 1094.62,-177.37 1119.92,-176.87 1148,-129 1155.94,-115.46 1155.99,-97.38 1154.46,-83.97"/>
<polygon fill="#63b8ff" stroke="#63b8ff" points="1157.91,-83.37 1152.94,-74.01 1150.99,-84.42 1157.91,-83.37"/>
</a>
</g>
</g>
<!-- Node16 -->
<g id="Node000016" class="node">
<title>Node16</title>
<g id="a_Node000016"><a xlink:href="stdtypesutils_8hpp.html" target="_top" xlink:title="Declaration of utilities for std types.">
<polygon fill="white" stroke="#666666" points="312,-189.5 124,-189.5 124,-170.5 312,-170.5 312,-189.5"/>
<text text-anchor="middle" x="218" y="-177.5" font-family="Helvetica,sans-Serif" font-size="10.00">medusa/bits/utils/stdtypesutils.hpp</text>
</a>
</g>
</g>
<!-- Node2&#45;&gt;Node16 -->
<g id="edge18_Node000002_Node000016" class="edge">
<title>Node2&#45;&gt;Node16</title>
<g id="a_edge18_Node000002_Node000016"><a xlink:title=" ">
<path fill="none" stroke="#63b8ff" d="M499.16,-230.99C439.95,-220.47 339.2,-202.55 275.75,-191.27"/>
<polygon fill="#63b8ff" stroke="#63b8ff" points="276.36,-187.82 265.9,-189.52 275.13,-194.71 276.36,-187.82"/>
</a>
</g>
</g>
<!-- Node19 -->
<g id="Node000019" class="node">
<title>Node19</title>
<g id="a_Node000019"><a xlink:href="Operators__fwd_8hpp.html" target="_top" xlink:title="File defining basic differential operator families.">
<polygon fill="white" stroke="#666666" points="1033,-195 877,-195 877,-165 1033,-165 1033,-195"/>
<text text-anchor="start" x="885" y="-183" font-family="Helvetica,sans-Serif" font-size="10.00">medusa/bits/approximations</text>
<text text-anchor="middle" x="955" y="-172" font-family="Helvetica,sans-Serif" font-size="10.00">/Operators_fwd.hpp</text>
</a>
</g>
</g>
<!-- Node2&#45;&gt;Node19 -->
<g id="edge25_Node000002_Node000019" class="edge">
<title>Node2&#45;&gt;Node19</title>
<g id="a_edge25_Node000002_Node000019"><a xlink:title=" ">
<path fill="none" stroke="#63b8ff" d="M606.33,-230.99C674.79,-221.18 788.03,-204.94 866.81,-193.64"/>
<polygon fill="#63b8ff" stroke="#63b8ff" points="867.32,-197.11 876.72,-192.22 866.33,-190.18 867.32,-197.11"/>
</a>
</g>
</g>
<!-- Node20 -->
<g id="Node000020" class="node">
<title>Node20</title>
<g id="a_Node000020"><a xlink:title=" ">
<polygon fill="#e0e0e0" stroke="#999999" points="1005.5,-74 936.5,-74 936.5,-55 1005.5,-55 1005.5,-74"/>
<text text-anchor="middle" x="971" y="-62" font-family="Helvetica,sans-Serif" font-size="10.00">Eigen/Core</text>
</a>
</g>
</g>
<!-- Node2&#45;&gt;Node20 -->
<g id="edge39_Node000002_Node000020" class="edge">
<title>Node2&#45;&gt;Node20</title>
<g id="a_edge39_Node000002_Node000020"><a xlink:title=" ">
<path fill="none" stroke="#63b8ff" d="M611.13,-235.56C661.67,-230.65 733.05,-219.64 791,-195 858.36,-166.36 924.95,-108.83 954.76,-81.12"/>
<polygon fill="#63b8ff" stroke="#63b8ff" points="957.28,-83.55 962.16,-74.15 952.48,-78.46 957.28,-83.55"/>
</a>
</g>
</g>
<!-- Node4 -->
<g id="Node000004" class="node">
<title>Node4</title>
<g id="a_Node000004"><a xlink:title=" ">
<polygon fill="#e0e0e0" stroke="#999999" points="770.5,-19 723.5,-19 723.5,0 770.5,0 770.5,-19"/>
<text text-anchor="middle" x="747" y="-7" font-family="Helvetica,sans-Serif" font-size="10.00">vector</text>
</a>
</g>
</g>
<!-- Node3&#45;&gt;Node4 -->
<g id="edge3_Node000003_Node000004" class="edge">
<title>Node3&#45;&gt;Node4</title>
<g id="a_edge3_Node000003_Node000004"><a xlink:title=" ">
<path fill="none" stroke="#63b8ff" d="M747,-54.75C747,-47.8 747,-37.85 747,-29.13"/>
<polygon fill="#63b8ff" stroke="#63b8ff" points="750.5,-29.09 747,-19.09 743.5,-29.09 750.5,-29.09"/>
</a>
</g>
</g>
<!-- Node5&#45;&gt;Node3 -->
<g id="edge5_Node000005_Node000003" class="edge">
<title>Node5&#45;&gt;Node3</title>
<g id="a_edge5_Node000005_Node000003"><a xlink:title=" ">
<path fill="none" stroke="#63b8ff" d="M516.48,-164.84C510.52,-149.54 504.37,-125.3 517,-110 527.53,-97.23 617.68,-82.71 681.92,-73.82"/>
<polygon fill="#63b8ff" stroke="#63b8ff" points="682.56,-77.27 691.99,-72.45 681.61,-70.33 682.56,-77.27"/>
</a>
</g>
</g>
<!-- Node5&#45;&gt;Node4 -->
<g id="edge16_Node000005_Node000004" class="edge">
<title>Node5&#45;&gt;Node4</title>
<g id="a_edge16_Node000005_Node000004"><a xlink:title=" ">
<path fill="none" stroke="#63b8ff" d="M452.65,-166.1C414.38,-155.67 378.32,-138.01 397,-110 432.63,-56.55 632.53,-25.23 713.22,-14.61"/>
<polygon fill="#63b8ff" stroke="#63b8ff" points="713.87,-18.06 723.34,-13.3 712.98,-11.11 713.87,-18.06"/>
</a>
</g>
</g>
<!-- Node6 -->
<g id="Node000006" class="node">
<title>Node6</title>
<g id="a_Node000006"><a xlink:href="assert_8hpp.html" target="_top" xlink:title="Implementation of custom assert and debug utilities.">
<polygon fill="white" stroke="#666666" points="681.5,-129 526.5,-129 526.5,-110 681.5,-110 681.5,-129"/>
<text text-anchor="middle" x="604" y="-117" font-family="Helvetica,sans-Serif" font-size="10.00">medusa/bits/utils/assert.hpp</text>
</a>
</g>
</g>
<!-- Node5&#45;&gt;Node6 -->
<g id="edge6_Node000005_Node000006" class="edge">
<title>Node5&#45;&gt;Node6</title>
<g id="a_edge6_Node000005_Node000006"><a xlink:title=" ">
<path fill="none" stroke="#63b8ff" d="M542.61,-164.84C554.97,-155.91 570.9,-144.41 583.43,-135.35"/>
<polygon fill="#63b8ff" stroke="#63b8ff" points="585.8,-137.96 591.86,-129.27 581.71,-132.28 585.8,-137.96"/>
</a>
</g>
</g>
<!-- Node13 -->
<g id="Node000013" class="node">
<title>Node13</title>
<g id="a_Node000013"><a xlink:href="traits_8hpp.html" target="_top" xlink:title="Type traits definition for vector and scalar fields.">
<polygon fill="white" stroke="#666666" points="469.5,-129 406.5,-129 406.5,-110 469.5,-110 469.5,-129"/>
<text text-anchor="middle" x="438" y="-117" font-family="Helvetica,sans-Serif" font-size="10.00">traits.hpp</text>
</a>
</g>
</g>
<!-- Node5&#45;&gt;Node13 -->
<g id="edge14_Node000005_Node000013" class="edge">
<title>Node5&#45;&gt;Node13</title>
<g id="a_edge14_Node000005_Node000013"><a xlink:title=" ">
<path fill="none" stroke="#63b8ff" d="M502.42,-164.84C489.33,-155.83 472.41,-144.18 459.2,-135.09"/>
<polygon fill="#63b8ff" stroke="#63b8ff" points="460.96,-132.05 450.74,-129.27 456.99,-137.82 460.96,-132.05"/>
</a>
</g>
</g>
<!-- Node14 -->
<g id="Node000014" class="node">
<title>Node14</title>
<g id="a_Node000014"><a xlink:title=" ">
<polygon fill="#e0e0e0" stroke="#999999" points="758,-129 700,-129 700,-110 758,-110 758,-129"/>
<text text-anchor="middle" x="729" y="-117" font-family="Helvetica,sans-Serif" font-size="10.00">memory</text>
</a>
</g>
</g>
<!-- Node5&#45;&gt;Node14 -->
<g id="edge15_Node000005_Node000014" class="edge">
<title>Node5&#45;&gt;Node14</title>
<g id="a_edge15_Node000005_Node000014"><a xlink:title=" ">
<path fill="none" stroke="#63b8ff" d="M572.34,-164.99C608.37,-154.76 656.55,-141.07 689.93,-131.6"/>
<polygon fill="#63b8ff" stroke="#63b8ff" points="691.11,-134.9 699.78,-128.8 689.2,-128.16 691.11,-134.9"/>
</a>
</g>
</g>
<!-- Node5&#45;&gt;Node15 -->
<g id="edge17_Node000005_Node000015" class="edge">
<title>Node5&#45;&gt;Node15</title>
<g id="a_edge17_Node000005_Node000015"><a xlink:title=" ">
<path fill="none" stroke="#63b8ff" d="M593.15,-166.17C596.14,-165.75 599.1,-165.36 602,-165 660.04,-157.89 1080.06,-163.87 1127,-129 1141.02,-118.58 1146.85,-98.94 1149.28,-84.25"/>
<polygon fill="#63b8ff" stroke="#63b8ff" points="1152.76,-84.57 1150.54,-74.21 1145.82,-83.7 1152.76,-84.57"/>
</a>
</g>
</g>
<!-- Node7 -->
<g id="Node000007" class="node">
<title>Node7</title>
<g id="a_Node000007"><a xlink:title=" ">
<polygon fill="#e0e0e0" stroke="#999999" points="670,-74 538,-74 538,-55 670,-55 670,-74"/>
<text text-anchor="middle" x="604" y="-62" font-family="Helvetica,sans-Serif" font-size="10.00">tinyformat/tinyformat.h</text>
</a>
</g>
</g>
<!-- Node6&#45;&gt;Node7 -->
<g id="edge7_Node000006_Node000007" class="edge">
<title>Node6&#45;&gt;Node7</title>
<g id="a_edge7_Node000006_Node000007"><a xlink:title=" ">
<path fill="none" stroke="#63b8ff" d="M604,-109.75C604,-102.8 604,-92.85 604,-84.13"/>
<polygon fill="#63b8ff" stroke="#63b8ff" points="607.5,-84.09 604,-74.09 600.5,-84.09 607.5,-84.09"/>
</a>
</g>
</g>
<!-- Node8 -->
<g id="Node000008" class="node">
<title>Node8</title>
<g id="a_Node000008"><a xlink:href="print_8hpp.html" target="_top" xlink:title="Printing helpers for std types.">
<polygon fill="white" stroke="#666666" points="918,-74 858,-74 858,-55 918,-55 918,-74"/>
<text text-anchor="middle" x="888" y="-62" font-family="Helvetica,sans-Serif" font-size="10.00">print.hpp</text>
</a>
</g>
</g>
<!-- Node6&#45;&gt;Node8 -->
<g id="edge8_Node000006_Node000008" class="edge">
<title>Node6&#45;&gt;Node8</title>
<g id="a_edge8_Node000006_Node000008"><a xlink:title=" ">
<path fill="none" stroke="#63b8ff" d="M649.63,-109.98C704.46,-99.75 795.59,-82.75 847.85,-72.99"/>
<polygon fill="#63b8ff" stroke="#63b8ff" points="848.58,-76.42 857.76,-71.14 847.29,-69.54 848.58,-76.42"/>
</a>
</g>
</g>
<!-- Node8&#45;&gt;Node4 -->
<g id="edge10_Node000008_Node000004" class="edge">
<title>Node8&#45;&gt;Node4</title>
<g id="a_edge10_Node000008_Node000004"><a xlink:title=" ">
<path fill="none" stroke="#63b8ff" d="M865.35,-54.98C842.15,-46.27 805.88,-32.63 779.6,-22.75"/>
<polygon fill="#63b8ff" stroke="#63b8ff" points="780.66,-19.41 770.07,-19.17 778.2,-25.97 780.66,-19.41"/>
</a>
</g>
</g>
<!-- Node9 -->
<g id="Node000009" class="node">
<title>Node9</title>
<g id="a_Node000009"><a xlink:title=" ">
<polygon fill="#e0e0e0" stroke="#999999" points="1324,-19 1264,-19 1264,0 1324,0 1324,-19"/>
<text text-anchor="middle" x="1294" y="-7" font-family="Helvetica,sans-Serif" font-size="10.00">iostream</text>
</a>
</g>
</g>
<!-- Node8&#45;&gt;Node9 -->
<g id="edge9_Node000008_Node000009" class="edge">
<title>Node8&#45;&gt;Node9</title>
<g id="a_edge9_Node000008_Node000009"><a xlink:title=" ">
<path fill="none" stroke="#63b8ff" d="M918.18,-56.63C921.15,-56.04 924.13,-55.49 927,-55 1045.04,-35.03 1185.89,-20.54 1253.66,-14.14"/>
<polygon fill="#63b8ff" stroke="#63b8ff" points="1254.26,-17.6 1263.89,-13.18 1253.61,-10.63 1254.26,-17.6"/>
</a>
</g>
</g>
<!-- Node10 -->
<g id="Node000010" class="node">
<title>Node10</title>
<g id="a_Node000010"><a xlink:title=" ">
<polygon fill="#e0e0e0" stroke="#999999" points="1162,-19 1120,-19 1120,0 1162,0 1162,-19"/>
<text text-anchor="middle" x="1141" y="-7" font-family="Helvetica,sans-Serif" font-size="10.00">array</text>
</a>
</g>
</g>
<!-- Node8&#45;&gt;Node10 -->
<g id="edge11_Node000008_Node000010" class="edge">
<title>Node8&#45;&gt;Node10</title>
<g id="a_edge11_Node000008_Node000010"><a xlink:title=" ">
<path fill="none" stroke="#63b8ff" d="M918.23,-56.88C921.19,-56.24 924.15,-55.61 927,-55 992.01,-41.16 1068.24,-25.42 1109.9,-16.87"/>
<polygon fill="#63b8ff" stroke="#63b8ff" points="1110.63,-20.29 1119.72,-14.85 1109.22,-13.44 1110.63,-20.29"/>
</a>
</g>
</g>
<!-- Node11 -->
<g id="Node000011" class="node">
<title>Node11</title>
<g id="a_Node000011"><a xlink:title=" ">
<polygon fill="#e0e0e0" stroke="#999999" points="910.5,-19 865.5,-19 865.5,0 910.5,0 910.5,-19"/>
<text text-anchor="middle" x="888" y="-7" font-family="Helvetica,sans-Serif" font-size="10.00">utility</text>
</a>
</g>
</g>
<!-- Node8&#45;&gt;Node11 -->
<g id="edge12_Node000008_Node000011" class="edge">
<title>Node8&#45;&gt;Node11</title>
<g id="a_edge12_Node000008_Node000011"><a xlink:title=" ">
<path fill="none" stroke="#63b8ff" d="M888,-54.75C888,-47.8 888,-37.85 888,-29.13"/>
<polygon fill="#63b8ff" stroke="#63b8ff" points="891.5,-29.09 888,-19.09 884.5,-29.09 891.5,-29.09"/>
</a>
</g>
</g>
<!-- Node8&#45;&gt;Node12 -->
<g id="edge13_Node000008_Node000012" class="edge">
<title>Node8&#45;&gt;Node12</title>
<g id="a_edge13_Node000008_Node000012"><a xlink:title=" ">
<path fill="none" stroke="#63b8ff" d="M857.68,-59.81C843.51,-58.17 826.41,-56.32 811,-55 543.22,-31.99 218.66,-16.39 118.75,-11.86"/>
<polygon fill="#63b8ff" stroke="#63b8ff" points="118.88,-8.36 108.73,-11.41 118.56,-15.35 118.88,-8.36"/>
</a>
</g>
</g>
<!-- Node16&#45;&gt;Node3 -->
<g id="edge19_Node000016_Node000003" class="edge">
<title>Node16&#45;&gt;Node3</title>
<g id="a_edge19_Node000016_Node000003"><a xlink:title=" ">
<path fill="none" stroke="#63b8ff" d="M227.87,-170.38C245.92,-155.18 286.08,-123.9 326,-110 474.93,-58.14 522.3,-91.78 679,-74 679.91,-73.9 680.82,-73.79 681.73,-73.69"/>
<polygon fill="#63b8ff" stroke="#63b8ff" points="682.19,-77.16 691.72,-72.52 681.38,-70.21 682.19,-77.16"/>
</a>
</g>
</g>
<!-- Node16&#45;&gt;Node4 -->
<g id="edge22_Node000016_Node000004" class="edge">
<title>Node16&#45;&gt;Node4</title>
<g id="a_edge22_Node000016_Node000004"><a xlink:title=" ">
<path fill="none" stroke="#63b8ff" d="M224.27,-170.06C234.93,-155.47 257.98,-126.55 284,-110 424.58,-20.58 632.73,-10.38 713.38,-10.01"/>
<polygon fill="#63b8ff" stroke="#63b8ff" points="713.45,-13.51 723.45,-10.02 713.45,-6.51 713.45,-13.51"/>
</a>
</g>
</g>
<!-- Node16&#45;&gt;Node6 -->
<g id="edge20_Node000016_Node000006" class="edge">
<title>Node16&#45;&gt;Node6</title>
<g id="a_edge20_Node000016_Node000006"><a xlink:title=" ">
<path fill="none" stroke="#63b8ff" d="M274.13,-170.49C344.02,-159.9 463.26,-141.83 537.62,-130.56"/>
<polygon fill="#63b8ff" stroke="#63b8ff" points="538.44,-133.98 547.8,-129.02 537.39,-127.05 538.44,-133.98"/>
</a>
</g>
</g>
<!-- Node16&#45;&gt;Node12 -->
<g id="edge23_Node000016_Node000012" class="edge">
<title>Node16&#45;&gt;Node12</title>
<g id="a_edge23_Node000016_Node000012"><a xlink:title=" ">
<path fill="none" stroke="#63b8ff" d="M204.69,-170.21C191.49,-161.04 171.21,-145.68 157,-129 129.71,-96.97 107.21,-52.68 95.9,-28.33"/>
<polygon fill="#63b8ff" stroke="#63b8ff" points="99.08,-26.86 91.75,-19.21 92.7,-29.76 99.08,-26.86"/>
</a>
</g>
</g>
<!-- Node17 -->
<g id="Node000017" class="node">
<title>Node17</title>
<g id="a_Node000017"><a xlink:title=" ">
<polygon fill="#e0e0e0" stroke="#999999" points="110,-129 66,-129 66,-110 110,-110 110,-129"/>
<text text-anchor="middle" x="88" y="-117" font-family="Helvetica,sans-Serif" font-size="10.00">string</text>
</a>
</g>
</g>
<!-- Node16&#45;&gt;Node17 -->
<g id="edge21_Node000016_Node000017" class="edge">
<title>Node16&#45;&gt;Node17</title>
<g id="a_edge21_Node000016_Node000017"><a xlink:title=" ">
<path fill="none" stroke="#63b8ff" d="M199.1,-170.49C177.34,-160.7 141.38,-144.52 116.29,-133.23"/>
<polygon fill="#63b8ff" stroke="#63b8ff" points="117.48,-129.93 106.93,-129.02 114.61,-136.31 117.48,-129.93"/>
</a>
</g>
</g>
<!-- Node18 -->
<g id="Node000018" class="node">
<title>Node18</title>
<g id="a_Node000018"><a xlink:title=" ">
<polygon fill="#e0e0e0" stroke="#999999" points="235.5,-129 166.5,-129 166.5,-110 235.5,-110 235.5,-129"/>
<text text-anchor="middle" x="201" y="-117" font-family="Helvetica,sans-Serif" font-size="10.00">type_traits</text>
</a>
</g>
</g>
<!-- Node16&#45;&gt;Node18 -->
<g id="edge24_Node000016_Node000018" class="edge">
<title>Node16&#45;&gt;Node18</title>
<g id="a_edge24_Node000016_Node000018"><a xlink:title=" ">
<path fill="none" stroke="#63b8ff" d="M215.49,-170.37C213.11,-162.16 209.44,-149.54 206.39,-139.05"/>
<polygon fill="#63b8ff" stroke="#63b8ff" points="209.67,-137.79 203.52,-129.17 202.95,-139.75 209.67,-137.79"/>
</a>
</g>
</g>
<!-- Node19&#45;&gt;Node3 -->
<g id="edge26_Node000019_Node000003" class="edge">
<title>Node19&#45;&gt;Node3</title>
<g id="a_edge26_Node000019_Node000003"><a xlink:title=" ">
<path fill="none" stroke="#63b8ff" d="M932.43,-164.98C909.09,-150.65 871.43,-128 838,-110 817.23,-98.82 793.23,-87.13 775.1,-78.55"/>
<polygon fill="#63b8ff" stroke="#63b8ff" points="776.23,-75.21 765.69,-74.12 773.25,-81.54 776.23,-75.21"/>
</a>
</g>
</g>
<!-- Node19&#45;&gt;Node4 -->
<g id="edge28_Node000019_Node000004" class="edge">
<title>Node19&#45;&gt;Node4</title>
<g id="a_edge28_Node000019_Node000004"><a xlink:title=" ">
<path fill="none" stroke="#63b8ff" d="M939.47,-164.69C913.54,-141.01 859.51,-92.59 811,-55 797.31,-44.39 781.32,-33.27 768.75,-24.8"/>
<polygon fill="#63b8ff" stroke="#63b8ff" points="770.54,-21.79 760.28,-19.15 766.65,-27.61 770.54,-21.79"/>
</a>
</g>
</g>
<!-- Node19&#45;&gt;Node6 -->
<g id="edge36_Node000019_Node000006" class="edge">
<title>Node19&#45;&gt;Node6</title>
<g id="a_edge36_Node000019_Node000006"><a xlink:title=" ">
<path fill="none" stroke="#63b8ff" d="M876.67,-165.94C812.78,-155.3 723.8,-140.47 665.1,-130.68"/>
<polygon fill="#63b8ff" stroke="#63b8ff" points="665.66,-127.23 655.22,-129.04 664.51,-134.13 665.66,-127.23"/>
</a>
</g>
</g>
<!-- Node19&#45;&gt;Node10 -->
<g id="edge27_Node000019_Node000010" class="edge">
<title>Node19&#45;&gt;Node10</title>
<g id="a_edge27_Node000019_Node000010"><a xlink:title=" ">
<path fill="none" stroke="#63b8ff" d="M1033.38,-171.92C1070.85,-165.4 1114.67,-152.91 1148,-129 1177.72,-107.68 1197.71,-88.91 1184,-55 1179.31,-43.41 1170,-33.16 1161.24,-25.43"/>
<polygon fill="#63b8ff" stroke="#63b8ff" points="1163.44,-22.71 1153.49,-19.07 1159,-28.12 1163.44,-22.71"/>
</a>
</g>
</g>
<!-- Node19&#45;&gt;Node20 -->
<g id="edge29_Node000019_Node000020" class="edge">
<title>Node19&#45;&gt;Node20</title>
<g id="a_edge29_Node000019_Node000020"><a xlink:title=" ">
<path fill="none" stroke="#63b8ff" d="M957.03,-164.63C959.9,-144.21 965.18,-106.81 968.36,-84.24"/>
<polygon fill="#63b8ff" stroke="#63b8ff" points="971.84,-84.62 969.77,-74.23 964.91,-83.64 971.84,-84.62"/>
</a>
</g>
</g>
<!-- Node21 -->
<g id="Node000021" class="node">
<title>Node21</title>
<g id="a_Node000021"><a xlink:href="Monomials__fwd_8hpp.html" target="_top" xlink:title="Declaration of Monomial basis.">
<polygon fill="white" stroke="#666666" points="1118,-129 1004,-129 1004,-110 1118,-110 1118,-129"/>
<text text-anchor="middle" x="1061" y="-117" font-family="Helvetica,sans-Serif" font-size="10.00">Monomials_fwd.hpp</text>
</a>
</g>
</g>
<!-- Node19&#45;&gt;Node21 -->
<g id="edge30_Node000019_Node000021" class="edge">
<title>Node19&#45;&gt;Node21</title>
<g id="a_edge30_Node000019_Node000021"><a xlink:title=" ">
<path fill="none" stroke="#63b8ff" d="M980.39,-164.99C997.29,-155.66 1019.38,-143.47 1036.16,-134.21"/>
<polygon fill="#63b8ff" stroke="#63b8ff" points="1038.28,-137.04 1045.35,-129.14 1034.9,-130.91 1038.28,-137.04"/>
</a>
</g>
</g>
<!-- Node21&#45;&gt;Node3 -->
<g id="edge31_Node000021_Node000003" class="edge">
<title>Node21&#45;&gt;Node3</title>
<g id="a_edge31_Node000021_Node000003"><a xlink:title=" ">
<path fill="none" stroke="#63b8ff" d="M1010.55,-109.98C955.24,-100.65 866.53,-85.67 807.52,-75.71"/>
<polygon fill="#63b8ff" stroke="#63b8ff" points="808.03,-72.25 797.58,-74.04 806.86,-79.15 808.03,-72.25"/>
</a>
</g>
</g>
<!-- Node21&#45;&gt;Node10 -->
<g id="edge33_Node000021_Node000010" class="edge">
<title>Node21&#45;&gt;Node10</title>
<g id="a_edge33_Node000021_Node000010"><a xlink:title=" ">
<path fill="none" stroke="#63b8ff" d="M1067.55,-109.66C1080.86,-91.69 1111.27,-50.64 1128.49,-27.38"/>
<polygon fill="#63b8ff" stroke="#63b8ff" points="1131.45,-29.28 1134.59,-19.16 1125.82,-25.11 1131.45,-29.28"/>
</a>
</g>
</g>
<!-- Node21&#45;&gt;Node15 -->
<g id="edge35_Node000021_Node000015" class="edge">
<title>Node21&#45;&gt;Node15</title>
<g id="a_edge35_Node000021_Node000015"><a xlink:title=" ">
<path fill="none" stroke="#63b8ff" d="M1075.46,-109.98C1089.42,-101.77 1110.79,-89.18 1127.25,-79.49"/>
<polygon fill="#63b8ff" stroke="#63b8ff" points="1129.44,-82.26 1136.28,-74.17 1125.88,-76.23 1129.44,-82.26"/>
</a>
</g>
</g>
<!-- Node21&#45;&gt;Node20 -->
<g id="edge34_Node000021_Node000020" class="edge">
<title>Node21&#45;&gt;Node20</title>
<g id="a_edge34_Node000021_Node000020"><a xlink:title=" ">
<path fill="none" stroke="#63b8ff" d="M1046.54,-109.98C1032.58,-101.77 1011.21,-89.18 994.75,-79.49"/>
<polygon fill="#63b8ff" stroke="#63b8ff" points="996.12,-76.23 985.72,-74.17 992.56,-82.26 996.12,-76.23"/>
</a>
</g>
</g>
<!-- Node22 -->
<g id="Node000022" class="node">
<title>Node22</title>
<g id="a_Node000022"><a xlink:title=" ">
<polygon fill="#e0e0e0" stroke="#999999" points="1070.5,-74 1023.5,-74 1023.5,-55 1070.5,-55 1070.5,-74"/>
<text text-anchor="middle" x="1047" y="-62" font-family="Helvetica,sans-Serif" font-size="10.00">cmath</text>
</a>
</g>
</g>
<!-- Node21&#45;&gt;Node22 -->
<g id="edge32_Node000021_Node000022" class="edge">
<title>Node21&#45;&gt;Node22</title>
<g id="a_edge32_Node000021_Node000022"><a xlink:title=" ">
<path fill="none" stroke="#63b8ff" d="M1058.69,-109.75C1056.83,-102.72 1054.16,-92.62 1051.85,-83.84"/>
<polygon fill="#63b8ff" stroke="#63b8ff" points="1055.21,-82.86 1049.27,-74.09 1048.44,-84.65 1055.21,-82.86"/>
</a>
</g>
</g>
<!-- Node23&#45;&gt;Node9 -->
<g id="edge52_Node000023_Node000009" class="edge">
<title>Node23&#45;&gt;Node9</title>
<g id="a_edge52_Node000023_Node000009"><a xlink:title=" ">
<path fill="none" stroke="#63b8ff" d="M726.51,-412.32C877.43,-401.59 1336,-363.89 1336,-302 1336,-302 1336,-302 1336,-118.5 1336,-84.46 1317.65,-48.24 1305.21,-27.59"/>
<polygon fill="#63b8ff" stroke="#63b8ff" points="1308.12,-25.63 1299.84,-19.02 1302.19,-29.35 1308.12,-25.63"/>
</a>
</g>
</g>
<!-- Node24 -->
<g id="Node000024" class="node">
<title>Node24</title>
<g id="a_Node000024"><a xlink:href="shape__flags_8hpp.html" target="_top" xlink:title="Definition of flags related to shape computation.">
<polygon fill="white" stroke="#666666" points="297.5,-371 202.5,-371 202.5,-352 297.5,-352 297.5,-371"/>
<text text-anchor="middle" x="250" y="-359" font-family="Helvetica,sans-Serif" font-size="10.00">shape_flags.hpp</text>
</a>
</g>
</g>
<!-- Node23&#45;&gt;Node24 -->
<g id="edge41_Node000023_Node000024" class="edge">
<title>Node23&#45;&gt;Node24</title>
<g id="a_edge41_Node000023_Node000024"><a xlink:title=" ">
<path fill="none" stroke="#63b8ff" d="M631.45,-409.63C552.21,-399.84 393.41,-380.22 307.83,-369.64"/>
<polygon fill="#63b8ff" stroke="#63b8ff" points="308.12,-366.15 297.76,-368.4 307.26,-373.1 308.12,-366.15"/>
</a>
</g>
</g>
<!-- Node27 -->
<g id="Node000027" class="node">
<title>Node27</title>
<g id="a_Node000027"><a xlink:href="memutils_8hpp.html" target="_top" xlink:title="Declaration of memory related utilities.">
<polygon fill="white" stroke="#666666" points="782.5,-189.5 611.5,-189.5 611.5,-170.5 782.5,-170.5 782.5,-189.5"/>
<text text-anchor="middle" x="697" y="-177.5" font-family="Helvetica,sans-Serif" font-size="10.00">medusa/bits/utils/memutils.hpp</text>
</a>
</g>
</g>
<!-- Node23&#45;&gt;Node27 -->
<g id="edge53_Node000023_Node000027" class="edge">
<title>Node23&#45;&gt;Node27</title>
<g id="a_edge53_Node000023_Node000027"><a xlink:title=" ">
<path fill="none" stroke="#63b8ff" d="M679.66,-406.88C682.26,-372.98 691.82,-248.43 695.52,-200.22"/>
<polygon fill="#63b8ff" stroke="#63b8ff" points="699.04,-200.19 696.31,-189.95 692.06,-199.66 699.04,-200.19"/>
</a>
</g>
</g>
<!-- Node24&#45;&gt;Node12 -->
<g id="edge43_Node000024_Node000012" class="edge">
<title>Node24&#45;&gt;Node12</title>
<g id="a_edge43_Node000024_Node000012"><a xlink:title=" ">
<path fill="none" stroke="#63b8ff" d="M202.39,-358.59C129.85,-352.85 0,-330.19 0,-241.5 0,-241.5 0,-241.5 0,-118.5 0,-77.39 38.79,-43.26 64.86,-24.97"/>
<polygon fill="#63b8ff" stroke="#63b8ff" points="67.13,-27.66 73.47,-19.17 63.22,-21.85 67.13,-27.66"/>
</a>
</g>
</g>
<!-- Node24&#45;&gt;Node17 -->
<g id="edge42_Node000024_Node000017" class="edge">
<title>Node24&#45;&gt;Node17</title>
<g id="a_edge42_Node000024_Node000017"><a xlink:title=" ">
<path fill="none" stroke="#63b8ff" d="M241.22,-351.97C217.76,-328.77 152.87,-261.76 115,-195 104.84,-177.09 97.33,-154.66 92.85,-139.11"/>
<polygon fill="#63b8ff" stroke="#63b8ff" points="96.14,-137.89 90.12,-129.17 89.39,-139.74 96.14,-137.89"/>
</a>
</g>
</g>
<!-- Node25 -->
<g id="Node000025" class="node">
<title>Node25</title>
<g id="a_Node000025"><a xlink:href="bits_2approximations_2Operators_8hpp.html" target="_top" xlink:title="Implementations of differential operator families.">
<polygon fill="white" stroke="#666666" points="1103,-316 947,-316 947,-286 1103,-286 1103,-316"/>
<text text-anchor="start" x="955" y="-304" font-family="Helvetica,sans-Serif" font-size="10.00">medusa/bits/approximations</text>
<text text-anchor="middle" x="1025" y="-293" font-family="Helvetica,sans-Serif" font-size="10.00">/Operators.hpp</text>
</a>
</g>
</g>
<!-- Node24&#45;&gt;Node25 -->
<g id="edge44_Node000024_Node000025" class="edge">
<title>Node24&#45;&gt;Node25</title>
<g id="a_edge44_Node000024_Node000025"><a xlink:title=" ">
<path fill="none" stroke="#63b8ff" d="M297.6,-356.91C424.54,-347.33 772.57,-321.05 936.89,-308.65"/>
<polygon fill="#63b8ff" stroke="#63b8ff" points="937.26,-312.13 946.97,-307.89 936.73,-305.15 937.26,-312.13"/>
</a>
</g>
</g>
<!-- Node25&#45;&gt;Node19 -->
<g id="edge45_Node000025_Node000019" class="edge">
<title>Node25&#45;&gt;Node19</title>
<g id="a_edge45_Node000025_Node000019"><a xlink:title=" ">
<path fill="none" stroke="#63b8ff" d="M1016.7,-285.88C1004.8,-265.66 982.78,-228.23 968.52,-203.99"/>
<polygon fill="#63b8ff" stroke="#63b8ff" points="971.38,-201.94 963.29,-195.1 965.35,-205.49 971.38,-201.94"/>
</a>
</g>
</g>
<!-- Node25&#45;&gt;Node21 -->
<g id="edge46_Node000025_Node000021" class="edge">
<title>Node25&#45;&gt;Node21</title>
<g id="a_edge46_Node000025_Node000021"><a xlink:title=" ">
<path fill="none" stroke="#63b8ff" d="M1027.82,-285.91C1034.26,-253.85 1049.99,-175.38 1057.24,-139.26"/>
<polygon fill="#63b8ff" stroke="#63b8ff" points="1060.73,-139.63 1059.27,-129.13 1053.87,-138.25 1060.73,-139.63"/>
</a>
</g>
</g>
<!-- Node26 -->
<g id="Node000026" class="node">
<title>Node26</title>
<g id="a_Node000026"><a xlink:href="RBFBasis__fwd_8hpp.html" target="_top" xlink:title="Declaration of RBF basis.">
<polygon fill="white" stroke="#666666" points="1195,-250 1089,-250 1089,-231 1195,-231 1195,-250"/>
<text text-anchor="middle" x="1142" y="-238" font-family="Helvetica,sans-Serif" font-size="10.00">RBFBasis_fwd.hpp</text>
</a>
</g>
</g>
<!-- Node25&#45;&gt;Node26 -->
<g id="edge47_Node000025_Node000026" class="edge">
<title>Node25&#45;&gt;Node26</title>
<g id="a_edge47_Node000025_Node000026"><a xlink:title=" ">
<path fill="none" stroke="#63b8ff" d="M1053.02,-285.99C1072.02,-276.49 1096.97,-264.02 1115.61,-254.69"/>
<polygon fill="#63b8ff" stroke="#63b8ff" points="1117.34,-257.74 1124.72,-250.14 1114.21,-251.48 1117.34,-257.74"/>
</a>
</g>
</g>
<!-- Node26&#45;&gt;Node3 -->
<g id="edge48_Node000026_Node000003" class="edge">
<title>Node26&#45;&gt;Node3</title>
<g id="a_edge48_Node000026_Node000003"><a xlink:title=" ">
<path fill="none" stroke="#63b8ff" d="M1088.83,-234.97C1020.24,-228.43 905.31,-214.91 868,-195 841.7,-180.97 785.88,-113.98 760.31,-82.24"/>
<polygon fill="#63b8ff" stroke="#63b8ff" points="762.93,-79.92 753.94,-74.3 757.47,-84.29 762.93,-79.92"/>
</a>
</g>
</g>
<!-- Node26&#45;&gt;Node10 -->
<g id="edge50_Node000026_Node000010" class="edge">
<title>Node26&#45;&gt;Node10</title>
<g id="a_edge50_Node000026_Node000010"><a xlink:title=" ">
<path fill="none" stroke="#63b8ff" d="M1195.11,-232.23C1217.81,-226.2 1242.22,-215.17 1256,-195 1261.6,-186.8 1261.12,-126.56 1254,-110 1236.92,-70.31 1194.78,-40.39 1167.07,-24.17"/>
<polygon fill="#63b8ff" stroke="#63b8ff" points="1168.7,-21.07 1158.28,-19.2 1165.26,-27.17 1168.7,-21.07"/>
</a>
</g>
</g>
<!-- Node26&#45;&gt;Node15 -->
<g id="edge49_Node000026_Node000015" class="edge">
<title>Node26&#45;&gt;Node15</title>
<g id="a_edge49_Node000026_Node000015"><a xlink:title=" ">
<path fill="none" stroke="#63b8ff" d="M1182.62,-230.99C1202.32,-224.59 1224.22,-213.61 1236,-195 1256.21,-163.08 1255.56,-142.32 1236,-110 1224.89,-91.64 1203.43,-80.49 1184.86,-73.94"/>
<polygon fill="#63b8ff" stroke="#63b8ff" points="1185.79,-70.56 1175.2,-70.84 1183.65,-77.23 1185.79,-70.56"/>
</a>
</g>
</g>
<!-- Node26&#45;&gt;Node19 -->
<g id="edge51_Node000026_Node000019" class="edge">
<title>Node26&#45;&gt;Node19</title>
<g id="a_edge51_Node000026_Node000019"><a xlink:title=" ">
<path fill="none" stroke="#63b8ff" d="M1114.81,-230.99C1087.43,-222.43 1044.41,-208.97 1009.9,-198.18"/>
<polygon fill="#63b8ff" stroke="#63b8ff" points="1010.55,-194.71 999.96,-195.06 1008.46,-201.39 1010.55,-194.71"/>
</a>
</g>
</g>
<!-- Node27&#45;&gt;Node3 -->
<g id="edge55_Node000027_Node000003" class="edge">
<title>Node27&#45;&gt;Node3</title>
<g id="a_edge55_Node000027_Node000003"><a xlink:title=" ">
<path fill="none" stroke="#63b8ff" d="M718.13,-170.47C734.77,-162.48 756.82,-148.79 767,-129 774.66,-114.11 767.25,-95.75 759.37,-82.6"/>
<polygon fill="#63b8ff" stroke="#63b8ff" points="762.18,-80.5 753.76,-74.08 756.33,-84.35 762.18,-80.5"/>
</a>
</g>
</g>
<!-- Node27&#45;&gt;Node6 -->
<g id="edge56_Node000027_Node000006" class="edge">
<title>Node27&#45;&gt;Node6</title>
<g id="a_edge56_Node000027_Node000006"><a xlink:title=" ">
<path fill="none" stroke="#63b8ff" d="M683.28,-170.37C668.3,-160.95 644.11,-145.73 626.38,-134.58"/>
<polygon fill="#63b8ff" stroke="#63b8ff" points="628.11,-131.53 617.78,-129.17 624.38,-137.45 628.11,-131.53"/>
</a>
</g>
</g>
<!-- Node27&#45;&gt;Node14 -->
<g id="edge54_Node000027_Node000014" class="edge">
<title>Node27&#45;&gt;Node14</title>
<g id="a_edge54_Node000027_Node000014"><a xlink:title=" ">
<path fill="none" stroke="#63b8ff" d="M701.72,-170.37C706.35,-161.9 713.55,-148.74 719.39,-138.07"/>
<polygon fill="#63b8ff" stroke="#63b8ff" points="722.53,-139.62 724.26,-129.17 716.39,-136.26 722.53,-139.62"/>
</a>
</g>
</g>
</g>
</svg>

<g id="navigator" transform="translate(0 0)" fill="#404254">
  <rect fill="#f2f5e9" fill-opacity="0.5" stroke="#606060" stroke-width=".5" x="0" y="0" width="60" height="60"/>
  <use id="zoomplus" xlink:href="#zoomPlus" x="17" y="9" onmousedown="handleZoom(evt,'in')"/>
  <use id="zoomminus" xlink:href="#zoomMin" x="42" y="9" onmousedown="handleZoom(evt,'out')"/>
  <use id="reset" xlink:href="#resetDef" x="30" y="36" onmousedown="handleReset()"/>
   <use id="arrowup" xlink:href="#arrowUp" x="0" y="0" onmousedown="handlePan(0,-1)"/>
  <use id="arrowright" xlink:href="#arrowRight" x="0" y="0" onmousedown="handlePan(1,0)"/>
  <use id="arrowdown" xlink:href="#arrowDown" x="0" y="0" onmousedown="handlePan(0,1)"/>
  <use id="arrowleft" xlink:href="#arrowLeft" x="0" y="0" onmousedown="handlePan(-1,0)"/>
</g>
<svg viewBox="0 0 15 15" width="100%" height="30px" preserveAspectRatio="xMaxYMin meet">
 <g id="arrow_out" transform="scale(0.3 0.3)">
  <a xlink:href="ShapeStorage_8hpp__incl_org.svg" target="_base">
   <rect id="button" ry="5" rx="5" y="6" x="6" height="38" width="38"
        fill="#f2f5e9" fill-opacity="0.5" stroke="#606060" stroke-width="1.0"/>
   <path id="arrow"
     d="M 11.500037,31.436501 C 11.940474,20.09759 22.043105,11.32322 32.158766,21.979434 L 37.068811,17.246167 C 37.068811,17.246167 37.088388,32 37.088388,32 L 22.160133,31.978069 C 22.160133,31.978069 26.997745,27.140456 26.997745,27.140456 C 18.528582,18.264221 13.291696,25.230495 11.500037,31.436501 z"
     style="fill:#404040;"/>
  </a>
 </g>
</svg>

<style type='text/css'>
<![CDATA[
[data-mouse-over-selected='false'] { opacity: 0.7; }
[data-mouse-over-selected='true']  { opacity: 1.0; }
]]>
</style>
<script type="application/ecmascript"><![CDATA[
document.addEventListener('DOMContentLoaded', (event) => {
  highlightEdges();
  highlightAdjacentNodes();
});
]]></script>
</svg>
