<?xml version="1.0" encoding="UTF-8" standalone="no"?>
<!DOCTYPE svg PUBLIC "-//W3C//DTD SVG 1.1//EN"
 "http://www.w3.org/Graphics/SVG/1.1/DTD/svg11.dtd">
<!-- Generated by graphviz version 2.43.0 (0)
 -->
<!-- Title: include/medusa/bits/operators/ShapeStorage.hpp Pages: 1 -->
<svg width="514pt" height="291pt"
 viewBox="0.00 0.00 513.50 291.00" xmlns="http://www.w3.org/2000/svg" xmlns:xlink="http://www.w3.org/1999/xlink">
<g id="graph0" class="graph" transform="scale(1 1) rotate(0) translate(4 287)">
<title>include/medusa/bits/operators/ShapeStorage.hpp</title>
<!-- Node1 -->
<g id="Node000001" class="node">
<title>Node1</title>
<g id="a_Node000001"><a xlink:title="Implementations of the ShapeStorage interface.">
<polygon fill="#999999" stroke="#666666" points="331,-283 173,-283 173,-253 331,-253 331,-283"/>
<text text-anchor="start" x="181" y="-271" font-family="Helvetica,sans-Serif" font-size="10.00">include/medusa/bits</text>
<text text-anchor="middle" x="252" y="-260" font-family="Helvetica,sans-Serif" font-size="10.00">/operators/ShapeStorage.hpp</text>
</a>
</g>
</g>
<!-- Node2 -->
<g id="Node000002" class="node">
<title>Node2</title>
<g id="a_Node000002"><a xlink:href="RaggedShapeStorage_8hpp.html" target="_top" xlink:title="Implementation of shape storage for shapes of different sizes.">
<polygon fill="white" stroke="#666666" points="242,-217 48,-217 48,-187 242,-187 242,-217"/>
<text text-anchor="start" x="56" y="-205" font-family="Helvetica,sans-Serif" font-size="10.00">include/medusa/bits</text>
<text text-anchor="middle" x="145" y="-194" font-family="Helvetica,sans-Serif" font-size="10.00">/operators/RaggedShapeStorage.hpp</text>
</a>
</g>
</g>
<!-- Node1&#45;&gt;Node2 -->
<g id="edge1_Node000001_Node000002" class="edge">
<title>Node1&#45;&gt;Node2</title>
<g id="a_edge1_Node000001_Node000002"><a xlink:title=" ">
<path fill="none" stroke="#63b8ff" d="M219.72,-247.69C203.21,-237.82 183.47,-226.01 168.43,-217.01"/>
<polygon fill="#63b8ff" stroke="#63b8ff" points="218.14,-250.83 228.52,-252.95 221.73,-244.82 218.14,-250.83"/>
</a>
</g>
</g>
<!-- Node7 -->
<g id="Node000007" class="node">
<title>Node7</title>
<g id="a_Node000007"><a xlink:href="UniformShapeStorage_8hpp.html" target="_top" xlink:title="Implementation of shape storage for uniformly long shapes.">
<polygon fill="white" stroke="#666666" points="457.5,-217 260.5,-217 260.5,-187 457.5,-187 457.5,-217"/>
<text text-anchor="start" x="268.5" y="-205" font-family="Helvetica,sans-Serif" font-size="10.00">include/medusa/bits</text>
<text text-anchor="middle" x="359" y="-194" font-family="Helvetica,sans-Serif" font-size="10.00">/operators/UniformShapeStorage.hpp</text>
</a>
</g>
</g>
<!-- Node1&#45;&gt;Node7 -->
<g id="edge7_Node000001_Node000007" class="edge">
<title>Node1&#45;&gt;Node7</title>
<g id="a_edge7_Node000001_Node000007"><a xlink:title=" ">
<path fill="none" stroke="#63b8ff" d="M284.28,-247.69C300.79,-237.82 320.53,-226.01 335.57,-217.01"/>
<polygon fill="#63b8ff" stroke="#63b8ff" points="282.27,-244.82 275.48,-252.95 285.86,-250.83 282.27,-244.82"/>
</a>
</g>
</g>
<!-- Node3 -->
<g id="Node000003" class="node">
<title>Node3</title>
<g id="a_Node000003"><a xlink:href="Operators_8hpp.html" target="_top" xlink:title="Header for Operators module.">
<polygon fill="white" stroke="#666666" points="334,-145.5 168,-145.5 168,-126.5 334,-126.5 334,-145.5"/>
<text text-anchor="middle" x="251" y="-133.5" font-family="Helvetica,sans-Serif" font-size="10.00">include/medusa/Operators.hpp</text>
</a>
</g>
</g>
<!-- Node2&#45;&gt;Node3 -->
<g id="edge2_Node000002_Node000003" class="edge">
<title>Node2&#45;&gt;Node3</title>
<g id="a_edge2_Node000002_Node000003"><a xlink:title=" ">
<path fill="none" stroke="#63b8ff" d="M177.05,-181.65C197.01,-169.6 221.7,-154.69 236.89,-145.52"/>
<polygon fill="#63b8ff" stroke="#63b8ff" points="175.01,-178.79 168.26,-186.95 178.63,-184.78 175.01,-178.79"/>
</a>
</g>
</g>
<!-- Node6 -->
<g id="Node000006" class="node">
<title>Node6</title>
<g id="a_Node000006"><a xlink:href="RaggedShapeStorage_8cpp.html" target="_top" xlink:title="Instantiations of shape storage for shapes of different sizes.">
<polygon fill="white" stroke="#666666" points="150,-151 0,-151 0,-121 150,-121 150,-151"/>
<text text-anchor="start" x="8" y="-139" font-family="Helvetica,sans-Serif" font-size="10.00">src/operators/RaggedShape</text>
<text text-anchor="middle" x="75" y="-128" font-family="Helvetica,sans-Serif" font-size="10.00">Storage.cpp</text>
</a>
</g>
</g>
<!-- Node2&#45;&gt;Node6 -->
<g id="edge6_Node000002_Node000006" class="edge">
<title>Node2&#45;&gt;Node6</title>
<g id="a_edge6_Node000002_Node000006"><a xlink:title=" ">
<path fill="none" stroke="#63b8ff" d="M121.95,-179.92C111.63,-170.49 99.73,-159.61 90.49,-151.16"/>
<polygon fill="#63b8ff" stroke="#63b8ff" points="119.72,-182.63 129.46,-186.8 124.45,-177.47 119.72,-182.63"/>
</a>
</g>
</g>
<!-- Node4 -->
<g id="Node000004" class="node">
<title>Node4</title>
<g id="a_Node000004"><a xlink:href="Medusa_8hpp.html" target="_top" xlink:title="Main header file that includes most other components.">
<polygon fill="white" stroke="#666666" points="329,-19 173,-19 173,0 329,0 329,-19"/>
<text text-anchor="middle" x="251" y="-7" font-family="Helvetica,sans-Serif" font-size="10.00">include/medusa/Medusa.hpp</text>
</a>
</g>
</g>
<!-- Node3&#45;&gt;Node4 -->
<g id="edge3_Node000003_Node000004" class="edge">
<title>Node3&#45;&gt;Node4</title>
<g id="a_edge3_Node000003_Node000004"><a xlink:title=" ">
<path fill="none" stroke="#63b8ff" d="M238.25,-118.19C232.03,-108.93 225.21,-96.92 222,-85 218.54,-72.12 218.2,-67.78 222,-55 226.1,-41.21 235.97,-27.7 243.06,-19.25"/>
<polygon fill="#63b8ff" stroke="#63b8ff" points="235.46,-120.31 244.11,-126.43 241.16,-116.25 235.46,-120.31"/>
</a>
</g>
</g>
<!-- Node5 -->
<g id="Node000005" class="node">
<title>Node5</title>
<g id="a_Node000005"><a xlink:href="Medusa__fwd_8hpp.html" target="_top" xlink:title="Main header file that includes only declarations for some heavy classes such as mm::WLS to reduce com...">
<polygon fill="white" stroke="#666666" points="366.5,-85 231.5,-85 231.5,-55 366.5,-55 366.5,-85"/>
<text text-anchor="start" x="239.5" y="-73" font-family="Helvetica,sans-Serif" font-size="10.00">include/medusa/Medusa</text>
<text text-anchor="middle" x="299" y="-62" font-family="Helvetica,sans-Serif" font-size="10.00">_fwd.hpp</text>
</a>
</g>
</g>
<!-- Node3&#45;&gt;Node5 -->
<g id="edge4_Node000003_Node000005" class="edge">
<title>Node3&#45;&gt;Node5</title>
<g id="a_edge4_Node000003_Node000005"><a xlink:title=" ">
<path fill="none" stroke="#63b8ff" d="M263.57,-118.24C271.23,-108.02 280.92,-95.1 288.23,-85.36"/>
<polygon fill="#63b8ff" stroke="#63b8ff" points="260.67,-116.27 257.47,-126.37 266.27,-120.47 260.67,-116.27"/>
</a>
</g>
</g>
<!-- Node5&#45;&gt;Node4 -->
<g id="edge5_Node000005_Node000004" class="edge">
<title>Node5&#45;&gt;Node4</title>
<g id="a_edge5_Node000005_Node000004"><a xlink:title=" ">
<path fill="none" stroke="#63b8ff" d="M281.02,-47.09C273.09,-37.42 264.22,-26.61 258.19,-19.27"/>
<polygon fill="#63b8ff" stroke="#63b8ff" points="278.33,-49.33 287.38,-54.84 283.74,-44.89 278.33,-49.33"/>
</a>
</g>
</g>
<!-- Node7&#45;&gt;Node3 -->
<g id="edge8_Node000007_Node000003" class="edge">
<title>Node7&#45;&gt;Node3</title>
<g id="a_edge8_Node000007_Node000003"><a xlink:title=" ">
<path fill="none" stroke="#63b8ff" d="M326.62,-181.81C306.23,-169.73 280.93,-154.73 265.37,-145.52"/>
<polygon fill="#63b8ff" stroke="#63b8ff" points="324.91,-184.87 335.3,-186.95 328.48,-178.85 324.91,-184.87"/>
</a>
</g>
</g>
<!-- Node8 -->
<g id="Node000008" class="node">
<title>Node8</title>
<g id="a_Node000008"><a xlink:href="UniformShapeStorage_8cpp.html" target="_top" xlink:title="Instantiations of shape storage for uniform shapes.">
<polygon fill="white" stroke="#666666" points="505.5,-151 352.5,-151 352.5,-121 505.5,-121 505.5,-151"/>
<text text-anchor="start" x="360.5" y="-139" font-family="Helvetica,sans-Serif" font-size="10.00">src/operators/UniformShape</text>
<text text-anchor="middle" x="429" y="-128" font-family="Helvetica,sans-Serif" font-size="10.00">Storage.cpp</text>
</a>
</g>
</g>
<!-- Node7&#45;&gt;Node8 -->
<g id="edge9_Node000007_Node000008" class="edge">
<title>Node7&#45;&gt;Node8</title>
<g id="a_edge9_Node000007_Node000008"><a xlink:title=" ">
<path fill="none" stroke="#63b8ff" d="M382.05,-179.92C392.37,-170.49 404.27,-159.61 413.51,-151.16"/>
<polygon fill="#63b8ff" stroke="#63b8ff" points="379.55,-177.47 374.54,-186.8 384.28,-182.63 379.55,-177.47"/>
</a>
</g>
</g>
</g>
</svg>
