<?xml version="1.0" encoding="UTF-8" standalone="no"?>
<!DOCTYPE svg PUBLIC "-//W3C//DTD SVG 1.1//EN"
 "http://www.w3.org/Graphics/SVG/1.1/DTD/svg11.dtd">
<!-- Generated by graphviz version 2.43.0 (0)
 -->
<!-- Title: include/medusa/bits/operators/ShapeStorage_fwd.hpp Pages: 1 -->
<svg width="1294pt" height="445pt"
 viewBox="0.00 0.00 1294.00 445.00" xmlns="http://www.w3.org/2000/svg" xmlns:xlink="http://www.w3.org/1999/xlink">
<g id="graph0" class="graph" transform="scale(1 1) rotate(0) translate(4 441)">
<title>include/medusa/bits/operators/ShapeStorage_fwd.hpp</title>
<!-- Node1 -->
<g id="Node000001" class="node">
<title>Node1</title>
<g id="a_Node000001"><a xlink:title="Base class and interface for storing and accessing computed shapes.">
<polygon fill="#999999" stroke="#666666" points="605.5,-437 468.5,-437 468.5,-396 605.5,-396 605.5,-437"/>
<text text-anchor="start" x="476.5" y="-425" font-family="Helvetica,sans-Serif" font-size="10.00">include/medusa/bits</text>
<text text-anchor="start" x="476.5" y="-414" font-family="Helvetica,sans-Serif" font-size="10.00">/operators/ShapeStorage</text>
<text text-anchor="middle" x="537" y="-403" font-family="Helvetica,sans-Serif" font-size="10.00">_fwd.hpp</text>
</a>
</g>
</g>
<!-- Node2 -->
<g id="Node000002" class="node">
<title>Node2</title>
<g id="a_Node000002"><a xlink:href="ExplicitOperators_8hpp.html" target="_top" xlink:title="Explicit operators implementation.">
<polygon fill="white" stroke="#666666" points="181,-206 7,-206 7,-176 181,-176 181,-206"/>
<text text-anchor="start" x="15" y="-194" font-family="Helvetica,sans-Serif" font-size="10.00">include/medusa/bits</text>
<text text-anchor="middle" x="94" y="-183" font-family="Helvetica,sans-Serif" font-size="10.00">/operators/ExplicitOperators.hpp</text>
</a>
</g>
</g>
<!-- Node1&#45;&gt;Node2 -->
<g id="edge1_Node000001_Node000002" class="edge">
<title>Node1&#45;&gt;Node2</title>
<g id="a_edge1_Node000001_Node000002"><a xlink:title=" ">
<path fill="none" stroke="#63b8ff" d="M458.29,-412.59C321.78,-406.73 52.85,-391.31 24,-360 -11.54,-321.43 -2.31,-288.48 22,-242 30.32,-226.09 46.27,-214.22 61.05,-206.05"/>
<polygon fill="#63b8ff" stroke="#63b8ff" points="458.15,-416.08 468.28,-413.01 458.44,-409.09 458.15,-416.08"/>
</a>
</g>
</g>
<!-- Node7 -->
<g id="Node000007" class="node">
<title>Node7</title>
<g id="a_Node000007"><a xlink:href="ExplicitVectorOperators_8hpp.html" target="_top" xlink:title="Explicit vector operators implementation.">
<polygon fill="white" stroke="#666666" points="238.5,-354.5 33.5,-354.5 33.5,-324.5 238.5,-324.5 238.5,-354.5"/>
<text text-anchor="start" x="41.5" y="-342.5" font-family="Helvetica,sans-Serif" font-size="10.00">include/medusa/bits</text>
<text text-anchor="middle" x="136" y="-331.5" font-family="Helvetica,sans-Serif" font-size="10.00">/operators/ExplicitVectorOperators.hpp</text>
</a>
</g>
</g>
<!-- Node1&#45;&gt;Node7 -->
<g id="edge7_Node000001_Node000007" class="edge">
<title>Node1&#45;&gt;Node7</title>
<g id="a_edge7_Node000001_Node000007"><a xlink:title=" ">
<path fill="none" stroke="#63b8ff" d="M458.19,-400.76C386.57,-387.37 281.64,-367.74 211.18,-354.56"/>
<polygon fill="#63b8ff" stroke="#63b8ff" points="457.59,-404.21 468.07,-402.61 458.88,-397.33 457.59,-404.21"/>
</a>
</g>
</g>
<!-- Node9 -->
<g id="Node000009" class="node">
<title>Node9</title>
<g id="a_Node000009"><a xlink:href="ImplicitOperators_8hpp.html" target="_top" xlink:title="Implementations of implicit operators.">
<polygon fill="white" stroke="#666666" points="1024.5,-354.5 849.5,-354.5 849.5,-324.5 1024.5,-324.5 1024.5,-354.5"/>
<text text-anchor="start" x="857.5" y="-342.5" font-family="Helvetica,sans-Serif" font-size="10.00">include/medusa/bits</text>
<text text-anchor="middle" x="937" y="-331.5" font-family="Helvetica,sans-Serif" font-size="10.00">/operators/ImplicitOperators.hpp</text>
</a>
</g>
</g>
<!-- Node1&#45;&gt;Node9 -->
<g id="edge10_Node000001_Node000009" class="edge">
<title>Node1&#45;&gt;Node9</title>
<g id="a_edge10_Node000001_Node000009"><a xlink:title=" ">
<path fill="none" stroke="#63b8ff" d="M615.61,-400.76C687.05,-387.37 791.72,-367.74 862,-354.56"/>
<polygon fill="#63b8ff" stroke="#63b8ff" points="614.95,-397.32 605.76,-402.61 616.24,-404.2 614.95,-397.32"/>
</a>
</g>
</g>
<!-- Node10 -->
<g id="Node000010" class="node">
<title>Node10</title>
<g id="a_Node000010"><a xlink:href="ImplicitVectorOperators_8hpp.html" target="_top" xlink:title="Implementations of implicit vector operators.">
<polygon fill="white" stroke="#666666" points="1286,-277.5 1080,-277.5 1080,-247.5 1286,-247.5 1286,-277.5"/>
<text text-anchor="start" x="1088" y="-265.5" font-family="Helvetica,sans-Serif" font-size="10.00">include/medusa/bits</text>
<text text-anchor="middle" x="1183" y="-254.5" font-family="Helvetica,sans-Serif" font-size="10.00">/operators/ImplicitVectorOperators.hpp</text>
</a>
</g>
</g>
<!-- Node1&#45;&gt;Node10 -->
<g id="edge16_Node000001_Node000010" class="edge">
<title>Node1&#45;&gt;Node10</title>
<g id="a_edge16_Node000001_Node000010"><a xlink:title=" ">
<path fill="none" stroke="#63b8ff" d="M616.14,-411.1C736.38,-403.67 959.02,-386.77 1034,-360 1087.41,-340.93 1141.01,-299.42 1166.94,-277.58"/>
<polygon fill="#63b8ff" stroke="#63b8ff" points="615.67,-407.62 605.9,-411.73 616.09,-414.61 615.67,-407.62"/>
</a>
</g>
</g>
<!-- Node13 -->
<g id="Node000013" class="node">
<title>Node13</title>
<g id="a_Node000013"><a xlink:href="RaggedShapeStorage__fwd_8hpp.html" target="_top" xlink:title="Declaration of shape storage for shapes of different sizes.">
<polygon fill="white" stroke="#666666" points="623.5,-360 450.5,-360 450.5,-319 623.5,-319 623.5,-360"/>
<text text-anchor="start" x="458.5" y="-348" font-family="Helvetica,sans-Serif" font-size="10.00">include/medusa/bits</text>
<text text-anchor="start" x="458.5" y="-337" font-family="Helvetica,sans-Serif" font-size="10.00">/operators/RaggedShapeStorage</text>
<text text-anchor="middle" x="537" y="-326" font-family="Helvetica,sans-Serif" font-size="10.00">_fwd.hpp</text>
</a>
</g>
</g>
<!-- Node1&#45;&gt;Node13 -->
<g id="edge17_Node000001_Node000013" class="edge">
<title>Node1&#45;&gt;Node13</title>
<g id="a_edge17_Node000001_Node000013"><a xlink:title=" ">
<path fill="none" stroke="#63b8ff" d="M537,-385.69C537,-377.08 537,-367.9 537,-360.07"/>
<polygon fill="#63b8ff" stroke="#63b8ff" points="533.5,-385.79 537,-395.79 540.5,-385.79 533.5,-385.79"/>
</a>
</g>
</g>
<!-- Node17 -->
<g id="Node000017" class="node">
<title>Node17</title>
<g id="a_Node000017"><a xlink:href="ShapeStorage_8hpp.html" target="_top" xlink:title="Implementations of the ShapeStorage interface.">
<polygon fill="white" stroke="#666666" points="800,-354.5 642,-354.5 642,-324.5 800,-324.5 800,-354.5"/>
<text text-anchor="start" x="650" y="-342.5" font-family="Helvetica,sans-Serif" font-size="10.00">include/medusa/bits</text>
<text text-anchor="middle" x="721" y="-331.5" font-family="Helvetica,sans-Serif" font-size="10.00">/operators/ShapeStorage.hpp</text>
</a>
</g>
</g>
<!-- Node1&#45;&gt;Node17 -->
<g id="edge23_Node000001_Node000017" class="edge">
<title>Node1&#45;&gt;Node17</title>
<g id="a_edge23_Node000001_Node000017"><a xlink:title=" ">
<path fill="none" stroke="#63b8ff" d="M594.44,-392.09C624.61,-379.79 660.58,-365.13 686.45,-354.58"/>
<polygon fill="#63b8ff" stroke="#63b8ff" points="592.8,-388.97 584.86,-395.99 595.44,-395.46 592.8,-388.97"/>
</a>
</g>
</g>
<!-- Node20 -->
<g id="Node000020" class="node">
<title>Node20</title>
<g id="a_Node000020"><a xlink:href="UniformShapeStorage__fwd_8hpp.html" target="_top" xlink:title="Declaration of shape storage for uniformly long shapes.">
<polygon fill="white" stroke="#666666" points="432,-360 256,-360 256,-319 432,-319 432,-360"/>
<text text-anchor="start" x="264" y="-348" font-family="Helvetica,sans-Serif" font-size="10.00">include/medusa/bits</text>
<text text-anchor="start" x="264" y="-337" font-family="Helvetica,sans-Serif" font-size="10.00">/operators/UniformShapeStorage</text>
<text text-anchor="middle" x="344" y="-326" font-family="Helvetica,sans-Serif" font-size="10.00">_fwd.hpp</text>
</a>
</g>
</g>
<!-- Node1&#45;&gt;Node20 -->
<g id="edge28_Node000001_Node000020" class="edge">
<title>Node1&#45;&gt;Node20</title>
<g id="a_edge28_Node000001_Node000020"><a xlink:title=" ">
<path fill="none" stroke="#63b8ff" d="M477.22,-392.27C450.63,-381.94 419.67,-369.9 394.29,-360.04"/>
<polygon fill="#63b8ff" stroke="#63b8ff" points="476.21,-395.63 486.8,-395.99 478.74,-389.11 476.21,-395.63"/>
</a>
</g>
</g>
<!-- Node3 -->
<g id="Node000003" class="node">
<title>Node3</title>
<g id="a_Node000003"><a xlink:href="Operators_8hpp.html" target="_top" xlink:title="Header for Operators module.">
<polygon fill="white" stroke="#666666" points="744,-140 578,-140 578,-121 744,-121 744,-140"/>
<text text-anchor="middle" x="661" y="-128" font-family="Helvetica,sans-Serif" font-size="10.00">include/medusa/Operators.hpp</text>
</a>
</g>
</g>
<!-- Node2&#45;&gt;Node3 -->
<g id="edge2_Node000002_Node000003" class="edge">
<title>Node2&#45;&gt;Node3</title>
<g id="a_edge2_Node000002_Node000003"><a xlink:title=" ">
<path fill="none" stroke="#63b8ff" d="M191.12,-176.46C192.42,-176.3 193.71,-176.15 195,-176 328.79,-160.35 484.68,-146.31 577.97,-138.36"/>
<polygon fill="#63b8ff" stroke="#63b8ff" points="190.52,-173.01 181.02,-177.7 191.37,-179.95 190.52,-173.01"/>
</a>
</g>
</g>
<!-- Node6 -->
<g id="Node000006" class="node">
<title>Node6</title>
<g id="a_Node000006"><a xlink:href="ExplicitOperators_8cpp.html" target="_top" xlink:title="Explicit operators implementation.">
<polygon fill="white" stroke="#666666" points="188,-140 0,-140 0,-121 188,-121 188,-140"/>
<text text-anchor="middle" x="94" y="-128" font-family="Helvetica,sans-Serif" font-size="10.00">src/operators/ExplicitOperators.cpp</text>
</a>
</g>
</g>
<!-- Node2&#45;&gt;Node6 -->
<g id="edge6_Node000002_Node000006" class="edge">
<title>Node2&#45;&gt;Node6</title>
<g id="a_edge6_Node000002_Node000006"><a xlink:title=" ">
<path fill="none" stroke="#63b8ff" d="M94,-165.75C94,-156.72 94,-147.03 94,-140.27"/>
<polygon fill="#63b8ff" stroke="#63b8ff" points="90.5,-165.84 94,-175.84 97.5,-165.84 90.5,-165.84"/>
</a>
</g>
</g>
<!-- Node4 -->
<g id="Node000004" class="node">
<title>Node4</title>
<g id="a_Node000004"><a xlink:href="Medusa_8hpp.html" target="_top" xlink:title="Main header file that includes most other components.">
<polygon fill="white" stroke="#666666" points="739,-19 583,-19 583,0 739,0 739,-19"/>
<text text-anchor="middle" x="661" y="-7" font-family="Helvetica,sans-Serif" font-size="10.00">include/medusa/Medusa.hpp</text>
</a>
</g>
</g>
<!-- Node3&#45;&gt;Node4 -->
<g id="edge3_Node000003_Node000004" class="edge">
<title>Node3&#45;&gt;Node4</title>
<g id="a_edge3_Node000003_Node000004"><a xlink:title=" ">
<path fill="none" stroke="#63b8ff" d="M646.79,-112.78C641,-104.89 634.98,-95.02 632,-85 628.2,-72.22 628.2,-67.78 632,-55 636.1,-41.21 645.97,-27.7 653.06,-19.25"/>
<polygon fill="#63b8ff" stroke="#63b8ff" points="644.13,-115.05 653.06,-120.75 649.63,-110.72 644.13,-115.05"/>
</a>
</g>
</g>
<!-- Node5 -->
<g id="Node000005" class="node">
<title>Node5</title>
<g id="a_Node000005"><a xlink:href="Medusa__fwd_8hpp.html" target="_top" xlink:title="Main header file that includes only declarations for some heavy classes such as mm::WLS to reduce com...">
<polygon fill="white" stroke="#666666" points="776.5,-85 641.5,-85 641.5,-55 776.5,-55 776.5,-85"/>
<text text-anchor="start" x="649.5" y="-73" font-family="Helvetica,sans-Serif" font-size="10.00">include/medusa/Medusa</text>
<text text-anchor="middle" x="709" y="-62" font-family="Helvetica,sans-Serif" font-size="10.00">_fwd.hpp</text>
</a>
</g>
</g>
<!-- Node3&#45;&gt;Node5 -->
<g id="edge4_Node000003_Node000005" class="edge">
<title>Node3&#45;&gt;Node5</title>
<g id="a_edge4_Node000003_Node000005"><a xlink:title=" ">
<path fill="none" stroke="#63b8ff" d="M674.64,-112.88C681.83,-104.11 690.56,-93.48 697.42,-85.11"/>
<polygon fill="#63b8ff" stroke="#63b8ff" points="671.72,-110.92 668.08,-120.87 677.13,-115.36 671.72,-110.92"/>
</a>
</g>
</g>
<!-- Node5&#45;&gt;Node4 -->
<g id="edge5_Node000005_Node000004" class="edge">
<title>Node5&#45;&gt;Node4</title>
<g id="a_edge5_Node000005_Node000004"><a xlink:title=" ">
<path fill="none" stroke="#63b8ff" d="M691.02,-47.09C683.09,-37.42 674.22,-26.61 668.19,-19.27"/>
<polygon fill="#63b8ff" stroke="#63b8ff" points="688.33,-49.33 697.38,-54.84 693.74,-44.89 688.33,-49.33"/>
</a>
</g>
</g>
<!-- Node7&#45;&gt;Node3 -->
<g id="edge8_Node000007_Node000003" class="edge">
<title>Node7&#45;&gt;Node3</title>
<g id="a_edge8_Node000007_Node000003"><a xlink:title=" ">
<path fill="none" stroke="#63b8ff" d="M157.06,-317.1C167.1,-306.84 179.23,-294.34 190,-283 207.11,-264.98 207.97,-256.7 228,-242 332.28,-165.44 484.42,-141.73 577.83,-134.51"/>
<polygon fill="#63b8ff" stroke="#63b8ff" points="154.36,-314.86 149.86,-324.45 159.36,-319.76 154.36,-314.86"/>
</a>
</g>
</g>
<!-- Node8 -->
<g id="Node000008" class="node">
<title>Node8</title>
<g id="a_Node000008"><a xlink:href="ExplicitVectorOperators_8cpp.html" target="_top" xlink:title="Explicit vector operators implementation.">
<polygon fill="white" stroke="#666666" points="181,-277.5 31,-277.5 31,-247.5 181,-247.5 181,-277.5"/>
<text text-anchor="start" x="39" y="-265.5" font-family="Helvetica,sans-Serif" font-size="10.00">src/operators/ExplicitVector</text>
<text text-anchor="middle" x="106" y="-254.5" font-family="Helvetica,sans-Serif" font-size="10.00">Operators.cpp</text>
</a>
</g>
</g>
<!-- Node7&#45;&gt;Node8 -->
<g id="edge9_Node000007_Node000008" class="edge">
<title>Node7&#45;&gt;Node8</title>
<g id="a_edge9_Node000007_Node000008"><a xlink:title=" ">
<path fill="none" stroke="#63b8ff" d="M126.51,-314.78C121.61,-302.53 115.8,-288 111.62,-277.54"/>
<polygon fill="#63b8ff" stroke="#63b8ff" points="123.39,-316.41 130.36,-324.39 129.89,-313.81 123.39,-316.41"/>
</a>
</g>
</g>
<!-- Node9&#45;&gt;Node3 -->
<g id="edge11_Node000009_Node000003" class="edge">
<title>Node9&#45;&gt;Node3</title>
<g id="a_edge11_Node000009_Node000003"><a xlink:title=" ">
<path fill="none" stroke="#63b8ff" d="M908.64,-318.35C895.01,-308.24 878.71,-295.51 865,-283 816.03,-238.28 815.66,-213.56 761,-176 737.82,-160.07 708.02,-147.69 687,-140.07"/>
<polygon fill="#63b8ff" stroke="#63b8ff" points="906.59,-321.19 916.73,-324.27 910.73,-315.54 906.59,-321.19"/>
</a>
</g>
</g>
<!-- Node9&#45;&gt;Node10 -->
<g id="edge12_Node000009_Node000010" class="edge">
<title>Node9&#45;&gt;Node10</title>
<g id="a_edge12_Node000009_Node000010"><a xlink:title=" ">
<path fill="none" stroke="#63b8ff" d="M992.56,-321.56C1036.08,-308.29 1095.91,-290.05 1136.83,-277.58"/>
<polygon fill="#63b8ff" stroke="#63b8ff" points="991.53,-318.22 982.98,-324.48 993.57,-324.91 991.53,-318.22"/>
</a>
</g>
</g>
<!-- Node12 -->
<g id="Node000012" class="node">
<title>Node12</title>
<g id="a_Node000012"><a xlink:href="ImplicitOperators_8cpp.html" target="_top" xlink:title="Instantiations of implicit operators.">
<polygon fill="white" stroke="#666666" points="1062,-272 874,-272 874,-253 1062,-253 1062,-272"/>
<text text-anchor="middle" x="968" y="-260" font-family="Helvetica,sans-Serif" font-size="10.00">src/operators/ImplicitOperators.cpp</text>
</a>
</g>
</g>
<!-- Node9&#45;&gt;Node12 -->
<g id="edge15_Node000009_Node000012" class="edge">
<title>Node9&#45;&gt;Node12</title>
<g id="a_edge15_Node000009_Node000012"><a xlink:title=" ">
<path fill="none" stroke="#63b8ff" d="M946.7,-315.02C952.69,-300.54 960.02,-282.81 964.33,-272.37"/>
<polygon fill="#63b8ff" stroke="#63b8ff" points="943.42,-313.81 942.83,-324.39 949.89,-316.49 943.42,-313.81"/>
</a>
</g>
</g>
<!-- Node10&#45;&gt;Node3 -->
<g id="edge13_Node000010_Node000003" class="edge">
<title>Node10&#45;&gt;Node3</title>
<g id="a_edge13_Node000010_Node000003"><a xlink:title=" ">
<path fill="none" stroke="#63b8ff" d="M1184.74,-237.47C1184.73,-217.88 1181.17,-191.06 1164,-176 1133.19,-148.97 879,-137.68 744.21,-133.56"/>
<polygon fill="#63b8ff" stroke="#63b8ff" points="1181.24,-237.4 1184.45,-247.5 1188.24,-237.6 1181.24,-237.4"/>
</a>
</g>
</g>
<!-- Node11 -->
<g id="Node000011" class="node">
<title>Node11</title>
<g id="a_Node000011"><a xlink:href="ImplicitVectorOperators_8cpp.html" target="_top" xlink:title="Instantiations of implicit vector operators.">
<polygon fill="white" stroke="#666666" points="1154.5,-206 1003.5,-206 1003.5,-176 1154.5,-176 1154.5,-206"/>
<text text-anchor="start" x="1011.5" y="-194" font-family="Helvetica,sans-Serif" font-size="10.00">src/operators/ImplicitVector</text>
<text text-anchor="middle" x="1079" y="-183" font-family="Helvetica,sans-Serif" font-size="10.00">Operators.cpp</text>
</a>
</g>
</g>
<!-- Node10&#45;&gt;Node11 -->
<g id="edge14_Node000010_Node000011" class="edge">
<title>Node10&#45;&gt;Node11</title>
<g id="a_edge14_Node000010_Node000011"><a xlink:title=" ">
<path fill="none" stroke="#63b8ff" d="M1153.45,-241.75C1136.41,-230.36 1115.37,-216.31 1100.01,-206.04"/>
<polygon fill="#63b8ff" stroke="#63b8ff" points="1151.69,-244.79 1161.95,-247.44 1155.58,-238.97 1151.69,-244.79"/>
</a>
</g>
</g>
<!-- Node14 -->
<g id="Node000014" class="node">
<title>Node14</title>
<g id="a_Node000014"><a xlink:href="ExplicitOperators__fwd_8hpp.html" target="_top" xlink:title="Explicit operators declarations.">
<polygon fill="white" stroke="#666666" points="390.5,-283 237.5,-283 237.5,-242 390.5,-242 390.5,-283"/>
<text text-anchor="start" x="245.5" y="-271" font-family="Helvetica,sans-Serif" font-size="10.00">include/medusa/bits</text>
<text text-anchor="start" x="245.5" y="-260" font-family="Helvetica,sans-Serif" font-size="10.00">/operators/ExplicitOperators</text>
<text text-anchor="middle" x="314" y="-249" font-family="Helvetica,sans-Serif" font-size="10.00">_fwd.hpp</text>
</a>
</g>
</g>
<!-- Node13&#45;&gt;Node14 -->
<g id="edge18_Node000013_Node000014" class="edge">
<title>Node13&#45;&gt;Node14</title>
<g id="a_edge18_Node000013_Node000014"><a xlink:title=" ">
<path fill="none" stroke="#63b8ff" d="M469.13,-315.67C438.14,-305.25 401.81,-293.03 372.11,-283.04"/>
<polygon fill="#63b8ff" stroke="#63b8ff" points="468.4,-319.12 478.99,-318.99 470.63,-312.49 468.4,-319.12"/>
</a>
</g>
</g>
<!-- Node15 -->
<g id="Node000015" class="node">
<title>Node15</title>
<g id="a_Node000015"><a xlink:href="RaggedShapeStorage_8hpp.html" target="_top" xlink:title="Implementation of shape storage for shapes of different sizes.">
<polygon fill="white" stroke="#666666" points="818,-277.5 624,-277.5 624,-247.5 818,-247.5 818,-277.5"/>
<text text-anchor="start" x="632" y="-265.5" font-family="Helvetica,sans-Serif" font-size="10.00">include/medusa/bits</text>
<text text-anchor="middle" x="721" y="-254.5" font-family="Helvetica,sans-Serif" font-size="10.00">/operators/RaggedShapeStorage.hpp</text>
</a>
</g>
</g>
<!-- Node13&#45;&gt;Node15 -->
<g id="edge20_Node000013_Node000015" class="edge">
<title>Node13&#45;&gt;Node15</title>
<g id="a_edge20_Node000013_Node000015"><a xlink:title=" ">
<path fill="none" stroke="#63b8ff" d="M594.44,-315.09C624.61,-302.79 660.58,-288.13 686.45,-277.58"/>
<polygon fill="#63b8ff" stroke="#63b8ff" points="592.8,-311.97 584.86,-318.99 595.44,-318.46 592.8,-311.97"/>
</a>
</g>
</g>
<!-- Node14&#45;&gt;Node2 -->
<g id="edge19_Node000014_Node000002" class="edge">
<title>Node14&#45;&gt;Node2</title>
<g id="a_edge19_Node000014_Node000002"><a xlink:title=" ">
<path fill="none" stroke="#63b8ff" d="M242.17,-238.81C207.94,-228 168.08,-215.4 138.33,-206"/>
<polygon fill="#63b8ff" stroke="#63b8ff" points="241.54,-242.28 252.13,-241.96 243.65,-235.61 241.54,-242.28"/>
</a>
</g>
</g>
<!-- Node15&#45;&gt;Node3 -->
<g id="edge21_Node000015_Node000003" class="edge">
<title>Node15&#45;&gt;Node3</title>
<g id="a_edge21_Node000015_Node000003"><a xlink:title=" ">
<path fill="none" stroke="#63b8ff" d="M736.82,-238.56C747.11,-220.54 756.65,-195.35 745,-176 734.02,-157.76 712.78,-146.6 694.4,-140.02"/>
<polygon fill="#63b8ff" stroke="#63b8ff" points="733.72,-236.91 731.47,-247.26 739.69,-240.57 733.72,-236.91"/>
</a>
</g>
</g>
<!-- Node16 -->
<g id="Node000016" class="node">
<title>Node16</title>
<g id="a_Node000016"><a xlink:href="RaggedShapeStorage_8cpp.html" target="_top" xlink:title="Instantiations of shape storage for shapes of different sizes.">
<polygon fill="white" stroke="#666666" points="736,-206 586,-206 586,-176 736,-176 736,-206"/>
<text text-anchor="start" x="594" y="-194" font-family="Helvetica,sans-Serif" font-size="10.00">src/operators/RaggedShape</text>
<text text-anchor="middle" x="661" y="-183" font-family="Helvetica,sans-Serif" font-size="10.00">Storage.cpp</text>
</a>
</g>
</g>
<!-- Node15&#45;&gt;Node16 -->
<g id="edge22_Node000015_Node000016" class="edge">
<title>Node15&#45;&gt;Node16</title>
<g id="a_edge22_Node000015_Node000016"><a xlink:title=" ">
<path fill="none" stroke="#63b8ff" d="M702.31,-239.85C692.79,-228.83 681.5,-215.74 673.12,-206.04"/>
<polygon fill="#63b8ff" stroke="#63b8ff" points="699.67,-242.15 708.86,-247.44 704.97,-237.58 699.67,-242.15"/>
</a>
</g>
</g>
<!-- Node17&#45;&gt;Node15 -->
<g id="edge24_Node000017_Node000015" class="edge">
<title>Node17&#45;&gt;Node15</title>
<g id="a_edge24_Node000017_Node000015"><a xlink:title=" ">
<path fill="none" stroke="#63b8ff" d="M721,-314.04C721,-301.95 721,-287.79 721,-277.54"/>
<polygon fill="#63b8ff" stroke="#63b8ff" points="717.5,-314.39 721,-324.39 724.5,-314.39 717.5,-314.39"/>
</a>
</g>
</g>
<!-- Node18 -->
<g id="Node000018" class="node">
<title>Node18</title>
<g id="a_Node000018"><a xlink:href="UniformShapeStorage_8hpp.html" target="_top" xlink:title="Implementation of shape storage for uniformly long shapes.">
<polygon fill="white" stroke="#666666" points="605.5,-277.5 408.5,-277.5 408.5,-247.5 605.5,-247.5 605.5,-277.5"/>
<text text-anchor="start" x="416.5" y="-265.5" font-family="Helvetica,sans-Serif" font-size="10.00">include/medusa/bits</text>
<text text-anchor="middle" x="507" y="-254.5" font-family="Helvetica,sans-Serif" font-size="10.00">/operators/UniformShapeStorage.hpp</text>
</a>
</g>
</g>
<!-- Node17&#45;&gt;Node18 -->
<g id="edge25_Node000017_Node000018" class="edge">
<title>Node17&#45;&gt;Node18</title>
<g id="a_edge25_Node000017_Node000018"><a xlink:title=" ">
<path fill="none" stroke="#63b8ff" d="M671.23,-321.06C633.5,-307.83 582.31,-289.89 547.17,-277.58"/>
<polygon fill="#63b8ff" stroke="#63b8ff" points="670.4,-324.48 681,-324.48 672.72,-317.87 670.4,-324.48"/>
</a>
</g>
</g>
<!-- Node18&#45;&gt;Node3 -->
<g id="edge26_Node000018_Node000003" class="edge">
<title>Node18&#45;&gt;Node3</title>
<g id="a_edge26_Node000018_Node000003"><a xlink:title=" ">
<path fill="none" stroke="#63b8ff" d="M521.73,-238.86C534.65,-220.28 554.8,-194.17 577,-176 596.16,-160.32 621.7,-147.74 639.57,-140.01"/>
<polygon fill="#63b8ff" stroke="#63b8ff" points="518.72,-237.07 515.99,-247.31 524.51,-241.01 518.72,-237.07"/>
</a>
</g>
</g>
<!-- Node19 -->
<g id="Node000019" class="node">
<title>Node19</title>
<g id="a_Node000019"><a xlink:href="UniformShapeStorage_8cpp.html" target="_top" xlink:title="Instantiations of shape storage for uniform shapes.">
<polygon fill="white" stroke="#666666" points="529.5,-206 376.5,-206 376.5,-176 529.5,-176 529.5,-206"/>
<text text-anchor="start" x="384.5" y="-194" font-family="Helvetica,sans-Serif" font-size="10.00">src/operators/UniformShape</text>
<text text-anchor="middle" x="453" y="-183" font-family="Helvetica,sans-Serif" font-size="10.00">Storage.cpp</text>
</a>
</g>
</g>
<!-- Node18&#45;&gt;Node19 -->
<g id="edge27_Node000018_Node000019" class="edge">
<title>Node18&#45;&gt;Node19</title>
<g id="a_edge27_Node000018_Node000019"><a xlink:title=" ">
<path fill="none" stroke="#63b8ff" d="M489.93,-239.53C481.42,-228.57 471.37,-215.65 463.91,-206.04"/>
<polygon fill="#63b8ff" stroke="#63b8ff" points="487.17,-241.69 496.07,-247.44 492.7,-237.39 487.17,-241.69"/>
</a>
</g>
</g>
<!-- Node20&#45;&gt;Node14 -->
<g id="edge29_Node000020_Node000014" class="edge">
<title>Node20&#45;&gt;Node14</title>
<g id="a_edge29_Node000020_Node000014"><a xlink:title=" ">
<path fill="none" stroke="#63b8ff" d="M332.3,-309.26C328.79,-300.48 325.03,-291.07 321.83,-283.07"/>
<polygon fill="#63b8ff" stroke="#63b8ff" points="329.15,-310.81 336.12,-318.79 335.65,-308.21 329.15,-310.81"/>
</a>
</g>
</g>
<!-- Node20&#45;&gt;Node18 -->
<g id="edge30_Node000020_Node000018" class="edge">
<title>Node20&#45;&gt;Node18</title>
<g id="a_edge30_Node000020_Node000018"><a xlink:title=" ">
<path fill="none" stroke="#63b8ff" d="M395.58,-314.77C422.16,-302.54 453.68,-288.04 476.39,-277.58"/>
<polygon fill="#63b8ff" stroke="#63b8ff" points="394.02,-311.63 386.4,-318.99 396.95,-317.99 394.02,-311.63"/>
</a>
</g>
</g>
</g>
</svg>
