<?xml version="1.0" encoding="UTF-8" standalone="no"?>
<!DOCTYPE svg PUBLIC "-//W3C//DTD SVG 1.1//EN"
 "http://www.w3.org/Graphics/SVG/1.1/DTD/svg11.dtd">
<!-- Generated by graphviz version 2.43.0 (0)
 -->
<!-- Title: src/interpolants/Sheppard.cpp Pages: 1 -->
<!--zoomable 489 -->

<svg id="main" version="1.1" xmlns="http://www.w3.org/2000/svg" xmlns:xlink="http://www.w3.org/1999/xlink" xml:space="preserve" onload="init(evt)">
<style type="text/css"><![CDATA[
.node, .edge {opacity: 0.7;}
.node.selected, .edge.selected {opacity: 1;}
.edge:hover path { stroke: red; }
.edge:hover polygon { stroke: red; fill: red; }
]]></style>

<defs>
  <circle id="rim" cx="0" cy="0" r="7"/>
  <circle id="rim2" cx="0" cy="0" r="3.5"/>
  <g id="zoomPlus">
    <use xlink:href="#rim" fill="#404040"><set attributeName="fill" to="#808080" begin="zoomplus.mouseover" end="zoomplus.mouseout"/></use>
    <path d="M-4,0h8M0,-4v8" fill="none" stroke="white" stroke-width="1.5" pointer-events="none"/>
  </g>
  <g id="zoomMin">
    <use xlink:href="#rim" fill="#404040"><set attributeName="fill" to="#808080" begin="zoomminus.mouseover" end="zoomminus.mouseout"/></use>
    <path d="M-4,0h8" fill="none" stroke="white" stroke-width="1.5" pointer-events="none"/>
  </g>
  <g id="arrowUp" transform="translate(30 24)">
    <use xlink:href="#rim"/>
    <path pointer-events="none" fill="none" stroke="white" stroke-width="1.5" d="M0,-3.0v7 M-2.5,-0.5L0,-3.0L2.5,-0.5"/>
  </g>
  <g id="arrowRight" transform="rotate(90) translate(36 -43)">
    <use xlink:href="#rim"/>
    <path pointer-events="none" fill="none" stroke="white" stroke-width="1.5" d="M0,-3.0v7 M-2.5,-0.5L0,-3.0L2.5,-0.5"/>
  </g>
  <g id="arrowDown" transform="rotate(180) translate(-30 -48)">
    <use xlink:href="#rim"/>
    <path pointer-events="none" fill="none" stroke="white" stroke-width="1.5" d="M0,-3.0v7 M-2.5,-0.5L0,-3.0L2.5,-0.5"/>
  </g>
  <g id="arrowLeft" transform="rotate(270) translate(-36 17)">
    <use xlink:href="#rim"/>
    <path pointer-events="none" fill="none" stroke="white" stroke-width="1.5" d="M0,-3.0v7 M-2.5,-0.5L0,-3.0L2.5,-0.5"/>
  </g>
  <g id="resetDef">
    <use xlink:href="#rim2" fill="#404040"><set attributeName="fill" to="#808080" begin="reset.mouseover" end="reset.mouseout"/></use>
  </g>
</defs>
<script type="application/ecmascript">
var viewWidth = 950;
var viewHeight = 489;
var sectionId = 'dynsection-0';
</script>
<script type="application/ecmascript" xlink:href="svg.min.js"/>
<svg id="graph" class="graph">
<g id="viewport">
<title>src/interpolants/Sheppard.cpp</title>
<!-- Node1 -->
<g id="Node000001" class="node">
<title>Node1</title>
<g id="a_Node000001"><a xlink:title="Instantiation of class for Sheppard&#39;s interpolants.">
<polygon fill="#999999" stroke="#666666" points="260.5,-481 99.5,-481 99.5,-462 260.5,-462 260.5,-481"/>
<text text-anchor="middle" x="180" y="-469" font-family="Helvetica,sans-Serif" font-size="10.00">src/interpolants/Sheppard.cpp</text>
</a>
</g>
</g>
<!-- Node2 -->
<g id="Node000002" class="node">
<title>Node2</title>
<g id="a_Node000002"><a xlink:href="Sheppard_8hpp.html" target="_top" xlink:title="Implementation of SheppardInterpolant class.">
<polygon fill="white" stroke="#666666" points="487,-426 349,-426 349,-396 487,-396 487,-426"/>
<text text-anchor="start" x="357" y="-414" font-family="Helvetica,sans-Serif" font-size="10.00">medusa/bits/interpolants</text>
<text text-anchor="middle" x="418" y="-403" font-family="Helvetica,sans-Serif" font-size="10.00">/Sheppard.hpp</text>
</a>
</g>
</g>
<!-- Node1&#45;&gt;Node2 -->
<g id="edge1_Node000001_Node000002" class="edge">
<title>Node1&#45;&gt;Node2</title>
<g id="a_edge1_Node000001_Node000002"><a xlink:title=" ">
<path fill="none" stroke="#63b8ff" d="M214.61,-461.99C250.21,-453.24 306.56,-439.39 350.93,-428.48"/>
<polygon fill="#63b8ff" stroke="#63b8ff" points="351.91,-431.85 360.78,-426.06 350.23,-425.05 351.91,-431.85"/>
</a>
</g>
</g>
<!-- Node13 -->
<g id="Node000013" class="node">
<title>Node13</title>
<g id="a_Node000013"><a xlink:href="Vec_8hpp.html" target="_top" xlink:title="Implemetations for Vec.">
<polygon fill="white" stroke="#666666" points="148,-239 0,-239 0,-220 148,-220 148,-239"/>
<text text-anchor="middle" x="74" y="-227" font-family="Helvetica,sans-Serif" font-size="10.00">medusa/bits/types/Vec.hpp</text>
</a>
</g>
</g>
<!-- Node1&#45;&gt;Node13 -->
<g id="edge44_Node000001_Node000013" class="edge">
<title>Node1&#45;&gt;Node13</title>
<g id="a_edge44_Node000001_Node000013"><a xlink:title=" ">
<path fill="none" stroke="#63b8ff" d="M176.23,-461.96C160.9,-427.26 103.12,-296.44 81.89,-248.37"/>
<polygon fill="#63b8ff" stroke="#63b8ff" points="85.08,-246.92 77.84,-239.19 78.68,-249.75 85.08,-246.92"/>
</a>
</g>
</g>
<!-- Node3 -->
<g id="Node000003" class="node">
<title>Node3</title>
<g id="a_Node000003"><a xlink:href="assert_8hpp.html" target="_top" xlink:title="Implementation of custom assert and debug utilities.">
<polygon fill="white" stroke="#666666" points="886.5,-129 731.5,-129 731.5,-110 886.5,-110 886.5,-129"/>
<text text-anchor="middle" x="809" y="-117" font-family="Helvetica,sans-Serif" font-size="10.00">medusa/bits/utils/assert.hpp</text>
</a>
</g>
</g>
<!-- Node2&#45;&gt;Node3 -->
<g id="edge2_Node000002_Node000003" class="edge">
<title>Node2&#45;&gt;Node3</title>
<g id="a_edge2_Node000002_Node000003"><a xlink:title=" ">
<path fill="none" stroke="#63b8ff" d="M487.04,-408.65C629.33,-403.98 942,-383.24 942,-291 942,-291 942,-291 942,-228.5 942,-178.87 885.5,-148.05 846.15,-132.61"/>
<polygon fill="#63b8ff" stroke="#63b8ff" points="847.15,-129.25 836.56,-129.02 844.69,-135.8 847.15,-129.25"/>
</a>
</g>
</g>
<!-- Node11 -->
<g id="Node000011" class="node">
<title>Node11</title>
<g id="a_Node000011"><a xlink:href="numutils_8hpp.html" target="_top" xlink:title="Declaration of numerical utilities.">
<polygon fill="white" stroke="#666666" points="400.5,-299.5 233.5,-299.5 233.5,-280.5 400.5,-280.5 400.5,-299.5"/>
<text text-anchor="middle" x="317" y="-287.5" font-family="Helvetica,sans-Serif" font-size="10.00">medusa/bits/utils/numutils.hpp</text>
</a>
</g>
</g>
<!-- Node2&#45;&gt;Node11 -->
<g id="edge10_Node000002_Node000011" class="edge">
<title>Node2&#45;&gt;Node11</title>
<g id="a_edge10_Node000002_Node000011"><a xlink:title=" ">
<path fill="none" stroke="#63b8ff" d="M406.02,-395.88C387.22,-373.73 350.88,-330.91 330.94,-307.42"/>
<polygon fill="#63b8ff" stroke="#63b8ff" points="333.53,-305.07 324.39,-299.71 328.2,-309.6 333.53,-305.07"/>
</a>
</g>
</g>
<!-- Node23 -->
<g id="Node000023" class="node">
<title>Node23</title>
<g id="a_Node000023"><a xlink:href="Sheppard__fwd_8hpp.html" target="_top" xlink:title="Declaration of class for Sheppard&#39;s interpolant.">
<polygon fill="white" stroke="#666666" points="512,-360 406,-360 406,-341 512,-341 512,-360"/>
<text text-anchor="middle" x="459" y="-348" font-family="Helvetica,sans-Serif" font-size="10.00">Sheppard_fwd.hpp</text>
</a>
</g>
</g>
<!-- Node2&#45;&gt;Node23 -->
<g id="edge28_Node000002_Node000023" class="edge">
<title>Node2&#45;&gt;Node23</title>
<g id="a_edge28_Node000002_Node000023"><a xlink:title=" ">
<path fill="none" stroke="#63b8ff" d="M427.92,-395.84C433.69,-387.61 441,-377.18 447.08,-368.51"/>
<polygon fill="#63b8ff" stroke="#63b8ff" points="449.98,-370.46 452.86,-360.27 444.25,-366.45 449.98,-370.46"/>
</a>
</g>
</g>
<!-- Node4 -->
<g id="Node000004" class="node">
<title>Node4</title>
<g id="a_Node000004"><a xlink:title=" ">
<polygon fill="#e0e0e0" stroke="#999999" points="875,-74 743,-74 743,-55 875,-55 875,-74"/>
<text text-anchor="middle" x="809" y="-62" font-family="Helvetica,sans-Serif" font-size="10.00">tinyformat/tinyformat.h</text>
</a>
</g>
</g>
<!-- Node3&#45;&gt;Node4 -->
<g id="edge3_Node000003_Node000004" class="edge">
<title>Node3&#45;&gt;Node4</title>
<g id="a_edge3_Node000003_Node000004"><a xlink:title=" ">
<path fill="none" stroke="#63b8ff" d="M809,-109.75C809,-102.8 809,-92.85 809,-84.13"/>
<polygon fill="#63b8ff" stroke="#63b8ff" points="812.5,-84.09 809,-74.09 805.5,-84.09 812.5,-84.09"/>
</a>
</g>
</g>
<!-- Node5 -->
<g id="Node000005" class="node">
<title>Node5</title>
<g id="a_Node000005"><a xlink:href="print_8hpp.html" target="_top" xlink:title="Printing helpers for std types.">
<polygon fill="white" stroke="#666666" points="615,-74 555,-74 555,-55 615,-55 615,-74"/>
<text text-anchor="middle" x="585" y="-62" font-family="Helvetica,sans-Serif" font-size="10.00">print.hpp</text>
</a>
</g>
</g>
<!-- Node3&#45;&gt;Node5 -->
<g id="edge4_Node000003_Node000005" class="edge">
<title>Node3&#45;&gt;Node5</title>
<g id="a_edge4_Node000003_Node000005"><a xlink:title=" ">
<path fill="none" stroke="#63b8ff" d="M773.01,-109.98C732.57,-100.42 667.08,-84.92 625.05,-74.98"/>
<polygon fill="#63b8ff" stroke="#63b8ff" points="625.69,-71.53 615.16,-72.63 624.08,-78.34 625.69,-71.53"/>
</a>
</g>
</g>
<!-- Node6 -->
<g id="Node000006" class="node">
<title>Node6</title>
<g id="a_Node000006"><a xlink:title=" ">
<polygon fill="#e0e0e0" stroke="#999999" points="649,-19 589,-19 589,0 649,0 649,-19"/>
<text text-anchor="middle" x="619" y="-7" font-family="Helvetica,sans-Serif" font-size="10.00">iostream</text>
</a>
</g>
</g>
<!-- Node5&#45;&gt;Node6 -->
<g id="edge5_Node000005_Node000006" class="edge">
<title>Node5&#45;&gt;Node6</title>
<g id="a_edge5_Node000005_Node000006"><a xlink:title=" ">
<path fill="none" stroke="#63b8ff" d="M590.61,-54.75C595.32,-47.42 602.17,-36.73 607.97,-27.7"/>
<polygon fill="#63b8ff" stroke="#63b8ff" points="611.04,-29.4 613.49,-19.09 605.14,-25.62 611.04,-29.4"/>
</a>
</g>
</g>
<!-- Node7 -->
<g id="Node000007" class="node">
<title>Node7</title>
<g id="a_Node000007"><a xlink:title=" ">
<polygon fill="#e0e0e0" stroke="#999999" points="430.5,-19 383.5,-19 383.5,0 430.5,0 430.5,-19"/>
<text text-anchor="middle" x="407" y="-7" font-family="Helvetica,sans-Serif" font-size="10.00">vector</text>
</a>
</g>
</g>
<!-- Node5&#45;&gt;Node7 -->
<g id="edge6_Node000005_Node000007" class="edge">
<title>Node5&#45;&gt;Node7</title>
<g id="a_edge6_Node000005_Node000007"><a xlink:title=" ">
<path fill="none" stroke="#63b8ff" d="M556.4,-54.98C524.78,-45.57 473.91,-30.42 440.47,-20.46"/>
<polygon fill="#63b8ff" stroke="#63b8ff" points="441.27,-17.05 430.69,-17.55 439.27,-23.76 441.27,-17.05"/>
</a>
</g>
</g>
<!-- Node8 -->
<g id="Node000008" class="node">
<title>Node8</title>
<g id="a_Node000008"><a xlink:title=" ">
<polygon fill="#e0e0e0" stroke="#999999" points="709,-19 667,-19 667,0 709,0 709,-19"/>
<text text-anchor="middle" x="688" y="-7" font-family="Helvetica,sans-Serif" font-size="10.00">array</text>
</a>
</g>
</g>
<!-- Node5&#45;&gt;Node8 -->
<g id="edge7_Node000005_Node000008" class="edge">
<title>Node5&#45;&gt;Node8</title>
<g id="a_edge7_Node000005_Node000008"><a xlink:title=" ">
<path fill="none" stroke="#63b8ff" d="M601.55,-54.98C617.89,-46.57 643.13,-33.59 662.13,-23.81"/>
<polygon fill="#63b8ff" stroke="#63b8ff" points="663.86,-26.86 671.15,-19.17 660.66,-20.63 663.86,-26.86"/>
</a>
</g>
</g>
<!-- Node9 -->
<g id="Node000009" class="node">
<title>Node9</title>
<g id="a_Node000009"><a xlink:title=" ">
<polygon fill="#e0e0e0" stroke="#999999" points="511.5,-19 466.5,-19 466.5,0 511.5,0 511.5,-19"/>
<text text-anchor="middle" x="489" y="-7" font-family="Helvetica,sans-Serif" font-size="10.00">utility</text>
</a>
</g>
</g>
<!-- Node5&#45;&gt;Node9 -->
<g id="edge8_Node000005_Node000009" class="edge">
<title>Node5&#45;&gt;Node9</title>
<g id="a_edge8_Node000005_Node000009"><a xlink:title=" ">
<path fill="none" stroke="#63b8ff" d="M569.58,-54.98C554.55,-46.69 531.46,-33.94 513.84,-24.22"/>
<polygon fill="#63b8ff" stroke="#63b8ff" points="515.15,-20.94 504.7,-19.17 511.77,-27.07 515.15,-20.94"/>
</a>
</g>
</g>
<!-- Node10 -->
<g id="Node000010" class="node">
<title>Node10</title>
<g id="a_Node000010"><a xlink:title=" ">
<polygon fill="#e0e0e0" stroke="#999999" points="570.5,-19 529.5,-19 529.5,0 570.5,0 570.5,-19"/>
<text text-anchor="middle" x="550" y="-7" font-family="Helvetica,sans-Serif" font-size="10.00">tuple</text>
</a>
</g>
</g>
<!-- Node5&#45;&gt;Node10 -->
<g id="edge9_Node000005_Node000010" class="edge">
<title>Node5&#45;&gt;Node10</title>
<g id="a_edge9_Node000005_Node000010"><a xlink:title=" ">
<path fill="none" stroke="#63b8ff" d="M579.22,-54.75C574.38,-47.42 567.32,-36.73 561.36,-27.7"/>
<polygon fill="#63b8ff" stroke="#63b8ff" points="564.1,-25.5 555.67,-19.09 558.26,-29.36 564.1,-25.5"/>
</a>
</g>
</g>
<!-- Node11&#45;&gt;Node3 -->
<g id="edge13_Node000011_Node000003" class="edge">
<title>Node11&#45;&gt;Node3</title>
<g id="a_edge13_Node000011_Node000003"><a xlink:title=" ">
<path fill="none" stroke="#63b8ff" d="M400.6,-285.08C535.63,-276.79 792.19,-252.24 847,-184 859.22,-168.79 843.57,-149.28 828.81,-135.92"/>
<polygon fill="#63b8ff" stroke="#63b8ff" points="830.78,-133 820.89,-129.2 826.25,-138.34 830.78,-133"/>
</a>
</g>
</g>
<!-- Node12 -->
<g id="Node000012" class="node">
<title>Node12</title>
<g id="a_Node000012"><a xlink:href="Config_8hpp.html" target="_top" xlink:title="Contains compile time settings for the project, such as Eigen plugins.">
<polygon fill="white" stroke="#666666" points="342,-129 232,-129 232,-110 342,-110 342,-129"/>
<text text-anchor="middle" x="287" y="-117" font-family="Helvetica,sans-Serif" font-size="10.00">medusa/Config.hpp</text>
</a>
</g>
</g>
<!-- Node11&#45;&gt;Node12 -->
<g id="edge11_Node000011_Node000012" class="edge">
<title>Node11&#45;&gt;Node12</title>
<g id="a_edge11_Node000011_Node000012"><a xlink:title=" ">
<path fill="none" stroke="#63b8ff" d="M261.35,-280.46C236.69,-273.6 209.92,-261.24 195,-239 176.68,-211.69 177.53,-192.86 195,-165 204.69,-149.54 221.44,-139.33 238.01,-132.63"/>
<polygon fill="#63b8ff" stroke="#63b8ff" points="239.51,-135.81 247.69,-129.08 237.1,-129.24 239.51,-135.81"/>
</a>
</g>
</g>
<!-- Node11&#45;&gt;Node13 -->
<g id="edge14_Node000011_Node000013" class="edge">
<title>Node11&#45;&gt;Node13</title>
<g id="a_edge14_Node000011_Node000013"><a xlink:title=" ">
<path fill="none" stroke="#63b8ff" d="M281.67,-280.49C238.74,-270.16 166.26,-252.71 119.28,-241.4"/>
<polygon fill="#63b8ff" stroke="#63b8ff" points="119.92,-237.95 109.38,-239.02 118.28,-244.76 119.92,-237.95"/>
</a>
</g>
</g>
<!-- Node16 -->
<g id="Node000016" class="node">
<title>Node16</title>
<g id="a_Node000016"><a xlink:href="Range_8hpp.html" target="_top" xlink:title="Implementation of Range.">
<polygon fill="white" stroke="#666666" points="365.5,-239 204.5,-239 204.5,-220 365.5,-220 365.5,-239"/>
<text text-anchor="middle" x="285" y="-227" font-family="Helvetica,sans-Serif" font-size="10.00">medusa/bits/types/Range.hpp</text>
</a>
</g>
</g>
<!-- Node11&#45;&gt;Node16 -->
<g id="edge18_Node000011_Node000016" class="edge">
<title>Node11&#45;&gt;Node16</title>
<g id="a_edge18_Node000011_Node000016"><a xlink:title=" ">
<path fill="none" stroke="#63b8ff" d="M312.28,-280.37C307.65,-271.9 300.45,-258.74 294.61,-248.07"/>
<polygon fill="#63b8ff" stroke="#63b8ff" points="297.61,-246.26 289.74,-239.17 291.47,-249.62 297.61,-246.26"/>
</a>
</g>
</g>
<!-- Node22 -->
<g id="Node000022" class="node">
<title>Node22</title>
<g id="a_Node000022"><a xlink:title=" ">
<polygon fill="#e0e0e0" stroke="#999999" points="430.5,-239 383.5,-239 383.5,-220 430.5,-220 430.5,-239"/>
<text text-anchor="middle" x="407" y="-227" font-family="Helvetica,sans-Serif" font-size="10.00">cmath</text>
</a>
</g>
</g>
<!-- Node11&#45;&gt;Node22 -->
<g id="edge27_Node000011_Node000022" class="edge">
<title>Node11&#45;&gt;Node22</title>
<g id="a_edge27_Node000011_Node000022"><a xlink:title=" ">
<path fill="none" stroke="#63b8ff" d="M330.28,-280.37C344.64,-271.04 367.76,-256.01 384.87,-244.88"/>
<polygon fill="#63b8ff" stroke="#63b8ff" points="387.19,-247.55 393.67,-239.17 383.37,-241.68 387.19,-247.55"/>
</a>
</g>
</g>
<!-- Node12&#45;&gt;Node7 -->
<g id="edge12_Node000012_Node000007" class="edge">
<title>Node12&#45;&gt;Node7</title>
<g id="a_edge12_Node000012_Node000007"><a xlink:title=" ">
<path fill="none" stroke="#63b8ff" d="M296.3,-109.79C309.49,-97.48 334.42,-74.34 356,-55 366.94,-45.2 379.35,-34.36 389.2,-25.83"/>
<polygon fill="#63b8ff" stroke="#63b8ff" points="391.49,-28.47 396.77,-19.29 386.92,-23.18 391.49,-28.47"/>
</a>
</g>
</g>
<!-- Node14 -->
<g id="Node000014" class="node">
<title>Node14</title>
<g id="a_Node000014"><a xlink:href="Vec__fwd_8hpp.html" target="_top" xlink:title="Declaration of Vec.">
<polygon fill="white" stroke="#666666" points="130.5,-184 53.5,-184 53.5,-165 130.5,-165 130.5,-184"/>
<text text-anchor="middle" x="92" y="-172" font-family="Helvetica,sans-Serif" font-size="10.00">Vec_fwd.hpp</text>
</a>
</g>
</g>
<!-- Node13&#45;&gt;Node14 -->
<g id="edge15_Node000013_Node000014" class="edge">
<title>Node13&#45;&gt;Node14</title>
<g id="a_edge15_Node000013_Node000014"><a xlink:title=" ">
<path fill="none" stroke="#63b8ff" d="M76.97,-219.75C79.36,-212.72 82.79,-202.62 85.77,-193.84"/>
<polygon fill="#63b8ff" stroke="#63b8ff" points="89.18,-194.68 89.08,-184.09 82.55,-192.43 89.18,-194.68"/>
</a>
</g>
</g>
<!-- Node14&#45;&gt;Node12 -->
<g id="edge16_Node000014_Node000012" class="edge">
<title>Node14&#45;&gt;Node12</title>
<g id="a_edge16_Node000014_Node000012"><a xlink:title=" ">
<path fill="none" stroke="#63b8ff" d="M123.33,-164.98C156.49,-155.97 209,-141.7 245.56,-131.76"/>
<polygon fill="#63b8ff" stroke="#63b8ff" points="246.69,-135.08 255.42,-129.08 244.86,-128.33 246.69,-135.08"/>
</a>
</g>
</g>
<!-- Node15 -->
<g id="Node000015" class="node">
<title>Node15</title>
<g id="a_Node000015"><a xlink:title=" ">
<polygon fill="#e0e0e0" stroke="#999999" points="126.5,-129 57.5,-129 57.5,-110 126.5,-110 126.5,-129"/>
<text text-anchor="middle" x="92" y="-117" font-family="Helvetica,sans-Serif" font-size="10.00">Eigen/Core</text>
</a>
</g>
</g>
<!-- Node14&#45;&gt;Node15 -->
<g id="edge17_Node000014_Node000015" class="edge">
<title>Node14&#45;&gt;Node15</title>
<g id="a_edge17_Node000014_Node000015"><a xlink:title=" ">
<path fill="none" stroke="#63b8ff" d="M92,-164.75C92,-157.8 92,-147.85 92,-139.13"/>
<polygon fill="#63b8ff" stroke="#63b8ff" points="95.5,-139.09 92,-129.09 88.5,-139.09 95.5,-139.09"/>
</a>
</g>
</g>
<!-- Node17 -->
<g id="Node000017" class="node">
<title>Node17</title>
<g id="a_Node000017"><a xlink:href="Range__fwd_8hpp.html" target="_top" xlink:title="Declaration of Range.">
<polygon fill="white" stroke="#666666" points="415.5,-184 324.5,-184 324.5,-165 415.5,-165 415.5,-184"/>
<text text-anchor="middle" x="370" y="-172" font-family="Helvetica,sans-Serif" font-size="10.00">Range_fwd.hpp</text>
</a>
</g>
</g>
<!-- Node16&#45;&gt;Node17 -->
<g id="edge19_Node000016_Node000017" class="edge">
<title>Node16&#45;&gt;Node17</title>
<g id="a_edge19_Node000016_Node000017"><a xlink:title=" ">
<path fill="none" stroke="#63b8ff" d="M298.66,-219.98C311.84,-211.77 332.03,-199.18 347.57,-189.49"/>
<polygon fill="#63b8ff" stroke="#63b8ff" points="349.46,-192.43 356.09,-184.17 345.76,-186.49 349.46,-192.43"/>
</a>
</g>
</g>
<!-- Node21 -->
<g id="Node000021" class="node">
<title>Node21</title>
<g id="a_Node000021"><a xlink:title=" ">
<polygon fill="#e0e0e0" stroke="#999999" points="268,-184 204,-184 204,-165 268,-165 268,-184"/>
<text text-anchor="middle" x="236" y="-172" font-family="Helvetica,sans-Serif" font-size="10.00">algorithm</text>
</a>
</g>
</g>
<!-- Node16&#45;&gt;Node21 -->
<g id="edge26_Node000016_Node000021" class="edge">
<title>Node16&#45;&gt;Node21</title>
<g id="a_edge26_Node000016_Node000021"><a xlink:title=" ">
<path fill="none" stroke="#63b8ff" d="M276.91,-219.75C269.84,-212.11 259.41,-200.82 250.85,-191.56"/>
<polygon fill="#63b8ff" stroke="#63b8ff" points="253.3,-189.06 243.94,-184.09 248.16,-193.81 253.3,-189.06"/>
</a>
</g>
</g>
<!-- Node17&#45;&gt;Node3 -->
<g id="edge21_Node000017_Node000003" class="edge">
<title>Node17&#45;&gt;Node3</title>
<g id="a_edge21_Node000017_Node000003"><a xlink:title=" ">
<path fill="none" stroke="#63b8ff" d="M415.74,-167.98C489.72,-159.05 636.59,-141.31 728.41,-130.23"/>
<polygon fill="#63b8ff" stroke="#63b8ff" points="728.99,-133.69 738.5,-129.01 728.15,-126.74 728.99,-133.69"/>
</a>
</g>
</g>
<!-- Node17&#45;&gt;Node7 -->
<g id="edge24_Node000017_Node000007" class="edge">
<title>Node17&#45;&gt;Node7</title>
<g id="a_edge24_Node000017_Node000007"><a xlink:title=" ">
<path fill="none" stroke="#63b8ff" d="M371.99,-164.74C377.79,-139.2 394.76,-64.43 402.75,-29.23"/>
<polygon fill="#63b8ff" stroke="#63b8ff" points="406.2,-29.83 405,-19.31 399.37,-28.28 406.2,-29.83"/>
</a>
</g>
</g>
<!-- Node17&#45;&gt;Node12 -->
<g id="edge20_Node000017_Node000012" class="edge">
<title>Node17&#45;&gt;Node12</title>
<g id="a_edge20_Node000017_Node000012"><a xlink:title=" ">
<path fill="none" stroke="#63b8ff" d="M356.66,-164.98C343.91,-156.84 324.45,-144.41 309.33,-134.76"/>
<polygon fill="#63b8ff" stroke="#63b8ff" points="310.89,-131.6 300.58,-129.17 307.12,-137.5 310.89,-131.6"/>
</a>
</g>
</g>
<!-- Node18 -->
<g id="Node000018" class="node">
<title>Node18</title>
<g id="a_Node000018"><a xlink:href="traits_8hpp.html" target="_top" xlink:title="Type traits definition for vector and scalar fields.">
<polygon fill="white" stroke="#666666" points="461.5,-129 398.5,-129 398.5,-110 461.5,-110 461.5,-129"/>
<text text-anchor="middle" x="430" y="-117" font-family="Helvetica,sans-Serif" font-size="10.00">traits.hpp</text>
</a>
</g>
</g>
<!-- Node17&#45;&gt;Node18 -->
<g id="edge22_Node000017_Node000018" class="edge">
<title>Node17&#45;&gt;Node18</title>
<g id="a_edge22_Node000017_Node000018"><a xlink:title=" ">
<path fill="none" stroke="#63b8ff" d="M379.64,-164.98C388.51,-157.15 401.87,-145.34 412.61,-135.86"/>
<polygon fill="#63b8ff" stroke="#63b8ff" points="415.01,-138.41 420.18,-129.17 410.37,-133.17 415.01,-138.41"/>
</a>
</g>
</g>
<!-- Node19 -->
<g id="Node000019" class="node">
<title>Node19</title>
<g id="a_Node000019"><a xlink:title=" ">
<polygon fill="#e0e0e0" stroke="#999999" points="607,-129 549,-129 549,-110 607,-110 607,-129"/>
<text text-anchor="middle" x="578" y="-117" font-family="Helvetica,sans-Serif" font-size="10.00">memory</text>
</a>
</g>
</g>
<!-- Node17&#45;&gt;Node19 -->
<g id="edge23_Node000017_Node000019" class="edge">
<title>Node17&#45;&gt;Node19</title>
<g id="a_edge23_Node000017_Node000019"><a xlink:title=" ">
<path fill="none" stroke="#63b8ff" d="M403.42,-164.98C440.39,-155.56 499.9,-140.4 538.99,-130.44"/>
<polygon fill="#63b8ff" stroke="#63b8ff" points="539.87,-133.83 548.7,-127.97 538.14,-127.04 539.87,-133.83"/>
</a>
</g>
</g>
<!-- Node20 -->
<g id="Node000020" class="node">
<title>Node20</title>
<g id="a_Node000020"><a xlink:title=" ">
<polygon fill="#e0e0e0" stroke="#999999" points="528,-129 480,-129 480,-110 528,-110 528,-129"/>
<text text-anchor="middle" x="504" y="-117" font-family="Helvetica,sans-Serif" font-size="10.00">iosfwd</text>
</a>
</g>
</g>
<!-- Node17&#45;&gt;Node20 -->
<g id="edge25_Node000017_Node000020" class="edge">
<title>Node17&#45;&gt;Node20</title>
<g id="a_edge25_Node000017_Node000020"><a xlink:title=" ">
<path fill="none" stroke="#63b8ff" d="M391.53,-164.98C413.47,-156.3 447.74,-142.75 472.69,-132.88"/>
<polygon fill="#63b8ff" stroke="#63b8ff" points="474.07,-136.1 482.08,-129.17 471.49,-129.59 474.07,-136.1"/>
</a>
</g>
</g>
<!-- Node23&#45;&gt;Node17 -->
<g id="edge43_Node000023_Node000017" class="edge">
<title>Node23&#45;&gt;Node17</title>
<g id="a_edge43_Node000023_Node000017"><a xlink:title=" ">
<path fill="none" stroke="#63b8ff" d="M459.96,-340.79C461.94,-318.63 464.39,-259.12 439,-220 430.05,-206.2 415.15,-195.8 401.48,-188.54"/>
<polygon fill="#63b8ff" stroke="#63b8ff" points="402.82,-185.3 392.31,-184.01 399.73,-191.58 402.82,-185.3"/>
</a>
</g>
</g>
<!-- Node24 -->
<g id="Node000024" class="node">
<title>Node24</title>
<g id="a_Node000024"><a xlink:href="KDTree_8hpp.html" target="_top" xlink:title="Implementation of KDTree.">
<polygon fill="white" stroke="#666666" points="670.5,-305 557.5,-305 557.5,-275 670.5,-275 670.5,-305"/>
<text text-anchor="start" x="565.5" y="-293" font-family="Helvetica,sans-Serif" font-size="10.00">medusa/bits/spatial</text>
<text text-anchor="middle" x="614" y="-282" font-family="Helvetica,sans-Serif" font-size="10.00">_search/KDTree.hpp</text>
</a>
</g>
</g>
<!-- Node23&#45;&gt;Node24 -->
<g id="edge29_Node000023_Node000024" class="edge">
<title>Node23&#45;&gt;Node24</title>
<g id="a_edge29_Node000023_Node000024"><a xlink:title=" ">
<path fill="none" stroke="#63b8ff" d="M481.54,-340.99C503.85,-332.57 538.67,-319.43 567.01,-308.73"/>
<polygon fill="#63b8ff" stroke="#63b8ff" points="568.62,-311.87 576.74,-305.06 566.14,-305.32 568.62,-311.87"/>
</a>
</g>
</g>
<!-- Node24&#45;&gt;Node3 -->
<g id="edge41_Node000024_Node000003" class="edge">
<title>Node24&#45;&gt;Node3</title>
<g id="a_edge41_Node000024_Node000003"><a xlink:title=" ">
<path fill="none" stroke="#63b8ff" d="M670.66,-286.56C740.72,-282.22 853.94,-270.42 880,-239 901,-213.69 895.93,-193.78 880,-165 872.16,-150.83 857.71,-140.57 843.89,-133.5"/>
<polygon fill="#63b8ff" stroke="#63b8ff" points="845.05,-130.18 834.51,-129.1 842.08,-136.52 845.05,-130.18"/>
</a>
</g>
</g>
<!-- Node25 -->
<g id="Node000025" class="node">
<title>Node25</title>
<g id="a_Node000025"><a xlink:href="KDTree__fwd_8hpp.html" target="_top" xlink:title="Declaration of KDTree.">
<polygon fill="white" stroke="#666666" points="588.5,-239 493.5,-239 493.5,-220 588.5,-220 588.5,-239"/>
<text text-anchor="middle" x="541" y="-227" font-family="Helvetica,sans-Serif" font-size="10.00">KDTree_fwd.hpp</text>
</a>
</g>
</g>
<!-- Node24&#45;&gt;Node25 -->
<g id="edge30_Node000024_Node000025" class="edge">
<title>Node24&#45;&gt;Node25</title>
<g id="a_edge30_Node000024_Node000025"><a xlink:title=" ">
<path fill="none" stroke="#63b8ff" d="M596.33,-274.84C585.3,-266 571.11,-254.63 559.87,-245.62"/>
<polygon fill="#63b8ff" stroke="#63b8ff" points="561.93,-242.79 551.94,-239.27 557.55,-248.25 561.93,-242.79"/>
</a>
</g>
</g>
<!-- Node27 -->
<g id="Node000027" class="node">
<title>Node27</title>
<g id="a_Node000027"><a xlink:href="memutils_8hpp.html" target="_top" xlink:title="Declaration of memory related utilities.">
<polygon fill="white" stroke="#666666" points="837.5,-184 666.5,-184 666.5,-165 837.5,-165 837.5,-184"/>
<text text-anchor="middle" x="752" y="-172" font-family="Helvetica,sans-Serif" font-size="10.00">medusa/bits/utils/memutils.hpp</text>
</a>
</g>
</g>
<!-- Node24&#45;&gt;Node27 -->
<g id="edge42_Node000024_Node000027" class="edge">
<title>Node24&#45;&gt;Node27</title>
<g id="a_edge42_Node000024_Node000027"><a xlink:title=" ">
<path fill="none" stroke="#63b8ff" d="M631.2,-274.85C657.28,-253.41 706.62,-212.82 733.47,-190.74"/>
<polygon fill="#63b8ff" stroke="#63b8ff" points="735.84,-193.33 741.34,-184.27 731.39,-187.92 735.84,-193.33"/>
</a>
</g>
</g>
<!-- Node25&#45;&gt;Node12 -->
<g id="edge31_Node000025_Node000012" class="edge">
<title>Node25&#45;&gt;Node12</title>
<g id="a_edge31_Node000025_Node000012"><a xlink:title=" ">
<path fill="none" stroke="#63b8ff" d="M493.4,-224.29C435.45,-218.3 341.97,-205.58 315,-184 301.06,-172.84 293.87,-153.32 290.3,-138.86"/>
<polygon fill="#63b8ff" stroke="#63b8ff" points="293.71,-138.06 288.21,-129.01 286.86,-139.51 293.71,-138.06"/>
</a>
</g>
</g>
<!-- Node25&#45;&gt;Node17 -->
<g id="edge33_Node000025_Node000017" class="edge">
<title>Node25&#45;&gt;Node17</title>
<g id="a_edge33_Node000025_Node000017"><a xlink:title=" ">
<path fill="none" stroke="#63b8ff" d="M513.53,-219.98C484.82,-211.09 439.58,-197.07 407.58,-187.15"/>
<polygon fill="#63b8ff" stroke="#63b8ff" points="408.28,-183.7 397.69,-184.08 406.2,-190.39 408.28,-183.7"/>
</a>
</g>
</g>
<!-- Node25&#45;&gt;Node20 -->
<g id="edge34_Node000025_Node000020" class="edge">
<title>Node25&#45;&gt;Node20</title>
<g id="a_edge34_Node000025_Node000020"><a xlink:title=" ">
<path fill="none" stroke="#63b8ff" d="M511.5,-219.97C494.06,-213.24 473.41,-201.93 463,-184 453.16,-167.05 468.75,-148.27 483.45,-135.56"/>
<polygon fill="#63b8ff" stroke="#63b8ff" points="485.78,-138.18 491.36,-129.17 481.38,-132.73 485.78,-138.18"/>
</a>
</g>
</g>
<!-- Node26 -->
<g id="Node000026" class="node">
<title>Node26</title>
<g id="a_Node000026"><a xlink:title=" ">
<polygon fill="#e0e0e0" stroke="#999999" points="609.5,-184 472.5,-184 472.5,-165 609.5,-165 609.5,-184"/>
<text text-anchor="middle" x="541" y="-172" font-family="Helvetica,sans-Serif" font-size="10.00">nanoflann/nanoflann.hpp</text>
</a>
</g>
</g>
<!-- Node25&#45;&gt;Node26 -->
<g id="edge32_Node000025_Node000026" class="edge">
<title>Node25&#45;&gt;Node26</title>
<g id="a_edge32_Node000025_Node000026"><a xlink:title=" ">
<path fill="none" stroke="#63b8ff" d="M541,-219.75C541,-212.8 541,-202.85 541,-194.13"/>
<polygon fill="#63b8ff" stroke="#63b8ff" points="544.5,-194.09 541,-184.09 537.5,-194.09 544.5,-194.09"/>
</a>
</g>
</g>
<!-- Node25&#45;&gt;Node27 -->
<g id="edge35_Node000025_Node000027" class="edge">
<title>Node25&#45;&gt;Node27</title>
<g id="a_edge35_Node000025_Node000027"><a xlink:title=" ">
<path fill="none" stroke="#63b8ff" d="M574.9,-219.98C611.02,-210.91 668.32,-196.52 707.92,-186.57"/>
<polygon fill="#63b8ff" stroke="#63b8ff" points="708.99,-189.91 717.83,-184.08 707.28,-183.12 708.99,-189.91"/>
</a>
</g>
</g>
<!-- Node28 -->
<g id="Node000028" class="node">
<title>Node28</title>
<g id="a_Node000028"><a xlink:href="PointCloud_8hpp.html" target="_top" xlink:title="Implementation of KDTree storage class.">
<polygon fill="white" stroke="#666666" points="523,-74 433,-74 433,-55 523,-55 523,-74"/>
<text text-anchor="middle" x="478" y="-62" font-family="Helvetica,sans-Serif" font-size="10.00">PointCloud.hpp</text>
</a>
</g>
</g>
<!-- Node25&#45;&gt;Node28 -->
<g id="edge39_Node000025_Node000028" class="edge">
<title>Node25&#45;&gt;Node28</title>
<g id="a_edge39_Node000025_Node000028"><a xlink:title=" ">
<path fill="none" stroke="#63b8ff" d="M570.5,-219.97C587.94,-213.24 608.59,-201.93 619,-184 626.82,-170.54 634.21,-133.62 616,-110 605.37,-96.21 565.93,-84.33 531.92,-76.32"/>
<polygon fill="#63b8ff" stroke="#63b8ff" points="532.57,-72.88 522.04,-74.06 531.01,-79.7 532.57,-72.88"/>
</a>
</g>
</g>
<!-- Node27&#45;&gt;Node3 -->
<g id="edge38_Node000027_Node000003" class="edge">
<title>Node27&#45;&gt;Node3</title>
<g id="a_edge38_Node000027_Node000003"><a xlink:title=" ">
<path fill="none" stroke="#63b8ff" d="M761.16,-164.98C769.5,-157.23 782.03,-145.58 792.18,-136.14"/>
<polygon fill="#63b8ff" stroke="#63b8ff" points="794.74,-138.54 799.68,-129.17 789.97,-133.42 794.74,-138.54"/>
</a>
</g>
</g>
<!-- Node27&#45;&gt;Node12 -->
<g id="edge37_Node000027_Node000012" class="edge">
<title>Node27&#45;&gt;Node12</title>
<g id="a_edge37_Node000027_Node000012"><a xlink:title=" ">
<path fill="none" stroke="#63b8ff" d="M677.29,-164.98C587.37,-154.74 437.82,-137.69 352.31,-127.94"/>
<polygon fill="#63b8ff" stroke="#63b8ff" points="352.54,-124.45 342.21,-126.79 351.75,-131.4 352.54,-124.45"/>
</a>
</g>
</g>
<!-- Node27&#45;&gt;Node19 -->
<g id="edge36_Node000027_Node000019" class="edge">
<title>Node27&#45;&gt;Node19</title>
<g id="a_edge36_Node000027_Node000019"><a xlink:title=" ">
<path fill="none" stroke="#63b8ff" d="M724.04,-164.98C694.7,-156.05 648.4,-141.94 615.81,-132.02"/>
<polygon fill="#63b8ff" stroke="#63b8ff" points="616.76,-128.65 606.18,-129.08 614.72,-135.34 616.76,-128.65"/>
</a>
</g>
</g>
<!-- Node28&#45;&gt;Node7 -->
<g id="edge40_Node000028_Node000007" class="edge">
<title>Node28&#45;&gt;Node7</title>
<g id="a_edge40_Node000028_Node000007"><a xlink:title=" ">
<path fill="none" stroke="#63b8ff" d="M466.59,-54.98C455.89,-47 439.66,-34.88 426.84,-25.31"/>
<polygon fill="#63b8ff" stroke="#63b8ff" points="428.72,-22.35 418.61,-19.17 424.53,-27.96 428.72,-22.35"/>
</a>
</g>
</g>
</g>
</svg>

<g id="navigator" transform="translate(0 0)" fill="#404254">
  <rect fill="#f2f5e9" fill-opacity="0.5" stroke="#606060" stroke-width=".5" x="0" y="0" width="60" height="60"/>
  <use id="zoomplus" xlink:href="#zoomPlus" x="17" y="9" onmousedown="handleZoom(evt,'in')"/>
  <use id="zoomminus" xlink:href="#zoomMin" x="42" y="9" onmousedown="handleZoom(evt,'out')"/>
  <use id="reset" xlink:href="#resetDef" x="30" y="36" onmousedown="handleReset()"/>
   <use id="arrowup" xlink:href="#arrowUp" x="0" y="0" onmousedown="handlePan(0,-1)"/>
  <use id="arrowright" xlink:href="#arrowRight" x="0" y="0" onmousedown="handlePan(1,0)"/>
  <use id="arrowdown" xlink:href="#arrowDown" x="0" y="0" onmousedown="handlePan(0,1)"/>
  <use id="arrowleft" xlink:href="#arrowLeft" x="0" y="0" onmousedown="handlePan(-1,0)"/>
</g>
<svg viewBox="0 0 15 15" width="100%" height="30px" preserveAspectRatio="xMaxYMin meet">
 <g id="arrow_out" transform="scale(0.3 0.3)">
  <a xlink:href="Sheppard_8cpp__incl_org.svg" target="_base">
   <rect id="button" ry="5" rx="5" y="6" x="6" height="38" width="38"
        fill="#f2f5e9" fill-opacity="0.5" stroke="#606060" stroke-width="1.0"/>
   <path id="arrow"
     d="M 11.500037,31.436501 C 11.940474,20.09759 22.043105,11.32322 32.158766,21.979434 L 37.068811,17.246167 C 37.068811,17.246167 37.088388,32 37.088388,32 L 22.160133,31.978069 C 22.160133,31.978069 26.997745,27.140456 26.997745,27.140456 C 18.528582,18.264221 13.291696,25.230495 11.500037,31.436501 z"
     style="fill:#404040;"/>
  </a>
 </g>
</svg>

<style type='text/css'>
<![CDATA[
[data-mouse-over-selected='false'] { opacity: 0.7; }
[data-mouse-over-selected='true']  { opacity: 1.0; }
]]>
</style>
<script type="application/ecmascript"><![CDATA[
document.addEventListener('DOMContentLoaded', (event) => {
  highlightEdges();
  highlightAdjacentNodes();
});
]]></script>
</svg>
