<?xml version="1.0" encoding="UTF-8" standalone="no"?>
<!DOCTYPE svg PUBLIC "-//W3C//DTD SVG 1.1//EN"
 "http://www.w3.org/Graphics/SVG/1.1/DTD/svg11.dtd">
<!-- Generated by graphviz version 2.43.0 (0)
 -->
<!-- Title: include/medusa/bits/interpolants/Sheppard_fwd.hpp Pages: 1 -->
<svg width="525pt" height="236pt"
 viewBox="0.00 0.00 525.00 236.00" xmlns="http://www.w3.org/2000/svg" xmlns:xlink="http://www.w3.org/1999/xlink">
<g id="graph0" class="graph" transform="scale(1 1) rotate(0) translate(4 232)">
<title>include/medusa/bits/interpolants/Sheppard_fwd.hpp</title>
<!-- Node1 -->
<g id="Node000001" class="node">
<title>Node1</title>
<g id="a_Node000001"><a xlink:title="Declaration of class for Sheppard&#39;s interpolant.">
<polygon fill="#999999" stroke="#666666" points="226,-228 99,-228 99,-187 226,-187 226,-228"/>
<text text-anchor="start" x="107" y="-216" font-family="Helvetica,sans-Serif" font-size="10.00">include/medusa/bits</text>
<text text-anchor="start" x="107" y="-205" font-family="Helvetica,sans-Serif" font-size="10.00">/interpolants/Sheppard</text>
<text text-anchor="middle" x="162.5" y="-194" font-family="Helvetica,sans-Serif" font-size="10.00">_fwd.hpp</text>
</a>
</g>
</g>
<!-- Node2 -->
<g id="Node000002" class="node">
<title>Node2</title>
<g id="a_Node000002"><a xlink:href="Interpolants__fwd_8hpp.html" target="_top" xlink:title="Header for Interpolants module, declarations only.">
<polygon fill="white" stroke="#666666" points="155,-151 0,-151 0,-121 155,-121 155,-151"/>
<text text-anchor="start" x="8" y="-139" font-family="Helvetica,sans-Serif" font-size="10.00">include/medusa/Interpolants</text>
<text text-anchor="middle" x="77.5" y="-128" font-family="Helvetica,sans-Serif" font-size="10.00">_fwd.hpp</text>
</a>
</g>
</g>
<!-- Node1&#45;&gt;Node2 -->
<g id="edge1_Node000001_Node000002" class="edge">
<title>Node1&#45;&gt;Node2</title>
<g id="a_edge1_Node000001_Node000002"><a xlink:title=" ">
<path fill="none" stroke="#63b8ff" d="M130.59,-180.41C118.4,-170.44 104.97,-159.46 94.67,-151.04"/>
<polygon fill="#63b8ff" stroke="#63b8ff" points="128.41,-183.15 138.37,-186.77 132.84,-177.73 128.41,-183.15"/>
</a>
</g>
</g>
<!-- Node5 -->
<g id="Node000005" class="node">
<title>Node5</title>
<g id="a_Node000005"><a xlink:href="Sheppard_8hpp.html" target="_top" xlink:title="Implementation of SheppardInterpolant class.">
<polygon fill="white" stroke="#666666" points="323.5,-151 175.5,-151 175.5,-121 323.5,-121 323.5,-151"/>
<text text-anchor="start" x="183.5" y="-139" font-family="Helvetica,sans-Serif" font-size="10.00">include/medusa/bits</text>
<text text-anchor="middle" x="249.5" y="-128" font-family="Helvetica,sans-Serif" font-size="10.00">/interpolants/Sheppard.hpp</text>
</a>
</g>
</g>
<!-- Node1&#45;&gt;Node5 -->
<g id="edge4_Node000001_Node000005" class="edge">
<title>Node1&#45;&gt;Node5</title>
<g id="a_edge4_Node000001_Node000005"><a xlink:title=" ">
<path fill="none" stroke="#63b8ff" d="M195.17,-180.41C207.64,-170.44 221.38,-159.46 231.93,-151.04"/>
<polygon fill="#63b8ff" stroke="#63b8ff" points="192.83,-177.79 187.2,-186.77 197.2,-183.26 192.83,-177.79"/>
</a>
</g>
</g>
<!-- Node3 -->
<g id="Node000003" class="node">
<title>Node3</title>
<g id="a_Node000003"><a xlink:href="Medusa__fwd_8hpp.html" target="_top" xlink:title="Main header file that includes only declarations for some heavy classes such as mm::WLS to reduce com...">
<polygon fill="white" stroke="#666666" points="143,-85 8,-85 8,-55 143,-55 143,-85"/>
<text text-anchor="start" x="16" y="-73" font-family="Helvetica,sans-Serif" font-size="10.00">include/medusa/Medusa</text>
<text text-anchor="middle" x="75.5" y="-62" font-family="Helvetica,sans-Serif" font-size="10.00">_fwd.hpp</text>
</a>
</g>
</g>
<!-- Node2&#45;&gt;Node3 -->
<g id="edge2_Node000002_Node000003" class="edge">
<title>Node2&#45;&gt;Node3</title>
<g id="a_edge2_Node000002_Node000003"><a xlink:title=" ">
<path fill="none" stroke="#63b8ff" d="M76.74,-110.54C76.47,-101.96 76.18,-92.61 75.94,-85.16"/>
<polygon fill="#63b8ff" stroke="#63b8ff" points="73.25,-110.91 77.06,-120.8 80.24,-110.69 73.25,-110.91"/>
</a>
</g>
</g>
<!-- Node4 -->
<g id="Node000004" class="node">
<title>Node4</title>
<g id="a_Node000004"><a xlink:href="Medusa_8hpp.html" target="_top" xlink:title="Main header file that includes most other components.">
<polygon fill="white" stroke="#666666" points="240.5,-19 84.5,-19 84.5,0 240.5,0 240.5,-19"/>
<text text-anchor="middle" x="162.5" y="-7" font-family="Helvetica,sans-Serif" font-size="10.00">include/medusa/Medusa.hpp</text>
</a>
</g>
</g>
<!-- Node3&#45;&gt;Node4 -->
<g id="edge3_Node000003_Node000004" class="edge">
<title>Node3&#45;&gt;Node4</title>
<g id="a_edge3_Node000003_Node000004"><a xlink:title=" ">
<path fill="none" stroke="#63b8ff" d="M105.15,-49.06C120.34,-38.85 138.04,-26.95 149.72,-19.09"/>
<polygon fill="#63b8ff" stroke="#63b8ff" points="102.91,-46.35 96.56,-54.84 106.81,-52.16 102.91,-46.35"/>
</a>
</g>
</g>
<!-- Node6 -->
<g id="Node000006" class="node">
<title>Node6</title>
<g id="a_Node000006"><a xlink:href="Interpolants_8hpp.html" target="_top" xlink:title="Header for Interpolants module.">
<polygon fill="white" stroke="#666666" points="337.5,-79.5 161.5,-79.5 161.5,-60.5 337.5,-60.5 337.5,-79.5"/>
<text text-anchor="middle" x="249.5" y="-67.5" font-family="Helvetica,sans-Serif" font-size="10.00">include/medusa/Interpolants.hpp</text>
</a>
</g>
</g>
<!-- Node5&#45;&gt;Node6 -->
<g id="edge5_Node000005_Node000006" class="edge">
<title>Node5&#45;&gt;Node6</title>
<g id="a_edge5_Node000005_Node000006"><a xlink:title=" ">
<path fill="none" stroke="#63b8ff" d="M249.5,-110.6C249.5,-99.8 249.5,-87.78 249.5,-79.84"/>
<polygon fill="#63b8ff" stroke="#63b8ff" points="246,-110.8 249.5,-120.8 253,-110.8 246,-110.8"/>
</a>
</g>
</g>
<!-- Node7 -->
<g id="Node000007" class="node">
<title>Node7</title>
<g id="a_Node000007"><a xlink:href="Sheppard_8cpp.html" target="_top" xlink:title="Instantiation of class for Sheppard&#39;s interpolants.">
<polygon fill="white" stroke="#666666" points="517,-79.5 356,-79.5 356,-60.5 517,-60.5 517,-79.5"/>
<text text-anchor="middle" x="436.5" y="-67.5" font-family="Helvetica,sans-Serif" font-size="10.00">src/interpolants/Sheppard.cpp</text>
</a>
</g>
</g>
<!-- Node5&#45;&gt;Node7 -->
<g id="edge7_Node000005_Node000007" class="edge">
<title>Node5&#45;&gt;Node7</title>
<g id="a_edge7_Node000005_Node000007"><a xlink:title=" ">
<path fill="none" stroke="#63b8ff" d="M300.41,-117.58C336.5,-105.23 383.36,-89.19 411.61,-79.52"/>
<polygon fill="#63b8ff" stroke="#63b8ff" points="298.87,-114.41 290.54,-120.95 301.13,-121.03 298.87,-114.41"/>
</a>
</g>
</g>
<!-- Node6&#45;&gt;Node4 -->
<g id="edge6_Node000006_Node000004" class="edge">
<title>Node6&#45;&gt;Node4</title>
<g id="a_edge6_Node000006_Node000004"><a xlink:title=" ">
<path fill="none" stroke="#63b8ff" d="M228.17,-54.66C211.64,-43.55 189.29,-28.51 175.39,-19.17"/>
<polygon fill="#63b8ff" stroke="#63b8ff" points="226.41,-57.69 236.66,-60.37 230.32,-51.88 226.41,-57.69"/>
</a>
</g>
</g>
</g>
</svg>
