<?xml version="1.0" encoding="UTF-8" standalone="no"?>
<!DOCTYPE svg PUBLIC "-//W3C//DTD SVG 1.1//EN"
 "http://www.w3.org/Graphics/SVG/1.1/DTD/svg11.dtd">
<!-- Generated by graphviz version 2.43.0 (0)
 -->
<!-- Title: include/medusa/bits/utils/stdtypesutils.hpp Pages: 1 -->
<!--zoomable 511 -->

<svg id="main" version="1.1" xmlns="http://www.w3.org/2000/svg" xmlns:xlink="http://www.w3.org/1999/xlink" xml:space="preserve" onload="init(evt)">
<style type="text/css"><![CDATA[
.node, .edge {opacity: 0.7;}
.node.selected, .edge.selected {opacity: 1;}
.edge:hover path { stroke: red; }
.edge:hover polygon { stroke: red; fill: red; }
]]></style>

<defs>
  <circle id="rim" cx="0" cy="0" r="7"/>
  <circle id="rim2" cx="0" cy="0" r="3.5"/>
  <g id="zoomPlus">
    <use xlink:href="#rim" fill="#404040"><set attributeName="fill" to="#808080" begin="zoomplus.mouseover" end="zoomplus.mouseout"/></use>
    <path d="M-4,0h8M0,-4v8" fill="none" stroke="white" stroke-width="1.5" pointer-events="none"/>
  </g>
  <g id="zoomMin">
    <use xlink:href="#rim" fill="#404040"><set attributeName="fill" to="#808080" begin="zoomminus.mouseover" end="zoomminus.mouseout"/></use>
    <path d="M-4,0h8" fill="none" stroke="white" stroke-width="1.5" pointer-events="none"/>
  </g>
  <g id="arrowUp" transform="translate(30 24)">
    <use xlink:href="#rim"/>
    <path pointer-events="none" fill="none" stroke="white" stroke-width="1.5" d="M0,-3.0v7 M-2.5,-0.5L0,-3.0L2.5,-0.5"/>
  </g>
  <g id="arrowRight" transform="rotate(90) translate(36 -43)">
    <use xlink:href="#rim"/>
    <path pointer-events="none" fill="none" stroke="white" stroke-width="1.5" d="M0,-3.0v7 M-2.5,-0.5L0,-3.0L2.5,-0.5"/>
  </g>
  <g id="arrowDown" transform="rotate(180) translate(-30 -48)">
    <use xlink:href="#rim"/>
    <path pointer-events="none" fill="none" stroke="white" stroke-width="1.5" d="M0,-3.0v7 M-2.5,-0.5L0,-3.0L2.5,-0.5"/>
  </g>
  <g id="arrowLeft" transform="rotate(270) translate(-36 17)">
    <use xlink:href="#rim"/>
    <path pointer-events="none" fill="none" stroke="white" stroke-width="1.5" d="M0,-3.0v7 M-2.5,-0.5L0,-3.0L2.5,-0.5"/>
  </g>
  <g id="resetDef">
    <use xlink:href="#rim2" fill="#404040"><set attributeName="fill" to="#808080" begin="reset.mouseover" end="reset.mouseout"/></use>
  </g>
</defs>
<script type="application/ecmascript">
var viewWidth = 1568;
var viewHeight = 511;
var sectionId = 'dynsection-1';
</script>
<script type="application/ecmascript" xlink:href="svg.min.js"/>
<svg id="graph" class="graph">
<g id="viewport">
<title>include/medusa/bits/utils/stdtypesutils.hpp</title>
<!-- Node1 -->
<g id="Node000001" class="node">
<title>Node1</title>
<g id="a_Node000001"><a xlink:title="Declaration of utilities for std types.">
<polygon fill="#999999" stroke="#666666" points="821,-503 693,-503 693,-473 821,-473 821,-503"/>
<text text-anchor="start" x="701" y="-491" font-family="Helvetica,sans-Serif" font-size="10.00">include/medusa/bits</text>
<text text-anchor="middle" x="757" y="-480" font-family="Helvetica,sans-Serif" font-size="10.00">/utils/stdtypesutils.hpp</text>
</a>
</g>
</g>
<!-- Node2 -->
<g id="Node000002" class="node">
<title>Node2</title>
<g id="a_Node000002"><a xlink:href="Utils_8hpp.html" target="_top" xlink:title="Header for Utils module.">
<polygon fill="white" stroke="#666666" points="208,-140 68,-140 68,-121 208,-121 208,-140"/>
<text text-anchor="middle" x="138" y="-128" font-family="Helvetica,sans-Serif" font-size="10.00">include/medusa/Utils.hpp</text>
</a>
</g>
</g>
<!-- Node1&#45;&gt;Node2 -->
<g id="edge1_Node000001_Node000002" class="edge">
<title>Node1&#45;&gt;Node2</title>
<g id="a_edge1_Node000001_Node000002"><a xlink:title=" ">
<path fill="none" stroke="#63b8ff" d="M682.56,-480.39C491.74,-462.46 0,-409.55 0,-340.5 0,-340.5 0,-340.5 0,-261.5 0,-198.47 77.22,-156.99 116.13,-140.1"/>
<polygon fill="#63b8ff" stroke="#63b8ff" points="682.5,-483.9 692.79,-481.35 683.15,-476.93 682.5,-483.9"/>
</a>
</g>
</g>
<!-- Node5 -->
<g id="Node000005" class="node">
<title>Node5</title>
<g id="a_Node000005"><a xlink:href="ShapeStorage__fwd_8hpp.html" target="_top" xlink:title="Base class and interface for storing and accessing computed shapes.">
<polygon fill="white" stroke="#666666" points="740.5,-437 603.5,-437 603.5,-396 740.5,-396 740.5,-437"/>
<text text-anchor="start" x="611.5" y="-425" font-family="Helvetica,sans-Serif" font-size="10.00">include/medusa/bits</text>
<text text-anchor="start" x="611.5" y="-414" font-family="Helvetica,sans-Serif" font-size="10.00">/operators/ShapeStorage</text>
<text text-anchor="middle" x="672" y="-403" font-family="Helvetica,sans-Serif" font-size="10.00">_fwd.hpp</text>
</a>
</g>
</g>
<!-- Node1&#45;&gt;Node5 -->
<g id="edge5_Node000001_Node000005" class="edge">
<title>Node1&#45;&gt;Node5</title>
<g id="a_edge5_Node000001_Node000005"><a xlink:title=" ">
<path fill="none" stroke="#63b8ff" d="M731.93,-466.5C720.56,-457.21 707.17,-446.26 695.94,-437.07"/>
<polygon fill="#63b8ff" stroke="#63b8ff" points="729.84,-469.32 739.8,-472.94 734.27,-463.9 729.84,-469.32"/>
</a>
</g>
</g>
<!-- Node23 -->
<g id="Node000023" class="node">
<title>Node23</title>
<g id="a_Node000023"><a xlink:href="computeShapes_8hpp.html" target="_top" xlink:title="Implementations of shape function computation utilities.">
<polygon fill="white" stroke="#666666" points="1242,-431.5 1074,-431.5 1074,-401.5 1242,-401.5 1242,-431.5"/>
<text text-anchor="start" x="1082" y="-419.5" font-family="Helvetica,sans-Serif" font-size="10.00">include/medusa/bits</text>
<text text-anchor="middle" x="1158" y="-408.5" font-family="Helvetica,sans-Serif" font-size="10.00">/operators/computeShapes.hpp</text>
</a>
</g>
</g>
<!-- Node1&#45;&gt;Node23 -->
<g id="edge35_Node000001_Node000023" class="edge">
<title>Node1&#45;&gt;Node23</title>
<g id="a_edge35_Node000001_Node000023"><a xlink:title=" ">
<path fill="none" stroke="#63b8ff" d="M831.47,-474.09C901.26,-462 1005.32,-443.96 1077.12,-431.52"/>
<polygon fill="#63b8ff" stroke="#63b8ff" points="830.68,-470.68 821.43,-475.83 831.88,-477.57 830.68,-470.68"/>
</a>
</g>
</g>
<!-- Node25 -->
<g id="Node000025" class="node">
<title>Node25</title>
<g id="a_Node000025"><a xlink:href="stdtypesutils_8cpp.html" target="_top" xlink:title="Implementation of utilities for std types.">
<polygon fill="white" stroke="#666666" points="1401.5,-426 1260.5,-426 1260.5,-407 1401.5,-407 1401.5,-426"/>
<text text-anchor="middle" x="1331" y="-414" font-family="Helvetica,sans-Serif" font-size="10.00">src/utils/stdtypesutils.cpp</text>
</a>
</g>
</g>
<!-- Node1&#45;&gt;Node25 -->
<g id="edge38_Node000001_Node000025" class="edge">
<title>Node1&#45;&gt;Node25</title>
<g id="a_edge38_Node000001_Node000025"><a xlink:title=" ">
<path fill="none" stroke="#63b8ff" d="M831.34,-482.69C928.39,-476.33 1103.3,-462.35 1251,-437 1267.48,-434.17 1285.61,-429.85 1300.44,-426"/>
<polygon fill="#63b8ff" stroke="#63b8ff" points="831.08,-479.2 821.33,-483.34 831.53,-486.18 831.08,-479.2"/>
</a>
</g>
</g>
<!-- Node3 -->
<g id="Node000003" class="node">
<title>Node3</title>
<g id="a_Node000003"><a xlink:href="Medusa_8hpp.html" target="_top" xlink:title="Main header file that includes most other components.">
<polygon fill="white" stroke="#666666" points="519,-19 363,-19 363,0 519,0 519,-19"/>
<text text-anchor="middle" x="441" y="-7" font-family="Helvetica,sans-Serif" font-size="10.00">include/medusa/Medusa.hpp</text>
</a>
</g>
</g>
<!-- Node2&#45;&gt;Node3 -->
<g id="edge2_Node000002_Node000003" class="edge">
<title>Node2&#45;&gt;Node3</title>
<g id="a_edge2_Node000002_Node000003"><a xlink:title=" ">
<path fill="none" stroke="#63b8ff" d="M169.35,-117.19C230.86,-93.03 365.95,-39.97 419,-19.14"/>
<polygon fill="#63b8ff" stroke="#63b8ff" points="167.82,-114.03 159.79,-120.94 170.38,-120.54 167.82,-114.03"/>
</a>
</g>
</g>
<!-- Node4 -->
<g id="Node000004" class="node">
<title>Node4</title>
<g id="a_Node000004"><a xlink:href="Medusa__fwd_8hpp.html" target="_top" xlink:title="Main header file that includes only declarations for some heavy classes such as mm::WLS to reduce com...">
<polygon fill="white" stroke="#666666" points="508.5,-85 373.5,-85 373.5,-55 508.5,-55 508.5,-85"/>
<text text-anchor="start" x="381.5" y="-73" font-family="Helvetica,sans-Serif" font-size="10.00">include/medusa/Medusa</text>
<text text-anchor="middle" x="441" y="-62" font-family="Helvetica,sans-Serif" font-size="10.00">_fwd.hpp</text>
</a>
</g>
</g>
<!-- Node2&#45;&gt;Node4 -->
<g id="edge3_Node000002_Node000004" class="edge">
<title>Node2&#45;&gt;Node4</title>
<g id="a_edge3_Node000002_Node000004"><a xlink:title=" ">
<path fill="none" stroke="#63b8ff" d="M192.16,-119.04C242.84,-109.26 318.73,-94.61 373.37,-84.06"/>
<polygon fill="#63b8ff" stroke="#63b8ff" points="191.21,-115.66 182.06,-120.99 192.54,-122.53 191.21,-115.66"/>
</a>
</g>
</g>
<!-- Node4&#45;&gt;Node3 -->
<g id="edge4_Node000004_Node000003" class="edge">
<title>Node4&#45;&gt;Node3</title>
<g id="a_edge4_Node000004_Node000003"><a xlink:title=" ">
<path fill="none" stroke="#63b8ff" d="M441,-44.75C441,-35.72 441,-26.03 441,-19.27"/>
<polygon fill="#63b8ff" stroke="#63b8ff" points="437.5,-44.84 441,-54.84 444.5,-44.84 437.5,-44.84"/>
</a>
</g>
</g>
<!-- Node6 -->
<g id="Node000006" class="node">
<title>Node6</title>
<g id="a_Node000006"><a xlink:href="ExplicitOperators_8hpp.html" target="_top" xlink:title="Explicit operators implementation.">
<polygon fill="white" stroke="#666666" points="236,-206 62,-206 62,-176 236,-176 236,-206"/>
<text text-anchor="start" x="70" y="-194" font-family="Helvetica,sans-Serif" font-size="10.00">include/medusa/bits</text>
<text text-anchor="middle" x="149" y="-183" font-family="Helvetica,sans-Serif" font-size="10.00">/operators/ExplicitOperators.hpp</text>
</a>
</g>
</g>
<!-- Node5&#45;&gt;Node6 -->
<g id="edge6_Node000005_Node000006" class="edge">
<title>Node5&#45;&gt;Node6</title>
<g id="a_edge6_Node000005_Node000006"><a xlink:title=" ">
<path fill="none" stroke="#63b8ff" d="M593.11,-411.94C445.62,-404.7 139.31,-386.64 99,-360 52.56,-329.31 28.55,-289.85 57,-242 66.94,-225.28 84.65,-213.8 101.88,-206.11"/>
<polygon fill="#63b8ff" stroke="#63b8ff" points="593.29,-415.45 603.45,-412.44 593.63,-408.46 593.29,-415.45"/>
</a>
</g>
</g>
<!-- Node9 -->
<g id="Node000009" class="node">
<title>Node9</title>
<g id="a_Node000009"><a xlink:href="ExplicitVectorOperators_8hpp.html" target="_top" xlink:title="Explicit vector operators implementation.">
<polygon fill="white" stroke="#666666" points="874.5,-354.5 669.5,-354.5 669.5,-324.5 874.5,-324.5 874.5,-354.5"/>
<text text-anchor="start" x="677.5" y="-342.5" font-family="Helvetica,sans-Serif" font-size="10.00">include/medusa/bits</text>
<text text-anchor="middle" x="772" y="-331.5" font-family="Helvetica,sans-Serif" font-size="10.00">/operators/ExplicitVectorOperators.hpp</text>
</a>
</g>
</g>
<!-- Node5&#45;&gt;Node9 -->
<g id="edge11_Node000005_Node000009" class="edge">
<title>Node5&#45;&gt;Node9</title>
<g id="a_edge11_Node000005_Node000009"><a xlink:title=" ">
<path fill="none" stroke="#63b8ff" d="M706.42,-389.69C722.04,-377.97 739.93,-364.56 753.07,-354.7"/>
<polygon fill="#63b8ff" stroke="#63b8ff" points="703.91,-387.19 698.01,-395.99 708.11,-392.79 703.91,-387.19"/>
</a>
</g>
</g>
<!-- Node11 -->
<g id="Node000011" class="node">
<title>Node11</title>
<g id="a_Node000011"><a xlink:href="ImplicitOperators_8hpp.html" target="_top" xlink:title="Implementations of implicit operators.">
<polygon fill="white" stroke="#666666" points="1204.5,-354.5 1029.5,-354.5 1029.5,-324.5 1204.5,-324.5 1204.5,-354.5"/>
<text text-anchor="start" x="1037.5" y="-342.5" font-family="Helvetica,sans-Serif" font-size="10.00">include/medusa/bits</text>
<text text-anchor="middle" x="1117" y="-331.5" font-family="Helvetica,sans-Serif" font-size="10.00">/operators/ImplicitOperators.hpp</text>
</a>
</g>
</g>
<!-- Node5&#45;&gt;Node11 -->
<g id="edge14_Node000005_Node000011" class="edge">
<title>Node5&#45;&gt;Node11</title>
<g id="a_edge14_Node000005_Node000011"><a xlink:title=" ">
<path fill="none" stroke="#63b8ff" d="M750.51,-402.27C829.97,-388.88 952.38,-368.24 1033.57,-354.56"/>
<polygon fill="#63b8ff" stroke="#63b8ff" points="749.84,-398.83 740.56,-403.95 751,-405.73 749.84,-398.83"/>
</a>
</g>
</g>
<!-- Node12 -->
<g id="Node000012" class="node">
<title>Node12</title>
<g id="a_Node000012"><a xlink:href="ImplicitVectorOperators_8hpp.html" target="_top" xlink:title="Implementations of implicit vector operators.">
<polygon fill="white" stroke="#666666" points="1078,-277.5 872,-277.5 872,-247.5 1078,-247.5 1078,-277.5"/>
<text text-anchor="start" x="880" y="-265.5" font-family="Helvetica,sans-Serif" font-size="10.00">include/medusa/bits</text>
<text text-anchor="middle" x="975" y="-254.5" font-family="Helvetica,sans-Serif" font-size="10.00">/operators/ImplicitVectorOperators.hpp</text>
</a>
</g>
</g>
<!-- Node5&#45;&gt;Node12 -->
<g id="edge20_Node000005_Node000012" class="edge">
<title>Node5&#45;&gt;Node12</title>
<g id="a_edge20_Node000005_Node000012"><a xlink:title=" ">
<path fill="none" stroke="#63b8ff" d="M750.86,-405.37C792.33,-397.49 842.77,-383.75 883,-360 919.28,-338.59 950.47,-298.85 965.48,-277.66"/>
<polygon fill="#63b8ff" stroke="#63b8ff" points="750,-401.96 740.79,-407.19 751.26,-408.85 750,-401.96"/>
</a>
</g>
</g>
<!-- Node15 -->
<g id="Node000015" class="node">
<title>Node15</title>
<g id="a_Node000015"><a xlink:href="RaggedShapeStorage__fwd_8hpp.html" target="_top" xlink:title="Declaration of shape storage for shapes of different sizes.">
<polygon fill="white" stroke="#666666" points="281.5,-360 108.5,-360 108.5,-319 281.5,-319 281.5,-360"/>
<text text-anchor="start" x="116.5" y="-348" font-family="Helvetica,sans-Serif" font-size="10.00">include/medusa/bits</text>
<text text-anchor="start" x="116.5" y="-337" font-family="Helvetica,sans-Serif" font-size="10.00">/operators/RaggedShapeStorage</text>
<text text-anchor="middle" x="195" y="-326" font-family="Helvetica,sans-Serif" font-size="10.00">_fwd.hpp</text>
</a>
</g>
</g>
<!-- Node5&#45;&gt;Node15 -->
<g id="edge21_Node000005_Node000015" class="edge">
<title>Node5&#45;&gt;Node15</title>
<g id="a_edge21_Node000005_Node000015"><a xlink:title=" ">
<path fill="none" stroke="#63b8ff" d="M593.21,-405.33C516.02,-395.05 395.14,-378.15 291,-360 287.9,-359.46 284.75,-358.9 281.57,-358.31"/>
<polygon fill="#63b8ff" stroke="#63b8ff" points="592.96,-408.83 603.33,-406.67 593.88,-401.89 592.96,-408.83"/>
</a>
</g>
</g>
<!-- Node19 -->
<g id="Node000019" class="node">
<title>Node19</title>
<g id="a_Node000019"><a xlink:href="ShapeStorage_8hpp.html" target="_top" xlink:title="Implementations of the ShapeStorage interface.">
<polygon fill="white" stroke="#666666" points="652,-354.5 494,-354.5 494,-324.5 652,-324.5 652,-354.5"/>
<text text-anchor="start" x="502" y="-342.5" font-family="Helvetica,sans-Serif" font-size="10.00">include/medusa/bits</text>
<text text-anchor="middle" x="573" y="-331.5" font-family="Helvetica,sans-Serif" font-size="10.00">/operators/ShapeStorage.hpp</text>
</a>
</g>
</g>
<!-- Node5&#45;&gt;Node19 -->
<g id="edge27_Node000005_Node000019" class="edge">
<title>Node5&#45;&gt;Node19</title>
<g id="a_edge27_Node000005_Node000019"><a xlink:title=" ">
<path fill="none" stroke="#63b8ff" d="M637.93,-389.69C622.46,-377.97 604.75,-364.56 591.74,-354.7"/>
<polygon fill="#63b8ff" stroke="#63b8ff" points="636.16,-392.74 646.25,-395.99 640.39,-387.16 636.16,-392.74"/>
</a>
</g>
</g>
<!-- Node22 -->
<g id="Node000022" class="node">
<title>Node22</title>
<g id="a_Node000022"><a xlink:href="UniformShapeStorage__fwd_8hpp.html" target="_top" xlink:title="Declaration of shape storage for uniformly long shapes.">
<polygon fill="white" stroke="#666666" points="476,-360 300,-360 300,-319 476,-319 476,-360"/>
<text text-anchor="start" x="308" y="-348" font-family="Helvetica,sans-Serif" font-size="10.00">include/medusa/bits</text>
<text text-anchor="start" x="308" y="-337" font-family="Helvetica,sans-Serif" font-size="10.00">/operators/UniformShapeStorage</text>
<text text-anchor="middle" x="388" y="-326" font-family="Helvetica,sans-Serif" font-size="10.00">_fwd.hpp</text>
</a>
</g>
</g>
<!-- Node5&#45;&gt;Node22 -->
<g id="edge32_Node000005_Node000022" class="edge">
<title>Node5&#45;&gt;Node22</title>
<g id="a_edge32_Node000005_Node000022"><a xlink:title=" ">
<path fill="none" stroke="#63b8ff" d="M593.56,-394.78C552.49,-383.94 502.49,-370.73 462.08,-360.06"/>
<polygon fill="#63b8ff" stroke="#63b8ff" points="592.69,-398.18 603.25,-397.34 594.48,-391.41 592.69,-398.18"/>
</a>
</g>
</g>
<!-- Node7 -->
<g id="Node000007" class="node">
<title>Node7</title>
<g id="a_Node000007"><a xlink:href="Operators_8hpp.html" target="_top" xlink:title="Header for Operators module.">
<polygon fill="white" stroke="#666666" points="735,-140 569,-140 569,-121 735,-121 735,-140"/>
<text text-anchor="middle" x="652" y="-128" font-family="Helvetica,sans-Serif" font-size="10.00">include/medusa/Operators.hpp</text>
</a>
</g>
</g>
<!-- Node6&#45;&gt;Node7 -->
<g id="edge7_Node000006_Node000007" class="edge">
<title>Node6&#45;&gt;Node7</title>
<g id="a_edge7_Node000006_Node000007"><a xlink:title=" ">
<path fill="none" stroke="#63b8ff" d="M246.39,-176.58C247.94,-176.38 249.48,-176.19 251,-176 361,-162.35 488.24,-148.57 569.37,-140.04"/>
<polygon fill="#63b8ff" stroke="#63b8ff" points="245.54,-173.16 236.06,-177.9 246.43,-180.1 245.54,-173.16"/>
</a>
</g>
</g>
<!-- Node8 -->
<g id="Node000008" class="node">
<title>Node8</title>
<g id="a_Node000008"><a xlink:href="ExplicitOperators_8cpp.html" target="_top" xlink:title="Explicit operators implementation.">
<polygon fill="white" stroke="#666666" points="414,-140 226,-140 226,-121 414,-121 414,-140"/>
<text text-anchor="middle" x="320" y="-128" font-family="Helvetica,sans-Serif" font-size="10.00">src/operators/ExplicitOperators.cpp</text>
</a>
</g>
</g>
<!-- Node6&#45;&gt;Node8 -->
<g id="edge10_Node000006_Node000008" class="edge">
<title>Node6&#45;&gt;Node8</title>
<g id="a_edge10_Node000006_Node000008"><a xlink:title=" ">
<path fill="none" stroke="#63b8ff" d="M199.42,-172.75C230.78,-162.02 269.75,-148.69 294.75,-140.14"/>
<polygon fill="#63b8ff" stroke="#63b8ff" points="198.29,-169.44 189.96,-175.99 200.55,-176.06 198.29,-169.44"/>
</a>
</g>
</g>
<!-- Node7&#45;&gt;Node3 -->
<g id="edge8_Node000007_Node000003" class="edge">
<title>Node7&#45;&gt;Node3</title>
<g id="a_edge8_Node000007_Node000003"><a xlink:title=" ">
<path fill="none" stroke="#63b8ff" d="M628.01,-115.97C584.25,-91.29 492.65,-39.63 456.32,-19.14"/>
<polygon fill="#63b8ff" stroke="#63b8ff" points="626.4,-119.08 636.83,-120.94 629.83,-112.98 626.4,-119.08"/>
</a>
</g>
</g>
<!-- Node7&#45;&gt;Node4 -->
<g id="edge9_Node000007_Node000004" class="edge">
<title>Node7&#45;&gt;Node4</title>
<g id="a_edge9_Node000007_Node000004"><a xlink:title=" ">
<path fill="none" stroke="#63b8ff" d="M611.68,-118.32C577.57,-108.86 528.5,-95.26 491.73,-85.06"/>
<polygon fill="#63b8ff" stroke="#63b8ff" points="610.75,-121.69 621.32,-120.99 612.62,-114.95 610.75,-121.69"/>
</a>
</g>
</g>
<!-- Node9&#45;&gt;Node7 -->
<g id="edge12_Node000009_Node000007" class="edge">
<title>Node9&#45;&gt;Node7</title>
<g id="a_edge12_Node000009_Node000007"><a xlink:title=" ">
<path fill="none" stroke="#63b8ff" d="M799.19,-317.79C809.31,-308.4 819.63,-296.4 825,-283 831.78,-266.09 833.76,-257.98 825,-242 794.18,-185.74 721.17,-153.97 680.54,-140.06"/>
<polygon fill="#63b8ff" stroke="#63b8ff" points="796.81,-315.22 791.58,-324.43 801.41,-320.49 796.81,-315.22"/>
</a>
</g>
</g>
<!-- Node10 -->
<g id="Node000010" class="node">
<title>Node10</title>
<g id="a_Node000010"><a xlink:href="ExplicitVectorOperators_8cpp.html" target="_top" xlink:title="Explicit vector operators implementation.">
<polygon fill="white" stroke="#666666" points="816,-277.5 666,-277.5 666,-247.5 816,-247.5 816,-277.5"/>
<text text-anchor="start" x="674" y="-265.5" font-family="Helvetica,sans-Serif" font-size="10.00">src/operators/ExplicitVector</text>
<text text-anchor="middle" x="741" y="-254.5" font-family="Helvetica,sans-Serif" font-size="10.00">Operators.cpp</text>
</a>
</g>
</g>
<!-- Node9&#45;&gt;Node10 -->
<g id="edge13_Node000009_Node000010" class="edge">
<title>Node9&#45;&gt;Node10</title>
<g id="a_edge13_Node000009_Node000010"><a xlink:title=" ">
<path fill="none" stroke="#63b8ff" d="M762.35,-315.15C757.25,-302.82 751.17,-288.11 746.8,-277.54"/>
<polygon fill="#63b8ff" stroke="#63b8ff" points="759.11,-316.49 766.17,-324.39 765.58,-313.81 759.11,-316.49"/>
</a>
</g>
</g>
<!-- Node11&#45;&gt;Node7 -->
<g id="edge15_Node000011_Node000007" class="edge">
<title>Node11&#45;&gt;Node7</title>
<g id="a_edge15_Node000011_Node000007"><a xlink:title=" ">
<path fill="none" stroke="#63b8ff" d="M1215.05,-329.88C1244.89,-322.11 1274.62,-308.07 1293,-283 1303.77,-268.3 1304.07,-256.48 1293,-242 1226.51,-155.04 893.09,-136.42 735.18,-132.5"/>
<polygon fill="#63b8ff" stroke="#63b8ff" points="1213.86,-326.56 1204.94,-332.28 1215.48,-333.37 1213.86,-326.56"/>
</a>
</g>
</g>
<!-- Node11&#45;&gt;Node12 -->
<g id="edge16_Node000011_Node000012" class="edge">
<title>Node11&#45;&gt;Node12</title>
<g id="a_edge16_Node000011_Node000012"><a xlink:title=" ">
<path fill="none" stroke="#63b8ff" d="M1081.22,-319.6C1056.46,-306.53 1024.07,-289.41 1001.59,-277.54"/>
<polygon fill="#63b8ff" stroke="#63b8ff" points="1079.81,-322.82 1090.29,-324.39 1083.08,-316.63 1079.81,-322.82"/>
</a>
</g>
</g>
<!-- Node14 -->
<g id="Node000014" class="node">
<title>Node14</title>
<g id="a_Node000014"><a xlink:href="ImplicitOperators_8cpp.html" target="_top" xlink:title="Instantiations of implicit operators.">
<polygon fill="white" stroke="#666666" points="1284,-272 1096,-272 1096,-253 1284,-253 1284,-272"/>
<text text-anchor="middle" x="1190" y="-260" font-family="Helvetica,sans-Serif" font-size="10.00">src/operators/ImplicitOperators.cpp</text>
</a>
</g>
</g>
<!-- Node11&#45;&gt;Node14 -->
<g id="edge19_Node000011_Node000014" class="edge">
<title>Node11&#45;&gt;Node14</title>
<g id="a_edge19_Node000011_Node000014"><a xlink:title=" ">
<path fill="none" stroke="#63b8ff" d="M1137.84,-317.08C1152.27,-302.27 1170.72,-283.31 1181.36,-272.37"/>
<polygon fill="#63b8ff" stroke="#63b8ff" points="1135.2,-314.79 1130.73,-324.39 1140.21,-319.67 1135.2,-314.79"/>
</a>
</g>
</g>
<!-- Node12&#45;&gt;Node7 -->
<g id="edge17_Node000012_Node000007" class="edge">
<title>Node12&#45;&gt;Node7</title>
<g id="a_edge17_Node000012_Node000007"><a xlink:title=" ">
<path fill="none" stroke="#63b8ff" d="M1003.99,-241.08C1026.18,-223.01 1050.17,-196.42 1032,-176 1012.63,-154.23 841.23,-141.39 735.35,-135.47"/>
<polygon fill="#63b8ff" stroke="#63b8ff" points="1001.71,-238.42 995.97,-247.33 1006.01,-243.94 1001.71,-238.42"/>
</a>
</g>
</g>
<!-- Node13 -->
<g id="Node000013" class="node">
<title>Node13</title>
<g id="a_Node000013"><a xlink:href="ImplicitVectorOperators_8cpp.html" target="_top" xlink:title="Instantiations of implicit vector operators.">
<polygon fill="white" stroke="#666666" points="1023.5,-206 872.5,-206 872.5,-176 1023.5,-176 1023.5,-206"/>
<text text-anchor="start" x="880.5" y="-194" font-family="Helvetica,sans-Serif" font-size="10.00">src/operators/ImplicitVector</text>
<text text-anchor="middle" x="948" y="-183" font-family="Helvetica,sans-Serif" font-size="10.00">Operators.cpp</text>
</a>
</g>
</g>
<!-- Node12&#45;&gt;Node13 -->
<g id="edge18_Node000012_Node000013" class="edge">
<title>Node12&#45;&gt;Node13</title>
<g id="a_edge18_Node000012_Node000013"><a xlink:title=" ">
<path fill="none" stroke="#63b8ff" d="M965.83,-237.9C961.72,-227.31 957,-215.18 953.46,-206.04"/>
<polygon fill="#63b8ff" stroke="#63b8ff" points="962.65,-239.38 969.54,-247.44 969.18,-236.85 962.65,-239.38"/>
</a>
</g>
</g>
<!-- Node16 -->
<g id="Node000016" class="node">
<title>Node16</title>
<g id="a_Node000016"><a xlink:href="ExplicitOperators__fwd_8hpp.html" target="_top" xlink:title="Explicit operators declarations.">
<polygon fill="white" stroke="#666666" points="219.5,-283 66.5,-283 66.5,-242 219.5,-242 219.5,-283"/>
<text text-anchor="start" x="74.5" y="-271" font-family="Helvetica,sans-Serif" font-size="10.00">include/medusa/bits</text>
<text text-anchor="start" x="74.5" y="-260" font-family="Helvetica,sans-Serif" font-size="10.00">/operators/ExplicitOperators</text>
<text text-anchor="middle" x="143" y="-249" font-family="Helvetica,sans-Serif" font-size="10.00">_fwd.hpp</text>
</a>
</g>
</g>
<!-- Node15&#45;&gt;Node16 -->
<g id="edge22_Node000015_Node000016" class="edge">
<title>Node15&#45;&gt;Node16</title>
<g id="a_edge22_Node000015_Node000016"><a xlink:title=" ">
<path fill="none" stroke="#63b8ff" d="M175.51,-310.39C169.2,-301.3 162.35,-291.41 156.57,-283.07"/>
<polygon fill="#63b8ff" stroke="#63b8ff" points="172.76,-312.57 181.34,-318.79 178.52,-308.58 172.76,-312.57"/>
</a>
</g>
</g>
<!-- Node17 -->
<g id="Node000017" class="node">
<title>Node17</title>
<g id="a_Node000017"><a xlink:href="RaggedShapeStorage_8hpp.html" target="_top" xlink:title="Implementation of shape storage for shapes of different sizes.">
<polygon fill="white" stroke="#666666" points="432,-277.5 238,-277.5 238,-247.5 432,-247.5 432,-277.5"/>
<text text-anchor="start" x="246" y="-265.5" font-family="Helvetica,sans-Serif" font-size="10.00">include/medusa/bits</text>
<text text-anchor="middle" x="335" y="-254.5" font-family="Helvetica,sans-Serif" font-size="10.00">/operators/RaggedShapeStorage.hpp</text>
</a>
</g>
</g>
<!-- Node15&#45;&gt;Node17 -->
<g id="edge24_Node000015_Node000017" class="edge">
<title>Node15&#45;&gt;Node17</title>
<g id="a_edge24_Node000015_Node000017"><a xlink:title=" ">
<path fill="none" stroke="#63b8ff" d="M240.47,-314.14C262.96,-302.09 289.33,-287.97 308.49,-277.7"/>
<polygon fill="#63b8ff" stroke="#63b8ff" points="238.58,-311.18 231.42,-318.99 241.89,-317.35 238.58,-311.18"/>
</a>
</g>
</g>
<!-- Node16&#45;&gt;Node6 -->
<g id="edge23_Node000016_Node000006" class="edge">
<title>Node16&#45;&gt;Node6</title>
<g id="a_edge23_Node000016_Node000006"><a xlink:title=" ">
<path fill="none" stroke="#63b8ff" d="M145.58,-231.66C146.34,-222.76 147.15,-213.42 147.79,-206.04"/>
<polygon fill="#63b8ff" stroke="#63b8ff" points="142.08,-231.51 144.7,-241.77 149.05,-232.11 142.08,-231.51"/>
</a>
</g>
</g>
<!-- Node17&#45;&gt;Node7 -->
<g id="edge25_Node000017_Node000007" class="edge">
<title>Node17&#45;&gt;Node7</title>
<g id="a_edge25_Node000017_Node000007"><a xlink:title=" ">
<path fill="none" stroke="#63b8ff" d="M365.37,-241.82C381.41,-231.32 401.38,-218.11 419,-206 437.91,-193.01 440.1,-185.45 461,-176 501.18,-157.84 549.58,-146.66 587.61,-140.05"/>
<polygon fill="#63b8ff" stroke="#63b8ff" points="363.36,-238.95 356.9,-247.34 367.19,-244.81 363.36,-238.95"/>
</a>
</g>
</g>
<!-- Node18 -->
<g id="Node000018" class="node">
<title>Node18</title>
<g id="a_Node000018"><a xlink:href="RaggedShapeStorage_8cpp.html" target="_top" xlink:title="Instantiations of shape storage for shapes of different sizes.">
<polygon fill="white" stroke="#666666" points="410,-206 260,-206 260,-176 410,-176 410,-206"/>
<text text-anchor="start" x="268" y="-194" font-family="Helvetica,sans-Serif" font-size="10.00">src/operators/RaggedShape</text>
<text text-anchor="middle" x="335" y="-183" font-family="Helvetica,sans-Serif" font-size="10.00">Storage.cpp</text>
</a>
</g>
</g>
<!-- Node17&#45;&gt;Node18 -->
<g id="edge26_Node000017_Node000018" class="edge">
<title>Node17&#45;&gt;Node18</title>
<g id="a_edge26_Node000017_Node000018"><a xlink:title=" ">
<path fill="none" stroke="#63b8ff" d="M335,-237.25C335,-226.81 335,-214.99 335,-206.04"/>
<polygon fill="#63b8ff" stroke="#63b8ff" points="331.5,-237.44 335,-247.44 338.5,-237.44 331.5,-237.44"/>
</a>
</g>
</g>
<!-- Node19&#45;&gt;Node17 -->
<g id="edge28_Node000019_Node000017" class="edge">
<title>Node19&#45;&gt;Node17</title>
<g id="a_edge28_Node000019_Node000017"><a xlink:title=" ">
<path fill="none" stroke="#63b8ff" d="M518.71,-321.39C476.65,-308.14 419.09,-290 379.67,-277.58"/>
<polygon fill="#63b8ff" stroke="#63b8ff" points="517.92,-324.81 528.51,-324.48 520.03,-318.14 517.92,-324.81"/>
</a>
</g>
</g>
<!-- Node20 -->
<g id="Node000020" class="node">
<title>Node20</title>
<g id="a_Node000020"><a xlink:href="UniformShapeStorage_8hpp.html" target="_top" xlink:title="Implementation of shape storage for uniformly long shapes.">
<polygon fill="white" stroke="#666666" points="647.5,-277.5 450.5,-277.5 450.5,-247.5 647.5,-247.5 647.5,-277.5"/>
<text text-anchor="start" x="458.5" y="-265.5" font-family="Helvetica,sans-Serif" font-size="10.00">include/medusa/bits</text>
<text text-anchor="middle" x="549" y="-254.5" font-family="Helvetica,sans-Serif" font-size="10.00">/operators/UniformShapeStorage.hpp</text>
</a>
</g>
</g>
<!-- Node19&#45;&gt;Node20 -->
<g id="edge29_Node000019_Node000020" class="edge">
<title>Node19&#45;&gt;Node20</title>
<g id="a_edge29_Node000019_Node000020"><a xlink:title=" ">
<path fill="none" stroke="#63b8ff" d="M565.41,-314.78C561.49,-302.53 556.84,-288 553.49,-277.54"/>
<polygon fill="#63b8ff" stroke="#63b8ff" points="562.1,-315.94 568.49,-324.39 568.77,-313.8 562.1,-315.94"/>
</a>
</g>
</g>
<!-- Node20&#45;&gt;Node7 -->
<g id="edge30_Node000020_Node000007" class="edge">
<title>Node20&#45;&gt;Node7</title>
<g id="a_edge30_Node000020_Node000007"><a xlink:title=" ">
<path fill="none" stroke="#63b8ff" d="M589.28,-242.52C604.67,-233.43 621.11,-221.19 632,-206 646.67,-185.54 650.58,-154.95 651.62,-140.15"/>
<polygon fill="#63b8ff" stroke="#63b8ff" points="587.41,-239.55 580.4,-247.49 590.83,-245.66 587.41,-239.55"/>
</a>
</g>
</g>
<!-- Node21 -->
<g id="Node000021" class="node">
<title>Node21</title>
<g id="a_Node000021"><a xlink:href="UniformShapeStorage_8cpp.html" target="_top" xlink:title="Instantiations of shape storage for uniform shapes.">
<polygon fill="white" stroke="#666666" points="623.5,-206 470.5,-206 470.5,-176 623.5,-176 623.5,-206"/>
<text text-anchor="start" x="478.5" y="-194" font-family="Helvetica,sans-Serif" font-size="10.00">src/operators/UniformShape</text>
<text text-anchor="middle" x="547" y="-183" font-family="Helvetica,sans-Serif" font-size="10.00">Storage.cpp</text>
</a>
</g>
</g>
<!-- Node20&#45;&gt;Node21 -->
<g id="edge31_Node000020_Node000021" class="edge">
<title>Node20&#45;&gt;Node21</title>
<g id="a_edge31_Node000020_Node000021"><a xlink:title=" ">
<path fill="none" stroke="#63b8ff" d="M548.3,-237.25C548,-226.81 547.66,-214.99 547.4,-206.04"/>
<polygon fill="#63b8ff" stroke="#63b8ff" points="544.81,-237.54 548.6,-247.44 551.81,-237.34 544.81,-237.54"/>
</a>
</g>
</g>
<!-- Node22&#45;&gt;Node16 -->
<g id="edge33_Node000022_Node000016" class="edge">
<title>Node22&#45;&gt;Node16</title>
<g id="a_edge33_Node000022_Node000016"><a xlink:title=" ">
<path fill="none" stroke="#63b8ff" d="M314.32,-315.94C280.08,-305.46 239.76,-293.12 206.84,-283.04"/>
<polygon fill="#63b8ff" stroke="#63b8ff" points="313.68,-319.41 324.27,-318.99 315.73,-312.72 313.68,-319.41"/>
</a>
</g>
</g>
<!-- Node22&#45;&gt;Node20 -->
<g id="edge34_Node000022_Node000020" class="edge">
<title>Node22&#45;&gt;Node20</title>
<g id="a_edge34_Node000022_Node000020"><a xlink:title=" ">
<path fill="none" stroke="#63b8ff" d="M439.29,-314.61C465.47,-302.41 496.43,-287.99 518.77,-277.58"/>
<polygon fill="#63b8ff" stroke="#63b8ff" points="437.47,-311.6 429.88,-318.99 440.42,-317.94 437.47,-311.6"/>
</a>
</g>
</g>
<!-- Node23&#45;&gt;Node7 -->
<g id="edge36_Node000023_Node000007" class="edge">
<title>Node23&#45;&gt;Node7</title>
<g id="a_edge36_Node000023_Node000007"><a xlink:title=" ">
<path fill="none" stroke="#63b8ff" d="M1197.25,-396.73C1253.17,-367.23 1345.4,-306.65 1311,-242 1286.33,-195.64 1262.58,-193.31 1213,-176 1127.1,-146.01 869.25,-136.1 735.11,-132.93"/>
<polygon fill="#63b8ff" stroke="#63b8ff" points="1195.55,-393.67 1188.27,-401.37 1198.77,-399.89 1195.55,-393.67"/>
</a>
</g>
</g>
<!-- Node24 -->
<g id="Node000024" class="node">
<title>Node24</title>
<g id="a_Node000024"><a xlink:href="computeShapes_8cpp.html" target="_top" xlink:title="Explicit instantiations for common parameters.">
<polygon fill="white" stroke="#666666" points="1560,-349 1378,-349 1378,-330 1560,-330 1560,-349"/>
<text text-anchor="middle" x="1469" y="-337" font-family="Helvetica,sans-Serif" font-size="10.00">src/operators/computeShapes.cpp</text>
</a>
</g>
</g>
<!-- Node23&#45;&gt;Node24 -->
<g id="edge37_Node000023_Node000024" class="edge">
<title>Node23&#45;&gt;Node24</title>
<g id="a_edge37_Node000023_Node000024"><a xlink:title=" ">
<path fill="none" stroke="#63b8ff" d="M1226.13,-399.07C1290.03,-383.66 1383.08,-361.22 1433.43,-349.08"/>
<polygon fill="#63b8ff" stroke="#63b8ff" points="1225.03,-395.73 1216.13,-401.48 1226.67,-402.54 1225.03,-395.73"/>
</a>
</g>
</g>
</g>
</svg>

<g id="navigator" transform="translate(0 0)" fill="#404254">
  <rect fill="#f2f5e9" fill-opacity="0.5" stroke="#606060" stroke-width=".5" x="0" y="0" width="60" height="60"/>
  <use id="zoomplus" xlink:href="#zoomPlus" x="17" y="9" onmousedown="handleZoom(evt,'in')"/>
  <use id="zoomminus" xlink:href="#zoomMin" x="42" y="9" onmousedown="handleZoom(evt,'out')"/>
  <use id="reset" xlink:href="#resetDef" x="30" y="36" onmousedown="handleReset()"/>
   <use id="arrowup" xlink:href="#arrowUp" x="0" y="0" onmousedown="handlePan(0,-1)"/>
  <use id="arrowright" xlink:href="#arrowRight" x="0" y="0" onmousedown="handlePan(1,0)"/>
  <use id="arrowdown" xlink:href="#arrowDown" x="0" y="0" onmousedown="handlePan(0,1)"/>
  <use id="arrowleft" xlink:href="#arrowLeft" x="0" y="0" onmousedown="handlePan(-1,0)"/>
</g>
<svg viewBox="0 0 15 15" width="100%" height="30px" preserveAspectRatio="xMaxYMin meet">
 <g id="arrow_out" transform="scale(0.3 0.3)">
  <a xlink:href="stdtypesutils_8hpp__dep__incl_org.svg" target="_base">
   <rect id="button" ry="5" rx="5" y="6" x="6" height="38" width="38"
        fill="#f2f5e9" fill-opacity="0.5" stroke="#606060" stroke-width="1.0"/>
   <path id="arrow"
     d="M 11.500037,31.436501 C 11.940474,20.09759 22.043105,11.32322 32.158766,21.979434 L 37.068811,17.246167 C 37.068811,17.246167 37.088388,32 37.088388,32 L 22.160133,31.978069 C 22.160133,31.978069 26.997745,27.140456 26.997745,27.140456 C 18.528582,18.264221 13.291696,25.230495 11.500037,31.436501 z"
     style="fill:#404040;"/>
  </a>
 </g>
</svg>

<style type='text/css'>
<![CDATA[
[data-mouse-over-selected='false'] { opacity: 0.7; }
[data-mouse-over-selected='true']  { opacity: 1.0; }
]]>
</style>
<script type="application/ecmascript"><![CDATA[
document.addEventListener('DOMContentLoaded', (event) => {
  highlightEdges();
  highlightAdjacentNodes();
});
]]></script>
</svg>
