<?xml version="1.0" encoding="UTF-8" standalone="no"?>
<!DOCTYPE svg PUBLIC "-//W3C//DTD SVG 1.1//EN"
 "http://www.w3.org/Graphics/SVG/1.1/DTD/svg11.dtd">
<!-- Generated by graphviz version 2.43.0 (0)
 -->
<!-- Title: include/medusa/bits/io/STL.hpp Pages: 1 -->
<svg width="252pt" height="214pt"
 viewBox="0.00 0.00 251.50 214.00" xmlns="http://www.w3.org/2000/svg" xmlns:xlink="http://www.w3.org/1999/xlink">
<g id="graph0" class="graph" transform="scale(1 1) rotate(0) translate(4 210)">
<title>include/medusa/bits/io/STL.hpp</title>
<!-- Node1 -->
<g id="Node000001" class="node">
<title>Node1</title>
<g id="a_Node000001"><a xlink:title="Template implementations for STL files.">
<polygon fill="#999999" stroke="#666666" points="197.5,-206 82.5,-206 82.5,-176 197.5,-176 197.5,-206"/>
<text text-anchor="start" x="90.5" y="-194" font-family="Helvetica,sans-Serif" font-size="10.00">include/medusa/bits</text>
<text text-anchor="middle" x="140" y="-183" font-family="Helvetica,sans-Serif" font-size="10.00">/io/STL.hpp</text>
</a>
</g>
</g>
<!-- Node2 -->
<g id="Node000002" class="node">
<title>Node2</title>
<g id="a_Node000002"><a xlink:href="IO_8hpp.html" target="_top" xlink:title="Header for IO module.">
<polygon fill="white" stroke="#666666" points="142,-140 14,-140 14,-121 142,-121 142,-140"/>
<text text-anchor="middle" x="78" y="-128" font-family="Helvetica,sans-Serif" font-size="10.00">include/medusa/IO.hpp</text>
</a>
</g>
</g>
<!-- Node1&#45;&gt;Node2 -->
<g id="edge1_Node000001_Node000002" class="edge">
<title>Node1&#45;&gt;Node2</title>
<g id="a_edge1_Node000001_Node000002"><a xlink:title=" ">
<path fill="none" stroke="#63b8ff" d="M117.7,-168.96C107.22,-159.07 95.31,-147.83 87.29,-140.27"/>
<polygon fill="#63b8ff" stroke="#63b8ff" points="115.32,-171.52 124.99,-175.84 120.12,-166.43 115.32,-171.52"/>
</a>
</g>
</g>
<!-- Node5 -->
<g id="Node000005" class="node">
<title>Node5</title>
<g id="a_Node000005"><a xlink:href="STL_8cpp.html" target="_top" xlink:title="Implementation of functions for working with stereolithography files.">
<polygon fill="white" stroke="#666666" points="243.5,-140 160.5,-140 160.5,-121 243.5,-121 243.5,-140"/>
<text text-anchor="middle" x="202" y="-128" font-family="Helvetica,sans-Serif" font-size="10.00">src/io/STL.cpp</text>
</a>
</g>
</g>
<!-- Node1&#45;&gt;Node5 -->
<g id="edge5_Node000001_Node000005" class="edge">
<title>Node1&#45;&gt;Node5</title>
<g id="a_edge5_Node000001_Node000005"><a xlink:title=" ">
<path fill="none" stroke="#63b8ff" d="M162.3,-168.96C172.78,-159.07 184.69,-147.83 192.71,-140.27"/>
<polygon fill="#63b8ff" stroke="#63b8ff" points="159.88,-166.43 155.01,-175.84 164.68,-171.52 159.88,-166.43"/>
</a>
</g>
</g>
<!-- Node3 -->
<g id="Node000003" class="node">
<title>Node3</title>
<g id="a_Node000003"><a xlink:href="Medusa_8hpp.html" target="_top" xlink:title="Main header file that includes most other components.">
<polygon fill="white" stroke="#666666" points="156,-19 0,-19 0,0 156,0 156,-19"/>
<text text-anchor="middle" x="78" y="-7" font-family="Helvetica,sans-Serif" font-size="10.00">include/medusa/Medusa.hpp</text>
</a>
</g>
</g>
<!-- Node2&#45;&gt;Node3 -->
<g id="edge2_Node000002_Node000003" class="edge">
<title>Node2&#45;&gt;Node3</title>
<g id="a_edge2_Node000002_Node000003"><a xlink:title=" ">
<path fill="none" stroke="#63b8ff" d="M63.79,-112.78C58,-104.89 51.98,-95.02 49,-85 45.2,-72.22 45.2,-67.78 49,-55 53.1,-41.21 62.97,-27.7 70.06,-19.25"/>
<polygon fill="#63b8ff" stroke="#63b8ff" points="61.13,-115.05 70.06,-120.75 66.63,-110.72 61.13,-115.05"/>
</a>
</g>
</g>
<!-- Node4 -->
<g id="Node000004" class="node">
<title>Node4</title>
<g id="a_Node000004"><a xlink:href="Medusa__fwd_8hpp.html" target="_top" xlink:title="Main header file that includes only declarations for some heavy classes such as mm::WLS to reduce com...">
<polygon fill="white" stroke="#666666" points="193.5,-85 58.5,-85 58.5,-55 193.5,-55 193.5,-85"/>
<text text-anchor="start" x="66.5" y="-73" font-family="Helvetica,sans-Serif" font-size="10.00">include/medusa/Medusa</text>
<text text-anchor="middle" x="126" y="-62" font-family="Helvetica,sans-Serif" font-size="10.00">_fwd.hpp</text>
</a>
</g>
</g>
<!-- Node2&#45;&gt;Node4 -->
<g id="edge3_Node000002_Node000004" class="edge">
<title>Node2&#45;&gt;Node4</title>
<g id="a_edge3_Node000002_Node000004"><a xlink:title=" ">
<path fill="none" stroke="#63b8ff" d="M91.64,-112.88C98.83,-104.11 107.56,-93.48 114.42,-85.11"/>
<polygon fill="#63b8ff" stroke="#63b8ff" points="88.72,-110.92 85.08,-120.87 94.13,-115.36 88.72,-110.92"/>
</a>
</g>
</g>
<!-- Node4&#45;&gt;Node3 -->
<g id="edge4_Node000004_Node000003" class="edge">
<title>Node4&#45;&gt;Node3</title>
<g id="a_edge4_Node000004_Node000003"><a xlink:title=" ">
<path fill="none" stroke="#63b8ff" d="M108.02,-47.09C100.09,-37.42 91.22,-26.61 85.19,-19.27"/>
<polygon fill="#63b8ff" stroke="#63b8ff" points="105.33,-49.33 114.38,-54.84 110.74,-44.89 105.33,-49.33"/>
</a>
</g>
</g>
</g>
</svg>
