<?xml version="1.0" encoding="UTF-8" standalone="no"?>
<!DOCTYPE svg PUBLIC "-//W3C//DTD SVG 1.1//EN"
 "http://www.w3.org/Graphics/SVG/1.1/DTD/svg11.dtd">
<!-- Generated by graphviz version 2.43.0 (0)
 -->
<!-- Title: src/io/STL.cpp Pages: 1 -->
<svg width="550pt" height="192pt"
 viewBox="0.00 0.00 549.50 192.00" xmlns="http://www.w3.org/2000/svg" xmlns:xlink="http://www.w3.org/1999/xlink">
<g id="graph0" class="graph" transform="scale(1 1) rotate(0) translate(4 188)">
<title>src/io/STL.cpp</title>
<!-- Node1 -->
<g id="Node000001" class="node">
<title>Node1</title>
<g id="a_Node000001"><a xlink:title="Implementation of functions for working with stereolithography files.">
<polygon fill="#999999" stroke="#666666" points="277.5,-184 194.5,-184 194.5,-165 277.5,-165 277.5,-184"/>
<text text-anchor="middle" x="236" y="-172" font-family="Helvetica,sans-Serif" font-size="10.00">src/io/STL.cpp</text>
</a>
</g>
</g>
<!-- Node2 -->
<g id="Node000002" class="node">
<title>Node2</title>
<g id="a_Node000002"><a xlink:href="STL_8hpp.html" target="_top" xlink:title="Template implementations for STL files.">
<polygon fill="white" stroke="#666666" points="151,-129 21,-129 21,-110 151,-110 151,-129"/>
<text text-anchor="middle" x="86" y="-117" font-family="Helvetica,sans-Serif" font-size="10.00">medusa/bits/io/STL.hpp</text>
</a>
</g>
</g>
<!-- Node1&#45;&gt;Node2 -->
<g id="edge1_Node000001_Node000002" class="edge">
<title>Node1&#45;&gt;Node2</title>
<g id="a_edge1_Node000001_Node000002"><a xlink:title=" ">
<path fill="none" stroke="#63b8ff" d="M211.9,-164.98C187.12,-156.23 148.3,-142.51 120.31,-132.62"/>
<polygon fill="#63b8ff" stroke="#63b8ff" points="121.13,-129.2 110.54,-129.17 118.8,-135.8 121.13,-129.2"/>
</a>
</g>
</g>
<!-- Node8 -->
<g id="Node000008" class="node">
<title>Node8</title>
<g id="a_Node000008"><a xlink:title=" ">
<polygon fill="#e0e0e0" stroke="#999999" points="224.5,-129 169.5,-129 169.5,-110 224.5,-110 224.5,-129"/>
<text text-anchor="middle" x="197" y="-117" font-family="Helvetica,sans-Serif" font-size="10.00">fstream</text>
</a>
</g>
</g>
<!-- Node1&#45;&gt;Node8 -->
<g id="edge7_Node000001_Node000008" class="edge">
<title>Node1&#45;&gt;Node8</title>
<g id="a_edge7_Node000001_Node000008"><a xlink:title=" ">
<path fill="none" stroke="#63b8ff" d="M229.56,-164.75C224.11,-157.34 216.14,-146.5 209.44,-137.41"/>
<polygon fill="#63b8ff" stroke="#63b8ff" points="212.07,-135.07 203.32,-129.09 206.43,-139.22 212.07,-135.07"/>
</a>
</g>
</g>
<!-- Node9 -->
<g id="Node000009" class="node">
<title>Node9</title>
<g id="a_Node000009"><a xlink:title=" ">
<polygon fill="#e0e0e0" stroke="#999999" points="307.5,-129 242.5,-129 242.5,-110 307.5,-110 307.5,-129"/>
<text text-anchor="middle" x="275" y="-117" font-family="Helvetica,sans-Serif" font-size="10.00">stdexcept</text>
</a>
</g>
</g>
<!-- Node1&#45;&gt;Node9 -->
<g id="edge8_Node000001_Node000009" class="edge">
<title>Node1&#45;&gt;Node9</title>
<g id="a_edge8_Node000001_Node000009"><a xlink:title=" ">
<path fill="none" stroke="#63b8ff" d="M242.44,-164.75C247.89,-157.34 255.86,-146.5 262.56,-137.41"/>
<polygon fill="#63b8ff" stroke="#63b8ff" points="265.57,-139.22 268.68,-129.09 259.93,-135.07 265.57,-139.22"/>
</a>
</g>
</g>
<!-- Node10 -->
<g id="Node000010" class="node">
<title>Node10</title>
<g id="a_Node000010"><a xlink:href="assert_8hpp.html" target="_top" xlink:title="Implementation of custom assert and debug utilities.">
<polygon fill="white" stroke="#666666" points="480.5,-129 325.5,-129 325.5,-110 480.5,-110 480.5,-129"/>
<text text-anchor="middle" x="403" y="-117" font-family="Helvetica,sans-Serif" font-size="10.00">medusa/bits/utils/assert.hpp</text>
</a>
</g>
</g>
<!-- Node1&#45;&gt;Node10 -->
<g id="edge9_Node000001_Node000010" class="edge">
<title>Node1&#45;&gt;Node10</title>
<g id="a_edge9_Node000001_Node000010"><a xlink:title=" ">
<path fill="none" stroke="#63b8ff" d="M262.83,-164.98C290.87,-156.09 335.05,-142.07 366.3,-132.15"/>
<polygon fill="#63b8ff" stroke="#63b8ff" points="367.49,-135.44 375.96,-129.08 365.37,-128.77 367.49,-135.44"/>
</a>
</g>
</g>
<!-- Node3 -->
<g id="Node000003" class="node">
<title>Node3</title>
<g id="a_Node000003"><a xlink:href="STL__fwd_8hpp.html" target="_top" xlink:title="Support for reading stereolithography files.">
<polygon fill="white" stroke="#666666" points="130.5,-74 53.5,-74 53.5,-55 130.5,-55 130.5,-74"/>
<text text-anchor="middle" x="92" y="-62" font-family="Helvetica,sans-Serif" font-size="10.00">STL_fwd.hpp</text>
</a>
</g>
</g>
<!-- Node2&#45;&gt;Node3 -->
<g id="edge2_Node000002_Node000003" class="edge">
<title>Node2&#45;&gt;Node3</title>
<g id="a_edge2_Node000002_Node000003"><a xlink:title=" ">
<path fill="none" stroke="#63b8ff" d="M86.99,-109.75C87.78,-102.8 88.9,-92.85 89.89,-84.13"/>
<polygon fill="#63b8ff" stroke="#63b8ff" points="93.38,-84.42 91.03,-74.09 86.42,-83.63 93.38,-84.42"/>
</a>
</g>
</g>
<!-- Node4 -->
<g id="Node000004" class="node">
<title>Node4</title>
<g id="a_Node000004"><a xlink:title=" ">
<polygon fill="#e0e0e0" stroke="#999999" points="50,-19 0,-19 0,0 50,0 50,-19"/>
<text text-anchor="middle" x="25" y="-7" font-family="Helvetica,sans-Serif" font-size="10.00">cstdint</text>
</a>
</g>
</g>
<!-- Node3&#45;&gt;Node4 -->
<g id="edge3_Node000003_Node000004" class="edge">
<title>Node3&#45;&gt;Node4</title>
<g id="a_edge3_Node000003_Node000004"><a xlink:title=" ">
<path fill="none" stroke="#63b8ff" d="M81.24,-54.98C71.23,-47.07 56.11,-35.11 44.07,-25.58"/>
<polygon fill="#63b8ff" stroke="#63b8ff" points="45.97,-22.63 35.96,-19.17 41.63,-28.12 45.97,-22.63"/>
</a>
</g>
</g>
<!-- Node5 -->
<g id="Node000005" class="node">
<title>Node5</title>
<g id="a_Node000005"><a xlink:title=" ">
<polygon fill="#e0e0e0" stroke="#999999" points="116,-19 68,-19 68,0 116,0 116,-19"/>
<text text-anchor="middle" x="92" y="-7" font-family="Helvetica,sans-Serif" font-size="10.00">iosfwd</text>
</a>
</g>
</g>
<!-- Node3&#45;&gt;Node5 -->
<g id="edge4_Node000003_Node000005" class="edge">
<title>Node3&#45;&gt;Node5</title>
<g id="a_edge4_Node000003_Node000005"><a xlink:title=" ">
<path fill="none" stroke="#63b8ff" d="M92,-54.75C92,-47.8 92,-37.85 92,-29.13"/>
<polygon fill="#63b8ff" stroke="#63b8ff" points="95.5,-29.09 92,-19.09 88.5,-29.09 95.5,-29.09"/>
</a>
</g>
</g>
<!-- Node6 -->
<g id="Node000006" class="node">
<title>Node6</title>
<g id="a_Node000006"><a xlink:title=" ">
<polygon fill="#e0e0e0" stroke="#999999" points="270.5,-19 223.5,-19 223.5,0 270.5,0 270.5,-19"/>
<text text-anchor="middle" x="247" y="-7" font-family="Helvetica,sans-Serif" font-size="10.00">vector</text>
</a>
</g>
</g>
<!-- Node3&#45;&gt;Node6 -->
<g id="edge5_Node000003_Node000006" class="edge">
<title>Node3&#45;&gt;Node6</title>
<g id="a_edge5_Node000003_Node000006"><a xlink:title=" ">
<path fill="none" stroke="#63b8ff" d="M116.9,-54.98C143.16,-46.01 184.67,-31.81 213.72,-21.88"/>
<polygon fill="#63b8ff" stroke="#63b8ff" points="215.1,-25.11 223.43,-18.56 212.83,-18.48 215.1,-25.11"/>
</a>
</g>
</g>
<!-- Node7 -->
<g id="Node000007" class="node">
<title>Node7</title>
<g id="a_Node000007"><a xlink:title=" ">
<polygon fill="#e0e0e0" stroke="#999999" points="184,-19 134,-19 134,0 184,0 184,-19"/>
<text text-anchor="middle" x="159" y="-7" font-family="Helvetica,sans-Serif" font-size="10.00">cstring</text>
</a>
</g>
</g>
<!-- Node3&#45;&gt;Node7 -->
<g id="edge6_Node000003_Node000007" class="edge">
<title>Node3&#45;&gt;Node7</title>
<g id="a_edge6_Node000003_Node000007"><a xlink:title=" ">
<path fill="none" stroke="#63b8ff" d="M102.76,-54.98C112.77,-47.07 127.89,-35.11 139.93,-25.58"/>
<polygon fill="#63b8ff" stroke="#63b8ff" points="142.37,-28.12 148.04,-19.17 138.03,-22.63 142.37,-28.12"/>
</a>
</g>
</g>
<!-- Node11 -->
<g id="Node000011" class="node">
<title>Node11</title>
<g id="a_Node000011"><a xlink:title=" ">
<polygon fill="#e0e0e0" stroke="#999999" points="355,-74 223,-74 223,-55 355,-55 355,-74"/>
<text text-anchor="middle" x="289" y="-62" font-family="Helvetica,sans-Serif" font-size="10.00">tinyformat/tinyformat.h</text>
</a>
</g>
</g>
<!-- Node10&#45;&gt;Node11 -->
<g id="edge10_Node000010_Node000011" class="edge">
<title>Node10&#45;&gt;Node11</title>
<g id="a_edge10_Node000010_Node000011"><a xlink:title=" ">
<path fill="none" stroke="#63b8ff" d="M384.68,-109.98C366.34,-101.46 337.89,-88.23 316.77,-78.41"/>
<polygon fill="#63b8ff" stroke="#63b8ff" points="318.19,-75.21 307.65,-74.17 315.24,-81.56 318.19,-75.21"/>
</a>
</g>
</g>
<!-- Node12 -->
<g id="Node000012" class="node">
<title>Node12</title>
<g id="a_Node000012"><a xlink:href="print_8hpp.html" target="_top" xlink:title="Printing helpers for std types.">
<polygon fill="white" stroke="#666666" points="433,-74 373,-74 373,-55 433,-55 433,-74"/>
<text text-anchor="middle" x="403" y="-62" font-family="Helvetica,sans-Serif" font-size="10.00">print.hpp</text>
</a>
</g>
</g>
<!-- Node10&#45;&gt;Node12 -->
<g id="edge11_Node000010_Node000012" class="edge">
<title>Node10&#45;&gt;Node12</title>
<g id="a_edge11_Node000010_Node000012"><a xlink:title=" ">
<path fill="none" stroke="#63b8ff" d="M403,-109.75C403,-102.8 403,-92.85 403,-84.13"/>
<polygon fill="#63b8ff" stroke="#63b8ff" points="406.5,-84.09 403,-74.09 399.5,-84.09 406.5,-84.09"/>
</a>
</g>
</g>
<!-- Node12&#45;&gt;Node6 -->
<g id="edge13_Node000012_Node000006" class="edge">
<title>Node12&#45;&gt;Node6</title>
<g id="a_edge13_Node000012_Node000006"><a xlink:title=" ">
<path fill="none" stroke="#63b8ff" d="M377.94,-54.98C351.51,-46.01 309.73,-31.81 280.5,-21.88"/>
<polygon fill="#63b8ff" stroke="#63b8ff" points="281.32,-18.46 270.72,-18.56 279.07,-25.09 281.32,-18.46"/>
</a>
</g>
</g>
<!-- Node13 -->
<g id="Node000013" class="node">
<title>Node13</title>
<g id="a_Node000013"><a xlink:title=" ">
<polygon fill="#e0e0e0" stroke="#999999" points="359,-19 299,-19 299,0 359,0 359,-19"/>
<text text-anchor="middle" x="329" y="-7" font-family="Helvetica,sans-Serif" font-size="10.00">iostream</text>
</a>
</g>
</g>
<!-- Node12&#45;&gt;Node13 -->
<g id="edge12_Node000012_Node000013" class="edge">
<title>Node12&#45;&gt;Node13</title>
<g id="a_edge12_Node000012_Node000013"><a xlink:title=" ">
<path fill="none" stroke="#63b8ff" d="M391.11,-54.98C379.85,-46.92 362.71,-34.65 349.29,-25.03"/>
<polygon fill="#63b8ff" stroke="#63b8ff" points="351.27,-22.15 341.11,-19.17 347.2,-27.84 351.27,-22.15"/>
</a>
</g>
</g>
<!-- Node14 -->
<g id="Node000014" class="node">
<title>Node14</title>
<g id="a_Node000014"><a xlink:title=" ">
<polygon fill="#e0e0e0" stroke="#999999" points="419,-19 377,-19 377,0 419,0 419,-19"/>
<text text-anchor="middle" x="398" y="-7" font-family="Helvetica,sans-Serif" font-size="10.00">array</text>
</a>
</g>
</g>
<!-- Node12&#45;&gt;Node14 -->
<g id="edge14_Node000012_Node000014" class="edge">
<title>Node12&#45;&gt;Node14</title>
<g id="a_edge14_Node000012_Node000014"><a xlink:title=" ">
<path fill="none" stroke="#63b8ff" d="M402.17,-54.75C401.52,-47.8 400.58,-37.85 399.76,-29.13"/>
<polygon fill="#63b8ff" stroke="#63b8ff" points="403.23,-28.72 398.81,-19.09 396.27,-29.37 403.23,-28.72"/>
</a>
</g>
</g>
<!-- Node15 -->
<g id="Node000015" class="node">
<title>Node15</title>
<g id="a_Node000015"><a xlink:title=" ">
<polygon fill="#e0e0e0" stroke="#999999" points="482.5,-19 437.5,-19 437.5,0 482.5,0 482.5,-19"/>
<text text-anchor="middle" x="460" y="-7" font-family="Helvetica,sans-Serif" font-size="10.00">utility</text>
</a>
</g>
</g>
<!-- Node12&#45;&gt;Node15 -->
<g id="edge15_Node000012_Node000015" class="edge">
<title>Node12&#45;&gt;Node15</title>
<g id="a_edge15_Node000012_Node000015"><a xlink:title=" ">
<path fill="none" stroke="#63b8ff" d="M412.16,-54.98C420.5,-47.23 433.03,-35.58 443.18,-26.14"/>
<polygon fill="#63b8ff" stroke="#63b8ff" points="445.74,-28.54 450.68,-19.17 440.97,-23.42 445.74,-28.54"/>
</a>
</g>
</g>
<!-- Node16 -->
<g id="Node000016" class="node">
<title>Node16</title>
<g id="a_Node000016"><a xlink:title=" ">
<polygon fill="#e0e0e0" stroke="#999999" points="541.5,-19 500.5,-19 500.5,0 541.5,0 541.5,-19"/>
<text text-anchor="middle" x="521" y="-7" font-family="Helvetica,sans-Serif" font-size="10.00">tuple</text>
</a>
</g>
</g>
<!-- Node12&#45;&gt;Node16 -->
<g id="edge16_Node000012_Node000016" class="edge">
<title>Node12&#45;&gt;Node16</title>
<g id="a_edge16_Node000012_Node000016"><a xlink:title=" ">
<path fill="none" stroke="#63b8ff" d="M421.96,-54.98C441.03,-46.42 470.66,-33.11 492.55,-23.28"/>
<polygon fill="#63b8ff" stroke="#63b8ff" points="494.01,-26.46 501.7,-19.17 491.14,-20.07 494.01,-26.46"/>
</a>
</g>
</g>
</g>
</svg>
