<?xml version="1.0" encoding="UTF-8" standalone="no"?>
<!DOCTYPE svg PUBLIC "-//W3C//DTD SVG 1.1//EN"
 "http://www.w3.org/Graphics/SVG/1.1/DTD/svg11.dtd">
<!-- Generated by graphviz version 2.43.0 (0)
 -->
<!-- Title: include/medusa/bits/io/STL_fwd.hpp Pages: 1 -->
<svg width="628pt" height="291pt"
 viewBox="0.00 0.00 627.50 291.00" xmlns="http://www.w3.org/2000/svg" xmlns:xlink="http://www.w3.org/1999/xlink">
<g id="graph0" class="graph" transform="scale(1 1) rotate(0) translate(4 287)">
<title>include/medusa/bits/io/STL_fwd.hpp</title>
<!-- Node1 -->
<g id="Node000001" class="node">
<title>Node1</title>
<g id="a_Node000001"><a xlink:title="Support for reading stereolithography files.">
<polygon fill="#999999" stroke="#666666" points="435.5,-283 320.5,-283 320.5,-253 435.5,-253 435.5,-283"/>
<text text-anchor="start" x="328.5" y="-271" font-family="Helvetica,sans-Serif" font-size="10.00">include/medusa/bits</text>
<text text-anchor="middle" x="378" y="-260" font-family="Helvetica,sans-Serif" font-size="10.00">/io/STL_fwd.hpp</text>
</a>
</g>
</g>
<!-- Node2 -->
<g id="Node000002" class="node">
<title>Node2</title>
<g id="a_Node000002"><a xlink:href="STLShape__fwd_8hpp.html" target="_top" xlink:title="Declaration of STLShape class.">
<polygon fill="white" stroke="#666666" points="379.5,-217 224.5,-217 224.5,-187 379.5,-187 379.5,-217"/>
<text text-anchor="start" x="232.5" y="-205" font-family="Helvetica,sans-Serif" font-size="10.00">include/medusa/bits</text>
<text text-anchor="middle" x="302" y="-194" font-family="Helvetica,sans-Serif" font-size="10.00">/domains/STLShape_fwd.hpp</text>
</a>
</g>
</g>
<!-- Node1&#45;&gt;Node2 -->
<g id="edge1_Node000001_Node000002" class="edge">
<title>Node1&#45;&gt;Node2</title>
<g id="a_edge1_Node000001_Node000002"><a xlink:title=" ">
<path fill="none" stroke="#63b8ff" d="M353.3,-246.2C342.02,-236.7 328.95,-225.69 318.82,-217.16"/>
<polygon fill="#63b8ff" stroke="#63b8ff" points="351.23,-249.03 361.13,-252.8 355.74,-243.68 351.23,-249.03"/>
</a>
</g>
</g>
<!-- Node9 -->
<g id="Node000009" class="node">
<title>Node9</title>
<g id="a_Node000009"><a xlink:href="STL_8hpp.html" target="_top" xlink:title="Template implementations for STL files.">
<polygon fill="white" stroke="#666666" points="512.5,-217 397.5,-217 397.5,-187 512.5,-187 512.5,-217"/>
<text text-anchor="start" x="405.5" y="-205" font-family="Helvetica,sans-Serif" font-size="10.00">include/medusa/bits</text>
<text text-anchor="middle" x="455" y="-194" font-family="Helvetica,sans-Serif" font-size="10.00">/io/STL.hpp</text>
</a>
</g>
</g>
<!-- Node1&#45;&gt;Node9 -->
<g id="edge10_Node000001_Node000009" class="edge">
<title>Node1&#45;&gt;Node9</title>
<g id="a_edge10_Node000001_Node000009"><a xlink:title=" ">
<path fill="none" stroke="#63b8ff" d="M403.02,-246.2C414.45,-236.7 427.7,-225.69 437.96,-217.16"/>
<polygon fill="#63b8ff" stroke="#63b8ff" points="400.54,-243.71 395.09,-252.8 405.02,-249.1 400.54,-243.71"/>
</a>
</g>
</g>
<!-- Node3 -->
<g id="Node000003" class="node">
<title>Node3</title>
<g id="a_Node000003"><a xlink:href="Domain__fwd_8hpp.html" target="_top" xlink:title="Header for Domain module, declarations only.">
<polygon fill="white" stroke="#666666" points="370.5,-151 235.5,-151 235.5,-121 370.5,-121 370.5,-151"/>
<text text-anchor="start" x="243.5" y="-139" font-family="Helvetica,sans-Serif" font-size="10.00">include/medusa/Domain</text>
<text text-anchor="middle" x="303" y="-128" font-family="Helvetica,sans-Serif" font-size="10.00">_fwd.hpp</text>
</a>
</g>
</g>
<!-- Node2&#45;&gt;Node3 -->
<g id="edge2_Node000002_Node000003" class="edge">
<title>Node2&#45;&gt;Node3</title>
<g id="a_edge2_Node000002_Node000003"><a xlink:title=" ">
<path fill="none" stroke="#63b8ff" d="M302.38,-176.54C302.52,-167.96 302.66,-158.61 302.78,-151.16"/>
<polygon fill="#63b8ff" stroke="#63b8ff" points="298.88,-176.74 302.22,-186.8 305.88,-176.85 298.88,-176.74"/>
</a>
</g>
</g>
<!-- Node7 -->
<g id="Node000007" class="node">
<title>Node7</title>
<g id="a_Node000007"><a xlink:href="STLShape_8hpp.html" target="_top" xlink:title="Implementation of STL shapes.">
<polygon fill="white" stroke="#666666" points="217.5,-151 84.5,-151 84.5,-121 217.5,-121 217.5,-151"/>
<text text-anchor="start" x="92.5" y="-139" font-family="Helvetica,sans-Serif" font-size="10.00">include/medusa/bits</text>
<text text-anchor="middle" x="151" y="-128" font-family="Helvetica,sans-Serif" font-size="10.00">/domains/STLShape.hpp</text>
</a>
</g>
</g>
<!-- Node2&#45;&gt;Node7 -->
<g id="edge7_Node000002_Node000007" class="edge">
<title>Node2&#45;&gt;Node7</title>
<g id="a_edge7_Node000002_Node000007"><a xlink:title=" ">
<path fill="none" stroke="#63b8ff" d="M259.34,-182.92C235.47,-172.8 206.17,-160.38 184.06,-151.01"/>
<polygon fill="#63b8ff" stroke="#63b8ff" points="258.29,-186.28 268.86,-186.95 261.02,-179.83 258.29,-186.28"/>
</a>
</g>
</g>
<!-- Node4 -->
<g id="Node000004" class="node">
<title>Node4</title>
<g id="a_Node000004"><a xlink:href="Domain_8hpp.html" target="_top" xlink:title="Header for Domain module.">
<polygon fill="white" stroke="#666666" points="320,-79.5 164,-79.5 164,-60.5 320,-60.5 320,-79.5"/>
<text text-anchor="middle" x="242" y="-67.5" font-family="Helvetica,sans-Serif" font-size="10.00">include/medusa/Domain.hpp</text>
</a>
</g>
</g>
<!-- Node3&#45;&gt;Node4 -->
<g id="edge3_Node000003_Node000004" class="edge">
<title>Node3&#45;&gt;Node4</title>
<g id="a_edge3_Node000003_Node000004"><a xlink:title=" ">
<path fill="none" stroke="#63b8ff" d="M282.29,-113.27C271.39,-101.84 258.62,-88.44 250.43,-79.84"/>
<polygon fill="#63b8ff" stroke="#63b8ff" points="280.03,-115.97 289.46,-120.8 285.1,-111.14 280.03,-115.97"/>
</a>
</g>
</g>
<!-- Node6 -->
<g id="Node000006" class="node">
<title>Node6</title>
<g id="a_Node000006"><a xlink:href="Medusa__fwd_8hpp.html" target="_top" xlink:title="Main header file that includes only declarations for some heavy classes such as mm::WLS to reduce com...">
<polygon fill="white" stroke="#666666" points="473.5,-85 338.5,-85 338.5,-55 473.5,-55 473.5,-85"/>
<text text-anchor="start" x="346.5" y="-73" font-family="Helvetica,sans-Serif" font-size="10.00">include/medusa/Medusa</text>
<text text-anchor="middle" x="406" y="-62" font-family="Helvetica,sans-Serif" font-size="10.00">_fwd.hpp</text>
</a>
</g>
</g>
<!-- Node3&#45;&gt;Node6 -->
<g id="edge5_Node000003_Node000006" class="edge">
<title>Node3&#45;&gt;Node6</title>
<g id="a_edge5_Node000003_Node000006"><a xlink:title=" ">
<path fill="none" stroke="#63b8ff" d="M334.51,-115.42C350.32,-105.6 369.1,-93.93 383.45,-85.01"/>
<polygon fill="#63b8ff" stroke="#63b8ff" points="332.25,-112.7 325.6,-120.95 335.94,-118.65 332.25,-112.7"/>
</a>
</g>
</g>
<!-- Node5 -->
<g id="Node000005" class="node">
<title>Node5</title>
<g id="a_Node000005"><a xlink:href="Medusa_8hpp.html" target="_top" xlink:title="Main header file that includes most other components.">
<polygon fill="white" stroke="#666666" points="484,-19 328,-19 328,0 484,0 484,-19"/>
<text text-anchor="middle" x="406" y="-7" font-family="Helvetica,sans-Serif" font-size="10.00">include/medusa/Medusa.hpp</text>
</a>
</g>
</g>
<!-- Node4&#45;&gt;Node5 -->
<g id="edge4_Node000004_Node000005" class="edge">
<title>Node4&#45;&gt;Node5</title>
<g id="a_edge4_Node000004_Node000005"><a xlink:title=" ">
<path fill="none" stroke="#63b8ff" d="M275.57,-57.02C307.28,-45.71 354.05,-29.03 382.12,-19.02"/>
<polygon fill="#63b8ff" stroke="#63b8ff" points="274.09,-53.84 265.85,-60.49 276.44,-60.43 274.09,-53.84"/>
</a>
</g>
</g>
<!-- Node6&#45;&gt;Node5 -->
<g id="edge6_Node000006_Node000005" class="edge">
<title>Node6&#45;&gt;Node5</title>
<g id="a_edge6_Node000006_Node000005"><a xlink:title=" ">
<path fill="none" stroke="#63b8ff" d="M406,-44.75C406,-35.72 406,-26.03 406,-19.27"/>
<polygon fill="#63b8ff" stroke="#63b8ff" points="402.5,-44.84 406,-54.84 409.5,-44.84 402.5,-44.84"/>
</a>
</g>
</g>
<!-- Node7&#45;&gt;Node4 -->
<g id="edge8_Node000007_Node000004" class="edge">
<title>Node7&#45;&gt;Node4</title>
<g id="a_edge8_Node000007_Node000004"><a xlink:title=" ">
<path fill="none" stroke="#63b8ff" d="M179.62,-114.87C196.46,-103.03 216.91,-88.65 229.69,-79.66"/>
<polygon fill="#63b8ff" stroke="#63b8ff" points="177.36,-112.18 171.2,-120.8 181.39,-117.91 177.36,-112.18"/>
</a>
</g>
</g>
<!-- Node8 -->
<g id="Node000008" class="node">
<title>Node8</title>
<g id="a_Node000008"><a xlink:href="STLShape_8cpp.html" target="_top" xlink:title="Instantiation of class for STL domains.">
<polygon fill="white" stroke="#666666" points="146,-79.5 0,-79.5 0,-60.5 146,-60.5 146,-79.5"/>
<text text-anchor="middle" x="73" y="-67.5" font-family="Helvetica,sans-Serif" font-size="10.00">src/domains/STLShape.cpp</text>
</a>
</g>
</g>
<!-- Node7&#45;&gt;Node8 -->
<g id="edge9_Node000007_Node000008" class="edge">
<title>Node7&#45;&gt;Node8</title>
<g id="a_edge9_Node000007_Node000008"><a xlink:title=" ">
<path fill="none" stroke="#63b8ff" d="M125.72,-114.26C111.53,-102.61 94.56,-88.69 83.78,-79.84"/>
<polygon fill="#63b8ff" stroke="#63b8ff" points="123.74,-117.16 133.69,-120.8 128.18,-111.75 123.74,-117.16"/>
</a>
</g>
</g>
<!-- Node10 -->
<g id="Node000010" class="node">
<title>Node10</title>
<g id="a_Node000010"><a xlink:href="IO_8hpp.html" target="_top" xlink:title="Header for IO module.">
<polygon fill="white" stroke="#666666" points="518,-145.5 390,-145.5 390,-126.5 518,-126.5 518,-145.5"/>
<text text-anchor="middle" x="454" y="-133.5" font-family="Helvetica,sans-Serif" font-size="10.00">include/medusa/IO.hpp</text>
</a>
</g>
</g>
<!-- Node9&#45;&gt;Node10 -->
<g id="edge11_Node000009_Node000010" class="edge">
<title>Node9&#45;&gt;Node10</title>
<g id="a_edge11_Node000009_Node000010"><a xlink:title=" ">
<path fill="none" stroke="#63b8ff" d="M454.62,-176.6C454.45,-165.8 454.26,-153.78 454.14,-145.84"/>
<polygon fill="#63b8ff" stroke="#63b8ff" points="451.12,-176.85 454.78,-186.8 458.12,-176.74 451.12,-176.85"/>
</a>
</g>
</g>
<!-- Node11 -->
<g id="Node000011" class="node">
<title>Node11</title>
<g id="a_Node000011"><a xlink:href="STL_8cpp.html" target="_top" xlink:title="Implementation of functions for working with stereolithography files.">
<polygon fill="white" stroke="#666666" points="619.5,-145.5 536.5,-145.5 536.5,-126.5 619.5,-126.5 619.5,-145.5"/>
<text text-anchor="middle" x="578" y="-133.5" font-family="Helvetica,sans-Serif" font-size="10.00">src/io/STL.cpp</text>
</a>
</g>
</g>
<!-- Node9&#45;&gt;Node11 -->
<g id="edge14_Node000009_Node000011" class="edge">
<title>Node9&#45;&gt;Node11</title>
<g id="a_edge14_Node000009_Node000011"><a xlink:title=" ">
<path fill="none" stroke="#63b8ff" d="M490.94,-182.3C514.32,-170.14 543.68,-154.86 561.63,-145.52"/>
<polygon fill="#63b8ff" stroke="#63b8ff" points="489.25,-179.23 481.99,-186.95 492.48,-185.44 489.25,-179.23"/>
</a>
</g>
</g>
<!-- Node10&#45;&gt;Node5 -->
<g id="edge12_Node000010_Node000005" class="edge">
<title>Node10&#45;&gt;Node5</title>
<g id="a_edge12_Node000010_Node000005"><a xlink:title=" ">
<path fill="none" stroke="#63b8ff" d="M468.48,-117.89C480.78,-101.16 494.71,-75.3 483,-55 472.74,-37.21 452.35,-25.9 435.14,-19.13"/>
<polygon fill="#63b8ff" stroke="#63b8ff" points="465.41,-116.13 461.99,-126.16 470.92,-120.45 465.41,-116.13"/>
</a>
</g>
</g>
<!-- Node10&#45;&gt;Node6 -->
<g id="edge13_Node000010_Node000006" class="edge">
<title>Node10&#45;&gt;Node6</title>
<g id="a_edge13_Node000010_Node000006"><a xlink:title=" ">
<path fill="none" stroke="#63b8ff" d="M441.43,-118.24C433.77,-108.02 424.08,-95.1 416.77,-85.36"/>
<polygon fill="#63b8ff" stroke="#63b8ff" points="438.73,-120.47 447.53,-126.37 444.33,-116.27 438.73,-120.47"/>
</a>
</g>
</g>
</g>
</svg>
