<?xml version="1.0" encoding="UTF-8" standalone="no"?>
<!DOCTYPE svg PUBLIC "-//W3C//DTD SVG 1.1//EN"
 "http://www.w3.org/Graphics/SVG/1.1/DTD/svg11.dtd">
<!-- Generated by graphviz version 2.43.0 (0)
 -->
<!-- Title: src/utils/Timer.cpp Pages: 1 -->
<svg width="552pt" height="192pt"
 viewBox="0.00 0.00 552.00 192.00" xmlns="http://www.w3.org/2000/svg" xmlns:xlink="http://www.w3.org/1999/xlink">
<g id="graph0" class="graph" transform="scale(1 1) rotate(0) translate(4 188)">
<title>src/utils/Timer.cpp</title>
<!-- Node1 -->
<g id="Node000001" class="node">
<title>Node1</title>
<g id="a_Node000001"><a xlink:title="Timer class implementations.">
<polygon fill="#999999" stroke="#666666" points="417,-184 311,-184 311,-165 417,-165 417,-184"/>
<text text-anchor="middle" x="364" y="-172" font-family="Helvetica,sans-Serif" font-size="10.00">src/utils/Timer.cpp</text>
</a>
</g>
</g>
<!-- Node2 -->
<g id="Node000002" class="node">
<title>Node2</title>
<g id="a_Node000002"><a xlink:href="Timer_8hpp.html" target="_top" xlink:title="Timer class declarations.">
<polygon fill="white" stroke="#666666" points="250,-129 98,-129 98,-110 250,-110 250,-129"/>
<text text-anchor="middle" x="174" y="-117" font-family="Helvetica,sans-Serif" font-size="10.00">medusa/bits/utils/Timer.hpp</text>
</a>
</g>
</g>
<!-- Node1&#45;&gt;Node2 -->
<g id="edge1_Node000001_Node000002" class="edge">
<title>Node1&#45;&gt;Node2</title>
<g id="a_edge1_Node000001_Node000002"><a xlink:title=" ">
<path fill="none" stroke="#63b8ff" d="M333.47,-164.98C301.3,-156.01 250.44,-141.82 214.83,-131.89"/>
<polygon fill="#63b8ff" stroke="#63b8ff" points="215.34,-128.4 204.77,-129.08 213.46,-135.14 215.34,-128.4"/>
</a>
</g>
</g>
<!-- Node8 -->
<g id="Node000008" class="node">
<title>Node8</title>
<g id="a_Node000008"><a xlink:href="assert_8hpp.html" target="_top" xlink:title="Implementation of custom assert and debug utilities.">
<polygon fill="white" stroke="#666666" points="441.5,-129 286.5,-129 286.5,-110 441.5,-110 441.5,-129"/>
<text text-anchor="middle" x="364" y="-117" font-family="Helvetica,sans-Serif" font-size="10.00">medusa/bits/utils/assert.hpp</text>
</a>
</g>
</g>
<!-- Node1&#45;&gt;Node8 -->
<g id="edge8_Node000001_Node000008" class="edge">
<title>Node1&#45;&gt;Node8</title>
<g id="a_edge8_Node000001_Node000008"><a xlink:title=" ">
<path fill="none" stroke="#63b8ff" d="M364,-164.75C364,-157.8 364,-147.85 364,-139.13"/>
<polygon fill="#63b8ff" stroke="#63b8ff" points="367.5,-139.09 364,-129.09 360.5,-139.09 367.5,-139.09"/>
</a>
</g>
</g>
<!-- Node14 -->
<g id="Node000014" class="node">
<title>Node14</title>
<g id="a_Node000014"><a xlink:title=" ">
<polygon fill="#e0e0e0" stroke="#999999" points="516,-129 460,-129 460,-110 516,-110 516,-129"/>
<text text-anchor="middle" x="488" y="-117" font-family="Helvetica,sans-Serif" font-size="10.00">iomanip</text>
</a>
</g>
</g>
<!-- Node1&#45;&gt;Node14 -->
<g id="edge16_Node000001_Node000014" class="edge">
<title>Node1&#45;&gt;Node14</title>
<g id="a_edge16_Node000001_Node000014"><a xlink:title=" ">
<path fill="none" stroke="#63b8ff" d="M383.92,-164.98C404.05,-156.38 435.38,-142.99 458.41,-133.15"/>
<polygon fill="#63b8ff" stroke="#63b8ff" points="459.9,-136.32 467.71,-129.17 457.14,-129.88 459.9,-136.32"/>
</a>
</g>
</g>
<!-- Node3 -->
<g id="Node000003" class="node">
<title>Node3</title>
<g id="a_Node000003"><a xlink:href="Config_8hpp.html" target="_top" xlink:title="Contains compile time settings for the project, such as Eigen plugins.">
<polygon fill="white" stroke="#666666" points="210,-74 100,-74 100,-55 210,-55 210,-74"/>
<text text-anchor="middle" x="155" y="-62" font-family="Helvetica,sans-Serif" font-size="10.00">medusa/Config.hpp</text>
</a>
</g>
</g>
<!-- Node2&#45;&gt;Node3 -->
<g id="edge2_Node000002_Node000003" class="edge">
<title>Node2&#45;&gt;Node3</title>
<g id="a_edge2_Node000002_Node000003"><a xlink:title=" ">
<path fill="none" stroke="#63b8ff" d="M170.86,-109.75C168.32,-102.65 164.64,-92.4 161.47,-83.56"/>
<polygon fill="#63b8ff" stroke="#63b8ff" points="164.75,-82.32 158.08,-74.09 158.16,-84.68 164.75,-82.32"/>
</a>
</g>
</g>
<!-- Node4 -->
<g id="Node000004" class="node">
<title>Node4</title>
<g id="a_Node000004"><a xlink:title=" ">
<polygon fill="#e0e0e0" stroke="#999999" points="178.5,-19 131.5,-19 131.5,0 178.5,0 178.5,-19"/>
<text text-anchor="middle" x="155" y="-7" font-family="Helvetica,sans-Serif" font-size="10.00">vector</text>
</a>
</g>
</g>
<!-- Node2&#45;&gt;Node4 -->
<g id="edge7_Node000002_Node000004" class="edge">
<title>Node2&#45;&gt;Node4</title>
<g id="a_edge7_Node000002_Node000004"><a xlink:title=" ">
<path fill="none" stroke="#63b8ff" d="M140.98,-109.87C122.82,-103.26 101.83,-92.1 91,-74 78.9,-53.79 103.15,-35.39 125.19,-23.67"/>
<polygon fill="#63b8ff" stroke="#63b8ff" points="127.01,-26.67 134.38,-19.06 123.88,-20.41 127.01,-26.67"/>
</a>
</g>
</g>
<!-- Node5 -->
<g id="Node000005" class="node">
<title>Node5</title>
<g id="a_Node000005"><a xlink:title=" ">
<polygon fill="#e0e0e0" stroke="#999999" points="268,-19 208,-19 208,0 268,0 268,-19"/>
<text text-anchor="middle" x="238" y="-7" font-family="Helvetica,sans-Serif" font-size="10.00">iostream</text>
</a>
</g>
</g>
<!-- Node2&#45;&gt;Node5 -->
<g id="edge4_Node000002_Node000005" class="edge">
<title>Node2&#45;&gt;Node5</title>
<g id="a_edge4_Node000002_Node000005"><a xlink:title=" ">
<path fill="none" stroke="#63b8ff" d="M185.59,-109.84C195.77,-101.66 210.29,-88.51 219,-74 227.33,-60.13 232.24,-42.33 234.98,-29.11"/>
<polygon fill="#63b8ff" stroke="#63b8ff" points="238.42,-29.74 236.79,-19.27 231.54,-28.47 238.42,-29.74"/>
</a>
</g>
</g>
<!-- Node6 -->
<g id="Node000006" class="node">
<title>Node6</title>
<g id="a_Node000006"><a xlink:title=" ">
<polygon fill="#e0e0e0" stroke="#999999" points="316,-74 266,-74 266,-55 316,-55 316,-74"/>
<text text-anchor="middle" x="291" y="-62" font-family="Helvetica,sans-Serif" font-size="10.00">chrono</text>
</a>
</g>
</g>
<!-- Node2&#45;&gt;Node6 -->
<g id="edge5_Node000002_Node000006" class="edge">
<title>Node2&#45;&gt;Node6</title>
<g id="a_edge5_Node000002_Node000006"><a xlink:title=" ">
<path fill="none" stroke="#63b8ff" d="M192.8,-109.98C211.62,-101.46 240.82,-88.23 262.5,-78.41"/>
<polygon fill="#63b8ff" stroke="#63b8ff" points="264.2,-81.48 271.86,-74.17 261.31,-75.11 264.2,-81.48"/>
</a>
</g>
</g>
<!-- Node7 -->
<g id="Node000007" class="node">
<title>Node7</title>
<g id="a_Node000007"><a xlink:title=" ">
<polygon fill="#e0e0e0" stroke="#999999" points="44,-74 0,-74 0,-55 44,-55 44,-74"/>
<text text-anchor="middle" x="22" y="-62" font-family="Helvetica,sans-Serif" font-size="10.00">string</text>
</a>
</g>
</g>
<!-- Node2&#45;&gt;Node7 -->
<g id="edge6_Node000002_Node000007" class="edge">
<title>Node2&#45;&gt;Node7</title>
<g id="a_edge6_Node000002_Node000007"><a xlink:title=" ">
<path fill="none" stroke="#63b8ff" d="M149.58,-109.98C123.6,-100.93 82.41,-86.56 53.89,-76.62"/>
<polygon fill="#63b8ff" stroke="#63b8ff" points="54.97,-73.29 44.38,-73.3 52.67,-79.9 54.97,-73.29"/>
</a>
</g>
</g>
<!-- Node3&#45;&gt;Node4 -->
<g id="edge3_Node000003_Node000004" class="edge">
<title>Node3&#45;&gt;Node4</title>
<g id="a_edge3_Node000003_Node000004"><a xlink:title=" ">
<path fill="none" stroke="#63b8ff" d="M155,-54.75C155,-47.8 155,-37.85 155,-29.13"/>
<polygon fill="#63b8ff" stroke="#63b8ff" points="158.5,-29.09 155,-19.09 151.5,-29.09 158.5,-29.09"/>
</a>
</g>
</g>
<!-- Node9 -->
<g id="Node000009" class="node">
<title>Node9</title>
<g id="a_Node000009"><a xlink:title=" ">
<polygon fill="#e0e0e0" stroke="#999999" points="544,-74 412,-74 412,-55 544,-55 544,-74"/>
<text text-anchor="middle" x="478" y="-62" font-family="Helvetica,sans-Serif" font-size="10.00">tinyformat/tinyformat.h</text>
</a>
</g>
</g>
<!-- Node8&#45;&gt;Node9 -->
<g id="edge9_Node000008_Node000009" class="edge">
<title>Node8&#45;&gt;Node9</title>
<g id="a_edge9_Node000008_Node000009"><a xlink:title=" ">
<path fill="none" stroke="#63b8ff" d="M382.32,-109.98C400.66,-101.46 429.11,-88.23 450.23,-78.41"/>
<polygon fill="#63b8ff" stroke="#63b8ff" points="451.76,-81.56 459.35,-74.17 448.81,-75.21 451.76,-81.56"/>
</a>
</g>
</g>
<!-- Node10 -->
<g id="Node000010" class="node">
<title>Node10</title>
<g id="a_Node000010"><a xlink:href="print_8hpp.html" target="_top" xlink:title="Printing helpers for std types.">
<polygon fill="white" stroke="#666666" points="394,-74 334,-74 334,-55 394,-55 394,-74"/>
<text text-anchor="middle" x="364" y="-62" font-family="Helvetica,sans-Serif" font-size="10.00">print.hpp</text>
</a>
</g>
</g>
<!-- Node8&#45;&gt;Node10 -->
<g id="edge10_Node000008_Node000010" class="edge">
<title>Node8&#45;&gt;Node10</title>
<g id="a_edge10_Node000008_Node000010"><a xlink:title=" ">
<path fill="none" stroke="#63b8ff" d="M364,-109.75C364,-102.8 364,-92.85 364,-84.13"/>
<polygon fill="#63b8ff" stroke="#63b8ff" points="367.5,-84.09 364,-74.09 360.5,-84.09 367.5,-84.09"/>
</a>
</g>
</g>
<!-- Node10&#45;&gt;Node4 -->
<g id="edge12_Node000010_Node000004" class="edge">
<title>Node10&#45;&gt;Node4</title>
<g id="a_edge12_Node000010_Node000004"><a xlink:title=" ">
<path fill="none" stroke="#63b8ff" d="M333.61,-55.79C294.97,-45.99 228.48,-29.13 188.44,-18.98"/>
<polygon fill="#63b8ff" stroke="#63b8ff" points="189.17,-15.56 178.62,-16.49 187.45,-22.34 189.17,-15.56"/>
</a>
</g>
</g>
<!-- Node10&#45;&gt;Node5 -->
<g id="edge11_Node000010_Node000005" class="edge">
<title>Node10&#45;&gt;Node5</title>
<g id="a_edge11_Node000010_Node000005"><a xlink:title=" ">
<path fill="none" stroke="#63b8ff" d="M343.76,-54.98C323.3,-46.38 291.47,-32.99 268.07,-23.15"/>
<polygon fill="#63b8ff" stroke="#63b8ff" points="269.19,-19.82 258.61,-19.17 266.47,-26.27 269.19,-19.82"/>
</a>
</g>
</g>
<!-- Node11 -->
<g id="Node000011" class="node">
<title>Node11</title>
<g id="a_Node000011"><a xlink:title=" ">
<polygon fill="#e0e0e0" stroke="#999999" points="451,-19 409,-19 409,0 451,0 451,-19"/>
<text text-anchor="middle" x="430" y="-7" font-family="Helvetica,sans-Serif" font-size="10.00">array</text>
</a>
</g>
</g>
<!-- Node10&#45;&gt;Node11 -->
<g id="edge13_Node000010_Node000011" class="edge">
<title>Node10&#45;&gt;Node11</title>
<g id="a_edge13_Node000010_Node000011"><a xlink:title=" ">
<path fill="none" stroke="#63b8ff" d="M374.6,-54.98C384.46,-47.07 399.35,-35.11 411.22,-25.58"/>
<polygon fill="#63b8ff" stroke="#63b8ff" points="413.6,-28.16 419.2,-19.17 409.21,-22.7 413.6,-28.16"/>
</a>
</g>
</g>
<!-- Node12 -->
<g id="Node000012" class="node">
<title>Node12</title>
<g id="a_Node000012"><a xlink:title=" ">
<polygon fill="#e0e0e0" stroke="#999999" points="331.5,-19 286.5,-19 286.5,0 331.5,0 331.5,-19"/>
<text text-anchor="middle" x="309" y="-7" font-family="Helvetica,sans-Serif" font-size="10.00">utility</text>
</a>
</g>
</g>
<!-- Node10&#45;&gt;Node12 -->
<g id="edge14_Node000010_Node000012" class="edge">
<title>Node10&#45;&gt;Node12</title>
<g id="a_edge14_Node000010_Node000012"><a xlink:title=" ">
<path fill="none" stroke="#63b8ff" d="M354.92,-54.75C346.91,-47.03 335.04,-35.6 325.38,-26.28"/>
<polygon fill="#63b8ff" stroke="#63b8ff" points="327.54,-23.51 317.91,-19.09 322.69,-28.55 327.54,-23.51"/>
</a>
</g>
</g>
<!-- Node13 -->
<g id="Node000013" class="node">
<title>Node13</title>
<g id="a_Node000013"><a xlink:title=" ">
<polygon fill="#e0e0e0" stroke="#999999" points="390.5,-19 349.5,-19 349.5,0 390.5,0 390.5,-19"/>
<text text-anchor="middle" x="370" y="-7" font-family="Helvetica,sans-Serif" font-size="10.00">tuple</text>
</a>
</g>
</g>
<!-- Node10&#45;&gt;Node13 -->
<g id="edge15_Node000010_Node000013" class="edge">
<title>Node10&#45;&gt;Node13</title>
<g id="a_edge15_Node000010_Node000013"><a xlink:title=" ">
<path fill="none" stroke="#63b8ff" d="M364.99,-54.75C365.78,-47.8 366.9,-37.85 367.89,-29.13"/>
<polygon fill="#63b8ff" stroke="#63b8ff" points="371.38,-29.42 369.03,-19.09 364.42,-28.63 371.38,-29.42"/>
</a>
</g>
</g>
</g>
</svg>
