<?xml version="1.0" encoding="UTF-8" standalone="no"?>
<!DOCTYPE svg PUBLIC "-//W3C//DTD SVG 1.1//EN"
 "http://www.w3.org/Graphics/SVG/1.1/DTD/svg11.dtd">
<!-- Generated by graphviz version 2.43.0 (0)
 -->
<!-- Title: src/operators/UniformShapeStorage.cpp Pages: 1 -->
<!--zoomable 643 -->

<svg id="main" version="1.1" xmlns="http://www.w3.org/2000/svg" xmlns:xlink="http://www.w3.org/1999/xlink" xml:space="preserve" onload="init(evt)">
<style type="text/css"><![CDATA[
.node, .edge {opacity: 0.7;}
.node.selected, .edge.selected {opacity: 1;}
.edge:hover path { stroke: red; }
.edge:hover polygon { stroke: red; fill: red; }
]]></style>

<defs>
  <circle id="rim" cx="0" cy="0" r="7"/>
  <circle id="rim2" cx="0" cy="0" r="3.5"/>
  <g id="zoomPlus">
    <use xlink:href="#rim" fill="#404040"><set attributeName="fill" to="#808080" begin="zoomplus.mouseover" end="zoomplus.mouseout"/></use>
    <path d="M-4,0h8M0,-4v8" fill="none" stroke="white" stroke-width="1.5" pointer-events="none"/>
  </g>
  <g id="zoomMin">
    <use xlink:href="#rim" fill="#404040"><set attributeName="fill" to="#808080" begin="zoomminus.mouseover" end="zoomminus.mouseout"/></use>
    <path d="M-4,0h8" fill="none" stroke="white" stroke-width="1.5" pointer-events="none"/>
  </g>
  <g id="arrowUp" transform="translate(30 24)">
    <use xlink:href="#rim"/>
    <path pointer-events="none" fill="none" stroke="white" stroke-width="1.5" d="M0,-3.0v7 M-2.5,-0.5L0,-3.0L2.5,-0.5"/>
  </g>
  <g id="arrowRight" transform="rotate(90) translate(36 -43)">
    <use xlink:href="#rim"/>
    <path pointer-events="none" fill="none" stroke="white" stroke-width="1.5" d="M0,-3.0v7 M-2.5,-0.5L0,-3.0L2.5,-0.5"/>
  </g>
  <g id="arrowDown" transform="rotate(180) translate(-30 -48)">
    <use xlink:href="#rim"/>
    <path pointer-events="none" fill="none" stroke="white" stroke-width="1.5" d="M0,-3.0v7 M-2.5,-0.5L0,-3.0L2.5,-0.5"/>
  </g>
  <g id="arrowLeft" transform="rotate(270) translate(-36 17)">
    <use xlink:href="#rim"/>
    <path pointer-events="none" fill="none" stroke="white" stroke-width="1.5" d="M0,-3.0v7 M-2.5,-0.5L0,-3.0L2.5,-0.5"/>
  </g>
  <g id="resetDef">
    <use xlink:href="#rim2" fill="#404040"><set attributeName="fill" to="#808080" begin="reset.mouseover" end="reset.mouseout"/></use>
  </g>
</defs>
<script type="application/ecmascript">
var viewWidth = 1630;
var viewHeight = 643;
var sectionId = 'dynsection-0';
</script>
<script type="application/ecmascript" xlink:href="svg.min.js"/>
<svg id="graph" class="graph">
<g id="viewport">
<title>src/operators/UniformShapeStorage.cpp</title>
<!-- Node1 -->
<g id="Node000001" class="node">
<title>Node1</title>
<g id="a_Node000001"><a xlink:title="Instantiations of shape storage for uniform shapes.">
<polygon fill="#999999" stroke="#666666" points="1303.5,-635 1150.5,-635 1150.5,-605 1303.5,-605 1303.5,-635"/>
<text text-anchor="start" x="1158.5" y="-623" font-family="Helvetica,sans-Serif" font-size="10.00">src/operators/UniformShape</text>
<text text-anchor="middle" x="1227" y="-612" font-family="Helvetica,sans-Serif" font-size="10.00">Storage.cpp</text>
</a>
</g>
</g>
<!-- Node2 -->
<g id="Node000002" class="node">
<title>Node2</title>
<g id="a_Node000002"><a xlink:href="UniformShapeStorage_8hpp.html" target="_top" xlink:title="Implementation of shape storage for uniformly long shapes.">
<polygon fill="white" stroke="#666666" points="1218,-569 1070,-569 1070,-539 1218,-539 1218,-569"/>
<text text-anchor="start" x="1078" y="-557" font-family="Helvetica,sans-Serif" font-size="10.00">medusa/bits/operators</text>
<text text-anchor="middle" x="1144" y="-546" font-family="Helvetica,sans-Serif" font-size="10.00">/UniformShapeStorage.hpp</text>
</a>
</g>
</g>
<!-- Node1&#45;&gt;Node2 -->
<g id="edge1_Node000001_Node000002" class="edge">
<title>Node1&#45;&gt;Node2</title>
<g id="a_edge1_Node000001_Node000002"><a xlink:title=" ">
<path fill="none" stroke="#63b8ff" d="M1208.58,-604.8C1197.4,-596.18 1182.95,-585.04 1170.56,-575.48"/>
<polygon fill="#63b8ff" stroke="#63b8ff" points="1172.43,-572.5 1162.37,-569.16 1168.15,-578.04 1172.43,-572.5"/>
</a>
</g>
</g>
<!-- Node32 -->
<g id="Node000032" class="node">
<title>Node32</title>
<g id="a_Node000032"><a xlink:href="Vec_8hpp.html" target="_top" xlink:title="Implemetations for Vec.">
<polygon fill="white" stroke="#666666" points="1487,-563.5 1339,-563.5 1339,-544.5 1487,-544.5 1487,-563.5"/>
<text text-anchor="middle" x="1413" y="-551.5" font-family="Helvetica,sans-Serif" font-size="10.00">medusa/bits/types/Vec.hpp</text>
</a>
</g>
</g>
<!-- Node1&#45;&gt;Node32 -->
<g id="edge70_Node000001_Node000032" class="edge">
<title>Node1&#45;&gt;Node32</title>
<g id="a_edge70_Node000001_Node000032"><a xlink:title=" ">
<path fill="none" stroke="#63b8ff" d="M1267.82,-604.95C1301.01,-593.53 1347.32,-577.6 1378.64,-566.82"/>
<polygon fill="#63b8ff" stroke="#63b8ff" points="1379.93,-570.08 1388.25,-563.52 1377.65,-563.46 1379.93,-570.08"/>
</a>
</g>
</g>
<!-- Node3 -->
<g id="Node000003" class="node">
<title>Node3</title>
<g id="a_Node000003"><a xlink:href="UniformShapeStorage__fwd_8hpp.html" target="_top" xlink:title="Declaration of shape storage for uniformly long shapes.">
<polygon fill="white" stroke="#666666" points="890,-448 766,-448 766,-418 890,-418 890,-448"/>
<text text-anchor="start" x="774" y="-436" font-family="Helvetica,sans-Serif" font-size="10.00">UniformShapeStorage</text>
<text text-anchor="middle" x="828" y="-425" font-family="Helvetica,sans-Serif" font-size="10.00">_fwd.hpp</text>
</a>
</g>
</g>
<!-- Node2&#45;&gt;Node3 -->
<g id="edge2_Node000002_Node000003" class="edge">
<title>Node2&#45;&gt;Node3</title>
<g id="a_edge2_Node000002_Node000003"><a xlink:title=" ">
<path fill="none" stroke="#63b8ff" d="M1095.14,-538.99C1063.69,-529.61 1022.09,-516.55 986,-503 944.73,-487.51 898.66,-467.01 866.96,-452.39"/>
<polygon fill="#63b8ff" stroke="#63b8ff" points="868.16,-449.08 857.61,-448.05 865.21,-455.43 868.16,-449.08"/>
</a>
</g>
</g>
<!-- Node12 -->
<g id="Node000012" class="node">
<title>Node12</title>
<g id="a_Node000012"><a xlink:title=" ">
<polygon fill="#e0e0e0" stroke="#999999" points="1465.5,-74 1396.5,-74 1396.5,-55 1465.5,-55 1465.5,-74"/>
<text text-anchor="middle" x="1431" y="-62" font-family="Helvetica,sans-Serif" font-size="10.00">Eigen/Core</text>
</a>
</g>
</g>
<!-- Node2&#45;&gt;Node12 -->
<g id="edge69_Node000002_Node000012" class="edge">
<title>Node2&#45;&gt;Node12</title>
<g id="a_edge69_Node000002_Node000012"><a xlink:title=" ">
<path fill="none" stroke="#63b8ff" d="M1218.16,-542.18C1352.42,-521.58 1622,-475.1 1622,-434 1622,-434 1622,-434 1622,-179 1622,-111.28 1532.16,-83.06 1475.71,-72.02"/>
<polygon fill="#63b8ff" stroke="#63b8ff" points="1476.06,-68.52 1465.59,-70.15 1474.79,-75.4 1476.06,-68.52"/>
</a>
</g>
</g>
<!-- Node16 -->
<g id="Node000016" class="node">
<title>Node16</title>
<g id="a_Node000016"><a xlink:href="assert_8hpp.html" target="_top" xlink:title="Implementation of custom assert and debug utilities.">
<polygon fill="white" stroke="#666666" points="561.5,-129 406.5,-129 406.5,-110 561.5,-110 561.5,-129"/>
<text text-anchor="middle" x="484" y="-117" font-family="Helvetica,sans-Serif" font-size="10.00">medusa/bits/utils/assert.hpp</text>
</a>
</g>
</g>
<!-- Node2&#45;&gt;Node16 -->
<g id="edge67_Node000002_Node000016" class="edge">
<title>Node2&#45;&gt;Node16</title>
<g id="a_edge67_Node000002_Node000016"><a xlink:title=" ">
<path fill="none" stroke="#63b8ff" d="M1069.89,-547.33C897.48,-533.14 484,-492.98 484,-434 484,-434 484,-434 484,-239.5 484,-204.15 484,-162.9 484,-139.42"/>
<polygon fill="#63b8ff" stroke="#63b8ff" points="487.5,-139.16 484,-129.16 480.5,-139.16 487.5,-139.16"/>
</a>
</g>
</g>
<!-- Node28 -->
<g id="Node000028" class="node">
<title>Node28</title>
<g id="a_Node000028"><a xlink:href="ShapeStorage_8hpp.html" target="_top" xlink:title="Implementations of the ShapeStorage interface.">
<polygon fill="white" stroke="#666666" points="1100.5,-503 995.5,-503 995.5,-484 1100.5,-484 1100.5,-503"/>
<text text-anchor="middle" x="1048" y="-491" font-family="Helvetica,sans-Serif" font-size="10.00">ShapeStorage.hpp</text>
</a>
</g>
</g>
<!-- Node2&#45;&gt;Node28 -->
<g id="edge57_Node000002_Node000028" class="edge">
<title>Node2&#45;&gt;Node28</title>
<g id="a_edge57_Node000002_Node000028"><a xlink:title=" ">
<path fill="none" stroke="#63b8ff" d="M1120.76,-538.84C1105.6,-529.6 1085.89,-517.59 1070.81,-508.4"/>
<polygon fill="#63b8ff" stroke="#63b8ff" points="1072.46,-505.31 1062.1,-503.09 1068.82,-511.29 1072.46,-505.31"/>
</a>
</g>
</g>
<!-- Node29 -->
<g id="Node000029" class="node">
<title>Node29</title>
<g id="a_Node000029"><a xlink:href="printShapes_8hpp.html" target="_top" xlink:title="Suppport functions for shape printing.">
<polygon fill="white" stroke="#666666" points="1171.5,-442.5 1076.5,-442.5 1076.5,-423.5 1171.5,-423.5 1171.5,-442.5"/>
<text text-anchor="middle" x="1124" y="-430.5" font-family="Helvetica,sans-Serif" font-size="10.00">printShapes.hpp</text>
</a>
</g>
</g>
<!-- Node2&#45;&gt;Node29 -->
<g id="edge66_Node000002_Node000029" class="edge">
<title>Node2&#45;&gt;Node29</title>
<g id="a_edge66_Node000002_Node000029"><a xlink:title=" ">
<path fill="none" stroke="#63b8ff" d="M1158.85,-538.91C1171.52,-525.09 1186.45,-503.34 1178,-484 1171.64,-469.45 1158.72,-457.24 1147.12,-448.53"/>
<polygon fill="#63b8ff" stroke="#63b8ff" points="1148.82,-445.45 1138.63,-442.57 1144.8,-451.18 1148.82,-445.45"/>
</a>
</g>
</g>
<!-- Node31 -->
<g id="Node000031" class="node">
<title>Node31</title>
<g id="a_Node000031"><a xlink:title=" ">
<polygon fill="#e0e0e0" stroke="#999999" points="1169,-503 1119,-503 1119,-484 1169,-484 1169,-503"/>
<text text-anchor="middle" x="1144" y="-491" font-family="Helvetica,sans-Serif" font-size="10.00">cstring</text>
</a>
</g>
</g>
<!-- Node2&#45;&gt;Node31 -->
<g id="edge68_Node000002_Node000031" class="edge">
<title>Node2&#45;&gt;Node31</title>
<g id="a_edge68_Node000002_Node000031"><a xlink:title=" ">
<path fill="none" stroke="#63b8ff" d="M1144,-538.84C1144,-531.21 1144,-521.7 1144,-513.45"/>
<polygon fill="#63b8ff" stroke="#63b8ff" points="1147.5,-513.27 1144,-503.27 1140.5,-513.27 1147.5,-513.27"/>
</a>
</g>
</g>
<!-- Node4 -->
<g id="Node000004" class="node">
<title>Node4</title>
<g id="a_Node000004"><a xlink:href="Config_8hpp.html" target="_top" xlink:title="Contains compile time settings for the project, such as Eigen plugins.">
<polygon fill="white" stroke="#666666" points="1050,-74 940,-74 940,-55 1050,-55 1050,-74"/>
<text text-anchor="middle" x="995" y="-62" font-family="Helvetica,sans-Serif" font-size="10.00">medusa/Config.hpp</text>
</a>
</g>
</g>
<!-- Node3&#45;&gt;Node4 -->
<g id="edge3_Node000003_Node000004" class="edge">
<title>Node3&#45;&gt;Node4</title>
<g id="a_edge3_Node000003_Node000004"><a xlink:title=" ">
<path fill="none" stroke="#63b8ff" d="M829.34,-417.72C831.35,-401.15 836.14,-373.38 847,-352 888.53,-270.2 937.55,-275.8 981,-195 999.33,-160.91 1002.16,-148.65 1000,-110 999.52,-101.45 998.53,-92.03 997.55,-84.06"/>
<polygon fill="#63b8ff" stroke="#63b8ff" points="1001.01,-83.47 996.24,-74.01 994.07,-84.38 1001.01,-83.47"/>
</a>
</g>
</g>
<!-- Node5 -->
<g id="Node000005" class="node">
<title>Node5</title>
<g id="a_Node000005"><a xlink:title=" ">
<polygon fill="#e0e0e0" stroke="#999999" points="541.5,-19 494.5,-19 494.5,0 541.5,0 541.5,-19"/>
<text text-anchor="middle" x="518" y="-7" font-family="Helvetica,sans-Serif" font-size="10.00">vector</text>
</a>
</g>
</g>
<!-- Node3&#45;&gt;Node5 -->
<g id="edge5_Node000003_Node000005" class="edge">
<title>Node3&#45;&gt;Node5</title>
<g id="a_edge5_Node000003_Node000005"><a xlink:title=" ">
<path fill="none" stroke="#63b8ff" d="M765.77,-428.79C573.2,-418.03 0,-379.48 0,-302 0,-302 0,-302 0,-179 0,-76.75 369.62,-27.01 484.41,-14.03"/>
<polygon fill="#63b8ff" stroke="#63b8ff" points="484.84,-17.5 494.4,-12.92 484.07,-10.55 484.84,-17.5"/>
</a>
</g>
</g>
<!-- Node6 -->
<g id="Node000006" class="node">
<title>Node6</title>
<g id="a_Node000006"><a xlink:href="shape__flags_8hpp.html" target="_top" xlink:title="Definition of flags related to shape computation.">
<polygon fill="white" stroke="#666666" points="982,-382 856,-382 856,-352 982,-352 982,-382"/>
<text text-anchor="start" x="864" y="-370" font-family="Helvetica,sans-Serif" font-size="10.00">medusa/bits/operators</text>
<text text-anchor="middle" x="919" y="-359" font-family="Helvetica,sans-Serif" font-size="10.00">/shape_flags.hpp</text>
</a>
</g>
</g>
<!-- Node3&#45;&gt;Node6 -->
<g id="edge6_Node000003_Node000006" class="edge">
<title>Node3&#45;&gt;Node6</title>
<g id="a_edge6_Node000003_Node000006"><a xlink:title=" ">
<path fill="none" stroke="#63b8ff" d="M848.2,-417.8C860.68,-409.01 876.9,-397.61 890.66,-387.93"/>
<polygon fill="#63b8ff" stroke="#63b8ff" points="892.69,-390.78 898.86,-382.16 888.67,-385.05 892.69,-390.78"/>
</a>
</g>
</g>
<!-- Node3&#45;&gt;Node12 -->
<g id="edge36_Node000003_Node000012" class="edge">
<title>Node3&#45;&gt;Node12</title>
<g id="a_edge36_Node000003_Node000012"><a xlink:title=" ">
<path fill="none" stroke="#63b8ff" d="M890.22,-432.27C988.55,-429.6 1181.54,-411.46 1307,-316 1386.2,-255.74 1418.09,-131.26 1427.64,-84.13"/>
<polygon fill="#63b8ff" stroke="#63b8ff" points="1431.11,-84.61 1429.56,-74.13 1424.23,-83.29 1431.11,-84.61"/>
</a>
</g>
</g>
<!-- Node15 -->
<g id="Node000015" class="node">
<title>Node15</title>
<g id="a_Node000015"><a xlink:title=" ">
<polygon fill="#e0e0e0" stroke="#999999" points="690,-74 642,-74 642,-55 690,-55 690,-74"/>
<text text-anchor="middle" x="666" y="-62" font-family="Helvetica,sans-Serif" font-size="10.00">iosfwd</text>
</a>
</g>
</g>
<!-- Node3&#45;&gt;Node15 -->
<g id="edge35_Node000003_Node000015" class="edge">
<title>Node3&#45;&gt;Node15</title>
<g id="a_edge35_Node000003_Node000015"><a xlink:title=" ">
<path fill="none" stroke="#63b8ff" d="M772.57,-417.95C617.91,-377.34 189.31,-254.68 133,-129 129.55,-121.29 127.28,-116.21 133,-110 166.08,-74.09 522.35,-78.18 571,-74 591.14,-72.27 613.66,-70.26 631.73,-68.63"/>
<polygon fill="#63b8ff" stroke="#63b8ff" points="632.15,-72.1 641.8,-67.71 631.52,-65.13 632.15,-72.1"/>
</a>
</g>
</g>
<!-- Node22 -->
<g id="Node000022" class="node">
<title>Node22</title>
<g id="a_Node000022"><a xlink:href="ShapeStorage__fwd_8hpp.html" target="_top" xlink:title="Base class and interface for storing and accessing computed shapes.">
<polygon fill="white" stroke="#666666" points="854,-250 726,-250 726,-231 854,-231 854,-250"/>
<text text-anchor="middle" x="790" y="-238" font-family="Helvetica,sans-Serif" font-size="10.00">ShapeStorage_fwd.hpp</text>
</a>
</g>
</g>
<!-- Node3&#45;&gt;Node22 -->
<g id="edge37_Node000003_Node000022" class="edge">
<title>Node3&#45;&gt;Node22</title>
<g id="a_edge37_Node000003_Node000022"><a xlink:title=" ">
<path fill="none" stroke="#63b8ff" d="M823.56,-417.66C820.58,-407.72 816.73,-394.14 814,-382 804.27,-338.69 796.39,-287.1 792.55,-260.09"/>
<polygon fill="#63b8ff" stroke="#63b8ff" points="796,-259.53 791.15,-250.11 789.07,-260.5 796,-259.53"/>
</a>
</g>
</g>
<!-- Node4&#45;&gt;Node5 -->
<g id="edge4_Node000004_Node000005" class="edge">
<title>Node4&#45;&gt;Node5</title>
<g id="a_edge4_Node000004_Node000005"><a xlink:title=" ">
<path fill="none" stroke="#63b8ff" d="M939.82,-57.37C840.19,-46.3 633.09,-23.29 551.79,-14.25"/>
<polygon fill="#63b8ff" stroke="#63b8ff" points="551.95,-10.75 541.63,-13.13 551.18,-17.71 551.95,-10.75"/>
</a>
</g>
</g>
<!-- Node7 -->
<g id="Node000007" class="node">
<title>Node7</title>
<g id="a_Node000007"><a xlink:title=" ">
<polygon fill="#e0e0e0" stroke="#999999" points="186,-129 142,-129 142,-110 186,-110 186,-129"/>
<text text-anchor="middle" x="164" y="-117" font-family="Helvetica,sans-Serif" font-size="10.00">string</text>
</a>
</g>
</g>
<!-- Node6&#45;&gt;Node7 -->
<g id="edge7_Node000006_Node000007" class="edge">
<title>Node6&#45;&gt;Node7</title>
<g id="a_edge7_Node000006_Node000007"><a xlink:title=" ">
<path fill="none" stroke="#63b8ff" d="M886.65,-351.98C821.56,-324.37 669.56,-262.84 536,-231 415.24,-202.21 373.48,-243.02 259,-195 226.82,-181.5 196.31,-154.05 178.92,-136.5"/>
<polygon fill="#63b8ff" stroke="#63b8ff" points="181.35,-133.98 171.89,-129.22 176.31,-138.85 181.35,-133.98"/>
</a>
</g>
</g>
<!-- Node8 -->
<g id="Node000008" class="node">
<title>Node8</title>
<g id="a_Node000008"><a xlink:title=" ">
<polygon fill="#e0e0e0" stroke="#999999" points="146.5,-19 105.5,-19 105.5,0 146.5,0 146.5,-19"/>
<text text-anchor="middle" x="126" y="-7" font-family="Helvetica,sans-Serif" font-size="10.00">tuple</text>
</a>
</g>
</g>
<!-- Node6&#45;&gt;Node8 -->
<g id="edge8_Node000006_Node000008" class="edge">
<title>Node6&#45;&gt;Node8</title>
<g id="a_edge8_Node000006_Node000008"><a xlink:title=" ">
<path fill="none" stroke="#63b8ff" d="M855.99,-363.73C654.35,-355.65 38,-324.19 38,-241.5 38,-241.5 38,-241.5 38,-118.5 38,-77.39 76.79,-43.26 102.86,-24.97"/>
<polygon fill="#63b8ff" stroke="#63b8ff" points="105.13,-27.66 111.47,-19.17 101.22,-21.85 105.13,-27.66"/>
</a>
</g>
</g>
<!-- Node9 -->
<g id="Node000009" class="node">
<title>Node9</title>
<g id="a_Node000009"><a xlink:href="bits_2approximations_2Operators_8hpp.html" target="_top" xlink:title="Implementations of differential operator families.">
<polygon fill="white" stroke="#666666" points="1298,-316 1142,-316 1142,-286 1298,-286 1298,-316"/>
<text text-anchor="start" x="1150" y="-304" font-family="Helvetica,sans-Serif" font-size="10.00">medusa/bits/approximations</text>
<text text-anchor="middle" x="1220" y="-293" font-family="Helvetica,sans-Serif" font-size="10.00">/Operators.hpp</text>
</a>
</g>
</g>
<!-- Node6&#45;&gt;Node9 -->
<g id="edge9_Node000006_Node000009" class="edge">
<title>Node6&#45;&gt;Node9</title>
<g id="a_edge9_Node000006_Node000009"><a xlink:title=" ">
<path fill="none" stroke="#63b8ff" d="M982.1,-352.58C1029.37,-342.53 1094.25,-328.74 1144.31,-318.09"/>
<polygon fill="#63b8ff" stroke="#63b8ff" points="1145.07,-321.51 1154.12,-316.01 1143.61,-314.66 1145.07,-321.51"/>
</a>
</g>
</g>
<!-- Node10 -->
<g id="Node000010" class="node">
<title>Node10</title>
<g id="a_Node000010"><a xlink:href="Operators__fwd_8hpp.html" target="_top" xlink:title="File defining basic differential operator families.">
<polygon fill="white" stroke="#666666" points="1302,-189.5 1194,-189.5 1194,-170.5 1302,-170.5 1302,-189.5"/>
<text text-anchor="middle" x="1248" y="-177.5" font-family="Helvetica,sans-Serif" font-size="10.00">Operators_fwd.hpp</text>
</a>
</g>
</g>
<!-- Node9&#45;&gt;Node10 -->
<g id="edge10_Node000009_Node000010" class="edge">
<title>Node9&#45;&gt;Node10</title>
<g id="a_edge10_Node000009_Node000010"><a xlink:title=" ">
<path fill="none" stroke="#63b8ff" d="M1223.32,-285.88C1228.37,-264.41 1237.99,-223.52 1243.61,-199.64"/>
<polygon fill="#63b8ff" stroke="#63b8ff" points="1247.07,-200.25 1245.95,-189.71 1240.25,-198.64 1247.07,-200.25"/>
</a>
</g>
</g>
<!-- Node13 -->
<g id="Node000013" class="node">
<title>Node13</title>
<g id="a_Node000013"><a xlink:href="Monomials__fwd_8hpp.html" target="_top" xlink:title="Declaration of Monomial basis.">
<polygon fill="white" stroke="#666666" points="1308,-129 1194,-129 1194,-110 1308,-110 1308,-129"/>
<text text-anchor="middle" x="1251" y="-117" font-family="Helvetica,sans-Serif" font-size="10.00">Monomials_fwd.hpp</text>
</a>
</g>
</g>
<!-- Node9&#45;&gt;Node13 -->
<g id="edge29_Node000009_Node000013" class="edge">
<title>Node9&#45;&gt;Node13</title>
<g id="a_edge29_Node000009_Node000013"><a xlink:title=" ">
<path fill="none" stroke="#63b8ff" d="M1238.67,-285.74C1260.82,-267.51 1296.58,-233.65 1311,-195 1315.66,-182.51 1316.99,-176.91 1311,-165 1304.31,-151.71 1291.56,-141.39 1279.53,-134.05"/>
<polygon fill="#63b8ff" stroke="#63b8ff" points="1281.01,-130.87 1270.58,-129.02 1277.58,-136.97 1281.01,-130.87"/>
</a>
</g>
</g>
<!-- Node21 -->
<g id="Node000021" class="node">
<title>Node21</title>
<g id="a_Node000021"><a xlink:href="RBFBasis__fwd_8hpp.html" target="_top" xlink:title="Declaration of RBF basis.">
<polygon fill="white" stroke="#666666" points="1220,-250 1114,-250 1114,-231 1220,-231 1220,-250"/>
<text text-anchor="middle" x="1167" y="-238" font-family="Helvetica,sans-Serif" font-size="10.00">RBFBasis_fwd.hpp</text>
</a>
</g>
</g>
<!-- Node9&#45;&gt;Node21 -->
<g id="edge30_Node000009_Node000021" class="edge">
<title>Node9&#45;&gt;Node21</title>
<g id="a_edge30_Node000009_Node000021"><a xlink:title=" ">
<path fill="none" stroke="#63b8ff" d="M1207.17,-285.84C1199.48,-277.35 1189.67,-266.52 1181.67,-257.69"/>
<polygon fill="#63b8ff" stroke="#63b8ff" points="1184.25,-255.33 1174.94,-250.27 1179.06,-260.03 1184.25,-255.33"/>
</a>
</g>
</g>
<!-- Node10&#45;&gt;Node4 -->
<g id="edge11_Node000010_Node000004" class="edge">
<title>Node10&#45;&gt;Node4</title>
<g id="a_edge11_Node000010_Node000004"><a xlink:title=" ">
<path fill="none" stroke="#63b8ff" d="M1221.9,-170.42C1194.59,-161.17 1150.67,-145.54 1114,-129 1080.04,-113.69 1042.33,-92.88 1018.65,-79.33"/>
<polygon fill="#63b8ff" stroke="#63b8ff" points="1020.12,-76.13 1009.71,-74.17 1016.62,-82.2 1020.12,-76.13"/>
</a>
</g>
</g>
<!-- Node10&#45;&gt;Node5 -->
<g id="edge13_Node000010_Node000005" class="edge">
<title>Node10&#45;&gt;Node5</title>
<g id="a_edge13_Node000010_Node000005"><a xlink:title=" ">
<path fill="none" stroke="#63b8ff" d="M1236.66,-170.47C1202.14,-144.69 1098.34,-68.53 1059,-55 964.43,-22.46 654.82,-13.29 551.73,-11.1"/>
<polygon fill="#63b8ff" stroke="#63b8ff" points="551.65,-7.6 541.58,-10.9 551.51,-14.6 551.65,-7.6"/>
</a>
</g>
</g>
<!-- Node11 -->
<g id="Node000011" class="node">
<title>Node11</title>
<g id="a_Node000011"><a xlink:title=" ">
<polygon fill="#e0e0e0" stroke="#999999" points="1239,-19 1197,-19 1197,0 1239,0 1239,-19"/>
<text text-anchor="middle" x="1218" y="-7" font-family="Helvetica,sans-Serif" font-size="10.00">array</text>
</a>
</g>
</g>
<!-- Node10&#45;&gt;Node11 -->
<g id="edge12_Node000010_Node000011" class="edge">
<title>Node10&#45;&gt;Node11</title>
<g id="a_edge12_Node000010_Node000011"><a xlink:title=" ">
<path fill="none" stroke="#63b8ff" d="M1268.85,-170.35C1292.84,-158.95 1327.64,-137.13 1317,-110 1302.18,-72.22 1264.74,-41.48 1240.39,-24.62"/>
<polygon fill="#63b8ff" stroke="#63b8ff" points="1242.33,-21.7 1232.07,-19.04 1238.43,-27.52 1242.33,-21.7"/>
</a>
</g>
</g>
<!-- Node10&#45;&gt;Node12 -->
<g id="edge14_Node000010_Node000012" class="edge">
<title>Node10&#45;&gt;Node12</title>
<g id="a_edge14_Node000010_Node000012"><a xlink:title=" ">
<path fill="none" stroke="#63b8ff" d="M1268.6,-170.43C1289.69,-161.3 1323.1,-145.87 1350,-129 1373.24,-114.42 1397.75,-94.48 1413.64,-80.86"/>
<polygon fill="#63b8ff" stroke="#63b8ff" points="1416.26,-83.22 1421.51,-74.02 1411.67,-77.93 1416.26,-83.22"/>
</a>
</g>
</g>
<!-- Node10&#45;&gt;Node13 -->
<g id="edge15_Node000010_Node000013" class="edge">
<title>Node10&#45;&gt;Node13</title>
<g id="a_edge15_Node000010_Node000013"><a xlink:title=" ">
<path fill="none" stroke="#63b8ff" d="M1248.44,-170.37C1248.86,-162.25 1249.5,-149.81 1250.03,-139.39"/>
<polygon fill="#63b8ff" stroke="#63b8ff" points="1253.54,-139.33 1250.56,-129.17 1246.55,-138.97 1253.54,-139.33"/>
</a>
</g>
</g>
<!-- Node10&#45;&gt;Node16 -->
<g id="edge21_Node000010_Node000016" class="edge">
<title>Node10&#45;&gt;Node16</title>
<g id="a_edge21_Node000010_Node000016"><a xlink:title=" ">
<path fill="none" stroke="#63b8ff" d="M1193.97,-174.86C1063.7,-164.89 731.29,-139.44 571.87,-127.23"/>
<polygon fill="#63b8ff" stroke="#63b8ff" points="571.86,-123.72 561.63,-126.44 571.33,-130.7 571.86,-123.72"/>
</a>
</g>
</g>
<!-- Node13&#45;&gt;Node4 -->
<g id="edge16_Node000013_Node000004" class="edge">
<title>Node13&#45;&gt;Node4</title>
<g id="a_edge16_Node000013_Node000004"><a xlink:title=" ">
<path fill="none" stroke="#63b8ff" d="M1209.87,-109.98C1165.4,-100.78 1094.45,-86.09 1046.35,-76.13"/>
<polygon fill="#63b8ff" stroke="#63b8ff" points="1046.96,-72.68 1036.45,-74.08 1045.54,-79.54 1046.96,-72.68"/>
</a>
</g>
</g>
<!-- Node13&#45;&gt;Node11 -->
<g id="edge18_Node000013_Node000011" class="edge">
<title>Node13&#45;&gt;Node11</title>
<g id="a_edge18_Node000013_Node000011"><a xlink:title=" ">
<path fill="none" stroke="#63b8ff" d="M1252.5,-109.6C1254.24,-97.05 1256.17,-73.63 1250,-55 1246.57,-44.65 1239.81,-34.65 1233.37,-26.76"/>
<polygon fill="#63b8ff" stroke="#63b8ff" points="1235.91,-24.35 1226.7,-19.11 1230.64,-28.95 1235.91,-24.35"/>
</a>
</g>
</g>
<!-- Node13&#45;&gt;Node12 -->
<g id="edge19_Node000013_Node000012" class="edge">
<title>Node13&#45;&gt;Node12</title>
<g id="a_edge19_Node000013_Node000012"><a xlink:title=" ">
<path fill="none" stroke="#63b8ff" d="M1279.92,-109.98C1310.27,-101.05 1358.17,-86.94 1391.88,-77.02"/>
<polygon fill="#63b8ff" stroke="#63b8ff" points="1393.25,-80.26 1401.85,-74.08 1391.27,-73.55 1393.25,-80.26"/>
</a>
</g>
</g>
<!-- Node14 -->
<g id="Node000014" class="node">
<title>Node14</title>
<g id="a_Node000014"><a xlink:title=" ">
<polygon fill="#e0e0e0" stroke="#999999" points="1241.5,-74 1194.5,-74 1194.5,-55 1241.5,-55 1241.5,-74"/>
<text text-anchor="middle" x="1218" y="-62" font-family="Helvetica,sans-Serif" font-size="10.00">cmath</text>
</a>
</g>
</g>
<!-- Node13&#45;&gt;Node14 -->
<g id="edge17_Node000013_Node000014" class="edge">
<title>Node13&#45;&gt;Node14</title>
<g id="a_edge17_Node000013_Node000014"><a xlink:title=" ">
<path fill="none" stroke="#63b8ff" d="M1245.55,-109.75C1240.99,-102.42 1234.33,-91.73 1228.71,-82.7"/>
<polygon fill="#63b8ff" stroke="#63b8ff" points="1231.6,-80.73 1223.35,-74.09 1225.66,-84.43 1231.6,-80.73"/>
</a>
</g>
</g>
<!-- Node13&#45;&gt;Node15 -->
<g id="edge20_Node000013_Node000015" class="edge">
<title>Node13&#45;&gt;Node15</title>
<g id="a_edge20_Node000013_Node000015"><a xlink:title=" ">
<path fill="none" stroke="#63b8ff" d="M1193.84,-113.32C1073.44,-102.41 796.84,-77.35 700.13,-68.59"/>
<polygon fill="#63b8ff" stroke="#63b8ff" points="700.31,-65.09 690.03,-67.68 699.68,-72.07 700.31,-65.09"/>
</a>
</g>
</g>
<!-- Node17 -->
<g id="Node000017" class="node">
<title>Node17</title>
<g id="a_Node000017"><a xlink:title=" ">
<polygon fill="#e0e0e0" stroke="#999999" points="562,-74 430,-74 430,-55 562,-55 562,-74"/>
<text text-anchor="middle" x="496" y="-62" font-family="Helvetica,sans-Serif" font-size="10.00">tinyformat/tinyformat.h</text>
</a>
</g>
</g>
<!-- Node16&#45;&gt;Node17 -->
<g id="edge22_Node000016_Node000017" class="edge">
<title>Node16&#45;&gt;Node17</title>
<g id="a_edge22_Node000016_Node000017"><a xlink:title=" ">
<path fill="none" stroke="#63b8ff" d="M485.98,-109.75C487.57,-102.72 489.86,-92.62 491.85,-83.84"/>
<polygon fill="#63b8ff" stroke="#63b8ff" points="495.26,-84.62 494.06,-74.09 488.43,-83.07 495.26,-84.62"/>
</a>
</g>
</g>
<!-- Node18 -->
<g id="Node000018" class="node">
<title>Node18</title>
<g id="a_Node000018"><a xlink:href="print_8hpp.html" target="_top" xlink:title="Printing helpers for std types.">
<polygon fill="white" stroke="#666666" points="412,-74 352,-74 352,-55 412,-55 412,-74"/>
<text text-anchor="middle" x="382" y="-62" font-family="Helvetica,sans-Serif" font-size="10.00">print.hpp</text>
</a>
</g>
</g>
<!-- Node16&#45;&gt;Node18 -->
<g id="edge23_Node000016_Node000018" class="edge">
<title>Node16&#45;&gt;Node18</title>
<g id="a_edge23_Node000016_Node000018"><a xlink:title=" ">
<path fill="none" stroke="#63b8ff" d="M467.61,-109.98C451.43,-101.57 426.43,-88.59 407.62,-78.81"/>
<polygon fill="#63b8ff" stroke="#63b8ff" points="409.17,-75.68 398.69,-74.17 405.95,-81.89 409.17,-75.68"/>
</a>
</g>
</g>
<!-- Node18&#45;&gt;Node5 -->
<g id="edge25_Node000018_Node000005" class="edge">
<title>Node18&#45;&gt;Node5</title>
<g id="a_edge25_Node000018_Node000005"><a xlink:title=" ">
<path fill="none" stroke="#63b8ff" d="M403.85,-54.98C426.12,-46.3 460.9,-32.75 486.22,-22.88"/>
<polygon fill="#63b8ff" stroke="#63b8ff" points="487.71,-26.06 495.75,-19.17 485.16,-19.54 487.71,-26.06"/>
</a>
</g>
</g>
<!-- Node18&#45;&gt;Node8 -->
<g id="edge28_Node000018_Node000008" class="edge">
<title>Node18&#45;&gt;Node8</title>
<g id="a_edge28_Node000018_Node000008"><a xlink:title=" ">
<path fill="none" stroke="#63b8ff" d="M351.88,-57.26C302.87,-47.12 206.38,-27.14 156.88,-16.89"/>
<polygon fill="#63b8ff" stroke="#63b8ff" points="157.29,-13.4 146.78,-14.8 155.87,-20.26 157.29,-13.4"/>
</a>
</g>
</g>
<!-- Node18&#45;&gt;Node11 -->
<g id="edge26_Node000018_Node000011" class="edge">
<title>Node18&#45;&gt;Node11</title>
<g id="a_edge26_Node000018_Node000011"><a xlink:title=" ">
<path fill="none" stroke="#63b8ff" d="M412.15,-56.43C415.13,-55.88 418.12,-55.39 421,-55 717.05,-14.73 1079.73,-10.73 1186.83,-10.47"/>
<polygon fill="#63b8ff" stroke="#63b8ff" points="1186.95,-13.97 1196.95,-10.45 1186.94,-6.97 1186.95,-13.97"/>
</a>
</g>
</g>
<!-- Node19 -->
<g id="Node000019" class="node">
<title>Node19</title>
<g id="a_Node000019"><a xlink:title=" ">
<polygon fill="#e0e0e0" stroke="#999999" points="1491,-19 1431,-19 1431,0 1491,0 1491,-19"/>
<text text-anchor="middle" x="1461" y="-7" font-family="Helvetica,sans-Serif" font-size="10.00">iostream</text>
</a>
</g>
</g>
<!-- Node18&#45;&gt;Node19 -->
<g id="edge24_Node000018_Node000019" class="edge">
<title>Node18&#45;&gt;Node19</title>
<g id="a_edge24_Node000018_Node000019"><a xlink:title=" ">
<path fill="none" stroke="#63b8ff" d="M412.14,-56.39C415.12,-55.85 418.11,-55.37 421,-55 446.24,-51.73 1233.02,-19.73 1420.97,-12.12"/>
<polygon fill="#63b8ff" stroke="#63b8ff" points="1421.13,-15.62 1430.98,-11.71 1420.84,-8.62 1421.13,-15.62"/>
</a>
</g>
</g>
<!-- Node20 -->
<g id="Node000020" class="node">
<title>Node20</title>
<g id="a_Node000020"><a xlink:title=" ">
<polygon fill="#e0e0e0" stroke="#999999" points="404.5,-19 359.5,-19 359.5,0 404.5,0 404.5,-19"/>
<text text-anchor="middle" x="382" y="-7" font-family="Helvetica,sans-Serif" font-size="10.00">utility</text>
</a>
</g>
</g>
<!-- Node18&#45;&gt;Node20 -->
<g id="edge27_Node000018_Node000020" class="edge">
<title>Node18&#45;&gt;Node20</title>
<g id="a_edge27_Node000018_Node000020"><a xlink:title=" ">
<path fill="none" stroke="#63b8ff" d="M382,-54.75C382,-47.8 382,-37.85 382,-29.13"/>
<polygon fill="#63b8ff" stroke="#63b8ff" points="385.5,-29.09 382,-19.09 378.5,-29.09 385.5,-29.09"/>
</a>
</g>
</g>
<!-- Node21&#45;&gt;Node4 -->
<g id="edge31_Node000021_Node000004" class="edge">
<title>Node21&#45;&gt;Node4</title>
<g id="a_edge31_Node000021_Node000004"><a xlink:title=" ">
<path fill="none" stroke="#63b8ff" d="M1158.23,-230.63C1130.74,-202.82 1045.94,-117.03 1010.65,-81.34"/>
<polygon fill="#63b8ff" stroke="#63b8ff" points="1013.06,-78.79 1003.54,-74.14 1008.09,-83.72 1013.06,-78.79"/>
</a>
</g>
</g>
<!-- Node21&#45;&gt;Node10 -->
<g id="edge34_Node000021_Node000010" class="edge">
<title>Node21&#45;&gt;Node10</title>
<g id="a_edge34_Node000021_Node000010"><a xlink:title=" ">
<path fill="none" stroke="#63b8ff" d="M1178.95,-230.87C1191.75,-221.62 1212.3,-206.78 1227.65,-195.69"/>
<polygon fill="#63b8ff" stroke="#63b8ff" points="1229.94,-198.36 1236,-189.67 1225.84,-192.68 1229.94,-198.36"/>
</a>
</g>
</g>
<!-- Node21&#45;&gt;Node11 -->
<g id="edge33_Node000021_Node000011" class="edge">
<title>Node21&#45;&gt;Node11</title>
<g id="a_edge33_Node000021_Node000011"><a xlink:title=" ">
<path fill="none" stroke="#63b8ff" d="M1166.24,-230.67C1164.23,-203.41 1160.48,-118.67 1185,-55 1188.96,-44.72 1195.99,-34.73 1202.54,-26.82"/>
<polygon fill="#63b8ff" stroke="#63b8ff" points="1205.31,-28.97 1209.3,-19.16 1200.06,-24.34 1205.31,-28.97"/>
</a>
</g>
</g>
<!-- Node21&#45;&gt;Node15 -->
<g id="edge32_Node000021_Node000015" class="edge">
<title>Node21&#45;&gt;Node15</title>
<g id="a_edge32_Node000021_Node000015"><a xlink:title=" ">
<path fill="none" stroke="#63b8ff" d="M1151.37,-230.92C1109.06,-208.04 988.29,-144.92 881,-110 818.72,-89.73 743.18,-76.62 700.24,-70.19"/>
<polygon fill="#63b8ff" stroke="#63b8ff" points="700.71,-66.73 690.31,-68.74 699.7,-73.65 700.71,-66.73"/>
</a>
</g>
</g>
<!-- Node22&#45;&gt;Node4 -->
<g id="edge38_Node000022_Node000004" class="edge">
<title>Node22&#45;&gt;Node4</title>
<g id="a_edge38_Node000022_Node000004"><a xlink:title=" ">
<path fill="none" stroke="#63b8ff" d="M854.07,-236.98C888.38,-232.36 929.01,-221.17 956,-195 986.66,-165.26 993.44,-112.39 994.8,-84.28"/>
<polygon fill="#63b8ff" stroke="#63b8ff" points="998.3,-84.3 995.1,-74.2 991.3,-84.09 998.3,-84.3"/>
</a>
</g>
</g>
<!-- Node22&#45;&gt;Node8 -->
<g id="edge55_Node000022_Node000008" class="edge">
<title>Node22&#45;&gt;Node8</title>
<g id="a_edge55_Node000022_Node000008"><a xlink:title=" ">
<path fill="none" stroke="#63b8ff" d="M725.87,-237.31C604.34,-232.63 344.94,-220 259,-195 198.3,-177.34 167.31,-182.1 133,-129 113.31,-98.53 117.39,-53.93 121.86,-29.04"/>
<polygon fill="#63b8ff" stroke="#63b8ff" points="125.32,-29.61 123.86,-19.12 118.45,-28.23 125.32,-29.61"/>
</a>
</g>
</g>
<!-- Node22&#45;&gt;Node10 -->
<g id="edge53_Node000022_Node000010" class="edge">
<title>Node22&#45;&gt;Node10</title>
<g id="a_edge53_Node000022_Node000010"><a xlink:title=" ">
<path fill="none" stroke="#63b8ff" d="M854.17,-231.3C941.43,-220.16 1096.63,-200.33 1183.87,-189.19"/>
<polygon fill="#63b8ff" stroke="#63b8ff" points="1184.43,-192.65 1193.91,-187.91 1183.55,-185.7 1184.43,-192.65"/>
</a>
</g>
</g>
<!-- Node22&#45;&gt;Node12 -->
<g id="edge56_Node000022_Node000012" class="edge">
<title>Node22&#45;&gt;Node12</title>
<g id="a_edge56_Node000022_Node000012"><a xlink:title=" ">
<path fill="none" stroke="#63b8ff" d="M854.23,-239.46C975.12,-238.49 1231.46,-231.99 1311,-195 1363.19,-170.73 1403.38,-112.39 1421.09,-83.02"/>
<polygon fill="#63b8ff" stroke="#63b8ff" points="1424.19,-84.66 1426.22,-74.26 1418.15,-81.12 1424.19,-84.66"/>
</a>
</g>
</g>
<!-- Node22&#45;&gt;Node15 -->
<g id="edge54_Node000022_Node000015" class="edge">
<title>Node22&#45;&gt;Node15</title>
<g id="a_edge54_Node000022_Node000015"><a xlink:title=" ">
<path fill="none" stroke="#63b8ff" d="M725.59,-232.07C679.62,-225.29 623.47,-213.46 609,-195 580.85,-159.08 623.57,-107.1 649.13,-81.28"/>
<polygon fill="#63b8ff" stroke="#63b8ff" points="651.72,-83.65 656.42,-74.15 646.82,-78.64 651.72,-83.65"/>
</a>
</g>
</g>
<!-- Node23 -->
<g id="Node000023" class="node">
<title>Node23</title>
<g id="a_Node000023"><a xlink:href="Range__fwd_8hpp.html" target="_top" xlink:title="Declaration of Range.">
<polygon fill="white" stroke="#666666" points="758,-195 618,-195 618,-165 758,-165 758,-195"/>
<text text-anchor="start" x="626" y="-183" font-family="Helvetica,sans-Serif" font-size="10.00">medusa/bits/types/Range</text>
<text text-anchor="middle" x="688" y="-172" font-family="Helvetica,sans-Serif" font-size="10.00">_fwd.hpp</text>
</a>
</g>
</g>
<!-- Node22&#45;&gt;Node23 -->
<g id="edge39_Node000022_Node000023" class="edge">
<title>Node22&#45;&gt;Node23</title>
<g id="a_edge39_Node000022_Node000023"><a xlink:title=" ">
<path fill="none" stroke="#63b8ff" d="M774.95,-230.87C760.98,-222.86 739.69,-210.65 721.68,-200.31"/>
<polygon fill="#63b8ff" stroke="#63b8ff" points="723.03,-197.05 712.61,-195.11 719.54,-203.13 723.03,-197.05"/>
</a>
</g>
</g>
<!-- Node26 -->
<g id="Node000026" class="node">
<title>Node26</title>
<g id="a_Node000026"><a xlink:href="stdtypesutils_8hpp.html" target="_top" xlink:title="Declaration of utilities for std types.">
<polygon fill="white" stroke="#666666" points="456,-189.5 268,-189.5 268,-170.5 456,-170.5 456,-189.5"/>
<text text-anchor="middle" x="362" y="-177.5" font-family="Helvetica,sans-Serif" font-size="10.00">medusa/bits/utils/stdtypesutils.hpp</text>
</a>
</g>
</g>
<!-- Node22&#45;&gt;Node26 -->
<g id="edge46_Node000022_Node000026" class="edge">
<title>Node22&#45;&gt;Node26</title>
<g id="a_edge46_Node000022_Node000026"><a xlink:title=" ">
<path fill="none" stroke="#63b8ff" d="M727.77,-230.99C649.87,-220.35 516.7,-202.14 434.34,-190.89"/>
<polygon fill="#63b8ff" stroke="#63b8ff" points="434.69,-187.4 424.31,-189.52 433.74,-194.34 434.69,-187.4"/>
</a>
</g>
</g>
<!-- Node23&#45;&gt;Node4 -->
<g id="edge40_Node000023_Node000004" class="edge">
<title>Node23&#45;&gt;Node4</title>
<g id="a_edge40_Node000023_Node000004"><a xlink:title=" ">
<path fill="none" stroke="#63b8ff" d="M709.98,-164.95C738.21,-147.1 785.85,-117.68 805,-110 844.95,-93.98 892.05,-82.9 929.35,-75.8"/>
<polygon fill="#63b8ff" stroke="#63b8ff" points="930.41,-79.16 939.6,-73.9 929.13,-72.28 930.41,-79.16"/>
</a>
</g>
</g>
<!-- Node23&#45;&gt;Node5 -->
<g id="edge44_Node000023_Node000005" class="edge">
<title>Node23&#45;&gt;Node5</title>
<g id="a_edge44_Node000023_Node000005"><a xlink:title=" ">
<path fill="none" stroke="#63b8ff" d="M675.52,-164.73C654.66,-141.12 611.04,-92.78 571,-55 560.08,-44.69 547.19,-33.84 536.85,-25.43"/>
<polygon fill="#63b8ff" stroke="#63b8ff" points="538.86,-22.56 528.87,-19.01 534.47,-28.01 538.86,-22.56"/>
</a>
</g>
</g>
<!-- Node23&#45;&gt;Node15 -->
<g id="edge45_Node000023_Node000015" class="edge">
<title>Node23&#45;&gt;Node15</title>
<g id="a_edge45_Node000023_Node000015"><a xlink:title=" ">
<path fill="none" stroke="#63b8ff" d="M685.21,-164.63C681.26,-144.21 674.01,-106.81 669.63,-84.24"/>
<polygon fill="#63b8ff" stroke="#63b8ff" points="673.03,-83.38 667.69,-74.23 666.16,-84.71 673.03,-83.38"/>
</a>
</g>
</g>
<!-- Node23&#45;&gt;Node16 -->
<g id="edge41_Node000023_Node000016" class="edge">
<title>Node23&#45;&gt;Node16</title>
<g id="a_edge41_Node000023_Node000016"><a xlink:title=" ">
<path fill="none" stroke="#63b8ff" d="M639.14,-164.99C603.78,-154.85 556.6,-141.32 523.59,-131.85"/>
<polygon fill="#63b8ff" stroke="#63b8ff" points="524.41,-128.45 513.83,-129.05 522.48,-135.17 524.41,-128.45"/>
</a>
</g>
</g>
<!-- Node24 -->
<g id="Node000024" class="node">
<title>Node24</title>
<g id="a_Node000024"><a xlink:href="traits_8hpp.html" target="_top" xlink:title="Type traits definition for vector and scalar fields.">
<polygon fill="white" stroke="#666666" points="757.5,-129 694.5,-129 694.5,-110 757.5,-110 757.5,-129"/>
<text text-anchor="middle" x="726" y="-117" font-family="Helvetica,sans-Serif" font-size="10.00">traits.hpp</text>
</a>
</g>
</g>
<!-- Node23&#45;&gt;Node24 -->
<g id="edge42_Node000023_Node000024" class="edge">
<title>Node23&#45;&gt;Node24</title>
<g id="a_edge42_Node000023_Node000024"><a xlink:title=" ">
<path fill="none" stroke="#63b8ff" d="M697.2,-164.84C702.49,-156.69 709.18,-146.4 714.78,-137.78"/>
<polygon fill="#63b8ff" stroke="#63b8ff" points="717.79,-139.56 720.31,-129.27 711.92,-135.75 717.79,-139.56"/>
</a>
</g>
</g>
<!-- Node25 -->
<g id="Node000025" class="node">
<title>Node25</title>
<g id="a_Node000025"><a xlink:title=" ">
<polygon fill="#e0e0e0" stroke="#999999" points="872,-129 814,-129 814,-110 872,-110 872,-129"/>
<text text-anchor="middle" x="843" y="-117" font-family="Helvetica,sans-Serif" font-size="10.00">memory</text>
</a>
</g>
</g>
<!-- Node23&#45;&gt;Node25 -->
<g id="edge43_Node000023_Node000025" class="edge">
<title>Node23&#45;&gt;Node25</title>
<g id="a_edge43_Node000023_Node000025"><a xlink:title=" ">
<path fill="none" stroke="#63b8ff" d="M725.13,-164.99C751.22,-155.14 785.78,-142.1 810.73,-132.68"/>
<polygon fill="#63b8ff" stroke="#63b8ff" points="811.99,-135.94 820.11,-129.14 809.52,-129.4 811.99,-135.94"/>
</a>
</g>
</g>
<!-- Node26&#45;&gt;Node4 -->
<g id="edge47_Node000026_Node000004" class="edge">
<title>Node26&#45;&gt;Node4</title>
<g id="a_edge47_Node000026_Node000004"><a xlink:title=" ">
<path fill="none" stroke="#63b8ff" d="M363.54,-170.43C366.77,-155.31 375.76,-124.15 397,-110 440.49,-81.02 783.69,-70.12 929.66,-66.77"/>
<polygon fill="#63b8ff" stroke="#63b8ff" points="929.9,-70.27 939.82,-66.54 929.74,-63.27 929.9,-70.27"/>
</a>
</g>
</g>
<!-- Node26&#45;&gt;Node5 -->
<g id="edge50_Node000026_Node000005" class="edge">
<title>Node26&#45;&gt;Node5</title>
<g id="a_edge50_Node000026_Node000005"><a xlink:title=" ">
<path fill="none" stroke="#63b8ff" d="M331.04,-170.45C299.26,-159.88 256.37,-139.59 271,-110 309.78,-31.58 426.18,-14.73 484.26,-11.27"/>
<polygon fill="#63b8ff" stroke="#63b8ff" points="484.58,-14.76 494.4,-10.77 484.24,-7.77 484.58,-14.76"/>
</a>
</g>
</g>
<!-- Node26&#45;&gt;Node7 -->
<g id="edge49_Node000026_Node000007" class="edge">
<title>Node26&#45;&gt;Node7</title>
<g id="a_edge49_Node000026_Node000007"><a xlink:title=" ">
<path fill="none" stroke="#63b8ff" d="M333.21,-170.49C296.74,-159.72 234.08,-141.21 196.1,-129.98"/>
<polygon fill="#63b8ff" stroke="#63b8ff" points="196.67,-126.5 186.09,-127.03 194.68,-133.22 196.67,-126.5"/>
</a>
</g>
</g>
<!-- Node26&#45;&gt;Node8 -->
<g id="edge51_Node000026_Node000008" class="edge">
<title>Node26&#45;&gt;Node8</title>
<g id="a_edge51_Node000026_Node000008"><a xlink:title=" ">
<path fill="none" stroke="#63b8ff" d="M342.3,-170.47C322.17,-161.39 290.33,-145.99 265,-129 216.97,-96.78 166.83,-50.32 141.96,-26.27"/>
<polygon fill="#63b8ff" stroke="#63b8ff" points="144.13,-23.5 134.53,-19.02 139.25,-28.51 144.13,-23.5"/>
</a>
</g>
</g>
<!-- Node26&#45;&gt;Node16 -->
<g id="edge48_Node000026_Node000016" class="edge">
<title>Node26&#45;&gt;Node16</title>
<g id="a_edge48_Node000026_Node000016"><a xlink:title=" ">
<path fill="none" stroke="#63b8ff" d="M379.74,-170.49C400.07,-160.75 433.61,-144.66 457.14,-133.38"/>
<polygon fill="#63b8ff" stroke="#63b8ff" points="458.74,-136.5 466.24,-129.02 455.71,-130.18 458.74,-136.5"/>
</a>
</g>
</g>
<!-- Node27 -->
<g id="Node000027" class="node">
<title>Node27</title>
<g id="a_Node000027"><a xlink:title=" ">
<polygon fill="#e0e0e0" stroke="#999999" points="349.5,-129 280.5,-129 280.5,-110 349.5,-110 349.5,-129"/>
<text text-anchor="middle" x="315" y="-117" font-family="Helvetica,sans-Serif" font-size="10.00">type_traits</text>
</a>
</g>
</g>
<!-- Node26&#45;&gt;Node27 -->
<g id="edge52_Node000026_Node000027" class="edge">
<title>Node26&#45;&gt;Node27</title>
<g id="a_edge52_Node000026_Node000027"><a xlink:title=" ">
<path fill="none" stroke="#63b8ff" d="M355.06,-170.37C348.05,-161.64 337.04,-147.93 328.33,-137.09"/>
<polygon fill="#63b8ff" stroke="#63b8ff" points="330.96,-134.77 321.96,-129.17 325.5,-139.16 330.96,-134.77"/>
</a>
</g>
</g>
<!-- Node28&#45;&gt;Node22 -->
<g id="edge58_Node000028_Node000022" class="edge">
<title>Node28&#45;&gt;Node22</title>
<g id="a_edge58_Node000028_Node000022"><a xlink:title=" ">
<path fill="none" stroke="#63b8ff" d="M1046.5,-483.91C1042.01,-460.32 1026.68,-393.53 991,-352 947.09,-300.9 873.41,-269.07 828.51,-253.37"/>
<polygon fill="#63b8ff" stroke="#63b8ff" points="829.43,-249.99 818.83,-250.08 827.18,-256.62 829.43,-249.99"/>
</a>
</g>
</g>
<!-- Node28&#45;&gt;Node29 -->
<g id="edge59_Node000028_Node000029" class="edge">
<title>Node28&#45;&gt;Node29</title>
<g id="a_edge59_Node000028_Node000029"><a xlink:title=" ">
<path fill="none" stroke="#63b8ff" d="M1059.21,-483.87C1071.11,-474.71 1090.14,-460.06 1104.51,-449.01"/>
<polygon fill="#63b8ff" stroke="#63b8ff" points="1106.95,-451.54 1112.74,-442.67 1102.68,-445.99 1106.95,-451.54"/>
</a>
</g>
</g>
<!-- Node29&#45;&gt;Node6 -->
<g id="edge60_Node000029_Node000006" class="edge">
<title>Node29&#45;&gt;Node6</title>
<g id="a_edge60_Node000029_Node000006"><a xlink:title=" ">
<path fill="none" stroke="#63b8ff" d="M1096.35,-423.37C1065.12,-413.62 1013.5,-397.5 973.98,-385.16"/>
<polygon fill="#63b8ff" stroke="#63b8ff" points="974.8,-381.75 964.21,-382.12 972.72,-388.44 974.8,-381.75"/>
</a>
</g>
</g>
<!-- Node29&#45;&gt;Node19 -->
<g id="edge61_Node000029_Node000019" class="edge">
<title>Node29&#45;&gt;Node19</title>
<g id="a_edge61_Node000029_Node000019"><a xlink:title=" ">
<path fill="none" stroke="#63b8ff" d="M1171.93,-428.67C1289.74,-419.18 1584,-386.96 1584,-302 1584,-302 1584,-302 1584,-118.5 1584,-70.63 1530.75,-39 1494.32,-22.96"/>
<polygon fill="#63b8ff" stroke="#63b8ff" points="1495.58,-19.69 1485.01,-19.03 1492.86,-26.14 1495.58,-19.69"/>
</a>
</g>
</g>
<!-- Node30 -->
<g id="Node000030" class="node">
<title>Node30</title>
<g id="a_Node000030"><a xlink:href="memutils_8hpp.html" target="_top" xlink:title="Declaration of memory related utilities.">
<polygon fill="white" stroke="#666666" points="947.5,-189.5 776.5,-189.5 776.5,-170.5 947.5,-170.5 947.5,-189.5"/>
<text text-anchor="middle" x="862" y="-177.5" font-family="Helvetica,sans-Serif" font-size="10.00">medusa/bits/utils/memutils.hpp</text>
</a>
</g>
</g>
<!-- Node29&#45;&gt;Node30 -->
<g id="edge62_Node000029_Node000030" class="edge">
<title>Node29&#45;&gt;Node30</title>
<g id="a_edge62_Node000029_Node000030"><a xlink:title=" ">
<path fill="none" stroke="#63b8ff" d="M1114.98,-423.36C1076.8,-386.78 928.11,-244.34 878.34,-196.65"/>
<polygon fill="#63b8ff" stroke="#63b8ff" points="880.62,-193.99 870.98,-189.6 875.78,-199.05 880.62,-193.99"/>
</a>
</g>
</g>
<!-- Node30&#45;&gt;Node4 -->
<g id="edge64_Node000030_Node000004" class="edge">
<title>Node30&#45;&gt;Node4</title>
<g id="a_edge64_Node000030_Node000004"><a xlink:title=" ">
<path fill="none" stroke="#63b8ff" d="M872,-170.47C894.33,-151.41 948.56,-105.13 976.96,-80.89"/>
<polygon fill="#63b8ff" stroke="#63b8ff" points="979.55,-83.28 984.89,-74.13 975.01,-77.96 979.55,-83.28"/>
</a>
</g>
</g>
<!-- Node30&#45;&gt;Node16 -->
<g id="edge65_Node000030_Node000016" class="edge">
<title>Node30&#45;&gt;Node16</title>
<g id="a_edge65_Node000030_Node000016"><a xlink:title=" ">
<path fill="none" stroke="#63b8ff" d="M807.04,-170.49C738.59,-159.9 621.82,-141.83 549,-130.56"/>
<polygon fill="#63b8ff" stroke="#63b8ff" points="549.45,-127.09 539.03,-129.02 548.38,-134 549.45,-127.09"/>
</a>
</g>
</g>
<!-- Node30&#45;&gt;Node25 -->
<g id="edge63_Node000030_Node000025" class="edge">
<title>Node30&#45;&gt;Node25</title>
<g id="a_edge63_Node000030_Node000025"><a xlink:title=" ">
<path fill="none" stroke="#63b8ff" d="M859.2,-170.37C856.5,-162.07 852.35,-149.28 848.92,-138.72"/>
<polygon fill="#63b8ff" stroke="#63b8ff" points="852.23,-137.6 845.82,-129.17 845.58,-139.76 852.23,-137.6"/>
</a>
</g>
</g>
<!-- Node33 -->
<g id="Node000033" class="node">
<title>Node33</title>
<g id="a_Node000033"><a xlink:href="Vec__fwd_8hpp.html" target="_top" xlink:title="Declaration of Vec.">
<polygon fill="white" stroke="#666666" points="1555.5,-129 1478.5,-129 1478.5,-110 1555.5,-110 1555.5,-129"/>
<text text-anchor="middle" x="1517" y="-117" font-family="Helvetica,sans-Serif" font-size="10.00">Vec_fwd.hpp</text>
</a>
</g>
</g>
<!-- Node32&#45;&gt;Node33 -->
<g id="edge71_Node000032_Node000033" class="edge">
<title>Node32&#45;&gt;Node33</title>
<g id="a_edge71_Node000032_Node000033"><a xlink:title=" ">
<path fill="none" stroke="#63b8ff" d="M1426.28,-544.28C1451.31,-526.68 1503,-484.25 1503,-434 1503,-434 1503,-434 1503,-239.5 1503,-203.75 1509.31,-162.36 1513.46,-139.02"/>
<polygon fill="#63b8ff" stroke="#63b8ff" points="1516.91,-139.59 1515.28,-129.12 1510.03,-138.32 1516.91,-139.59"/>
</a>
</g>
</g>
<!-- Node33&#45;&gt;Node4 -->
<g id="edge72_Node000033_Node000004" class="edge">
<title>Node33&#45;&gt;Node4</title>
<g id="a_edge72_Node000033_Node000004"><a xlink:title=" ">
<path fill="none" stroke="#63b8ff" d="M1478.19,-114.56C1389.29,-105.53 1170.11,-83.28 1060.14,-72.11"/>
<polygon fill="#63b8ff" stroke="#63b8ff" points="1060.47,-68.63 1050.16,-71.1 1059.76,-75.59 1060.47,-68.63"/>
</a>
</g>
</g>
<!-- Node33&#45;&gt;Node12 -->
<g id="edge73_Node000033_Node000012" class="edge">
<title>Node33&#45;&gt;Node12</title>
<g id="a_edge73_Node000033_Node000012"><a xlink:title=" ">
<path fill="none" stroke="#63b8ff" d="M1503.18,-109.98C1489.85,-101.77 1469.42,-89.18 1453.69,-79.49"/>
<polygon fill="#63b8ff" stroke="#63b8ff" points="1455.42,-76.44 1445.07,-74.17 1451.75,-82.4 1455.42,-76.44"/>
</a>
</g>
</g>
</g>
</svg>

<g id="navigator" transform="translate(0 0)" fill="#404254">
  <rect fill="#f2f5e9" fill-opacity="0.5" stroke="#606060" stroke-width=".5" x="0" y="0" width="60" height="60"/>
  <use id="zoomplus" xlink:href="#zoomPlus" x="17" y="9" onmousedown="handleZoom(evt,'in')"/>
  <use id="zoomminus" xlink:href="#zoomMin" x="42" y="9" onmousedown="handleZoom(evt,'out')"/>
  <use id="reset" xlink:href="#resetDef" x="30" y="36" onmousedown="handleReset()"/>
   <use id="arrowup" xlink:href="#arrowUp" x="0" y="0" onmousedown="handlePan(0,-1)"/>
  <use id="arrowright" xlink:href="#arrowRight" x="0" y="0" onmousedown="handlePan(1,0)"/>
  <use id="arrowdown" xlink:href="#arrowDown" x="0" y="0" onmousedown="handlePan(0,1)"/>
  <use id="arrowleft" xlink:href="#arrowLeft" x="0" y="0" onmousedown="handlePan(-1,0)"/>
</g>
<svg viewBox="0 0 15 15" width="100%" height="30px" preserveAspectRatio="xMaxYMin meet">
 <g id="arrow_out" transform="scale(0.3 0.3)">
  <a xlink:href="UniformShapeStorage_8cpp__incl_org.svg" target="_base">
   <rect id="button" ry="5" rx="5" y="6" x="6" height="38" width="38"
        fill="#f2f5e9" fill-opacity="0.5" stroke="#606060" stroke-width="1.0"/>
   <path id="arrow"
     d="M 11.500037,31.436501 C 11.940474,20.09759 22.043105,11.32322 32.158766,21.979434 L 37.068811,17.246167 C 37.068811,17.246167 37.088388,32 37.088388,32 L 22.160133,31.978069 C 22.160133,31.978069 26.997745,27.140456 26.997745,27.140456 C 18.528582,18.264221 13.291696,25.230495 11.500037,31.436501 z"
     style="fill:#404040;"/>
  </a>
 </g>
</svg>

<style type='text/css'>
<![CDATA[
[data-mouse-over-selected='false'] { opacity: 0.7; }
[data-mouse-over-selected='true']  { opacity: 1.0; }
]]>
</style>
<script type="application/ecmascript"><![CDATA[
document.addEventListener('DOMContentLoaded', (event) => {
  highlightEdges();
  highlightAdjacentNodes();
});
]]></script>
</svg>
