<?xml version="1.0" encoding="UTF-8" standalone="no"?>
<!DOCTYPE svg PUBLIC "-//W3C//DTD SVG 1.1//EN"
 "http://www.w3.org/Graphics/SVG/1.1/DTD/svg11.dtd">
<!-- Generated by graphviz version 2.43.0 (0)
 -->
<!-- Title: include/medusa/bits/operators/UniformShapeStorage_fwd.hpp Pages: 1 -->
<svg width="1364pt" height="467pt"
 viewBox="0.00 0.00 1363.64 467.00" xmlns="http://www.w3.org/2000/svg" xmlns:xlink="http://www.w3.org/1999/xlink">
<g id="graph0" class="graph" transform="scale(1 1) rotate(0) translate(4 463)">
<title>include/medusa/bits/operators/UniformShapeStorage_fwd.hpp</title>
<!-- Node1 -->
<g id="Node000001" class="node">
<title>Node1</title>
<g id="a_Node000001"><a xlink:title="Declaration of shape storage for uniformly long shapes.">
<polygon fill="#999999" stroke="#666666" points="1051,-459 875,-459 875,-418 1051,-418 1051,-459"/>
<text text-anchor="start" x="883" y="-447" font-family="Helvetica,sans-Serif" font-size="10.00">include/medusa/bits</text>
<text text-anchor="start" x="883" y="-436" font-family="Helvetica,sans-Serif" font-size="10.00">/operators/UniformShapeStorage</text>
<text text-anchor="middle" x="963" y="-425" font-family="Helvetica,sans-Serif" font-size="10.00">_fwd.hpp</text>
</a>
</g>
</g>
<!-- Node2 -->
<g id="Node000002" class="node">
<title>Node2</title>
<g id="a_Node000002"><a xlink:href="Config_8hpp.html" target="_top" xlink:title="Contains compile time settings for the project, such as Eigen plugins.">
<polygon fill="white" stroke="#666666" points="433,-74 323,-74 323,-55 433,-55 433,-74"/>
<text text-anchor="middle" x="378" y="-62" font-family="Helvetica,sans-Serif" font-size="10.00">medusa/Config.hpp</text>
</a>
</g>
</g>
<!-- Node1&#45;&gt;Node2 -->
<g id="edge1_Node000001_Node000002" class="edge">
<title>Node1&#45;&gt;Node2</title>
<g id="a_edge1_Node000001_Node000002"><a xlink:title=" ">
<path fill="none" stroke="#63b8ff" d="M874.73,-433.76C643.52,-422.79 38,-386.04 38,-302 38,-302 38,-302 38,-179 38,-131.37 76.81,-130.08 120,-110 181.47,-81.42 258.88,-71.04 312.8,-67.35"/>
<polygon fill="#63b8ff" stroke="#63b8ff" points="313.16,-70.83 322.92,-66.72 312.72,-63.85 313.16,-70.83"/>
</a>
</g>
</g>
<!-- Node3 -->
<g id="Node000003" class="node">
<title>Node3</title>
<g id="a_Node000003"><a xlink:title=" ">
<polygon fill="#e0e0e0" stroke="#999999" points="499.5,-19 452.5,-19 452.5,0 499.5,0 499.5,-19"/>
<text text-anchor="middle" x="476" y="-7" font-family="Helvetica,sans-Serif" font-size="10.00">vector</text>
</a>
</g>
</g>
<!-- Node1&#45;&gt;Node3 -->
<g id="edge3_Node000001_Node000003" class="edge">
<title>Node1&#45;&gt;Node3</title>
<g id="a_edge3_Node000001_Node000003"><a xlink:title=" ">
<path fill="none" stroke="#63b8ff" d="M874.92,-436.92C690.07,-434.84 267.51,-425.34 131,-382 65.98,-361.36 0,-370.22 0,-302 0,-302 0,-302 0,-118.5 0,-27.68 333.75,-13.23 442.32,-10.93"/>
<polygon fill="#63b8ff" stroke="#63b8ff" points="442.46,-14.43 452.4,-10.74 442.33,-7.43 442.46,-14.43"/>
</a>
</g>
</g>
<!-- Node4 -->
<g id="Node000004" class="node">
<title>Node4</title>
<g id="a_Node000004"><a xlink:href="shape__flags_8hpp.html" target="_top" xlink:title="Definition of flags related to shape computation.">
<polygon fill="white" stroke="#666666" points="1181,-382 1055,-382 1055,-352 1181,-352 1181,-382"/>
<text text-anchor="start" x="1063" y="-370" font-family="Helvetica,sans-Serif" font-size="10.00">medusa/bits/operators</text>
<text text-anchor="middle" x="1118" y="-359" font-family="Helvetica,sans-Serif" font-size="10.00">/shape_flags.hpp</text>
</a>
</g>
</g>
<!-- Node1&#45;&gt;Node4 -->
<g id="edge4_Node000001_Node000004" class="edge">
<title>Node1&#45;&gt;Node4</title>
<g id="a_edge4_Node000001_Node000004"><a xlink:title=" ">
<path fill="none" stroke="#63b8ff" d="M1006.59,-417.96C1028.74,-408.02 1055.5,-396.03 1077.24,-386.28"/>
<polygon fill="#63b8ff" stroke="#63b8ff" points="1078.83,-389.4 1086.53,-382.11 1075.97,-383.01 1078.83,-389.4"/>
</a>
</g>
</g>
<!-- Node10 -->
<g id="Node000010" class="node">
<title>Node10</title>
<g id="a_Node000010"><a xlink:title=" ">
<polygon fill="#e0e0e0" stroke="#999999" points="1300.5,-74 1231.5,-74 1231.5,-55 1300.5,-55 1300.5,-74"/>
<text text-anchor="middle" x="1266" y="-62" font-family="Helvetica,sans-Serif" font-size="10.00">Eigen/Core</text>
</a>
</g>
</g>
<!-- Node1&#45;&gt;Node10 -->
<g id="edge34_Node000001_Node000010" class="edge">
<title>Node1&#45;&gt;Node10</title>
<g id="a_edge34_Node000001_Node000010"><a xlink:title=" ">
<path fill="none" stroke="#63b8ff" d="M1051.4,-423.49C1161.7,-403.47 1336,-362.29 1336,-302 1336,-302 1336,-302 1336,-179 1336,-138.97 1304.07,-101.24 1283.34,-80.96"/>
<polygon fill="#63b8ff" stroke="#63b8ff" points="1285.71,-78.38 1276.03,-74.07 1280.91,-83.48 1285.71,-78.38"/>
</a>
</g>
</g>
<!-- Node13 -->
<g id="Node000013" class="node">
<title>Node13</title>
<g id="a_Node000013"><a xlink:title=" ">
<polygon fill="#e0e0e0" stroke="#999999" points="986,-74 938,-74 938,-55 986,-55 986,-74"/>
<text text-anchor="middle" x="962" y="-62" font-family="Helvetica,sans-Serif" font-size="10.00">iosfwd</text>
</a>
</g>
</g>
<!-- Node1&#45;&gt;Node13 -->
<g id="edge33_Node000001_Node000013" class="edge">
<title>Node1&#45;&gt;Node13</title>
<g id="a_edge33_Node000001_Node000013"><a xlink:title=" ">
<path fill="none" stroke="#63b8ff" d="M957.7,-417.93C948.39,-381.34 930.61,-300.03 936,-231 940.2,-177.26 951.94,-114.6 958.11,-84.09"/>
<polygon fill="#63b8ff" stroke="#63b8ff" points="961.59,-84.56 960.17,-74.06 954.73,-83.15 961.59,-84.56"/>
</a>
</g>
</g>
<!-- Node20 -->
<g id="Node000020" class="node">
<title>Node20</title>
<g id="a_Node000020"><a xlink:href="ShapeStorage__fwd_8hpp.html" target="_top" xlink:title="Base class and interface for storing and accessing computed shapes.">
<polygon fill="white" stroke="#666666" points="1073,-250 945,-250 945,-231 1073,-231 1073,-250"/>
<text text-anchor="middle" x="1009" y="-238" font-family="Helvetica,sans-Serif" font-size="10.00">ShapeStorage_fwd.hpp</text>
</a>
</g>
</g>
<!-- Node1&#45;&gt;Node20 -->
<g id="edge35_Node000001_Node000020" class="edge">
<title>Node1&#45;&gt;Node20</title>
<g id="a_edge35_Node000001_Node000020"><a xlink:title=" ">
<path fill="none" stroke="#63b8ff" d="M967.58,-417.99C976.48,-380.08 995.99,-296.96 1004.68,-259.93"/>
<polygon fill="#63b8ff" stroke="#63b8ff" points="1008.12,-260.55 1007,-250.02 1001.31,-258.95 1008.12,-260.55"/>
</a>
</g>
</g>
<!-- Node2&#45;&gt;Node3 -->
<g id="edge2_Node000002_Node000003" class="edge">
<title>Node2&#45;&gt;Node3</title>
<g id="a_edge2_Node000002_Node000003"><a xlink:title=" ">
<path fill="none" stroke="#63b8ff" d="M393.75,-54.98C409.23,-46.61 433.09,-33.7 451.14,-23.95"/>
<polygon fill="#63b8ff" stroke="#63b8ff" points="452.84,-27.01 459.97,-19.17 449.51,-20.85 452.84,-27.01"/>
</a>
</g>
</g>
<!-- Node5 -->
<g id="Node000005" class="node">
<title>Node5</title>
<g id="a_Node000005"><a xlink:title=" ">
<polygon fill="#e0e0e0" stroke="#999999" points="186,-129 142,-129 142,-110 186,-110 186,-129"/>
<text text-anchor="middle" x="164" y="-117" font-family="Helvetica,sans-Serif" font-size="10.00">string</text>
</a>
</g>
</g>
<!-- Node4&#45;&gt;Node5 -->
<g id="edge5_Node000004_Node000005" class="edge">
<title>Node4&#45;&gt;Node5</title>
<g id="a_edge5_Node000004_Node000005"><a xlink:title=" ">
<path fill="none" stroke="#63b8ff" d="M1054.79,-364.07C862.86,-356.83 292.59,-324.58 172,-195 158.32,-180.3 158.23,-156.24 160.31,-139.45"/>
<polygon fill="#63b8ff" stroke="#63b8ff" points="163.83,-139.62 161.96,-129.19 156.92,-138.51 163.83,-139.62"/>
</a>
</g>
</g>
<!-- Node6 -->
<g id="Node000006" class="node">
<title>Node6</title>
<g id="a_Node000006"><a xlink:title=" ">
<polygon fill="#e0e0e0" stroke="#999999" points="984.5,-19 943.5,-19 943.5,0 984.5,0 984.5,-19"/>
<text text-anchor="middle" x="964" y="-7" font-family="Helvetica,sans-Serif" font-size="10.00">tuple</text>
</a>
</g>
</g>
<!-- Node4&#45;&gt;Node6 -->
<g id="edge6_Node000004_Node000006" class="edge">
<title>Node4&#45;&gt;Node6</title>
<g id="a_edge6_Node000004_Node000006"><a xlink:title=" ">
<path fill="none" stroke="#63b8ff" d="M1149.88,-351.89C1221.77,-317.77 1387.42,-225.08 1350,-110 1340.65,-81.26 1336,-70.41 1310,-55 1283.13,-39.08 1074.88,-19.92 995.02,-13.08"/>
<polygon fill="#63b8ff" stroke="#63b8ff" points="994.9,-9.56 984.64,-12.2 994.31,-16.53 994.9,-9.56"/>
</a>
</g>
</g>
<!-- Node7 -->
<g id="Node000007" class="node">
<title>Node7</title>
<g id="a_Node000007"><a xlink:href="bits_2approximations_2Operators_8hpp.html" target="_top" xlink:title="Implementations of differential operator families.">
<polygon fill="white" stroke="#666666" points="1203,-316 1047,-316 1047,-286 1203,-286 1203,-316"/>
<text text-anchor="start" x="1055" y="-304" font-family="Helvetica,sans-Serif" font-size="10.00">medusa/bits/approximations</text>
<text text-anchor="middle" x="1125" y="-293" font-family="Helvetica,sans-Serif" font-size="10.00">/Operators.hpp</text>
</a>
</g>
</g>
<!-- Node4&#45;&gt;Node7 -->
<g id="edge7_Node000004_Node000007" class="edge">
<title>Node4&#45;&gt;Node7</title>
<g id="a_edge7_Node000004_Node000007"><a xlink:title=" ">
<path fill="none" stroke="#63b8ff" d="M1119.55,-351.8C1120.38,-344.26 1121.41,-334.78 1122.36,-326.13"/>
<polygon fill="#63b8ff" stroke="#63b8ff" points="1125.84,-326.49 1123.45,-316.16 1118.88,-325.72 1125.84,-326.49"/>
</a>
</g>
</g>
<!-- Node8 -->
<g id="Node000008" class="node">
<title>Node8</title>
<g id="a_Node000008"><a xlink:href="Operators__fwd_8hpp.html" target="_top" xlink:title="File defining basic differential operator families.">
<polygon fill="white" stroke="#666666" points="1150,-189.5 1042,-189.5 1042,-170.5 1150,-170.5 1150,-189.5"/>
<text text-anchor="middle" x="1096" y="-177.5" font-family="Helvetica,sans-Serif" font-size="10.00">Operators_fwd.hpp</text>
</a>
</g>
</g>
<!-- Node7&#45;&gt;Node8 -->
<g id="edge8_Node000007_Node000008" class="edge">
<title>Node7&#45;&gt;Node8</title>
<g id="a_edge8_Node000007_Node000008"><a xlink:title=" ">
<path fill="none" stroke="#63b8ff" d="M1121.56,-285.88C1116.33,-264.41 1106.36,-223.52 1100.54,-199.64"/>
<polygon fill="#63b8ff" stroke="#63b8ff" points="1103.89,-198.6 1098.12,-189.71 1097.09,-200.26 1103.89,-198.6"/>
</a>
</g>
</g>
<!-- Node11 -->
<g id="Node000011" class="node">
<title>Node11</title>
<g id="a_Node000011"><a xlink:href="Monomials__fwd_8hpp.html" target="_top" xlink:title="Declaration of Monomial basis.">
<polygon fill="white" stroke="#666666" points="1232,-129 1118,-129 1118,-110 1232,-110 1232,-129"/>
<text text-anchor="middle" x="1175" y="-117" font-family="Helvetica,sans-Serif" font-size="10.00">Monomials_fwd.hpp</text>
</a>
</g>
</g>
<!-- Node7&#45;&gt;Node11 -->
<g id="edge27_Node000007_Node000011" class="edge">
<title>Node7&#45;&gt;Node11</title>
<g id="a_edge27_Node000007_Node000011"><a xlink:title=" ">
<path fill="none" stroke="#63b8ff" d="M1194.58,-285.99C1213.81,-278.58 1232.53,-267.26 1244,-250 1270.18,-210.61 1222.09,-160.23 1193.69,-135.53"/>
<polygon fill="#63b8ff" stroke="#63b8ff" points="1195.85,-132.77 1185.94,-129 1191.33,-138.12 1195.85,-132.77"/>
</a>
</g>
</g>
<!-- Node19 -->
<g id="Node000019" class="node">
<title>Node19</title>
<g id="a_Node000019"><a xlink:href="RBFBasis__fwd_8hpp.html" target="_top" xlink:title="Declaration of RBF basis.">
<polygon fill="white" stroke="#666666" points="1235,-250 1129,-250 1129,-231 1235,-231 1235,-250"/>
<text text-anchor="middle" x="1182" y="-238" font-family="Helvetica,sans-Serif" font-size="10.00">RBFBasis_fwd.hpp</text>
</a>
</g>
</g>
<!-- Node7&#45;&gt;Node19 -->
<g id="edge28_Node000007_Node000019" class="edge">
<title>Node7&#45;&gt;Node19</title>
<g id="a_edge28_Node000007_Node000019"><a xlink:title=" ">
<path fill="none" stroke="#63b8ff" d="M1138.8,-285.84C1147.07,-277.35 1157.62,-266.52 1166.23,-257.69"/>
<polygon fill="#63b8ff" stroke="#63b8ff" points="1168.99,-259.87 1173.46,-250.27 1163.97,-254.99 1168.99,-259.87"/>
</a>
</g>
</g>
<!-- Node8&#45;&gt;Node2 -->
<g id="edge9_Node000008_Node000002" class="edge">
<title>Node8&#45;&gt;Node2</title>
<g id="a_edge9_Node000008_Node000002"><a xlink:title=" ">
<path fill="none" stroke="#63b8ff" d="M1060.26,-170.49C983.72,-152.28 810.4,-111.09 804,-110 677.14,-88.48 527.15,-75.72 443.26,-69.71"/>
<polygon fill="#63b8ff" stroke="#63b8ff" points="443.33,-66.21 433.11,-68.99 442.84,-73.19 443.33,-66.21"/>
</a>
</g>
</g>
<!-- Node8&#45;&gt;Node3 -->
<g id="edge11_Node000008_Node000003" class="edge">
<title>Node8&#45;&gt;Node3</title>
<g id="a_edge11_Node000008_Node000003"><a xlink:title=" ">
<path fill="none" stroke="#63b8ff" d="M1070.27,-170.5C1020.1,-153.7 906.02,-114.37 813,-74 795.68,-66.48 793.01,-60.68 775,-55 681.9,-25.62 566.24,-15.44 509.95,-12.07"/>
<polygon fill="#63b8ff" stroke="#63b8ff" points="510.01,-8.57 499.83,-11.5 509.62,-15.56 510.01,-8.57"/>
</a>
</g>
</g>
<!-- Node9 -->
<g id="Node000009" class="node">
<title>Node9</title>
<g id="a_Node000009"><a xlink:title=" ">
<polygon fill="#e0e0e0" stroke="#999999" points="1163,-19 1121,-19 1121,0 1163,0 1163,-19"/>
<text text-anchor="middle" x="1142" y="-7" font-family="Helvetica,sans-Serif" font-size="10.00">array</text>
</a>
</g>
</g>
<!-- Node8&#45;&gt;Node9 -->
<g id="edge10_Node000008_Node000009" class="edge">
<title>Node8&#45;&gt;Node9</title>
<g id="a_edge10_Node000008_Node000009"><a xlink:title=" ">
<path fill="none" stroke="#63b8ff" d="M1095.5,-170.23C1094.64,-149.43 1094.26,-95.83 1110,-55 1113.92,-44.83 1120.74,-34.85 1127.08,-26.93"/>
<polygon fill="#63b8ff" stroke="#63b8ff" points="1129.81,-29.12 1133.61,-19.23 1124.47,-24.59 1129.81,-29.12"/>
</a>
</g>
</g>
<!-- Node8&#45;&gt;Node10 -->
<g id="edge12_Node000008_Node000010" class="edge">
<title>Node8&#45;&gt;Node10</title>
<g id="a_edge12_Node000008_Node000010"><a xlink:title=" ">
<path fill="none" stroke="#63b8ff" d="M1150.04,-171.68C1180.14,-165.08 1216.39,-152.58 1241,-129 1253.42,-117.1 1259.8,-98.27 1262.99,-84.2"/>
<polygon fill="#63b8ff" stroke="#63b8ff" points="1266.46,-84.65 1264.92,-74.16 1259.59,-83.32 1266.46,-84.65"/>
</a>
</g>
</g>
<!-- Node8&#45;&gt;Node11 -->
<g id="edge13_Node000008_Node000011" class="edge">
<title>Node8&#45;&gt;Node11</title>
<g id="a_edge13_Node000008_Node000011"><a xlink:title=" ">
<path fill="none" stroke="#63b8ff" d="M1107.66,-170.37C1120.14,-161.12 1140.18,-146.28 1155.16,-135.19"/>
<polygon fill="#63b8ff" stroke="#63b8ff" points="1157.34,-137.93 1163.3,-129.17 1153.18,-132.31 1157.34,-137.93"/>
</a>
</g>
</g>
<!-- Node14 -->
<g id="Node000014" class="node">
<title>Node14</title>
<g id="a_Node000014"><a xlink:href="assert_8hpp.html" target="_top" xlink:title="Implementation of custom assert and debug utilities.">
<polygon fill="white" stroke="#666666" points="795.5,-129 640.5,-129 640.5,-110 795.5,-110 795.5,-129"/>
<text text-anchor="middle" x="718" y="-117" font-family="Helvetica,sans-Serif" font-size="10.00">medusa/bits/utils/assert.hpp</text>
</a>
</g>
</g>
<!-- Node8&#45;&gt;Node14 -->
<g id="edge19_Node000008_Node000014" class="edge">
<title>Node8&#45;&gt;Node14</title>
<g id="a_edge19_Node000008_Node000014"><a xlink:title=" ">
<path fill="none" stroke="#63b8ff" d="M1041.84,-170.62C973.5,-160.04 856.09,-141.87 782.99,-130.56"/>
<polygon fill="#63b8ff" stroke="#63b8ff" points="783.4,-127.08 772.98,-129.01 782.33,-134 783.4,-127.08"/>
</a>
</g>
</g>
<!-- Node11&#45;&gt;Node2 -->
<g id="edge14_Node000011_Node000002" class="edge">
<title>Node11&#45;&gt;Node2</title>
<g id="a_edge14_Node000011_Node000002"><a xlink:title=" ">
<path fill="none" stroke="#63b8ff" d="M1117.68,-114.69C973.41,-105.09 595.91,-79.99 443.36,-69.85"/>
<polygon fill="#63b8ff" stroke="#63b8ff" points="443.42,-66.34 433.21,-69.17 442.95,-73.33 443.42,-66.34"/>
</a>
</g>
</g>
<!-- Node11&#45;&gt;Node9 -->
<g id="edge16_Node000011_Node000009" class="edge">
<title>Node11&#45;&gt;Node9</title>
<g id="a_edge16_Node000011_Node000009"><a xlink:title=" ">
<path fill="none" stroke="#63b8ff" d="M1176.71,-109.6C1178.75,-97.05 1181.15,-73.63 1175,-55 1171.54,-44.54 1164.57,-34.53 1157.92,-26.66"/>
<polygon fill="#63b8ff" stroke="#63b8ff" points="1160.33,-24.1 1151.02,-19.04 1155.14,-28.8 1160.33,-24.1"/>
</a>
</g>
</g>
<!-- Node11&#45;&gt;Node10 -->
<g id="edge17_Node000011_Node000010" class="edge">
<title>Node11&#45;&gt;Node10</title>
<g id="a_edge17_Node000011_Node000010"><a xlink:title=" ">
<path fill="none" stroke="#63b8ff" d="M1189.62,-109.98C1203.86,-101.69 1225.75,-88.94 1242.45,-79.22"/>
<polygon fill="#63b8ff" stroke="#63b8ff" points="1244.23,-82.23 1251.11,-74.17 1240.71,-76.18 1244.23,-82.23"/>
</a>
</g>
</g>
<!-- Node12 -->
<g id="Node000012" class="node">
<title>Node12</title>
<g id="a_Node000012"><a xlink:title=" ">
<polygon fill="#e0e0e0" stroke="#999999" points="1165.5,-74 1118.5,-74 1118.5,-55 1165.5,-55 1165.5,-74"/>
<text text-anchor="middle" x="1142" y="-62" font-family="Helvetica,sans-Serif" font-size="10.00">cmath</text>
</a>
</g>
</g>
<!-- Node11&#45;&gt;Node12 -->
<g id="edge15_Node000011_Node000012" class="edge">
<title>Node11&#45;&gt;Node12</title>
<g id="a_edge15_Node000011_Node000012"><a xlink:title=" ">
<path fill="none" stroke="#63b8ff" d="M1169.55,-109.75C1164.99,-102.42 1158.33,-91.73 1152.71,-82.7"/>
<polygon fill="#63b8ff" stroke="#63b8ff" points="1155.6,-80.73 1147.35,-74.09 1149.66,-84.43 1155.6,-80.73"/>
</a>
</g>
</g>
<!-- Node11&#45;&gt;Node13 -->
<g id="edge18_Node000011_Node000013" class="edge">
<title>Node11&#45;&gt;Node13</title>
<g id="a_edge18_Node000011_Node000013"><a xlink:title=" ">
<path fill="none" stroke="#63b8ff" d="M1140.78,-109.98C1100.97,-100.08 1035.64,-83.82 995.95,-73.95"/>
<polygon fill="#63b8ff" stroke="#63b8ff" points="996.75,-70.54 986.2,-71.52 995.06,-77.33 996.75,-70.54"/>
</a>
</g>
</g>
<!-- Node15 -->
<g id="Node000015" class="node">
<title>Node15</title>
<g id="a_Node000015"><a xlink:title=" ">
<polygon fill="#e0e0e0" stroke="#999999" points="766,-74 634,-74 634,-55 766,-55 766,-74"/>
<text text-anchor="middle" x="700" y="-62" font-family="Helvetica,sans-Serif" font-size="10.00">tinyformat/tinyformat.h</text>
</a>
</g>
</g>
<!-- Node14&#45;&gt;Node15 -->
<g id="edge20_Node000014_Node000015" class="edge">
<title>Node14&#45;&gt;Node15</title>
<g id="a_edge20_Node000014_Node000015"><a xlink:title=" ">
<path fill="none" stroke="#63b8ff" d="M715.03,-109.75C712.64,-102.72 709.21,-92.62 706.23,-83.84"/>
<polygon fill="#63b8ff" stroke="#63b8ff" points="709.45,-82.43 702.92,-74.09 702.82,-84.68 709.45,-82.43"/>
</a>
</g>
</g>
<!-- Node16 -->
<g id="Node000016" class="node">
<title>Node16</title>
<g id="a_Node000016"><a xlink:href="print_8hpp.html" target="_top" xlink:title="Printing helpers for std types.">
<polygon fill="white" stroke="#666666" points="882,-74 822,-74 822,-55 882,-55 882,-74"/>
<text text-anchor="middle" x="852" y="-62" font-family="Helvetica,sans-Serif" font-size="10.00">print.hpp</text>
</a>
</g>
</g>
<!-- Node14&#45;&gt;Node16 -->
<g id="edge21_Node000014_Node000016" class="edge">
<title>Node14&#45;&gt;Node16</title>
<g id="a_edge21_Node000014_Node000016"><a xlink:title=" ">
<path fill="none" stroke="#63b8ff" d="M739.53,-109.98C761.47,-101.3 795.74,-87.75 820.69,-77.88"/>
<polygon fill="#63b8ff" stroke="#63b8ff" points="822.07,-81.1 830.08,-74.17 819.49,-74.59 822.07,-81.1"/>
</a>
</g>
</g>
<!-- Node16&#45;&gt;Node3 -->
<g id="edge23_Node000016_Node000003" class="edge">
<title>Node16&#45;&gt;Node3</title>
<g id="a_edge23_Node000016_Node000003"><a xlink:title=" ">
<path fill="none" stroke="#63b8ff" d="M821.74,-57.42C817.15,-56.56 812.45,-55.73 808,-55 699.45,-37.25 570.07,-21.44 509.89,-14.39"/>
<polygon fill="#63b8ff" stroke="#63b8ff" points="510.16,-10.9 499.82,-13.22 509.35,-17.85 510.16,-10.9"/>
</a>
</g>
</g>
<!-- Node16&#45;&gt;Node6 -->
<g id="edge26_Node000016_Node000006" class="edge">
<title>Node16&#45;&gt;Node6</title>
<g id="a_edge26_Node000016_Node000006"><a xlink:title=" ">
<path fill="none" stroke="#63b8ff" d="M869.99,-54.98C887.93,-46.5 915.72,-33.35 936.43,-23.54"/>
<polygon fill="#63b8ff" stroke="#63b8ff" points="938.14,-26.61 945.68,-19.17 935.14,-20.28 938.14,-26.61"/>
</a>
</g>
</g>
<!-- Node16&#45;&gt;Node9 -->
<g id="edge24_Node000016_Node000009" class="edge">
<title>Node16&#45;&gt;Node9</title>
<g id="a_edge24_Node000016_Node000009"><a xlink:title=" ">
<path fill="none" stroke="#63b8ff" d="M882.21,-57.98C937.55,-47.87 1054.61,-26.47 1110.72,-16.22"/>
<polygon fill="#63b8ff" stroke="#63b8ff" points="1111.57,-19.62 1120.78,-14.38 1110.31,-12.73 1111.57,-19.62"/>
</a>
</g>
</g>
<!-- Node17 -->
<g id="Node000017" class="node">
<title>Node17</title>
<g id="a_Node000017"><a xlink:title=" ">
<polygon fill="#e0e0e0" stroke="#999999" points="836,-19 776,-19 776,0 836,0 836,-19"/>
<text text-anchor="middle" x="806" y="-7" font-family="Helvetica,sans-Serif" font-size="10.00">iostream</text>
</a>
</g>
</g>
<!-- Node16&#45;&gt;Node17 -->
<g id="edge22_Node000016_Node000017" class="edge">
<title>Node16&#45;&gt;Node17</title>
<g id="a_edge22_Node000016_Node000017"><a xlink:title=" ">
<path fill="none" stroke="#63b8ff" d="M844.4,-54.75C837.84,-47.18 828.18,-36.05 820.19,-26.84"/>
<polygon fill="#63b8ff" stroke="#63b8ff" points="822.65,-24.35 813.45,-19.09 817.37,-28.94 822.65,-24.35"/>
</a>
</g>
</g>
<!-- Node18 -->
<g id="Node000018" class="node">
<title>Node18</title>
<g id="a_Node000018"><a xlink:title=" ">
<polygon fill="#e0e0e0" stroke="#999999" points="899.5,-19 854.5,-19 854.5,0 899.5,0 899.5,-19"/>
<text text-anchor="middle" x="877" y="-7" font-family="Helvetica,sans-Serif" font-size="10.00">utility</text>
</a>
</g>
</g>
<!-- Node16&#45;&gt;Node18 -->
<g id="edge25_Node000016_Node000018" class="edge">
<title>Node16&#45;&gt;Node18</title>
<g id="a_edge25_Node000016_Node000018"><a xlink:title=" ">
<path fill="none" stroke="#63b8ff" d="M856.13,-54.75C859.51,-47.57 864.42,-37.18 868.62,-28.27"/>
<polygon fill="#63b8ff" stroke="#63b8ff" points="871.85,-29.63 872.95,-19.09 865.52,-26.64 871.85,-29.63"/>
</a>
</g>
</g>
<!-- Node19&#45;&gt;Node2 -->
<g id="edge29_Node000019_Node000002" class="edge">
<title>Node19&#45;&gt;Node2</title>
<g id="a_edge29_Node000019_Node000002"><a xlink:title=" ">
<path fill="none" stroke="#63b8ff" d="M1128.82,-234.77C1113.7,-233.48 1097.2,-232.13 1082,-231 955.87,-221.64 634.28,-234.11 514,-195 461.94,-178.07 446.75,-169.57 410,-129 398.1,-115.86 389.48,-97.48 384.21,-83.87"/>
<polygon fill="#63b8ff" stroke="#63b8ff" points="387.39,-82.39 380.69,-74.18 380.81,-84.77 387.39,-82.39"/>
</a>
</g>
</g>
<!-- Node19&#45;&gt;Node8 -->
<g id="edge32_Node000019_Node000008" class="edge">
<title>Node19&#45;&gt;Node8</title>
<g id="a_edge32_Node000019_Node000008"><a xlink:title=" ">
<path fill="none" stroke="#63b8ff" d="M1169.31,-230.87C1155.59,-221.54 1133.5,-206.51 1117.15,-195.38"/>
<polygon fill="#63b8ff" stroke="#63b8ff" points="1118.98,-192.4 1108.74,-189.67 1115.04,-198.19 1118.98,-192.4"/>
</a>
</g>
</g>
<!-- Node19&#45;&gt;Node9 -->
<g id="edge31_Node000019_Node000009" class="edge">
<title>Node19&#45;&gt;Node9</title>
<g id="a_edge31_Node000019_Node000009"><a xlink:title=" ">
<path fill="none" stroke="#63b8ff" d="M1196.51,-230.83C1239.55,-204.04 1360.41,-120.5 1310,-55 1293.42,-33.46 1216.99,-20.2 1173.14,-14.23"/>
<polygon fill="#63b8ff" stroke="#63b8ff" points="1173.38,-10.73 1163.01,-12.9 1172.47,-17.68 1173.38,-10.73"/>
</a>
</g>
</g>
<!-- Node19&#45;&gt;Node13 -->
<g id="edge30_Node000019_Node000013" class="edge">
<title>Node19&#45;&gt;Node13</title>
<g id="a_edge30_Node000019_Node000013"><a xlink:title=" ">
<path fill="none" stroke="#63b8ff" d="M1181.47,-230.64C1180.13,-215.51 1175.42,-184.44 1159,-165 1136.06,-137.83 1042.81,-97.75 993.28,-77.76"/>
<polygon fill="#63b8ff" stroke="#63b8ff" points="994.57,-74.51 983.99,-74.04 991.97,-81.01 994.57,-74.51"/>
</a>
</g>
</g>
<!-- Node20&#45;&gt;Node2 -->
<g id="edge36_Node000020_Node000002" class="edge">
<title>Node20&#45;&gt;Node2</title>
<g id="a_edge36_Node000020_Node000002"><a xlink:title=" ">
<path fill="none" stroke="#63b8ff" d="M944.95,-239.54C760.57,-239.2 237.44,-234.68 172,-195 136.46,-173.45 106.36,-141.91 133,-110 155.48,-83.07 247.95,-72.4 312.62,-68.2"/>
<polygon fill="#63b8ff" stroke="#63b8ff" points="312.97,-71.68 322.74,-67.58 312.54,-64.69 312.97,-71.68"/>
</a>
</g>
</g>
<!-- Node20&#45;&gt;Node6 -->
<g id="edge53_Node000020_Node000006" class="edge">
<title>Node20&#45;&gt;Node6</title>
<g id="a_edge53_Node000020_Node000006"><a xlink:title=" ">
<path fill="none" stroke="#63b8ff" d="M1009.93,-230.71C1012.45,-203.58 1017.85,-119.16 995,-55 991.38,-44.84 984.79,-34.86 978.62,-26.94"/>
<polygon fill="#63b8ff" stroke="#63b8ff" points="981.31,-24.7 972.24,-19.23 975.92,-29.17 981.31,-24.7"/>
</a>
</g>
</g>
<!-- Node20&#45;&gt;Node8 -->
<g id="edge51_Node000020_Node000008" class="edge">
<title>Node20&#45;&gt;Node8</title>
<g id="a_edge51_Node000020_Node000008"><a xlink:title=" ">
<path fill="none" stroke="#63b8ff" d="M1021.84,-230.87C1035.72,-221.54 1058.07,-206.51 1074.61,-195.38"/>
<polygon fill="#63b8ff" stroke="#63b8ff" points="1076.76,-198.15 1083.11,-189.67 1072.86,-192.34 1076.76,-198.15"/>
</a>
</g>
</g>
<!-- Node20&#45;&gt;Node10 -->
<g id="edge54_Node000020_Node000010" class="edge">
<title>Node20&#45;&gt;Node10</title>
<g id="a_edge54_Node000020_Node000010"><a xlink:title=" ">
<path fill="none" stroke="#63b8ff" d="M1073.08,-232.08C1134.04,-221.15 1222.05,-194.35 1261,-129 1269.05,-115.49 1269.7,-97.4 1268.69,-83.98"/>
<polygon fill="#63b8ff" stroke="#63b8ff" points="1272.16,-83.56 1267.57,-74.02 1265.21,-84.34 1272.16,-83.56"/>
</a>
</g>
</g>
<!-- Node20&#45;&gt;Node13 -->
<g id="edge52_Node000020_Node000013" class="edge">
<title>Node20&#45;&gt;Node13</title>
<g id="a_edge52_Node000020_Node000013"><a xlink:title=" ">
<path fill="none" stroke="#63b8ff" d="M1006.6,-230.63C999.28,-203.52 977.08,-121.32 967.03,-84.13"/>
<polygon fill="#63b8ff" stroke="#63b8ff" points="970.32,-82.88 964.33,-74.14 963.56,-84.71 970.32,-82.88"/>
</a>
</g>
</g>
<!-- Node21 -->
<g id="Node000021" class="node">
<title>Node21</title>
<g id="a_Node000021"><a xlink:href="Range__fwd_8hpp.html" target="_top" xlink:title="Declaration of Range.">
<polygon fill="white" stroke="#666666" points="663,-195 523,-195 523,-165 663,-165 663,-195"/>
<text text-anchor="start" x="531" y="-183" font-family="Helvetica,sans-Serif" font-size="10.00">medusa/bits/types/Range</text>
<text text-anchor="middle" x="593" y="-172" font-family="Helvetica,sans-Serif" font-size="10.00">_fwd.hpp</text>
</a>
</g>
</g>
<!-- Node20&#45;&gt;Node21 -->
<g id="edge37_Node000020_Node000021" class="edge">
<title>Node20&#45;&gt;Node21</title>
<g id="a_edge37_Node000020_Node000021"><a xlink:title=" ">
<path fill="none" stroke="#63b8ff" d="M948.51,-230.99C875.9,-220.78 753.88,-203.62 673.4,-192.31"/>
<polygon fill="#63b8ff" stroke="#63b8ff" points="673.69,-188.81 663.3,-190.89 672.72,-195.75 673.69,-188.81"/>
</a>
</g>
</g>
<!-- Node24 -->
<g id="Node000024" class="node">
<title>Node24</title>
<g id="a_Node000024"><a xlink:href="stdtypesutils_8hpp.html" target="_top" xlink:title="Declaration of utilities for std types.">
<polygon fill="white" stroke="#666666" points="369,-189.5 181,-189.5 181,-170.5 369,-170.5 369,-189.5"/>
<text text-anchor="middle" x="275" y="-177.5" font-family="Helvetica,sans-Serif" font-size="10.00">medusa/bits/utils/stdtypesutils.hpp</text>
</a>
</g>
</g>
<!-- Node20&#45;&gt;Node24 -->
<g id="edge44_Node000020_Node000024" class="edge">
<title>Node20&#45;&gt;Node24</title>
<g id="a_edge44_Node000020_Node000024"><a xlink:title=" ">
<path fill="none" stroke="#63b8ff" d="M944.91,-236.17C831.46,-230.01 587.9,-215.55 383,-195 371.02,-193.8 358.32,-192.33 346,-190.8"/>
<polygon fill="#63b8ff" stroke="#63b8ff" points="346.12,-187.29 335.76,-189.5 345.24,-194.23 346.12,-187.29"/>
</a>
</g>
</g>
<!-- Node21&#45;&gt;Node2 -->
<g id="edge38_Node000021_Node000002" class="edge">
<title>Node21&#45;&gt;Node2</title>
<g id="a_edge38_Node000021_Node000002"><a xlink:title=" ">
<path fill="none" stroke="#63b8ff" d="M522.61,-165.29C493.91,-157.59 461.35,-146 435,-129 416.21,-116.88 399.76,-96.98 389.43,-82.68"/>
<polygon fill="#63b8ff" stroke="#63b8ff" points="392.14,-80.45 383.55,-74.24 386.39,-84.45 392.14,-80.45"/>
</a>
</g>
</g>
<!-- Node21&#45;&gt;Node3 -->
<g id="edge42_Node000021_Node000003" class="edge">
<title>Node21&#45;&gt;Node3</title>
<g id="a_edge42_Node000021_Node000003"><a xlink:title=" ">
<path fill="none" stroke="#63b8ff" d="M581.79,-164.73C574.09,-154.83 563.73,-141.26 555,-129 529.78,-93.6 501.95,-50.94 486.98,-27.69"/>
<polygon fill="#63b8ff" stroke="#63b8ff" points="489.91,-25.78 481.57,-19.25 484.02,-29.56 489.91,-25.78"/>
</a>
</g>
</g>
<!-- Node21&#45;&gt;Node13 -->
<g id="edge43_Node000021_Node000013" class="edge">
<title>Node21&#45;&gt;Node13</title>
<g id="a_edge43_Node000021_Node000013"><a xlink:title=" ">
<path fill="none" stroke="#63b8ff" d="M663.09,-165.14C704.5,-156.28 757.71,-143.69 804,-129 850.53,-114.23 902.77,-92.09 934,-78.24"/>
<polygon fill="#63b8ff" stroke="#63b8ff" points="935.66,-81.33 943.36,-74.05 932.81,-74.94 935.66,-81.33"/>
</a>
</g>
</g>
<!-- Node21&#45;&gt;Node14 -->
<g id="edge39_Node000021_Node000014" class="edge">
<title>Node21&#45;&gt;Node14</title>
<g id="a_edge39_Node000021_Node000014"><a xlink:title=" ">
<path fill="none" stroke="#63b8ff" d="M622.94,-164.99C643.42,-155.4 670.38,-142.79 690.35,-133.44"/>
<polygon fill="#63b8ff" stroke="#63b8ff" points="691.97,-136.55 699.54,-129.14 689,-130.21 691.97,-136.55"/>
</a>
</g>
</g>
<!-- Node22 -->
<g id="Node000022" class="node">
<title>Node22</title>
<g id="a_Node000022"><a xlink:href="traits_8hpp.html" target="_top" xlink:title="Type traits definition for vector and scalar fields.">
<polygon fill="white" stroke="#666666" points="507.5,-129 444.5,-129 444.5,-110 507.5,-110 507.5,-129"/>
<text text-anchor="middle" x="476" y="-117" font-family="Helvetica,sans-Serif" font-size="10.00">traits.hpp</text>
</a>
</g>
</g>
<!-- Node21&#45;&gt;Node22 -->
<g id="edge40_Node000021_Node000022" class="edge">
<title>Node21&#45;&gt;Node22</title>
<g id="a_edge40_Node000021_Node000022"><a xlink:title=" ">
<path fill="none" stroke="#63b8ff" d="M564.98,-164.99C545.98,-155.49 521.03,-143.02 502.39,-133.69"/>
<polygon fill="#63b8ff" stroke="#63b8ff" points="503.79,-130.48 493.28,-129.14 500.66,-136.74 503.79,-130.48"/>
</a>
</g>
</g>
<!-- Node23 -->
<g id="Node000023" class="node">
<title>Node23</title>
<g id="a_Node000023"><a xlink:title=" ">
<polygon fill="#e0e0e0" stroke="#999999" points="622,-129 564,-129 564,-110 622,-110 622,-129"/>
<text text-anchor="middle" x="593" y="-117" font-family="Helvetica,sans-Serif" font-size="10.00">memory</text>
</a>
</g>
</g>
<!-- Node21&#45;&gt;Node23 -->
<g id="edge41_Node000021_Node000023" class="edge">
<title>Node21&#45;&gt;Node23</title>
<g id="a_edge41_Node000021_Node000023"><a xlink:title=" ">
<path fill="none" stroke="#63b8ff" d="M593,-164.84C593,-157.21 593,-147.7 593,-139.45"/>
<polygon fill="#63b8ff" stroke="#63b8ff" points="596.5,-139.27 593,-129.27 589.5,-139.27 596.5,-139.27"/>
</a>
</g>
</g>
<!-- Node24&#45;&gt;Node2 -->
<g id="edge45_Node000024_Node000002" class="edge">
<title>Node24&#45;&gt;Node2</title>
<g id="a_edge45_Node000024_Node000002"><a xlink:title=" ">
<path fill="none" stroke="#63b8ff" d="M262.98,-170.4C245.76,-157.03 217.75,-130.64 233,-110 251.34,-85.19 283.27,-73.76 312.51,-68.67"/>
<polygon fill="#63b8ff" stroke="#63b8ff" points="313.35,-72.09 322.71,-67.13 312.3,-65.17 313.35,-72.09"/>
</a>
</g>
</g>
<!-- Node24&#45;&gt;Node3 -->
<g id="edge48_Node000024_Node000003" class="edge">
<title>Node24&#45;&gt;Node3</title>
<g id="a_edge48_Node000024_Node000003"><a xlink:title=" ">
<path fill="none" stroke="#63b8ff" d="M210.49,-170.48C162.19,-161.28 108.35,-143.25 133,-110 170.41,-59.53 363.53,-26.61 442.4,-15.09"/>
<polygon fill="#63b8ff" stroke="#63b8ff" points="442.9,-18.55 452.3,-13.66 441.91,-11.62 442.9,-18.55"/>
</a>
</g>
</g>
<!-- Node24&#45;&gt;Node5 -->
<g id="edge47_Node000024_Node000005" class="edge">
<title>Node24&#45;&gt;Node5</title>
<g id="a_edge47_Node000024_Node000005"><a xlink:title=" ">
<path fill="none" stroke="#63b8ff" d="M258.62,-170.37C240.42,-160.78 210.8,-145.17 189.55,-133.97"/>
<polygon fill="#63b8ff" stroke="#63b8ff" points="190.92,-130.73 180.45,-129.17 187.66,-136.93 190.92,-130.73"/>
</a>
</g>
</g>
<!-- Node24&#45;&gt;Node6 -->
<g id="edge49_Node000024_Node000006" class="edge">
<title>Node24&#45;&gt;Node6</title>
<g id="a_edge49_Node000024_Node000006"><a xlink:title=" ">
<path fill="none" stroke="#63b8ff" d="M290.3,-170.36C318.1,-155.14 379.21,-123.83 435,-110 632.33,-61.09 703.54,-152.67 891,-74 915.31,-63.8 937.25,-42.24 950.59,-27.08"/>
<polygon fill="#63b8ff" stroke="#63b8ff" points="953.27,-29.33 957.07,-19.43 947.94,-24.8 953.27,-29.33"/>
</a>
</g>
</g>
<!-- Node24&#45;&gt;Node14 -->
<g id="edge46_Node000024_Node000014" class="edge">
<title>Node24&#45;&gt;Node14</title>
<g id="a_edge46_Node000024_Node000014"><a xlink:title=" ">
<path fill="none" stroke="#63b8ff" d="M339.42,-170.49C420.12,-159.84 558.16,-141.61 643.38,-130.35"/>
<polygon fill="#63b8ff" stroke="#63b8ff" points="644.05,-133.8 653.51,-129.02 643.13,-126.86 644.05,-133.8"/>
</a>
</g>
</g>
<!-- Node25 -->
<g id="Node000025" class="node">
<title>Node25</title>
<g id="a_Node000025"><a xlink:title=" ">
<polygon fill="#e0e0e0" stroke="#999999" points="311.5,-129 242.5,-129 242.5,-110 311.5,-110 311.5,-129"/>
<text text-anchor="middle" x="277" y="-117" font-family="Helvetica,sans-Serif" font-size="10.00">type_traits</text>
</a>
</g>
</g>
<!-- Node24&#45;&gt;Node25 -->
<g id="edge50_Node000024_Node000025" class="edge">
<title>Node24&#45;&gt;Node25</title>
<g id="a_edge50_Node000024_Node000025"><a xlink:title=" ">
<path fill="none" stroke="#63b8ff" d="M275.3,-170.37C275.57,-162.25 276,-149.81 276.35,-139.39"/>
<polygon fill="#63b8ff" stroke="#63b8ff" points="279.86,-139.28 276.7,-129.17 272.86,-139.04 279.86,-139.28"/>
</a>
</g>
</g>
</g>
</svg>
