<?xml version="1.0" encoding="UTF-8" standalone="no"?>
<!DOCTYPE svg PUBLIC "-//W3C//DTD SVG 1.1//EN"
 "http://www.w3.org/Graphics/SVG/1.1/DTD/svg11.dtd">
<!-- Generated by graphviz version 2.43.0 (0)
 -->
<!-- Title: include/medusa/bits/operators/UniformShapeStorage.hpp Pages: 1 -->
<svg width="1496pt" height="577pt"
 viewBox="0.00 0.00 1496.00 577.00" xmlns="http://www.w3.org/2000/svg" xmlns:xlink="http://www.w3.org/1999/xlink">
<g id="graph0" class="graph" transform="scale(1 1) rotate(0) translate(4 573)">
<title>include/medusa/bits/operators/UniformShapeStorage.hpp</title>
<!-- Node1 -->
<g id="Node000001" class="node">
<title>Node1</title>
<g id="a_Node000001"><a xlink:title="Implementation of shape storage for uniformly long shapes.">
<polygon fill="#999999" stroke="#666666" points="1107.5,-569 910.5,-569 910.5,-539 1107.5,-539 1107.5,-569"/>
<text text-anchor="start" x="918.5" y="-557" font-family="Helvetica,sans-Serif" font-size="10.00">include/medusa/bits</text>
<text text-anchor="middle" x="1009" y="-546" font-family="Helvetica,sans-Serif" font-size="10.00">/operators/UniformShapeStorage.hpp</text>
</a>
</g>
</g>
<!-- Node2 -->
<g id="Node000002" class="node">
<title>Node2</title>
<g id="a_Node000002"><a xlink:href="UniformShapeStorage__fwd_8hpp.html" target="_top" xlink:title="Declaration of shape storage for uniformly long shapes.">
<polygon fill="white" stroke="#666666" points="655,-448 531,-448 531,-418 655,-418 655,-448"/>
<text text-anchor="start" x="539" y="-436" font-family="Helvetica,sans-Serif" font-size="10.00">UniformShapeStorage</text>
<text text-anchor="middle" x="593" y="-425" font-family="Helvetica,sans-Serif" font-size="10.00">_fwd.hpp</text>
</a>
</g>
</g>
<!-- Node1&#45;&gt;Node2 -->
<g id="edge1_Node000001_Node000002" class="edge">
<title>Node1&#45;&gt;Node2</title>
<g id="a_edge1_Node000001_Node000002"><a xlink:title=" ">
<path fill="none" stroke="#63b8ff" d="M960.06,-539C883.18,-517.01 734.39,-474.45 651.81,-450.82"/>
<polygon fill="#63b8ff" stroke="#63b8ff" points="652.66,-447.42 642.08,-448.04 650.73,-454.15 652.66,-447.42"/>
</a>
</g>
</g>
<!-- Node11 -->
<g id="Node000011" class="node">
<title>Node11</title>
<g id="a_Node000011"><a xlink:title=" ">
<polygon fill="#e0e0e0" stroke="#999999" points="110.5,-74 41.5,-74 41.5,-55 110.5,-55 110.5,-74"/>
<text text-anchor="middle" x="76" y="-62" font-family="Helvetica,sans-Serif" font-size="10.00">Eigen/Core</text>
</a>
</g>
</g>
<!-- Node1&#45;&gt;Node11 -->
<g id="edge68_Node000001_Node000011" class="edge">
<title>Node1&#45;&gt;Node11</title>
<g id="a_edge68_Node000001_Node000011"><a xlink:title=" ">
<path fill="none" stroke="#63b8ff" d="M910.42,-551.59C656.53,-546.64 0,-525.06 0,-434 0,-434 0,-434 0,-179 0,-138.03 34.62,-100.66 57.13,-80.69"/>
<polygon fill="#63b8ff" stroke="#63b8ff" points="59.46,-83.31 64.79,-74.15 54.91,-77.99 59.46,-83.31"/>
</a>
</g>
</g>
<!-- Node15 -->
<g id="Node000015" class="node">
<title>Node15</title>
<g id="a_Node000015"><a xlink:href="assert_8hpp.html" target="_top" xlink:title="Implementation of custom assert and debug utilities.">
<polygon fill="white" stroke="#666666" points="1119.5,-129 964.5,-129 964.5,-110 1119.5,-110 1119.5,-129"/>
<text text-anchor="middle" x="1042" y="-117" font-family="Helvetica,sans-Serif" font-size="10.00">medusa/bits/utils/assert.hpp</text>
</a>
</g>
</g>
<!-- Node1&#45;&gt;Node15 -->
<g id="edge66_Node000001_Node000015" class="edge">
<title>Node1&#45;&gt;Node15</title>
<g id="a_edge66_Node000001_Node000015"><a xlink:title=" ">
<path fill="none" stroke="#63b8ff" d="M1017.3,-538.89C1029.28,-517.14 1050,-473.77 1050,-434 1050,-434 1050,-434 1050,-239.5 1050,-204.07 1046.43,-162.85 1044.06,-139.4"/>
<polygon fill="#63b8ff" stroke="#63b8ff" points="1047.51,-138.73 1042.98,-129.15 1040.54,-139.46 1047.51,-138.73"/>
</a>
</g>
</g>
<!-- Node27 -->
<g id="Node000027" class="node">
<title>Node27</title>
<g id="a_Node000027"><a xlink:href="ShapeStorage_8hpp.html" target="_top" xlink:title="Implementations of the ShapeStorage interface.">
<polygon fill="white" stroke="#666666" points="1021.5,-503 916.5,-503 916.5,-484 1021.5,-484 1021.5,-503"/>
<text text-anchor="middle" x="969" y="-491" font-family="Helvetica,sans-Serif" font-size="10.00">ShapeStorage.hpp</text>
</a>
</g>
</g>
<!-- Node1&#45;&gt;Node27 -->
<g id="edge56_Node000001_Node000027" class="edge">
<title>Node1&#45;&gt;Node27</title>
<g id="a_edge56_Node000001_Node000027"><a xlink:title=" ">
<path fill="none" stroke="#63b8ff" d="M999.32,-538.84C993.75,-530.69 986.71,-520.4 980.82,-511.78"/>
<polygon fill="#63b8ff" stroke="#63b8ff" points="983.53,-509.55 974.99,-503.27 977.75,-513.5 983.53,-509.55"/>
</a>
</g>
</g>
<!-- Node28 -->
<g id="Node000028" class="node">
<title>Node28</title>
<g id="a_Node000028"><a xlink:href="printShapes_8hpp.html" target="_top" xlink:title="Suppport functions for shape printing.">
<polygon fill="white" stroke="#666666" points="1236.5,-442.5 1141.5,-442.5 1141.5,-423.5 1236.5,-423.5 1236.5,-442.5"/>
<text text-anchor="middle" x="1189" y="-430.5" font-family="Helvetica,sans-Serif" font-size="10.00">printShapes.hpp</text>
</a>
</g>
</g>
<!-- Node1&#45;&gt;Node28 -->
<g id="edge65_Node000001_Node000028" class="edge">
<title>Node1&#45;&gt;Node28</title>
<g id="a_edge65_Node000001_Node000028"><a xlink:title=" ">
<path fill="none" stroke="#63b8ff" d="M1028.26,-538.87C1047.84,-524.65 1079.16,-502.26 1107,-484 1126.35,-471.31 1148.81,-457.69 1165.33,-447.87"/>
<polygon fill="#63b8ff" stroke="#63b8ff" points="1167.48,-450.67 1174.3,-442.57 1163.91,-444.64 1167.48,-450.67"/>
</a>
</g>
</g>
<!-- Node30 -->
<g id="Node000030" class="node">
<title>Node30</title>
<g id="a_Node000030"><a xlink:title=" ">
<polygon fill="#e0e0e0" stroke="#999999" points="1166,-503 1116,-503 1116,-484 1166,-484 1166,-503"/>
<text text-anchor="middle" x="1141" y="-491" font-family="Helvetica,sans-Serif" font-size="10.00">cstring</text>
</a>
</g>
</g>
<!-- Node1&#45;&gt;Node30 -->
<g id="edge67_Node000001_Node000030" class="edge">
<title>Node1&#45;&gt;Node30</title>
<g id="a_edge67_Node000001_Node000030"><a xlink:title=" ">
<path fill="none" stroke="#63b8ff" d="M1040.62,-538.99C1062.35,-529.36 1090.97,-516.67 1112.09,-507.31"/>
<polygon fill="#63b8ff" stroke="#63b8ff" points="1113.78,-510.39 1121.51,-503.14 1110.95,-503.99 1113.78,-510.39"/>
</a>
</g>
</g>
<!-- Node3 -->
<g id="Node000003" class="node">
<title>Node3</title>
<g id="a_Node000003"><a xlink:href="Config_8hpp.html" target="_top" xlink:title="Contains compile time settings for the project, such as Eigen plugins.">
<polygon fill="white" stroke="#666666" points="636,-74 526,-74 526,-55 636,-55 636,-74"/>
<text text-anchor="middle" x="581" y="-62" font-family="Helvetica,sans-Serif" font-size="10.00">medusa/Config.hpp</text>
</a>
</g>
</g>
<!-- Node2&#45;&gt;Node3 -->
<g id="edge2_Node000002_Node000003" class="edge">
<title>Node2&#45;&gt;Node3</title>
<g id="a_edge2_Node000002_Node000003"><a xlink:title=" ">
<path fill="none" stroke="#63b8ff" d="M593,-417.96C593,-394.12 593,-344.2 593,-302 593,-302 593,-302 593,-239.5 593,-182.87 586.59,-116.11 583.14,-84.25"/>
<polygon fill="#63b8ff" stroke="#63b8ff" points="586.61,-83.73 582.02,-74.18 579.65,-84.5 586.61,-83.73"/>
</a>
</g>
</g>
<!-- Node4 -->
<g id="Node000004" class="node">
<title>Node4</title>
<g id="a_Node000004"><a xlink:title=" ">
<polygon fill="#e0e0e0" stroke="#999999" points="645.5,-19 598.5,-19 598.5,0 645.5,0 645.5,-19"/>
<text text-anchor="middle" x="622" y="-7" font-family="Helvetica,sans-Serif" font-size="10.00">vector</text>
</a>
</g>
</g>
<!-- Node2&#45;&gt;Node4 -->
<g id="edge4_Node000002_Node000004" class="edge">
<title>Node2&#45;&gt;Node4</title>
<g id="a_edge4_Node000002_Node000004"><a xlink:title=" ">
<path fill="none" stroke="#63b8ff" d="M586.03,-417.97C575.06,-394.54 555,-345.74 555,-302 555,-302 555,-302 555,-239.5 555,-155.78 470.77,-124.8 517,-55 532.78,-31.17 564.16,-20.06 588.52,-14.91"/>
<polygon fill="#63b8ff" stroke="#63b8ff" points="589.28,-18.33 598.47,-13.05 587.99,-11.45 589.28,-18.33"/>
</a>
</g>
</g>
<!-- Node5 -->
<g id="Node000005" class="node">
<title>Node5</title>
<g id="a_Node000005"><a xlink:href="shape__flags_8hpp.html" target="_top" xlink:title="Definition of flags related to shape computation.">
<polygon fill="white" stroke="#666666" points="1252,-382 1126,-382 1126,-352 1252,-352 1252,-382"/>
<text text-anchor="start" x="1134" y="-370" font-family="Helvetica,sans-Serif" font-size="10.00">medusa/bits/operators</text>
<text text-anchor="middle" x="1189" y="-359" font-family="Helvetica,sans-Serif" font-size="10.00">/shape_flags.hpp</text>
</a>
</g>
</g>
<!-- Node2&#45;&gt;Node5 -->
<g id="edge5_Node000002_Node000005" class="edge">
<title>Node2&#45;&gt;Node5</title>
<g id="a_edge5_Node000002_Node000005"><a xlink:title=" ">
<path fill="none" stroke="#63b8ff" d="M655.1,-425.33C765.91,-413.43 997.18,-388.6 1115.63,-375.88"/>
<polygon fill="#63b8ff" stroke="#63b8ff" points="1116.13,-379.35 1125.7,-374.8 1115.38,-372.39 1116.13,-379.35"/>
</a>
</g>
</g>
<!-- Node2&#45;&gt;Node11 -->
<g id="edge35_Node000002_Node000011" class="edge">
<title>Node2&#45;&gt;Node11</title>
<g id="a_edge35_Node000002_Node000011"><a xlink:title=" ">
<path fill="none" stroke="#63b8ff" d="M530.95,-430.49C386.12,-425.28 38,-402.32 38,-302 38,-302 38,-302 38,-179 38,-143.48 54.94,-104.79 66.2,-83"/>
<polygon fill="#63b8ff" stroke="#63b8ff" points="69.39,-84.47 71.03,-74 63.22,-81.16 69.39,-84.47"/>
</a>
</g>
</g>
<!-- Node14 -->
<g id="Node000014" class="node">
<title>Node14</title>
<g id="a_Node000014"><a xlink:title=" ">
<polygon fill="#e0e0e0" stroke="#999999" points="332,-74 284,-74 284,-55 332,-55 332,-74"/>
<text text-anchor="middle" x="308" y="-62" font-family="Helvetica,sans-Serif" font-size="10.00">iosfwd</text>
</a>
</g>
</g>
<!-- Node2&#45;&gt;Node14 -->
<g id="edge34_Node000002_Node000014" class="edge">
<title>Node2&#45;&gt;Node14</title>
<g id="a_edge34_Node000002_Node000014"><a xlink:title=" ">
<path fill="none" stroke="#63b8ff" d="M530.93,-422.31C429.41,-404.69 239,-363.46 239,-302 239,-302 239,-302 239,-239.5 239,-178.21 276.45,-112.8 296.17,-82.59"/>
<polygon fill="#63b8ff" stroke="#63b8ff" points="299.22,-84.33 301.88,-74.07 293.4,-80.43 299.22,-84.33"/>
</a>
</g>
</g>
<!-- Node21 -->
<g id="Node000021" class="node">
<title>Node21</title>
<g id="a_Node000021"><a xlink:href="ShapeStorage__fwd_8hpp.html" target="_top" xlink:title="Base class and interface for storing and accessing computed shapes.">
<polygon fill="white" stroke="#666666" points="788,-250 660,-250 660,-231 788,-231 788,-250"/>
<text text-anchor="middle" x="724" y="-238" font-family="Helvetica,sans-Serif" font-size="10.00">ShapeStorage_fwd.hpp</text>
</a>
</g>
</g>
<!-- Node2&#45;&gt;Node21 -->
<g id="edge36_Node000002_Node000021" class="edge">
<title>Node2&#45;&gt;Node21</title>
<g id="a_edge36_Node000002_Node000021"><a xlink:title=" ">
<path fill="none" stroke="#63b8ff" d="M602.63,-417.99C626.16,-383.77 686.52,-296.01 712.17,-258.7"/>
<polygon fill="#63b8ff" stroke="#63b8ff" points="715.12,-260.58 717.91,-250.36 709.36,-256.62 715.12,-260.58"/>
</a>
</g>
</g>
<!-- Node3&#45;&gt;Node4 -->
<g id="edge3_Node000003_Node000004" class="edge">
<title>Node3&#45;&gt;Node4</title>
<g id="a_edge3_Node000003_Node000004"><a xlink:title=" ">
<path fill="none" stroke="#63b8ff" d="M587.77,-54.75C593.56,-47.26 602.06,-36.28 609.14,-27.13"/>
<polygon fill="#63b8ff" stroke="#63b8ff" points="612.01,-29.14 615.36,-19.09 606.47,-24.86 612.01,-29.14"/>
</a>
</g>
</g>
<!-- Node6 -->
<g id="Node000006" class="node">
<title>Node6</title>
<g id="a_Node000006"><a xlink:title=" ">
<polygon fill="#e0e0e0" stroke="#999999" points="1422,-129 1378,-129 1378,-110 1422,-110 1422,-129"/>
<text text-anchor="middle" x="1400" y="-117" font-family="Helvetica,sans-Serif" font-size="10.00">string</text>
</a>
</g>
</g>
<!-- Node5&#45;&gt;Node6 -->
<g id="edge6_Node000005_Node000006" class="edge">
<title>Node5&#45;&gt;Node6</title>
<g id="a_edge6_Node000005_Node000006"><a xlink:title=" ">
<path fill="none" stroke="#63b8ff" d="M1203.17,-351.92C1231.65,-323.37 1297.31,-256.18 1347,-195 1362.41,-176.02 1378.47,-152.91 1388.81,-137.51"/>
<polygon fill="#63b8ff" stroke="#63b8ff" points="1391.83,-139.29 1394.45,-129.02 1386,-135.41 1391.83,-139.29"/>
</a>
</g>
</g>
<!-- Node7 -->
<g id="Node000007" class="node">
<title>Node7</title>
<g id="a_Node000007"><a xlink:title=" ">
<polygon fill="#e0e0e0" stroke="#999999" points="1322.5,-19 1281.5,-19 1281.5,0 1322.5,0 1322.5,-19"/>
<text text-anchor="middle" x="1302" y="-7" font-family="Helvetica,sans-Serif" font-size="10.00">tuple</text>
</a>
</g>
</g>
<!-- Node5&#45;&gt;Node7 -->
<g id="edge7_Node000005_Node000007" class="edge">
<title>Node5&#45;&gt;Node7</title>
<g id="a_edge7_Node000005_Node000007"><a xlink:title=" ">
<path fill="none" stroke="#63b8ff" d="M1252.18,-362.75C1329.42,-354.98 1450,-328.85 1450,-241.5 1450,-241.5 1450,-241.5 1450,-118.5 1450,-60.78 1375.64,-30.63 1332.34,-17.96"/>
<polygon fill="#63b8ff" stroke="#63b8ff" points="1333.15,-14.55 1322.58,-15.24 1331.28,-21.29 1333.15,-14.55"/>
</a>
</g>
</g>
<!-- Node8 -->
<g id="Node000008" class="node">
<title>Node8</title>
<g id="a_Node000008"><a xlink:href="bits_2approximations_2Operators_8hpp.html" target="_top" xlink:title="Implementations of differential operator families.">
<polygon fill="white" stroke="#666666" points="451,-316 295,-316 295,-286 451,-286 451,-316"/>
<text text-anchor="start" x="303" y="-304" font-family="Helvetica,sans-Serif" font-size="10.00">medusa/bits/approximations</text>
<text text-anchor="middle" x="373" y="-293" font-family="Helvetica,sans-Serif" font-size="10.00">/Operators.hpp</text>
</a>
</g>
</g>
<!-- Node5&#45;&gt;Node8 -->
<g id="edge8_Node000005_Node000008" class="edge">
<title>Node5&#45;&gt;Node8</title>
<g id="a_edge8_Node000005_Node000008"><a xlink:title=" ">
<path fill="none" stroke="#63b8ff" d="M1125.99,-361.06C981.72,-349.74 627.13,-321.93 461.25,-308.92"/>
<polygon fill="#63b8ff" stroke="#63b8ff" points="461.32,-305.42 451.08,-308.12 460.78,-312.4 461.32,-305.42"/>
</a>
</g>
</g>
<!-- Node9 -->
<g id="Node000009" class="node">
<title>Node9</title>
<g id="a_Node000009"><a xlink:href="Operators__fwd_8hpp.html" target="_top" xlink:title="File defining basic differential operator families.">
<polygon fill="white" stroke="#666666" points="451,-189.5 343,-189.5 343,-170.5 451,-170.5 451,-189.5"/>
<text text-anchor="middle" x="397" y="-177.5" font-family="Helvetica,sans-Serif" font-size="10.00">Operators_fwd.hpp</text>
</a>
</g>
</g>
<!-- Node8&#45;&gt;Node9 -->
<g id="edge9_Node000008_Node000009" class="edge">
<title>Node8&#45;&gt;Node9</title>
<g id="a_edge9_Node000008_Node000009"><a xlink:title=" ">
<path fill="none" stroke="#63b8ff" d="M375.85,-285.88C380.18,-264.41 388.42,-223.52 393.24,-199.64"/>
<polygon fill="#63b8ff" stroke="#63b8ff" points="396.7,-200.21 395.24,-189.71 389.84,-198.82 396.7,-200.21"/>
</a>
</g>
</g>
<!-- Node12 -->
<g id="Node000012" class="node">
<title>Node12</title>
<g id="a_Node000012"><a xlink:href="Monomials__fwd_8hpp.html" target="_top" xlink:title="Declaration of Monomial basis.">
<polygon fill="white" stroke="#666666" points="256,-129 142,-129 142,-110 256,-110 256,-129"/>
<text text-anchor="middle" x="199" y="-117" font-family="Helvetica,sans-Serif" font-size="10.00">Monomials_fwd.hpp</text>
</a>
</g>
</g>
<!-- Node8&#45;&gt;Node12 -->
<g id="edge28_Node000008_Node000012" class="edge">
<title>Node8&#45;&gt;Node12</title>
<g id="a_edge28_Node000008_Node000012"><a xlink:title=" ">
<path fill="none" stroke="#63b8ff" d="M319.53,-285.93C298.29,-278.17 274.92,-266.63 258,-250 226.1,-218.65 209.81,-166.87 203.01,-139.24"/>
<polygon fill="#63b8ff" stroke="#63b8ff" points="206.37,-138.27 200.72,-129.31 199.55,-139.84 206.37,-138.27"/>
</a>
</g>
</g>
<!-- Node20 -->
<g id="Node000020" class="node">
<title>Node20</title>
<g id="a_Node000020"><a xlink:href="RBFBasis__fwd_8hpp.html" target="_top" xlink:title="Declaration of RBF basis.">
<polygon fill="white" stroke="#666666" points="373,-250 267,-250 267,-231 373,-231 373,-250"/>
<text text-anchor="middle" x="320" y="-238" font-family="Helvetica,sans-Serif" font-size="10.00">RBFBasis_fwd.hpp</text>
</a>
</g>
</g>
<!-- Node8&#45;&gt;Node20 -->
<g id="edge29_Node000008_Node000020" class="edge">
<title>Node8&#45;&gt;Node20</title>
<g id="a_edge29_Node000008_Node000020"><a xlink:title=" ">
<path fill="none" stroke="#63b8ff" d="M360.17,-285.84C352.48,-277.35 342.67,-266.52 334.67,-257.69"/>
<polygon fill="#63b8ff" stroke="#63b8ff" points="337.25,-255.33 327.94,-250.27 332.06,-260.03 337.25,-255.33"/>
</a>
</g>
</g>
<!-- Node9&#45;&gt;Node3 -->
<g id="edge10_Node000009_Node000003" class="edge">
<title>Node9&#45;&gt;Node3</title>
<g id="a_edge10_Node000009_Node000003"><a xlink:title=" ">
<path fill="none" stroke="#63b8ff" d="M410.83,-170.47C442.27,-151.08 519.35,-103.53 558.05,-79.66"/>
<polygon fill="#63b8ff" stroke="#63b8ff" points="560.34,-82.36 567.01,-74.13 556.66,-76.4 560.34,-82.36"/>
</a>
</g>
</g>
<!-- Node9&#45;&gt;Node4 -->
<g id="edge12_Node000009_Node000004" class="edge">
<title>Node9&#45;&gt;Node4</title>
<g id="a_edge12_Node000009_Node000004"><a xlink:title=" ">
<path fill="none" stroke="#63b8ff" d="M398.86,-170.26C404.15,-147.58 421.46,-86.45 460,-55 496.86,-24.92 552.53,-15.11 588.06,-11.94"/>
<polygon fill="#63b8ff" stroke="#63b8ff" points="588.69,-15.41 598.4,-11.16 588.16,-8.43 588.69,-15.41"/>
</a>
</g>
</g>
<!-- Node10 -->
<g id="Node000010" class="node">
<title>Node10</title>
<g id="a_Node000010"><a xlink:title=" ">
<polygon fill="#e0e0e0" stroke="#999999" points="296,-19 254,-19 254,0 296,0 296,-19"/>
<text text-anchor="middle" x="275" y="-7" font-family="Helvetica,sans-Serif" font-size="10.00">array</text>
</a>
</g>
</g>
<!-- Node9&#45;&gt;Node10 -->
<g id="edge11_Node000009_Node000010" class="edge">
<title>Node9&#45;&gt;Node10</title>
<g id="a_edge11_Node000009_Node000010"><a xlink:title=" ">
<path fill="none" stroke="#63b8ff" d="M394.85,-170.29C389.19,-148.7 372.08,-91.83 341,-55 330.31,-42.34 315.16,-31.77 302.07,-24.12"/>
<polygon fill="#63b8ff" stroke="#63b8ff" points="303.43,-20.88 292.99,-19.08 300.03,-26.99 303.43,-20.88"/>
</a>
</g>
</g>
<!-- Node9&#45;&gt;Node11 -->
<g id="edge13_Node000009_Node000011" class="edge">
<title>Node9&#45;&gt;Node11</title>
<g id="a_edge13_Node000009_Node000011"><a xlink:title=" ">
<path fill="none" stroke="#63b8ff" d="M342.84,-170.65C270.98,-159.27 151.03,-139.16 133,-129 113.31,-117.9 96.84,-97.48 86.75,-82.78"/>
<polygon fill="#63b8ff" stroke="#63b8ff" points="89.48,-80.56 81.07,-74.11 83.62,-84.4 89.48,-80.56"/>
</a>
</g>
</g>
<!-- Node9&#45;&gt;Node12 -->
<g id="edge14_Node000009_Node000012" class="edge">
<title>Node9&#45;&gt;Node12</title>
<g id="a_edge14_Node000009_Node000012"><a xlink:title=" ">
<path fill="none" stroke="#63b8ff" d="M368.21,-170.49C333.75,-160.31 275.91,-143.22 237.6,-131.9"/>
<polygon fill="#63b8ff" stroke="#63b8ff" points="238.41,-128.49 227.83,-129.02 236.42,-135.21 238.41,-128.49"/>
</a>
</g>
</g>
<!-- Node9&#45;&gt;Node15 -->
<g id="edge20_Node000009_Node000015" class="edge">
<title>Node9&#45;&gt;Node15</title>
<g id="a_edge20_Node000009_Node000015"><a xlink:title=" ">
<path fill="none" stroke="#63b8ff" d="M451.16,-174.09C562.58,-163.98 818.36,-140.78 953.93,-128.49"/>
<polygon fill="#63b8ff" stroke="#63b8ff" points="954.63,-131.94 964.27,-127.55 954,-124.97 954.63,-131.94"/>
</a>
</g>
</g>
<!-- Node12&#45;&gt;Node3 -->
<g id="edge15_Node000012_Node000003" class="edge">
<title>Node12&#45;&gt;Node3</title>
<g id="a_edge15_Node000012_Node000003"><a xlink:title=" ">
<path fill="none" stroke="#63b8ff" d="M256.19,-110.57C325.76,-100.91 442.94,-84.65 515.91,-74.53"/>
<polygon fill="#63b8ff" stroke="#63b8ff" points="516.48,-77.99 525.9,-73.14 515.52,-71.05 516.48,-77.99"/>
</a>
</g>
</g>
<!-- Node12&#45;&gt;Node10 -->
<g id="edge17_Node000012_Node000010" class="edge">
<title>Node12&#45;&gt;Node10</title>
<g id="a_edge17_Node000012_Node000010"><a xlink:title=" ">
<path fill="none" stroke="#63b8ff" d="M198.29,-109.94C197.64,-97 198.09,-72.13 209,-55 217.54,-41.59 231.74,-31.24 244.78,-23.91"/>
<polygon fill="#63b8ff" stroke="#63b8ff" points="246.73,-26.84 253.98,-19.11 243.49,-20.64 246.73,-26.84"/>
</a>
</g>
</g>
<!-- Node12&#45;&gt;Node11 -->
<g id="edge18_Node000012_Node000011" class="edge">
<title>Node12&#45;&gt;Node11</title>
<g id="a_edge18_Node000012_Node000011"><a xlink:title=" ">
<path fill="none" stroke="#63b8ff" d="M179.24,-109.98C159.27,-101.38 128.2,-87.99 105.35,-78.15"/>
<polygon fill="#63b8ff" stroke="#63b8ff" points="106.69,-74.91 96.12,-74.17 103.92,-81.34 106.69,-74.91"/>
</a>
</g>
</g>
<!-- Node13 -->
<g id="Node000013" class="node">
<title>Node13</title>
<g id="a_Node000013"><a xlink:title=" ">
<polygon fill="#e0e0e0" stroke="#999999" points="265.5,-74 218.5,-74 218.5,-55 265.5,-55 265.5,-74"/>
<text text-anchor="middle" x="242" y="-62" font-family="Helvetica,sans-Serif" font-size="10.00">cmath</text>
</a>
</g>
</g>
<!-- Node12&#45;&gt;Node13 -->
<g id="edge16_Node000012_Node000013" class="edge">
<title>Node12&#45;&gt;Node13</title>
<g id="a_edge16_Node000012_Node000013"><a xlink:title=" ">
<path fill="none" stroke="#63b8ff" d="M206.1,-109.75C212.17,-102.26 221.09,-91.28 228.51,-82.13"/>
<polygon fill="#63b8ff" stroke="#63b8ff" points="231.45,-84.06 235.03,-74.09 226.01,-79.65 231.45,-84.06"/>
</a>
</g>
</g>
<!-- Node12&#45;&gt;Node14 -->
<g id="edge19_Node000012_Node000014" class="edge">
<title>Node12&#45;&gt;Node14</title>
<g id="a_edge19_Node000012_Node000014"><a xlink:title=" ">
<path fill="none" stroke="#63b8ff" d="M216.51,-109.98C233.97,-101.5 261.01,-88.35 281.17,-78.54"/>
<polygon fill="#63b8ff" stroke="#63b8ff" points="282.71,-81.69 290.17,-74.17 279.64,-75.4 282.71,-81.69"/>
</a>
</g>
</g>
<!-- Node16 -->
<g id="Node000016" class="node">
<title>Node16</title>
<g id="a_Node000016"><a xlink:title=" ">
<polygon fill="#e0e0e0" stroke="#999999" points="1094,-74 962,-74 962,-55 1094,-55 1094,-74"/>
<text text-anchor="middle" x="1028" y="-62" font-family="Helvetica,sans-Serif" font-size="10.00">tinyformat/tinyformat.h</text>
</a>
</g>
</g>
<!-- Node15&#45;&gt;Node16 -->
<g id="edge21_Node000015_Node000016" class="edge">
<title>Node15&#45;&gt;Node16</title>
<g id="a_edge21_Node000015_Node000016"><a xlink:title=" ">
<path fill="none" stroke="#63b8ff" d="M1039.69,-109.75C1037.83,-102.72 1035.16,-92.62 1032.85,-83.84"/>
<polygon fill="#63b8ff" stroke="#63b8ff" points="1036.21,-82.86 1030.27,-74.09 1029.44,-84.65 1036.21,-82.86"/>
</a>
</g>
</g>
<!-- Node17 -->
<g id="Node000017" class="node">
<title>Node17</title>
<g id="a_Node000017"><a xlink:href="print_8hpp.html" target="_top" xlink:title="Printing helpers for std types.">
<polygon fill="white" stroke="#666666" points="1210,-74 1150,-74 1150,-55 1210,-55 1210,-74"/>
<text text-anchor="middle" x="1180" y="-62" font-family="Helvetica,sans-Serif" font-size="10.00">print.hpp</text>
</a>
</g>
</g>
<!-- Node15&#45;&gt;Node17 -->
<g id="edge22_Node000015_Node000017" class="edge">
<title>Node15&#45;&gt;Node17</title>
<g id="a_edge22_Node000015_Node000017"><a xlink:title=" ">
<path fill="none" stroke="#63b8ff" d="M1064.17,-109.98C1086.77,-101.3 1122.06,-87.75 1147.75,-77.88"/>
<polygon fill="#63b8ff" stroke="#63b8ff" points="1149.34,-81.02 1157.42,-74.17 1146.83,-74.49 1149.34,-81.02"/>
</a>
</g>
</g>
<!-- Node17&#45;&gt;Node4 -->
<g id="edge24_Node000017_Node000004" class="edge">
<title>Node17&#45;&gt;Node4</title>
<g id="a_edge24_Node000017_Node000004"><a xlink:title=" ">
<path fill="none" stroke="#63b8ff" d="M1149.77,-57.23C1145.17,-56.4 1140.47,-55.62 1136,-55 955.83,-29.87 738.02,-16.6 655.7,-12.2"/>
<polygon fill="#63b8ff" stroke="#63b8ff" points="655.84,-8.7 645.67,-11.67 655.47,-15.69 655.84,-8.7"/>
</a>
</g>
</g>
<!-- Node17&#45;&gt;Node7 -->
<g id="edge27_Node000017_Node000007" class="edge">
<title>Node17&#45;&gt;Node7</title>
<g id="a_edge27_Node000017_Node000007"><a xlink:title=" ">
<path fill="none" stroke="#63b8ff" d="M1199.6,-54.98C1219.32,-46.42 1249.95,-33.11 1272.58,-23.28"/>
<polygon fill="#63b8ff" stroke="#63b8ff" points="1274.26,-26.37 1282.04,-19.17 1271.48,-19.94 1274.26,-26.37"/>
</a>
</g>
</g>
<!-- Node17&#45;&gt;Node10 -->
<g id="edge25_Node000017_Node000010" class="edge">
<title>Node17&#45;&gt;Node10</title>
<g id="a_edge25_Node000017_Node000010"><a xlink:title=" ">
<path fill="none" stroke="#63b8ff" d="M1149.68,-59.76C1135.52,-58.11 1118.41,-56.26 1103,-55 792.67,-29.55 415.65,-15.34 306.18,-11.54"/>
<polygon fill="#63b8ff" stroke="#63b8ff" points="306.26,-8.04 296.14,-11.2 306.02,-15.04 306.26,-8.04"/>
</a>
</g>
</g>
<!-- Node18 -->
<g id="Node000018" class="node">
<title>Node18</title>
<g id="a_Node000018"><a xlink:title=" ">
<polygon fill="#e0e0e0" stroke="#999999" points="1466,-19 1406,-19 1406,0 1466,0 1466,-19"/>
<text text-anchor="middle" x="1436" y="-7" font-family="Helvetica,sans-Serif" font-size="10.00">iostream</text>
</a>
</g>
</g>
<!-- Node17&#45;&gt;Node18 -->
<g id="edge23_Node000017_Node000018" class="edge">
<title>Node17&#45;&gt;Node18</title>
<g id="a_edge23_Node000017_Node000018"><a xlink:title=" ">
<path fill="none" stroke="#63b8ff" d="M1210.12,-57.26C1256.24,-47.72 1344.42,-29.46 1395.9,-18.8"/>
<polygon fill="#63b8ff" stroke="#63b8ff" points="1396.91,-22.17 1406,-16.71 1395.49,-15.31 1396.91,-22.17"/>
</a>
</g>
</g>
<!-- Node19 -->
<g id="Node000019" class="node">
<title>Node19</title>
<g id="a_Node000019"><a xlink:title=" ">
<polygon fill="#e0e0e0" stroke="#999999" points="1202.5,-19 1157.5,-19 1157.5,0 1202.5,0 1202.5,-19"/>
<text text-anchor="middle" x="1180" y="-7" font-family="Helvetica,sans-Serif" font-size="10.00">utility</text>
</a>
</g>
</g>
<!-- Node17&#45;&gt;Node19 -->
<g id="edge26_Node000017_Node000019" class="edge">
<title>Node17&#45;&gt;Node19</title>
<g id="a_edge26_Node000017_Node000019"><a xlink:title=" ">
<path fill="none" stroke="#63b8ff" d="M1180,-54.75C1180,-47.8 1180,-37.85 1180,-29.13"/>
<polygon fill="#63b8ff" stroke="#63b8ff" points="1183.5,-29.09 1180,-19.09 1176.5,-29.09 1183.5,-29.09"/>
</a>
</g>
</g>
<!-- Node20&#45;&gt;Node3 -->
<g id="edge30_Node000020_Node000003" class="edge">
<title>Node20&#45;&gt;Node3</title>
<g id="a_edge30_Node000020_Node000003"><a xlink:title=" ">
<path fill="none" stroke="#63b8ff" d="M366.69,-230.95C395.21,-224.25 431.54,-212.98 460,-195 508.17,-164.56 549.96,-110.41 569.4,-82.77"/>
<polygon fill="#63b8ff" stroke="#63b8ff" points="572.52,-84.4 575.32,-74.18 566.76,-80.43 572.52,-84.4"/>
</a>
</g>
</g>
<!-- Node20&#45;&gt;Node9 -->
<g id="edge33_Node000020_Node000009" class="edge">
<title>Node20&#45;&gt;Node9</title>
<g id="a_edge33_Node000020_Node000009"><a xlink:title=" ">
<path fill="none" stroke="#63b8ff" d="M331.36,-230.87C343.42,-221.71 362.7,-207.06 377.25,-196.01"/>
<polygon fill="#63b8ff" stroke="#63b8ff" points="379.75,-198.5 385.59,-189.67 375.51,-192.93 379.75,-198.5"/>
</a>
</g>
</g>
<!-- Node20&#45;&gt;Node10 -->
<g id="edge32_Node000020_Node000010" class="edge">
<title>Node20&#45;&gt;Node10</title>
<g id="a_edge32_Node000020_Node000010"><a xlink:title=" ">
<path fill="none" stroke="#63b8ff" d="M274.78,-230.94C204.58,-214.77 73.16,-172.11 32,-74 28.73,-66.21 26.59,-61.49 32,-55 58.56,-23.13 183.75,-14.02 243.33,-11.46"/>
<polygon fill="#63b8ff" stroke="#63b8ff" points="243.8,-14.95 253.66,-11.06 243.53,-7.95 243.8,-14.95"/>
</a>
</g>
</g>
<!-- Node20&#45;&gt;Node14 -->
<g id="edge31_Node000020_Node000014" class="edge">
<title>Node20&#45;&gt;Node14</title>
<g id="a_edge31_Node000020_Node000014"><a xlink:title=" ">
<path fill="none" stroke="#63b8ff" d="M319.39,-230.63C317.52,-203.52 311.85,-121.32 309.28,-84.13"/>
<polygon fill="#63b8ff" stroke="#63b8ff" points="312.78,-83.88 308.6,-74.14 305.79,-84.36 312.78,-83.88"/>
</a>
</g>
</g>
<!-- Node21&#45;&gt;Node3 -->
<g id="edge37_Node000021_Node000003" class="edge">
<title>Node21&#45;&gt;Node3</title>
<g id="a_edge37_Node000021_Node000003"><a xlink:title=" ">
<path fill="none" stroke="#63b8ff" d="M754.27,-230.92C771.84,-224.21 792.52,-212.94 803,-195 822.69,-161.31 810.73,-135.28 781,-110 760.84,-92.86 696.58,-80.62 646.28,-73.36"/>
<polygon fill="#63b8ff" stroke="#63b8ff" points="646.49,-69.86 636.1,-71.94 645.52,-76.79 646.49,-69.86"/>
</a>
</g>
</g>
<!-- Node21&#45;&gt;Node7 -->
<g id="edge54_Node000021_Node000007" class="edge">
<title>Node21&#45;&gt;Node7</title>
<g id="a_edge54_Node000021_Node000007"><a xlink:title=" ">
<path fill="none" stroke="#63b8ff" d="M788.28,-238.1C851.79,-234.9 950.8,-225 1031,-195 1139,-154.61 1245.78,-62.6 1285.64,-25.97"/>
<polygon fill="#63b8ff" stroke="#63b8ff" points="1288.16,-28.4 1293.1,-19.03 1283.39,-23.27 1288.16,-28.4"/>
</a>
</g>
</g>
<!-- Node21&#45;&gt;Node9 -->
<g id="edge52_Node000021_Node000009" class="edge">
<title>Node21&#45;&gt;Node9</title>
<g id="a_edge52_Node000021_Node000009"><a xlink:title=" ">
<path fill="none" stroke="#63b8ff" d="M676.45,-230.99C617.72,-220.49 517.88,-202.62 454.79,-191.34"/>
<polygon fill="#63b8ff" stroke="#63b8ff" points="455.07,-187.83 444.61,-189.52 453.83,-194.72 455.07,-187.83"/>
</a>
</g>
</g>
<!-- Node21&#45;&gt;Node11 -->
<g id="edge55_Node000021_Node000011" class="edge">
<title>Node21&#45;&gt;Node11</title>
<g id="a_edge55_Node000021_Node000011"><a xlink:title=" ">
<path fill="none" stroke="#63b8ff" d="M659.87,-236.08C519.08,-227.33 188.92,-199.64 106,-129 92.39,-117.41 84.53,-98.26 80.3,-84.02"/>
<polygon fill="#63b8ff" stroke="#63b8ff" points="83.67,-83.07 77.73,-74.29 76.9,-84.85 83.67,-83.07"/>
</a>
</g>
</g>
<!-- Node21&#45;&gt;Node14 -->
<g id="edge53_Node000021_Node000014" class="edge">
<title>Node21&#45;&gt;Node14</title>
<g id="a_edge53_Node000021_Node000014"><a xlink:title=" ">
<path fill="none" stroke="#63b8ff" d="M703.65,-230.99C636.07,-202.72 418.82,-111.85 338.35,-78.19"/>
<polygon fill="#63b8ff" stroke="#63b8ff" points="339.37,-74.83 328.8,-74.2 336.67,-81.29 339.37,-74.83"/>
</a>
</g>
</g>
<!-- Node22 -->
<g id="Node000022" class="node">
<title>Node22</title>
<g id="a_Node000022"><a xlink:href="Range__fwd_8hpp.html" target="_top" xlink:title="Declaration of Range.">
<polygon fill="white" stroke="#666666" points="794,-195 654,-195 654,-165 794,-165 794,-195"/>
<text text-anchor="start" x="662" y="-183" font-family="Helvetica,sans-Serif" font-size="10.00">medusa/bits/types/Range</text>
<text text-anchor="middle" x="724" y="-172" font-family="Helvetica,sans-Serif" font-size="10.00">_fwd.hpp</text>
</a>
</g>
</g>
<!-- Node21&#45;&gt;Node22 -->
<g id="edge38_Node000021_Node000022" class="edge">
<title>Node21&#45;&gt;Node22</title>
<g id="a_edge38_Node000021_Node000022"><a xlink:title=" ">
<path fill="none" stroke="#63b8ff" d="M724,-230.87C724,-224.11 724,-214.35 724,-205.26"/>
<polygon fill="#63b8ff" stroke="#63b8ff" points="727.5,-205.11 724,-195.11 720.5,-205.11 727.5,-205.11"/>
</a>
</g>
</g>
<!-- Node25 -->
<g id="Node000025" class="node">
<title>Node25</title>
<g id="a_Node000025"><a xlink:href="stdtypesutils_8hpp.html" target="_top" xlink:title="Declaration of utilities for std types.">
<polygon fill="white" stroke="#666666" points="1338,-189.5 1150,-189.5 1150,-170.5 1338,-170.5 1338,-189.5"/>
<text text-anchor="middle" x="1244" y="-177.5" font-family="Helvetica,sans-Serif" font-size="10.00">medusa/bits/utils/stdtypesutils.hpp</text>
</a>
</g>
</g>
<!-- Node21&#45;&gt;Node25 -->
<g id="edge45_Node000021_Node000025" class="edge">
<title>Node21&#45;&gt;Node25</title>
<g id="a_edge45_Node000021_Node000025"><a xlink:title=" ">
<path fill="none" stroke="#63b8ff" d="M788.28,-232.99C869.38,-224.67 1013.12,-209.6 1136,-195 1147.04,-193.69 1158.7,-192.24 1170.12,-190.79"/>
<polygon fill="#63b8ff" stroke="#63b8ff" points="1170.59,-194.26 1180.07,-189.52 1169.7,-187.31 1170.59,-194.26"/>
</a>
</g>
</g>
<!-- Node22&#45;&gt;Node3 -->
<g id="edge39_Node000022_Node000003" class="edge">
<title>Node22&#45;&gt;Node3</title>
<g id="a_edge39_Node000022_Node000003"><a xlink:title=" ">
<path fill="none" stroke="#63b8ff" d="M742.13,-164.79C758.4,-150.3 777.78,-127.53 764,-110 749.36,-91.38 692.69,-79.58 646.24,-72.85"/>
<polygon fill="#63b8ff" stroke="#63b8ff" points="646.59,-69.36 636.2,-71.45 645.62,-76.3 646.59,-69.36"/>
</a>
</g>
</g>
<!-- Node22&#45;&gt;Node4 -->
<g id="edge43_Node000022_Node000004" class="edge">
<title>Node22&#45;&gt;Node4</title>
<g id="a_edge43_Node000022_Node000004"><a xlink:title=" ">
<path fill="none" stroke="#63b8ff" d="M710.94,-164.76C702.42,-155.08 691.37,-141.77 683,-129 662.72,-98.09 661.93,-87.87 645,-55 640.41,-46.1 635.3,-36.2 631.06,-28"/>
<polygon fill="#63b8ff" stroke="#63b8ff" points="634.12,-26.3 626.42,-19.03 627.9,-29.52 634.12,-26.3"/>
</a>
</g>
</g>
<!-- Node22&#45;&gt;Node14 -->
<g id="edge44_Node000022_Node000014" class="edge">
<title>Node22&#45;&gt;Node14</title>
<g id="a_edge44_Node000022_Node000014"><a xlink:title=" ">
<path fill="none" stroke="#63b8ff" d="M672.57,-164.97C586.38,-141.45 415.04,-94.71 342.13,-74.81"/>
<polygon fill="#63b8ff" stroke="#63b8ff" points="342.68,-71.33 332.11,-72.08 340.83,-78.09 342.68,-71.33"/>
</a>
</g>
</g>
<!-- Node22&#45;&gt;Node15 -->
<g id="edge40_Node000022_Node000015" class="edge">
<title>Node22&#45;&gt;Node15</title>
<g id="a_edge40_Node000022_Node000015"><a xlink:title=" ">
<path fill="none" stroke="#63b8ff" d="M794.18,-166.09C851.74,-155.5 932.18,-140.7 985.61,-130.87"/>
<polygon fill="#63b8ff" stroke="#63b8ff" points="986.39,-134.29 995.59,-129.04 985.13,-127.4 986.39,-134.29"/>
</a>
</g>
</g>
<!-- Node23 -->
<g id="Node000023" class="node">
<title>Node23</title>
<g id="a_Node000023"><a xlink:href="traits_8hpp.html" target="_top" xlink:title="Type traits definition for vector and scalar fields.">
<polygon fill="white" stroke="#666666" points="755.5,-129 692.5,-129 692.5,-110 755.5,-110 755.5,-129"/>
<text text-anchor="middle" x="724" y="-117" font-family="Helvetica,sans-Serif" font-size="10.00">traits.hpp</text>
</a>
</g>
</g>
<!-- Node22&#45;&gt;Node23 -->
<g id="edge41_Node000022_Node000023" class="edge">
<title>Node22&#45;&gt;Node23</title>
<g id="a_edge41_Node000022_Node000023"><a xlink:title=" ">
<path fill="none" stroke="#63b8ff" d="M724,-164.84C724,-157.21 724,-147.7 724,-139.45"/>
<polygon fill="#63b8ff" stroke="#63b8ff" points="727.5,-139.27 724,-129.27 720.5,-139.27 727.5,-139.27"/>
</a>
</g>
</g>
<!-- Node24 -->
<g id="Node000024" class="node">
<title>Node24</title>
<g id="a_Node000024"><a xlink:title=" ">
<polygon fill="#e0e0e0" stroke="#999999" points="908,-129 850,-129 850,-110 908,-110 908,-129"/>
<text text-anchor="middle" x="879" y="-117" font-family="Helvetica,sans-Serif" font-size="10.00">memory</text>
</a>
</g>
</g>
<!-- Node22&#45;&gt;Node24 -->
<g id="edge42_Node000022_Node000024" class="edge">
<title>Node22&#45;&gt;Node24</title>
<g id="a_edge42_Node000022_Node000024"><a xlink:title=" ">
<path fill="none" stroke="#63b8ff" d="M761.13,-164.99C787.22,-155.14 821.78,-142.1 846.73,-132.68"/>
<polygon fill="#63b8ff" stroke="#63b8ff" points="847.99,-135.94 856.11,-129.14 845.52,-129.4 847.99,-135.94"/>
</a>
</g>
</g>
<!-- Node25&#45;&gt;Node3 -->
<g id="edge46_Node000025_Node000003" class="edge">
<title>Node25&#45;&gt;Node3</title>
<g id="a_edge46_Node000025_Node000003"><a xlink:title=" ">
<path fill="none" stroke="#63b8ff" d="M1233.41,-170.3C1214.06,-154.98 1171.12,-123.53 1129,-110 1040.82,-81.68 771.47,-70.73 646.26,-67.08"/>
<polygon fill="#63b8ff" stroke="#63b8ff" points="646.14,-63.58 636.05,-66.79 645.95,-70.57 646.14,-63.58"/>
</a>
</g>
</g>
<!-- Node25&#45;&gt;Node4 -->
<g id="edge49_Node000025_Node000004" class="edge">
<title>Node25&#45;&gt;Node4</title>
<g id="a_edge49_Node000025_Node000004"><a xlink:title=" ">
<path fill="none" stroke="#63b8ff" d="M1237.56,-170.39C1219.43,-146.92 1165.27,-81.83 1103,-55 1022.35,-20.25 751.74,-12.58 655.96,-10.93"/>
<polygon fill="#63b8ff" stroke="#63b8ff" points="655.74,-7.43 645.68,-10.77 655.62,-14.43 655.74,-7.43"/>
</a>
</g>
</g>
<!-- Node25&#45;&gt;Node6 -->
<g id="edge48_Node000025_Node000006" class="edge">
<title>Node25&#45;&gt;Node6</title>
<g id="a_edge48_Node000025_Node000006"><a xlink:title=" ">
<path fill="none" stroke="#63b8ff" d="M1266.68,-170.49C1293.41,-160.47 1337.98,-143.76 1368.16,-132.44"/>
<polygon fill="#63b8ff" stroke="#63b8ff" points="1369.66,-135.62 1377.79,-128.83 1367.2,-129.06 1369.66,-135.62"/>
</a>
</g>
</g>
<!-- Node25&#45;&gt;Node7 -->
<g id="edge50_Node000025_Node000007" class="edge">
<title>Node25&#45;&gt;Node7</title>
<g id="a_edge50_Node000025_Node000007"><a xlink:title=" ">
<path fill="none" stroke="#63b8ff" d="M1274.31,-170.35C1294.27,-162.9 1318.87,-149.96 1331,-129 1349.92,-96.31 1328.41,-51.66 1313.61,-27.58"/>
<polygon fill="#63b8ff" stroke="#63b8ff" points="1316.54,-25.66 1308.19,-19.15 1310.66,-29.45 1316.54,-25.66"/>
</a>
</g>
</g>
<!-- Node25&#45;&gt;Node15 -->
<g id="edge47_Node000025_Node000015" class="edge">
<title>Node25&#45;&gt;Node15</title>
<g id="a_edge47_Node000025_Node000015"><a xlink:title=" ">
<path fill="none" stroke="#63b8ff" d="M1214.63,-170.49C1179.4,-160.29 1120.21,-143.15 1081.13,-131.83"/>
<polygon fill="#63b8ff" stroke="#63b8ff" points="1081.99,-128.44 1071.41,-129.02 1080.04,-135.16 1081.99,-128.44"/>
</a>
</g>
</g>
<!-- Node26 -->
<g id="Node000026" class="node">
<title>Node26</title>
<g id="a_Node000026"><a xlink:title=" ">
<polygon fill="#e0e0e0" stroke="#999999" points="1321.5,-129 1252.5,-129 1252.5,-110 1321.5,-110 1321.5,-129"/>
<text text-anchor="middle" x="1287" y="-117" font-family="Helvetica,sans-Serif" font-size="10.00">type_traits</text>
</a>
</g>
</g>
<!-- Node25&#45;&gt;Node26 -->
<g id="edge51_Node000025_Node000026" class="edge">
<title>Node25&#45;&gt;Node26</title>
<g id="a_edge51_Node000025_Node000026"><a xlink:title=" ">
<path fill="none" stroke="#63b8ff" d="M1250.34,-170.37C1256.7,-161.73 1266.64,-148.2 1274.57,-137.42"/>
<polygon fill="#63b8ff" stroke="#63b8ff" points="1277.53,-139.3 1280.63,-129.17 1271.89,-135.15 1277.53,-139.3"/>
</a>
</g>
</g>
<!-- Node27&#45;&gt;Node21 -->
<g id="edge57_Node000027_Node000021" class="edge">
<title>Node27&#45;&gt;Node21</title>
<g id="a_edge57_Node000027_Node000021"><a xlink:title=" ">
<path fill="none" stroke="#63b8ff" d="M960.57,-483.86C924.93,-447.35 786.39,-305.42 739.57,-257.45"/>
<polygon fill="#63b8ff" stroke="#63b8ff" points="741.89,-254.81 732.4,-250.1 736.88,-259.7 741.89,-254.81"/>
</a>
</g>
</g>
<!-- Node27&#45;&gt;Node28 -->
<g id="edge58_Node000027_Node000028" class="edge">
<title>Node27&#45;&gt;Node28</title>
<g id="a_edge58_Node000027_Node000028"><a xlink:title=" ">
<path fill="none" stroke="#63b8ff" d="M1000.99,-483.99C1039.6,-473.73 1104.64,-456.43 1147.2,-445.12"/>
<polygon fill="#63b8ff" stroke="#63b8ff" points="1148.21,-448.47 1156.97,-442.52 1146.41,-441.7 1148.21,-448.47"/>
</a>
</g>
</g>
<!-- Node28&#45;&gt;Node5 -->
<g id="edge59_Node000028_Node000005" class="edge">
<title>Node28&#45;&gt;Node5</title>
<g id="a_edge59_Node000028_Node000005"><a xlink:title=" ">
<path fill="none" stroke="#63b8ff" d="M1189,-423.37C1189,-415.49 1189,-403.45 1189,-392.6"/>
<polygon fill="#63b8ff" stroke="#63b8ff" points="1192.5,-392.36 1189,-382.36 1185.5,-392.36 1192.5,-392.36"/>
</a>
</g>
</g>
<!-- Node28&#45;&gt;Node18 -->
<g id="edge60_Node000028_Node000018" class="edge">
<title>Node28&#45;&gt;Node18</title>
<g id="a_edge60_Node000028_Node000018"><a xlink:title=" ">
<path fill="none" stroke="#63b8ff" d="M1236.71,-432.03C1321.12,-429.32 1488,-410.25 1488,-302 1488,-302 1488,-302 1488,-118.5 1488,-83.15 1465.11,-47.16 1449.7,-26.95"/>
<polygon fill="#63b8ff" stroke="#63b8ff" points="1452.4,-24.73 1443.45,-19.06 1446.92,-29.07 1452.4,-24.73"/>
</a>
</g>
</g>
<!-- Node29 -->
<g id="Node000029" class="node">
<title>Node29</title>
<g id="a_Node000029"><a xlink:href="memutils_8hpp.html" target="_top" xlink:title="Declaration of memory related utilities.">
<polygon fill="white" stroke="#666666" points="1021.5,-189.5 850.5,-189.5 850.5,-170.5 1021.5,-170.5 1021.5,-189.5"/>
<text text-anchor="middle" x="936" y="-177.5" font-family="Helvetica,sans-Serif" font-size="10.00">medusa/bits/utils/memutils.hpp</text>
</a>
</g>
</g>
<!-- Node28&#45;&gt;Node29 -->
<g id="edge61_Node000028_Node000029" class="edge">
<title>Node28&#45;&gt;Node29</title>
<g id="a_edge61_Node000028_Node000029"><a xlink:title=" ">
<path fill="none" stroke="#63b8ff" d="M1211.06,-423.47C1228.13,-415.55 1250.56,-401.96 1261,-382 1267.18,-370.19 1267.89,-363.41 1261,-352 1202.26,-254.71 1067.76,-210 991.47,-191.82"/>
<polygon fill="#63b8ff" stroke="#63b8ff" points="992.09,-188.37 981.56,-189.53 990.52,-195.19 992.09,-188.37"/>
</a>
</g>
</g>
<!-- Node29&#45;&gt;Node3 -->
<g id="edge63_Node000029_Node000003" class="edge">
<title>Node29&#45;&gt;Node3</title>
<g id="a_edge63_Node000029_Node000003"><a xlink:title=" ">
<path fill="none" stroke="#63b8ff" d="M936.42,-170.23C936.6,-155.37 934.61,-125.35 917,-110 877.78,-75.82 732.46,-67.63 646.3,-65.83"/>
<polygon fill="#63b8ff" stroke="#63b8ff" points="646.16,-62.33 636.1,-65.64 646.03,-69.32 646.16,-62.33"/>
</a>
</g>
</g>
<!-- Node29&#45;&gt;Node15 -->
<g id="edge64_Node000029_Node000015" class="edge">
<title>Node29&#45;&gt;Node15</title>
<g id="a_edge64_Node000029_Node000015"><a xlink:title=" ">
<path fill="none" stroke="#63b8ff" d="M951.64,-170.37C968.94,-160.82 997.05,-145.31 1017.33,-134.12"/>
<polygon fill="#63b8ff" stroke="#63b8ff" points="1019.23,-137.06 1026.3,-129.17 1015.85,-130.93 1019.23,-137.06"/>
</a>
</g>
</g>
<!-- Node29&#45;&gt;Node24 -->
<g id="edge62_Node000029_Node000024" class="edge">
<title>Node29&#45;&gt;Node24</title>
<g id="a_edge62_Node000029_Node000024"><a xlink:title=" ">
<path fill="none" stroke="#63b8ff" d="M927.59,-170.37C918.92,-161.47 905.2,-147.39 894.54,-136.45"/>
<polygon fill="#63b8ff" stroke="#63b8ff" points="896.93,-133.89 887.45,-129.17 891.92,-138.77 896.93,-133.89"/>
</a>
</g>
</g>
</g>
</svg>
