<?xml version="1.0" encoding="UTF-8" standalone="no"?>
<!DOCTYPE svg PUBLIC "-//W3C//DTD SVG 1.1//EN"
 "http://www.w3.org/Graphics/SVG/1.1/DTD/svg11.dtd">
<!-- Generated by graphviz version 2.43.0 (0)
 -->
<!-- Title: include/medusa/Utils.hpp Pages: 1 -->
<!--zoomable 357 -->

<svg id="main" version="1.1" xmlns="http://www.w3.org/2000/svg" xmlns:xlink="http://www.w3.org/1999/xlink" xml:space="preserve" onload="init(evt)">
<style type="text/css"><![CDATA[
.node, .edge {opacity: 0.7;}
.node.selected, .edge.selected {opacity: 1;}
.edge:hover path { stroke: red; }
.edge:hover polygon { stroke: red; fill: red; }
]]></style>

<defs>
  <circle id="rim" cx="0" cy="0" r="7"/>
  <circle id="rim2" cx="0" cy="0" r="3.5"/>
  <g id="zoomPlus">
    <use xlink:href="#rim" fill="#404040"><set attributeName="fill" to="#808080" begin="zoomplus.mouseover" end="zoomplus.mouseout"/></use>
    <path d="M-4,0h8M0,-4v8" fill="none" stroke="white" stroke-width="1.5" pointer-events="none"/>
  </g>
  <g id="zoomMin">
    <use xlink:href="#rim" fill="#404040"><set attributeName="fill" to="#808080" begin="zoomminus.mouseover" end="zoomminus.mouseout"/></use>
    <path d="M-4,0h8" fill="none" stroke="white" stroke-width="1.5" pointer-events="none"/>
  </g>
  <g id="arrowUp" transform="translate(30 24)">
    <use xlink:href="#rim"/>
    <path pointer-events="none" fill="none" stroke="white" stroke-width="1.5" d="M0,-3.0v7 M-2.5,-0.5L0,-3.0L2.5,-0.5"/>
  </g>
  <g id="arrowRight" transform="rotate(90) translate(36 -43)">
    <use xlink:href="#rim"/>
    <path pointer-events="none" fill="none" stroke="white" stroke-width="1.5" d="M0,-3.0v7 M-2.5,-0.5L0,-3.0L2.5,-0.5"/>
  </g>
  <g id="arrowDown" transform="rotate(180) translate(-30 -48)">
    <use xlink:href="#rim"/>
    <path pointer-events="none" fill="none" stroke="white" stroke-width="1.5" d="M0,-3.0v7 M-2.5,-0.5L0,-3.0L2.5,-0.5"/>
  </g>
  <g id="arrowLeft" transform="rotate(270) translate(-36 17)">
    <use xlink:href="#rim"/>
    <path pointer-events="none" fill="none" stroke="white" stroke-width="1.5" d="M0,-3.0v7 M-2.5,-0.5L0,-3.0L2.5,-0.5"/>
  </g>
  <g id="resetDef">
    <use xlink:href="#rim2" fill="#404040"><set attributeName="fill" to="#808080" begin="reset.mouseover" end="reset.mouseout"/></use>
  </g>
</defs>
<script type="application/ecmascript">
var viewWidth = 1235;
var viewHeight = 357;
var sectionId = 'dynsection-0';
</script>
<script type="application/ecmascript" xlink:href="svg.min.js"/>
<svg id="graph" class="graph">
<g id="viewport">
<title>include/medusa/Utils.hpp</title>
<!-- Node1 -->
<g id="Node000001" class="node">
<title>Node1</title>
<g id="a_Node000001"><a xlink:title="Header for Utils module.">
<polygon fill="#999999" stroke="#666666" points="740,-349 600,-349 600,-330 740,-330 740,-349"/>
<text text-anchor="middle" x="670" y="-337" font-family="Helvetica,sans-Serif" font-size="10.00">include/medusa/Utils.hpp</text>
</a>
</g>
</g>
<!-- Node2 -->
<g id="Node000002" class="node">
<title>Node2</title>
<g id="a_Node000002"><a xlink:href="Config_8hpp.html" target="_top" xlink:title="Contains compile time settings for the project, such as Eigen plugins.">
<polygon fill="white" stroke="#666666" points="580,-129 512,-129 512,-110 580,-110 580,-129"/>
<text text-anchor="middle" x="546" y="-117" font-family="Helvetica,sans-Serif" font-size="10.00">Config.hpp</text>
</a>
</g>
</g>
<!-- Node1&#45;&gt;Node2 -->
<g id="edge1_Node000001_Node000002" class="edge">
<title>Node1&#45;&gt;Node2</title>
<g id="a_edge1_Node000001_Node000002"><a xlink:title=" ">
<path fill="none" stroke="#63b8ff" d="M609.18,-329.97C556,-318.95 481.83,-294.12 446,-239 441.4,-231.92 442.76,-227.8 446,-220 454.53,-199.49 501.16,-158.1 527.63,-135.71"/>
<polygon fill="#63b8ff" stroke="#63b8ff" points="530.03,-138.27 535.44,-129.16 525.53,-132.9 530.03,-138.27"/>
</a>
</g>
</g>
<!-- Node4 -->
<g id="Node000004" class="node">
<title>Node4</title>
<g id="a_Node000004"><a xlink:href="Stopwatch_8hpp.html" target="_top" xlink:title="Declaration of Stopwatch.">
<polygon fill="white" stroke="#666666" points="134,-184 0,-184 0,-165 134,-165 134,-184"/>
<text text-anchor="middle" x="67" y="-172" font-family="Helvetica,sans-Serif" font-size="10.00">bits/utils/Stopwatch.hpp</text>
</a>
</g>
</g>
<!-- Node1&#45;&gt;Node4 -->
<g id="edge3_Node000001_Node000004" class="edge">
<title>Node1&#45;&gt;Node4</title>
<g id="a_edge3_Node000001_Node000004"><a xlink:title=" ">
<path fill="none" stroke="#63b8ff" d="M599.69,-333.49C535.59,-327.75 438.72,-316.14 357,-294 255.86,-266.6 142.71,-213.33 92.9,-188.64"/>
<polygon fill="#63b8ff" stroke="#63b8ff" points="94.32,-185.44 83.81,-184.1 91.19,-191.7 94.32,-185.44"/>
</a>
</g>
</g>
<!-- Node8 -->
<g id="Node000008" class="node">
<title>Node8</title>
<g id="a_Node000008"><a xlink:href="Timer_8hpp.html" target="_top" xlink:title="Timer class declarations.">
<polygon fill="white" stroke="#666666" points="300,-184 190,-184 190,-165 300,-165 300,-184"/>
<text text-anchor="middle" x="245" y="-172" font-family="Helvetica,sans-Serif" font-size="10.00">bits/utils/Timer.hpp</text>
</a>
</g>
</g>
<!-- Node1&#45;&gt;Node8 -->
<g id="edge9_Node000001_Node000008" class="edge">
<title>Node1&#45;&gt;Node8</title>
<g id="a_edge9_Node000001_Node000008"><a xlink:title=" ">
<path fill="none" stroke="#63b8ff" d="M599.75,-336.95C542.24,-333.43 459.93,-323.12 394,-294 337.8,-269.18 284.66,-217.93 259.76,-191.71"/>
<polygon fill="#63b8ff" stroke="#63b8ff" points="262.08,-189.07 252.7,-184.15 256.97,-193.85 262.08,-189.07"/>
</a>
</g>
</g>
<!-- Node10 -->
<g id="Node000010" class="node">
<title>Node10</title>
<g id="a_Node000010"><a xlink:href="assert_8hpp.html" target="_top" xlink:title="Implementation of custom assert and debug utilities.">
<polygon fill="white" stroke="#666666" points="1099.5,-129 986.5,-129 986.5,-110 1099.5,-110 1099.5,-129"/>
<text text-anchor="middle" x="1043" y="-117" font-family="Helvetica,sans-Serif" font-size="10.00">bits/utils/assert.hpp</text>
</a>
</g>
</g>
<!-- Node1&#45;&gt;Node10 -->
<g id="edge15_Node000001_Node000010" class="edge">
<title>Node1&#45;&gt;Node10</title>
<g id="a_edge15_Node000001_Node000010"><a xlink:title=" ">
<path fill="none" stroke="#63b8ff" d="M740.04,-335.62C865.27,-328.79 1119.25,-306.73 1170,-239 1203.24,-194.64 1123.25,-152.88 1075.51,-132.86"/>
<polygon fill="#63b8ff" stroke="#63b8ff" points="1076.73,-129.58 1066.15,-129.04 1074.09,-136.06 1076.73,-129.58"/>
</a>
</g>
</g>
<!-- Node12 -->
<g id="Node000012" class="node">
<title>Node12</title>
<g id="a_Node000012"><a xlink:href="print_8hpp.html" target="_top" xlink:title="Printing helpers for std types.">
<polygon fill="white" stroke="#666666" points="1061,-74 1001,-74 1001,-55 1061,-55 1061,-74"/>
<text text-anchor="middle" x="1031" y="-62" font-family="Helvetica,sans-Serif" font-size="10.00">print.hpp</text>
</a>
</g>
</g>
<!-- Node1&#45;&gt;Node12 -->
<g id="edge44_Node000001_Node000012" class="edge">
<title>Node1&#45;&gt;Node12</title>
<g id="a_edge44_Node000001_Node000012"><a xlink:title=" ">
<path fill="none" stroke="#63b8ff" d="M740.26,-339.4C890,-339.42 1227,-328.57 1227,-230.5 1227,-230.5 1227,-230.5 1227,-173.5 1227,-103.09 1128.78,-78.25 1071.4,-69.74"/>
<polygon fill="#63b8ff" stroke="#63b8ff" points="1071.58,-66.23 1061.2,-68.33 1070.62,-73.17 1071.58,-66.23"/>
</a>
</g>
</g>
<!-- Node16 -->
<g id="Node000016" class="node">
<title>Node16</title>
<g id="a_Node000016"><a xlink:href="memutils_8hpp.html" target="_top" xlink:title="Declaration of memory related utilities.">
<polygon fill="white" stroke="#666666" points="820.5,-184 691.5,-184 691.5,-165 820.5,-165 820.5,-184"/>
<text text-anchor="middle" x="756" y="-172" font-family="Helvetica,sans-Serif" font-size="10.00">bits/utils/memutils.hpp</text>
</a>
</g>
</g>
<!-- Node1&#45;&gt;Node16 -->
<g id="edge23_Node000001_Node000016" class="edge">
<title>Node1&#45;&gt;Node16</title>
<g id="a_edge23_Node000001_Node000016"><a xlink:title=" ">
<path fill="none" stroke="#63b8ff" d="M693.38,-329.93C709.54,-322.79 730.18,-311.01 742,-294 762.81,-264.05 761.62,-219.26 758.85,-194.2"/>
<polygon fill="#63b8ff" stroke="#63b8ff" points="762.31,-193.65 757.53,-184.19 755.37,-194.56 762.31,-193.65"/>
</a>
</g>
</g>
<!-- Node18 -->
<g id="Node000018" class="node">
<title>Node18</title>
<g id="a_Node000018"><a xlink:href="numutils_8hpp.html" target="_top" xlink:title="Declaration of numerical utilities.">
<polygon fill="white" stroke="#666666" points="732.5,-294 607.5,-294 607.5,-275 732.5,-275 732.5,-294"/>
<text text-anchor="middle" x="670" y="-282" font-family="Helvetica,sans-Serif" font-size="10.00">bits/utils/numutils.hpp</text>
</a>
</g>
</g>
<!-- Node1&#45;&gt;Node18 -->
<g id="edge27_Node000001_Node000018" class="edge">
<title>Node1&#45;&gt;Node18</title>
<g id="a_edge27_Node000001_Node000018"><a xlink:title=" ">
<path fill="none" stroke="#63b8ff" d="M670,-329.75C670,-322.8 670,-312.85 670,-304.13"/>
<polygon fill="#63b8ff" stroke="#63b8ff" points="673.5,-304.09 670,-294.09 666.5,-304.09 673.5,-304.09"/>
</a>
</g>
</g>
<!-- Node28 -->
<g id="Node000028" class="node">
<title>Node28</title>
<g id="a_Node000028"><a xlink:href="randutils_8hpp.html" target="_top" xlink:title="Utilities for randomization.">
<polygon fill="white" stroke="#666666" points="972.5,-294 847.5,-294 847.5,-275 972.5,-275 972.5,-294"/>
<text text-anchor="middle" x="910" y="-282" font-family="Helvetica,sans-Serif" font-size="10.00">bits/utils/randutils.hpp</text>
</a>
</g>
</g>
<!-- Node1&#45;&gt;Node28 -->
<g id="edge45_Node000001_Node000028" class="edge">
<title>Node1&#45;&gt;Node28</title>
<g id="a_edge45_Node000001_Node000028"><a xlink:title=" ">
<path fill="none" stroke="#63b8ff" d="M708.56,-329.98C750.07,-320.82 816.21,-306.21 861.29,-296.26"/>
<polygon fill="#63b8ff" stroke="#63b8ff" points="862.13,-299.66 871.14,-294.08 860.62,-292.82 862.13,-299.66"/>
</a>
</g>
</g>
<!-- Node30 -->
<g id="Node000030" class="node">
<title>Node30</title>
<g id="a_Node000030"><a xlink:href="stdtypesutils_8hpp.html" target="_top" xlink:title="Declaration of utilities for std types.">
<polygon fill="white" stroke="#666666" points="464,-184 318,-184 318,-165 464,-165 464,-184"/>
<text text-anchor="middle" x="391" y="-172" font-family="Helvetica,sans-Serif" font-size="10.00">bits/utils/stdtypesutils.hpp</text>
</a>
</g>
</g>
<!-- Node1&#45;&gt;Node30 -->
<g id="edge51_Node000001_Node000030" class="edge">
<title>Node1&#45;&gt;Node30</title>
<g id="a_edge51_Node000001_Node000030"><a xlink:title=" ">
<path fill="none" stroke="#63b8ff" d="M599.87,-335.29C532.7,-330.69 437.85,-319.73 412,-294 385.56,-267.68 385.79,-220.42 388.34,-194.24"/>
<polygon fill="#63b8ff" stroke="#63b8ff" points="391.84,-194.48 389.55,-184.14 384.89,-193.65 391.84,-194.48"/>
</a>
</g>
</g>
<!-- Node3 -->
<g id="Node000003" class="node">
<title>Node3</title>
<g id="a_Node000003"><a xlink:title=" ">
<polygon fill="#e0e0e0" stroke="#999999" points="425.5,-19 378.5,-19 378.5,0 425.5,0 425.5,-19"/>
<text text-anchor="middle" x="402" y="-7" font-family="Helvetica,sans-Serif" font-size="10.00">vector</text>
</a>
</g>
</g>
<!-- Node2&#45;&gt;Node3 -->
<g id="edge2_Node000002_Node000003" class="edge">
<title>Node2&#45;&gt;Node3</title>
<g id="a_edge2_Node000002_Node000003"><a xlink:title=" ">
<path fill="none" stroke="#63b8ff" d="M534.22,-109.66C509.52,-91.14 452.1,-48.08 421.7,-25.28"/>
<polygon fill="#63b8ff" stroke="#63b8ff" points="423.64,-22.36 413.54,-19.16 419.44,-27.96 423.64,-22.36"/>
</a>
</g>
</g>
<!-- Node4&#45;&gt;Node2 -->
<g id="edge4_Node000004_Node000002" class="edge">
<title>Node4&#45;&gt;Node2</title>
<g id="a_edge4_Node000004_Node000002"><a xlink:title=" ">
<path fill="none" stroke="#63b8ff" d="M134.11,-166.07C233.59,-155.07 417.5,-134.72 501.75,-125.4"/>
<polygon fill="#63b8ff" stroke="#63b8ff" points="502.21,-128.87 511.76,-124.29 501.44,-121.91 502.21,-128.87"/>
</a>
</g>
</g>
<!-- Node4&#45;&gt;Node3 -->
<g id="edge5_Node000004_Node000003" class="edge">
<title>Node4&#45;&gt;Node3</title>
<g id="a_edge5_Node000004_Node000003"><a xlink:title=" ">
<path fill="none" stroke="#63b8ff" d="M61.28,-164.75C53.44,-151.55 41.67,-126.35 54,-110 92.38,-59.1 288.51,-26.38 368.24,-15"/>
<polygon fill="#63b8ff" stroke="#63b8ff" points="368.83,-18.45 378.25,-13.59 367.86,-11.52 368.83,-18.45"/>
</a>
</g>
</g>
<!-- Node5 -->
<g id="Node000005" class="node">
<title>Node5</title>
<g id="a_Node000005"><a xlink:title=" ">
<polygon fill="#e0e0e0" stroke="#999999" points="189,-129 139,-129 139,-110 189,-110 189,-129"/>
<text text-anchor="middle" x="164" y="-117" font-family="Helvetica,sans-Serif" font-size="10.00">chrono</text>
</a>
</g>
</g>
<!-- Node4&#45;&gt;Node5 -->
<g id="edge6_Node000004_Node000005" class="edge">
<title>Node4&#45;&gt;Node5</title>
<g id="a_edge6_Node000004_Node000005"><a xlink:title=" ">
<path fill="none" stroke="#63b8ff" d="M82.58,-164.98C97.77,-156.69 121.1,-143.94 138.9,-134.22"/>
<polygon fill="#63b8ff" stroke="#63b8ff" points="141.03,-137.04 148.13,-129.17 137.68,-130.89 141.03,-137.04"/>
</a>
</g>
</g>
<!-- Node6 -->
<g id="Node000006" class="node">
<title>Node6</title>
<g id="a_Node000006"><a xlink:title=" ">
<polygon fill="#e0e0e0" stroke="#999999" points="292,-129 248,-129 248,-110 292,-110 292,-129"/>
<text text-anchor="middle" x="270" y="-117" font-family="Helvetica,sans-Serif" font-size="10.00">string</text>
</a>
</g>
</g>
<!-- Node4&#45;&gt;Node6 -->
<g id="edge7_Node000004_Node000006" class="edge">
<title>Node4&#45;&gt;Node6</title>
<g id="a_edge7_Node000004_Node000006"><a xlink:title=" ">
<path fill="none" stroke="#63b8ff" d="M99.62,-164.98C137.62,-155.06 200.03,-138.77 237.84,-128.9"/>
<polygon fill="#63b8ff" stroke="#63b8ff" points="239.02,-132.21 247.81,-126.29 237.25,-125.43 239.02,-132.21"/>
</a>
</g>
</g>
<!-- Node7 -->
<g id="Node000007" class="node">
<title>Node7</title>
<g id="a_Node000007"><a xlink:title=" ">
<polygon fill="#e0e0e0" stroke="#999999" points="120.5,-129 63.5,-129 63.5,-110 120.5,-110 120.5,-129"/>
<text text-anchor="middle" x="92" y="-117" font-family="Helvetica,sans-Serif" font-size="10.00">ostream</text>
</a>
</g>
</g>
<!-- Node4&#45;&gt;Node7 -->
<g id="edge8_Node000004_Node000007" class="edge">
<title>Node4&#45;&gt;Node7</title>
<g id="a_edge8_Node000004_Node000007"><a xlink:title=" ">
<path fill="none" stroke="#63b8ff" d="M71.13,-164.75C74.51,-157.57 79.42,-147.18 83.62,-138.27"/>
<polygon fill="#63b8ff" stroke="#63b8ff" points="86.85,-139.63 87.95,-129.09 80.52,-136.64 86.85,-139.63"/>
</a>
</g>
</g>
<!-- Node8&#45;&gt;Node2 -->
<g id="edge10_Node000008_Node000002" class="edge">
<title>Node8&#45;&gt;Node2</title>
<g id="a_edge10_Node000008_Node000002"><a xlink:title=" ">
<path fill="none" stroke="#63b8ff" d="M293.36,-164.98C350.93,-154.85 446.26,-138.06 501.89,-128.27"/>
<polygon fill="#63b8ff" stroke="#63b8ff" points="502.56,-131.7 511.8,-126.52 501.35,-124.81 502.56,-131.7"/>
</a>
</g>
</g>
<!-- Node8&#45;&gt;Node3 -->
<g id="edge14_Node000008_Node000003" class="edge">
<title>Node8&#45;&gt;Node3</title>
<g id="a_edge14_Node000008_Node000003"><a xlink:title=" ">
<path fill="none" stroke="#63b8ff" d="M241.15,-164.63C236.17,-151.71 229.25,-127.38 239,-110 266.61,-60.79 329.55,-33.04 368.64,-19.96"/>
<polygon fill="#63b8ff" stroke="#63b8ff" points="369.81,-23.26 378.27,-16.87 367.68,-16.59 369.81,-23.26"/>
</a>
</g>
</g>
<!-- Node8&#45;&gt;Node5 -->
<g id="edge12_Node000008_Node000005" class="edge">
<title>Node8&#45;&gt;Node5</title>
<g id="a_edge12_Node000008_Node000005"><a xlink:title=" ">
<path fill="none" stroke="#63b8ff" d="M231.99,-164.98C219.54,-156.84 200.54,-144.41 185.79,-134.76"/>
<polygon fill="#63b8ff" stroke="#63b8ff" points="187.54,-131.72 177.25,-129.17 183.7,-137.57 187.54,-131.72"/>
</a>
</g>
</g>
<!-- Node8&#45;&gt;Node6 -->
<g id="edge13_Node000008_Node000006" class="edge">
<title>Node8&#45;&gt;Node6</title>
<g id="a_edge13_Node000008_Node000006"><a xlink:title=" ">
<path fill="none" stroke="#63b8ff" d="M249.13,-164.75C252.51,-157.57 257.42,-147.18 261.62,-138.27"/>
<polygon fill="#63b8ff" stroke="#63b8ff" points="264.85,-139.63 265.95,-129.09 258.52,-136.64 264.85,-139.63"/>
</a>
</g>
</g>
<!-- Node9 -->
<g id="Node000009" class="node">
<title>Node9</title>
<g id="a_Node000009"><a xlink:title=" ">
<polygon fill="#e0e0e0" stroke="#999999" points="678,-19 618,-19 618,0 678,0 678,-19"/>
<text text-anchor="middle" x="648" y="-7" font-family="Helvetica,sans-Serif" font-size="10.00">iostream</text>
</a>
</g>
</g>
<!-- Node8&#45;&gt;Node9 -->
<g id="edge11_Node000008_Node000009" class="edge">
<title>Node8&#45;&gt;Node9</title>
<g id="a_edge11_Node000008_Node000009"><a xlink:title=" ">
<path fill="none" stroke="#63b8ff" d="M258.66,-164.8C292.94,-143.3 385.87,-87.14 470,-55 515.77,-37.52 570.8,-24.98 607.44,-17.75"/>
<polygon fill="#63b8ff" stroke="#63b8ff" points="608.57,-21.1 617.72,-15.77 607.24,-14.23 608.57,-21.1"/>
</a>
</g>
</g>
<!-- Node11 -->
<g id="Node000011" class="node">
<title>Node11</title>
<g id="a_Node000011"><a xlink:title=" ">
<polygon fill="#e0e0e0" stroke="#999999" points="983,-74 851,-74 851,-55 983,-55 983,-74"/>
<text text-anchor="middle" x="917" y="-62" font-family="Helvetica,sans-Serif" font-size="10.00">tinyformat/tinyformat.h</text>
</a>
</g>
</g>
<!-- Node10&#45;&gt;Node11 -->
<g id="edge16_Node000010_Node000011" class="edge">
<title>Node10&#45;&gt;Node11</title>
<g id="a_edge16_Node000010_Node000011"><a xlink:title=" ">
<path fill="none" stroke="#63b8ff" d="M1022.76,-109.98C1002.3,-101.38 970.47,-87.99 947.07,-78.15"/>
<polygon fill="#63b8ff" stroke="#63b8ff" points="948.19,-74.82 937.61,-74.17 945.47,-81.27 948.19,-74.82"/>
</a>
</g>
</g>
<!-- Node10&#45;&gt;Node12 -->
<g id="edge17_Node000010_Node000012" class="edge">
<title>Node10&#45;&gt;Node12</title>
<g id="a_edge17_Node000010_Node000012"><a xlink:title=" ">
<path fill="none" stroke="#63b8ff" d="M1041.02,-109.75C1039.43,-102.72 1037.14,-92.62 1035.15,-83.84"/>
<polygon fill="#63b8ff" stroke="#63b8ff" points="1038.57,-83.07 1032.94,-74.09 1031.74,-84.62 1038.57,-83.07"/>
</a>
</g>
</g>
<!-- Node12&#45;&gt;Node3 -->
<g id="edge19_Node000012_Node000003" class="edge">
<title>Node12&#45;&gt;Node3</title>
<g id="a_edge19_Node000012_Node000003"><a xlink:title=" ">
<path fill="none" stroke="#63b8ff" d="M1000.84,-56.49C997.86,-55.93 994.88,-55.42 992,-55 782,-24.35 526.68,-14.19 435.97,-11.41"/>
<polygon fill="#63b8ff" stroke="#63b8ff" points="435.84,-7.9 425.74,-11.1 435.63,-14.9 435.84,-7.9"/>
</a>
</g>
</g>
<!-- Node12&#45;&gt;Node9 -->
<g id="edge18_Node000012_Node000009" class="edge">
<title>Node12&#45;&gt;Node9</title>
<g id="a_edge18_Node000012_Node000009"><a xlink:title=" ">
<path fill="none" stroke="#63b8ff" d="M1000.82,-56.65C997.84,-56.06 994.87,-55.5 992,-55 882.68,-36.05 752.53,-21.33 688.16,-14.56"/>
<polygon fill="#63b8ff" stroke="#63b8ff" points="688.35,-11.06 678.04,-13.51 687.62,-18.03 688.35,-11.06"/>
</a>
</g>
</g>
<!-- Node13 -->
<g id="Node000013" class="node">
<title>Node13</title>
<g id="a_Node000013"><a xlink:title=" ">
<polygon fill="#e0e0e0" stroke="#999999" points="1083,-19 1041,-19 1041,0 1083,0 1083,-19"/>
<text text-anchor="middle" x="1062" y="-7" font-family="Helvetica,sans-Serif" font-size="10.00">array</text>
</a>
</g>
</g>
<!-- Node12&#45;&gt;Node13 -->
<g id="edge20_Node000012_Node000013" class="edge">
<title>Node12&#45;&gt;Node13</title>
<g id="a_edge20_Node000012_Node000013"><a xlink:title=" ">
<path fill="none" stroke="#63b8ff" d="M1036.12,-54.75C1040.36,-47.49 1046.53,-36.95 1051.78,-27.98"/>
<polygon fill="#63b8ff" stroke="#63b8ff" points="1054.95,-29.49 1056.98,-19.09 1048.91,-25.95 1054.95,-29.49"/>
</a>
</g>
</g>
<!-- Node14 -->
<g id="Node000014" class="node">
<title>Node14</title>
<g id="a_Node000014"><a xlink:title=" ">
<polygon fill="#e0e0e0" stroke="#999999" points="1022.5,-19 977.5,-19 977.5,0 1022.5,0 1022.5,-19"/>
<text text-anchor="middle" x="1000" y="-7" font-family="Helvetica,sans-Serif" font-size="10.00">utility</text>
</a>
</g>
</g>
<!-- Node12&#45;&gt;Node14 -->
<g id="edge21_Node000012_Node000014" class="edge">
<title>Node12&#45;&gt;Node14</title>
<g id="a_edge21_Node000012_Node000014"><a xlink:title=" ">
<path fill="none" stroke="#63b8ff" d="M1025.88,-54.75C1021.64,-47.49 1015.47,-36.95 1010.22,-27.98"/>
<polygon fill="#63b8ff" stroke="#63b8ff" points="1013.09,-25.95 1005.02,-19.09 1007.05,-29.49 1013.09,-25.95"/>
</a>
</g>
</g>
<!-- Node15 -->
<g id="Node000015" class="node">
<title>Node15</title>
<g id="a_Node000015"><a xlink:title=" ">
<polygon fill="#e0e0e0" stroke="#999999" points="824.5,-19 783.5,-19 783.5,0 824.5,0 824.5,-19"/>
<text text-anchor="middle" x="804" y="-7" font-family="Helvetica,sans-Serif" font-size="10.00">tuple</text>
</a>
</g>
</g>
<!-- Node12&#45;&gt;Node15 -->
<g id="edge22_Node000012_Node000015" class="edge">
<title>Node12&#45;&gt;Node15</title>
<g id="a_edge22_Node000012_Node000015"><a xlink:title=" ">
<path fill="none" stroke="#63b8ff" d="M1000.86,-56.46C957.52,-46.34 878.03,-27.79 834.5,-17.62"/>
<polygon fill="#63b8ff" stroke="#63b8ff" points="835.04,-14.15 824.5,-15.29 833.44,-20.97 835.04,-14.15"/>
</a>
</g>
</g>
<!-- Node16&#45;&gt;Node2 -->
<g id="edge25_Node000016_Node000002" class="edge">
<title>Node16&#45;&gt;Node2</title>
<g id="a_edge25_Node000016_Node000002"><a xlink:title=" ">
<path fill="none" stroke="#63b8ff" d="M722.26,-164.98C686.32,-155.91 629.28,-141.52 589.87,-131.57"/>
<polygon fill="#63b8ff" stroke="#63b8ff" points="590.56,-128.14 580,-129.08 588.84,-134.92 590.56,-128.14"/>
</a>
</g>
</g>
<!-- Node16&#45;&gt;Node10 -->
<g id="edge26_Node000016_Node000010" class="edge">
<title>Node16&#45;&gt;Node10</title>
<g id="a_edge26_Node000016_Node000010"><a xlink:title=" ">
<path fill="none" stroke="#63b8ff" d="M802.11,-164.98C852.28,-155.72 932.51,-140.9 986.44,-130.94"/>
<polygon fill="#63b8ff" stroke="#63b8ff" points="987.33,-134.34 996.53,-129.08 986.06,-127.46 987.33,-134.34"/>
</a>
</g>
</g>
<!-- Node17 -->
<g id="Node000017" class="node">
<title>Node17</title>
<g id="a_Node000017"><a xlink:title=" ">
<polygon fill="#e0e0e0" stroke="#999999" points="783,-129 725,-129 725,-110 783,-110 783,-129"/>
<text text-anchor="middle" x="754" y="-117" font-family="Helvetica,sans-Serif" font-size="10.00">memory</text>
</a>
</g>
</g>
<!-- Node16&#45;&gt;Node17 -->
<g id="edge24_Node000016_Node000017" class="edge">
<title>Node16&#45;&gt;Node17</title>
<g id="a_edge24_Node000016_Node000017"><a xlink:title=" ">
<path fill="none" stroke="#63b8ff" d="M755.67,-164.75C755.41,-157.8 755.03,-147.85 754.7,-139.13"/>
<polygon fill="#63b8ff" stroke="#63b8ff" points="758.2,-138.95 754.32,-129.09 751.2,-139.21 758.2,-138.95"/>
</a>
</g>
</g>
<!-- Node18&#45;&gt;Node2 -->
<g id="edge28_Node000018_Node000002" class="edge">
<title>Node18&#45;&gt;Node2</title>
<g id="a_edge28_Node000018_Node000002"><a xlink:title=" ">
<path fill="none" stroke="#63b8ff" d="M646.4,-274.88C628.51,-267.46 604.16,-255.35 587,-239 566.36,-219.33 563.31,-210.94 554,-184 549,-169.54 547.07,-152.27 546.34,-139.39"/>
<polygon fill="#63b8ff" stroke="#63b8ff" points="549.84,-139.25 545.98,-129.39 542.85,-139.51 549.84,-139.25"/>
</a>
</g>
</g>
<!-- Node18&#45;&gt;Node10 -->
<g id="edge29_Node000018_Node000010" class="edge">
<title>Node18&#45;&gt;Node10</title>
<g id="a_edge29_Node000018_Node000010"><a xlink:title=" ">
<path fill="none" stroke="#63b8ff" d="M732.71,-278.97C824.93,-271.76 988.48,-256.67 1009,-239 1038.1,-213.94 1043.11,-165.79 1043.5,-139.23"/>
<polygon fill="#63b8ff" stroke="#63b8ff" points="1047,-138.98 1043.44,-129 1040,-139.03 1047,-138.98"/>
</a>
</g>
</g>
<!-- Node19 -->
<g id="Node000019" class="node">
<title>Node19</title>
<g id="a_Node000019"><a xlink:href="Vec_8hpp.html" target="_top" xlink:title="Implemetations for Vec.">
<polygon fill="white" stroke="#666666" points="744,-239 596,-239 596,-220 744,-220 744,-239"/>
<text text-anchor="middle" x="670" y="-227" font-family="Helvetica,sans-Serif" font-size="10.00">medusa/bits/types/Vec.hpp</text>
</a>
</g>
</g>
<!-- Node18&#45;&gt;Node19 -->
<g id="edge30_Node000018_Node000019" class="edge">
<title>Node18&#45;&gt;Node19</title>
<g id="a_edge30_Node000018_Node000019"><a xlink:title=" ">
<path fill="none" stroke="#63b8ff" d="M670,-274.75C670,-267.8 670,-257.85 670,-249.13"/>
<polygon fill="#63b8ff" stroke="#63b8ff" points="673.5,-249.09 670,-239.09 666.5,-249.09 673.5,-249.09"/>
</a>
</g>
</g>
<!-- Node22 -->
<g id="Node000022" class="node">
<title>Node22</title>
<g id="a_Node000022"><a xlink:href="Range_8hpp.html" target="_top" xlink:title="Implementation of Range.">
<polygon fill="white" stroke="#666666" points="999.5,-239 838.5,-239 838.5,-220 999.5,-220 999.5,-239"/>
<text text-anchor="middle" x="919" y="-227" font-family="Helvetica,sans-Serif" font-size="10.00">medusa/bits/types/Range.hpp</text>
</a>
</g>
</g>
<!-- Node18&#45;&gt;Node22 -->
<g id="edge34_Node000018_Node000022" class="edge">
<title>Node18&#45;&gt;Node22</title>
<g id="a_edge34_Node000018_Node000022"><a xlink:title=" ">
<path fill="none" stroke="#63b8ff" d="M710.01,-274.98C753.17,-265.8 821.98,-251.15 868.76,-241.19"/>
<polygon fill="#63b8ff" stroke="#63b8ff" points="869.63,-244.59 878.68,-239.08 868.17,-237.74 869.63,-244.59"/>
</a>
</g>
</g>
<!-- Node27 -->
<g id="Node000027" class="node">
<title>Node27</title>
<g id="a_Node000027"><a xlink:title=" ">
<polygon fill="#e0e0e0" stroke="#999999" points="501.5,-239 454.5,-239 454.5,-220 501.5,-220 501.5,-239"/>
<text text-anchor="middle" x="478" y="-227" font-family="Helvetica,sans-Serif" font-size="10.00">cmath</text>
</a>
</g>
</g>
<!-- Node18&#45;&gt;Node27 -->
<g id="edge43_Node000018_Node000027" class="edge">
<title>Node18&#45;&gt;Node27</title>
<g id="a_edge43_Node000018_Node000027"><a xlink:title=" ">
<path fill="none" stroke="#63b8ff" d="M639.15,-274.98C604.23,-265.34 547.52,-249.69 511.52,-239.75"/>
<polygon fill="#63b8ff" stroke="#63b8ff" points="512.08,-236.28 501.51,-236.99 510.22,-243.02 512.08,-236.28"/>
</a>
</g>
</g>
<!-- Node20 -->
<g id="Node000020" class="node">
<title>Node20</title>
<g id="a_Node000020"><a xlink:href="Vec__fwd_8hpp.html" target="_top" xlink:title="Declaration of Vec.">
<polygon fill="white" stroke="#666666" points="673.5,-184 596.5,-184 596.5,-165 673.5,-165 673.5,-184"/>
<text text-anchor="middle" x="635" y="-172" font-family="Helvetica,sans-Serif" font-size="10.00">Vec_fwd.hpp</text>
</a>
</g>
</g>
<!-- Node19&#45;&gt;Node20 -->
<g id="edge31_Node000019_Node000020" class="edge">
<title>Node19&#45;&gt;Node20</title>
<g id="a_edge31_Node000019_Node000020"><a xlink:title=" ">
<path fill="none" stroke="#63b8ff" d="M664.22,-219.75C659.38,-212.42 652.32,-201.73 646.36,-192.7"/>
<polygon fill="#63b8ff" stroke="#63b8ff" points="649.1,-190.5 640.67,-184.09 643.26,-194.36 649.1,-190.5"/>
</a>
</g>
</g>
<!-- Node20&#45;&gt;Node2 -->
<g id="edge32_Node000020_Node000002" class="edge">
<title>Node20&#45;&gt;Node2</title>
<g id="a_edge32_Node000020_Node000002"><a xlink:title=" ">
<path fill="none" stroke="#63b8ff" d="M620.7,-164.98C606.9,-156.77 585.76,-144.18 569.49,-134.49"/>
<polygon fill="#63b8ff" stroke="#63b8ff" points="570.94,-131.28 560.56,-129.17 567.36,-137.29 570.94,-131.28"/>
</a>
</g>
</g>
<!-- Node21 -->
<g id="Node000021" class="node">
<title>Node21</title>
<g id="a_Node000021"><a xlink:title=" ">
<polygon fill="#e0e0e0" stroke="#999999" points="669.5,-129 600.5,-129 600.5,-110 669.5,-110 669.5,-129"/>
<text text-anchor="middle" x="635" y="-117" font-family="Helvetica,sans-Serif" font-size="10.00">Eigen/Core</text>
</a>
</g>
</g>
<!-- Node20&#45;&gt;Node21 -->
<g id="edge33_Node000020_Node000021" class="edge">
<title>Node20&#45;&gt;Node21</title>
<g id="a_edge33_Node000020_Node000021"><a xlink:title=" ">
<path fill="none" stroke="#63b8ff" d="M635,-164.75C635,-157.8 635,-147.85 635,-139.13"/>
<polygon fill="#63b8ff" stroke="#63b8ff" points="638.5,-139.09 635,-129.09 631.5,-139.09 638.5,-139.09"/>
</a>
</g>
</g>
<!-- Node23 -->
<g id="Node000023" class="node">
<title>Node23</title>
<g id="a_Node000023"><a xlink:href="Range__fwd_8hpp.html" target="_top" xlink:title="Declaration of Range.">
<polygon fill="white" stroke="#666666" points="1012.5,-184 921.5,-184 921.5,-165 1012.5,-165 1012.5,-184"/>
<text text-anchor="middle" x="967" y="-172" font-family="Helvetica,sans-Serif" font-size="10.00">Range_fwd.hpp</text>
</a>
</g>
</g>
<!-- Node22&#45;&gt;Node23 -->
<g id="edge35_Node000022_Node000023" class="edge">
<title>Node22&#45;&gt;Node23</title>
<g id="a_edge35_Node000022_Node000023"><a xlink:title=" ">
<path fill="none" stroke="#63b8ff" d="M926.93,-219.75C933.85,-212.11 944.07,-200.82 952.45,-191.56"/>
<polygon fill="#63b8ff" stroke="#63b8ff" points="955.1,-193.85 959.22,-184.09 949.91,-189.15 955.1,-193.85"/>
</a>
</g>
</g>
<!-- Node26 -->
<g id="Node000026" class="node">
<title>Node26</title>
<g id="a_Node000026"><a xlink:title=" ">
<polygon fill="#e0e0e0" stroke="#999999" points="903,-184 839,-184 839,-165 903,-165 903,-184"/>
<text text-anchor="middle" x="871" y="-172" font-family="Helvetica,sans-Serif" font-size="10.00">algorithm</text>
</a>
</g>
</g>
<!-- Node22&#45;&gt;Node26 -->
<g id="edge42_Node000022_Node000026" class="edge">
<title>Node22&#45;&gt;Node26</title>
<g id="a_edge42_Node000022_Node000026"><a xlink:title=" ">
<path fill="none" stroke="#63b8ff" d="M911.07,-219.75C904.15,-212.11 893.93,-200.82 885.55,-191.56"/>
<polygon fill="#63b8ff" stroke="#63b8ff" points="888.09,-189.15 878.78,-184.09 882.9,-193.85 888.09,-189.15"/>
</a>
</g>
</g>
<!-- Node23&#45;&gt;Node2 -->
<g id="edge36_Node000023_Node000002" class="edge">
<title>Node23&#45;&gt;Node2</title>
<g id="a_edge36_Node000023_Node000002"><a xlink:title=" ">
<path fill="none" stroke="#63b8ff" d="M921.4,-166.3C918.22,-165.85 915.06,-165.41 912,-165 770.14,-146.07 733.57,-150.02 592,-129 591.4,-128.91 590.79,-128.82 590.18,-128.73"/>
<polygon fill="#63b8ff" stroke="#63b8ff" points="590.55,-125.24 580.12,-127.08 589.42,-132.15 590.55,-125.24"/>
</a>
</g>
</g>
<!-- Node23&#45;&gt;Node3 -->
<g id="edge40_Node000023_Node000003" class="edge">
<title>Node23&#45;&gt;Node3</title>
<g id="a_edge40_Node000023_Node000003"><a xlink:title=" ">
<path fill="none" stroke="#63b8ff" d="M936.33,-164.97C908.25,-156.82 865.75,-143.65 830,-129 812.53,-121.84 809.69,-116.59 792,-110 664.28,-62.4 504.76,-29.57 436.06,-16.64"/>
<polygon fill="#63b8ff" stroke="#63b8ff" points="436.3,-13.12 425.83,-14.73 435.02,-20.01 436.3,-13.12"/>
</a>
</g>
</g>
<!-- Node23&#45;&gt;Node10 -->
<g id="edge37_Node000023_Node000010" class="edge">
<title>Node23&#45;&gt;Node10</title>
<g id="a_edge37_Node000023_Node000010"><a xlink:title=" ">
<path fill="none" stroke="#63b8ff" d="M979.21,-164.98C990.78,-156.92 1008.38,-144.65 1022.16,-135.03"/>
<polygon fill="#63b8ff" stroke="#63b8ff" points="1024.37,-137.76 1030.57,-129.17 1020.36,-132.02 1024.37,-137.76"/>
</a>
</g>
</g>
<!-- Node23&#45;&gt;Node17 -->
<g id="edge39_Node000023_Node000017" class="edge">
<title>Node23&#45;&gt;Node17</title>
<g id="a_edge39_Node000023_Node000017"><a xlink:title=" ">
<path fill="none" stroke="#63b8ff" d="M932.78,-164.98C894.59,-155.48 832.93,-140.14 792.93,-130.19"/>
<polygon fill="#63b8ff" stroke="#63b8ff" points="793.55,-126.74 783.01,-127.72 791.86,-133.53 793.55,-126.74"/>
</a>
</g>
</g>
<!-- Node24 -->
<g id="Node000024" class="node">
<title>Node24</title>
<g id="a_Node000024"><a xlink:href="traits_8hpp.html" target="_top" xlink:title="Type traits definition for vector and scalar fields.">
<polygon fill="white" stroke="#666666" points="968.5,-129 905.5,-129 905.5,-110 968.5,-110 968.5,-129"/>
<text text-anchor="middle" x="937" y="-117" font-family="Helvetica,sans-Serif" font-size="10.00">traits.hpp</text>
</a>
</g>
</g>
<!-- Node23&#45;&gt;Node24 -->
<g id="edge38_Node000023_Node000024" class="edge">
<title>Node23&#45;&gt;Node24</title>
<g id="a_edge38_Node000023_Node000024"><a xlink:title=" ">
<path fill="none" stroke="#63b8ff" d="M962.05,-164.75C957.94,-157.49 951.97,-146.95 946.9,-137.98"/>
<polygon fill="#63b8ff" stroke="#63b8ff" points="949.83,-136.07 941.86,-129.09 943.74,-139.52 949.83,-136.07"/>
</a>
</g>
</g>
<!-- Node25 -->
<g id="Node000025" class="node">
<title>Node25</title>
<g id="a_Node000025"><a xlink:title=" ">
<polygon fill="#e0e0e0" stroke="#999999" points="887,-129 839,-129 839,-110 887,-110 887,-129"/>
<text text-anchor="middle" x="863" y="-117" font-family="Helvetica,sans-Serif" font-size="10.00">iosfwd</text>
</a>
</g>
</g>
<!-- Node23&#45;&gt;Node25 -->
<g id="edge41_Node000023_Node000025" class="edge">
<title>Node23&#45;&gt;Node25</title>
<g id="a_edge41_Node000023_Node000025"><a xlink:title=" ">
<path fill="none" stroke="#63b8ff" d="M950.29,-164.98C933.79,-156.57 908.3,-143.59 889.12,-133.81"/>
<polygon fill="#63b8ff" stroke="#63b8ff" points="890.51,-130.59 880.01,-129.17 887.33,-136.83 890.51,-130.59"/>
</a>
</g>
</g>
<!-- Node28&#45;&gt;Node2 -->
<g id="edge46_Node000028_Node000002" class="edge">
<title>Node28&#45;&gt;Node2</title>
<g id="a_edge46_Node000028_Node000002"><a xlink:title=" ">
<path fill="none" stroke="#63b8ff" d="M891.52,-274.83C862.55,-261.5 804.41,-235.88 753,-220 681.28,-197.85 649.92,-226.42 588,-184 571.68,-172.82 560.09,-153.01 553.27,-138.48"/>
<polygon fill="#63b8ff" stroke="#63b8ff" points="556.36,-136.8 549.15,-129.03 549.94,-139.6 556.36,-136.8"/>
</a>
</g>
</g>
<!-- Node28&#45;&gt;Node5 -->
<g id="edge50_Node000028_Node000005" class="edge">
<title>Node28&#45;&gt;Node5</title>
<g id="a_edge50_Node000028_Node000005"><a xlink:title=" ">
<path fill="none" stroke="#63b8ff" d="M847.45,-276.91C782.14,-269.56 676.9,-256.38 587,-239 552.82,-232.39 545.27,-226.12 511,-220 438.38,-207.02 236.99,-232.03 181,-184 168.29,-173.1 164.56,-153.82 163.7,-139.36"/>
<polygon fill="#63b8ff" stroke="#63b8ff" points="167.19,-138.98 163.5,-129.05 160.19,-139.11 167.19,-138.98"/>
</a>
</g>
</g>
<!-- Node28&#45;&gt;Node10 -->
<g id="edge47_Node000028_Node000010" class="edge">
<title>Node28&#45;&gt;Node10</title>
<g id="a_edge47_Node000028_Node000010"><a xlink:title=" ">
<path fill="none" stroke="#63b8ff" d="M972.64,-280.8C1002.63,-275.97 1036.06,-264.62 1055,-239 1076.83,-209.46 1062.59,-163.87 1051.82,-138.71"/>
<polygon fill="#63b8ff" stroke="#63b8ff" points="1054.87,-136.95 1047.54,-129.29 1048.49,-139.85 1054.87,-136.95"/>
</a>
</g>
</g>
<!-- Node28&#45;&gt;Node22 -->
<g id="edge48_Node000028_Node000022" class="edge">
<title>Node28&#45;&gt;Node22</title>
<g id="a_edge48_Node000028_Node000022"><a xlink:title=" ">
<path fill="none" stroke="#63b8ff" d="M911.49,-274.75C912.67,-267.8 914.36,-257.85 915.84,-249.13"/>
<polygon fill="#63b8ff" stroke="#63b8ff" points="919.32,-249.53 917.54,-239.09 912.42,-248.36 919.32,-249.53"/>
</a>
</g>
</g>
<!-- Node29 -->
<g id="Node000029" class="node">
<title>Node29</title>
<g id="a_Node000029"><a xlink:title=" ">
<polygon fill="#e0e0e0" stroke="#999999" points="1161,-239 1107,-239 1107,-220 1161,-220 1161,-239"/>
<text text-anchor="middle" x="1134" y="-227" font-family="Helvetica,sans-Serif" font-size="10.00">random</text>
</a>
</g>
</g>
<!-- Node28&#45;&gt;Node29 -->
<g id="edge49_Node000028_Node000029" class="edge">
<title>Node28&#45;&gt;Node29</title>
<g id="a_edge49_Node000028_Node000029"><a xlink:title=" ">
<path fill="none" stroke="#63b8ff" d="M945.99,-274.98C987.46,-265.17 1055.26,-249.13 1097.11,-239.23"/>
<polygon fill="#63b8ff" stroke="#63b8ff" points="1097.98,-242.62 1106.91,-236.91 1096.37,-235.81 1097.98,-242.62"/>
</a>
</g>
</g>
<!-- Node30&#45;&gt;Node2 -->
<g id="edge52_Node000030_Node000002" class="edge">
<title>Node30&#45;&gt;Node2</title>
<g id="a_edge52_Node000030_Node000002"><a xlink:title=" ">
<path fill="none" stroke="#63b8ff" d="M415.9,-164.98C441.7,-156.16 482.22,-142.31 511.18,-132.41"/>
<polygon fill="#63b8ff" stroke="#63b8ff" points="512.57,-135.63 520.9,-129.08 510.31,-129.01 512.57,-135.63"/>
</a>
</g>
</g>
<!-- Node30&#45;&gt;Node3 -->
<g id="edge55_Node000030_Node000003" class="edge">
<title>Node30&#45;&gt;Node3</title>
<g id="a_edge55_Node000030_Node000003"><a xlink:title=" ">
<path fill="none" stroke="#63b8ff" d="M387.66,-164.8C384.45,-155.94 379.82,-141.75 378,-129 372.87,-93.12 385.57,-51.74 394.39,-28.59"/>
<polygon fill="#63b8ff" stroke="#63b8ff" points="397.74,-29.65 398.2,-19.06 391.24,-27.05 397.74,-29.65"/>
</a>
</g>
</g>
<!-- Node30&#45;&gt;Node6 -->
<g id="edge54_Node000030_Node000006" class="edge">
<title>Node30&#45;&gt;Node6</title>
<g id="a_edge54_Node000030_Node000006"><a xlink:title=" ">
<path fill="none" stroke="#63b8ff" d="M371.56,-164.98C352.01,-156.42 321.62,-143.11 299.18,-133.28"/>
<polygon fill="#63b8ff" stroke="#63b8ff" points="300.36,-129.98 289.79,-129.17 297.55,-136.39 300.36,-129.98"/>
</a>
</g>
</g>
<!-- Node30&#45;&gt;Node10 -->
<g id="edge53_Node000030_Node000010" class="edge">
<title>Node30&#45;&gt;Node10</title>
<g id="a_edge53_Node000030_Node000010"><a xlink:title=" ">
<path fill="none" stroke="#63b8ff" d="M464.32,-169.23C573.59,-162.57 785.85,-148.55 976.11,-129.15"/>
<polygon fill="#63b8ff" stroke="#63b8ff" points="976.71,-132.6 986.3,-128.1 976,-125.64 976.71,-132.6"/>
</a>
</g>
</g>
<!-- Node30&#45;&gt;Node15 -->
<g id="edge56_Node000030_Node000015" class="edge">
<title>Node30&#45;&gt;Node15</title>
<g id="a_edge56_Node000030_Node000015"><a xlink:title=" ">
<path fill="none" stroke="#63b8ff" d="M405.22,-164.97C430.75,-149.74 483.49,-118.66 503,-110 598.71,-67.54 718.39,-33.24 773.57,-18.42"/>
<polygon fill="#63b8ff" stroke="#63b8ff" points="774.64,-21.75 783.41,-15.8 772.84,-14.99 774.64,-21.75"/>
</a>
</g>
</g>
<!-- Node31 -->
<g id="Node000031" class="node">
<title>Node31</title>
<g id="a_Node000031"><a xlink:title=" ">
<polygon fill="#e0e0e0" stroke="#999999" points="455.5,-129 386.5,-129 386.5,-110 455.5,-110 455.5,-129"/>
<text text-anchor="middle" x="421" y="-117" font-family="Helvetica,sans-Serif" font-size="10.00">type_traits</text>
</a>
</g>
</g>
<!-- Node30&#45;&gt;Node31 -->
<g id="edge57_Node000030_Node000031" class="edge">
<title>Node30&#45;&gt;Node31</title>
<g id="a_edge57_Node000030_Node000031"><a xlink:title=" ">
<path fill="none" stroke="#63b8ff" d="M395.95,-164.75C400.06,-157.49 406.03,-146.95 411.1,-137.98"/>
<polygon fill="#63b8ff" stroke="#63b8ff" points="414.26,-139.52 416.14,-129.09 408.17,-136.07 414.26,-139.52"/>
</a>
</g>
</g>
</g>
</svg>

<g id="navigator" transform="translate(0 0)" fill="#404254">
  <rect fill="#f2f5e9" fill-opacity="0.5" stroke="#606060" stroke-width=".5" x="0" y="0" width="60" height="60"/>
  <use id="zoomplus" xlink:href="#zoomPlus" x="17" y="9" onmousedown="handleZoom(evt,'in')"/>
  <use id="zoomminus" xlink:href="#zoomMin" x="42" y="9" onmousedown="handleZoom(evt,'out')"/>
  <use id="reset" xlink:href="#resetDef" x="30" y="36" onmousedown="handleReset()"/>
   <use id="arrowup" xlink:href="#arrowUp" x="0" y="0" onmousedown="handlePan(0,-1)"/>
  <use id="arrowright" xlink:href="#arrowRight" x="0" y="0" onmousedown="handlePan(1,0)"/>
  <use id="arrowdown" xlink:href="#arrowDown" x="0" y="0" onmousedown="handlePan(0,1)"/>
  <use id="arrowleft" xlink:href="#arrowLeft" x="0" y="0" onmousedown="handlePan(-1,0)"/>
</g>
<svg viewBox="0 0 15 15" width="100%" height="30px" preserveAspectRatio="xMaxYMin meet">
 <g id="arrow_out" transform="scale(0.3 0.3)">
  <a xlink:href="Utils_8hpp__incl_org.svg" target="_base">
   <rect id="button" ry="5" rx="5" y="6" x="6" height="38" width="38"
        fill="#f2f5e9" fill-opacity="0.5" stroke="#606060" stroke-width="1.0"/>
   <path id="arrow"
     d="M 11.500037,31.436501 C 11.940474,20.09759 22.043105,11.32322 32.158766,21.979434 L 37.068811,17.246167 C 37.068811,17.246167 37.088388,32 37.088388,32 L 22.160133,31.978069 C 22.160133,31.978069 26.997745,27.140456 26.997745,27.140456 C 18.528582,18.264221 13.291696,25.230495 11.500037,31.436501 z"
     style="fill:#404040;"/>
  </a>
 </g>
</svg>

<style type='text/css'>
<![CDATA[
[data-mouse-over-selected='false'] { opacity: 0.7; }
[data-mouse-over-selected='true']  { opacity: 1.0; }
]]>
</style>
<script type="application/ecmascript"><![CDATA[
document.addEventListener('DOMContentLoaded', (event) => {
  highlightEdges();
  highlightAdjacentNodes();
});
]]></script>
</svg>
