<?xml version="1.0" encoding="UTF-8" standalone="no"?>
<!DOCTYPE svg PUBLIC "-//W3C//DTD SVG 1.1//EN"
 "http://www.w3.org/Graphics/SVG/1.1/DTD/svg11.dtd">
<!-- Generated by graphviz version 2.43.0 (0)
 -->
<!-- Title: include/medusa/bits/types/VectorField_fwd.hpp Pages: 1 -->
<svg width="351pt" height="346pt"
 viewBox="0.00 0.00 351.00 346.00" xmlns="http://www.w3.org/2000/svg" xmlns:xlink="http://www.w3.org/1999/xlink">
<g id="graph0" class="graph" transform="scale(1 1) rotate(0) translate(4 342)">
<title>include/medusa/bits/types/VectorField_fwd.hpp</title>
<!-- Node1 -->
<g id="Node000001" class="node">
<title>Node1</title>
<g id="a_Node000001"><a xlink:title="Declaration of VectorField.">
<polygon fill="#999999" stroke="#666666" points="197.5,-338 50.5,-338 50.5,-308 197.5,-308 197.5,-338"/>
<text text-anchor="start" x="58.5" y="-326" font-family="Helvetica,sans-Serif" font-size="10.00">include/medusa/bits</text>
<text text-anchor="middle" x="124" y="-315" font-family="Helvetica,sans-Serif" font-size="10.00">/types/VectorField_fwd.hpp</text>
</a>
</g>
</g>
<!-- Node2 -->
<g id="Node000002" class="node">
<title>Node2</title>
<g id="a_Node000002"><a xlink:href="VectorField_8hpp.html" target="_top" xlink:title="Implementation of VectorField.">
<polygon fill="white" stroke="#666666" points="186.5,-272 61.5,-272 61.5,-242 186.5,-242 186.5,-272"/>
<text text-anchor="start" x="69.5" y="-260" font-family="Helvetica,sans-Serif" font-size="10.00">include/medusa/bits</text>
<text text-anchor="middle" x="124" y="-249" font-family="Helvetica,sans-Serif" font-size="10.00">/types/VectorField.hpp</text>
</a>
</g>
</g>
<!-- Node1&#45;&gt;Node2 -->
<g id="edge1_Node000001_Node000002" class="edge">
<title>Node1&#45;&gt;Node2</title>
<g id="a_edge1_Node000001_Node000002"><a xlink:title=" ">
<path fill="none" stroke="#63b8ff" d="M124,-297.54C124,-288.96 124,-279.61 124,-272.16"/>
<polygon fill="#63b8ff" stroke="#63b8ff" points="120.5,-297.8 124,-307.8 127.5,-297.8 120.5,-297.8"/>
</a>
</g>
</g>
<!-- Node3 -->
<g id="Node000003" class="node">
<title>Node3</title>
<g id="a_Node000003"><a xlink:href="Types_8hpp.html" target="_top" xlink:title="Header for Types module.">
<polygon fill="white" stroke="#666666" points="151,-140 5,-140 5,-121 151,-121 151,-140"/>
<text text-anchor="middle" x="78" y="-128" font-family="Helvetica,sans-Serif" font-size="10.00">include/medusa/Types.hpp</text>
</a>
</g>
</g>
<!-- Node2&#45;&gt;Node3 -->
<g id="edge2_Node000002_Node000003" class="edge">
<title>Node2&#45;&gt;Node3</title>
<g id="a_edge2_Node000002_Node000003"><a xlink:title=" ">
<path fill="none" stroke="#63b8ff" d="M82.89,-236.62C71.06,-228.87 59.59,-218.71 53,-206 41.31,-183.48 59.81,-154.35 70.79,-140.11"/>
<polygon fill="#63b8ff" stroke="#63b8ff" points="81.13,-239.65 91.49,-241.84 84.76,-233.66 81.13,-239.65"/>
</a>
</g>
</g>
<!-- Node6 -->
<g id="Node000006" class="node">
<title>Node6</title>
<g id="a_Node000006"><a xlink:href="Types__fwd_8hpp.html" target="_top" xlink:title="Header for Types module, declarations only.">
<polygon fill="white" stroke="#666666" points="186.5,-206 61.5,-206 61.5,-176 186.5,-176 186.5,-206"/>
<text text-anchor="start" x="69.5" y="-194" font-family="Helvetica,sans-Serif" font-size="10.00">include/medusa/Types</text>
<text text-anchor="middle" x="124" y="-183" font-family="Helvetica,sans-Serif" font-size="10.00">_fwd.hpp</text>
</a>
</g>
</g>
<!-- Node2&#45;&gt;Node6 -->
<g id="edge6_Node000002_Node000006" class="edge">
<title>Node2&#45;&gt;Node6</title>
<g id="a_edge6_Node000002_Node000006"><a xlink:title=" ">
<path fill="none" stroke="#63b8ff" d="M124,-231.54C124,-222.96 124,-213.61 124,-206.16"/>
<polygon fill="#63b8ff" stroke="#63b8ff" points="120.5,-231.8 124,-241.8 127.5,-231.8 120.5,-231.8"/>
</a>
</g>
</g>
<!-- Node7 -->
<g id="Node000007" class="node">
<title>Node7</title>
<g id="a_Node000007"><a xlink:href="VectorField_8cpp.html" target="_top" xlink:title="Instantiations of commonly used VectorFields.">
<polygon fill="white" stroke="#666666" points="343,-200.5 205,-200.5 205,-181.5 343,-181.5 343,-200.5"/>
<text text-anchor="middle" x="274" y="-188.5" font-family="Helvetica,sans-Serif" font-size="10.00">src/types/VectorField.cpp</text>
</a>
</g>
</g>
<!-- Node2&#45;&gt;Node7 -->
<g id="edge8_Node000002_Node000007" class="edge">
<title>Node2&#45;&gt;Node7</title>
<g id="a_edge8_Node000002_Node000007"><a xlink:title=" ">
<path fill="none" stroke="#63b8ff" d="M166.33,-237.94C195.06,-225.68 231.76,-210.02 254.04,-200.52"/>
<polygon fill="#63b8ff" stroke="#63b8ff" points="164.74,-234.81 156.92,-241.95 167.49,-241.25 164.74,-234.81"/>
</a>
</g>
</g>
<!-- Node4 -->
<g id="Node000004" class="node">
<title>Node4</title>
<g id="a_Node000004"><a xlink:href="Medusa_8hpp.html" target="_top" xlink:title="Main header file that includes most other components.">
<polygon fill="white" stroke="#666666" points="156,-19 0,-19 0,0 156,0 156,-19"/>
<text text-anchor="middle" x="78" y="-7" font-family="Helvetica,sans-Serif" font-size="10.00">include/medusa/Medusa.hpp</text>
</a>
</g>
</g>
<!-- Node3&#45;&gt;Node4 -->
<g id="edge3_Node000003_Node000004" class="edge">
<title>Node3&#45;&gt;Node4</title>
<g id="a_edge3_Node000003_Node000004"><a xlink:title=" ">
<path fill="none" stroke="#63b8ff" d="M63.79,-112.78C58,-104.89 51.98,-95.02 49,-85 45.2,-72.22 45.2,-67.78 49,-55 53.1,-41.21 62.97,-27.7 70.06,-19.25"/>
<polygon fill="#63b8ff" stroke="#63b8ff" points="61.13,-115.05 70.06,-120.75 66.63,-110.72 61.13,-115.05"/>
</a>
</g>
</g>
<!-- Node5 -->
<g id="Node000005" class="node">
<title>Node5</title>
<g id="a_Node000005"><a xlink:href="Medusa__fwd_8hpp.html" target="_top" xlink:title="Main header file that includes only declarations for some heavy classes such as mm::WLS to reduce com...">
<polygon fill="white" stroke="#666666" points="193.5,-85 58.5,-85 58.5,-55 193.5,-55 193.5,-85"/>
<text text-anchor="start" x="66.5" y="-73" font-family="Helvetica,sans-Serif" font-size="10.00">include/medusa/Medusa</text>
<text text-anchor="middle" x="126" y="-62" font-family="Helvetica,sans-Serif" font-size="10.00">_fwd.hpp</text>
</a>
</g>
</g>
<!-- Node3&#45;&gt;Node5 -->
<g id="edge4_Node000003_Node000005" class="edge">
<title>Node3&#45;&gt;Node5</title>
<g id="a_edge4_Node000003_Node000005"><a xlink:title=" ">
<path fill="none" stroke="#63b8ff" d="M91.64,-112.88C98.83,-104.11 107.56,-93.48 114.42,-85.11"/>
<polygon fill="#63b8ff" stroke="#63b8ff" points="88.72,-110.92 85.08,-120.87 94.13,-115.36 88.72,-110.92"/>
</a>
</g>
</g>
<!-- Node5&#45;&gt;Node4 -->
<g id="edge5_Node000005_Node000004" class="edge">
<title>Node5&#45;&gt;Node4</title>
<g id="a_edge5_Node000005_Node000004"><a xlink:title=" ">
<path fill="none" stroke="#63b8ff" d="M108.02,-47.09C100.09,-37.42 91.22,-26.61 85.19,-19.27"/>
<polygon fill="#63b8ff" stroke="#63b8ff" points="105.33,-49.33 114.38,-54.84 110.74,-44.89 105.33,-49.33"/>
</a>
</g>
</g>
<!-- Node6&#45;&gt;Node3 -->
<g id="edge7_Node000006_Node000003" class="edge">
<title>Node6&#45;&gt;Node3</title>
<g id="a_edge7_Node000006_Node000003"><a xlink:title=" ">
<path fill="none" stroke="#63b8ff" d="M106.54,-167.8C99,-158.21 90.61,-147.54 84.89,-140.27"/>
<polygon fill="#63b8ff" stroke="#63b8ff" points="103.93,-170.14 112.86,-175.84 109.43,-165.81 103.93,-170.14"/>
</a>
</g>
</g>
</g>
</svg>
