<?xml version="1.0" encoding="UTF-8" standalone="no"?>
<!DOCTYPE svg PUBLIC "-//W3C//DTD SVG 1.1//EN"
 "http://www.w3.org/Graphics/SVG/1.1/DTD/svg11.dtd">
<!-- Generated by graphviz version 2.43.0 (0)
 -->
<!-- Title: include/medusa/bits/approximations/WeightFunction_fwd.hpp Pages: 1 -->
<svg width="618pt" height="236pt"
 viewBox="0.00 0.00 618.00 236.00" xmlns="http://www.w3.org/2000/svg" xmlns:xlink="http://www.w3.org/1999/xlink">
<g id="graph0" class="graph" transform="scale(1 1) rotate(0) translate(4 232)">
<title>include/medusa/bits/approximations/WeightFunction_fwd.hpp</title>
<!-- Node1 -->
<g id="Node000001" class="node">
<title>Node1</title>
<g id="a_Node000001"><a xlink:title="Declarations of weight functions.">
<polygon fill="#999999" stroke="#666666" points="406.5,-228 232.5,-228 232.5,-187 406.5,-187 406.5,-228"/>
<text text-anchor="start" x="240.5" y="-216" font-family="Helvetica,sans-Serif" font-size="10.00">include/medusa/bits</text>
<text text-anchor="start" x="240.5" y="-205" font-family="Helvetica,sans-Serif" font-size="10.00">/approximations/WeightFunction</text>
<text text-anchor="middle" x="319.5" y="-194" font-family="Helvetica,sans-Serif" font-size="10.00">_fwd.hpp</text>
</a>
</g>
</g>
<!-- Node2 -->
<g id="Node000002" class="node">
<title>Node2</title>
<g id="a_Node000002"><a xlink:href="Approximations__fwd_8hpp.html" target="_top" xlink:title="Header for Approximations module, declarations only.">
<polygon fill="white" stroke="#666666" points="305.5,-151 131.5,-151 131.5,-121 305.5,-121 305.5,-151"/>
<text text-anchor="start" x="139.5" y="-139" font-family="Helvetica,sans-Serif" font-size="10.00">include/medusa/Approximations</text>
<text text-anchor="middle" x="218.5" y="-128" font-family="Helvetica,sans-Serif" font-size="10.00">_fwd.hpp</text>
</a>
</g>
</g>
<!-- Node1&#45;&gt;Node2 -->
<g id="edge1_Node000001_Node000002" class="edge">
<title>Node1&#45;&gt;Node2</title>
<g id="a_edge1_Node000001_Node000002"><a xlink:title=" ">
<path fill="none" stroke="#63b8ff" d="M282.66,-181.15C267.94,-171.02 251.54,-159.74 239.01,-151.11"/>
<polygon fill="#63b8ff" stroke="#63b8ff" points="280.87,-184.17 291.1,-186.96 284.84,-178.4 280.87,-184.17"/>
</a>
</g>
</g>
<!-- Node6 -->
<g id="Node000006" class="node">
<title>Node6</title>
<g id="a_Node000006"><a xlink:href="WeightFunction_8hpp.html" target="_top" xlink:title="Implementations of weight functions.">
<polygon fill="white" stroke="#666666" points="519,-151 324,-151 324,-121 519,-121 519,-151"/>
<text text-anchor="start" x="332" y="-139" font-family="Helvetica,sans-Serif" font-size="10.00">include/medusa/bits</text>
<text text-anchor="middle" x="421.5" y="-128" font-family="Helvetica,sans-Serif" font-size="10.00">/approximations/WeightFunction.hpp</text>
</a>
</g>
</g>
<!-- Node1&#45;&gt;Node6 -->
<g id="edge6_Node000001_Node000006" class="edge">
<title>Node1&#45;&gt;Node6</title>
<g id="a_edge6_Node000001_Node000006"><a xlink:title=" ">
<path fill="none" stroke="#63b8ff" d="M356.7,-181.15C371.57,-171.02 388.13,-159.74 400.79,-151.11"/>
<polygon fill="#63b8ff" stroke="#63b8ff" points="354.48,-178.43 348.18,-186.96 358.42,-184.22 354.48,-178.43"/>
</a>
</g>
</g>
<!-- Node3 -->
<g id="Node000003" class="node">
<title>Node3</title>
<g id="a_Node000003"><a xlink:href="Approximations_8hpp.html" target="_top" xlink:title="Header for Approximations module.">
<polygon fill="white" stroke="#666666" points="348,-79.5 153,-79.5 153,-60.5 348,-60.5 348,-79.5"/>
<text text-anchor="middle" x="250.5" y="-67.5" font-family="Helvetica,sans-Serif" font-size="10.00">include/medusa/Approximations.hpp</text>
</a>
</g>
</g>
<!-- Node2&#45;&gt;Node3 -->
<g id="edge2_Node000002_Node000003" class="edge">
<title>Node2&#45;&gt;Node3</title>
<g id="a_edge2_Node000002_Node000003"><a xlink:title=" ">
<path fill="none" stroke="#63b8ff" d="M230.19,-111.61C235.72,-100.56 241.99,-88.03 246.08,-79.84"/>
<polygon fill="#63b8ff" stroke="#63b8ff" points="226.94,-110.29 225.6,-120.8 233.2,-113.42 226.94,-110.29"/>
</a>
</g>
</g>
<!-- Node5 -->
<g id="Node000005" class="node">
<title>Node5</title>
<g id="a_Node000005"><a xlink:href="Medusa__fwd_8hpp.html" target="_top" xlink:title="Main header file that includes only declarations for some heavy classes such as mm::WLS to reduce com...">
<polygon fill="white" stroke="#666666" points="135,-85 0,-85 0,-55 135,-55 135,-85"/>
<text text-anchor="start" x="8" y="-73" font-family="Helvetica,sans-Serif" font-size="10.00">include/medusa/Medusa</text>
<text text-anchor="middle" x="67.5" y="-62" font-family="Helvetica,sans-Serif" font-size="10.00">_fwd.hpp</text>
</a>
</g>
</g>
<!-- Node2&#45;&gt;Node5 -->
<g id="edge4_Node000002_Node000005" class="edge">
<title>Node2&#45;&gt;Node5</title>
<g id="a_edge4_Node000002_Node000005"><a xlink:title=" ">
<path fill="none" stroke="#63b8ff" d="M175.84,-116.92C151.97,-106.8 122.67,-94.38 100.56,-85.01"/>
<polygon fill="#63b8ff" stroke="#63b8ff" points="174.79,-120.28 185.36,-120.95 177.52,-113.83 174.79,-120.28"/>
</a>
</g>
</g>
<!-- Node4 -->
<g id="Node000004" class="node">
<title>Node4</title>
<g id="a_Node000004"><a xlink:href="Medusa_8hpp.html" target="_top" xlink:title="Main header file that includes most other components.">
<polygon fill="white" stroke="#666666" points="236.5,-19 80.5,-19 80.5,0 236.5,0 236.5,-19"/>
<text text-anchor="middle" x="158.5" y="-7" font-family="Helvetica,sans-Serif" font-size="10.00">include/medusa/Medusa.hpp</text>
</a>
</g>
</g>
<!-- Node3&#45;&gt;Node4 -->
<g id="edge3_Node000003_Node000004" class="edge">
<title>Node3&#45;&gt;Node4</title>
<g id="a_edge3_Node000003_Node000004"><a xlink:title=" ">
<path fill="none" stroke="#63b8ff" d="M228.43,-54.97C210.91,-43.82 186.97,-28.6 172.13,-19.17"/>
<polygon fill="#63b8ff" stroke="#63b8ff" points="226.61,-57.96 236.93,-60.37 230.36,-52.05 226.61,-57.96"/>
</a>
</g>
</g>
<!-- Node5&#45;&gt;Node4 -->
<g id="edge5_Node000005_Node000004" class="edge">
<title>Node5&#45;&gt;Node4</title>
<g id="a_edge5_Node000005_Node000004"><a xlink:title=" ">
<path fill="none" stroke="#63b8ff" d="M98.07,-49.35C114.05,-39.07 132.8,-27.02 145.13,-19.09"/>
<polygon fill="#63b8ff" stroke="#63b8ff" points="96.05,-46.49 89.53,-54.84 99.83,-52.38 96.05,-46.49"/>
</a>
</g>
</g>
<!-- Node6&#45;&gt;Node3 -->
<g id="edge7_Node000006_Node000003" class="edge">
<title>Node6&#45;&gt;Node3</title>
<g id="a_edge7_Node000006_Node000003"><a xlink:title=" ">
<path fill="none" stroke="#63b8ff" d="M374.52,-117.42C341.58,-105.09 298.99,-89.15 273.26,-79.52"/>
<polygon fill="#63b8ff" stroke="#63b8ff" points="373.38,-120.73 383.97,-120.95 375.83,-114.17 373.38,-120.73"/>
</a>
</g>
</g>
<!-- Node7 -->
<g id="Node000007" class="node">
<title>Node7</title>
<g id="a_Node000007"><a xlink:href="WLS_8cpp.html" target="_top" xlink:title="Instantiations of commonly used WLS approximations.">
<polygon fill="white" stroke="#666666" points="476.5,-85 366.5,-85 366.5,-55 476.5,-55 476.5,-85"/>
<text text-anchor="start" x="374.5" y="-73" font-family="Helvetica,sans-Serif" font-size="10.00">src/approximations</text>
<text text-anchor="middle" x="421.5" y="-62" font-family="Helvetica,sans-Serif" font-size="10.00">/WLS.cpp</text>
</a>
</g>
</g>
<!-- Node6&#45;&gt;Node7 -->
<g id="edge8_Node000006_Node000007" class="edge">
<title>Node6&#45;&gt;Node7</title>
<g id="a_edge8_Node000006_Node000007"><a xlink:title=" ">
<path fill="none" stroke="#63b8ff" d="M421.5,-110.54C421.5,-101.96 421.5,-92.61 421.5,-85.16"/>
<polygon fill="#63b8ff" stroke="#63b8ff" points="418,-110.8 421.5,-120.8 425,-110.8 418,-110.8"/>
</a>
</g>
</g>
<!-- Node8 -->
<g id="Node000008" class="node">
<title>Node8</title>
<g id="a_Node000008"><a xlink:href="WeightFunction_8cpp.html" target="_top" xlink:title="Explicit instantiations for common parameters.">
<polygon fill="white" stroke="#666666" points="610,-85 495,-85 495,-55 610,-55 610,-85"/>
<text text-anchor="start" x="503" y="-73" font-family="Helvetica,sans-Serif" font-size="10.00">src/approximations</text>
<text text-anchor="middle" x="552.5" y="-62" font-family="Helvetica,sans-Serif" font-size="10.00">/WeightFunction.cpp</text>
</a>
</g>
</g>
<!-- Node6&#45;&gt;Node8 -->
<g id="edge9_Node000006_Node000008" class="edge">
<title>Node6&#45;&gt;Node8</title>
<g id="a_edge9_Node000006_Node000008"><a xlink:title=" ">
<path fill="none" stroke="#63b8ff" d="M459.34,-116.51C479.89,-106.47 504.89,-94.26 523.82,-85.01"/>
<polygon fill="#63b8ff" stroke="#63b8ff" points="457.7,-113.42 450.25,-120.95 460.77,-119.71 457.7,-113.42"/>
</a>
</g>
</g>
</g>
</svg>
