<?xml version="1.0" encoding="UTF-8" standalone="no"?>
<!DOCTYPE svg PUBLIC "-//W3C//DTD SVG 1.1//EN"
 "http://www.w3.org/Graphics/SVG/1.1/DTD/svg11.dtd">
<!-- Generated by graphviz version 2.43.0 (0)
 -->
<!-- Title: include/medusa/bits/approximations/WeightFunction.hpp Pages: 1 -->
<svg width="450pt" height="203pt"
 viewBox="0.00 0.00 450.00 203.00" xmlns="http://www.w3.org/2000/svg" xmlns:xlink="http://www.w3.org/1999/xlink">
<g id="graph0" class="graph" transform="scale(1 1) rotate(0) translate(4 199)">
<title>include/medusa/bits/approximations/WeightFunction.hpp</title>
<!-- Node1 -->
<g id="Node000001" class="node">
<title>Node1</title>
<g id="a_Node000001"><a xlink:title="Implementations of weight functions.">
<polygon fill="#999999" stroke="#666666" points="277.5,-195 82.5,-195 82.5,-165 277.5,-165 277.5,-195"/>
<text text-anchor="start" x="90.5" y="-183" font-family="Helvetica,sans-Serif" font-size="10.00">include/medusa/bits</text>
<text text-anchor="middle" x="180" y="-172" font-family="Helvetica,sans-Serif" font-size="10.00">/approximations/WeightFunction.hpp</text>
</a>
</g>
</g>
<!-- Node2 -->
<g id="Node000002" class="node">
<title>Node2</title>
<g id="a_Node000002"><a xlink:title=" ">
<polygon fill="#e0e0e0" stroke="#999999" points="84.5,-129 37.5,-129 37.5,-110 84.5,-110 84.5,-129"/>
<text text-anchor="middle" x="61" y="-117" font-family="Helvetica,sans-Serif" font-size="10.00">cmath</text>
</a>
</g>
</g>
<!-- Node1&#45;&gt;Node2 -->
<g id="edge1_Node000001_Node000002" class="edge">
<title>Node1&#45;&gt;Node2</title>
<g id="a_edge1_Node000001_Node000002"><a xlink:title=" ">
<path fill="none" stroke="#63b8ff" d="M151.5,-164.99C132.09,-155.45 106.57,-142.9 87.58,-133.57"/>
<polygon fill="#63b8ff" stroke="#63b8ff" points="89.09,-130.41 78.57,-129.14 86,-136.69 89.09,-130.41"/>
</a>
</g>
</g>
<!-- Node3 -->
<g id="Node000003" class="node">
<title>Node3</title>
<g id="a_Node000003"><a xlink:href="assert_8hpp.html" target="_top" xlink:title="Implementation of custom assert and debug utilities.">
<polygon fill="white" stroke="#666666" points="257.5,-129 102.5,-129 102.5,-110 257.5,-110 257.5,-129"/>
<text text-anchor="middle" x="180" y="-117" font-family="Helvetica,sans-Serif" font-size="10.00">medusa/bits/utils/assert.hpp</text>
</a>
</g>
</g>
<!-- Node1&#45;&gt;Node3 -->
<g id="edge2_Node000001_Node000003" class="edge">
<title>Node1&#45;&gt;Node3</title>
<g id="a_edge2_Node000001_Node000003"><a xlink:title=" ">
<path fill="none" stroke="#63b8ff" d="M180,-164.84C180,-157.21 180,-147.7 180,-139.45"/>
<polygon fill="#63b8ff" stroke="#63b8ff" points="183.5,-139.27 180,-129.27 176.5,-139.27 183.5,-139.27"/>
</a>
</g>
</g>
<!-- Node11 -->
<g id="Node000011" class="node">
<title>Node11</title>
<g id="a_Node000011"><a xlink:href="WeightFunction__fwd_8hpp.html" target="_top" xlink:title="Declarations of weight functions.">
<polygon fill="white" stroke="#666666" points="421.5,-129 286.5,-129 286.5,-110 421.5,-110 421.5,-129"/>
<text text-anchor="middle" x="354" y="-117" font-family="Helvetica,sans-Serif" font-size="10.00">WeightFunction_fwd.hpp</text>
</a>
</g>
</g>
<!-- Node1&#45;&gt;Node11 -->
<g id="edge10_Node000001_Node000011" class="edge">
<title>Node1&#45;&gt;Node11</title>
<g id="a_edge10_Node000001_Node000011"><a xlink:title=" ">
<path fill="none" stroke="#63b8ff" d="M221.68,-164.99C251.32,-155.02 290.69,-141.78 318.77,-132.35"/>
<polygon fill="#63b8ff" stroke="#63b8ff" points="320.2,-135.56 328.56,-129.05 317.96,-128.92 320.2,-135.56"/>
</a>
</g>
</g>
<!-- Node4 -->
<g id="Node000004" class="node">
<title>Node4</title>
<g id="a_Node000004"><a xlink:title=" ">
<polygon fill="#e0e0e0" stroke="#999999" points="132,-74 0,-74 0,-55 132,-55 132,-74"/>
<text text-anchor="middle" x="66" y="-62" font-family="Helvetica,sans-Serif" font-size="10.00">tinyformat/tinyformat.h</text>
</a>
</g>
</g>
<!-- Node3&#45;&gt;Node4 -->
<g id="edge3_Node000003_Node000004" class="edge">
<title>Node3&#45;&gt;Node4</title>
<g id="a_edge3_Node000003_Node000004"><a xlink:title=" ">
<path fill="none" stroke="#63b8ff" d="M161.68,-109.98C143.34,-101.46 114.89,-88.23 93.77,-78.41"/>
<polygon fill="#63b8ff" stroke="#63b8ff" points="95.19,-75.21 84.65,-74.17 92.24,-81.56 95.19,-75.21"/>
</a>
</g>
</g>
<!-- Node5 -->
<g id="Node000005" class="node">
<title>Node5</title>
<g id="a_Node000005"><a xlink:href="print_8hpp.html" target="_top" xlink:title="Printing helpers for std types.">
<polygon fill="white" stroke="#666666" points="210,-74 150,-74 150,-55 210,-55 210,-74"/>
<text text-anchor="middle" x="180" y="-62" font-family="Helvetica,sans-Serif" font-size="10.00">print.hpp</text>
</a>
</g>
</g>
<!-- Node3&#45;&gt;Node5 -->
<g id="edge4_Node000003_Node000005" class="edge">
<title>Node3&#45;&gt;Node5</title>
<g id="a_edge4_Node000003_Node000005"><a xlink:title=" ">
<path fill="none" stroke="#63b8ff" d="M180,-109.75C180,-102.8 180,-92.85 180,-84.13"/>
<polygon fill="#63b8ff" stroke="#63b8ff" points="183.5,-84.09 180,-74.09 176.5,-84.09 183.5,-84.09"/>
</a>
</g>
</g>
<!-- Node6 -->
<g id="Node000006" class="node">
<title>Node6</title>
<g id="a_Node000006"><a xlink:title=" ">
<polygon fill="#e0e0e0" stroke="#999999" points="178,-19 118,-19 118,0 178,0 178,-19"/>
<text text-anchor="middle" x="148" y="-7" font-family="Helvetica,sans-Serif" font-size="10.00">iostream</text>
</a>
</g>
</g>
<!-- Node5&#45;&gt;Node6 -->
<g id="edge5_Node000005_Node000006" class="edge">
<title>Node5&#45;&gt;Node6</title>
<g id="a_edge5_Node000005_Node000006"><a xlink:title=" ">
<path fill="none" stroke="#63b8ff" d="M174.72,-54.75C170.29,-47.42 163.84,-36.73 158.38,-27.7"/>
<polygon fill="#63b8ff" stroke="#63b8ff" points="161.35,-25.84 153.19,-19.09 155.36,-29.46 161.35,-25.84"/>
</a>
</g>
</g>
<!-- Node7 -->
<g id="Node000007" class="node">
<title>Node7</title>
<g id="a_Node000007"><a xlink:title=" ">
<polygon fill="#e0e0e0" stroke="#999999" points="306.5,-19 259.5,-19 259.5,0 306.5,0 306.5,-19"/>
<text text-anchor="middle" x="283" y="-7" font-family="Helvetica,sans-Serif" font-size="10.00">vector</text>
</a>
</g>
</g>
<!-- Node5&#45;&gt;Node7 -->
<g id="edge6_Node000005_Node000007" class="edge">
<title>Node5&#45;&gt;Node7</title>
<g id="a_edge6_Node000005_Node000007"><a xlink:title=" ">
<path fill="none" stroke="#63b8ff" d="M196.55,-54.98C212.89,-46.57 238.13,-33.59 257.13,-23.81"/>
<polygon fill="#63b8ff" stroke="#63b8ff" points="258.86,-26.86 266.15,-19.17 255.66,-20.63 258.86,-26.86"/>
</a>
</g>
</g>
<!-- Node8 -->
<g id="Node000008" class="node">
<title>Node8</title>
<g id="a_Node000008"><a xlink:title=" ">
<polygon fill="#e0e0e0" stroke="#999999" points="377,-19 335,-19 335,0 377,0 377,-19"/>
<text text-anchor="middle" x="356" y="-7" font-family="Helvetica,sans-Serif" font-size="10.00">array</text>
</a>
</g>
</g>
<!-- Node5&#45;&gt;Node8 -->
<g id="edge7_Node000005_Node000008" class="edge">
<title>Node5&#45;&gt;Node8</title>
<g id="a_edge7_Node000005_Node000008"><a xlink:title=" ">
<path fill="none" stroke="#63b8ff" d="M208.28,-54.98C240.33,-45.33 292.4,-29.65 325.39,-19.72"/>
<polygon fill="#63b8ff" stroke="#63b8ff" points="326.41,-23.07 334.97,-16.83 324.39,-16.36 326.41,-23.07"/>
</a>
</g>
</g>
<!-- Node9 -->
<g id="Node000009" class="node">
<title>Node9</title>
<g id="a_Node000009"><a xlink:title=" ">
<polygon fill="#e0e0e0" stroke="#999999" points="241.5,-19 196.5,-19 196.5,0 241.5,0 241.5,-19"/>
<text text-anchor="middle" x="219" y="-7" font-family="Helvetica,sans-Serif" font-size="10.00">utility</text>
</a>
</g>
</g>
<!-- Node5&#45;&gt;Node9 -->
<g id="edge8_Node000005_Node000009" class="edge">
<title>Node5&#45;&gt;Node9</title>
<g id="a_edge8_Node000005_Node000009"><a xlink:title=" ">
<path fill="none" stroke="#63b8ff" d="M186.44,-54.75C191.89,-47.34 199.86,-36.5 206.56,-27.41"/>
<polygon fill="#63b8ff" stroke="#63b8ff" points="209.57,-29.22 212.68,-19.09 203.93,-25.07 209.57,-29.22"/>
</a>
</g>
</g>
<!-- Node10 -->
<g id="Node000010" class="node">
<title>Node10</title>
<g id="a_Node000010"><a xlink:title=" ">
<polygon fill="#e0e0e0" stroke="#999999" points="99.5,-19 58.5,-19 58.5,0 99.5,0 99.5,-19"/>
<text text-anchor="middle" x="79" y="-7" font-family="Helvetica,sans-Serif" font-size="10.00">tuple</text>
</a>
</g>
</g>
<!-- Node5&#45;&gt;Node10 -->
<g id="edge9_Node000005_Node000010" class="edge">
<title>Node5&#45;&gt;Node10</title>
<g id="a_edge9_Node000005_Node000010"><a xlink:title=" ">
<path fill="none" stroke="#63b8ff" d="M163.77,-54.98C147.82,-46.61 123.22,-33.7 104.62,-23.95"/>
<polygon fill="#63b8ff" stroke="#63b8ff" points="106,-20.72 95.52,-19.17 102.75,-26.92 106,-20.72"/>
</a>
</g>
</g>
<!-- Node11&#45;&gt;Node8 -->
<g id="edge13_Node000011_Node000008" class="edge">
<title>Node11&#45;&gt;Node8</title>
<g id="a_edge13_Node000011_Node000008"><a xlink:title=" ">
<path fill="none" stroke="#63b8ff" d="M354.16,-109.66C354.49,-92.17 355.22,-52.8 355.65,-29.27"/>
<polygon fill="#63b8ff" stroke="#63b8ff" points="359.15,-29.22 355.84,-19.16 352.16,-29.09 359.15,-29.22"/>
</a>
</g>
</g>
<!-- Node12 -->
<g id="Node000012" class="node">
<title>Node12</title>
<g id="a_Node000012"><a xlink:href="Config_8hpp.html" target="_top" xlink:title="Contains compile time settings for the project, such as Eigen plugins.">
<polygon fill="white" stroke="#666666" points="338,-74 228,-74 228,-55 338,-55 338,-74"/>
<text text-anchor="middle" x="283" y="-62" font-family="Helvetica,sans-Serif" font-size="10.00">medusa/Config.hpp</text>
</a>
</g>
</g>
<!-- Node11&#45;&gt;Node12 -->
<g id="edge11_Node000011_Node000012" class="edge">
<title>Node11&#45;&gt;Node12</title>
<g id="a_edge11_Node000011_Node000012"><a xlink:title=" ">
<path fill="none" stroke="#63b8ff" d="M342.59,-109.98C331.89,-102 315.66,-89.88 302.84,-80.31"/>
<polygon fill="#63b8ff" stroke="#63b8ff" points="304.72,-77.35 294.61,-74.17 300.53,-82.96 304.72,-77.35"/>
</a>
</g>
</g>
<!-- Node13 -->
<g id="Node000013" class="node">
<title>Node13</title>
<g id="a_Node000013"><a xlink:title=" ">
<polygon fill="#e0e0e0" stroke="#999999" points="442,-74 394,-74 394,-55 442,-55 442,-74"/>
<text text-anchor="middle" x="418" y="-62" font-family="Helvetica,sans-Serif" font-size="10.00">iosfwd</text>
</a>
</g>
</g>
<!-- Node11&#45;&gt;Node13 -->
<g id="edge14_Node000011_Node000013" class="edge">
<title>Node11&#45;&gt;Node13</title>
<g id="a_edge14_Node000011_Node000013"><a xlink:title=" ">
<path fill="none" stroke="#63b8ff" d="M364.28,-109.98C373.84,-102.07 388.28,-90.11 399.78,-80.58"/>
<polygon fill="#63b8ff" stroke="#63b8ff" points="402.06,-83.24 407.53,-74.17 397.6,-77.85 402.06,-83.24"/>
</a>
</g>
</g>
<!-- Node12&#45;&gt;Node7 -->
<g id="edge12_Node000012_Node000007" class="edge">
<title>Node12&#45;&gt;Node7</title>
<g id="a_edge12_Node000012_Node000007"><a xlink:title=" ">
<path fill="none" stroke="#63b8ff" d="M283,-54.75C283,-47.8 283,-37.85 283,-29.13"/>
<polygon fill="#63b8ff" stroke="#63b8ff" points="286.5,-29.09 283,-19.09 279.5,-29.09 286.5,-29.09"/>
</a>
</g>
</g>
</g>
</svg>
