<?xml version="1.0" encoding="UTF-8" standalone="no"?>
<!DOCTYPE svg PUBLIC "-//W3C//DTD SVG 1.1//EN"
 "http://www.w3.org/Graphics/SVG/1.1/DTD/svg11.dtd">
<!-- Generated by graphviz version 2.43.0 (0)
 -->
<!-- Title: src/approximations/WeightFunction.cpp Pages: 1 -->
<!--zoomable 445 -->

<svg id="main" version="1.1" xmlns="http://www.w3.org/2000/svg" xmlns:xlink="http://www.w3.org/1999/xlink" xml:space="preserve" onload="init(evt)">
<style type="text/css"><![CDATA[
.node, .edge {opacity: 0.7;}
.node.selected, .edge.selected {opacity: 1;}
.edge:hover path { stroke: red; }
.edge:hover polygon { stroke: red; fill: red; }
]]></style>

<defs>
  <circle id="rim" cx="0" cy="0" r="7"/>
  <circle id="rim2" cx="0" cy="0" r="3.5"/>
  <g id="zoomPlus">
    <use xlink:href="#rim" fill="#404040"><set attributeName="fill" to="#808080" begin="zoomplus.mouseover" end="zoomplus.mouseout"/></use>
    <path d="M-4,0h8M0,-4v8" fill="none" stroke="white" stroke-width="1.5" pointer-events="none"/>
  </g>
  <g id="zoomMin">
    <use xlink:href="#rim" fill="#404040"><set attributeName="fill" to="#808080" begin="zoomminus.mouseover" end="zoomminus.mouseout"/></use>
    <path d="M-4,0h8" fill="none" stroke="white" stroke-width="1.5" pointer-events="none"/>
  </g>
  <g id="arrowUp" transform="translate(30 24)">
    <use xlink:href="#rim"/>
    <path pointer-events="none" fill="none" stroke="white" stroke-width="1.5" d="M0,-3.0v7 M-2.5,-0.5L0,-3.0L2.5,-0.5"/>
  </g>
  <g id="arrowRight" transform="rotate(90) translate(36 -43)">
    <use xlink:href="#rim"/>
    <path pointer-events="none" fill="none" stroke="white" stroke-width="1.5" d="M0,-3.0v7 M-2.5,-0.5L0,-3.0L2.5,-0.5"/>
  </g>
  <g id="arrowDown" transform="rotate(180) translate(-30 -48)">
    <use xlink:href="#rim"/>
    <path pointer-events="none" fill="none" stroke="white" stroke-width="1.5" d="M0,-3.0v7 M-2.5,-0.5L0,-3.0L2.5,-0.5"/>
  </g>
  <g id="arrowLeft" transform="rotate(270) translate(-36 17)">
    <use xlink:href="#rim"/>
    <path pointer-events="none" fill="none" stroke="white" stroke-width="1.5" d="M0,-3.0v7 M-2.5,-0.5L0,-3.0L2.5,-0.5"/>
  </g>
  <g id="resetDef">
    <use xlink:href="#rim2" fill="#404040"><set attributeName="fill" to="#808080" begin="reset.mouseover" end="reset.mouseout"/></use>
  </g>
</defs>
<script type="application/ecmascript">
var viewWidth = 1187;
var viewHeight = 445;
var sectionId = 'dynsection-0';
</script>
<script type="application/ecmascript" xlink:href="svg.min.js"/>
<svg id="graph" class="graph">
<g id="viewport">
<title>src/approximations/WeightFunction.cpp</title>
<!-- Node1 -->
<g id="Node000001" class="node">
<title>Node1</title>
<g id="a_Node000001"><a xlink:title="Explicit instantiations for common parameters.">
<polygon fill="#999999" stroke="#666666" points="949.5,-437 834.5,-437 834.5,-407 949.5,-407 949.5,-437"/>
<text text-anchor="start" x="842.5" y="-425" font-family="Helvetica,sans-Serif" font-size="10.00">src/approximations</text>
<text text-anchor="middle" x="892" y="-414" font-family="Helvetica,sans-Serif" font-size="10.00">/WeightFunction.cpp</text>
</a>
</g>
</g>
<!-- Node2 -->
<g id="Node000002" class="node">
<title>Node2</title>
<g id="a_Node000002"><a xlink:href="WeightFunction_8hpp.html" target="_top" xlink:title="Implementations of weight functions.">
<polygon fill="white" stroke="#666666" points="1141,-250 985,-250 985,-220 1141,-220 1141,-250"/>
<text text-anchor="start" x="993" y="-238" font-family="Helvetica,sans-Serif" font-size="10.00">medusa/bits/approximations</text>
<text text-anchor="middle" x="1063" y="-227" font-family="Helvetica,sans-Serif" font-size="10.00">/WeightFunction.hpp</text>
</a>
</g>
</g>
<!-- Node1&#45;&gt;Node2 -->
<g id="edge1_Node000001_Node000002" class="edge">
<title>Node1&#45;&gt;Node2</title>
<g id="a_edge1_Node000001_Node000002"><a xlink:title=" ">
<path fill="none" stroke="#63b8ff" d="M925.14,-406.8C942.56,-398.21 963.46,-386.01 979,-371 1013.11,-338.07 1039.26,-288.56 1052.78,-259.54"/>
<polygon fill="#63b8ff" stroke="#63b8ff" points="1056.07,-260.74 1057.02,-250.19 1049.7,-257.85 1056.07,-260.74"/>
</a>
</g>
</g>
<!-- Node15 -->
<g id="Node000015" class="node">
<title>Node15</title>
<g id="a_Node000015"><a xlink:href="Gaussian_8hpp.html" target="_top" xlink:title="Implementation of Gaussian RBF.">
<polygon fill="white" stroke="#666666" points="970,-371 814,-371 814,-341 970,-341 970,-371"/>
<text text-anchor="start" x="822" y="-359" font-family="Helvetica,sans-Serif" font-size="10.00">medusa/bits/approximations</text>
<text text-anchor="middle" x="892" y="-348" font-family="Helvetica,sans-Serif" font-size="10.00">/Gaussian.hpp</text>
</a>
</g>
</g>
<!-- Node1&#45;&gt;Node15 -->
<g id="edge16_Node000001_Node000015" class="edge">
<title>Node1&#45;&gt;Node15</title>
<g id="a_edge16_Node000001_Node000015"><a xlink:title=" ">
<path fill="none" stroke="#63b8ff" d="M892,-406.8C892,-399.34 892,-389.99 892,-381.41"/>
<polygon fill="#63b8ff" stroke="#63b8ff" points="895.5,-381.16 892,-371.16 888.5,-381.16 895.5,-381.16"/>
</a>
</g>
</g>
<!-- Node21 -->
<g id="Node000021" class="node">
<title>Node21</title>
<g id="a_Node000021"><a xlink:href="Vec_8hpp.html" target="_top" xlink:title="Implemetations for Vec.">
<polygon fill="white" stroke="#666666" points="148,-244.5 0,-244.5 0,-225.5 148,-225.5 148,-244.5"/>
<text text-anchor="middle" x="74" y="-232.5" font-family="Helvetica,sans-Serif" font-size="10.00">medusa/bits/types/Vec.hpp</text>
</a>
</g>
</g>
<!-- Node1&#45;&gt;Node21 -->
<g id="edge52_Node000001_Node000021" class="edge">
<title>Node1&#45;&gt;Node21</title>
<g id="a_edge52_Node000001_Node000021"><a xlink:title=" ">
<path fill="none" stroke="#63b8ff" d="M834.48,-407.99C681.04,-373.29 264.02,-278.98 122.07,-246.87"/>
<polygon fill="#63b8ff" stroke="#63b8ff" points="122.46,-243.37 111.94,-244.58 120.92,-250.2 122.46,-243.37"/>
</a>
</g>
</g>
<!-- Node3 -->
<g id="Node000003" class="node">
<title>Node3</title>
<g id="a_Node000003"><a xlink:title=" ">
<polygon fill="#e0e0e0" stroke="#999999" points="828.5,-129 781.5,-129 781.5,-110 828.5,-110 828.5,-129"/>
<text text-anchor="middle" x="805" y="-117" font-family="Helvetica,sans-Serif" font-size="10.00">cmath</text>
</a>
</g>
</g>
<!-- Node2&#45;&gt;Node3 -->
<g id="edge2_Node000002_Node000003" class="edge">
<title>Node2&#45;&gt;Node3</title>
<g id="a_edge2_Node000002_Node000003"><a xlink:title=" ">
<path fill="none" stroke="#63b8ff" d="M1047.93,-219.79C1030.64,-204.21 1000.8,-179.5 971,-165 964.95,-162.06 885.11,-141.19 838.4,-129.11"/>
<polygon fill="#63b8ff" stroke="#63b8ff" points="839.25,-125.71 828.69,-126.6 837.5,-132.49 839.25,-125.71"/>
</a>
</g>
</g>
<!-- Node4 -->
<g id="Node000004" class="node">
<title>Node4</title>
<g id="a_Node000004"><a xlink:href="assert_8hpp.html" target="_top" xlink:title="Implementation of custom assert and debug utilities.">
<polygon fill="white" stroke="#666666" points="1001.5,-129 846.5,-129 846.5,-110 1001.5,-110 1001.5,-129"/>
<text text-anchor="middle" x="924" y="-117" font-family="Helvetica,sans-Serif" font-size="10.00">medusa/bits/utils/assert.hpp</text>
</a>
</g>
</g>
<!-- Node2&#45;&gt;Node4 -->
<g id="edge3_Node000002_Node000004" class="edge">
<title>Node2&#45;&gt;Node4</title>
<g id="a_edge3_Node000002_Node000004"><a xlink:title=" ">
<path fill="none" stroke="#63b8ff" d="M1056.5,-219.94C1048.87,-204.73 1034.94,-180.57 1017,-165 1000.61,-150.78 978.89,-140.05 960.56,-132.69"/>
<polygon fill="#63b8ff" stroke="#63b8ff" points="961.65,-129.36 951.06,-129.05 959.15,-135.9 961.65,-129.36"/>
</a>
</g>
</g>
<!-- Node12 -->
<g id="Node000012" class="node">
<title>Node12</title>
<g id="a_Node000012"><a xlink:href="WeightFunction__fwd_8hpp.html" target="_top" xlink:title="Declarations of weight functions.">
<polygon fill="white" stroke="#666666" points="623.5,-184 488.5,-184 488.5,-165 623.5,-165 623.5,-184"/>
<text text-anchor="middle" x="556" y="-172" font-family="Helvetica,sans-Serif" font-size="10.00">WeightFunction_fwd.hpp</text>
</a>
</g>
</g>
<!-- Node2&#45;&gt;Node12 -->
<g id="edge11_Node000002_Node000012" class="edge">
<title>Node2&#45;&gt;Node12</title>
<g id="a_edge11_Node000002_Node000012"><a xlink:title=" ">
<path fill="none" stroke="#63b8ff" d="M984.89,-224.99C889.48,-213.98 729.06,-195.47 633.79,-184.48"/>
<polygon fill="#63b8ff" stroke="#63b8ff" points="633.98,-180.97 623.65,-183.31 633.18,-187.93 633.98,-180.97"/>
</a>
</g>
</g>
<!-- Node5 -->
<g id="Node000005" class="node">
<title>Node5</title>
<g id="a_Node000005"><a xlink:title=" ">
<polygon fill="#e0e0e0" stroke="#999999" points="792,-74 660,-74 660,-55 792,-55 792,-74"/>
<text text-anchor="middle" x="726" y="-62" font-family="Helvetica,sans-Serif" font-size="10.00">tinyformat/tinyformat.h</text>
</a>
</g>
</g>
<!-- Node4&#45;&gt;Node5 -->
<g id="edge4_Node000004_Node000005" class="edge">
<title>Node4&#45;&gt;Node5</title>
<g id="a_edge4_Node000004_Node000005"><a xlink:title=" ">
<path fill="none" stroke="#63b8ff" d="M892.19,-109.98C858.51,-100.97 805.2,-86.7 768.08,-76.76"/>
<polygon fill="#63b8ff" stroke="#63b8ff" points="768.63,-73.29 758.06,-74.08 766.82,-80.05 768.63,-73.29"/>
</a>
</g>
</g>
<!-- Node6 -->
<g id="Node000006" class="node">
<title>Node6</title>
<g id="a_Node000006"><a xlink:href="print_8hpp.html" target="_top" xlink:title="Printing helpers for std types.">
<polygon fill="white" stroke="#666666" points="870,-74 810,-74 810,-55 870,-55 870,-74"/>
<text text-anchor="middle" x="840" y="-62" font-family="Helvetica,sans-Serif" font-size="10.00">print.hpp</text>
</a>
</g>
</g>
<!-- Node4&#45;&gt;Node6 -->
<g id="edge5_Node000004_Node000006" class="edge">
<title>Node4&#45;&gt;Node6</title>
<g id="a_edge5_Node000004_Node000006"><a xlink:title=" ">
<path fill="none" stroke="#63b8ff" d="M910.5,-109.98C897.6,-101.84 877.9,-89.41 862.6,-79.76"/>
<polygon fill="#63b8ff" stroke="#63b8ff" points="864.07,-76.55 853.74,-74.17 860.33,-82.47 864.07,-76.55"/>
</a>
</g>
</g>
<!-- Node7 -->
<g id="Node000007" class="node">
<title>Node7</title>
<g id="a_Node000007"><a xlink:title=" ">
<polygon fill="#e0e0e0" stroke="#999999" points="939,-19 879,-19 879,0 939,0 939,-19"/>
<text text-anchor="middle" x="909" y="-7" font-family="Helvetica,sans-Serif" font-size="10.00">iostream</text>
</a>
</g>
</g>
<!-- Node6&#45;&gt;Node7 -->
<g id="edge6_Node000006_Node000007" class="edge">
<title>Node6&#45;&gt;Node7</title>
<g id="a_edge6_Node000006_Node000007"><a xlink:title=" ">
<path fill="none" stroke="#63b8ff" d="M851.09,-54.98C861.49,-47 877.26,-34.88 889.72,-25.31"/>
<polygon fill="#63b8ff" stroke="#63b8ff" points="891.91,-28.04 897.71,-19.17 887.65,-22.49 891.91,-28.04"/>
</a>
</g>
</g>
<!-- Node8 -->
<g id="Node000008" class="node">
<title>Node8</title>
<g id="a_Node000008"><a xlink:title=" ">
<polygon fill="#e0e0e0" stroke="#999999" points="401.5,-19 354.5,-19 354.5,0 401.5,0 401.5,-19"/>
<text text-anchor="middle" x="378" y="-7" font-family="Helvetica,sans-Serif" font-size="10.00">vector</text>
</a>
</g>
</g>
<!-- Node6&#45;&gt;Node8 -->
<g id="edge7_Node000006_Node000008" class="edge">
<title>Node6&#45;&gt;Node8</title>
<g id="a_edge7_Node000006_Node000008"><a xlink:title=" ">
<path fill="none" stroke="#63b8ff" d="M809.83,-56.58C806.85,-56 803.87,-55.46 801,-55 647.03,-30.36 607.02,-35.9 452,-19 438.84,-17.57 424.38,-15.92 411.76,-14.46"/>
<polygon fill="#63b8ff" stroke="#63b8ff" points="411.99,-10.96 401.65,-13.29 411.18,-17.92 411.99,-10.96"/>
</a>
</g>
</g>
<!-- Node9 -->
<g id="Node000009" class="node">
<title>Node9</title>
<g id="a_Node000009"><a xlink:title=" ">
<polygon fill="#e0e0e0" stroke="#999999" points="503,-19 461,-19 461,0 503,0 503,-19"/>
<text text-anchor="middle" x="482" y="-7" font-family="Helvetica,sans-Serif" font-size="10.00">array</text>
</a>
</g>
</g>
<!-- Node6&#45;&gt;Node9 -->
<g id="edge8_Node000006_Node000009" class="edge">
<title>Node6&#45;&gt;Node9</title>
<g id="a_edge8_Node000006_Node000009"><a xlink:title=" ">
<path fill="none" stroke="#63b8ff" d="M809.81,-56.68C806.84,-56.08 803.87,-55.51 801,-55 696.28,-36.31 571.04,-20.82 513.6,-14.1"/>
<polygon fill="#63b8ff" stroke="#63b8ff" points="513.7,-10.59 503.37,-12.91 512.9,-17.54 513.7,-10.59"/>
</a>
</g>
</g>
<!-- Node10 -->
<g id="Node000010" class="node">
<title>Node10</title>
<g id="a_Node000010"><a xlink:title=" ">
<polygon fill="#e0e0e0" stroke="#999999" points="801.5,-19 756.5,-19 756.5,0 801.5,0 801.5,-19"/>
<text text-anchor="middle" x="779" y="-7" font-family="Helvetica,sans-Serif" font-size="10.00">utility</text>
</a>
</g>
</g>
<!-- Node6&#45;&gt;Node10 -->
<g id="edge9_Node000006_Node000010" class="edge">
<title>Node6&#45;&gt;Node10</title>
<g id="a_edge9_Node000006_Node000010"><a xlink:title=" ">
<path fill="none" stroke="#63b8ff" d="M830.2,-54.98C821.18,-47.15 807.59,-35.34 796.68,-25.86"/>
<polygon fill="#63b8ff" stroke="#63b8ff" points="798.82,-23.09 788.98,-19.17 794.23,-28.37 798.82,-23.09"/>
</a>
</g>
</g>
<!-- Node11 -->
<g id="Node000011" class="node">
<title>Node11</title>
<g id="a_Node000011"><a xlink:title=" ">
<polygon fill="#e0e0e0" stroke="#999999" points="860.5,-19 819.5,-19 819.5,0 860.5,0 860.5,-19"/>
<text text-anchor="middle" x="840" y="-7" font-family="Helvetica,sans-Serif" font-size="10.00">tuple</text>
</a>
</g>
</g>
<!-- Node6&#45;&gt;Node11 -->
<g id="edge10_Node000006_Node000011" class="edge">
<title>Node6&#45;&gt;Node11</title>
<g id="a_edge10_Node000006_Node000011"><a xlink:title=" ">
<path fill="none" stroke="#63b8ff" d="M840,-54.75C840,-47.8 840,-37.85 840,-29.13"/>
<polygon fill="#63b8ff" stroke="#63b8ff" points="843.5,-29.09 840,-19.09 836.5,-29.09 843.5,-29.09"/>
</a>
</g>
</g>
<!-- Node12&#45;&gt;Node9 -->
<g id="edge14_Node000012_Node000009" class="edge">
<title>Node12&#45;&gt;Node9</title>
<g id="a_edge14_Node000012_Node000009"><a xlink:title=" ">
<path fill="none" stroke="#63b8ff" d="M552.02,-164.74C540.38,-139.09 506.19,-63.78 490.3,-28.78"/>
<polygon fill="#63b8ff" stroke="#63b8ff" points="493.32,-26.97 486,-19.31 486.95,-29.86 493.32,-26.97"/>
</a>
</g>
</g>
<!-- Node13 -->
<g id="Node000013" class="node">
<title>Node13</title>
<g id="a_Node000013"><a xlink:href="Config_8hpp.html" target="_top" xlink:title="Contains compile time settings for the project, such as Eigen plugins.">
<polygon fill="white" stroke="#666666" points="319,-129 209,-129 209,-110 319,-110 319,-129"/>
<text text-anchor="middle" x="264" y="-117" font-family="Helvetica,sans-Serif" font-size="10.00">medusa/Config.hpp</text>
</a>
</g>
</g>
<!-- Node12&#45;&gt;Node13 -->
<g id="edge12_Node000012_Node000013" class="edge">
<title>Node12&#45;&gt;Node13</title>
<g id="a_edge12_Node000012_Node000013"><a xlink:title=" ">
<path fill="none" stroke="#63b8ff" d="M509.09,-164.98C457.94,-155.7 376.08,-140.84 321.2,-130.88"/>
<polygon fill="#63b8ff" stroke="#63b8ff" points="321.75,-127.42 311.28,-129.08 320.5,-134.31 321.75,-127.42"/>
</a>
</g>
</g>
<!-- Node14 -->
<g id="Node000014" class="node">
<title>Node14</title>
<g id="a_Node000014"><a xlink:title=" ">
<polygon fill="#e0e0e0" stroke="#999999" points="508,-129 460,-129 460,-110 508,-110 508,-129"/>
<text text-anchor="middle" x="484" y="-117" font-family="Helvetica,sans-Serif" font-size="10.00">iosfwd</text>
</a>
</g>
</g>
<!-- Node12&#45;&gt;Node14 -->
<g id="edge15_Node000012_Node000014" class="edge">
<title>Node12&#45;&gt;Node14</title>
<g id="a_edge15_Node000012_Node000014"><a xlink:title=" ">
<path fill="none" stroke="#63b8ff" d="M544.43,-164.98C533.58,-157 517.12,-144.88 504.12,-135.31"/>
<polygon fill="#63b8ff" stroke="#63b8ff" points="505.91,-132.28 495.78,-129.17 501.76,-137.92 505.91,-132.28"/>
</a>
</g>
</g>
<!-- Node13&#45;&gt;Node8 -->
<g id="edge13_Node000013_Node000008" class="edge">
<title>Node13&#45;&gt;Node8</title>
<g id="a_edge13_Node000013_Node000008"><a xlink:title=" ">
<path fill="none" stroke="#63b8ff" d="M273.33,-109.66C292.63,-91.38 337.17,-49.18 361.46,-26.17"/>
<polygon fill="#63b8ff" stroke="#63b8ff" points="364.01,-28.58 368.86,-19.16 359.19,-23.5 364.01,-28.58"/>
</a>
</g>
</g>
<!-- Node15&#45;&gt;Node3 -->
<g id="edge33_Node000015_Node000003" class="edge">
<title>Node15&#45;&gt;Node3</title>
<g id="a_edge33_Node000015_Node000003"><a xlink:title=" ">
<path fill="none" stroke="#63b8ff" d="M903.1,-340.6C909.72,-331.08 917.51,-317.99 921,-305 937.17,-244.9 953.96,-215.8 918,-165 908.42,-151.47 867.99,-137.77 838.21,-129.22"/>
<polygon fill="#63b8ff" stroke="#63b8ff" points="839.15,-125.85 828.58,-126.52 837.26,-132.59 839.15,-125.85"/>
</a>
</g>
</g>
<!-- Node15&#45;&gt;Node4 -->
<g id="edge34_Node000015_Node000004" class="edge">
<title>Node15&#45;&gt;Node4</title>
<g id="a_edge34_Node000015_Node000004"><a xlink:title=" ">
<path fill="none" stroke="#63b8ff" d="M970.29,-349.03C1035.76,-339.43 1125.41,-314.51 1170,-250 1193.43,-216.11 1167.14,-188.07 1133,-165 1097.51,-141.02 1051.51,-129.62 1011.71,-124.33"/>
<polygon fill="#63b8ff" stroke="#63b8ff" points="1012.09,-120.85 1001.74,-123.11 1011.24,-127.8 1012.09,-120.85"/>
</a>
</g>
</g>
<!-- Node16 -->
<g id="Node000016" class="node">
<title>Node16</title>
<g id="a_Node000016"><a xlink:href="Gaussian__fwd_8hpp.html" target="_top" xlink:title="Declaration of Gaussian RBF.">
<polygon fill="white" stroke="#666666" points="512.5,-305 407.5,-305 407.5,-286 512.5,-286 512.5,-305"/>
<text text-anchor="middle" x="460" y="-293" font-family="Helvetica,sans-Serif" font-size="10.00">Gaussian_fwd.hpp</text>
</a>
</g>
</g>
<!-- Node15&#45;&gt;Node16 -->
<g id="edge17_Node000015_Node000016" class="edge">
<title>Node15&#45;&gt;Node16</title>
<g id="a_edge17_Node000015_Node000016"><a xlink:title=" ">
<path fill="none" stroke="#63b8ff" d="M813.77,-344.41C730.23,-333.09 599.51,-315.39 522.54,-304.97"/>
<polygon fill="#63b8ff" stroke="#63b8ff" points="522.89,-301.48 512.51,-303.61 521.95,-308.42 522.89,-301.48"/>
</a>
</g>
</g>
<!-- Node20 -->
<g id="Node000020" class="node">
<title>Node20</title>
<g id="a_Node000020"><a xlink:href="numutils_8hpp.html" target="_top" xlink:title="Declaration of numerical utilities.">
<polygon fill="white" stroke="#666666" points="911.5,-305 744.5,-305 744.5,-286 911.5,-286 911.5,-305"/>
<text text-anchor="middle" x="828" y="-293" font-family="Helvetica,sans-Serif" font-size="10.00">medusa/bits/utils/numutils.hpp</text>
</a>
</g>
</g>
<!-- Node15&#45;&gt;Node20 -->
<g id="edge35_Node000015_Node000020" class="edge">
<title>Node15&#45;&gt;Node20</title>
<g id="a_edge35_Node000015_Node000020"><a xlink:title=" ">
<path fill="none" stroke="#63b8ff" d="M876.51,-340.84C867.03,-332.17 854.89,-321.08 845.12,-312.15"/>
<polygon fill="#63b8ff" stroke="#63b8ff" points="847.33,-309.43 837.59,-305.27 842.61,-314.6 847.33,-309.43"/>
</a>
</g>
</g>
<!-- Node16&#45;&gt;Node3 -->
<g id="edge20_Node000016_Node000003" class="edge">
<title>Node16&#45;&gt;Node3</title>
<g id="a_edge20_Node000016_Node000003"><a xlink:title=" ">
<path fill="none" stroke="#63b8ff" d="M494.73,-285.92C550.24,-271.16 660.93,-237.28 742,-184 761.78,-171 780.33,-150.98 792.11,-136.9"/>
<polygon fill="#63b8ff" stroke="#63b8ff" points="794.93,-138.99 798.52,-129.02 789.5,-134.57 794.93,-138.99"/>
</a>
</g>
</g>
<!-- Node16&#45;&gt;Node13 -->
<g id="edge18_Node000016_Node000013" class="edge">
<title>Node16&#45;&gt;Node13</title>
<g id="a_edge18_Node000016_Node000013"><a xlink:title=" ">
<path fill="none" stroke="#63b8ff" d="M407.49,-293.41C338.14,-290.73 221.67,-281.52 195,-250 164.17,-213.56 215.44,-161.08 245.14,-135.57"/>
<polygon fill="#63b8ff" stroke="#63b8ff" points="247.43,-138.22 252.86,-129.12 242.94,-132.85 247.43,-138.22"/>
</a>
</g>
</g>
<!-- Node16&#45;&gt;Node14 -->
<g id="edge19_Node000016_Node000014" class="edge">
<title>Node16&#45;&gt;Node14</title>
<g id="a_edge19_Node000016_Node000014"><a xlink:title=" ">
<path fill="none" stroke="#63b8ff" d="M461.22,-285.63C464.96,-258.52 476.3,-176.32 481.43,-139.13"/>
<polygon fill="#63b8ff" stroke="#63b8ff" points="484.91,-139.53 482.81,-129.14 477.97,-138.57 484.91,-139.53"/>
</a>
</g>
</g>
<!-- Node17 -->
<g id="Node000017" class="node">
<title>Node17</title>
<g id="a_Node000017"><a xlink:href="Operators__fwd_8hpp.html" target="_top" xlink:title="File defining basic differential operator families.">
<polygon fill="white" stroke="#666666" points="312,-244.5 204,-244.5 204,-225.5 312,-225.5 312,-244.5"/>
<text text-anchor="middle" x="258" y="-232.5" font-family="Helvetica,sans-Serif" font-size="10.00">Operators_fwd.hpp</text>
</a>
</g>
</g>
<!-- Node16&#45;&gt;Node17 -->
<g id="edge21_Node000016_Node000017" class="edge">
<title>Node16&#45;&gt;Node17</title>
<g id="a_edge21_Node000016_Node000017"><a xlink:title=" ">
<path fill="none" stroke="#63b8ff" d="M430.63,-285.99C395.4,-275.79 336.21,-258.65 297.13,-247.33"/>
<polygon fill="#63b8ff" stroke="#63b8ff" points="297.99,-243.94 287.41,-244.52 296.04,-250.66 297.99,-243.94"/>
</a>
</g>
</g>
<!-- Node17&#45;&gt;Node4 -->
<g id="edge32_Node000017_Node000004" class="edge">
<title>Node17&#45;&gt;Node4</title>
<g id="a_edge32_Node000017_Node000004"><a xlink:title=" ">
<path fill="none" stroke="#63b8ff" d="M312.01,-232.51C402.13,-229.12 588.43,-218.23 742,-184 797.53,-171.62 859.58,-147.68 894.99,-132.99"/>
<polygon fill="#63b8ff" stroke="#63b8ff" points="896.38,-136.2 904.25,-129.11 893.67,-129.75 896.38,-136.2"/>
</a>
</g>
</g>
<!-- Node17&#45;&gt;Node8 -->
<g id="edge24_Node000017_Node000008" class="edge">
<title>Node17&#45;&gt;Node8</title>
<g id="a_edge24_Node000017_Node000008"><a xlink:title=" ">
<path fill="none" stroke="#63b8ff" d="M203.77,-226.11C137.98,-215.98 34.37,-198.04 23,-184 17.69,-177.44 19.28,-172.58 23,-165 82.49,-43.67 267.48,-17.62 344.17,-12.03"/>
<polygon fill="#63b8ff" stroke="#63b8ff" points="344.5,-15.51 354.25,-11.37 344.04,-8.53 344.5,-15.51"/>
</a>
</g>
</g>
<!-- Node17&#45;&gt;Node9 -->
<g id="edge23_Node000017_Node000009" class="edge">
<title>Node17&#45;&gt;Node9</title>
<g id="a_edge23_Node000017_Node000009"><a xlink:title=" ">
<path fill="none" stroke="#63b8ff" d="M312.29,-226.04C342.09,-219.23 377.98,-206.75 403,-184 427.45,-161.77 461.83,-68.65 475.76,-28.76"/>
<polygon fill="#63b8ff" stroke="#63b8ff" points="479.1,-29.82 479.06,-19.23 472.48,-27.54 479.1,-29.82"/>
</a>
</g>
</g>
<!-- Node17&#45;&gt;Node13 -->
<g id="edge22_Node000017_Node000013" class="edge">
<title>Node17&#45;&gt;Node13</title>
<g id="a_edge22_Node000017_Node000013"><a xlink:title=" ">
<path fill="none" stroke="#63b8ff" d="M252.21,-225.1C244.4,-211.98 232.13,-186.67 238,-165 240.66,-155.19 246.07,-145.33 251.28,-137.39"/>
<polygon fill="#63b8ff" stroke="#63b8ff" points="254.23,-139.27 257.11,-129.07 248.5,-135.25 254.23,-139.27"/>
</a>
</g>
</g>
<!-- Node18 -->
<g id="Node000018" class="node">
<title>Node18</title>
<g id="a_Node000018"><a xlink:title=" ">
<polygon fill="#e0e0e0" stroke="#999999" points="172.5,-129 103.5,-129 103.5,-110 172.5,-110 172.5,-129"/>
<text text-anchor="middle" x="138" y="-117" font-family="Helvetica,sans-Serif" font-size="10.00">Eigen/Core</text>
</a>
</g>
</g>
<!-- Node17&#45;&gt;Node18 -->
<g id="edge25_Node000017_Node000018" class="edge">
<title>Node17&#45;&gt;Node18</title>
<g id="a_edge25_Node000017_Node000018"><a xlink:title=" ">
<path fill="none" stroke="#63b8ff" d="M248.98,-225.47C228.91,-206.49 180.32,-160.53 154.61,-136.21"/>
<polygon fill="#63b8ff" stroke="#63b8ff" points="156.79,-133.46 147.12,-129.13 151.98,-138.54 156.79,-133.46"/>
</a>
</g>
</g>
<!-- Node19 -->
<g id="Node000019" class="node">
<title>Node19</title>
<g id="a_Node000019"><a xlink:href="Monomials__fwd_8hpp.html" target="_top" xlink:title="Declaration of Monomial basis.">
<polygon fill="white" stroke="#666666" points="394,-184 280,-184 280,-165 394,-165 394,-184"/>
<text text-anchor="middle" x="337" y="-172" font-family="Helvetica,sans-Serif" font-size="10.00">Monomials_fwd.hpp</text>
</a>
</g>
</g>
<!-- Node17&#45;&gt;Node19 -->
<g id="edge26_Node000017_Node000019" class="edge">
<title>Node17&#45;&gt;Node19</title>
<g id="a_edge26_Node000017_Node000019"><a xlink:title=" ">
<path fill="none" stroke="#63b8ff" d="M269.66,-225.37C282.14,-216.12 302.18,-201.28 317.16,-190.19"/>
<polygon fill="#63b8ff" stroke="#63b8ff" points="319.34,-192.93 325.3,-184.17 315.18,-187.31 319.34,-192.93"/>
</a>
</g>
</g>
<!-- Node19&#45;&gt;Node3 -->
<g id="edge28_Node000019_Node000003" class="edge">
<title>Node19&#45;&gt;Node3</title>
<g id="a_edge28_Node000019_Node000003"><a xlink:title=" ">
<path fill="none" stroke="#63b8ff" d="M394.08,-170.11C477.22,-164.62 636.32,-151.99 770,-129 770.46,-128.92 770.93,-128.84 771.39,-128.75"/>
<polygon fill="#63b8ff" stroke="#63b8ff" points="772.28,-132.14 781.37,-126.7 770.87,-125.29 772.28,-132.14"/>
</a>
</g>
</g>
<!-- Node19&#45;&gt;Node9 -->
<g id="edge29_Node000019_Node000009" class="edge">
<title>Node19&#45;&gt;Node9</title>
<g id="a_edge29_Node000019_Node000009"><a xlink:title=" ">
<path fill="none" stroke="#63b8ff" d="M340.45,-164.8C349.11,-143.78 373.6,-89.45 408,-55 420.95,-42.03 438.4,-31.3 453.1,-23.63"/>
<polygon fill="#63b8ff" stroke="#63b8ff" points="454.91,-26.64 462.29,-19.04 451.79,-20.38 454.91,-26.64"/>
</a>
</g>
</g>
<!-- Node19&#45;&gt;Node13 -->
<g id="edge27_Node000019_Node000013" class="edge">
<title>Node19&#45;&gt;Node13</title>
<g id="a_edge27_Node000019_Node000013"><a xlink:title=" ">
<path fill="none" stroke="#63b8ff" d="M325.27,-164.98C314.27,-157 297.58,-144.88 284.4,-135.31"/>
<polygon fill="#63b8ff" stroke="#63b8ff" points="286.09,-132.21 275.94,-129.17 281.98,-137.88 286.09,-132.21"/>
</a>
</g>
</g>
<!-- Node19&#45;&gt;Node14 -->
<g id="edge31_Node000019_Node000014" class="edge">
<title>Node19&#45;&gt;Node14</title>
<g id="a_edge31_Node000019_Node000014"><a xlink:title=" ">
<path fill="none" stroke="#63b8ff" d="M360.62,-164.98C384.9,-156.23 422.95,-142.51 450.37,-132.62"/>
<polygon fill="#63b8ff" stroke="#63b8ff" points="451.73,-135.85 459.95,-129.17 449.36,-129.27 451.73,-135.85"/>
</a>
</g>
</g>
<!-- Node19&#45;&gt;Node18 -->
<g id="edge30_Node000019_Node000018" class="edge">
<title>Node19&#45;&gt;Node18</title>
<g id="a_edge30_Node000019_Node000018"><a xlink:title=" ">
<path fill="none" stroke="#63b8ff" d="M305.03,-164.98C271.18,-155.97 217.6,-141.7 180.29,-131.76"/>
<polygon fill="#63b8ff" stroke="#63b8ff" points="180.79,-128.27 170.22,-129.08 178.99,-135.04 180.79,-128.27"/>
</a>
</g>
</g>
<!-- Node20&#45;&gt;Node3 -->
<g id="edge51_Node000020_Node000003" class="edge">
<title>Node20&#45;&gt;Node3</title>
<g id="a_edge51_Node000020_Node000003"><a xlink:title=" ">
<path fill="none" stroke="#63b8ff" d="M853.85,-285.99C870.27,-279.09 890.2,-267.58 900,-250 918.4,-217 920.27,-196.88 900,-165 892.83,-153.72 862.65,-140.75 838.21,-131.73"/>
<polygon fill="#63b8ff" stroke="#63b8ff" points="839.1,-128.33 828.5,-128.24 836.73,-134.92 839.1,-128.33"/>
</a>
</g>
</g>
<!-- Node20&#45;&gt;Node4 -->
<g id="edge37_Node000020_Node000004" class="edge">
<title>Node20&#45;&gt;Node4</title>
<g id="a_edge37_Node000020_Node000004"><a xlink:title=" ">
<path fill="none" stroke="#63b8ff" d="M911.87,-294.89C996.75,-293.29 1119.69,-284.78 1150,-250 1204.17,-187.83 1066.52,-148.53 982.82,-131.05"/>
<polygon fill="#63b8ff" stroke="#63b8ff" points="983.4,-127.6 972.9,-129.03 982,-134.46 983.4,-127.6"/>
</a>
</g>
</g>
<!-- Node20&#45;&gt;Node13 -->
<g id="edge36_Node000020_Node000013" class="edge">
<title>Node20&#45;&gt;Node13</title>
<g id="a_edge36_Node000020_Node000013"><a xlink:title=" ">
<path fill="none" stroke="#63b8ff" d="M744.24,-289.71C604.68,-279.87 333.65,-252.29 271,-184 260.11,-172.13 259.32,-153.3 260.68,-139.22"/>
<polygon fill="#63b8ff" stroke="#63b8ff" points="264.17,-139.56 262.08,-129.17 257.23,-138.6 264.17,-139.56"/>
</a>
</g>
</g>
<!-- Node20&#45;&gt;Node21 -->
<g id="edge38_Node000020_Node000021" class="edge">
<title>Node20&#45;&gt;Node21</title>
<g id="a_edge38_Node000020_Node000021"><a xlink:title=" ">
<path fill="none" stroke="#63b8ff" d="M744.45,-289.83C623.24,-282.78 391.63,-268.28 195,-250 181.44,-248.74 167.06,-247.23 153.11,-245.67"/>
<polygon fill="#63b8ff" stroke="#63b8ff" points="153.38,-242.18 143.05,-244.53 152.59,-249.14 153.38,-242.18"/>
</a>
</g>
</g>
<!-- Node23 -->
<g id="Node000023" class="node">
<title>Node23</title>
<g id="a_Node000023"><a xlink:href="Range_8hpp.html" target="_top" xlink:title="Implementation of Range.">
<polygon fill="white" stroke="#666666" points="890.5,-244.5 729.5,-244.5 729.5,-225.5 890.5,-225.5 890.5,-244.5"/>
<text text-anchor="middle" x="810" y="-232.5" font-family="Helvetica,sans-Serif" font-size="10.00">medusa/bits/types/Range.hpp</text>
</a>
</g>
</g>
<!-- Node20&#45;&gt;Node23 -->
<g id="edge42_Node000020_Node000023" class="edge">
<title>Node20&#45;&gt;Node23</title>
<g id="a_edge42_Node000020_Node000023"><a xlink:title=" ">
<path fill="none" stroke="#63b8ff" d="M825.34,-285.87C822.82,-277.66 818.94,-265.04 815.71,-254.55"/>
<polygon fill="#63b8ff" stroke="#63b8ff" points="818.95,-253.2 812.67,-244.67 812.26,-255.25 818.95,-253.2"/>
</a>
</g>
</g>
<!-- Node22 -->
<g id="Node000022" class="node">
<title>Node22</title>
<g id="a_Node000022"><a xlink:href="Vec__fwd_8hpp.html" target="_top" xlink:title="Declaration of Vec.">
<polygon fill="white" stroke="#666666" points="109.5,-184 32.5,-184 32.5,-165 109.5,-165 109.5,-184"/>
<text text-anchor="middle" x="71" y="-172" font-family="Helvetica,sans-Serif" font-size="10.00">Vec_fwd.hpp</text>
</a>
</g>
</g>
<!-- Node21&#45;&gt;Node22 -->
<g id="edge39_Node000021_Node000022" class="edge">
<title>Node21&#45;&gt;Node22</title>
<g id="a_edge39_Node000021_Node000022"><a xlink:title=" ">
<path fill="none" stroke="#63b8ff" d="M73.56,-225.37C73.14,-217.25 72.5,-204.81 71.97,-194.39"/>
<polygon fill="#63b8ff" stroke="#63b8ff" points="75.45,-193.97 71.44,-184.17 68.46,-194.33 75.45,-193.97"/>
</a>
</g>
</g>
<!-- Node22&#45;&gt;Node13 -->
<g id="edge40_Node000022_Node000013" class="edge">
<title>Node22&#45;&gt;Node13</title>
<g id="a_edge40_Node000022_Node000013"><a xlink:title=" ">
<path fill="none" stroke="#63b8ff" d="M102.01,-164.98C134.83,-155.97 186.8,-141.7 222.99,-131.76"/>
<polygon fill="#63b8ff" stroke="#63b8ff" points="224.03,-135.11 232.75,-129.08 222.18,-128.36 224.03,-135.11"/>
</a>
</g>
</g>
<!-- Node22&#45;&gt;Node18 -->
<g id="edge41_Node000022_Node000018" class="edge">
<title>Node22&#45;&gt;Node18</title>
<g id="a_edge41_Node000022_Node000018"><a xlink:title=" ">
<path fill="none" stroke="#63b8ff" d="M81.76,-164.98C91.77,-157.07 106.89,-145.11 118.93,-135.58"/>
<polygon fill="#63b8ff" stroke="#63b8ff" points="121.37,-138.12 127.04,-129.17 117.03,-132.63 121.37,-138.12"/>
</a>
</g>
</g>
<!-- Node24 -->
<g id="Node000024" class="node">
<title>Node24</title>
<g id="a_Node000024"><a xlink:href="Range__fwd_8hpp.html" target="_top" xlink:title="Declaration of Range.">
<polygon fill="white" stroke="#666666" points="732.5,-184 641.5,-184 641.5,-165 732.5,-165 732.5,-184"/>
<text text-anchor="middle" x="687" y="-172" font-family="Helvetica,sans-Serif" font-size="10.00">Range_fwd.hpp</text>
</a>
</g>
</g>
<!-- Node23&#45;&gt;Node24 -->
<g id="edge43_Node000023_Node000024" class="edge">
<title>Node23&#45;&gt;Node24</title>
<g id="a_edge43_Node000023_Node000024"><a xlink:title=" ">
<path fill="none" stroke="#63b8ff" d="M792.11,-225.49C771.62,-215.75 737.81,-199.66 714.08,-188.38"/>
<polygon fill="#63b8ff" stroke="#63b8ff" points="715.44,-185.15 704.91,-184.02 712.43,-191.47 715.44,-185.15"/>
</a>
</g>
</g>
<!-- Node27 -->
<g id="Node000027" class="node">
<title>Node27</title>
<g id="a_Node000027"><a xlink:title=" ">
<polygon fill="#e0e0e0" stroke="#999999" points="891,-184 827,-184 827,-165 891,-165 891,-184"/>
<text text-anchor="middle" x="859" y="-172" font-family="Helvetica,sans-Serif" font-size="10.00">algorithm</text>
</a>
</g>
</g>
<!-- Node23&#45;&gt;Node27 -->
<g id="edge50_Node000023_Node000027" class="edge">
<title>Node23&#45;&gt;Node27</title>
<g id="a_edge50_Node000023_Node000027"><a xlink:title=" ">
<path fill="none" stroke="#63b8ff" d="M817.23,-225.37C824.54,-216.64 836.02,-202.93 845.1,-192.09"/>
<polygon fill="#63b8ff" stroke="#63b8ff" points="848,-194.08 851.74,-184.17 842.64,-189.59 848,-194.08"/>
</a>
</g>
</g>
<!-- Node24&#45;&gt;Node4 -->
<g id="edge45_Node000024_Node000004" class="edge">
<title>Node24&#45;&gt;Node4</title>
<g id="a_edge45_Node000024_Node000004"><a xlink:title=" ">
<path fill="none" stroke="#63b8ff" d="M725.08,-164.98C765.99,-155.84 831.11,-141.27 875.62,-131.32"/>
<polygon fill="#63b8ff" stroke="#63b8ff" points="876.63,-134.68 885.62,-129.08 875.1,-127.85 876.63,-134.68"/>
</a>
</g>
</g>
<!-- Node24&#45;&gt;Node8 -->
<g id="edge48_Node000024_Node000008" class="edge">
<title>Node24&#45;&gt;Node8</title>
<g id="a_edge48_Node000024_Node000008"><a xlink:title=" ">
<path fill="none" stroke="#63b8ff" d="M670.82,-164.97C620.25,-138.29 464.89,-56.34 403.42,-23.91"/>
<polygon fill="#63b8ff" stroke="#63b8ff" points="404.87,-20.72 394.39,-19.15 401.6,-26.91 404.87,-20.72"/>
</a>
</g>
</g>
<!-- Node24&#45;&gt;Node13 -->
<g id="edge44_Node000024_Node000013" class="edge">
<title>Node24&#45;&gt;Node13</title>
<g id="a_edge44_Node000024_Node000013"><a xlink:title=" ">
<path fill="none" stroke="#63b8ff" d="M641.35,-166.2C638.53,-165.78 635.73,-165.38 633,-165 526.79,-150.24 402.97,-135.89 329.17,-127.64"/>
<polygon fill="#63b8ff" stroke="#63b8ff" points="329.42,-124.15 319.09,-126.52 328.65,-131.1 329.42,-124.15"/>
</a>
</g>
</g>
<!-- Node24&#45;&gt;Node14 -->
<g id="edge49_Node000024_Node000014" class="edge">
<title>Node24&#45;&gt;Node14</title>
<g id="a_edge49_Node000024_Node000014"><a xlink:title=" ">
<path fill="none" stroke="#63b8ff" d="M654.38,-164.98C617.09,-155.25 556.32,-139.38 518.33,-129.46"/>
<polygon fill="#63b8ff" stroke="#63b8ff" points="518.81,-125.97 508.25,-126.83 517.04,-132.74 518.81,-125.97"/>
</a>
</g>
</g>
<!-- Node25 -->
<g id="Node000025" class="node">
<title>Node25</title>
<g id="a_Node000025"><a xlink:href="traits_8hpp.html" target="_top" xlink:title="Type traits definition for vector and scalar fields.">
<polygon fill="white" stroke="#666666" points="760.5,-129 697.5,-129 697.5,-110 760.5,-110 760.5,-129"/>
<text text-anchor="middle" x="729" y="-117" font-family="Helvetica,sans-Serif" font-size="10.00">traits.hpp</text>
</a>
</g>
</g>
<!-- Node24&#45;&gt;Node25 -->
<g id="edge46_Node000024_Node000025" class="edge">
<title>Node24&#45;&gt;Node25</title>
<g id="a_edge46_Node000024_Node000025"><a xlink:title=" ">
<path fill="none" stroke="#63b8ff" d="M693.94,-164.75C699.87,-157.26 708.57,-146.28 715.82,-137.13"/>
<polygon fill="#63b8ff" stroke="#63b8ff" points="718.73,-139.1 722.19,-129.09 713.24,-134.75 718.73,-139.1"/>
</a>
</g>
</g>
<!-- Node26 -->
<g id="Node000026" class="node">
<title>Node26</title>
<g id="a_Node000026"><a xlink:title=" ">
<polygon fill="#e0e0e0" stroke="#999999" points="679,-129 621,-129 621,-110 679,-110 679,-129"/>
<text text-anchor="middle" x="650" y="-117" font-family="Helvetica,sans-Serif" font-size="10.00">memory</text>
</a>
</g>
</g>
<!-- Node24&#45;&gt;Node26 -->
<g id="edge47_Node000024_Node000026" class="edge">
<title>Node24&#45;&gt;Node26</title>
<g id="a_edge47_Node000024_Node000026"><a xlink:title=" ">
<path fill="none" stroke="#63b8ff" d="M680.89,-164.75C675.72,-157.34 668.15,-146.5 661.81,-137.41"/>
<polygon fill="#63b8ff" stroke="#63b8ff" points="664.59,-135.29 656,-129.09 658.85,-139.29 664.59,-135.29"/>
</a>
</g>
</g>
</g>
</svg>

<g id="navigator" transform="translate(0 0)" fill="#404254">
  <rect fill="#f2f5e9" fill-opacity="0.5" stroke="#606060" stroke-width=".5" x="0" y="0" width="60" height="60"/>
  <use id="zoomplus" xlink:href="#zoomPlus" x="17" y="9" onmousedown="handleZoom(evt,'in')"/>
  <use id="zoomminus" xlink:href="#zoomMin" x="42" y="9" onmousedown="handleZoom(evt,'out')"/>
  <use id="reset" xlink:href="#resetDef" x="30" y="36" onmousedown="handleReset()"/>
   <use id="arrowup" xlink:href="#arrowUp" x="0" y="0" onmousedown="handlePan(0,-1)"/>
  <use id="arrowright" xlink:href="#arrowRight" x="0" y="0" onmousedown="handlePan(1,0)"/>
  <use id="arrowdown" xlink:href="#arrowDown" x="0" y="0" onmousedown="handlePan(0,1)"/>
  <use id="arrowleft" xlink:href="#arrowLeft" x="0" y="0" onmousedown="handlePan(-1,0)"/>
</g>
<svg viewBox="0 0 15 15" width="100%" height="30px" preserveAspectRatio="xMaxYMin meet">
 <g id="arrow_out" transform="scale(0.3 0.3)">
  <a xlink:href="WeightFunction_8cpp__incl_org.svg" target="_base">
   <rect id="button" ry="5" rx="5" y="6" x="6" height="38" width="38"
        fill="#f2f5e9" fill-opacity="0.5" stroke="#606060" stroke-width="1.0"/>
   <path id="arrow"
     d="M 11.500037,31.436501 C 11.940474,20.09759 22.043105,11.32322 32.158766,21.979434 L 37.068811,17.246167 C 37.068811,17.246167 37.088388,32 37.088388,32 L 22.160133,31.978069 C 22.160133,31.978069 26.997745,27.140456 26.997745,27.140456 C 18.528582,18.264221 13.291696,25.230495 11.500037,31.436501 z"
     style="fill:#404040;"/>
  </a>
 </g>
</svg>

<style type='text/css'>
<![CDATA[
[data-mouse-over-selected='false'] { opacity: 0.7; }
[data-mouse-over-selected='true']  { opacity: 1.0; }
]]>
</style>
<script type="application/ecmascript"><![CDATA[
document.addEventListener('DOMContentLoaded', (event) => {
  highlightEdges();
  highlightAdjacentNodes();
});
]]></script>
</svg>
