<?xml version="1.0" encoding="UTF-8" standalone="no"?>
<!DOCTYPE svg PUBLIC "-//W3C//DTD SVG 1.1//EN"
 "http://www.w3.org/Graphics/SVG/1.1/DTD/svg11.dtd">
<!-- Generated by graphviz version 2.43.0 (0)
 -->
<!-- Title: include/medusa/bits/approximations/WLS.hpp Pages: 1 -->
<svg width="1238pt" height="434pt"
 viewBox="0.00 0.00 1238.00 434.00" xmlns="http://www.w3.org/2000/svg" xmlns:xlink="http://www.w3.org/1999/xlink">
<g id="graph0" class="graph" transform="scale(1 1) rotate(0) translate(4 430)">
<title>include/medusa/bits/approximations/WLS.hpp</title>
<!-- Node1 -->
<g id="Node000001" class="node">
<title>Node1</title>
<g id="a_Node000001"><a xlink:title="Implementation of weighted least squares approximation.">
<polygon fill="#999999" stroke="#666666" points="495,-426 354,-426 354,-396 495,-396 495,-426"/>
<text text-anchor="start" x="362" y="-414" font-family="Helvetica,sans-Serif" font-size="10.00">include/medusa/bits</text>
<text text-anchor="middle" x="424.5" y="-403" font-family="Helvetica,sans-Serif" font-size="10.00">/approximations/WLS.hpp</text>
</a>
</g>
</g>
<!-- Node2 -->
<g id="Node000002" class="node">
<title>Node2</title>
<g id="a_Node000002"><a xlink:href="WLS__fwd_8hpp.html" target="_top" xlink:title="Declaration of weighted least squares approximation.">
<polygon fill="white" stroke="#666666" points="638,-305 557,-305 557,-286 638,-286 638,-305"/>
<text text-anchor="middle" x="597.5" y="-293" font-family="Helvetica,sans-Serif" font-size="10.00">WLS_fwd.hpp</text>
</a>
</g>
</g>
<!-- Node1&#45;&gt;Node2 -->
<g id="edge1_Node000001_Node000002" class="edge">
<title>Node1&#45;&gt;Node2</title>
<g id="a_edge1_Node000001_Node000002"><a xlink:title=" ">
<path fill="none" stroke="#63b8ff" d="M468.28,-395.94C490.76,-387.52 517.89,-375.44 539.5,-360 557.64,-347.04 574.35,-327.6 585.12,-313.65"/>
<polygon fill="#63b8ff" stroke="#63b8ff" points="588.11,-315.49 591.31,-305.39 582.51,-311.3 588.11,-315.49"/>
</a>
</g>
</g>
<!-- Node6 -->
<g id="Node000006" class="node">
<title>Node6</title>
<g id="a_Node000006"><a xlink:href="assert_8hpp.html" target="_top" xlink:title="Implementation of custom assert and debug utilities.">
<polygon fill="white" stroke="#666666" points="155,-129 0,-129 0,-110 155,-110 155,-129"/>
<text text-anchor="middle" x="77.5" y="-117" font-family="Helvetica,sans-Serif" font-size="10.00">medusa/bits/utils/assert.hpp</text>
</a>
</g>
</g>
<!-- Node1&#45;&gt;Node6 -->
<g id="edge36_Node000001_Node000006" class="edge">
<title>Node1&#45;&gt;Node6</title>
<g id="a_edge36_Node000001_Node000006"><a xlink:title=" ">
<path fill="none" stroke="#63b8ff" d="M353.53,-405.62C232.83,-396.2 0.5,-368.7 0.5,-296.5 0.5,-296.5 0.5,-296.5 0.5,-239.5 0.5,-205.33 0.69,-193.53 19.5,-165 27.8,-152.42 40.87,-141.94 52.51,-134.31"/>
<polygon fill="#63b8ff" stroke="#63b8ff" points="54.36,-137.28 61.03,-129.05 50.68,-131.33 54.36,-137.28"/>
</a>
</g>
</g>
<!-- Node22 -->
<g id="Node000022" class="node">
<title>Node22</title>
<g id="a_Node000022"><a xlink:href="Range_8hpp.html" target="_top" xlink:title="Implementation of Range.">
<polygon fill="white" stroke="#666666" points="190,-250 29,-250 29,-231 190,-231 190,-250"/>
<text text-anchor="middle" x="109.5" y="-238" font-family="Helvetica,sans-Serif" font-size="10.00">medusa/bits/types/Range.hpp</text>
</a>
</g>
</g>
<!-- Node1&#45;&gt;Node22 -->
<g id="edge37_Node000001_Node000022" class="edge">
<title>Node1&#45;&gt;Node22</title>
<g id="a_edge37_Node000001_Node000022"><a xlink:title=" ">
<path fill="none" stroke="#63b8ff" d="M398.19,-395.92C338.38,-363.93 192.9,-286.11 134.43,-254.84"/>
<polygon fill="#63b8ff" stroke="#63b8ff" points="135.98,-251.69 125.51,-250.06 132.67,-257.87 135.98,-251.69"/>
</a>
</g>
</g>
<!-- Node24 -->
<g id="Node000024" class="node">
<title>Node24</title>
<g id="a_Node000024"><a xlink:href="numutils_8hpp.html" target="_top" xlink:title="Declaration of numerical utilities.">
<polygon fill="white" stroke="#666666" points="464,-305 297,-305 297,-286 464,-286 464,-305"/>
<text text-anchor="middle" x="380.5" y="-293" font-family="Helvetica,sans-Serif" font-size="10.00">medusa/bits/utils/numutils.hpp</text>
</a>
</g>
</g>
<!-- Node1&#45;&gt;Node24 -->
<g id="edge40_Node000001_Node000024" class="edge">
<title>Node1&#45;&gt;Node24</title>
<g id="a_edge40_Node000001_Node000024"><a xlink:title=" ">
<path fill="none" stroke="#63b8ff" d="M416.61,-395.86C411.31,-386.01 404.43,-372.45 399.5,-360 393.67,-345.27 388.61,-328.02 385.19,-315.22"/>
<polygon fill="#63b8ff" stroke="#63b8ff" points="388.51,-314.09 382.62,-305.29 381.73,-315.85 388.51,-314.09"/>
</a>
</g>
</g>
<!-- Node27 -->
<g id="Node000027" class="node">
<title>Node27</title>
<g id="a_Node000027"><a xlink:href="JacobiSVDWrapper_8hpp.html" target="_top" xlink:title="Implementation of JacobiSVDWrapper.">
<polygon fill="white" stroke="#666666" points="971.5,-360 843.5,-360 843.5,-341 971.5,-341 971.5,-360"/>
<text text-anchor="middle" x="907.5" y="-348" font-family="Helvetica,sans-Serif" font-size="10.00">JacobiSVDWrapper.hpp</text>
</a>
</g>
</g>
<!-- Node1&#45;&gt;Node27 -->
<g id="edge49_Node000001_Node000027" class="edge">
<title>Node1&#45;&gt;Node27</title>
<g id="a_edge49_Node000001_Node000027"><a xlink:title=" ">
<path fill="none" stroke="#63b8ff" d="M495.25,-401.43C585.54,-390.5 741.02,-371.66 833.05,-360.52"/>
<polygon fill="#63b8ff" stroke="#63b8ff" points="833.62,-363.97 843.13,-359.3 832.78,-357.02 833.62,-363.97"/>
</a>
</g>
</g>
<!-- Node30 -->
<g id="Node000030" class="node">
<title>Node30</title>
<g id="a_Node000030"><a xlink:href="WLSApproximant_8hpp.html" target="_top" xlink:title="Implementation of the function, obtained by WLS approximation.">
<polygon fill="white" stroke="#666666" points="530.5,-360 408.5,-360 408.5,-341 530.5,-341 530.5,-360"/>
<text text-anchor="middle" x="469.5" y="-348" font-family="Helvetica,sans-Serif" font-size="10.00">WLSApproximant.hpp</text>
</a>
</g>
</g>
<!-- Node1&#45;&gt;Node30 -->
<g id="edge54_Node000001_Node000030" class="edge">
<title>Node1&#45;&gt;Node30</title>
<g id="a_edge54_Node000001_Node000030"><a xlink:title=" ">
<path fill="none" stroke="#63b8ff" d="M435.39,-395.84C441.79,-387.52 449.92,-376.96 456.63,-368.23"/>
<polygon fill="#63b8ff" stroke="#63b8ff" points="459.43,-370.33 462.76,-360.27 453.89,-366.06 459.43,-370.33"/>
</a>
</g>
</g>
<!-- Node3 -->
<g id="Node000003" class="node">
<title>Node3</title>
<g id="a_Node000003"><a xlink:href="Config_8hpp.html" target="_top" xlink:title="Contains compile time settings for the project, such as Eigen plugins.">
<polygon fill="white" stroke="#666666" points="648.5,-129 538.5,-129 538.5,-110 648.5,-110 648.5,-129"/>
<text text-anchor="middle" x="593.5" y="-117" font-family="Helvetica,sans-Serif" font-size="10.00">medusa/Config.hpp</text>
</a>
</g>
</g>
<!-- Node2&#45;&gt;Node3 -->
<g id="edge2_Node000002_Node000003" class="edge">
<title>Node2&#45;&gt;Node3</title>
<g id="a_edge2_Node000002_Node000003"><a xlink:title=" ">
<path fill="none" stroke="#63b8ff" d="M591.66,-285.76C586.25,-277.1 578.6,-263.26 575.5,-250 570.67,-229.33 582.51,-169.74 589.23,-139.13"/>
<polygon fill="#63b8ff" stroke="#63b8ff" points="592.67,-139.82 591.44,-129.29 585.84,-138.28 592.67,-139.82"/>
</a>
</g>
</g>
<!-- Node5 -->
<g id="Node000005" class="node">
<title>Node5</title>
<g id="a_Node000005"><a xlink:href="Range__fwd_8hpp.html" target="_top" xlink:title="Declaration of Range.">
<polygon fill="white" stroke="#666666" points="326.5,-195 186.5,-195 186.5,-165 326.5,-165 326.5,-195"/>
<text text-anchor="start" x="194.5" y="-183" font-family="Helvetica,sans-Serif" font-size="10.00">medusa/bits/types/Range</text>
<text text-anchor="middle" x="256.5" y="-172" font-family="Helvetica,sans-Serif" font-size="10.00">_fwd.hpp</text>
</a>
</g>
</g>
<!-- Node2&#45;&gt;Node5 -->
<g id="edge4_Node000002_Node000005" class="edge">
<title>Node2&#45;&gt;Node5</title>
<g id="a_edge4_Node000002_Node000005"><a xlink:title=" ">
<path fill="none" stroke="#63b8ff" d="M570.95,-285.98C543.33,-277.09 498.84,-262.71 460.5,-250 408.1,-232.63 348.28,-212.34 307.03,-198.28"/>
<polygon fill="#63b8ff" stroke="#63b8ff" points="308.07,-194.94 297.48,-195.02 305.81,-201.56 308.07,-194.94"/>
</a>
</g>
</g>
<!-- Node15 -->
<g id="Node000015" class="node">
<title>Node15</title>
<g id="a_Node000015"><a xlink:title=" ">
<polygon fill="#e0e0e0" stroke="#999999" points="416.5,-129 368.5,-129 368.5,-110 416.5,-110 416.5,-129"/>
<text text-anchor="middle" x="392.5" y="-117" font-family="Helvetica,sans-Serif" font-size="10.00">iosfwd</text>
</a>
</g>
</g>
<!-- Node2&#45;&gt;Node15 -->
<g id="edge20_Node000002_Node000015" class="edge">
<title>Node2&#45;&gt;Node15</title>
<g id="a_edge20_Node000002_Node000015"><a xlink:title=" ">
<path fill="none" stroke="#63b8ff" d="M564.93,-285.96C523.02,-273.26 450.92,-245.3 411.5,-195 399.05,-179.11 394.68,-155.98 393.18,-139.72"/>
<polygon fill="#63b8ff" stroke="#63b8ff" points="396.65,-139.06 392.53,-129.3 389.66,-139.49 396.65,-139.06"/>
</a>
</g>
</g>
<!-- Node16 -->
<g id="Node000016" class="node">
<title>Node16</title>
<g id="a_Node000016"><a xlink:title=" ">
<polygon fill="#e0e0e0" stroke="#999999" points="934,-129 865,-129 865,-110 934,-110 934,-129"/>
<text text-anchor="middle" x="899.5" y="-117" font-family="Helvetica,sans-Serif" font-size="10.00">Eigen/Core</text>
</a>
</g>
</g>
<!-- Node2&#45;&gt;Node16 -->
<g id="edge18_Node000002_Node000016" class="edge">
<title>Node2&#45;&gt;Node16</title>
<g id="a_edge18_Node000002_Node000016"><a xlink:title=" ">
<path fill="none" stroke="#63b8ff" d="M638.1,-292.86C722.46,-288.93 913.77,-277.24 972.5,-250 1014.22,-230.65 1058.33,-202.35 1031.5,-165 1011.81,-137.59 974.37,-126.84 944.37,-122.73"/>
<polygon fill="#63b8ff" stroke="#63b8ff" points="944.45,-119.22 934.12,-121.54 943.64,-126.17 944.45,-119.22"/>
</a>
</g>
</g>
<!-- Node17 -->
<g id="Node000017" class="node">
<title>Node17</title>
<g id="a_Node000017"><a xlink:title=" ">
<polygon fill="#e0e0e0" stroke="#999999" points="946,-250 877,-250 877,-231 946,-231 946,-250"/>
<text text-anchor="middle" x="911.5" y="-238" font-family="Helvetica,sans-Serif" font-size="10.00">type_traits</text>
</a>
</g>
</g>
<!-- Node2&#45;&gt;Node17 -->
<g id="edge19_Node000002_Node000017" class="edge">
<title>Node2&#45;&gt;Node17</title>
<g id="a_edge19_Node000002_Node000017"><a xlink:title=" ">
<path fill="none" stroke="#63b8ff" d="M638.27,-288.14C689.22,-280.11 779.36,-265.64 866.83,-250.08"/>
<polygon fill="#63b8ff" stroke="#63b8ff" points="867.7,-253.48 876.93,-248.27 866.47,-246.59 867.7,-253.48"/>
</a>
</g>
</g>
<!-- Node18 -->
<g id="Node000018" class="node">
<title>Node18</title>
<g id="a_Node000018"><a xlink:href="WLSApproximant__fwd_8hpp.html" target="_top" xlink:title="Declaration of the function, obtained by WLS approximation.">
<polygon fill="white" stroke="#666666" points="1022,-189.5 877,-189.5 877,-170.5 1022,-170.5 1022,-189.5"/>
<text text-anchor="middle" x="949.5" y="-177.5" font-family="Helvetica,sans-Serif" font-size="10.00">WLSApproximant_fwd.hpp</text>
</a>
</g>
</g>
<!-- Node2&#45;&gt;Node18 -->
<g id="edge21_Node000002_Node000018" class="edge">
<title>Node2&#45;&gt;Node18</title>
<g id="a_edge21_Node000002_Node000018"><a xlink:title=" ">
<path fill="none" stroke="#63b8ff" d="M638.09,-292.43C727.41,-287.46 934.74,-273.5 955.5,-250 967.53,-236.38 963.27,-214.8 957.75,-199.4"/>
<polygon fill="#63b8ff" stroke="#63b8ff" points="960.91,-197.86 953.92,-189.9 954.42,-200.48 960.91,-197.86"/>
</a>
</g>
</g>
<!-- Node19 -->
<g id="Node000019" class="node">
<title>Node19</title>
<g id="a_Node000019"><a xlink:href="Operators__fwd_8hpp.html" target="_top" xlink:title="File defining basic differential operator families.">
<polygon fill="white" stroke="#666666" points="692.5,-250 584.5,-250 584.5,-231 692.5,-231 692.5,-250"/>
<text text-anchor="middle" x="638.5" y="-238" font-family="Helvetica,sans-Serif" font-size="10.00">Operators_fwd.hpp</text>
</a>
</g>
</g>
<!-- Node2&#45;&gt;Node19 -->
<g id="edge24_Node000002_Node000019" class="edge">
<title>Node2&#45;&gt;Node19</title>
<g id="a_edge24_Node000002_Node000019"><a xlink:title=" ">
<path fill="none" stroke="#63b8ff" d="M604.27,-285.75C610.06,-278.26 618.56,-267.28 625.64,-258.13"/>
<polygon fill="#63b8ff" stroke="#63b8ff" points="628.51,-260.14 631.86,-250.09 622.97,-255.86 628.51,-260.14"/>
</a>
</g>
</g>
<!-- Node4 -->
<g id="Node000004" class="node">
<title>Node4</title>
<g id="a_Node000004"><a xlink:title=" ">
<polygon fill="#e0e0e0" stroke="#999999" points="456,-19 409,-19 409,0 456,0 456,-19"/>
<text text-anchor="middle" x="432.5" y="-7" font-family="Helvetica,sans-Serif" font-size="10.00">vector</text>
</a>
</g>
</g>
<!-- Node3&#45;&gt;Node4 -->
<g id="edge3_Node000003_Node000004" class="edge">
<title>Node3&#45;&gt;Node4</title>
<g id="a_edge3_Node000003_Node000004"><a xlink:title=" ">
<path fill="none" stroke="#63b8ff" d="M580.6,-109.84C553.04,-91.36 488.19,-47.86 454.18,-25.05"/>
<polygon fill="#63b8ff" stroke="#63b8ff" points="455.72,-21.86 445.46,-19.2 451.82,-27.67 455.72,-21.86"/>
</a>
</g>
</g>
<!-- Node5&#45;&gt;Node3 -->
<g id="edge5_Node000005_Node000003" class="edge">
<title>Node5&#45;&gt;Node3</title>
<g id="a_edge5_Node000005_Node000003"><a xlink:title=" ">
<path fill="none" stroke="#63b8ff" d="M326.74,-166.81C388.15,-156.15 476.34,-140.84 534.26,-130.78"/>
<polygon fill="#63b8ff" stroke="#63b8ff" points="535.09,-134.19 544.35,-129.03 533.9,-127.29 535.09,-134.19"/>
</a>
</g>
</g>
<!-- Node5&#45;&gt;Node4 -->
<g id="edge16_Node000005_Node000004" class="edge">
<title>Node5&#45;&gt;Node4</title>
<g id="a_edge16_Node000005_Node000004"><a xlink:title=" ">
<path fill="none" stroke="#63b8ff" d="M276.5,-164.92C289.71,-155.31 307.16,-142.01 321.5,-129 358.87,-95.09 398.25,-50.66 418.56,-27"/>
<polygon fill="#63b8ff" stroke="#63b8ff" points="421.32,-29.17 425.14,-19.29 415.99,-24.63 421.32,-29.17"/>
</a>
</g>
</g>
<!-- Node5&#45;&gt;Node6 -->
<g id="edge6_Node000005_Node000006" class="edge">
<title>Node5&#45;&gt;Node6</title>
<g id="a_edge6_Node000005_Node000006"><a xlink:title=" ">
<path fill="none" stroke="#63b8ff" d="M213.63,-164.99C183,-154.98 142.27,-141.67 113.37,-132.22"/>
<polygon fill="#63b8ff" stroke="#63b8ff" points="114.27,-128.83 103.67,-129.05 112.09,-135.49 114.27,-128.83"/>
</a>
</g>
</g>
<!-- Node13 -->
<g id="Node000013" class="node">
<title>Node13</title>
<g id="a_Node000013"><a xlink:href="traits_8hpp.html" target="_top" xlink:title="Type traits definition for vector and scalar fields.">
<polygon fill="white" stroke="#666666" points="236,-129 173,-129 173,-110 236,-110 236,-129"/>
<text text-anchor="middle" x="204.5" y="-117" font-family="Helvetica,sans-Serif" font-size="10.00">traits.hpp</text>
</a>
</g>
</g>
<!-- Node5&#45;&gt;Node13 -->
<g id="edge14_Node000005_Node000013" class="edge">
<title>Node5&#45;&gt;Node13</title>
<g id="a_edge14_Node000005_Node000013"><a xlink:title=" ">
<path fill="none" stroke="#63b8ff" d="M243.91,-164.84C236.44,-156.43 226.94,-145.74 219.13,-136.96"/>
<polygon fill="#63b8ff" stroke="#63b8ff" points="221.55,-134.41 212.29,-129.27 216.32,-139.07 221.55,-134.41"/>
</a>
</g>
</g>
<!-- Node14 -->
<g id="Node000014" class="node">
<title>Node14</title>
<g id="a_Node000014"><a xlink:title=" ">
<polygon fill="#e0e0e0" stroke="#999999" points="312.5,-129 254.5,-129 254.5,-110 312.5,-110 312.5,-129"/>
<text text-anchor="middle" x="283.5" y="-117" font-family="Helvetica,sans-Serif" font-size="10.00">memory</text>
</a>
</g>
</g>
<!-- Node5&#45;&gt;Node14 -->
<g id="edge15_Node000005_Node000014" class="edge">
<title>Node5&#45;&gt;Node14</title>
<g id="a_edge15_Node000005_Node000014"><a xlink:title=" ">
<path fill="none" stroke="#63b8ff" d="M263.04,-164.84C266.68,-156.95 271.24,-147.05 275.14,-138.61"/>
<polygon fill="#63b8ff" stroke="#63b8ff" points="278.44,-139.81 279.45,-129.27 272.09,-136.88 278.44,-139.81"/>
</a>
</g>
</g>
<!-- Node5&#45;&gt;Node15 -->
<g id="edge17_Node000005_Node000015" class="edge">
<title>Node5&#45;&gt;Node15</title>
<g id="a_edge17_Node000005_Node000015"><a xlink:title=" ">
<path fill="none" stroke="#63b8ff" d="M289.08,-164.99C311.56,-155.31 341.22,-142.56 363.01,-133.18"/>
<polygon fill="#63b8ff" stroke="#63b8ff" points="364.61,-136.31 372.42,-129.14 361.85,-129.88 364.61,-136.31"/>
</a>
</g>
</g>
<!-- Node7 -->
<g id="Node000007" class="node">
<title>Node7</title>
<g id="a_Node000007"><a xlink:title=" ">
<polygon fill="#e0e0e0" stroke="#999999" points="143.5,-74 11.5,-74 11.5,-55 143.5,-55 143.5,-74"/>
<text text-anchor="middle" x="77.5" y="-62" font-family="Helvetica,sans-Serif" font-size="10.00">tinyformat/tinyformat.h</text>
</a>
</g>
</g>
<!-- Node6&#45;&gt;Node7 -->
<g id="edge7_Node000006_Node000007" class="edge">
<title>Node6&#45;&gt;Node7</title>
<g id="a_edge7_Node000006_Node000007"><a xlink:title=" ">
<path fill="none" stroke="#63b8ff" d="M77.5,-109.75C77.5,-102.8 77.5,-92.85 77.5,-84.13"/>
<polygon fill="#63b8ff" stroke="#63b8ff" points="81,-84.09 77.5,-74.09 74,-84.09 81,-84.09"/>
</a>
</g>
</g>
<!-- Node8 -->
<g id="Node000008" class="node">
<title>Node8</title>
<g id="a_Node000008"><a xlink:href="print_8hpp.html" target="_top" xlink:title="Printing helpers for std types.">
<polygon fill="white" stroke="#666666" points="312.5,-74 252.5,-74 252.5,-55 312.5,-55 312.5,-74"/>
<text text-anchor="middle" x="282.5" y="-62" font-family="Helvetica,sans-Serif" font-size="10.00">print.hpp</text>
</a>
</g>
</g>
<!-- Node6&#45;&gt;Node8 -->
<g id="edge8_Node000006_Node000008" class="edge">
<title>Node6&#45;&gt;Node8</title>
<g id="a_edge8_Node000006_Node000008"><a xlink:title=" ">
<path fill="none" stroke="#63b8ff" d="M110.44,-109.98C146.39,-100.69 203.95,-85.81 242.47,-75.85"/>
<polygon fill="#63b8ff" stroke="#63b8ff" points="243.51,-79.2 252.32,-73.3 241.76,-72.42 243.51,-79.2"/>
</a>
</g>
</g>
<!-- Node8&#45;&gt;Node4 -->
<g id="edge10_Node000008_Node000004" class="edge">
<title>Node8&#45;&gt;Node4</title>
<g id="a_edge10_Node000008_Node000004"><a xlink:title=" ">
<path fill="none" stroke="#63b8ff" d="M306.6,-54.98C331.68,-46.12 371.13,-32.18 399.18,-22.27"/>
<polygon fill="#63b8ff" stroke="#63b8ff" points="400.69,-25.45 408.95,-18.82 398.36,-18.85 400.69,-25.45"/>
</a>
</g>
</g>
<!-- Node9 -->
<g id="Node000009" class="node">
<title>Node9</title>
<g id="a_Node000009"><a xlink:title=" ">
<polygon fill="#e0e0e0" stroke="#999999" points="312.5,-19 252.5,-19 252.5,0 312.5,0 312.5,-19"/>
<text text-anchor="middle" x="282.5" y="-7" font-family="Helvetica,sans-Serif" font-size="10.00">iostream</text>
</a>
</g>
</g>
<!-- Node8&#45;&gt;Node9 -->
<g id="edge9_Node000008_Node000009" class="edge">
<title>Node8&#45;&gt;Node9</title>
<g id="a_edge9_Node000008_Node000009"><a xlink:title=" ">
<path fill="none" stroke="#63b8ff" d="M282.5,-54.75C282.5,-47.8 282.5,-37.85 282.5,-29.13"/>
<polygon fill="#63b8ff" stroke="#63b8ff" points="286,-29.09 282.5,-19.09 279,-29.09 286,-29.09"/>
</a>
</g>
</g>
<!-- Node10 -->
<g id="Node000010" class="node">
<title>Node10</title>
<g id="a_Node000010"><a xlink:title=" ">
<polygon fill="#e0e0e0" stroke="#999999" points="531.5,-19 489.5,-19 489.5,0 531.5,0 531.5,-19"/>
<text text-anchor="middle" x="510.5" y="-7" font-family="Helvetica,sans-Serif" font-size="10.00">array</text>
</a>
</g>
</g>
<!-- Node8&#45;&gt;Node10 -->
<g id="edge11_Node000008_Node000010" class="edge">
<title>Node8&#45;&gt;Node10</title>
<g id="a_edge11_Node000008_Node000010"><a xlink:title=" ">
<path fill="none" stroke="#63b8ff" d="M312.78,-56.46C356.18,-46.37 435.66,-27.9 479.47,-17.71"/>
<polygon fill="#63b8ff" stroke="#63b8ff" points="480.33,-21.11 489.28,-15.43 478.75,-14.29 480.33,-21.11"/>
</a>
</g>
</g>
<!-- Node11 -->
<g id="Node000011" class="node">
<title>Node11</title>
<g id="a_Node000011"><a xlink:title=" ">
<polygon fill="#e0e0e0" stroke="#999999" points="376,-19 331,-19 331,0 376,0 376,-19"/>
<text text-anchor="middle" x="353.5" y="-7" font-family="Helvetica,sans-Serif" font-size="10.00">utility</text>
</a>
</g>
</g>
<!-- Node8&#45;&gt;Node11 -->
<g id="edge12_Node000008_Node000011" class="edge">
<title>Node8&#45;&gt;Node11</title>
<g id="a_edge12_Node000008_Node000011"><a xlink:title=" ">
<path fill="none" stroke="#63b8ff" d="M293.91,-54.98C304.61,-47 320.84,-34.88 333.66,-25.31"/>
<polygon fill="#63b8ff" stroke="#63b8ff" points="335.97,-27.96 341.89,-19.17 331.78,-22.35 335.97,-27.96"/>
</a>
</g>
</g>
<!-- Node12 -->
<g id="Node000012" class="node">
<title>Node12</title>
<g id="a_Node000012"><a xlink:title=" ">
<polygon fill="#e0e0e0" stroke="#999999" points="234,-19 193,-19 193,0 234,0 234,-19"/>
<text text-anchor="middle" x="213.5" y="-7" font-family="Helvetica,sans-Serif" font-size="10.00">tuple</text>
</a>
</g>
</g>
<!-- Node8&#45;&gt;Node12 -->
<g id="edge13_Node000008_Node000012" class="edge">
<title>Node8&#45;&gt;Node12</title>
<g id="a_edge13_Node000008_Node000012"><a xlink:title=" ">
<path fill="none" stroke="#63b8ff" d="M271.41,-54.98C261.01,-47 245.24,-34.88 232.78,-25.31"/>
<polygon fill="#63b8ff" stroke="#63b8ff" points="234.85,-22.49 224.79,-19.17 230.59,-28.04 234.85,-22.49"/>
</a>
</g>
</g>
<!-- Node18&#45;&gt;Node3 -->
<g id="edge22_Node000018_Node000003" class="edge">
<title>Node18&#45;&gt;Node3</title>
<g id="a_edge22_Node000018_Node000003"><a xlink:title=" ">
<path fill="none" stroke="#63b8ff" d="M897.73,-170.49C833.54,-159.94 724.2,-141.98 655.56,-130.7"/>
<polygon fill="#63b8ff" stroke="#63b8ff" points="655.76,-127.18 645.33,-129.02 654.63,-134.09 655.76,-127.18"/>
</a>
</g>
</g>
<!-- Node18&#45;&gt;Node16 -->
<g id="edge23_Node000018_Node000016" class="edge">
<title>Node18&#45;&gt;Node16</title>
<g id="a_edge23_Node000018_Node000016"><a xlink:title=" ">
<path fill="none" stroke="#63b8ff" d="M942.12,-170.37C934.59,-161.55 922.71,-147.66 913.41,-136.77"/>
<polygon fill="#63b8ff" stroke="#63b8ff" points="916.07,-134.5 906.91,-129.17 910.74,-139.04 916.07,-134.5"/>
</a>
</g>
</g>
<!-- Node19&#45;&gt;Node3 -->
<g id="edge25_Node000019_Node000003" class="edge">
<title>Node19&#45;&gt;Node3</title>
<g id="a_edge25_Node000019_Node000003"><a xlink:title=" ">
<path fill="none" stroke="#63b8ff" d="M636.05,-230.65C632.07,-216.57 623.69,-188.25 614.5,-165 610.97,-156.06 606.49,-146.39 602.57,-138.35"/>
<polygon fill="#63b8ff" stroke="#63b8ff" points="605.61,-136.61 598.03,-129.22 599.35,-139.73 605.61,-136.61"/>
</a>
</g>
</g>
<!-- Node19&#45;&gt;Node4 -->
<g id="edge27_Node000019_Node000004" class="edge">
<title>Node19&#45;&gt;Node4</title>
<g id="a_edge27_Node000019_Node000004"><a xlink:title=" ">
<path fill="none" stroke="#63b8ff" d="M643.49,-230.78C655.44,-208.6 682.92,-149.04 657.5,-110 635.46,-76.15 523.16,-38 466.01,-20.39"/>
<polygon fill="#63b8ff" stroke="#63b8ff" points="466.93,-17.01 456.35,-17.44 464.89,-23.71 466.93,-17.01"/>
</a>
</g>
</g>
<!-- Node19&#45;&gt;Node6 -->
<g id="edge35_Node000019_Node000006" class="edge">
<title>Node19&#45;&gt;Node6</title>
<g id="a_edge35_Node000019_Node000006"><a xlink:title=" ">
<path fill="none" stroke="#63b8ff" d="M584.1,-237.9C478.66,-234.21 250.45,-223.15 177.5,-195 168.43,-191.5 122.82,-156.21 96.44,-135.48"/>
<polygon fill="#63b8ff" stroke="#63b8ff" points="98.33,-132.51 88.31,-129.08 94,-138.01 98.33,-132.51"/>
</a>
</g>
</g>
<!-- Node19&#45;&gt;Node10 -->
<g id="edge26_Node000019_Node000010" class="edge">
<title>Node19&#45;&gt;Node10</title>
<g id="a_edge26_Node000019_Node000010"><a xlink:title=" ">
<path fill="none" stroke="#63b8ff" d="M654.53,-230.95C666.91,-223.35 683.15,-210.97 690.5,-195 716.52,-138.48 728.86,-103.99 690.5,-55 672.37,-31.84 588.38,-19.07 541.81,-13.66"/>
<polygon fill="#63b8ff" stroke="#63b8ff" points="541.99,-10.15 531.66,-12.52 541.21,-17.11 541.99,-10.15"/>
</a>
</g>
</g>
<!-- Node19&#45;&gt;Node16 -->
<g id="edge28_Node000019_Node000016" class="edge">
<title>Node19&#45;&gt;Node16</title>
<g id="a_edge28_Node000019_Node000016"><a xlink:title=" ">
<path fill="none" stroke="#63b8ff" d="M689.88,-231C738.05,-222.41 806.05,-208.51 829.5,-195 854.28,-180.72 875.6,-154.9 888,-137.72"/>
<polygon fill="#63b8ff" stroke="#63b8ff" points="891.09,-139.4 893.93,-129.2 885.35,-135.4 891.09,-139.4"/>
</a>
</g>
</g>
<!-- Node20 -->
<g id="Node000020" class="node">
<title>Node20</title>
<g id="a_Node000020"><a xlink:href="Monomials__fwd_8hpp.html" target="_top" xlink:title="Declaration of Monomial basis.">
<polygon fill="white" stroke="#666666" points="534.5,-189.5 420.5,-189.5 420.5,-170.5 534.5,-170.5 534.5,-189.5"/>
<text text-anchor="middle" x="477.5" y="-177.5" font-family="Helvetica,sans-Serif" font-size="10.00">Monomials_fwd.hpp</text>
</a>
</g>
</g>
<!-- Node19&#45;&gt;Node20 -->
<g id="edge29_Node000019_Node000020" class="edge">
<title>Node19&#45;&gt;Node20</title>
<g id="a_edge29_Node000019_Node000020"><a xlink:title=" ">
<path fill="none" stroke="#63b8ff" d="M615.09,-230.99C587.55,-220.99 541.63,-204.3 510.49,-192.99"/>
<polygon fill="#63b8ff" stroke="#63b8ff" points="511.53,-189.64 500.94,-189.52 509.14,-196.22 511.53,-189.64"/>
</a>
</g>
</g>
<!-- Node20&#45;&gt;Node3 -->
<g id="edge30_Node000020_Node000003" class="edge">
<title>Node20&#45;&gt;Node3</title>
<g id="a_edge30_Node000020_Node000003"><a xlink:title=" ">
<path fill="none" stroke="#63b8ff" d="M494.62,-170.37C513.72,-160.73 544.87,-145.03 567.1,-133.81"/>
<polygon fill="#63b8ff" stroke="#63b8ff" points="568.96,-136.8 576.31,-129.17 565.81,-130.55 568.96,-136.8"/>
</a>
</g>
</g>
<!-- Node20&#45;&gt;Node10 -->
<g id="edge32_Node000020_Node000010" class="edge">
<title>Node20&#45;&gt;Node10</title>
<g id="a_edge32_Node000020_Node000010"><a xlink:title=" ">
<path fill="none" stroke="#63b8ff" d="M480.29,-170.23C483.36,-160.3 488.29,-143.62 491.5,-129 499.18,-94.02 505.11,-52.6 508.18,-29.15"/>
<polygon fill="#63b8ff" stroke="#63b8ff" points="511.66,-29.55 509.45,-19.19 504.71,-28.66 511.66,-29.55"/>
</a>
</g>
</g>
<!-- Node20&#45;&gt;Node15 -->
<g id="edge34_Node000020_Node000015" class="edge">
<title>Node20&#45;&gt;Node15</title>
<g id="a_edge34_Node000020_Node000015"><a xlink:title=" ">
<path fill="none" stroke="#63b8ff" d="M464.96,-170.37C451.4,-161.04 429.56,-146.01 413.4,-134.88"/>
<polygon fill="#63b8ff" stroke="#63b8ff" points="415.32,-131.95 405.09,-129.17 411.35,-137.72 415.32,-131.95"/>
</a>
</g>
</g>
<!-- Node20&#45;&gt;Node16 -->
<g id="edge33_Node000020_Node000016" class="edge">
<title>Node20&#45;&gt;Node16</title>
<g id="a_edge33_Node000020_Node000016"><a xlink:title=" ">
<path fill="none" stroke="#63b8ff" d="M534.85,-171.05C619.76,-159.28 777.17,-137.46 854.4,-126.75"/>
<polygon fill="#63b8ff" stroke="#63b8ff" points="855.32,-130.16 864.75,-125.32 854.36,-123.22 855.32,-130.16"/>
</a>
</g>
</g>
<!-- Node21 -->
<g id="Node000021" class="node">
<title>Node21</title>
<g id="a_Node000021"><a xlink:title=" ">
<polygon fill="#e0e0e0" stroke="#999999" points="482,-129 435,-129 435,-110 482,-110 482,-129"/>
<text text-anchor="middle" x="458.5" y="-117" font-family="Helvetica,sans-Serif" font-size="10.00">cmath</text>
</a>
</g>
</g>
<!-- Node20&#45;&gt;Node21 -->
<g id="edge31_Node000020_Node000021" class="edge">
<title>Node20&#45;&gt;Node21</title>
<g id="a_edge31_Node000020_Node000021"><a xlink:title=" ">
<path fill="none" stroke="#63b8ff" d="M474.7,-170.37C472,-162.07 467.85,-149.28 464.42,-138.72"/>
<polygon fill="#63b8ff" stroke="#63b8ff" points="467.73,-137.6 461.32,-129.17 461.08,-139.76 467.73,-137.6"/>
</a>
</g>
</g>
<!-- Node22&#45;&gt;Node5 -->
<g id="edge38_Node000022_Node000005" class="edge">
<title>Node22&#45;&gt;Node5</title>
<g id="a_edge38_Node000022_Node000005"><a xlink:title=" ">
<path fill="none" stroke="#63b8ff" d="M130.88,-230.99C151.94,-222.61 184.77,-209.55 211.58,-198.87"/>
<polygon fill="#63b8ff" stroke="#63b8ff" points="213.16,-202.01 221.16,-195.06 210.57,-195.51 213.16,-202.01"/>
</a>
</g>
</g>
<!-- Node23 -->
<g id="Node000023" class="node">
<title>Node23</title>
<g id="a_Node000023"><a xlink:title=" ">
<polygon fill="#e0e0e0" stroke="#999999" points="92.5,-189.5 28.5,-189.5 28.5,-170.5 92.5,-170.5 92.5,-189.5"/>
<text text-anchor="middle" x="60.5" y="-177.5" font-family="Helvetica,sans-Serif" font-size="10.00">algorithm</text>
</a>
</g>
</g>
<!-- Node22&#45;&gt;Node23 -->
<g id="edge39_Node000022_Node000023" class="edge">
<title>Node22&#45;&gt;Node23</title>
<g id="a_edge39_Node000022_Node000023"><a xlink:title=" ">
<path fill="none" stroke="#63b8ff" d="M102.27,-230.87C94.96,-222.14 83.48,-208.43 74.4,-197.59"/>
<polygon fill="#63b8ff" stroke="#63b8ff" points="76.86,-195.09 67.76,-189.67 71.5,-199.58 76.86,-195.09"/>
</a>
</g>
</g>
<!-- Node24&#45;&gt;Node3 -->
<g id="edge41_Node000024_Node000003" class="edge">
<title>Node24&#45;&gt;Node3</title>
<g id="a_edge41_Node000024_Node000003"><a xlink:title=" ">
<path fill="none" stroke="#63b8ff" d="M400.14,-285.94C432.74,-271.03 498.85,-237.77 543.5,-195 561.01,-178.22 575.72,-154.3 584.55,-138.13"/>
<polygon fill="#63b8ff" stroke="#63b8ff" points="587.7,-139.67 589.27,-129.19 581.5,-136.4 587.7,-139.67"/>
</a>
</g>
</g>
<!-- Node24&#45;&gt;Node6 -->
<g id="edge42_Node000024_Node000006" class="edge">
<title>Node24&#45;&gt;Node6</title>
<g id="a_edge42_Node000024_Node000006"><a xlink:title=" ">
<path fill="none" stroke="#63b8ff" d="M354.35,-285.89C298.74,-267.27 170.87,-222.71 134.5,-195 113.92,-179.33 96.94,-154.42 87.01,-137.78"/>
<polygon fill="#63b8ff" stroke="#63b8ff" points="90.02,-135.99 82,-129.06 83.95,-139.48 90.02,-135.99"/>
</a>
</g>
</g>
<!-- Node24&#45;&gt;Node21 -->
<g id="edge48_Node000024_Node000021" class="edge">
<title>Node24&#45;&gt;Node21</title>
<g id="a_edge48_Node000024_Node000021"><a xlink:title=" ">
<path fill="none" stroke="#63b8ff" d="M380.9,-285.7C382.23,-263.82 387.91,-205.84 411.5,-165 418.04,-153.68 428.35,-143.45 437.64,-135.67"/>
<polygon fill="#63b8ff" stroke="#63b8ff" points="440.09,-138.19 445.76,-129.24 435.75,-132.7 440.09,-138.19"/>
</a>
</g>
</g>
<!-- Node24&#45;&gt;Node22 -->
<g id="edge47_Node000024_Node000022" class="edge">
<title>Node24&#45;&gt;Node22</title>
<g id="a_edge47_Node000024_Node000022"><a xlink:title=" ">
<path fill="none" stroke="#63b8ff" d="M336.96,-285.98C289.69,-276.74 214.15,-261.97 163.22,-252.01"/>
<polygon fill="#63b8ff" stroke="#63b8ff" points="163.87,-248.57 153.38,-250.08 162.52,-255.44 163.87,-248.57"/>
</a>
</g>
</g>
<!-- Node25 -->
<g id="Node000025" class="node">
<title>Node25</title>
<g id="a_Node000025"><a xlink:href="Vec_8hpp.html" target="_top" xlink:title="Implemetations for Vec.">
<polygon fill="white" stroke="#666666" points="858.5,-250 710.5,-250 710.5,-231 858.5,-231 858.5,-250"/>
<text text-anchor="middle" x="784.5" y="-238" font-family="Helvetica,sans-Serif" font-size="10.00">medusa/bits/types/Vec.hpp</text>
</a>
</g>
</g>
<!-- Node24&#45;&gt;Node25 -->
<g id="edge43_Node000024_Node000025" class="edge">
<title>Node24&#45;&gt;Node25</title>
<g id="a_edge43_Node000024_Node000025"><a xlink:title=" ">
<path fill="none" stroke="#63b8ff" d="M445.41,-285.98C517.45,-276.53 633.55,-261.3 709.45,-251.35"/>
<polygon fill="#63b8ff" stroke="#63b8ff" points="709.96,-254.81 719.42,-250.04 709.05,-247.87 709.96,-254.81"/>
</a>
</g>
</g>
<!-- Node26 -->
<g id="Node000026" class="node">
<title>Node26</title>
<g id="a_Node000026"><a xlink:href="Vec__fwd_8hpp.html" target="_top" xlink:title="Declaration of Vec.">
<polygon fill="white" stroke="#666666" points="820,-189.5 743,-189.5 743,-170.5 820,-170.5 820,-189.5"/>
<text text-anchor="middle" x="781.5" y="-177.5" font-family="Helvetica,sans-Serif" font-size="10.00">Vec_fwd.hpp</text>
</a>
</g>
</g>
<!-- Node25&#45;&gt;Node26 -->
<g id="edge44_Node000025_Node000026" class="edge">
<title>Node25&#45;&gt;Node26</title>
<g id="a_edge44_Node000025_Node000026"><a xlink:title=" ">
<path fill="none" stroke="#63b8ff" d="M784.06,-230.87C783.64,-222.75 783,-210.31 782.47,-199.89"/>
<polygon fill="#63b8ff" stroke="#63b8ff" points="785.95,-199.47 781.94,-189.67 778.96,-199.83 785.95,-199.47"/>
</a>
</g>
</g>
<!-- Node26&#45;&gt;Node3 -->
<g id="edge45_Node000026_Node000003" class="edge">
<title>Node26&#45;&gt;Node3</title>
<g id="a_edge45_Node000026_Node000003"><a xlink:title=" ">
<path fill="none" stroke="#63b8ff" d="M754.16,-170.49C721.58,-160.36 666.99,-143.37 630.61,-132.05"/>
<polygon fill="#63b8ff" stroke="#63b8ff" points="631.46,-128.65 620.87,-129.02 629.38,-135.33 631.46,-128.65"/>
</a>
</g>
</g>
<!-- Node26&#45;&gt;Node16 -->
<g id="edge46_Node000026_Node000016" class="edge">
<title>Node26&#45;&gt;Node16</title>
<g id="a_edge46_Node000026_Node000016"><a xlink:title=" ">
<path fill="none" stroke="#63b8ff" d="M798.66,-170.49C818.23,-160.79 850.47,-144.81 873.22,-133.53"/>
<polygon fill="#63b8ff" stroke="#63b8ff" points="874.92,-136.59 882.32,-129.02 871.81,-130.32 874.92,-136.59"/>
</a>
</g>
</g>
<!-- Node28 -->
<g id="Node000028" class="node">
<title>Node28</title>
<g id="a_Node000028"><a xlink:href="JacobiSVDWrapper__fwd_8hpp.html" target="_top" xlink:title="Definition of JacobiSVDWrapper.">
<polygon fill="white" stroke="#666666" points="1230,-189.5 1079,-189.5 1079,-170.5 1230,-170.5 1230,-189.5"/>
<text text-anchor="middle" x="1154.5" y="-177.5" font-family="Helvetica,sans-Serif" font-size="10.00">JacobiSVDWrapper_fwd.hpp</text>
</a>
</g>
</g>
<!-- Node27&#45;&gt;Node28 -->
<g id="edge50_Node000027_Node000028" class="edge">
<title>Node27&#45;&gt;Node28</title>
<g id="a_edge50_Node000027_Node000028"><a xlink:title=" ">
<path fill="none" stroke="#63b8ff" d="M971.83,-341.25C1020.73,-333.82 1082.83,-321.54 1102.5,-305 1134.71,-277.92 1147.34,-227.5 1152,-200.03"/>
<polygon fill="#63b8ff" stroke="#63b8ff" points="1155.51,-200.21 1153.54,-189.8 1148.59,-199.17 1155.51,-200.21"/>
</a>
</g>
</g>
<!-- Node28&#45;&gt;Node3 -->
<g id="edge51_Node000028_Node000003" class="edge">
<title>Node28&#45;&gt;Node3</title>
<g id="a_edge51_Node000028_Node000003"><a xlink:title=" ">
<path fill="none" stroke="#63b8ff" d="M1081.02,-170.49C1064.72,-168.64 1047.53,-166.73 1031.5,-165 899.32,-150.76 744.57,-135.33 658.93,-126.9"/>
<polygon fill="#63b8ff" stroke="#63b8ff" points="659.13,-123.4 648.84,-125.91 658.45,-130.37 659.13,-123.4"/>
</a>
</g>
</g>
<!-- Node28&#45;&gt;Node16 -->
<g id="edge52_Node000028_Node000016" class="edge">
<title>Node28&#45;&gt;Node16</title>
<g id="a_edge52_Node000028_Node000016"><a xlink:title=" ">
<path fill="none" stroke="#63b8ff" d="M1117.42,-170.49C1071.51,-159.96 993.38,-142.04 944.2,-130.75"/>
<polygon fill="#63b8ff" stroke="#63b8ff" points="944.7,-127.28 934.17,-128.45 943.13,-134.1 944.7,-127.28"/>
</a>
</g>
</g>
<!-- Node29 -->
<g id="Node000029" class="node">
<title>Node29</title>
<g id="a_Node000029"><a xlink:title=" ">
<polygon fill="#e0e0e0" stroke="#999999" points="1188,-129 1121,-129 1121,-110 1188,-110 1188,-129"/>
<text text-anchor="middle" x="1154.5" y="-117" font-family="Helvetica,sans-Serif" font-size="10.00">Eigen/SVD</text>
</a>
</g>
</g>
<!-- Node28&#45;&gt;Node29 -->
<g id="edge53_Node000028_Node000029" class="edge">
<title>Node28&#45;&gt;Node29</title>
<g id="a_edge53_Node000028_Node000029"><a xlink:title=" ">
<path fill="none" stroke="#63b8ff" d="M1154.5,-170.37C1154.5,-162.25 1154.5,-149.81 1154.5,-139.39"/>
<polygon fill="#63b8ff" stroke="#63b8ff" points="1158,-139.17 1154.5,-129.17 1151,-139.17 1158,-139.17"/>
</a>
</g>
</g>
<!-- Node30&#45;&gt;Node18 -->
<g id="edge55_Node000030_Node000018" class="edge">
<title>Node30&#45;&gt;Node18</title>
<g id="a_edge55_Node000030_Node000018"><a xlink:title=" ">
<path fill="none" stroke="#63b8ff" d="M530.78,-346.75C652.37,-339.86 917.19,-317.32 972.5,-250 984.85,-234.97 974.01,-213.05 963.42,-197.97"/>
<polygon fill="#63b8ff" stroke="#63b8ff" points="965.89,-195.44 957.06,-189.59 960.31,-199.67 965.89,-195.44"/>
</a>
</g>
</g>
<!-- Node30&#45;&gt;Node24 -->
<g id="edge56_Node000030_Node000024" class="edge">
<title>Node30&#45;&gt;Node24</title>
<g id="a_edge56_Node000030_Node000024"><a xlink:title=" ">
<path fill="none" stroke="#63b8ff" d="M455.2,-340.98C441.4,-332.77 420.26,-320.18 403.99,-310.49"/>
<polygon fill="#63b8ff" stroke="#63b8ff" points="405.44,-307.28 395.06,-305.17 401.86,-313.29 405.44,-307.28"/>
</a>
</g>
</g>
</g>
</svg>
