<?xml version="1.0" encoding="UTF-8" standalone="no"?>
<!DOCTYPE svg PUBLIC "-//W3C//DTD SVG 1.1//EN"
 "http://www.w3.org/Graphics/SVG/1.1/DTD/svg11.dtd">
<!-- Generated by graphviz version 2.43.0 (0)
 -->
<!-- Title: include/medusa/bits/approximations/WLS_fwd.hpp Pages: 1 -->
<!--zoomable 280 -->

<svg id="main" version="1.1" xmlns="http://www.w3.org/2000/svg" xmlns:xlink="http://www.w3.org/1999/xlink" xml:space="preserve" onload="init(evt)">
<style type="text/css"><![CDATA[
.node, .edge {opacity: 0.7;}
.node.selected, .edge.selected {opacity: 1;}
.edge:hover path { stroke: red; }
.edge:hover polygon { stroke: red; fill: red; }
]]></style>

<defs>
  <circle id="rim" cx="0" cy="0" r="7"/>
  <circle id="rim2" cx="0" cy="0" r="3.5"/>
  <g id="zoomPlus">
    <use xlink:href="#rim" fill="#404040"><set attributeName="fill" to="#808080" begin="zoomplus.mouseover" end="zoomplus.mouseout"/></use>
    <path d="M-4,0h8M0,-4v8" fill="none" stroke="white" stroke-width="1.5" pointer-events="none"/>
  </g>
  <g id="zoomMin">
    <use xlink:href="#rim" fill="#404040"><set attributeName="fill" to="#808080" begin="zoomminus.mouseover" end="zoomminus.mouseout"/></use>
    <path d="M-4,0h8" fill="none" stroke="white" stroke-width="1.5" pointer-events="none"/>
  </g>
  <g id="arrowUp" transform="translate(30 24)">
    <use xlink:href="#rim"/>
    <path pointer-events="none" fill="none" stroke="white" stroke-width="1.5" d="M0,-3.0v7 M-2.5,-0.5L0,-3.0L2.5,-0.5"/>
  </g>
  <g id="arrowRight" transform="rotate(90) translate(36 -43)">
    <use xlink:href="#rim"/>
    <path pointer-events="none" fill="none" stroke="white" stroke-width="1.5" d="M0,-3.0v7 M-2.5,-0.5L0,-3.0L2.5,-0.5"/>
  </g>
  <g id="arrowDown" transform="rotate(180) translate(-30 -48)">
    <use xlink:href="#rim"/>
    <path pointer-events="none" fill="none" stroke="white" stroke-width="1.5" d="M0,-3.0v7 M-2.5,-0.5L0,-3.0L2.5,-0.5"/>
  </g>
  <g id="arrowLeft" transform="rotate(270) translate(-36 17)">
    <use xlink:href="#rim"/>
    <path pointer-events="none" fill="none" stroke="white" stroke-width="1.5" d="M0,-3.0v7 M-2.5,-0.5L0,-3.0L2.5,-0.5"/>
  </g>
  <g id="resetDef">
    <use xlink:href="#rim2" fill="#404040"><set attributeName="fill" to="#808080" begin="reset.mouseover" end="reset.mouseout"/></use>
  </g>
</defs>
<script type="application/ecmascript">
var viewWidth = 1062;
var viewHeight = 280;
var sectionId = 'dynsection-0';
</script>
<script type="application/ecmascript" xlink:href="svg.min.js"/>
<svg id="graph" class="graph">
<g id="viewport">
<title>include/medusa/bits/approximations/WLS_fwd.hpp</title>
<!-- Node1 -->
<g id="Node000001" class="node">
<title>Node1</title>
<g id="a_Node000001"><a xlink:title="Declaration of weighted least squares approximation.">
<polygon fill="#999999" stroke="#666666" points="532.69,-272 412.69,-272 412.69,-231 532.69,-231 532.69,-272"/>
<text text-anchor="start" x="420.69" y="-260" font-family="Helvetica,sans-Serif" font-size="10.00">include/medusa/bits</text>
<text text-anchor="start" x="420.69" y="-249" font-family="Helvetica,sans-Serif" font-size="10.00">/approximations/WLS</text>
<text text-anchor="middle" x="472.69" y="-238" font-family="Helvetica,sans-Serif" font-size="10.00">_fwd.hpp</text>
</a>
</g>
</g>
<!-- Node2 -->
<g id="Node000002" class="node">
<title>Node2</title>
<g id="a_Node000002"><a xlink:href="Config_8hpp.html" target="_top" xlink:title="Contains compile time settings for the project, such as Eigen plugins.">
<polygon fill="white" stroke="#666666" points="468.69,-74 358.69,-74 358.69,-55 468.69,-55 468.69,-74"/>
<text text-anchor="middle" x="413.69" y="-62" font-family="Helvetica,sans-Serif" font-size="10.00">medusa/Config.hpp</text>
</a>
</g>
</g>
<!-- Node1&#45;&gt;Node2 -->
<g id="edge1_Node000001_Node000002" class="edge">
<title>Node1&#45;&gt;Node2</title>
<g id="a_edge1_Node000001_Node000002"><a xlink:title=" ">
<path fill="none" stroke="#63b8ff" d="M469.28,-230.91C466.02,-213.42 460.57,-187.22 453.69,-165 444.63,-135.76 430.7,-103.03 421.9,-83.35"/>
<polygon fill="#63b8ff" stroke="#63b8ff" points="425.03,-81.77 417.71,-74.11 418.65,-84.66 425.03,-81.77"/>
</a>
</g>
</g>
<!-- Node4 -->
<g id="Node000004" class="node">
<title>Node4</title>
<g id="a_Node000004"><a xlink:href="Range__fwd_8hpp.html" target="_top" xlink:title="Declaration of Range.">
<polygon fill="white" stroke="#666666" points="792.69,-195 652.69,-195 652.69,-165 792.69,-165 792.69,-195"/>
<text text-anchor="start" x="660.69" y="-183" font-family="Helvetica,sans-Serif" font-size="10.00">medusa/bits/types/Range</text>
<text text-anchor="middle" x="722.69" y="-172" font-family="Helvetica,sans-Serif" font-size="10.00">_fwd.hpp</text>
</a>
</g>
</g>
<!-- Node1&#45;&gt;Node4 -->
<g id="edge3_Node000001_Node000004" class="edge">
<title>Node1&#45;&gt;Node4</title>
<g id="a_edge3_Node000001_Node000004"><a xlink:title=" ">
<path fill="none" stroke="#63b8ff" d="M532.89,-233.76C572.18,-222.84 623.28,-208.64 662.56,-197.72"/>
<polygon fill="#63b8ff" stroke="#63b8ff" points="663.58,-201.07 672.27,-195.01 661.7,-194.32 663.58,-201.07"/>
</a>
</g>
</g>
<!-- Node14 -->
<g id="Node000014" class="node">
<title>Node14</title>
<g id="a_Node000014"><a xlink:title=" ">
<polygon fill="#e0e0e0" stroke="#999999" points="942.69,-74 894.69,-74 894.69,-55 942.69,-55 942.69,-74"/>
<text text-anchor="middle" x="918.69" y="-62" font-family="Helvetica,sans-Serif" font-size="10.00">iosfwd</text>
</a>
</g>
</g>
<!-- Node1&#45;&gt;Node14 -->
<g id="edge19_Node000001_Node000014" class="edge">
<title>Node1&#45;&gt;Node14</title>
<g id="a_edge19_Node000001_Node000014"><a xlink:title=" ">
<path fill="none" stroke="#63b8ff" d="M532.78,-246.62C599.96,-240.86 711.19,-227.05 801.69,-195 857.97,-175.07 888.58,-180.55 918.69,-129 926.59,-115.46 925.72,-97.38 923.38,-83.97"/>
<polygon fill="#63b8ff" stroke="#63b8ff" points="926.76,-83.04 921.22,-74.01 919.91,-84.52 926.76,-83.04"/>
</a>
</g>
</g>
<!-- Node15 -->
<g id="Node000015" class="node">
<title>Node15</title>
<g id="a_Node000015"><a xlink:title=" ">
<polygon fill="#e0e0e0" stroke="#999999" points="160.19,-74 91.19,-74 91.19,-55 160.19,-55 160.19,-74"/>
<text text-anchor="middle" x="125.69" y="-62" font-family="Helvetica,sans-Serif" font-size="10.00">Eigen/Core</text>
</a>
</g>
</g>
<!-- Node1&#45;&gt;Node15 -->
<g id="edge17_Node000001_Node000015" class="edge">
<title>Node1&#45;&gt;Node15</title>
<g id="a_edge17_Node000001_Node000015"><a xlink:title=" ">
<path fill="none" stroke="#63b8ff" d="M412.27,-244.08C297.25,-230.44 53.94,-194.38 5.69,-129 -17.18,-98.01 38.03,-80.71 80.97,-72.25"/>
<polygon fill="#63b8ff" stroke="#63b8ff" points="81.82,-75.65 91.01,-70.38 80.54,-68.77 81.82,-75.65"/>
</a>
</g>
</g>
<!-- Node16 -->
<g id="Node000016" class="node">
<title>Node16</title>
<g id="a_Node000016"><a xlink:title=" ">
<polygon fill="#e0e0e0" stroke="#999999" points="1054.19,-189.5 985.19,-189.5 985.19,-170.5 1054.19,-170.5 1054.19,-189.5"/>
<text text-anchor="middle" x="1019.69" y="-177.5" font-family="Helvetica,sans-Serif" font-size="10.00">type_traits</text>
</a>
</g>
</g>
<!-- Node1&#45;&gt;Node16 -->
<g id="edge18_Node000001_Node000016" class="edge">
<title>Node1&#45;&gt;Node16</title>
<g id="a_edge18_Node000001_Node000016"><a xlink:title=" ">
<path fill="none" stroke="#63b8ff" d="M532.98,-247.05C627.13,-240.92 814.5,-225.79 970.69,-195 974.79,-194.19 979.05,-193.2 983.26,-192.13"/>
<polygon fill="#63b8ff" stroke="#63b8ff" points="984.19,-195.51 992.93,-189.52 982.36,-188.75 984.19,-195.51"/>
</a>
</g>
</g>
<!-- Node17 -->
<g id="Node000017" class="node">
<title>Node17</title>
<g id="a_Node000017"><a xlink:href="WLSApproximant__fwd_8hpp.html" target="_top" xlink:title="Declaration of the function, obtained by WLS approximation.">
<polygon fill="white" stroke="#666666" points="160.19,-129 15.19,-129 15.19,-110 160.19,-110 160.19,-129"/>
<text text-anchor="middle" x="87.69" y="-117" font-family="Helvetica,sans-Serif" font-size="10.00">WLSApproximant_fwd.hpp</text>
</a>
</g>
</g>
<!-- Node1&#45;&gt;Node17 -->
<g id="edge20_Node000001_Node000017" class="edge">
<title>Node1&#45;&gt;Node17</title>
<g id="a_edge20_Node000001_Node000017"><a xlink:title=" ">
<path fill="none" stroke="#63b8ff" d="M414.63,-230.9C333.51,-203.51 188.76,-154.63 122.52,-132.26"/>
<polygon fill="#63b8ff" stroke="#63b8ff" points="123.55,-128.92 112.96,-129.03 121.31,-135.55 123.55,-128.92"/>
</a>
</g>
</g>
<!-- Node18 -->
<g id="Node000018" class="node">
<title>Node18</title>
<g id="a_Node000018"><a xlink:href="Operators__fwd_8hpp.html" target="_top" xlink:title="File defining basic differential operator families.">
<polygon fill="white" stroke="#666666" points="444.69,-189.5 336.69,-189.5 336.69,-170.5 444.69,-170.5 444.69,-189.5"/>
<text text-anchor="middle" x="390.69" y="-177.5" font-family="Helvetica,sans-Serif" font-size="10.00">Operators_fwd.hpp</text>
</a>
</g>
</g>
<!-- Node1&#45;&gt;Node18 -->
<g id="edge23_Node000001_Node000018" class="edge">
<title>Node1&#45;&gt;Node18</title>
<g id="a_edge23_Node000001_Node000018"><a xlink:title=" ">
<path fill="none" stroke="#63b8ff" d="M449.41,-230.77C436.61,-219.92 420.95,-206.65 409.02,-196.54"/>
<polygon fill="#63b8ff" stroke="#63b8ff" points="410.99,-193.62 401.09,-189.82 406.46,-198.96 410.99,-193.62"/>
</a>
</g>
</g>
<!-- Node3 -->
<g id="Node000003" class="node">
<title>Node3</title>
<g id="a_Node000003"><a xlink:title=" ">
<polygon fill="#e0e0e0" stroke="#999999" points="587.19,-19 540.19,-19 540.19,0 587.19,0 587.19,-19"/>
<text text-anchor="middle" x="563.69" y="-7" font-family="Helvetica,sans-Serif" font-size="10.00">vector</text>
</a>
</g>
</g>
<!-- Node2&#45;&gt;Node3 -->
<g id="edge2_Node000002_Node000003" class="edge">
<title>Node2&#45;&gt;Node3</title>
<g id="a_edge2_Node000002_Node000003"><a xlink:title=" ">
<path fill="none" stroke="#63b8ff" d="M437.79,-54.98C462.87,-46.12 502.32,-32.18 530.37,-22.27"/>
<polygon fill="#63b8ff" stroke="#63b8ff" points="531.88,-25.45 540.14,-18.82 529.55,-18.85 531.88,-25.45"/>
</a>
</g>
</g>
<!-- Node4&#45;&gt;Node2 -->
<g id="edge4_Node000004_Node000002" class="edge">
<title>Node4&#45;&gt;Node2</title>
<g id="a_edge4_Node000004_Node000002"><a xlink:title=" ">
<path fill="none" stroke="#63b8ff" d="M652.59,-165.23C615.37,-156.83 569.27,-144.68 529.69,-129 495.17,-115.33 457.97,-93.59 435.25,-79.43"/>
<polygon fill="#63b8ff" stroke="#63b8ff" points="437.06,-76.43 426.73,-74.05 433.32,-82.35 437.06,-76.43"/>
</a>
</g>
</g>
<!-- Node4&#45;&gt;Node3 -->
<g id="edge15_Node000004_Node000003" class="edge">
<title>Node4&#45;&gt;Node3</title>
<g id="a_edge15_Node000004_Node000003"><a xlink:title=" ">
<path fill="none" stroke="#63b8ff" d="M723.24,-164.73C723.43,-139.35 720.14,-86.12 691.69,-55 667.44,-28.48 626.56,-17.76 597.53,-13.43"/>
<polygon fill="#63b8ff" stroke="#63b8ff" points="597.79,-9.94 587.42,-12.11 596.88,-16.88 597.79,-9.94"/>
</a>
</g>
</g>
<!-- Node5 -->
<g id="Node000005" class="node">
<title>Node5</title>
<g id="a_Node000005"><a xlink:href="assert_8hpp.html" target="_top" xlink:title="Implementation of custom assert and debug utilities.">
<polygon fill="white" stroke="#666666" points="694.19,-129 539.19,-129 539.19,-110 694.19,-110 694.19,-129"/>
<text text-anchor="middle" x="616.69" y="-117" font-family="Helvetica,sans-Serif" font-size="10.00">medusa/bits/utils/assert.hpp</text>
</a>
</g>
</g>
<!-- Node4&#45;&gt;Node5 -->
<g id="edge5_Node000004_Node000005" class="edge">
<title>Node4&#45;&gt;Node5</title>
<g id="a_edge5_Node000004_Node000005"><a xlink:title=" ">
<path fill="none" stroke="#63b8ff" d="M697.3,-164.99C680.4,-155.66 658.31,-143.47 641.53,-134.21"/>
<polygon fill="#63b8ff" stroke="#63b8ff" points="642.79,-130.91 632.34,-129.14 639.41,-137.04 642.79,-130.91"/>
</a>
</g>
</g>
<!-- Node12 -->
<g id="Node000012" class="node">
<title>Node12</title>
<g id="a_Node000012"><a xlink:href="traits_8hpp.html" target="_top" xlink:title="Type traits definition for vector and scalar fields.">
<polygon fill="white" stroke="#666666" points="890.19,-129 827.19,-129 827.19,-110 890.19,-110 890.19,-129"/>
<text text-anchor="middle" x="858.69" y="-117" font-family="Helvetica,sans-Serif" font-size="10.00">traits.hpp</text>
</a>
</g>
</g>
<!-- Node4&#45;&gt;Node12 -->
<g id="edge13_Node000004_Node000012" class="edge">
<title>Node4&#45;&gt;Node12</title>
<g id="a_edge13_Node000004_Node000012"><a xlink:title=" ">
<path fill="none" stroke="#63b8ff" d="M755.26,-164.99C777.75,-155.31 807.41,-142.56 829.2,-133.18"/>
<polygon fill="#63b8ff" stroke="#63b8ff" points="830.8,-136.31 838.6,-129.14 828.03,-129.88 830.8,-136.31"/>
</a>
</g>
</g>
<!-- Node13 -->
<g id="Node000013" class="node">
<title>Node13</title>
<g id="a_Node000013"><a xlink:title=" ">
<polygon fill="#e0e0e0" stroke="#999999" points="808.69,-129 750.69,-129 750.69,-110 808.69,-110 808.69,-129"/>
<text text-anchor="middle" x="779.69" y="-117" font-family="Helvetica,sans-Serif" font-size="10.00">memory</text>
</a>
</g>
</g>
<!-- Node4&#45;&gt;Node13 -->
<g id="edge14_Node000004_Node000013" class="edge">
<title>Node4&#45;&gt;Node13</title>
<g id="a_edge14_Node000004_Node000013"><a xlink:title=" ">
<path fill="none" stroke="#63b8ff" d="M736.49,-164.84C744.76,-156.35 755.31,-145.52 763.91,-136.69"/>
<polygon fill="#63b8ff" stroke="#63b8ff" points="766.68,-138.87 771.15,-129.27 761.66,-133.99 766.68,-138.87"/>
</a>
</g>
</g>
<!-- Node4&#45;&gt;Node14 -->
<g id="edge16_Node000004_Node000014" class="edge">
<title>Node4&#45;&gt;Node14</title>
<g id="a_edge16_Node000004_Node000014"><a xlink:title=" ">
<path fill="none" stroke="#63b8ff" d="M792.83,-174.99C829.07,-169.38 871.47,-156.78 899.69,-129 911.59,-117.28 916.11,-98.43 917.78,-84.3"/>
<polygon fill="#63b8ff" stroke="#63b8ff" points="921.28,-84.47 918.6,-74.22 914.3,-83.9 921.28,-84.47"/>
</a>
</g>
</g>
<!-- Node6 -->
<g id="Node000006" class="node">
<title>Node6</title>
<g id="a_Node000006"><a xlink:title=" ">
<polygon fill="#e0e0e0" stroke="#999999" points="682.69,-74 550.69,-74 550.69,-55 682.69,-55 682.69,-74"/>
<text text-anchor="middle" x="616.69" y="-62" font-family="Helvetica,sans-Serif" font-size="10.00">tinyformat/tinyformat.h</text>
</a>
</g>
</g>
<!-- Node5&#45;&gt;Node6 -->
<g id="edge6_Node000005_Node000006" class="edge">
<title>Node5&#45;&gt;Node6</title>
<g id="a_edge6_Node000005_Node000006"><a xlink:title=" ">
<path fill="none" stroke="#63b8ff" d="M616.69,-109.75C616.69,-102.8 616.69,-92.85 616.69,-84.13"/>
<polygon fill="#63b8ff" stroke="#63b8ff" points="620.19,-84.09 616.69,-74.09 613.19,-84.09 620.19,-84.09"/>
</a>
</g>
</g>
<!-- Node7 -->
<g id="Node000007" class="node">
<title>Node7</title>
<g id="a_Node000007"><a xlink:href="print_8hpp.html" target="_top" xlink:title="Printing helpers for std types.">
<polygon fill="white" stroke="#666666" points="804.69,-74 744.69,-74 744.69,-55 804.69,-55 804.69,-74"/>
<text text-anchor="middle" x="774.69" y="-62" font-family="Helvetica,sans-Serif" font-size="10.00">print.hpp</text>
</a>
</g>
</g>
<!-- Node5&#45;&gt;Node7 -->
<g id="edge7_Node000005_Node000007" class="edge">
<title>Node5&#45;&gt;Node7</title>
<g id="a_edge7_Node000005_Node000007"><a xlink:title=" ">
<path fill="none" stroke="#63b8ff" d="M642.07,-109.98C668.49,-101.13 710.03,-87.19 739.58,-77.28"/>
<polygon fill="#63b8ff" stroke="#63b8ff" points="740.74,-80.58 749.1,-74.08 738.51,-73.94 740.74,-80.58"/>
</a>
</g>
</g>
<!-- Node7&#45;&gt;Node3 -->
<g id="edge9_Node000007_Node000003" class="edge">
<title>Node7&#45;&gt;Node3</title>
<g id="a_edge9_Node000007_Node000003"><a xlink:title=" ">
<path fill="none" stroke="#63b8ff" d="M744.46,-55.91C705.46,-46.11 637.84,-29.13 597.28,-18.94"/>
<polygon fill="#63b8ff" stroke="#63b8ff" points="597.89,-15.48 587.34,-16.44 596.18,-22.27 597.89,-15.48"/>
</a>
</g>
</g>
<!-- Node8 -->
<g id="Node000008" class="node">
<title>Node8</title>
<g id="a_Node000008"><a xlink:title=" ">
<polygon fill="#e0e0e0" stroke="#999999" points="733.69,-19 673.69,-19 673.69,0 733.69,0 733.69,-19"/>
<text text-anchor="middle" x="703.69" y="-7" font-family="Helvetica,sans-Serif" font-size="10.00">iostream</text>
</a>
</g>
</g>
<!-- Node7&#45;&gt;Node8 -->
<g id="edge8_Node000007_Node000008" class="edge">
<title>Node7&#45;&gt;Node8</title>
<g id="a_edge8_Node000007_Node000008"><a xlink:title=" ">
<path fill="none" stroke="#63b8ff" d="M763.28,-54.98C752.58,-47 736.35,-34.88 723.53,-25.31"/>
<polygon fill="#63b8ff" stroke="#63b8ff" points="725.41,-22.35 715.3,-19.17 721.22,-27.96 725.41,-22.35"/>
</a>
</g>
</g>
<!-- Node9 -->
<g id="Node000009" class="node">
<title>Node9</title>
<g id="a_Node000009"><a xlink:title=" ">
<polygon fill="#e0e0e0" stroke="#999999" points="285.69,-19 243.69,-19 243.69,0 285.69,0 285.69,-19"/>
<text text-anchor="middle" x="264.69" y="-7" font-family="Helvetica,sans-Serif" font-size="10.00">array</text>
</a>
</g>
</g>
<!-- Node7&#45;&gt;Node9 -->
<g id="edge10_Node000007_Node000009" class="edge">
<title>Node7&#45;&gt;Node9</title>
<g id="a_edge10_Node000007_Node000009"><a xlink:title=" ">
<path fill="none" stroke="#63b8ff" d="M744.31,-60.34C653.86,-50.94 386.93,-23.2 295.68,-13.72"/>
<polygon fill="#63b8ff" stroke="#63b8ff" points="296,-10.23 285.69,-12.68 295.27,-17.2 296,-10.23"/>
</a>
</g>
</g>
<!-- Node10 -->
<g id="Node000010" class="node">
<title>Node10</title>
<g id="a_Node000010"><a xlink:title=" ">
<polygon fill="#e0e0e0" stroke="#999999" points="797.19,-19 752.19,-19 752.19,0 797.19,0 797.19,-19"/>
<text text-anchor="middle" x="774.69" y="-7" font-family="Helvetica,sans-Serif" font-size="10.00">utility</text>
</a>
</g>
</g>
<!-- Node7&#45;&gt;Node10 -->
<g id="edge11_Node000007_Node000010" class="edge">
<title>Node7&#45;&gt;Node10</title>
<g id="a_edge11_Node000007_Node000010"><a xlink:title=" ">
<path fill="none" stroke="#63b8ff" d="M774.69,-54.75C774.69,-47.8 774.69,-37.85 774.69,-29.13"/>
<polygon fill="#63b8ff" stroke="#63b8ff" points="778.19,-29.09 774.69,-19.09 771.19,-29.09 778.19,-29.09"/>
</a>
</g>
</g>
<!-- Node11 -->
<g id="Node000011" class="node">
<title>Node11</title>
<g id="a_Node000011"><a xlink:title=" ">
<polygon fill="#e0e0e0" stroke="#999999" points="856.19,-19 815.19,-19 815.19,0 856.19,0 856.19,-19"/>
<text text-anchor="middle" x="835.69" y="-7" font-family="Helvetica,sans-Serif" font-size="10.00">tuple</text>
</a>
</g>
</g>
<!-- Node7&#45;&gt;Node11 -->
<g id="edge12_Node000007_Node000011" class="edge">
<title>Node7&#45;&gt;Node11</title>
<g id="a_edge12_Node000007_Node000011"><a xlink:title=" ">
<path fill="none" stroke="#63b8ff" d="M784.49,-54.98C793.51,-47.15 807.09,-35.34 818.01,-25.86"/>
<polygon fill="#63b8ff" stroke="#63b8ff" points="820.46,-28.37 825.71,-19.17 815.86,-23.09 820.46,-28.37"/>
</a>
</g>
</g>
<!-- Node17&#45;&gt;Node2 -->
<g id="edge21_Node000017_Node000002" class="edge">
<title>Node17&#45;&gt;Node2</title>
<g id="a_edge21_Node000017_Node000002"><a xlink:title=" ">
<path fill="none" stroke="#63b8ff" d="M140.07,-109.98C197.61,-100.63 289.97,-85.61 351.24,-75.65"/>
<polygon fill="#63b8ff" stroke="#63b8ff" points="351.86,-79.1 361.17,-74.04 350.74,-72.19 351.86,-79.1"/>
</a>
</g>
</g>
<!-- Node17&#45;&gt;Node15 -->
<g id="edge22_Node000017_Node000015" class="edge">
<title>Node17&#45;&gt;Node15</title>
<g id="a_edge22_Node000017_Node000015"><a xlink:title=" ">
<path fill="none" stroke="#63b8ff" d="M93.96,-109.75C99.28,-102.34 107.04,-91.5 113.56,-82.41"/>
<polygon fill="#63b8ff" stroke="#63b8ff" points="116.55,-84.26 119.53,-74.09 110.86,-80.18 116.55,-84.26"/>
</a>
</g>
</g>
<!-- Node18&#45;&gt;Node2 -->
<g id="edge24_Node000018_Node000002" class="edge">
<title>Node18&#45;&gt;Node2</title>
<g id="a_edge24_Node000018_Node000002"><a xlink:title=" ">
<path fill="none" stroke="#63b8ff" d="M392.42,-170.47C396.11,-152.23 404.86,-109.07 409.91,-84.14"/>
<polygon fill="#63b8ff" stroke="#63b8ff" points="413.38,-84.63 411.94,-74.13 406.52,-83.24 413.38,-84.63"/>
</a>
</g>
</g>
<!-- Node18&#45;&gt;Node3 -->
<g id="edge26_Node000018_Node000003" class="edge">
<title>Node18&#45;&gt;Node3</title>
<g id="a_edge26_Node000018_Node000003"><a xlink:title=" ">
<path fill="none" stroke="#63b8ff" d="M399.51,-170.41C427.03,-143.6 511.66,-61.17 547.45,-26.32"/>
<polygon fill="#63b8ff" stroke="#63b8ff" points="549.96,-28.76 554.68,-19.27 545.08,-23.74 549.96,-28.76"/>
</a>
</g>
</g>
<!-- Node18&#45;&gt;Node5 -->
<g id="edge34_Node000018_Node000005" class="edge">
<title>Node18&#45;&gt;Node5</title>
<g id="a_edge34_Node000018_Node000005"><a xlink:title=" ">
<path fill="none" stroke="#63b8ff" d="M423.55,-170.49C463.3,-160.2 530.31,-142.86 574.02,-131.54"/>
<polygon fill="#63b8ff" stroke="#63b8ff" points="574.98,-134.91 583.79,-129.02 573.23,-128.13 574.98,-134.91"/>
</a>
</g>
</g>
<!-- Node18&#45;&gt;Node9 -->
<g id="edge25_Node000018_Node000009" class="edge">
<title>Node18&#45;&gt;Node9</title>
<g id="a_edge25_Node000018_Node000009"><a xlink:title=" ">
<path fill="none" stroke="#63b8ff" d="M336.67,-175.44C304.58,-170.21 266.25,-157.84 245.69,-129 224.11,-98.73 241.84,-53.09 254.56,-28.21"/>
<polygon fill="#63b8ff" stroke="#63b8ff" points="257.76,-29.67 259.42,-19.21 251.6,-26.34 257.76,-29.67"/>
</a>
</g>
</g>
<!-- Node18&#45;&gt;Node15 -->
<g id="edge27_Node000018_Node000015" class="edge">
<title>Node18&#45;&gt;Node15</title>
<g id="a_edge27_Node000018_Node000015"><a xlink:title=" ">
<path fill="none" stroke="#63b8ff" d="M342.93,-170.42C306.1,-162.68 254.55,-149.34 212.69,-129 186.33,-116.2 159.65,-95.28 142.91,-80.98"/>
<polygon fill="#63b8ff" stroke="#63b8ff" points="144.95,-78.11 135.12,-74.18 140.35,-83.39 144.95,-78.11"/>
</a>
</g>
</g>
<!-- Node19 -->
<g id="Node000019" class="node">
<title>Node19</title>
<g id="a_Node000019"><a xlink:href="Monomials__fwd_8hpp.html" target="_top" xlink:title="Declaration of Monomial basis.">
<polygon fill="white" stroke="#666666" points="368.69,-129 254.69,-129 254.69,-110 368.69,-110 368.69,-129"/>
<text text-anchor="middle" x="311.69" y="-117" font-family="Helvetica,sans-Serif" font-size="10.00">Monomials_fwd.hpp</text>
</a>
</g>
</g>
<!-- Node18&#45;&gt;Node19 -->
<g id="edge28_Node000018_Node000019" class="edge">
<title>Node18&#45;&gt;Node19</title>
<g id="a_edge28_Node000018_Node000019"><a xlink:title=" ">
<path fill="none" stroke="#63b8ff" d="M379.03,-170.37C366.55,-161.12 346.51,-146.28 331.53,-135.19"/>
<polygon fill="#63b8ff" stroke="#63b8ff" points="333.51,-132.31 323.39,-129.17 329.35,-137.93 333.51,-132.31"/>
</a>
</g>
</g>
<!-- Node19&#45;&gt;Node2 -->
<g id="edge29_Node000019_Node000002" class="edge">
<title>Node19&#45;&gt;Node2</title>
<g id="a_edge29_Node000019_Node000002"><a xlink:title=" ">
<path fill="none" stroke="#63b8ff" d="M328.08,-109.98C344.26,-101.57 369.26,-88.59 388.07,-78.81"/>
<polygon fill="#63b8ff" stroke="#63b8ff" points="389.74,-81.89 397,-74.17 386.51,-75.68 389.74,-81.89"/>
</a>
</g>
</g>
<!-- Node19&#45;&gt;Node9 -->
<g id="edge31_Node000019_Node000009" class="edge">
<title>Node19&#45;&gt;Node9</title>
<g id="a_edge31_Node000019_Node000009"><a xlink:title=" ">
<path fill="none" stroke="#63b8ff" d="M305.14,-109.7C298.92,-101.01 289.65,-87.13 283.69,-74 277.14,-59.57 272.14,-42.3 268.92,-29.41"/>
<polygon fill="#63b8ff" stroke="#63b8ff" points="272.26,-28.32 266.55,-19.4 265.44,-29.94 272.26,-28.32"/>
</a>
</g>
</g>
<!-- Node19&#45;&gt;Node14 -->
<g id="edge33_Node000019_Node000014" class="edge">
<title>Node19&#45;&gt;Node14</title>
<g id="a_edge33_Node000019_Node000014"><a xlink:title=" ">
<path fill="none" stroke="#63b8ff" d="M368.79,-113.51C492.94,-102.67 784.3,-77.23 884.29,-68.5"/>
<polygon fill="#63b8ff" stroke="#63b8ff" points="884.78,-71.97 894.44,-67.62 884.18,-65 884.78,-71.97"/>
</a>
</g>
</g>
<!-- Node19&#45;&gt;Node15 -->
<g id="edge32_Node000019_Node000015" class="edge">
<title>Node19&#45;&gt;Node15</title>
<g id="a_edge32_Node000019_Node000015"><a xlink:title=" ">
<path fill="none" stroke="#63b8ff" d="M281.8,-109.98C250.31,-101.01 200.52,-86.82 165.66,-76.89"/>
<polygon fill="#63b8ff" stroke="#63b8ff" points="166.38,-73.46 155.81,-74.08 164.46,-80.19 166.38,-73.46"/>
</a>
</g>
</g>
<!-- Node20 -->
<g id="Node000020" class="node">
<title>Node20</title>
<g id="a_Node000020"><a xlink:title=" ">
<polygon fill="#e0e0e0" stroke="#999999" points="340.19,-74 293.19,-74 293.19,-55 340.19,-55 340.19,-74"/>
<text text-anchor="middle" x="316.69" y="-62" font-family="Helvetica,sans-Serif" font-size="10.00">cmath</text>
</a>
</g>
</g>
<!-- Node19&#45;&gt;Node20 -->
<g id="edge30_Node000019_Node000020" class="edge">
<title>Node19&#45;&gt;Node20</title>
<g id="a_edge30_Node000019_Node000020"><a xlink:title=" ">
<path fill="none" stroke="#63b8ff" d="M312.51,-109.75C313.17,-102.8 314.11,-92.85 314.93,-84.13"/>
<polygon fill="#63b8ff" stroke="#63b8ff" points="318.42,-84.37 315.88,-74.09 311.45,-83.72 318.42,-84.37"/>
</a>
</g>
</g>
</g>
</svg>

<g id="navigator" transform="translate(0 0)" fill="#404254">
  <rect fill="#f2f5e9" fill-opacity="0.5" stroke="#606060" stroke-width=".5" x="0" y="0" width="60" height="60"/>
  <use id="zoomplus" xlink:href="#zoomPlus" x="17" y="9" onmousedown="handleZoom(evt,'in')"/>
  <use id="zoomminus" xlink:href="#zoomMin" x="42" y="9" onmousedown="handleZoom(evt,'out')"/>
  <use id="reset" xlink:href="#resetDef" x="30" y="36" onmousedown="handleReset()"/>
   <use id="arrowup" xlink:href="#arrowUp" x="0" y="0" onmousedown="handlePan(0,-1)"/>
  <use id="arrowright" xlink:href="#arrowRight" x="0" y="0" onmousedown="handlePan(1,0)"/>
  <use id="arrowdown" xlink:href="#arrowDown" x="0" y="0" onmousedown="handlePan(0,1)"/>
  <use id="arrowleft" xlink:href="#arrowLeft" x="0" y="0" onmousedown="handlePan(-1,0)"/>
</g>
<svg viewBox="0 0 15 15" width="100%" height="30px" preserveAspectRatio="xMaxYMin meet">
 <g id="arrow_out" transform="scale(0.3 0.3)">
  <a xlink:href="WLS__fwd_8hpp__incl_org.svg" target="_base">
   <rect id="button" ry="5" rx="5" y="6" x="6" height="38" width="38"
        fill="#f2f5e9" fill-opacity="0.5" stroke="#606060" stroke-width="1.0"/>
   <path id="arrow"
     d="M 11.500037,31.436501 C 11.940474,20.09759 22.043105,11.32322 32.158766,21.979434 L 37.068811,17.246167 C 37.068811,17.246167 37.088388,32 37.088388,32 L 22.160133,31.978069 C 22.160133,31.978069 26.997745,27.140456 26.997745,27.140456 C 18.528582,18.264221 13.291696,25.230495 11.500037,31.436501 z"
     style="fill:#404040;"/>
  </a>
 </g>
</svg>

<style type='text/css'>
<![CDATA[
[data-mouse-over-selected='false'] { opacity: 0.7; }
[data-mouse-over-selected='true']  { opacity: 1.0; }
]]>
</style>
<script type="application/ecmascript"><![CDATA[
document.addEventListener('DOMContentLoaded', (event) => {
  highlightEdges();
  highlightAdjacentNodes();
});
]]></script>
</svg>
