<?xml version="1.0" encoding="UTF-8" standalone="no"?>
<!DOCTYPE svg PUBLIC "-//W3C//DTD SVG 1.1//EN"
 "http://www.w3.org/Graphics/SVG/1.1/DTD/svg11.dtd">
<!-- Generated by graphviz version 2.43.0 (0)
 -->
<!-- Title: src/approximations/WLSApproximant.cpp Pages: 1 -->
<svg width="872pt" height="434pt"
 viewBox="0.00 0.00 871.50 434.00" xmlns="http://www.w3.org/2000/svg" xmlns:xlink="http://www.w3.org/1999/xlink">
<g id="graph0" class="graph" transform="scale(1 1) rotate(0) translate(4 430)">
<title>src/approximations/WLSApproximant.cpp</title>
<!-- Node1 -->
<g id="Node000001" class="node">
<title>Node1</title>
<g id="a_Node000001"><a xlink:title="Explicit instantiations for common parameters.">
<polygon fill="#999999" stroke="#666666" points="232,-426 107,-426 107,-396 232,-396 232,-426"/>
<text text-anchor="start" x="115" y="-414" font-family="Helvetica,sans-Serif" font-size="10.00">src/approximations</text>
<text text-anchor="middle" x="169.5" y="-403" font-family="Helvetica,sans-Serif" font-size="10.00">/WLSApproximant.cpp</text>
</a>
</g>
</g>
<!-- Node2 -->
<g id="Node000002" class="node">
<title>Node2</title>
<g id="a_Node000002"><a xlink:href="WLSApproximant_8hpp.html" target="_top" xlink:title="Implementation of the function, obtained by WLS approximation.">
<polygon fill="white" stroke="#666666" points="247.5,-360 91.5,-360 91.5,-330 247.5,-330 247.5,-360"/>
<text text-anchor="start" x="99.5" y="-348" font-family="Helvetica,sans-Serif" font-size="10.00">medusa/bits/approximations</text>
<text text-anchor="middle" x="169.5" y="-337" font-family="Helvetica,sans-Serif" font-size="10.00">/WLSApproximant.hpp</text>
</a>
</g>
</g>
<!-- Node1&#45;&gt;Node2 -->
<g id="edge1_Node000001_Node000002" class="edge">
<title>Node1&#45;&gt;Node2</title>
<g id="a_edge1_Node000001_Node000002"><a xlink:title=" ">
<path fill="none" stroke="#63b8ff" d="M169.5,-395.8C169.5,-388.34 169.5,-378.99 169.5,-370.41"/>
<polygon fill="#63b8ff" stroke="#63b8ff" points="173,-370.16 169.5,-360.16 166,-370.16 173,-370.16"/>
</a>
</g>
</g>
<!-- Node3 -->
<g id="Node000003" class="node">
<title>Node3</title>
<g id="a_Node000003"><a xlink:href="WLSApproximant__fwd_8hpp.html" target="_top" xlink:title="Declaration of the function, obtained by WLS approximation.">
<polygon fill="white" stroke="#666666" points="145,-184 0,-184 0,-165 145,-165 145,-184"/>
<text text-anchor="middle" x="72.5" y="-172" font-family="Helvetica,sans-Serif" font-size="10.00">WLSApproximant_fwd.hpp</text>
</a>
</g>
</g>
<!-- Node2&#45;&gt;Node3 -->
<g id="edge2_Node000002_Node000003" class="edge">
<title>Node2&#45;&gt;Node3</title>
<g id="a_edge2_Node000002_Node000003"><a xlink:title=" ">
<path fill="none" stroke="#63b8ff" d="M152.1,-329.74C130.91,-311.26 95.93,-276.89 79.5,-239 73.36,-224.83 71.82,-207.3 71.71,-194.24"/>
<polygon fill="#63b8ff" stroke="#63b8ff" points="75.21,-194.18 71.88,-184.12 68.21,-194.06 75.21,-194.18"/>
</a>
</g>
</g>
<!-- Node7 -->
<g id="Node000007" class="node">
<title>Node7</title>
<g id="a_Node000007"><a xlink:href="numutils_8hpp.html" target="_top" xlink:title="Declaration of numerical utilities.">
<polygon fill="white" stroke="#666666" points="388,-294 221,-294 221,-275 388,-275 388,-294"/>
<text text-anchor="middle" x="304.5" y="-282" font-family="Helvetica,sans-Serif" font-size="10.00">medusa/bits/utils/numutils.hpp</text>
</a>
</g>
</g>
<!-- Node2&#45;&gt;Node7 -->
<g id="edge6_Node000002_Node000007" class="edge">
<title>Node2&#45;&gt;Node7</title>
<g id="a_edge6_Node000002_Node000007"><a xlink:title=" ">
<path fill="none" stroke="#63b8ff" d="M201.84,-329.99C224.16,-320.31 253.6,-307.56 275.23,-298.18"/>
<polygon fill="#63b8ff" stroke="#63b8ff" points="276.78,-301.33 284.56,-294.14 274,-294.9 276.78,-301.33"/>
</a>
</g>
</g>
<!-- Node4 -->
<g id="Node000004" class="node">
<title>Node4</title>
<g id="a_Node000004"><a xlink:href="Config_8hpp.html" target="_top" xlink:title="Contains compile time settings for the project, such as Eigen plugins.">
<polygon fill="white" stroke="#666666" points="279.5,-129 169.5,-129 169.5,-110 279.5,-110 279.5,-129"/>
<text text-anchor="middle" x="224.5" y="-117" font-family="Helvetica,sans-Serif" font-size="10.00">medusa/Config.hpp</text>
</a>
</g>
</g>
<!-- Node3&#45;&gt;Node4 -->
<g id="edge3_Node000003_Node000004" class="edge">
<title>Node3&#45;&gt;Node4</title>
<g id="a_edge3_Node000003_Node000004"><a xlink:title=" ">
<path fill="none" stroke="#63b8ff" d="M96.92,-164.98C122.22,-156.16 161.95,-142.31 190.36,-132.41"/>
<polygon fill="#63b8ff" stroke="#63b8ff" points="191.6,-135.68 199.89,-129.08 189.29,-129.07 191.6,-135.68"/>
</a>
</g>
</g>
<!-- Node6 -->
<g id="Node000006" class="node">
<title>Node6</title>
<g id="a_Node000006"><a xlink:title=" ">
<polygon fill="#e0e0e0" stroke="#999999" points="141,-129 72,-129 72,-110 141,-110 141,-129"/>
<text text-anchor="middle" x="106.5" y="-117" font-family="Helvetica,sans-Serif" font-size="10.00">Eigen/Core</text>
</a>
</g>
</g>
<!-- Node3&#45;&gt;Node6 -->
<g id="edge5_Node000003_Node000006" class="edge">
<title>Node3&#45;&gt;Node6</title>
<g id="a_edge5_Node000003_Node000006"><a xlink:title=" ">
<path fill="none" stroke="#63b8ff" d="M78.11,-164.75C82.82,-157.42 89.67,-146.73 95.47,-137.7"/>
<polygon fill="#63b8ff" stroke="#63b8ff" points="98.54,-139.4 100.99,-129.09 92.64,-135.62 98.54,-139.4"/>
</a>
</g>
</g>
<!-- Node5 -->
<g id="Node000005" class="node">
<title>Node5</title>
<g id="a_Node000005"><a xlink:title=" ">
<polygon fill="#e0e0e0" stroke="#999999" points="555,-19 508,-19 508,0 555,0 555,-19"/>
<text text-anchor="middle" x="531.5" y="-7" font-family="Helvetica,sans-Serif" font-size="10.00">vector</text>
</a>
</g>
</g>
<!-- Node4&#45;&gt;Node5 -->
<g id="edge4_Node000004_Node000005" class="edge">
<title>Node4&#45;&gt;Node5</title>
<g id="a_edge4_Node000004_Node000005"><a xlink:title=" ">
<path fill="none" stroke="#63b8ff" d="M248.85,-109.94C303.52,-90.7 436.12,-44.05 498.29,-22.18"/>
<polygon fill="#63b8ff" stroke="#63b8ff" points="499.72,-25.39 508,-18.77 497.4,-18.79 499.72,-25.39"/>
</a>
</g>
</g>
<!-- Node7&#45;&gt;Node4 -->
<g id="edge7_Node000007_Node000004" class="edge">
<title>Node7&#45;&gt;Node4</title>
<g id="a_edge7_Node000007_Node000004"><a xlink:title=" ">
<path fill="none" stroke="#63b8ff" d="M307.61,-274.97C311.66,-262.48 317.45,-238.68 310.5,-220 297.27,-184.46 265,-153.15 243.97,-135.54"/>
<polygon fill="#63b8ff" stroke="#63b8ff" points="245.97,-132.65 236,-129.07 241.55,-138.09 245.97,-132.65"/>
</a>
</g>
</g>
<!-- Node8 -->
<g id="Node000008" class="node">
<title>Node8</title>
<g id="a_Node000008"><a xlink:href="assert_8hpp.html" target="_top" xlink:title="Implementation of custom assert and debug utilities.">
<polygon fill="white" stroke="#666666" points="715,-129 560,-129 560,-110 715,-110 715,-129"/>
<text text-anchor="middle" x="637.5" y="-117" font-family="Helvetica,sans-Serif" font-size="10.00">medusa/bits/utils/assert.hpp</text>
</a>
</g>
</g>
<!-- Node7&#45;&gt;Node8 -->
<g id="edge8_Node000007_Node000008" class="edge">
<title>Node7&#45;&gt;Node8</title>
<g id="a_edge8_Node000007_Node000008"><a xlink:title=" ">
<path fill="none" stroke="#63b8ff" d="M388.09,-279.34C432.17,-274.17 485.8,-262.97 528.5,-239 573.22,-213.89 609.82,-163.91 626.98,-137.6"/>
<polygon fill="#63b8ff" stroke="#63b8ff" points="629.99,-139.39 632.4,-129.07 624.08,-135.63 629.99,-139.39"/>
</a>
</g>
</g>
<!-- Node15 -->
<g id="Node000015" class="node">
<title>Node15</title>
<g id="a_Node000015"><a xlink:href="Vec_8hpp.html" target="_top" xlink:title="Implemetations for Vec.">
<polygon fill="white" stroke="#666666" points="236.5,-239 88.5,-239 88.5,-220 236.5,-220 236.5,-239"/>
<text text-anchor="middle" x="162.5" y="-227" font-family="Helvetica,sans-Serif" font-size="10.00">medusa/bits/types/Vec.hpp</text>
</a>
</g>
</g>
<!-- Node7&#45;&gt;Node15 -->
<g id="edge16_Node000007_Node000015" class="edge">
<title>Node7&#45;&gt;Node15</title>
<g id="a_edge16_Node000007_Node000015"><a xlink:title=" ">
<path fill="none" stroke="#63b8ff" d="M281.69,-274.98C258.33,-266.27 221.8,-252.63 195.33,-242.75"/>
<polygon fill="#63b8ff" stroke="#63b8ff" points="196.32,-239.39 185.73,-239.17 193.87,-245.95 196.32,-239.39"/>
</a>
</g>
</g>
<!-- Node17 -->
<g id="Node000017" class="node">
<title>Node17</title>
<g id="a_Node000017"><a xlink:href="Range_8hpp.html" target="_top" xlink:title="Implementation of Range.">
<polygon fill="white" stroke="#666666" points="520,-239 359,-239 359,-220 520,-220 520,-239"/>
<text text-anchor="middle" x="439.5" y="-227" font-family="Helvetica,sans-Serif" font-size="10.00">medusa/bits/types/Range.hpp</text>
</a>
</g>
</g>
<!-- Node7&#45;&gt;Node17 -->
<g id="edge20_Node000007_Node000017" class="edge">
<title>Node7&#45;&gt;Node17</title>
<g id="a_edge20_Node000007_Node000017"><a xlink:title=" ">
<path fill="none" stroke="#63b8ff" d="M326.19,-274.98C348.3,-266.3 382.82,-252.75 407.95,-242.88"/>
<polygon fill="#63b8ff" stroke="#63b8ff" points="409.39,-246.08 417.42,-239.17 406.83,-239.57 409.39,-246.08"/>
</a>
</g>
</g>
<!-- Node23 -->
<g id="Node000023" class="node">
<title>Node23</title>
<g id="a_Node000023"><a xlink:title=" ">
<polygon fill="#e0e0e0" stroke="#999999" points="302,-239 255,-239 255,-220 302,-220 302,-239"/>
<text text-anchor="middle" x="278.5" y="-227" font-family="Helvetica,sans-Serif" font-size="10.00">cmath</text>
</a>
</g>
</g>
<!-- Node7&#45;&gt;Node23 -->
<g id="edge29_Node000007_Node000023" class="edge">
<title>Node7&#45;&gt;Node23</title>
<g id="a_edge29_Node000007_Node000023"><a xlink:title=" ">
<path fill="none" stroke="#63b8ff" d="M300.21,-274.75C296.69,-267.57 291.59,-257.18 287.22,-248.27"/>
<polygon fill="#63b8ff" stroke="#63b8ff" points="290.26,-246.53 282.71,-239.09 283.98,-249.61 290.26,-246.53"/>
</a>
</g>
</g>
<!-- Node9 -->
<g id="Node000009" class="node">
<title>Node9</title>
<g id="a_Node000009"><a xlink:title=" ">
<polygon fill="#e0e0e0" stroke="#999999" points="691.5,-74 559.5,-74 559.5,-55 691.5,-55 691.5,-74"/>
<text text-anchor="middle" x="625.5" y="-62" font-family="Helvetica,sans-Serif" font-size="10.00">tinyformat/tinyformat.h</text>
</a>
</g>
</g>
<!-- Node8&#45;&gt;Node9 -->
<g id="edge9_Node000008_Node000009" class="edge">
<title>Node8&#45;&gt;Node9</title>
<g id="a_edge9_Node000008_Node000009"><a xlink:title=" ">
<path fill="none" stroke="#63b8ff" d="M635.52,-109.75C633.93,-102.72 631.64,-92.62 629.65,-83.84"/>
<polygon fill="#63b8ff" stroke="#63b8ff" points="633.07,-83.07 627.44,-74.09 626.24,-84.62 633.07,-83.07"/>
</a>
</g>
</g>
<!-- Node10 -->
<g id="Node000010" class="node">
<title>Node10</title>
<g id="a_Node000010"><a xlink:href="print_8hpp.html" target="_top" xlink:title="Printing helpers for std types.">
<polygon fill="white" stroke="#666666" points="769.5,-74 709.5,-74 709.5,-55 769.5,-55 769.5,-74"/>
<text text-anchor="middle" x="739.5" y="-62" font-family="Helvetica,sans-Serif" font-size="10.00">print.hpp</text>
</a>
</g>
</g>
<!-- Node8&#45;&gt;Node10 -->
<g id="edge10_Node000008_Node000010" class="edge">
<title>Node8&#45;&gt;Node10</title>
<g id="a_edge10_Node000008_Node000010"><a xlink:title=" ">
<path fill="none" stroke="#63b8ff" d="M653.89,-109.98C670.07,-101.57 695.07,-88.59 713.88,-78.81"/>
<polygon fill="#63b8ff" stroke="#63b8ff" points="715.55,-81.89 722.81,-74.17 712.33,-75.68 715.55,-81.89"/>
</a>
</g>
</g>
<!-- Node10&#45;&gt;Node5 -->
<g id="edge12_Node000010_Node000005" class="edge">
<title>Node10&#45;&gt;Node5</title>
<g id="a_edge12_Node000010_Node000005"><a xlink:title=" ">
<path fill="none" stroke="#63b8ff" d="M709.26,-55.79C670.8,-45.99 604.63,-29.13 564.78,-18.98"/>
<polygon fill="#63b8ff" stroke="#63b8ff" points="565.56,-15.57 555.01,-16.49 563.83,-22.35 565.56,-15.57"/>
</a>
</g>
</g>
<!-- Node11 -->
<g id="Node000011" class="node">
<title>Node11</title>
<g id="a_Node000011"><a xlink:title=" ">
<polygon fill="#e0e0e0" stroke="#999999" points="803.5,-19 743.5,-19 743.5,0 803.5,0 803.5,-19"/>
<text text-anchor="middle" x="773.5" y="-7" font-family="Helvetica,sans-Serif" font-size="10.00">iostream</text>
</a>
</g>
</g>
<!-- Node10&#45;&gt;Node11 -->
<g id="edge11_Node000010_Node000011" class="edge">
<title>Node10&#45;&gt;Node11</title>
<g id="a_edge11_Node000010_Node000011"><a xlink:title=" ">
<path fill="none" stroke="#63b8ff" d="M745.11,-54.75C749.82,-47.42 756.67,-36.73 762.47,-27.7"/>
<polygon fill="#63b8ff" stroke="#63b8ff" points="765.54,-29.4 767.99,-19.09 759.64,-25.62 765.54,-29.4"/>
</a>
</g>
</g>
<!-- Node12 -->
<g id="Node000012" class="node">
<title>Node12</title>
<g id="a_Node000012"><a xlink:title=" ">
<polygon fill="#e0e0e0" stroke="#999999" points="863.5,-19 821.5,-19 821.5,0 863.5,0 863.5,-19"/>
<text text-anchor="middle" x="842.5" y="-7" font-family="Helvetica,sans-Serif" font-size="10.00">array</text>
</a>
</g>
</g>
<!-- Node10&#45;&gt;Node12 -->
<g id="edge13_Node000010_Node000012" class="edge">
<title>Node10&#45;&gt;Node12</title>
<g id="a_edge13_Node000010_Node000012"><a xlink:title=" ">
<path fill="none" stroke="#63b8ff" d="M756.05,-54.98C772.39,-46.57 797.63,-33.59 816.63,-23.81"/>
<polygon fill="#63b8ff" stroke="#63b8ff" points="818.36,-26.86 825.65,-19.17 815.16,-20.63 818.36,-26.86"/>
</a>
</g>
</g>
<!-- Node13 -->
<g id="Node000013" class="node">
<title>Node13</title>
<g id="a_Node000013"><a xlink:title=" ">
<polygon fill="#e0e0e0" stroke="#999999" points="666,-19 621,-19 621,0 666,0 666,-19"/>
<text text-anchor="middle" x="643.5" y="-7" font-family="Helvetica,sans-Serif" font-size="10.00">utility</text>
</a>
</g>
</g>
<!-- Node10&#45;&gt;Node13 -->
<g id="edge14_Node000010_Node000013" class="edge">
<title>Node10&#45;&gt;Node13</title>
<g id="a_edge14_Node000010_Node000013"><a xlink:title=" ">
<path fill="none" stroke="#63b8ff" d="M724.08,-54.98C709.05,-46.69 685.96,-33.94 668.34,-24.22"/>
<polygon fill="#63b8ff" stroke="#63b8ff" points="669.65,-20.94 659.2,-19.17 666.27,-27.07 669.65,-20.94"/>
</a>
</g>
</g>
<!-- Node14 -->
<g id="Node000014" class="node">
<title>Node14</title>
<g id="a_Node000014"><a xlink:title=" ">
<polygon fill="#e0e0e0" stroke="#999999" points="725,-19 684,-19 684,0 725,0 725,-19"/>
<text text-anchor="middle" x="704.5" y="-7" font-family="Helvetica,sans-Serif" font-size="10.00">tuple</text>
</a>
</g>
</g>
<!-- Node10&#45;&gt;Node14 -->
<g id="edge15_Node000010_Node000014" class="edge">
<title>Node10&#45;&gt;Node14</title>
<g id="a_edge15_Node000010_Node000014"><a xlink:title=" ">
<path fill="none" stroke="#63b8ff" d="M733.72,-54.75C728.88,-47.42 721.82,-36.73 715.86,-27.7"/>
<polygon fill="#63b8ff" stroke="#63b8ff" points="718.6,-25.5 710.17,-19.09 712.76,-29.36 718.6,-25.5"/>
</a>
</g>
</g>
<!-- Node16 -->
<g id="Node000016" class="node">
<title>Node16</title>
<g id="a_Node000016"><a xlink:href="Vec__fwd_8hpp.html" target="_top" xlink:title="Declaration of Vec.">
<polygon fill="white" stroke="#666666" points="240,-184 163,-184 163,-165 240,-165 240,-184"/>
<text text-anchor="middle" x="201.5" y="-172" font-family="Helvetica,sans-Serif" font-size="10.00">Vec_fwd.hpp</text>
</a>
</g>
</g>
<!-- Node15&#45;&gt;Node16 -->
<g id="edge17_Node000015_Node000016" class="edge">
<title>Node15&#45;&gt;Node16</title>
<g id="a_edge17_Node000015_Node000016"><a xlink:title=" ">
<path fill="none" stroke="#63b8ff" d="M168.94,-219.75C174.39,-212.34 182.36,-201.5 189.06,-192.41"/>
<polygon fill="#63b8ff" stroke="#63b8ff" points="192.07,-194.22 195.18,-184.09 186.43,-190.07 192.07,-194.22"/>
</a>
</g>
</g>
<!-- Node16&#45;&gt;Node4 -->
<g id="edge18_Node000016_Node000004" class="edge">
<title>Node16&#45;&gt;Node4</title>
<g id="a_edge18_Node000016_Node000004"><a xlink:title=" ">
<path fill="none" stroke="#63b8ff" d="M205.3,-164.75C208.41,-157.57 212.92,-147.18 216.79,-138.27"/>
<polygon fill="#63b8ff" stroke="#63b8ff" points="220,-139.66 220.77,-129.09 213.58,-136.87 220,-139.66"/>
</a>
</g>
</g>
<!-- Node16&#45;&gt;Node6 -->
<g id="edge19_Node000016_Node000006" class="edge">
<title>Node16&#45;&gt;Node6</title>
<g id="a_edge19_Node000016_Node000006"><a xlink:title=" ">
<path fill="none" stroke="#63b8ff" d="M186.24,-164.98C171.37,-156.69 148.52,-143.94 131.08,-134.22"/>
<polygon fill="#63b8ff" stroke="#63b8ff" points="132.48,-130.99 122.04,-129.17 129.07,-137.1 132.48,-130.99"/>
</a>
</g>
</g>
<!-- Node18 -->
<g id="Node000018" class="node">
<title>Node18</title>
<g id="a_Node000018"><a xlink:href="Range__fwd_8hpp.html" target="_top" xlink:title="Declaration of Range.">
<polygon fill="white" stroke="#666666" points="532,-184 441,-184 441,-165 532,-165 532,-184"/>
<text text-anchor="middle" x="486.5" y="-172" font-family="Helvetica,sans-Serif" font-size="10.00">Range_fwd.hpp</text>
</a>
</g>
</g>
<!-- Node17&#45;&gt;Node18 -->
<g id="edge21_Node000017_Node000018" class="edge">
<title>Node17&#45;&gt;Node18</title>
<g id="a_edge21_Node000017_Node000018"><a xlink:title=" ">
<path fill="none" stroke="#63b8ff" d="M447.26,-219.75C453.97,-212.18 463.84,-201.05 472.01,-191.84"/>
<polygon fill="#63b8ff" stroke="#63b8ff" points="474.87,-193.89 478.88,-184.09 469.63,-189.25 474.87,-193.89"/>
</a>
</g>
</g>
<!-- Node22 -->
<g id="Node000022" class="node">
<title>Node22</title>
<g id="a_Node000022"><a xlink:title=" ">
<polygon fill="#e0e0e0" stroke="#999999" points="422.5,-184 358.5,-184 358.5,-165 422.5,-165 422.5,-184"/>
<text text-anchor="middle" x="390.5" y="-172" font-family="Helvetica,sans-Serif" font-size="10.00">algorithm</text>
</a>
</g>
</g>
<!-- Node17&#45;&gt;Node22 -->
<g id="edge28_Node000017_Node000022" class="edge">
<title>Node17&#45;&gt;Node22</title>
<g id="a_edge28_Node000017_Node000022"><a xlink:title=" ">
<path fill="none" stroke="#63b8ff" d="M431.41,-219.75C424.34,-212.11 413.91,-200.82 405.35,-191.56"/>
<polygon fill="#63b8ff" stroke="#63b8ff" points="407.8,-189.06 398.44,-184.09 402.66,-193.81 407.8,-189.06"/>
</a>
</g>
</g>
<!-- Node18&#45;&gt;Node4 -->
<g id="edge22_Node000018_Node000004" class="edge">
<title>Node18&#45;&gt;Node4</title>
<g id="a_edge22_Node000018_Node000004"><a xlink:title=" ">
<path fill="none" stroke="#63b8ff" d="M444.41,-164.98C398.8,-155.76 325.98,-141.03 276.75,-131.07"/>
<polygon fill="#63b8ff" stroke="#63b8ff" points="277.42,-127.63 266.92,-129.08 276.03,-134.5 277.42,-127.63"/>
</a>
</g>
</g>
<!-- Node18&#45;&gt;Node5 -->
<g id="edge26_Node000018_Node000005" class="edge">
<title>Node18&#45;&gt;Node5</title>
<g id="a_edge26_Node000018_Node000005"><a xlink:title=" ">
<path fill="none" stroke="#63b8ff" d="M492.92,-164.78C498.95,-156.14 507.73,-142.31 512.5,-129 524.63,-95.12 529.04,-53.01 530.63,-29.2"/>
<polygon fill="#63b8ff" stroke="#63b8ff" points="534.13,-29.28 531.2,-19.1 527.14,-28.88 534.13,-29.28"/>
</a>
</g>
</g>
<!-- Node18&#45;&gt;Node8 -->
<g id="edge23_Node000018_Node000008" class="edge">
<title>Node18&#45;&gt;Node8</title>
<g id="a_edge23_Node000018_Node000008"><a xlink:title=" ">
<path fill="none" stroke="#63b8ff" d="M510.76,-164.98C535.82,-156.19 575.13,-142.39 603.33,-132.49"/>
<polygon fill="#63b8ff" stroke="#63b8ff" points="604.52,-135.78 612.8,-129.17 602.2,-129.18 604.52,-135.78"/>
</a>
</g>
</g>
<!-- Node19 -->
<g id="Node000019" class="node">
<title>Node19</title>
<g id="a_Node000019"><a xlink:href="traits_8hpp.html" target="_top" xlink:title="Type traits definition for vector and scalar fields.">
<polygon fill="white" stroke="#666666" points="427,-129 364,-129 364,-110 427,-110 427,-129"/>
<text text-anchor="middle" x="395.5" y="-117" font-family="Helvetica,sans-Serif" font-size="10.00">traits.hpp</text>
</a>
</g>
</g>
<!-- Node18&#45;&gt;Node19 -->
<g id="edge24_Node000018_Node000019" class="edge">
<title>Node18&#45;&gt;Node19</title>
<g id="a_edge24_Node000018_Node000019"><a xlink:title=" ">
<path fill="none" stroke="#63b8ff" d="M471.88,-164.98C457.64,-156.69 435.75,-143.94 419.05,-134.22"/>
<polygon fill="#63b8ff" stroke="#63b8ff" points="420.79,-131.18 410.39,-129.17 417.27,-137.23 420.79,-131.18"/>
</a>
</g>
</g>
<!-- Node20 -->
<g id="Node000020" class="node">
<title>Node20</title>
<g id="a_Node000020"><a xlink:title=" ">
<polygon fill="#e0e0e0" stroke="#999999" points="503.5,-129 445.5,-129 445.5,-110 503.5,-110 503.5,-129"/>
<text text-anchor="middle" x="474.5" y="-117" font-family="Helvetica,sans-Serif" font-size="10.00">memory</text>
</a>
</g>
</g>
<!-- Node18&#45;&gt;Node20 -->
<g id="edge25_Node000018_Node000020" class="edge">
<title>Node18&#45;&gt;Node20</title>
<g id="a_edge25_Node000018_Node000020"><a xlink:title=" ">
<path fill="none" stroke="#63b8ff" d="M484.52,-164.75C482.93,-157.72 480.64,-147.62 478.65,-138.84"/>
<polygon fill="#63b8ff" stroke="#63b8ff" points="482.07,-138.07 476.44,-129.09 475.24,-139.62 482.07,-138.07"/>
</a>
</g>
</g>
<!-- Node21 -->
<g id="Node000021" class="node">
<title>Node21</title>
<g id="a_Node000021"><a xlink:title=" ">
<polygon fill="#e0e0e0" stroke="#999999" points="345.5,-129 297.5,-129 297.5,-110 345.5,-110 345.5,-129"/>
<text text-anchor="middle" x="321.5" y="-117" font-family="Helvetica,sans-Serif" font-size="10.00">iosfwd</text>
</a>
</g>
</g>
<!-- Node18&#45;&gt;Node21 -->
<g id="edge27_Node000018_Node000021" class="edge">
<title>Node18&#45;&gt;Node21</title>
<g id="a_edge27_Node000018_Node000021"><a xlink:title=" ">
<path fill="none" stroke="#63b8ff" d="M459.99,-164.98C431.59,-155.86 386.43,-141.36 355.45,-131.4"/>
<polygon fill="#63b8ff" stroke="#63b8ff" points="356.12,-127.94 345.53,-128.22 353.98,-134.61 356.12,-127.94"/>
</a>
</g>
</g>
</g>
</svg>
