<?xml version="1.0" encoding="UTF-8" standalone="no"?>
<!DOCTYPE svg PUBLIC "-//W3C//DTD SVG 1.1//EN"
 "http://www.w3.org/Graphics/SVG/1.1/DTD/svg11.dtd">
<!-- Generated by graphviz version 2.43.0 (0)
 -->
<!-- Title: include/medusa/bits/approximations/WLSApproximant_fwd.hpp Pages: 1 -->
<svg width="541pt" height="313pt"
 viewBox="0.00 0.00 541.00 313.00" xmlns="http://www.w3.org/2000/svg" xmlns:xlink="http://www.w3.org/1999/xlink">
<g id="graph0" class="graph" transform="scale(1 1) rotate(0) translate(4 309)">
<title>include/medusa/bits/approximations/WLSApproximant_fwd.hpp</title>
<!-- Node1 -->
<g id="Node000001" class="node">
<title>Node1</title>
<g id="a_Node000001"><a xlink:title="Declaration of the function, obtained by WLS approximation.">
<polygon fill="#999999" stroke="#666666" points="288.5,-305 104.5,-305 104.5,-264 288.5,-264 288.5,-305"/>
<text text-anchor="start" x="112.5" y="-293" font-family="Helvetica,sans-Serif" font-size="10.00">include/medusa/bits</text>
<text text-anchor="start" x="112.5" y="-282" font-family="Helvetica,sans-Serif" font-size="10.00">/approximations/WLSApproximant</text>
<text text-anchor="middle" x="196.5" y="-271" font-family="Helvetica,sans-Serif" font-size="10.00">_fwd.hpp</text>
</a>
</g>
</g>
<!-- Node2 -->
<g id="Node000002" class="node">
<title>Node2</title>
<g id="a_Node000002"><a xlink:href="Approximations__fwd_8hpp.html" target="_top" xlink:title="Header for Approximations module, declarations only.">
<polygon fill="white" stroke="#666666" points="191.5,-151 17.5,-151 17.5,-121 191.5,-121 191.5,-151"/>
<text text-anchor="start" x="25.5" y="-139" font-family="Helvetica,sans-Serif" font-size="10.00">include/medusa/Approximations</text>
<text text-anchor="middle" x="104.5" y="-128" font-family="Helvetica,sans-Serif" font-size="10.00">_fwd.hpp</text>
</a>
</g>
</g>
<!-- Node1&#45;&gt;Node2 -->
<g id="edge1_Node000001_Node000002" class="edge">
<title>Node1&#45;&gt;Node2</title>
<g id="a_edge1_Node000001_Node000002"><a xlink:title=" ">
<path fill="none" stroke="#63b8ff" d="M155.67,-257.78C145.16,-249.42 134.78,-239.34 127.5,-228 112.01,-203.86 106.95,-169.9 105.3,-151.03"/>
<polygon fill="#63b8ff" stroke="#63b8ff" points="153.59,-260.59 163.68,-263.82 157.81,-255.01 153.59,-260.59"/>
</a>
</g>
</g>
<!-- Node6 -->
<g id="Node000006" class="node">
<title>Node6</title>
<g id="a_Node000006"><a xlink:href="WLSApproximant_8hpp.html" target="_top" xlink:title="Implementation of the function, obtained by WLS approximation.">
<polygon fill="white" stroke="#666666" points="481,-222.5 276,-222.5 276,-192.5 481,-192.5 481,-222.5"/>
<text text-anchor="start" x="284" y="-210.5" font-family="Helvetica,sans-Serif" font-size="10.00">include/medusa/bits</text>
<text text-anchor="middle" x="378.5" y="-199.5" font-family="Helvetica,sans-Serif" font-size="10.00">/approximations/WLSApproximant.hpp</text>
</a>
</g>
</g>
<!-- Node1&#45;&gt;Node6 -->
<g id="edge6_Node000001_Node000006" class="edge">
<title>Node1&#45;&gt;Node6</title>
<g id="a_edge6_Node000001_Node000006"><a xlink:title=" ">
<path fill="none" stroke="#63b8ff" d="M253.31,-260.09C283.15,-247.79 318.74,-233.13 344.33,-222.58"/>
<polygon fill="#63b8ff" stroke="#63b8ff" points="251.76,-256.94 243.84,-263.99 254.42,-263.42 251.76,-256.94"/>
</a>
</g>
</g>
<!-- Node10 -->
<g id="Node000010" class="node">
<title>Node10</title>
<g id="a_Node000010"><a xlink:href="WLS__fwd_8hpp.html" target="_top" xlink:title="Declaration of weighted least squares approximation.">
<polygon fill="white" stroke="#666666" points="256.5,-228 136.5,-228 136.5,-187 256.5,-187 256.5,-228"/>
<text text-anchor="start" x="144.5" y="-216" font-family="Helvetica,sans-Serif" font-size="10.00">include/medusa/bits</text>
<text text-anchor="start" x="144.5" y="-205" font-family="Helvetica,sans-Serif" font-size="10.00">/approximations/WLS</text>
<text text-anchor="middle" x="196.5" y="-194" font-family="Helvetica,sans-Serif" font-size="10.00">_fwd.hpp</text>
</a>
</g>
</g>
<!-- Node1&#45;&gt;Node10 -->
<g id="edge12_Node000001_Node000010" class="edge">
<title>Node1&#45;&gt;Node10</title>
<g id="a_edge12_Node000001_Node000010"><a xlink:title=" ">
<path fill="none" stroke="#63b8ff" d="M196.5,-253.69C196.5,-245.08 196.5,-235.9 196.5,-228.07"/>
<polygon fill="#63b8ff" stroke="#63b8ff" points="193,-253.79 196.5,-263.79 200,-253.79 193,-253.79"/>
</a>
</g>
</g>
<!-- Node3 -->
<g id="Node000003" class="node">
<title>Node3</title>
<g id="a_Node000003"><a xlink:href="Approximations_8hpp.html" target="_top" xlink:title="Header for Approximations module.">
<polygon fill="white" stroke="#666666" points="477,-79.5 282,-79.5 282,-60.5 477,-60.5 477,-79.5"/>
<text text-anchor="middle" x="379.5" y="-67.5" font-family="Helvetica,sans-Serif" font-size="10.00">include/medusa/Approximations.hpp</text>
</a>
</g>
</g>
<!-- Node2&#45;&gt;Node3 -->
<g id="edge2_Node000002_Node000003" class="edge">
<title>Node2&#45;&gt;Node3</title>
<g id="a_edge2_Node000002_Node000003"><a xlink:title=" ">
<path fill="none" stroke="#63b8ff" d="M174.64,-118.68C228.29,-106.19 300.1,-89.48 342.9,-79.52"/>
<polygon fill="#63b8ff" stroke="#63b8ff" points="173.8,-115.28 164.85,-120.95 175.38,-122.1 173.8,-115.28"/>
</a>
</g>
</g>
<!-- Node5 -->
<g id="Node000005" class="node">
<title>Node5</title>
<g id="a_Node000005"><a xlink:href="Medusa__fwd_8hpp.html" target="_top" xlink:title="Main header file that includes only declarations for some heavy classes such as mm::WLS to reduce com...">
<polygon fill="white" stroke="#666666" points="135,-85 0,-85 0,-55 135,-55 135,-85"/>
<text text-anchor="start" x="8" y="-73" font-family="Helvetica,sans-Serif" font-size="10.00">include/medusa/Medusa</text>
<text text-anchor="middle" x="67.5" y="-62" font-family="Helvetica,sans-Serif" font-size="10.00">_fwd.hpp</text>
</a>
</g>
</g>
<!-- Node2&#45;&gt;Node5 -->
<g id="edge4_Node000002_Node000005" class="edge">
<title>Node2&#45;&gt;Node5</title>
<g id="a_edge4_Node000002_Node000005"><a xlink:title=" ">
<path fill="none" stroke="#63b8ff" d="M91.18,-111.96C86,-103 80.24,-93.03 75.69,-85.16"/>
<polygon fill="#63b8ff" stroke="#63b8ff" points="88.25,-113.89 96.29,-120.8 94.31,-110.39 88.25,-113.89"/>
</a>
</g>
</g>
<!-- Node4 -->
<g id="Node000004" class="node">
<title>Node4</title>
<g id="a_Node000004"><a xlink:href="Medusa_8hpp.html" target="_top" xlink:title="Main header file that includes most other components.">
<polygon fill="white" stroke="#666666" points="301.5,-19 145.5,-19 145.5,0 301.5,0 301.5,-19"/>
<text text-anchor="middle" x="223.5" y="-7" font-family="Helvetica,sans-Serif" font-size="10.00">include/medusa/Medusa.hpp</text>
</a>
</g>
</g>
<!-- Node3&#45;&gt;Node4 -->
<g id="edge3_Node000003_Node000004" class="edge">
<title>Node3&#45;&gt;Node4</title>
<g id="a_edge3_Node000003_Node000004"><a xlink:title=" ">
<path fill="none" stroke="#63b8ff" d="M347.17,-56.88C317.02,-45.57 272.8,-28.99 246.21,-19.02"/>
<polygon fill="#63b8ff" stroke="#63b8ff" points="346.22,-60.26 356.82,-60.49 348.68,-53.71 346.22,-60.26"/>
</a>
</g>
</g>
<!-- Node5&#45;&gt;Node4 -->
<g id="edge5_Node000005_Node000004" class="edge">
<title>Node5&#45;&gt;Node4</title>
<g id="a_edge5_Node000005_Node000004"><a xlink:title=" ">
<path fill="none" stroke="#63b8ff" d="M114.24,-51.47C142.72,-40.79 177.85,-27.62 200.46,-19.14"/>
<polygon fill="#63b8ff" stroke="#63b8ff" points="113,-48.2 104.87,-54.99 115.46,-54.75 113,-48.2"/>
</a>
</g>
</g>
<!-- Node6&#45;&gt;Node3 -->
<g id="edge7_Node000006_Node000003" class="edge">
<title>Node6&#45;&gt;Node3</title>
<g id="a_edge7_Node000006_Node000003"><a xlink:title=" ">
<path fill="none" stroke="#63b8ff" d="M378.68,-181.91C378.91,-151.05 379.29,-99.73 379.44,-79.53"/>
<polygon fill="#63b8ff" stroke="#63b8ff" points="375.18,-182.23 378.61,-192.26 382.18,-182.28 375.18,-182.23"/>
</a>
</g>
</g>
<!-- Node7 -->
<g id="Node000007" class="node">
<title>Node7</title>
<g id="a_Node000007"><a xlink:href="WLS_8hpp.html" target="_top" xlink:title="Implementation of weighted least squares approximation.">
<polygon fill="white" stroke="#666666" points="351,-151 210,-151 210,-121 351,-121 351,-151"/>
<text text-anchor="start" x="218" y="-139" font-family="Helvetica,sans-Serif" font-size="10.00">include/medusa/bits</text>
<text text-anchor="middle" x="280.5" y="-128" font-family="Helvetica,sans-Serif" font-size="10.00">/approximations/WLS.hpp</text>
</a>
</g>
</g>
<!-- Node6&#45;&gt;Node7 -->
<g id="edge8_Node000006_Node000007" class="edge">
<title>Node6&#45;&gt;Node7</title>
<g id="a_edge8_Node000006_Node000007"><a xlink:title=" ">
<path fill="none" stroke="#63b8ff" d="M350.21,-186.44C334.23,-175.1 314.64,-161.21 300.3,-151.04"/>
<polygon fill="#63b8ff" stroke="#63b8ff" points="348.49,-189.51 358.67,-192.44 352.54,-183.8 348.49,-189.51"/>
</a>
</g>
</g>
<!-- Node9 -->
<g id="Node000009" class="node">
<title>Node9</title>
<g id="a_Node000009"><a xlink:href="WLSApproximant_8cpp.html" target="_top" xlink:title="Explicit instantiations for common parameters.">
<polygon fill="white" stroke="#666666" points="533,-151 408,-151 408,-121 533,-121 533,-151"/>
<text text-anchor="start" x="416" y="-139" font-family="Helvetica,sans-Serif" font-size="10.00">src/approximations</text>
<text text-anchor="middle" x="470.5" y="-128" font-family="Helvetica,sans-Serif" font-size="10.00">/WLSApproximant.cpp</text>
</a>
</g>
</g>
<!-- Node6&#45;&gt;Node9 -->
<g id="edge11_Node000006_Node000009" class="edge">
<title>Node6&#45;&gt;Node9</title>
<g id="a_edge11_Node000006_Node000009"><a xlink:title=" ">
<path fill="none" stroke="#63b8ff" d="M405.47,-186.13C420.4,-174.85 438.57,-161.12 451.91,-151.04"/>
<polygon fill="#63b8ff" stroke="#63b8ff" points="402.99,-183.62 397.12,-192.44 407.21,-189.2 402.99,-183.62"/>
</a>
</g>
</g>
<!-- Node7&#45;&gt;Node3 -->
<g id="edge9_Node000007_Node000003" class="edge">
<title>Node7&#45;&gt;Node3</title>
<g id="a_edge9_Node000007_Node000003"><a xlink:title=" ">
<path fill="none" stroke="#63b8ff" d="M310.88,-115.36C329.35,-103.42 352.01,-88.77 366.11,-79.66"/>
<polygon fill="#63b8ff" stroke="#63b8ff" points="308.97,-112.43 302.47,-120.8 312.77,-118.31 308.97,-112.43"/>
</a>
</g>
</g>
<!-- Node8 -->
<g id="Node000008" class="node">
<title>Node8</title>
<g id="a_Node000008"><a xlink:href="WLS_8cpp.html" target="_top" xlink:title="Instantiations of commonly used WLS approximations.">
<polygon fill="white" stroke="#666666" points="263.5,-85 153.5,-85 153.5,-55 263.5,-55 263.5,-85"/>
<text text-anchor="start" x="161.5" y="-73" font-family="Helvetica,sans-Serif" font-size="10.00">src/approximations</text>
<text text-anchor="middle" x="208.5" y="-62" font-family="Helvetica,sans-Serif" font-size="10.00">/WLS.cpp</text>
</a>
</g>
</g>
<!-- Node7&#45;&gt;Node8 -->
<g id="edge10_Node000007_Node000008" class="edge">
<title>Node7&#45;&gt;Node8</title>
<g id="a_edge10_Node000007_Node000008"><a xlink:title=" ">
<path fill="none" stroke="#63b8ff" d="M256.79,-113.92C246.17,-104.49 233.93,-93.61 224.43,-85.16"/>
<polygon fill="#63b8ff" stroke="#63b8ff" points="254.72,-116.77 264.52,-120.8 259.37,-111.54 254.72,-116.77"/>
</a>
</g>
</g>
<!-- Node10&#45;&gt;Node2 -->
<g id="edge13_Node000010_Node000002" class="edge">
<title>Node10&#45;&gt;Node2</title>
<g id="a_edge13_Node000010_Node000002"><a xlink:title=" ">
<path fill="none" stroke="#63b8ff" d="M162.33,-180.69C149.04,-170.65 134.34,-159.54 123.08,-151.04"/>
<polygon fill="#63b8ff" stroke="#63b8ff" points="160.29,-183.53 170.38,-186.77 164.51,-177.95 160.29,-183.53"/>
</a>
</g>
</g>
<!-- Node10&#45;&gt;Node7 -->
<g id="edge14_Node000010_Node000007" class="edge">
<title>Node10&#45;&gt;Node7</title>
<g id="a_edge14_Node000010_Node000007"><a xlink:title=" ">
<path fill="none" stroke="#63b8ff" d="M228.38,-180.12C240.34,-170.23 253.45,-159.38 263.53,-151.04"/>
<polygon fill="#63b8ff" stroke="#63b8ff" points="225.82,-177.7 220.35,-186.77 230.28,-183.09 225.82,-177.7"/>
</a>
</g>
</g>
</g>
</svg>
