<?xml version="1.0" encoding="UTF-8" standalone="no"?>
<!DOCTYPE svg PUBLIC "-//W3C//DTD SVG 1.1//EN"
 "http://www.w3.org/Graphics/SVG/1.1/DTD/svg11.dtd">
<!-- Generated by graphviz version 2.43.0 (0)
 -->
<!-- Title: include/medusa/bits/approximations/WLSApproximant.hpp Pages: 1 -->
<svg width="418pt" height="225pt"
 viewBox="0.00 0.00 418.00 225.00" xmlns="http://www.w3.org/2000/svg" xmlns:xlink="http://www.w3.org/1999/xlink">

<svg id="main" version="1.1" xmlns="http://www.w3.org/2000/svg" xmlns:xlink="http://www.w3.org/1999/xlink" xml:space="preserve" onload="init(evt)">
<style type="text/css"><![CDATA[
.node, .edge {opacity: 0.7;}
.node.selected, .edge.selected {opacity: 1;}
.edge:hover path { stroke: red; }
.edge:hover polygon { stroke: red; fill: red; }
]]></style>
<script type="application/ecmascript" xlink:href="svg.min.js"/>
<svg id="graph" class="graph">
<g id="graph0" class="graph" transform="scale(1 1) rotate(0) translate(4 221)">
<title>include/medusa/bits/approximations/WLSApproximant.hpp</title>
<!-- Node1 -->
<g id="Node000001" class="node">
<title>Node1</title>
<g id="a_Node000001"><a xlink:title="Implementation of the function, obtained by WLS approximation.">
<polygon fill="#999999" stroke="#666666" points="299,-217 94,-217 94,-187 299,-187 299,-217"/>
<text text-anchor="start" x="102" y="-205" font-family="Helvetica,sans-Serif" font-size="10.00">include/medusa/bits</text>
<text text-anchor="middle" x="196.5" y="-194" font-family="Helvetica,sans-Serif" font-size="10.00">/approximations/WLSApproximant.hpp</text>
</a>
</g>
</g>
<!-- Node2 -->
<g id="Node000002" class="node">
<title>Node2</title>
<g id="a_Node000002"><a xlink:href="Approximations_8hpp.html" target="_top" xlink:title="Header for Approximations module.">
<polygon fill="white" stroke="#666666" points="195,-79.5 0,-79.5 0,-60.5 195,-60.5 195,-79.5"/>
<text text-anchor="middle" x="97.5" y="-67.5" font-family="Helvetica,sans-Serif" font-size="10.00">include/medusa/Approximations.hpp</text>
</a>
</g>
</g>
<!-- Node1&#45;&gt;Node2 -->
<g id="edge1_Node000001_Node000002" class="edge">
<title>Node1&#45;&gt;Node2</title>
<g id="a_edge1_Node000001_Node000002"><a xlink:title=" ">
<path fill="none" stroke="#63b8ff" d="M153.47,-181.79C140.21,-173.96 126.69,-163.72 117.5,-151 101.48,-128.84 98.23,-95.21 97.62,-79.57"/>
<polygon fill="#63b8ff" stroke="#63b8ff" points="152.12,-185.04 162.56,-186.82 155.51,-178.91 152.12,-185.04"/>
</a>
</g>
</g>
<!-- Node4 -->
<g id="Node000004" class="node">
<title>Node4</title>
<g id="a_Node000004"><a xlink:href="WLS_8hpp.html" target="_top" xlink:title="Implementation of weighted least squares approximation.">
<polygon fill="white" stroke="#666666" points="267,-151 126,-151 126,-121 267,-121 267,-151"/>
<text text-anchor="start" x="134" y="-139" font-family="Helvetica,sans-Serif" font-size="10.00">include/medusa/bits</text>
<text text-anchor="middle" x="196.5" y="-128" font-family="Helvetica,sans-Serif" font-size="10.00">/approximations/WLS.hpp</text>
</a>
</g>
</g>
<!-- Node1&#45;&gt;Node4 -->
<g id="edge3_Node000001_Node000004" class="edge">
<title>Node1&#45;&gt;Node4</title>
<g id="a_edge3_Node000001_Node000004"><a xlink:title=" ">
<path fill="none" stroke="#63b8ff" d="M196.5,-176.54C196.5,-167.96 196.5,-158.61 196.5,-151.16"/>
<polygon fill="#63b8ff" stroke="#63b8ff" points="193,-176.8 196.5,-186.8 200,-176.8 193,-176.8"/>
</a>
</g>
</g>
<!-- Node6 -->
<g id="Node000006" class="node">
<title>Node6</title>
<g id="a_Node000006"><a xlink:href="WLSApproximant_8cpp.html" target="_top" xlink:title="Explicit instantiations for common parameters.">
<polygon fill="white" stroke="#666666" points="410,-151 285,-151 285,-121 410,-121 410,-151"/>
<text text-anchor="start" x="293" y="-139" font-family="Helvetica,sans-Serif" font-size="10.00">src/approximations</text>
<text text-anchor="middle" x="347.5" y="-128" font-family="Helvetica,sans-Serif" font-size="10.00">/WLSApproximant.cpp</text>
</a>
</g>
</g>
<!-- Node1&#45;&gt;Node6 -->
<g id="edge6_Node000001_Node000006" class="edge">
<title>Node1&#45;&gt;Node6</title>
<g id="a_edge6_Node000001_Node000006"><a xlink:title=" ">
<path fill="none" stroke="#63b8ff" d="M239.16,-182.92C263.03,-172.8 292.33,-160.38 314.44,-151.01"/>
<polygon fill="#63b8ff" stroke="#63b8ff" points="237.48,-179.83 229.64,-186.95 240.21,-186.28 237.48,-179.83"/>
</a>
</g>
</g>
<!-- Node3 -->
<g id="Node000003" class="node">
<title>Node3</title>
<g id="a_Node000003"><a xlink:href="Medusa_8hpp.html" target="_top" xlink:title="Main header file that includes most other components.">
<polygon fill="white" stroke="#666666" points="175.5,-19 19.5,-19 19.5,0 175.5,0 175.5,-19"/>
<text text-anchor="middle" x="97.5" y="-7" font-family="Helvetica,sans-Serif" font-size="10.00">include/medusa/Medusa.hpp</text>
</a>
</g>
</g>
<!-- Node2&#45;&gt;Node3 -->
<g id="edge2_Node000002_Node000003" class="edge">
<title>Node2&#45;&gt;Node3</title>
<g id="a_edge2_Node000002_Node000003"><a xlink:title=" ">
<path fill="none" stroke="#63b8ff" d="M97.5,-50.16C97.5,-39.74 97.5,-27.3 97.5,-19.17"/>
<polygon fill="#63b8ff" stroke="#63b8ff" points="94,-50.37 97.5,-60.37 101,-50.37 94,-50.37"/>
</a>
</g>
</g>
<!-- Node4&#45;&gt;Node2 -->
<g id="edge4_Node000004_Node000002" class="edge">
<title>Node4&#45;&gt;Node2</title>
<g id="a_edge4_Node000004_Node000002"><a xlink:title=" ">
<path fill="none" stroke="#63b8ff" d="M166.12,-115.36C147.65,-103.42 124.99,-88.77 110.89,-79.66"/>
<polygon fill="#63b8ff" stroke="#63b8ff" points="164.23,-118.31 174.53,-120.8 168.03,-112.43 164.23,-118.31"/>
</a>
</g>
</g>
<!-- Node5 -->
<g id="Node000005" class="node">
<title>Node5</title>
<g id="a_Node000005"><a xlink:href="WLS_8cpp.html" target="_top" xlink:title="Instantiations of commonly used WLS approximations.">
<polygon fill="white" stroke="#666666" points="323.5,-85 213.5,-85 213.5,-55 323.5,-55 323.5,-85"/>
<text text-anchor="start" x="221.5" y="-73" font-family="Helvetica,sans-Serif" font-size="10.00">src/approximations</text>
<text text-anchor="middle" x="268.5" y="-62" font-family="Helvetica,sans-Serif" font-size="10.00">/WLS.cpp</text>
</a>
</g>
</g>
<!-- Node4&#45;&gt;Node5 -->
<g id="edge5_Node000004_Node000005" class="edge">
<title>Node4&#45;&gt;Node5</title>
<g id="a_edge5_Node000004_Node000005"><a xlink:title=" ">
<path fill="none" stroke="#63b8ff" d="M220.21,-113.92C230.83,-104.49 243.07,-93.61 252.57,-85.16"/>
<polygon fill="#63b8ff" stroke="#63b8ff" points="217.63,-111.54 212.48,-120.8 222.28,-116.77 217.63,-111.54"/>
</a>
</g>
</g>
</g>
</svg>
</svg>

<style type='text/css'>
<![CDATA[
[data-mouse-over-selected='false'] { opacity: 0.7; }
[data-mouse-over-selected='true']  { opacity: 1.0; }
]]>
</style>
<script type="application/ecmascript"><![CDATA[
document.addEventListener('DOMContentLoaded', (event) => {
  highlightEdges();
  highlightAdjacentNodes();
});
]]></script>
</svg>
