<?xml version="1.0" encoding="UTF-8" standalone="no"?>
<!DOCTYPE svg PUBLIC "-//W3C//DTD SVG 1.1//EN"
 "http://www.w3.org/Graphics/SVG/1.1/DTD/svg11.dtd">
<!-- Generated by graphviz version 2.43.0 (0)
 -->
<!-- Title: src/io/XML.cpp Pages: 1 -->
<!--zoomable 247 -->

<svg id="main" version="1.1" xmlns="http://www.w3.org/2000/svg" xmlns:xlink="http://www.w3.org/1999/xlink" xml:space="preserve" onload="init(evt)">
<style type="text/css"><![CDATA[
.node, .edge {opacity: 0.7;}
.node.selected, .edge.selected {opacity: 1;}
.edge:hover path { stroke: red; }
.edge:hover polygon { stroke: red; fill: red; }
]]></style>

<defs>
  <circle id="rim" cx="0" cy="0" r="7"/>
  <circle id="rim2" cx="0" cy="0" r="3.5"/>
  <g id="zoomPlus">
    <use xlink:href="#rim" fill="#404040"><set attributeName="fill" to="#808080" begin="zoomplus.mouseover" end="zoomplus.mouseout"/></use>
    <path d="M-4,0h8M0,-4v8" fill="none" stroke="white" stroke-width="1.5" pointer-events="none"/>
  </g>
  <g id="zoomMin">
    <use xlink:href="#rim" fill="#404040"><set attributeName="fill" to="#808080" begin="zoomminus.mouseover" end="zoomminus.mouseout"/></use>
    <path d="M-4,0h8" fill="none" stroke="white" stroke-width="1.5" pointer-events="none"/>
  </g>
  <g id="arrowUp" transform="translate(30 24)">
    <use xlink:href="#rim"/>
    <path pointer-events="none" fill="none" stroke="white" stroke-width="1.5" d="M0,-3.0v7 M-2.5,-0.5L0,-3.0L2.5,-0.5"/>
  </g>
  <g id="arrowRight" transform="rotate(90) translate(36 -43)">
    <use xlink:href="#rim"/>
    <path pointer-events="none" fill="none" stroke="white" stroke-width="1.5" d="M0,-3.0v7 M-2.5,-0.5L0,-3.0L2.5,-0.5"/>
  </g>
  <g id="arrowDown" transform="rotate(180) translate(-30 -48)">
    <use xlink:href="#rim"/>
    <path pointer-events="none" fill="none" stroke="white" stroke-width="1.5" d="M0,-3.0v7 M-2.5,-0.5L0,-3.0L2.5,-0.5"/>
  </g>
  <g id="arrowLeft" transform="rotate(270) translate(-36 17)">
    <use xlink:href="#rim"/>
    <path pointer-events="none" fill="none" stroke="white" stroke-width="1.5" d="M0,-3.0v7 M-2.5,-0.5L0,-3.0L2.5,-0.5"/>
  </g>
  <g id="resetDef">
    <use xlink:href="#rim2" fill="#404040"><set attributeName="fill" to="#808080" begin="reset.mouseover" end="reset.mouseout"/></use>
  </g>
</defs>
<script type="application/ecmascript">
var viewWidth = 1011;
var viewHeight = 247;
var sectionId = 'dynsection-0';
</script>
<script type="application/ecmascript" xlink:href="svg.min.js"/>
<svg id="graph" class="graph">
<g id="viewport">
<title>src/io/XML.cpp</title>
<!-- Node1 -->
<g id="Node000001" class="node">
<title>Node1</title>
<g id="a_Node000001"><a xlink:title="Implementation of XML I/O utilities.">
<polygon fill="#999999" stroke="#666666" points="721.5,-239 634.5,-239 634.5,-220 721.5,-220 721.5,-239"/>
<text text-anchor="middle" x="678" y="-227" font-family="Helvetica,sans-Serif" font-size="10.00">src/io/XML.cpp</text>
</a>
</g>
</g>
<!-- Node2 -->
<g id="Node000002" class="node">
<title>Node2</title>
<g id="a_Node000002"><a xlink:href="XML_8hpp.html" target="_top" xlink:title="Implementation of XML I/O utilities.">
<polygon fill="white" stroke="#666666" points="438,-184 304,-184 304,-165 438,-165 438,-184"/>
<text text-anchor="middle" x="371" y="-172" font-family="Helvetica,sans-Serif" font-size="10.00">medusa/bits/io/XML.hpp</text>
</a>
</g>
</g>
<!-- Node1&#45;&gt;Node2 -->
<g id="edge1_Node000001_Node000002" class="edge">
<title>Node1&#45;&gt;Node2</title>
<g id="a_edge1_Node000001_Node000002"><a xlink:title=" ">
<path fill="none" stroke="#63b8ff" d="M634.34,-220.96C580.9,-211.74 490.16,-196.07 430.4,-185.75"/>
<polygon fill="#63b8ff" stroke="#63b8ff" points="430.8,-182.27 420.35,-184.02 429.61,-189.17 430.8,-182.27"/>
</a>
</g>
</g>
<!-- Node8 -->
<g id="Node000008" class="node">
<title>Node8</title>
<g id="a_Node000008"><a xlink:title=" ">
<polygon fill="#e0e0e0" stroke="#999999" points="422,-74 294,-74 294,-55 422,-55 422,-74"/>
<text text-anchor="middle" x="358" y="-62" font-family="Helvetica,sans-Serif" font-size="10.00">rapidxml/rapidxml.hpp</text>
</a>
</g>
</g>
<!-- Node1&#45;&gt;Node8 -->
<g id="edge19_Node000001_Node000008" class="edge">
<title>Node1&#45;&gt;Node8</title>
<g id="a_edge19_Node000001_Node000008"><a xlink:title=" ">
<path fill="none" stroke="#63b8ff" d="M661.25,-219.97C608.77,-193.24 447.32,-111 383.93,-78.71"/>
<polygon fill="#63b8ff" stroke="#63b8ff" points="385.47,-75.57 374.97,-74.15 382.3,-81.8 385.47,-75.57"/>
</a>
</g>
</g>
<!-- Node9 -->
<g id="Node000009" class="node">
<title>Node9</title>
<g id="a_Node000009"><a xlink:href="assert_8hpp.html" target="_top" xlink:title="Implementation of custom assert and debug utilities.">
<polygon fill="white" stroke="#666666" points="649.5,-129 494.5,-129 494.5,-110 649.5,-110 649.5,-129"/>
<text text-anchor="middle" x="572" y="-117" font-family="Helvetica,sans-Serif" font-size="10.00">medusa/bits/utils/assert.hpp</text>
</a>
</g>
</g>
<!-- Node1&#45;&gt;Node9 -->
<g id="edge21_Node000001_Node000009" class="edge">
<title>Node1&#45;&gt;Node9</title>
<g id="a_edge21_Node000001_Node000009"><a xlink:title=" ">
<path fill="none" stroke="#63b8ff" d="M669.33,-219.66C651.46,-201.46 610.32,-159.55 587.67,-136.47"/>
<polygon fill="#63b8ff" stroke="#63b8ff" points="590,-133.84 580.5,-129.16 585,-138.75 590,-133.84"/>
</a>
</g>
</g>
<!-- Node12 -->
<g id="Node000012" class="node">
<title>Node12</title>
<g id="a_Node000012"><a xlink:title=" ">
<polygon fill="#e0e0e0" stroke="#999999" points="670,-19 610,-19 610,0 670,0 670,-19"/>
<text text-anchor="middle" x="640" y="-7" font-family="Helvetica,sans-Serif" font-size="10.00">iostream</text>
</a>
</g>
</g>
<!-- Node1&#45;&gt;Node12 -->
<g id="edge23_Node000001_Node000012" class="edge">
<title>Node1&#45;&gt;Node12</title>
<g id="a_edge23_Node000001_Node000012"><a xlink:title=" ">
<path fill="none" stroke="#63b8ff" d="M677.94,-219.67C677.58,-193.87 675.13,-116.55 659,-55 656.6,-45.86 652.64,-36.16 648.96,-28.15"/>
<polygon fill="#63b8ff" stroke="#63b8ff" points="652.08,-26.57 644.57,-19.1 645.78,-29.62 652.08,-26.57"/>
</a>
</g>
</g>
<!-- Node18 -->
<g id="Node000018" class="node">
<title>Node18</title>
<g id="a_Node000018"><a xlink:title=" ">
<polygon fill="#e0e0e0" stroke="#999999" points="861.5,-184 706.5,-184 706.5,-165 861.5,-165 861.5,-184"/>
<text text-anchor="middle" x="784" y="-172" font-family="Helvetica,sans-Serif" font-size="10.00">rapidxml/rapidxml_print.hpp</text>
</a>
</g>
</g>
<!-- Node1&#45;&gt;Node18 -->
<g id="edge20_Node000001_Node000018" class="edge">
<title>Node1&#45;&gt;Node18</title>
<g id="a_edge20_Node000001_Node000018"><a xlink:title=" ">
<path fill="none" stroke="#63b8ff" d="M695.03,-219.98C711.93,-211.54 738.06,-198.47 757.64,-188.68"/>
<polygon fill="#63b8ff" stroke="#63b8ff" points="759.28,-191.77 766.66,-184.17 756.15,-185.51 759.28,-191.77"/>
</a>
</g>
</g>
<!-- Node19 -->
<g id="Node000019" class="node">
<title>Node19</title>
<g id="a_Node000019"><a xlink:title=" ">
<polygon fill="#e0e0e0" stroke="#999999" points="934.5,-184 879.5,-184 879.5,-165 934.5,-165 934.5,-184"/>
<text text-anchor="middle" x="907" y="-172" font-family="Helvetica,sans-Serif" font-size="10.00">fstream</text>
</a>
</g>
</g>
<!-- Node1&#45;&gt;Node19 -->
<g id="edge22_Node000001_Node000019" class="edge">
<title>Node1&#45;&gt;Node19</title>
<g id="a_edge22_Node000001_Node000019"><a xlink:title=" ">
<path fill="none" stroke="#63b8ff" d="M715.37,-219.94C752.21,-211.5 810.38,-198.12 869.59,-184.32"/>
<polygon fill="#63b8ff" stroke="#63b8ff" points="870.54,-187.69 879.49,-182.01 868.95,-180.88 870.54,-187.69"/>
</a>
</g>
</g>
<!-- Node20 -->
<g id="Node000020" class="node">
<title>Node20</title>
<g id="a_Node000020"><a xlink:title=" ">
<polygon fill="#e0e0e0" stroke="#999999" points="1003,-184 953,-184 953,-165 1003,-165 1003,-184"/>
<text text-anchor="middle" x="978" y="-172" font-family="Helvetica,sans-Serif" font-size="10.00">cstring</text>
</a>
</g>
</g>
<!-- Node1&#45;&gt;Node20 -->
<g id="edge24_Node000001_Node000020" class="edge">
<title>Node1&#45;&gt;Node20</title>
<g id="a_edge24_Node000001_Node000020"><a xlink:title=" ">
<path fill="none" stroke="#63b8ff" d="M721.51,-222.3C772.33,-214.83 859.14,-201.31 942.87,-184.1"/>
<polygon fill="#63b8ff" stroke="#63b8ff" points="943.72,-187.5 952.8,-182.04 942.3,-180.64 943.72,-187.5"/>
</a>
</g>
</g>
<!-- Node3 -->
<g id="Node000003" class="node">
<title>Node3</title>
<g id="a_Node000003"><a xlink:href="XML__fwd_8hpp.html" target="_top" xlink:title="Declarations for XML I/O utilities.">
<polygon fill="white" stroke="#666666" points="244.5,-129 163.5,-129 163.5,-110 244.5,-110 244.5,-129"/>
<text text-anchor="middle" x="204" y="-117" font-family="Helvetica,sans-Serif" font-size="10.00">XML_fwd.hpp</text>
</a>
</g>
</g>
<!-- Node2&#45;&gt;Node3 -->
<g id="edge2_Node000002_Node000003" class="edge">
<title>Node2&#45;&gt;Node3</title>
<g id="a_edge2_Node000002_Node000003"><a xlink:title=" ">
<path fill="none" stroke="#63b8ff" d="M344.17,-164.98C316.13,-156.09 271.95,-142.07 240.7,-132.15"/>
<polygon fill="#63b8ff" stroke="#63b8ff" points="241.63,-128.77 231.04,-129.08 239.51,-135.44 241.63,-128.77"/>
</a>
</g>
</g>
<!-- Node2&#45;&gt;Node9 -->
<g id="edge9_Node000002_Node000009" class="edge">
<title>Node2&#45;&gt;Node9</title>
<g id="a_edge9_Node000002_Node000009"><a xlink:title=" ">
<path fill="none" stroke="#63b8ff" d="M403.29,-164.98C437.62,-155.93 492.06,-141.58 529.77,-131.64"/>
<polygon fill="#63b8ff" stroke="#63b8ff" points="530.68,-135.02 539.45,-129.08 528.89,-128.25 530.68,-135.02"/>
</a>
</g>
</g>
<!-- Node16 -->
<g id="Node000016" class="node">
<title>Node16</title>
<g id="a_Node000016"><a xlink:title=" ">
<polygon fill="#e0e0e0" stroke="#999999" points="349,-129 293,-129 293,-110 349,-110 349,-129"/>
<text text-anchor="middle" x="321" y="-117" font-family="Helvetica,sans-Serif" font-size="10.00">sstream</text>
</a>
</g>
</g>
<!-- Node2&#45;&gt;Node16 -->
<g id="edge17_Node000002_Node000016" class="edge">
<title>Node2&#45;&gt;Node16</title>
<g id="a_edge17_Node000002_Node000016"><a xlink:title=" ">
<path fill="none" stroke="#63b8ff" d="M362.74,-164.75C355.54,-157.11 344.89,-145.82 336.15,-136.56"/>
<polygon fill="#63b8ff" stroke="#63b8ff" points="338.51,-133.96 329.1,-129.09 333.42,-138.76 338.51,-133.96"/>
</a>
</g>
</g>
<!-- Node17 -->
<g id="Node000017" class="node">
<title>Node17</title>
<g id="a_Node000017"><a xlink:title=" ">
<polygon fill="#e0e0e0" stroke="#999999" points="423,-129 367,-129 367,-110 423,-110 423,-129"/>
<text text-anchor="middle" x="395" y="-117" font-family="Helvetica,sans-Serif" font-size="10.00">iomanip</text>
</a>
</g>
</g>
<!-- Node2&#45;&gt;Node17 -->
<g id="edge18_Node000002_Node000017" class="edge">
<title>Node2&#45;&gt;Node17</title>
<g id="a_edge18_Node000002_Node000017"><a xlink:title=" ">
<path fill="none" stroke="#63b8ff" d="M374.96,-164.75C378.21,-157.57 382.92,-147.18 386.95,-138.27"/>
<polygon fill="#63b8ff" stroke="#63b8ff" points="390.17,-139.64 391.11,-129.09 383.8,-136.75 390.17,-139.64"/>
</a>
</g>
</g>
<!-- Node4 -->
<g id="Node000004" class="node">
<title>Node4</title>
<g id="a_Node000004"><a xlink:href="Config_8hpp.html" target="_top" xlink:title="Contains compile time settings for the project, such as Eigen plugins.">
<polygon fill="white" stroke="#666666" points="110,-74 0,-74 0,-55 110,-55 110,-74"/>
<text text-anchor="middle" x="55" y="-62" font-family="Helvetica,sans-Serif" font-size="10.00">medusa/Config.hpp</text>
</a>
</g>
</g>
<!-- Node3&#45;&gt;Node4 -->
<g id="edge3_Node000003_Node000004" class="edge">
<title>Node3&#45;&gt;Node4</title>
<g id="a_edge3_Node000003_Node000004"><a xlink:title=" ">
<path fill="none" stroke="#63b8ff" d="M180.06,-109.98C155.44,-101.23 116.88,-87.51 89.08,-77.62"/>
<polygon fill="#63b8ff" stroke="#63b8ff" points="89.97,-74.22 79.38,-74.17 87.62,-80.82 89.97,-74.22"/>
</a>
</g>
</g>
<!-- Node5 -->
<g id="Node000005" class="node">
<title>Node5</title>
<g id="a_Node000005"><a xlink:title=" ">
<polygon fill="#e0e0e0" stroke="#999999" points="161.5,-19 114.5,-19 114.5,0 161.5,0 161.5,-19"/>
<text text-anchor="middle" x="138" y="-7" font-family="Helvetica,sans-Serif" font-size="10.00">vector</text>
</a>
</g>
</g>
<!-- Node3&#45;&gt;Node5 -->
<g id="edge6_Node000003_Node000005" class="edge">
<title>Node3&#45;&gt;Node5</title>
<g id="a_edge6_Node000003_Node000005"><a xlink:title=" ">
<path fill="none" stroke="#63b8ff" d="M191.88,-109.95C181.24,-101.85 166.07,-88.74 157,-74 148.52,-60.22 143.62,-42.42 140.93,-29.17"/>
<polygon fill="#63b8ff" stroke="#63b8ff" points="144.37,-28.53 139.16,-19.3 137.48,-29.76 144.37,-28.53"/>
</a>
</g>
</g>
<!-- Node6 -->
<g id="Node000006" class="node">
<title>Node6</title>
<g id="a_Node000006"><a xlink:title=" ">
<polygon fill="#e0e0e0" stroke="#999999" points="210,-74 166,-74 166,-55 210,-55 210,-74"/>
<text text-anchor="middle" x="188" y="-62" font-family="Helvetica,sans-Serif" font-size="10.00">string</text>
</a>
</g>
</g>
<!-- Node3&#45;&gt;Node6 -->
<g id="edge5_Node000003_Node000006" class="edge">
<title>Node3&#45;&gt;Node6</title>
<g id="a_edge5_Node000003_Node000006"><a xlink:title=" ">
<path fill="none" stroke="#63b8ff" d="M201.36,-109.75C199.24,-102.72 196.19,-92.62 193.54,-83.84"/>
<polygon fill="#63b8ff" stroke="#63b8ff" points="196.83,-82.65 190.59,-74.09 190.13,-84.67 196.83,-82.65"/>
</a>
</g>
</g>
<!-- Node7 -->
<g id="Node000007" class="node">
<title>Node7</title>
<g id="a_Node000007"><a xlink:title=" ">
<polygon fill="#e0e0e0" stroke="#999999" points="276,-74 228,-74 228,-55 276,-55 276,-74"/>
<text text-anchor="middle" x="252" y="-62" font-family="Helvetica,sans-Serif" font-size="10.00">iosfwd</text>
</a>
</g>
</g>
<!-- Node3&#45;&gt;Node7 -->
<g id="edge7_Node000003_Node000007" class="edge">
<title>Node3&#45;&gt;Node7</title>
<g id="a_edge7_Node000003_Node000007"><a xlink:title=" ">
<path fill="none" stroke="#63b8ff" d="M211.93,-109.75C218.85,-102.11 229.07,-90.82 237.45,-81.56"/>
<polygon fill="#63b8ff" stroke="#63b8ff" points="240.1,-83.85 244.22,-74.09 234.91,-79.15 240.1,-83.85"/>
</a>
</g>
</g>
<!-- Node3&#45;&gt;Node8 -->
<g id="edge8_Node000003_Node000008" class="edge">
<title>Node3&#45;&gt;Node8</title>
<g id="a_edge8_Node000003_Node000008"><a xlink:title=" ">
<path fill="none" stroke="#63b8ff" d="M228.74,-109.98C254.37,-101.16 294.63,-87.31 323.41,-77.41"/>
<polygon fill="#63b8ff" stroke="#63b8ff" points="324.75,-80.65 333.06,-74.08 322.47,-74.03 324.75,-80.65"/>
</a>
</g>
</g>
<!-- Node4&#45;&gt;Node5 -->
<g id="edge4_Node000004_Node000005" class="edge">
<title>Node4&#45;&gt;Node5</title>
<g id="a_edge4_Node000004_Node000005"><a xlink:title=" ">
<path fill="none" stroke="#63b8ff" d="M68.34,-54.98C81.09,-46.84 100.55,-34.41 115.67,-24.76"/>
<polygon fill="#63b8ff" stroke="#63b8ff" points="117.88,-27.5 124.42,-19.17 114.11,-21.6 117.88,-27.5"/>
</a>
</g>
</g>
<!-- Node10 -->
<g id="Node000010" class="node">
<title>Node10</title>
<g id="a_Node000010"><a xlink:title=" ">
<polygon fill="#e0e0e0" stroke="#999999" points="650,-74 518,-74 518,-55 650,-55 650,-74"/>
<text text-anchor="middle" x="584" y="-62" font-family="Helvetica,sans-Serif" font-size="10.00">tinyformat/tinyformat.h</text>
</a>
</g>
</g>
<!-- Node9&#45;&gt;Node10 -->
<g id="edge10_Node000009_Node000010" class="edge">
<title>Node9&#45;&gt;Node10</title>
<g id="a_edge10_Node000009_Node000010"><a xlink:title=" ">
<path fill="none" stroke="#63b8ff" d="M573.98,-109.75C575.57,-102.72 577.86,-92.62 579.85,-83.84"/>
<polygon fill="#63b8ff" stroke="#63b8ff" points="583.26,-84.62 582.06,-74.09 576.43,-83.07 583.26,-84.62"/>
</a>
</g>
</g>
<!-- Node11 -->
<g id="Node000011" class="node">
<title>Node11</title>
<g id="a_Node000011"><a xlink:href="print_8hpp.html" target="_top" xlink:title="Printing helpers for std types.">
<polygon fill="white" stroke="#666666" points="500,-74 440,-74 440,-55 500,-55 500,-74"/>
<text text-anchor="middle" x="470" y="-62" font-family="Helvetica,sans-Serif" font-size="10.00">print.hpp</text>
</a>
</g>
</g>
<!-- Node9&#45;&gt;Node11 -->
<g id="edge11_Node000009_Node000011" class="edge">
<title>Node9&#45;&gt;Node11</title>
<g id="a_edge11_Node000009_Node000011"><a xlink:title=" ">
<path fill="none" stroke="#63b8ff" d="M555.61,-109.98C539.43,-101.57 514.43,-88.59 495.62,-78.81"/>
<polygon fill="#63b8ff" stroke="#63b8ff" points="497.17,-75.68 486.69,-74.17 493.95,-81.89 497.17,-75.68"/>
</a>
</g>
</g>
<!-- Node11&#45;&gt;Node5 -->
<g id="edge13_Node000011_Node000005" class="edge">
<title>Node11&#45;&gt;Node5</title>
<g id="a_edge13_Node000011_Node000005"><a xlink:title=" ">
<path fill="none" stroke="#63b8ff" d="M439.8,-56.72C436.83,-56.11 433.86,-55.53 431,-55 337.56,-37.74 226.44,-22.22 171.79,-14.92"/>
<polygon fill="#63b8ff" stroke="#63b8ff" points="172.01,-11.42 161.63,-13.57 171.08,-18.35 172.01,-11.42"/>
</a>
</g>
</g>
<!-- Node11&#45;&gt;Node12 -->
<g id="edge12_Node000011_Node000012" class="edge">
<title>Node11&#45;&gt;Node12</title>
<g id="a_edge12_Node000011_Node000012"><a xlink:title=" ">
<path fill="none" stroke="#63b8ff" d="M497.31,-54.98C525.85,-46.09 570.83,-32.07 602.64,-22.15"/>
<polygon fill="#63b8ff" stroke="#63b8ff" points="603.97,-25.4 612.47,-19.08 601.88,-18.72 603.97,-25.4"/>
</a>
</g>
</g>
<!-- Node13 -->
<g id="Node000013" class="node">
<title>Node13</title>
<g id="a_Node000013"><a xlink:title=" ">
<polygon fill="#e0e0e0" stroke="#999999" points="491,-19 449,-19 449,0 491,0 491,-19"/>
<text text-anchor="middle" x="470" y="-7" font-family="Helvetica,sans-Serif" font-size="10.00">array</text>
</a>
</g>
</g>
<!-- Node11&#45;&gt;Node13 -->
<g id="edge14_Node000011_Node000013" class="edge">
<title>Node11&#45;&gt;Node13</title>
<g id="a_edge14_Node000011_Node000013"><a xlink:title=" ">
<path fill="none" stroke="#63b8ff" d="M470,-54.75C470,-47.8 470,-37.85 470,-29.13"/>
<polygon fill="#63b8ff" stroke="#63b8ff" points="473.5,-29.09 470,-19.09 466.5,-29.09 473.5,-29.09"/>
</a>
</g>
</g>
<!-- Node14 -->
<g id="Node000014" class="node">
<title>Node14</title>
<g id="a_Node000014"><a xlink:title=" ">
<polygon fill="#e0e0e0" stroke="#999999" points="554.5,-19 509.5,-19 509.5,0 554.5,0 554.5,-19"/>
<text text-anchor="middle" x="532" y="-7" font-family="Helvetica,sans-Serif" font-size="10.00">utility</text>
</a>
</g>
</g>
<!-- Node11&#45;&gt;Node14 -->
<g id="edge15_Node000011_Node000014" class="edge">
<title>Node11&#45;&gt;Node14</title>
<g id="a_edge15_Node000011_Node000014"><a xlink:title=" ">
<path fill="none" stroke="#63b8ff" d="M479.96,-54.98C489.13,-47.15 502.94,-35.34 514.03,-25.86"/>
<polygon fill="#63b8ff" stroke="#63b8ff" points="516.53,-28.33 521.86,-19.17 511.98,-23.01 516.53,-28.33"/>
</a>
</g>
</g>
<!-- Node15 -->
<g id="Node000015" class="node">
<title>Node15</title>
<g id="a_Node000015"><a xlink:title=" ">
<polygon fill="#e0e0e0" stroke="#999999" points="430.5,-19 389.5,-19 389.5,0 430.5,0 430.5,-19"/>
<text text-anchor="middle" x="410" y="-7" font-family="Helvetica,sans-Serif" font-size="10.00">tuple</text>
</a>
</g>
</g>
<!-- Node11&#45;&gt;Node15 -->
<g id="edge16_Node000011_Node000015" class="edge">
<title>Node11&#45;&gt;Node15</title>
<g id="a_edge16_Node000011_Node000015"><a xlink:title=" ">
<path fill="none" stroke="#63b8ff" d="M460.36,-54.98C451.49,-47.15 438.13,-35.34 427.39,-25.86"/>
<polygon fill="#63b8ff" stroke="#63b8ff" points="429.63,-23.17 419.82,-19.17 424.99,-28.41 429.63,-23.17"/>
</a>
</g>
</g>
</g>
</svg>

<g id="navigator" transform="translate(0 0)" fill="#404254">
  <rect fill="#f2f5e9" fill-opacity="0.5" stroke="#606060" stroke-width=".5" x="0" y="0" width="60" height="60"/>
  <use id="zoomplus" xlink:href="#zoomPlus" x="17" y="9" onmousedown="handleZoom(evt,'in')"/>
  <use id="zoomminus" xlink:href="#zoomMin" x="42" y="9" onmousedown="handleZoom(evt,'out')"/>
  <use id="reset" xlink:href="#resetDef" x="30" y="36" onmousedown="handleReset()"/>
   <use id="arrowup" xlink:href="#arrowUp" x="0" y="0" onmousedown="handlePan(0,-1)"/>
  <use id="arrowright" xlink:href="#arrowRight" x="0" y="0" onmousedown="handlePan(1,0)"/>
  <use id="arrowdown" xlink:href="#arrowDown" x="0" y="0" onmousedown="handlePan(0,1)"/>
  <use id="arrowleft" xlink:href="#arrowLeft" x="0" y="0" onmousedown="handlePan(-1,0)"/>
</g>
<svg viewBox="0 0 15 15" width="100%" height="30px" preserveAspectRatio="xMaxYMin meet">
 <g id="arrow_out" transform="scale(0.3 0.3)">
  <a xlink:href="XML_8cpp__incl_org.svg" target="_base">
   <rect id="button" ry="5" rx="5" y="6" x="6" height="38" width="38"
        fill="#f2f5e9" fill-opacity="0.5" stroke="#606060" stroke-width="1.0"/>
   <path id="arrow"
     d="M 11.500037,31.436501 C 11.940474,20.09759 22.043105,11.32322 32.158766,21.979434 L 37.068811,17.246167 C 37.068811,17.246167 37.088388,32 37.088388,32 L 22.160133,31.978069 C 22.160133,31.978069 26.997745,27.140456 26.997745,27.140456 C 18.528582,18.264221 13.291696,25.230495 11.500037,31.436501 z"
     style="fill:#404040;"/>
  </a>
 </g>
</svg>

<style type='text/css'>
<![CDATA[
[data-mouse-over-selected='false'] { opacity: 0.7; }
[data-mouse-over-selected='true']  { opacity: 1.0; }
]]>
</style>
<script type="application/ecmascript"><![CDATA[
document.addEventListener('DOMContentLoaded', (event) => {
  highlightEdges();
  highlightAdjacentNodes();
});
]]></script>
</svg>
