<?xml version="1.0" encoding="UTF-8" standalone="no"?>
<!DOCTYPE svg PUBLIC "-//W3C//DTD SVG 1.1//EN"
 "http://www.w3.org/Graphics/SVG/1.1/DTD/svg11.dtd">
<!-- Generated by graphviz version 2.43.0 (0)
 -->
<!-- Title: include/medusa/bits/io/XML.hpp Pages: 1 -->
<svg width="741pt" height="203pt"
 viewBox="0.00 0.00 740.50 203.00" xmlns="http://www.w3.org/2000/svg" xmlns:xlink="http://www.w3.org/1999/xlink">
<g id="graph0" class="graph" transform="scale(1 1) rotate(0) translate(4 199)">
<title>include/medusa/bits/io/XML.hpp</title>
<!-- Node1 -->
<g id="Node000001" class="node">
<title>Node1</title>
<g id="a_Node000001"><a xlink:title="Implementation of XML I/O utilities.">
<polygon fill="#999999" stroke="#666666" points="625.5,-195 510.5,-195 510.5,-165 625.5,-165 625.5,-195"/>
<text text-anchor="start" x="518.5" y="-183" font-family="Helvetica,sans-Serif" font-size="10.00">include/medusa/bits</text>
<text text-anchor="middle" x="568" y="-172" font-family="Helvetica,sans-Serif" font-size="10.00">/io/XML.hpp</text>
</a>
</g>
</g>
<!-- Node2 -->
<g id="Node000002" class="node">
<title>Node2</title>
<g id="a_Node000002"><a xlink:href="XML__fwd_8hpp.html" target="_top" xlink:title="Declarations for XML I/O utilities.">
<polygon fill="white" stroke="#666666" points="260.5,-129 179.5,-129 179.5,-110 260.5,-110 260.5,-129"/>
<text text-anchor="middle" x="220" y="-117" font-family="Helvetica,sans-Serif" font-size="10.00">XML_fwd.hpp</text>
</a>
</g>
</g>
<!-- Node1&#45;&gt;Node2 -->
<g id="edge1_Node000001_Node000002" class="edge">
<title>Node1&#45;&gt;Node2</title>
<g id="a_edge1_Node000001_Node000002"><a xlink:title=" ">
<path fill="none" stroke="#63b8ff" d="M510.14,-169.27C443.32,-158.04 334.43,-139.74 270.77,-129.03"/>
<polygon fill="#63b8ff" stroke="#63b8ff" points="271.01,-125.53 260.57,-127.32 269.85,-132.43 271.01,-125.53"/>
</a>
</g>
</g>
<!-- Node8 -->
<g id="Node000008" class="node">
<title>Node8</title>
<g id="a_Node000008"><a xlink:href="assert_8hpp.html" target="_top" xlink:title="Implementation of custom assert and debug utilities.">
<polygon fill="white" stroke="#666666" points="583.5,-129 428.5,-129 428.5,-110 583.5,-110 583.5,-129"/>
<text text-anchor="middle" x="506" y="-117" font-family="Helvetica,sans-Serif" font-size="10.00">medusa/bits/utils/assert.hpp</text>
</a>
</g>
</g>
<!-- Node1&#45;&gt;Node8 -->
<g id="edge8_Node000001_Node000008" class="edge">
<title>Node1&#45;&gt;Node8</title>
<g id="a_edge8_Node000001_Node000008"><a xlink:title=" ">
<path fill="none" stroke="#63b8ff" d="M552.99,-164.84C543.81,-156.17 532.05,-145.08 522.59,-136.15"/>
<polygon fill="#63b8ff" stroke="#63b8ff" points="524.97,-133.58 515.29,-129.27 520.16,-138.67 524.97,-133.58"/>
</a>
</g>
</g>
<!-- Node15 -->
<g id="Node000015" class="node">
<title>Node15</title>
<g id="a_Node000015"><a xlink:title=" ">
<polygon fill="#e0e0e0" stroke="#999999" points="658,-129 602,-129 602,-110 658,-110 658,-129"/>
<text text-anchor="middle" x="630" y="-117" font-family="Helvetica,sans-Serif" font-size="10.00">sstream</text>
</a>
</g>
</g>
<!-- Node1&#45;&gt;Node15 -->
<g id="edge16_Node000001_Node000015" class="edge">
<title>Node1&#45;&gt;Node15</title>
<g id="a_edge16_Node000001_Node000015"><a xlink:title=" ">
<path fill="none" stroke="#63b8ff" d="M583.01,-164.84C592.19,-156.17 603.95,-145.08 613.41,-136.15"/>
<polygon fill="#63b8ff" stroke="#63b8ff" points="615.84,-138.67 620.71,-129.27 611.03,-133.58 615.84,-138.67"/>
</a>
</g>
</g>
<!-- Node16 -->
<g id="Node000016" class="node">
<title>Node16</title>
<g id="a_Node000016"><a xlink:title=" ">
<polygon fill="#e0e0e0" stroke="#999999" points="732,-129 676,-129 676,-110 732,-110 732,-129"/>
<text text-anchor="middle" x="704" y="-117" font-family="Helvetica,sans-Serif" font-size="10.00">iomanip</text>
</a>
</g>
</g>
<!-- Node1&#45;&gt;Node16 -->
<g id="edge17_Node000001_Node000016" class="edge">
<title>Node1&#45;&gt;Node16</title>
<g id="a_edge17_Node000001_Node000016"><a xlink:title=" ">
<path fill="none" stroke="#63b8ff" d="M600.58,-164.99C623.06,-155.31 652.72,-142.56 674.51,-133.18"/>
<polygon fill="#63b8ff" stroke="#63b8ff" points="676.11,-136.31 683.92,-129.14 673.35,-129.88 676.11,-136.31"/>
</a>
</g>
</g>
<!-- Node3 -->
<g id="Node000003" class="node">
<title>Node3</title>
<g id="a_Node000003"><a xlink:href="Config_8hpp.html" target="_top" xlink:title="Contains compile time settings for the project, such as Eigen plugins.">
<polygon fill="white" stroke="#666666" points="110,-74 0,-74 0,-55 110,-55 110,-74"/>
<text text-anchor="middle" x="55" y="-62" font-family="Helvetica,sans-Serif" font-size="10.00">medusa/Config.hpp</text>
</a>
</g>
</g>
<!-- Node2&#45;&gt;Node3 -->
<g id="edge2_Node000002_Node000003" class="edge">
<title>Node2&#45;&gt;Node3</title>
<g id="a_edge2_Node000002_Node000003"><a xlink:title=" ">
<path fill="none" stroke="#63b8ff" d="M193.49,-109.98C165.79,-101.09 122.14,-87.07 91.26,-77.15"/>
<polygon fill="#63b8ff" stroke="#63b8ff" points="92.31,-73.81 81.72,-74.08 90.17,-80.47 92.31,-73.81"/>
</a>
</g>
</g>
<!-- Node4 -->
<g id="Node000004" class="node">
<title>Node4</title>
<g id="a_Node000004"><a xlink:title=" ">
<polygon fill="#e0e0e0" stroke="#999999" points="161.5,-19 114.5,-19 114.5,0 161.5,0 161.5,-19"/>
<text text-anchor="middle" x="138" y="-7" font-family="Helvetica,sans-Serif" font-size="10.00">vector</text>
</a>
</g>
</g>
<!-- Node2&#45;&gt;Node4 -->
<g id="edge5_Node000002_Node000004" class="edge">
<title>Node2&#45;&gt;Node4</title>
<g id="a_edge5_Node000002_Node000004"><a xlink:title=" ">
<path fill="none" stroke="#63b8ff" d="M201.71,-109.86C187.56,-102.28 168.49,-89.98 157,-74 147.45,-60.71 142.65,-42.6 140.26,-29.12"/>
<polygon fill="#63b8ff" stroke="#63b8ff" points="143.71,-28.47 138.78,-19.09 136.78,-29.49 143.71,-28.47"/>
</a>
</g>
</g>
<!-- Node5 -->
<g id="Node000005" class="node">
<title>Node5</title>
<g id="a_Node000005"><a xlink:title=" ">
<polygon fill="#e0e0e0" stroke="#999999" points="210,-74 166,-74 166,-55 210,-55 210,-74"/>
<text text-anchor="middle" x="188" y="-62" font-family="Helvetica,sans-Serif" font-size="10.00">string</text>
</a>
</g>
</g>
<!-- Node2&#45;&gt;Node5 -->
<g id="edge4_Node000002_Node000005" class="edge">
<title>Node2&#45;&gt;Node5</title>
<g id="a_edge4_Node000002_Node000005"><a xlink:title=" ">
<path fill="none" stroke="#63b8ff" d="M214.72,-109.75C210.29,-102.42 203.84,-91.73 198.38,-82.7"/>
<polygon fill="#63b8ff" stroke="#63b8ff" points="201.35,-80.84 193.19,-74.09 195.36,-84.46 201.35,-80.84"/>
</a>
</g>
</g>
<!-- Node6 -->
<g id="Node000006" class="node">
<title>Node6</title>
<g id="a_Node000006"><a xlink:title=" ">
<polygon fill="#e0e0e0" stroke="#999999" points="276,-74 228,-74 228,-55 276,-55 276,-74"/>
<text text-anchor="middle" x="252" y="-62" font-family="Helvetica,sans-Serif" font-size="10.00">iosfwd</text>
</a>
</g>
</g>
<!-- Node2&#45;&gt;Node6 -->
<g id="edge6_Node000002_Node000006" class="edge">
<title>Node2&#45;&gt;Node6</title>
<g id="a_edge6_Node000002_Node000006"><a xlink:title=" ">
<path fill="none" stroke="#63b8ff" d="M225.28,-109.75C229.71,-102.42 236.16,-91.73 241.62,-82.7"/>
<polygon fill="#63b8ff" stroke="#63b8ff" points="244.64,-84.46 246.81,-74.09 238.65,-80.84 244.64,-84.46"/>
</a>
</g>
</g>
<!-- Node7 -->
<g id="Node000007" class="node">
<title>Node7</title>
<g id="a_Node000007"><a xlink:title=" ">
<polygon fill="#e0e0e0" stroke="#999999" points="422,-74 294,-74 294,-55 422,-55 422,-74"/>
<text text-anchor="middle" x="358" y="-62" font-family="Helvetica,sans-Serif" font-size="10.00">rapidxml/rapidxml.hpp</text>
</a>
</g>
</g>
<!-- Node2&#45;&gt;Node7 -->
<g id="edge7_Node000002_Node000007" class="edge">
<title>Node2&#45;&gt;Node7</title>
<g id="a_edge7_Node000002_Node000007"><a xlink:title=" ">
<path fill="none" stroke="#63b8ff" d="M242.17,-109.98C264.77,-101.3 300.06,-87.75 325.75,-77.88"/>
<polygon fill="#63b8ff" stroke="#63b8ff" points="327.34,-81.02 335.42,-74.17 324.83,-74.49 327.34,-81.02"/>
</a>
</g>
</g>
<!-- Node3&#45;&gt;Node4 -->
<g id="edge3_Node000003_Node000004" class="edge">
<title>Node3&#45;&gt;Node4</title>
<g id="a_edge3_Node000003_Node000004"><a xlink:title=" ">
<path fill="none" stroke="#63b8ff" d="M68.34,-54.98C81.09,-46.84 100.55,-34.41 115.67,-24.76"/>
<polygon fill="#63b8ff" stroke="#63b8ff" points="117.88,-27.5 124.42,-19.17 114.11,-21.6 117.88,-27.5"/>
</a>
</g>
</g>
<!-- Node9 -->
<g id="Node000009" class="node">
<title>Node9</title>
<g id="a_Node000009"><a xlink:title=" ">
<polygon fill="#e0e0e0" stroke="#999999" points="572,-74 440,-74 440,-55 572,-55 572,-74"/>
<text text-anchor="middle" x="506" y="-62" font-family="Helvetica,sans-Serif" font-size="10.00">tinyformat/tinyformat.h</text>
</a>
</g>
</g>
<!-- Node8&#45;&gt;Node9 -->
<g id="edge9_Node000008_Node000009" class="edge">
<title>Node8&#45;&gt;Node9</title>
<g id="a_edge9_Node000008_Node000009"><a xlink:title=" ">
<path fill="none" stroke="#63b8ff" d="M506,-109.75C506,-102.8 506,-92.85 506,-84.13"/>
<polygon fill="#63b8ff" stroke="#63b8ff" points="509.5,-84.09 506,-74.09 502.5,-84.09 509.5,-84.09"/>
</a>
</g>
</g>
<!-- Node10 -->
<g id="Node000010" class="node">
<title>Node10</title>
<g id="a_Node000010"><a xlink:href="print_8hpp.html" target="_top" xlink:title="Printing helpers for std types.">
<polygon fill="white" stroke="#666666" points="650,-74 590,-74 590,-55 650,-55 650,-74"/>
<text text-anchor="middle" x="620" y="-62" font-family="Helvetica,sans-Serif" font-size="10.00">print.hpp</text>
</a>
</g>
</g>
<!-- Node8&#45;&gt;Node10 -->
<g id="edge10_Node000008_Node000010" class="edge">
<title>Node8&#45;&gt;Node10</title>
<g id="a_edge10_Node000008_Node000010"><a xlink:title=" ">
<path fill="none" stroke="#63b8ff" d="M524.32,-109.98C542.66,-101.46 571.11,-88.23 592.23,-78.41"/>
<polygon fill="#63b8ff" stroke="#63b8ff" points="593.76,-81.56 601.35,-74.17 590.81,-75.21 593.76,-81.56"/>
</a>
</g>
</g>
<!-- Node10&#45;&gt;Node4 -->
<g id="edge12_Node000010_Node000004" class="edge">
<title>Node10&#45;&gt;Node4</title>
<g id="a_edge12_Node000010_Node000004"><a xlink:title=" ">
<path fill="none" stroke="#63b8ff" d="M589.83,-56.57C586.86,-55.99 583.87,-55.46 581,-55 429.29,-30.93 246.16,-17.41 171.82,-12.57"/>
<polygon fill="#63b8ff" stroke="#63b8ff" points="171.86,-9.07 161.65,-11.92 171.41,-16.05 171.86,-9.07"/>
</a>
</g>
</g>
<!-- Node11 -->
<g id="Node000011" class="node">
<title>Node11</title>
<g id="a_Node000011"><a xlink:title=" ">
<polygon fill="#e0e0e0" stroke="#999999" points="550,-19 490,-19 490,0 550,0 550,-19"/>
<text text-anchor="middle" x="520" y="-7" font-family="Helvetica,sans-Serif" font-size="10.00">iostream</text>
</a>
</g>
</g>
<!-- Node10&#45;&gt;Node11 -->
<g id="edge11_Node000010_Node000011" class="edge">
<title>Node10&#45;&gt;Node11</title>
<g id="a_edge11_Node000010_Node000011"><a xlink:title=" ">
<path fill="none" stroke="#63b8ff" d="M603.93,-54.98C588.14,-46.61 563.78,-33.7 545.37,-23.95"/>
<polygon fill="#63b8ff" stroke="#63b8ff" points="546.83,-20.76 536.36,-19.17 543.56,-26.95 546.83,-20.76"/>
</a>
</g>
</g>
<!-- Node12 -->
<g id="Node000012" class="node">
<title>Node12</title>
<g id="a_Node000012"><a xlink:title=" ">
<polygon fill="#e0e0e0" stroke="#999999" points="610,-19 568,-19 568,0 610,0 610,-19"/>
<text text-anchor="middle" x="589" y="-7" font-family="Helvetica,sans-Serif" font-size="10.00">array</text>
</a>
</g>
</g>
<!-- Node10&#45;&gt;Node12 -->
<g id="edge13_Node000010_Node000012" class="edge">
<title>Node10&#45;&gt;Node12</title>
<g id="a_edge13_Node000010_Node000012"><a xlink:title=" ">
<path fill="none" stroke="#63b8ff" d="M614.88,-54.75C610.64,-47.49 604.47,-36.95 599.22,-27.98"/>
<polygon fill="#63b8ff" stroke="#63b8ff" points="602.09,-25.95 594.02,-19.09 596.05,-29.49 602.09,-25.95"/>
</a>
</g>
</g>
<!-- Node13 -->
<g id="Node000013" class="node">
<title>Node13</title>
<g id="a_Node000013"><a xlink:title=" ">
<polygon fill="#e0e0e0" stroke="#999999" points="673.5,-19 628.5,-19 628.5,0 673.5,0 673.5,-19"/>
<text text-anchor="middle" x="651" y="-7" font-family="Helvetica,sans-Serif" font-size="10.00">utility</text>
</a>
</g>
</g>
<!-- Node10&#45;&gt;Node13 -->
<g id="edge14_Node000010_Node000013" class="edge">
<title>Node10&#45;&gt;Node13</title>
<g id="a_edge14_Node000010_Node000013"><a xlink:title=" ">
<path fill="none" stroke="#63b8ff" d="M625.12,-54.75C629.36,-47.49 635.53,-36.95 640.78,-27.98"/>
<polygon fill="#63b8ff" stroke="#63b8ff" points="643.95,-29.49 645.98,-19.09 637.91,-25.95 643.95,-29.49"/>
</a>
</g>
</g>
<!-- Node14 -->
<g id="Node000014" class="node">
<title>Node14</title>
<g id="a_Node000014"><a xlink:title=" ">
<polygon fill="#e0e0e0" stroke="#999999" points="732.5,-19 691.5,-19 691.5,0 732.5,0 732.5,-19"/>
<text text-anchor="middle" x="712" y="-7" font-family="Helvetica,sans-Serif" font-size="10.00">tuple</text>
</a>
</g>
</g>
<!-- Node10&#45;&gt;Node14 -->
<g id="edge15_Node000010_Node000014" class="edge">
<title>Node10&#45;&gt;Node14</title>
<g id="a_edge15_Node000010_Node000014"><a xlink:title=" ">
<path fill="none" stroke="#63b8ff" d="M634.78,-54.98C649.18,-46.69 671.31,-33.94 688.19,-24.22"/>
<polygon fill="#63b8ff" stroke="#63b8ff" points="690.03,-27.19 696.95,-19.17 686.54,-21.13 690.03,-27.19"/>
</a>
</g>
</g>
</g>
</svg>
