<?xml version="1.0" encoding="UTF-8" standalone="no"?>
<!DOCTYPE svg PUBLIC "-//W3C//DTD SVG 1.1//EN"
 "http://www.w3.org/Graphics/SVG/1.1/DTD/svg11.dtd">
<!-- Generated by graphviz version 2.43.0 (0)
 -->
<!-- Title: include/medusa/bits/io/XML_fwd.hpp Pages: 1 -->
<svg width="256pt" height="280pt"
 viewBox="0.00 0.00 255.50 280.00" xmlns="http://www.w3.org/2000/svg" xmlns:xlink="http://www.w3.org/1999/xlink">
<g id="graph0" class="graph" transform="scale(1 1) rotate(0) translate(4 276)">
<title>include/medusa/bits/io/XML_fwd.hpp</title>
<!-- Node1 -->
<g id="Node000001" class="node">
<title>Node1</title>
<g id="a_Node000001"><a xlink:title="Declarations for XML I/O utilities.">
<polygon fill="#999999" stroke="#666666" points="198.5,-272 83.5,-272 83.5,-242 198.5,-242 198.5,-272"/>
<text text-anchor="start" x="91.5" y="-260" font-family="Helvetica,sans-Serif" font-size="10.00">include/medusa/bits</text>
<text text-anchor="middle" x="141" y="-249" font-family="Helvetica,sans-Serif" font-size="10.00">/io/XML_fwd.hpp</text>
</a>
</g>
</g>
<!-- Node2 -->
<g id="Node000002" class="node">
<title>Node2</title>
<g id="a_Node000002"><a xlink:href="XML_8hpp.html" target="_top" xlink:title="Implementation of XML I/O utilities.">
<polygon fill="white" stroke="#666666" points="198.5,-206 83.5,-206 83.5,-176 198.5,-176 198.5,-206"/>
<text text-anchor="start" x="91.5" y="-194" font-family="Helvetica,sans-Serif" font-size="10.00">include/medusa/bits</text>
<text text-anchor="middle" x="141" y="-183" font-family="Helvetica,sans-Serif" font-size="10.00">/io/XML.hpp</text>
</a>
</g>
</g>
<!-- Node1&#45;&gt;Node2 -->
<g id="edge1_Node000001_Node000002" class="edge">
<title>Node1&#45;&gt;Node2</title>
<g id="a_edge1_Node000001_Node000002"><a xlink:title=" ">
<path fill="none" stroke="#63b8ff" d="M141,-231.54C141,-222.96 141,-213.61 141,-206.16"/>
<polygon fill="#63b8ff" stroke="#63b8ff" points="137.5,-231.8 141,-241.8 144.5,-231.8 137.5,-231.8"/>
</a>
</g>
</g>
<!-- Node3 -->
<g id="Node000003" class="node">
<title>Node3</title>
<g id="a_Node000003"><a xlink:href="IO_8hpp.html" target="_top" xlink:title="Header for IO module.">
<polygon fill="white" stroke="#666666" points="142,-140 14,-140 14,-121 142,-121 142,-140"/>
<text text-anchor="middle" x="78" y="-128" font-family="Helvetica,sans-Serif" font-size="10.00">include/medusa/IO.hpp</text>
</a>
</g>
</g>
<!-- Node2&#45;&gt;Node3 -->
<g id="edge2_Node000002_Node000003" class="edge">
<title>Node2&#45;&gt;Node3</title>
<g id="a_edge2_Node000002_Node000003"><a xlink:title=" ">
<path fill="none" stroke="#63b8ff" d="M118.34,-168.96C107.7,-159.07 95.59,-147.83 87.44,-140.27"/>
<polygon fill="#63b8ff" stroke="#63b8ff" points="116.04,-171.6 125.75,-175.84 120.8,-166.47 116.04,-171.6"/>
</a>
</g>
</g>
<!-- Node6 -->
<g id="Node000006" class="node">
<title>Node6</title>
<g id="a_Node000006"><a xlink:href="XML_8cpp.html" target="_top" xlink:title="Implementation of XML I/O utilities.">
<polygon fill="white" stroke="#666666" points="247.5,-140 160.5,-140 160.5,-121 247.5,-121 247.5,-140"/>
<text text-anchor="middle" x="204" y="-128" font-family="Helvetica,sans-Serif" font-size="10.00">src/io/XML.cpp</text>
</a>
</g>
</g>
<!-- Node2&#45;&gt;Node6 -->
<g id="edge6_Node000002_Node000006" class="edge">
<title>Node2&#45;&gt;Node6</title>
<g id="a_edge6_Node000002_Node000006"><a xlink:title=" ">
<path fill="none" stroke="#63b8ff" d="M163.66,-168.96C174.3,-159.07 186.41,-147.83 194.56,-140.27"/>
<polygon fill="#63b8ff" stroke="#63b8ff" points="161.2,-166.47 156.25,-175.84 165.96,-171.6 161.2,-166.47"/>
</a>
</g>
</g>
<!-- Node4 -->
<g id="Node000004" class="node">
<title>Node4</title>
<g id="a_Node000004"><a xlink:href="Medusa_8hpp.html" target="_top" xlink:title="Main header file that includes most other components.">
<polygon fill="white" stroke="#666666" points="156,-19 0,-19 0,0 156,0 156,-19"/>
<text text-anchor="middle" x="78" y="-7" font-family="Helvetica,sans-Serif" font-size="10.00">include/medusa/Medusa.hpp</text>
</a>
</g>
</g>
<!-- Node3&#45;&gt;Node4 -->
<g id="edge3_Node000003_Node000004" class="edge">
<title>Node3&#45;&gt;Node4</title>
<g id="a_edge3_Node000003_Node000004"><a xlink:title=" ">
<path fill="none" stroke="#63b8ff" d="M63.79,-112.78C58,-104.89 51.98,-95.02 49,-85 45.2,-72.22 45.2,-67.78 49,-55 53.1,-41.21 62.97,-27.7 70.06,-19.25"/>
<polygon fill="#63b8ff" stroke="#63b8ff" points="61.13,-115.05 70.06,-120.75 66.63,-110.72 61.13,-115.05"/>
</a>
</g>
</g>
<!-- Node5 -->
<g id="Node000005" class="node">
<title>Node5</title>
<g id="a_Node000005"><a xlink:href="Medusa__fwd_8hpp.html" target="_top" xlink:title="Main header file that includes only declarations for some heavy classes such as mm::WLS to reduce com...">
<polygon fill="white" stroke="#666666" points="193.5,-85 58.5,-85 58.5,-55 193.5,-55 193.5,-85"/>
<text text-anchor="start" x="66.5" y="-73" font-family="Helvetica,sans-Serif" font-size="10.00">include/medusa/Medusa</text>
<text text-anchor="middle" x="126" y="-62" font-family="Helvetica,sans-Serif" font-size="10.00">_fwd.hpp</text>
</a>
</g>
</g>
<!-- Node3&#45;&gt;Node5 -->
<g id="edge4_Node000003_Node000005" class="edge">
<title>Node3&#45;&gt;Node5</title>
<g id="a_edge4_Node000003_Node000005"><a xlink:title=" ">
<path fill="none" stroke="#63b8ff" d="M91.64,-112.88C98.83,-104.11 107.56,-93.48 114.42,-85.11"/>
<polygon fill="#63b8ff" stroke="#63b8ff" points="88.72,-110.92 85.08,-120.87 94.13,-115.36 88.72,-110.92"/>
</a>
</g>
</g>
<!-- Node5&#45;&gt;Node4 -->
<g id="edge5_Node000005_Node000004" class="edge">
<title>Node5&#45;&gt;Node4</title>
<g id="a_edge5_Node000005_Node000004"><a xlink:title=" ">
<path fill="none" stroke="#63b8ff" d="M108.02,-47.09C100.09,-37.42 91.22,-26.61 85.19,-19.27"/>
<polygon fill="#63b8ff" stroke="#63b8ff" points="105.33,-49.33 114.38,-54.84 110.74,-44.89 105.33,-49.33"/>
</a>
</g>
</g>
</g>
</svg>
